<?xml version="1.0" encoding="utf-8" standalone="no"?>
<!DOCTYPE svg PUBLIC "-//W3C//DTD SVG 1.1//EN"
  "http://www.w3.org/Graphics/SVG/1.1/DTD/svg11.dtd">
<svg xmlns:xlink="http://www.w3.org/1999/xlink" width="344.388486pt" height="234.534474pt" viewBox="0 0 344.388486 234.534474" xmlns="http://www.w3.org/2000/svg" version="1.1">
 <metadata>
  <rdf:RDF xmlns:dc="http://purl.org/dc/elements/1.1/" xmlns:cc="http://creativecommons.org/ns#" xmlns:rdf="http://www.w3.org/1999/02/22-rdf-syntax-ns#">
   <cc:Work>
    <dc:type rdf:resource="http://purl.org/dc/dcmitype/StillImage"/>
    <dc:date>2023-12-05T12:10:08.836850</dc:date>
    <dc:format>image/svg+xml</dc:format>
    <dc:creator>
     <cc:Agent>
      <dc:title>Matplotlib v3.8.2, https://matplotlib.org/</dc:title>
     </cc:Agent>
    </dc:creator>
   </cc:Work>
  </rdf:RDF>
 </metadata>
 <defs>
  <style type="text/css">*{stroke-linejoin: round; stroke-linecap: butt}</style>
 </defs>
 <g id="figure_1">
  <g id="patch_1">
   <path d="M 0 234.534474 
L 344.388486 234.534474 
L 344.388486 0 
L 0 0 
L 0 234.534474 
z
" style="fill: none"/>
  </g>
  <g id="axes_1">
   <g id="patch_2">
    <path d="M 68.580859 192.009865 
L 334.956949 192.009865 
L 334.956949 28.442513 
L 68.580859 28.442513 
L 68.580859 192.009865 
z
" style="fill: none"/>
   </g>
   <g id="matplotlib.axis_1">
    <g id="xtick_1">
     <g id="text_1">
      <!-- 0 -->
      <g style="fill: #838383" transform="translate(76.314645 205.957716) scale(0.1375 -0.1375)">
       <defs>
        <path id="DejaVuSans-30" d="M 2034 4250 
Q 1547 4250 1301 3770 
Q 1056 3291 1056 2328 
Q 1056 1369 1301 889 
Q 1547 409 2034 409 
Q 2525 409 2770 889 
Q 3016 1369 3016 2328 
Q 3016 3291 2770 3770 
Q 2525 4250 2034 4250 
z
M 2034 4750 
Q 2819 4750 3233 4129 
Q 3647 3509 3647 2328 
Q 3647 1150 3233 529 
Q 2819 -91 2034 -91 
Q 1250 -91 836 529 
Q 422 1150 422 2328 
Q 422 3509 836 4129 
Q 1250 4750 2034 4750 
z
" transform="scale(0.015625)"/>
       </defs>
       <use xlink:href="#DejaVuSans-30"/>
      </g>
     </g>
    </g>
    <g id="xtick_2">
     <g id="text_2">
      <!-- 50 -->
      <g style="fill: #838383" transform="translate(132.784668 205.957716) scale(0.1375 -0.1375)">
       <defs>
        <path id="DejaVuSans-35" d="M 691 4666 
L 3169 4666 
L 3169 4134 
L 1269 4134 
L 1269 2991 
Q 1406 3038 1543 3061 
Q 1681 3084 1819 3084 
Q 2600 3084 3056 2656 
Q 3513 2228 3513 1497 
Q 3513 744 3044 326 
Q 2575 -91 1722 -91 
Q 1428 -91 1123 -41 
Q 819 9 494 109 
L 494 744 
Q 775 591 1075 516 
Q 1375 441 1709 441 
Q 2250 441 2565 725 
Q 2881 1009 2881 1497 
Q 2881 1984 2565 2268 
Q 2250 2553 1709 2553 
Q 1456 2553 1204 2497 
Q 953 2441 691 2322 
L 691 4666 
z
" transform="scale(0.015625)"/>
       </defs>
       <use xlink:href="#DejaVuSans-35"/>
       <use xlink:href="#DejaVuSans-30" x="63.623047"/>
      </g>
     </g>
    </g>
    <g id="xtick_3">
     <g id="text_3">
      <!-- 100 -->
      <g style="fill: #838383" transform="translate(189.25469 205.957716) scale(0.1375 -0.1375)">
       <defs>
        <path id="DejaVuSans-31" d="M 794 531 
L 1825 531 
L 1825 4091 
L 703 3866 
L 703 4441 
L 1819 4666 
L 2450 4666 
L 2450 531 
L 3481 531 
L 3481 0 
L 794 0 
L 794 531 
z
" transform="scale(0.015625)"/>
       </defs>
       <use xlink:href="#DejaVuSans-31"/>
       <use xlink:href="#DejaVuSans-30" x="63.623047"/>
       <use xlink:href="#DejaVuSans-30" x="127.246094"/>
      </g>
     </g>
    </g>
    <g id="xtick_4">
     <g id="text_4">
      <!-- 150 -->
      <g style="fill: #838383" transform="translate(250.098932 205.957716) scale(0.1375 -0.1375)">
       <use xlink:href="#DejaVuSans-31"/>
       <use xlink:href="#DejaVuSans-35" x="63.623047"/>
       <use xlink:href="#DejaVuSans-30" x="127.246094"/>
      </g>
     </g>
    </g>
    <g id="xtick_5">
     <g id="text_5">
      <!-- 200 -->
      <g style="fill: #838383" transform="translate(310.943174 205.957716) scale(0.1375 -0.1375)">
       <defs>
        <path id="DejaVuSans-32" d="M 1228 531 
L 3431 531 
L 3431 0 
L 469 0 
L 469 531 
Q 828 903 1448 1529 
Q 2069 2156 2228 2338 
Q 2531 2678 2651 2914 
Q 2772 3150 2772 3378 
Q 2772 3750 2511 3984 
Q 2250 4219 1831 4219 
Q 1534 4219 1204 4116 
Q 875 4013 500 3803 
L 500 4441 
Q 881 4594 1212 4672 
Q 1544 4750 1819 4750 
Q 2544 4750 2975 4387 
Q 3406 4025 3406 3419 
Q 3406 3131 3298 2873 
Q 3191 2616 2906 2266 
Q 2828 2175 2409 1742 
Q 1991 1309 1228 531 
z
" transform="scale(0.015625)"/>
       </defs>
       <use xlink:href="#DejaVuSans-32"/>
       <use xlink:href="#DejaVuSans-30" x="63.623047"/>
       <use xlink:href="#DejaVuSans-30" x="127.246094"/>
      </g>
     </g>
    </g>
    <g id="text_6">
     <!-- draw -->
     <g style="fill: #838383" transform="translate(183.194685 224.214943) scale(0.15 -0.15)">
      <defs>
       <path id="DejaVuSans-64" d="M 2906 2969 
L 2906 4863 
L 3481 4863 
L 3481 0 
L 2906 0 
L 2906 525 
Q 2725 213 2448 61 
Q 2172 -91 1784 -91 
Q 1150 -91 751 415 
Q 353 922 353 1747 
Q 353 2572 751 3078 
Q 1150 3584 1784 3584 
Q 2172 3584 2448 3432 
Q 2725 3281 2906 2969 
z
M 947 1747 
Q 947 1113 1208 752 
Q 1469 391 1925 391 
Q 2381 391 2643 752 
Q 2906 1113 2906 1747 
Q 2906 2381 2643 2742 
Q 2381 3103 1925 3103 
Q 1469 3103 1208 2742 
Q 947 2381 947 1747 
z
" transform="scale(0.015625)"/>
       <path id="DejaVuSans-72" d="M 2631 2963 
Q 2534 3019 2420 3045 
Q 2306 3072 2169 3072 
Q 1681 3072 1420 2755 
Q 1159 2438 1159 1844 
L 1159 0 
L 581 0 
L 581 3500 
L 1159 3500 
L 1159 2956 
Q 1341 3275 1631 3429 
Q 1922 3584 2338 3584 
Q 2397 3584 2469 3576 
Q 2541 3569 2628 3553 
L 2631 2963 
z
" transform="scale(0.015625)"/>
       <path id="DejaVuSans-61" d="M 2194 1759 
Q 1497 1759 1228 1600 
Q 959 1441 959 1056 
Q 959 750 1161 570 
Q 1363 391 1709 391 
Q 2188 391 2477 730 
Q 2766 1069 2766 1631 
L 2766 1759 
L 2194 1759 
z
M 3341 1997 
L 3341 0 
L 2766 0 
L 2766 531 
Q 2569 213 2275 61 
Q 1981 -91 1556 -91 
Q 1019 -91 701 211 
Q 384 513 384 1019 
Q 384 1609 779 1909 
Q 1175 2209 1959 2209 
L 2766 2209 
L 2766 2266 
Q 2766 2663 2505 2880 
Q 2244 3097 1772 3097 
Q 1472 3097 1187 3025 
Q 903 2953 641 2809 
L 641 3341 
Q 956 3463 1253 3523 
Q 1550 3584 1831 3584 
Q 2591 3584 2966 3190 
Q 3341 2797 3341 1997 
z
" transform="scale(0.015625)"/>
       <path id="DejaVuSans-77" d="M 269 3500 
L 844 3500 
L 1563 769 
L 2278 3500 
L 2956 3500 
L 3675 769 
L 4391 3500 
L 4966 3500 
L 4050 0 
L 3372 0 
L 2619 2869 
L 1863 0 
L 1184 0 
L 269 3500 
z
" transform="scale(0.015625)"/>
      </defs>
      <use xlink:href="#DejaVuSans-64"/>
      <use xlink:href="#DejaVuSans-72" x="63.476562"/>
      <use xlink:href="#DejaVuSans-61" x="104.589844"/>
      <use xlink:href="#DejaVuSans-77" x="165.869141"/>
     </g>
    </g>
   </g>
   <g id="matplotlib.axis_2">
    <g id="ytick_1">
     <g id="text_7">
      <!-- 392.5 -->
      <g style="fill: #838383" transform="translate(25.717188 174.544411) scale(0.1375 -0.1375)">
       <defs>
        <path id="DejaVuSans-33" d="M 2597 2516 
Q 3050 2419 3304 2112 
Q 3559 1806 3559 1356 
Q 3559 666 3084 287 
Q 2609 -91 1734 -91 
Q 1441 -91 1130 -33 
Q 819 25 488 141 
L 488 750 
Q 750 597 1062 519 
Q 1375 441 1716 441 
Q 2309 441 2620 675 
Q 2931 909 2931 1356 
Q 2931 1769 2642 2001 
Q 2353 2234 1838 2234 
L 1294 2234 
L 1294 2753 
L 1863 2753 
Q 2328 2753 2575 2939 
Q 2822 3125 2822 3475 
Q 2822 3834 2567 4026 
Q 2313 4219 1838 4219 
Q 1578 4219 1281 4162 
Q 984 4106 628 3988 
L 628 4550 
Q 988 4650 1302 4700 
Q 1616 4750 1894 4750 
Q 2613 4750 3031 4423 
Q 3450 4097 3450 3541 
Q 3450 3153 3228 2886 
Q 3006 2619 2597 2516 
z
" transform="scale(0.015625)"/>
        <path id="DejaVuSans-39" d="M 703 97 
L 703 672 
Q 941 559 1184 500 
Q 1428 441 1663 441 
Q 2288 441 2617 861 
Q 2947 1281 2994 2138 
Q 2813 1869 2534 1725 
Q 2256 1581 1919 1581 
Q 1219 1581 811 2004 
Q 403 2428 403 3163 
Q 403 3881 828 4315 
Q 1253 4750 1959 4750 
Q 2769 4750 3195 4129 
Q 3622 3509 3622 2328 
Q 3622 1225 3098 567 
Q 2575 -91 1691 -91 
Q 1453 -91 1209 -44 
Q 966 3 703 97 
z
M 1959 2075 
Q 2384 2075 2632 2365 
Q 2881 2656 2881 3163 
Q 2881 3666 2632 3958 
Q 2384 4250 1959 4250 
Q 1534 4250 1286 3958 
Q 1038 3666 1038 3163 
Q 1038 2656 1286 2365 
Q 1534 2075 1959 2075 
z
" transform="scale(0.015625)"/>
        <path id="DejaVuSans-2e" d="M 684 794 
L 1344 794 
L 1344 0 
L 684 0 
L 684 794 
z
" transform="scale(0.015625)"/>
       </defs>
       <use xlink:href="#DejaVuSans-33"/>
       <use xlink:href="#DejaVuSans-39" x="63.623047"/>
       <use xlink:href="#DejaVuSans-32" x="127.246094"/>
       <use xlink:href="#DejaVuSans-2e" x="190.869141"/>
       <use xlink:href="#DejaVuSans-35" x="222.65625"/>
      </g>
     </g>
    </g>
    <g id="ytick_2">
     <g id="text_8">
      <!-- 395.0 -->
      <g style="fill: #838383" transform="translate(25.717188 136.634915) scale(0.1375 -0.1375)">
       <use xlink:href="#DejaVuSans-33"/>
       <use xlink:href="#DejaVuSans-39" x="63.623047"/>
       <use xlink:href="#DejaVuSans-35" x="127.246094"/>
       <use xlink:href="#DejaVuSans-2e" x="190.869141"/>
       <use xlink:href="#DejaVuSans-30" x="222.65625"/>
      </g>
     </g>
    </g>
    <g id="ytick_3">
     <g id="text_9">
      <!-- 397.5 -->
      <g style="fill: #838383" transform="translate(25.717188 98.725419) scale(0.1375 -0.1375)">
       <defs>
        <path id="DejaVuSans-37" d="M 525 4666 
L 3525 4666 
L 3525 4397 
L 1831 0 
L 1172 0 
L 2766 4134 
L 525 4134 
L 525 4666 
z
" transform="scale(0.015625)"/>
       </defs>
       <use xlink:href="#DejaVuSans-33"/>
       <use xlink:href="#DejaVuSans-39" x="63.623047"/>
       <use xlink:href="#DejaVuSans-37" x="127.246094"/>
       <use xlink:href="#DejaVuSans-2e" x="190.869141"/>
       <use xlink:href="#DejaVuSans-35" x="222.65625"/>
      </g>
     </g>
    </g>
    <g id="ytick_4">
     <g id="text_10">
      <!-- 400.0 -->
      <g style="fill: #838383" transform="translate(25.717188 60.815923) scale(0.1375 -0.1375)">
       <defs>
        <path id="DejaVuSans-34" d="M 2419 4116 
L 825 1625 
L 2419 1625 
L 2419 4116 
z
M 2253 4666 
L 3047 4666 
L 3047 1625 
L 3713 1625 
L 3713 1100 
L 3047 1100 
L 3047 0 
L 2419 0 
L 2419 1100 
L 313 1100 
L 313 1709 
L 2253 4666 
z
" transform="scale(0.015625)"/>
       </defs>
       <use xlink:href="#DejaVuSans-34"/>
       <use xlink:href="#DejaVuSans-30" x="63.623047"/>
       <use xlink:href="#DejaVuSans-30" x="127.246094"/>
       <use xlink:href="#DejaVuSans-2e" x="190.869141"/>
       <use xlink:href="#DejaVuSans-30" x="222.65625"/>
      </g>
     </g>
    </g>
    <g id="text_11">
     <!-- logprob -->
     <g style="fill: #838383" transform="translate(18.597656 138.686345) rotate(-90) scale(0.15 -0.15)">
      <defs>
       <path id="DejaVuSans-6c" d="M 603 4863 
L 1178 4863 
L 1178 0 
L 603 0 
L 603 4863 
z
" transform="scale(0.015625)"/>
       <path id="DejaVuSans-6f" d="M 1959 3097 
Q 1497 3097 1228 2736 
Q 959 2375 959 1747 
Q 959 1119 1226 758 
Q 1494 397 1959 397 
Q 2419 397 2687 759 
Q 2956 1122 2956 1747 
Q 2956 2369 2687 2733 
Q 2419 3097 1959 3097 
z
M 1959 3584 
Q 2709 3584 3137 3096 
Q 3566 2609 3566 1747 
Q 3566 888 3137 398 
Q 2709 -91 1959 -91 
Q 1206 -91 779 398 
Q 353 888 353 1747 
Q 353 2609 779 3096 
Q 1206 3584 1959 3584 
z
" transform="scale(0.015625)"/>
       <path id="DejaVuSans-67" d="M 2906 1791 
Q 2906 2416 2648 2759 
Q 2391 3103 1925 3103 
Q 1463 3103 1205 2759 
Q 947 2416 947 1791 
Q 947 1169 1205 825 
Q 1463 481 1925 481 
Q 2391 481 2648 825 
Q 2906 1169 2906 1791 
z
M 3481 434 
Q 3481 -459 3084 -895 
Q 2688 -1331 1869 -1331 
Q 1566 -1331 1297 -1286 
Q 1028 -1241 775 -1147 
L 775 -588 
Q 1028 -725 1275 -790 
Q 1522 -856 1778 -856 
Q 2344 -856 2625 -561 
Q 2906 -266 2906 331 
L 2906 616 
Q 2728 306 2450 153 
Q 2172 0 1784 0 
Q 1141 0 747 490 
Q 353 981 353 1791 
Q 353 2603 747 3093 
Q 1141 3584 1784 3584 
Q 2172 3584 2450 3431 
Q 2728 3278 2906 2969 
L 2906 3500 
L 3481 3500 
L 3481 434 
z
" transform="scale(0.015625)"/>
       <path id="DejaVuSans-70" d="M 1159 525 
L 1159 -1331 
L 581 -1331 
L 581 3500 
L 1159 3500 
L 1159 2969 
Q 1341 3281 1617 3432 
Q 1894 3584 2278 3584 
Q 2916 3584 3314 3078 
Q 3713 2572 3713 1747 
Q 3713 922 3314 415 
Q 2916 -91 2278 -91 
Q 1894 -91 1617 61 
Q 1341 213 1159 525 
z
M 3116 1747 
Q 3116 2381 2855 2742 
Q 2594 3103 2138 3103 
Q 1681 3103 1420 2742 
Q 1159 2381 1159 1747 
Q 1159 1113 1420 752 
Q 1681 391 2138 391 
Q 2594 391 2855 752 
Q 3116 1113 3116 1747 
z
" transform="scale(0.015625)"/>
       <path id="DejaVuSans-62" d="M 3116 1747 
Q 3116 2381 2855 2742 
Q 2594 3103 2138 3103 
Q 1681 3103 1420 2742 
Q 1159 2381 1159 1747 
Q 1159 1113 1420 752 
Q 1681 391 2138 391 
Q 2594 391 2855 752 
Q 3116 1113 3116 1747 
z
M 1159 2969 
Q 1341 3281 1617 3432 
Q 1894 3584 2278 3584 
Q 2916 3584 3314 3078 
Q 3713 2572 3713 1747 
Q 3713 922 3314 415 
Q 2916 -91 2278 -91 
Q 1894 -91 1617 61 
Q 1341 213 1159 525 
L 1159 0 
L 581 0 
L 581 4863 
L 1159 4863 
L 1159 2969 
z
" transform="scale(0.015625)"/>
      </defs>
      <use xlink:href="#DejaVuSans-6c"/>
      <use xlink:href="#DejaVuSans-6f" x="27.783203"/>
      <use xlink:href="#DejaVuSans-67" x="88.964844"/>
      <use xlink:href="#DejaVuSans-70" x="152.441406"/>
      <use xlink:href="#DejaVuSans-72" x="215.917969"/>
      <use xlink:href="#DejaVuSans-6f" x="254.78125"/>
      <use xlink:href="#DejaVuSans-62" x="315.962891"/>
     </g>
    </g>
   </g>
   <g id="line2d_1">
    <path d="M 80.688863 128.359997 
L 81.905748 140.105369 
L 84.339518 83.74461 
L 86.773288 126.291911 
L 87.990172 80.627443 
L 89.207057 105.015022 
L 90.423942 153.069195 
L 91.640827 106.624509 
L 92.857712 105.819303 
L 94.074597 137.326018 
L 95.291481 121.174222 
L 96.508366 130.56691 
L 97.725251 120.72997 
L 98.942136 101.285157 
L 100.159021 124.067412 
L 101.375906 73.505992 
L 102.59279 150.263004 
L 105.02656 77.232618 
L 106.243445 129.484046 
L 107.46033 76.886934 
L 108.677215 140.66161 
L 109.894099 87.132031 
L 111.110984 94.234509 
L 112.327869 141.676447 
L 113.544754 87.0765 
L 114.761639 162.72427 
L 115.978524 94.439975 
L 117.195408 84.289744 
L 118.412293 115.927885 
L 119.629178 58.882237 
L 120.846063 119.385182 
L 122.062948 120.704518 
L 123.279833 84.997771 
L 124.496717 119.302811 
L 125.713602 123.396407 
L 128.147372 107.071538 
L 129.364257 94.013308 
L 131.798026 118.645225 
L 133.014911 76.626399 
L 134.231796 184.574985 
L 135.448681 89.838266 
L 136.665566 136.397717 
L 137.882451 119.082073 
L 139.099335 134.738251 
L 140.31622 132.854808 
L 141.533105 140.805991 
L 142.74999 132.07459 
L 143.966875 102.255107 
L 145.18376 137.233466 
L 146.400644 135.140854 
L 147.617529 123.901744 
L 148.834414 124.324246 
L 150.051299 139.792542 
L 151.268184 136.980797 
L 152.485069 124.902236 
L 153.701953 92.104413 
L 154.918838 98.665459 
L 157.352608 64.456673 
L 159.786378 146.233269 
L 161.003262 106.151566 
L 162.220147 151.309772 
L 165.870802 98.108293 
L 167.087687 125.414514 
L 168.304571 100.685416 
L 170.738341 147.298548 
L 171.955226 110.198886 
L 173.172111 119.865993 
L 174.388995 119.529102 
L 175.60588 166.02284 
L 179.256535 87.505018 
L 180.47342 123.942929 
L 181.690304 82.546519 
L 184.124074 141.607496 
L 185.340959 159.935664 
L 186.557844 138.198788 
L 187.774729 139.474161 
L 188.991613 108.876774 
L 190.208498 105.616613 
L 191.425383 110.973087 
L 192.642268 133.40457 
L 193.859153 103.476337 
L 196.292922 130.502124 
L 197.509807 143.690852 
L 198.726692 99.097679 
L 199.943577 119.803057 
L 201.160462 99.514165 
L 202.377347 167.60919 
L 204.811116 73.704517 
L 206.028001 132.958004 
L 207.244886 127.883814 
L 208.461771 113.62703 
L 210.89554 136.50878 
L 212.112425 79.150305 
L 213.32931 161.531731 
L 214.546195 98.383174 
L 215.76308 150.877552 
L 218.196849 95.70054 
L 219.413734 122.903565 
L 220.630619 98.84825 
L 221.847504 166.504113 
L 223.064389 105.478247 
L 224.281274 170.39502 
L 226.715043 123.812893 
L 227.931928 175.739 
L 229.148813 123.487571 
L 230.365698 144.412762 
L 232.799467 121.78368 
L 234.016352 123.070159 
L 236.450122 108.383006 
L 237.667007 111.937022 
L 238.883892 119.909492 
L 240.100776 93.278441 
L 242.534546 143.621901 
L 243.751431 88.327809 
L 247.402085 182.89053 
L 248.61897 94.920785 
L 249.835855 106.495861 
L 251.05274 130.282774 
L 253.48651 116.241175 
L 254.703394 116.57205 
L 255.920279 118.438833 
L 257.137164 118.444386 
L 258.354049 98.604837 
L 259.570934 100.773341 
L 260.787819 111.466855 
L 262.004703 89.683703 
L 263.221588 120.46527 
L 264.438473 122.366298 
L 265.655358 121.382002 
L 266.872243 77.012343 
L 269.306012 127.225303 
L 270.522897 94.437661 
L 272.956667 123.868887 
L 274.173552 92.347826 
L 275.390437 138.719858 
L 276.607321 141.056346 
L 277.824206 107.779564 
L 279.041091 151.810944 
L 280.257976 143.117027 
L 282.691746 72.975204 
L 285.125515 165.797938 
L 287.559285 87.239855 
L 288.77617 165.235219 
L 289.993055 122.51577 
L 291.209939 132.861286 
L 292.426824 74.124706 
L 297.294363 138.222389 
L 298.511248 66.648316 
L 299.728133 117.883518 
L 300.945018 99.589595 
L 302.161903 115.902895 
L 303.378788 81.534457 
L 304.595672 99.303608 
L 305.812557 155.665292 
L 307.029442 96.621437 
L 308.246327 145.263319 
L 309.463212 53.44154 
L 311.896981 164.4078 
L 313.113866 132.76642 
L 314.330751 138.357978 
L 315.547636 90.159423 
L 316.764521 147.530392 
L 319.19829 114.151802 
L 320.415175 143.913904 
L 321.63206 136.731831 
L 322.848945 114.879265 
L 322.848945 114.879265 
" clip-path="url(#pc6982a650e)" style="fill: none; stroke: #440154; stroke-width: 1.5; stroke-linecap: round"/>
   </g>
   <g id="line2d_2">
    <path d="M 80.688863 112.362763 
L 81.905748 122.208959 
L 84.339518 70.498499 
L 86.773288 107.71524 
L 87.990172 64.999031 
L 89.207057 87.142675 
L 90.423942 142.596882 
L 91.640827 92.178455 
L 92.857712 90.78045 
L 94.074597 118.475854 
L 95.291481 104.817885 
L 96.508366 115.905672 
L 98.942136 86.258336 
L 100.159021 108.956832 
L 101.375906 56.833126 
L 102.59279 132.858047 
L 105.02656 62.907345 
L 106.243445 115.449388 
L 107.46033 63.322905 
L 108.677215 124.809221 
L 109.894099 75.39869 
L 111.110984 80.610321 
L 112.327869 127.461775 
L 113.544754 70.339772 
L 114.761639 146.70251 
L 115.978524 77.347383 
L 117.195408 66.515966 
L 118.412293 99.794599 
L 119.629178 44.234882 
L 120.846063 104.138087 
L 122.062948 104.290798 
L 123.279833 68.468361 
L 125.713602 109.665784 
L 129.364257 77.612083 
L 131.798026 104.656381 
L 133.014911 58.890567 
L 134.231796 166.570751 
L 135.448681 72.878949 
L 136.665566 120.698965 
L 137.882451 105.275094 
L 139.099335 122.26449 
L 140.31622 116.962621 
L 141.533105 125.339546 
L 142.74999 114.406322 
L 143.966875 87.633666 
L 145.18376 121.770723 
L 146.400644 118.039932 
L 147.617529 105.374125 
L 148.834414 108.930917 
L 150.051299 120.518488 
L 151.268184 120.995133 
L 152.485069 112.179509 
L 153.701953 80.039735 
L 154.918838 85.299492 
L 157.352608 47.668116 
L 159.786378 134.067708 
L 161.003262 90.532409 
L 162.220147 137.429677 
L 164.653917 118.846064 
L 165.870802 81.441905 
L 167.087687 111.454823 
L 168.304571 84.711784 
L 170.738341 131.373505 
L 171.955226 93.98184 
L 173.172111 103.829424 
L 174.388995 104.16215 
L 175.60588 152.235297 
L 179.256535 72.953454 
L 180.47342 110.824541 
L 181.690304 71.399498 
L 185.340959 143.315089 
L 186.557844 124.233544 
L 187.774729 120.934974 
L 188.991613 93.659295 
L 190.208498 92.918412 
L 191.425383 96.181813 
L 192.642268 119.783621 
L 193.859153 90.44032 
L 196.292922 119.008957 
L 197.509807 130.15968 
L 198.726692 83.140243 
L 199.943577 104.513387 
L 201.160462 84.268457 
L 202.377347 151.237582 
L 203.594231 72.805833 
L 204.811116 63.212768 
L 206.028001 121.023361 
L 208.461771 99.639573 
L 210.89554 119.762334 
L 212.112425 64.343297 
L 213.32931 145.237867 
L 214.546195 83.881588 
L 215.76308 138.763358 
L 218.196849 80.872707 
L 219.413734 107.05858 
L 220.630619 85.19028 
L 221.847504 150.835441 
L 223.064389 91.093277 
L 224.281274 151.769758 
L 226.715043 106.736498 
L 227.931928 158.653812 
L 229.148813 106.772593 
L 230.365698 127.999967 
L 231.582583 120.629551 
L 232.799467 105.268153 
L 234.016352 107.684235 
L 235.233237 96.527959 
L 236.450122 94.785196 
L 237.667007 95.40067 
L 238.883892 107.040533 
L 240.100776 77.20115 
L 242.534546 130.289253 
L 243.751431 71.097314 
L 247.402085 170.182612 
L 248.61897 81.166098 
L 249.835855 90.193667 
L 251.05274 115.662259 
L 253.48651 97.963448 
L 254.703394 98.961164 
L 255.920279 107.059969 
L 257.137164 102.505924 
L 258.354049 78.516783 
L 260.787819 99.702509 
L 262.004703 72.319007 
L 263.221588 105.317668 
L 265.655358 107.749022 
L 266.872243 62.112319 
L 269.306012 109.980462 
L 270.522897 80.378939 
L 272.956667 110.559841 
L 274.173552 73.698964 
L 275.390437 121.774425 
L 276.607321 124.496856 
L 277.824206 93.719917 
L 279.041091 135.472192 
L 280.257976 127.172548 
L 282.691746 55.152372 
L 285.125515 148.817797 
L 287.559285 70.602158 
L 288.77617 149.167183 
L 289.993055 106.474574 
L 291.209939 117.455463 
L 292.426824 58.520357 
L 296.077479 94.993439 
L 297.294363 126.560776 
L 298.511248 52.199948 
L 299.728133 101.96079 
L 300.945018 83.300358 
L 302.161903 99.099067 
L 303.378788 63.385378 
L 304.595672 85.354098 
L 305.812557 141.008681 
L 307.029442 83.895008 
L 308.246327 128.166562 
L 309.463212 41.530036 
L 311.896981 152.237611 
L 313.113866 118.730374 
L 314.330751 121.598112 
L 315.547636 76.33347 
L 316.764521 131.789991 
L 319.19829 95.819007 
L 320.415175 129.832969 
L 321.63206 123.382061 
L 322.848945 100.551678 
L 322.848945 100.551678 
" clip-path="url(#pc6982a650e)" style="fill: none; stroke: #482878; stroke-width: 1.5; stroke-linecap: round"/>
   </g>
   <g id="line2d_3">
    <path d="M 80.688863 115.744631 
L 81.905748 125.688469 
L 84.339518 74.017345 
L 86.773288 111.772278 
L 87.990172 67.399842 
L 89.207057 92.640292 
L 90.423942 142.443708 
L 91.640827 96.346556 
L 92.857712 92.521825 
L 94.074597 122.960485 
L 95.291481 108.01511 
L 96.508366 116.881175 
L 97.725251 110.243774 
L 98.942136 90.108519 
L 100.159021 111.691757 
L 101.375906 58.151998 
L 102.59279 136.129315 
L 105.02656 65.044382 
L 106.243445 117.280539 
L 107.46033 65.556197 
L 108.677215 125.278462 
L 109.894099 75.969276 
L 111.110984 83.507213 
L 112.327869 129.802427 
L 113.544754 74.791546 
L 114.761639 151.142252 
L 115.978524 82.285058 
L 117.195408 70.100524 
L 118.412293 103.818318 
L 119.629178 47.243763 
L 120.846063 107.486173 
L 122.062948 108.145146 
L 123.279833 73.380584 
L 125.713602 113.94865 
L 129.364257 81.857465 
L 131.798026 107.408429 
L 133.014911 62.6954 
L 134.231796 171.271492 
L 135.448681 77.506573 
L 136.665566 123.487571 
L 137.882451 108.070179 
L 139.099335 123.714788 
L 140.31622 120.746167 
L 141.533105 129.047661 
L 142.74999 118.262984 
L 143.966875 90.571744 
L 145.18376 126.607515 
L 146.400644 122.751779 
L 147.617529 108.383006 
L 148.834414 113.317905 
L 150.051299 127.829208 
L 151.268184 123.997535 
L 152.485069 115.368868 
L 153.701953 83.46973 
L 154.918838 87.137584 
L 157.352608 51.762175 
L 159.786378 135.686451 
L 161.003262 94.116967 
L 162.220147 140.396909 
L 164.653917 122.930868 
L 165.870802 87.127404 
L 167.087687 113.966697 
L 168.304571 88.843327 
L 170.738341 134.191728 
L 171.955226 98.152718 
L 173.172111 108.506101 
L 174.388995 108.762471 
L 175.60588 156.768518 
L 179.256535 76.476927 
L 180.47342 111.35209 
L 181.690304 72.546686 
L 184.124074 130.323035 
L 185.340959 147.069943 
L 188.991613 96.357662 
L 190.208498 93.045209 
L 191.425383 99.832545 
L 192.642268 123.241844 
L 193.859153 93.109996 
L 196.292922 121.171908 
L 197.509807 133.579494 
L 198.726692 87.332407 
L 199.943577 110.325683 
L 201.160462 86.015848 
L 202.377347 151.978464 
L 204.811116 62.570454 
L 206.028001 121.462523 
L 207.244886 114.957009 
L 208.461771 102.90899 
L 210.89554 123.021107 
L 212.112425 69.088 
L 213.32931 149.013545 
L 214.546195 87.504555 
L 215.76308 142.095247 
L 218.196849 82.73949 
L 219.413734 113.176762 
L 220.630619 87.083441 
L 221.847504 154.9295 
L 223.064389 93.496865 
L 224.281274 156.210426 
L 226.715043 110.686638 
L 227.931928 162.530835 
L 229.148813 109.664858 
L 230.365698 132.70441 
L 232.799467 108.94989 
L 234.016352 111.763948 
L 235.233237 99.533138 
L 237.667007 97.572414 
L 238.883892 110.922646 
L 240.100776 79.926821 
L 242.534546 133.458713 
L 243.751431 75.487078 
L 247.402085 172.876352 
L 248.61897 83.933417 
L 249.835855 94.924487 
L 251.05274 120.442595 
L 253.48651 104.94607 
L 254.703394 103.61933 
L 255.920279 108.270555 
L 257.137164 107.239983 
L 258.354049 83.50999 
L 259.570934 88.587419 
L 260.787819 103.322699 
L 262.004703 77.466313 
L 263.221588 108.286752 
L 264.438473 111.940724 
L 265.655358 109.821272 
L 266.872243 66.941245 
L 269.306012 115.090285 
L 270.522897 83.60717 
L 272.956667 111.726002 
L 274.173552 77.704635 
L 275.390437 127.66539 
L 276.607321 127.776453 
L 277.824206 95.210012 
L 279.041091 139.71017 
L 280.257976 131.588227 
L 282.691746 58.302396 
L 285.125515 151.094588 
L 287.559285 75.758257 
L 288.77617 153.313534 
L 289.993055 108.649095 
L 291.209939 121.295003 
L 292.426824 63.987432 
L 296.077479 98.267946 
L 297.294363 128.301226 
L 298.511248 53.317982 
L 299.728133 103.163509 
L 300.945018 85.537815 
L 302.161903 103.747978 
L 303.378788 68.178209 
L 304.595672 88.439798 
L 305.812557 141.382593 
L 307.029442 86.392537 
L 308.246327 133.103774 
L 309.463212 43.804513 
L 311.896981 154.112262 
L 313.113866 120.835943 
L 314.330751 124.072503 
L 315.547636 79.588541 
L 316.764521 136.638816 
L 319.19829 101.028323 
L 320.415175 133.809024 
L 321.63206 127.059171 
L 322.848945 104.334761 
L 322.848945 104.334761 
" clip-path="url(#pc6982a650e)" style="fill: none; stroke: #3e4989; stroke-width: 1.5; stroke-linecap: round"/>
   </g>
   <g id="line2d_4">
    <path d="M 80.688863 125.235425 
L 81.905748 138.200639 
L 84.339518 80.118404 
L 86.773288 123.963291 
L 87.990172 77.76572 
L 89.207057 101.382337 
L 90.423942 150.623033 
L 91.640827 102.938144 
L 92.857712 103.26578 
L 94.074597 135.00943 
L 95.291481 118.806267 
L 96.508366 129.074964 
L 98.942136 97.880151 
L 100.159021 121.675856 
L 101.375906 72.58926 
L 102.59279 147.534094 
L 105.02656 74.692978 
L 106.243445 126.545505 
L 107.46033 74.303332 
L 108.677215 140.343229 
L 109.894099 84.033374 
L 111.110984 90.715663 
L 112.327869 139.269157 
L 113.544754 83.767286 
L 114.761639 159.384976 
L 115.978524 91.320031 
L 117.195408 82.473402 
L 118.412293 112.515012 
L 119.629178 56.160732 
L 120.846063 116.336967 
L 122.062948 118.046874 
L 123.279833 81.280863 
L 124.496717 117.461479 
L 125.713602 119.423592 
L 126.930487 115.19672 
L 129.364257 91.699496 
L 131.798026 115.376272 
L 133.014911 73.817431 
L 134.231796 182.001101 
L 135.448681 86.497121 
L 136.665566 133.775705 
L 137.882451 115.886236 
L 139.099335 131.982963 
L 140.31622 129.671928 
L 141.533105 137.62959 
L 142.74999 130.194849 
L 143.966875 99.370708 
L 145.18376 133.794215 
L 146.400644 132.296254 
L 147.617529 122.441265 
L 148.834414 121.277418 
L 150.051299 136.25426 
L 151.268184 134.391642 
L 152.485069 122.492169 
L 153.701953 88.09504 
L 154.918838 96.259094 
L 157.352608 61.40059 
L 159.786378 143.66864 
L 161.003262 103.570277 
L 162.220147 147.622482 
L 165.870802 94.559368 
L 167.087687 123.22935 
L 168.304571 98.222595 
L 170.738341 145.483594 
L 171.955226 106.822109 
L 173.172111 116.762245 
L 174.388995 116.298094 
L 175.60588 162.193019 
L 179.256535 83.7261 
L 180.47342 122.090029 
L 181.690304 79.297001 
L 184.124074 138.882751 
L 185.340959 156.871251 
L 186.557844 133.997831 
L 187.774729 137.976662 
L 188.991613 106.947517 
L 190.208498 103.614702 
L 191.425383 107.359376 
L 192.642268 130.224466 
L 193.859153 100.616465 
L 196.292922 127.39236 
L 197.509807 140.56628 
L 198.726692 95.959224 
L 199.943577 115.676142 
L 201.160462 97.621004 
L 202.377347 166.619804 
L 204.811116 71.320365 
L 206.028001 130.899174 
L 207.244886 125.260877 
L 208.461771 110.353449 
L 209.678656 118.188942 
L 210.89554 134.885409 
L 212.112425 75.227931 
L 213.32931 159.340551 
L 214.546195 94.59824 
L 215.76308 146.355438 
L 218.196849 93.922607 
L 219.413734 119.005255 
L 220.630619 95.927293 
L 221.847504 163.660901 
L 223.064389 102.880761 
L 224.281274 168.090926 
L 226.715043 121.247801 
L 227.931928 173.427039 
L 229.148813 121.618011 
L 230.365698 141.042926 
L 232.799467 119.13853 
L 234.016352 120.73506 
L 236.450122 104.513387 
L 238.883892 116.407306 
L 240.100776 91.041448 
L 242.534546 140.163677 
L 243.751431 85.195833 
L 247.402085 179.899234 
L 248.61897 91.763357 
L 249.835855 103.446257 
L 251.05274 126.375671 
L 253.48651 112.060116 
L 254.703394 112.985178 
L 255.920279 116.031081 
L 257.137164 115.012541 
L 258.354049 95.919889 
L 259.570934 98.614555 
L 260.787819 107.544481 
L 262.004703 86.243065 
L 263.221588 117.362448 
L 265.655358 118.923808 
L 266.872243 73.088118 
L 269.306012 124.161816 
L 270.522897 91.139554 
L 272.956667 121.572198 
L 274.173552 90.301028 
L 275.390437 134.848388 
L 276.607321 138.981782 
L 277.824206 105.589772 
L 279.041091 149.185693 
L 280.257976 139.654639 
L 282.691746 70.628073 
L 285.125515 163.953367 
L 287.559285 83.435022 
L 288.77617 162.465123 
L 289.993055 120.771619 
L 291.209939 130.257785 
L 292.426824 70.024168 
L 294.860594 92.662042 
L 296.077479 105.989599 
L 297.294363 135.190832 
L 298.511248 65.122126 
L 299.728133 116.927451 
L 300.945018 98.460455 
L 302.161903 112.507145 
L 303.378788 79.031838 
L 304.595672 96.090186 
L 305.812557 154.546333 
L 307.029442 92.677313 
L 308.246327 142.415479 
L 309.463212 49.609404 
L 311.896981 161.888984 
L 313.113866 130.632623 
L 314.330751 137.30797 
L 315.547636 86.780332 
L 316.764521 144.225343 
L 319.19829 111.292856 
L 320.415175 140.321016 
L 321.63206 132.75809 
L 322.848945 111.432611 
L 322.848945 111.432611 
" clip-path="url(#pc6982a650e)" style="fill: none; stroke: #31688e; stroke-width: 1.5; stroke-linecap: round"/>
   </g>
   <g id="line2d_5">
    <path d="M 80.688863 124.59126 
L 81.905748 137.424124 
L 84.339518 79.054976 
L 86.773288 123.251562 
L 87.990172 77.519531 
L 89.207057 101.717377 
L 90.423942 149.964985 
L 91.640827 102.239373 
L 92.857712 102.312489 
L 94.074597 134.72807 
L 95.291481 117.751168 
L 96.508366 128.869498 
L 98.942136 96.77276 
L 100.159021 120.213064 
L 101.375906 71.057516 
L 102.59279 147.823783 
L 105.02656 73.96968 
L 106.243445 125.962425 
L 107.46033 73.582348 
L 108.677215 139.285354 
L 109.894099 83.009744 
L 111.110984 89.75358 
L 112.327869 137.76194 
L 113.544754 83.325348 
L 114.761639 159.402561 
L 115.978524 89.924802 
L 117.195408 81.364161 
L 118.412293 111.821331 
L 119.629178 54.564664 
L 120.846063 115.095375 
L 122.062948 116.914031 
L 123.279833 79.685259 
L 124.496717 116.362881 
L 125.713602 118.575348 
L 126.930487 113.858411 
L 129.364257 90.539814 
L 131.798026 113.915794 
L 133.014911 73.041379 
L 134.231796 181.114448 
L 135.448681 86.207432 
L 136.665566 133.131077 
L 137.882451 114.074984 
L 139.099335 130.514618 
L 140.31622 129.264697 
L 141.533105 136.901202 
L 142.74999 128.543713 
L 143.966875 97.763997 
L 145.18376 132.836297 
L 146.400644 132.198611 
L 148.834414 119.917359 
L 150.051299 135.54392 
L 151.268184 133.015849 
L 152.485069 121.864201 
L 153.701953 86.549413 
L 154.918838 94.895333 
L 157.352608 60.712 
L 159.786378 141.643591 
L 161.003262 102.791911 
L 162.220147 146.650218 
L 165.870802 93.18774 
L 167.087687 121.934541 
L 168.304571 97.374814 
L 170.738341 144.635813 
L 171.955226 106.400532 
L 173.172111 116.03432 
L 174.388995 114.855664 
L 175.60588 161.007884 
L 179.256535 82.700618 
L 180.47342 120.610115 
L 181.690304 77.543594 
L 184.124074 137.700393 
L 185.340959 156.020694 
L 186.557844 133.095444 
L 187.774729 137.42181 
L 188.991613 105.141818 
L 190.208498 102.712316 
L 191.425383 105.911855 
L 192.642268 129.031928 
L 193.859153 98.495625 
L 195.076038 121.36997 
L 196.292922 125.307153 
L 197.509807 139.010936 
L 198.726692 94.266902 
L 199.943577 114.287855 
L 201.160462 96.041133 
L 202.377347 165.349058 
L 204.811116 69.576677 
L 206.028001 128.786201 
L 207.244886 124.557478 
L 208.461771 109.353882 
L 210.89554 133.511468 
L 212.112425 73.863708 
L 213.32931 158.686668 
L 214.546195 94.384444 
L 215.76308 145.735337 
L 218.196849 92.813365 
L 219.413734 118.400887 
L 220.630619 94.5714 
L 221.847504 162.683547 
L 223.064389 102.529062 
L 224.281274 167.054338 
L 226.715043 120.250548 
L 227.931928 172.281239 
L 229.148813 121.111286 
L 230.365698 140.827278 
L 232.799467 118.741017 
L 234.016352 119.492081 
L 236.450122 103.742888 
L 238.883892 115.736301 
L 240.100776 90.382012 
L 242.534546 139.455651 
L 243.751431 84.559072 
L 247.402085 178.528994 
L 248.61897 91.590284 
L 249.835855 102.660949 
L 251.05274 125.74215 
L 253.48651 111.401143 
L 254.703394 111.641779 
L 255.920279 114.270732 
L 257.137164 113.886177 
L 258.354049 96.016607 
L 259.570934 97.329001 
L 260.787819 105.371349 
L 262.004703 86.050093 
L 263.221588 116.591486 
L 265.655358 117.652137 
L 266.872243 72.090402 
L 269.306012 123.018793 
L 270.522897 89.226494 
L 272.956667 120.471286 
L 274.173552 90.288071 
L 275.390437 134.429588 
L 276.607321 137.675866 
L 277.824206 104.799374 
L 279.041091 147.819618 
L 280.257976 138.21082 
L 282.691746 69.302721 
L 285.125515 163.802506 
L 287.559285 83.30221 
L 288.77617 161.341536 
L 289.993055 120.131155 
L 291.209939 129.158724 
L 292.426824 69.200451 
L 294.860594 92.318209 
L 296.077479 103.741499 
L 297.294363 132.955227 
L 298.511248 63.832407 
L 299.728133 115.480856 
L 300.945018 96.776925 
L 302.161903 112.129068 
L 303.378788 78.277998 
L 304.595672 94.500597 
L 305.812557 153.988241 
L 307.029442 90.960465 
L 308.246327 141.855537 
L 309.463212 48.324776 
L 311.896981 160.422952 
L 313.113866 129.723757 
L 314.330751 136.337558 
L 315.547636 85.131509 
L 316.764521 143.542768 
L 319.19829 110.589457 
L 320.415175 138.897559 
L 321.63206 132.233781 
L 322.848945 110.183615 
L 322.848945 110.183615 
" clip-path="url(#pc6982a650e)" style="fill: none; stroke: #26828e; stroke-width: 1.5; stroke-linecap: round"/>
   </g>
   <g id="line2d_6">
    <path d="M 80.688863 126.021658 
L 81.905748 137.619872 
L 84.339518 80.642251 
L 86.773288 123.741165 
L 87.990172 77.891129 
L 89.207057 102.889091 
L 90.423942 150.836367 
L 91.640827 102.977016 
L 92.857712 103.187573 
L 94.074597 135.710052 
L 95.291481 118.613758 
L 96.508366 129.211017 
L 98.942136 98.449349 
L 100.159021 121.122855 
L 101.375906 71.163026 
L 102.59279 148.122265 
L 105.02656 74.913253 
L 106.243445 127.317393 
L 107.46033 74.257056 
L 108.677215 139.062765 
L 109.894099 84.357308 
L 111.110984 90.651802 
L 112.327869 139.115058 
L 113.544754 84.240692 
L 114.761639 160.830646 
L 115.978524 90.657818 
L 117.195408 82.062006 
L 118.412293 112.986567 
L 119.629178 54.769205 
L 120.846063 116.087075 
L 122.062948 118.214856 
L 123.279833 80.973589 
L 124.496717 116.629432 
L 125.713602 119.468017 
L 126.930487 113.711253 
L 129.364257 91.044225 
L 131.798026 114.453524 
L 133.014911 74.076578 
L 134.231796 182.517543 
L 135.448681 88.061258 
L 136.665566 134.042256 
L 137.882451 114.699713 
L 139.099335 130.650208 
L 140.31622 130.319333 
L 141.533105 138.221926 
L 142.74999 128.577958 
L 143.966875 98.738575 
L 145.18376 133.77663 
L 146.400644 133.180592 
L 147.617529 122.463015 
L 148.834414 121.431981 
L 150.051299 136.767001 
L 151.268184 134.245872 
L 152.485069 122.407021 
L 153.701953 88.145481 
L 154.918838 95.409925 
L 157.352608 61.370048 
L 159.786378 142.645009 
L 161.003262 103.673011 
L 162.220147 148.111159 
L 165.870802 94.132238 
L 167.087687 122.860065 
L 168.304571 98.101351 
L 170.738341 145.48128 
L 171.955226 107.903584 
L 173.172111 117.021392 
L 174.388995 115.898268 
L 175.60588 162.039382 
L 179.256535 84.01764 
L 180.47342 120.874815 
L 181.690304 79.314586 
L 184.124074 139.303865 
L 185.340959 157.571873 
L 186.557844 134.507795 
L 187.774729 138.439424 
L 188.991613 105.659187 
L 190.208498 103.179706 
L 191.425383 107.038219 
L 192.642268 130.174488 
L 193.859153 98.969493 
L 195.076038 122.055322 
L 196.292922 125.994355 
L 197.509807 140.069274 
L 198.726692 94.402954 
L 199.943577 115.515563 
L 201.160462 96.544156 
L 202.377347 165.888639 
L 204.811116 70.073221 
L 206.028001 129.090698 
L 207.244886 125.700501 
L 208.461771 110.468676 
L 210.89554 133.762748 
L 212.112425 74.861423 
L 213.32931 159.785729 
L 214.546195 95.756997 
L 215.76308 146.983869 
L 218.196849 92.830487 
L 219.413734 119.549463 
L 220.630619 95.188725 
L 221.847504 163.411935 
L 223.064389 103.740574 
L 224.281274 167.716551 
L 226.715043 121.410694 
L 227.931928 173.135498 
L 229.148813 121.531937 
L 230.365698 141.924488 
L 232.799467 119.967338 
L 234.016352 120.365776 
L 236.450122 104.744768 
L 238.883892 116.89876 
L 240.100776 91.037283 
L 242.534546 140.679194 
L 243.751431 85.158812 
L 247.402085 179.342068 
L 248.61897 92.98505 
L 249.835855 103.716973 
L 251.05274 127.098969 
L 253.48651 113.060146 
L 254.703394 112.600623 
L 255.920279 115.03753 
L 257.137164 114.987551 
L 258.354049 97.318357 
L 259.570934 98.064793 
L 260.787819 105.690655 
L 262.004703 87.91086 
L 263.221588 117.905268 
L 265.655358 118.413844 
L 266.872243 73.269521 
L 269.306012 124.004477 
L 270.522897 89.646219 
L 272.956667 120.866948 
L 274.173552 90.699004 
L 275.390437 135.663776 
L 276.607321 137.766568 
L 277.824206 105.758218 
L 279.041091 148.348093 
L 280.257976 138.655997 
L 282.691746 69.868217 
L 285.125515 164.553107 
L 287.559285 84.752507 
L 288.77617 162.382751 
L 289.993055 120.148278 
L 291.209939 130.320721 
L 292.426824 70.778008 
L 294.860594 92.975332 
L 296.077479 104.406952 
L 297.294363 133.780795 
L 298.511248 64.162356 
L 299.728133 115.752498 
L 300.945018 96.463172 
L 302.161903 113.468765 
L 303.378788 78.955019 
L 304.595672 95.132268 
L 305.812557 153.866535 
L 307.029442 92.476474 
L 308.246327 142.729232 
L 309.463212 49.073526 
L 311.896981 160.59001 
L 313.113866 130.502124 
L 314.330751 136.884543 
L 315.547636 86.487403 
L 316.764521 144.153152 
L 319.19829 111.639003 
L 320.415175 139.75367 
L 321.63206 133.865481 
L 322.848945 111.503413 
L 322.848945 111.503413 
" clip-path="url(#pc6982a650e)" style="fill: none; stroke: #1f9e89; stroke-width: 1.5; stroke-linecap: round"/>
   </g>
   <g id="line2d_7">
    <path d="M 80.688863 117.340235 
L 81.905748 126.07719 
L 84.339518 72.012658 
L 86.773288 113.281809 
L 87.990172 65.286869 
L 89.207057 90.282518 
L 90.423942 140.035029 
L 91.640827 94.675058 
L 92.857712 91.704586 
L 94.074597 123.189552 
L 95.291481 107.628241 
L 96.508366 114.740436 
L 97.725251 106.092332 
L 98.942136 89.57264 
L 100.159021 112.535836 
L 101.375906 57.700342 
L 102.59279 134.359711 
L 105.02656 64.199377 
L 106.243445 115.906135 
L 107.46033 62.935111 
L 108.677215 127.143394 
L 109.894099 73.968292 
L 111.110984 82.305419 
L 112.327869 129.333186 
L 113.544754 74.614308 
L 114.761639 149.204204 
L 115.978524 82.752911 
L 117.195408 71.88401 
L 118.412293 103.805361 
L 119.629178 48.377531 
L 120.846063 106.58101 
L 122.062948 107.190005 
L 123.279833 74.082594 
L 125.713602 112.546017 
L 129.364257 80.990711 
L 131.798026 107.54263 
L 133.014911 63.644988 
L 134.231796 172.621832 
L 135.448681 77.065098 
L 136.665566 122.354266 
L 137.882451 107.491726 
L 139.099335 121.829031 
L 140.31622 119.496708 
L 141.533105 128.706606 
L 142.74999 120.504605 
L 143.966875 92.033611 
L 145.18376 126.410379 
L 147.617529 108.507027 
L 148.834414 113.050428 
L 150.051299 129.168442 
L 151.268184 123.696277 
L 152.485069 111.957383 
L 153.701953 82.704783 
L 154.918838 85.232854 
L 157.352608 50.932905 
L 159.786378 134.03115 
L 161.003262 94.260423 
L 162.220147 139.249259 
L 164.653917 120.330143 
L 165.870802 87.974259 
L 167.087687 112.762127 
L 168.304571 88.122343 
L 169.521456 104.165853 
L 170.738341 133.799306 
L 171.955226 98.040267 
L 173.172111 108.001227 
L 174.388995 108.383006 
L 175.60588 156.051236 
L 179.256535 76.042856 
L 180.47342 111.40901 
L 181.690304 68.78489 
L 184.124074 127.326185 
L 185.340959 146.797839 
L 188.991613 96.609405 
L 190.208498 91.253393 
L 191.425383 98.210563 
L 192.642268 122.922076 
L 193.859153 93.582014 
L 197.509807 133.826609 
L 198.726692 87.293998 
L 199.943577 109.45569 
L 201.160462 86.74146 
L 202.377347 151.381038 
L 204.811116 59.726316 
L 206.028001 120.943766 
L 207.244886 114.794117 
L 208.461771 101.308295 
L 210.89554 123.346891 
L 212.112425 67.106914 
L 213.32931 148.771521 
L 214.546195 83.69926 
L 215.76308 139.637516 
L 218.196849 82.929223 
L 219.413734 110.782892 
L 220.630619 86.769225 
L 221.847504 154.809182 
L 223.064389 91.760581 
L 224.281274 157.136877 
L 226.715043 109.221532 
L 227.931928 163.147235 
L 229.148813 108.738408 
L 230.365698 131.105566 
L 232.799467 107.757814 
L 234.016352 112.164701 
L 236.450122 97.012934 
L 237.667007 95.68712 
L 238.883892 108.165971 
L 240.100776 78.931419 
L 242.534546 132.095877 
L 243.751431 73.68323 
L 247.402085 172.845809 
L 248.61897 79.957363 
L 249.835855 93.560726 
L 251.05274 118.741017 
L 253.48651 104.342628 
L 255.920279 106.60785 
L 257.137164 106.395905 
L 258.354049 82.969946 
L 259.570934 87.574432 
L 260.787819 101.512836 
L 262.004703 78.124824 
L 264.438473 112.403949 
L 265.655358 108.966087 
L 266.872243 65.648749 
L 269.306012 116.781218 
L 270.522897 82.844537 
L 272.956667 108.907779 
L 274.173552 77.383016 
L 275.390437 126.890726 
L 276.607321 129.664524 
L 277.824206 93.45244 
L 279.041091 139.103026 
L 280.257976 130.596527 
L 282.691746 59.094183 
L 285.125515 148.436018 
L 287.559285 74.041408 
L 288.77617 153.210338 
L 289.993055 108.306651 
L 291.209939 120.024257 
L 292.426824 62.73057 
L 296.077479 98.923217 
L 297.294363 129.035167 
L 298.511248 51.694149 
L 299.728133 102.834485 
L 300.945018 85.29579 
L 302.161903 101.860833 
L 303.378788 69.023213 
L 304.595672 88.22415 
L 305.812557 138.804081 
L 307.029442 84.888559 
L 308.246327 131.358234 
L 309.463212 41.876645 
L 311.896981 153.559723 
L 313.113866 117.72803 
L 314.330751 124.343219 
L 315.547636 79.248874 
L 316.764521 135.828056 
L 319.19829 101.578085 
L 320.415175 133.88214 
L 322.848945 103.436076 
L 322.848945 103.436076 
" clip-path="url(#pc6982a650e)" style="fill: none; stroke: #35b779; stroke-width: 1.5; stroke-linecap: round"/>
   </g>
   <g id="line2d_8">
    <path d="M 80.688863 116.365658 
L 81.905748 123.183999 
L 84.339518 68.964905 
L 86.773288 111.404845 
L 87.990172 61.496845 
L 89.207057 87.375444 
L 90.423942 136.705454 
L 91.640827 89.52405 
L 92.857712 89.498598 
L 94.074597 122.141858 
L 95.291481 103.705404 
L 96.508366 110.947636 
L 98.942136 87.803037 
L 100.159021 111.340984 
L 101.375906 55.570247 
L 102.59279 131.302703 
L 105.02656 61.992926 
L 106.243445 115.107407 
L 107.46033 59.545839 
L 108.677215 125.642193 
L 109.894099 70.63594 
L 111.110984 79.356697 
L 112.327869 127.484913 
L 113.544754 71.493438 
L 114.761639 145.770969 
L 115.978524 77.128959 
L 117.195408 68.2504 
L 118.412293 101.237955 
L 119.629178 43.345915 
L 120.846063 102.556828 
L 122.062948 104.948384 
L 123.279833 70.753944 
L 125.713602 107.360301 
L 129.364257 74.5125 
L 131.798026 103.618867 
L 133.014911 62.155819 
L 134.231796 171.338592 
L 135.448681 75.024316 
L 136.665566 118.752123 
L 137.882451 101.585489 
L 139.099335 117.054248 
L 140.31622 117.184284 
L 141.533105 125.610725 
L 142.74999 116.819628 
L 143.966875 87.348604 
L 145.18376 122.997043 
L 147.617529 107.516715 
L 148.834414 109.116947 
L 150.051299 124.346458 
L 151.268184 120.531908 
L 152.485069 106.247821 
L 153.701953 79.177145 
L 154.918838 82.424812 
L 157.352608 47.228492 
L 159.786378 128.864408 
L 161.003262 91.305223 
L 162.220147 134.756761 
L 164.653917 116.0209 
L 165.870802 83.285087 
L 167.087687 108.539883 
L 168.304571 83.58033 
L 170.738341 131.78305 
L 171.955226 96.356274 
L 174.388995 105.472231 
L 175.60588 150.727617 
L 179.256535 72.836838 
L 180.47342 108.420027 
L 181.690304 65.996747 
L 184.124074 124.801816 
L 185.340959 144.324374 
L 186.557844 124.168295 
L 187.774729 123.013702 
L 188.991613 92.813828 
L 190.208498 88.020998 
L 191.425383 93.748608 
L 192.642268 118.996925 
L 193.859153 89.415301 
L 197.509807 129.087459 
L 198.726692 81.14296 
L 199.943577 105.133026 
L 201.160462 82.840373 
L 202.377347 148.077377 
L 204.811116 55.009842 
L 206.028001 115.476228 
L 207.244886 113.180927 
L 208.461771 95.800959 
L 210.89554 119.811387 
L 212.112425 60.510236 
L 213.32931 147.233761 
L 214.546195 80.317392 
L 215.76308 134.90901 
L 218.196849 77.739343 
L 219.413734 104.600386 
L 220.630619 83.316555 
L 221.847504 152.565247 
L 223.064389 89.74849 
L 224.281274 153.652738 
L 226.715043 106.900316 
L 227.931928 160.641839 
L 229.148813 103.226445 
L 230.365698 127.656135 
L 232.799467 106.512521 
L 234.016352 109.098437 
L 236.450122 93.115549 
L 237.667007 92.889721 
L 238.883892 103.924753 
L 240.100776 76.278402 
L 242.534546 129.200836 
L 243.751431 66.99076 
L 247.402085 169.142784 
L 248.61897 77.568583 
L 249.835855 88.931714 
L 251.05274 114.265642 
L 253.48651 100.469769 
L 254.703394 102.42494 
L 255.920279 101.337911 
L 257.137164 102.348585 
L 258.354049 80.981919 
L 259.570934 85.213881 
L 260.787819 94.182679 
L 262.004703 76.743478 
L 263.221588 105.653634 
L 264.438473 108.176152 
L 265.655358 104.900256 
L 266.872243 61.087763 
L 269.306012 113.296618 
L 270.522897 76.79577 
L 272.956667 104.774385 
L 274.173552 74.379688 
L 275.390437 121.704085 
L 276.607321 127.283611 
L 277.824206 90.457442 
L 279.041091 131.519738 
L 280.257976 123.335785 
L 282.691746 55.998765 
L 285.125515 145.479892 
L 287.559285 70.500813 
L 288.77617 148.232865 
L 289.993055 105.102021 
L 291.209939 117.485543 
L 292.426824 58.284348 
L 296.077479 92.92304 
L 297.294363 122.7888 
L 298.511248 47.066525 
L 299.728133 101.003797 
L 300.945018 79.939778 
L 302.161903 98.768192 
L 303.378788 66.08282 
L 304.595672 82.649715 
L 305.812557 135.555952 
L 307.029442 80.943047 
L 308.246327 126.583914 
L 309.463212 35.877393 
L 311.896981 148.293487 
L 313.113866 113.295229 
L 314.330751 120.824836 
L 315.547636 75.243665 
L 316.764521 132.233781 
L 319.19829 99.519255 
L 320.415175 129.131421 
L 321.63206 118.852543 
L 322.848945 99.662249 
L 322.848945 99.662249 
" clip-path="url(#pc6982a650e)" style="fill: none; stroke: #6ece58; stroke-width: 1.5; stroke-linecap: round"/>
   </g>
   <g id="line2d_9">
    <path d="M 80.688863 128.222093 
L 81.905748 139.564863 
L 84.339518 83.708515 
L 86.773288 125.774543 
L 87.990172 79.904608 
L 89.207057 104.530972 
L 90.423942 153.019217 
L 91.640827 106.153417 
L 92.857712 105.26445 
L 94.074597 136.716097 
L 95.291481 120.909985 
L 96.508366 130.433635 
L 98.942136 100.963074 
L 100.159021 123.789292 
L 101.375906 72.931704 
L 102.59279 149.512403 
L 105.02656 77.340904 
L 106.243445 128.8732 
L 107.46033 76.52274 
L 108.677215 140.597748 
L 109.894099 86.737758 
L 111.110984 93.984154 
L 112.327869 141.062362 
L 113.544754 86.995979 
L 114.761639 162.019946 
L 115.978524 94.082722 
L 117.195408 84.521126 
L 118.412293 115.333698 
L 119.629178 58.760994 
L 120.846063 118.93908 
L 122.062948 120.317649 
L 123.279833 84.61738 
L 124.496717 119.126498 
L 125.713602 122.758258 
L 128.147372 106.692998 
L 129.364257 93.569519 
L 131.798026 118.298154 
L 133.014911 75.795278 
L 134.231796 184.185339 
L 135.448681 89.718873 
L 136.665566 136.183921 
L 137.882451 118.632731 
L 139.099335 133.976544 
L 140.31622 132.468401 
L 141.533105 140.92631 
L 142.74999 131.734923 
L 143.966875 102.839113 
L 145.18376 137.090935 
L 146.400644 134.760463 
L 147.617529 123.505619 
L 148.834414 124.084072 
L 150.051299 139.990141 
L 151.268184 136.584673 
L 152.485069 124.81755 
L 153.701953 92.204833 
L 154.918838 98.01065 
L 157.352608 63.958741 
L 159.786378 145.67888 
L 161.003262 105.931754 
L 162.220147 151.055253 
L 165.870802 97.768162 
L 167.087687 125.399705 
L 168.304571 100.704852 
L 170.738341 146.773775 
L 171.955226 109.961952 
L 173.172111 119.906716 
L 174.388995 118.958053 
L 175.60588 165.64245 
L 179.256535 87.280578 
L 180.47342 123.929972 
L 181.690304 81.858854 
L 184.124074 140.798587 
L 185.340959 159.620985 
L 186.557844 138.324659 
L 187.774729 139.02158 
L 188.991613 108.07203 
L 190.208498 105.394487 
L 191.425383 110.409906 
L 192.642268 133.28564 
L 193.859153 103.05985 
L 196.292922 130.446592 
L 197.509807 143.708437 
L 198.726692 98.356796 
L 199.943577 119.171849 
L 201.160462 99.534989 
L 202.377347 167.225097 
L 204.811116 72.841465 
L 206.028001 132.557714 
L 207.244886 127.516381 
L 208.461771 113.274405 
L 210.89554 136.362084 
L 212.112425 78.689394 
L 213.32931 161.233249 
L 214.546195 97.929204 
L 215.76308 150.495773 
L 218.196849 95.356707 
L 219.413734 122.622668 
L 220.630619 98.229536 
L 221.847504 165.915479 
L 223.064389 105.606432 
L 224.281274 169.869321 
L 226.715043 123.171042 
L 227.931928 175.421545 
L 229.148813 123.599097 
L 230.365698 144.006456 
L 232.799467 120.892862 
L 234.016352 123.02666 
L 236.450122 107.986882 
L 237.667007 111.053145 
L 238.883892 119.730866 
L 240.100776 92.856402 
L 242.534546 143.450679 
L 243.751431 87.730383 
L 247.402085 182.549937 
L 248.61897 94.377965 
L 249.835855 106.48568 
L 251.05274 129.953287 
L 253.48651 115.842736 
L 254.703394 115.876518 
L 255.920279 118.644763 
L 257.137164 117.753945 
L 258.354049 98.181872 
L 259.570934 100.442929 
L 260.787819 110.930051 
L 262.004703 89.844744 
L 263.221588 119.84378 
L 264.438473 121.954902 
L 265.655358 120.898878 
L 266.872243 76.094222 
L 269.306012 126.939779 
L 270.522897 93.640322 
L 272.956667 123.147904 
L 274.173552 92.6315 
L 275.390437 138.092815 
L 276.607321 140.660221 
L 277.824206 107.284408 
L 279.041091 151.444899 
L 280.257976 142.277576 
L 282.691746 72.115854 
L 285.125515 165.48002 
L 287.559285 86.53044 
L 288.77617 165.300005 
L 289.993055 122.185821 
L 291.209939 132.996413 
L 292.426824 73.870186 
L 297.294363 138.185831 
L 298.511248 66.508099 
L 299.728133 117.102376 
L 300.945018 99.172646 
L 302.161903 115.267985 
L 303.378788 81.489106 
L 304.595672 99.111099 
L 305.812557 155.129876 
L 307.029442 95.794943 
L 308.246327 144.929204 
L 309.463212 52.995437 
L 311.896981 164.505442 
L 313.113866 132.145856 
L 314.330751 138.444978 
L 315.547636 90.120551 
L 316.764521 147.040789 
L 319.19829 113.709402 
L 320.415175 143.701959 
L 321.63206 136.078411 
L 322.848945 114.440566 
L 322.848945 114.440566 
" clip-path="url(#pc6982a650e)" style="fill: none; stroke: #b5de2b; stroke-width: 1.5; stroke-linecap: round"/>
   </g>
   <g id="patch_3">
    <path d="M 68.580859 192.009865 
L 68.580859 28.442513 
" style="fill: none"/>
   </g>
   <g id="patch_4">
    <path d="M 334.956949 192.009865 
L 334.956949 28.442513 
" style="fill: none"/>
   </g>
   <g id="patch_5">
    <path d="M 68.580859 192.009865 
L 334.956949 192.009865 
" style="fill: none"/>
   </g>
   <g id="patch_6">
    <path d="M 68.580859 28.442513 
L 334.956949 28.442513 
" style="fill: none"/>
   </g>
  </g>
  <g id="text_12">
   <!-- eval: tensorflow -->
   <g style="fill: #262626" transform="translate(139.893891 18.14175) scale(0.144 -0.144)">
    <defs>
     <path id="DejaVuSans-65" d="M 3597 1894 
L 3597 1613 
L 953 1613 
Q 991 1019 1311 708 
Q 1631 397 2203 397 
Q 2534 397 2845 478 
Q 3156 559 3463 722 
L 3463 178 
Q 3153 47 2828 -22 
Q 2503 -91 2169 -91 
Q 1331 -91 842 396 
Q 353 884 353 1716 
Q 353 2575 817 3079 
Q 1281 3584 2069 3584 
Q 2775 3584 3186 3129 
Q 3597 2675 3597 1894 
z
M 3022 2063 
Q 3016 2534 2758 2815 
Q 2500 3097 2075 3097 
Q 1594 3097 1305 2825 
Q 1016 2553 972 2059 
L 3022 2063 
z
" transform="scale(0.015625)"/>
     <path id="DejaVuSans-76" d="M 191 3500 
L 800 3500 
L 1894 563 
L 2988 3500 
L 3597 3500 
L 2284 0 
L 1503 0 
L 191 3500 
z
" transform="scale(0.015625)"/>
     <path id="DejaVuSans-3a" d="M 750 794 
L 1409 794 
L 1409 0 
L 750 0 
L 750 794 
z
M 750 3309 
L 1409 3309 
L 1409 2516 
L 750 2516 
L 750 3309 
z
" transform="scale(0.015625)"/>
     <path id="DejaVuSans-20" transform="scale(0.015625)"/>
     <path id="DejaVuSans-74" d="M 1172 4494 
L 1172 3500 
L 2356 3500 
L 2356 3053 
L 1172 3053 
L 1172 1153 
Q 1172 725 1289 603 
Q 1406 481 1766 481 
L 2356 481 
L 2356 0 
L 1766 0 
Q 1100 0 847 248 
Q 594 497 594 1153 
L 594 3053 
L 172 3053 
L 172 3500 
L 594 3500 
L 594 4494 
L 1172 4494 
z
" transform="scale(0.015625)"/>
     <path id="DejaVuSans-6e" d="M 3513 2113 
L 3513 0 
L 2938 0 
L 2938 2094 
Q 2938 2591 2744 2837 
Q 2550 3084 2163 3084 
Q 1697 3084 1428 2787 
Q 1159 2491 1159 1978 
L 1159 0 
L 581 0 
L 581 3500 
L 1159 3500 
L 1159 2956 
Q 1366 3272 1645 3428 
Q 1925 3584 2291 3584 
Q 2894 3584 3203 3211 
Q 3513 2838 3513 2113 
z
" transform="scale(0.015625)"/>
     <path id="DejaVuSans-73" d="M 2834 3397 
L 2834 2853 
Q 2591 2978 2328 3040 
Q 2066 3103 1784 3103 
Q 1356 3103 1142 2972 
Q 928 2841 928 2578 
Q 928 2378 1081 2264 
Q 1234 2150 1697 2047 
L 1894 2003 
Q 2506 1872 2764 1633 
Q 3022 1394 3022 966 
Q 3022 478 2636 193 
Q 2250 -91 1575 -91 
Q 1294 -91 989 -36 
Q 684 19 347 128 
L 347 722 
Q 666 556 975 473 
Q 1284 391 1588 391 
Q 1994 391 2212 530 
Q 2431 669 2431 922 
Q 2431 1156 2273 1281 
Q 2116 1406 1581 1522 
L 1381 1569 
Q 847 1681 609 1914 
Q 372 2147 372 2553 
Q 372 3047 722 3315 
Q 1072 3584 1716 3584 
Q 2034 3584 2315 3537 
Q 2597 3491 2834 3397 
z
" transform="scale(0.015625)"/>
     <path id="DejaVuSans-66" d="M 2375 4863 
L 2375 4384 
L 1825 4384 
Q 1516 4384 1395 4259 
Q 1275 4134 1275 3809 
L 1275 3500 
L 2222 3500 
L 2222 3053 
L 1275 3053 
L 1275 0 
L 697 0 
L 697 3053 
L 147 3053 
L 147 3500 
L 697 3500 
L 697 3744 
Q 697 4328 969 4595 
Q 1241 4863 1831 4863 
L 2375 4863 
z
" transform="scale(0.015625)"/>
    </defs>
    <use xlink:href="#DejaVuSans-65"/>
    <use xlink:href="#DejaVuSans-76" x="61.523438"/>
    <use xlink:href="#DejaVuSans-61" x="120.703125"/>
    <use xlink:href="#DejaVuSans-6c" x="181.982422"/>
    <use xlink:href="#DejaVuSans-3a" x="209.765625"/>
    <use xlink:href="#DejaVuSans-20" x="243.457031"/>
    <use xlink:href="#DejaVuSans-74" x="275.244141"/>
    <use xlink:href="#DejaVuSans-65" x="314.453125"/>
    <use xlink:href="#DejaVuSans-6e" x="375.976562"/>
    <use xlink:href="#DejaVuSans-73" x="439.355469"/>
    <use xlink:href="#DejaVuSans-6f" x="491.455078"/>
    <use xlink:href="#DejaVuSans-72" x="552.636719"/>
    <use xlink:href="#DejaVuSans-66" x="593.75"/>
    <use xlink:href="#DejaVuSans-6c" x="628.955078"/>
    <use xlink:href="#DejaVuSans-6f" x="656.738281"/>
    <use xlink:href="#DejaVuSans-77" x="717.919922"/>
   </g>
  </g>
 </g>
 <defs>
  <clipPath id="pc6982a650e">
   <rect x="68.580859" y="28.442513" width="266.37609" height="163.567352"/>
  </clipPath>
 </defs>
</svg>
