<?xml version="1.0" encoding="utf-8" standalone="no"?>
<!DOCTYPE svg PUBLIC "-//W3C//DTD SVG 1.1//EN"
  "http://www.w3.org/Graphics/SVG/1.1/DTD/svg11.dtd">
<svg xmlns:xlink="http://www.w3.org/1999/xlink" width="223.65pt" height="174.899688pt" viewBox="0 0 223.65 174.899688" xmlns="http://www.w3.org/2000/svg" version="1.1">
 <metadata>
  <rdf:RDF xmlns:dc="http://purl.org/dc/elements/1.1/" xmlns:cc="http://creativecommons.org/ns#" xmlns:rdf="http://www.w3.org/1999/02/22-rdf-syntax-ns#">
   <cc:Work>
    <dc:type rdf:resource="http://purl.org/dc/dcmitype/StillImage"/>
    <dc:date>2023-12-05T11:48:52.130119</dc:date>
    <dc:format>image/svg+xml</dc:format>
    <dc:creator>
     <cc:Agent>
      <dc:title>Matplotlib v3.8.2, https://matplotlib.org/</dc:title>
     </cc:Agent>
    </dc:creator>
   </cc:Work>
  </rdf:RDF>
 </metadata>
 <defs>
  <style type="text/css">*{stroke-linejoin: round; stroke-linecap: butt}</style>
 </defs>
 <g id="figure_1">
  <g id="patch_1">
   <path d="M 0 174.899688 
L 223.65 174.899688 
L 223.65 0 
L 0 0 
L 0 174.899688 
z
" style="fill: none"/>
  </g>
  <g id="axes_1">
   <g id="patch_2">
    <path d="M 7.2 48.78 
L 216.45 48.78 
L 216.45 7.2 
L 7.2 7.2 
L 7.2 48.78 
z
" style="fill: none"/>
   </g>
   <g id="matplotlib.axis_1">
    <g id="xtick_1"/>
    <g id="xtick_2"/>
    <g id="xtick_3"/>
    <g id="xtick_4"/>
    <g id="xtick_5"/>
   </g>
   <g id="matplotlib.axis_2"/>
   <g id="line2d_1">
    <path d="M 7.2 48.78 
L 216.45 48.78 
" style="fill: none; stroke: #21918c; stroke-opacity: 0.9; stroke-linecap: round"/>
   </g>
   <g id="text_1">
    <!-- 0 -->
    <g style="fill: #21918c" transform="translate(7.2 47.93325) scale(0.12 -0.12)">
     <defs>
      <path id="DejaVuSans-Bold-30" d="M 2944 2338 
Q 2944 3213 2780 3570 
Q 2616 3928 2228 3928 
Q 1841 3928 1675 3570 
Q 1509 3213 1509 2338 
Q 1509 1453 1675 1090 
Q 1841 728 2228 728 
Q 2613 728 2778 1090 
Q 2944 1453 2944 2338 
z
M 4147 2328 
Q 4147 1169 3647 539 
Q 3147 -91 2228 -91 
Q 1306 -91 806 539 
Q 306 1169 306 2328 
Q 306 3491 806 4120 
Q 1306 4750 2228 4750 
Q 3147 4750 3647 4120 
Q 4147 3491 4147 2328 
z
" transform="scale(0.015625)"/>
     </defs>
     <use xlink:href="#DejaVuSans-Bold-30"/>
    </g>
   </g>
  </g>
  <g id="axes_2">
   <g id="patch_3">
    <path d="M 7.2 59.175 
L 216.45 59.175 
L 216.45 17.595 
L 7.2 17.595 
L 7.2 59.175 
z
" style="fill: none"/>
   </g>
   <g id="matplotlib.axis_3">
    <g id="xtick_6"/>
    <g id="xtick_7"/>
    <g id="xtick_8"/>
    <g id="xtick_9"/>
    <g id="xtick_10"/>
   </g>
   <g id="matplotlib.axis_4"/>
   <g id="line2d_2">
    <path d="M 7.2 59.175 
L 216.45 59.175 
" style="fill: none; stroke: #21918c; stroke-opacity: 0.9; stroke-linecap: round"/>
   </g>
   <g id="text_2">
    <!-- 1 -->
    <g style="fill: #21918c" transform="translate(7.2 58.32825) scale(0.12 -0.12)">
     <defs>
      <path id="DejaVuSans-Bold-31" d="M 750 831 
L 1813 831 
L 1813 3847 
L 722 3622 
L 722 4441 
L 1806 4666 
L 2950 4666 
L 2950 831 
L 4013 831 
L 4013 0 
L 750 0 
L 750 831 
z
" transform="scale(0.015625)"/>
     </defs>
     <use xlink:href="#DejaVuSans-Bold-31"/>
    </g>
   </g>
  </g>
  <g id="axes_3">
   <g id="patch_4">
    <path d="M 7.2 69.57 
L 216.45 69.57 
L 216.45 27.99 
L 7.2 27.99 
L 7.2 69.57 
z
" style="fill: none"/>
   </g>
   <g id="matplotlib.axis_5">
    <g id="xtick_11"/>
    <g id="xtick_12"/>
    <g id="xtick_13"/>
    <g id="xtick_14"/>
    <g id="xtick_15"/>
   </g>
   <g id="matplotlib.axis_6"/>
   <g id="line2d_3">
    <path d="M 7.2 69.57 
L 216.45 69.57 
" style="fill: none; stroke: #21918c; stroke-opacity: 0.9; stroke-linecap: round"/>
   </g>
   <g id="text_3">
    <!-- 2 -->
    <g style="fill: #21918c" transform="translate(7.2 68.72325) scale(0.12 -0.12)">
     <defs>
      <path id="DejaVuSans-Bold-32" d="M 1844 884 
L 3897 884 
L 3897 0 
L 506 0 
L 506 884 
L 2209 2388 
Q 2438 2594 2547 2791 
Q 2656 2988 2656 3200 
Q 2656 3528 2436 3728 
Q 2216 3928 1850 3928 
Q 1569 3928 1234 3808 
Q 900 3688 519 3450 
L 519 4475 
Q 925 4609 1322 4679 
Q 1719 4750 2100 4750 
Q 2938 4750 3402 4381 
Q 3866 4013 3866 3353 
Q 3866 2972 3669 2642 
Q 3472 2313 2841 1759 
L 1844 884 
z
" transform="scale(0.015625)"/>
     </defs>
     <use xlink:href="#DejaVuSans-Bold-32"/>
    </g>
   </g>
  </g>
  <g id="axes_4">
   <g id="patch_5">
    <path d="M 7.2 79.965 
L 216.45 79.965 
L 216.45 38.385 
L 7.2 38.385 
L 7.2 79.965 
z
" style="fill: none"/>
   </g>
   <g id="matplotlib.axis_7">
    <g id="xtick_16"/>
    <g id="xtick_17"/>
    <g id="xtick_18"/>
    <g id="xtick_19"/>
    <g id="xtick_20"/>
   </g>
   <g id="matplotlib.axis_8"/>
   <g id="line2d_4">
    <path d="M 7.2 79.965 
L 216.45 79.965 
" style="fill: none; stroke: #21918c; stroke-opacity: 0.9; stroke-linecap: round"/>
   </g>
   <g id="text_4">
    <!-- 3 -->
    <g style="fill: #21918c" transform="translate(7.2 79.11825) scale(0.12 -0.12)">
     <defs>
      <path id="DejaVuSans-Bold-33" d="M 2981 2516 
Q 3453 2394 3698 2092 
Q 3944 1791 3944 1325 
Q 3944 631 3412 270 
Q 2881 -91 1863 -91 
Q 1503 -91 1142 -33 
Q 781 25 428 141 
L 428 1069 
Q 766 900 1098 814 
Q 1431 728 1753 728 
Q 2231 728 2486 893 
Q 2741 1059 2741 1369 
Q 2741 1688 2480 1852 
Q 2219 2016 1709 2016 
L 1228 2016 
L 1228 2791 
L 1734 2791 
Q 2188 2791 2409 2933 
Q 2631 3075 2631 3366 
Q 2631 3634 2415 3781 
Q 2200 3928 1806 3928 
Q 1516 3928 1219 3862 
Q 922 3797 628 3669 
L 628 4550 
Q 984 4650 1334 4700 
Q 1684 4750 2022 4750 
Q 2931 4750 3382 4451 
Q 3834 4153 3834 3553 
Q 3834 3144 3618 2883 
Q 3403 2622 2981 2516 
z
" transform="scale(0.015625)"/>
     </defs>
     <use xlink:href="#DejaVuSans-Bold-33"/>
    </g>
   </g>
  </g>
  <g id="axes_5">
   <g id="patch_6">
    <path d="M 7.2 90.36 
L 216.45 90.36 
L 216.45 48.78 
L 7.2 48.78 
L 7.2 90.36 
z
" style="fill: none"/>
   </g>
   <g id="matplotlib.axis_9">
    <g id="xtick_21"/>
    <g id="xtick_22"/>
    <g id="xtick_23"/>
    <g id="xtick_24"/>
    <g id="xtick_25"/>
   </g>
   <g id="matplotlib.axis_10"/>
   <g id="line2d_5">
    <path d="M 7.2 90.36 
L 216.45 90.36 
" style="fill: none; stroke: #21918c; stroke-opacity: 0.9; stroke-linecap: round"/>
   </g>
   <g id="text_5">
    <!-- 4 -->
    <g style="fill: #21918c" transform="translate(7.2 89.51325) scale(0.12 -0.12)">
     <defs>
      <path id="DejaVuSans-Bold-34" d="M 2356 3675 
L 1038 1722 
L 2356 1722 
L 2356 3675 
z
M 2156 4666 
L 3494 4666 
L 3494 1722 
L 4159 1722 
L 4159 850 
L 3494 850 
L 3494 0 
L 2356 0 
L 2356 850 
L 288 850 
L 288 1881 
L 2156 4666 
z
" transform="scale(0.015625)"/>
     </defs>
     <use xlink:href="#DejaVuSans-Bold-34"/>
    </g>
   </g>
  </g>
  <g id="axes_6">
   <g id="patch_7">
    <path d="M 7.2 100.755 
L 216.45 100.755 
L 216.45 59.175 
L 7.2 59.175 
L 7.2 100.755 
z
" style="fill: none"/>
   </g>
   <g id="matplotlib.axis_11">
    <g id="xtick_26"/>
    <g id="xtick_27"/>
    <g id="xtick_28"/>
    <g id="xtick_29"/>
    <g id="xtick_30"/>
   </g>
   <g id="matplotlib.axis_12"/>
   <g id="PolyCollection_1">
    <defs>
     <path id="maa95b58803" d="M 149.539519 -74.157528 
L 149.539519 -74.144688 
L 149.827956 -74.144688 
L 150.116394 -74.144688 
L 150.404832 -74.144688 
L 150.69327 -74.144688 
L 150.981707 -74.144688 
L 151.270145 -74.144688 
L 151.558583 -74.144688 
L 151.847021 -74.144688 
L 152.135459 -74.144688 
L 152.423896 -74.144688 
L 152.712334 -74.144688 
L 153.000772 -74.144688 
L 153.28921 -74.144688 
L 153.577647 -74.144688 
L 153.866085 -74.144688 
L 154.154523 -74.144688 
L 154.442961 -74.144688 
L 154.731399 -74.144688 
L 155.019836 -74.144688 
L 155.308274 -74.144688 
L 155.596712 -74.144688 
L 155.88515 -74.144688 
L 156.173587 -74.144688 
L 156.462025 -74.144688 
L 156.750463 -74.144688 
L 157.038901 -74.144688 
L 157.327339 -74.144688 
L 157.615776 -74.144688 
L 157.904214 -74.144688 
L 158.192652 -74.144688 
L 158.48109 -74.144688 
L 158.769527 -74.144688 
L 159.057965 -74.144688 
L 159.346403 -74.144688 
L 159.634841 -74.144688 
L 159.923279 -74.144688 
L 160.211716 -74.144688 
L 160.500154 -74.144688 
L 160.788592 -74.144688 
L 161.07703 -74.144688 
L 161.365467 -74.144688 
L 161.653905 -74.144688 
L 161.942343 -74.144688 
L 162.230781 -74.144688 
L 162.519219 -74.144688 
L 162.807656 -74.144688 
L 163.096094 -74.144688 
L 163.384532 -74.144688 
L 163.67297 -74.144688 
L 163.961407 -74.144688 
L 164.249845 -74.144688 
L 164.538283 -74.144688 
L 164.826721 -74.144688 
L 165.115159 -74.144688 
L 165.403596 -74.144688 
L 165.692034 -74.144688 
L 165.980472 -74.144688 
L 166.26891 -74.144688 
L 166.557347 -74.144688 
L 166.845785 -74.144688 
L 167.134223 -74.144688 
L 167.422661 -74.144688 
L 167.711099 -74.144688 
L 167.999536 -74.144688 
L 168.287974 -74.144688 
L 168.576412 -74.144688 
L 168.86485 -74.144688 
L 169.153287 -74.144688 
L 169.441725 -74.144688 
L 169.730163 -74.144688 
L 170.018601 -74.144688 
L 170.307039 -74.144688 
L 170.595476 -74.144688 
L 170.883914 -74.144688 
L 171.172352 -74.144688 
L 171.46079 -74.144688 
L 171.749227 -74.144688 
L 172.037665 -74.144688 
L 172.326103 -74.144688 
L 172.614541 -74.144688 
L 172.902979 -74.144688 
L 173.191416 -74.144688 
L 173.479854 -74.144688 
L 173.768292 -74.144688 
L 174.05673 -74.144688 
L 174.345167 -74.144688 
L 174.633605 -74.144688 
L 174.922043 -74.144688 
L 175.210481 -74.144688 
L 175.498919 -74.144688 
L 175.787356 -74.144688 
L 176.075794 -74.144688 
L 176.364232 -74.144688 
L 176.65267 -74.144688 
L 176.941107 -74.144688 
L 177.229545 -74.144688 
L 177.517983 -74.144688 
L 177.806421 -74.144688 
L 178.094859 -74.144688 
L 178.383296 -74.144688 
L 178.671734 -74.144688 
L 178.960172 -74.144688 
L 179.24861 -74.144688 
L 179.537047 -74.144688 
L 179.825485 -74.144688 
L 180.113923 -74.144688 
L 180.402361 -74.144688 
L 180.690799 -74.144688 
L 180.979236 -74.144688 
L 181.267674 -74.144688 
L 181.556112 -74.144688 
L 181.84455 -74.144688 
L 182.132987 -74.144688 
L 182.421425 -74.144688 
L 182.709863 -74.144688 
L 182.998301 -74.144688 
L 183.286739 -74.144688 
L 183.575176 -74.144688 
L 183.863614 -74.144688 
L 184.152052 -74.144688 
L 184.44049 -74.144688 
L 184.728927 -74.144688 
L 185.017365 -74.144688 
L 185.305803 -74.144688 
L 185.594241 -74.144688 
L 185.882679 -74.144688 
L 186.171116 -74.144688 
L 186.459554 -74.144688 
L 186.747992 -74.144688 
L 187.03643 -74.144688 
L 187.324867 -74.144688 
L 187.613305 -74.144688 
L 187.901743 -74.144688 
L 188.190181 -74.144688 
L 188.478619 -74.144688 
L 188.767056 -74.144688 
L 189.055494 -74.144688 
L 189.343932 -74.144688 
L 189.63237 -74.144688 
L 189.920807 -74.144688 
L 190.209245 -74.144688 
L 190.497683 -74.144688 
L 190.786121 -74.144688 
L 191.074559 -74.144688 
L 191.362996 -74.144688 
L 191.651434 -74.144688 
L 191.939872 -74.144688 
L 192.22831 -74.144688 
L 192.516747 -74.144688 
L 192.805185 -74.144688 
L 193.093623 -74.144688 
L 193.382061 -74.144688 
L 193.670499 -74.144688 
L 193.958936 -74.144688 
L 194.247374 -74.144688 
L 194.535812 -74.144688 
L 194.82425 -74.144688 
L 195.112687 -74.144688 
L 195.401125 -74.144688 
L 195.689563 -74.144688 
L 195.978001 -74.144688 
L 196.266439 -74.144688 
L 196.554876 -74.144688 
L 196.843314 -74.144688 
L 197.131752 -74.144688 
L 197.42019 -74.144688 
L 197.708627 -74.144688 
L 197.997065 -74.144688 
L 198.285503 -74.144688 
L 198.573941 -74.144688 
L 198.862379 -74.144688 
L 199.150816 -74.144688 
L 199.439254 -74.144688 
L 199.727692 -74.144688 
L 200.01613 -74.144688 
L 200.304567 -74.144688 
L 200.593005 -74.144688 
L 200.881443 -74.144688 
L 201.169881 -74.144688 
L 201.458319 -74.144688 
L 201.746756 -74.144688 
L 202.035194 -74.144688 
L 202.323632 -74.144688 
L 202.61207 -74.144688 
L 202.900507 -74.144688 
L 203.188945 -74.144688 
L 203.477383 -74.144688 
L 203.765821 -74.144688 
L 204.054259 -74.144688 
L 204.342696 -74.144688 
L 204.631134 -74.144688 
L 204.919572 -74.144688 
L 205.20801 -74.144688 
L 205.496447 -74.144688 
L 205.784885 -74.144688 
L 206.073323 -74.144688 
L 206.361761 -74.144688 
L 206.650199 -74.144688 
L 206.938636 -74.144688 
L 206.938636 -74.160547 
L 206.938636 -74.160547 
L 206.650199 -74.165452 
L 206.361761 -74.170933 
L 206.073323 -74.176849 
L 205.784885 -74.183068 
L 205.496447 -74.189502 
L 205.20801 -74.196114 
L 204.919572 -74.202922 
L 204.631134 -74.209979 
L 204.342696 -74.217353 
L 204.054259 -74.225107 
L 203.765821 -74.233288 
L 203.477383 -74.241924 
L 203.188945 -74.251039 
L 202.900507 -74.260678 
L 202.61207 -74.270957 
L 202.323632 -74.282112 
L 202.035194 -74.294533 
L 201.746756 -74.308777 
L 201.458319 -74.325528 
L 201.169881 -74.345544 
L 200.881443 -74.369583 
L 200.593005 -74.398367 
L 200.304567 -74.432585 
L 200.01613 -74.472938 
L 199.727692 -74.520194 
L 199.439254 -74.575209 
L 199.150816 -74.638866 
L 198.862379 -74.711914 
L 198.573941 -74.794736 
L 198.285503 -74.887126 
L 197.997065 -74.988152 
L 197.708627 -75.096212 
L 197.42019 -75.20929 
L 197.131752 -75.325393 
L 196.843314 -75.443045 
L 196.554876 -75.561725 
L 196.266439 -75.682135 
L 195.978001 -75.806264 
L 195.689563 -75.937232 
L 195.401125 -76.078994 
L 195.112687 -76.235918 
L 194.82425 -76.412302 
L 194.535812 -76.61188 
L 194.247374 -76.837351 
L 193.958936 -77.090032 
L 193.670499 -77.36967 
L 193.382061 -77.674472 
L 193.093623 -78.001338 
L 192.805185 -78.346273 
L 192.516747 -78.704912 
L 192.22831 -79.073071 
L 191.939872 -79.447234 
L 191.651434 -79.824849 
L 191.362996 -80.204359 
L 191.074559 -80.58493 
L 190.786121 -80.96598 
L 190.497683 -81.346714 
L 190.209245 -81.725932 
L 189.920807 -82.102329 
L 189.63237 -82.475348 
L 189.343932 -82.846353 
L 189.055494 -83.219718 
L 188.767056 -83.603306 
L 188.478619 -84.007976 
L 188.190181 -84.446062 
L 187.901743 -84.929185 
L 187.613305 -85.466005 
L 187.324867 -86.060577 
L 187.03643 -86.711722 
L 186.747992 -87.413401 
L 186.459554 -88.155697 
L 186.171116 -88.925841 
L 185.882679 -89.708836 
L 185.594241 -90.487631 
L 185.305803 -91.243172 
L 185.017365 -91.954914 
L 184.728927 -92.60224 
L 184.44049 -93.166829 
L 184.152052 -93.635482 
L 183.863614 -94.002565 
L 183.575176 -94.271253 
L 183.286739 -94.453132 
L 182.998301 -94.566286 
L 182.709863 -94.632495 
L 182.421425 -94.67432 
L 182.132987 -94.71271 
L 181.84455 -94.765367 
L 181.556112 -94.845775 
L 181.267674 -94.962659 
L 180.979236 -95.1197 
L 180.690799 -95.315569 
L 180.402361 -95.544401 
L 180.113923 -95.796802 
L 179.825485 -96.06122 
L 179.537047 -96.325312 
L 179.24861 -96.576835 
L 178.960172 -96.803851 
L 178.671734 -96.994338 
L 178.383296 -97.135694 
L 178.094859 -97.214758 
L 177.806421 -97.218792 
L 177.517983 -97.13746 
L 177.229545 -96.965364 
L 176.941107 -96.704328 
L 176.65267 -96.364604 
L 176.364232 -95.964397 
L 176.075794 -95.527555 
L 175.787356 -95.079773 
L 175.498919 -94.644065 
L 175.210481 -94.236485 
L 174.922043 -93.863079 
L 174.633605 -93.518824 
L 174.345167 -93.18886 
L 174.05673 -92.851771 
L 173.768292 -92.484133 
L 173.479854 -92.065246 
L 173.191416 -91.580915 
L 172.902979 -91.025531 
L 172.614541 -90.402217 
L 172.326103 -89.721384 
L 172.037665 -88.998396 
L 171.749227 -88.251049 
L 171.46079 -87.49739 
L 171.172352 -86.75404 
L 170.883914 -86.034997 
L 170.595476 -85.350789 
L 170.307039 -84.707952 
L 170.018601 -84.108906 
L 169.730163 -83.552328 
L 169.441725 -83.034048 
L 169.153287 -82.548342 
L 168.86485 -82.089362 
L 168.576412 -81.652403 
L 168.287974 -81.234705 
L 167.999536 -80.835653 
L 167.711099 -80.456343 
L 167.422661 -80.098672 
L 167.134223 -79.76421 
L 166.845785 -79.453178 
L 166.557347 -79.163839 
L 166.26891 -78.892467 
L 165.980472 -78.633921 
L 165.692034 -78.382619 
L 165.403596 -78.133627 
L 165.115159 -77.883559 
L 164.826721 -77.631069 
L 164.538283 -77.376888 
L 164.249845 -77.123458 
L 163.961407 -76.874326 
L 163.67297 -76.63346 
L 163.384532 -76.404623 
L 163.096094 -76.190915 
L 162.807656 -75.994515 
L 162.519219 -75.816604 
L 162.230781 -75.657436 
L 161.942343 -75.516467 
L 161.653905 -75.392493 
L 161.365467 -75.283769 
L 161.07703 -75.188132 
L 160.788592 -75.103158 
L 160.500154 -75.026383 
L 160.211716 -74.955572 
L 159.923279 -74.888985 
L 159.634841 -74.825551 
L 159.346403 -74.764889 
L 159.057965 -74.707161 
L 158.769527 -74.652806 
L 158.48109 -74.602242 
L 158.192652 -74.555655 
L 157.904214 -74.512917 
L 157.615776 -74.47366 
L 157.327339 -74.437419 
L 157.038901 -74.403792 
L 156.750463 -74.372532 
L 156.462025 -74.343555 
L 156.173587 -74.316893 
L 155.88515 -74.292609 
L 155.596712 -74.270736 
L 155.308274 -74.251236 
L 155.019836 -74.234007 
L 154.731399 -74.218895 
L 154.442961 -74.205737 
L 154.154523 -74.194389 
L 153.866085 -74.184759 
L 153.577647 -74.176812 
L 153.28921 -74.170559 
L 153.000772 -74.166018 
L 152.712334 -74.163164 
L 152.423896 -74.161873 
L 152.135459 -74.161891 
L 151.847021 -74.162828 
L 151.558583 -74.164195 
L 151.270145 -74.165477 
L 150.981707 -74.16622 
L 150.69327 -74.166111 
L 150.404832 -74.165034 
L 150.116394 -74.163071 
L 149.827956 -74.160461 
L 149.539519 -74.157528 
z
" style="stroke: #2a788e; stroke-width: 1.25"/>
    </defs>
    <g>
     <use xlink:href="#maa95b58803" x="0" y="174.899688" style="fill: #2a788e; fill-opacity: 0.7; stroke: #2a788e; stroke-width: 1.25"/>
    </g>
   </g>
   <g id="line2d_6">
    <path d="M 7.2 100.755 
L 216.45 100.755 
" style="fill: none; stroke: #2a788e; stroke-opacity: 0.9; stroke-linecap: round"/>
   </g>
   <g id="text_6">
    <!-- 5 -->
    <g style="fill: #2a788e" transform="translate(7.2 99.90825) scale(0.12 -0.12)">
     <defs>
      <path id="DejaVuSans-Bold-35" d="M 678 4666 
L 3669 4666 
L 3669 3781 
L 1638 3781 
L 1638 3059 
Q 1775 3097 1914 3117 
Q 2053 3138 2203 3138 
Q 3056 3138 3531 2711 
Q 4006 2284 4006 1522 
Q 4006 766 3489 337 
Q 2972 -91 2053 -91 
Q 1656 -91 1267 -14 
Q 878 63 494 219 
L 494 1166 
Q 875 947 1217 837 
Q 1559 728 1863 728 
Q 2300 728 2551 942 
Q 2803 1156 2803 1522 
Q 2803 1891 2551 2103 
Q 2300 2316 1863 2316 
Q 1603 2316 1309 2248 
Q 1016 2181 678 2041 
L 678 4666 
z
" transform="scale(0.015625)"/>
     </defs>
     <use xlink:href="#DejaVuSans-Bold-35"/>
    </g>
   </g>
  </g>
  <g id="axes_7">
   <g id="patch_8">
    <path d="M 7.2 111.15 
L 216.45 111.15 
L 216.45 69.57 
L 7.2 69.57 
L 7.2 111.15 
z
" style="fill: none"/>
   </g>
   <g id="matplotlib.axis_13">
    <g id="xtick_31"/>
    <g id="xtick_32"/>
    <g id="xtick_33"/>
    <g id="xtick_34"/>
    <g id="xtick_35"/>
   </g>
   <g id="matplotlib.axis_14"/>
   <g id="PolyCollection_2">
    <defs>
     <path id="m678a891ccf" d="M 114.573385 -63.773813 
L 114.573385 -63.749688 
L 114.731783 -63.749688 
L 114.890182 -63.749688 
L 115.048581 -63.749688 
L 115.20698 -63.749688 
L 115.365379 -63.749688 
L 115.523778 -63.749688 
L 115.682177 -63.749688 
L 115.840576 -63.749688 
L 115.998974 -63.749688 
L 116.157373 -63.749688 
L 116.315772 -63.749688 
L 116.474171 -63.749688 
L 116.63257 -63.749688 
L 116.790969 -63.749688 
L 116.949368 -63.749688 
L 117.107767 -63.749688 
L 117.266165 -63.749688 
L 117.424564 -63.749688 
L 117.582963 -63.749688 
L 117.741362 -63.749688 
L 117.899761 -63.749688 
L 118.05816 -63.749688 
L 118.216559 -63.749688 
L 118.374958 -63.749688 
L 118.533357 -63.749688 
L 118.691755 -63.749688 
L 118.850154 -63.749688 
L 119.008553 -63.749688 
L 119.166952 -63.749688 
L 119.325351 -63.749688 
L 119.48375 -63.749688 
L 119.642149 -63.749688 
L 119.800548 -63.749688 
L 119.958946 -63.749688 
L 120.117345 -63.749688 
L 120.275744 -63.749688 
L 120.434143 -63.749688 
L 120.592542 -63.749688 
L 120.750941 -63.749688 
L 120.90934 -63.749688 
L 121.067739 -63.749688 
L 121.226137 -63.749688 
L 121.384536 -63.749688 
L 121.542935 -63.749688 
L 121.701334 -63.749688 
L 121.859733 -63.749688 
L 122.018132 -63.749688 
L 122.176531 -63.749688 
L 122.33493 -63.749688 
L 122.493329 -63.749688 
L 122.651727 -63.749688 
L 122.810126 -63.749688 
L 122.968525 -63.749688 
L 123.126924 -63.749688 
L 123.285323 -63.749688 
L 123.443722 -63.749688 
L 123.602121 -63.749688 
L 123.76052 -63.749688 
L 123.918918 -63.749688 
L 124.077317 -63.749688 
L 124.235716 -63.749688 
L 124.394115 -63.749688 
L 124.552514 -63.749688 
L 124.710913 -63.749688 
L 124.869312 -63.749688 
L 125.027711 -63.749688 
L 125.186109 -63.749688 
L 125.344508 -63.749688 
L 125.502907 -63.749688 
L 125.661306 -63.749688 
L 125.819705 -63.749688 
L 125.978104 -63.749688 
L 126.136503 -63.749688 
L 126.294902 -63.749688 
L 126.4533 -63.749688 
L 126.611699 -63.749688 
L 126.770098 -63.749688 
L 126.928497 -63.749688 
L 127.086896 -63.749688 
L 127.245295 -63.749688 
L 127.403694 -63.749688 
L 127.562093 -63.749688 
L 127.720492 -63.749688 
L 127.87889 -63.749688 
L 128.037289 -63.749688 
L 128.195688 -63.749688 
L 128.354087 -63.749688 
L 128.512486 -63.749688 
L 128.670885 -63.749688 
L 128.829284 -63.749688 
L 128.987683 -63.749688 
L 129.146081 -63.749688 
L 129.30448 -63.749688 
L 129.462879 -63.749688 
L 129.621278 -63.749688 
L 129.779677 -63.749688 
L 129.938076 -63.749688 
L 130.096475 -63.749688 
L 130.254874 -63.749688 
L 130.413272 -63.749688 
L 130.571671 -63.749688 
L 130.73007 -63.749688 
L 130.888469 -63.749688 
L 131.046868 -63.749688 
L 131.205267 -63.749688 
L 131.363666 -63.749688 
L 131.522065 -63.749688 
L 131.680464 -63.749688 
L 131.838862 -63.749688 
L 131.997261 -63.749688 
L 132.15566 -63.749688 
L 132.314059 -63.749688 
L 132.472458 -63.749688 
L 132.630857 -63.749688 
L 132.789256 -63.749688 
L 132.947655 -63.749688 
L 133.106053 -63.749688 
L 133.264452 -63.749688 
L 133.422851 -63.749688 
L 133.58125 -63.749688 
L 133.739649 -63.749688 
L 133.898048 -63.749688 
L 134.056447 -63.749688 
L 134.214846 -63.749688 
L 134.373244 -63.749688 
L 134.531643 -63.749688 
L 134.690042 -63.749688 
L 134.848441 -63.749688 
L 135.00684 -63.749688 
L 135.165239 -63.749688 
L 135.323638 -63.749688 
L 135.482037 -63.749688 
L 135.640435 -63.749688 
L 135.798834 -63.749688 
L 135.957233 -63.749688 
L 136.115632 -63.749688 
L 136.274031 -63.749688 
L 136.43243 -63.749688 
L 136.590829 -63.749688 
L 136.749228 -63.749688 
L 136.907627 -63.749688 
L 137.066025 -63.749688 
L 137.224424 -63.749688 
L 137.382823 -63.749688 
L 137.541222 -63.749688 
L 137.699621 -63.749688 
L 137.85802 -63.749688 
L 138.016419 -63.749688 
L 138.174818 -63.749688 
L 138.333216 -63.749688 
L 138.491615 -63.749688 
L 138.650014 -63.749688 
L 138.808413 -63.749688 
L 138.966812 -63.749688 
L 139.125211 -63.749688 
L 139.28361 -63.749688 
L 139.442009 -63.749688 
L 139.600407 -63.749688 
L 139.758806 -63.749688 
L 139.917205 -63.749688 
L 140.075604 -63.749688 
L 140.234003 -63.749688 
L 140.392402 -63.749688 
L 140.550801 -63.749688 
L 140.7092 -63.749688 
L 140.867599 -63.749688 
L 141.025997 -63.749688 
L 141.184396 -63.749688 
L 141.342795 -63.749688 
L 141.501194 -63.749688 
L 141.659593 -63.749688 
L 141.817992 -63.749688 
L 141.976391 -63.749688 
L 142.13479 -63.749688 
L 142.293188 -63.749688 
L 142.451587 -63.749688 
L 142.609986 -63.749688 
L 142.768385 -63.749688 
L 142.926784 -63.749688 
L 143.085183 -63.749688 
L 143.243582 -63.749688 
L 143.401981 -63.749688 
L 143.560379 -63.749688 
L 143.718778 -63.749688 
L 143.877177 -63.749688 
L 144.035576 -63.749688 
L 144.193975 -63.749688 
L 144.352374 -63.749688 
L 144.510773 -63.749688 
L 144.669172 -63.749688 
L 144.82757 -63.749688 
L 144.985969 -63.749688 
L 145.144368 -63.749688 
L 145.302767 -63.749688 
L 145.461166 -63.749688 
L 145.619565 -63.749688 
L 145.777964 -63.749688 
L 145.936363 -63.749688 
L 146.094762 -63.749688 
L 146.094762 -63.818356 
L 146.094762 -63.818356 
L 145.936363 -63.843883 
L 145.777964 -63.874399 
L 145.619565 -63.909386 
L 145.461166 -63.947881 
L 145.302767 -63.988482 
L 145.144368 -64.029406 
L 144.985969 -64.068598 
L 144.82757 -64.103922 
L 144.669172 -64.133469 
L 144.510773 -64.155953 
L 144.352374 -64.171109 
L 144.193975 -64.179985 
L 144.035576 -64.184989 
L 143.877177 -64.189621 
L 143.718778 -64.197936 
L 143.560379 -64.21386 
L 143.401981 -64.240556 
L 143.243582 -64.280022 
L 143.085183 -64.332997 
L 142.926784 -64.399172 
L 142.768385 -64.477569 
L 142.609986 -64.566938 
L 142.451587 -64.666028 
L 142.293188 -64.773678 
L 142.13479 -64.888756 
L 141.976391 -65.010067 
L 141.817992 -65.136342 
L 141.659593 -65.266391 
L 141.501194 -65.399419 
L 141.342795 -65.535407 
L 141.184396 -65.67545 
L 141.025997 -65.821936 
L 140.867599 -65.978522 
L 140.7092 -66.149902 
L 140.550801 -66.341432 
L 140.392402 -66.558658 
L 140.234003 -66.806823 
L 140.075604 -67.090407 
L 139.917205 -67.412758 
L 139.758806 -67.775872 
L 139.600407 -68.180349 
L 139.442009 -68.625487 
L 139.28361 -69.109443 
L 139.125211 -69.629363 
L 138.966812 -70.181458 
L 138.808413 -70.761113 
L 138.650014 -71.363197 
L 138.491615 -71.982777 
L 138.333216 -72.616251 
L 138.174818 -73.262701 
L 138.016419 -73.925023 
L 137.85802 -74.610316 
L 137.699621 -75.329206 
L 137.541222 -76.094127 
L 137.382823 -76.916949 
L 137.224424 -77.806595 
L 137.066025 -78.767204 
L 136.907627 -79.797203 
L 136.749228 -80.889325 
L 136.590829 -82.031421 
L 136.43243 -83.20781 
L 136.274031 -84.40097 
L 136.115632 -85.593339 
L 135.957233 -86.768998 
L 135.798834 -87.914929 
L 135.640435 -89.021597 
L 135.482037 -90.082729 
L 135.323638 -91.094434 
L 135.165239 -92.054021 
L 135.00684 -92.959001 
L 134.848441 -93.806667 
L 134.690042 -94.594448 
L 134.531643 -95.320933 
L 134.373244 -95.987225 
L 134.214846 -96.598132 
L 134.056447 -97.162682 
L 133.898048 -97.693611 
L 133.739649 -98.205722 
L 133.58125 -98.713339 
L 133.422851 -99.227434 
L 133.264452 -99.753123 
L 133.106053 -100.288225 
L 132.947655 -100.8233 
L 132.789256 -101.343191 
L 132.630857 -101.829674 
L 132.472458 -102.264588 
L 132.314059 -102.632762 
L 132.15566 -102.924233 
L 131.997261 -103.135499 
L 131.838862 -103.269801 
L 131.680464 -103.33651 
L 131.522065 -103.349688 
L 131.363666 -103.325937 
L 131.205267 -103.281751 
L 131.046868 -103.230771 
L 130.888469 -103.181571 
L 130.73007 -103.13656 
L 130.571671 -103.092307 
L 130.413272 -103.041117 
L 130.254874 -102.973219 
L 130.096475 -102.878677 
L 129.938076 -102.748278 
L 129.779677 -102.573093 
L 129.621278 -102.343022 
L 129.462879 -102.045147 
L 129.30448 -101.662948 
L 129.146081 -101.177276 
L 128.987683 -100.569374 
L 128.829284 -99.825474 
L 128.670885 -98.941718 
L 128.512486 -97.927857 
L 128.354087 -96.808314 
L 128.195688 -95.619961 
L 128.037289 -94.406944 
L 127.87889 -93.213718 
L 127.720492 -92.077945 
L 127.562093 -91.024816 
L 127.403694 -90.063901 
L 127.245295 -89.188916 
L 127.086896 -88.380199 
L 126.928497 -87.609146 
L 126.770098 -86.843658 
L 126.611699 -86.053612 
L 126.4533 -85.215486 
L 126.294902 -84.315575 
L 126.136503 -83.351499 
L 125.978104 -82.331964 
L 125.819705 -81.274988 
L 125.661306 -80.204906 
L 125.502907 -79.148625 
L 125.344508 -78.131695 
L 125.186109 -77.174821 
L 125.027711 -76.291416 
L 124.869312 -75.486584 
L 124.710913 -74.757609 
L 124.552514 -74.095668 
L 124.394115 -73.48818 
L 124.235716 -72.921192 
L 124.077317 -72.381341 
L 123.918918 -71.857205 
L 123.76052 -71.340143 
L 123.602121 -70.824815 
L 123.443722 -70.309495 
L 123.285323 -69.796167 
L 123.126924 -69.29021 
L 122.968525 -68.799531 
L 122.810126 -68.333136 
L 122.651727 -67.899376 
L 122.493329 -67.504292 
L 122.33493 -67.150525 
L 122.176531 -66.837052 
L 122.018132 -66.559794 
L 121.859733 -66.312814 
L 121.701334 -66.089723 
L 121.542935 -65.884881 
L 121.384536 -65.694155 
L 121.226137 -65.515135 
L 121.067739 -65.346902 
L 120.90934 -65.189536 
L 120.750941 -65.043561 
L 120.592542 -64.909518 
L 120.434143 -64.787745 
L 120.275744 -64.678363 
L 120.117345 -64.581373 
L 119.958946 -64.496728 
L 119.800548 -64.424294 
L 119.642149 -64.363676 
L 119.48375 -64.314004 
L 119.325351 -64.273793 
L 119.166952 -64.24099 
L 119.008553 -64.213209 
L 118.850154 -64.188102 
L 118.691755 -64.163699 
L 118.533357 -64.138619 
L 118.374958 -64.112098 
L 118.216559 -64.083884 
L 118.05816 -64.054084 
L 117.899761 -64.023065 
L 117.741362 -63.991427 
L 117.582963 -63.960005 
L 117.424564 -63.929834 
L 117.266165 -63.90203 
L 117.107767 -63.877593 
L 116.949368 -63.857206 
L 116.790969 -63.841099 
L 116.63257 -63.829046 
L 116.474171 -63.820469 
L 116.315772 -63.814617 
L 116.157373 -63.810717 
L 115.998974 -63.808079 
L 115.840576 -63.806113 
L 115.682177 -63.804307 
L 115.523778 -63.802216 
L 115.365379 -63.799469 
L 115.20698 -63.795824 
L 115.048581 -63.791215 
L 114.890182 -63.785781 
L 114.731783 -63.77984 
L 114.573385 -63.773813 
z
" style="stroke: #355f8d; stroke-width: 1.25"/>
    </defs>
    <g>
     <use xlink:href="#m678a891ccf" x="0" y="174.899688" style="fill: #355f8d; fill-opacity: 0.7; stroke: #355f8d; stroke-width: 1.25"/>
    </g>
   </g>
   <g id="line2d_7">
    <path d="M 7.2 111.15 
L 216.45 111.15 
" style="fill: none; stroke: #355f8d; stroke-opacity: 0.9; stroke-linecap: round"/>
   </g>
   <g id="text_7">
    <!-- 6 -->
    <g style="fill: #355f8d" transform="translate(7.2 110.30325) scale(0.12 -0.12)">
     <defs>
      <path id="DejaVuSans-Bold-36" d="M 2316 2303 
Q 2000 2303 1842 2098 
Q 1684 1894 1684 1484 
Q 1684 1075 1842 870 
Q 2000 666 2316 666 
Q 2634 666 2792 870 
Q 2950 1075 2950 1484 
Q 2950 1894 2792 2098 
Q 2634 2303 2316 2303 
z
M 3803 4544 
L 3803 3681 
Q 3506 3822 3243 3889 
Q 2981 3956 2731 3956 
Q 2194 3956 1894 3657 
Q 1594 3359 1544 2772 
Q 1750 2925 1990 3001 
Q 2231 3078 2516 3078 
Q 3231 3078 3670 2659 
Q 4109 2241 4109 1563 
Q 4109 813 3618 361 
Q 3128 -91 2303 -91 
Q 1394 -91 895 523 
Q 397 1138 397 2266 
Q 397 3422 980 4083 
Q 1563 4744 2578 4744 
Q 2900 4744 3203 4694 
Q 3506 4644 3803 4544 
z
" transform="scale(0.015625)"/>
     </defs>
     <use xlink:href="#DejaVuSans-Bold-36"/>
    </g>
   </g>
  </g>
  <g id="axes_8">
   <g id="patch_9">
    <path d="M 7.2 121.545 
L 216.45 121.545 
L 216.45 79.965 
L 7.2 79.965 
L 7.2 121.545 
z
" style="fill: none"/>
   </g>
   <g id="matplotlib.axis_15">
    <g id="xtick_36"/>
    <g id="xtick_37"/>
    <g id="xtick_38"/>
    <g id="xtick_39"/>
    <g id="xtick_40"/>
   </g>
   <g id="matplotlib.axis_16"/>
   <g id="PolyCollection_3">
    <defs>
     <path id="m09b063385e" d="M 50.723408 -53.374969 
L 50.723408 -53.354688 
L 50.904405 -53.354688 
L 51.085402 -53.354688 
L 51.266399 -53.354688 
L 51.447396 -53.354688 
L 51.628393 -53.354688 
L 51.809389 -53.354688 
L 51.990386 -53.354688 
L 52.171383 -53.354688 
L 52.35238 -53.354688 
L 52.533377 -53.354688 
L 52.714374 -53.354688 
L 52.895371 -53.354688 
L 53.076368 -53.354688 
L 53.257365 -53.354688 
L 53.438362 -53.354688 
L 53.619359 -53.354688 
L 53.800356 -53.354688 
L 53.981353 -53.354688 
L 54.16235 -53.354688 
L 54.343346 -53.354688 
L 54.524343 -53.354688 
L 54.70534 -53.354688 
L 54.886337 -53.354688 
L 55.067334 -53.354688 
L 55.248331 -53.354688 
L 55.429328 -53.354688 
L 55.610325 -53.354688 
L 55.791322 -53.354688 
L 55.972319 -53.354688 
L 56.153316 -53.354688 
L 56.334313 -53.354688 
L 56.51531 -53.354688 
L 56.696307 -53.354688 
L 56.877303 -53.354688 
L 57.0583 -53.354688 
L 57.239297 -53.354688 
L 57.420294 -53.354688 
L 57.601291 -53.354688 
L 57.782288 -53.354688 
L 57.963285 -53.354688 
L 58.144282 -53.354688 
L 58.325279 -53.354688 
L 58.506276 -53.354688 
L 58.687273 -53.354688 
L 58.86827 -53.354688 
L 59.049267 -53.354688 
L 59.230264 -53.354688 
L 59.41126 -53.354688 
L 59.592257 -53.354688 
L 59.773254 -53.354688 
L 59.954251 -53.354688 
L 60.135248 -53.354688 
L 60.316245 -53.354688 
L 60.497242 -53.354688 
L 60.678239 -53.354688 
L 60.859236 -53.354688 
L 61.040233 -53.354688 
L 61.22123 -53.354688 
L 61.402227 -53.354688 
L 61.583224 -53.354688 
L 61.764221 -53.354688 
L 61.945218 -53.354688 
L 62.126214 -53.354688 
L 62.307211 -53.354688 
L 62.488208 -53.354688 
L 62.669205 -53.354688 
L 62.850202 -53.354688 
L 63.031199 -53.354688 
L 63.212196 -53.354688 
L 63.393193 -53.354688 
L 63.57419 -53.354688 
L 63.755187 -53.354688 
L 63.936184 -53.354688 
L 64.117181 -53.354688 
L 64.298178 -53.354688 
L 64.479175 -53.354688 
L 64.660171 -53.354688 
L 64.841168 -53.354688 
L 65.022165 -53.354688 
L 65.203162 -53.354688 
L 65.384159 -53.354688 
L 65.565156 -53.354688 
L 65.746153 -53.354688 
L 65.92715 -53.354688 
L 66.108147 -53.354688 
L 66.289144 -53.354688 
L 66.470141 -53.354688 
L 66.651138 -53.354688 
L 66.832135 -53.354688 
L 67.013132 -53.354688 
L 67.194128 -53.354688 
L 67.375125 -53.354688 
L 67.556122 -53.354688 
L 67.737119 -53.354688 
L 67.918116 -53.354688 
L 68.099113 -53.354688 
L 68.28011 -53.354688 
L 68.461107 -53.354688 
L 68.642104 -53.354688 
L 68.823101 -53.354688 
L 69.004098 -53.354688 
L 69.185095 -53.354688 
L 69.366092 -53.354688 
L 69.547089 -53.354688 
L 69.728085 -53.354688 
L 69.909082 -53.354688 
L 70.090079 -53.354688 
L 70.271076 -53.354688 
L 70.452073 -53.354688 
L 70.63307 -53.354688 
L 70.814067 -53.354688 
L 70.995064 -53.354688 
L 71.176061 -53.354688 
L 71.357058 -53.354688 
L 71.538055 -53.354688 
L 71.719052 -53.354688 
L 71.900049 -53.354688 
L 72.081046 -53.354688 
L 72.262042 -53.354688 
L 72.443039 -53.354688 
L 72.624036 -53.354688 
L 72.805033 -53.354688 
L 72.98603 -53.354688 
L 73.167027 -53.354688 
L 73.348024 -53.354688 
L 73.529021 -53.354688 
L 73.710018 -53.354688 
L 73.891015 -53.354688 
L 74.072012 -53.354688 
L 74.253009 -53.354688 
L 74.434006 -53.354688 
L 74.615003 -53.354688 
L 74.796 -53.354688 
L 74.976996 -53.354688 
L 75.157993 -53.354688 
L 75.33899 -53.354688 
L 75.519987 -53.354688 
L 75.700984 -53.354688 
L 75.881981 -53.354688 
L 76.062978 -53.354688 
L 76.243975 -53.354688 
L 76.424972 -53.354688 
L 76.605969 -53.354688 
L 76.786966 -53.354688 
L 76.967963 -53.354688 
L 77.14896 -53.354688 
L 77.329957 -53.354688 
L 77.510953 -53.354688 
L 77.69195 -53.354688 
L 77.872947 -53.354688 
L 78.053944 -53.354688 
L 78.234941 -53.354688 
L 78.415938 -53.354688 
L 78.596935 -53.354688 
L 78.777932 -53.354688 
L 78.958929 -53.354688 
L 79.139926 -53.354688 
L 79.320923 -53.354688 
L 79.50192 -53.354688 
L 79.682917 -53.354688 
L 79.863914 -53.354688 
L 80.04491 -53.354688 
L 80.225907 -53.354688 
L 80.406904 -53.354688 
L 80.587901 -53.354688 
L 80.768898 -53.354688 
L 80.949895 -53.354688 
L 81.130892 -53.354688 
L 81.311889 -53.354688 
L 81.492886 -53.354688 
L 81.673883 -53.354688 
L 81.85488 -53.354688 
L 82.035877 -53.354688 
L 82.216874 -53.354688 
L 82.397871 -53.354688 
L 82.578867 -53.354688 
L 82.759864 -53.354688 
L 82.940861 -53.354688 
L 83.121858 -53.354688 
L 83.302855 -53.354688 
L 83.483852 -53.354688 
L 83.664849 -53.354688 
L 83.845846 -53.354688 
L 84.026843 -53.354688 
L 84.20784 -53.354688 
L 84.388837 -53.354688 
L 84.569834 -53.354688 
L 84.750831 -53.354688 
L 84.931828 -53.354688 
L 85.112824 -53.354688 
L 85.293821 -53.354688 
L 85.474818 -53.354688 
L 85.655815 -53.354688 
L 85.836812 -53.354688 
L 86.017809 -53.354688 
L 86.198806 -53.354688 
L 86.379803 -53.354688 
L 86.5608 -53.354688 
L 86.741797 -53.354688 
L 86.741797 -53.381956 
L 86.741797 -53.381956 
L 86.5608 -53.39013 
L 86.379803 -53.398931 
L 86.198806 -53.407884 
L 86.017809 -53.416526 
L 85.836812 -53.424529 
L 85.655815 -53.431814 
L 85.474818 -53.438625 
L 85.293821 -53.445534 
L 85.112824 -53.453382 
L 84.931828 -53.463143 
L 84.750831 -53.475759 
L 84.569834 -53.491967 
L 84.388837 -53.512178 
L 84.20784 -53.536431 
L 84.026843 -53.564461 
L 83.845846 -53.595852 
L 83.664849 -53.630238 
L 83.483852 -53.667482 
L 83.302855 -53.707762 
L 83.121858 -53.75155 
L 82.940861 -53.799496 
L 82.759864 -53.852296 
L 82.578867 -53.910611 
L 82.397871 -53.9751 
L 82.216874 -54.046526 
L 82.035877 -54.125874 
L 81.85488 -54.214367 
L 81.673883 -54.313302 
L 81.492886 -54.423719 
L 81.311889 -54.546018 
L 81.130892 -54.679703 
L 80.949895 -54.823436 
L 80.768898 -54.975479 
L 80.587901 -55.134431 
L 80.406904 -55.300049 
L 80.225907 -55.47387 
L 80.04491 -55.659397 
L 79.863914 -55.861763 
L 79.682917 -56.086936 
L 79.50192 -56.340667 
L 79.320923 -56.627444 
L 79.139926 -56.949712 
L 78.958929 -57.307578 
L 78.777932 -57.699067 
L 78.596935 -58.120839 
L 78.415938 -58.569105 
L 78.234941 -59.040358 
L 78.053944 -59.531636 
L 77.872947 -60.040203 
L 77.69195 -60.56288 
L 77.510953 -61.095433 
L 77.329957 -61.632468 
L 77.14896 -62.168076 
L 76.967963 -62.697121 
L 76.786966 -63.216746 
L 76.605969 -63.727553 
L 76.424972 -64.234012 
L 76.243975 -64.743937 
L 76.062978 -65.267221 
L 75.881981 -65.814284 
L 75.700984 -66.394734 
L 75.519987 -67.016645 
L 75.33899 -67.686559 
L 75.157993 -68.409959 
L 74.976996 -69.19178 
L 74.796 -70.036402 
L 74.615003 -70.946793 
L 74.434006 -71.922847 
L 74.253009 -72.959382 
L 74.072012 -74.044631 
L 73.891015 -75.160051 
L 73.710018 -76.281937 
L 73.529021 -77.384716 
L 73.348024 -78.445133 
L 73.167027 -79.446152 
L 72.98603 -80.379419 
L 72.805033 -81.245576 
L 72.624036 -82.05236 
L 72.443039 -82.8111 
L 72.262042 -83.532561 
L 72.081046 -84.223259 
L 71.900049 -84.883159 
L 71.719052 -85.505323 
L 71.538055 -86.077581 
L 71.357058 -86.585786 
L 71.176061 -87.017768 
L 70.995064 -87.36693 
L 70.814067 -87.634497 
L 70.63307 -87.829877 
L 70.452073 -87.96916 
L 70.271076 -88.072263 
L 70.090079 -88.159539 
L 69.909082 -88.248584 
L 69.728085 -88.35176 
L 69.547089 -88.474639 
L 69.366092 -88.615411 
L 69.185095 -88.765274 
L 69.004098 -88.909798 
L 68.823101 -89.031203 
L 68.642104 -89.111256 
L 68.461107 -89.134244 
L 68.28011 -89.089304 
L 68.099113 -88.971478 
L 67.918116 -88.781199 
L 67.737119 -88.522418 
L 67.556122 -88.200009 
L 67.375125 -87.817323 
L 67.194128 -87.374688 
L 67.013132 -86.869323 
L 66.832135 -86.29667 
L 66.651138 -85.652718 
L 66.470141 -84.936528 
L 66.289144 -84.15206 
L 66.108147 -83.308575 
L 65.92715 -82.419328 
L 65.746153 -81.498897 
L 65.565156 -80.560052 
L 65.384159 -79.61134 
L 65.203162 -78.656313 
L 65.022165 -77.694702 
L 64.841168 -76.725038 
L 64.660171 -75.747591 
L 64.479175 -74.766427 
L 64.298178 -73.789748 
L 64.117181 -72.828467 
L 63.936184 -71.893627 
L 63.755187 -70.993732 
L 63.57419 -70.132951 
L 63.393193 -69.310752 
L 63.212196 -68.522906 
L 63.031199 -67.76336 
L 62.850202 -67.026225 
L 62.669205 -66.307236 
L 62.488208 -65.604338 
L 62.307211 -64.917463 
L 62.126214 -64.24781 
L 61.945218 -63.597096 
L 61.764221 -62.967124 
L 61.583224 -62.359752 
L 61.402227 -61.777134 
L 61.22123 -61.221935 
L 61.040233 -60.697258 
L 60.859236 -60.206224 
L 60.678239 -59.751319 
L 60.497242 -59.333762 
L 60.316245 -58.953102 
L 60.135248 -58.607132 
L 59.954251 -58.292047 
L 59.773254 -58.002743 
L 59.592257 -57.73319 
L 59.41126 -57.476892 
L 59.230264 -57.227496 
L 59.049267 -56.979534 
L 58.86827 -56.729184 
L 58.687273 -56.474838 
L 58.506276 -56.217254 
L 58.325279 -55.95922 
L 58.144282 -55.704809 
L 57.963285 -55.458453 
L 57.782288 -55.224127 
L 57.601291 -55.004857 
L 57.420294 -54.802624 
L 57.239297 -54.618585 
L 57.0583 -54.453416 
L 56.877303 -54.307599 
L 56.696307 -54.181504 
L 56.51531 -54.075267 
L 56.334313 -53.988536 
L 56.153316 -53.920215 
L 55.972319 -53.868323 
L 55.791322 -53.830018 
L 55.610325 -53.801802 
L 55.429328 -53.779845 
L 55.248331 -53.760391 
L 55.067334 -53.740181 
L 54.886337 -53.716821 
L 54.70534 -53.689043 
L 54.524343 -53.656772 
L 54.343346 -53.620989 
L 54.16235 -53.583406 
L 53.981353 -53.546035 
L 53.800356 -53.510778 
L 53.619359 -53.479123 
L 53.438362 -53.452017 
L 53.257365 -53.429883 
L 53.076368 -53.412728 
L 52.895371 -53.400273 
L 52.714374 -53.392046 
L 52.533377 -53.387428 
L 52.35238 -53.385662 
L 52.171383 -53.385876 
L 51.990386 -53.38713 
L 51.809389 -53.388506 
L 51.628393 -53.389225 
L 51.447396 -53.388756 
L 51.266399 -53.386884 
L 51.085402 -53.383708 
L 50.904405 -53.379575 
L 50.723408 -53.374969 
z
" style="stroke: #414487; stroke-width: 1.25"/>
    </defs>
    <g>
     <use xlink:href="#m09b063385e" x="0" y="174.899688" style="fill: #414487; fill-opacity: 0.7; stroke: #414487; stroke-width: 1.25"/>
    </g>
   </g>
   <g id="line2d_8">
    <path d="M 7.2 121.545 
L 216.45 121.545 
" style="fill: none; stroke: #414487; stroke-opacity: 0.9; stroke-linecap: round"/>
   </g>
   <g id="text_8">
    <!-- 7 -->
    <g style="fill: #414487" transform="translate(7.2 120.69825) scale(0.12 -0.12)">
     <defs>
      <path id="DejaVuSans-Bold-37" d="M 428 4666 
L 3944 4666 
L 3944 3988 
L 2125 0 
L 953 0 
L 2675 3781 
L 428 3781 
L 428 4666 
z
" transform="scale(0.015625)"/>
     </defs>
     <use xlink:href="#DejaVuSans-Bold-37"/>
    </g>
   </g>
  </g>
  <g id="axes_9">
   <g id="patch_10">
    <path d="M 7.2 131.94 
L 216.45 131.94 
L 216.45 90.36 
L 7.2 90.36 
L 7.2 131.94 
z
" style="fill: none"/>
   </g>
   <g id="matplotlib.axis_17">
    <g id="xtick_41">
     <g id="text_9">
      <!-- −8 -->
      <g style="fill: #838383" transform="translate(15.682918 149.798281) scale(0.11 -0.11)">
       <defs>
        <path id="DejaVuSans-2212" d="M 678 2272 
L 4684 2272 
L 4684 1741 
L 678 1741 
L 678 2272 
z
" transform="scale(0.015625)"/>
        <path id="DejaVuSans-38" d="M 2034 2216 
Q 1584 2216 1326 1975 
Q 1069 1734 1069 1313 
Q 1069 891 1326 650 
Q 1584 409 2034 409 
Q 2484 409 2743 651 
Q 3003 894 3003 1313 
Q 3003 1734 2745 1975 
Q 2488 2216 2034 2216 
z
M 1403 2484 
Q 997 2584 770 2862 
Q 544 3141 544 3541 
Q 544 4100 942 4425 
Q 1341 4750 2034 4750 
Q 2731 4750 3128 4425 
Q 3525 4100 3525 3541 
Q 3525 3141 3298 2862 
Q 3072 2584 2669 2484 
Q 3125 2378 3379 2068 
Q 3634 1759 3634 1313 
Q 3634 634 3220 271 
Q 2806 -91 2034 -91 
Q 1263 -91 848 271 
Q 434 634 434 1313 
Q 434 1759 690 2068 
Q 947 2378 1403 2484 
z
M 1172 3481 
Q 1172 3119 1398 2916 
Q 1625 2713 2034 2713 
Q 2441 2713 2670 2916 
Q 2900 3119 2900 3481 
Q 2900 3844 2670 4047 
Q 2441 4250 2034 4250 
Q 1625 4250 1398 4047 
Q 1172 3844 1172 3481 
z
" transform="scale(0.015625)"/>
       </defs>
       <use xlink:href="#DejaVuSans-2212"/>
       <use xlink:href="#DejaVuSans-38" x="83.789062"/>
      </g>
     </g>
    </g>
    <g id="xtick_42">
     <g id="text_10">
      <!-- −6 -->
      <g style="fill: #838383" transform="translate(58.740082 149.798281) scale(0.11 -0.11)">
       <defs>
        <path id="DejaVuSans-36" d="M 2113 2584 
Q 1688 2584 1439 2293 
Q 1191 2003 1191 1497 
Q 1191 994 1439 701 
Q 1688 409 2113 409 
Q 2538 409 2786 701 
Q 3034 994 3034 1497 
Q 3034 2003 2786 2293 
Q 2538 2584 2113 2584 
z
M 3366 4563 
L 3366 3988 
Q 3128 4100 2886 4159 
Q 2644 4219 2406 4219 
Q 1781 4219 1451 3797 
Q 1122 3375 1075 2522 
Q 1259 2794 1537 2939 
Q 1816 3084 2150 3084 
Q 2853 3084 3261 2657 
Q 3669 2231 3669 1497 
Q 3669 778 3244 343 
Q 2819 -91 2113 -91 
Q 1303 -91 875 529 
Q 447 1150 447 2328 
Q 447 3434 972 4092 
Q 1497 4750 2381 4750 
Q 2619 4750 2861 4703 
Q 3103 4656 3366 4563 
z
" transform="scale(0.015625)"/>
       </defs>
       <use xlink:href="#DejaVuSans-2212"/>
       <use xlink:href="#DejaVuSans-36" x="83.789062"/>
      </g>
     </g>
    </g>
    <g id="xtick_43">
     <g id="text_11">
      <!-- −4 -->
      <g style="fill: #838383" transform="translate(101.797245 149.798281) scale(0.11 -0.11)">
       <defs>
        <path id="DejaVuSans-34" d="M 2419 4116 
L 825 1625 
L 2419 1625 
L 2419 4116 
z
M 2253 4666 
L 3047 4666 
L 3047 1625 
L 3713 1625 
L 3713 1100 
L 3047 1100 
L 3047 0 
L 2419 0 
L 2419 1100 
L 313 1100 
L 313 1709 
L 2253 4666 
z
" transform="scale(0.015625)"/>
       </defs>
       <use xlink:href="#DejaVuSans-2212"/>
       <use xlink:href="#DejaVuSans-34" x="83.789062"/>
      </g>
     </g>
    </g>
    <g id="xtick_44">
     <g id="text_12">
      <!-- −2 -->
      <g style="fill: #838383" transform="translate(144.854408 149.798281) scale(0.11 -0.11)">
       <defs>
        <path id="DejaVuSans-32" d="M 1228 531 
L 3431 531 
L 3431 0 
L 469 0 
L 469 531 
Q 828 903 1448 1529 
Q 2069 2156 2228 2338 
Q 2531 2678 2651 2914 
Q 2772 3150 2772 3378 
Q 2772 3750 2511 3984 
Q 2250 4219 1831 4219 
Q 1534 4219 1204 4116 
Q 875 4013 500 3803 
L 500 4441 
Q 881 4594 1212 4672 
Q 1544 4750 1819 4750 
Q 2544 4750 2975 4387 
Q 3406 4025 3406 3419 
Q 3406 3131 3298 2873 
Q 3191 2616 2906 2266 
Q 2828 2175 2409 1742 
Q 1991 1309 1228 531 
z
" transform="scale(0.015625)"/>
       </defs>
       <use xlink:href="#DejaVuSans-2212"/>
       <use xlink:href="#DejaVuSans-32" x="83.789062"/>
      </g>
     </g>
    </g>
    <g id="xtick_45">
     <g id="text_13">
      <!-- 0 -->
      <g style="fill: #838383" transform="translate(192.5204 149.798281) scale(0.11 -0.11)">
       <defs>
        <path id="DejaVuSans-30" d="M 2034 4250 
Q 1547 4250 1301 3770 
Q 1056 3291 1056 2328 
Q 1056 1369 1301 889 
Q 1547 409 2034 409 
Q 2525 409 2770 889 
Q 3016 1369 3016 2328 
Q 3016 3291 2770 3770 
Q 2525 4250 2034 4250 
z
M 2034 4750 
Q 2819 4750 3233 4129 
Q 3647 3509 3647 2328 
Q 3647 1150 3233 529 
Q 2819 -91 2034 -91 
Q 1250 -91 836 529 
Q 422 1150 422 2328 
Q 422 3509 836 4129 
Q 1250 4750 2034 4750 
z
" transform="scale(0.015625)"/>
       </defs>
       <use xlink:href="#DejaVuSans-30"/>
      </g>
     </g>
    </g>
    <g id="text_14">
     <!-- sldb -->
     <g style="fill: #262626" transform="translate(99.414375 165.204063) scale(0.12 -0.12)">
      <defs>
       <path id="DejaVuSans-73" d="M 2834 3397 
L 2834 2853 
Q 2591 2978 2328 3040 
Q 2066 3103 1784 3103 
Q 1356 3103 1142 2972 
Q 928 2841 928 2578 
Q 928 2378 1081 2264 
Q 1234 2150 1697 2047 
L 1894 2003 
Q 2506 1872 2764 1633 
Q 3022 1394 3022 966 
Q 3022 478 2636 193 
Q 2250 -91 1575 -91 
Q 1294 -91 989 -36 
Q 684 19 347 128 
L 347 722 
Q 666 556 975 473 
Q 1284 391 1588 391 
Q 1994 391 2212 530 
Q 2431 669 2431 922 
Q 2431 1156 2273 1281 
Q 2116 1406 1581 1522 
L 1381 1569 
Q 847 1681 609 1914 
Q 372 2147 372 2553 
Q 372 3047 722 3315 
Q 1072 3584 1716 3584 
Q 2034 3584 2315 3537 
Q 2597 3491 2834 3397 
z
" transform="scale(0.015625)"/>
       <path id="DejaVuSans-6c" d="M 603 4863 
L 1178 4863 
L 1178 0 
L 603 0 
L 603 4863 
z
" transform="scale(0.015625)"/>
       <path id="DejaVuSans-64" d="M 2906 2969 
L 2906 4863 
L 3481 4863 
L 3481 0 
L 2906 0 
L 2906 525 
Q 2725 213 2448 61 
Q 2172 -91 1784 -91 
Q 1150 -91 751 415 
Q 353 922 353 1747 
Q 353 2572 751 3078 
Q 1150 3584 1784 3584 
Q 2172 3584 2448 3432 
Q 2725 3281 2906 2969 
z
M 947 1747 
Q 947 1113 1208 752 
Q 1469 391 1925 391 
Q 2381 391 2643 752 
Q 2906 1113 2906 1747 
Q 2906 2381 2643 2742 
Q 2381 3103 1925 3103 
Q 1469 3103 1208 2742 
Q 947 2381 947 1747 
z
" transform="scale(0.015625)"/>
       <path id="DejaVuSans-62" d="M 3116 1747 
Q 3116 2381 2855 2742 
Q 2594 3103 2138 3103 
Q 1681 3103 1420 2742 
Q 1159 2381 1159 1747 
Q 1159 1113 1420 752 
Q 1681 391 2138 391 
Q 2594 391 2855 752 
Q 3116 1113 3116 1747 
z
M 1159 2969 
Q 1341 3281 1617 3432 
Q 1894 3584 2278 3584 
Q 2916 3584 3314 3078 
Q 3713 2572 3713 1747 
Q 3713 922 3314 415 
Q 2916 -91 2278 -91 
Q 1894 -91 1617 61 
Q 1341 213 1159 525 
L 1159 0 
L 581 0 
L 581 4863 
L 1159 4863 
L 1159 2969 
z
" transform="scale(0.015625)"/>
      </defs>
      <use xlink:href="#DejaVuSans-73"/>
      <use xlink:href="#DejaVuSans-6c" x="52.099609"/>
      <use xlink:href="#DejaVuSans-64" x="79.882812"/>
      <use xlink:href="#DejaVuSans-62" x="143.359375"/>
     </g>
    </g>
   </g>
   <g id="matplotlib.axis_18"/>
   <g id="PolyCollection_4">
    <defs>
     <path id="m973157b788" d="M 16.711364 -42.980681 
L 16.711364 -42.959688 
L 16.887145 -42.959688 
L 17.062927 -42.959688 
L 17.238709 -42.959688 
L 17.41449 -42.959688 
L 17.590272 -42.959688 
L 17.766054 -42.959688 
L 17.941836 -42.959688 
L 18.117617 -42.959688 
L 18.293399 -42.959688 
L 18.469181 -42.959688 
L 18.644962 -42.959688 
L 18.820744 -42.959688 
L 18.996526 -42.959688 
L 19.172308 -42.959688 
L 19.348089 -42.959688 
L 19.523871 -42.959688 
L 19.699653 -42.959688 
L 19.875434 -42.959688 
L 20.051216 -42.959688 
L 20.226998 -42.959688 
L 20.402779 -42.959688 
L 20.578561 -42.959688 
L 20.754343 -42.959688 
L 20.930125 -42.959688 
L 21.105906 -42.959688 
L 21.281688 -42.959688 
L 21.45747 -42.959688 
L 21.633251 -42.959688 
L 21.809033 -42.959688 
L 21.984815 -42.959688 
L 22.160597 -42.959688 
L 22.336378 -42.959688 
L 22.51216 -42.959688 
L 22.687942 -42.959688 
L 22.863723 -42.959688 
L 23.039505 -42.959688 
L 23.215287 -42.959688 
L 23.391068 -42.959688 
L 23.56685 -42.959688 
L 23.742632 -42.959688 
L 23.918414 -42.959688 
L 24.094195 -42.959688 
L 24.269977 -42.959688 
L 24.445759 -42.959688 
L 24.62154 -42.959688 
L 24.797322 -42.959688 
L 24.973104 -42.959688 
L 25.148885 -42.959688 
L 25.324667 -42.959688 
L 25.500449 -42.959688 
L 25.676231 -42.959688 
L 25.852012 -42.959688 
L 26.027794 -42.959688 
L 26.203576 -42.959688 
L 26.379357 -42.959688 
L 26.555139 -42.959688 
L 26.730921 -42.959688 
L 26.906703 -42.959688 
L 27.082484 -42.959688 
L 27.258266 -42.959688 
L 27.434048 -42.959688 
L 27.609829 -42.959688 
L 27.785611 -42.959688 
L 27.961393 -42.959688 
L 28.137174 -42.959688 
L 28.312956 -42.959688 
L 28.488738 -42.959688 
L 28.66452 -42.959688 
L 28.840301 -42.959688 
L 29.016083 -42.959688 
L 29.191865 -42.959688 
L 29.367646 -42.959688 
L 29.543428 -42.959688 
L 29.71921 -42.959688 
L 29.894992 -42.959688 
L 30.070773 -42.959688 
L 30.246555 -42.959688 
L 30.422337 -42.959688 
L 30.598118 -42.959688 
L 30.7739 -42.959688 
L 30.949682 -42.959688 
L 31.125463 -42.959688 
L 31.301245 -42.959688 
L 31.477027 -42.959688 
L 31.652809 -42.959688 
L 31.82859 -42.959688 
L 32.004372 -42.959688 
L 32.180154 -42.959688 
L 32.355935 -42.959688 
L 32.531717 -42.959688 
L 32.707499 -42.959688 
L 32.883281 -42.959688 
L 33.059062 -42.959688 
L 33.234844 -42.959688 
L 33.410626 -42.959688 
L 33.586407 -42.959688 
L 33.762189 -42.959688 
L 33.937971 -42.959688 
L 34.113752 -42.959688 
L 34.289534 -42.959688 
L 34.465316 -42.959688 
L 34.641098 -42.959688 
L 34.816879 -42.959688 
L 34.992661 -42.959688 
L 35.168443 -42.959688 
L 35.344224 -42.959688 
L 35.520006 -42.959688 
L 35.695788 -42.959688 
L 35.87157 -42.959688 
L 36.047351 -42.959688 
L 36.223133 -42.959688 
L 36.398915 -42.959688 
L 36.574696 -42.959688 
L 36.750478 -42.959688 
L 36.92626 -42.959688 
L 37.102041 -42.959688 
L 37.277823 -42.959688 
L 37.453605 -42.959688 
L 37.629387 -42.959688 
L 37.805168 -42.959688 
L 37.98095 -42.959688 
L 38.156732 -42.959688 
L 38.332513 -42.959688 
L 38.508295 -42.959688 
L 38.684077 -42.959688 
L 38.859859 -42.959688 
L 39.03564 -42.959688 
L 39.211422 -42.959688 
L 39.387204 -42.959688 
L 39.562985 -42.959688 
L 39.738767 -42.959688 
L 39.914549 -42.959688 
L 40.09033 -42.959688 
L 40.266112 -42.959688 
L 40.441894 -42.959688 
L 40.617676 -42.959688 
L 40.793457 -42.959688 
L 40.969239 -42.959688 
L 41.145021 -42.959688 
L 41.320802 -42.959688 
L 41.496584 -42.959688 
L 41.672366 -42.959688 
L 41.848147 -42.959688 
L 42.023929 -42.959688 
L 42.199711 -42.959688 
L 42.375493 -42.959688 
L 42.551274 -42.959688 
L 42.727056 -42.959688 
L 42.902838 -42.959688 
L 43.078619 -42.959688 
L 43.254401 -42.959688 
L 43.430183 -42.959688 
L 43.605965 -42.959688 
L 43.781746 -42.959688 
L 43.957528 -42.959688 
L 44.13331 -42.959688 
L 44.309091 -42.959688 
L 44.484873 -42.959688 
L 44.660655 -42.959688 
L 44.836436 -42.959688 
L 45.012218 -42.959688 
L 45.188 -42.959688 
L 45.363782 -42.959688 
L 45.539563 -42.959688 
L 45.715345 -42.959688 
L 45.891127 -42.959688 
L 46.066908 -42.959688 
L 46.24269 -42.959688 
L 46.418472 -42.959688 
L 46.594254 -42.959688 
L 46.770035 -42.959688 
L 46.945817 -42.959688 
L 47.121599 -42.959688 
L 47.29738 -42.959688 
L 47.473162 -42.959688 
L 47.648944 -42.959688 
L 47.824725 -42.959688 
L 48.000507 -42.959688 
L 48.176289 -42.959688 
L 48.352071 -42.959688 
L 48.527852 -42.959688 
L 48.703634 -42.959688 
L 48.879416 -42.959688 
L 49.055197 -42.959688 
L 49.230979 -42.959688 
L 49.406761 -42.959688 
L 49.582543 -42.959688 
L 49.758324 -42.959688 
L 49.934106 -42.959688 
L 50.109888 -42.959688 
L 50.285669 -42.959688 
L 50.461451 -42.959688 
L 50.637233 -42.959688 
L 50.813014 -42.959688 
L 50.988796 -42.959688 
L 51.164578 -42.959688 
L 51.34036 -42.959688 
L 51.516141 -42.959688 
L 51.691923 -42.959688 
L 51.691923 -42.982207 
L 51.691923 -42.982207 
L 51.516141 -42.988388 
L 51.34036 -42.995068 
L 51.164578 -43.00222 
L 50.988796 -43.010043 
L 50.813014 -43.019008 
L 50.637233 -43.029829 
L 50.461451 -43.043332 
L 50.285669 -43.060271 
L 50.109888 -43.081151 
L 49.934106 -43.106122 
L 49.758324 -43.134985 
L 49.582543 -43.167303 
L 49.406761 -43.202545 
L 49.230979 -43.240195 
L 49.055197 -43.279764 
L 48.879416 -43.320728 
L 48.703634 -43.362449 
L 48.527852 -43.404214 
L 48.352071 -43.445446 
L 48.176289 -43.486088 
L 48.000507 -43.527035 
L 47.824725 -43.570392 
L 47.648944 -43.619375 
L 47.473162 -43.67778 
L 47.29738 -43.749133 
L 47.121599 -43.835758 
L 46.945817 -43.938116 
L 46.770035 -44.054616 
L 46.594254 -44.181985 
L 46.418472 -44.316055 
L 46.24269 -44.452729 
L 46.066908 -44.588889 
L 45.891127 -44.723058 
L 45.715345 -44.855776 
L 45.539563 -44.989664 
L 45.363782 -45.129219 
L 45.188 -45.280372 
L 45.012218 -45.44984 
L 44.836436 -45.644364 
L 44.660655 -45.869975 
L 44.484873 -46.131423 
L 44.309091 -46.431896 
L 44.13331 -46.773053 
L 43.957528 -47.155291 
L 43.781746 -47.578083 
L 43.605965 -48.040222 
L 43.430183 -48.539851 
L 43.254401 -49.074271 
L 43.078619 -49.639679 
L 42.902838 -50.231043 
L 42.727056 -50.842347 
L 42.551274 -51.467325 
L 42.375493 -52.100582 
L 42.199711 -52.738813 
L 42.023929 -53.381708 
L 41.848147 -54.032168 
L 41.672366 -54.695726 
L 41.496584 -55.379311 
L 41.320802 -56.089796 
L 41.145021 -56.832764 
L 40.969239 -57.611827 
L 40.793457 -58.428548 
L 40.617676 -59.282809 
L 40.441894 -60.173342 
L 40.266112 -61.09817 
L 40.09033 -62.054814 
L 39.914549 -63.040217 
L 39.738767 -64.050442 
L 39.562985 -65.080192 
L 39.387204 -66.122261 
L 39.211422 -67.167042 
L 39.03564 -68.20222 
L 38.859859 -69.212875 
L 38.684077 -70.182172 
L 38.508295 -71.092774 
L 38.332513 -71.928934 
L 38.156732 -72.678954 
L 37.98095 -73.337438 
L 37.805168 -73.906703 
L 37.629387 -74.396831 
L 37.453605 -74.824191 
L 37.277823 -75.208727 
L 37.102041 -75.570601 
L 36.92626 -75.926914 
L 36.750478 -76.289166 
L 36.574696 -76.661864 
L 36.398915 -77.042476 
L 36.223133 -77.422651 
L 36.047351 -77.790498 
L 35.87157 -78.133483 
L 35.695788 -78.44142 
L 35.520006 -78.708859 
L 35.344224 -78.936209 
L 35.168443 -79.129079 
L 34.992661 -79.295796 
L 34.816879 -79.443673 
L 34.641098 -79.575155 
L 34.465316 -79.685192 
L 34.289534 -79.760862 
L 34.113752 -79.783466 
L 33.937971 -79.732454 
L 33.762189 -79.589986 
L 33.586407 -79.34485 
L 33.410626 -78.994917 
L 33.234844 -78.547797 
L 33.059062 -78.019793 
L 32.883281 -77.433398 
L 32.707499 -76.813682 
L 32.531717 -76.184051 
L 32.355935 -75.562114 
L 32.180154 -74.956538 
L 32.004372 -74.365693 
L 31.82859 -73.778449 
L 31.652809 -73.176877 
L 31.477027 -72.540084 
L 31.301245 -71.848169 
L 31.125463 -71.085466 
L 30.949682 -70.242602 
L 30.7739 -69.317358 
L 30.598118 -68.314578 
L 30.422337 -67.245498 
L 30.246555 -66.126731 
L 30.070773 -64.979004 
L 29.894992 -63.825627 
L 29.71921 -62.690607 
L 29.543428 -61.596456 
L 29.367646 -60.561883 
L 29.191865 -59.599749 
L 29.016083 -58.715708 
L 28.840301 -57.907908 
L 28.66452 -57.167856 
L 28.488738 -56.48231 
L 28.312956 -55.835755 
L 28.137174 -55.212924 
L 27.961393 -54.600873 
L 27.785611 -53.990287 
L 27.609829 -53.375962 
L 27.434048 -52.756611 
L 27.258266 -52.134263 
L 27.082484 -51.513515 
L 26.906703 -50.900811 
L 26.730921 -50.303785 
L 26.555139 -49.73064 
L 26.379357 -49.189474 
L 26.203576 -48.687484 
L 26.027794 -48.230083 
L 25.852012 -47.820017 
L 25.676231 -47.456682 
L 25.500449 -47.13589 
L 25.324667 -46.850277 
L 25.148885 -46.590408 
L 24.973104 -46.346412 
L 24.797322 -46.109749 
L 24.62154 -45.874614 
L 24.445759 -45.638596 
L 24.269977 -45.402454 
L 24.094195 -45.169193 
L 23.918414 -44.94286 
L 23.742632 -44.727491 
L 23.56685 -44.526483 
L 23.391068 -44.342423 
L 23.215287 -44.177191 
L 23.039505 -44.032078 
L 22.863723 -43.907761 
L 22.687942 -43.804114 
L 22.51216 -43.719985 
L 22.336378 -43.653117 
L 22.160597 -43.60033 
L 21.984815 -43.557963 
L 21.809033 -43.522426 
L 21.633251 -43.490699 
L 21.45747 -43.460612 
L 21.281688 -43.430864 
L 21.105906 -43.400845 
L 20.930125 -43.370376 
L 20.754343 -43.339479 
L 20.578561 -43.308251 
L 20.402779 -43.276825 
L 20.226998 -43.245379 
L 20.051216 -43.214149 
L 19.875434 -43.183434 
L 19.699653 -43.153598 
L 19.523871 -43.125064 
L 19.348089 -43.098329 
L 19.172308 -43.073958 
L 18.996526 -43.05254 
L 18.820744 -43.034608 
L 18.644962 -43.020516 
L 18.469181 -43.010331 
L 18.293399 -43.003754 
L 18.117617 -43.000128 
L 17.941836 -42.998524 
L 17.766054 -42.9979 
L 17.590272 -42.997285 
L 17.41449 -42.995951 
L 17.238709 -42.993513 
L 17.062927 -42.989946 
L 16.887145 -42.985522 
L 16.711364 -42.980681 
z
" style="stroke: #482475; stroke-width: 1.25"/>
    </defs>
    <g>
     <use xlink:href="#m973157b788" x="0" y="174.899688" style="fill: #482475; fill-opacity: 0.7; stroke: #482475; stroke-width: 1.25"/>
    </g>
   </g>
   <g id="line2d_9">
    <path d="M 7.2 131.94 
L 216.45 131.94 
" style="fill: none; stroke: #482475; stroke-opacity: 0.9; stroke-linecap: round"/>
   </g>
   <g id="text_15">
    <!-- 8 -->
    <g style="fill: #482475" transform="translate(7.2 131.09325) scale(0.12 -0.12)">
     <defs>
      <path id="DejaVuSans-Bold-38" d="M 2228 2088 
Q 1891 2088 1709 1903 
Q 1528 1719 1528 1375 
Q 1528 1031 1709 848 
Q 1891 666 2228 666 
Q 2563 666 2741 848 
Q 2919 1031 2919 1375 
Q 2919 1722 2741 1905 
Q 2563 2088 2228 2088 
z
M 1350 2484 
Q 925 2613 709 2878 
Q 494 3144 494 3541 
Q 494 4131 934 4440 
Q 1375 4750 2228 4750 
Q 3075 4750 3515 4442 
Q 3956 4134 3956 3541 
Q 3956 3144 3739 2878 
Q 3522 2613 3097 2484 
Q 3572 2353 3814 2058 
Q 4056 1763 4056 1313 
Q 4056 619 3595 264 
Q 3134 -91 2228 -91 
Q 1319 -91 855 264 
Q 391 619 391 1313 
Q 391 1763 633 2058 
Q 875 2353 1350 2484 
z
M 1631 3419 
Q 1631 3141 1786 2991 
Q 1941 2841 2228 2841 
Q 2509 2841 2662 2991 
Q 2816 3141 2816 3419 
Q 2816 3697 2662 3845 
Q 2509 3994 2228 3994 
Q 1941 3994 1786 3844 
Q 1631 3694 1631 3419 
z
" transform="scale(0.015625)"/>
     </defs>
     <use xlink:href="#DejaVuSans-Bold-38"/>
    </g>
   </g>
  </g>
 </g>
</svg>
