<?xml version="1.0" encoding="utf-8" standalone="no"?>
<!DOCTYPE svg PUBLIC "-//W3C//DTD SVG 1.1//EN"
  "http://www.w3.org/Graphics/SVG/1.1/DTD/svg11.dtd">
<svg xmlns:xlink="http://www.w3.org/1999/xlink" width="656.39952pt" height="224.39952pt" viewBox="0 0 656.39952 224.39952" xmlns="http://www.w3.org/2000/svg" version="1.1">
 <metadata>
  <rdf:RDF xmlns:dc="http://purl.org/dc/elements/1.1/" xmlns:cc="http://creativecommons.org/ns#" xmlns:rdf="http://www.w3.org/1999/02/22-rdf-syntax-ns#">
   <cc:Work>
    <dc:type rdf:resource="http://purl.org/dc/dcmitype/StillImage"/>
    <dc:date>2023-12-05T12:15:59.885172</dc:date>
    <dc:format>image/svg+xml</dc:format>
    <dc:creator>
     <cc:Agent>
      <dc:title>Matplotlib v3.8.2, https://matplotlib.org/</dc:title>
     </cc:Agent>
    </dc:creator>
   </cc:Work>
  </rdf:RDF>
 </metadata>
 <defs>
  <style type="text/css">*{stroke-linejoin: round; stroke-linecap: butt}</style>
 </defs>
 <g id="figure_1">
  <g id="patch_1">
   <path d="M 0 224.39952 
L 656.39952 224.39952 
L 656.39952 0 
L 0 0 
L 0 224.39952 
z
" style="fill: none"/>
  </g>
  <g id="axes_1">
   <g id="patch_2">
    <path d="M 45.3 182.67452 
L 599.10909 182.67452 
L 599.10909 7.2 
L 45.3 7.2 
L 45.3 182.67452 
z
" style="fill: none"/>
   </g>
   <g id="matplotlib.axis_1">
    <g id="xtick_1">
     <g id="text_1">
      <!-- 0 -->
      <g style="fill: #838383" transform="translate(66.34814 196.34952) scale(0.1375 -0.1375)">
       <defs>
        <path id="IBMPlexSans-Regular-30" d="M 1920 -77 
Q 1120 -77 752 531 
Q 384 1139 384 2234 
Q 384 3328 752 3936 
Q 1120 4544 1920 4544 
Q 2720 4544 3088 3936 
Q 3456 3328 3456 2234 
Q 3456 1139 3088 531 
Q 2720 -77 1920 -77 
z
M 1920 390 
Q 2182 390 2368 499 
Q 2554 608 2669 806 
Q 2784 1005 2838 1273 
Q 2893 1542 2893 1869 
L 2893 2598 
Q 2893 2925 2838 3193 
Q 2784 3462 2669 3660 
Q 2554 3859 2368 3968 
Q 2182 4077 1920 4077 
Q 1658 4077 1472 3968 
Q 1286 3859 1171 3660 
Q 1056 3462 1001 3193 
Q 947 2925 947 2598 
L 947 1869 
Q 947 1542 1001 1273 
Q 1056 1005 1171 806 
Q 1286 608 1472 499 
Q 1658 390 1920 390 
z
" transform="scale(0.015625)"/>
       </defs>
       <use xlink:href="#IBMPlexSans-Regular-30"/>
      </g>
     </g>
    </g>
    <g id="xtick_2">
     <g id="text_2">
      <!-- 250 -->
      <g style="fill: #838383" transform="translate(121.347237 196.34952) scale(0.1375 -0.1375)">
       <defs>
        <path id="IBMPlexSans-Regular-32" d="M 3411 0 
L 480 0 
L 480 550 
L 1939 1894 
Q 2253 2182 2464 2505 
Q 2675 2829 2675 3155 
L 2675 3232 
Q 2675 3603 2470 3833 
Q 2266 4064 1850 4064 
Q 1645 4064 1491 4006 
Q 1338 3949 1226 3846 
Q 1114 3744 1040 3606 
Q 966 3469 922 3309 
L 442 3494 
Q 506 3693 618 3881 
Q 730 4070 899 4217 
Q 1069 4365 1309 4454 
Q 1549 4544 1875 4544 
Q 2202 4544 2458 4448 
Q 2714 4352 2886 4179 
Q 3059 4006 3152 3769 
Q 3245 3533 3245 3245 
Q 3245 2982 3171 2758 
Q 3098 2534 2970 2332 
Q 2842 2131 2659 1939 
Q 2477 1747 2266 1555 
L 1062 474 
L 3411 474 
L 3411 0 
z
" transform="scale(0.015625)"/>
        <path id="IBMPlexSans-Regular-35" d="M 3187 3994 
L 1229 3994 
L 1101 2291 
L 1146 2291 
Q 1306 2515 1507 2649 
Q 1709 2784 2061 2784 
Q 2349 2784 2592 2688 
Q 2835 2592 3014 2416 
Q 3194 2240 3293 1984 
Q 3392 1728 3392 1402 
Q 3392 1075 3289 803 
Q 3187 531 2992 336 
Q 2797 141 2518 32 
Q 2240 -77 1888 -77 
Q 1606 -77 1392 -13 
Q 1178 51 1011 160 
Q 845 269 720 403 
Q 595 538 493 685 
L 896 992 
Q 979 858 1072 749 
Q 1165 640 1277 563 
Q 1389 486 1536 444 
Q 1683 403 1888 403 
Q 2349 403 2585 646 
Q 2822 890 2822 1331 
L 2822 1395 
Q 2822 1837 2585 2080 
Q 2349 2323 1888 2323 
Q 1581 2323 1405 2211 
Q 1229 2099 1088 1946 
L 634 2010 
L 794 4467 
L 3187 4467 
L 3187 3994 
z
" transform="scale(0.015625)"/>
       </defs>
       <use xlink:href="#IBMPlexSans-Regular-32"/>
       <use xlink:href="#IBMPlexSans-Regular-35" x="59.999985"/>
       <use xlink:href="#IBMPlexSans-Regular-30" x="119.999969"/>
      </g>
     </g>
    </g>
    <g id="xtick_3">
     <g id="text_3">
      <!-- 500 -->
      <g style="fill: #838383" transform="translate(184.596334 196.34952) scale(0.1375 -0.1375)">
       <use xlink:href="#IBMPlexSans-Regular-35"/>
       <use xlink:href="#IBMPlexSans-Regular-30" x="59.999985"/>
       <use xlink:href="#IBMPlexSans-Regular-30" x="119.999969"/>
      </g>
     </g>
    </g>
    <g id="xtick_4">
     <g id="text_4">
      <!-- 750 -->
      <g style="fill: #838383" transform="translate(247.84543 196.34952) scale(0.1375 -0.1375)">
       <defs>
        <path id="IBMPlexSans-Regular-37" d="M 1120 0 
L 2829 4006 
L 922 4006 
L 922 3174 
L 442 3174 
L 442 4467 
L 3373 4467 
L 3373 3994 
L 1696 0 
L 1120 0 
z
" transform="scale(0.015625)"/>
       </defs>
       <use xlink:href="#IBMPlexSans-Regular-37"/>
       <use xlink:href="#IBMPlexSans-Regular-35" x="59.999985"/>
       <use xlink:href="#IBMPlexSans-Regular-30" x="119.999969"/>
      </g>
     </g>
    </g>
    <g id="xtick_5">
     <g id="text_5">
      <!-- 1000 -->
      <g style="fill: #838383" transform="translate(306.969527 196.34952) scale(0.1375 -0.1375)">
       <defs>
        <path id="IBMPlexSans-Regular-31" d="M 563 0 
L 563 474 
L 1811 474 
L 1811 4070 
L 1766 4070 
L 640 3021 
L 326 3360 
L 1510 4467 
L 2349 4467 
L 2349 474 
L 3501 474 
L 3501 0 
L 563 0 
z
" transform="scale(0.015625)"/>
       </defs>
       <use xlink:href="#IBMPlexSans-Regular-31"/>
       <use xlink:href="#IBMPlexSans-Regular-30" x="59.999985"/>
       <use xlink:href="#IBMPlexSans-Regular-30" x="119.999969"/>
       <use xlink:href="#IBMPlexSans-Regular-30" x="179.999954"/>
      </g>
     </g>
    </g>
    <g id="xtick_6">
     <g id="text_6">
      <!-- 1250 -->
      <g style="fill: #838383" transform="translate(370.218624 196.34952) scale(0.1375 -0.1375)">
       <use xlink:href="#IBMPlexSans-Regular-31"/>
       <use xlink:href="#IBMPlexSans-Regular-32" x="59.999985"/>
       <use xlink:href="#IBMPlexSans-Regular-35" x="119.999969"/>
       <use xlink:href="#IBMPlexSans-Regular-30" x="179.999954"/>
      </g>
     </g>
    </g>
    <g id="xtick_7">
     <g id="text_7">
      <!-- 1500 -->
      <g style="fill: #838383" transform="translate(433.46772 196.34952) scale(0.1375 -0.1375)">
       <use xlink:href="#IBMPlexSans-Regular-31"/>
       <use xlink:href="#IBMPlexSans-Regular-35" x="59.999985"/>
       <use xlink:href="#IBMPlexSans-Regular-30" x="119.999969"/>
       <use xlink:href="#IBMPlexSans-Regular-30" x="179.999954"/>
      </g>
     </g>
    </g>
    <g id="xtick_8">
     <g id="text_8">
      <!-- 1750 -->
      <g style="fill: #838383" transform="translate(496.716817 196.34952) scale(0.1375 -0.1375)">
       <use xlink:href="#IBMPlexSans-Regular-31"/>
       <use xlink:href="#IBMPlexSans-Regular-37" x="59.999985"/>
       <use xlink:href="#IBMPlexSans-Regular-35" x="119.999969"/>
       <use xlink:href="#IBMPlexSans-Regular-30" x="179.999954"/>
      </g>
     </g>
    </g>
    <g id="xtick_9">
     <g id="text_9">
      <!-- 2000 -->
      <g style="fill: #838383" transform="translate(559.965914 196.34952) scale(0.1375 -0.1375)">
       <use xlink:href="#IBMPlexSans-Regular-32"/>
       <use xlink:href="#IBMPlexSans-Regular-30" x="59.999985"/>
       <use xlink:href="#IBMPlexSans-Regular-30" x="119.999969"/>
       <use xlink:href="#IBMPlexSans-Regular-30" x="179.999954"/>
      </g>
     </g>
    </g>
    <g id="text_10">
     <!-- Step -->
     <g style="fill: #838383" transform="translate(306.747514 214.19952) scale(0.15 -0.15)">
      <defs>
       <path id="IBMPlexSans-Regular-53" d="M 1850 -77 
Q 1306 -77 922 131 
Q 538 339 269 704 
L 666 1037 
Q 902 723 1190 560 
Q 1478 397 1869 397 
Q 2349 397 2601 627 
Q 2854 858 2854 1242 
Q 2854 1562 2662 1734 
Q 2470 1907 2029 2010 
L 1664 2093 
Q 1050 2234 726 2518 
Q 403 2803 403 3322 
Q 403 3616 512 3846 
Q 621 4077 816 4230 
Q 1011 4384 1283 4464 
Q 1555 4544 1882 4544 
Q 2387 4544 2748 4358 
Q 3110 4173 3360 3814 
L 2957 3520 
Q 2771 3776 2508 3923 
Q 2246 4070 1856 4070 
Q 1427 4070 1180 3888 
Q 934 3706 934 3341 
Q 934 3021 1142 2857 
Q 1350 2694 1773 2598 
L 2138 2515 
Q 2797 2368 3091 2067 
Q 3386 1766 3386 1267 
Q 3386 960 3280 710 
Q 3174 461 2976 288 
Q 2778 115 2493 19 
Q 2208 -77 1850 -77 
z
" transform="scale(0.015625)"/>
       <path id="IBMPlexSans-Regular-74" d="M 1274 0 
Q 1005 0 867 150 
Q 730 301 730 544 
L 730 2854 
L 186 2854 
L 186 3302 
L 493 3302 
Q 659 3302 720 3369 
Q 781 3437 781 3603 
L 781 4218 
L 1242 4218 
L 1242 3302 
L 1965 3302 
L 1965 2854 
L 1242 2854 
L 1242 448 
L 1914 448 
L 1914 0 
L 1274 0 
z
" transform="scale(0.015625)"/>
       <path id="IBMPlexSans-Regular-65" d="M 1786 -77 
Q 1446 -77 1174 44 
Q 902 166 707 393 
Q 512 621 406 937 
Q 301 1254 301 1651 
Q 301 2042 406 2362 
Q 512 2682 707 2909 
Q 902 3136 1174 3257 
Q 1446 3379 1786 3379 
Q 2118 3379 2380 3257 
Q 2643 3136 2828 2921 
Q 3014 2707 3113 2412 
Q 3213 2118 3213 1766 
L 3213 1523 
L 838 1523 
L 838 1370 
Q 838 1158 905 976 
Q 973 794 1097 659 
Q 1222 525 1404 448 
Q 1587 371 1818 371 
Q 2131 371 2364 518 
Q 2598 666 2726 941 
L 3091 678 
Q 2931 339 2592 131 
Q 2253 -77 1786 -77 
z
M 1786 2950 
Q 1574 2950 1401 2876 
Q 1229 2803 1104 2668 
Q 979 2534 908 2352 
Q 838 2170 838 1952 
L 838 1907 
L 2662 1907 
L 2662 1978 
Q 2662 2419 2422 2684 
Q 2182 2950 1786 2950 
z
" transform="scale(0.015625)"/>
       <path id="IBMPlexSans-Regular-70" d="M 544 3302 
L 1056 3302 
L 1056 2765 
L 1082 2765 
Q 1210 3078 1456 3228 
Q 1702 3379 2048 3379 
Q 2355 3379 2604 3257 
Q 2854 3136 3030 2912 
Q 3206 2688 3299 2368 
Q 3392 2048 3392 1651 
Q 3392 1254 3299 934 
Q 3206 614 3030 390 
Q 2854 166 2604 44 
Q 2355 -77 2048 -77 
Q 1376 -77 1082 538 
L 1056 538 
L 1056 -1280 
L 544 -1280 
L 544 3302 
z
M 1907 384 
Q 2342 384 2592 656 
Q 2842 928 2842 1370 
L 2842 1933 
Q 2842 2374 2592 2646 
Q 2342 2918 1907 2918 
Q 1734 2918 1577 2870 
Q 1421 2822 1305 2739 
Q 1190 2656 1123 2537 
Q 1056 2419 1056 2285 
L 1056 1056 
Q 1056 896 1123 771 
Q 1190 646 1305 560 
Q 1421 474 1577 429 
Q 1734 384 1907 384 
z
" transform="scale(0.015625)"/>
      </defs>
      <use xlink:href="#IBMPlexSans-Regular-53"/>
      <use xlink:href="#IBMPlexSans-Regular-74" x="58.099991"/>
      <use xlink:href="#IBMPlexSans-Regular-65" x="93.199982"/>
      <use xlink:href="#IBMPlexSans-Regular-70" x="148.099976"/>
     </g>
    </g>
   </g>
   <g id="matplotlib.axis_2">
    <g id="ytick_1">
     <g id="line2d_1"/>
     <g id="text_11">
      <!-- 50 -->
      <g style="fill: #2196f3" transform="translate(25.3 156.12803) scale(0.1375 -0.1375)">
       <use xlink:href="#IBMPlexSans-Regular-35"/>
       <use xlink:href="#IBMPlexSans-Regular-30" x="59.999985"/>
      </g>
     </g>
    </g>
    <g id="ytick_2">
     <g id="line2d_2"/>
     <g id="text_12">
      <!-- 55 -->
      <g style="fill: #2196f3" transform="translate(25.3 116.739758) scale(0.1375 -0.1375)">
       <use xlink:href="#IBMPlexSans-Regular-35"/>
       <use xlink:href="#IBMPlexSans-Regular-35" x="59.999985"/>
      </g>
     </g>
    </g>
    <g id="ytick_3">
     <g id="line2d_3"/>
     <g id="text_13">
      <!-- 60 -->
      <g style="fill: #2196f3" transform="translate(25.3 77.351486) scale(0.1375 -0.1375)">
       <defs>
        <path id="IBMPlexSans-Regular-36" d="M 1926 -77 
Q 1581 -77 1302 41 
Q 1024 160 829 381 
Q 634 602 531 922 
Q 429 1242 429 1638 
Q 429 2138 576 2576 
Q 723 3014 956 3376 
Q 1190 3738 1472 4016 
Q 1754 4294 2022 4467 
L 2714 4467 
Q 2355 4205 2073 3955 
Q 1792 3706 1581 3434 
Q 1370 3162 1222 2851 
Q 1075 2541 986 2150 
L 1018 2138 
Q 1178 2413 1430 2595 
Q 1683 2778 2093 2778 
Q 2381 2778 2624 2682 
Q 2867 2586 3040 2406 
Q 3213 2227 3312 1971 
Q 3411 1715 3411 1402 
Q 3411 1075 3305 803 
Q 3200 531 3005 336 
Q 2810 141 2534 32 
Q 2259 -77 1926 -77 
z
M 1920 390 
Q 2362 390 2608 633 
Q 2854 877 2854 1331 
L 2854 1382 
Q 2854 1837 2608 2080 
Q 2362 2323 1920 2323 
Q 1478 2323 1232 2080 
Q 986 1837 986 1382 
L 986 1331 
Q 986 877 1232 633 
Q 1478 390 1920 390 
z
" transform="scale(0.015625)"/>
       </defs>
       <use xlink:href="#IBMPlexSans-Regular-36"/>
       <use xlink:href="#IBMPlexSans-Regular-30" x="59.999985"/>
      </g>
     </g>
    </g>
    <g id="ytick_4">
     <g id="line2d_4"/>
     <g id="text_14">
      <!-- 65 -->
      <g style="fill: #2196f3" transform="translate(25.3 37.963214) scale(0.1375 -0.1375)">
       <use xlink:href="#IBMPlexSans-Regular-36"/>
       <use xlink:href="#IBMPlexSans-Regular-35" x="59.999985"/>
      </g>
     </g>
    </g>
    <g id="text_15">
     <!-- loss -->
     <g style="fill: #2196f3" transform="translate(18.3 108.482963) rotate(-90) scale(0.15 -0.15)">
      <defs>
       <path id="IBMPlexSans-Regular-6c" d="M 1088 0 
Q 819 0 681 150 
Q 544 301 544 531 
L 544 4736 
L 1056 4736 
L 1056 448 
L 1542 448 
L 1542 0 
L 1088 0 
z
" transform="scale(0.015625)"/>
       <path id="IBMPlexSans-Regular-6f" d="M 1792 -77 
Q 1459 -77 1184 44 
Q 909 166 713 393 
Q 518 621 409 937 
Q 301 1254 301 1651 
Q 301 2042 409 2362 
Q 518 2682 713 2909 
Q 909 3136 1184 3257 
Q 1459 3379 1792 3379 
Q 2125 3379 2397 3257 
Q 2669 3136 2867 2909 
Q 3066 2682 3174 2362 
Q 3283 2042 3283 1651 
Q 3283 1254 3174 937 
Q 3066 621 2867 393 
Q 2669 166 2397 44 
Q 2125 -77 1792 -77 
z
M 1792 378 
Q 2208 378 2470 634 
Q 2733 890 2733 1414 
L 2733 1888 
Q 2733 2413 2470 2669 
Q 2208 2925 1792 2925 
Q 1376 2925 1113 2669 
Q 851 2413 851 1888 
L 851 1414 
Q 851 890 1113 634 
Q 1376 378 1792 378 
z
" transform="scale(0.015625)"/>
       <path id="IBMPlexSans-Regular-73" d="M 1536 -77 
Q 1075 -77 764 99 
Q 454 275 230 570 
L 595 864 
Q 787 621 1024 489 
Q 1261 358 1574 358 
Q 1901 358 2083 499 
Q 2266 640 2266 896 
Q 2266 1088 2141 1225 
Q 2016 1363 1690 1414 
L 1427 1453 
Q 1197 1485 1005 1552 
Q 813 1619 669 1731 
Q 525 1843 445 2009 
Q 365 2176 365 2406 
Q 365 2650 454 2832 
Q 544 3014 701 3136 
Q 858 3258 1075 3318 
Q 1293 3379 1542 3379 
Q 1946 3379 2218 3238 
Q 2490 3098 2694 2848 
L 2355 2541 
Q 2246 2694 2035 2819 
Q 1824 2944 1504 2944 
Q 1184 2944 1021 2806 
Q 858 2669 858 2432 
Q 858 2189 1021 2080 
Q 1184 1971 1491 1920 
L 1747 1882 
Q 2298 1798 2528 1564 
Q 2758 1331 2758 954 
Q 2758 474 2432 198 
Q 2106 -77 1536 -77 
z
" transform="scale(0.015625)"/>
      </defs>
      <use xlink:href="#IBMPlexSans-Regular-6c"/>
      <use xlink:href="#IBMPlexSans-Regular-6f" x="27.199997"/>
      <use xlink:href="#IBMPlexSans-Regular-73" x="83.199982"/>
      <use xlink:href="#IBMPlexSans-Regular-73" x="131.899979"/>
     </g>
    </g>
   </g>
   <g id="line2d_5">
    <path d="M 70.47314 77.69565 
L 73.003104 114.551776 
L 75.533068 79.577075 
L 78.063032 114.962662 
L 80.592996 125.296974 
L 83.12296 56.639339 
L 85.652924 132.202664 
L 88.182888 105.712945 
L 90.712851 101.966744 
L 93.242815 136.974771 
L 95.772779 122.345168 
L 100.832707 75.295247 
L 103.362671 74.945726 
L 105.892635 115.426527 
L 108.422598 100.71218 
L 110.952562 146.688353 
L 113.482526 28.517497 
L 116.01249 71.625826 
L 118.542454 46.375285 
L 121.072418 33.09172 
L 123.602382 88.310458 
L 126.132346 51.811607 
L 128.662309 122.265533 
L 131.192273 96.46437 
L 133.722237 102.564455 
L 136.252201 95.483329 
L 138.782165 69.261785 
L 143.842093 139.194659 
L 146.372056 70.756154 
L 148.90202 127.294245 
L 151.431984 83.394587 
L 153.961948 84.955549 
L 156.491912 80.87398 
L 159.021876 87.298315 
L 161.55184 121.202243 
L 164.081804 56.060829 
L 166.611767 113.417777 
L 169.141731 62.627274 
L 171.671695 61.875973 
L 174.201659 62.590853 
L 176.731623 58.325012 
L 179.261587 32.309556 
L 181.791551 100.193051 
L 184.321514 63.12669 
L 186.851478 101.402659 
L 189.381442 82.602055 
L 191.911406 94.359818 
L 194.44137 114.9791 
L 196.971334 107.194453 
L 199.501298 82.562418 
L 202.031262 121.615924 
L 204.561225 45.339672 
L 207.091189 108.666524 
L 212.151117 68.167272 
L 214.681081 97.08495 
L 217.211045 80.357166 
L 219.741009 106.265941 
L 222.270972 72.008794 
L 224.800936 174.698405 
L 227.3309 110.727503 
L 229.860864 143.132705 
L 232.390828 99.000723 
L 234.920792 174.296325 
L 237.450756 152.949031 
L 239.98072 96.708323 
L 242.510683 81.928766 
L 245.040647 46.949347 
L 247.570611 60.430887 
L 250.100575 81.76018 
L 252.630539 125.974621 
L 255.160503 38.600465 
L 257.690467 99.482529 
L 260.22043 95.421845 
L 262.750394 116.806763 
L 265.280358 121.044356 
L 267.810322 85.314146 
L 270.340286 103.525843 
L 272.87025 96.827384 
L 275.400214 44.516999 
L 277.930177 96.165063 
L 282.990105 118.692816 
L 288.050033 75.569041 
L 293.109961 121.238064 
L 295.639925 101.910609 
L 298.169888 35.245105 
L 300.699852 92.365702 
L 303.229816 88.852095 
L 305.75978 68.527882 
L 308.289744 118.159533 
L 310.819708 120.880278 
L 313.349672 84.91465 
L 315.879635 84.345787 
L 318.409599 67.418284 
L 320.939563 88.614242 
L 323.469527 47.22897 
L 325.999491 52.194936 
L 328.529455 20.914628 
L 331.059419 43.583529 
L 333.589383 85.781467 
L 336.119346 69.248803 
L 338.64931 61.43744 
L 341.179274 58.779471 
L 343.709238 86.805571 
L 346.239202 78.620736 
L 348.769166 95.999633 
L 351.29913 135.275725 
L 353.829093 62.029593 
L 356.359057 106.398826 
L 361.418985 144.532294 
L 363.948949 90.369093 
L 366.478913 59.371023 
L 369.008877 163.620634 
L 371.538841 56.750527 
L 374.068804 124.866796 
L 376.598768 114.230382 
L 379.128732 87.721281 
L 381.658696 41.72861 
L 384.18866 150.087948 
L 386.718624 94.919605 
L 389.248588 125.835877 
L 391.778551 81.949952 
L 394.308515 104.047856 
L 396.838479 80.231072 
L 399.368443 66.238848 
L 401.898407 131.687111 
L 404.428371 71.18489 
L 409.488299 35.289039 
L 414.548226 97.877963 
L 417.07819 78.411973 
L 419.608154 115.248506 
L 422.138118 111.292008 
L 424.668082 25.863285 
L 429.728009 103.451557 
L 432.257973 90.59222 
L 434.787937 69.762582 
L 437.317901 153.691918 
L 439.847865 47.12848 
L 442.377829 84.285054 
L 444.907793 60.264735 
L 447.437757 102.973959 
L 449.96772 59.019968 
L 452.497684 88.903722 
L 455.027648 15.176115 
L 457.557612 104.689262 
L 460.087576 128.724005 
L 462.61754 77.200592 
L 467.677467 102.955988 
L 470.207431 127.784675 
L 472.737395 102.167664 
L 475.267359 62.894998 
L 477.797323 85.807491 
L 480.327287 92.940725 
L 482.857251 96.342634 
L 485.387215 71.073641 
L 487.917178 106.019975 
L 490.447142 99.591283 
L 492.977106 128.174585 
L 495.50707 42.748145 
L 498.037034 85.311802 
L 500.566998 62.137836 
L 503.096962 138.836513 
L 508.156889 89.134663 
L 510.686853 107.963364 
L 513.216817 80.46622 
L 515.746781 86.998287 
L 518.276745 84.751504 
L 520.806709 90.878815 
L 523.336673 137.216771 
L 525.866636 106.740444 
L 528.3966 96.585295 
L 530.926564 39.187839 
L 533.456528 129.308465 
L 535.986492 138.699841 
L 538.516456 126.131307 
L 541.04642 92.729107 
L 543.576383 81.381239 
L 546.106347 100.113927 
L 551.166275 77.550475 
L 553.696239 113.238253 
L 558.756167 33.533828 
L 561.286131 106.842978 
L 563.816094 104.141645 
L 566.346058 59.376131 
L 568.876022 33.578724 
L 571.405986 138.466977 
L 573.93595 154.634734 
L 573.93595 154.634734 
" clip-path="url(#p2717d9a4ab)" style="fill: none; stroke: #2196f3; stroke-opacity: 0.9; stroke-width: 1.5; stroke-linecap: round"/>
   </g>
  </g>
  <g id="axes_2">
   <g id="matplotlib.axis_3">
    <g id="ytick_5">
     <g id="line2d_6"/>
     <g id="text_16">
      <!-- 0.00 -->
      <g style="fill: #ef5350" transform="translate(602.60909 179.785939) scale(0.1375 -0.1375)">
       <defs>
        <path id="IBMPlexSans-Regular-2e" d="M 870 -77 
Q 666 -77 573 25 
Q 480 128 480 294 
L 480 378 
Q 480 544 573 646 
Q 666 749 870 749 
Q 1075 749 1168 646 
Q 1261 544 1261 378 
L 1261 294 
Q 1261 128 1168 25 
Q 1075 -77 870 -77 
z
" transform="scale(0.015625)"/>
       </defs>
       <use xlink:href="#IBMPlexSans-Regular-30"/>
       <use xlink:href="#IBMPlexSans-Regular-2e" x="59.999985"/>
       <use xlink:href="#IBMPlexSans-Regular-30" x="87.199982"/>
       <use xlink:href="#IBMPlexSans-Regular-30" x="147.199966"/>
      </g>
     </g>
    </g>
    <g id="ytick_6">
     <g id="line2d_7"/>
     <g id="text_17">
      <!-- 0.01 -->
      <g style="fill: #ef5350" transform="translate(602.60909 145.754499) scale(0.1375 -0.1375)">
       <use xlink:href="#IBMPlexSans-Regular-30"/>
       <use xlink:href="#IBMPlexSans-Regular-2e" x="59.999985"/>
       <use xlink:href="#IBMPlexSans-Regular-30" x="87.199982"/>
       <use xlink:href="#IBMPlexSans-Regular-31" x="147.199966"/>
      </g>
     </g>
    </g>
    <g id="ytick_7">
     <g id="line2d_8"/>
     <g id="text_18">
      <!-- 0.02 -->
      <g style="fill: #ef5350" transform="translate(602.60909 111.723059) scale(0.1375 -0.1375)">
       <use xlink:href="#IBMPlexSans-Regular-30"/>
       <use xlink:href="#IBMPlexSans-Regular-2e" x="59.999985"/>
       <use xlink:href="#IBMPlexSans-Regular-30" x="87.199982"/>
       <use xlink:href="#IBMPlexSans-Regular-32" x="147.199966"/>
      </g>
     </g>
    </g>
    <g id="ytick_8">
     <g id="line2d_9"/>
     <g id="text_19">
      <!-- 0.03 -->
      <g style="fill: #ef5350" transform="translate(602.60909 77.691619) scale(0.1375 -0.1375)">
       <defs>
        <path id="IBMPlexSans-Regular-33" d="M 1670 2573 
Q 2125 2573 2352 2781 
Q 2579 2989 2579 3315 
L 2579 3360 
Q 2579 3712 2358 3888 
Q 2138 4064 1779 4064 
Q 1434 4064 1216 3913 
Q 998 3763 858 3507 
L 461 3814 
Q 544 3949 662 4080 
Q 781 4211 941 4313 
Q 1101 4416 1312 4480 
Q 1523 4544 1792 4544 
Q 2074 4544 2323 4470 
Q 2573 4397 2755 4253 
Q 2938 4109 3043 3897 
Q 3149 3686 3149 3418 
Q 3149 3200 3081 3027 
Q 3014 2854 2899 2726 
Q 2784 2598 2627 2508 
Q 2470 2419 2291 2374 
L 2291 2349 
Q 2470 2310 2640 2224 
Q 2810 2138 2941 2000 
Q 3072 1862 3152 1667 
Q 3232 1472 3232 1222 
Q 3232 934 3123 694 
Q 3014 454 2816 284 
Q 2618 115 2336 19 
Q 2054 -77 1715 -77 
Q 1427 -77 1203 -13 
Q 979 51 806 160 
Q 634 269 502 403 
Q 371 538 269 685 
L 672 992 
Q 755 858 854 749 
Q 954 640 1075 563 
Q 1197 486 1350 444 
Q 1504 403 1709 403 
Q 2182 403 2425 617 
Q 2669 832 2669 1229 
L 2669 1280 
Q 2669 1677 2425 1891 
Q 2182 2106 1709 2106 
L 1184 2106 
L 1184 2573 
L 1670 2573 
z
" transform="scale(0.015625)"/>
       </defs>
       <use xlink:href="#IBMPlexSans-Regular-30"/>
       <use xlink:href="#IBMPlexSans-Regular-2e" x="59.999985"/>
       <use xlink:href="#IBMPlexSans-Regular-30" x="87.199982"/>
       <use xlink:href="#IBMPlexSans-Regular-33" x="147.199966"/>
      </g>
     </g>
    </g>
    <g id="ytick_9">
     <g id="line2d_10"/>
     <g id="text_20">
      <!-- 0.04 -->
      <g style="fill: #ef5350" transform="translate(602.60909 43.660179) scale(0.1375 -0.1375)">
       <defs>
        <path id="IBMPlexSans-Regular-34" d="M 2400 0 
L 2400 877 
L 243 877 
L 243 1350 
L 2112 4467 
L 2912 4467 
L 2912 1325 
L 3558 1325 
L 3558 877 
L 2912 877 
L 2912 0 
L 2400 0 
z
M 749 1325 
L 2400 1325 
L 2400 4051 
L 2368 4051 
L 749 1325 
z
" transform="scale(0.015625)"/>
       </defs>
       <use xlink:href="#IBMPlexSans-Regular-30"/>
       <use xlink:href="#IBMPlexSans-Regular-2e" x="59.999985"/>
       <use xlink:href="#IBMPlexSans-Regular-30" x="87.199982"/>
       <use xlink:href="#IBMPlexSans-Regular-34" x="147.199966"/>
      </g>
     </g>
    </g>
    <g id="text_21">
     <!-- dQint -->
     <g style="fill: #ef5350" transform="translate(646.19952 113.363823) rotate(-90) scale(0.15 -0.15)">
      <defs>
       <path id="IBMPlexSans-Regular-64" d="M 2656 538 
L 2630 538 
Q 2330 -77 1664 -77 
Q 1357 -77 1107 44 
Q 858 166 682 390 
Q 506 614 413 934 
Q 320 1254 320 1651 
Q 320 2048 413 2368 
Q 506 2688 682 2912 
Q 858 3136 1107 3257 
Q 1357 3379 1664 3379 
Q 2010 3379 2256 3228 
Q 2502 3078 2630 2765 
L 2656 2765 
L 2656 4736 
L 3168 4736 
L 3168 0 
L 2656 0 
L 2656 538 
z
M 1805 384 
Q 1978 384 2134 429 
Q 2291 474 2406 560 
Q 2522 646 2589 771 
Q 2656 896 2656 1056 
L 2656 2285 
Q 2656 2419 2589 2537 
Q 2522 2656 2406 2739 
Q 2291 2822 2134 2870 
Q 1978 2918 1805 2918 
Q 1370 2918 1120 2646 
Q 870 2374 870 1933 
L 870 1370 
Q 870 928 1120 656 
Q 1370 384 1805 384 
z
" transform="scale(0.015625)"/>
       <path id="IBMPlexSans-Regular-51" d="M 3251 -1050 
L 2592 -1050 
Q 2323 -1050 2188 -899 
Q 2054 -749 2054 -525 
L 2054 -70 
Q 1670 -32 1356 134 
Q 1043 301 825 592 
Q 608 883 489 1296 
Q 371 1709 371 2234 
Q 371 2797 505 3225 
Q 640 3654 886 3948 
Q 1133 4243 1481 4393 
Q 1830 4544 2266 4544 
Q 2694 4544 3046 4393 
Q 3398 4243 3644 3948 
Q 3891 3654 4025 3225 
Q 4160 2797 4160 2234 
Q 4160 1203 3731 624 
Q 3302 45 2566 -58 
L 2566 -602 
L 3251 -602 
L 3251 -1050 
z
M 2266 403 
Q 2554 403 2797 505 
Q 3040 608 3216 800 
Q 3392 992 3488 1261 
Q 3584 1530 3584 1862 
L 3584 2605 
Q 3584 2938 3488 3206 
Q 3392 3475 3216 3667 
Q 3040 3859 2797 3961 
Q 2554 4064 2266 4064 
Q 1978 4064 1734 3961 
Q 1491 3859 1315 3667 
Q 1139 3475 1043 3206 
Q 947 2938 947 2605 
L 947 1862 
Q 947 1530 1043 1261 
Q 1139 992 1315 800 
Q 1491 608 1734 505 
Q 1978 403 2266 403 
z
" transform="scale(0.015625)"/>
       <path id="IBMPlexSans-Regular-69" d="M 800 4077 
Q 634 4077 560 4157 
Q 486 4237 486 4365 
L 486 4448 
Q 486 4576 560 4656 
Q 634 4736 800 4736 
Q 966 4736 1040 4656 
Q 1114 4576 1114 4448 
L 1114 4365 
Q 1114 4237 1040 4157 
Q 966 4077 800 4077 
z
M 544 3302 
L 1056 3302 
L 1056 0 
L 544 0 
L 544 3302 
z
" transform="scale(0.015625)"/>
       <path id="IBMPlexSans-Regular-6e" d="M 544 0 
L 544 3302 
L 1056 3302 
L 1056 2765 
L 1082 2765 
Q 1203 3046 1424 3212 
Q 1645 3379 2016 3379 
Q 2528 3379 2825 3049 
Q 3123 2720 3123 2118 
L 3123 0 
L 2611 0 
L 2611 2029 
Q 2611 2918 1862 2918 
Q 1709 2918 1565 2880 
Q 1421 2842 1305 2765 
Q 1190 2688 1123 2569 
Q 1056 2451 1056 2291 
L 1056 0 
L 544 0 
z
" transform="scale(0.015625)"/>
      </defs>
      <use xlink:href="#IBMPlexSans-Regular-64"/>
      <use xlink:href="#IBMPlexSans-Regular-51" x="57.999985"/>
      <use xlink:href="#IBMPlexSans-Regular-69" x="128.799973"/>
      <use xlink:href="#IBMPlexSans-Regular-6e" x="153.799957"/>
      <use xlink:href="#IBMPlexSans-Regular-74" x="210.599945"/>
     </g>
    </g>
   </g>
   <g id="line2d_11">
    <path d="M 70.47314 41.763101 
L 73.003104 148.111338 
L 75.533068 94.937188 
L 78.063032 94.937175 
L 80.592996 121.524149 
L 83.12296 174.698372 
L 85.652924 121.524162 
L 88.182888 121.524181 
L 90.712851 94.937093 
L 93.242815 174.698163 
L 95.772779 121.524307 
L 98.302743 94.937213 
L 100.832707 174.698378 
L 103.362671 174.698335 
L 105.892635 148.111281 
L 108.422598 174.698281 
L 113.482526 121.524155 
L 116.01249 148.111218 
L 118.542454 121.524257 
L 121.072418 148.111429 
L 123.602382 94.937213 
L 126.132346 174.698331 
L 133.722237 94.93701 
L 136.252201 148.111326 
L 138.782165 174.698364 
L 141.312129 121.524105 
L 143.842093 148.111202 
L 146.372056 94.93722 
L 148.90202 148.111338 
L 151.431984 148.111167 
L 153.961948 121.524149 
L 156.491912 68.349961 
L 159.021876 121.524073 
L 161.55184 41.763012 
L 164.081804 148.111262 
L 166.611767 121.524333 
L 169.141731 68.350113 
L 171.671695 174.698334 
L 174.201659 174.698289 
L 176.731623 148.111281 
L 179.261587 174.698393 
L 181.791551 121.52413 
L 184.321514 121.524206 
L 186.851478 94.937239 
L 189.381442 174.69837 
L 191.911406 121.524117 
L 194.44137 148.111135 
L 196.971334 121.524269 
L 199.501298 41.763164 
L 202.031262 121.5242 
L 204.561225 121.524143 
L 207.091189 94.937105 
L 212.151117 148.111107 
L 214.681081 148.111167 
L 219.741009 94.937042 
L 222.270972 148.11131 
L 224.800936 94.936852 
L 227.3309 121.523997 
L 232.390828 121.524098 
L 237.450756 174.69811 
L 239.98072 148.111196 
L 242.510683 174.698186 
L 245.040647 121.524048 
L 250.100575 121.52413 
L 252.630539 68.350024 
L 255.160503 148.111167 
L 257.690467 121.524238 
L 260.22043 148.11111 
L 265.280358 94.936998 
L 267.810322 15.176115 
L 270.340286 148.110952 
L 272.87025 121.524187 
L 275.400214 148.111269 
L 277.930177 148.111123 
L 280.460141 121.523921 
L 282.990105 148.111199 
L 285.520069 94.937163 
L 288.050033 148.111062 
L 290.579997 148.111218 
L 293.109961 121.52406 
L 295.639925 174.698362 
L 300.699852 121.52387 
L 303.229816 174.698323 
L 305.75978 148.11136 
L 310.819708 148.111075 
L 313.349672 121.52406 
L 315.879635 174.698134 
L 318.409599 68.349859 
L 320.939563 121.523997 
L 323.469527 121.524323 
L 325.999491 94.937213 
L 328.529455 148.111167 
L 331.059419 94.937029 
L 333.589383 148.110971 
L 336.119346 174.698405 
L 338.64931 121.524168 
L 341.179274 174.698174 
L 343.709238 121.524263 
L 346.239202 148.111297 
L 351.29913 148.110837 
L 353.829093 121.52401 
L 356.359057 148.111253 
L 358.889021 94.937086 
L 361.418985 174.69835 
L 363.948949 121.523769 
L 366.478913 174.698306 
L 369.008877 68.349885 
L 371.538841 174.698145 
L 376.598768 121.523895 
L 379.128732 174.698244 
L 381.658696 121.524187 
L 384.18866 148.111123 
L 386.718624 68.349961 
L 391.778551 174.69817 
L 394.308515 41.762949 
L 399.368443 174.698382 
L 404.428371 174.698321 
L 409.488299 121.523984 
L 412.018262 121.524219 
L 414.548226 68.350176 
L 417.07819 174.698118 
L 419.608154 121.524339 
L 422.138118 174.698163 
L 424.668082 148.110882 
L 427.198046 148.111307 
L 429.728009 94.937099 
L 432.257973 121.523946 
L 434.787937 174.698003 
L 439.847865 121.524276 
L 447.437757 121.524035 
L 449.96772 148.11111 
L 455.027648 148.111034 
L 457.557612 121.524105 
L 460.087576 121.524029 
L 462.61754 148.111132 
L 465.147504 148.111097 
L 467.677467 94.93715 
L 475.267359 94.93682 
L 477.797323 148.110784 
L 482.857251 94.936884 
L 485.387215 121.523952 
L 487.917178 174.698318 
L 490.447142 121.524206 
L 492.977106 174.698057 
L 495.50707 148.111211 
L 498.037034 148.111072 
L 500.566998 174.698307 
L 503.096962 41.762721 
L 505.626925 148.111262 
L 508.156889 174.698394 
L 510.686853 41.762923 
L 513.216817 148.11111 
L 515.746781 174.698312 
L 518.276745 148.111148 
L 530.926564 148.111158 
L 533.456528 68.34991 
L 535.986492 94.936991 
L 538.516456 68.350049 
L 546.106347 148.111085 
L 548.636311 94.937125 
L 551.166275 148.111123 
L 553.696239 121.523528 
L 556.226203 174.697791 
L 558.756167 148.110996 
L 561.286131 94.936871 
L 563.816094 68.349847 
L 566.346058 148.111281 
L 568.876022 174.698336 
L 571.405986 121.523946 
L 573.93595 121.523997 
L 573.93595 121.523997 
" clip-path="url(#p2717d9a4ab)" style="fill: none; stroke: #ef5350; stroke-opacity: 0.9; stroke-width: 1.5; stroke-linecap: round"/>
   </g>
  </g>
 </g>
 <defs>
  <clipPath id="p2717d9a4ab">
   <rect x="45.3" y="7.2" width="553.80909" height="175.47452"/>
  </clipPath>
 </defs>
</svg>
