<?xml version="1.0" encoding="utf-8" standalone="no"?>
<!DOCTYPE svg PUBLIC "-//W3C//DTD SVG 1.1//EN"
  "http://www.w3.org/Graphics/SVG/1.1/DTD/svg11.dtd">
<svg xmlns:xlink="http://www.w3.org/1999/xlink" width="331.270127pt" height="234.534474pt" viewBox="0 0 331.270127 234.534474" xmlns="http://www.w3.org/2000/svg" version="1.1">
 <metadata>
  <rdf:RDF xmlns:dc="http://purl.org/dc/elements/1.1/" xmlns:cc="http://creativecommons.org/ns#" xmlns:rdf="http://www.w3.org/1999/02/22-rdf-syntax-ns#">
   <cc:Work>
    <dc:type rdf:resource="http://purl.org/dc/dcmitype/StillImage"/>
    <dc:date>2023-12-05T11:48:56.579627</dc:date>
    <dc:format>image/svg+xml</dc:format>
    <dc:creator>
     <cc:Agent>
      <dc:title>Matplotlib v3.8.2, https://matplotlib.org/</dc:title>
     </cc:Agent>
    </dc:creator>
   </cc:Work>
  </rdf:RDF>
 </metadata>
 <defs>
  <style type="text/css">*{stroke-linejoin: round; stroke-linecap: butt}</style>
 </defs>
 <g id="figure_1">
  <g id="patch_1">
   <path d="M 0 234.534474 
L 331.270127 234.534474 
L 331.270127 0 
L 0 0 
L 0 234.534474 
z
" style="fill: none"/>
  </g>
  <g id="axes_1">
   <g id="patch_2">
    <path d="M 55.4625 192.009865 
L 321.83859 192.009865 
L 321.83859 28.442513 
L 55.4625 28.442513 
L 55.4625 192.009865 
z
" style="fill: none"/>
   </g>
   <g id="matplotlib.axis_1">
    <g id="xtick_1">
     <g id="text_1">
      <!-- 0 -->
      <g style="fill: #838383" transform="translate(63.196285 205.957716) scale(0.1375 -0.1375)">
       <defs>
        <path id="DejaVuSans-30" d="M 2034 4250 
Q 1547 4250 1301 3770 
Q 1056 3291 1056 2328 
Q 1056 1369 1301 889 
Q 1547 409 2034 409 
Q 2525 409 2770 889 
Q 3016 1369 3016 2328 
Q 3016 3291 2770 3770 
Q 2525 4250 2034 4250 
z
M 2034 4750 
Q 2819 4750 3233 4129 
Q 3647 3509 3647 2328 
Q 3647 1150 3233 529 
Q 2819 -91 2034 -91 
Q 1250 -91 836 529 
Q 422 1150 422 2328 
Q 422 3509 836 4129 
Q 1250 4750 2034 4750 
z
" transform="scale(0.015625)"/>
       </defs>
       <use xlink:href="#DejaVuSans-30"/>
      </g>
     </g>
    </g>
    <g id="xtick_2">
     <g id="text_2">
      <!-- 50 -->
      <g style="fill: #838383" transform="translate(119.666308 205.957716) scale(0.1375 -0.1375)">
       <defs>
        <path id="DejaVuSans-35" d="M 691 4666 
L 3169 4666 
L 3169 4134 
L 1269 4134 
L 1269 2991 
Q 1406 3038 1543 3061 
Q 1681 3084 1819 3084 
Q 2600 3084 3056 2656 
Q 3513 2228 3513 1497 
Q 3513 744 3044 326 
Q 2575 -91 1722 -91 
Q 1428 -91 1123 -41 
Q 819 9 494 109 
L 494 744 
Q 775 591 1075 516 
Q 1375 441 1709 441 
Q 2250 441 2565 725 
Q 2881 1009 2881 1497 
Q 2881 1984 2565 2268 
Q 2250 2553 1709 2553 
Q 1456 2553 1204 2497 
Q 953 2441 691 2322 
L 691 4666 
z
" transform="scale(0.015625)"/>
       </defs>
       <use xlink:href="#DejaVuSans-35"/>
       <use xlink:href="#DejaVuSans-30" x="63.623047"/>
      </g>
     </g>
    </g>
    <g id="xtick_3">
     <g id="text_3">
      <!-- 100 -->
      <g style="fill: #838383" transform="translate(176.136331 205.957716) scale(0.1375 -0.1375)">
       <defs>
        <path id="DejaVuSans-31" d="M 794 531 
L 1825 531 
L 1825 4091 
L 703 3866 
L 703 4441 
L 1819 4666 
L 2450 4666 
L 2450 531 
L 3481 531 
L 3481 0 
L 794 0 
L 794 531 
z
" transform="scale(0.015625)"/>
       </defs>
       <use xlink:href="#DejaVuSans-31"/>
       <use xlink:href="#DejaVuSans-30" x="63.623047"/>
       <use xlink:href="#DejaVuSans-30" x="127.246094"/>
      </g>
     </g>
    </g>
    <g id="xtick_4">
     <g id="text_4">
      <!-- 150 -->
      <g style="fill: #838383" transform="translate(236.980573 205.957716) scale(0.1375 -0.1375)">
       <use xlink:href="#DejaVuSans-31"/>
       <use xlink:href="#DejaVuSans-35" x="63.623047"/>
       <use xlink:href="#DejaVuSans-30" x="127.246094"/>
      </g>
     </g>
    </g>
    <g id="xtick_5">
     <g id="text_5">
      <!-- 200 -->
      <g style="fill: #838383" transform="translate(297.824814 205.957716) scale(0.1375 -0.1375)">
       <defs>
        <path id="DejaVuSans-32" d="M 1228 531 
L 3431 531 
L 3431 0 
L 469 0 
L 469 531 
Q 828 903 1448 1529 
Q 2069 2156 2228 2338 
Q 2531 2678 2651 2914 
Q 2772 3150 2772 3378 
Q 2772 3750 2511 3984 
Q 2250 4219 1831 4219 
Q 1534 4219 1204 4116 
Q 875 4013 500 3803 
L 500 4441 
Q 881 4594 1212 4672 
Q 1544 4750 1819 4750 
Q 2544 4750 2975 4387 
Q 3406 4025 3406 3419 
Q 3406 3131 3298 2873 
Q 3191 2616 2906 2266 
Q 2828 2175 2409 1742 
Q 1991 1309 1228 531 
z
" transform="scale(0.015625)"/>
       </defs>
       <use xlink:href="#DejaVuSans-32"/>
       <use xlink:href="#DejaVuSans-30" x="63.623047"/>
       <use xlink:href="#DejaVuSans-30" x="127.246094"/>
      </g>
     </g>
    </g>
    <g id="text_6">
     <!-- draw -->
     <g style="fill: #838383" transform="translate(170.076326 224.214943) scale(0.15 -0.15)">
      <defs>
       <path id="DejaVuSans-64" d="M 2906 2969 
L 2906 4863 
L 3481 4863 
L 3481 0 
L 2906 0 
L 2906 525 
Q 2725 213 2448 61 
Q 2172 -91 1784 -91 
Q 1150 -91 751 415 
Q 353 922 353 1747 
Q 353 2572 751 3078 
Q 1150 3584 1784 3584 
Q 2172 3584 2448 3432 
Q 2725 3281 2906 2969 
z
M 947 1747 
Q 947 1113 1208 752 
Q 1469 391 1925 391 
Q 2381 391 2643 752 
Q 2906 1113 2906 1747 
Q 2906 2381 2643 2742 
Q 2381 3103 1925 3103 
Q 1469 3103 1208 2742 
Q 947 2381 947 1747 
z
" transform="scale(0.015625)"/>
       <path id="DejaVuSans-72" d="M 2631 2963 
Q 2534 3019 2420 3045 
Q 2306 3072 2169 3072 
Q 1681 3072 1420 2755 
Q 1159 2438 1159 1844 
L 1159 0 
L 581 0 
L 581 3500 
L 1159 3500 
L 1159 2956 
Q 1341 3275 1631 3429 
Q 1922 3584 2338 3584 
Q 2397 3584 2469 3576 
Q 2541 3569 2628 3553 
L 2631 2963 
z
" transform="scale(0.015625)"/>
       <path id="DejaVuSans-61" d="M 2194 1759 
Q 1497 1759 1228 1600 
Q 959 1441 959 1056 
Q 959 750 1161 570 
Q 1363 391 1709 391 
Q 2188 391 2477 730 
Q 2766 1069 2766 1631 
L 2766 1759 
L 2194 1759 
z
M 3341 1997 
L 3341 0 
L 2766 0 
L 2766 531 
Q 2569 213 2275 61 
Q 1981 -91 1556 -91 
Q 1019 -91 701 211 
Q 384 513 384 1019 
Q 384 1609 779 1909 
Q 1175 2209 1959 2209 
L 2766 2209 
L 2766 2266 
Q 2766 2663 2505 2880 
Q 2244 3097 1772 3097 
Q 1472 3097 1187 3025 
Q 903 2953 641 2809 
L 641 3341 
Q 956 3463 1253 3523 
Q 1550 3584 1831 3584 
Q 2591 3584 2966 3190 
Q 3341 2797 3341 1997 
z
" transform="scale(0.015625)"/>
       <path id="DejaVuSans-77" d="M 269 3500 
L 844 3500 
L 1563 769 
L 2278 3500 
L 2956 3500 
L 3675 769 
L 4391 3500 
L 4966 3500 
L 4050 0 
L 3372 0 
L 2619 2869 
L 1863 0 
L 1184 0 
L 269 3500 
z
" transform="scale(0.015625)"/>
      </defs>
      <use xlink:href="#DejaVuSans-64"/>
      <use xlink:href="#DejaVuSans-72" x="63.476562"/>
      <use xlink:href="#DejaVuSans-61" x="104.589844"/>
      <use xlink:href="#DejaVuSans-77" x="165.869141"/>
     </g>
    </g>
   </g>
   <g id="matplotlib.axis_2">
    <g id="ytick_1">
     <g id="text_7">
      <!-- 390 -->
      <g style="fill: #838383" transform="translate(25.717188 190.99554) scale(0.1375 -0.1375)">
       <defs>
        <path id="DejaVuSans-33" d="M 2597 2516 
Q 3050 2419 3304 2112 
Q 3559 1806 3559 1356 
Q 3559 666 3084 287 
Q 2609 -91 1734 -91 
Q 1441 -91 1130 -33 
Q 819 25 488 141 
L 488 750 
Q 750 597 1062 519 
Q 1375 441 1716 441 
Q 2309 441 2620 675 
Q 2931 909 2931 1356 
Q 2931 1769 2642 2001 
Q 2353 2234 1838 2234 
L 1294 2234 
L 1294 2753 
L 1863 2753 
Q 2328 2753 2575 2939 
Q 2822 3125 2822 3475 
Q 2822 3834 2567 4026 
Q 2313 4219 1838 4219 
Q 1578 4219 1281 4162 
Q 984 4106 628 3988 
L 628 4550 
Q 988 4650 1302 4700 
Q 1616 4750 1894 4750 
Q 2613 4750 3031 4423 
Q 3450 4097 3450 3541 
Q 3450 3153 3228 2886 
Q 3006 2619 2597 2516 
z
" transform="scale(0.015625)"/>
        <path id="DejaVuSans-39" d="M 703 97 
L 703 672 
Q 941 559 1184 500 
Q 1428 441 1663 441 
Q 2288 441 2617 861 
Q 2947 1281 2994 2138 
Q 2813 1869 2534 1725 
Q 2256 1581 1919 1581 
Q 1219 1581 811 2004 
Q 403 2428 403 3163 
Q 403 3881 828 4315 
Q 1253 4750 1959 4750 
Q 2769 4750 3195 4129 
Q 3622 3509 3622 2328 
Q 3622 1225 3098 567 
Q 2575 -91 1691 -91 
Q 1453 -91 1209 -44 
Q 966 3 703 97 
z
M 1959 2075 
Q 2384 2075 2632 2365 
Q 2881 2656 2881 3163 
Q 2881 3666 2632 3958 
Q 2384 4250 1959 4250 
Q 1534 4250 1286 3958 
Q 1038 3666 1038 3163 
Q 1038 2656 1286 2365 
Q 1534 2075 1959 2075 
z
" transform="scale(0.015625)"/>
       </defs>
       <use xlink:href="#DejaVuSans-33"/>
       <use xlink:href="#DejaVuSans-39" x="63.623047"/>
       <use xlink:href="#DejaVuSans-30" x="127.246094"/>
      </g>
     </g>
    </g>
    <g id="ytick_2">
     <g id="text_8">
      <!-- 395 -->
      <g style="fill: #838383" transform="translate(25.717188 156.821632) scale(0.1375 -0.1375)">
       <use xlink:href="#DejaVuSans-33"/>
       <use xlink:href="#DejaVuSans-39" x="63.623047"/>
       <use xlink:href="#DejaVuSans-35" x="127.246094"/>
      </g>
     </g>
    </g>
    <g id="ytick_3">
     <g id="text_9">
      <!-- 400 -->
      <g style="fill: #838383" transform="translate(25.717188 122.647723) scale(0.1375 -0.1375)">
       <defs>
        <path id="DejaVuSans-34" d="M 2419 4116 
L 825 1625 
L 2419 1625 
L 2419 4116 
z
M 2253 4666 
L 3047 4666 
L 3047 1625 
L 3713 1625 
L 3713 1100 
L 3047 1100 
L 3047 0 
L 2419 0 
L 2419 1100 
L 313 1100 
L 313 1709 
L 2253 4666 
z
" transform="scale(0.015625)"/>
       </defs>
       <use xlink:href="#DejaVuSans-34"/>
       <use xlink:href="#DejaVuSans-30" x="63.623047"/>
       <use xlink:href="#DejaVuSans-30" x="127.246094"/>
      </g>
     </g>
    </g>
    <g id="ytick_4">
     <g id="text_10">
      <!-- 405 -->
      <g style="fill: #838383" transform="translate(25.717188 88.473815) scale(0.1375 -0.1375)">
       <use xlink:href="#DejaVuSans-34"/>
       <use xlink:href="#DejaVuSans-30" x="63.623047"/>
       <use xlink:href="#DejaVuSans-35" x="127.246094"/>
      </g>
     </g>
    </g>
    <g id="ytick_5">
     <g id="text_11">
      <!-- 410 -->
      <g style="fill: #838383" transform="translate(25.717188 54.299906) scale(0.1375 -0.1375)">
       <use xlink:href="#DejaVuSans-34"/>
       <use xlink:href="#DejaVuSans-31" x="63.623047"/>
       <use xlink:href="#DejaVuSans-30" x="127.246094"/>
      </g>
     </g>
    </g>
    <g id="text_12">
     <!-- energy -->
     <g style="fill: #838383" transform="translate(18.597656 136.361345) rotate(-90) scale(0.15 -0.15)">
      <defs>
       <path id="DejaVuSans-65" d="M 3597 1894 
L 3597 1613 
L 953 1613 
Q 991 1019 1311 708 
Q 1631 397 2203 397 
Q 2534 397 2845 478 
Q 3156 559 3463 722 
L 3463 178 
Q 3153 47 2828 -22 
Q 2503 -91 2169 -91 
Q 1331 -91 842 396 
Q 353 884 353 1716 
Q 353 2575 817 3079 
Q 1281 3584 2069 3584 
Q 2775 3584 3186 3129 
Q 3597 2675 3597 1894 
z
M 3022 2063 
Q 3016 2534 2758 2815 
Q 2500 3097 2075 3097 
Q 1594 3097 1305 2825 
Q 1016 2553 972 2059 
L 3022 2063 
z
" transform="scale(0.015625)"/>
       <path id="DejaVuSans-6e" d="M 3513 2113 
L 3513 0 
L 2938 0 
L 2938 2094 
Q 2938 2591 2744 2837 
Q 2550 3084 2163 3084 
Q 1697 3084 1428 2787 
Q 1159 2491 1159 1978 
L 1159 0 
L 581 0 
L 581 3500 
L 1159 3500 
L 1159 2956 
Q 1366 3272 1645 3428 
Q 1925 3584 2291 3584 
Q 2894 3584 3203 3211 
Q 3513 2838 3513 2113 
z
" transform="scale(0.015625)"/>
       <path id="DejaVuSans-67" d="M 2906 1791 
Q 2906 2416 2648 2759 
Q 2391 3103 1925 3103 
Q 1463 3103 1205 2759 
Q 947 2416 947 1791 
Q 947 1169 1205 825 
Q 1463 481 1925 481 
Q 2391 481 2648 825 
Q 2906 1169 2906 1791 
z
M 3481 434 
Q 3481 -459 3084 -895 
Q 2688 -1331 1869 -1331 
Q 1566 -1331 1297 -1286 
Q 1028 -1241 775 -1147 
L 775 -588 
Q 1028 -725 1275 -790 
Q 1522 -856 1778 -856 
Q 2344 -856 2625 -561 
Q 2906 -266 2906 331 
L 2906 616 
Q 2728 306 2450 153 
Q 2172 0 1784 0 
Q 1141 0 747 490 
Q 353 981 353 1791 
Q 353 2603 747 3093 
Q 1141 3584 1784 3584 
Q 2172 3584 2450 3431 
Q 2728 3278 2906 2969 
L 2906 3500 
L 3481 3500 
L 3481 434 
z
" transform="scale(0.015625)"/>
       <path id="DejaVuSans-79" d="M 2059 -325 
Q 1816 -950 1584 -1140 
Q 1353 -1331 966 -1331 
L 506 -1331 
L 506 -850 
L 844 -850 
Q 1081 -850 1212 -737 
Q 1344 -625 1503 -206 
L 1606 56 
L 191 3500 
L 800 3500 
L 1894 763 
L 2988 3500 
L 3597 3500 
L 2059 -325 
z
" transform="scale(0.015625)"/>
      </defs>
      <use xlink:href="#DejaVuSans-65"/>
      <use xlink:href="#DejaVuSans-6e" x="61.523438"/>
      <use xlink:href="#DejaVuSans-65" x="124.902344"/>
      <use xlink:href="#DejaVuSans-72" x="186.425781"/>
      <use xlink:href="#DejaVuSans-67" x="225.789062"/>
      <use xlink:href="#DejaVuSans-79" x="289.265625"/>
     </g>
    </g>
   </g>
   <g id="line2d_1">
    <path d="M 67.570504 94.303429 
L 70.004274 153.487867 
L 71.221159 152.353603 
L 72.438043 143.720228 
L 73.654928 123.487038 
L 74.871813 145.676926 
L 76.088698 138.386603 
L 77.305583 183.062564 
L 78.522468 135.744091 
L 79.739352 140.777776 
L 80.956237 137.520575 
L 82.173122 142.535696 
L 84.606892 134.735185 
L 85.823777 152.568859 
L 87.040661 138.861542 
L 88.257546 163.678716 
L 89.474431 137.250254 
L 90.691316 140.70519 
L 91.908201 140.854534 
L 93.125086 153.951542 
L 95.558855 143.493083 
L 96.77574 152.316893 
L 97.992625 138.268547 
L 100.426395 151.025777 
L 101.643279 149.733617 
L 104.077049 174.444832 
L 105.293934 138.487557 
L 106.510819 135.754937 
L 108.944588 166.044442 
L 110.161473 137.340987 
L 112.595243 152.245767 
L 113.812128 149.846251 
L 115.029013 139.313746 
L 116.245897 172.017367 
L 117.462782 135.350916 
L 118.679667 135.957469 
L 119.896552 131.172413 
L 122.330322 147.149091 
L 123.547206 154.496773 
L 124.764091 127.707674 
L 125.980976 126.690216 
L 127.197861 153.079465 
L 128.414746 123.746721 
L 130.848515 148.610826 
L 132.0654 125.06683 
L 133.282285 122.55927 
L 134.49917 166.886692 
L 135.716055 129.478318 
L 136.932939 128.368876 
L 140.583594 156.540449 
L 141.800479 142.182152 
L 143.017364 159.146252 
L 144.234248 127.498676 
L 145.451133 154.033097 
L 146.668018 135.832738 
L 147.884903 141.555574 
L 149.101788 127.86557 
L 150.318673 151.289006 
L 151.535557 129.258057 
L 152.752442 137.6962 
L 153.969327 168.537402 
L 156.403097 131.83424 
L 158.836866 173.615514 
L 160.053751 138.487348 
L 161.270636 179.395294 
L 162.487521 133.361262 
L 163.704406 170.143475 
L 164.921291 137.299896 
L 166.138175 162.963284 
L 167.35506 129.382162 
L 168.571945 151.670501 
L 169.78883 124.904137 
L 171.005715 137.356839 
L 172.2226 162.531938 
L 174.656369 128.618756 
L 175.873254 143.099282 
L 177.090139 141.510729 
L 178.307024 143.766741 
L 179.523909 164.520549 
L 183.174563 136.521889 
L 184.391448 160.887903 
L 185.608333 136.732556 
L 188.042102 148.866129 
L 190.475872 116.779282 
L 191.692757 152.677738 
L 192.909642 154.345969 
L 194.126527 125.646685 
L 195.343411 146.716494 
L 196.560296 115.116474 
L 198.994066 152.820825 
L 200.210951 159.882125 
L 201.427836 132.714452 
L 206.295375 184.574985 
L 207.51226 154.836134 
L 208.729145 157.323671 
L 211.162914 139.13228 
L 212.379799 133.219844 
L 214.813569 164.382469 
L 216.030454 158.961657 
L 217.247338 140.18186 
L 218.464223 165.312531 
L 219.681108 145.120015 
L 220.897993 155.886131 
L 222.114878 141.40477 
L 223.331763 148.102723 
L 224.548647 117.32785 
L 226.982417 158.537612 
L 228.199302 158.171344 
L 229.416187 149.415531 
L 230.633072 148.874472 
L 231.849956 152.335248 
L 233.066841 159.628491 
L 234.283726 132.03573 
L 236.717496 150.962368 
L 239.151265 138.064971 
L 240.36815 140.248814 
L 242.80192 147.017893 
L 244.018805 136.988276 
L 246.452574 165.720724 
L 250.103229 137.375403 
L 251.320114 158.509662 
L 252.536998 136.888575 
L 253.753883 146.714825 
L 254.970768 135.187388 
L 257.404538 159.286835 
L 259.838307 123.995141 
L 261.055192 145.271236 
L 262.272077 144.059589 
L 263.488962 138.968961 
L 264.705847 150.38585 
L 265.922732 133.396929 
L 267.139616 134.061885 
L 268.356501 130.057547 
L 270.790271 139.046554 
L 272.007156 153.472849 
L 273.224041 139.112674 
L 274.440925 144.662388 
L 275.65781 133.616356 
L 276.874695 145.25601 
L 278.09158 139.500426 
L 280.52535 151.860935 
L 281.742234 142.998955 
L 284.176004 161.921213 
L 285.392889 114.847614 
L 286.609774 136.09847 
L 287.826659 139.488745 
L 289.043543 155.139828 
L 290.260428 150.963202 
L 291.477313 135.035958 
L 292.694198 153.213374 
L 293.911083 135.494837 
L 295.127968 140.979474 
L 297.561737 160.738559 
L 298.778622 132.96016 
L 299.995507 150.895205 
L 301.212392 144.058337 
L 302.429277 163.847667 
L 303.646161 119.821436 
L 304.863046 149.028822 
L 306.079931 152.941384 
L 307.296816 137.677428 
L 309.730586 168.823575 
L 309.730586 168.823575 
" clip-path="url(#p18625370a4)" style="fill: none; stroke: #440154; stroke-width: 1.5; stroke-linecap: round"/>
   </g>
   <g id="line2d_2">
    <path d="M 67.570504 78.075829 
L 70.004274 135.432471 
L 71.221159 133.672256 
L 72.438043 124.296541 
L 73.654928 104.112576 
L 74.871813 127.628413 
L 76.088698 117.937324 
L 77.305583 165.294385 
L 78.522468 117.177255 
L 79.739352 121.741424 
L 80.956237 118.359909 
L 82.173122 124.807773 
L 84.606892 115.661705 
L 85.823777 135.621654 
L 87.040661 121.806501 
L 88.257546 145.277702 
L 89.474431 118.538663 
L 90.691316 123.129322 
L 91.908201 123.406943 
L 93.125086 136.158333 
L 94.34197 133.210458 
L 95.558855 126.068436 
L 96.77574 134.529107 
L 97.992625 120.199593 
L 100.426395 132.2635 
L 101.643279 131.186805 
L 104.077049 155.252253 
L 105.293934 118.535951 
L 106.510819 116.443675 
L 108.944588 144.729968 
L 110.161473 118.285862 
L 112.595243 132.418893 
L 113.812128 131.092735 
L 115.029013 118.555975 
L 116.245897 153.712091 
L 117.462782 116.913191 
L 118.679667 116.572787 
L 119.896552 113.685609 
L 122.330322 127.966732 
L 123.547206 135.56492 
L 124.764091 107.694746 
L 125.980976 108.937889 
L 127.197861 133.06612 
L 128.414746 105.304408 
L 130.848515 128.900132 
L 132.0654 106.146866 
L 133.282285 103.465975 
L 134.49917 147.592951 
L 135.716055 110.182074 
L 136.932939 111.048311 
L 139.366709 121.532008 
L 140.583594 138.493814 
L 141.800479 123.047975 
L 143.017364 139.717767 
L 144.234248 109.017149 
L 145.451133 134.916233 
L 146.668018 117.724988 
L 147.884903 122.483555 
L 149.101788 109.8181 
L 150.318673 132.919279 
L 151.535557 109.823941 
L 152.752442 118.275851 
L 153.969327 151.474226 
L 156.403097 113.297023 
L 158.836866 154.638817 
L 160.053751 119.916757 
L 161.270636 159.814545 
L 162.487521 114.62172 
L 163.704406 151.209328 
L 164.921291 118.126715 
L 166.138175 145.612266 
L 167.35506 109.390301 
L 168.571945 133.197526 
L 169.78883 107.907916 
L 171.005715 120.056089 
L 172.2226 144.259827 
L 174.656369 109.149807 
L 175.873254 125.576811 
L 177.090139 123.456585 
L 178.307024 126.826211 
L 179.523909 145.63667 
L 183.174563 118.29942 
L 184.391448 141.526164 
L 185.608333 118.365332 
L 188.042102 130.284901 
L 190.475872 98.202017 
L 191.692757 134.38018 
L 192.909642 136.452223 
L 194.126527 107.092364 
L 195.343411 127.014142 
L 196.560296 96.414269 
L 198.994066 135.136912 
L 200.210951 140.886864 
L 201.427836 115.544274 
L 205.07849 144.754164 
L 206.295375 167.269855 
L 207.51226 135.979162 
L 208.729145 139.046554 
L 211.162914 120.500158 
L 212.379799 114.872852 
L 213.596684 126.085331 
L 214.813569 146.795129 
L 216.030454 140.206472 
L 217.247338 122.792463 
L 218.464223 146.281185 
L 219.681108 127.165781 
L 220.897993 137.09069 
L 222.114878 123.984295 
L 223.331763 129.930313 
L 224.548647 98.17365 
L 226.982417 139.700038 
L 228.199302 138.325281 
L 229.416187 131.219552 
L 231.849956 133.128694 
L 233.066841 141.450867 
L 234.283726 112.777447 
L 236.717496 131.561416 
L 239.151265 120.2338 
L 240.36815 122.194879 
L 242.80192 128.256868 
L 244.018805 119.862109 
L 246.452574 147.952127 
L 250.103229 120.12805 
L 251.320114 141.168657 
L 252.536998 118.15988 
L 253.753883 128.657343 
L 254.970768 116.186703 
L 257.404538 140.552925 
L 259.838307 106.437837 
L 261.055192 128.303381 
L 263.488962 121.420209 
L 264.705847 131.715558 
L 265.922732 115.365937 
L 267.139616 114.796094 
L 268.356501 112.14211 
L 269.573386 114.816118 
L 270.790271 120.10886 
L 272.007156 136.069477 
L 273.224041 122.013413 
L 274.440925 125.113552 
L 275.65781 114.789419 
L 276.874695 125.298772 
L 278.09158 121.291723 
L 280.52535 132.767432 
L 281.742234 124.958577 
L 284.176004 144.219362 
L 285.392889 95.410786 
L 286.609774 118.943518 
L 287.826659 121.646728 
L 289.043543 137.636755 
L 290.260428 131.137997 
L 291.477313 117.480531 
L 292.694198 135.678805 
L 293.911083 116.984526 
L 295.127968 122.515259 
L 297.561737 142.215733 
L 298.778622 113.805752 
L 299.995507 131.127151 
L 301.212392 124.641116 
L 302.429277 145.344865 
L 303.646161 100.637617 
L 306.079931 136.903801 
L 307.296816 117.95109 
L 309.730586 150.946307 
L 309.730586 150.946307 
" clip-path="url(#p18625370a4)" style="fill: none; stroke: #482878; stroke-width: 1.5; stroke-linecap: round"/>
   </g>
   <g id="line2d_3">
    <path d="M 67.570504 56.647053 
L 70.004274 116.447638 
L 71.221159 115.307326 
L 72.438043 105.801456 
L 73.654928 85.877175 
L 74.871813 109.419293 
L 76.088698 99.386965 
L 77.305583 145.633124 
L 78.522468 97.769211 
L 79.739352 102.422653 
L 80.956237 100.69748 
L 82.173122 106.07574 
L 84.606892 97.217306 
L 85.823777 117.126361 
L 87.040661 101.672596 
L 88.257546 126.484764 
L 89.474431 99.131662 
L 90.691316 104.355156 
L 91.908201 104.13844 
L 93.125086 118.077073 
L 95.558855 106.592187 
L 96.77574 116.133098 
L 97.992625 101.196405 
L 100.426395 114.334296 
L 101.643279 112.158796 
L 104.077049 136.885237 
L 105.293934 102.143363 
L 106.510819 97.322013 
L 108.944588 127.978412 
L 110.161473 101.240624 
L 112.595243 114.990283 
L 113.812128 112.139189 
L 115.029013 101.078557 
L 116.245897 135.756814 
L 117.462782 98.809196 
L 118.679667 99.03196 
L 119.896552 93.268451 
L 122.330322 109.857939 
L 123.547206 116.503121 
L 124.764091 90.011459 
L 125.980976 90.071947 
L 127.197861 114.532865 
L 128.414746 87.89165 
L 130.848515 109.878172 
L 132.0654 87.226694 
L 133.282285 84.909776 
L 134.49917 130.414221 
L 135.716055 91.542234 
L 136.932939 91.765833 
L 140.583594 119.282671 
L 141.800479 104.565614 
L 143.017364 121.723486 
L 144.234248 90.04796 
L 145.451133 116.969091 
L 146.668018 99.569891 
L 147.884903 103.898155 
L 149.101788 91.694916 
L 150.318673 114.305929 
L 151.535557 90.362918 
L 152.752442 99.65228 
L 153.969327 132.94556 
L 156.403097 94.930007 
L 158.836866 135.458126 
L 160.053751 101.099832 
L 161.270636 141.390587 
L 162.487521 96.157297 
L 163.704406 133.185011 
L 164.921291 100.530823 
L 166.138175 126.945728 
L 167.35506 92.07787 
L 168.571945 114.552889 
L 169.78883 88.639621 
L 171.005715 100.489733 
L 172.2226 125.366144 
L 174.656369 91.086902 
L 175.873254 106.753003 
L 177.090139 105.165076 
L 178.307024 106.778867 
L 179.523909 127.340989 
L 183.174563 99.817268 
L 184.391448 123.945499 
L 185.608333 98.244776 
L 188.042102 111.675931 
L 190.475872 78.836107 
L 191.692757 116.033188 
L 192.909642 118.959162 
L 194.126527 88.701153 
L 195.343411 109.049688 
L 196.560296 78.081252 
L 198.994066 116.151036 
L 200.210951 122.297501 
L 201.427836 96.551098 
L 205.07849 125.862567 
L 206.295375 149.122267 
L 207.51226 118.35824 
L 208.729145 119.991638 
L 211.162914 102.082666 
L 212.379799 96.583011 
L 214.813569 127.245876 
L 216.030454 121.666334 
L 217.247338 104.083375 
L 218.464223 127.981124 
L 219.681108 106.808277 
L 220.897993 118.565361 
L 222.114878 104.723718 
L 223.331763 111.870329 
L 224.548647 79.201749 
L 226.982417 121.275245 
L 228.199302 121.080013 
L 229.416187 113.8118 
L 230.633072 113.263441 
L 231.849956 115.542188 
L 233.066841 121.940827 
L 234.283726 93.980963 
L 236.717496 113.18856 
L 239.151265 101.08836 
L 240.36815 102.718421 
L 242.80192 109.593459 
L 244.018805 100.832849 
L 246.452574 128.335294 
L 250.103229 100.585889 
L 251.320114 122.945145 
L 252.536998 99.49209 
L 253.753883 109.735919 
L 254.970768 98.935179 
L 257.404538 122.206768 
L 259.838307 87.253392 
L 261.055192 107.619657 
L 262.272077 107.092364 
L 263.488962 100.308893 
L 264.705847 113.289931 
L 265.922732 95.39556 
L 267.139616 95.309416 
L 268.356501 92.535288 
L 269.573386 95.711351 
L 270.790271 101.754777 
L 272.007156 117.629667 
L 273.224041 103.088652 
L 274.440925 107.012686 
L 275.65781 95.101877 
L 276.874695 107.76316 
L 278.09158 101.402066 
L 280.52535 113.288888 
L 281.742234 105.52008 
L 284.176004 125.406192 
L 285.392889 76.680839 
L 287.826659 104.538916 
L 289.043543 119.053232 
L 290.260428 112.529236 
L 291.477313 97.639474 
L 292.694198 116.459736 
L 293.911083 98.231844 
L 295.127968 104.22229 
L 297.561737 123.132867 
L 298.778622 95.801875 
L 299.995507 112.900927 
L 301.212392 105.864656 
L 302.429277 126.288072 
L 303.646161 81.392267 
L 304.863046 112.298962 
L 306.079931 116.827673 
L 307.296816 98.746622 
L 309.730586 132.350895 
L 309.730586 132.350895 
" clip-path="url(#p18625370a4)" style="fill: none; stroke: #3e4989; stroke-width: 1.5; stroke-linecap: round"/>
   </g>
   <g id="line2d_4">
    <path d="M 67.570504 44.604421 
L 70.004274 105.165076 
L 71.221159 102.753879 
L 72.438043 94.501581 
L 73.654928 73.67185 
L 74.871813 95.206585 
L 76.088698 87.955476 
L 77.305583 134.695971 
L 78.522468 85.316926 
L 79.739352 91.192861 
L 80.956237 87.984051 
L 82.173122 92.941813 
L 84.606892 85.816269 
L 85.823777 103.790318 
L 87.040661 89.565512 
L 88.257546 113.585073 
L 89.474431 86.949698 
L 90.691316 91.149894 
L 91.908201 90.326624 
L 93.125086 104.291956 
L 94.34197 102.325454 
L 95.558855 93.173755 
L 96.77574 103.290558 
L 97.992625 88.928506 
L 100.426395 101.439194 
L 101.643279 100.766103 
L 104.077049 125.608724 
L 105.293934 89.406782 
L 106.510819 85.930572 
L 108.944588 117.825107 
L 110.161473 87.786108 
L 112.595243 103.062162 
L 113.812128 100.929213 
L 115.029013 89.997066 
L 116.245897 123.880839 
L 117.462782 84.692435 
L 118.679667 85.733254 
L 119.896552 80.75526 
L 122.330322 97.312627 
L 123.547206 104.923539 
L 124.764091 76.842698 
L 125.980976 76.84395 
L 127.197861 104.182033 
L 128.414746 73.365236 
L 130.848515 99.172961 
L 132.0654 74.227927 
L 133.282285 73.115565 
L 134.49917 118.06581 
L 135.716055 79.698589 
L 136.932939 78.224756 
L 140.583594 106.233845 
L 141.800479 91.917263 
L 143.017364 110.461573 
L 144.234248 77.16725 
L 145.451133 105.173419 
L 146.668018 86.590939 
L 147.884903 90.611129 
L 149.101788 77.45238 
L 150.318673 101.130285 
L 151.535557 79.014026 
L 152.752442 87.825321 
L 153.969327 119.250132 
L 156.403097 81.602725 
L 158.836866 124.914358 
L 160.053751 87.956102 
L 161.270636 129.483115 
L 162.487521 84.063563 
L 163.704406 121.395596 
L 164.921291 85.870709 
L 166.138175 114.089839 
L 167.35506 80.380857 
L 168.571945 100.979272 
L 169.78883 74.383528 
L 171.005715 86.898805 
L 172.2226 113.519161 
L 174.656369 78.197014 
L 175.873254 93.606143 
L 177.090139 92.080373 
L 178.307024 93.915052 
L 179.523909 115.360931 
L 183.174563 86.721928 
L 184.391448 111.204747 
L 185.608333 86.695647 
L 188.042102 99.352341 
L 190.475872 66.072828 
L 191.692757 102.722384 
L 192.909642 104.3295 
L 194.126527 75.375748 
L 195.343411 97.276751 
L 196.560296 64.766693 
L 198.994066 103.620742 
L 200.210951 111.426885 
L 201.427836 83.094287 
L 206.295375 134.552051 
L 207.51226 105.080809 
L 208.729145 108.284821 
L 211.162914 89.054906 
L 212.379799 83.148101 
L 214.813569 114.410636 
L 216.030454 108.993371 
L 217.247338 90.755676 
L 218.464223 116.093885 
L 219.681108 95.510696 
L 220.897993 105.520498 
L 222.114878 90.640747 
L 223.331763 98.128805 
L 224.548647 68.233309 
L 226.982417 108.650047 
L 228.199302 108.509255 
L 229.416187 99.0159 
L 230.633072 98.939768 
L 233.066841 110.840147 
L 234.283726 81.781687 
L 236.717496 101.706177 
L 239.151265 88.052257 
L 242.80192 97.741678 
L 244.018805 87.294066 
L 246.452574 116.118289 
L 250.103229 86.766147 
L 251.320114 108.424154 
L 252.536998 88.322578 
L 253.753883 98.562653 
L 254.970768 85.73242 
L 257.404538 109.379037 
L 259.838307 73.926319 
L 261.055192 96.706282 
L 262.272077 94.622558 
L 263.488962 88.846534 
L 264.705847 101.129034 
L 265.922732 84.292377 
L 267.139616 84.175571 
L 268.356501 78.872817 
L 270.790271 90.729186 
L 272.007156 103.991182 
L 273.224041 88.735569 
L 274.440925 94.957539 
L 275.65781 83.781353 
L 276.874695 96.187333 
L 278.09158 91.083565 
L 279.308465 93.94613 
L 280.52535 102.864845 
L 281.742234 93.385047 
L 284.176004 111.521373 
L 285.392889 64.615889 
L 286.609774 87.581699 
L 287.826659 90.649299 
L 289.043543 105.59663 
L 290.260428 100.98261 
L 291.477313 85.429143 
L 292.694198 104.256914 
L 293.911083 85.21639 
L 295.127968 92.186541 
L 297.561737 110.883949 
L 298.778622 84.437966 
L 299.995507 101.211632 
L 301.212392 93.724409 
L 302.429277 114.227085 
L 303.646161 69.174635 
L 304.863046 100.224209 
L 306.079931 103.940705 
L 307.296816 88.427703 
L 308.513701 99.374659 
L 309.730586 119.568636 
L 309.730586 119.568636 
" clip-path="url(#p18625370a4)" style="fill: none; stroke: #31688e; stroke-width: 1.5; stroke-linecap: round"/>
   </g>
   <g id="line2d_5">
    <path d="M 67.570504 35.877393 
L 70.004274 95.919515 
L 71.221159 95.56743 
L 72.438043 86.403216 
L 73.654928 67.786112 
L 74.871813 88.209945 
L 76.088698 81.766044 
L 77.305583 128.273346 
L 78.522468 79.787027 
L 79.739352 85.205127 
L 80.956237 81.24334 
L 82.173122 85.708224 
L 83.390007 84.323247 
L 84.606892 77.266118 
L 85.823777 95.375119 
L 87.040661 83.088864 
L 88.257546 109.004009 
L 89.474431 82.338807 
L 90.691316 84.710373 
L 91.908201 84.583973 
L 93.125086 97.927524 
L 94.34197 93.870207 
L 95.558855 85.852979 
L 96.77574 95.751399 
L 97.992625 82.982279 
L 101.643279 94.153043 
L 104.077049 118.071441 
L 105.293934 82.333593 
L 106.510819 79.318137 
L 108.944588 111.306326 
L 110.161473 80.125763 
L 112.595243 95.600177 
L 113.812128 93.459511 
L 115.029013 83.200247 
L 116.245897 116.669986 
L 117.462782 79.711938 
L 118.679667 78.618139 
L 119.896552 73.472655 
L 122.330322 91.352426 
L 123.547206 97.662835 
L 124.764091 70.957586 
L 125.980976 68.9696 
L 127.197861 96.704822 
L 128.414746 66.085342 
L 130.848515 92.693601 
L 132.0654 68.262928 
L 133.282285 65.510702 
L 134.49917 110.973013 
L 135.716055 72.145872 
L 136.932939 71.135505 
L 138.149824 82.31336 
L 139.366709 82.000697 
L 140.583594 100.762348 
L 141.800479 87.126992 
L 143.017364 104.506794 
L 144.234248 70.035032 
L 145.451133 98.724929 
L 146.668018 78.875946 
L 147.884903 85.564721 
L 149.101788 72.635203 
L 150.318673 95.237455 
L 151.535557 71.779395 
L 152.752442 81.477785 
L 153.969327 112.3169 
L 156.403097 75.183228 
L 158.836866 118.191792 
L 160.053751 81.019324 
L 161.270636 124.079616 
L 162.487521 76.81454 
L 163.704406 112.211358 
L 164.921291 79.488756 
L 166.138175 106.045287 
L 167.35506 71.718281 
L 168.571945 96.480598 
L 169.78883 67.951308 
L 171.005715 80.865808 
L 172.2226 106.528361 
L 174.656369 70.49391 
L 175.873254 85.718653 
L 177.090139 85.439572 
L 178.307024 86.948238 
L 179.523909 108.599153 
L 183.174563 78.937686 
L 184.391448 105.266863 
L 185.608333 79.816229 
L 188.042102 92.445807 
L 190.475872 59.592008 
L 191.692757 96.4612 
L 192.909642 97.204374 
L 194.126527 69.21364 
L 195.343411 91.028499 
L 196.560296 57.864749 
L 197.777181 90.814704 
L 198.994066 95.176967 
L 200.210951 103.376702 
L 201.427836 76.03841 
L 206.295375 129.433265 
L 207.51226 98.409972 
L 208.729145 99.633925 
L 211.162914 83.080104 
L 212.379799 77.173716 
L 214.813569 107.591707 
L 216.030454 102.96246 
L 217.247338 82.957875 
L 218.464223 109.854811 
L 219.681108 88.108991 
L 220.897993 100.026892 
L 222.114878 85.681526 
L 223.331763 91.312378 
L 224.548647 59.731131 
L 226.982417 101.997565 
L 228.199302 101.733501 
L 229.416187 92.40576 
L 230.633072 92.747833 
L 231.849956 94.3489 
L 233.066841 103.310791 
L 234.283726 75.211178 
L 236.717496 94.698482 
L 239.151265 81.59167 
L 240.36815 83.758826 
L 241.585035 89.960356 
L 242.80192 89.902788 
L 244.018805 80.367925 
L 246.452574 111.619406 
L 250.103229 80.788633 
L 251.320114 101.368485 
L 252.536998 80.939229 
L 253.753883 89.373409 
L 254.970768 78.648384 
L 257.404538 103.830157 
L 259.838307 66.948451 
L 261.055192 88.465248 
L 263.488962 82.049714 
L 264.705847 94.297798 
L 265.922732 77.261112 
L 267.139616 78.292336 
L 268.356501 72.436216 
L 270.790271 81.635472 
L 272.007156 96.266177 
L 273.224041 82.722596 
L 274.440925 88.949781 
L 275.65781 77.390223 
L 276.874695 88.148622 
L 278.09158 82.490237 
L 280.52535 95.028874 
L 281.742234 87.084859 
L 284.176004 104.86013 
L 285.392889 59.055955 
L 287.826659 82.257878 
L 289.043543 97.451334 
L 290.260428 95.06475 
L 291.477313 78.208486 
L 292.694198 95.763914 
L 293.911083 79.410539 
L 295.127968 83.298697 
L 297.561737 105.23349 
L 298.778622 76.797227 
L 299.995507 95.368235 
L 301.212392 87.852437 
L 302.429277 107.329312 
L 303.646161 62.635413 
L 304.863046 92.036989 
L 306.079931 95.503604 
L 307.296816 81.168251 
L 309.730586 112.65647 
L 309.730586 112.65647 
" clip-path="url(#p18625370a4)" style="fill: none; stroke: #26828e; stroke-width: 1.5; stroke-linecap: round"/>
   </g>
   <g id="line2d_6">
    <path d="M 67.570504 44.142623 
L 70.004274 103.891063 
L 71.221159 103.727953 
L 72.438043 93.636179 
L 73.654928 73.613864 
L 74.871813 95.703216 
L 76.088698 88.557858 
L 77.305583 134.438582 
L 78.522468 86.002323 
L 79.739352 92.46458 
L 80.956237 87.589208 
L 82.173122 92.938476 
L 84.606892 85.17384 
L 85.823777 103.129742 
L 87.040661 88.221834 
L 88.257546 113.30036 
L 89.474431 88.239146 
L 90.691316 90.881033 
L 91.908201 90.982403 
L 93.125086 103.160195 
L 95.558855 94.238144 
L 96.77574 103.540021 
L 97.992625 89.184226 
L 100.426395 101.79107 
L 101.643279 100.273643 
L 102.860164 122.554681 
L 104.077049 125.917424 
L 105.293934 89.139381 
L 106.510819 85.399942 
L 108.944588 117.506187 
L 110.161473 88.376184 
L 112.595243 103.164575 
L 113.812128 100.83994 
L 115.029013 90.521439 
L 116.245897 123.215257 
L 117.462782 85.243297 
L 118.679667 85.965196 
L 119.896552 82.52799 
L 122.330322 97.676184 
L 123.547206 104.369548 
L 124.764091 77.538524 
L 125.980976 76.647466 
L 127.197861 103.775092 
L 128.414746 73.252602 
L 130.848515 99.718609 
L 132.0654 75.71949 
L 133.282285 72.305645 
L 134.49917 117.935655 
L 135.716055 80.377729 
L 136.932939 78.083546 
L 140.583594 107.218555 
L 141.800479 92.416397 
L 143.017364 109.945335 
L 144.234248 77.939417 
L 145.451133 105.311917 
L 146.668018 86.763227 
L 147.884903 92.228883 
L 149.101788 76.922793 
L 150.318673 100.710203 
L 151.535557 80.047545 
L 152.752442 88.273979 
L 153.969327 119.371109 
L 156.403097 81.245008 
L 158.836866 125.568259 
L 160.053751 89.010478 
L 161.270636 130.7613 
L 162.487521 83.529387 
L 163.704406 120.877064 
L 164.921291 88.096894 
L 166.138175 112.852954 
L 167.35506 80.304725 
L 168.571945 102.21428 
L 169.78883 74.507425 
L 171.005715 87.296986 
L 172.2226 112.991451 
L 174.656369 78.922251 
L 175.873254 93.600512 
L 177.090139 91.26649 
L 178.307024 93.980129 
L 179.523909 115.549071 
L 183.174563 86.916743 
L 184.391448 111.700752 
L 185.608333 87.000592 
L 188.042102 99.274749 
L 190.475872 67.31597 
L 191.692757 103.924019 
L 192.909642 103.358139 
L 194.126527 75.375122 
L 195.343411 97.958811 
L 196.560296 63.761333 
L 198.994066 103.799705 
L 200.210951 110.742114 
L 201.427836 82.868811 
L 206.295375 135.950795 
L 207.51226 104.781704 
L 208.729145 108.119417 
L 211.162914 89.056783 
L 212.379799 84.01559 
L 214.813569 113.59571 
L 216.030454 108.976267 
L 217.247338 90.118043 
L 218.464223 115.845256 
L 219.681108 95.324433 
L 220.897993 106.165221 
L 222.114878 91.698253 
L 223.331763 98.248113 
L 224.548647 68.002202 
L 226.982417 109.322929 
L 228.199302 108.850284 
L 229.416187 100.010205 
L 230.633072 98.629608 
L 233.066841 110.423819 
L 234.283726 83.375663 
L 235.500611 98.505711 
L 236.717496 100.706866 
L 239.151265 88.083753 
L 242.80192 98.314442 
L 244.018805 86.466625 
L 246.452574 116.854163 
L 250.103229 86.597405 
L 251.320114 108.757257 
L 252.536998 88.049754 
L 253.753883 97.842214 
L 254.970768 84.287371 
L 257.404538 109.265361 
L 259.838307 73.430313 
L 261.055192 96.163138 
L 262.272077 94.853666 
L 263.488962 89.586788 
L 264.705847 99.882762 
L 265.922732 82.960378 
L 267.139616 84.656142 
L 268.356501 80.244863 
L 270.790271 90.266136 
L 272.007156 103.920682 
L 273.224041 89.054698 
L 274.440925 94.524108 
L 275.65781 83.176468 
L 276.874695 96.127887 
L 278.09158 90.128473 
L 280.52535 101.227067 
L 281.742234 92.597654 
L 284.176004 112.865051 
L 285.392889 64.411897 
L 286.609774 86.389241 
L 287.826659 89.447456 
L 289.043543 105.886349 
L 290.260428 101.63964 
L 291.477313 83.648696 
L 292.694198 103.689782 
L 293.911083 86.64079 
L 295.127968 90.397542 
L 296.344852 108.094178 
L 297.561737 110.978645 
L 298.778622 82.256209 
L 299.995507 101.582697 
L 301.212392 93.779474 
L 302.429277 114.702858 
L 303.646161 68.988373 
L 304.863046 99.055947 
L 306.079931 103.79887 
L 307.296816 88.215993 
L 309.730586 120.206685 
L 309.730586 120.206685 
" clip-path="url(#p18625370a4)" style="fill: none; stroke: #1f9e89; stroke-width: 1.5; stroke-linecap: round"/>
   </g>
   <g id="line2d_7">
    <path d="M 67.570504 56.267436 
L 70.004274 117.418374 
L 71.221159 116.103062 
L 72.438043 107.126988 
L 73.654928 85.365526 
L 74.871813 108.996291 
L 76.088698 99.89048 
L 77.305583 146.944681 
L 78.522468 98.669029 
L 79.739352 103.090529 
L 80.956237 99.718609 
L 82.173122 106.572163 
L 84.606892 98.525109 
L 85.823777 116.210273 
L 87.040661 102.854207 
L 88.257546 126.218614 
L 89.474431 99.812888 
L 90.691316 104.211861 
L 91.908201 103.314337 
L 93.125086 116.985777 
L 94.34197 113.53251 
L 95.558855 106.371508 
L 96.77574 116.102645 
L 97.992625 100.568785 
L 100.426395 114.126966 
L 101.643279 113.469728 
L 104.077049 137.397512 
L 105.293934 101.169915 
L 106.510819 97.058784 
L 108.944588 128.083954 
L 110.161473 100.275103 
L 112.595243 115.036379 
L 113.812128 112.1273 
L 115.029013 101.24563 
L 116.245897 135.807499 
L 117.462782 99.35985 
L 118.679667 98.105027 
L 119.896552 93.437818 
L 122.330322 110.093427 
L 123.547206 116.723382 
L 124.764091 89.289977 
L 125.980976 90.521439 
L 127.197861 114.676369 
L 128.414746 86.992249 
L 130.848515 109.606599 
L 132.0654 86.791594 
L 133.282285 85.410996 
L 134.49917 130.116159 
L 135.716055 91.156985 
L 136.932939 91.630256 
L 140.583594 119.105377 
L 141.800479 104.12676 
L 143.017364 120.731475 
L 144.234248 89.895488 
L 145.451133 116.175649 
L 146.668018 98.815662 
L 147.884903 102.64646 
L 149.101788 90.981986 
L 150.318673 114.194964 
L 151.535557 91.161366 
L 152.752442 100.532283 
L 153.969327 132.163381 
L 156.403097 94.895799 
L 157.619982 109.114765 
L 158.836866 135.63104 
L 160.053751 100.856627 
L 161.270636 142.487306 
L 162.487521 96.124341 
L 163.704406 131.459212 
L 164.921291 100.298881 
L 166.138175 126.539621 
L 167.35506 92.302304 
L 168.571945 113.579233 
L 169.78883 86.993083 
L 171.005715 99.169415 
L 172.2226 125.402229 
L 174.656369 90.72418 
L 175.873254 106.972221 
L 177.090139 105.622911 
L 178.307024 107.63676 
L 179.523909 126.734018 
L 183.174563 99.935533 
L 184.391448 123.873956 
L 185.608333 99.949091 
L 186.825218 102.756382 
L 188.042102 110.616548 
L 190.475872 78.666739 
L 191.692757 116.08721 
L 192.909642 117.632378 
L 194.126527 88.465456 
L 195.343411 109.620157 
L 196.560296 78.361793 
L 198.994066 115.143173 
L 200.210951 122.406797 
L 201.427836 94.918952 
L 206.295375 147.282582 
L 207.51226 117.882675 
L 208.729145 119.632253 
L 211.162914 102.77578 
L 212.379799 95.193862 
L 213.596684 106.457861 
L 214.813569 127.602341 
L 216.030454 121.864486 
L 217.247338 103.255517 
L 218.464223 128.730972 
L 219.681108 107.278418 
L 220.897993 118.319027 
L 222.114878 103.527715 
L 223.331763 110.686006 
L 224.548647 78.897429 
L 226.982417 121.065621 
L 228.199302 121.625453 
L 229.416187 113.483702 
L 230.633072 112.643121 
L 231.849956 115.406611 
L 233.066841 121.608349 
L 234.283726 93.520834 
L 236.717496 114.850742 
L 239.151265 100.596944 
L 242.80192 109.340867 
L 244.018805 99.085774 
L 246.452574 129.552156 
L 250.103229 100.903558 
L 251.320114 123.00021 
L 252.536998 99.622245 
L 253.753883 109.194443 
L 254.970768 97.888102 
L 257.404538 120.618424 
L 259.838307 86.664777 
L 261.055192 107.583572 
L 262.272077 106.492485 
L 263.488962 101.202871 
L 264.705847 111.968153 
L 265.922732 95.885725 
L 267.139616 95.624581 
L 268.356501 92.383233 
L 269.573386 94.296338 
L 272.007156 115.842336 
L 273.224041 101.150309 
L 274.440925 107.375408 
L 275.65781 95.553664 
L 276.874695 107.696414 
L 278.09158 101.409992 
L 280.52535 115.363434 
L 281.742234 105.497762 
L 284.176004 125.573056 
L 285.392889 76.060102 
L 286.609774 99.393223 
L 287.826659 102.966006 
L 289.043543 117.70705 
L 290.260428 111.949798 
L 291.477313 99.530469 
L 292.694198 115.848594 
L 293.911083 98.316945 
L 295.127968 104.621514 
L 297.561737 121.7919 
L 298.778622 96.797432 
L 299.995507 113.12828 
L 301.212392 107.731248 
L 302.429277 126.848529 
L 303.646161 81.242505 
L 306.079931 116.561941 
L 307.296816 98.67633 
L 309.730586 132.005694 
L 309.730586 132.005694 
" clip-path="url(#p18625370a4)" style="fill: none; stroke: #35b779; stroke-width: 1.5; stroke-linecap: round"/>
   </g>
   <g id="line2d_8">
    <path d="M 67.570504 76.090347 
L 70.004274 137.247543 
L 71.221159 134.118619 
L 72.438043 125.022403 
L 73.654928 104.239393 
L 74.871813 127.809462 
L 76.088698 119.682104 
L 77.305583 163.758603 
L 78.522468 116.299546 
L 79.739352 121.40978 
L 80.956237 118.191375 
L 82.173122 124.24523 
L 84.606892 118.089171 
L 85.823777 133.837244 
L 87.040661 120.962165 
L 88.257546 145.313161 
L 89.474431 119.134161 
L 90.691316 122.300421 
L 91.908201 121.865738 
L 93.125086 135.319211 
L 95.558855 125.64606 
L 96.77574 134.036438 
L 97.992625 120.566904 
L 100.426395 133.429051 
L 101.643279 130.459692 
L 104.077049 156.171678 
L 105.293934 119.604303 
L 106.510819 116.774485 
L 108.944588 147.240032 
L 110.161473 119.821644 
L 112.595243 135.078092 
L 113.812128 130.611539 
L 115.029013 121.54494 
L 116.245897 152.790372 
L 117.462782 118.387441 
L 118.679667 117.067541 
L 119.896552 112.08621 
L 122.330322 128.280438 
L 123.547206 136.194417 
L 124.764091 110.340804 
L 125.980976 108.571412 
L 127.197861 134.254197 
L 128.414746 105.742845 
L 130.848515 129.214463 
L 132.0654 105.060785 
L 133.282285 102.875065 
L 134.49917 149.701287 
L 135.716055 109.477279 
L 136.932939 109.22573 
L 140.583594 138.176562 
L 141.800479 122.624973 
L 143.017364 139.484574 
L 144.234248 109.980168 
L 145.451133 134.720584 
L 146.668018 118.592685 
L 147.884903 122.838977 
L 149.101788 109.72841 
L 150.318673 132.563439 
L 151.535557 109.873374 
L 152.752442 120.659723 
L 153.969327 150.43591 
L 156.403097 113.933403 
L 158.836866 153.865815 
L 160.053751 121.049769 
L 161.270636 160.587129 
L 162.487521 115.123983 
L 163.704406 151.205991 
L 164.921291 120.627601 
L 166.138175 144.906845 
L 167.35506 112.395118 
L 168.571945 132.175896 
L 169.78883 106.310394 
L 171.005715 117.859106 
L 172.2226 143.526873 
L 173.439484 116.156459 
L 174.656369 111.351379 
L 175.873254 125.072462 
L 177.090139 124.600026 
L 178.307024 125.442485 
L 179.523909 145.920131 
L 183.174563 118.492983 
L 184.391448 141.650896 
L 185.608333 118.643996 
L 186.825218 121.438564 
L 188.042102 129.199654 
L 190.475872 97.699128 
L 191.692757 134.209352 
L 192.909642 136.727967 
L 194.126527 106.495822 
L 195.343411 128.583714 
L 196.560296 97.539981 
L 197.777181 128.577665 
L 200.210951 140.979056 
L 201.427836 113.724822 
L 205.07849 144.169303 
L 206.295375 165.988751 
L 207.51226 135.830235 
L 208.729145 137.660742 
L 211.162914 121.789397 
L 212.379799 113.942789 
L 213.596684 125.018231 
L 214.813569 146.242389 
L 216.030454 141.046219 
L 217.247338 122.321696 
L 218.464223 147.529751 
L 219.681108 125.626036 
L 220.897993 137.294473 
L 222.114878 121.492378 
L 223.331763 129.385917 
L 224.548647 97.903954 
L 226.982417 139.856265 
L 228.199302 141.53263 
L 229.416187 132.590138 
L 230.633072 131.098367 
L 233.066841 140.830338 
L 234.283726 112.855874 
L 236.717496 132.53549 
L 239.151265 119.302903 
L 242.80192 128.333 
L 244.018805 116.51355 
L 246.452574 147.65782 
L 250.103229 119.84292 
L 251.320114 141.713887 
L 252.536998 117.365395 
L 253.753883 129.104124 
L 254.970768 116.449724 
L 257.404538 140.577121 
L 259.838307 104.213112 
L 261.055192 125.113344 
L 262.272077 126.162506 
L 263.488962 119.88839 
L 264.705847 130.711657 
L 265.922732 114.26317 
L 267.139616 114.918531 
L 268.356501 111.455878 
L 269.573386 114.785874 
L 270.790271 121.098577 
L 272.007156 134.476336 
L 273.224041 120.122835 
L 274.440925 126.151034 
L 275.65781 112.992286 
L 276.874695 127.101329 
L 278.09158 119.837496 
L 280.52535 133.403186 
L 281.742234 122.951611 
L 284.176004 143.462004 
L 285.392889 94.449853 
L 286.609774 117.871412 
L 287.826659 121.796072 
L 289.043543 136.972007 
L 290.260428 132.107481 
L 291.477313 116.731726 
L 292.694198 133.890432 
L 293.911083 116.076781 
L 295.127968 123.126193 
L 296.344852 138.351145 
L 297.561737 140.505786 
L 298.778622 115.6154 
L 299.995507 132.052416 
L 301.212392 126.221326 
L 302.429277 147.00371 
L 303.646161 101.57206 
L 306.079931 134.731847 
L 307.296816 117.421294 
L 309.730586 149.921966 
L 309.730586 149.921966 
" clip-path="url(#p18625370a4)" style="fill: none; stroke: #6ece58; stroke-width: 1.5; stroke-linecap: round"/>
   </g>
   <g id="line2d_9">
    <path d="M 67.570504 94.396665 
L 70.004274 153.169155 
L 71.221159 152.226577 
L 72.438043 143.271987 
L 73.654928 123.384207 
L 74.871813 145.326718 
L 76.088698 137.911247 
L 77.305583 183.015634 
L 78.522468 135.405981 
L 79.739352 140.717913 
L 80.956237 137.087978 
L 82.173122 142.232211 
L 84.606892 134.415013 
L 85.823777 152.43203 
L 87.040661 138.888449 
L 88.257546 163.631994 
L 89.474431 137.238365 
L 91.908201 140.710613 
L 93.125086 153.770702 
L 94.34197 150.228789 
L 95.558855 143.430092 
L 96.77574 152.009027 
L 97.992625 138.096259 
L 100.426395 150.45343 
L 101.643279 149.44223 
L 104.077049 174.12028 
L 105.293934 138.106062 
L 106.510819 135.441023 
L 108.944588 165.872154 
L 110.161473 137.080261 
L 112.595243 151.74997 
L 113.812128 149.674589 
L 115.029013 139.277453 
L 116.245897 171.901187 
L 117.462782 135.090607 
L 118.679667 135.435182 
L 119.896552 130.774649 
L 122.330322 146.920486 
L 123.547206 154.109855 
L 124.764091 127.402729 
L 125.980976 126.249693 
L 127.197861 152.653334 
L 128.414746 123.63367 
L 130.848515 148.47212 
L 132.0654 124.697016 
L 133.282285 122.239724 
L 134.49917 166.503737 
L 135.716055 129.216758 
L 136.932939 128.171975 
L 140.583594 156.447631 
L 141.800479 141.840913 
L 143.017364 158.838386 
L 144.234248 127.105292 
L 145.451133 154.027257 
L 146.668018 135.542602 
L 147.884903 141.308406 
L 149.101788 127.709969 
L 150.318673 151.088351 
L 151.535557 129.0209 
L 152.752442 137.362054 
L 153.969327 168.33925 
L 156.403097 131.352627 
L 158.836866 173.432798 
L 160.053751 138.062677 
L 161.270636 178.940587 
L 162.487521 133.023569 
L 163.704406 169.756975 
L 164.921291 136.96721 
L 166.138175 162.582832 
L 167.35506 129.288301 
L 168.571945 151.328219 
L 169.78883 124.31281 
L 171.005715 136.975762 
L 172.2226 162.270795 
L 174.656369 128.179276 
L 175.873254 142.907388 
L 177.090139 141.292762 
L 178.307024 143.568381 
L 179.523909 164.124454 
L 183.174563 136.388189 
L 184.391448 160.555842 
L 185.608333 136.714618 
L 188.042102 148.415177 
L 190.475872 116.534825 
L 191.692757 152.303127 
L 192.909642 154.144062 
L 194.126527 125.448742 
L 195.343411 146.338545 
L 196.560296 114.907476 
L 198.994066 152.413883 
L 200.210951 159.623902 
L 201.427836 132.683582 
L 206.295375 184.037055 
L 207.51226 154.753536 
L 208.729145 157.226681 
L 211.162914 138.958115 
L 212.379799 132.848778 
L 214.813569 164.084198 
L 216.030454 158.831294 
L 217.247338 139.968064 
L 218.464223 165.188843 
L 219.681108 144.892244 
L 220.897993 155.516108 
L 222.114878 140.94172 
L 223.331763 147.894976 
L 224.548647 117.115306 
L 226.982417 158.090623 
L 228.199302 157.843455 
L 229.416187 149.317916 
L 230.633072 148.621672 
L 231.849956 152.123747 
L 233.066841 159.441602 
L 234.283726 131.621071 
L 236.717496 150.578579 
L 239.151265 137.745425 
L 242.80192 146.874598 
L 244.018805 136.777192 
L 246.452574 165.779544 
L 250.103229 137.064826 
L 251.320114 158.492142 
L 252.536998 136.727967 
L 253.753883 146.70669 
L 254.970768 134.928748 
L 257.404538 159.167944 
L 259.838307 123.590285 
L 261.055192 145.232857 
L 262.272077 143.672254 
L 263.488962 138.832758 
L 264.705847 150.299498 
L 265.922732 133.285547 
L 267.139616 133.814508 
L 268.356501 129.726738 
L 270.790271 138.972507 
L 272.007156 153.040252 
L 273.224041 138.768724 
L 274.440925 144.425023 
L 275.65781 133.430302 
L 276.874695 144.911434 
L 278.09158 139.129152 
L 280.52535 151.660071 
L 281.742234 142.819366 
L 284.176004 161.678425 
L 285.392889 114.810903 
L 286.609774 136.023381 
L 287.826659 139.256386 
L 289.043543 154.861164 
L 290.260428 150.710402 
L 291.477313 134.743945 
L 292.694198 153.08322 
L 293.911083 135.221178 
L 295.127968 140.68892 
L 297.561737 160.378131 
L 298.778622 132.962246 
L 299.995507 150.862666 
L 301.212392 143.691235 
L 302.429277 163.442186 
L 303.646161 119.336902 
L 304.863046 148.825664 
L 306.079931 152.877142 
L 307.296816 137.379992 
L 309.730586 168.565769 
L 309.730586 168.565769 
" clip-path="url(#p18625370a4)" style="fill: none; stroke: #b5de2b; stroke-width: 1.5; stroke-linecap: round"/>
   </g>
   <g id="patch_3">
    <path d="M 55.4625 192.009865 
L 55.4625 28.442513 
" style="fill: none"/>
   </g>
   <g id="patch_4">
    <path d="M 321.83859 192.009865 
L 321.83859 28.442513 
" style="fill: none"/>
   </g>
   <g id="patch_5">
    <path d="M 55.4625 192.009865 
L 321.83859 192.009865 
" style="fill: none"/>
   </g>
   <g id="patch_6">
    <path d="M 55.4625 28.442513 
L 321.83859 28.442513 
" style="fill: none"/>
   </g>
  </g>
  <g id="text_13">
   <!-- eval: pytorch -->
   <g style="fill: #262626" transform="translate(137.155906 18.14175) scale(0.144 -0.144)">
    <defs>
     <path id="DejaVuSans-76" d="M 191 3500 
L 800 3500 
L 1894 563 
L 2988 3500 
L 3597 3500 
L 2284 0 
L 1503 0 
L 191 3500 
z
" transform="scale(0.015625)"/>
     <path id="DejaVuSans-6c" d="M 603 4863 
L 1178 4863 
L 1178 0 
L 603 0 
L 603 4863 
z
" transform="scale(0.015625)"/>
     <path id="DejaVuSans-3a" d="M 750 794 
L 1409 794 
L 1409 0 
L 750 0 
L 750 794 
z
M 750 3309 
L 1409 3309 
L 1409 2516 
L 750 2516 
L 750 3309 
z
" transform="scale(0.015625)"/>
     <path id="DejaVuSans-20" transform="scale(0.015625)"/>
     <path id="DejaVuSans-70" d="M 1159 525 
L 1159 -1331 
L 581 -1331 
L 581 3500 
L 1159 3500 
L 1159 2969 
Q 1341 3281 1617 3432 
Q 1894 3584 2278 3584 
Q 2916 3584 3314 3078 
Q 3713 2572 3713 1747 
Q 3713 922 3314 415 
Q 2916 -91 2278 -91 
Q 1894 -91 1617 61 
Q 1341 213 1159 525 
z
M 3116 1747 
Q 3116 2381 2855 2742 
Q 2594 3103 2138 3103 
Q 1681 3103 1420 2742 
Q 1159 2381 1159 1747 
Q 1159 1113 1420 752 
Q 1681 391 2138 391 
Q 2594 391 2855 752 
Q 3116 1113 3116 1747 
z
" transform="scale(0.015625)"/>
     <path id="DejaVuSans-74" d="M 1172 4494 
L 1172 3500 
L 2356 3500 
L 2356 3053 
L 1172 3053 
L 1172 1153 
Q 1172 725 1289 603 
Q 1406 481 1766 481 
L 2356 481 
L 2356 0 
L 1766 0 
Q 1100 0 847 248 
Q 594 497 594 1153 
L 594 3053 
L 172 3053 
L 172 3500 
L 594 3500 
L 594 4494 
L 1172 4494 
z
" transform="scale(0.015625)"/>
     <path id="DejaVuSans-6f" d="M 1959 3097 
Q 1497 3097 1228 2736 
Q 959 2375 959 1747 
Q 959 1119 1226 758 
Q 1494 397 1959 397 
Q 2419 397 2687 759 
Q 2956 1122 2956 1747 
Q 2956 2369 2687 2733 
Q 2419 3097 1959 3097 
z
M 1959 3584 
Q 2709 3584 3137 3096 
Q 3566 2609 3566 1747 
Q 3566 888 3137 398 
Q 2709 -91 1959 -91 
Q 1206 -91 779 398 
Q 353 888 353 1747 
Q 353 2609 779 3096 
Q 1206 3584 1959 3584 
z
" transform="scale(0.015625)"/>
     <path id="DejaVuSans-63" d="M 3122 3366 
L 3122 2828 
Q 2878 2963 2633 3030 
Q 2388 3097 2138 3097 
Q 1578 3097 1268 2742 
Q 959 2388 959 1747 
Q 959 1106 1268 751 
Q 1578 397 2138 397 
Q 2388 397 2633 464 
Q 2878 531 3122 666 
L 3122 134 
Q 2881 22 2623 -34 
Q 2366 -91 2075 -91 
Q 1284 -91 818 406 
Q 353 903 353 1747 
Q 353 2603 823 3093 
Q 1294 3584 2113 3584 
Q 2378 3584 2631 3529 
Q 2884 3475 3122 3366 
z
" transform="scale(0.015625)"/>
     <path id="DejaVuSans-68" d="M 3513 2113 
L 3513 0 
L 2938 0 
L 2938 2094 
Q 2938 2591 2744 2837 
Q 2550 3084 2163 3084 
Q 1697 3084 1428 2787 
Q 1159 2491 1159 1978 
L 1159 0 
L 581 0 
L 581 4863 
L 1159 4863 
L 1159 2956 
Q 1366 3272 1645 3428 
Q 1925 3584 2291 3584 
Q 2894 3584 3203 3211 
Q 3513 2838 3513 2113 
z
" transform="scale(0.015625)"/>
    </defs>
    <use xlink:href="#DejaVuSans-65"/>
    <use xlink:href="#DejaVuSans-76" x="61.523438"/>
    <use xlink:href="#DejaVuSans-61" x="120.703125"/>
    <use xlink:href="#DejaVuSans-6c" x="181.982422"/>
    <use xlink:href="#DejaVuSans-3a" x="209.765625"/>
    <use xlink:href="#DejaVuSans-20" x="243.457031"/>
    <use xlink:href="#DejaVuSans-70" x="275.244141"/>
    <use xlink:href="#DejaVuSans-79" x="338.720703"/>
    <use xlink:href="#DejaVuSans-74" x="397.900391"/>
    <use xlink:href="#DejaVuSans-6f" x="437.109375"/>
    <use xlink:href="#DejaVuSans-72" x="498.291016"/>
    <use xlink:href="#DejaVuSans-63" x="537.154297"/>
    <use xlink:href="#DejaVuSans-68" x="592.134766"/>
   </g>
  </g>
 </g>
 <defs>
  <clipPath id="p18625370a4">
   <rect x="55.4625" y="28.442513" width="266.37609" height="163.567352"/>
  </clipPath>
 </defs>
</svg>
