<?xml version="1.0" encoding="utf-8" standalone="no"?>
<!DOCTYPE svg PUBLIC "-//W3C//DTD SVG 1.1//EN"
  "http://www.w3.org/Graphics/SVG/1.1/DTD/svg11.dtd">
<svg xmlns:xlink="http://www.w3.org/1999/xlink" width="223.65pt" height="174.899688pt" viewBox="0 0 223.65 174.899688" xmlns="http://www.w3.org/2000/svg" version="1.1">
 <metadata>
  <rdf:RDF xmlns:dc="http://purl.org/dc/elements/1.1/" xmlns:cc="http://creativecommons.org/ns#" xmlns:rdf="http://www.w3.org/1999/02/22-rdf-syntax-ns#">
   <cc:Work>
    <dc:type rdf:resource="http://purl.org/dc/dcmitype/StillImage"/>
    <dc:date>2023-12-05T11:41:48.585168</dc:date>
    <dc:format>image/svg+xml</dc:format>
    <dc:creator>
     <cc:Agent>
      <dc:title>Matplotlib v3.8.2, https://matplotlib.org/</dc:title>
     </cc:Agent>
    </dc:creator>
   </cc:Work>
  </rdf:RDF>
 </metadata>
 <defs>
  <style type="text/css">*{stroke-linejoin: round; stroke-linecap: butt}</style>
 </defs>
 <g id="figure_1">
  <g id="patch_1">
   <path d="M 0 174.899688 
L 223.65 174.899688 
L 223.65 0 
L 0 0 
L 0 174.899688 
z
" style="fill: none"/>
  </g>
  <g id="axes_1">
   <g id="patch_2">
    <path d="M 7.2 48.78 
L 216.45 48.78 
L 216.45 7.2 
L 7.2 7.2 
L 7.2 48.78 
z
" style="fill: none"/>
   </g>
   <g id="matplotlib.axis_1">
    <g id="xtick_1"/>
    <g id="xtick_2"/>
   </g>
   <g id="matplotlib.axis_2"/>
   <g id="line2d_1">
    <path d="M 7.2 48.78 
L 216.45 48.78 
" style="fill: none; stroke: #414487; stroke-opacity: 0.9; stroke-linecap: round"/>
   </g>
   <g id="text_1">
    <!-- 0 -->
    <g style="fill: #414487" transform="translate(7.2 47.93325) scale(0.12 -0.12)">
     <defs>
      <path id="DejaVuSans-Bold-30" d="M 2944 2338 
Q 2944 3213 2780 3570 
Q 2616 3928 2228 3928 
Q 1841 3928 1675 3570 
Q 1509 3213 1509 2338 
Q 1509 1453 1675 1090 
Q 1841 728 2228 728 
Q 2613 728 2778 1090 
Q 2944 1453 2944 2338 
z
M 4147 2328 
Q 4147 1169 3647 539 
Q 3147 -91 2228 -91 
Q 1306 -91 806 539 
Q 306 1169 306 2328 
Q 306 3491 806 4120 
Q 1306 4750 2228 4750 
Q 3147 4750 3647 4120 
Q 4147 3491 4147 2328 
z
" transform="scale(0.015625)"/>
     </defs>
     <use xlink:href="#DejaVuSans-Bold-30"/>
    </g>
   </g>
  </g>
  <g id="axes_2">
   <g id="patch_3">
    <path d="M 7.2 59.175 
L 216.45 59.175 
L 216.45 17.595 
L 7.2 17.595 
L 7.2 59.175 
z
" style="fill: none"/>
   </g>
   <g id="matplotlib.axis_3">
    <g id="xtick_3"/>
    <g id="xtick_4"/>
   </g>
   <g id="matplotlib.axis_4"/>
   <g id="PolyCollection_1">
    <defs>
     <path id="m604385ce29" d="M 33.138698 -115.727027 
L 33.138698 -115.724688 
L 33.459733 -115.724688 
L 33.780769 -115.724688 
L 34.101805 -115.724688 
L 34.422841 -115.724688 
L 34.743877 -115.724688 
L 35.064912 -115.724688 
L 35.385948 -115.724688 
L 35.706984 -115.724688 
L 36.02802 -115.724688 
L 36.349056 -115.724688 
L 36.670092 -115.724688 
L 36.991127 -115.724688 
L 37.312163 -115.724688 
L 37.633199 -115.724688 
L 37.954235 -115.724688 
L 38.275271 -115.724688 
L 38.596306 -115.724688 
L 38.917342 -115.724688 
L 39.238378 -115.724688 
L 39.559414 -115.724688 
L 39.88045 -115.724688 
L 40.201485 -115.724688 
L 40.522521 -115.724688 
L 40.843557 -115.724688 
L 41.164593 -115.724688 
L 41.485629 -115.724688 
L 41.806665 -115.724688 
L 42.1277 -115.724688 
L 42.448736 -115.724688 
L 42.769772 -115.724688 
L 43.090808 -115.724688 
L 43.411844 -115.724688 
L 43.732879 -115.724688 
L 44.053915 -115.724688 
L 44.374951 -115.724688 
L 44.695987 -115.724688 
L 45.017023 -115.724688 
L 45.338059 -115.724688 
L 45.659094 -115.724688 
L 45.98013 -115.724688 
L 46.301166 -115.724688 
L 46.622202 -115.724688 
L 46.943238 -115.724688 
L 47.264273 -115.724688 
L 47.585309 -115.724688 
L 47.906345 -115.724688 
L 48.227381 -115.724688 
L 48.548417 -115.724688 
L 48.869453 -115.724688 
L 49.190488 -115.724688 
L 49.511524 -115.724688 
L 49.83256 -115.724688 
L 50.153596 -115.724688 
L 50.474632 -115.724688 
L 50.795667 -115.724688 
L 51.116703 -115.724688 
L 51.437739 -115.724688 
L 51.758775 -115.724688 
L 52.079811 -115.724688 
L 52.400846 -115.724688 
L 52.721882 -115.724688 
L 53.042918 -115.724688 
L 53.363954 -115.724688 
L 53.68499 -115.724688 
L 54.006026 -115.724688 
L 54.327061 -115.724688 
L 54.648097 -115.724688 
L 54.969133 -115.724688 
L 55.290169 -115.724688 
L 55.611205 -115.724688 
L 55.93224 -115.724688 
L 56.253276 -115.724688 
L 56.574312 -115.724688 
L 56.895348 -115.724688 
L 57.216384 -115.724688 
L 57.53742 -115.724688 
L 57.858455 -115.724688 
L 58.179491 -115.724688 
L 58.500527 -115.724688 
L 58.821563 -115.724688 
L 59.142599 -115.724688 
L 59.463634 -115.724688 
L 59.78467 -115.724688 
L 60.105706 -115.724688 
L 60.426742 -115.724688 
L 60.747778 -115.724688 
L 61.068814 -115.724688 
L 61.389849 -115.724688 
L 61.710885 -115.724688 
L 62.031921 -115.724688 
L 62.352957 -115.724688 
L 62.673993 -115.724688 
L 62.995028 -115.724688 
L 63.316064 -115.724688 
L 63.6371 -115.724688 
L 63.958136 -115.724688 
L 64.279172 -115.724688 
L 64.600207 -115.724688 
L 64.921243 -115.724688 
L 65.242279 -115.724688 
L 65.563315 -115.724688 
L 65.884351 -115.724688 
L 66.205387 -115.724688 
L 66.526422 -115.724688 
L 66.847458 -115.724688 
L 67.168494 -115.724688 
L 67.48953 -115.724688 
L 67.810566 -115.724688 
L 68.131601 -115.724688 
L 68.452637 -115.724688 
L 68.773673 -115.724688 
L 69.094709 -115.724688 
L 69.415745 -115.724688 
L 69.736781 -115.724688 
L 70.057816 -115.724688 
L 70.378852 -115.724688 
L 70.699888 -115.724688 
L 71.020924 -115.724688 
L 71.34196 -115.724688 
L 71.662995 -115.724688 
L 71.984031 -115.724688 
L 72.305067 -115.724688 
L 72.626103 -115.724688 
L 72.947139 -115.724688 
L 73.268174 -115.724688 
L 73.58921 -115.724688 
L 73.910246 -115.724688 
L 74.231282 -115.724688 
L 74.552318 -115.724688 
L 74.873354 -115.724688 
L 75.194389 -115.724688 
L 75.515425 -115.724688 
L 75.836461 -115.724688 
L 76.157497 -115.724688 
L 76.478533 -115.724688 
L 76.799568 -115.724688 
L 77.120604 -115.724688 
L 77.44164 -115.724688 
L 77.762676 -115.724688 
L 78.083712 -115.724688 
L 78.404748 -115.724688 
L 78.725783 -115.724688 
L 79.046819 -115.724688 
L 79.367855 -115.724688 
L 79.688891 -115.724688 
L 80.009927 -115.724688 
L 80.330962 -115.724688 
L 80.651998 -115.724688 
L 80.973034 -115.724688 
L 81.29407 -115.724688 
L 81.615106 -115.724688 
L 81.936142 -115.724688 
L 82.257177 -115.724688 
L 82.578213 -115.724688 
L 82.899249 -115.724688 
L 83.220285 -115.724688 
L 83.541321 -115.724688 
L 83.862356 -115.724688 
L 84.183392 -115.724688 
L 84.504428 -115.724688 
L 84.825464 -115.724688 
L 85.1465 -115.724688 
L 85.467535 -115.724688 
L 85.788571 -115.724688 
L 86.109607 -115.724688 
L 86.430643 -115.724688 
L 86.751679 -115.724688 
L 87.072715 -115.724688 
L 87.39375 -115.724688 
L 87.714786 -115.724688 
L 88.035822 -115.724688 
L 88.356858 -115.724688 
L 88.677894 -115.724688 
L 88.998929 -115.724688 
L 89.319965 -115.724688 
L 89.641001 -115.724688 
L 89.962037 -115.724688 
L 90.283073 -115.724688 
L 90.604109 -115.724688 
L 90.925144 -115.724688 
L 91.24618 -115.724688 
L 91.567216 -115.724688 
L 91.888252 -115.724688 
L 92.209288 -115.724688 
L 92.530323 -115.724688 
L 92.851359 -115.724688 
L 93.172395 -115.724688 
L 93.493431 -115.724688 
L 93.814467 -115.724688 
L 94.135503 -115.724688 
L 94.456538 -115.724688 
L 94.777574 -115.724688 
L 95.09861 -115.724688 
L 95.419646 -115.724688 
L 95.740682 -115.724688 
L 96.061717 -115.724688 
L 96.382753 -115.724688 
L 96.703789 -115.724688 
L 97.024825 -115.724688 
L 97.024825 -115.735816 
L 97.024825 -115.735816 
L 96.703789 -115.744416 
L 96.382753 -115.759042 
L 96.061717 -115.783281 
L 95.740682 -115.822294 
L 95.419646 -115.883112 
L 95.09861 -115.974813 
L 94.777574 -116.108454 
L 94.456538 -116.296692 
L 94.135503 -116.553008 
L 93.814467 -116.890525 
L 93.493431 -117.32042 
L 93.172395 -117.850036 
L 92.851359 -118.48086 
L 92.530323 -119.206621 
L 92.209288 -120.011853 
L 91.888252 -120.871302 
L 91.567216 -121.750521 
L 91.24618 -122.607873 
L 90.925144 -123.397928 
L 90.604109 -124.075983 
L 90.283073 -124.603108 
L 89.962037 -124.950944 
L 89.641001 -125.105353 
L 89.319965 -125.068135 
L 88.998929 -124.856382 
L 88.677894 -124.499506 
L 88.356858 -124.03456 
L 88.035822 -123.50092 
L 87.714786 -122.935468 
L 87.39375 -122.369215 
L 87.072715 -121.825724 
L 86.751679 -121.321128 
L 86.430643 -120.865131 
L 86.109607 -120.462299 
L 85.788571 -120.113168 
L 85.467535 -119.815059 
L 85.1465 -119.562709 
L 84.825464 -119.348921 
L 84.504428 -119.16536 
L 84.183392 -119.003457 
L 83.862356 -118.855303 
L 83.541321 -118.714381 
L 83.220285 -118.57603 
L 82.899249 -118.437593 
L 82.578213 -118.298282 
L 82.257177 -118.158841 
L 81.936142 -118.021148 
L 81.615106 -117.887877 
L 81.29407 -117.762332 
L 80.973034 -117.648473 
L 80.651998 -117.551063 
L 80.330962 -117.475808 
L 80.009927 -117.429325 
L 79.688891 -117.418812 
L 79.367855 -117.451337 
L 79.046819 -117.532738 
L 78.725783 -117.666216 
L 78.404748 -117.850811 
L 78.083712 -118.080074 
L 77.762676 -118.341346 
L 77.44164 -118.61604 
L 77.120604 -118.881173 
L 76.799568 -119.112106 
L 76.478533 -119.286047 
L 76.157497 -119.385601 
L 75.836461 -119.401535 
L 75.515425 -119.334086 
L 75.194389 -119.192539 
L 74.873354 -118.993247 
L 74.552318 -118.756638 
L 74.231282 -118.503955 
L 73.910246 -118.254395 
L 73.58921 -118.023134 
L 73.268174 -117.820404 
L 72.947139 -117.651549 
L 72.626103 -117.517763 
L 72.305067 -117.417195 
L 71.984031 -117.346075 
L 71.662995 -117.299665 
L 71.34196 -117.272929 
L 71.020924 -117.260949 
L 70.699888 -117.259171 
L 70.378852 -117.263553 
L 70.057816 -117.27067 
L 69.736781 -117.277728 
L 69.415745 -117.28247 
L 69.094709 -117.282951 
L 68.773673 -117.277285 
L 68.452637 -117.263462 
L 68.131601 -117.239374 
L 67.810566 -117.203073 
L 67.48953 -117.15318 
L 67.168494 -117.089279 
L 66.847458 -117.012125 
L 66.526422 -116.923586 
L 66.205387 -116.826343 
L 65.884351 -116.7235 
L 65.563315 -116.618219 
L 65.242279 -116.513493 
L 64.921243 -116.412031 
L 64.600207 -116.316193 
L 64.279172 -116.227899 
L 63.958136 -116.148497 
L 63.6371 -116.078653 
L 63.316064 -116.018324 
L 62.995028 -115.966875 
L 62.673993 -115.923317 
L 62.352957 -115.886582 
L 62.031921 -115.855733 
L 61.710885 -115.83006 
L 61.389849 -115.809048 
L 61.068814 -115.79227 
L 60.747778 -115.779269 
L 60.426742 -115.769497 
L 60.105706 -115.762318 
L 59.78467 -115.757068 
L 59.463634 -115.753142 
L 59.142599 -115.750062 
L 58.821563 -115.747509 
L 58.500527 -115.745308 
L 58.179491 -115.743385 
L 57.858455 -115.74171 
L 57.53742 -115.74026 
L 57.216384 -115.738995 
L 56.895348 -115.737877 
L 56.574312 -115.736884 
L 56.253276 -115.736039 
L 55.93224 -115.735408 
L 55.611205 -115.735083 
L 55.290169 -115.735146 
L 54.969133 -115.735621 
L 54.648097 -115.736455 
L 54.327061 -115.73751 
L 54.006026 -115.738595 
L 53.68499 -115.739512 
L 53.363954 -115.740097 
L 53.042918 -115.740253 
L 52.721882 -115.739955 
L 52.400846 -115.739228 
L 52.079811 -115.738138 
L 51.758775 -115.736773 
L 51.437739 -115.735239 
L 51.116703 -115.73366 
L 50.795667 -115.732169 
L 50.474632 -115.730891 
L 50.153596 -115.729916 
L 49.83256 -115.729281 
L 49.511524 -115.728957 
L 49.190488 -115.728856 
L 48.869453 -115.728856 
L 48.548417 -115.728832 
L 48.227381 -115.728693 
L 47.906345 -115.728392 
L 47.585309 -115.727939 
L 47.264273 -115.727383 
L 46.943238 -115.726793 
L 46.622202 -115.726234 
L 46.301166 -115.725756 
L 45.98013 -115.725381 
L 45.659094 -115.72511 
L 45.338059 -115.72493 
L 45.017023 -115.724818 
L 44.695987 -115.724754 
L 44.374951 -115.724719 
L 44.053915 -115.724702 
L 43.732879 -115.724693 
L 43.411844 -115.72469 
L 43.090808 -115.724688 
L 42.769772 -115.724688 
L 42.448736 -115.724688 
L 42.1277 -115.724688 
L 41.806665 -115.724688 
L 41.485629 -115.724688 
L 41.164593 -115.724688 
L 40.843557 -115.724688 
L 40.522521 -115.724688 
L 40.201485 -115.724688 
L 39.88045 -115.724688 
L 39.559414 -115.724689 
L 39.238378 -115.724691 
L 38.917342 -115.724696 
L 38.596306 -115.724707 
L 38.275271 -115.724731 
L 37.954235 -115.724776 
L 37.633199 -115.724858 
L 37.312163 -115.724996 
L 36.991127 -115.725212 
L 36.670092 -115.725524 
L 36.349056 -115.725943 
L 36.02802 -115.726456 
L 35.706984 -115.72703 
L 35.385948 -115.727601 
L 35.064912 -115.728093 
L 34.743877 -115.728426 
L 34.422841 -115.728544 
L 34.101805 -115.728425 
L 33.780769 -115.72809 
L 33.459733 -115.727598 
L 33.138698 -115.727027 
z
" style="stroke: #2a788e; stroke-width: 1.25"/>
    </defs>
    <g>
     <use xlink:href="#m604385ce29" x="0" y="174.899688" style="fill: #2a788e; fill-opacity: 0.7; stroke: #2a788e; stroke-width: 1.25"/>
    </g>
   </g>
   <g id="line2d_2">
    <path d="M 7.2 59.175 
L 216.45 59.175 
" style="fill: none; stroke: #2a788e; stroke-opacity: 0.9; stroke-linecap: round"/>
   </g>
   <g id="text_2">
    <!-- 1 -->
    <g style="fill: #2a788e" transform="translate(7.2 58.32825) scale(0.12 -0.12)">
     <defs>
      <path id="DejaVuSans-Bold-31" d="M 750 831 
L 1813 831 
L 1813 3847 
L 722 3622 
L 722 4441 
L 1806 4666 
L 2950 4666 
L 2950 831 
L 4013 831 
L 4013 0 
L 750 0 
L 750 831 
z
" transform="scale(0.015625)"/>
     </defs>
     <use xlink:href="#DejaVuSans-Bold-31"/>
    </g>
   </g>
  </g>
  <g id="axes_3">
   <g id="patch_4">
    <path d="M 7.2 69.57 
L 216.45 69.57 
L 216.45 27.99 
L 7.2 27.99 
L 7.2 69.57 
z
" style="fill: none"/>
   </g>
   <g id="matplotlib.axis_5">
    <g id="xtick_5"/>
    <g id="xtick_6"/>
   </g>
   <g id="matplotlib.axis_6"/>
   <g id="PolyCollection_2">
    <defs>
     <path id="md7be20eeb1" d="M 30.506334 -105.330508 
L 30.506334 -105.329688 
L 31.086225 -105.329688 
L 31.666116 -105.329688 
L 32.246007 -105.329688 
L 32.825898 -105.329688 
L 33.405789 -105.329688 
L 33.98568 -105.329688 
L 34.565571 -105.329688 
L 35.145462 -105.329688 
L 35.725353 -105.329688 
L 36.305244 -105.329688 
L 36.885135 -105.329688 
L 37.465026 -105.329688 
L 38.044917 -105.329688 
L 38.624808 -105.329688 
L 39.204699 -105.329688 
L 39.78459 -105.329688 
L 40.364481 -105.329688 
L 40.944372 -105.329688 
L 41.524263 -105.329688 
L 42.104154 -105.329688 
L 42.684045 -105.329688 
L 43.263936 -105.329688 
L 43.843827 -105.329688 
L 44.423718 -105.329688 
L 45.003609 -105.329688 
L 45.5835 -105.329688 
L 46.163391 -105.329688 
L 46.743282 -105.329688 
L 47.323173 -105.329688 
L 47.903064 -105.329688 
L 48.482955 -105.329688 
L 49.062846 -105.329688 
L 49.642737 -105.329688 
L 50.222628 -105.329688 
L 50.802519 -105.329688 
L 51.382409 -105.329688 
L 51.9623 -105.329688 
L 52.542191 -105.329688 
L 53.122082 -105.329688 
L 53.701973 -105.329688 
L 54.281864 -105.329688 
L 54.861755 -105.329688 
L 55.441646 -105.329688 
L 56.021537 -105.329688 
L 56.601428 -105.329688 
L 57.181319 -105.329688 
L 57.76121 -105.329688 
L 58.341101 -105.329688 
L 58.920992 -105.329688 
L 59.500883 -105.329688 
L 60.080774 -105.329688 
L 60.660665 -105.329688 
L 61.240556 -105.329688 
L 61.820447 -105.329688 
L 62.400338 -105.329688 
L 62.980229 -105.329688 
L 63.56012 -105.329688 
L 64.140011 -105.329688 
L 64.719902 -105.329688 
L 65.299793 -105.329688 
L 65.879684 -105.329688 
L 66.459575 -105.329688 
L 67.039466 -105.329688 
L 67.619357 -105.329688 
L 68.199248 -105.329688 
L 68.779139 -105.329688 
L 69.35903 -105.329688 
L 69.938921 -105.329688 
L 70.518812 -105.329688 
L 71.098703 -105.329688 
L 71.678594 -105.329688 
L 72.258485 -105.329688 
L 72.838376 -105.329688 
L 73.418267 -105.329688 
L 73.998158 -105.329688 
L 74.578049 -105.329688 
L 75.15794 -105.329688 
L 75.737831 -105.329688 
L 76.317722 -105.329688 
L 76.897613 -105.329688 
L 77.477504 -105.329688 
L 78.057395 -105.329688 
L 78.637286 -105.329688 
L 79.217177 -105.329688 
L 79.797068 -105.329688 
L 80.376959 -105.329688 
L 80.95685 -105.329688 
L 81.536741 -105.329688 
L 82.116632 -105.329688 
L 82.696523 -105.329688 
L 83.276414 -105.329688 
L 83.856305 -105.329688 
L 84.436196 -105.329688 
L 85.016087 -105.329688 
L 85.595978 -105.329688 
L 86.175869 -105.329688 
L 86.755759 -105.329688 
L 87.33565 -105.329688 
L 87.915541 -105.329688 
L 88.495432 -105.329688 
L 89.075323 -105.329688 
L 89.655214 -105.329688 
L 90.235105 -105.329688 
L 90.814996 -105.329688 
L 91.394887 -105.329688 
L 91.974778 -105.329688 
L 92.554669 -105.329688 
L 93.13456 -105.329688 
L 93.714451 -105.329688 
L 94.294342 -105.329688 
L 94.874233 -105.329688 
L 95.454124 -105.329688 
L 96.034015 -105.329688 
L 96.613906 -105.329688 
L 97.193797 -105.329688 
L 97.773688 -105.329688 
L 98.353579 -105.329688 
L 98.93347 -105.329688 
L 99.513361 -105.329688 
L 100.093252 -105.329688 
L 100.673143 -105.329688 
L 101.253034 -105.329688 
L 101.832925 -105.329688 
L 102.412816 -105.329688 
L 102.992707 -105.329688 
L 103.572598 -105.329688 
L 104.152489 -105.329688 
L 104.73238 -105.329688 
L 105.312271 -105.329688 
L 105.892162 -105.329688 
L 106.472053 -105.329688 
L 107.051944 -105.329688 
L 107.631835 -105.329688 
L 108.211726 -105.329688 
L 108.791617 -105.329688 
L 109.371508 -105.329688 
L 109.951399 -105.329688 
L 110.53129 -105.329688 
L 111.111181 -105.329688 
L 111.691072 -105.329688 
L 112.270963 -105.329688 
L 112.850854 -105.329688 
L 113.430745 -105.329688 
L 114.010636 -105.329688 
L 114.590527 -105.329688 
L 115.170418 -105.329688 
L 115.750309 -105.329688 
L 116.3302 -105.329688 
L 116.910091 -105.329688 
L 117.489982 -105.329688 
L 118.069873 -105.329688 
L 118.649764 -105.329688 
L 119.229655 -105.329688 
L 119.809546 -105.329688 
L 120.389437 -105.329688 
L 120.969328 -105.329688 
L 121.549218 -105.329688 
L 122.129109 -105.329688 
L 122.709 -105.329688 
L 123.288891 -105.329688 
L 123.868782 -105.329688 
L 124.448673 -105.329688 
L 125.028564 -105.329688 
L 125.608455 -105.329688 
L 126.188346 -105.329688 
L 126.768237 -105.329688 
L 127.348128 -105.329688 
L 127.928019 -105.329688 
L 128.50791 -105.329688 
L 129.087801 -105.329688 
L 129.667692 -105.329688 
L 130.247583 -105.329688 
L 130.827474 -105.329688 
L 131.407365 -105.329688 
L 131.987256 -105.329688 
L 132.567147 -105.329688 
L 133.147038 -105.329688 
L 133.726929 -105.329688 
L 134.30682 -105.329688 
L 134.886711 -105.329688 
L 135.466602 -105.329688 
L 136.046493 -105.329688 
L 136.626384 -105.329688 
L 137.206275 -105.329688 
L 137.786166 -105.329688 
L 138.366057 -105.329688 
L 138.945948 -105.329688 
L 139.525839 -105.329688 
L 140.10573 -105.329688 
L 140.685621 -105.329688 
L 141.265512 -105.329688 
L 141.845403 -105.329688 
L 142.425294 -105.329688 
L 143.005185 -105.329688 
L 143.585076 -105.329688 
L 144.164967 -105.329688 
L 144.744858 -105.329688 
L 145.324749 -105.329688 
L 145.90464 -105.329688 
L 145.90464 -105.480091 
L 145.90464 -105.480091 
L 145.324749 -105.530181 
L 144.744858 -105.592382 
L 144.164967 -105.668135 
L 143.585076 -105.758647 
L 143.005185 -105.864788 
L 142.425294 -105.986994 
L 141.845403 -106.125201 
L 141.265512 -106.278787 
L 140.685621 -106.446565 
L 140.10573 -106.626787 
L 139.525839 -106.817188 
L 138.945948 -107.015038 
L 138.366057 -107.217216 
L 137.786166 -107.420286 
L 137.206275 -107.620576 
L 136.626384 -107.814259 
L 136.046493 -107.997438 
L 135.466602 -108.166236 
L 134.886711 -108.316892 
L 134.30682 -108.445882 
L 133.726929 -108.550043 
L 133.147038 -108.626712 
L 132.567147 -108.67388 
L 131.987256 -108.690324 
L 131.407365 -108.675731 
L 130.827474 -108.630781 
L 130.247583 -108.557176 
L 129.667692 -108.45761 
L 129.087801 -108.335663 
L 128.50791 -108.195627 
L 127.928019 -108.042276 
L 127.348128 -107.880589 
L 126.768237 -107.715468 
L 126.188346 -107.551458 
L 125.608455 -107.392516 
L 125.028564 -107.241836 
L 124.448673 -107.101761 
L 123.868782 -106.973765 
L 123.288891 -106.858518 
L 122.709 -106.756006 
L 122.129109 -106.665691 
L 121.549218 -106.586687 
L 120.969328 -106.517923 
L 120.389437 -106.45829 
L 119.809546 -106.406738 
L 119.229655 -106.362349 
L 118.649764 -106.324358 
L 118.069873 -106.292151 
L 117.489982 -106.265239 
L 116.910091 -106.243228 
L 116.3302 -106.225775 
L 115.750309 -106.212565 
L 115.170418 -106.203281 
L 114.590527 -106.197589 
L 114.010636 -106.195125 
L 113.430745 -106.195487 
L 112.850854 -106.198224 
L 112.270963 -106.202825 
L 111.691072 -106.208717 
L 111.111181 -106.215255 
L 110.53129 -106.221733 
L 109.951399 -106.227395 
L 109.371508 -106.231469 
L 108.791617 -106.233204 
L 108.211726 -106.231924 
L 107.631835 -106.227077 
L 107.051944 -106.218293 
L 106.472053 -106.205415 
L 105.892162 -106.188528 
L 105.312271 -106.167965 
L 104.73238 -106.144281 
L 104.152489 -106.118226 
L 103.572598 -106.09069 
L 102.992707 -106.062646 
L 102.412816 -106.035096 
L 101.832925 -106.009013 
L 101.253034 -105.985301 
L 100.673143 -105.964766 
L 100.093252 -105.948096 
L 99.513361 -105.935853 
L 98.93347 -105.928473 
L 98.353579 -105.926267 
L 97.773688 -105.929425 
L 97.193797 -105.93802 
L 96.613906 -105.952003 
L 96.034015 -105.971201 
L 95.454124 -105.995316 
L 94.874233 -106.02392 
L 94.294342 -106.056459 
L 93.714451 -106.092252 
L 93.13456 -106.13051 
L 92.554669 -106.170345 
L 91.974778 -106.210799 
L 91.394887 -106.250867 
L 90.814996 -106.289527 
L 90.235105 -106.325781 
L 89.655214 -106.358687 
L 89.075323 -106.387399 
L 88.495432 -106.411201 
L 87.915541 -106.429547 
L 87.33565 -106.442087 
L 86.755759 -106.448688 
L 86.175869 -106.449449 
L 85.595978 -106.444693 
L 85.016087 -106.434959 
L 84.436196 -106.420966 
L 83.856305 -106.403576 
L 83.276414 -106.383743 
L 82.696523 -106.362453 
L 82.116632 -106.340672 
L 81.536741 -106.319289 
L 80.95685 -106.299078 
L 80.376959 -106.28066 
L 79.797068 -106.264483 
L 79.217177 -106.250816 
L 78.637286 -106.239749 
L 78.057395 -106.231202 
L 77.477504 -106.224944 
L 76.897613 -106.220612 
L 76.317722 -106.217726 
L 75.737831 -106.215716 
L 75.15794 -106.213933 
L 74.578049 -106.211681 
L 73.998158 -106.208227 
L 73.418267 -106.202837 
L 72.838376 -106.1948 
L 72.258485 -106.183461 
L 71.678594 -106.168262 
L 71.098703 -106.148773 
L 70.518812 -106.124725 
L 69.938921 -106.096042 
L 69.35903 -106.062853 
L 68.779139 -106.025492 
L 68.199248 -105.984491 
L 67.619357 -105.940549 
L 67.039466 -105.894489 
L 66.459575 -105.847213 
L 65.879684 -105.799642 
L 65.299793 -105.752666 
L 64.719902 -105.707093 
L 64.140011 -105.663613 
L 63.56012 -105.622774 
L 62.980229 -105.584969 
L 62.400338 -105.550435 
L 61.820447 -105.519272 
L 61.240556 -105.491456 
L 60.660665 -105.46687 
L 60.080774 -105.445327 
L 59.500883 -105.426597 
L 58.920992 -105.410427 
L 58.341101 -105.396559 
L 57.76121 -105.384745 
L 57.181319 -105.374748 
L 56.601428 -105.366354 
L 56.021537 -105.359367 
L 55.441646 -105.353611 
L 54.861755 -105.348924 
L 54.281864 -105.345163 
L 53.701973 -105.342194 
L 53.122082 -105.339897 
L 52.542191 -105.338161 
L 51.9623 -105.336885 
L 51.382409 -105.335978 
L 50.802519 -105.335358 
L 50.222628 -105.334955 
L 49.642737 -105.334705 
L 49.062846 -105.334558 
L 48.482955 -105.33447 
L 47.903064 -105.334408 
L 47.323173 -105.334346 
L 46.743282 -105.334267 
L 46.163391 -105.334162 
L 45.5835 -105.334026 
L 45.003609 -105.33386 
L 44.423718 -105.333669 
L 43.843827 -105.333459 
L 43.263936 -105.333239 
L 42.684045 -105.333016 
L 42.104154 -105.332798 
L 41.524263 -105.332591 
L 40.944372 -105.3324 
L 40.364481 -105.332227 
L 39.78459 -105.332075 
L 39.204699 -105.331944 
L 38.624808 -105.331834 
L 38.044917 -105.331741 
L 37.465026 -105.331663 
L 36.885135 -105.331596 
L 36.305244 -105.331534 
L 35.725353 -105.331472 
L 35.145462 -105.331406 
L 34.565571 -105.331331 
L 33.98568 -105.331245 
L 33.405789 -105.331145 
L 32.825898 -105.331033 
L 32.246007 -105.33091 
L 31.666116 -105.330778 
L 31.086225 -105.330643 
L 30.506334 -105.330508 
z
" style="stroke: #21918c; stroke-width: 1.25"/>
    </defs>
    <g>
     <use xlink:href="#md7be20eeb1" x="0" y="174.899688" style="fill: #21918c; fill-opacity: 0.7; stroke: #21918c; stroke-width: 1.25"/>
    </g>
   </g>
   <g id="line2d_3">
    <path d="M 7.2 69.57 
L 216.45 69.57 
" style="fill: none; stroke: #21918c; stroke-opacity: 0.9; stroke-linecap: round"/>
   </g>
   <g id="text_3">
    <!-- 2 -->
    <g style="fill: #21918c" transform="translate(7.2 68.72325) scale(0.12 -0.12)">
     <defs>
      <path id="DejaVuSans-Bold-32" d="M 1844 884 
L 3897 884 
L 3897 0 
L 506 0 
L 506 884 
L 2209 2388 
Q 2438 2594 2547 2791 
Q 2656 2988 2656 3200 
Q 2656 3528 2436 3728 
Q 2216 3928 1850 3928 
Q 1569 3928 1234 3808 
Q 900 3688 519 3450 
L 519 4475 
Q 925 4609 1322 4679 
Q 1719 4750 2100 4750 
Q 2938 4750 3402 4381 
Q 3866 4013 3866 3353 
Q 3866 2972 3669 2642 
Q 3472 2313 2841 1759 
L 1844 884 
z
" transform="scale(0.015625)"/>
     </defs>
     <use xlink:href="#DejaVuSans-Bold-32"/>
    </g>
   </g>
  </g>
  <g id="axes_4">
   <g id="patch_5">
    <path d="M 7.2 79.965 
L 216.45 79.965 
L 216.45 38.385 
L 7.2 38.385 
L 7.2 79.965 
z
" style="fill: none"/>
   </g>
   <g id="matplotlib.axis_7">
    <g id="xtick_7"/>
    <g id="xtick_8"/>
   </g>
   <g id="matplotlib.axis_8"/>
   <g id="PolyCollection_3">
    <defs>
     <path id="mffc76fcd34" d="M 28.611685 -94.935247 
L 28.611685 -94.934688 
L 29.415055 -94.934688 
L 30.218425 -94.934688 
L 31.021795 -94.934688 
L 31.825165 -94.934688 
L 32.628535 -94.934688 
L 33.431905 -94.934688 
L 34.235275 -94.934688 
L 35.038645 -94.934688 
L 35.842015 -94.934688 
L 36.645385 -94.934688 
L 37.448755 -94.934688 
L 38.252126 -94.934688 
L 39.055496 -94.934688 
L 39.858866 -94.934688 
L 40.662236 -94.934688 
L 41.465606 -94.934688 
L 42.268976 -94.934688 
L 43.072346 -94.934688 
L 43.875716 -94.934688 
L 44.679086 -94.934688 
L 45.482456 -94.934688 
L 46.285826 -94.934688 
L 47.089196 -94.934688 
L 47.892566 -94.934688 
L 48.695936 -94.934688 
L 49.499307 -94.934688 
L 50.302677 -94.934688 
L 51.106047 -94.934688 
L 51.909417 -94.934688 
L 52.712787 -94.934688 
L 53.516157 -94.934688 
L 54.319527 -94.934688 
L 55.122897 -94.934688 
L 55.926267 -94.934688 
L 56.729637 -94.934688 
L 57.533007 -94.934688 
L 58.336377 -94.934688 
L 59.139747 -94.934688 
L 59.943117 -94.934688 
L 60.746488 -94.934688 
L 61.549858 -94.934688 
L 62.353228 -94.934688 
L 63.156598 -94.934688 
L 63.959968 -94.934688 
L 64.763338 -94.934688 
L 65.566708 -94.934688 
L 66.370078 -94.934688 
L 67.173448 -94.934688 
L 67.976818 -94.934688 
L 68.780188 -94.934688 
L 69.583558 -94.934688 
L 70.386928 -94.934688 
L 71.190298 -94.934688 
L 71.993668 -94.934688 
L 72.797039 -94.934688 
L 73.600409 -94.934688 
L 74.403779 -94.934688 
L 75.207149 -94.934688 
L 76.010519 -94.934688 
L 76.813889 -94.934688 
L 77.617259 -94.934688 
L 78.420629 -94.934688 
L 79.223999 -94.934688 
L 80.027369 -94.934688 
L 80.830739 -94.934688 
L 81.634109 -94.934688 
L 82.437479 -94.934688 
L 83.240849 -94.934688 
L 84.04422 -94.934688 
L 84.84759 -94.934688 
L 85.65096 -94.934688 
L 86.45433 -94.934688 
L 87.2577 -94.934688 
L 88.06107 -94.934688 
L 88.86444 -94.934688 
L 89.66781 -94.934688 
L 90.47118 -94.934688 
L 91.27455 -94.934688 
L 92.07792 -94.934688 
L 92.88129 -94.934688 
L 93.68466 -94.934688 
L 94.48803 -94.934688 
L 95.291401 -94.934688 
L 96.094771 -94.934688 
L 96.898141 -94.934688 
L 97.701511 -94.934688 
L 98.504881 -94.934688 
L 99.308251 -94.934688 
L 100.111621 -94.934688 
L 100.914991 -94.934688 
L 101.718361 -94.934688 
L 102.521731 -94.934688 
L 103.325101 -94.934688 
L 104.128471 -94.934688 
L 104.931841 -94.934688 
L 105.735211 -94.934688 
L 106.538582 -94.934688 
L 107.341952 -94.934688 
L 108.145322 -94.934688 
L 108.948692 -94.934688 
L 109.752062 -94.934688 
L 110.555432 -94.934688 
L 111.358802 -94.934688 
L 112.162172 -94.934688 
L 112.965542 -94.934688 
L 113.768912 -94.934688 
L 114.572282 -94.934688 
L 115.375652 -94.934688 
L 116.179022 -94.934688 
L 116.982392 -94.934688 
L 117.785762 -94.934688 
L 118.589133 -94.934688 
L 119.392503 -94.934688 
L 120.195873 -94.934688 
L 120.999243 -94.934688 
L 121.802613 -94.934688 
L 122.605983 -94.934688 
L 123.409353 -94.934688 
L 124.212723 -94.934688 
L 125.016093 -94.934688 
L 125.819463 -94.934688 
L 126.622833 -94.934688 
L 127.426203 -94.934688 
L 128.229573 -94.934688 
L 129.032943 -94.934688 
L 129.836314 -94.934688 
L 130.639684 -94.934688 
L 131.443054 -94.934688 
L 132.246424 -94.934688 
L 133.049794 -94.934688 
L 133.853164 -94.934688 
L 134.656534 -94.934688 
L 135.459904 -94.934688 
L 136.263274 -94.934688 
L 137.066644 -94.934688 
L 137.870014 -94.934688 
L 138.673384 -94.934688 
L 139.476754 -94.934688 
L 140.280124 -94.934688 
L 141.083495 -94.934688 
L 141.886865 -94.934688 
L 142.690235 -94.934688 
L 143.493605 -94.934688 
L 144.296975 -94.934688 
L 145.100345 -94.934688 
L 145.903715 -94.934688 
L 146.707085 -94.934688 
L 147.510455 -94.934688 
L 148.313825 -94.934688 
L 149.117195 -94.934688 
L 149.920565 -94.934688 
L 150.723935 -94.934688 
L 151.527305 -94.934688 
L 152.330676 -94.934688 
L 153.134046 -94.934688 
L 153.937416 -94.934688 
L 154.740786 -94.934688 
L 155.544156 -94.934688 
L 156.347526 -94.934688 
L 157.150896 -94.934688 
L 157.954266 -94.934688 
L 158.757636 -94.934688 
L 159.561006 -94.934688 
L 160.364376 -94.934688 
L 161.167746 -94.934688 
L 161.971116 -94.934688 
L 162.774486 -94.934688 
L 163.577856 -94.934688 
L 164.381227 -94.934688 
L 165.184597 -94.934688 
L 165.987967 -94.934688 
L 166.791337 -94.934688 
L 167.594707 -94.934688 
L 168.398077 -94.934688 
L 169.201447 -94.934688 
L 170.004817 -94.934688 
L 170.808187 -94.934688 
L 171.611557 -94.934688 
L 172.414927 -94.934688 
L 173.218297 -94.934688 
L 174.021667 -94.934688 
L 174.825037 -94.934688 
L 175.628408 -94.934688 
L 176.431778 -94.934688 
L 177.235148 -94.934688 
L 178.038518 -94.934688 
L 178.841888 -94.934688 
L 179.645258 -94.934688 
L 180.448628 -94.934688 
L 181.251998 -94.934688 
L 182.055368 -94.934688 
L 182.858738 -94.934688 
L 183.662108 -94.934688 
L 184.465478 -94.934688 
L 185.268848 -94.934688 
L 186.072218 -94.934688 
L 186.875589 -94.934688 
L 187.678959 -94.934688 
L 188.482329 -94.934688 
L 188.482329 -95.008463 
L 188.482329 -95.008463 
L 187.678959 -95.035139 
L 186.875589 -95.069343 
L 186.072218 -95.112447 
L 185.268848 -95.165844 
L 184.465478 -95.230872 
L 183.662108 -95.308736 
L 182.858738 -95.400403 
L 182.055368 -95.506505 
L 181.251998 -95.627235 
L 180.448628 -95.762252 
L 179.645258 -95.910602 
L 178.841888 -96.070656 
L 178.038518 -96.240087 
L 177.235148 -96.415877 
L 176.431778 -96.594373 
L 175.628408 -96.771383 
L 174.825037 -96.942325 
L 174.021667 -97.102416 
L 173.218297 -97.246903 
L 172.414927 -97.371311 
L 171.611557 -97.471703 
L 170.808187 -97.544929 
L 170.004817 -97.588837 
L 169.201447 -97.60243 
L 168.398077 -97.585954 
L 167.594707 -97.540894 
L 166.791337 -97.46989 
L 165.987967 -97.376565 
L 165.184597 -97.265284 
L 164.381227 -97.140865 
L 163.577856 -97.008275 
L 162.774486 -96.872327 
L 161.971116 -96.737414 
L 161.167746 -96.6073 
L 160.364376 -96.484984 
L 159.561006 -96.372639 
L 158.757636 -96.271622 
L 157.954266 -96.182549 
L 157.150896 -96.105418 
L 156.347526 -96.039752 
L 155.544156 -95.984749 
L 154.740786 -95.939426 
L 153.937416 -95.902729 
L 153.134046 -95.873615 
L 152.330676 -95.851098 
L 151.527305 -95.83426 
L 150.723935 -95.822243 
L 149.920565 -95.814219 
L 149.117195 -95.809359 
L 148.313825 -95.806804 
L 147.510455 -95.805654 
L 146.707085 -95.804966 
L 145.903715 -95.803777 
L 145.100345 -95.80114 
L 144.296975 -95.796176 
L 143.493605 -95.788127 
L 142.690235 -95.776415 
L 141.886865 -95.760687 
L 141.083495 -95.740845 
L 140.280124 -95.71706 
L 139.476754 -95.689761 
L 138.673384 -95.659606 
L 137.870014 -95.627432 
L 137.066644 -95.594197 
L 136.263274 -95.560905 
L 135.459904 -95.528547 
L 134.656534 -95.498031 
L 133.853164 -95.470133 
L 133.049794 -95.445462 
L 132.246424 -95.424439 
L 131.443054 -95.407288 
L 130.639684 -95.394052 
L 129.836314 -95.384608 
L 129.032943 -95.378696 
L 128.229573 -95.375958 
L 127.426203 -95.375968 
L 126.622833 -95.378271 
L 125.819463 -95.38241 
L 125.016093 -95.387955 
L 124.212723 -95.39452 
L 123.409353 -95.401774 
L 122.605983 -95.409446 
L 121.802613 -95.417317 
L 120.999243 -95.425215 
L 120.195873 -95.432996 
L 119.392503 -95.440532 
L 118.589133 -95.447693 
L 117.785762 -95.454343 
L 116.982392 -95.460331 
L 116.179022 -95.465495 
L 115.375652 -95.469674 
L 114.572282 -95.472716 
L 113.768912 -95.474498 
L 112.965542 -95.474937 
L 112.162172 -95.474 
L 111.358802 -95.471711 
L 110.555432 -95.468146 
L 109.752062 -95.463422 
L 108.948692 -95.457692 
L 108.145322 -95.451119 
L 107.341952 -95.443874 
L 106.538582 -95.436114 
L 105.735211 -95.427984 
L 104.931841 -95.419609 
L 104.128471 -95.411102 
L 103.325101 -95.402561 
L 102.521731 -95.394083 
L 101.718361 -95.385763 
L 100.914991 -95.377697 
L 100.111621 -95.36998 
L 99.308251 -95.362706 
L 98.504881 -95.355961 
L 97.701511 -95.349817 
L 96.898141 -95.344331 
L 96.094771 -95.339542 
L 95.291401 -95.335475 
L 94.48803 -95.332142 
L 93.68466 -95.32955 
L 92.88129 -95.327706 
L 92.07792 -95.32662 
L 91.27455 -95.32631 
L 90.47118 -95.326799 
L 89.66781 -95.328108 
L 88.86444 -95.330253 
L 88.06107 -95.33323 
L 87.2577 -95.337009 
L 86.45433 -95.341524 
L 85.65096 -95.34667 
L 84.84759 -95.352293 
L 84.04422 -95.358202 
L 83.240849 -95.364165 
L 82.437479 -95.369921 
L 81.634109 -95.375191 
L 80.830739 -95.379686 
L 80.027369 -95.383121 
L 79.223999 -95.385222 
L 78.420629 -95.385738 
L 77.617259 -95.384448 
L 76.813889 -95.381167 
L 76.010519 -95.375753 
L 75.207149 -95.368113 
L 74.403779 -95.358206 
L 73.600409 -95.346049 
L 72.797039 -95.331717 
L 71.993668 -95.315347 
L 71.190298 -95.29713 
L 70.386928 -95.277312 
L 69.583558 -95.256186 
L 68.780188 -95.234075 
L 67.976818 -95.211331 
L 67.173448 -95.188309 
L 66.370078 -95.165364 
L 65.566708 -95.14283 
L 64.763338 -95.121012 
L 63.959968 -95.100175 
L 63.156598 -95.080536 
L 62.353228 -95.062265 
L 61.549858 -95.045475 
L 60.746488 -95.030232 
L 59.943117 -95.016554 
L 59.139747 -95.004416 
L 58.336377 -94.993761 
L 57.533007 -94.984501 
L 56.729637 -94.976531 
L 55.926267 -94.96973 
L 55.122897 -94.963972 
L 54.319527 -94.959129 
L 53.516157 -94.955078 
L 52.712787 -94.951701 
L 51.909417 -94.948892 
L 51.106047 -94.946554 
L 50.302677 -94.944606 
L 49.499307 -94.942977 
L 48.695936 -94.94161 
L 47.892566 -94.940459 
L 47.089196 -94.939488 
L 46.285826 -94.938668 
L 45.482456 -94.937979 
L 44.679086 -94.937405 
L 43.875716 -94.936932 
L 43.072346 -94.936551 
L 42.268976 -94.936252 
L 41.465606 -94.936026 
L 40.662236 -94.935863 
L 39.858866 -94.935754 
L 39.055496 -94.935688 
L 38.252126 -94.935655 
L 37.448755 -94.935645 
L 36.645385 -94.935647 
L 35.842015 -94.935653 
L 35.038645 -94.935656 
L 34.235275 -94.935649 
L 33.431905 -94.93563 
L 32.628535 -94.935595 
L 31.825165 -94.935546 
L 31.021795 -94.935483 
L 30.218425 -94.93541 
L 29.415055 -94.93533 
L 28.611685 -94.935247 
z
" style="stroke: #44bf70; stroke-width: 1.25"/>
    </defs>
    <g>
     <use xlink:href="#mffc76fcd34" x="0" y="174.899688" style="fill: #44bf70; fill-opacity: 0.7; stroke: #44bf70; stroke-width: 1.25"/>
    </g>
   </g>
   <g id="line2d_4">
    <path d="M 7.2 79.965 
L 216.45 79.965 
" style="fill: none; stroke: #44bf70; stroke-opacity: 0.9; stroke-linecap: round"/>
   </g>
   <g id="text_4">
    <!-- 3 -->
    <g style="fill: #44bf70" transform="translate(7.2 79.11825) scale(0.12 -0.12)">
     <defs>
      <path id="DejaVuSans-Bold-33" d="M 2981 2516 
Q 3453 2394 3698 2092 
Q 3944 1791 3944 1325 
Q 3944 631 3412 270 
Q 2881 -91 1863 -91 
Q 1503 -91 1142 -33 
Q 781 25 428 141 
L 428 1069 
Q 766 900 1098 814 
Q 1431 728 1753 728 
Q 2231 728 2486 893 
Q 2741 1059 2741 1369 
Q 2741 1688 2480 1852 
Q 2219 2016 1709 2016 
L 1228 2016 
L 1228 2791 
L 1734 2791 
Q 2188 2791 2409 2933 
Q 2631 3075 2631 3366 
Q 2631 3634 2415 3781 
Q 2200 3928 1806 3928 
Q 1516 3928 1219 3862 
Q 922 3797 628 3669 
L 628 4550 
Q 984 4650 1334 4700 
Q 1684 4750 2022 4750 
Q 2931 4750 3382 4451 
Q 3834 4153 3834 3553 
Q 3834 3144 3618 2883 
Q 3403 2622 2981 2516 
z
" transform="scale(0.015625)"/>
     </defs>
     <use xlink:href="#DejaVuSans-Bold-33"/>
    </g>
   </g>
  </g>
  <g id="axes_5">
   <g id="patch_6">
    <path d="M 7.2 90.36 
L 216.45 90.36 
L 216.45 48.78 
L 7.2 48.78 
L 7.2 90.36 
z
" style="fill: none"/>
   </g>
   <g id="matplotlib.axis_9">
    <g id="xtick_9"/>
    <g id="xtick_10"/>
   </g>
   <g id="matplotlib.axis_10"/>
   <g id="PolyCollection_4">
    <defs>
     <path id="m128aee5509" d="M 21.955216 -84.540187 
L 21.955216 -84.539688 
L 22.884781 -84.539688 
L 23.814346 -84.539688 
L 24.743911 -84.539688 
L 25.673475 -84.539688 
L 26.60304 -84.539688 
L 27.532605 -84.539688 
L 28.46217 -84.539688 
L 29.391735 -84.539688 
L 30.3213 -84.539688 
L 31.250865 -84.539688 
L 32.18043 -84.539688 
L 33.109995 -84.539688 
L 34.03956 -84.539688 
L 34.969125 -84.539688 
L 35.89869 -84.539688 
L 36.828255 -84.539688 
L 37.75782 -84.539688 
L 38.687384 -84.539688 
L 39.616949 -84.539688 
L 40.546514 -84.539688 
L 41.476079 -84.539688 
L 42.405644 -84.539688 
L 43.335209 -84.539688 
L 44.264774 -84.539688 
L 45.194339 -84.539688 
L 46.123904 -84.539688 
L 47.053469 -84.539688 
L 47.983034 -84.539688 
L 48.912599 -84.539688 
L 49.842164 -84.539688 
L 50.771729 -84.539688 
L 51.701293 -84.539688 
L 52.630858 -84.539688 
L 53.560423 -84.539688 
L 54.489988 -84.539688 
L 55.419553 -84.539688 
L 56.349118 -84.539688 
L 57.278683 -84.539688 
L 58.208248 -84.539688 
L 59.137813 -84.539688 
L 60.067378 -84.539688 
L 60.996943 -84.539688 
L 61.926508 -84.539688 
L 62.856073 -84.539688 
L 63.785638 -84.539688 
L 64.715202 -84.539688 
L 65.644767 -84.539688 
L 66.574332 -84.539688 
L 67.503897 -84.539688 
L 68.433462 -84.539688 
L 69.363027 -84.539688 
L 70.292592 -84.539688 
L 71.222157 -84.539688 
L 72.151722 -84.539688 
L 73.081287 -84.539688 
L 74.010852 -84.539688 
L 74.940417 -84.539688 
L 75.869982 -84.539688 
L 76.799547 -84.539688 
L 77.729111 -84.539688 
L 78.658676 -84.539688 
L 79.588241 -84.539688 
L 80.517806 -84.539688 
L 81.447371 -84.539688 
L 82.376936 -84.539688 
L 83.306501 -84.539688 
L 84.236066 -84.539688 
L 85.165631 -84.539688 
L 86.095196 -84.539688 
L 87.024761 -84.539688 
L 87.954326 -84.539688 
L 88.883891 -84.539688 
L 89.813455 -84.539688 
L 90.74302 -84.539688 
L 91.672585 -84.539688 
L 92.60215 -84.539688 
L 93.531715 -84.539688 
L 94.46128 -84.539688 
L 95.390845 -84.539688 
L 96.32041 -84.539688 
L 97.249975 -84.539688 
L 98.17954 -84.539688 
L 99.109105 -84.539688 
L 100.03867 -84.539688 
L 100.968235 -84.539688 
L 101.8978 -84.539688 
L 102.827364 -84.539688 
L 103.756929 -84.539688 
L 104.686494 -84.539688 
L 105.616059 -84.539688 
L 106.545624 -84.539688 
L 107.475189 -84.539688 
L 108.404754 -84.539688 
L 109.334319 -84.539688 
L 110.263884 -84.539688 
L 111.193449 -84.539688 
L 112.123014 -84.539688 
L 113.052579 -84.539688 
L 113.982144 -84.539688 
L 114.911709 -84.539688 
L 115.841273 -84.539688 
L 116.770838 -84.539688 
L 117.700403 -84.539688 
L 118.629968 -84.539688 
L 119.559533 -84.539688 
L 120.489098 -84.539688 
L 121.418663 -84.539688 
L 122.348228 -84.539688 
L 123.277793 -84.539688 
L 124.207358 -84.539688 
L 125.136923 -84.539688 
L 126.066488 -84.539688 
L 126.996053 -84.539688 
L 127.925618 -84.539688 
L 128.855182 -84.539688 
L 129.784747 -84.539688 
L 130.714312 -84.539688 
L 131.643877 -84.539688 
L 132.573442 -84.539688 
L 133.503007 -84.539688 
L 134.432572 -84.539688 
L 135.362137 -84.539688 
L 136.291702 -84.539688 
L 137.221267 -84.539688 
L 138.150832 -84.539688 
L 139.080397 -84.539688 
L 140.009962 -84.539688 
L 140.939527 -84.539688 
L 141.869091 -84.539688 
L 142.798656 -84.539688 
L 143.728221 -84.539688 
L 144.657786 -84.539688 
L 145.587351 -84.539688 
L 146.516916 -84.539688 
L 147.446481 -84.539688 
L 148.376046 -84.539688 
L 149.305611 -84.539688 
L 150.235176 -84.539688 
L 151.164741 -84.539688 
L 152.094306 -84.539688 
L 153.023871 -84.539688 
L 153.953435 -84.539688 
L 154.883 -84.539688 
L 155.812565 -84.539688 
L 156.74213 -84.539688 
L 157.671695 -84.539688 
L 158.60126 -84.539688 
L 159.530825 -84.539688 
L 160.46039 -84.539688 
L 161.389955 -84.539688 
L 162.31952 -84.539688 
L 163.249085 -84.539688 
L 164.17865 -84.539688 
L 165.108215 -84.539688 
L 166.03778 -84.539688 
L 166.967344 -84.539688 
L 167.896909 -84.539688 
L 168.826474 -84.539688 
L 169.756039 -84.539688 
L 170.685604 -84.539688 
L 171.615169 -84.539688 
L 172.544734 -84.539688 
L 173.474299 -84.539688 
L 174.403864 -84.539688 
L 175.333429 -84.539688 
L 176.262994 -84.539688 
L 177.192559 -84.539688 
L 178.122124 -84.539688 
L 179.051689 -84.539688 
L 179.981253 -84.539688 
L 180.910818 -84.539688 
L 181.840383 -84.539688 
L 182.769948 -84.539688 
L 183.699513 -84.539688 
L 184.629078 -84.539688 
L 185.558643 -84.539688 
L 186.488208 -84.539688 
L 187.417773 -84.539688 
L 188.347338 -84.539688 
L 189.276903 -84.539688 
L 190.206468 -84.539688 
L 191.136033 -84.539688 
L 192.065598 -84.539688 
L 192.995162 -84.539688 
L 193.924727 -84.539688 
L 194.854292 -84.539688 
L 195.783857 -84.539688 
L 196.713422 -84.539688 
L 197.642987 -84.539688 
L 198.572552 -84.539688 
L 199.502117 -84.539688 
L 200.431682 -84.539688 
L 201.361247 -84.539688 
L 202.290812 -84.539688 
L 203.220377 -84.539688 
L 204.149942 -84.539688 
L 205.079507 -84.539688 
L 206.009071 -84.539688 
L 206.938636 -84.539688 
L 206.938636 -84.55643 
L 206.938636 -84.55643 
L 206.009071 -84.563602 
L 205.079507 -84.573337 
L 204.149942 -84.586332 
L 203.220377 -84.603395 
L 202.290812 -84.625431 
L 201.361247 -84.653422 
L 200.431682 -84.688394 
L 199.502117 -84.73137 
L 198.572552 -84.783314 
L 197.642987 -84.845063 
L 196.713422 -84.91726 
L 195.783857 -85.000279 
L 194.854292 -85.094156 
L 193.924727 -85.19854 
L 192.995162 -85.312644 
L 192.065598 -85.435231 
L 191.136033 -85.564612 
L 190.206468 -85.698679 
L 189.276903 -85.834952 
L 188.347338 -85.970653 
L 187.417773 -86.102803 
L 186.488208 -86.228329 
L 185.558643 -86.344187 
L 184.629078 -86.447488 
L 183.699513 -86.53563 
L 182.769948 -86.606422 
L 181.840383 -86.658192 
L 180.910818 -86.689881 
L 179.981253 -86.701108 
L 179.051689 -86.6922 
L 178.122124 -86.664185 
L 177.192559 -86.618743 
L 176.262994 -86.558117 
L 175.333429 -86.484991 
L 174.403864 -86.402336 
L 173.474299 -86.313244 
L 172.544734 -86.220759 
L 171.615169 -86.127716 
L 170.685604 -86.036611 
L 169.756039 -85.949498 
L 168.826474 -85.867938 
L 167.896909 -85.792974 
L 166.967344 -85.725168 
L 166.03778 -85.66465 
L 165.108215 -85.611206 
L 164.17865 -85.564367 
L 163.249085 -85.523505 
L 162.31952 -85.487915 
L 161.389955 -85.456884 
L 160.46039 -85.429737 
L 159.530825 -85.405863 
L 158.60126 -85.384722 
L 157.671695 -85.365839 
L 156.74213 -85.348788 
L 155.812565 -85.333172 
L 154.883 -85.318608 
L 153.953435 -85.304715 
L 153.023871 -85.291116 
L 152.094306 -85.277437 
L 151.164741 -85.263325 
L 150.235176 -85.248464 
L 149.305611 -85.232595 
L 148.376046 -85.215536 
L 147.446481 -85.197197 
L 146.516916 -85.177587 
L 145.587351 -85.156817 
L 144.657786 -85.135099 
L 143.728221 -85.112728 
L 142.798656 -85.09007 
L 141.869091 -85.067541 
L 140.939527 -85.045581 
L 140.009962 -85.024636 
L 139.080397 -85.005129 
L 138.150832 -84.987447 
L 137.221267 -84.971918 
L 136.291702 -84.958798 
L 135.362137 -84.948261 
L 134.432572 -84.940395 
L 133.503007 -84.935194 
L 132.573442 -84.932568 
L 131.643877 -84.932342 
L 130.714312 -84.934273 
L 129.784747 -84.938061 
L 128.855182 -84.943363 
L 127.925618 -84.949811 
L 126.996053 -84.957029 
L 126.066488 -84.964649 
L 125.136923 -84.972326 
L 124.207358 -84.979749 
L 123.277793 -84.986648 
L 122.348228 -84.992803 
L 121.418663 -84.998047 
L 120.489098 -85.002261 
L 119.559533 -85.005379 
L 118.629968 -85.007376 
L 117.700403 -85.008266 
L 116.770838 -85.008096 
L 115.841273 -85.006938 
L 114.911709 -85.004883 
L 113.982144 -85.00204 
L 113.052579 -84.998529 
L 112.123014 -84.99448 
L 111.193449 -84.990028 
L 110.263884 -84.985311 
L 109.334319 -84.980463 
L 108.404754 -84.975611 
L 107.475189 -84.970866 
L 106.545624 -84.966319 
L 105.616059 -84.962033 
L 104.686494 -84.958042 
L 103.756929 -84.954346 
L 102.827364 -84.950921 
L 101.8978 -84.947716 
L 100.968235 -84.944669 
L 100.03867 -84.941714 
L 99.109105 -84.938791 
L 98.17954 -84.935859 
L 97.249975 -84.932905 
L 96.32041 -84.929946 
L 95.390845 -84.927032 
L 94.46128 -84.924248 
L 93.531715 -84.921702 
L 92.60215 -84.919521 
L 91.672585 -84.91784 
L 90.74302 -84.916784 
L 89.813455 -84.916458 
L 88.883891 -84.916937 
L 87.954326 -84.918254 
L 87.024761 -84.920389 
L 86.095196 -84.923274 
L 85.165631 -84.926784 
L 84.236066 -84.930744 
L 83.306501 -84.934934 
L 82.376936 -84.939092 
L 81.447371 -84.942928 
L 80.517806 -84.946129 
L 79.588241 -84.948368 
L 78.658676 -84.949318 
L 77.729111 -84.948665 
L 76.799547 -84.946119 
L 75.869982 -84.94143 
L 74.940417 -84.934403 
L 74.010852 -84.924911 
L 73.081287 -84.912911 
L 72.151722 -84.898446 
L 71.222157 -84.881656 
L 70.292592 -84.86277 
L 69.363027 -84.842105 
L 68.433462 -84.820045 
L 67.503897 -84.797027 
L 66.574332 -84.773519 
L 65.644767 -84.749992 
L 64.715202 -84.726901 
L 63.785638 -84.70466 
L 62.856073 -84.683625 
L 61.926508 -84.664079 
L 60.996943 -84.646227 
L 60.067378 -84.630192 
L 59.137813 -84.616018 
L 58.208248 -84.603682 
L 57.278683 -84.593099 
L 56.349118 -84.584141 
L 55.419553 -84.576646 
L 54.489988 -84.570439 
L 53.560423 -84.565335 
L 52.630858 -84.561158 
L 51.701293 -84.557743 
L 50.771729 -84.554945 
L 49.842164 -84.552638 
L 48.912599 -84.550719 
L 47.983034 -84.549106 
L 47.053469 -84.547734 
L 46.123904 -84.546556 
L 45.194339 -84.545536 
L 44.264774 -84.54465 
L 43.335209 -84.543879 
L 42.405644 -84.543211 
L 41.476079 -84.542637 
L 40.546514 -84.542148 
L 39.616949 -84.541739 
L 38.687384 -84.541404 
L 37.75782 -84.541137 
L 36.828255 -84.540931 
L 35.89869 -84.54078 
L 34.969125 -84.540676 
L 34.03956 -84.540611 
L 33.109995 -84.540575 
L 32.18043 -84.540561 
L 31.250865 -84.54056 
L 30.3213 -84.540564 
L 29.391735 -84.540565 
L 28.46217 -84.540559 
L 27.532605 -84.540541 
L 26.60304 -84.540509 
L 25.673475 -84.540464 
L 24.743911 -84.540406 
L 23.814346 -84.540339 
L 22.884781 -84.540264 
L 21.955216 -84.540187 
z
" style="stroke: #bddf26; stroke-width: 1.25"/>
    </defs>
    <g>
     <use xlink:href="#m128aee5509" x="0" y="174.899688" style="fill: #bddf26; fill-opacity: 0.7; stroke: #bddf26; stroke-width: 1.25"/>
    </g>
   </g>
   <g id="line2d_5">
    <path d="M 7.2 90.36 
L 216.45 90.36 
" style="fill: none; stroke: #bddf26; stroke-opacity: 0.9; stroke-linecap: round"/>
   </g>
   <g id="text_5">
    <!-- 4 -->
    <g style="fill: #bddf26" transform="translate(7.2 89.51325) scale(0.12 -0.12)">
     <defs>
      <path id="DejaVuSans-Bold-34" d="M 2356 3675 
L 1038 1722 
L 2356 1722 
L 2356 3675 
z
M 2156 4666 
L 3494 4666 
L 3494 1722 
L 4159 1722 
L 4159 850 
L 3494 850 
L 3494 0 
L 2356 0 
L 2356 850 
L 288 850 
L 288 1881 
L 2156 4666 
z
" transform="scale(0.015625)"/>
     </defs>
     <use xlink:href="#DejaVuSans-Bold-34"/>
    </g>
   </g>
  </g>
  <g id="axes_6">
   <g id="patch_7">
    <path d="M 7.2 100.755 
L 216.45 100.755 
L 216.45 59.175 
L 7.2 59.175 
L 7.2 100.755 
z
" style="fill: none"/>
   </g>
   <g id="matplotlib.axis_11">
    <g id="xtick_11"/>
    <g id="xtick_12"/>
   </g>
   <g id="matplotlib.axis_12"/>
   <g id="PolyCollection_5">
    <defs>
     <path id="md9a456a76e" d="M 21.503359 -74.145244 
L 21.503359 -74.144688 
L 22.343979 -74.144688 
L 23.184599 -74.144688 
L 24.02522 -74.144688 
L 24.86584 -74.144688 
L 25.70646 -74.144688 
L 26.54708 -74.144688 
L 27.3877 -74.144688 
L 28.228321 -74.144688 
L 29.068941 -74.144688 
L 29.909561 -74.144688 
L 30.750181 -74.144688 
L 31.590801 -74.144688 
L 32.431422 -74.144688 
L 33.272042 -74.144688 
L 34.112662 -74.144688 
L 34.953282 -74.144688 
L 35.793902 -74.144688 
L 36.634523 -74.144688 
L 37.475143 -74.144688 
L 38.315763 -74.144688 
L 39.156383 -74.144688 
L 39.997003 -74.144688 
L 40.837624 -74.144688 
L 41.678244 -74.144688 
L 42.518864 -74.144688 
L 43.359484 -74.144688 
L 44.200104 -74.144688 
L 45.040725 -74.144688 
L 45.881345 -74.144688 
L 46.721965 -74.144688 
L 47.562585 -74.144688 
L 48.403205 -74.144688 
L 49.243826 -74.144688 
L 50.084446 -74.144688 
L 50.925066 -74.144688 
L 51.765686 -74.144688 
L 52.606306 -74.144688 
L 53.446927 -74.144688 
L 54.287547 -74.144688 
L 55.128167 -74.144688 
L 55.968787 -74.144688 
L 56.809407 -74.144688 
L 57.650028 -74.144688 
L 58.490648 -74.144688 
L 59.331268 -74.144688 
L 60.171888 -74.144688 
L 61.012508 -74.144688 
L 61.853129 -74.144688 
L 62.693749 -74.144688 
L 63.534369 -74.144688 
L 64.374989 -74.144688 
L 65.215609 -74.144688 
L 66.05623 -74.144688 
L 66.89685 -74.144688 
L 67.73747 -74.144688 
L 68.57809 -74.144688 
L 69.41871 -74.144688 
L 70.259331 -74.144688 
L 71.099951 -74.144688 
L 71.940571 -74.144688 
L 72.781191 -74.144688 
L 73.621811 -74.144688 
L 74.462432 -74.144688 
L 75.303052 -74.144688 
L 76.143672 -74.144688 
L 76.984292 -74.144688 
L 77.824912 -74.144688 
L 78.665533 -74.144688 
L 79.506153 -74.144688 
L 80.346773 -74.144688 
L 81.187393 -74.144688 
L 82.028013 -74.144688 
L 82.868634 -74.144688 
L 83.709254 -74.144688 
L 84.549874 -74.144688 
L 85.390494 -74.144688 
L 86.231114 -74.144688 
L 87.071735 -74.144688 
L 87.912355 -74.144688 
L 88.752975 -74.144688 
L 89.593595 -74.144688 
L 90.434215 -74.144688 
L 91.274836 -74.144688 
L 92.115456 -74.144688 
L 92.956076 -74.144688 
L 93.796696 -74.144688 
L 94.637316 -74.144688 
L 95.477937 -74.144688 
L 96.318557 -74.144688 
L 97.159177 -74.144688 
L 97.999797 -74.144688 
L 98.840417 -74.144688 
L 99.681037 -74.144688 
L 100.521658 -74.144688 
L 101.362278 -74.144688 
L 102.202898 -74.144688 
L 103.043518 -74.144688 
L 103.884138 -74.144688 
L 104.724759 -74.144688 
L 105.565379 -74.144688 
L 106.405999 -74.144688 
L 107.246619 -74.144688 
L 108.087239 -74.144688 
L 108.92786 -74.144688 
L 109.76848 -74.144688 
L 110.6091 -74.144688 
L 111.44972 -74.144688 
L 112.29034 -74.144688 
L 113.130961 -74.144688 
L 113.971581 -74.144688 
L 114.812201 -74.144688 
L 115.652821 -74.144688 
L 116.493441 -74.144688 
L 117.334062 -74.144688 
L 118.174682 -74.144688 
L 119.015302 -74.144688 
L 119.855922 -74.144688 
L 120.696542 -74.144688 
L 121.537163 -74.144688 
L 122.377783 -74.144688 
L 123.218403 -74.144688 
L 124.059023 -74.144688 
L 124.899643 -74.144688 
L 125.740264 -74.144688 
L 126.580884 -74.144688 
L 127.421504 -74.144688 
L 128.262124 -74.144688 
L 129.102744 -74.144688 
L 129.943365 -74.144688 
L 130.783985 -74.144688 
L 131.624605 -74.144688 
L 132.465225 -74.144688 
L 133.305845 -74.144688 
L 134.146466 -74.144688 
L 134.987086 -74.144688 
L 135.827706 -74.144688 
L 136.668326 -74.144688 
L 137.508946 -74.144688 
L 138.349567 -74.144688 
L 139.190187 -74.144688 
L 140.030807 -74.144688 
L 140.871427 -74.144688 
L 141.712047 -74.144688 
L 142.552668 -74.144688 
L 143.393288 -74.144688 
L 144.233908 -74.144688 
L 145.074528 -74.144688 
L 145.915148 -74.144688 
L 146.755769 -74.144688 
L 147.596389 -74.144688 
L 148.437009 -74.144688 
L 149.277629 -74.144688 
L 150.118249 -74.144688 
L 150.95887 -74.144688 
L 151.79949 -74.144688 
L 152.64011 -74.144688 
L 153.48073 -74.144688 
L 154.32135 -74.144688 
L 155.161971 -74.144688 
L 156.002591 -74.144688 
L 156.843211 -74.144688 
L 157.683831 -74.144688 
L 158.524451 -74.144688 
L 159.365072 -74.144688 
L 160.205692 -74.144688 
L 161.046312 -74.144688 
L 161.886932 -74.144688 
L 162.727552 -74.144688 
L 163.568173 -74.144688 
L 164.408793 -74.144688 
L 165.249413 -74.144688 
L 166.090033 -74.144688 
L 166.930653 -74.144688 
L 167.771274 -74.144688 
L 168.611894 -74.144688 
L 169.452514 -74.144688 
L 170.293134 -74.144688 
L 171.133754 -74.144688 
L 171.974375 -74.144688 
L 172.814995 -74.144688 
L 173.655615 -74.144688 
L 174.496235 -74.144688 
L 175.336855 -74.144688 
L 176.177476 -74.144688 
L 177.018096 -74.144688 
L 177.858716 -74.144688 
L 178.699336 -74.144688 
L 179.539956 -74.144688 
L 180.380577 -74.144688 
L 181.221197 -74.144688 
L 182.061817 -74.144688 
L 182.902437 -74.144688 
L 183.743057 -74.144688 
L 184.583678 -74.144688 
L 185.424298 -74.144688 
L 186.264918 -74.144688 
L 187.105538 -74.144688 
L 187.946158 -74.144688 
L 188.786779 -74.144688 
L 188.786779 -74.211154 
L 188.786779 -74.211154 
L 187.946158 -74.2367 
L 187.105538 -74.269979 
L 186.264918 -74.312541 
L 185.424298 -74.365991 
L 184.583678 -74.431903 
L 183.743057 -74.511718 
L 182.902437 -74.606619 
L 182.061817 -74.717402 
L 181.221197 -74.844342 
L 180.380577 -74.98706 
L 179.539956 -75.144421 
L 178.699336 -75.314452 
L 177.858716 -75.494313 
L 177.018096 -75.680317 
L 176.177476 -75.868014 
L 175.336855 -76.052341 
L 174.496235 -76.227838 
L 173.655615 -76.388921 
L 172.814995 -76.530191 
L 171.974375 -76.64677 
L 171.133754 -76.734624 
L 170.293134 -76.790848 
L 169.452514 -76.813894 
L 168.611894 -76.803694 
L 167.771274 -76.761682 
L 166.930653 -76.690701 
L 166.090033 -76.594801 
L 165.249413 -76.47894 
L 164.408793 -76.34863 
L 163.568173 -76.209554 
L 162.727552 -76.067197 
L 161.886932 -75.926514 
L 161.046312 -75.791689 
L 160.205692 -75.665974 
L 159.365072 -75.551631 
L 158.524451 -75.449969 
L 157.683831 -75.361452 
L 156.843211 -75.285861 
L 156.002591 -75.22248 
L 155.161971 -75.170279 
L 154.32135 -75.128076 
L 153.48073 -75.094658 
L 152.64011 -75.068862 
L 151.79949 -75.049605 
L 150.95887 -75.03588 
L 150.118249 -75.026728 
L 149.277629 -75.021199 
L 148.437009 -75.018318 
L 147.596389 -75.017056 
L 146.755769 -75.016336 
L 145.915148 -75.015056 
L 145.074528 -75.012133 
L 144.233908 -75.006566 
L 143.393288 -74.99751 
L 142.552668 -74.984342 
L 141.712047 -74.966718 
L 140.871427 -74.944605 
L 140.030807 -74.918295 
L 139.190187 -74.88838 
L 138.349567 -74.855708 
L 137.508946 -74.821315 
L 136.668326 -74.786344 
L 135.827706 -74.751956 
L 134.987086 -74.719243 
L 134.146466 -74.689165 
L 133.305845 -74.662485 
L 132.465225 -74.63974 
L 131.624605 -74.621228 
L 130.783985 -74.607012 
L 129.943365 -74.59695 
L 129.102744 -74.59073 
L 128.262124 -74.587914 
L 127.421504 -74.587991 
L 126.580884 -74.590419 
L 125.740264 -74.594672 
L 124.899643 -74.600272 
L 124.059023 -74.606811 
L 123.218403 -74.613964 
L 122.377783 -74.621484 
L 121.537163 -74.629194 
L 120.696542 -74.636967 
L 119.855922 -74.644698 
L 119.015302 -74.652282 
L 118.174682 -74.659592 
L 117.334062 -74.666467 
L 116.493441 -74.672708 
L 115.652821 -74.678085 
L 114.812201 -74.682361 
L 113.971581 -74.685304 
L 113.130961 -74.686725 
L 112.29034 -74.686491 
L 111.44972 -74.684549 
L 110.6091 -74.68093 
L 109.76848 -74.675747 
L 108.92786 -74.66918 
L 108.087239 -74.661463 
L 107.246619 -74.652858 
L 106.405999 -74.643635 
L 105.565379 -74.634049 
L 104.724759 -74.624333 
L 103.884138 -74.614687 
L 103.043518 -74.605275 
L 102.202898 -74.596227 
L 101.362278 -74.587646 
L 100.521658 -74.579606 
L 99.681037 -74.572163 
L 98.840417 -74.565351 
L 97.999797 -74.559194 
L 97.159177 -74.5537 
L 96.318557 -74.548873 
L 95.477937 -74.544715 
L 94.637316 -74.541236 
L 93.796696 -74.538453 
L 92.956076 -74.5364 
L 92.115456 -74.53512 
L 91.274836 -74.534665 
L 90.434215 -74.535086 
L 89.593595 -74.536416 
L 88.752975 -74.538661 
L 87.912355 -74.541787 
L 87.071735 -74.545709 
L 86.231114 -74.550294 
L 85.390494 -74.555362 
L 84.549874 -74.560692 
L 83.709254 -74.566038 
L 82.868634 -74.571143 
L 82.028013 -74.575748 
L 81.187393 -74.579607 
L 80.346773 -74.582488 
L 79.506153 -74.584178 
L 78.665533 -74.584484 
L 77.824912 -74.583227 
L 76.984292 -74.580246 
L 76.143672 -74.575394 
L 75.303052 -74.568546 
L 74.462432 -74.559607 
L 73.621811 -74.54852 
L 72.781191 -74.535281 
L 71.940571 -74.519947 
L 71.099951 -74.502645 
L 70.259331 -74.483575 
L 69.41871 -74.463005 
L 68.57809 -74.441264 
L 67.73747 -74.418724 
L 66.89685 -74.395784 
L 66.05623 -74.372845 
L 65.215609 -74.35029 
L 64.374989 -74.328468 
L 63.534369 -74.307674 
L 62.693749 -74.288144 
L 61.853129 -74.27005 
L 61.012508 -74.253499 
L 60.171888 -74.23854 
L 59.331268 -74.22517 
L 58.490648 -74.213346 
L 57.650028 -74.20299 
L 56.809407 -74.194003 
L 55.968787 -74.186269 
L 55.128167 -74.179665 
L 54.287547 -74.174064 
L 53.446927 -74.169341 
L 52.606306 -74.165376 
L 51.765686 -74.162056 
L 50.925066 -74.159278 
L 50.084446 -74.156951 
L 49.243826 -74.154995 
L 48.403205 -74.153342 
L 47.562585 -74.151938 
L 46.721965 -74.150738 
L 45.881345 -74.149708 
L 45.040725 -74.148823 
L 44.200104 -74.148063 
L 43.359484 -74.147413 
L 42.518864 -74.146864 
L 41.678244 -74.146406 
L 40.837624 -74.14603 
L 39.997003 -74.14573 
L 39.156383 -74.145499 
L 38.315763 -74.145328 
L 37.475143 -74.145212 
L 36.634523 -74.145142 
L 35.793902 -74.145113 
L 34.953282 -74.145117 
L 34.112662 -74.145148 
L 33.272042 -74.145199 
L 32.431422 -74.145265 
L 31.590801 -74.145338 
L 30.750181 -74.145412 
L 29.909561 -74.145481 
L 29.068941 -74.145539 
L 28.228321 -74.14558 
L 27.3877 -74.145603 
L 26.54708 -74.145604 
L 25.70646 -74.145583 
L 24.86584 -74.145542 
L 24.02522 -74.145484 
L 23.184599 -74.145412 
L 22.343979 -74.14533 
L 21.503359 -74.145244 
z
" style="stroke: #7ad151; stroke-width: 1.25"/>
    </defs>
    <g>
     <use xlink:href="#md9a456a76e" x="0" y="174.899688" style="fill: #7ad151; fill-opacity: 0.7; stroke: #7ad151; stroke-width: 1.25"/>
    </g>
   </g>
   <g id="line2d_6">
    <path d="M 7.2 100.755 
L 216.45 100.755 
" style="fill: none; stroke: #7ad151; stroke-opacity: 0.9; stroke-linecap: round"/>
   </g>
   <g id="text_6">
    <!-- 5 -->
    <g style="fill: #7ad151" transform="translate(7.2 99.90825) scale(0.12 -0.12)">
     <defs>
      <path id="DejaVuSans-Bold-35" d="M 678 4666 
L 3669 4666 
L 3669 3781 
L 1638 3781 
L 1638 3059 
Q 1775 3097 1914 3117 
Q 2053 3138 2203 3138 
Q 3056 3138 3531 2711 
Q 4006 2284 4006 1522 
Q 4006 766 3489 337 
Q 2972 -91 2053 -91 
Q 1656 -91 1267 -14 
Q 878 63 494 219 
L 494 1166 
Q 875 947 1217 837 
Q 1559 728 1863 728 
Q 2300 728 2551 942 
Q 2803 1156 2803 1522 
Q 2803 1891 2551 2103 
Q 2300 2316 1863 2316 
Q 1603 2316 1309 2248 
Q 1016 2181 678 2041 
L 678 4666 
z
" transform="scale(0.015625)"/>
     </defs>
     <use xlink:href="#DejaVuSans-Bold-35"/>
    </g>
   </g>
  </g>
  <g id="axes_7">
   <g id="patch_8">
    <path d="M 7.2 111.15 
L 216.45 111.15 
L 216.45 69.57 
L 7.2 69.57 
L 7.2 111.15 
z
" style="fill: none"/>
   </g>
   <g id="matplotlib.axis_13">
    <g id="xtick_13"/>
    <g id="xtick_14"/>
   </g>
   <g id="matplotlib.axis_14"/>
   <g id="PolyCollection_6">
    <defs>
     <path id="m2411ec0fcc" d="M 19.980102 -63.750472 
L 19.980102 -63.749688 
L 20.613993 -63.749688 
L 21.247884 -63.749688 
L 21.881775 -63.749688 
L 22.515665 -63.749688 
L 23.149556 -63.749688 
L 23.783447 -63.749688 
L 24.417338 -63.749688 
L 25.051229 -63.749688 
L 25.685119 -63.749688 
L 26.31901 -63.749688 
L 26.952901 -63.749688 
L 27.586792 -63.749688 
L 28.220683 -63.749688 
L 28.854573 -63.749688 
L 29.488464 -63.749688 
L 30.122355 -63.749688 
L 30.756246 -63.749688 
L 31.390137 -63.749688 
L 32.024027 -63.749688 
L 32.657918 -63.749688 
L 33.291809 -63.749688 
L 33.9257 -63.749688 
L 34.559591 -63.749688 
L 35.193481 -63.749688 
L 35.827372 -63.749688 
L 36.461263 -63.749688 
L 37.095154 -63.749688 
L 37.729045 -63.749688 
L 38.362935 -63.749688 
L 38.996826 -63.749688 
L 39.630717 -63.749688 
L 40.264608 -63.749688 
L 40.898499 -63.749688 
L 41.532389 -63.749688 
L 42.16628 -63.749688 
L 42.800171 -63.749688 
L 43.434062 -63.749688 
L 44.067953 -63.749688 
L 44.701843 -63.749688 
L 45.335734 -63.749688 
L 45.969625 -63.749688 
L 46.603516 -63.749688 
L 47.237407 -63.749688 
L 47.871297 -63.749688 
L 48.505188 -63.749688 
L 49.139079 -63.749688 
L 49.77297 -63.749688 
L 50.406861 -63.749688 
L 51.040751 -63.749688 
L 51.674642 -63.749688 
L 52.308533 -63.749688 
L 52.942424 -63.749688 
L 53.576314 -63.749688 
L 54.210205 -63.749688 
L 54.844096 -63.749688 
L 55.477987 -63.749688 
L 56.111878 -63.749688 
L 56.745768 -63.749688 
L 57.379659 -63.749688 
L 58.01355 -63.749688 
L 58.647441 -63.749688 
L 59.281332 -63.749688 
L 59.915222 -63.749688 
L 60.549113 -63.749688 
L 61.183004 -63.749688 
L 61.816895 -63.749688 
L 62.450786 -63.749688 
L 63.084676 -63.749688 
L 63.718567 -63.749688 
L 64.352458 -63.749688 
L 64.986349 -63.749688 
L 65.62024 -63.749688 
L 66.25413 -63.749688 
L 66.888021 -63.749688 
L 67.521912 -63.749688 
L 68.155803 -63.749688 
L 68.789694 -63.749688 
L 69.423584 -63.749688 
L 70.057475 -63.749688 
L 70.691366 -63.749688 
L 71.325257 -63.749688 
L 71.959148 -63.749688 
L 72.593038 -63.749688 
L 73.226929 -63.749688 
L 73.86082 -63.749688 
L 74.494711 -63.749688 
L 75.128602 -63.749688 
L 75.762492 -63.749688 
L 76.396383 -63.749688 
L 77.030274 -63.749688 
L 77.664165 -63.749688 
L 78.298056 -63.749688 
L 78.931946 -63.749688 
L 79.565837 -63.749688 
L 80.199728 -63.749688 
L 80.833619 -63.749688 
L 81.46751 -63.749688 
L 82.1014 -63.749688 
L 82.735291 -63.749688 
L 83.369182 -63.749688 
L 84.003073 -63.749688 
L 84.636964 -63.749688 
L 85.270854 -63.749688 
L 85.904745 -63.749688 
L 86.538636 -63.749688 
L 87.172527 -63.749688 
L 87.806418 -63.749688 
L 88.440308 -63.749688 
L 89.074199 -63.749688 
L 89.70809 -63.749688 
L 90.341981 -63.749688 
L 90.975871 -63.749688 
L 91.609762 -63.749688 
L 92.243653 -63.749688 
L 92.877544 -63.749688 
L 93.511435 -63.749688 
L 94.145325 -63.749688 
L 94.779216 -63.749688 
L 95.413107 -63.749688 
L 96.046998 -63.749688 
L 96.680889 -63.749688 
L 97.314779 -63.749688 
L 97.94867 -63.749688 
L 98.582561 -63.749688 
L 99.216452 -63.749688 
L 99.850343 -63.749688 
L 100.484233 -63.749688 
L 101.118124 -63.749688 
L 101.752015 -63.749688 
L 102.385906 -63.749688 
L 103.019797 -63.749688 
L 103.653687 -63.749688 
L 104.287578 -63.749688 
L 104.921469 -63.749688 
L 105.55536 -63.749688 
L 106.189251 -63.749688 
L 106.823141 -63.749688 
L 107.457032 -63.749688 
L 108.090923 -63.749688 
L 108.724814 -63.749688 
L 109.358705 -63.749688 
L 109.992595 -63.749688 
L 110.626486 -63.749688 
L 111.260377 -63.749688 
L 111.894268 -63.749688 
L 112.528159 -63.749688 
L 113.162049 -63.749688 
L 113.79594 -63.749688 
L 114.429831 -63.749688 
L 115.063722 -63.749688 
L 115.697613 -63.749688 
L 116.331503 -63.749688 
L 116.965394 -63.749688 
L 117.599285 -63.749688 
L 118.233176 -63.749688 
L 118.867067 -63.749688 
L 119.500957 -63.749688 
L 120.134848 -63.749688 
L 120.768739 -63.749688 
L 121.40263 -63.749688 
L 122.036521 -63.749688 
L 122.670411 -63.749688 
L 123.304302 -63.749688 
L 123.938193 -63.749688 
L 124.572084 -63.749688 
L 125.205975 -63.749688 
L 125.839865 -63.749688 
L 126.473756 -63.749688 
L 127.107647 -63.749688 
L 127.741538 -63.749688 
L 128.375428 -63.749688 
L 129.009319 -63.749688 
L 129.64321 -63.749688 
L 130.277101 -63.749688 
L 130.910992 -63.749688 
L 131.544882 -63.749688 
L 132.178773 -63.749688 
L 132.812664 -63.749688 
L 133.446555 -63.749688 
L 134.080446 -63.749688 
L 134.714336 -63.749688 
L 135.348227 -63.749688 
L 135.982118 -63.749688 
L 136.616009 -63.749688 
L 137.2499 -63.749688 
L 137.88379 -63.749688 
L 138.517681 -63.749688 
L 139.151572 -63.749688 
L 139.785463 -63.749688 
L 140.419354 -63.749688 
L 141.053244 -63.749688 
L 141.687135 -63.749688 
L 142.321026 -63.749688 
L 142.954917 -63.749688 
L 143.588808 -63.749688 
L 144.222698 -63.749688 
L 144.856589 -63.749688 
L 145.49048 -63.749688 
L 146.124371 -63.749688 
L 146.124371 -63.895133 
L 146.124371 -63.895133 
L 145.49048 -63.948379 
L 144.856589 -64.015687 
L 144.222698 -64.098859 
L 143.588808 -64.19937 
L 142.954917 -64.31822 
L 142.321026 -64.455796 
L 141.687135 -64.611782 
L 141.053244 -64.785101 
L 140.419354 -64.973909 
L 139.785463 -65.175638 
L 139.151572 -65.38706 
L 138.517681 -65.604391 
L 137.88379 -65.823389 
L 137.2499 -66.039469 
L 136.616009 -66.247809 
L 135.982118 -66.443467 
L 135.348227 -66.621504 
L 134.714336 -66.777139 
L 134.080446 -66.905927 
L 133.446555 -67.003969 
L 132.812664 -67.068149 
L 132.178773 -67.096374 
L 131.544882 -67.087786 
L 130.910992 -67.042923 
L 130.277101 -66.963795 
L 129.64321 -66.853839 
L 129.009319 -66.717757 
L 128.375428 -66.561231 
L 127.741538 -66.390546 
L 127.107647 -66.212155 
L 126.473756 -66.032241 
L 125.839865 -65.856323 
L 125.205975 -65.688952 
L 124.572084 -65.53353 
L 123.938193 -65.392253 
L 123.304302 -65.266184 
L 122.670411 -65.155419 
L 122.036521 -65.059315 
L 121.40263 -64.976742 
L 120.768739 -64.906317 
L 120.134848 -64.846603 
L 119.500957 -64.796248 
L 118.867067 -64.754067 
L 118.233176 -64.71907 
L 117.599285 -64.690455 
L 116.965394 -64.667573 
L 116.331503 -64.649885 
L 115.697613 -64.636917 
L 115.063722 -64.628221 
L 114.429831 -64.623343 
L 113.79594 -64.621794 
L 113.162049 -64.62303 
L 112.528159 -64.626432 
L 111.894268 -64.631294 
L 111.260377 -64.636822 
L 110.626486 -64.642147 
L 109.992595 -64.646352 
L 109.358705 -64.648524 
L 108.724814 -64.647815 
L 108.090923 -64.643517 
L 107.457032 -64.635125 
L 106.823141 -64.622404 
L 106.189251 -64.605419 
L 105.55536 -64.584545 
L 104.921469 -64.560444 
L 104.287578 -64.534014 
L 103.653687 -64.506324 
L 103.019797 -64.47853 
L 102.385906 -64.451802 
L 101.752015 -64.427257 
L 101.118124 -64.405911 
L 100.484233 -64.388647 
L 99.850343 -64.376203 
L 99.216452 -64.369162 
L 98.582561 -64.367953 
L 97.94867 -64.372849 
L 97.314779 -64.383959 
L 96.680889 -64.401214 
L 96.046998 -64.424355 
L 95.413107 -64.452921 
L 94.779216 -64.486251 
L 94.145325 -64.523489 
L 93.511435 -64.563614 
L 92.877544 -64.605477 
L 92.243653 -64.647848 
L 91.609762 -64.689472 
L 90.975871 -64.729117 
L 90.341981 -64.765625 
L 89.70809 -64.797957 
L 89.074199 -64.825225 
L 88.440308 -64.846722 
L 87.806418 -64.861951 
L 87.172527 -64.870643 
L 86.538636 -64.872766 
L 85.904745 -64.868538 
L 85.270854 -64.858413 
L 84.636964 -64.843066 
L 84.003073 -64.823353 
L 83.369182 -64.800268 
L 82.735291 -64.774876 
L 82.1014 -64.748253 
L 81.46751 -64.721418 
L 80.833619 -64.695274 
L 80.199728 -64.670567 
L 79.565837 -64.64785 
L 78.931946 -64.627471 
L 78.298056 -64.609578 
L 77.664165 -64.59413 
L 77.030274 -64.580922 
L 76.396383 -64.56961 
L 75.762492 -64.559741 
L 75.128602 -64.55078 
L 74.494711 -64.542138 
L 73.86082 -64.533197 
L 73.226929 -64.523336 
L 72.593038 -64.511962 
L 71.959148 -64.498535 
L 71.325257 -64.482595 
L 70.691366 -64.463791 
L 70.057475 -64.4419 
L 69.423584 -64.416842 
L 68.789694 -64.388687 
L 68.155803 -64.35765 
L 67.521912 -64.324076 
L 66.888021 -64.288424 
L 66.25413 -64.251234 
L 65.62024 -64.213096 
L 64.986349 -64.174623 
L 64.352458 -64.136414 
L 63.718567 -64.099031 
L 63.084676 -64.062979 
L 62.450786 -64.028684 
L 61.816895 -63.996489 
L 61.183004 -63.966647 
L 60.549113 -63.93932 
L 59.915222 -63.914582 
L 59.281332 -63.892432 
L 58.647441 -63.872798 
L 58.01355 -63.855553 
L 57.379659 -63.840528 
L 56.745768 -63.827524 
L 56.111878 -63.816329 
L 55.477987 -63.806725 
L 54.844096 -63.798504 
L 54.210205 -63.791471 
L 53.576314 -63.785454 
L 52.942424 -63.780302 
L 52.308533 -63.775889 
L 51.674642 -63.772111 
L 51.040751 -63.768885 
L 50.406861 -63.76614 
L 49.77297 -63.763821 
L 49.139079 -63.761875 
L 48.505188 -63.760258 
L 47.871297 -63.758925 
L 47.237407 -63.757833 
L 46.603516 -63.756938 
L 45.969625 -63.756202 
L 45.335734 -63.755587 
L 44.701843 -63.755063 
L 44.067953 -63.754603 
L 43.434062 -63.75419 
L 42.800171 -63.753812 
L 42.16628 -63.753464 
L 41.532389 -63.753141 
L 40.898499 -63.752844 
L 40.264608 -63.752574 
L 39.630717 -63.752328 
L 38.996826 -63.752105 
L 38.362935 -63.751901 
L 37.729045 -63.75171 
L 37.095154 -63.751529 
L 36.461263 -63.751354 
L 35.827372 -63.751182 
L 35.193481 -63.751013 
L 34.559591 -63.75085 
L 33.9257 -63.750697 
L 33.291809 -63.750558 
L 32.657918 -63.750439 
L 32.024027 -63.750346 
L 31.390137 -63.750282 
L 30.756246 -63.750251 
L 30.122355 -63.750253 
L 29.488464 -63.750287 
L 28.854573 -63.750349 
L 28.220683 -63.750435 
L 27.586792 -63.750537 
L 26.952901 -63.750647 
L 26.31901 -63.750754 
L 25.685119 -63.750849 
L 25.051229 -63.750923 
L 24.417338 -63.750969 
L 23.783447 -63.750983 
L 23.149556 -63.750963 
L 22.515665 -63.750909 
L 21.881775 -63.750827 
L 21.247884 -63.750721 
L 20.613993 -63.7506 
L 19.980102 -63.750472 
z
" style="stroke: #22a884; stroke-width: 1.25"/>
    </defs>
    <g>
     <use xlink:href="#m2411ec0fcc" x="0" y="174.899688" style="fill: #22a884; fill-opacity: 0.7; stroke: #22a884; stroke-width: 1.25"/>
    </g>
   </g>
   <g id="line2d_7">
    <path d="M 7.2 111.15 
L 216.45 111.15 
" style="fill: none; stroke: #22a884; stroke-opacity: 0.9; stroke-linecap: round"/>
   </g>
   <g id="text_7">
    <!-- 6 -->
    <g style="fill: #22a884" transform="translate(7.2 110.30325) scale(0.12 -0.12)">
     <defs>
      <path id="DejaVuSans-Bold-36" d="M 2316 2303 
Q 2000 2303 1842 2098 
Q 1684 1894 1684 1484 
Q 1684 1075 1842 870 
Q 2000 666 2316 666 
Q 2634 666 2792 870 
Q 2950 1075 2950 1484 
Q 2950 1894 2792 2098 
Q 2634 2303 2316 2303 
z
M 3803 4544 
L 3803 3681 
Q 3506 3822 3243 3889 
Q 2981 3956 2731 3956 
Q 2194 3956 1894 3657 
Q 1594 3359 1544 2772 
Q 1750 2925 1990 3001 
Q 2231 3078 2516 3078 
Q 3231 3078 3670 2659 
Q 4109 2241 4109 1563 
Q 4109 813 3618 361 
Q 3128 -91 2303 -91 
Q 1394 -91 895 523 
Q 397 1138 397 2266 
Q 397 3422 980 4083 
Q 1563 4744 2578 4744 
Q 2900 4744 3203 4694 
Q 3506 4644 3803 4544 
z
" transform="scale(0.015625)"/>
     </defs>
     <use xlink:href="#DejaVuSans-Bold-36"/>
    </g>
   </g>
  </g>
  <g id="axes_8">
   <g id="patch_9">
    <path d="M 7.2 121.545 
L 216.45 121.545 
L 216.45 79.965 
L 7.2 79.965 
L 7.2 121.545 
z
" style="fill: none"/>
   </g>
   <g id="matplotlib.axis_15">
    <g id="xtick_15"/>
    <g id="xtick_16"/>
   </g>
   <g id="matplotlib.axis_16"/>
   <g id="PolyCollection_7">
    <defs>
     <path id="mc1dec70220" d="M 22.742843 -53.356899 
L 22.742843 -53.354688 
L 23.183779 -53.354688 
L 23.624716 -53.354688 
L 24.065653 -53.354688 
L 24.506589 -53.354688 
L 24.947526 -53.354688 
L 25.388462 -53.354688 
L 25.829399 -53.354688 
L 26.270336 -53.354688 
L 26.711272 -53.354688 
L 27.152209 -53.354688 
L 27.593146 -53.354688 
L 28.034082 -53.354688 
L 28.475019 -53.354688 
L 28.915955 -53.354688 
L 29.356892 -53.354688 
L 29.797829 -53.354688 
L 30.238765 -53.354688 
L 30.679702 -53.354688 
L 31.120639 -53.354688 
L 31.561575 -53.354688 
L 32.002512 -53.354688 
L 32.443448 -53.354688 
L 32.884385 -53.354688 
L 33.325322 -53.354688 
L 33.766258 -53.354688 
L 34.207195 -53.354688 
L 34.648132 -53.354688 
L 35.089068 -53.354688 
L 35.530005 -53.354688 
L 35.970941 -53.354688 
L 36.411878 -53.354688 
L 36.852815 -53.354688 
L 37.293751 -53.354688 
L 37.734688 -53.354688 
L 38.175625 -53.354688 
L 38.616561 -53.354688 
L 39.057498 -53.354688 
L 39.498434 -53.354688 
L 39.939371 -53.354688 
L 40.380308 -53.354688 
L 40.821244 -53.354688 
L 41.262181 -53.354688 
L 41.703118 -53.354688 
L 42.144054 -53.354688 
L 42.584991 -53.354688 
L 43.025927 -53.354688 
L 43.466864 -53.354688 
L 43.907801 -53.354688 
L 44.348737 -53.354688 
L 44.789674 -53.354688 
L 45.230611 -53.354688 
L 45.671547 -53.354688 
L 46.112484 -53.354688 
L 46.55342 -53.354688 
L 46.994357 -53.354688 
L 47.435294 -53.354688 
L 47.87623 -53.354688 
L 48.317167 -53.354688 
L 48.758103 -53.354688 
L 49.19904 -53.354688 
L 49.639977 -53.354688 
L 50.080913 -53.354688 
L 50.52185 -53.354688 
L 50.962787 -53.354688 
L 51.403723 -53.354688 
L 51.84466 -53.354688 
L 52.285596 -53.354688 
L 52.726533 -53.354688 
L 53.16747 -53.354688 
L 53.608406 -53.354688 
L 54.049343 -53.354688 
L 54.49028 -53.354688 
L 54.931216 -53.354688 
L 55.372153 -53.354688 
L 55.813089 -53.354688 
L 56.254026 -53.354688 
L 56.694963 -53.354688 
L 57.135899 -53.354688 
L 57.576836 -53.354688 
L 58.017773 -53.354688 
L 58.458709 -53.354688 
L 58.899646 -53.354688 
L 59.340582 -53.354688 
L 59.781519 -53.354688 
L 60.222456 -53.354688 
L 60.663392 -53.354688 
L 61.104329 -53.354688 
L 61.545266 -53.354688 
L 61.986202 -53.354688 
L 62.427139 -53.354688 
L 62.868075 -53.354688 
L 63.309012 -53.354688 
L 63.749949 -53.354688 
L 64.190885 -53.354688 
L 64.631822 -53.354688 
L 65.072759 -53.354688 
L 65.513695 -53.354688 
L 65.954632 -53.354688 
L 66.395568 -53.354688 
L 66.836505 -53.354688 
L 67.277442 -53.354688 
L 67.718378 -53.354688 
L 68.159315 -53.354688 
L 68.600252 -53.354688 
L 69.041188 -53.354688 
L 69.482125 -53.354688 
L 69.923061 -53.354688 
L 70.363998 -53.354688 
L 70.804935 -53.354688 
L 71.245871 -53.354688 
L 71.686808 -53.354688 
L 72.127745 -53.354688 
L 72.568681 -53.354688 
L 73.009618 -53.354688 
L 73.450554 -53.354688 
L 73.891491 -53.354688 
L 74.332428 -53.354688 
L 74.773364 -53.354688 
L 75.214301 -53.354688 
L 75.655238 -53.354688 
L 76.096174 -53.354688 
L 76.537111 -53.354688 
L 76.978047 -53.354688 
L 77.418984 -53.354688 
L 77.859921 -53.354688 
L 78.300857 -53.354688 
L 78.741794 -53.354688 
L 79.182731 -53.354688 
L 79.623667 -53.354688 
L 80.064604 -53.354688 
L 80.50554 -53.354688 
L 80.946477 -53.354688 
L 81.387414 -53.354688 
L 81.82835 -53.354688 
L 82.269287 -53.354688 
L 82.710224 -53.354688 
L 83.15116 -53.354688 
L 83.592097 -53.354688 
L 84.033033 -53.354688 
L 84.47397 -53.354688 
L 84.914907 -53.354688 
L 85.355843 -53.354688 
L 85.79678 -53.354688 
L 86.237717 -53.354688 
L 86.678653 -53.354688 
L 87.11959 -53.354688 
L 87.560526 -53.354688 
L 88.001463 -53.354688 
L 88.4424 -53.354688 
L 88.883336 -53.354688 
L 89.324273 -53.354688 
L 89.76521 -53.354688 
L 90.206146 -53.354688 
L 90.647083 -53.354688 
L 91.088019 -53.354688 
L 91.528956 -53.354688 
L 91.969893 -53.354688 
L 92.410829 -53.354688 
L 92.851766 -53.354688 
L 93.292703 -53.354688 
L 93.733639 -53.354688 
L 94.174576 -53.354688 
L 94.615512 -53.354688 
L 95.056449 -53.354688 
L 95.497386 -53.354688 
L 95.938322 -53.354688 
L 96.379259 -53.354688 
L 96.820196 -53.354688 
L 97.261132 -53.354688 
L 97.702069 -53.354688 
L 98.143005 -53.354688 
L 98.583942 -53.354688 
L 99.024879 -53.354688 
L 99.465815 -53.354688 
L 99.906752 -53.354688 
L 100.347689 -53.354688 
L 100.788625 -53.354688 
L 101.229562 -53.354688 
L 101.670498 -53.354688 
L 102.111435 -53.354688 
L 102.552372 -53.354688 
L 102.993308 -53.354688 
L 103.434245 -53.354688 
L 103.875182 -53.354688 
L 104.316118 -53.354688 
L 104.757055 -53.354688 
L 105.197991 -53.354688 
L 105.638928 -53.354688 
L 106.079865 -53.354688 
L 106.520801 -53.354688 
L 106.961738 -53.354688 
L 107.402674 -53.354688 
L 107.843611 -53.354688 
L 108.284548 -53.354688 
L 108.725484 -53.354688 
L 109.166421 -53.354688 
L 109.607358 -53.354688 
L 110.048294 -53.354688 
L 110.489231 -53.354688 
L 110.489231 -53.356899 
L 110.489231 -53.356899 
L 110.048294 -53.357589 
L 109.607358 -53.358115 
L 109.166421 -53.358332 
L 108.725484 -53.358176 
L 108.284548 -53.357692 
L 107.843611 -53.357017 
L 107.402674 -53.356314 
L 106.961738 -53.355709 
L 106.520801 -53.355265 
L 106.079865 -53.354982 
L 105.638928 -53.354822 
L 105.197991 -53.354743 
L 104.757055 -53.354708 
L 104.316118 -53.354695 
L 103.875182 -53.35469 
L 103.434245 -53.35469 
L 102.993308 -53.354695 
L 102.552372 -53.35471 
L 102.111435 -53.354748 
L 101.670498 -53.354835 
L 101.229562 -53.355009 
L 100.788625 -53.355321 
L 100.347689 -53.355823 
L 99.906752 -53.35655 
L 99.465815 -53.357513 
L 99.024879 -53.358737 
L 98.583942 -53.360357 
L 98.143005 -53.36281 
L 97.702069 -53.367123 
L 97.261132 -53.37536 
L 96.820196 -53.391286 
L 96.379259 -53.421321 
L 95.938322 -53.475777 
L 95.497386 -53.570182 
L 95.056449 -53.726233 
L 94.615512 -53.971642 
L 94.174576 -54.337996 
L 93.733639 -54.855845 
L 93.292703 -55.546982 
L 92.851766 -56.415053 
L 92.410829 -57.437097 
L 91.969893 -58.559344 
L 91.528956 -59.699977 
L 91.088019 -60.759546 
L 90.647083 -61.637158 
L 90.206146 -62.248645 
L 89.76521 -62.542225 
L 89.324273 -62.507724 
L 88.883336 -62.177051 
L 88.4424 -61.615862 
L 88.001463 -60.908853 
L 87.560526 -60.14281 
L 87.11959 -59.39189 
L 86.678653 -58.708466 
L 86.237717 -58.120721 
L 85.79678 -57.635959 
L 85.355843 -57.246962 
L 84.914907 -56.938526 
L 84.47397 -56.692393 
L 84.033033 -56.490382 
L 83.592097 -56.316516 
L 83.15116 -56.158812 
L 82.710224 -56.010752 
L 82.269287 -55.87199 
L 81.82835 -55.747852 
L 81.387414 -55.647518 
L 80.946477 -55.581291 
L 80.50554 -55.557697 
L 80.064604 -55.581274 
L 79.623667 -55.651379 
L 79.182731 -55.761843 
L 78.741794 -55.901107 
L 78.300857 -56.052919 
L 77.859921 -56.197989 
L 77.418984 -56.316756 
L 76.978047 -56.392598 
L 76.537111 -56.414396 
L 76.096174 -56.377729 
L 75.655238 -56.284766 
L 75.214301 -56.143423 
L 74.773364 -55.96609 
L 74.332428 -55.767873 
L 73.891491 -55.564319 
L 73.450554 -55.369048 
L 73.009618 -55.192012 
L 72.568681 -55.038838 
L 72.127745 -54.911117 
L 71.686808 -54.807228 
L 71.245871 -54.723404 
L 70.804935 -54.654964 
L 70.363998 -54.597582 
L 69.923061 -54.548209 
L 69.482125 -54.505235 
L 69.041188 -54.467813 
L 68.600252 -54.434733 
L 68.159315 -54.403538 
L 67.718378 -54.370518 
L 67.277442 -54.33181 
L 66.836505 -54.28515 
L 66.395568 -54.231314 
L 65.954632 -54.174256 
L 65.513695 -54.119597 
L 65.072759 -54.072151 
L 64.631822 -54.03382 
L 64.190885 -54.002975 
L 63.749949 -53.975484 
L 63.309012 -53.946636 
L 62.868075 -53.912897 
L 62.427139 -53.872843 
L 61.986202 -53.82719 
L 61.545266 -53.778172 
L 61.104329 -53.728612 
L 60.663392 -53.680985 
L 60.222456 -53.636799 
L 59.781519 -53.596504 
L 59.340582 -53.559893 
L 58.899646 -53.526718 
L 58.458709 -53.497122 
L 58.017773 -53.471661 
L 57.576836 -53.450948 
L 57.135899 -53.43518 
L 56.694963 -53.423886 
L 56.254026 -53.416024 
L 55.813089 -53.410365 
L 55.372153 -53.405906 
L 54.931216 -53.4021 
L 54.49028 -53.398796 
L 54.049343 -53.396012 
L 53.608406 -53.393681 
L 53.16747 -53.391544 
L 52.726533 -53.389223 
L 52.285596 -53.386407 
L 51.84466 -53.383024 
L 51.403723 -53.379289 
L 50.962787 -53.375603 
L 50.52185 -53.372367 
L 50.080913 -53.36983 
L 49.639977 -53.368027 
L 49.19904 -53.366831 
L 48.758103 -53.366062 
L 48.317167 -53.365593 
L 47.87623 -53.365392 
L 47.435294 -53.365518 
L 46.994357 -53.366054 
L 46.55342 -53.367035 
L 46.112484 -53.368371 
L 45.671547 -53.369821 
L 45.230611 -53.371027 
L 44.789674 -53.371623 
L 44.348737 -53.371365 
L 43.907801 -53.370237 
L 43.466864 -53.368458 
L 43.025927 -53.36638 
L 42.584991 -53.364339 
L 42.144054 -53.362536 
L 41.703118 -53.361008 
L 41.262181 -53.359692 
L 40.821244 -53.358517 
L 40.380308 -53.357463 
L 39.939371 -53.35656 
L 39.498434 -53.355853 
L 39.057498 -53.355362 
L 38.616561 -53.355075 
L 38.175625 -53.35497 
L 37.734688 -53.355032 
L 37.293751 -53.355265 
L 36.852815 -53.355681 
L 36.411878 -53.35627 
L 35.970941 -53.356969 
L 35.530005 -53.357653 
L 35.089068 -53.358162 
L 34.648132 -53.358365 
L 34.207195 -53.358222 
L 33.766258 -53.35782 
L 33.325322 -53.35734 
L 32.884385 -53.356986 
L 32.443448 -53.356907 
L 32.002512 -53.357135 
L 31.561575 -53.357576 
L 31.120639 -53.358043 
L 30.679702 -53.358334 
L 30.238765 -53.358307 
L 29.797829 -53.35794 
L 29.356892 -53.357325 
L 28.915955 -53.356619 
L 28.475019 -53.355973 
L 28.034082 -53.355492 
L 27.593146 -53.355221 
L 27.152209 -53.355173 
L 26.711272 -53.355348 
L 26.270336 -53.355741 
L 25.829399 -53.356325 
L 25.388462 -53.357021 
L 24.947526 -53.357693 
L 24.506589 -53.358176 
L 24.065653 -53.358332 
L 23.624716 -53.358115 
L 23.183779 -53.357589 
L 22.742843 -53.356899 
z
" style="stroke: #355f8d; stroke-width: 1.25"/>
    </defs>
    <g>
     <use xlink:href="#mc1dec70220" x="0" y="174.899688" style="fill: #355f8d; fill-opacity: 0.7; stroke: #355f8d; stroke-width: 1.25"/>
    </g>
   </g>
   <g id="line2d_8">
    <path d="M 7.2 121.545 
L 216.45 121.545 
" style="fill: none; stroke: #355f8d; stroke-opacity: 0.9; stroke-linecap: round"/>
   </g>
   <g id="text_8">
    <!-- 7 -->
    <g style="fill: #355f8d" transform="translate(7.2 120.69825) scale(0.12 -0.12)">
     <defs>
      <path id="DejaVuSans-Bold-37" d="M 428 4666 
L 3944 4666 
L 3944 3988 
L 2125 0 
L 953 0 
L 2675 3781 
L 428 3781 
L 428 4666 
z
" transform="scale(0.015625)"/>
     </defs>
     <use xlink:href="#DejaVuSans-Bold-37"/>
    </g>
   </g>
  </g>
  <g id="axes_9">
   <g id="patch_10">
    <path d="M 7.2 131.94 
L 216.45 131.94 
L 216.45 90.36 
L 7.2 90.36 
L 7.2 131.94 
z
" style="fill: none"/>
   </g>
   <g id="matplotlib.axis_17">
    <g id="xtick_17">
     <g id="text_9">
      <!-- 0 -->
      <g style="fill: #838383" transform="translate(60.662414 149.798281) scale(0.11 -0.11)">
       <defs>
        <path id="DejaVuSans-30" d="M 2034 4250 
Q 1547 4250 1301 3770 
Q 1056 3291 1056 2328 
Q 1056 1369 1301 889 
Q 1547 409 2034 409 
Q 2525 409 2770 889 
Q 3016 1369 3016 2328 
Q 3016 3291 2770 3770 
Q 2525 4250 2034 4250 
z
M 2034 4750 
Q 2819 4750 3233 4129 
Q 3647 3509 3647 2328 
Q 3647 1150 3233 529 
Q 2819 -91 2034 -91 
Q 1250 -91 836 529 
Q 422 1150 422 2328 
Q 422 3509 836 4129 
Q 1250 4750 2034 4750 
z
" transform="scale(0.015625)"/>
       </defs>
       <use xlink:href="#DejaVuSans-30"/>
      </g>
     </g>
    </g>
    <g id="xtick_18">
     <g id="text_10">
      <!-- 5 -->
      <g style="fill: #838383" transform="translate(143.866848 149.798281) scale(0.11 -0.11)">
       <defs>
        <path id="DejaVuSans-35" d="M 691 4666 
L 3169 4666 
L 3169 4134 
L 1269 4134 
L 1269 2991 
Q 1406 3038 1543 3061 
Q 1681 3084 1819 3084 
Q 2600 3084 3056 2656 
Q 3513 2228 3513 1497 
Q 3513 744 3044 326 
Q 2575 -91 1722 -91 
Q 1428 -91 1123 -41 
Q 819 9 494 109 
L 494 744 
Q 775 591 1075 516 
Q 1375 441 1709 441 
Q 2250 441 2565 725 
Q 2881 1009 2881 1497 
Q 2881 1984 2565 2268 
Q 2250 2553 1709 2553 
Q 1456 2553 1204 2497 
Q 953 2441 691 2322 
L 691 4666 
z
" transform="scale(0.015625)"/>
       </defs>
       <use xlink:href="#DejaVuSans-35"/>
      </g>
     </g>
    </g>
    <g id="text_11">
     <!-- sld -->
     <g style="fill: #262626" transform="translate(103.223438 165.204063) scale(0.12 -0.12)">
      <defs>
       <path id="DejaVuSans-73" d="M 2834 3397 
L 2834 2853 
Q 2591 2978 2328 3040 
Q 2066 3103 1784 3103 
Q 1356 3103 1142 2972 
Q 928 2841 928 2578 
Q 928 2378 1081 2264 
Q 1234 2150 1697 2047 
L 1894 2003 
Q 2506 1872 2764 1633 
Q 3022 1394 3022 966 
Q 3022 478 2636 193 
Q 2250 -91 1575 -91 
Q 1294 -91 989 -36 
Q 684 19 347 128 
L 347 722 
Q 666 556 975 473 
Q 1284 391 1588 391 
Q 1994 391 2212 530 
Q 2431 669 2431 922 
Q 2431 1156 2273 1281 
Q 2116 1406 1581 1522 
L 1381 1569 
Q 847 1681 609 1914 
Q 372 2147 372 2553 
Q 372 3047 722 3315 
Q 1072 3584 1716 3584 
Q 2034 3584 2315 3537 
Q 2597 3491 2834 3397 
z
" transform="scale(0.015625)"/>
       <path id="DejaVuSans-6c" d="M 603 4863 
L 1178 4863 
L 1178 0 
L 603 0 
L 603 4863 
z
" transform="scale(0.015625)"/>
       <path id="DejaVuSans-64" d="M 2906 2969 
L 2906 4863 
L 3481 4863 
L 3481 0 
L 2906 0 
L 2906 525 
Q 2725 213 2448 61 
Q 2172 -91 1784 -91 
Q 1150 -91 751 415 
Q 353 922 353 1747 
Q 353 2572 751 3078 
Q 1150 3584 1784 3584 
Q 2172 3584 2448 3432 
Q 2725 3281 2906 2969 
z
M 947 1747 
Q 947 1113 1208 752 
Q 1469 391 1925 391 
Q 2381 391 2643 752 
Q 2906 1113 2906 1747 
Q 2906 2381 2643 2742 
Q 2381 3103 1925 3103 
Q 1469 3103 1208 2742 
Q 947 2381 947 1747 
z
" transform="scale(0.015625)"/>
      </defs>
      <use xlink:href="#DejaVuSans-73"/>
      <use xlink:href="#DejaVuSans-6c" x="52.099609"/>
      <use xlink:href="#DejaVuSans-64" x="79.882812"/>
     </g>
    </g>
   </g>
   <g id="matplotlib.axis_18"/>
   <g id="PolyCollection_8">
    <defs>
     <path id="m114fa218a7" d="M 16.711364 -42.966392 
L 16.711364 -42.959688 
L 17.147367 -42.959688 
L 17.583371 -42.959688 
L 18.019375 -42.959688 
L 18.455379 -42.959688 
L 18.891383 -42.959688 
L 19.327386 -42.959688 
L 19.76339 -42.959688 
L 20.199394 -42.959688 
L 20.635398 -42.959688 
L 21.071401 -42.959688 
L 21.507405 -42.959688 
L 21.943409 -42.959688 
L 22.379413 -42.959688 
L 22.815417 -42.959688 
L 23.25142 -42.959688 
L 23.687424 -42.959688 
L 24.123428 -42.959688 
L 24.559432 -42.959688 
L 24.995436 -42.959688 
L 25.431439 -42.959688 
L 25.867443 -42.959688 
L 26.303447 -42.959688 
L 26.739451 -42.959688 
L 27.175454 -42.959688 
L 27.611458 -42.959688 
L 28.047462 -42.959688 
L 28.483466 -42.959688 
L 28.91947 -42.959688 
L 29.355473 -42.959688 
L 29.791477 -42.959688 
L 30.227481 -42.959688 
L 30.663485 -42.959688 
L 31.099489 -42.959688 
L 31.535492 -42.959688 
L 31.971496 -42.959688 
L 32.4075 -42.959688 
L 32.843504 -42.959688 
L 33.279507 -42.959688 
L 33.715511 -42.959688 
L 34.151515 -42.959688 
L 34.587519 -42.959688 
L 35.023523 -42.959688 
L 35.459526 -42.959688 
L 35.89553 -42.959688 
L 36.331534 -42.959688 
L 36.767538 -42.959688 
L 37.203541 -42.959688 
L 37.639545 -42.959688 
L 38.075549 -42.959688 
L 38.511553 -42.959688 
L 38.947557 -42.959688 
L 39.38356 -42.959688 
L 39.819564 -42.959688 
L 40.255568 -42.959688 
L 40.691572 -42.959688 
L 41.127576 -42.959688 
L 41.563579 -42.959688 
L 41.999583 -42.959688 
L 42.435587 -42.959688 
L 42.871591 -42.959688 
L 43.307594 -42.959688 
L 43.743598 -42.959688 
L 44.179602 -42.959688 
L 44.615606 -42.959688 
L 45.05161 -42.959688 
L 45.487613 -42.959688 
L 45.923617 -42.959688 
L 46.359621 -42.959688 
L 46.795625 -42.959688 
L 47.231629 -42.959688 
L 47.667632 -42.959688 
L 48.103636 -42.959688 
L 48.53964 -42.959688 
L 48.975644 -42.959688 
L 49.411647 -42.959688 
L 49.847651 -42.959688 
L 50.283655 -42.959688 
L 50.719659 -42.959688 
L 51.155663 -42.959688 
L 51.591666 -42.959688 
L 52.02767 -42.959688 
L 52.463674 -42.959688 
L 52.899678 -42.959688 
L 53.335682 -42.959688 
L 53.771685 -42.959688 
L 54.207689 -42.959688 
L 54.643693 -42.959688 
L 55.079697 -42.959688 
L 55.5157 -42.959688 
L 55.951704 -42.959688 
L 56.387708 -42.959688 
L 56.823712 -42.959688 
L 57.259716 -42.959688 
L 57.695719 -42.959688 
L 58.131723 -42.959688 
L 58.567727 -42.959688 
L 59.003731 -42.959688 
L 59.439734 -42.959688 
L 59.875738 -42.959688 
L 60.311742 -42.959688 
L 60.747746 -42.959688 
L 61.18375 -42.959688 
L 61.619753 -42.959688 
L 62.055757 -42.959688 
L 62.491761 -42.959688 
L 62.927765 -42.959688 
L 63.363769 -42.959688 
L 63.799772 -42.959688 
L 64.235776 -42.959688 
L 64.67178 -42.959688 
L 65.107784 -42.959688 
L 65.543787 -42.959688 
L 65.979791 -42.959688 
L 66.415795 -42.959688 
L 66.851799 -42.959688 
L 67.287803 -42.959688 
L 67.723806 -42.959688 
L 68.15981 -42.959688 
L 68.595814 -42.959688 
L 69.031818 -42.959688 
L 69.467822 -42.959688 
L 69.903825 -42.959688 
L 70.339829 -42.959688 
L 70.775833 -42.959688 
L 71.211837 -42.959688 
L 71.64784 -42.959688 
L 72.083844 -42.959688 
L 72.519848 -42.959688 
L 72.955852 -42.959688 
L 73.391856 -42.959688 
L 73.827859 -42.959688 
L 74.263863 -42.959688 
L 74.699867 -42.959688 
L 75.135871 -42.959688 
L 75.571874 -42.959688 
L 76.007878 -42.959688 
L 76.443882 -42.959688 
L 76.879886 -42.959688 
L 77.31589 -42.959688 
L 77.751893 -42.959688 
L 78.187897 -42.959688 
L 78.623901 -42.959688 
L 79.059905 -42.959688 
L 79.495909 -42.959688 
L 79.931912 -42.959688 
L 80.367916 -42.959688 
L 80.80392 -42.959688 
L 81.239924 -42.959688 
L 81.675927 -42.959688 
L 82.111931 -42.959688 
L 82.547935 -42.959688 
L 82.983939 -42.959688 
L 83.419943 -42.959688 
L 83.855946 -42.959688 
L 84.29195 -42.959688 
L 84.727954 -42.959688 
L 85.163958 -42.959688 
L 85.599962 -42.959688 
L 86.035965 -42.959688 
L 86.471969 -42.959688 
L 86.907973 -42.959688 
L 87.343977 -42.959688 
L 87.77998 -42.959688 
L 88.215984 -42.959688 
L 88.651988 -42.959688 
L 89.087992 -42.959688 
L 89.523996 -42.959688 
L 89.959999 -42.959688 
L 90.396003 -42.959688 
L 90.832007 -42.959688 
L 91.268011 -42.959688 
L 91.704015 -42.959688 
L 92.140018 -42.959688 
L 92.576022 -42.959688 
L 93.012026 -42.959688 
L 93.44803 -42.959688 
L 93.884033 -42.959688 
L 94.320037 -42.959688 
L 94.756041 -42.959688 
L 95.192045 -42.959688 
L 95.628049 -42.959688 
L 96.064052 -42.959688 
L 96.500056 -42.959688 
L 96.93606 -42.959688 
L 97.372064 -42.959688 
L 97.808067 -42.959688 
L 98.244071 -42.959688 
L 98.680075 -42.959688 
L 99.116079 -42.959688 
L 99.552083 -42.959688 
L 99.988086 -42.959688 
L 100.42409 -42.959688 
L 100.860094 -42.959688 
L 101.296098 -42.959688 
L 101.732102 -42.959688 
L 102.168105 -42.959688 
L 102.604109 -42.959688 
L 103.040113 -42.959688 
L 103.476117 -42.959688 
L 103.476117 -42.969476 
L 103.476117 -42.969476 
L 103.040113 -42.979829 
L 102.604109 -42.977168 
L 102.168105 -42.966072 
L 101.732102 -42.960656 
L 101.296098 -42.959747 
L 100.860094 -42.959689 
L 100.42409 -42.959688 
L 99.988086 -42.959688 
L 99.552083 -42.959688 
L 99.116079 -42.959688 
L 98.680075 -42.959688 
L 98.244071 -42.959688 
L 97.808067 -42.959688 
L 97.372064 -42.959688 
L 96.93606 -42.959688 
L 96.500056 -42.959688 
L 96.064052 -42.959688 
L 95.628049 -42.959688 
L 95.192045 -42.959688 
L 94.756041 -42.959688 
L 94.320037 -42.959688 
L 93.884033 -42.959688 
L 93.44803 -42.959688 
L 93.012026 -42.959688 
L 92.576022 -42.959688 
L 92.140018 -42.959705 
L 91.704015 -42.96005 
L 91.268011 -42.962562 
L 90.832007 -42.968526 
L 90.396003 -42.970244 
L 89.959999 -42.964583 
L 89.523996 -42.960575 
L 89.087992 -42.959914 
L 88.651988 -42.961418 
L 88.215984 -42.966745 
L 87.77998 -42.971454 
L 87.343977 -42.970786 
L 86.907973 -42.971516 
L 86.471969 -42.969198 
L 86.035965 -42.963023 
L 85.599962 -42.960179 
L 85.163958 -42.960286 
L 84.727954 -42.963923 
L 84.29195 -42.973126 
L 83.855946 -42.979379 
L 83.419943 -42.973588 
L 82.983939 -42.965061 
L 82.547935 -42.96518 
L 82.111931 -42.970262 
L 81.675927 -42.968561 
L 81.239924 -42.962589 
L 80.80392 -42.960076 
L 80.367916 -42.96021 
L 79.931912 -42.964802 
L 79.495909 -42.98108 
L 79.059905 -42.998686 
L 78.623901 -42.995622 
L 78.187897 -42.989414 
L 77.751893 -43.002269 
L 77.31589 -43.016123 
L 76.879886 -43.015449 
L 76.443882 -43.006328 
L 76.007878 -42.98715 
L 75.571874 -42.974443 
L 75.135871 -42.995112 
L 74.699867 -43.048019 
L 74.263863 -43.082917 
L 73.827859 -43.094123 
L 73.391856 -43.12791 
L 72.955852 -43.1802 
L 72.519848 -43.236666 
L 72.083844 -43.305741 
L 71.64784 -43.32654 
L 71.211837 -43.340149 
L 70.775833 -43.489624 
L 70.339829 -43.678703 
L 69.903825 -43.767384 
L 69.467822 -43.872821 
L 69.031818 -44.027482 
L 68.595814 -44.141088 
L 68.15981 -44.24 
L 67.723806 -44.519662 
L 67.287803 -45.095111 
L 66.851799 -45.809607 
L 66.415795 -46.834007 
L 65.979791 -49.07129 
L 65.543787 -54.118075 
L 65.107784 -63.819921 
L 64.67178 -76.250558 
L 64.235776 -82.559688 
L 63.799772 -76.619824 
L 63.363769 -64.397693 
L 62.927765 -54.765135 
L 62.491761 -49.889797 
L 62.055757 -47.677005 
L 61.619753 -46.307438 
L 61.18375 -45.32451 
L 60.747746 -44.698732 
L 60.311742 -44.397708 
L 59.875738 -44.201486 
L 59.439734 -44.037251 
L 59.003731 -43.918043 
L 58.567727 -43.810277 
L 58.131723 -43.714396 
L 57.695719 -43.641125 
L 57.259716 -43.553851 
L 56.823712 -43.468204 
L 56.387708 -43.392045 
L 55.951704 -43.312752 
L 55.5157 -43.250465 
L 55.079697 -43.211008 
L 54.643693 -43.192205 
L 54.207689 -43.144818 
L 53.771685 -43.098956 
L 53.335682 -43.10164 
L 52.899678 -43.099357 
L 52.463674 -43.064203 
L 52.02767 -43.029837 
L 51.591666 -43.01794 
L 51.155663 -43.010293 
L 50.719659 -42.997662 
L 50.283655 -42.978973 
L 49.847651 -42.969997 
L 49.411647 -42.979705 
L 48.975644 -42.992933 
L 48.53964 -42.992023 
L 48.103636 -42.977923 
L 47.667632 -42.971738 
L 47.231629 -42.984479 
L 46.795625 -42.991399 
L 46.359621 -42.977461 
L 45.923617 -42.970194 
L 45.487613 -42.981434 
L 45.05161 -42.989813 
L 44.615606 -42.98276 
L 44.179602 -42.975552 
L 43.743598 -42.97062 
L 43.307594 -42.963931 
L 42.871591 -42.961994 
L 42.435587 -42.967764 
L 41.999583 -42.977029 
L 41.563579 -42.977834 
L 41.127576 -42.968959 
L 40.691572 -42.961836 
L 40.255568 -42.959896 
L 39.819564 -42.959698 
L 39.38356 -42.959776 
L 38.947557 -42.961084 
L 38.511553 -42.968704 
L 38.075549 -42.984999 
L 37.639545 -42.996072 
L 37.203541 -42.995913 
L 36.767538 -42.990032 
L 36.331534 -42.980141 
L 35.89553 -42.969006 
L 35.459526 -42.961865 
L 35.023523 -42.959905 
L 34.587519 -42.959696 
L 34.151515 -42.959688 
L 33.715511 -42.959688 
L 33.279507 -42.959688 
L 32.843504 -42.959688 
L 32.4075 -42.959688 
L 31.971496 -42.959688 
L 31.535492 -42.959688 
L 31.099489 -42.959688 
L 30.663485 -42.959688 
L 30.227481 -42.959688 
L 29.791477 -42.959688 
L 29.355473 -42.959688 
L 28.91947 -42.959688 
L 28.483466 -42.959688 
L 28.047462 -42.959688 
L 27.611458 -42.959688 
L 27.175454 -42.959688 
L 26.739451 -42.959708 
L 26.303447 -42.96009 
L 25.867443 -42.962756 
L 25.431439 -42.968877 
L 24.995436 -42.971506 
L 24.559432 -42.970631 
L 24.123428 -42.971504 
L 23.687424 -42.967223 
L 23.25142 -42.961663 
L 22.815417 -42.95989 
L 22.379413 -42.959696 
L 21.943409 -42.959688 
L 21.507405 -42.959688 
L 21.071401 -42.959688 
L 20.635398 -42.959688 
L 20.199394 -42.959688 
L 19.76339 -42.959688 
L 19.327386 -42.959688 
L 18.891383 -42.959694 
L 18.455379 -42.959857 
L 18.019375 -42.961445 
L 17.583371 -42.96676 
L 17.147367 -42.970738 
L 16.711364 -42.966392 
z
" style="stroke: #482475; stroke-width: 1.25"/>
    </defs>
    <g>
     <use xlink:href="#m114fa218a7" x="0" y="174.899688" style="fill: #482475; fill-opacity: 0.7; stroke: #482475; stroke-width: 1.25"/>
    </g>
   </g>
   <g id="line2d_9">
    <path d="M 7.2 131.94 
L 216.45 131.94 
" style="fill: none; stroke: #482475; stroke-opacity: 0.9; stroke-linecap: round"/>
   </g>
   <g id="text_12">
    <!-- 8 -->
    <g style="fill: #482475" transform="translate(7.2 131.09325) scale(0.12 -0.12)">
     <defs>
      <path id="DejaVuSans-Bold-38" d="M 2228 2088 
Q 1891 2088 1709 1903 
Q 1528 1719 1528 1375 
Q 1528 1031 1709 848 
Q 1891 666 2228 666 
Q 2563 666 2741 848 
Q 2919 1031 2919 1375 
Q 2919 1722 2741 1905 
Q 2563 2088 2228 2088 
z
M 1350 2484 
Q 925 2613 709 2878 
Q 494 3144 494 3541 
Q 494 4131 934 4440 
Q 1375 4750 2228 4750 
Q 3075 4750 3515 4442 
Q 3956 4134 3956 3541 
Q 3956 3144 3739 2878 
Q 3522 2613 3097 2484 
Q 3572 2353 3814 2058 
Q 4056 1763 4056 1313 
Q 4056 619 3595 264 
Q 3134 -91 2228 -91 
Q 1319 -91 855 264 
Q 391 619 391 1313 
Q 391 1763 633 2058 
Q 875 2353 1350 2484 
z
M 1631 3419 
Q 1631 3141 1786 2991 
Q 1941 2841 2228 2841 
Q 2509 2841 2662 2991 
Q 2816 3141 2816 3419 
Q 2816 3697 2662 3845 
Q 2509 3994 2228 3994 
Q 1941 3994 1786 3844 
Q 1631 3694 1631 3419 
z
" transform="scale(0.015625)"/>
     </defs>
     <use xlink:href="#DejaVuSans-Bold-38"/>
    </g>
   </g>
  </g>
 </g>
</svg>
