<?xml version="1.0" encoding="utf-8" standalone="no"?>
<!DOCTYPE svg PUBLIC "-//W3C//DTD SVG 1.1//EN"
  "http://www.w3.org/Graphics/SVG/1.1/DTD/svg11.dtd">
<svg xmlns:xlink="http://www.w3.org/1999/xlink" width="1129.86pt" height="338.137pt" viewBox="0 0 1129.86 338.137" xmlns="http://www.w3.org/2000/svg" version="1.1">
 <metadata>
  <rdf:RDF xmlns:dc="http://purl.org/dc/elements/1.1/" xmlns:cc="http://creativecommons.org/ns#" xmlns:rdf="http://www.w3.org/1999/02/22-rdf-syntax-ns#">
   <cc:Work>
    <dc:type rdf:resource="http://purl.org/dc/dcmitype/StillImage"/>
    <dc:date>2023-12-05T12:36:11.352891</dc:date>
    <dc:format>image/svg+xml</dc:format>
    <dc:creator>
     <cc:Agent>
      <dc:title>Matplotlib v3.8.2, https://matplotlib.org/</dc:title>
     </cc:Agent>
    </dc:creator>
   </cc:Work>
  </rdf:RDF>
 </metadata>
 <defs>
  <style type="text/css">*{stroke-linejoin: round; stroke-linecap: butt}</style>
 </defs>
 <g id="figure_1">
  <g id="patch_1">
   <path d="M 0 338.137 
L 1129.86 338.137 
L 1129.86 0 
L 0 0 
L 0 338.137 
z
" style="fill: none"/>
  </g>
  <g id="axes_1">
   <g id="patch_2">
    <path d="M 51.3 290.412 
L 538.281818 290.412 
L 538.281818 24.3 
L 51.3 24.3 
L 51.3 290.412 
z
" style="fill: none"/>
   </g>
   <g id="matplotlib.axis_1">
    <g id="xtick_1">
     <g id="line2d_1">
      <path d="M 73.435537 290.412 
L 73.435537 24.3 
" clip-path="url(#p62840e2747)" style="fill: none; stroke-dasharray: 3.7,1.6; stroke-dashoffset: 0; stroke: #838383; stroke-opacity: 0.2"/>
     </g>
     <g id="text_1">
      <!-- 0 -->
      <g style="fill: #838383" transform="translate(69.310537 310.087) scale(0.1375 -0.1375)">
       <defs>
        <path id="IBMPlexSans-Regular-30" d="M 1920 -77 
Q 1120 -77 752 531 
Q 384 1139 384 2234 
Q 384 3328 752 3936 
Q 1120 4544 1920 4544 
Q 2720 4544 3088 3936 
Q 3456 3328 3456 2234 
Q 3456 1139 3088 531 
Q 2720 -77 1920 -77 
z
M 1920 390 
Q 2182 390 2368 499 
Q 2554 608 2669 806 
Q 2784 1005 2838 1273 
Q 2893 1542 2893 1869 
L 2893 2598 
Q 2893 2925 2838 3193 
Q 2784 3462 2669 3660 
Q 2554 3859 2368 3968 
Q 2182 4077 1920 4077 
Q 1658 4077 1472 3968 
Q 1286 3859 1171 3660 
Q 1056 3462 1001 3193 
Q 947 2925 947 2598 
L 947 1869 
Q 947 1542 1001 1273 
Q 1056 1005 1171 806 
Q 1286 608 1472 499 
Q 1658 390 1920 390 
z
" transform="scale(0.015625)"/>
       </defs>
       <use xlink:href="#IBMPlexSans-Regular-30"/>
      </g>
     </g>
    </g>
    <g id="xtick_2">
     <g id="line2d_2">
      <path d="M 129.052465 290.412 
L 129.052465 24.3 
" clip-path="url(#p62840e2747)" style="fill: none; stroke-dasharray: 3.7,1.6; stroke-dashoffset: 0; stroke: #838383; stroke-opacity: 0.2"/>
     </g>
     <g id="text_2">
      <!-- 25 -->
      <g style="fill: #838383" transform="translate(120.802465 310.087) scale(0.1375 -0.1375)">
       <defs>
        <path id="IBMPlexSans-Regular-32" d="M 3411 0 
L 480 0 
L 480 550 
L 1939 1894 
Q 2253 2182 2464 2505 
Q 2675 2829 2675 3155 
L 2675 3232 
Q 2675 3603 2470 3833 
Q 2266 4064 1850 4064 
Q 1645 4064 1491 4006 
Q 1338 3949 1226 3846 
Q 1114 3744 1040 3606 
Q 966 3469 922 3309 
L 442 3494 
Q 506 3693 618 3881 
Q 730 4070 899 4217 
Q 1069 4365 1309 4454 
Q 1549 4544 1875 4544 
Q 2202 4544 2458 4448 
Q 2714 4352 2886 4179 
Q 3059 4006 3152 3769 
Q 3245 3533 3245 3245 
Q 3245 2982 3171 2758 
Q 3098 2534 2970 2332 
Q 2842 2131 2659 1939 
Q 2477 1747 2266 1555 
L 1062 474 
L 3411 474 
L 3411 0 
z
" transform="scale(0.015625)"/>
        <path id="IBMPlexSans-Regular-35" d="M 3187 3994 
L 1229 3994 
L 1101 2291 
L 1146 2291 
Q 1306 2515 1507 2649 
Q 1709 2784 2061 2784 
Q 2349 2784 2592 2688 
Q 2835 2592 3014 2416 
Q 3194 2240 3293 1984 
Q 3392 1728 3392 1402 
Q 3392 1075 3289 803 
Q 3187 531 2992 336 
Q 2797 141 2518 32 
Q 2240 -77 1888 -77 
Q 1606 -77 1392 -13 
Q 1178 51 1011 160 
Q 845 269 720 403 
Q 595 538 493 685 
L 896 992 
Q 979 858 1072 749 
Q 1165 640 1277 563 
Q 1389 486 1536 444 
Q 1683 403 1888 403 
Q 2349 403 2585 646 
Q 2822 890 2822 1331 
L 2822 1395 
Q 2822 1837 2585 2080 
Q 2349 2323 1888 2323 
Q 1581 2323 1405 2211 
Q 1229 2099 1088 1946 
L 634 2010 
L 794 4467 
L 3187 4467 
L 3187 3994 
z
" transform="scale(0.015625)"/>
       </defs>
       <use xlink:href="#IBMPlexSans-Regular-32"/>
       <use xlink:href="#IBMPlexSans-Regular-35" x="59.999985"/>
      </g>
     </g>
    </g>
    <g id="xtick_3">
     <g id="line2d_3">
      <path d="M 184.669392 290.412 
L 184.669392 24.3 
" clip-path="url(#p62840e2747)" style="fill: none; stroke-dasharray: 3.7,1.6; stroke-dashoffset: 0; stroke: #838383; stroke-opacity: 0.2"/>
     </g>
     <g id="text_3">
      <!-- 50 -->
      <g style="fill: #838383" transform="translate(176.419392 310.087) scale(0.1375 -0.1375)">
       <use xlink:href="#IBMPlexSans-Regular-35"/>
       <use xlink:href="#IBMPlexSans-Regular-30" x="59.999985"/>
      </g>
     </g>
    </g>
    <g id="xtick_4">
     <g id="line2d_4">
      <path d="M 240.28632 290.412 
L 240.28632 24.3 
" clip-path="url(#p62840e2747)" style="fill: none; stroke-dasharray: 3.7,1.6; stroke-dashoffset: 0; stroke: #838383; stroke-opacity: 0.2"/>
     </g>
     <g id="text_4">
      <!-- 75 -->
      <g style="fill: #838383" transform="translate(232.03632 310.087) scale(0.1375 -0.1375)">
       <defs>
        <path id="IBMPlexSans-Regular-37" d="M 1120 0 
L 2829 4006 
L 922 4006 
L 922 3174 
L 442 3174 
L 442 4467 
L 3373 4467 
L 3373 3994 
L 1696 0 
L 1120 0 
z
" transform="scale(0.015625)"/>
       </defs>
       <use xlink:href="#IBMPlexSans-Regular-37"/>
       <use xlink:href="#IBMPlexSans-Regular-35" x="59.999985"/>
      </g>
     </g>
    </g>
    <g id="xtick_5">
     <g id="line2d_5">
      <path d="M 295.903248 290.412 
L 295.903248 24.3 
" clip-path="url(#p62840e2747)" style="fill: none; stroke-dasharray: 3.7,1.6; stroke-dashoffset: 0; stroke: #838383; stroke-opacity: 0.2"/>
     </g>
     <g id="text_5">
      <!-- 100 -->
      <g style="fill: #838383" transform="translate(283.528248 310.087) scale(0.1375 -0.1375)">
       <defs>
        <path id="IBMPlexSans-Regular-31" d="M 563 0 
L 563 474 
L 1811 474 
L 1811 4070 
L 1766 4070 
L 640 3021 
L 326 3360 
L 1510 4467 
L 2349 4467 
L 2349 474 
L 3501 474 
L 3501 0 
L 563 0 
z
" transform="scale(0.015625)"/>
       </defs>
       <use xlink:href="#IBMPlexSans-Regular-31"/>
       <use xlink:href="#IBMPlexSans-Regular-30" x="59.999985"/>
       <use xlink:href="#IBMPlexSans-Regular-30" x="119.999969"/>
      </g>
     </g>
    </g>
    <g id="xtick_6">
     <g id="line2d_6">
      <path d="M 351.520175 290.412 
L 351.520175 24.3 
" clip-path="url(#p62840e2747)" style="fill: none; stroke-dasharray: 3.7,1.6; stroke-dashoffset: 0; stroke: #838383; stroke-opacity: 0.2"/>
     </g>
     <g id="text_6">
      <!-- 125 -->
      <g style="fill: #838383" transform="translate(339.145175 310.087) scale(0.1375 -0.1375)">
       <use xlink:href="#IBMPlexSans-Regular-31"/>
       <use xlink:href="#IBMPlexSans-Regular-32" x="59.999985"/>
       <use xlink:href="#IBMPlexSans-Regular-35" x="119.999969"/>
      </g>
     </g>
    </g>
    <g id="xtick_7">
     <g id="line2d_7">
      <path d="M 407.137103 290.412 
L 407.137103 24.3 
" clip-path="url(#p62840e2747)" style="fill: none; stroke-dasharray: 3.7,1.6; stroke-dashoffset: 0; stroke: #838383; stroke-opacity: 0.2"/>
     </g>
     <g id="text_7">
      <!-- 150 -->
      <g style="fill: #838383" transform="translate(394.762103 310.087) scale(0.1375 -0.1375)">
       <use xlink:href="#IBMPlexSans-Regular-31"/>
       <use xlink:href="#IBMPlexSans-Regular-35" x="59.999985"/>
       <use xlink:href="#IBMPlexSans-Regular-30" x="119.999969"/>
      </g>
     </g>
    </g>
    <g id="xtick_8">
     <g id="line2d_8">
      <path d="M 462.75403 290.412 
L 462.75403 24.3 
" clip-path="url(#p62840e2747)" style="fill: none; stroke-dasharray: 3.7,1.6; stroke-dashoffset: 0; stroke: #838383; stroke-opacity: 0.2"/>
     </g>
     <g id="text_8">
      <!-- 175 -->
      <g style="fill: #838383" transform="translate(450.37903 310.087) scale(0.1375 -0.1375)">
       <use xlink:href="#IBMPlexSans-Regular-31"/>
       <use xlink:href="#IBMPlexSans-Regular-37" x="59.999985"/>
       <use xlink:href="#IBMPlexSans-Regular-35" x="119.999969"/>
      </g>
     </g>
    </g>
    <g id="xtick_9">
     <g id="line2d_9">
      <path d="M 518.370958 290.412 
L 518.370958 24.3 
" clip-path="url(#p62840e2747)" style="fill: none; stroke-dasharray: 3.7,1.6; stroke-dashoffset: 0; stroke: #838383; stroke-opacity: 0.2"/>
     </g>
     <g id="text_9">
      <!-- 200 -->
      <g style="fill: #838383" transform="translate(505.995958 310.087) scale(0.1375 -0.1375)">
       <use xlink:href="#IBMPlexSans-Regular-32"/>
       <use xlink:href="#IBMPlexSans-Regular-30" x="59.999985"/>
       <use xlink:href="#IBMPlexSans-Regular-30" x="119.999969"/>
      </g>
     </g>
    </g>
    <g id="text_10">
     <!-- MD Step -->
     <g style="fill: #838383" transform="translate(266.442081 327.937) scale(0.15 -0.15)">
      <defs>
       <path id="IBMPlexSans-Regular-4d" d="M 4077 3763 
L 4045 3763 
L 3667 3014 
L 2598 1069 
L 1530 3014 
L 1152 3763 
L 1120 3763 
L 1120 0 
L 595 0 
L 595 4467 
L 1312 4467 
L 2592 2061 
L 2624 2061 
L 3910 4467 
L 4602 4467 
L 4602 0 
L 4077 0 
L 4077 3763 
z
" transform="scale(0.015625)"/>
       <path id="IBMPlexSans-Regular-44" d="M 595 4467 
L 2093 4467 
Q 2509 4467 2848 4326 
Q 3187 4186 3427 3907 
Q 3667 3629 3795 3209 
Q 3923 2790 3923 2234 
Q 3923 1677 3795 1257 
Q 3667 838 3427 560 
Q 3187 282 2848 141 
Q 2509 0 2093 0 
L 595 0 
L 595 4467 
z
M 2093 474 
Q 2368 474 2598 566 
Q 2829 659 2995 838 
Q 3162 1018 3254 1277 
Q 3347 1536 3347 1869 
L 3347 2598 
Q 3347 2931 3254 3190 
Q 3162 3450 2995 3629 
Q 2829 3808 2598 3901 
Q 2368 3994 2093 3994 
L 1133 3994 
L 1133 474 
L 2093 474 
z
" transform="scale(0.015625)"/>
       <path id="IBMPlexSans-Regular-20" transform="scale(0.015625)"/>
       <path id="IBMPlexSans-Regular-53" d="M 1850 -77 
Q 1306 -77 922 131 
Q 538 339 269 704 
L 666 1037 
Q 902 723 1190 560 
Q 1478 397 1869 397 
Q 2349 397 2601 627 
Q 2854 858 2854 1242 
Q 2854 1562 2662 1734 
Q 2470 1907 2029 2010 
L 1664 2093 
Q 1050 2234 726 2518 
Q 403 2803 403 3322 
Q 403 3616 512 3846 
Q 621 4077 816 4230 
Q 1011 4384 1283 4464 
Q 1555 4544 1882 4544 
Q 2387 4544 2748 4358 
Q 3110 4173 3360 3814 
L 2957 3520 
Q 2771 3776 2508 3923 
Q 2246 4070 1856 4070 
Q 1427 4070 1180 3888 
Q 934 3706 934 3341 
Q 934 3021 1142 2857 
Q 1350 2694 1773 2598 
L 2138 2515 
Q 2797 2368 3091 2067 
Q 3386 1766 3386 1267 
Q 3386 960 3280 710 
Q 3174 461 2976 288 
Q 2778 115 2493 19 
Q 2208 -77 1850 -77 
z
" transform="scale(0.015625)"/>
       <path id="IBMPlexSans-Regular-74" d="M 1274 0 
Q 1005 0 867 150 
Q 730 301 730 544 
L 730 2854 
L 186 2854 
L 186 3302 
L 493 3302 
Q 659 3302 720 3369 
Q 781 3437 781 3603 
L 781 4218 
L 1242 4218 
L 1242 3302 
L 1965 3302 
L 1965 2854 
L 1242 2854 
L 1242 448 
L 1914 448 
L 1914 0 
L 1274 0 
z
" transform="scale(0.015625)"/>
       <path id="IBMPlexSans-Regular-65" d="M 1786 -77 
Q 1446 -77 1174 44 
Q 902 166 707 393 
Q 512 621 406 937 
Q 301 1254 301 1651 
Q 301 2042 406 2362 
Q 512 2682 707 2909 
Q 902 3136 1174 3257 
Q 1446 3379 1786 3379 
Q 2118 3379 2380 3257 
Q 2643 3136 2828 2921 
Q 3014 2707 3113 2412 
Q 3213 2118 3213 1766 
L 3213 1523 
L 838 1523 
L 838 1370 
Q 838 1158 905 976 
Q 973 794 1097 659 
Q 1222 525 1404 448 
Q 1587 371 1818 371 
Q 2131 371 2364 518 
Q 2598 666 2726 941 
L 3091 678 
Q 2931 339 2592 131 
Q 2253 -77 1786 -77 
z
M 1786 2950 
Q 1574 2950 1401 2876 
Q 1229 2803 1104 2668 
Q 979 2534 908 2352 
Q 838 2170 838 1952 
L 838 1907 
L 2662 1907 
L 2662 1978 
Q 2662 2419 2422 2684 
Q 2182 2950 1786 2950 
z
" transform="scale(0.015625)"/>
       <path id="IBMPlexSans-Regular-70" d="M 544 3302 
L 1056 3302 
L 1056 2765 
L 1082 2765 
Q 1210 3078 1456 3228 
Q 1702 3379 2048 3379 
Q 2355 3379 2604 3257 
Q 2854 3136 3030 2912 
Q 3206 2688 3299 2368 
Q 3392 2048 3392 1651 
Q 3392 1254 3299 934 
Q 3206 614 3030 390 
Q 2854 166 2604 44 
Q 2355 -77 2048 -77 
Q 1376 -77 1082 538 
L 1056 538 
L 1056 -1280 
L 544 -1280 
L 544 3302 
z
M 1907 384 
Q 2342 384 2592 656 
Q 2842 928 2842 1370 
L 2842 1933 
Q 2842 2374 2592 2646 
Q 2342 2918 1907 2918 
Q 1734 2918 1577 2870 
Q 1421 2822 1305 2739 
Q 1190 2656 1123 2537 
Q 1056 2419 1056 2285 
L 1056 1056 
Q 1056 896 1123 771 
Q 1190 646 1305 560 
Q 1421 474 1577 429 
Q 1734 384 1907 384 
z
" transform="scale(0.015625)"/>
      </defs>
      <use xlink:href="#IBMPlexSans-Regular-4d"/>
      <use xlink:href="#IBMPlexSans-Regular-44" x="81.199982"/>
      <use xlink:href="#IBMPlexSans-Regular-20" x="148.299973"/>
      <use xlink:href="#IBMPlexSans-Regular-53" x="171.899963"/>
      <use xlink:href="#IBMPlexSans-Regular-74" x="229.999954"/>
      <use xlink:href="#IBMPlexSans-Regular-65" x="265.099945"/>
      <use xlink:href="#IBMPlexSans-Regular-70" x="319.999939"/>
     </g>
    </g>
   </g>
   <g id="matplotlib.axis_2">
    <g id="ytick_1">
     <g id="line2d_10">
      <path d="M 51.3 278.315992 
L 538.281818 278.315992 
" clip-path="url(#p62840e2747)" style="fill: none; stroke-dasharray: 3.7,1.6; stroke-dashoffset: 0; stroke: #838383; stroke-opacity: 0.2"/>
     </g>
     <g id="text_11">
      <!-- −6 -->
      <g style="fill: #838383" transform="translate(25.3 283.403492) scale(0.1375 -0.1375)">
       <defs>
        <path id="IBMPlexSans-Regular-2212" d="M 429 1734 
L 429 2170 
L 3411 2170 
L 3411 1734 
L 429 1734 
z
" transform="scale(0.015625)"/>
        <path id="IBMPlexSans-Regular-36" d="M 1926 -77 
Q 1581 -77 1302 41 
Q 1024 160 829 381 
Q 634 602 531 922 
Q 429 1242 429 1638 
Q 429 2138 576 2576 
Q 723 3014 956 3376 
Q 1190 3738 1472 4016 
Q 1754 4294 2022 4467 
L 2714 4467 
Q 2355 4205 2073 3955 
Q 1792 3706 1581 3434 
Q 1370 3162 1222 2851 
Q 1075 2541 986 2150 
L 1018 2138 
Q 1178 2413 1430 2595 
Q 1683 2778 2093 2778 
Q 2381 2778 2624 2682 
Q 2867 2586 3040 2406 
Q 3213 2227 3312 1971 
Q 3411 1715 3411 1402 
Q 3411 1075 3305 803 
Q 3200 531 3005 336 
Q 2810 141 2534 32 
Q 2259 -77 1926 -77 
z
M 1920 390 
Q 2362 390 2608 633 
Q 2854 877 2854 1331 
L 2854 1382 
Q 2854 1837 2608 2080 
Q 2362 2323 1920 2323 
Q 1478 2323 1232 2080 
Q 986 1837 986 1382 
L 986 1331 
Q 986 877 1232 633 
Q 1478 390 1920 390 
z
" transform="scale(0.015625)"/>
       </defs>
       <use xlink:href="#IBMPlexSans-Regular-2212"/>
       <use xlink:href="#IBMPlexSans-Regular-36" x="59.999985"/>
      </g>
     </g>
    </g>
    <g id="ytick_2">
     <g id="line2d_11">
      <path d="M 51.3 246.059993 
L 538.281818 246.059993 
" clip-path="url(#p62840e2747)" style="fill: none; stroke-dasharray: 3.7,1.6; stroke-dashoffset: 0; stroke: #838383; stroke-opacity: 0.2"/>
     </g>
     <g id="text_12">
      <!-- −4 -->
      <g style="fill: #838383" transform="translate(25.3 251.147493) scale(0.1375 -0.1375)">
       <defs>
        <path id="IBMPlexSans-Regular-34" d="M 2400 0 
L 2400 877 
L 243 877 
L 243 1350 
L 2112 4467 
L 2912 4467 
L 2912 1325 
L 3558 1325 
L 3558 877 
L 2912 877 
L 2912 0 
L 2400 0 
z
M 749 1325 
L 2400 1325 
L 2400 4051 
L 2368 4051 
L 749 1325 
z
" transform="scale(0.015625)"/>
       </defs>
       <use xlink:href="#IBMPlexSans-Regular-2212"/>
       <use xlink:href="#IBMPlexSans-Regular-34" x="59.999985"/>
      </g>
     </g>
    </g>
    <g id="ytick_3">
     <g id="line2d_12">
      <path d="M 51.3 213.803994 
L 538.281818 213.803994 
" clip-path="url(#p62840e2747)" style="fill: none; stroke-dasharray: 3.7,1.6; stroke-dashoffset: 0; stroke: #838383; stroke-opacity: 0.2"/>
     </g>
     <g id="text_13">
      <!-- −2 -->
      <g style="fill: #838383" transform="translate(25.3 218.891494) scale(0.1375 -0.1375)">
       <use xlink:href="#IBMPlexSans-Regular-2212"/>
       <use xlink:href="#IBMPlexSans-Regular-32" x="59.999985"/>
      </g>
     </g>
    </g>
    <g id="ytick_4">
     <g id="line2d_13">
      <path d="M 51.3 181.547995 
L 538.281818 181.547995 
" clip-path="url(#p62840e2747)" style="fill: none; stroke-dasharray: 3.7,1.6; stroke-dashoffset: 0; stroke: #838383; stroke-opacity: 0.2"/>
     </g>
     <g id="text_14">
      <!-- 0 -->
      <g style="fill: #838383" transform="translate(33.55 186.635495) scale(0.1375 -0.1375)">
       <use xlink:href="#IBMPlexSans-Regular-30"/>
      </g>
     </g>
    </g>
    <g id="ytick_5">
     <g id="line2d_14">
      <path d="M 51.3 149.291996 
L 538.281818 149.291996 
" clip-path="url(#p62840e2747)" style="fill: none; stroke-dasharray: 3.7,1.6; stroke-dashoffset: 0; stroke: #838383; stroke-opacity: 0.2"/>
     </g>
     <g id="text_15">
      <!-- 2 -->
      <g style="fill: #838383" transform="translate(33.55 154.379496) scale(0.1375 -0.1375)">
       <use xlink:href="#IBMPlexSans-Regular-32"/>
      </g>
     </g>
    </g>
    <g id="ytick_6">
     <g id="line2d_15">
      <path d="M 51.3 117.035997 
L 538.281818 117.035997 
" clip-path="url(#p62840e2747)" style="fill: none; stroke-dasharray: 3.7,1.6; stroke-dashoffset: 0; stroke: #838383; stroke-opacity: 0.2"/>
     </g>
     <g id="text_16">
      <!-- 4 -->
      <g style="fill: #838383" transform="translate(33.55 122.123497) scale(0.1375 -0.1375)">
       <use xlink:href="#IBMPlexSans-Regular-34"/>
      </g>
     </g>
    </g>
    <g id="ytick_7">
     <g id="line2d_16">
      <path d="M 51.3 84.779998 
L 538.281818 84.779998 
" clip-path="url(#p62840e2747)" style="fill: none; stroke-dasharray: 3.7,1.6; stroke-dashoffset: 0; stroke: #838383; stroke-opacity: 0.2"/>
     </g>
     <g id="text_17">
      <!-- 6 -->
      <g style="fill: #838383" transform="translate(33.55 89.867498) scale(0.1375 -0.1375)">
       <use xlink:href="#IBMPlexSans-Regular-36"/>
      </g>
     </g>
    </g>
    <g id="ytick_8">
     <g id="line2d_17">
      <path d="M 51.3 52.523999 
L 538.281818 52.523999 
" clip-path="url(#p62840e2747)" style="fill: none; stroke-dasharray: 3.7,1.6; stroke-dashoffset: 0; stroke: #838383; stroke-opacity: 0.2"/>
     </g>
     <g id="text_18">
      <!-- 8 -->
      <g style="fill: #838383" transform="translate(33.55 57.611499) scale(0.1375 -0.1375)">
       <defs>
        <path id="IBMPlexSans-Regular-38" d="M 1920 -77 
Q 1536 -77 1248 22 
Q 960 122 765 294 
Q 570 467 470 704 
Q 371 941 371 1216 
Q 371 1677 620 1945 
Q 870 2214 1274 2323 
L 1274 2374 
Q 922 2496 714 2768 
Q 506 3040 506 3424 
Q 506 3936 877 4240 
Q 1248 4544 1920 4544 
Q 2592 4544 2963 4240 
Q 3334 3936 3334 3424 
Q 3334 3040 3126 2768 
Q 2918 2496 2566 2374 
L 2566 2323 
Q 2970 2214 3219 1945 
Q 3469 1677 3469 1216 
Q 3469 941 3369 704 
Q 3270 467 3075 294 
Q 2880 122 2592 22 
Q 2304 -77 1920 -77 
z
M 1920 390 
Q 2387 390 2643 598 
Q 2899 806 2899 1190 
L 2899 1325 
Q 2899 1709 2643 1917 
Q 2387 2125 1920 2125 
Q 1453 2125 1197 1917 
Q 941 1709 941 1325 
L 941 1190 
Q 941 806 1197 598 
Q 1453 390 1920 390 
z
M 1920 2573 
Q 2342 2573 2560 2752 
Q 2778 2931 2778 3277 
L 2778 3373 
Q 2778 3718 2560 3897 
Q 2342 4077 1920 4077 
Q 1498 4077 1280 3897 
Q 1062 3718 1062 3373 
L 1062 3277 
Q 1062 2931 1280 2752 
Q 1498 2573 1920 2573 
z
" transform="scale(0.015625)"/>
       </defs>
       <use xlink:href="#IBMPlexSans-Regular-38"/>
      </g>
     </g>
    </g>
    <g id="text_19">
     <!-- dQint -->
     <g style="fill: #838383" transform="translate(18.3 175.782562) rotate(-90) scale(0.15 -0.15)">
      <defs>
       <path id="IBMPlexSans-Regular-64" d="M 2656 538 
L 2630 538 
Q 2330 -77 1664 -77 
Q 1357 -77 1107 44 
Q 858 166 682 390 
Q 506 614 413 934 
Q 320 1254 320 1651 
Q 320 2048 413 2368 
Q 506 2688 682 2912 
Q 858 3136 1107 3257 
Q 1357 3379 1664 3379 
Q 2010 3379 2256 3228 
Q 2502 3078 2630 2765 
L 2656 2765 
L 2656 4736 
L 3168 4736 
L 3168 0 
L 2656 0 
L 2656 538 
z
M 1805 384 
Q 1978 384 2134 429 
Q 2291 474 2406 560 
Q 2522 646 2589 771 
Q 2656 896 2656 1056 
L 2656 2285 
Q 2656 2419 2589 2537 
Q 2522 2656 2406 2739 
Q 2291 2822 2134 2870 
Q 1978 2918 1805 2918 
Q 1370 2918 1120 2646 
Q 870 2374 870 1933 
L 870 1370 
Q 870 928 1120 656 
Q 1370 384 1805 384 
z
" transform="scale(0.015625)"/>
       <path id="IBMPlexSans-Regular-51" d="M 3251 -1050 
L 2592 -1050 
Q 2323 -1050 2188 -899 
Q 2054 -749 2054 -525 
L 2054 -70 
Q 1670 -32 1356 134 
Q 1043 301 825 592 
Q 608 883 489 1296 
Q 371 1709 371 2234 
Q 371 2797 505 3225 
Q 640 3654 886 3948 
Q 1133 4243 1481 4393 
Q 1830 4544 2266 4544 
Q 2694 4544 3046 4393 
Q 3398 4243 3644 3948 
Q 3891 3654 4025 3225 
Q 4160 2797 4160 2234 
Q 4160 1203 3731 624 
Q 3302 45 2566 -58 
L 2566 -602 
L 3251 -602 
L 3251 -1050 
z
M 2266 403 
Q 2554 403 2797 505 
Q 3040 608 3216 800 
Q 3392 992 3488 1261 
Q 3584 1530 3584 1862 
L 3584 2605 
Q 3584 2938 3488 3206 
Q 3392 3475 3216 3667 
Q 3040 3859 2797 3961 
Q 2554 4064 2266 4064 
Q 1978 4064 1734 3961 
Q 1491 3859 1315 3667 
Q 1139 3475 1043 3206 
Q 947 2938 947 2605 
L 947 1862 
Q 947 1530 1043 1261 
Q 1139 992 1315 800 
Q 1491 608 1734 505 
Q 1978 403 2266 403 
z
" transform="scale(0.015625)"/>
       <path id="IBMPlexSans-Regular-69" d="M 800 4077 
Q 634 4077 560 4157 
Q 486 4237 486 4365 
L 486 4448 
Q 486 4576 560 4656 
Q 634 4736 800 4736 
Q 966 4736 1040 4656 
Q 1114 4576 1114 4448 
L 1114 4365 
Q 1114 4237 1040 4157 
Q 966 4077 800 4077 
z
M 544 3302 
L 1056 3302 
L 1056 0 
L 544 0 
L 544 3302 
z
" transform="scale(0.015625)"/>
       <path id="IBMPlexSans-Regular-6e" d="M 544 0 
L 544 3302 
L 1056 3302 
L 1056 2765 
L 1082 2765 
Q 1203 3046 1424 3212 
Q 1645 3379 2016 3379 
Q 2528 3379 2825 3049 
Q 3123 2720 3123 2118 
L 3123 0 
L 2611 0 
L 2611 2029 
Q 2611 2918 1862 2918 
Q 1709 2918 1565 2880 
Q 1421 2842 1305 2765 
Q 1190 2688 1123 2569 
Q 1056 2451 1056 2291 
L 1056 0 
L 544 0 
z
" transform="scale(0.015625)"/>
      </defs>
      <use xlink:href="#IBMPlexSans-Regular-64"/>
      <use xlink:href="#IBMPlexSans-Regular-51" x="57.999985"/>
      <use xlink:href="#IBMPlexSans-Regular-69" x="128.799973"/>
      <use xlink:href="#IBMPlexSans-Regular-6e" x="153.799957"/>
      <use xlink:href="#IBMPlexSans-Regular-74" x="210.599945"/>
     </g>
    </g>
   </g>
   <g id="line2d_18">
    <path d="M 73.435537 100.90799 
L 75.660214 84.779998 
L 77.884891 84.779998 
L 80.109569 52.523999 
L 82.334246 68.651999 
L 86.7836 68.651991 
L 89.008277 84.779998 
L 91.232954 68.651999 
L 93.457631 68.651984 
L 95.682308 52.523999 
L 97.906985 84.780006 
L 100.131662 100.907983 
L 129.052465 100.90799 
L 131.277142 117.03599 
L 142.400527 117.035997 
L 146.849882 149.291996 
L 149.074559 133.163997 
L 151.299236 133.163997 
L 155.74859 100.90799 
L 157.973267 100.908006 
L 162.422621 68.651999 
L 164.647298 68.651999 
L 166.871976 84.779998 
L 169.096653 68.652007 
L 171.32133 68.651999 
L 175.770684 100.907998 
L 177.995361 84.779991 
L 180.220038 84.779991 
L 182.444715 68.651984 
L 186.89407 68.651999 
L 191.343424 100.907998 
L 193.568101 100.907998 
L 195.792778 84.779998 
L 202.466809 133.164001 
L 204.691486 117.03599 
L 206.916163 117.035997 
L 209.140841 84.779998 
L 213.590195 84.779998 
L 215.814872 100.907998 
L 220.264226 100.90799 
L 222.488903 117.035997 
L 224.71358 84.779991 
L 226.938257 100.907983 
L 229.162935 100.90799 
L 231.387612 84.779998 
L 238.061643 84.780006 
L 240.28632 100.907998 
L 242.510997 100.907983 
L 244.735674 84.779998 
L 246.960351 84.779998 
L 249.185028 117.035982 
L 255.85906 117.035997 
L 258.083737 100.907998 
L 260.308414 133.163989 
L 262.533091 149.292004 
L 266.982445 149.291981 
L 269.207122 117.035997 
L 278.105831 117.035997 
L 280.330508 84.779998 
L 282.555185 100.907983 
L 284.779862 133.163997 
L 287.004539 133.164001 
L 289.229216 100.90799 
L 291.453893 84.779998 
L 293.678571 84.779998 
L 295.903248 100.907998 
L 304.801956 100.907983 
L 307.026633 117.035997 
L 322.599373 117.03599 
L 324.82405 100.907983 
L 327.048727 100.907998 
L 329.273404 84.779998 
L 333.722758 84.779991 
L 335.947436 117.035997 
L 338.172113 100.907998 
L 355.969529 100.907998 
L 360.418884 68.651999 
L 362.643561 68.651999 
L 364.868238 84.780006 
L 367.092915 68.651991 
L 371.542269 100.907998 
L 373.766946 84.780006 
L 375.991623 133.163997 
L 382.665655 133.163989 
L 384.890332 149.291996 
L 387.115009 149.291996 
L 389.339686 84.779998 
L 391.564363 100.908006 
L 398.238394 100.907983 
L 400.463072 117.036001 
L 402.687749 117.03599 
L 404.912426 100.907998 
L 409.36178 100.90799 
L 411.586457 117.03599 
L 413.811134 117.035997 
L 416.035811 100.907998 
L 418.260488 117.035997 
L 424.93452 117.035982 
L 427.159197 133.163989 
L 429.383874 117.035997 
L 431.608551 117.035982 
L 433.833228 133.164001 
L 436.057905 117.035997 
L 440.507259 149.291989 
L 444.956614 117.035997 
L 449.405968 117.036001 
L 451.630645 84.779983 
L 453.855322 68.651984 
L 458.304676 68.651999 
L 462.75403 36.396 
L 467.203385 68.651991 
L 469.428062 68.651991 
L 471.652739 84.779991 
L 473.877416 84.779998 
L 482.776124 149.291996 
L 485.000802 149.291989 
L 487.225479 165.420004 
L 489.450156 117.036001 
L 491.674833 117.03599 
L 493.89951 100.907998 
L 513.921604 100.907998 
L 516.146281 84.779998 
L 516.146281 84.779998 
" clip-path="url(#p62840e2747)" style="fill: none; stroke-dasharray: 1.5,2.475; stroke-dashoffset: 0; stroke: #ef5350; stroke-width: 1.5"/>
   </g>
   <g id="text_20">
    <!-- PyTorch -->
    <g style="fill: #838383" transform="translate(267.228409 18.3) scale(0.15 -0.15)">
     <defs>
      <path id="IBMPlexSans-Regular-50" d="M 595 0 
L 595 4467 
L 2374 4467 
Q 2976 4467 3299 4124 
Q 3622 3782 3622 3187 
Q 3622 2592 3299 2249 
Q 2976 1907 2374 1907 
L 1133 1907 
L 1133 0 
L 595 0 
z
M 1133 2381 
L 2374 2381 
Q 2694 2381 2870 2547 
Q 3046 2714 3046 3021 
L 3046 3354 
Q 3046 3661 2870 3827 
Q 2694 3994 2374 3994 
L 1133 3994 
L 1133 2381 
z
" transform="scale(0.015625)"/>
      <path id="IBMPlexSans-Regular-79" d="M 2579 3302 
L 3085 3302 
L 1606 -768 
Q 1549 -915 1491 -1014 
Q 1434 -1114 1350 -1171 
Q 1267 -1229 1142 -1254 
Q 1018 -1280 838 -1280 
L 576 -1280 
L 576 -832 
L 1094 -832 
L 1344 -128 
L 109 3302 
L 621 3302 
L 1414 1056 
L 1568 518 
L 1600 518 
L 1779 1056 
L 2579 3302 
z
" transform="scale(0.015625)"/>
      <path id="IBMPlexSans-Regular-54" d="M 2099 3994 
L 2099 0 
L 1562 0 
L 1562 3994 
L 141 3994 
L 141 4467 
L 3520 4467 
L 3520 3994 
L 2099 3994 
z
" transform="scale(0.015625)"/>
      <path id="IBMPlexSans-Regular-6f" d="M 1792 -77 
Q 1459 -77 1184 44 
Q 909 166 713 393 
Q 518 621 409 937 
Q 301 1254 301 1651 
Q 301 2042 409 2362 
Q 518 2682 713 2909 
Q 909 3136 1184 3257 
Q 1459 3379 1792 3379 
Q 2125 3379 2397 3257 
Q 2669 3136 2867 2909 
Q 3066 2682 3174 2362 
Q 3283 2042 3283 1651 
Q 3283 1254 3174 937 
Q 3066 621 2867 393 
Q 2669 166 2397 44 
Q 2125 -77 1792 -77 
z
M 1792 378 
Q 2208 378 2470 634 
Q 2733 890 2733 1414 
L 2733 1888 
Q 2733 2413 2470 2669 
Q 2208 2925 1792 2925 
Q 1376 2925 1113 2669 
Q 851 2413 851 1888 
L 851 1414 
Q 851 890 1113 634 
Q 1376 378 1792 378 
z
" transform="scale(0.015625)"/>
      <path id="IBMPlexSans-Regular-72" d="M 544 0 
L 544 3302 
L 1056 3302 
L 1056 2694 
L 1088 2694 
Q 1178 2931 1408 3116 
Q 1638 3302 2042 3302 
L 2240 3302 
L 2240 2790 
L 1939 2790 
Q 1523 2790 1289 2633 
Q 1056 2477 1056 2240 
L 1056 0 
L 544 0 
z
" transform="scale(0.015625)"/>
      <path id="IBMPlexSans-Regular-63" d="M 1773 -77 
Q 1427 -77 1152 44 
Q 877 166 688 390 
Q 499 614 400 934 
Q 301 1254 301 1651 
Q 301 2048 400 2368 
Q 499 2688 688 2912 
Q 877 3136 1152 3257 
Q 1427 3379 1773 3379 
Q 2266 3379 2563 3164 
Q 2861 2950 3008 2605 
L 2579 2387 
Q 2490 2643 2285 2784 
Q 2080 2925 1773 2925 
Q 1542 2925 1369 2851 
Q 1197 2778 1081 2646 
Q 966 2515 908 2332 
Q 851 2150 851 1933 
L 851 1370 
Q 851 934 1084 656 
Q 1318 378 1773 378 
Q 2394 378 2669 954 
L 3040 704 
Q 2880 346 2563 134 
Q 2246 -77 1773 -77 
z
" transform="scale(0.015625)"/>
      <path id="IBMPlexSans-Regular-68" d="M 544 4736 
L 1056 4736 
L 1056 2765 
L 1082 2765 
Q 1203 3046 1424 3212 
Q 1645 3379 2016 3379 
Q 2528 3379 2825 3049 
Q 3123 2720 3123 2118 
L 3123 0 
L 2611 0 
L 2611 2029 
Q 2611 2918 1862 2918 
Q 1709 2918 1565 2880 
Q 1421 2842 1305 2765 
Q 1190 2688 1123 2569 
Q 1056 2451 1056 2291 
L 1056 0 
L 544 0 
L 544 4736 
z
" transform="scale(0.015625)"/>
     </defs>
     <use xlink:href="#IBMPlexSans-Regular-50"/>
     <use xlink:href="#IBMPlexSans-Regular-79" x="60.599991"/>
     <use xlink:href="#IBMPlexSans-Regular-54" x="110.499985"/>
     <use xlink:href="#IBMPlexSans-Regular-6f" x="167.699982"/>
     <use xlink:href="#IBMPlexSans-Regular-72" x="223.699966"/>
     <use xlink:href="#IBMPlexSans-Regular-63" x="260.399963"/>
     <use xlink:href="#IBMPlexSans-Regular-68" x="310.699951"/>
    </g>
   </g>
   <g id="line2d_19">
    <path d="M 73.435537 262.187993 
L 120.153756 262.187993 
L 122.378433 278.315992 
L 189.118747 278.315985 
L 191.343424 246.059986 
L 309.25131 246.059993 
L 311.475987 262.187993 
L 318.150019 262.187993 
L 320.374696 246.059993 
L 322.599373 246.059989 
L 324.82405 229.93199 
L 327.048727 229.93199 
L 329.273404 246.059986 
L 331.498081 246.059989 
L 333.722758 229.931986 
L 335.947436 246.059986 
L 349.295498 246.060009 
L 351.520175 262.187993 
L 367.092915 262.187985 
L 369.317592 278.316 
L 371.542269 262.187985 
L 378.216301 262.187985 
L 380.440978 229.931994 
L 431.608551 229.931994 
L 433.833228 246.059986 
L 449.405968 246.059993 
L 451.630645 229.93199 
L 507.247573 229.93199 
L 509.47225 246.060001 
L 516.146281 246.060001 
L 516.146281 246.060001 
" clip-path="url(#p62840e2747)" style="fill: none; stroke: #666666; stroke-width: 2; stroke-linecap: round"/>
   </g>
   <g id="legend_1">
    <g id="line2d_20">
     <path d="M 204.314835 42.0375 
L 218.064835 42.0375 
L 231.814835 42.0375 
" style="fill: none; stroke-dasharray: 1.5,2.475; stroke-dashoffset: 0; stroke: #ef5350; stroke-width: 1.5"/>
    </g>
    <g id="text_21">
     <!-- Trained -->
     <g style="fill: #939393" transform="translate(242.814835 46.85) scale(0.1375 -0.1375)">
      <defs>
       <path id="IBMPlexSans-Regular-61" d="M 2944 0 
Q 2656 0 2531 153 
Q 2406 307 2374 538 
L 2342 538 
Q 2234 230 1984 76 
Q 1734 -77 1389 -77 
Q 864 -77 573 192 
Q 282 461 282 922 
Q 282 1389 624 1638 
Q 966 1888 1690 1888 
L 2342 1888 
L 2342 2214 
Q 2342 2566 2150 2752 
Q 1958 2938 1562 2938 
Q 1261 2938 1059 2803 
Q 858 2669 723 2445 
L 416 2733 
Q 550 3002 844 3190 
Q 1139 3379 1587 3379 
Q 2189 3379 2521 3084 
Q 2854 2790 2854 2266 
L 2854 448 
L 3232 448 
L 3232 0 
L 2944 0 
z
M 1472 358 
Q 1664 358 1824 403 
Q 1984 448 2099 531 
Q 2214 614 2278 723 
Q 2342 832 2342 960 
L 2342 1504 
L 1664 1504 
Q 1222 1504 1020 1376 
Q 819 1248 819 1005 
L 819 870 
Q 819 627 995 492 
Q 1171 358 1472 358 
z
" transform="scale(0.015625)"/>
      </defs>
      <use xlink:href="#IBMPlexSans-Regular-54"/>
      <use xlink:href="#IBMPlexSans-Regular-72" x="57.199997"/>
      <use xlink:href="#IBMPlexSans-Regular-61" x="93.899994"/>
      <use xlink:href="#IBMPlexSans-Regular-69" x="147.299988"/>
      <use xlink:href="#IBMPlexSans-Regular-6e" x="172.299973"/>
      <use xlink:href="#IBMPlexSans-Regular-65" x="229.09996"/>
      <use xlink:href="#IBMPlexSans-Regular-64" x="283.999954"/>
     </g>
    </g>
    <g id="line2d_21">
     <path d="M 317.341983 42.0375 
L 331.091983 42.0375 
L 344.841983 42.0375 
" style="fill: none; stroke: #666666; stroke-width: 2; stroke-linecap: round"/>
    </g>
    <g id="text_22">
     <!-- HMC -->
     <g style="fill: #939393" transform="translate(355.841983 46.85) scale(0.1375 -0.1375)">
      <defs>
       <path id="IBMPlexSans-Regular-48" d="M 3392 2022 
L 1133 2022 
L 1133 0 
L 595 0 
L 595 4467 
L 1133 4467 
L 1133 2496 
L 3392 2496 
L 3392 4467 
L 3930 4467 
L 3930 0 
L 3392 0 
L 3392 2022 
z
" transform="scale(0.015625)"/>
       <path id="IBMPlexSans-Regular-43" d="M 2170 -77 
Q 1318 -77 844 502 
Q 371 1082 371 2208 
Q 371 3334 844 3939 
Q 1318 4544 2170 4544 
Q 2733 4544 3113 4288 
Q 3494 4032 3706 3565 
L 3270 3302 
Q 3136 3648 2861 3856 
Q 2586 4064 2170 4064 
Q 1882 4064 1654 3955 
Q 1427 3846 1270 3644 
Q 1114 3443 1030 3164 
Q 947 2886 947 2541 
L 947 1875 
Q 947 1184 1267 793 
Q 1587 403 2170 403 
Q 2598 403 2886 624 
Q 3174 845 3309 1210 
L 3738 941 
Q 3526 467 3129 195 
Q 2733 -77 2170 -77 
z
" transform="scale(0.015625)"/>
      </defs>
      <use xlink:href="#IBMPlexSans-Regular-48"/>
      <use xlink:href="#IBMPlexSans-Regular-4d" x="70.699982"/>
      <use xlink:href="#IBMPlexSans-Regular-43" x="151.899963"/>
     </g>
    </g>
   </g>
  </g>
  <g id="axes_2">
   <g id="patch_3">
    <path d="M 635.678182 290.412 
L 1122.66 290.412 
L 1122.66 24.3 
L 635.678182 24.3 
L 635.678182 290.412 
z
" style="fill: none"/>
   </g>
   <g id="matplotlib.axis_3">
    <g id="xtick_10">
     <g id="line2d_22">
      <path d="M 657.813719 290.412 
L 657.813719 24.3 
" clip-path="url(#p1aa8178d71)" style="fill: none; stroke-dasharray: 3.7,1.6; stroke-dashoffset: 0; stroke: #838383; stroke-opacity: 0.2"/>
     </g>
     <g id="text_23">
      <!-- 0 -->
      <g style="fill: #838383" transform="translate(653.688719 310.087) scale(0.1375 -0.1375)">
       <use xlink:href="#IBMPlexSans-Regular-30"/>
      </g>
     </g>
    </g>
    <g id="xtick_11">
     <g id="line2d_23">
      <path d="M 713.430647 290.412 
L 713.430647 24.3 
" clip-path="url(#p1aa8178d71)" style="fill: none; stroke-dasharray: 3.7,1.6; stroke-dashoffset: 0; stroke: #838383; stroke-opacity: 0.2"/>
     </g>
     <g id="text_24">
      <!-- 25 -->
      <g style="fill: #838383" transform="translate(705.180647 310.087) scale(0.1375 -0.1375)">
       <use xlink:href="#IBMPlexSans-Regular-32"/>
       <use xlink:href="#IBMPlexSans-Regular-35" x="59.999985"/>
      </g>
     </g>
    </g>
    <g id="xtick_12">
     <g id="line2d_24">
      <path d="M 769.047574 290.412 
L 769.047574 24.3 
" clip-path="url(#p1aa8178d71)" style="fill: none; stroke-dasharray: 3.7,1.6; stroke-dashoffset: 0; stroke: #838383; stroke-opacity: 0.2"/>
     </g>
     <g id="text_25">
      <!-- 50 -->
      <g style="fill: #838383" transform="translate(760.797574 310.087) scale(0.1375 -0.1375)">
       <use xlink:href="#IBMPlexSans-Regular-35"/>
       <use xlink:href="#IBMPlexSans-Regular-30" x="59.999985"/>
      </g>
     </g>
    </g>
    <g id="xtick_13">
     <g id="line2d_25">
      <path d="M 824.664502 290.412 
L 824.664502 24.3 
" clip-path="url(#p1aa8178d71)" style="fill: none; stroke-dasharray: 3.7,1.6; stroke-dashoffset: 0; stroke: #838383; stroke-opacity: 0.2"/>
     </g>
     <g id="text_26">
      <!-- 75 -->
      <g style="fill: #838383" transform="translate(816.414502 310.087) scale(0.1375 -0.1375)">
       <use xlink:href="#IBMPlexSans-Regular-37"/>
       <use xlink:href="#IBMPlexSans-Regular-35" x="59.999985"/>
      </g>
     </g>
    </g>
    <g id="xtick_14">
     <g id="line2d_26">
      <path d="M 880.281429 290.412 
L 880.281429 24.3 
" clip-path="url(#p1aa8178d71)" style="fill: none; stroke-dasharray: 3.7,1.6; stroke-dashoffset: 0; stroke: #838383; stroke-opacity: 0.2"/>
     </g>
     <g id="text_27">
      <!-- 100 -->
      <g style="fill: #838383" transform="translate(867.906429 310.087) scale(0.1375 -0.1375)">
       <use xlink:href="#IBMPlexSans-Regular-31"/>
       <use xlink:href="#IBMPlexSans-Regular-30" x="59.999985"/>
       <use xlink:href="#IBMPlexSans-Regular-30" x="119.999969"/>
      </g>
     </g>
    </g>
    <g id="xtick_15">
     <g id="line2d_27">
      <path d="M 935.898357 290.412 
L 935.898357 24.3 
" clip-path="url(#p1aa8178d71)" style="fill: none; stroke-dasharray: 3.7,1.6; stroke-dashoffset: 0; stroke: #838383; stroke-opacity: 0.2"/>
     </g>
     <g id="text_28">
      <!-- 125 -->
      <g style="fill: #838383" transform="translate(923.523357 310.087) scale(0.1375 -0.1375)">
       <use xlink:href="#IBMPlexSans-Regular-31"/>
       <use xlink:href="#IBMPlexSans-Regular-32" x="59.999985"/>
       <use xlink:href="#IBMPlexSans-Regular-35" x="119.999969"/>
      </g>
     </g>
    </g>
    <g id="xtick_16">
     <g id="line2d_28">
      <path d="M 991.515285 290.412 
L 991.515285 24.3 
" clip-path="url(#p1aa8178d71)" style="fill: none; stroke-dasharray: 3.7,1.6; stroke-dashoffset: 0; stroke: #838383; stroke-opacity: 0.2"/>
     </g>
     <g id="text_29">
      <!-- 150 -->
      <g style="fill: #838383" transform="translate(979.140285 310.087) scale(0.1375 -0.1375)">
       <use xlink:href="#IBMPlexSans-Regular-31"/>
       <use xlink:href="#IBMPlexSans-Regular-35" x="59.999985"/>
       <use xlink:href="#IBMPlexSans-Regular-30" x="119.999969"/>
      </g>
     </g>
    </g>
    <g id="xtick_17">
     <g id="line2d_29">
      <path d="M 1047.132212 290.412 
L 1047.132212 24.3 
" clip-path="url(#p1aa8178d71)" style="fill: none; stroke-dasharray: 3.7,1.6; stroke-dashoffset: 0; stroke: #838383; stroke-opacity: 0.2"/>
     </g>
     <g id="text_30">
      <!-- 175 -->
      <g style="fill: #838383" transform="translate(1034.757212 310.087) scale(0.1375 -0.1375)">
       <use xlink:href="#IBMPlexSans-Regular-31"/>
       <use xlink:href="#IBMPlexSans-Regular-37" x="59.999985"/>
       <use xlink:href="#IBMPlexSans-Regular-35" x="119.999969"/>
      </g>
     </g>
    </g>
    <g id="xtick_18">
     <g id="line2d_30">
      <path d="M 1102.74914 290.412 
L 1102.74914 24.3 
" clip-path="url(#p1aa8178d71)" style="fill: none; stroke-dasharray: 3.7,1.6; stroke-dashoffset: 0; stroke: #838383; stroke-opacity: 0.2"/>
     </g>
     <g id="text_31">
      <!-- 200 -->
      <g style="fill: #838383" transform="translate(1090.37414 310.087) scale(0.1375 -0.1375)">
       <use xlink:href="#IBMPlexSans-Regular-32"/>
       <use xlink:href="#IBMPlexSans-Regular-30" x="59.999985"/>
       <use xlink:href="#IBMPlexSans-Regular-30" x="119.999969"/>
      </g>
     </g>
    </g>
    <g id="text_32">
     <!-- MD Step -->
     <g style="fill: #838383" transform="translate(850.820263 327.937) scale(0.15 -0.15)">
      <use xlink:href="#IBMPlexSans-Regular-4d"/>
      <use xlink:href="#IBMPlexSans-Regular-44" x="81.199982"/>
      <use xlink:href="#IBMPlexSans-Regular-20" x="148.299973"/>
      <use xlink:href="#IBMPlexSans-Regular-53" x="171.899963"/>
      <use xlink:href="#IBMPlexSans-Regular-74" x="229.999954"/>
      <use xlink:href="#IBMPlexSans-Regular-65" x="265.099945"/>
      <use xlink:href="#IBMPlexSans-Regular-70" x="319.999939"/>
     </g>
    </g>
   </g>
   <g id="matplotlib.axis_4">
    <g id="ytick_9">
     <g id="line2d_31">
      <path d="M 635.678182 262.187987 
L 1122.66 262.187987 
" clip-path="url(#p1aa8178d71)" style="fill: none; stroke-dasharray: 3.7,1.6; stroke-dashoffset: 0; stroke: #838383; stroke-opacity: 0.2"/>
     </g>
     <g id="text_33">
      <!-- −6 -->
      <g style="fill: #838383" transform="translate(609.678182 267.275487) scale(0.1375 -0.1375)">
       <use xlink:href="#IBMPlexSans-Regular-2212"/>
       <use xlink:href="#IBMPlexSans-Regular-36" x="59.999985"/>
      </g>
     </g>
    </g>
    <g id="ytick_10">
     <g id="line2d_32">
      <path d="M 635.678182 229.931991 
L 1122.66 229.931991 
" clip-path="url(#p1aa8178d71)" style="fill: none; stroke-dasharray: 3.7,1.6; stroke-dashoffset: 0; stroke: #838383; stroke-opacity: 0.2"/>
     </g>
     <g id="text_34">
      <!-- −4 -->
      <g style="fill: #838383" transform="translate(609.678182 235.019491) scale(0.1375 -0.1375)">
       <use xlink:href="#IBMPlexSans-Regular-2212"/>
       <use xlink:href="#IBMPlexSans-Regular-34" x="59.999985"/>
      </g>
     </g>
    </g>
    <g id="ytick_11">
     <g id="line2d_33">
      <path d="M 635.678182 197.675995 
L 1122.66 197.675995 
" clip-path="url(#p1aa8178d71)" style="fill: none; stroke-dasharray: 3.7,1.6; stroke-dashoffset: 0; stroke: #838383; stroke-opacity: 0.2"/>
     </g>
     <g id="text_35">
      <!-- −2 -->
      <g style="fill: #838383" transform="translate(609.678182 202.763495) scale(0.1375 -0.1375)">
       <use xlink:href="#IBMPlexSans-Regular-2212"/>
       <use xlink:href="#IBMPlexSans-Regular-32" x="59.999985"/>
      </g>
     </g>
    </g>
    <g id="ytick_12">
     <g id="line2d_34">
      <path d="M 635.678182 165.419999 
L 1122.66 165.419999 
" clip-path="url(#p1aa8178d71)" style="fill: none; stroke-dasharray: 3.7,1.6; stroke-dashoffset: 0; stroke: #838383; stroke-opacity: 0.2"/>
     </g>
     <g id="text_36">
      <!-- 0 -->
      <g style="fill: #838383" transform="translate(617.928182 170.507499) scale(0.1375 -0.1375)">
       <use xlink:href="#IBMPlexSans-Regular-30"/>
      </g>
     </g>
    </g>
    <g id="ytick_13">
     <g id="line2d_35">
      <path d="M 635.678182 133.164003 
L 1122.66 133.164003 
" clip-path="url(#p1aa8178d71)" style="fill: none; stroke-dasharray: 3.7,1.6; stroke-dashoffset: 0; stroke: #838383; stroke-opacity: 0.2"/>
     </g>
     <g id="text_37">
      <!-- 2 -->
      <g style="fill: #838383" transform="translate(617.928182 138.251503) scale(0.1375 -0.1375)">
       <use xlink:href="#IBMPlexSans-Regular-32"/>
      </g>
     </g>
    </g>
    <g id="ytick_14">
     <g id="line2d_36">
      <path d="M 635.678182 100.908007 
L 1122.66 100.908007 
" clip-path="url(#p1aa8178d71)" style="fill: none; stroke-dasharray: 3.7,1.6; stroke-dashoffset: 0; stroke: #838383; stroke-opacity: 0.2"/>
     </g>
     <g id="text_38">
      <!-- 4 -->
      <g style="fill: #838383" transform="translate(617.928182 105.995507) scale(0.1375 -0.1375)">
       <use xlink:href="#IBMPlexSans-Regular-34"/>
      </g>
     </g>
    </g>
    <g id="ytick_15">
     <g id="line2d_37">
      <path d="M 635.678182 68.652011 
L 1122.66 68.652011 
" clip-path="url(#p1aa8178d71)" style="fill: none; stroke-dasharray: 3.7,1.6; stroke-dashoffset: 0; stroke: #838383; stroke-opacity: 0.2"/>
     </g>
     <g id="text_39">
      <!-- 6 -->
      <g style="fill: #838383" transform="translate(617.928182 73.739511) scale(0.1375 -0.1375)">
       <use xlink:href="#IBMPlexSans-Regular-36"/>
      </g>
     </g>
    </g>
    <g id="ytick_16">
     <g id="line2d_38">
      <path d="M 635.678182 36.396015 
L 1122.66 36.396015 
" clip-path="url(#p1aa8178d71)" style="fill: none; stroke-dasharray: 3.7,1.6; stroke-dashoffset: 0; stroke: #838383; stroke-opacity: 0.2"/>
     </g>
     <g id="text_40">
      <!-- 8 -->
      <g style="fill: #838383" transform="translate(617.928182 41.483515) scale(0.1375 -0.1375)">
       <use xlink:href="#IBMPlexSans-Regular-38"/>
      </g>
     </g>
    </g>
   </g>
   <g id="line2d_39">
    <path d="M 657.813719 117.035994 
L 660.038396 84.780002 
L 662.263073 68.651996 
L 664.48775 68.652011 
L 668.937105 36.396015 
L 673.386459 36.396015 
L 675.611136 52.524013 
L 677.835813 52.523998 
L 680.06049 68.652011 
L 684.509844 68.652011 
L 686.734521 36.396015 
L 691.183876 36.396015 
L 693.408553 68.652011 
L 695.63323 52.524013 
L 697.857907 68.652004 
L 702.307261 68.652011 
L 704.531938 52.524013 
L 706.756615 68.652004 
L 711.20597 68.652004 
L 713.430647 52.524013 
L 715.655324 68.652004 
L 720.104678 68.651996 
L 722.329355 84.779994 
L 724.554032 84.780009 
L 726.778709 100.908015 
L 731.228063 100.908007 
L 733.452741 52.524006 
L 737.902095 84.780009 
L 744.576126 84.780017 
L 746.800803 68.652011 
L 749.02548 68.652011 
L 751.250157 84.780017 
L 753.474835 68.652011 
L 755.699512 68.651996 
L 757.924189 84.780017 
L 764.59822 84.780002 
L 766.822897 117.035997 
L 769.047574 133.163992 
L 773.496928 133.164003 
L 775.721606 117.035997 
L 777.946283 117.036009 
L 782.395637 84.780009 
L 784.620314 84.779994 
L 786.844991 100.908007 
L 789.069668 100.907999 
L 791.294345 84.780002 
L 797.968377 84.780017 
L 800.193054 68.651996 
L 806.867085 68.652011 
L 809.091762 117.035994 
L 811.316439 117.036005 
L 813.541116 84.779994 
L 815.765793 117.035997 
L 817.990471 84.780009 
L 820.215148 84.780009 
L 822.439825 100.908007 
L 824.664502 100.908011 
L 826.889179 84.780009 
L 829.113856 84.780002 
L 831.338533 68.651996 
L 833.56321 84.780009 
L 840.237242 84.780002 
L 842.461919 68.652004 
L 846.911273 68.652011 
L 849.13595 84.780009 
L 851.360627 68.652011 
L 855.809981 100.908007 
L 860.259336 100.907999 
L 864.70869 133.163992 
L 866.933367 133.163992 
L 869.158044 117.036009 
L 873.607398 117.03599 
L 875.832075 68.652011 
L 880.281429 68.651996 
L 882.506107 52.523998 
L 884.730784 68.651996 
L 886.955461 52.524006 
L 893.629492 52.524013 
L 895.854169 68.652011 
L 900.303523 68.652011 
L 902.528201 52.523998 
L 904.752878 52.524013 
L 906.977555 84.780009 
L 909.202232 68.651996 
L 913.651586 68.652011 
L 915.876263 84.780002 
L 922.550294 84.780002 
L 924.774972 100.907999 
L 926.999649 84.780009 
L 929.224326 84.780002 
L 931.449003 68.652019 
L 942.572388 68.652011 
L 947.021743 100.907999 
L 953.695774 100.908007 
L 955.920451 117.035997 
L 958.145128 117.035997 
L 960.369805 100.908007 
L 964.819159 100.908007 
L 967.043837 117.035994 
L 969.268514 84.780002 
L 971.493191 100.908007 
L 973.717868 84.780009 
L 978.167222 84.780009 
L 980.391899 117.035997 
L 982.616576 117.036005 
L 984.841253 84.780009 
L 987.06593 100.908015 
L 993.739962 100.907992 
L 995.964639 117.03599 
L 1000.413993 117.035997 
L 1002.63867 133.163992 
L 1007.088024 133.164003 
L 1009.312702 149.291997 
L 1011.537379 133.164003 
L 1027.110118 133.164011 
L 1029.334795 149.291997 
L 1031.559473 181.548005 
L 1033.78415 149.291997 
L 1036.008827 165.419999 
L 1038.233504 133.164003 
L 1040.458181 149.291997 
L 1044.907535 117.035997 
L 1047.132212 133.164007 
L 1049.356889 117.036009 
L 1051.581567 133.164003 
L 1053.806244 133.164003 
L 1056.030921 117.036009 
L 1058.255598 117.035994 
L 1060.480275 133.164007 
L 1062.704952 133.163988 
L 1067.154306 100.908007 
L 1071.60366 100.908007 
L 1073.828338 52.523998 
L 1076.053015 36.396 
L 1082.727046 84.780002 
L 1084.951723 68.651996 
L 1087.1764 84.780009 
L 1091.625754 84.780017 
L 1093.850431 100.907999 
L 1100.524463 52.523998 
L 1100.524463 52.523998 
" clip-path="url(#p1aa8178d71)" style="fill: none; stroke-dasharray: 1.5,2.475; stroke-dashoffset: 0; stroke: #2196f3; stroke-width: 1.5"/>
   </g>
   <g id="text_41">
    <!-- TensorFlow -->
    <g style="fill: #838383" transform="translate(839.702685 18.3) scale(0.15 -0.15)">
     <defs>
      <path id="IBMPlexSans-Regular-73" d="M 1536 -77 
Q 1075 -77 764 99 
Q 454 275 230 570 
L 595 864 
Q 787 621 1024 489 
Q 1261 358 1574 358 
Q 1901 358 2083 499 
Q 2266 640 2266 896 
Q 2266 1088 2141 1225 
Q 2016 1363 1690 1414 
L 1427 1453 
Q 1197 1485 1005 1552 
Q 813 1619 669 1731 
Q 525 1843 445 2009 
Q 365 2176 365 2406 
Q 365 2650 454 2832 
Q 544 3014 701 3136 
Q 858 3258 1075 3318 
Q 1293 3379 1542 3379 
Q 1946 3379 2218 3238 
Q 2490 3098 2694 2848 
L 2355 2541 
Q 2246 2694 2035 2819 
Q 1824 2944 1504 2944 
Q 1184 2944 1021 2806 
Q 858 2669 858 2432 
Q 858 2189 1021 2080 
Q 1184 1971 1491 1920 
L 1747 1882 
Q 2298 1798 2528 1564 
Q 2758 1331 2758 954 
Q 2758 474 2432 198 
Q 2106 -77 1536 -77 
z
" transform="scale(0.015625)"/>
      <path id="IBMPlexSans-Regular-46" d="M 595 0 
L 595 4467 
L 3258 4467 
L 3258 3994 
L 1133 3994 
L 1133 2496 
L 3072 2496 
L 3072 2022 
L 1133 2022 
L 1133 0 
L 595 0 
z
" transform="scale(0.015625)"/>
      <path id="IBMPlexSans-Regular-6c" d="M 1088 0 
Q 819 0 681 150 
Q 544 301 544 531 
L 544 4736 
L 1056 4736 
L 1056 448 
L 1542 448 
L 1542 0 
L 1088 0 
z
" transform="scale(0.015625)"/>
      <path id="IBMPlexSans-Regular-77" d="M 198 3302 
L 698 3302 
L 1050 1875 
L 1402 429 
L 1414 429 
L 1818 1875 
L 2234 3302 
L 2688 3302 
L 3117 1875 
L 3526 429 
L 3539 429 
L 3878 1875 
L 4237 3302 
L 4717 3302 
L 3840 0 
L 3206 0 
L 2746 1587 
L 2458 2592 
L 2445 2592 
L 2163 1587 
L 1702 0 
L 1082 0 
L 198 3302 
z
" transform="scale(0.015625)"/>
     </defs>
     <use xlink:href="#IBMPlexSans-Regular-54"/>
     <use xlink:href="#IBMPlexSans-Regular-65" x="57.199997"/>
     <use xlink:href="#IBMPlexSans-Regular-6e" x="112.099991"/>
     <use xlink:href="#IBMPlexSans-Regular-73" x="168.899979"/>
     <use xlink:href="#IBMPlexSans-Regular-6f" x="217.599976"/>
     <use xlink:href="#IBMPlexSans-Regular-72" x="273.59996"/>
     <use xlink:href="#IBMPlexSans-Regular-46" x="310.299957"/>
     <use xlink:href="#IBMPlexSans-Regular-6c" x="366.199951"/>
     <use xlink:href="#IBMPlexSans-Regular-6f" x="393.399948"/>
     <use xlink:href="#IBMPlexSans-Regular-77" x="449.399933"/>
    </g>
   </g>
   <g id="line2d_40">
    <path d="M 657.813719 246.059989 
L 695.63323 246.059989 
L 697.857907 262.187994 
L 769.047574 262.187979 
L 771.272251 213.804001 
L 802.417731 213.804001 
L 804.642408 229.931991 
L 813.541116 229.931998 
L 815.765793 246.060004 
L 817.990471 246.060004 
L 820.215148 278.315954 
L 835.787887 278.315985 
L 838.012564 262.187987 
L 840.237242 262.187987 
L 842.461919 246.059958 
L 882.506107 246.059996 
L 884.730784 262.18801 
L 949.24642 262.187987 
L 951.471097 246.059996 
L 953.695774 246.059996 
L 955.920451 197.67601 
L 960.369805 197.67601 
L 962.594482 213.803977 
L 964.819159 197.675987 
L 967.043837 213.803985 
L 969.268514 213.803993 
L 971.493191 229.931998 
L 998.189316 229.931983 
L 1000.413993 213.803977 
L 1007.088024 213.803977 
L 1009.312702 197.676003 
L 1011.537379 213.803981 
L 1013.762056 213.803962 
L 1015.986733 197.675956 
L 1018.21141 213.80397 
L 1029.334795 213.803981 
L 1031.559473 229.931968 
L 1040.458181 229.932006 
L 1042.682858 246.060043 
L 1067.154306 246.059973 
L 1069.378983 262.188002 
L 1071.60366 262.188017 
L 1073.828338 246.059973 
L 1080.502369 246.060012 
L 1082.727046 262.187987 
L 1100.524463 262.188025 
L 1100.524463 262.188025 
" clip-path="url(#p1aa8178d71)" style="fill: none; stroke: #666666; stroke-width: 2; stroke-linecap: round"/>
   </g>
   <g id="legend_2">
    <g id="line2d_41">
     <path d="M 648.053182 156.256 
L 661.803182 156.256 
L 675.553182 156.256 
" style="fill: none; stroke-dasharray: 1.5,2.475; stroke-dashoffset: 0; stroke: #2196f3; stroke-width: 1.5"/>
    </g>
    <g id="text_42">
     <!-- Trained -->
     <g style="fill: #939393" transform="translate(686.553182 161.0685) scale(0.1375 -0.1375)">
      <use xlink:href="#IBMPlexSans-Regular-54"/>
      <use xlink:href="#IBMPlexSans-Regular-72" x="57.199997"/>
      <use xlink:href="#IBMPlexSans-Regular-61" x="93.899994"/>
      <use xlink:href="#IBMPlexSans-Regular-69" x="147.299988"/>
      <use xlink:href="#IBMPlexSans-Regular-6e" x="172.299973"/>
      <use xlink:href="#IBMPlexSans-Regular-65" x="229.09996"/>
      <use xlink:href="#IBMPlexSans-Regular-64" x="283.999954"/>
     </g>
    </g>
    <g id="line2d_42">
     <path d="M 761.08033 156.256 
L 774.83033 156.256 
L 788.58033 156.256 
" style="fill: none; stroke: #666666; stroke-width: 2; stroke-linecap: round"/>
    </g>
    <g id="text_43">
     <!-- HMC -->
     <g style="fill: #939393" transform="translate(799.58033 161.0685) scale(0.1375 -0.1375)">
      <use xlink:href="#IBMPlexSans-Regular-48"/>
      <use xlink:href="#IBMPlexSans-Regular-4d" x="70.699982"/>
      <use xlink:href="#IBMPlexSans-Regular-43" x="151.899963"/>
     </g>
    </g>
   </g>
  </g>
 </g>
 <defs>
  <clipPath id="p62840e2747">
   <rect x="51.3" y="24.3" width="486.981818" height="266.112"/>
  </clipPath>
  <clipPath id="p1aa8178d71">
   <rect x="635.678182" y="24.3" width="486.981818" height="266.112"/>
  </clipPath>
 </defs>
</svg>
