<?xml version="1.0" encoding="utf-8" standalone="no"?>
<!DOCTYPE svg PUBLIC "-//W3C//DTD SVG 1.1//EN"
  "http://www.w3.org/Graphics/SVG/1.1/DTD/svg11.dtd">
<svg xmlns:xlink="http://www.w3.org/1999/xlink" width="481.796875pt" height="216.044609pt" viewBox="0 0 481.796875 216.044609" xmlns="http://www.w3.org/2000/svg" version="1.1">
 <metadata>
  <rdf:RDF xmlns:dc="http://purl.org/dc/elements/1.1/" xmlns:cc="http://creativecommons.org/ns#" xmlns:rdf="http://www.w3.org/1999/02/22-rdf-syntax-ns#">
   <cc:Work>
    <dc:type rdf:resource="http://purl.org/dc/dcmitype/StillImage"/>
    <dc:date>2023-12-05T12:16:35.204799</dc:date>
    <dc:format>image/svg+xml</dc:format>
    <dc:creator>
     <cc:Agent>
      <dc:title>Matplotlib v3.8.2, https://matplotlib.org/</dc:title>
     </cc:Agent>
    </dc:creator>
   </cc:Work>
  </rdf:RDF>
 </metadata>
 <defs>
  <style type="text/css">*{stroke-linejoin: round; stroke-linecap: butt}</style>
 </defs>
 <g id="figure_1">
  <g id="patch_1">
   <path d="M 0 216.044609 
L 481.796875 216.044609 
L 481.796875 0 
L 0 0 
L 0 216.044609 
z
" style="fill: none"/>
  </g>
  <g id="axes_1">
   <g id="patch_2">
    <path d="M 28.196875 173.52 
L 474.596875 173.52 
L 474.596875 7.2 
L 28.196875 7.2 
L 28.196875 173.52 
z
" style="fill: none"/>
   </g>
   <g id="matplotlib.axis_1">
    <g id="xtick_1">
     <g id="line2d_1">
      <path d="M 48.487784 173.52 
L 48.487784 7.2 
" clip-path="url(#pe931cbf991)" style="fill: none; stroke: #cccccc; stroke-opacity: 0; stroke-width: 0.4; stroke-linecap: round"/>
     </g>
     <g id="text_1">
      <!-- 0 -->
      <g style="fill: #838383" transform="translate(44.113565 187.467852) scale(0.1375 -0.1375)">
       <defs>
        <path id="DejaVuSans-30" d="M 2034 4250 
Q 1547 4250 1301 3770 
Q 1056 3291 1056 2328 
Q 1056 1369 1301 889 
Q 1547 409 2034 409 
Q 2525 409 2770 889 
Q 3016 1369 3016 2328 
Q 3016 3291 2770 3770 
Q 2525 4250 2034 4250 
z
M 2034 4750 
Q 2819 4750 3233 4129 
Q 3647 3509 3647 2328 
Q 3647 1150 3233 529 
Q 2819 -91 2034 -91 
Q 1250 -91 836 529 
Q 422 1150 422 2328 
Q 422 3509 836 4129 
Q 1250 4750 2034 4750 
z
" transform="scale(0.015625)"/>
       </defs>
       <use xlink:href="#DejaVuSans-30"/>
      </g>
     </g>
    </g>
    <g id="xtick_2">
     <g id="line2d_2">
      <path d="M 106.46181 173.52 
L 106.46181 7.2 
" clip-path="url(#pe931cbf991)" style="fill: none; stroke: #cccccc; stroke-opacity: 0; stroke-width: 0.4; stroke-linecap: round"/>
     </g>
     <g id="text_2">
      <!-- 2 -->
      <g style="fill: #838383" transform="translate(102.087591 187.467852) scale(0.1375 -0.1375)">
       <defs>
        <path id="DejaVuSans-32" d="M 1228 531 
L 3431 531 
L 3431 0 
L 469 0 
L 469 531 
Q 828 903 1448 1529 
Q 2069 2156 2228 2338 
Q 2531 2678 2651 2914 
Q 2772 3150 2772 3378 
Q 2772 3750 2511 3984 
Q 2250 4219 1831 4219 
Q 1534 4219 1204 4116 
Q 875 4013 500 3803 
L 500 4441 
Q 881 4594 1212 4672 
Q 1544 4750 1819 4750 
Q 2544 4750 2975 4387 
Q 3406 4025 3406 3419 
Q 3406 3131 3298 2873 
Q 3191 2616 2906 2266 
Q 2828 2175 2409 1742 
Q 1991 1309 1228 531 
z
" transform="scale(0.015625)"/>
       </defs>
       <use xlink:href="#DejaVuSans-32"/>
      </g>
     </g>
    </g>
    <g id="xtick_3">
     <g id="line2d_3">
      <path d="M 164.435836 173.52 
L 164.435836 7.2 
" clip-path="url(#pe931cbf991)" style="fill: none; stroke: #cccccc; stroke-opacity: 0; stroke-width: 0.4; stroke-linecap: round"/>
     </g>
     <g id="text_3">
      <!-- 4 -->
      <g style="fill: #838383" transform="translate(160.061617 187.467852) scale(0.1375 -0.1375)">
       <defs>
        <path id="DejaVuSans-34" d="M 2419 4116 
L 825 1625 
L 2419 1625 
L 2419 4116 
z
M 2253 4666 
L 3047 4666 
L 3047 1625 
L 3713 1625 
L 3713 1100 
L 3047 1100 
L 3047 0 
L 2419 0 
L 2419 1100 
L 313 1100 
L 313 1709 
L 2253 4666 
z
" transform="scale(0.015625)"/>
       </defs>
       <use xlink:href="#DejaVuSans-34"/>
      </g>
     </g>
    </g>
    <g id="xtick_4">
     <g id="line2d_4">
      <path d="M 222.409862 173.52 
L 222.409862 7.2 
" clip-path="url(#pe931cbf991)" style="fill: none; stroke: #cccccc; stroke-opacity: 0; stroke-width: 0.4; stroke-linecap: round"/>
     </g>
     <g id="text_4">
      <!-- 6 -->
      <g style="fill: #838383" transform="translate(218.035643 187.467852) scale(0.1375 -0.1375)">
       <defs>
        <path id="DejaVuSans-36" d="M 2113 2584 
Q 1688 2584 1439 2293 
Q 1191 2003 1191 1497 
Q 1191 994 1439 701 
Q 1688 409 2113 409 
Q 2538 409 2786 701 
Q 3034 994 3034 1497 
Q 3034 2003 2786 2293 
Q 2538 2584 2113 2584 
z
M 3366 4563 
L 3366 3988 
Q 3128 4100 2886 4159 
Q 2644 4219 2406 4219 
Q 1781 4219 1451 3797 
Q 1122 3375 1075 2522 
Q 1259 2794 1537 2939 
Q 1816 3084 2150 3084 
Q 2853 3084 3261 2657 
Q 3669 2231 3669 1497 
Q 3669 778 3244 343 
Q 2819 -91 2113 -91 
Q 1303 -91 875 529 
Q 447 1150 447 2328 
Q 447 3434 972 4092 
Q 1497 4750 2381 4750 
Q 2619 4750 2861 4703 
Q 3103 4656 3366 4563 
z
" transform="scale(0.015625)"/>
       </defs>
       <use xlink:href="#DejaVuSans-36"/>
      </g>
     </g>
    </g>
    <g id="xtick_5">
     <g id="line2d_5">
      <path d="M 280.383888 173.52 
L 280.383888 7.2 
" clip-path="url(#pe931cbf991)" style="fill: none; stroke: #cccccc; stroke-opacity: 0; stroke-width: 0.4; stroke-linecap: round"/>
     </g>
     <g id="text_5">
      <!-- 8 -->
      <g style="fill: #838383" transform="translate(276.009669 187.467852) scale(0.1375 -0.1375)">
       <defs>
        <path id="DejaVuSans-38" d="M 2034 2216 
Q 1584 2216 1326 1975 
Q 1069 1734 1069 1313 
Q 1069 891 1326 650 
Q 1584 409 2034 409 
Q 2484 409 2743 651 
Q 3003 894 3003 1313 
Q 3003 1734 2745 1975 
Q 2488 2216 2034 2216 
z
M 1403 2484 
Q 997 2584 770 2862 
Q 544 3141 544 3541 
Q 544 4100 942 4425 
Q 1341 4750 2034 4750 
Q 2731 4750 3128 4425 
Q 3525 4100 3525 3541 
Q 3525 3141 3298 2862 
Q 3072 2584 2669 2484 
Q 3125 2378 3379 2068 
Q 3634 1759 3634 1313 
Q 3634 634 3220 271 
Q 2806 -91 2034 -91 
Q 1263 -91 848 271 
Q 434 634 434 1313 
Q 434 1759 690 2068 
Q 947 2378 1403 2484 
z
M 1172 3481 
Q 1172 3119 1398 2916 
Q 1625 2713 2034 2713 
Q 2441 2713 2670 2916 
Q 2900 3119 2900 3481 
Q 2900 3844 2670 4047 
Q 2441 4250 2034 4250 
Q 1625 4250 1398 4047 
Q 1172 3844 1172 3481 
z
" transform="scale(0.015625)"/>
       </defs>
       <use xlink:href="#DejaVuSans-38"/>
      </g>
     </g>
    </g>
    <g id="xtick_6">
     <g id="line2d_6">
      <path d="M 338.357914 173.52 
L 338.357914 7.2 
" clip-path="url(#pe931cbf991)" style="fill: none; stroke: #cccccc; stroke-opacity: 0; stroke-width: 0.4; stroke-linecap: round"/>
     </g>
     <g id="text_6">
      <!-- 10 -->
      <g style="fill: #838383" transform="translate(329.609476 187.467852) scale(0.1375 -0.1375)">
       <defs>
        <path id="DejaVuSans-31" d="M 794 531 
L 1825 531 
L 1825 4091 
L 703 3866 
L 703 4441 
L 1819 4666 
L 2450 4666 
L 2450 531 
L 3481 531 
L 3481 0 
L 794 0 
L 794 531 
z
" transform="scale(0.015625)"/>
       </defs>
       <use xlink:href="#DejaVuSans-31"/>
       <use xlink:href="#DejaVuSans-30" x="63.623047"/>
      </g>
     </g>
    </g>
    <g id="xtick_7">
     <g id="line2d_7">
      <path d="M 396.33194 173.52 
L 396.33194 7.2 
" clip-path="url(#pe931cbf991)" style="fill: none; stroke: #cccccc; stroke-opacity: 0; stroke-width: 0.4; stroke-linecap: round"/>
     </g>
     <g id="text_7">
      <!-- 12 -->
      <g style="fill: #838383" transform="translate(387.583502 187.467852) scale(0.1375 -0.1375)">
       <use xlink:href="#DejaVuSans-31"/>
       <use xlink:href="#DejaVuSans-32" x="63.623047"/>
      </g>
     </g>
    </g>
    <g id="xtick_8">
     <g id="line2d_8">
      <path d="M 454.305966 173.52 
L 454.305966 7.2 
" clip-path="url(#pe931cbf991)" style="fill: none; stroke: #cccccc; stroke-opacity: 0; stroke-width: 0.4; stroke-linecap: round"/>
     </g>
     <g id="text_8">
      <!-- 14 -->
      <g style="fill: #838383" transform="translate(445.557528 187.467852) scale(0.1375 -0.1375)">
       <use xlink:href="#DejaVuSans-31"/>
       <use xlink:href="#DejaVuSans-34" x="63.623047"/>
      </g>
     </g>
    </g>
    <g id="text_9">
     <!-- $\delta Q$ -->
     <g style="fill: #838383" transform="translate(240.896875 205.725078) scale(0.15 -0.15)">
      <defs>
       <path id="DejaVuSans-Oblique-3b4" d="M 3472 4053 
Q 3197 4272 2450 4272 
Q 1659 4272 1588 3906 
Q 1531 3619 2328 3469 
Q 2953 3353 3253 3003 
Q 3616 2581 3447 1716 
Q 3284 888 2763 400 
Q 2238 -91 1488 -91 
Q 741 -91 406 400 
Q 72 888 241 1747 
Q 363 2384 891 2900 
Q 1097 3100 1353 3213 
Q 913 3459 1000 3900 
Q 1166 4750 2544 4750 
Q 3234 4750 3566 4531 
L 3472 4053 
z
M 1753 3056 
Q 1525 2966 1306 2738 
Q 969 2384 847 1747 
Q 722 1113 919 756 
Q 1119 397 1584 397 
Q 2044 397 2381 759 
Q 2722 1122 2838 1716 
Q 2956 2338 2731 2638 
Q 2491 2959 2103 2994 
Q 1906 3013 1753 3056 
z
" transform="scale(0.015625)"/>
       <path id="DejaVuSans-Oblique-51" d="M 2309 -84 
Q 2275 -88 2237 -89 
Q 2200 -91 2125 -91 
Q 1250 -91 756 411 
Q 263 913 263 1797 
Q 263 2319 452 2844 
Q 641 3369 978 3788 
Q 1369 4269 1858 4509 
Q 2347 4750 2938 4750 
Q 3794 4750 4287 4245 
Q 4781 3741 4781 2869 
Q 4781 1928 4265 1147 
Q 3750 366 2919 44 
L 3553 -825 
L 2847 -825 
L 2309 -84 
z
M 2919 4238 
Q 2400 4238 2003 3986 
Q 1606 3734 1313 3219 
Q 1125 2891 1026 2522 
Q 928 2153 928 1778 
Q 928 1128 1239 775 
Q 1550 422 2119 422 
Q 2631 422 3032 676 
Q 3434 931 3719 1434 
Q 3909 1772 4009 2142 
Q 4109 2513 4109 2881 
Q 4109 3528 3796 3883 
Q 3484 4238 2919 4238 
z
" transform="scale(0.015625)"/>
      </defs>
      <use xlink:href="#DejaVuSans-Oblique-3b4" transform="translate(0 0.78125)"/>
      <use xlink:href="#DejaVuSans-Oblique-51" transform="translate(61.181641 0.78125)"/>
     </g>
    </g>
   </g>
   <g id="matplotlib.axis_2">
    <g id="ytick_1">
     <g id="line2d_9">
      <path d="M 28.196875 173.52 
L 474.596875 173.52 
" clip-path="url(#pe931cbf991)" style="fill: none; stroke: #cccccc; stroke-opacity: 0; stroke-width: 0.4; stroke-linecap: round"/>
     </g>
     <g id="text_10">
      <!-- 0 -->
      <g style="fill: #838383" transform="translate(15.948437 178.743926) scale(0.1375 -0.1375)">
       <use xlink:href="#DejaVuSans-30"/>
      </g>
     </g>
    </g>
    <g id="ytick_2">
     <g id="line2d_10">
      <path d="M 28.196875 137.106207 
L 474.596875 137.106207 
" clip-path="url(#pe931cbf991)" style="fill: none; stroke: #cccccc; stroke-opacity: 0; stroke-width: 0.4; stroke-linecap: round"/>
     </g>
     <g id="text_11">
      <!-- 20 -->
      <g style="fill: #838383" transform="translate(7.2 142.330133) scale(0.1375 -0.1375)">
       <use xlink:href="#DejaVuSans-32"/>
       <use xlink:href="#DejaVuSans-30" x="63.623047"/>
      </g>
     </g>
    </g>
    <g id="ytick_3">
     <g id="line2d_11">
      <path d="M 28.196875 100.692414 
L 474.596875 100.692414 
" clip-path="url(#pe931cbf991)" style="fill: none; stroke: #cccccc; stroke-opacity: 0; stroke-width: 0.4; stroke-linecap: round"/>
     </g>
     <g id="text_12">
      <!-- 40 -->
      <g style="fill: #838383" transform="translate(7.2 105.91634) scale(0.1375 -0.1375)">
       <use xlink:href="#DejaVuSans-34"/>
       <use xlink:href="#DejaVuSans-30" x="63.623047"/>
      </g>
     </g>
    </g>
    <g id="ytick_4">
     <g id="line2d_12">
      <path d="M 28.196875 64.278621 
L 474.596875 64.278621 
" clip-path="url(#pe931cbf991)" style="fill: none; stroke: #cccccc; stroke-opacity: 0; stroke-width: 0.4; stroke-linecap: round"/>
     </g>
     <g id="text_13">
      <!-- 60 -->
      <g style="fill: #838383" transform="translate(7.2 69.502546) scale(0.1375 -0.1375)">
       <use xlink:href="#DejaVuSans-36"/>
       <use xlink:href="#DejaVuSans-30" x="63.623047"/>
      </g>
     </g>
    </g>
    <g id="ytick_5">
     <g id="line2d_13">
      <path d="M 28.196875 27.864828 
L 474.596875 27.864828 
" clip-path="url(#pe931cbf991)" style="fill: none; stroke: #cccccc; stroke-opacity: 0; stroke-width: 0.4; stroke-linecap: round"/>
     </g>
     <g id="text_14">
      <!-- 80 -->
      <g style="fill: #838383" transform="translate(7.2 33.088753) scale(0.1375 -0.1375)">
       <use xlink:href="#DejaVuSans-38"/>
       <use xlink:href="#DejaVuSans-30" x="63.623047"/>
      </g>
     </g>
    </g>
   </g>
   <g id="patch_3">
    <path d="M 48.487784 173.52 
L 58.150122 173.52 
L 58.150122 15.12 
L 48.487784 15.12 
z
" clip-path="url(#pe931cbf991)" style="fill: #2196f3; opacity: 0.4"/>
   </g>
   <g id="patch_4">
    <path d="M 58.150122 173.52 
L 67.812459 173.52 
L 67.812459 173.52 
L 58.150122 173.52 
z
" clip-path="url(#pe931cbf991)" style="fill: #2196f3; opacity: 0.4"/>
   </g>
   <g id="patch_5">
    <path d="M 67.812459 173.52 
L 77.474797 173.52 
L 77.474797 173.52 
L 67.812459 173.52 
z
" clip-path="url(#pe931cbf991)" style="fill: #2196f3; opacity: 0.4"/>
   </g>
   <g id="patch_6">
    <path d="M 77.474797 173.52 
L 87.137135 173.52 
L 87.137135 53.354483 
L 77.474797 53.354483 
z
" clip-path="url(#pe931cbf991)" style="fill: #2196f3; opacity: 0.4"/>
   </g>
   <g id="patch_7">
    <path d="M 87.137135 173.52 
L 96.799472 173.52 
L 96.799472 173.52 
L 87.137135 173.52 
z
" clip-path="url(#pe931cbf991)" style="fill: #2196f3; opacity: 0.4"/>
   </g>
   <g id="patch_8">
    <path d="M 96.799472 173.52 
L 106.46181 173.52 
L 106.46181 173.52 
L 96.799472 173.52 
z
" clip-path="url(#pe931cbf991)" style="fill: #2196f3; opacity: 0.4"/>
   </g>
   <g id="patch_9">
    <path d="M 106.46181 173.52 
L 116.124148 173.52 
L 116.124148 124.361379 
L 106.46181 124.361379 
z
" clip-path="url(#pe931cbf991)" style="fill: #2196f3; opacity: 0.4"/>
   </g>
   <g id="patch_10">
    <path d="M 116.124148 173.52 
L 125.786485 173.52 
L 125.786485 173.52 
L 116.124148 173.52 
z
" clip-path="url(#pe931cbf991)" style="fill: #2196f3; opacity: 0.4"/>
   </g>
   <g id="patch_11">
    <path d="M 125.786485 173.52 
L 135.448823 173.52 
L 135.448823 173.52 
L 125.786485 173.52 
z
" clip-path="url(#pe931cbf991)" style="fill: #2196f3; opacity: 0.4"/>
   </g>
   <g id="patch_12">
    <path d="M 135.448823 173.52 
L 145.111161 173.52 
L 145.111161 153.492414 
L 135.448823 153.492414 
z
" clip-path="url(#pe931cbf991)" style="fill: #2196f3; opacity: 0.4"/>
   </g>
   <g id="patch_13">
    <path d="M 145.111161 173.52 
L 154.773498 173.52 
L 154.773498 173.52 
L 145.111161 173.52 
z
" clip-path="url(#pe931cbf991)" style="fill: #2196f3; opacity: 0.4"/>
   </g>
   <g id="patch_14">
    <path d="M 154.773498 173.52 
L 164.435836 173.52 
L 164.435836 173.52 
L 154.773498 173.52 
z
" clip-path="url(#pe931cbf991)" style="fill: #2196f3; opacity: 0.4"/>
   </g>
   <g id="patch_15">
    <path d="M 164.435836 173.52 
L 174.098174 173.52 
L 174.098174 168.057931 
L 164.435836 168.057931 
z
" clip-path="url(#pe931cbf991)" style="fill: #2196f3; opacity: 0.4"/>
   </g>
   <g id="patch_16">
    <path d="M 174.098174 173.52 
L 183.760511 173.52 
L 183.760511 173.52 
L 174.098174 173.52 
z
" clip-path="url(#pe931cbf991)" style="fill: #2196f3; opacity: 0.4"/>
   </g>
   <g id="patch_17">
    <path d="M 183.760511 173.52 
L 193.422849 173.52 
L 193.422849 171.69931 
L 183.760511 171.69931 
z
" clip-path="url(#pe931cbf991)" style="fill: #2196f3; opacity: 0.4"/>
   </g>
   <g id="patch_18">
    <path d="M 77.474797 173.52 
L 106.46181 173.52 
L 106.46181 171.69931 
L 77.474797 171.69931 
z
" clip-path="url(#pe931cbf991)" style="fill: #ef5350; opacity: 0.4"/>
   </g>
   <g id="patch_19">
    <path d="M 106.46181 173.52 
L 135.448823 173.52 
L 135.448823 162.595862 
L 106.46181 162.595862 
z
" clip-path="url(#pe931cbf991)" style="fill: #ef5350; opacity: 0.4"/>
   </g>
   <g id="patch_20">
    <path d="M 135.448823 173.52 
L 164.435836 173.52 
L 164.435836 144.388966 
L 135.448823 144.388966 
z
" clip-path="url(#pe931cbf991)" style="fill: #ef5350; opacity: 0.4"/>
   </g>
   <g id="patch_21">
    <path d="M 164.435836 173.52 
L 193.422849 173.52 
L 193.422849 144.388966 
L 164.435836 144.388966 
z
" clip-path="url(#pe931cbf991)" style="fill: #ef5350; opacity: 0.4"/>
   </g>
   <g id="patch_22">
    <path d="M 193.422849 173.52 
L 222.409862 173.52 
L 222.409862 120.72 
L 193.422849 120.72 
z
" clip-path="url(#pe931cbf991)" style="fill: #ef5350; opacity: 0.4"/>
   </g>
   <g id="patch_23">
    <path d="M 222.409862 173.52 
L 251.396875 173.52 
L 251.396875 104.333793 
L 222.409862 104.333793 
z
" clip-path="url(#pe931cbf991)" style="fill: #ef5350; opacity: 0.4"/>
   </g>
   <g id="patch_24">
    <path d="M 251.396875 173.52 
L 280.383888 173.52 
L 280.383888 126.182069 
L 251.396875 126.182069 
z
" clip-path="url(#pe931cbf991)" style="fill: #ef5350; opacity: 0.4"/>
   </g>
   <g id="patch_25">
    <path d="M 280.383888 173.52 
L 309.370901 173.52 
L 309.370901 128.002759 
L 280.383888 128.002759 
z
" clip-path="url(#pe931cbf991)" style="fill: #ef5350; opacity: 0.4"/>
   </g>
   <g id="patch_26">
    <path d="M 309.370901 173.52 
L 338.357914 173.52 
L 338.357914 140.747586 
L 309.370901 140.747586 
z
" clip-path="url(#pe931cbf991)" style="fill: #ef5350; opacity: 0.4"/>
   </g>
   <g id="patch_27">
    <path d="M 338.357914 173.52 
L 367.344927 173.52 
L 367.344927 153.492414 
L 338.357914 153.492414 
z
" clip-path="url(#pe931cbf991)" style="fill: #ef5350; opacity: 0.4"/>
   </g>
   <g id="patch_28">
    <path d="M 367.344927 173.52 
L 396.33194 173.52 
L 396.33194 168.057931 
L 367.344927 168.057931 
z
" clip-path="url(#pe931cbf991)" style="fill: #ef5350; opacity: 0.4"/>
   </g>
   <g id="patch_29">
    <path d="M 396.33194 173.52 
L 425.318953 173.52 
L 425.318953 168.057931 
L 396.33194 168.057931 
z
" clip-path="url(#pe931cbf991)" style="fill: #ef5350; opacity: 0.4"/>
   </g>
   <g id="patch_30">
    <path d="M 425.318953 173.52 
L 454.305966 173.52 
L 454.305966 168.057931 
L 425.318953 168.057931 
z
" clip-path="url(#pe931cbf991)" style="fill: #ef5350; opacity: 0.4"/>
   </g>
   <g id="patch_31">
    <path d="M 28.196875 173.52 
L 28.196875 7.2 
" style="fill: none"/>
   </g>
   <g id="patch_32">
    <path d="M 474.596875 173.52 
L 474.596875 7.2 
" style="fill: none"/>
   </g>
   <g id="patch_33">
    <path d="M 28.196875 173.52 
L 474.596875 173.52 
" style="fill: none"/>
   </g>
   <g id="patch_34">
    <path d="M 28.196875 7.2 
L 474.596875 7.2 
" style="fill: none"/>
   </g>
   <g id="legend_1">
    <g id="patch_35">
     <path d="M 274.121875 33.6 
L 301.621875 33.6 
L 301.621875 23.975 
L 274.121875 23.975 
z
" style="fill: #2196f3; opacity: 0.4"/>
    </g>
    <g id="text_15">
     <!-- HMC, $ \sum \delta Q =$ 170 -->
     <g style="fill: #838383" transform="translate(312.621875 33.6) scale(0.1375 -0.1375)">
      <defs>
       <path id="DejaVuSans-48" d="M 628 4666 
L 1259 4666 
L 1259 2753 
L 3553 2753 
L 3553 4666 
L 4184 4666 
L 4184 0 
L 3553 0 
L 3553 2222 
L 1259 2222 
L 1259 0 
L 628 0 
L 628 4666 
z
" transform="scale(0.015625)"/>
       <path id="DejaVuSans-4d" d="M 628 4666 
L 1569 4666 
L 2759 1491 
L 3956 4666 
L 4897 4666 
L 4897 0 
L 4281 0 
L 4281 4097 
L 3078 897 
L 2444 897 
L 1241 4097 
L 1241 0 
L 628 0 
L 628 4666 
z
" transform="scale(0.015625)"/>
       <path id="DejaVuSans-43" d="M 4122 4306 
L 4122 3641 
Q 3803 3938 3442 4084 
Q 3081 4231 2675 4231 
Q 1875 4231 1450 3742 
Q 1025 3253 1025 2328 
Q 1025 1406 1450 917 
Q 1875 428 2675 428 
Q 3081 428 3442 575 
Q 3803 722 4122 1019 
L 4122 359 
Q 3791 134 3420 21 
Q 3050 -91 2638 -91 
Q 1578 -91 968 557 
Q 359 1206 359 2328 
Q 359 3453 968 4101 
Q 1578 4750 2638 4750 
Q 3056 4750 3426 4639 
Q 3797 4528 4122 4306 
z
" transform="scale(0.015625)"/>
       <path id="DejaVuSans-2c" d="M 750 794 
L 1409 794 
L 1409 256 
L 897 -744 
L 494 -744 
L 750 256 
L 750 794 
z
" transform="scale(0.015625)"/>
       <path id="DejaVuSans-20" transform="scale(0.015625)"/>
       <path id="DejaVuSansDisplay-2211" d="M 244 6509 
L 5803 6509 
L 5803 5656 
L 1566 5656 
L 4534 2488 
L 1469 -888 
L 5919 -888 
L 5919 -1738 
L 109 -1738 
L 109 -1078 
L 3316 2463 
L 244 5728 
L 244 6509 
z
" transform="scale(0.015625)"/>
       <path id="DejaVuSans-3d" d="M 678 2906 
L 4684 2906 
L 4684 2381 
L 678 2381 
L 678 2906 
z
M 678 1631 
L 4684 1631 
L 4684 1100 
L 678 1100 
L 678 1631 
z
" transform="scale(0.015625)"/>
       <path id="DejaVuSans-37" d="M 525 4666 
L 3525 4666 
L 3525 4397 
L 1831 0 
L 1172 0 
L 2766 4134 
L 525 4134 
L 525 4666 
z
" transform="scale(0.015625)"/>
      </defs>
      <use xlink:href="#DejaVuSans-48" transform="translate(0 0.296875)"/>
      <use xlink:href="#DejaVuSans-4d" transform="translate(75.195312 0.296875)"/>
      <use xlink:href="#DejaVuSans-43" transform="translate(161.474609 0.296875)"/>
      <use xlink:href="#DejaVuSans-2c" transform="translate(231.298828 0.296875)"/>
      <use xlink:href="#DejaVuSans-20" transform="translate(263.085938 0.296875)"/>
      <use xlink:href="#DejaVuSansDisplay-2211" transform="translate(294.873047 0.296875)"/>
      <use xlink:href="#DejaVuSans-Oblique-3b4" transform="translate(390.136719 0.296875)"/>
      <use xlink:href="#DejaVuSans-Oblique-51" transform="translate(451.318359 0.296875)"/>
      <use xlink:href="#DejaVuSans-3d" transform="translate(549.511719 0.296875)"/>
      <use xlink:href="#DejaVuSans-20" transform="translate(652.783203 0.296875)"/>
      <use xlink:href="#DejaVuSans-31" transform="translate(684.570312 0.296875)"/>
      <use xlink:href="#DejaVuSans-37" transform="translate(748.193359 0.296875)"/>
      <use xlink:href="#DejaVuSans-30" transform="translate(811.816406 0.296875)"/>
     </g>
    </g>
    <g id="patch_36">
     <path d="M 274.121875 58.35 
L 301.621875 58.35 
L 301.621875 48.725 
L 274.121875 48.725 
z
" style="fill: #ef5350; opacity: 0.4"/>
    </g>
    <g id="text_16">
     <!-- Trained, $\sum\delta Q =$ 1261 -->
     <g style="fill: #838383" transform="translate(312.621875 58.35) scale(0.1375 -0.1375)">
      <defs>
       <path id="DejaVuSans-54" d="M -19 4666 
L 3928 4666 
L 3928 4134 
L 2272 4134 
L 2272 0 
L 1638 0 
L 1638 4134 
L -19 4134 
L -19 4666 
z
" transform="scale(0.015625)"/>
       <path id="DejaVuSans-72" d="M 2631 2963 
Q 2534 3019 2420 3045 
Q 2306 3072 2169 3072 
Q 1681 3072 1420 2755 
Q 1159 2438 1159 1844 
L 1159 0 
L 581 0 
L 581 3500 
L 1159 3500 
L 1159 2956 
Q 1341 3275 1631 3429 
Q 1922 3584 2338 3584 
Q 2397 3584 2469 3576 
Q 2541 3569 2628 3553 
L 2631 2963 
z
" transform="scale(0.015625)"/>
       <path id="DejaVuSans-61" d="M 2194 1759 
Q 1497 1759 1228 1600 
Q 959 1441 959 1056 
Q 959 750 1161 570 
Q 1363 391 1709 391 
Q 2188 391 2477 730 
Q 2766 1069 2766 1631 
L 2766 1759 
L 2194 1759 
z
M 3341 1997 
L 3341 0 
L 2766 0 
L 2766 531 
Q 2569 213 2275 61 
Q 1981 -91 1556 -91 
Q 1019 -91 701 211 
Q 384 513 384 1019 
Q 384 1609 779 1909 
Q 1175 2209 1959 2209 
L 2766 2209 
L 2766 2266 
Q 2766 2663 2505 2880 
Q 2244 3097 1772 3097 
Q 1472 3097 1187 3025 
Q 903 2953 641 2809 
L 641 3341 
Q 956 3463 1253 3523 
Q 1550 3584 1831 3584 
Q 2591 3584 2966 3190 
Q 3341 2797 3341 1997 
z
" transform="scale(0.015625)"/>
       <path id="DejaVuSans-69" d="M 603 3500 
L 1178 3500 
L 1178 0 
L 603 0 
L 603 3500 
z
M 603 4863 
L 1178 4863 
L 1178 4134 
L 603 4134 
L 603 4863 
z
" transform="scale(0.015625)"/>
       <path id="DejaVuSans-6e" d="M 3513 2113 
L 3513 0 
L 2938 0 
L 2938 2094 
Q 2938 2591 2744 2837 
Q 2550 3084 2163 3084 
Q 1697 3084 1428 2787 
Q 1159 2491 1159 1978 
L 1159 0 
L 581 0 
L 581 3500 
L 1159 3500 
L 1159 2956 
Q 1366 3272 1645 3428 
Q 1925 3584 2291 3584 
Q 2894 3584 3203 3211 
Q 3513 2838 3513 2113 
z
" transform="scale(0.015625)"/>
       <path id="DejaVuSans-65" d="M 3597 1894 
L 3597 1613 
L 953 1613 
Q 991 1019 1311 708 
Q 1631 397 2203 397 
Q 2534 397 2845 478 
Q 3156 559 3463 722 
L 3463 178 
Q 3153 47 2828 -22 
Q 2503 -91 2169 -91 
Q 1331 -91 842 396 
Q 353 884 353 1716 
Q 353 2575 817 3079 
Q 1281 3584 2069 3584 
Q 2775 3584 3186 3129 
Q 3597 2675 3597 1894 
z
M 3022 2063 
Q 3016 2534 2758 2815 
Q 2500 3097 2075 3097 
Q 1594 3097 1305 2825 
Q 1016 2553 972 2059 
L 3022 2063 
z
" transform="scale(0.015625)"/>
       <path id="DejaVuSans-64" d="M 2906 2969 
L 2906 4863 
L 3481 4863 
L 3481 0 
L 2906 0 
L 2906 525 
Q 2725 213 2448 61 
Q 2172 -91 1784 -91 
Q 1150 -91 751 415 
Q 353 922 353 1747 
Q 353 2572 751 3078 
Q 1150 3584 1784 3584 
Q 2172 3584 2448 3432 
Q 2725 3281 2906 2969 
z
M 947 1747 
Q 947 1113 1208 752 
Q 1469 391 1925 391 
Q 2381 391 2643 752 
Q 2906 1113 2906 1747 
Q 2906 2381 2643 2742 
Q 2381 3103 1925 3103 
Q 1469 3103 1208 2742 
Q 947 2381 947 1747 
z
" transform="scale(0.015625)"/>
      </defs>
      <use xlink:href="#DejaVuSans-54" transform="translate(0 0.296875)"/>
      <use xlink:href="#DejaVuSans-72" transform="translate(61.083984 0.296875)"/>
      <use xlink:href="#DejaVuSans-61" transform="translate(102.197266 0.296875)"/>
      <use xlink:href="#DejaVuSans-69" transform="translate(163.476562 0.296875)"/>
      <use xlink:href="#DejaVuSans-6e" transform="translate(191.259766 0.296875)"/>
      <use xlink:href="#DejaVuSans-65" transform="translate(254.638672 0.296875)"/>
      <use xlink:href="#DejaVuSans-64" transform="translate(316.162109 0.296875)"/>
      <use xlink:href="#DejaVuSans-2c" transform="translate(379.638672 0.296875)"/>
      <use xlink:href="#DejaVuSans-20" transform="translate(411.425781 0.296875)"/>
      <use xlink:href="#DejaVuSansDisplay-2211" transform="translate(443.212891 0.296875)"/>
      <use xlink:href="#DejaVuSans-Oblique-3b4" transform="translate(538.476562 0.296875)"/>
      <use xlink:href="#DejaVuSans-Oblique-51" transform="translate(599.658203 0.296875)"/>
      <use xlink:href="#DejaVuSans-3d" transform="translate(697.851562 0.296875)"/>
      <use xlink:href="#DejaVuSans-20" transform="translate(801.123047 0.296875)"/>
      <use xlink:href="#DejaVuSans-31" transform="translate(832.910156 0.296875)"/>
      <use xlink:href="#DejaVuSans-32" transform="translate(896.533203 0.296875)"/>
      <use xlink:href="#DejaVuSans-36" transform="translate(960.15625 0.296875)"/>
      <use xlink:href="#DejaVuSans-31" transform="translate(1023.779297 0.296875)"/>
     </g>
    </g>
   </g>
  </g>
 </g>
 <defs>
  <clipPath id="pe931cbf991">
   <rect x="28.196875" y="7.2" width="446.4" height="166.32"/>
  </clipPath>
 </defs>
</svg>
