<?xml version="1.0" encoding="utf-8" standalone="no"?>
<!DOCTYPE svg PUBLIC "-//W3C//DTD SVG 1.1//EN"
  "http://www.w3.org/Graphics/SVG/1.1/DTD/svg11.dtd">
<svg xmlns:xlink="http://www.w3.org/1999/xlink" width="335.640049pt" height="234.534474pt" viewBox="0 0 335.640049 234.534474" xmlns="http://www.w3.org/2000/svg" version="1.1">
 <metadata>
  <rdf:RDF xmlns:dc="http://purl.org/dc/elements/1.1/" xmlns:cc="http://creativecommons.org/ns#" xmlns:rdf="http://www.w3.org/1999/02/22-rdf-syntax-ns#">
   <cc:Work>
    <dc:type rdf:resource="http://purl.org/dc/dcmitype/StillImage"/>
    <dc:date>2023-12-05T11:48:53.588893</dc:date>
    <dc:format>image/svg+xml</dc:format>
    <dc:creator>
     <cc:Agent>
      <dc:title>Matplotlib v3.8.2, https://matplotlib.org/</dc:title>
     </cc:Agent>
    </dc:creator>
   </cc:Work>
  </rdf:RDF>
 </metadata>
 <defs>
  <style type="text/css">*{stroke-linejoin: round; stroke-linecap: butt}</style>
 </defs>
 <g id="figure_1">
  <g id="patch_1">
   <path d="M 0 234.534474 
L 335.640049 234.534474 
L 335.640049 0 
L 0 0 
L 0 234.534474 
z
" style="fill: none"/>
  </g>
  <g id="axes_1">
   <g id="patch_2">
    <path d="M 59.832422 192.009865 
L 326.208512 192.009865 
L 326.208512 28.442513 
L 59.832422 28.442513 
L 59.832422 192.009865 
z
" style="fill: none"/>
   </g>
   <g id="matplotlib.axis_1">
    <g id="xtick_1">
     <g id="line2d_1">
      <path d="M 71.940426 192.009865 
L 71.940426 28.442513 
" clip-path="url(#paef66c1bdb)" style="fill: none; stroke: #cccccc; stroke-opacity: 0.2; stroke-width: 0.4; stroke-linecap: round"/>
     </g>
     <g id="text_1">
      <!-- 0 -->
      <g style="fill: #838383" transform="translate(67.566207 205.957716) scale(0.1375 -0.1375)">
       <defs>
        <path id="DejaVuSans-30" d="M 2034 4250 
Q 1547 4250 1301 3770 
Q 1056 3291 1056 2328 
Q 1056 1369 1301 889 
Q 1547 409 2034 409 
Q 2525 409 2770 889 
Q 3016 1369 3016 2328 
Q 3016 3291 2770 3770 
Q 2525 4250 2034 4250 
z
M 2034 4750 
Q 2819 4750 3233 4129 
Q 3647 3509 3647 2328 
Q 3647 1150 3233 529 
Q 2819 -91 2034 -91 
Q 1250 -91 836 529 
Q 422 1150 422 2328 
Q 422 3509 836 4129 
Q 1250 4750 2034 4750 
z
" transform="scale(0.015625)"/>
       </defs>
       <use xlink:href="#DejaVuSans-30"/>
      </g>
     </g>
    </g>
    <g id="xtick_2">
     <g id="line2d_2">
      <path d="M 132.784668 192.009865 
L 132.784668 28.442513 
" clip-path="url(#paef66c1bdb)" style="fill: none; stroke: #cccccc; stroke-opacity: 0.2; stroke-width: 0.4; stroke-linecap: round"/>
     </g>
     <g id="text_2">
      <!-- 50 -->
      <g style="fill: #838383" transform="translate(124.03623 205.957716) scale(0.1375 -0.1375)">
       <defs>
        <path id="DejaVuSans-35" d="M 691 4666 
L 3169 4666 
L 3169 4134 
L 1269 4134 
L 1269 2991 
Q 1406 3038 1543 3061 
Q 1681 3084 1819 3084 
Q 2600 3084 3056 2656 
Q 3513 2228 3513 1497 
Q 3513 744 3044 326 
Q 2575 -91 1722 -91 
Q 1428 -91 1123 -41 
Q 819 9 494 109 
L 494 744 
Q 775 591 1075 516 
Q 1375 441 1709 441 
Q 2250 441 2565 725 
Q 2881 1009 2881 1497 
Q 2881 1984 2565 2268 
Q 2250 2553 1709 2553 
Q 1456 2553 1204 2497 
Q 953 2441 691 2322 
L 691 4666 
z
" transform="scale(0.015625)"/>
       </defs>
       <use xlink:href="#DejaVuSans-35"/>
       <use xlink:href="#DejaVuSans-30" x="63.623047"/>
      </g>
     </g>
    </g>
    <g id="xtick_3">
     <g id="line2d_3">
      <path d="M 193.628909 192.009865 
L 193.628909 28.442513 
" clip-path="url(#paef66c1bdb)" style="fill: none; stroke: #cccccc; stroke-opacity: 0.2; stroke-width: 0.4; stroke-linecap: round"/>
     </g>
     <g id="text_3">
      <!-- 100 -->
      <g style="fill: #838383" transform="translate(180.506253 205.957716) scale(0.1375 -0.1375)">
       <defs>
        <path id="DejaVuSans-31" d="M 794 531 
L 1825 531 
L 1825 4091 
L 703 3866 
L 703 4441 
L 1819 4666 
L 2450 4666 
L 2450 531 
L 3481 531 
L 3481 0 
L 794 0 
L 794 531 
z
" transform="scale(0.015625)"/>
       </defs>
       <use xlink:href="#DejaVuSans-31"/>
       <use xlink:href="#DejaVuSans-30" x="63.623047"/>
       <use xlink:href="#DejaVuSans-30" x="127.246094"/>
      </g>
     </g>
    </g>
    <g id="xtick_4">
     <g id="line2d_4">
      <path d="M 254.473151 192.009865 
L 254.473151 28.442513 
" clip-path="url(#paef66c1bdb)" style="fill: none; stroke: #cccccc; stroke-opacity: 0.2; stroke-width: 0.4; stroke-linecap: round"/>
     </g>
     <g id="text_4">
      <!-- 150 -->
      <g style="fill: #838383" transform="translate(241.350494 205.957716) scale(0.1375 -0.1375)">
       <use xlink:href="#DejaVuSans-31"/>
       <use xlink:href="#DejaVuSans-35" x="63.623047"/>
       <use xlink:href="#DejaVuSans-30" x="127.246094"/>
      </g>
     </g>
    </g>
    <g id="xtick_5">
     <g id="line2d_5">
      <path d="M 315.317392 192.009865 
L 315.317392 28.442513 
" clip-path="url(#paef66c1bdb)" style="fill: none; stroke: #cccccc; stroke-opacity: 0.2; stroke-width: 0.4; stroke-linecap: round"/>
     </g>
     <g id="text_5">
      <!-- 200 -->
      <g style="fill: #838383" transform="translate(302.194736 205.957716) scale(0.1375 -0.1375)">
       <defs>
        <path id="DejaVuSans-32" d="M 1228 531 
L 3431 531 
L 3431 0 
L 469 0 
L 469 531 
Q 828 903 1448 1529 
Q 2069 2156 2228 2338 
Q 2531 2678 2651 2914 
Q 2772 3150 2772 3378 
Q 2772 3750 2511 3984 
Q 2250 4219 1831 4219 
Q 1534 4219 1204 4116 
Q 875 4013 500 3803 
L 500 4441 
Q 881 4594 1212 4672 
Q 1544 4750 1819 4750 
Q 2544 4750 2975 4387 
Q 3406 4025 3406 3419 
Q 3406 3131 3298 2873 
Q 3191 2616 2906 2266 
Q 2828 2175 2409 1742 
Q 1991 1309 1228 531 
z
" transform="scale(0.015625)"/>
       </defs>
       <use xlink:href="#DejaVuSans-32"/>
       <use xlink:href="#DejaVuSans-30" x="63.623047"/>
       <use xlink:href="#DejaVuSans-30" x="127.246094"/>
      </g>
     </g>
    </g>
    <g id="text_6">
     <!-- draw -->
     <g style="fill: #838383" transform="translate(174.446248 224.214943) scale(0.15 -0.15)">
      <defs>
       <path id="DejaVuSans-64" d="M 2906 2969 
L 2906 4863 
L 3481 4863 
L 3481 0 
L 2906 0 
L 2906 525 
Q 2725 213 2448 61 
Q 2172 -91 1784 -91 
Q 1150 -91 751 415 
Q 353 922 353 1747 
Q 353 2572 751 3078 
Q 1150 3584 1784 3584 
Q 2172 3584 2448 3432 
Q 2725 3281 2906 2969 
z
M 947 1747 
Q 947 1113 1208 752 
Q 1469 391 1925 391 
Q 2381 391 2643 752 
Q 2906 1113 2906 1747 
Q 2906 2381 2643 2742 
Q 2381 3103 1925 3103 
Q 1469 3103 1208 2742 
Q 947 2381 947 1747 
z
" transform="scale(0.015625)"/>
       <path id="DejaVuSans-72" d="M 2631 2963 
Q 2534 3019 2420 3045 
Q 2306 3072 2169 3072 
Q 1681 3072 1420 2755 
Q 1159 2438 1159 1844 
L 1159 0 
L 581 0 
L 581 3500 
L 1159 3500 
L 1159 2956 
Q 1341 3275 1631 3429 
Q 1922 3584 2338 3584 
Q 2397 3584 2469 3576 
Q 2541 3569 2628 3553 
L 2631 2963 
z
" transform="scale(0.015625)"/>
       <path id="DejaVuSans-61" d="M 2194 1759 
Q 1497 1759 1228 1600 
Q 959 1441 959 1056 
Q 959 750 1161 570 
Q 1363 391 1709 391 
Q 2188 391 2477 730 
Q 2766 1069 2766 1631 
L 2766 1759 
L 2194 1759 
z
M 3341 1997 
L 3341 0 
L 2766 0 
L 2766 531 
Q 2569 213 2275 61 
Q 1981 -91 1556 -91 
Q 1019 -91 701 211 
Q 384 513 384 1019 
Q 384 1609 779 1909 
Q 1175 2209 1959 2209 
L 2766 2209 
L 2766 2266 
Q 2766 2663 2505 2880 
Q 2244 3097 1772 3097 
Q 1472 3097 1187 3025 
Q 903 2953 641 2809 
L 641 3341 
Q 956 3463 1253 3523 
Q 1550 3584 1831 3584 
Q 2591 3584 2966 3190 
Q 3341 2797 3341 1997 
z
" transform="scale(0.015625)"/>
       <path id="DejaVuSans-77" d="M 269 3500 
L 844 3500 
L 1563 769 
L 2278 3500 
L 2956 3500 
L 3675 769 
L 4391 3500 
L 4966 3500 
L 4050 0 
L 3372 0 
L 2619 2869 
L 1863 0 
L 1184 0 
L 269 3500 
z
" transform="scale(0.015625)"/>
      </defs>
      <use xlink:href="#DejaVuSans-64"/>
      <use xlink:href="#DejaVuSans-72" x="63.476562"/>
      <use xlink:href="#DejaVuSans-61" x="104.589844"/>
      <use xlink:href="#DejaVuSans-77" x="165.869141"/>
     </g>
    </g>
   </g>
   <g id="matplotlib.axis_2">
    <g id="ytick_1">
     <g id="line2d_6">
      <path d="M 59.832422 175.617085 
L 326.208512 175.617085 
" clip-path="url(#paef66c1bdb)" style="fill: none; stroke: #cccccc; stroke-opacity: 0.2; stroke-width: 0.4; stroke-linecap: round"/>
     </g>
     <g id="text_7">
      <!-- 0.12 -->
      <g style="fill: #838383" transform="translate(25.717187 180.841011) scale(0.1375 -0.1375)">
       <defs>
        <path id="DejaVuSans-2e" d="M 684 794 
L 1344 794 
L 1344 0 
L 684 0 
L 684 794 
z
" transform="scale(0.015625)"/>
       </defs>
       <use xlink:href="#DejaVuSans-30"/>
       <use xlink:href="#DejaVuSans-2e" x="63.623047"/>
       <use xlink:href="#DejaVuSans-31" x="95.410156"/>
       <use xlink:href="#DejaVuSans-32" x="159.033203"/>
      </g>
     </g>
    </g>
    <g id="ytick_2">
     <g id="line2d_7">
      <path d="M 59.832422 127.378017 
L 326.208512 127.378017 
" clip-path="url(#paef66c1bdb)" style="fill: none; stroke: #cccccc; stroke-opacity: 0.2; stroke-width: 0.4; stroke-linecap: round"/>
     </g>
     <g id="text_8">
      <!-- 0.14 -->
      <g style="fill: #838383" transform="translate(25.717187 132.601943) scale(0.1375 -0.1375)">
       <defs>
        <path id="DejaVuSans-34" d="M 2419 4116 
L 825 1625 
L 2419 1625 
L 2419 4116 
z
M 2253 4666 
L 3047 4666 
L 3047 1625 
L 3713 1625 
L 3713 1100 
L 3047 1100 
L 3047 0 
L 2419 0 
L 2419 1100 
L 313 1100 
L 313 1709 
L 2253 4666 
z
" transform="scale(0.015625)"/>
       </defs>
       <use xlink:href="#DejaVuSans-30"/>
       <use xlink:href="#DejaVuSans-2e" x="63.623047"/>
       <use xlink:href="#DejaVuSans-31" x="95.410156"/>
       <use xlink:href="#DejaVuSans-34" x="159.033203"/>
      </g>
     </g>
    </g>
    <g id="ytick_3">
     <g id="line2d_8">
      <path d="M 59.832422 79.13895 
L 326.208512 79.13895 
" clip-path="url(#paef66c1bdb)" style="fill: none; stroke: #cccccc; stroke-opacity: 0.2; stroke-width: 0.4; stroke-linecap: round"/>
     </g>
     <g id="text_9">
      <!-- 0.16 -->
      <g style="fill: #838383" transform="translate(25.717187 84.362876) scale(0.1375 -0.1375)">
       <defs>
        <path id="DejaVuSans-36" d="M 2113 2584 
Q 1688 2584 1439 2293 
Q 1191 2003 1191 1497 
Q 1191 994 1439 701 
Q 1688 409 2113 409 
Q 2538 409 2786 701 
Q 3034 994 3034 1497 
Q 3034 2003 2786 2293 
Q 2538 2584 2113 2584 
z
M 3366 4563 
L 3366 3988 
Q 3128 4100 2886 4159 
Q 2644 4219 2406 4219 
Q 1781 4219 1451 3797 
Q 1122 3375 1075 2522 
Q 1259 2794 1537 2939 
Q 1816 3084 2150 3084 
Q 2853 3084 3261 2657 
Q 3669 2231 3669 1497 
Q 3669 778 3244 343 
Q 2819 -91 2113 -91 
Q 1303 -91 875 529 
Q 447 1150 447 2328 
Q 447 3434 972 4092 
Q 1497 4750 2381 4750 
Q 2619 4750 2861 4703 
Q 3103 4656 3366 4563 
z
" transform="scale(0.015625)"/>
       </defs>
       <use xlink:href="#DejaVuSans-30"/>
       <use xlink:href="#DejaVuSans-2e" x="63.623047"/>
       <use xlink:href="#DejaVuSans-31" x="95.410156"/>
       <use xlink:href="#DejaVuSans-36" x="159.033203"/>
      </g>
     </g>
    </g>
    <g id="ytick_4">
     <g id="line2d_9">
      <path d="M 59.832422 30.899882 
L 326.208512 30.899882 
" clip-path="url(#paef66c1bdb)" style="fill: none; stroke: #cccccc; stroke-opacity: 0.2; stroke-width: 0.4; stroke-linecap: round"/>
     </g>
     <g id="text_10">
      <!-- 0.18 -->
      <g style="fill: #838383" transform="translate(25.717187 36.123808) scale(0.1375 -0.1375)">
       <defs>
        <path id="DejaVuSans-38" d="M 2034 2216 
Q 1584 2216 1326 1975 
Q 1069 1734 1069 1313 
Q 1069 891 1326 650 
Q 1584 409 2034 409 
Q 2484 409 2743 651 
Q 3003 894 3003 1313 
Q 3003 1734 2745 1975 
Q 2488 2216 2034 2216 
z
M 1403 2484 
Q 997 2584 770 2862 
Q 544 3141 544 3541 
Q 544 4100 942 4425 
Q 1341 4750 2034 4750 
Q 2731 4750 3128 4425 
Q 3525 4100 3525 3541 
Q 3525 3141 3298 2862 
Q 3072 2584 2669 2484 
Q 3125 2378 3379 2068 
Q 3634 1759 3634 1313 
Q 3634 634 3220 271 
Q 2806 -91 2034 -91 
Q 1263 -91 848 271 
Q 434 634 434 1313 
Q 434 1759 690 2068 
Q 947 2378 1403 2484 
z
M 1172 3481 
Q 1172 3119 1398 2916 
Q 1625 2713 2034 2713 
Q 2441 2713 2670 2916 
Q 2900 3119 2900 3481 
Q 2900 3844 2670 4047 
Q 2441 4250 2034 4250 
Q 1625 4250 1398 4047 
Q 1172 3844 1172 3481 
z
" transform="scale(0.015625)"/>
       </defs>
       <use xlink:href="#DejaVuSans-30"/>
       <use xlink:href="#DejaVuSans-2e" x="63.623047"/>
       <use xlink:href="#DejaVuSans-31" x="95.410156"/>
       <use xlink:href="#DejaVuSans-38" x="159.033203"/>
      </g>
     </g>
    </g>
    <g id="text_11">
     <!-- dt -->
     <g style="fill: #838383" transform="translate(18.597656 117.927751) rotate(-90) scale(0.15 -0.15)">
      <defs>
       <path id="DejaVuSans-74" d="M 1172 4494 
L 1172 3500 
L 2356 3500 
L 2356 3053 
L 1172 3053 
L 1172 1153 
Q 1172 725 1289 603 
Q 1406 481 1766 481 
L 2356 481 
L 2356 0 
L 1766 0 
Q 1100 0 847 248 
Q 594 497 594 1153 
L 594 3053 
L 172 3053 
L 172 3500 
L 594 3500 
L 594 4494 
L 1172 4494 
z
" transform="scale(0.015625)"/>
      </defs>
      <use xlink:href="#DejaVuSans-64"/>
      <use xlink:href="#DejaVuSans-74" x="63.476562"/>
     </g>
    </g>
   </g>
   <g id="line2d_10">
    <path d="M 71.940426 126.725653 
L 73.157311 180.976294 
L 74.374196 180.292554 
L 75.59108 181.572626 
L 76.807965 179.915894 
L 79.241735 184.574985 
L 80.45862 181.179863 
L 81.675505 181.72559 
L 82.892389 183.636496 
L 86.543044 180.636437 
L 87.759929 181.974589 
L 90.193698 179.306911 
L 91.410583 177.8756 
L 93.844353 178.404075 
L 96.278123 176.326403 
L 98.711892 178.673201 
L 106.013201 182.164932 
L 108.446971 182.373101 
L 109.663856 180.955017 
L 112.097625 182.176433 
L 118.18205 180.442643 
L 119.398934 181.371932 
L 120.615819 180.808378 
L 123.049589 176.664535 
L 125.483359 178.130349 
L 127.917128 179.548434 
L 129.134013 178.61282 
L 130.350898 175.435644 
L 131.567783 177.792792 
L 135.218437 177.090651 
L 136.435322 176.514446 
L 137.652207 177.160807 
L 138.869092 179.249405 
L 140.085977 176.66166 
L 142.519746 178.731856 
L 143.736631 177.216013 
L 147.387286 178.56394 
L 148.60417 178.271238 
L 149.821055 159.106971 
L 151.03794 35.877393 
L 152.254825 163.508439 
L 153.47171 178.815239 
L 155.905479 177.854898 
L 157.122364 178.427653 
L 158.339249 164.454403 
L 159.556134 179.097591 
L 160.773019 179.320712 
L 164.423673 176.310877 
L 165.640558 179.223528 
L 168.074328 178.118848 
L 169.291212 178.341394 
L 170.508097 176.76287 
L 172.941867 178.777286 
L 174.158752 177.106177 
L 175.375637 178.282164 
L 176.592521 177.748513 
L 177.809406 179.125769 
L 179.026291 177.232689 
L 181.460061 180.2431 
L 182.676946 165.205424 
L 183.89383 179.426522 
L 191.195139 181.075778 
L 193.628909 178.35232 
L 194.845794 179.985475 
L 198.496448 178.885971 
L 199.713333 181.762394 
L 200.930218 180.555929 
L 202.147103 182.40588 
L 203.363988 179.814684 
L 205.797757 180.479447 
L 207.014642 178.658249 
L 208.231527 181.341454 
L 209.448412 173.536239 
L 210.665297 181.03725 
L 213.099066 180.036655 
L 214.315951 180.911313 
L 215.532836 180.068283 
L 217.966606 180.963643 
L 219.183491 180.110262 
L 220.400375 183.154025 
L 221.61726 178.991206 
L 222.834145 180.332808 
L 225.267915 179.571436 
L 226.4848 180.45702 
L 227.701684 174.692674 
L 230.135454 180.224123 
L 232.569224 177.964159 
L 233.786109 180.569155 
L 236.219878 179.419046 
L 237.436763 180.711769 
L 238.653648 179.555334 
L 239.870533 181.511095 
L 241.087418 178.049267 
L 243.521187 180.153391 
L 244.738072 179.221228 
L 245.954957 180.662889 
L 248.388727 179.606514 
L 249.605611 179.904968 
L 250.822496 178.29539 
L 254.473151 177.980835 
L 255.690036 179.672646 
L 256.90692 178.747958 
L 259.34069 171.396461 
L 261.77446 177.588648 
L 264.208229 175.645539 
L 265.425114 178.98143 
L 266.641999 175.405166 
L 267.858884 178.430528 
L 270.292654 177.656504 
L 271.509538 177.55357 
L 272.726423 175.962394 
L 276.377078 177.741037 
L 278.810847 175.642089 
L 282.461502 176.716865 
L 283.678387 174.088291 
L 286.112156 180.718095 
L 287.329041 177.685257 
L 288.545926 179.527732 
L 292.19658 177.865824 
L 293.413465 179.122318 
L 294.63035 176.226344 
L 295.847235 177.86985 
L 297.06412 167.452737 
L 298.281005 173.223984 
L 299.497889 172.053173 
L 300.714774 174.4431 
L 301.931659 172.134831 
L 304.365429 174.820911 
L 305.582314 175.549505 
L 308.016083 179.180399 
L 309.232968 172.897353 
L 310.449853 177.310897 
L 314.100507 175.453471 
L 314.100507 175.453471 
" clip-path="url(#paef66c1bdb)" style="fill: none; stroke: #023eff; stroke-width: 1.5; stroke-linecap: round"/>
   </g>
   <g id="patch_3">
    <path d="M 59.832422 192.009865 
L 59.832422 28.442513 
" style="fill: none"/>
   </g>
   <g id="patch_4">
    <path d="M 326.208512 192.009865 
L 326.208512 28.442513 
" style="fill: none"/>
   </g>
   <g id="patch_5">
    <path d="M 59.832422 192.009865 
L 326.208512 192.009865 
" style="fill: none"/>
   </g>
   <g id="patch_6">
    <path d="M 59.832422 28.442513 
L 326.208512 28.442513 
" style="fill: none"/>
   </g>
  </g>
  <g id="text_12">
   <!-- eval: pytorch -->
   <g style="fill: #262626" transform="translate(141.525828 18.14175) scale(0.144 -0.144)">
    <defs>
     <path id="DejaVuSans-65" d="M 3597 1894 
L 3597 1613 
L 953 1613 
Q 991 1019 1311 708 
Q 1631 397 2203 397 
Q 2534 397 2845 478 
Q 3156 559 3463 722 
L 3463 178 
Q 3153 47 2828 -22 
Q 2503 -91 2169 -91 
Q 1331 -91 842 396 
Q 353 884 353 1716 
Q 353 2575 817 3079 
Q 1281 3584 2069 3584 
Q 2775 3584 3186 3129 
Q 3597 2675 3597 1894 
z
M 3022 2063 
Q 3016 2534 2758 2815 
Q 2500 3097 2075 3097 
Q 1594 3097 1305 2825 
Q 1016 2553 972 2059 
L 3022 2063 
z
" transform="scale(0.015625)"/>
     <path id="DejaVuSans-76" d="M 191 3500 
L 800 3500 
L 1894 563 
L 2988 3500 
L 3597 3500 
L 2284 0 
L 1503 0 
L 191 3500 
z
" transform="scale(0.015625)"/>
     <path id="DejaVuSans-6c" d="M 603 4863 
L 1178 4863 
L 1178 0 
L 603 0 
L 603 4863 
z
" transform="scale(0.015625)"/>
     <path id="DejaVuSans-3a" d="M 750 794 
L 1409 794 
L 1409 0 
L 750 0 
L 750 794 
z
M 750 3309 
L 1409 3309 
L 1409 2516 
L 750 2516 
L 750 3309 
z
" transform="scale(0.015625)"/>
     <path id="DejaVuSans-20" transform="scale(0.015625)"/>
     <path id="DejaVuSans-70" d="M 1159 525 
L 1159 -1331 
L 581 -1331 
L 581 3500 
L 1159 3500 
L 1159 2969 
Q 1341 3281 1617 3432 
Q 1894 3584 2278 3584 
Q 2916 3584 3314 3078 
Q 3713 2572 3713 1747 
Q 3713 922 3314 415 
Q 2916 -91 2278 -91 
Q 1894 -91 1617 61 
Q 1341 213 1159 525 
z
M 3116 1747 
Q 3116 2381 2855 2742 
Q 2594 3103 2138 3103 
Q 1681 3103 1420 2742 
Q 1159 2381 1159 1747 
Q 1159 1113 1420 752 
Q 1681 391 2138 391 
Q 2594 391 2855 752 
Q 3116 1113 3116 1747 
z
" transform="scale(0.015625)"/>
     <path id="DejaVuSans-79" d="M 2059 -325 
Q 1816 -950 1584 -1140 
Q 1353 -1331 966 -1331 
L 506 -1331 
L 506 -850 
L 844 -850 
Q 1081 -850 1212 -737 
Q 1344 -625 1503 -206 
L 1606 56 
L 191 3500 
L 800 3500 
L 1894 763 
L 2988 3500 
L 3597 3500 
L 2059 -325 
z
" transform="scale(0.015625)"/>
     <path id="DejaVuSans-6f" d="M 1959 3097 
Q 1497 3097 1228 2736 
Q 959 2375 959 1747 
Q 959 1119 1226 758 
Q 1494 397 1959 397 
Q 2419 397 2687 759 
Q 2956 1122 2956 1747 
Q 2956 2369 2687 2733 
Q 2419 3097 1959 3097 
z
M 1959 3584 
Q 2709 3584 3137 3096 
Q 3566 2609 3566 1747 
Q 3566 888 3137 398 
Q 2709 -91 1959 -91 
Q 1206 -91 779 398 
Q 353 888 353 1747 
Q 353 2609 779 3096 
Q 1206 3584 1959 3584 
z
" transform="scale(0.015625)"/>
     <path id="DejaVuSans-63" d="M 3122 3366 
L 3122 2828 
Q 2878 2963 2633 3030 
Q 2388 3097 2138 3097 
Q 1578 3097 1268 2742 
Q 959 2388 959 1747 
Q 959 1106 1268 751 
Q 1578 397 2138 397 
Q 2388 397 2633 464 
Q 2878 531 3122 666 
L 3122 134 
Q 2881 22 2623 -34 
Q 2366 -91 2075 -91 
Q 1284 -91 818 406 
Q 353 903 353 1747 
Q 353 2603 823 3093 
Q 1294 3584 2113 3584 
Q 2378 3584 2631 3529 
Q 2884 3475 3122 3366 
z
" transform="scale(0.015625)"/>
     <path id="DejaVuSans-68" d="M 3513 2113 
L 3513 0 
L 2938 0 
L 2938 2094 
Q 2938 2591 2744 2837 
Q 2550 3084 2163 3084 
Q 1697 3084 1428 2787 
Q 1159 2491 1159 1978 
L 1159 0 
L 581 0 
L 581 4863 
L 1159 4863 
L 1159 2956 
Q 1366 3272 1645 3428 
Q 1925 3584 2291 3584 
Q 2894 3584 3203 3211 
Q 3513 2838 3513 2113 
z
" transform="scale(0.015625)"/>
    </defs>
    <use xlink:href="#DejaVuSans-65"/>
    <use xlink:href="#DejaVuSans-76" x="61.523438"/>
    <use xlink:href="#DejaVuSans-61" x="120.703125"/>
    <use xlink:href="#DejaVuSans-6c" x="181.982422"/>
    <use xlink:href="#DejaVuSans-3a" x="209.765625"/>
    <use xlink:href="#DejaVuSans-20" x="243.457031"/>
    <use xlink:href="#DejaVuSans-70" x="275.244141"/>
    <use xlink:href="#DejaVuSans-79" x="338.720703"/>
    <use xlink:href="#DejaVuSans-74" x="397.900391"/>
    <use xlink:href="#DejaVuSans-6f" x="437.109375"/>
    <use xlink:href="#DejaVuSans-72" x="498.291016"/>
    <use xlink:href="#DejaVuSans-63" x="537.154297"/>
    <use xlink:href="#DejaVuSans-68" x="592.134766"/>
   </g>
  </g>
 </g>
 <defs>
  <clipPath id="paef66c1bdb">
   <rect x="59.832422" y="28.442513" width="266.37609" height="163.567352"/>
  </clipPath>
 </defs>
</svg>
