<?xml version="1.0" encoding="utf-8" standalone="no"?>
<!DOCTYPE svg PUBLIC "-//W3C//DTD SVG 1.1//EN"
  "http://www.w3.org/Graphics/SVG/1.1/DTD/svg11.dtd">
<svg xmlns:xlink="http://www.w3.org/1999/xlink" width="335.676647pt" height="235.491115pt" viewBox="0 0 335.676647 235.491115" xmlns="http://www.w3.org/2000/svg" version="1.1">
 <metadata>
  <rdf:RDF xmlns:dc="http://purl.org/dc/elements/1.1/" xmlns:cc="http://creativecommons.org/ns#" xmlns:rdf="http://www.w3.org/1999/02/22-rdf-syntax-ns#">
   <cc:Work>
    <dc:type rdf:resource="http://purl.org/dc/dcmitype/StillImage"/>
    <dc:date>2023-09-19T14:27:44.521424</dc:date>
    <dc:format>image/svg+xml</dc:format>
    <dc:creator>
     <cc:Agent>
      <dc:title>Matplotlib v3.8.0, https://matplotlib.org/</dc:title>
     </cc:Agent>
    </dc:creator>
   </cc:Work>
  </rdf:RDF>
 </metadata>
 <defs>
  <style type="text/css">*{stroke-linejoin: round; stroke-linecap: butt}</style>
 </defs>
 <g id="figure_1">
  <g id="patch_1">
   <path d="M 0 235.491115 
L 335.676647 235.491115 
L 335.676647 -0 
L 0 -0 
L 0 235.491115 
z
" style="fill: none"/>
  </g>
  <g id="axes_1">
   <g id="patch_2">
    <path d="M 59.91625 192.009865 
L 326.29234 192.009865 
L 326.29234 28.442513 
L 59.91625 28.442513 
L 59.91625 192.009865 
z
" style="fill: none"/>
   </g>
   <g id="matplotlib.axis_1">
    <g id="xtick_1">
     <g id="line2d_1">
      <path d="M 72.024254 192.009865 
L 72.024254 28.442513 
" clip-path="url(#p96bbc85e88)" style="fill: none; stroke-dasharray: 1.85,0.8; stroke-dashoffset: 0; stroke: #838383; stroke-opacity: 0.2; stroke-width: 0.5"/>
     </g>
     <g id="line2d_2"/>
     <g id="text_1">
      <!-- 0 -->
      <g style="fill: #838383" transform="translate(68.075504 207.509865) scale(0.16 -0.16)">
       <defs>
        <path id="RobotoCondensed-Regular-30" d="M 2797 1941 
Q 2797 934 2503 435 
Q 2209 -63 1581 -63 
Q 972 -63 672 415 
Q 372 894 359 1853 
L 359 2634 
Q 359 3631 654 4122 
Q 950 4613 1575 4613 
Q 2191 4613 2486 4147 
Q 2781 3681 2797 2738 
L 2797 1941 
z
M 2244 2731 
Q 2244 3453 2084 3795 
Q 1925 4138 1575 4138 
Q 1234 4138 1075 3802 
Q 916 3466 909 2788 
L 909 1850 
Q 909 1131 1075 770 
Q 1241 409 1581 409 
Q 1919 409 2078 750 
Q 2238 1091 2244 1791 
L 2244 2731 
z
" transform="scale(0.015625)"/>
       </defs>
       <use xlink:href="#RobotoCondensed-Regular-30"/>
      </g>
     </g>
    </g>
    <g id="xtick_2">
     <g id="line2d_3">
      <path d="M 133.17579 192.009865 
L 133.17579 28.442513 
" clip-path="url(#p96bbc85e88)" style="fill: none; stroke-dasharray: 1.85,0.8; stroke-dashoffset: 0; stroke: #838383; stroke-opacity: 0.2; stroke-width: 0.5"/>
     </g>
     <g id="line2d_4"/>
     <g id="text_2">
      <!-- 25 -->
      <g style="fill: #838383" transform="translate(125.27829 207.509865) scale(0.16 -0.16)">
       <defs>
        <path id="RobotoCondensed-Regular-32" d="M 2909 0 
L 366 0 
L 366 416 
L 1663 2134 
Q 1956 2531 2070 2786 
Q 2184 3041 2184 3325 
Q 2184 3688 2015 3913 
Q 1847 4138 1572 4138 
Q 1225 4138 1036 3898 
Q 847 3659 847 3209 
L 294 3209 
Q 294 3838 637 4225 
Q 981 4613 1572 4613 
Q 2116 4613 2428 4280 
Q 2741 3947 2741 3394 
Q 2741 2719 2038 1797 
L 1025 472 
L 2909 472 
L 2909 0 
z
" transform="scale(0.015625)"/>
        <path id="RobotoCondensed-Regular-35" d="M 591 2281 
L 788 4550 
L 2766 4550 
L 2766 4016 
L 1253 4016 
L 1147 2775 
Q 1428 2972 1753 2972 
Q 2284 2972 2587 2559 
Q 2891 2147 2891 1450 
Q 2891 744 2561 340 
Q 2231 -63 1656 -63 
Q 1144 -63 822 271 
Q 500 606 453 1197 
L 972 1197 
Q 1019 806 1195 607 
Q 1372 409 1656 409 
Q 1978 409 2159 689 
Q 2341 969 2341 1444 
Q 2341 1891 2145 2172 
Q 1950 2453 1619 2453 
Q 1344 2453 1178 2309 
L 1031 2163 
L 591 2281 
z
" transform="scale(0.015625)"/>
       </defs>
       <use xlink:href="#RobotoCondensed-Regular-32"/>
       <use xlink:href="#RobotoCondensed-Regular-35" x="49.365234"/>
      </g>
     </g>
    </g>
    <g id="xtick_3">
     <g id="line2d_5">
      <path d="M 194.327326 192.009865 
L 194.327326 28.442513 
" clip-path="url(#p96bbc85e88)" style="fill: none; stroke-dasharray: 1.85,0.8; stroke-dashoffset: 0; stroke: #838383; stroke-opacity: 0.2; stroke-width: 0.5"/>
     </g>
     <g id="line2d_6"/>
     <g id="text_3">
      <!-- 50 -->
      <g style="fill: #838383" transform="translate(186.429826 207.509865) scale(0.16 -0.16)">
       <use xlink:href="#RobotoCondensed-Regular-35"/>
       <use xlink:href="#RobotoCondensed-Regular-30" x="49.365234"/>
      </g>
     </g>
    </g>
    <g id="xtick_4">
     <g id="line2d_7">
      <path d="M 255.478861 192.009865 
L 255.478861 28.442513 
" clip-path="url(#p96bbc85e88)" style="fill: none; stroke-dasharray: 1.85,0.8; stroke-dashoffset: 0; stroke: #838383; stroke-opacity: 0.2; stroke-width: 0.5"/>
     </g>
     <g id="line2d_8"/>
     <g id="text_4">
      <!-- 75 -->
      <g style="fill: #838383" transform="translate(247.581361 207.509865) scale(0.16 -0.16)">
       <defs>
        <path id="RobotoCondensed-Regular-37" d="M 2875 4225 
L 1309 0 
L 731 0 
L 2294 4075 
L 266 4075 
L 266 4550 
L 2875 4550 
L 2875 4225 
z
" transform="scale(0.015625)"/>
       </defs>
       <use xlink:href="#RobotoCondensed-Regular-37"/>
       <use xlink:href="#RobotoCondensed-Regular-35" x="49.365234"/>
      </g>
     </g>
    </g>
    <g id="xtick_5">
     <g id="line2d_9">
      <path d="M 316.630397 192.009865 
L 316.630397 28.442513 
" clip-path="url(#p96bbc85e88)" style="fill: none; stroke-dasharray: 1.85,0.8; stroke-dashoffset: 0; stroke: #838383; stroke-opacity: 0.2; stroke-width: 0.5"/>
     </g>
     <g id="line2d_10"/>
     <g id="text_5">
      <!-- 100 -->
      <g style="fill: #838383" transform="translate(304.784147 207.509865) scale(0.16 -0.16)">
       <defs>
        <path id="RobotoCondensed-Regular-31" d="M 2013 0 
L 1456 0 
L 1456 3853 
L 500 3425 
L 500 3950 
L 1925 4572 
L 2013 4572 
L 2013 0 
z
" transform="scale(0.015625)"/>
       </defs>
       <use xlink:href="#RobotoCondensed-Regular-31"/>
       <use xlink:href="#RobotoCondensed-Regular-30" x="49.365234"/>
       <use xlink:href="#RobotoCondensed-Regular-30" x="98.730469"/>
      </g>
     </g>
    </g>
    <g id="text_6">
     <!-- draw -->
     <g style="fill: #bdbdbd" transform="translate(306.984527 226.259865) scale(0.1 -0.1)">
      <defs>
       <path id="RobotoCondensed-Bold-64" d="M 203 1794 
Q 203 2625 484 3034 
Q 766 3444 1303 3444 
Q 1694 3444 1953 3106 
L 1953 4800 
L 2844 4800 
L 2844 0 
L 2041 0 
L 2000 344 
Q 1728 -63 1300 -63 
Q 769 -63 489 343 
Q 209 750 203 1538 
L 203 1794 
z
M 1091 1572 
Q 1091 1072 1197 873 
Q 1303 675 1556 675 
Q 1819 675 1953 909 
L 1953 2453 
Q 1822 2703 1559 2703 
Q 1316 2703 1203 2506 
Q 1091 2309 1091 1806 
L 1091 1572 
z
" transform="scale(0.015625)"/>
       <path id="RobotoCondensed-Bold-72" d="M 1991 2528 
L 1697 2553 
Q 1334 2553 1206 2234 
L 1206 0 
L 319 0 
L 319 3381 
L 1153 3381 
L 1178 3016 
Q 1388 3444 1756 3444 
Q 1906 3444 2000 3403 
L 1991 2528 
z
" transform="scale(0.015625)"/>
       <path id="RobotoCondensed-Bold-61" d="M 1928 0 
Q 1891 78 1853 263 
Q 1616 -63 1209 -63 
Q 784 -63 504 218 
Q 225 500 225 947 
Q 225 1478 564 1768 
Q 903 2059 1541 2066 
L 1809 2066 
L 1809 2338 
Q 1809 2566 1731 2659 
Q 1653 2753 1503 2753 
Q 1172 2753 1172 2366 
L 288 2366 
Q 288 2834 639 3139 
Q 991 3444 1528 3444 
Q 2084 3444 2389 3155 
Q 2694 2866 2694 2328 
L 2694 738 
Q 2700 300 2819 53 
L 2819 0 
L 1928 0 
z
M 1406 631 
Q 1553 631 1656 690 
Q 1759 750 1809 831 
L 1809 1534 
L 1597 1534 
Q 1372 1534 1242 1390 
Q 1113 1247 1113 1006 
Q 1113 631 1406 631 
z
" transform="scale(0.015625)"/>
       <path id="RobotoCondensed-Bold-77" d="M 2784 1484 
L 3088 3381 
L 3934 3381 
L 3234 0 
L 2500 0 
L 2022 1956 
L 1544 0 
L 806 0 
L 106 3381 
L 956 3381 
L 1256 1481 
L 1706 3381 
L 2334 3381 
L 2784 1484 
z
" transform="scale(0.015625)"/>
      </defs>
      <use xlink:href="#RobotoCondensed-Bold-64"/>
      <use xlink:href="#RobotoCondensed-Bold-72" x="49.560547"/>
      <use xlink:href="#RobotoCondensed-Bold-61" x="82.714844"/>
      <use xlink:href="#RobotoCondensed-Bold-77" x="129.785156"/>
     </g>
    </g>
   </g>
   <g id="matplotlib.axis_2">
    <g id="ytick_1">
     <g id="line2d_11">
      <path d="M 59.91625 190.727364 
L 326.29234 190.727364 
" clip-path="url(#p96bbc85e88)" style="fill: none; stroke-dasharray: 1.85,0.8; stroke-dashoffset: 0; stroke: #838383; stroke-opacity: 0.2; stroke-width: 0.5"/>
     </g>
     <g id="line2d_12"/>
     <g id="text_7">
      <!-- −600 -->
      <g style="fill: #838383" transform="translate(24.73125 196.727364) scale(0.16 -0.16)">
       <defs>
        <path id="RobotoCondensed-Regular-2212" d="M 2697 2034 
L 506 2034 
L 506 2506 
L 2697 2506 
L 2697 2034 
z
" transform="scale(0.015625)"/>
        <path id="RobotoCondensed-Regular-36" d="M 2291 4553 
L 2291 4063 
L 2200 4063 
Q 1647 4050 1334 3689 
Q 1022 3328 975 2603 
Q 1278 2984 1750 2984 
Q 2253 2984 2548 2570 
Q 2844 2156 2844 1484 
Q 2844 769 2517 353 
Q 2191 -63 1641 -63 
Q 1088 -63 750 428 
Q 413 919 413 1731 
L 413 1953 
Q 413 2891 616 3447 
Q 819 4003 1214 4273 
Q 1609 4544 2197 4553 
L 2291 4553 
z
M 1656 2503 
Q 1431 2503 1240 2331 
Q 1050 2159 966 1894 
L 966 1666 
Q 966 1113 1161 764 
Q 1356 416 1641 416 
Q 1950 416 2125 702 
Q 2300 988 2300 1456 
Q 2300 1919 2125 2211 
Q 1950 2503 1656 2503 
z
" transform="scale(0.015625)"/>
       </defs>
       <use xlink:href="#RobotoCondensed-Regular-2212"/>
       <use xlink:href="#RobotoCondensed-Regular-36" x="49.951172"/>
       <use xlink:href="#RobotoCondensed-Regular-30" x="99.316406"/>
       <use xlink:href="#RobotoCondensed-Regular-30" x="148.681641"/>
      </g>
     </g>
    </g>
    <g id="ytick_2">
     <g id="line2d_13">
      <path d="M 59.91625 146.162906 
L 326.29234 146.162906 
" clip-path="url(#p96bbc85e88)" style="fill: none; stroke-dasharray: 1.85,0.8; stroke-dashoffset: 0; stroke: #838383; stroke-opacity: 0.2; stroke-width: 0.5"/>
     </g>
     <g id="line2d_14"/>
     <g id="text_8">
      <!-- −400 -->
      <g style="fill: #838383" transform="translate(24.73125 152.162906) scale(0.16 -0.16)">
       <defs>
        <path id="RobotoCondensed-Regular-34" d="M 2459 1528 
L 2966 1528 
L 2966 1056 
L 2459 1056 
L 2459 0 
L 1906 0 
L 1906 1056 
L 188 1056 
L 188 1397 
L 1878 4550 
L 2459 4550 
L 2459 1528 
z
M 800 1528 
L 1906 1528 
L 1906 3691 
L 800 1528 
z
" transform="scale(0.015625)"/>
       </defs>
       <use xlink:href="#RobotoCondensed-Regular-2212"/>
       <use xlink:href="#RobotoCondensed-Regular-34" x="49.951172"/>
       <use xlink:href="#RobotoCondensed-Regular-30" x="99.316406"/>
       <use xlink:href="#RobotoCondensed-Regular-30" x="148.681641"/>
      </g>
     </g>
    </g>
    <g id="ytick_3">
     <g id="line2d_15">
      <path d="M 59.91625 101.598449 
L 326.29234 101.598449 
" clip-path="url(#p96bbc85e88)" style="fill: none; stroke-dasharray: 1.85,0.8; stroke-dashoffset: 0; stroke: #838383; stroke-opacity: 0.2; stroke-width: 0.5"/>
     </g>
     <g id="line2d_16"/>
     <g id="text_9">
      <!-- −200 -->
      <g style="fill: #838383" transform="translate(24.73125 107.598449) scale(0.16 -0.16)">
       <use xlink:href="#RobotoCondensed-Regular-2212"/>
       <use xlink:href="#RobotoCondensed-Regular-32" x="49.951172"/>
       <use xlink:href="#RobotoCondensed-Regular-30" x="99.316406"/>
       <use xlink:href="#RobotoCondensed-Regular-30" x="148.681641"/>
      </g>
     </g>
    </g>
    <g id="ytick_4">
     <g id="line2d_17">
      <path d="M 59.91625 57.033991 
L 326.29234 57.033991 
" clip-path="url(#p96bbc85e88)" style="fill: none; stroke-dasharray: 1.85,0.8; stroke-dashoffset: 0; stroke: #838383; stroke-opacity: 0.2; stroke-width: 0.5"/>
     </g>
     <g id="line2d_18"/>
     <g id="text_10">
      <!-- 0 -->
      <g style="fill: #838383" transform="translate(48.51875 63.033991) scale(0.16 -0.16)">
       <use xlink:href="#RobotoCondensed-Regular-30"/>
      </g>
     </g>
    </g>
    <g id="text_11">
     <!-- loss -->
     <g style="fill: #bdbdbd" transform="translate(14.7 45.019076) rotate(-90) scale(0.1 -0.1)">
      <defs>
       <path id="RobotoCondensed-Bold-6c" d="M 1250 0 
L 363 0 
L 363 4800 
L 1250 4800 
L 1250 0 
z
" transform="scale(0.015625)"/>
       <path id="RobotoCondensed-Bold-6f" d="M 219 1800 
Q 219 2569 581 3006 
Q 944 3444 1584 3444 
Q 2231 3444 2593 3006 
Q 2956 2569 2956 1794 
L 2956 1578 
Q 2956 806 2597 371 
Q 2238 -63 1591 -63 
Q 941 -63 580 373 
Q 219 809 219 1584 
L 219 1800 
z
M 1106 1578 
Q 1106 672 1591 672 
Q 2038 672 2072 1428 
L 2075 1800 
Q 2075 2263 1947 2486 
Q 1819 2709 1584 2709 
Q 1359 2709 1232 2486 
Q 1106 2263 1106 1800 
L 1106 1578 
z
" transform="scale(0.015625)"/>
       <path id="RobotoCondensed-Bold-73" d="M 1819 906 
Q 1819 1019 1711 1114 
Q 1603 1209 1231 1372 
Q 684 1594 479 1831 
Q 275 2069 275 2422 
Q 275 2866 595 3155 
Q 916 3444 1444 3444 
Q 2000 3444 2334 3156 
Q 2669 2869 2669 2384 
L 1784 2384 
Q 1784 2797 1441 2797 
Q 1300 2797 1209 2709 
Q 1119 2622 1119 2466 
Q 1119 2353 1219 2267 
Q 1319 2181 1691 2022 
Q 2231 1822 2454 1576 
Q 2678 1331 2678 941 
Q 2678 488 2337 212 
Q 1997 -63 1444 -63 
Q 1072 -63 787 82 
Q 503 228 342 487 
Q 181 747 181 1047 
L 1022 1047 
Q 1028 816 1129 700 
Q 1231 584 1463 584 
Q 1819 584 1819 906 
z
" transform="scale(0.015625)"/>
      </defs>
      <use xlink:href="#RobotoCondensed-Bold-6c"/>
      <use xlink:href="#RobotoCondensed-Bold-6f" x="25.195312"/>
      <use xlink:href="#RobotoCondensed-Bold-73" x="74.951172"/>
      <use xlink:href="#RobotoCondensed-Bold-73" x="120.361328"/>
     </g>
    </g>
   </g>
   <g id="line2d_19">
    <path d="M 72.024254 65.842409 
L 74.470316 74.086016 
L 76.916377 56.629245 
L 79.362438 154.261015 
L 81.8085 61.209401 
L 84.254561 58.88525 
L 86.700623 68.85602 
L 89.146684 69.616664 
L 91.592746 106.276768 
L 94.038807 59.759448 
L 96.484868 65.134421 
L 98.93093 58.527225 
L 101.376991 89.193361 
L 103.823053 57.487192 
L 106.269114 80.148233 
L 108.715176 140.018762 
L 111.161237 63.734526 
L 113.607298 59.560692 
L 116.05336 63.969215 
L 118.499421 56.801511 
L 120.945483 75.482235 
L 123.391544 57.982408 
L 125.837606 54.837997 
L 128.283667 134.974491 
L 130.729728 118.79428 
L 133.17579 97.20848 
L 135.621851 120.783177 
L 138.067913 77.506022 
L 140.513974 58.448818 
L 142.960036 64.631691 
L 145.406097 72.584711 
L 147.852158 58.862769 
L 150.29822 62.311127 
L 152.744281 56.695236 
L 155.190343 141.059386 
L 157.636404 63.397341 
L 160.082466 95.149655 
L 162.528527 59.154591 
L 164.974588 57.363047 
L 167.42065 63.957512 
L 169.866711 46.440376 
L 172.312773 43.044856 
L 174.758834 56.325512 
L 177.204896 77.344228 
L 179.650957 53.86395 
L 182.097018 56.96347 
L 184.54308 57.164658 
L 186.989141 57.312893 
L 189.435203 58.42797 
L 191.881264 75.322079 
L 194.327326 59.218275 
L 196.773387 65.469758 
L 199.219448 58.512874 
L 201.66551 99.719705 
L 204.111571 35.877393 
L 206.557633 93.02315 
L 209.003694 57.493101 
L 211.449756 57.880683 
L 213.895817 57.345501 
L 216.341878 59.694401 
L 218.78794 64.381543 
L 221.234001 62.519584 
L 223.680063 108.465867 
L 226.126124 62.418521 
L 228.572186 57.979031 
L 231.018247 58.638268 
L 233.464308 65.77817 
L 235.91037 60.18513 
L 238.356431 61.382697 
L 240.802493 184.574985 
L 243.248554 61.862711 
L 245.694616 58.390148 
L 248.140677 65.38479 
L 250.586738 70.236035 
L 253.0328 56.860688 
L 255.478861 93.327738 
L 257.924923 69.952434 
L 260.370984 80.331604 
L 262.817046 57.336054 
L 265.263107 59.327361 
L 267.709168 58.13383 
L 270.15523 64.703274 
L 272.601291 58.133094 
L 275.047353 57.411363 
L 277.493414 61.133825 
L 279.939476 57.654277 
L 282.385537 57.22553 
L 284.831598 59.677547 
L 287.27766 57.022035 
L 289.723721 62.897273 
L 292.169783 58.464907 
L 294.615844 69.336305 
L 297.061906 69.152344 
L 299.507967 73.552665 
L 301.954028 55.411565 
L 304.40009 58.034398 
L 306.846151 91.456148 
L 309.292213 70.158414 
L 311.738274 74.062187 
L 314.184336 71.062023 
" clip-path="url(#p96bbc85e88)" style="fill: none; stroke: #2196f3; stroke-width: 1.5; stroke-linecap: round"/>
   </g>
   <g id="patch_3">
    <path d="M 59.91625 192.009865 
L 59.91625 28.442513 
" style="fill: none"/>
   </g>
   <g id="patch_4">
    <path d="M 326.29234 192.009865 
L 326.29234 28.442513 
" style="fill: none"/>
   </g>
   <g id="patch_5">
    <path d="M 59.91625 192.009865 
L 326.29234 192.009865 
" style="fill: none"/>
   </g>
   <g id="patch_6">
    <path d="M 59.91625 28.442513 
L 326.29234 28.442513 
" style="fill: none"/>
   </g>
  </g>
  <g id="text_12">
   <!-- hmc: pytorch -->
   <g style="fill: #838383" transform="translate(158.111344 16.2) scale(0.12 -0.12)">
    <defs>
     <path id="RobotoCondensed-Regular-68" d="M 966 3034 
Q 1281 3444 1772 3444 
Q 2669 3444 2681 2247 
L 2681 0 
L 2131 0 
L 2131 2222 
Q 2131 2619 1998 2786 
Q 1866 2953 1600 2953 
Q 1394 2953 1230 2815 
Q 1066 2678 966 2456 
L 966 0 
L 413 0 
L 413 4800 
L 966 4800 
L 966 3034 
z
" transform="scale(0.015625)"/>
     <path id="RobotoCondensed-Regular-6d" d="M 934 3381 
L 947 3069 
Q 1256 3444 1763 3444 
Q 2328 3444 2553 2953 
Q 2872 3444 3441 3444 
Q 4375 3444 4397 2278 
L 4397 0 
L 3847 0 
L 3847 2225 
Q 3847 2594 3715 2773 
Q 3584 2953 3272 2953 
Q 3022 2953 2865 2759 
Q 2709 2566 2684 2266 
L 2684 0 
L 2128 0 
L 2128 2250 
Q 2119 2953 1556 2953 
Q 1138 2953 966 2534 
L 966 0 
L 416 0 
L 416 3381 
L 934 3381 
z
" transform="scale(0.015625)"/>
     <path id="RobotoCondensed-Regular-63" d="M 1588 409 
Q 1863 409 2028 579 
Q 2194 750 2209 1066 
L 2731 1066 
Q 2713 578 2386 257 
Q 2059 -63 1588 -63 
Q 959 -63 629 332 
Q 300 728 300 1509 
L 300 1881 
Q 300 2647 628 3045 
Q 956 3444 1584 3444 
Q 2103 3444 2408 3116 
Q 2713 2788 2731 2219 
L 2209 2219 
Q 2191 2594 2030 2781 
Q 1869 2969 1584 2969 
Q 1216 2969 1037 2726 
Q 859 2484 853 1931 
L 853 1500 
Q 853 903 1029 656 
Q 1206 409 1588 409 
z
" transform="scale(0.015625)"/>
     <path id="RobotoCondensed-Regular-3a" d="M 434 303 
Q 434 453 523 553 
Q 612 653 790 653 
Q 968 653 1060 553 
Q 1153 453 1153 303 
Q 1153 159 1060 62 
Q 968 -34 790 -34 
Q 612 -34 523 62 
Q 434 159 434 303 
z
M 434 3055 
Q 434 3205 523 3305 
Q 612 3405 790 3405 
Q 968 3405 1060 3305 
Q 1153 3205 1153 3055 
Q 1153 2911 1060 2814 
Q 968 2718 790 2718 
Q 612 2718 523 2814 
Q 434 2911 434 3055 
z
" transform="scale(0.015625)"/>
     <path id="RobotoCondensed-Regular-20" transform="scale(0.015625)"/>
     <path id="RobotoCondensed-Regular-70" d="M 2856 1528 
Q 2856 725 2567 331 
Q 2278 -63 1750 -63 
Q 1241 -63 966 322 
L 966 -1300 
L 416 -1300 
L 416 3381 
L 916 3381 
L 944 3006 
Q 1222 3444 1741 3444 
Q 2297 3444 2572 3056 
Q 2847 2669 2856 1897 
L 2856 1528 
z
M 2306 1844 
Q 2306 2413 2131 2683 
Q 1956 2953 1569 2953 
Q 1172 2953 966 2556 
L 966 797 
Q 1169 409 1575 409 
Q 1950 409 2126 679 
Q 2303 950 2306 1506 
L 2306 1844 
z
" transform="scale(0.015625)"/>
     <path id="RobotoCondensed-Regular-79" d="M 1338 919 
L 1953 3381 
L 2541 3381 
L 1434 -478 
Q 1309 -913 1081 -1139 
Q 853 -1366 563 -1366 
Q 450 -1366 275 -1316 
L 275 -847 
L 397 -859 
Q 638 -859 773 -745 
Q 909 -631 994 -350 
L 1103 28 
L 109 3381 
L 713 3381 
L 1338 919 
z
" transform="scale(0.015625)"/>
     <path id="RobotoCondensed-Regular-74" d="M 1138 4200 
L 1138 3381 
L 1647 3381 
L 1647 2934 
L 1138 2934 
L 1138 838 
Q 1138 638 1203 534 
Q 1269 431 1428 431 
Q 1538 431 1650 469 
L 1644 0 
Q 1456 -63 1259 -63 
Q 931 -63 759 171 
Q 588 406 588 834 
L 588 2934 
L 72 2934 
L 72 3381 
L 588 3381 
L 588 4200 
L 1138 4200 
z
" transform="scale(0.015625)"/>
     <path id="RobotoCondensed-Regular-6f" d="M 297 1847 
Q 297 2584 655 3014 
Q 1013 3444 1600 3444 
Q 2188 3444 2545 3025 
Q 2903 2606 2913 1884 
L 2913 1528 
Q 2913 794 2556 365 
Q 2200 -63 1606 -63 
Q 1019 -63 664 353 
Q 309 769 297 1478 
L 297 1847 
z
M 850 1528 
Q 850 1006 1054 707 
Q 1259 409 1606 409 
Q 2338 409 2359 1466 
L 2359 1847 
Q 2359 2366 2153 2667 
Q 1947 2969 1600 2969 
Q 1259 2969 1054 2667 
Q 850 2366 850 1850 
L 850 1528 
z
" transform="scale(0.015625)"/>
     <path id="RobotoCondensed-Regular-72" d="M 1809 2863 
Q 1694 2884 1559 2884 
Q 1134 2884 966 2419 
L 966 0 
L 413 0 
L 413 3381 
L 950 3381 
L 959 3038 
Q 1181 3444 1588 3444 
Q 1719 3444 1806 3400 
L 1809 2863 
z
" transform="scale(0.015625)"/>
    </defs>
    <use xlink:href="#RobotoCondensed-Regular-68"/>
    <use xlink:href="#RobotoCondensed-Regular-6d" x="48.291016"/>
    <use xlink:href="#RobotoCondensed-Regular-63" x="123.535156"/>
    <use xlink:href="#RobotoCondensed-Regular-3a" x="169.726562"/>
    <use xlink:href="#RobotoCondensed-Regular-20" x="193.066406"/>
    <use xlink:href="#RobotoCondensed-Regular-70" x="215.966797"/>
    <use xlink:href="#RobotoCondensed-Regular-79" x="265.283203"/>
    <use xlink:href="#RobotoCondensed-Regular-74" x="306.933594"/>
    <use xlink:href="#RobotoCondensed-Regular-6f" x="336.474609"/>
    <use xlink:href="#RobotoCondensed-Regular-72" x="386.669922"/>
    <use xlink:href="#RobotoCondensed-Regular-63" x="417.089844"/>
    <use xlink:href="#RobotoCondensed-Regular-68" x="463.28125"/>
   </g>
  </g>
 </g>
 <defs>
  <clipPath id="p96bbc85e88">
   <rect x="59.91625" y="28.442513" width="266.37609" height="163.567352"/>
  </clipPath>
 </defs>
</svg>
