<?xml version="1.0" encoding="utf-8" standalone="no"?>
<!DOCTYPE svg PUBLIC "-//W3C//DTD SVG 1.1//EN"
  "http://www.w3.org/Graphics/SVG/1.1/DTD/svg11.dtd">
<svg xmlns:xlink="http://www.w3.org/1999/xlink" width="400.202969pt" height="300.496375pt" viewBox="0 0 400.202969 300.496375" xmlns="http://www.w3.org/2000/svg" version="1.1">
 <metadata>
  <rdf:RDF xmlns:dc="http://purl.org/dc/elements/1.1/" xmlns:cc="http://creativecommons.org/ns#" xmlns:rdf="http://www.w3.org/1999/02/22-rdf-syntax-ns#">
   <cc:Work>
    <dc:type rdf:resource="http://purl.org/dc/dcmitype/StillImage"/>
    <dc:date>2023-09-19T18:22:00.202510</dc:date>
    <dc:format>image/svg+xml</dc:format>
    <dc:creator>
     <cc:Agent>
      <dc:title>Matplotlib v3.8.0, https://matplotlib.org/</dc:title>
     </cc:Agent>
    </dc:creator>
   </cc:Work>
  </rdf:RDF>
 </metadata>
 <defs>
  <style type="text/css">*{stroke-linejoin: round; stroke-linecap: butt}</style>
 </defs>
 <g id="figure_1">
  <g id="patch_1">
   <path d="M 0 300.496375 
L 400.202969 300.496375 
L 400.202969 0 
L 0 0 
L 0 300.496375 
z
" style="fill: none"/>
  </g>
  <g id="axes_1">
   <g id="patch_2">
    <path d="M 35.882969 273.312 
L 393.002969 273.312 
L 393.002969 7.2 
L 35.882969 7.2 
L 35.882969 273.312 
z
" style="fill: none"/>
   </g>
   <g id="matplotlib.axis_1">
    <g id="xtick_1">
     <g id="line2d_1">
      <path d="M 52.115696 273.312 
L 52.115696 7.2 
" clip-path="url(#p1eb9d0fe0f)" style="fill: none; stroke-dasharray: 3.7,1.6; stroke-dashoffset: 0; stroke: #838383; stroke-opacity: 0.33"/>
     </g>
     <g id="line2d_2">
      <defs>
       <path id="m0d72facf18" d="M 0 0 
L 0 6 
" style="stroke: #000000; stroke-opacity: 0; stroke-width: 1.25"/>
      </defs>
      <g>
       <use xlink:href="#m0d72facf18" x="52.115696" y="273.312" style="fill-opacity: 0; stroke: #000000; stroke-opacity: 0; stroke-width: 1.25"/>
      </g>
     </g>
     <g id="text_1">
      <!-- 0 -->
      <g style="fill: #838383" transform="translate(49.40093 291.062) scale(0.11 -0.11)">
       <defs>
        <path id="RobotoCondensed-Regular-30" d="M 2797 1941 
Q 2797 934 2503 435 
Q 2209 -63 1581 -63 
Q 972 -63 672 415 
Q 372 894 359 1853 
L 359 2634 
Q 359 3631 654 4122 
Q 950 4613 1575 4613 
Q 2191 4613 2486 4147 
Q 2781 3681 2797 2738 
L 2797 1941 
z
M 2244 2731 
Q 2244 3453 2084 3795 
Q 1925 4138 1575 4138 
Q 1234 4138 1075 3802 
Q 916 3466 909 2788 
L 909 1850 
Q 909 1131 1075 770 
Q 1241 409 1581 409 
Q 1919 409 2078 750 
Q 2238 1091 2244 1791 
L 2244 2731 
z
" transform="scale(0.015625)"/>
       </defs>
       <use xlink:href="#RobotoCondensed-Regular-30"/>
      </g>
     </g>
    </g>
    <g id="xtick_2">
     <g id="line2d_3">
      <path d="M 98.89589 273.312 
L 98.89589 7.2 
" clip-path="url(#p1eb9d0fe0f)" style="fill: none; stroke-dasharray: 3.7,1.6; stroke-dashoffset: 0; stroke: #838383; stroke-opacity: 0.33"/>
     </g>
     <g id="line2d_4">
      <g>
       <use xlink:href="#m0d72facf18" x="98.89589" y="273.312" style="fill-opacity: 0; stroke: #000000; stroke-opacity: 0; stroke-width: 1.25"/>
      </g>
     </g>
     <g id="text_2">
      <!-- 100 -->
      <g style="fill: #838383" transform="translate(90.751593 291.062) scale(0.11 -0.11)">
       <defs>
        <path id="RobotoCondensed-Regular-31" d="M 2013 0 
L 1456 0 
L 1456 3853 
L 500 3425 
L 500 3950 
L 1925 4572 
L 2013 4572 
L 2013 0 
z
" transform="scale(0.015625)"/>
       </defs>
       <use xlink:href="#RobotoCondensed-Regular-31"/>
       <use xlink:href="#RobotoCondensed-Regular-30" x="49.365234"/>
       <use xlink:href="#RobotoCondensed-Regular-30" x="98.730469"/>
      </g>
     </g>
    </g>
    <g id="xtick_3">
     <g id="line2d_5">
      <path d="M 145.676084 273.312 
L 145.676084 7.2 
" clip-path="url(#p1eb9d0fe0f)" style="fill: none; stroke-dasharray: 3.7,1.6; stroke-dashoffset: 0; stroke: #838383; stroke-opacity: 0.33"/>
     </g>
     <g id="line2d_6">
      <g>
       <use xlink:href="#m0d72facf18" x="145.676084" y="273.312" style="fill-opacity: 0; stroke: #000000; stroke-opacity: 0; stroke-width: 1.25"/>
      </g>
     </g>
     <g id="text_3">
      <!-- 200 -->
      <g style="fill: #838383" transform="translate(137.531787 291.062) scale(0.11 -0.11)">
       <defs>
        <path id="RobotoCondensed-Regular-32" d="M 2909 0 
L 366 0 
L 366 416 
L 1663 2134 
Q 1956 2531 2070 2786 
Q 2184 3041 2184 3325 
Q 2184 3688 2015 3913 
Q 1847 4138 1572 4138 
Q 1225 4138 1036 3898 
Q 847 3659 847 3209 
L 294 3209 
Q 294 3838 637 4225 
Q 981 4613 1572 4613 
Q 2116 4613 2428 4280 
Q 2741 3947 2741 3394 
Q 2741 2719 2038 1797 
L 1025 472 
L 2909 472 
L 2909 0 
z
" transform="scale(0.015625)"/>
       </defs>
       <use xlink:href="#RobotoCondensed-Regular-32"/>
       <use xlink:href="#RobotoCondensed-Regular-30" x="49.365234"/>
       <use xlink:href="#RobotoCondensed-Regular-30" x="98.730469"/>
      </g>
     </g>
    </g>
    <g id="xtick_4">
     <g id="line2d_7">
      <path d="M 192.456278 273.312 
L 192.456278 7.2 
" clip-path="url(#p1eb9d0fe0f)" style="fill: none; stroke-dasharray: 3.7,1.6; stroke-dashoffset: 0; stroke: #838383; stroke-opacity: 0.33"/>
     </g>
     <g id="line2d_8">
      <g>
       <use xlink:href="#m0d72facf18" x="192.456278" y="273.312" style="fill-opacity: 0; stroke: #000000; stroke-opacity: 0; stroke-width: 1.25"/>
      </g>
     </g>
     <g id="text_4">
      <!-- 300 -->
      <g style="fill: #838383" transform="translate(184.311981 291.062) scale(0.11 -0.11)">
       <defs>
        <path id="RobotoCondensed-Regular-33" d="M 1072 2556 
L 1425 2556 
Q 1766 2556 1950 2765 
Q 2134 2975 2134 3338 
Q 2134 4138 1516 4138 
Q 1219 4138 1050 3922 
Q 881 3706 881 3356 
L 331 3356 
Q 331 3903 664 4258 
Q 997 4613 1516 4613 
Q 2053 4613 2368 4277 
Q 2684 3941 2684 3325 
Q 2684 3009 2520 2736 
Q 2356 2463 2094 2334 
Q 2738 2097 2738 1269 
Q 2738 659 2398 298 
Q 2059 -63 1513 -63 
Q 972 -63 639 279 
Q 306 622 306 1200 
L 859 1200 
Q 859 838 1034 623 
Q 1209 409 1513 409 
Q 1822 409 2005 618 
Q 2188 828 2188 1256 
Q 2188 2084 1403 2084 
L 1072 2084 
L 1072 2556 
z
" transform="scale(0.015625)"/>
       </defs>
       <use xlink:href="#RobotoCondensed-Regular-33"/>
       <use xlink:href="#RobotoCondensed-Regular-30" x="49.365234"/>
       <use xlink:href="#RobotoCondensed-Regular-30" x="98.730469"/>
      </g>
     </g>
    </g>
    <g id="xtick_5">
     <g id="line2d_9">
      <path d="M 239.236472 273.312 
L 239.236472 7.2 
" clip-path="url(#p1eb9d0fe0f)" style="fill: none; stroke-dasharray: 3.7,1.6; stroke-dashoffset: 0; stroke: #838383; stroke-opacity: 0.33"/>
     </g>
     <g id="line2d_10">
      <g>
       <use xlink:href="#m0d72facf18" x="239.236472" y="273.312" style="fill-opacity: 0; stroke: #000000; stroke-opacity: 0; stroke-width: 1.25"/>
      </g>
     </g>
     <g id="text_5">
      <!-- 400 -->
      <g style="fill: #838383" transform="translate(231.092175 291.062) scale(0.11 -0.11)">
       <defs>
        <path id="RobotoCondensed-Regular-34" d="M 2459 1528 
L 2966 1528 
L 2966 1056 
L 2459 1056 
L 2459 0 
L 1906 0 
L 1906 1056 
L 188 1056 
L 188 1397 
L 1878 4550 
L 2459 4550 
L 2459 1528 
z
M 800 1528 
L 1906 1528 
L 1906 3691 
L 800 1528 
z
" transform="scale(0.015625)"/>
       </defs>
       <use xlink:href="#RobotoCondensed-Regular-34"/>
       <use xlink:href="#RobotoCondensed-Regular-30" x="49.365234"/>
       <use xlink:href="#RobotoCondensed-Regular-30" x="98.730469"/>
      </g>
     </g>
    </g>
    <g id="xtick_6">
     <g id="line2d_11">
      <path d="M 286.016665 273.312 
L 286.016665 7.2 
" clip-path="url(#p1eb9d0fe0f)" style="fill: none; stroke-dasharray: 3.7,1.6; stroke-dashoffset: 0; stroke: #838383; stroke-opacity: 0.33"/>
     </g>
     <g id="line2d_12">
      <g>
       <use xlink:href="#m0d72facf18" x="286.016665" y="273.312" style="fill-opacity: 0; stroke: #000000; stroke-opacity: 0; stroke-width: 1.25"/>
      </g>
     </g>
     <g id="text_6">
      <!-- 500 -->
      <g style="fill: #838383" transform="translate(277.872368 291.062) scale(0.11 -0.11)">
       <defs>
        <path id="RobotoCondensed-Regular-35" d="M 591 2281 
L 788 4550 
L 2766 4550 
L 2766 4016 
L 1253 4016 
L 1147 2775 
Q 1428 2972 1753 2972 
Q 2284 2972 2587 2559 
Q 2891 2147 2891 1450 
Q 2891 744 2561 340 
Q 2231 -63 1656 -63 
Q 1144 -63 822 271 
Q 500 606 453 1197 
L 972 1197 
Q 1019 806 1195 607 
Q 1372 409 1656 409 
Q 1978 409 2159 689 
Q 2341 969 2341 1444 
Q 2341 1891 2145 2172 
Q 1950 2453 1619 2453 
Q 1344 2453 1178 2309 
L 1031 2163 
L 591 2281 
z
" transform="scale(0.015625)"/>
       </defs>
       <use xlink:href="#RobotoCondensed-Regular-35"/>
       <use xlink:href="#RobotoCondensed-Regular-30" x="49.365234"/>
       <use xlink:href="#RobotoCondensed-Regular-30" x="98.730469"/>
      </g>
     </g>
    </g>
    <g id="xtick_7">
     <g id="line2d_13">
      <path d="M 332.796859 273.312 
L 332.796859 7.2 
" clip-path="url(#p1eb9d0fe0f)" style="fill: none; stroke-dasharray: 3.7,1.6; stroke-dashoffset: 0; stroke: #838383; stroke-opacity: 0.33"/>
     </g>
     <g id="line2d_14">
      <g>
       <use xlink:href="#m0d72facf18" x="332.796859" y="273.312" style="fill-opacity: 0; stroke: #000000; stroke-opacity: 0; stroke-width: 1.25"/>
      </g>
     </g>
     <g id="text_7">
      <!-- 600 -->
      <g style="fill: #838383" transform="translate(324.652562 291.062) scale(0.11 -0.11)">
       <defs>
        <path id="RobotoCondensed-Regular-36" d="M 2291 4553 
L 2291 4063 
L 2200 4063 
Q 1647 4050 1334 3689 
Q 1022 3328 975 2603 
Q 1278 2984 1750 2984 
Q 2253 2984 2548 2570 
Q 2844 2156 2844 1484 
Q 2844 769 2517 353 
Q 2191 -63 1641 -63 
Q 1088 -63 750 428 
Q 413 919 413 1731 
L 413 1953 
Q 413 2891 616 3447 
Q 819 4003 1214 4273 
Q 1609 4544 2197 4553 
L 2291 4553 
z
M 1656 2503 
Q 1431 2503 1240 2331 
Q 1050 2159 966 1894 
L 966 1666 
Q 966 1113 1161 764 
Q 1356 416 1641 416 
Q 1950 416 2125 702 
Q 2300 988 2300 1456 
Q 2300 1919 2125 2211 
Q 1950 2503 1656 2503 
z
" transform="scale(0.015625)"/>
       </defs>
       <use xlink:href="#RobotoCondensed-Regular-36"/>
       <use xlink:href="#RobotoCondensed-Regular-30" x="49.365234"/>
       <use xlink:href="#RobotoCondensed-Regular-30" x="98.730469"/>
      </g>
     </g>
    </g>
    <g id="xtick_8">
     <g id="line2d_15">
      <path d="M 379.577053 273.312 
L 379.577053 7.2 
" clip-path="url(#p1eb9d0fe0f)" style="fill: none; stroke-dasharray: 3.7,1.6; stroke-dashoffset: 0; stroke: #838383; stroke-opacity: 0.33"/>
     </g>
     <g id="line2d_16">
      <g>
       <use xlink:href="#m0d72facf18" x="379.577053" y="273.312" style="fill-opacity: 0; stroke: #000000; stroke-opacity: 0; stroke-width: 1.25"/>
      </g>
     </g>
     <g id="text_8">
      <!-- 700 -->
      <g style="fill: #838383" transform="translate(371.432756 291.062) scale(0.11 -0.11)">
       <defs>
        <path id="RobotoCondensed-Regular-37" d="M 2875 4225 
L 1309 0 
L 731 0 
L 2294 4075 
L 266 4075 
L 266 4550 
L 2875 4550 
L 2875 4225 
z
" transform="scale(0.015625)"/>
       </defs>
       <use xlink:href="#RobotoCondensed-Regular-37"/>
       <use xlink:href="#RobotoCondensed-Regular-30" x="49.365234"/>
       <use xlink:href="#RobotoCondensed-Regular-30" x="98.730469"/>
      </g>
     </g>
    </g>
   </g>
   <g id="matplotlib.axis_2">
    <g id="ytick_1">
     <g id="line2d_17">
      <path d="M 35.882969 255.969681 
L 393.002969 255.969681 
" clip-path="url(#p1eb9d0fe0f)" style="fill: none; stroke-dasharray: 3.7,1.6; stroke-dashoffset: 0; stroke: #838383; stroke-opacity: 0.33"/>
     </g>
     <g id="line2d_18">
      <defs>
       <path id="m28612366a7" d="M 0 0 
L -6 0 
" style="stroke: #000000; stroke-opacity: 0; stroke-width: 1.25"/>
      </defs>
      <g>
       <use xlink:href="#m28612366a7" x="35.882969" y="255.969681" style="fill-opacity: 0; stroke: #000000; stroke-opacity: 0; stroke-width: 1.25"/>
      </g>
     </g>
     <g id="text_9">
      <!-- 0.20 -->
      <g style="fill: #838383" transform="translate(7.2 260.094681) scale(0.11 -0.11)">
       <defs>
        <path id="RobotoCondensed-Regular-2e" d="M 450 303 
Q 450 453 539 553 
Q 628 653 806 653 
Q 984 653 1076 553 
Q 1169 453 1169 303 
Q 1169 159 1076 62 
Q 984 -34 806 -34 
Q 628 -34 539 62 
Q 450 159 450 303 
z
" transform="scale(0.015625)"/>
       </defs>
       <use xlink:href="#RobotoCondensed-Regular-30"/>
       <use xlink:href="#RobotoCondensed-Regular-2e" x="49.365234"/>
       <use xlink:href="#RobotoCondensed-Regular-32" x="75.683594"/>
       <use xlink:href="#RobotoCondensed-Regular-30" x="125.048828"/>
      </g>
     </g>
    </g>
    <g id="ytick_2">
     <g id="line2d_19">
      <path d="M 35.882969 212.777226 
L 393.002969 212.777226 
" clip-path="url(#p1eb9d0fe0f)" style="fill: none; stroke-dasharray: 3.7,1.6; stroke-dashoffset: 0; stroke: #838383; stroke-opacity: 0.33"/>
     </g>
     <g id="line2d_20">
      <g>
       <use xlink:href="#m28612366a7" x="35.882969" y="212.777226" style="fill-opacity: 0; stroke: #000000; stroke-opacity: 0; stroke-width: 1.25"/>
      </g>
     </g>
     <g id="text_10">
      <!-- 0.25 -->
      <g style="fill: #838383" transform="translate(7.2 216.902226) scale(0.11 -0.11)">
       <use xlink:href="#RobotoCondensed-Regular-30"/>
       <use xlink:href="#RobotoCondensed-Regular-2e" x="49.365234"/>
       <use xlink:href="#RobotoCondensed-Regular-32" x="75.683594"/>
       <use xlink:href="#RobotoCondensed-Regular-35" x="125.048828"/>
      </g>
     </g>
    </g>
    <g id="ytick_3">
     <g id="line2d_21">
      <path d="M 35.882969 169.58477 
L 393.002969 169.58477 
" clip-path="url(#p1eb9d0fe0f)" style="fill: none; stroke-dasharray: 3.7,1.6; stroke-dashoffset: 0; stroke: #838383; stroke-opacity: 0.33"/>
     </g>
     <g id="line2d_22">
      <g>
       <use xlink:href="#m28612366a7" x="35.882969" y="169.58477" style="fill-opacity: 0; stroke: #000000; stroke-opacity: 0; stroke-width: 1.25"/>
      </g>
     </g>
     <g id="text_11">
      <!-- 0.30 -->
      <g style="fill: #838383" transform="translate(7.2 173.70977) scale(0.11 -0.11)">
       <use xlink:href="#RobotoCondensed-Regular-30"/>
       <use xlink:href="#RobotoCondensed-Regular-2e" x="49.365234"/>
       <use xlink:href="#RobotoCondensed-Regular-33" x="75.683594"/>
       <use xlink:href="#RobotoCondensed-Regular-30" x="125.048828"/>
      </g>
     </g>
    </g>
    <g id="ytick_4">
     <g id="line2d_23">
      <path d="M 35.882969 126.392314 
L 393.002969 126.392314 
" clip-path="url(#p1eb9d0fe0f)" style="fill: none; stroke-dasharray: 3.7,1.6; stroke-dashoffset: 0; stroke: #838383; stroke-opacity: 0.33"/>
     </g>
     <g id="line2d_24">
      <g>
       <use xlink:href="#m28612366a7" x="35.882969" y="126.392314" style="fill-opacity: 0; stroke: #000000; stroke-opacity: 0; stroke-width: 1.25"/>
      </g>
     </g>
     <g id="text_12">
      <!-- 0.35 -->
      <g style="fill: #838383" transform="translate(7.2 130.517314) scale(0.11 -0.11)">
       <use xlink:href="#RobotoCondensed-Regular-30"/>
       <use xlink:href="#RobotoCondensed-Regular-2e" x="49.365234"/>
       <use xlink:href="#RobotoCondensed-Regular-33" x="75.683594"/>
       <use xlink:href="#RobotoCondensed-Regular-35" x="125.048828"/>
      </g>
     </g>
    </g>
    <g id="ytick_5">
     <g id="line2d_25">
      <path d="M 35.882969 83.199858 
L 393.002969 83.199858 
" clip-path="url(#p1eb9d0fe0f)" style="fill: none; stroke-dasharray: 3.7,1.6; stroke-dashoffset: 0; stroke: #838383; stroke-opacity: 0.33"/>
     </g>
     <g id="line2d_26">
      <g>
       <use xlink:href="#m28612366a7" x="35.882969" y="83.199858" style="fill-opacity: 0; stroke: #000000; stroke-opacity: 0; stroke-width: 1.25"/>
      </g>
     </g>
     <g id="text_13">
      <!-- 0.40 -->
      <g style="fill: #838383" transform="translate(7.2 87.324858) scale(0.11 -0.11)">
       <use xlink:href="#RobotoCondensed-Regular-30"/>
       <use xlink:href="#RobotoCondensed-Regular-2e" x="49.365234"/>
       <use xlink:href="#RobotoCondensed-Regular-34" x="75.683594"/>
       <use xlink:href="#RobotoCondensed-Regular-30" x="125.048828"/>
      </g>
     </g>
    </g>
    <g id="ytick_6">
     <g id="line2d_27">
      <path d="M 35.882969 40.007403 
L 393.002969 40.007403 
" clip-path="url(#p1eb9d0fe0f)" style="fill: none; stroke-dasharray: 3.7,1.6; stroke-dashoffset: 0; stroke: #838383; stroke-opacity: 0.33"/>
     </g>
     <g id="line2d_28">
      <g>
       <use xlink:href="#m28612366a7" x="35.882969" y="40.007403" style="fill-opacity: 0; stroke: #000000; stroke-opacity: 0; stroke-width: 1.25"/>
      </g>
     </g>
     <g id="text_14">
      <!-- 0.45 -->
      <g style="fill: #838383" transform="translate(7.2 44.132403) scale(0.11 -0.11)">
       <use xlink:href="#RobotoCondensed-Regular-30"/>
       <use xlink:href="#RobotoCondensed-Regular-2e" x="49.365234"/>
       <use xlink:href="#RobotoCondensed-Regular-34" x="75.683594"/>
       <use xlink:href="#RobotoCondensed-Regular-35" x="125.048828"/>
      </g>
     </g>
    </g>
   </g>
   <g id="line2d_29">
    <path d="M 52.115696 242.700456 
L 52.583498 169.771486 
L 53.0513 114.271427 
L 53.519102 216.694953 
L 54.454706 78.850877 
L 54.922508 49.016311 
L 55.39031 208.865935 
L 55.858112 138.147688 
L 56.325913 104.873526 
L 56.793715 94.0997 
L 57.261517 79.060645 
L 57.729319 81.542795 
L 59.132725 46.408295 
L 59.600527 209.079307 
L 60.068329 138.66369 
L 60.536131 90.877209 
L 61.003933 81.64616 
L 61.471735 87.276502 
L 62.407339 48.008251 
L 62.875141 47.181872 
L 63.342943 34.348005 
L 63.810744 181.559499 
L 64.278546 214.563883 
L 64.746348 146.407441 
L 65.21415 111.467622 
L 65.681952 66.208293 
L 66.149754 41.653607 
L 66.617556 61.106773 
L 67.085358 69.725639 
L 68.020962 39.691603 
L 68.488764 49.326663 
L 68.956566 214.163115 
L 69.89217 234.24198 
L 70.359972 189.077264 
L 70.827774 109.916503 
L 71.295576 76.829273 
L 71.763377 58.091681 
L 72.231179 186.66416 
L 72.698981 208.085201 
L 73.166783 136.798099 
L 73.634585 136.798048 
L 74.102387 108.113627 
L 74.570189 232.157264 
L 75.037991 240.010533 
L 75.505793 219.579905 
L 75.973595 129.611464 
L 76.441397 241.936714 
L 76.909199 125.565966 
L 77.377001 207.192091 
L 77.844803 233.387333 
L 78.780407 95.823746 
L 79.248208 219.749408 
L 79.71601 219.239276 
L 80.183812 242.232018 
L 80.651614 154.20487 
L 81.119416 184.930126 
L 81.587218 156.571736 
L 82.05502 103.290278 
L 82.522822 88.852619 
L 82.990624 87.184465 
L 83.458426 54.311534 
L 83.926228 203.387126 
L 84.39403 149.939409 
L 85.329634 91.442408 
L 85.797436 82.356328 
L 86.265238 231.990837 
L 87.200841 122.631944 
L 87.668643 203.086943 
L 88.136445 127.741265 
L 88.604247 206.062233 
L 89.072049 237.304635 
L 89.539851 131.128084 
L 90.007653 77.366668 
L 90.475455 218.857843 
L 90.943257 137.109044 
L 91.411059 110.616965 
L 91.878861 70.462941 
L 92.346663 76.006756 
L 92.814465 52.677518 
L 93.282267 51.283416 
L 93.750069 244.196327 
L 94.217871 145.436067 
L 94.685672 130.256549 
L 95.153474 227.844175 
L 95.621276 229.015598 
L 96.089078 126.005814 
L 97.024682 79.936583 
L 97.492484 75.044341 
L 97.960286 237.505573 
L 98.428088 163.755488 
L 99.363692 115.483694 
L 99.831494 73.970607 
L 100.299296 48.467588 
L 100.767098 41.400768 
L 101.2349 222.537792 
L 101.702702 238.554734 
L 102.638305 89.207407 
L 103.106107 211.772487 
L 104.041711 104.755024 
L 104.977315 65.61045 
L 105.445117 75.215749 
L 105.912919 76.837023 
L 106.380721 213.368556 
L 106.848523 137.176006 
L 107.316325 85.060321 
L 107.784127 218.299543 
L 108.719731 83.527275 
L 109.187533 58.815983 
L 109.655334 46.040686 
L 110.123136 56.276988 
L 110.590938 192.091995 
L 111.05874 216.637001 
L 111.526542 165.926822 
L 111.994344 83.914913 
L 112.462146 177.072866 
L 112.929948 122.589877 
L 113.39775 119.249372 
L 113.865552 242.046656 
L 114.333354 161.054301 
L 114.801156 196.876675 
L 115.268958 179.3479 
L 115.73676 92.818463 
L 116.204562 85.286205 
L 116.672364 226.398957 
L 117.140166 179.003925 
L 117.607967 117.113823 
L 118.075769 228.97209 
L 118.543571 141.098315 
L 119.011373 93.37357 
L 119.479175 91.134682 
L 119.946977 49.031964 
L 120.414779 52.795377 
L 120.882581 60.478679 
L 121.350383 248.986362 
L 121.818185 261.216 
L 122.285987 233.31127 
L 122.753789 146.905678 
L 123.221591 223.467021 
L 123.689393 160.628175 
L 124.157195 121.846035 
L 124.624997 97.069378 
L 125.092798 36.257027 
L 125.5606 57.826768 
L 126.028402 23.898253 
L 126.496204 233.380138 
L 126.964006 126.94045 
L 127.431808 80.222091 
L 127.89961 61.903083 
L 128.367412 62.499948 
L 128.835214 61.055232 
L 129.303016 53.983598 
L 129.770818 76.656243 
L 130.23862 59.379767 
L 130.706422 222.233438 
L 131.174224 160.805556 
L 131.642026 207.814109 
L 132.109828 238.321268 
L 133.045431 74.022147 
L 133.513233 245.575625 
L 133.981035 237.246182 
L 134.448837 144.587033 
L 134.916639 104.800926 
L 135.384441 195.941833 
L 135.852243 120.94255 
L 136.787847 47.623934 
L 137.255649 58.187915 
L 137.723451 230.059907 
L 138.191253 227.789803 
L 139.126857 117.478677 
L 139.594659 107.985444 
L 140.06246 68.081942 
L 140.530262 248.067739 
L 140.998064 130.581035 
L 141.465866 232.493554 
L 141.933668 121.368522 
L 142.40147 256.04856 
L 142.869272 157.905517 
L 143.337074 101.42286 
L 143.804876 90.791093 
L 144.272678 198.463064 
L 144.74048 120.667829 
L 145.208282 248.469974 
L 145.676084 250.186207 
L 146.143886 177.074076 
L 146.611688 245.111358 
L 147.547292 129.210515 
L 148.015093 100.924957 
L 148.482895 193.333842 
L 148.950697 131.054197 
L 149.418499 83.862599 
L 149.886301 67.375327 
L 150.354103 76.751112 
L 150.821905 223.668577 
L 151.289707 136.490347 
L 151.757509 207.842042 
L 152.225311 146.66875 
L 153.160915 69.75352 
L 153.628717 96.508298 
L 154.096519 176.067123 
L 154.564321 189.733934 
L 155.032123 97.465151 
L 155.499924 105.123662 
L 155.967726 80.222349 
L 156.435528 77.760305 
L 156.90333 178.864826 
L 157.371132 201.835827 
L 157.838934 130.445463 
L 158.306736 104.946435 
L 158.774538 188.02742 
L 159.24234 127.994284 
L 159.710142 201.129649 
L 160.177944 211.03902 
L 161.113548 86.572668 
L 161.58135 181.406138 
L 162.049152 148.917705 
L 162.516954 70.407951 
L 162.984755 47.044215 
L 163.452557 198.573637 
L 163.920359 119.709199 
L 164.388161 222.656011 
L 164.855963 136.168899 
L 165.323765 75.692464 
L 165.791567 218.113975 
L 166.259369 193.663066 
L 166.727171 217.150119 
L 167.194973 147.311286 
L 167.662775 104.871081 
L 168.130577 89.058114 
L 168.598379 60.915747 
L 169.066181 200.196687 
L 169.533983 136.006424 
L 170.001785 89.999289 
L 170.469587 69.590711 
L 170.937388 57.713749 
L 171.40519 64.564391 
L 171.872992 47.05822 
L 172.340794 41.673817 
L 172.808596 190.82847 
L 173.276398 130.006568 
L 173.7442 102.076235 
L 174.212002 190.411998 
L 174.679804 123.916142 
L 175.147606 162.423611 
L 175.615408 105.78458 
L 176.08321 87.503596 
L 176.551012 57.584511 
L 177.018814 60.26487 
L 177.486616 44.07052 
L 177.954418 209.201852 
L 178.890021 85.424557 
L 179.357823 61.828475 
L 179.825625 58.643777 
L 180.293427 37.129489 
L 180.761229 201.623974 
L 181.229031 138.42362 
L 181.696833 186.036273 
L 182.164635 113.349818 
L 182.632437 86.6213 
L 183.100239 184.820273 
L 183.568041 126.956128 
L 184.035843 97.090437 
L 184.503645 81.543361 
L 184.971447 61.933796 
L 185.439249 207.313735 
L 185.90705 136.955889 
L 186.374852 216.978633 
L 187.310456 91.61912 
L 187.778258 59.960979 
L 188.713862 26.790079 
L 189.181664 29.864435 
L 189.649466 54.438919 
L 190.117268 202.334373 
L 190.58507 109.648423 
L 191.052872 99.317277 
L 191.520674 57.223261 
L 191.988476 49.043085 
L 192.456278 65.352874 
L 192.92408 62.893816 
L 193.391882 24.604224 
L 194.327485 50.440045 
L 194.795287 46.18205 
L 195.263089 40.111216 
L 195.730891 51.37795 
L 196.198693 44.178468 
L 196.666495 26.380996 
L 197.134297 52.49195 
L 197.602099 216.286114 
L 199.005505 87.028761 
L 199.473307 68.59161 
L 199.941109 65.956536 
L 200.408911 79.798591 
L 200.876713 72.893216 
L 201.812316 40.164224 
L 202.280118 45.763544 
L 202.74792 46.175768 
L 203.215722 41.917181 
L 203.683524 169.921887 
L 204.151326 124.650304 
L 204.619128 215.317636 
L 205.554732 140.321057 
L 206.022534 228.77513 
L 206.490336 154.207934 
L 206.958138 195.057914 
L 207.42594 137.85564 
L 207.893742 98.462965 
L 208.361544 87.22594 
L 208.829345 53.373191 
L 209.297147 58.822805 
L 209.764949 59.109627 
L 210.232751 207.661983 
L 210.700553 167.883935 
L 211.168355 86.16948 
L 211.636157 71.460858 
L 212.103959 63.550101 
L 212.571761 63.421223 
L 213.039563 69.041602 
L 213.507365 232.28062 
L 213.975167 138.513547 
L 214.442969 79.585528 
L 214.910771 218.838547 
L 215.378573 153.182161 
L 215.846375 223.394975 
L 216.314177 113.285739 
L 216.781978 79.95463 
L 217.24978 62.052067 
L 217.717582 179.795987 
L 218.185384 158.121979 
L 218.653186 105.561708 
L 219.120988 69.659294 
L 219.58879 53.094608 
L 220.056592 128.617641 
L 220.524394 95.289569 
L 220.992196 88.849607 
L 221.459998 58.5547 
L 221.9278 51.332511 
L 222.395602 154.293869 
L 222.863404 107.241808 
L 223.331206 213.445751 
L 223.799008 127.338257 
L 224.266809 157.760189 
L 224.734611 95.964853 
L 225.202413 186.205441 
L 226.138017 87.942235 
L 226.605819 69.324227 
L 227.073621 67.074448 
L 227.541423 184.324301 
L 228.009225 156.115925 
L 228.944829 73.023175 
L 229.412631 61.672462 
L 229.880433 157.275853 
L 230.816037 90.533775 
L 231.283839 167.9069 
L 231.75164 103.513433 
L 232.219442 63.213591 
L 232.687244 84.176505 
L 233.155046 55.972248 
L 233.622848 41.040265 
L 234.09065 20.736314 
L 234.558452 19.296 
L 235.026254 25.494193 
L 235.494056 52.979323 
L 235.961858 42.398865 
L 236.42966 34.752789 
L 236.897462 174.551377 
L 237.365264 111.114559 
L 237.833066 111.114559 
L 238.300868 202.974026 
L 238.76867 124.882521 
L 239.236472 183.215657 
L 239.704273 115.997146 
L 240.172075 72.242982 
L 240.639877 75.418952 
L 241.575481 61.683841 
L 242.043283 193.5925 
L 242.511085 180.742028 
L 242.978887 105.738549 
L 243.446689 79.161512 
L 243.914491 161.968084 
L 244.382293 104.826903 
L 244.850095 175.649029 
L 245.317897 100.615506 
L 245.785699 97.252912 
L 246.253501 195.950097 
L 246.721303 125.312149 
L 247.189104 102.154679 
L 247.656906 68.81026 
L 248.124708 59.541829 
L 248.59251 178.093309 
L 249.060312 145.273129 
L 249.528114 157.721494 
L 250.463718 74.540285 
L 250.93152 45.911447 
L 251.399322 157.778261 
L 251.867124 163.721505 
L 252.334926 110.597966 
L 252.802728 135.360746 
L 253.27053 119.645043 
L 253.738332 165.462259 
L 254.206134 97.054111 
L 254.673935 81.347238 
L 255.141737 166.05758 
L 255.609539 183.016187 
L 256.077341 118.782621 
L 256.545143 131.974957 
L 257.012945 182.331068 
L 257.480747 125.657488 
L 257.948549 158.286385 
L 258.884153 78.771557 
L 259.351955 65.819342 
L 259.819757 124.247605 
L 260.287559 135.306786 
L 260.755361 80.008076 
L 261.223163 86.621505 
L 261.690965 66.484251 
L 262.158766 59.513407 
L 262.626568 157.874675 
L 263.09437 82.662407 
L 263.562172 171.029707 
L 264.029974 102.91456 
L 264.497776 67.779493 
L 264.965578 148.392719 
L 265.43338 129.936748 
L 265.901182 72.511242 
L 266.368984 66.752537 
L 266.836786 146.16387 
L 267.304588 120.253828 
L 267.77239 81.959396 
L 268.240192 55.384857 
L 269.175796 33.02707 
L 269.643598 33.02707 
L 270.111399 31.325962 
L 270.579201 180.424956 
L 271.047003 106.695248 
L 271.514805 151.893355 
L 271.982607 121.12678 
L 272.450409 77.218121 
L 272.918211 60.308198 
L 273.386013 180.188156 
L 273.853815 101.839229 
L 274.789419 53.062658 
L 275.257221 51.386549 
L 275.725023 124.183887 
L 276.192825 179.258566 
L 276.660627 103.123787 
L 277.59623 28.342331 
L 278.064032 58.303689 
L 278.531834 76.583257 
L 278.999636 64.797818 
L 279.467438 75.164003 
L 279.93524 71.816032 
L 280.403042 63.776706 
L 280.870844 68.626957 
L 281.338646 47.400908 
L 281.806448 149.082265 
L 282.27425 93.347105 
L 282.742052 155.35535 
L 283.209854 94.899871 
L 283.677656 129.079295 
L 284.145458 128.609016 
L 284.61326 135.001788 
L 285.081061 88.052525 
L 285.548863 80.202525 
L 286.016665 144.881089 
L 286.484467 105.3929 
L 286.952269 149.405129 
L 287.420071 105.190212 
L 287.887873 104.279184 
L 288.823477 43.17203 
L 289.759081 72.033884 
L 290.226883 131.532379 
L 291.162487 40.024919 
L 291.630289 129.984942 
L 292.098091 140.193337 
L 292.565893 171.839739 
L 293.033694 117.37593 
L 293.501496 134.632892 
L 293.969298 79.869724 
L 294.4371 153.730086 
L 294.904902 119.864388 
L 295.372704 97.686916 
L 295.840506 59.260337 
L 296.308308 39.312975 
L 296.77611 152.509735 
L 297.243912 100.735656 
L 297.711714 79.573325 
L 298.179516 70.043792 
L 298.647318 78.78152 
L 299.11512 66.780521 
L 299.582922 59.186733 
L 300.050724 122.772459 
L 300.518525 120.060897 
L 300.986327 166.97803 
L 301.454129 97.994282 
L 301.921931 62.235447 
L 302.389733 118.911627 
L 302.857535 123.808812 
L 303.325337 105.82832 
L 303.793139 56.99403 
L 304.260941 126.091544 
L 304.728743 136.031525 
L 305.196545 93.951256 
L 305.664347 91.343652 
L 306.132149 69.661843 
L 306.599951 74.250658 
L 307.535555 158.421158 
L 308.003356 128.074659 
L 308.471158 88.571564 
L 308.93896 150.24124 
L 309.406762 170.140356 
L 310.342366 80.51589 
L 310.810168 62.044473 
L 311.745772 81.028467 
L 312.213574 48.549714 
L 312.681376 160.611621 
L 313.149178 134.32496 
L 313.61698 147.660204 
L 314.084782 105.932561 
L 314.552584 118.738263 
L 315.020386 89.663784 
L 315.488188 125.582906 
L 315.955989 94.589879 
L 316.423791 73.142065 
L 316.891593 103.305107 
L 317.359395 152.538904 
L 317.827197 118.122604 
L 318.294999 68.69482 
L 318.762801 58.810294 
L 319.230603 84.889736 
L 319.698405 68.631411 
L 320.166207 37.486285 
L 320.634009 59.204703 
L 321.101811 39.772776 
L 321.569613 132.640535 
L 322.037415 172.931031 
L 322.505217 122.753382 
L 322.973019 126.660631 
L 323.44082 153.460281 
L 323.908622 101.266126 
L 324.376424 72.835162 
L 324.844226 70.539558 
L 325.77983 52.95121 
L 326.247632 43.461684 
L 326.715434 37.377128 
L 327.651038 31.429147 
L 328.11884 135.008996 
L 329.054444 64.261478 
L 329.522246 69.711144 
L 330.45785 63.102168 
L 330.925651 38.111624 
L 331.393453 38.890067 
L 331.861255 138.740332 
L 332.329057 111.275721 
L 332.796859 99.975261 
L 333.264661 84.594213 
L 333.732463 139.897505 
L 334.200265 113.48732 
L 334.668067 104.865932 
L 335.603671 40.986356 
L 336.071473 170.12648 
L 336.539275 137.18149 
L 337.007077 91.726321 
L 337.474879 76.320429 
L 337.942681 54.226113 
L 338.410483 47.39599 
L 338.878284 24.202169 
L 339.346086 48.26024 
L 339.813888 64.779436 
L 340.28169 45.472706 
L 340.749492 151.25638 
L 341.217294 98.38138 
L 341.685096 123.004599 
L 342.152898 85.748477 
L 342.6207 133.248959 
L 343.088502 87.069901 
L 343.556304 76.533879 
L 344.024106 57.863738 
L 344.491908 114.226579 
L 344.95971 66.547943 
L 345.427512 35.228371 
L 345.895314 36.443264 
L 346.363115 50.577702 
L 346.830917 43.096881 
L 347.298719 171.164403 
L 347.766521 144.612649 
L 348.234323 98.734778 
L 348.702125 122.495368 
L 349.169927 138.028877 
L 349.637729 132.631781 
L 350.105531 99.527663 
L 350.573333 168.552628 
L 351.041135 111.066622 
L 351.508937 130.450149 
L 351.976739 93.14349 
L 352.444541 74.155737 
L 352.912343 70.825607 
L 353.380145 74.58382 
L 353.847946 67.009186 
L 354.315748 41.811757 
L 354.78355 157.835234 
L 355.251352 156.763971 
L 355.719154 80.22809 
L 356.186956 98.080888 
L 356.654758 79.431935 
L 357.12256 79.431883 
L 357.590362 50.603704 
L 358.058164 149.053559 
L 358.525966 147.870539 
L 358.993768 87.722015 
L 359.46157 160.148319 
L 359.929372 131.794229 
L 360.397174 87.636851 
L 360.864976 66.204097 
L 361.332778 52.851732 
L 361.800579 60.600503 
L 362.268381 130.16083 
L 362.736183 132.015041 
L 363.203985 94.131778 
L 363.671787 138.048623 
L 364.139589 81.809279 
L 364.607391 64.637119 
L 365.075193 56.149604 
L 365.542995 121.19938 
L 366.010797 99.173751 
L 366.478599 99.173751 
L 366.946401 40.297891 
L 367.414203 40.118193 
L 367.882005 55.227145 
L 368.349807 41.160467 
L 368.817609 41.177742 
L 369.28541 149.249889 
L 369.753212 133.382394 
L 370.221014 97.246527 
L 370.688816 121.306194 
L 371.156618 91.388293 
L 371.62442 149.758707 
L 372.092222 97.926986 
L 372.560024 60.408886 
L 373.027826 60.408834 
L 373.495628 51.882495 
L 373.96343 33.323983 
L 374.431232 32.632223 
L 374.899034 176.946176 
L 375.366836 175.506712 
L 375.834638 160.568808 
L 376.30244 109.862388 
L 376.770241 100.55722 
L 376.770241 100.55722 
" clip-path="url(#p1eb9d0fe0f)" style="fill: none; stroke: #2196f3; stroke-width: 1.5; stroke-linecap: round"/>
   </g>
   <g id="patch_3">
    <path d="M 35.882969 273.312 
L 35.882969 7.2 
" style="fill: none"/>
   </g>
   <g id="patch_4">
    <path d="M 393.002969 273.312 
L 393.002969 7.2 
" style="fill: none"/>
   </g>
   <g id="patch_5">
    <path d="M 35.882969 273.312 
L 393.002969 273.312 
" style="fill: none"/>
   </g>
   <g id="patch_6">
    <path d="M 35.882969 7.2 
L 393.002969 7.2 
" style="fill: none"/>
   </g>
  </g>
 </g>
 <defs>
  <clipPath id="p1eb9d0fe0f">
   <rect x="35.882969" y="7.2" width="357.12" height="266.112"/>
  </clipPath>
 </defs>
</svg>
