<?xml version="1.0" encoding="utf-8" standalone="no"?>
<!DOCTYPE svg PUBLIC "-//W3C//DTD SVG 1.1//EN"
  "http://www.w3.org/Graphics/SVG/1.1/DTD/svg11.dtd">
<svg xmlns:xlink="http://www.w3.org/1999/xlink" width="398.8075pt" height="299.262pt" viewBox="0 0 398.8075 299.262" xmlns="http://www.w3.org/2000/svg" version="1.1">
 <metadata>
  <rdf:RDF xmlns:dc="http://purl.org/dc/elements/1.1/" xmlns:cc="http://creativecommons.org/ns#" xmlns:rdf="http://www.w3.org/1999/02/22-rdf-syntax-ns#">
   <cc:Work>
    <dc:type rdf:resource="http://purl.org/dc/dcmitype/StillImage"/>
    <dc:date>2023-09-19T14:29:09.864659</dc:date>
    <dc:format>image/svg+xml</dc:format>
    <dc:creator>
     <cc:Agent>
      <dc:title>Matplotlib v3.8.0, https://matplotlib.org/</dc:title>
     </cc:Agent>
    </dc:creator>
   </cc:Work>
  </rdf:RDF>
 </metadata>
 <defs>
  <style type="text/css">*{stroke-linejoin: round; stroke-linecap: butt}</style>
 </defs>
 <g id="figure_1">
  <g id="patch_1">
   <path d="M 0 299.262 
L 398.8075 299.262 
L 398.8075 0 
L 0 0 
L 0 299.262 
z
" style="fill: none"/>
  </g>
  <g id="axes_1">
   <g id="patch_2">
    <path d="M 34.4875 273.312 
L 391.6075 273.312 
L 391.6075 7.2 
L 34.4875 7.2 
L 34.4875 273.312 
z
" style="fill: none"/>
   </g>
   <g id="matplotlib.axis_1">
    <g id="xtick_1">
     <g id="line2d_1">
      <path d="M 47.738338 273.312 
L 47.738338 7.2 
" clip-path="url(#p5d6995e04a)" style="fill: none; stroke-dasharray: 1.85,0.8; stroke-dashoffset: 0; stroke: #838383; stroke-opacity: 0.33; stroke-width: 0.5"/>
     </g>
     <g id="line2d_2"/>
     <g id="text_1">
      <!-- −10 -->
      <g style="fill: #838383" transform="translate(35.844588 288.812) scale(0.16 -0.16)">
       <defs>
        <path id="RobotoCondensed-Regular-2212" d="M 2697 2034 
L 506 2034 
L 506 2506 
L 2697 2506 
L 2697 2034 
z
" transform="scale(0.015625)"/>
        <path id="RobotoCondensed-Regular-31" d="M 2013 0 
L 1456 0 
L 1456 3853 
L 500 3425 
L 500 3950 
L 1925 4572 
L 2013 4572 
L 2013 0 
z
" transform="scale(0.015625)"/>
        <path id="RobotoCondensed-Regular-30" d="M 2797 1941 
Q 2797 934 2503 435 
Q 2209 -63 1581 -63 
Q 972 -63 672 415 
Q 372 894 359 1853 
L 359 2634 
Q 359 3631 654 4122 
Q 950 4613 1575 4613 
Q 2191 4613 2486 4147 
Q 2781 3681 2797 2738 
L 2797 1941 
z
M 2244 2731 
Q 2244 3453 2084 3795 
Q 1925 4138 1575 4138 
Q 1234 4138 1075 3802 
Q 916 3466 909 2788 
L 909 1850 
Q 909 1131 1075 770 
Q 1241 409 1581 409 
Q 1919 409 2078 750 
Q 2238 1091 2244 1791 
L 2244 2731 
z
" transform="scale(0.015625)"/>
       </defs>
       <use xlink:href="#RobotoCondensed-Regular-2212"/>
       <use xlink:href="#RobotoCondensed-Regular-31" x="49.951172"/>
       <use xlink:href="#RobotoCondensed-Regular-30" x="99.316406"/>
      </g>
     </g>
    </g>
    <g id="xtick_2">
     <g id="line2d_3">
      <path d="M 126.786943 273.312 
L 126.786943 7.2 
" clip-path="url(#p5d6995e04a)" style="fill: none; stroke-dasharray: 1.85,0.8; stroke-dashoffset: 0; stroke: #838383; stroke-opacity: 0.33; stroke-width: 0.5"/>
     </g>
     <g id="line2d_4"/>
     <g id="text_2">
      <!-- −5 -->
      <g style="fill: #838383" transform="translate(118.841943 288.812) scale(0.16 -0.16)">
       <defs>
        <path id="RobotoCondensed-Regular-35" d="M 591 2281 
L 788 4550 
L 2766 4550 
L 2766 4016 
L 1253 4016 
L 1147 2775 
Q 1428 2972 1753 2972 
Q 2284 2972 2587 2559 
Q 2891 2147 2891 1450 
Q 2891 744 2561 340 
Q 2231 -63 1656 -63 
Q 1144 -63 822 271 
Q 500 606 453 1197 
L 972 1197 
Q 1019 806 1195 607 
Q 1372 409 1656 409 
Q 1978 409 2159 689 
Q 2341 969 2341 1444 
Q 2341 1891 2145 2172 
Q 1950 2453 1619 2453 
Q 1344 2453 1178 2309 
L 1031 2163 
L 591 2281 
z
" transform="scale(0.015625)"/>
       </defs>
       <use xlink:href="#RobotoCondensed-Regular-2212"/>
       <use xlink:href="#RobotoCondensed-Regular-35" x="49.951172"/>
      </g>
     </g>
    </g>
    <g id="xtick_3">
     <g id="line2d_5">
      <path d="M 205.835548 273.312 
L 205.835548 7.2 
" clip-path="url(#p5d6995e04a)" style="fill: none; stroke-dasharray: 1.85,0.8; stroke-dashoffset: 0; stroke: #838383; stroke-opacity: 0.33; stroke-width: 0.5"/>
     </g>
     <g id="line2d_6"/>
     <g id="text_3">
      <!-- 0 -->
      <g style="fill: #838383" transform="translate(201.886798 288.812) scale(0.16 -0.16)">
       <use xlink:href="#RobotoCondensed-Regular-30"/>
      </g>
     </g>
    </g>
    <g id="xtick_4">
     <g id="line2d_7">
      <path d="M 284.884153 273.312 
L 284.884153 7.2 
" clip-path="url(#p5d6995e04a)" style="fill: none; stroke-dasharray: 1.85,0.8; stroke-dashoffset: 0; stroke: #838383; stroke-opacity: 0.33; stroke-width: 0.5"/>
     </g>
     <g id="line2d_8"/>
     <g id="text_4">
      <!-- 5 -->
      <g style="fill: #838383" transform="translate(280.935403 288.812) scale(0.16 -0.16)">
       <use xlink:href="#RobotoCondensed-Regular-35"/>
      </g>
     </g>
    </g>
    <g id="xtick_5">
     <g id="line2d_9">
      <path d="M 363.932759 273.312 
L 363.932759 7.2 
" clip-path="url(#p5d6995e04a)" style="fill: none; stroke-dasharray: 1.85,0.8; stroke-dashoffset: 0; stroke: #838383; stroke-opacity: 0.33; stroke-width: 0.5"/>
     </g>
     <g id="line2d_10"/>
     <g id="text_5">
      <!-- 10 -->
      <g style="fill: #838383" transform="translate(356.035259 288.812) scale(0.16 -0.16)">
       <use xlink:href="#RobotoCondensed-Regular-31"/>
       <use xlink:href="#RobotoCondensed-Regular-30" x="49.365234"/>
      </g>
     </g>
    </g>
   </g>
   <g id="matplotlib.axis_2">
    <g id="ytick_1">
     <g id="line2d_11">
      <path d="M 34.4875 254.906777 
L 391.6075 254.906777 
" clip-path="url(#p5d6995e04a)" style="fill: none; stroke-dasharray: 1.85,0.8; stroke-dashoffset: 0; stroke: #838383; stroke-opacity: 0.33; stroke-width: 0.5"/>
     </g>
     <g id="line2d_12"/>
     <g id="text_6">
      <!-- −10 -->
      <g style="fill: #838383" transform="translate(7.2 260.906777) scale(0.16 -0.16)">
       <use xlink:href="#RobotoCondensed-Regular-2212"/>
       <use xlink:href="#RobotoCondensed-Regular-31" x="49.951172"/>
       <use xlink:href="#RobotoCondensed-Regular-30" x="99.316406"/>
      </g>
     </g>
    </g>
    <g id="ytick_2">
     <g id="line2d_13">
      <path d="M 34.4875 197.60717 
L 391.6075 197.60717 
" clip-path="url(#p5d6995e04a)" style="fill: none; stroke-dasharray: 1.85,0.8; stroke-dashoffset: 0; stroke: #838383; stroke-opacity: 0.33; stroke-width: 0.5"/>
     </g>
     <g id="line2d_14"/>
     <g id="text_7">
      <!-- −5 -->
      <g style="fill: #838383" transform="translate(15.0975 203.60717) scale(0.16 -0.16)">
       <use xlink:href="#RobotoCondensed-Regular-2212"/>
       <use xlink:href="#RobotoCondensed-Regular-35" x="49.951172"/>
      </g>
     </g>
    </g>
    <g id="ytick_3">
     <g id="line2d_15">
      <path d="M 34.4875 140.307563 
L 391.6075 140.307563 
" clip-path="url(#p5d6995e04a)" style="fill: none; stroke-dasharray: 1.85,0.8; stroke-dashoffset: 0; stroke: #838383; stroke-opacity: 0.33; stroke-width: 0.5"/>
     </g>
     <g id="line2d_16"/>
     <g id="text_8">
      <!-- 0 -->
      <g style="fill: #838383" transform="translate(23.09 146.307563) scale(0.16 -0.16)">
       <use xlink:href="#RobotoCondensed-Regular-30"/>
      </g>
     </g>
    </g>
    <g id="ytick_4">
     <g id="line2d_17">
      <path d="M 34.4875 83.007956 
L 391.6075 83.007956 
" clip-path="url(#p5d6995e04a)" style="fill: none; stroke-dasharray: 1.85,0.8; stroke-dashoffset: 0; stroke: #838383; stroke-opacity: 0.33; stroke-width: 0.5"/>
     </g>
     <g id="line2d_18"/>
     <g id="text_9">
      <!-- 5 -->
      <g style="fill: #838383" transform="translate(23.09 89.007956) scale(0.16 -0.16)">
       <use xlink:href="#RobotoCondensed-Regular-35"/>
      </g>
     </g>
    </g>
    <g id="ytick_5">
     <g id="line2d_19">
      <path d="M 34.4875 25.70835 
L 391.6075 25.70835 
" clip-path="url(#p5d6995e04a)" style="fill: none; stroke-dasharray: 1.85,0.8; stroke-dashoffset: 0; stroke: #838383; stroke-opacity: 0.33; stroke-width: 0.5"/>
     </g>
     <g id="line2d_20"/>
     <g id="text_10">
      <!-- 10 -->
      <g style="fill: #838383" transform="translate(15.1925 31.70835) scale(0.16 -0.16)">
       <use xlink:href="#RobotoCondensed-Regular-31"/>
       <use xlink:href="#RobotoCondensed-Regular-30" x="49.365234"/>
      </g>
     </g>
    </g>
   </g>
   <g id="PathCollection_1">
    <path d="M 188.820766 206.477993 
L 190.615339 206.517731 
L 192.409912 206.549137 
L 194.204485 206.571455 
L 195.999058 206.590218 
L 197.793631 206.61155 
L 199.588204 206.637154 
L 201.382776 206.663897 
L 203.177349 206.687014 
L 204.971922 206.703363 
L 206.766495 206.712766 
L 208.561068 206.71755 
L 210.355641 206.721122 
L 212.150214 206.726198 
L 213.944786 206.733341 
L 215.739359 206.740368 
L 217.533932 206.742893 
L 219.328505 206.735718 
L 221.123078 206.714402 
L 222.917651 206.676026 
L 224.712224 206.61825 
L 226.506796 206.536568 
L 227.862714 206.449688 
L 228.301369 206.421667 
L 230.095942 206.258857 
L 231.890515 206.031785 
L 233.685088 205.731417 
L 235.479661 205.357317 
L 236.490278 205.112442 
L 237.274234 204.926226 
L 239.068807 204.468035 
L 240.863379 203.993053 
L 241.708197 203.775196 
L 242.657952 203.547696 
L 244.452525 203.146967 
L 246.247098 202.76933 
L 247.852662 202.43795 
L 248.041671 202.401533 
L 249.836244 202.037253 
L 251.630817 201.57306 
L 252.973558 201.100704 
L 253.425389 200.940904 
L 255.219962 200.09627 
L 255.780298 199.763457 
L 257.014535 199.007248 
L 257.853636 198.426211 
L 258.809108 197.770733 
L 259.811187 197.088965 
L 260.603681 196.585986 
L 262.058175 195.751719 
L 262.398254 195.574147 
L 264.192827 194.750679 
L 264.982924 194.414472 
L 265.987399 194.003046 
L 267.781972 193.228007 
L 268.099607 193.077226 
L 269.576545 192.329856 
L 270.563435 191.73998 
L 271.371118 191.190712 
L 272.394825 190.402734 
L 273.165691 189.705861 
L 273.839115 189.065487 
L 274.960264 187.847776 
L 275.073942 187.728241 
L 276.315959 186.390995 
L 276.754837 185.936007 
L 277.719634 185.053749 
L 278.54941 184.381797 
L 279.474633 183.716503 
L 280.343982 183.172245 
L 281.625765 182.379256 
L 282.138555 182.09456 
L 283.821283 181.04201 
L 283.933128 180.976548 
L 285.727701 179.743408 
L 285.777361 179.704764 
L 287.522274 178.381707 
L 287.539738 178.367518 
L 289.191358 177.030271 
L 289.316847 176.923541 
L 290.728129 175.693025 
L 291.11142 175.317616 
L 292.076493 174.355779 
L 292.905992 173.359474 
L 293.185566 173.018533 
L 294.090512 171.681286 
L 294.700565 170.539923 
L 294.808836 170.34404 
L 295.404614 169.006794 
L 295.875176 167.669548 
L 296.236286 166.332302 
L 296.495138 165.06773 
L 296.510984 164.995055 
L 296.754561 163.657809 
L 297.001054 162.320563 
L 297.277052 160.983317 
L 297.578279 159.64607 
L 297.882997 158.308824 
L 298.169154 156.971578 
L 298.289711 156.334868 
L 298.436845 155.634332 
L 298.661187 154.297085 
L 298.811932 152.959839 
L 298.882737 151.622593 
L 298.884897 150.285347 
L 298.851903 148.948101 
L 298.826803 147.610854 
L 298.836214 146.273608 
L 298.870493 144.936362 
L 298.885024 143.599116 
L 298.820695 142.261869 
L 298.633004 140.924623 
L 298.321144 139.587377 
L 298.289711 139.471057 
L 297.985241 138.250131 
L 297.703341 136.912884 
L 297.573246 135.575638 
L 297.638606 134.238392 
L 297.857478 132.901146 
L 298.122295 131.563899 
L 298.289711 130.387649 
L 298.313398 130.226653 
L 298.352846 128.889407 
L 298.289711 128.168901 
L 298.237787 127.552161 
L 298.04598 126.214915 
L 297.875499 124.877668 
L 297.795157 123.540422 
L 297.810217 122.203176 
L 297.869361 120.86593 
L 297.897183 119.528683 
L 297.831424 118.191437 
L 297.648557 116.854191 
L 297.36634 115.516945 
L 297.022055 114.179698 
L 296.641052 112.842452 
L 296.495138 112.374964 
L 296.218195 111.505206 
L 295.703431 110.16796 
L 295.028824 108.830714 
L 294.700565 108.323268 
L 294.083167 107.493467 
L 292.905992 106.27742 
L 292.767755 106.156221 
L 291.11142 104.925575 
L 290.948445 104.818975 
L 289.316847 103.839305 
L 288.680333 103.481729 
L 287.522274 102.856031 
L 286.160809 102.144482 
L 285.727701 101.920783 
L 283.933128 100.989327 
L 283.596522 100.807236 
L 282.138555 99.999112 
L 281.244699 99.46999 
L 280.343982 98.891537 
L 279.293856 98.132744 
L 278.54941 97.523629 
L 277.772148 96.795497 
L 276.754837 95.706604 
L 276.547983 95.458251 
L 275.566124 94.121005 
L 274.960264 93.254802 
L 274.652558 92.783759 
L 273.75475 91.446513 
L 273.165691 90.667908 
L 272.740116 90.109266 
L 271.517702 88.77202 
L 271.371118 88.635386 
L 269.999416 87.434774 
L 269.576545 87.114863 
L 268.140273 86.097528 
L 267.781972 85.862966 
L 266.009526 84.760281 
L 265.987399 84.74688 
L 264.192827 83.690329 
L 263.713016 83.423035 
L 262.398254 82.692004 
L 261.218253 82.085789 
L 260.603681 81.766751 
L 258.809108 80.918285 
L 258.405878 80.748543 
L 257.014535 80.140734 
L 255.219962 79.489604 
L 254.952749 79.411296 
L 253.425389 78.932532 
L 251.630817 78.514045 
L 249.836244 78.205187 
L 248.942399 78.07405 
L 248.041671 77.927739 
L 246.247098 77.621604 
L 244.452525 77.259045 
L 242.657952 76.819276 
L 242.369633 76.736804 
L 240.863379 76.285421 
L 239.068807 75.745442 
L 237.829269 75.399558 
L 237.274234 75.245722 
L 235.479661 74.810657 
L 233.685088 74.447456 
L 231.890515 74.133556 
L 231.439892 74.062312 
L 230.095942 73.837915 
L 228.301369 73.566718 
L 226.506796 73.338387 
L 224.712224 73.173255 
L 222.917651 73.075383 
L 221.123078 73.018841 
L 219.328505 72.957014 
L 217.533932 72.846669 
L 216.320135 72.725065 
L 215.739359 72.662797 
L 213.944786 72.409924 
L 212.150214 72.151791 
L 210.355641 71.949309 
L 208.561068 71.853589 
L 206.766495 71.891467 
L 204.971922 72.061084 
L 203.177349 72.338682 
L 201.382776 72.693747 
L 201.232866 72.725065 
L 199.588204 73.094449 
L 197.793631 73.532148 
L 195.999058 73.990616 
L 195.70163 74.062312 
L 194.204485 74.385564 
L 192.409912 74.708557 
L 190.615339 74.957467 
L 188.820766 75.141468 
L 187.026193 75.278239 
L 185.231621 75.382826 
L 184.865712 75.399558 
L 183.437048 75.452748 
L 181.642475 75.502496 
L 179.847902 75.532424 
L 178.053329 75.541239 
L 176.258756 75.531724 
L 174.464183 75.511893 
L 172.669611 75.495505 
L 170.875038 75.503135 
L 169.080465 75.564066 
L 167.285892 75.716902 
L 165.491319 76.004897 
L 163.696746 76.46427 
L 162.93257 76.736804 
L 161.902173 77.128493 
L 160.107601 78.000534 
L 159.979623 78.07405 
L 158.313028 79.0628 
L 157.79198 79.411296 
L 156.518455 80.255383 
L 155.833847 80.748543 
L 154.723882 81.49843 
L 153.897496 82.085789 
L 152.929309 82.702926 
L 151.829213 83.423035 
L 151.134736 83.829132 
L 149.579761 84.760281 
L 149.340163 84.892658 
L 147.54559 85.911972 
L 147.234111 86.097528 
L 145.751018 86.948229 
L 144.97522 87.434774 
L 143.956445 88.053585 
L 142.877631 88.77202 
L 142.161872 89.234229 
L 140.906547 90.109266 
L 140.367299 90.480198 
L 139.033756 91.446513 
L 138.572726 91.786284 
L 137.241348 92.783759 
L 136.778153 93.143299 
L 135.475087 94.121005 
L 134.98358 94.500182 
L 133.627597 95.458251 
L 133.189008 95.771808 
L 131.579924 96.795497 
L 131.394435 96.915405 
L 129.599862 97.956367 
L 129.276272 98.132744 
L 127.805289 98.983008 
L 126.986577 99.46999 
L 126.010716 100.089301 
L 124.949339 100.807236 
L 124.216143 101.32046 
L 123.109292 102.144482 
L 122.42157 102.658992 
L 121.387677 103.481729 
L 120.626997 104.107426 
L 119.826866 104.818975 
L 118.832425 105.832628 
L 118.540074 106.156221 
L 117.602794 107.493467 
L 117.037852 108.770026 
L 117.011513 108.830714 
L 116.691603 110.16796 
L 116.56106 111.505206 
L 116.507027 112.842452 
L 116.421164 114.179698 
L 116.223839 115.516945 
L 115.888137 116.854191 
L 115.450085 118.191437 
L 115.243279 118.781735 
L 114.967176 119.528683 
L 114.524117 120.86593 
L 114.185259 122.203176 
L 113.957879 123.540422 
L 113.816844 124.877668 
L 113.716364 126.214915 
L 113.605258 127.552161 
L 113.448706 128.856528 
L 113.444382 128.889407 
L 113.195657 130.226653 
L 112.90042 131.563899 
L 112.599838 132.901146 
L 112.343742 134.238392 
L 112.181683 135.575638 
L 112.151516 136.912884 
L 112.264122 138.250131 
L 112.494126 139.587377 
L 112.787317 140.924623 
L 113.080973 142.261869 
L 113.32201 143.599116 
L 113.448706 144.712125 
L 113.470909 144.936362 
L 113.508595 146.273608 
L 113.448706 147.610854 
L 113.448706 147.610854 
L 113.284131 148.948101 
L 113.061383 150.285347 
L 112.834461 151.622593 
L 112.661143 152.959839 
L 112.589693 154.297085 
L 112.652059 155.634332 
L 112.863994 156.971578 
L 113.226869 158.308824 
L 113.448706 158.917182 
L 113.726069 159.64607 
L 114.332721 160.983317 
L 114.995684 162.320563 
L 115.243279 162.838985 
L 115.652493 163.657809 
L 116.266197 164.995055 
L 116.860107 166.332302 
L 117.037852 166.720336 
L 117.48394 167.669548 
L 118.265963 169.006794 
L 118.832425 169.759385 
L 119.274881 170.34404 
L 120.48737 171.681286 
L 120.626997 171.827093 
L 121.661796 173.018533 
L 122.42157 173.952114 
L 122.709546 174.355779 
L 123.558252 175.693025 
L 124.216143 176.809213 
L 124.337618 177.030271 
L 125.11611 178.367518 
L 126.010716 179.641469 
L 126.056339 179.704764 
L 127.216467 181.04201 
L 127.805289 181.600583 
L 128.647358 182.379256 
L 129.599862 183.156334 
L 130.253421 183.716503 
L 131.394435 184.633172 
L 131.868414 185.053749 
L 133.189008 186.177611 
L 133.41763 186.390995 
L 134.915487 187.728241 
L 134.98358 187.787222 
L 136.402226 189.065487 
L 136.778153 189.390672 
L 137.949768 190.402734 
L 138.572726 190.930047 
L 139.554704 191.73998 
L 140.367299 192.407738 
L 141.221744 193.077226 
L 142.161872 193.799343 
L 143.032667 194.414472 
L 143.956445 195.02648 
L 145.198469 195.751719 
L 145.751018 196.046391 
L 147.54559 196.898208 
L 147.983785 197.088965 
L 149.340163 197.657264 
L 151.134736 198.380275 
L 151.247445 198.426211 
L 152.929309 199.134207 
L 154.418323 199.763457 
L 154.723882 199.902164 
L 156.518455 200.692084 
L 157.542924 201.100704 
L 158.313028 201.444406 
L 160.107601 202.133679 
L 161.066934 202.43795 
L 161.902173 202.752341 
L 163.696746 203.318681 
L 165.338649 203.775196 
L 165.491319 203.825636 
L 167.285892 204.377149 
L 169.080465 204.911721 
L 169.783163 205.112442 
L 170.875038 205.423294 
L 172.669611 205.858862 
L 174.464183 206.173882 
L 176.258756 206.358399 
L 178.053329 206.434035 
L 179.847902 206.441663 
L 181.642475 206.423409 
L 183.437048 206.409837 
L 185.231621 206.41532 
L 187.026193 206.439771 
L 187.537804 206.449688 
L 188.820766 206.477993 
z
" clip-path="url(#p5d6995e04a)" style="fill: none; stroke: #440154; stroke-width: 1.5"/>
   </g>
   <g id="PathCollection_2">
    <path d="M 181.642475 191.771064 
L 183.437048 192.056754 
L 185.231621 192.320044 
L 187.026193 192.552909 
L 188.820766 192.741699 
L 190.615339 192.873411 
L 192.409912 192.943216 
L 194.204485 192.958695 
L 195.999058 192.937184 
L 197.793631 192.897718 
L 199.588204 192.85352 
L 201.382776 192.809953 
L 203.177349 192.767846 
L 204.971922 192.728381 
L 206.766495 192.695658 
L 208.561068 192.675678 
L 210.355641 192.673358 
L 212.150214 192.690467 
L 213.944786 192.726066 
L 215.739359 192.778283 
L 217.533932 192.84485 
L 219.328505 192.920979 
L 221.123078 192.995903 
L 222.917651 193.051479 
L 224.712224 193.065154 
L 226.506796 193.015533 
L 228.301369 192.886097 
L 230.095942 192.664649 
L 231.890515 192.340502 
L 233.685088 191.903754 
L 234.236568 191.73998 
L 235.479661 191.366609 
L 237.274234 190.747745 
L 238.209759 190.402734 
L 239.068807 190.095613 
L 240.863379 189.46441 
L 242.046911 189.065487 
L 242.657952 188.872673 
L 244.452525 188.334043 
L 246.247098 187.790252 
L 246.441883 187.728241 
L 248.041671 187.239062 
L 249.836244 186.605687 
L 250.363504 186.390995 
L 251.630817 185.862314 
L 253.220991 185.053749 
L 253.425389 184.942618 
L 255.219962 183.786531 
L 255.31514 183.716503 
L 257.014535 182.379256 
L 257.014535 182.379256 
L 258.63148 181.04201 
L 258.809108 180.908438 
L 260.398166 179.704764 
L 260.603681 179.568264 
L 262.398254 178.409957 
L 262.466539 178.367518 
L 264.192827 177.403397 
L 264.868937 177.030271 
L 265.987399 176.429603 
L 267.334236 175.693025 
L 267.781972 175.430343 
L 269.564579 174.355779 
L 269.576545 174.347183 
L 271.371118 173.052313 
L 271.418267 173.018533 
L 272.859364 171.681286 
L 273.165691 171.271763 
L 273.899058 170.34404 
L 274.585828 169.006794 
L 274.960264 167.764018 
L 274.990506 167.669548 
L 275.190682 166.332302 
L 275.248061 164.995055 
L 275.260593 163.657809 
L 275.35376 162.320563 
L 275.65493 160.983317 
L 276.242029 159.64607 
L 276.754837 158.856475 
L 277.12986 158.308824 
L 278.221547 156.971578 
L 278.54941 156.569881 
L 279.277097 155.634332 
L 280.110451 154.297085 
L 280.343982 153.760701 
L 280.661426 152.959839 
L 280.971224 151.622593 
L 281.11055 150.285347 
L 281.143946 148.948101 
L 281.122857 147.610854 
L 281.08053 146.273608 
L 281.032128 144.936362 
L 280.980088 143.599116 
L 280.921708 142.261869 
L 280.854003 140.924623 
L 280.773054 139.587377 
L 280.670569 138.250131 
L 280.534074 136.912884 
L 280.353969 135.575638 
L 280.343982 135.515239 
L 280.128754 134.238392 
L 279.88436 132.901146 
L 279.647472 131.563899 
L 279.429952 130.226653 
L 279.220294 128.889407 
L 278.992457 127.552161 
L 278.725066 126.214915 
L 278.54941 125.428836 
L 278.420383 124.877668 
L 278.110166 123.540422 
L 277.838389 122.203176 
L 277.629725 120.86593 
L 277.452799 119.528683 
L 277.222079 118.191437 
L 276.843404 116.854191 
L 276.754837 116.651789 
L 276.270512 115.516945 
L 275.502441 114.179698 
L 274.960264 113.403538 
L 274.580766 112.842452 
L 273.545718 111.505206 
L 273.165691 111.062853 
L 272.407848 110.16796 
L 271.371118 109.079014 
L 271.135898 108.830714 
L 269.694538 107.493467 
L 269.576545 107.395755 
L 268.06099 106.156221 
L 267.781972 105.948905 
L 266.239517 104.818975 
L 265.987399 104.644934 
L 264.2806 103.481729 
L 264.192827 103.423057 
L 262.398254 102.228556 
L 262.271852 102.144482 
L 260.603681 101.026637 
L 260.269786 100.807236 
L 258.809108 99.82718 
L 258.246184 99.46999 
L 257.014535 98.674468 
L 256.081476 98.132744 
L 255.219962 97.622456 
L 253.607334 96.795497 
L 253.425389 96.697611 
L 251.630817 95.832232 
L 250.766537 95.458251 
L 249.836244 95.008777 
L 248.041671 94.194462 
L 247.874479 94.121005 
L 246.247098 93.345232 
L 244.913264 92.783759 
L 244.452525 92.589172 
L 242.657952 91.951041 
L 240.863379 91.464647 
L 240.785467 91.446513 
L 239.068807 91.061091 
L 237.274234 90.710953 
L 235.479661 90.373514 
L 234.135045 90.109266 
L 233.685088 90.014814 
L 231.890515 89.608479 
L 230.095942 89.185431 
L 228.322399 88.77202 
L 228.301369 88.766575 
L 226.506796 88.353386 
L 224.712224 87.992837 
L 222.917651 87.685802 
L 221.227688 87.434774 
L 221.123078 87.418217 
L 219.328505 87.15893 
L 217.533932 86.893717 
L 215.739359 86.623056 
L 213.944786 86.371385 
L 212.150214 86.175993 
L 210.836354 86.097528 
L 210.355641 86.069582 
L 208.561068 86.067031 
L 207.956861 86.097528 
L 206.766495 86.153404 
L 204.971922 86.288951 
L 203.177349 86.428997 
L 201.382776 86.542997 
L 199.588204 86.626072 
L 197.793631 86.696284 
L 195.999058 86.784411 
L 194.204485 86.923428 
L 192.409912 87.14007 
L 190.684237 87.434774 
L 190.615339 87.447439 
L 188.820766 87.835328 
L 187.026193 88.265638 
L 185.231621 88.696703 
L 184.882707 88.77202 
L 183.437048 89.075458 
L 181.642475 89.415817 
L 179.847902 89.754761 
L 178.200644 90.109266 
L 178.053329 90.139226 
L 176.258756 90.591423 
L 174.464183 91.200331 
L 173.87317 91.446513 
L 172.669611 91.924349 
L 170.875038 92.73726 
L 170.77055 92.783759 
L 169.080465 93.451048 
L 167.285892 94.089455 
L 167.178728 94.121005 
L 165.491319 94.551307 
L 163.696746 94.974412 
L 161.902173 95.437717 
L 161.835648 95.458251 
L 160.107601 95.956401 
L 158.313028 96.687593 
L 158.102768 96.795497 
L 156.518455 97.571488 
L 155.601975 98.132744 
L 154.723882 98.653731 
L 153.540739 99.46999 
L 152.929309 99.891076 
L 151.702713 100.807236 
L 151.134736 101.240646 
L 149.962951 102.144482 
L 149.340163 102.638677 
L 148.224927 103.481729 
L 147.54559 104.010232 
L 146.419315 104.818975 
L 145.751018 105.316138 
L 144.53471 106.156221 
L 143.956445 106.57679 
L 142.654093 107.493467 
L 142.161872 107.867828 
L 140.929493 108.830714 
L 140.367299 109.324451 
L 139.47419 110.16796 
L 138.572726 111.182899 
L 138.308836 111.505206 
L 137.422193 112.842452 
L 136.781414 114.179698 
L 136.778153 114.189255 
L 136.337121 115.516945 
L 136.029028 116.854191 
L 135.782855 118.191437 
L 135.531868 119.528683 
L 135.235306 120.86593 
L 134.98358 121.83012 
L 134.876233 122.203176 
L 134.450601 123.540422 
L 134.018693 124.877668 
L 133.617546 126.214915 
L 133.272516 127.552161 
L 133.189008 127.956161 
L 132.97835 128.889407 
L 132.758501 130.226653 
L 132.613949 131.563899 
L 132.524225 132.901146 
L 132.457225 134.238392 
L 132.375503 135.575638 
L 132.244476 136.912884 
L 132.038633 138.250131 
L 131.745203 139.587377 
L 131.394435 140.828358 
L 131.366145 140.924623 
L 130.912979 142.261869 
L 130.456292 143.599116 
L 130.060678 144.936362 
L 129.785977 146.273608 
L 129.67251 147.610854 
L 129.737115 148.948101 
L 129.977943 150.285347 
L 130.379076 151.622593 
L 130.910317 152.959839 
L 131.394435 154.011349 
L 131.529412 154.297085 
L 132.181969 155.634332 
L 132.827048 156.971578 
L 133.189008 157.722594 
L 133.465435 158.308824 
L 134.117962 159.64607 
L 134.82634 160.983317 
L 134.98358 161.258918 
L 135.560974 162.320563 
L 136.322004 163.657809 
L 136.778153 164.462189 
L 137.051035 164.995055 
L 137.698708 166.332302 
L 138.315272 167.669548 
L 138.572726 168.218132 
L 138.904112 169.006794 
L 139.539103 170.34404 
L 140.318233 171.681286 
L 140.367299 171.751193 
L 141.241403 173.018533 
L 142.161872 174.087221 
L 142.40149 174.355779 
L 143.781559 175.693025 
L 143.956445 175.851707 
L 145.37968 177.030271 
L 145.751018 177.332448 
L 147.179151 178.367518 
L 147.54559 178.639074 
L 149.187233 179.704764 
L 149.340163 179.806594 
L 151.134736 180.861604 
L 151.48429 181.04201 
L 152.929309 181.791381 
L 154.256238 182.379256 
L 154.723882 182.586715 
L 156.518455 183.325809 
L 157.545503 183.716503 
L 158.313028 184.023164 
L 160.107601 184.736861 
L 160.897767 185.053749 
L 161.902173 185.494081 
L 163.696746 186.28257 
L 163.943624 186.390995 
L 165.491319 187.119587 
L 166.879943 187.728241 
L 167.285892 187.911535 
L 169.080465 188.65397 
L 170.211475 189.065487 
L 170.875038 189.305786 
L 172.669611 189.876449 
L 174.464183 190.360921 
L 174.641199 190.402734 
L 176.258756 190.78678 
L 178.053329 191.1542 
L 179.847902 191.477158 
L 181.459765 191.73998 
L 181.642475 191.771064 
z
" clip-path="url(#p5d6995e04a)" style="fill: none; stroke: #472f7d; stroke-width: 1.5"/>
   </g>
   <g id="PathCollection_3">
    <path d="M 199.588204 185.21381 
L 201.382776 185.340629 
L 203.177349 185.422767 
L 204.971922 185.455357 
L 206.766495 185.440123 
L 208.561068 185.382366 
L 210.355641 185.287482 
L 212.150214 185.159783 
L 213.384089 185.053749 
L 213.944786 185.007492 
L 215.739359 184.847652 
L 217.533932 184.689674 
L 219.328505 184.548402 
L 221.123078 184.432258 
L 222.917651 184.33695 
L 224.712224 184.24255 
L 226.506796 184.115988 
L 228.301369 183.919969 
L 229.557242 183.716503 
L 230.095942 183.638468 
L 231.890515 183.294927 
L 233.685088 182.883721 
L 235.479661 182.438599 
L 235.715834 182.379256 
L 237.274234 182.039101 
L 239.068807 181.641109 
L 240.863379 181.222536 
L 241.571686 181.04201 
L 242.657952 180.780192 
L 244.452525 180.26643 
L 246.042151 179.704764 
L 246.247098 179.632927 
L 248.041671 178.897074 
L 249.139033 178.367518 
L 249.836244 178.035886 
L 251.630817 177.08708 
L 251.730594 177.030271 
L 253.425389 176.080764 
L 254.079707 175.693025 
L 255.219962 174.997562 
L 256.235638 174.355779 
L 257.014535 173.81397 
L 258.134795 173.018533 
L 258.809108 172.442798 
L 259.687742 171.681286 
L 260.603681 170.607888 
L 260.82534 170.34404 
L 261.59484 169.006794 
L 262.07474 167.669548 
L 262.398254 166.342193 
L 262.400687 166.332302 
L 262.706689 164.995055 
L 263.045657 163.657809 
L 263.452257 162.320563 
L 263.929999 160.983317 
L 264.192827 160.332143 
L 264.488085 159.64607 
L 265.096342 158.308824 
L 265.692769 156.971578 
L 265.987399 156.246585 
L 266.263471 155.634332 
L 266.773457 154.297085 
L 267.173594 152.959839 
L 267.464508 151.622593 
L 267.662318 150.285347 
L 267.781972 148.983707 
L 267.785798 148.948101 
L 267.851675 147.610854 
L 267.844525 146.273608 
L 267.781972 145.156367 
L 267.770878 144.936362 
L 267.661565 143.599116 
L 267.539669 142.261869 
L 267.436728 140.924623 
L 267.368428 139.587377 
L 267.327988 138.250131 
L 267.295533 136.912884 
L 267.255044 135.575638 
L 267.204935 134.238392 
L 267.155022 132.901146 
L 267.112598 131.563899 
L 267.0667 130.226653 
L 266.98238 128.889407 
L 266.813765 127.552161 
L 266.531002 126.214915 
L 266.140593 124.877668 
L 265.987399 124.430944 
L 265.71299 123.540422 
L 265.285997 122.203176 
L 264.876236 120.86593 
L 264.484474 119.528683 
L 264.192827 118.553065 
L 264.092169 118.191437 
L 263.678731 116.854191 
L 263.174275 115.516945 
L 262.548262 114.179698 
L 262.398254 113.911725 
L 261.837145 112.842452 
L 260.985119 111.505206 
L 260.603681 111.00645 
L 259.978167 110.16796 
L 258.809108 108.889155 
L 258.754517 108.830714 
L 257.281274 107.493467 
L 257.014535 107.283143 
L 255.477966 106.156221 
L 255.219962 105.983749 
L 253.425389 104.911893 
L 253.245315 104.818975 
L 251.630817 104.020812 
L 250.29916 103.481729 
L 249.836244 103.294546 
L 248.041671 102.677672 
L 246.257852 102.144482 
L 246.247098 102.141076 
L 244.452525 101.576327 
L 242.657952 100.996235 
L 242.103504 100.807236 
L 240.863379 100.339188 
L 239.068807 99.661879 
L 238.534734 99.46999 
L 237.274234 98.989643 
L 235.479661 98.402618 
L 234.464666 98.132744 
L 233.685088 97.921885 
L 231.890515 97.547861 
L 230.095942 97.284624 
L 228.301369 97.116961 
L 226.506796 97.024755 
L 224.712224 96.97909 
L 222.917651 96.944418 
L 221.123078 96.887851 
L 219.420919 96.795497 
L 219.328505 96.789834 
L 217.533932 96.63428 
L 215.739359 96.456766 
L 213.944786 96.28972 
L 212.150214 96.160503 
L 210.355641 96.08055 
L 208.561068 96.041493 
L 206.766495 96.019221 
L 204.971922 95.98528 
L 203.177349 95.922937 
L 201.382776 95.841219 
L 199.588204 95.777467 
L 197.793631 95.783691 
L 195.999058 95.902418 
L 194.204485 96.143293 
L 192.409912 96.470905 
L 190.713414 96.795497 
L 190.615339 96.81163 
L 188.820766 97.062441 
L 187.026193 97.238402 
L 185.231621 97.357995 
L 183.437048 97.470565 
L 181.642475 97.631289 
L 179.847902 97.883879 
L 178.631756 98.132744 
L 178.053329 98.239033 
L 176.258756 98.664254 
L 174.464183 99.157044 
L 173.373782 99.46999 
L 172.669611 99.654453 
L 170.875038 100.106475 
L 169.080465 100.532512 
L 167.89053 100.807236 
L 167.285892 100.940022 
L 165.491319 101.354218 
L 163.696746 101.841978 
L 162.792638 102.144482 
L 161.902173 102.449474 
L 160.107601 103.226683 
L 159.627383 103.481729 
L 158.313028 104.247191 
L 157.483273 104.818975 
L 156.518455 105.578682 
L 155.847434 106.156221 
L 154.723882 107.276403 
L 154.508748 107.493467 
L 153.336193 108.830714 
L 152.929309 109.354248 
L 152.257794 110.16796 
L 151.263293 111.505206 
L 151.134736 111.693022 
L 150.271 112.842452 
L 149.37851 114.179698 
L 149.340163 114.244663 
L 148.518087 115.516945 
L 147.808886 116.854191 
L 147.54559 117.450475 
L 147.197112 118.191437 
L 146.658392 119.528683 
L 146.169478 120.86593 
L 145.751018 122.052107 
L 145.696472 122.203176 
L 145.223088 123.540422 
L 144.794255 124.877668 
L 144.437416 126.214915 
L 144.173743 127.552161 
L 144.00942 128.889407 
L 143.956445 129.807159 
L 143.93067 130.226653 
L 143.91074 131.563899 
L 143.912967 132.901146 
L 143.897605 134.238392 
L 143.838111 135.575638 
L 143.728278 136.912884 
L 143.579118 138.250131 
L 143.409314 139.587377 
L 143.237539 140.924623 
L 143.081393 142.261869 
L 142.961243 143.599116 
L 142.903298 144.936362 
L 142.936461 146.273608 
L 143.081821 147.610854 
L 143.340354 148.948101 
L 143.688052 150.285347 
L 143.956445 151.19429 
L 144.068368 151.622593 
L 144.41968 152.959839 
L 144.748712 154.297085 
L 145.049553 155.634332 
L 145.334055 156.971578 
L 145.627307 158.308824 
L 145.751018 158.809323 
L 145.939516 159.64607 
L 146.296074 160.983317 
L 146.706853 162.320563 
L 147.153214 163.657809 
L 147.54559 164.799777 
L 147.609882 164.995055 
L 148.058924 166.332302 
L 148.550746 167.669548 
L 149.149116 169.006794 
L 149.340163 169.338329 
L 149.929295 170.34404 
L 150.994065 171.681286 
L 151.134736 171.819281 
L 152.368245 173.018533 
L 152.929309 173.461029 
L 154.085478 174.355779 
L 154.723882 174.778908 
L 156.191019 175.693025 
L 156.518455 175.876951 
L 158.313028 176.788397 
L 158.863283 177.030271 
L 160.107601 177.55731 
L 161.902173 178.200053 
L 162.443771 178.367518 
L 163.696746 178.773112 
L 165.491319 179.290059 
L 167.062313 179.704764 
L 167.285892 179.77025 
L 169.080465 180.263524 
L 170.875038 180.730291 
L 172.136929 181.04201 
L 172.669611 181.188947 
L 174.464183 181.662378 
L 176.258756 182.117285 
L 177.336436 182.379256 
L 178.053329 182.567767 
L 179.847902 183.003825 
L 181.642475 183.377739 
L 183.437048 183.677195 
L 183.742437 183.716503 
L 185.231621 183.921216 
L 187.026193 184.109051 
L 188.820766 184.261765 
L 190.615339 184.40329 
L 192.409912 184.550606 
L 194.204485 184.710878 
L 195.999058 184.881889 
L 197.793631 185.053749 
L 197.793631 185.053749 
L 199.588204 185.21381 
z
" clip-path="url(#p5d6995e04a)" style="fill: none; stroke: #38588c; stroke-width: 1.5"/>
   </g>
   <g id="PathCollection_4">
    <path d="M 197.793631 178.411421 
L 199.588204 178.518547 
L 201.382776 178.64758 
L 203.177349 178.778315 
L 204.971922 178.886665 
L 206.766495 178.954146 
L 208.561068 178.972663 
L 210.355641 178.943943 
L 212.150214 178.876082 
L 213.944786 178.779962 
L 215.739359 178.666988 
L 217.533932 178.547756 
L 219.328505 178.43047 
L 220.34024 178.367518 
L 221.123078 178.320519 
L 222.917651 178.215153 
L 224.712224 178.103431 
L 226.506796 177.973211 
L 228.301369 177.812339 
L 230.095942 177.611568 
L 231.890515 177.364994 
L 233.685088 177.06829 
L 233.882725 177.030271 
L 235.479661 176.720713 
L 237.274234 176.307451 
L 239.068807 175.813423 
L 239.450556 175.693025 
L 240.863379 175.205034 
L 242.657952 174.485101 
L 242.95055 174.355779 
L 244.452525 173.61556 
L 245.576954 173.018533 
L 246.247098 172.616585 
L 247.737933 171.681286 
L 248.041671 171.462526 
L 249.523259 170.34404 
L 249.836244 170.06747 
L 250.959426 169.006794 
L 251.630817 168.254171 
L 252.109849 167.669548 
L 253.052272 166.332302 
L 253.425389 165.749448 
L 253.865068 164.995055 
L 254.602088 163.657809 
L 255.219962 162.493827 
L 255.305329 162.320563 
L 255.956915 160.983317 
L 256.576111 159.64607 
L 257.014535 158.633792 
L 257.151792 158.308824 
L 257.670071 156.971578 
L 258.120724 155.634332 
L 258.486737 154.297085 
L 258.755896 152.959839 
L 258.809108 152.540327 
L 258.929919 151.622593 
L 259.002945 150.285347 
L 258.975988 148.948101 
L 258.856596 147.610854 
L 258.809108 147.279058 
L 258.671439 146.273608 
L 258.451461 144.936362 
L 258.239339 143.599116 
L 258.082546 142.261869 
L 258.012799 140.924623 
L 258.034907 139.587377 
L 258.128658 138.250131 
L 258.259572 136.912884 
L 258.391173 135.575638 
L 258.494383 134.238392 
L 258.551807 132.901146 
L 258.555833 131.563899 
L 258.502392 130.226653 
L 258.385509 128.889407 
L 258.197378 127.552161 
L 257.934229 126.214915 
L 257.602688 124.877668 
L 257.219349 123.540422 
L 257.014535 122.879165 
L 256.797601 122.203176 
L 256.33884 120.86593 
L 255.839667 119.528683 
L 255.288294 118.191437 
L 255.219962 118.039321 
L 254.630959 116.854191 
L 253.888583 115.516945 
L 253.425389 114.768708 
L 253.011975 114.179698 
L 251.947386 112.842452 
L 251.630817 112.500147 
L 250.588954 111.505206 
L 249.836244 110.897986 
L 248.823963 110.16796 
L 248.041671 109.694598 
L 246.45569 108.830714 
L 246.247098 108.734551 
L 244.452525 107.976289 
L 243.210991 107.493467 
L 242.657952 107.303128 
L 240.863379 106.714995 
L 239.103126 106.156221 
L 239.068807 106.145836 
L 237.274234 105.618148 
L 235.479661 105.097862 
L 234.483524 104.818975 
L 233.685088 104.598603 
L 231.890515 104.136616 
L 230.095942 103.71988 
L 228.92023 103.481729 
L 228.301369 103.362657 
L 226.506796 103.068741 
L 224.712224 102.826604 
L 222.917651 102.621995 
L 221.123078 102.441463 
L 219.328505 102.278106 
L 217.670021 102.144482 
L 217.533932 102.133107 
L 215.739359 102.007664 
L 213.944786 101.922845 
L 212.150214 101.887682 
L 210.355641 101.90156 
L 208.561068 101.952244 
L 206.766495 102.018802 
L 204.971922 102.079021 
L 203.177349 102.118995 
L 201.382776 102.141032 
L 201.125154 102.144482 
L 199.588204 102.163242 
L 197.793631 102.214901 
L 195.999058 102.319047 
L 194.204485 102.477063 
L 192.409912 102.662087 
L 190.615339 102.829815 
L 188.820766 102.942514 
L 187.026193 102.990945 
L 185.231621 103.001277 
L 183.437048 103.025012 
L 181.642475 103.118539 
L 179.847902 103.321427 
L 178.944604 103.481729 
L 178.053329 103.648231 
L 176.258756 104.07881 
L 174.464183 104.558204 
L 173.491771 104.818975 
L 172.669611 105.057085 
L 170.875038 105.552112 
L 169.080465 106.031296 
L 168.62963 106.156221 
L 167.285892 106.572512 
L 165.491319 107.22215 
L 164.884319 107.493467 
L 163.696746 108.112039 
L 162.607655 108.830714 
L 161.902173 109.373831 
L 161.050604 110.16796 
L 160.107601 111.163711 
L 159.823596 111.505206 
L 158.785539 112.842452 
L 158.313028 113.490018 
L 157.844172 114.179698 
L 157.000682 115.516945 
L 156.518455 116.382608 
L 156.262574 116.854191 
L 155.643688 118.191437 
L 155.139762 119.528683 
L 154.723882 120.846586 
L 154.717517 120.86593 
L 154.312057 122.203176 
L 153.906718 123.540422 
L 153.487986 124.877668 
L 153.073518 126.214915 
L 152.929309 126.731915 
L 152.688979 127.552161 
L 152.388464 128.889407 
L 152.199853 130.226653 
L 152.111994 131.563899 
L 152.091113 132.901146 
L 152.095262 134.238392 
L 152.090008 135.575638 
L 152.058794 136.912884 
L 152.004252 138.250131 
L 151.941809 139.587377 
L 151.89059 140.924623 
L 151.86637 142.261869 
L 151.878258 143.599116 
L 151.927996 144.936362 
L 152.010673 146.273608 
L 152.117432 147.610854 
L 152.240972 148.948101 
L 152.381481 150.285347 
L 152.54804 151.622593 
L 152.753818 152.959839 
L 152.929309 153.88078 
L 153.006254 154.297085 
L 153.301559 155.634332 
L 153.638571 156.971578 
L 154.009517 158.308824 
L 154.412258 159.64607 
L 154.723882 160.599725 
L 154.852863 160.983317 
L 155.342667 162.320563 
L 155.895464 163.657809 
L 156.518455 164.995055 
L 156.518455 164.995055 
L 157.230957 166.332302 
L 158.035432 167.669548 
L 158.313028 168.077229 
L 159.002341 169.006794 
L 160.107601 170.243712 
L 160.209912 170.34404 
L 161.902173 171.681174 
L 161.902345 171.681286 
L 163.696746 172.634682 
L 164.601422 173.018533 
L 165.491319 173.338921 
L 167.285892 173.873193 
L 169.080465 174.324276 
L 169.219003 174.355779 
L 170.875038 174.710162 
L 172.669611 175.07679 
L 174.464183 175.444328 
L 175.624436 175.693025 
L 176.258756 175.828666 
L 178.053329 176.235384 
L 179.847902 176.652105 
L 181.537594 177.030271 
L 181.642475 177.054019 
L 183.437048 177.421608 
L 185.231621 177.716573 
L 187.026193 177.933448 
L 188.820766 178.081445 
L 190.615339 178.177255 
L 192.409912 178.239398 
L 194.204485 178.286515 
L 195.999058 178.337099 
L 196.785785 178.367518 
L 197.793631 178.411421 
z
" clip-path="url(#p5d6995e04a)" style="fill: none; stroke: #277e8e; stroke-width: 1.5"/>
   </g>
   <g id="PathCollection_5">
    <path d="M 201.382776 174.367302 
L 203.177349 174.458288 
L 204.971922 174.536078 
L 206.766495 174.583953 
L 208.561068 174.592102 
L 210.355641 174.556284 
L 212.150214 174.474851 
L 213.837001 174.355779 
L 213.944786 174.347736 
L 215.739359 174.173393 
L 217.533932 173.970525 
L 219.328505 173.760532 
L 221.123078 173.56916 
L 222.917651 173.416341 
L 224.712224 173.303973 
L 226.506796 173.210318 
L 228.301369 173.096436 
L 229.089446 173.018533 
L 230.095942 172.905476 
L 231.890515 172.588875 
L 233.685088 172.130568 
L 235.011646 171.681286 
L 235.479661 171.490992 
L 237.274234 170.601742 
L 237.730851 170.34404 
L 239.068807 169.444768 
L 239.675836 169.006794 
L 240.863379 168.014845 
L 241.264567 167.669548 
L 242.651895 166.332302 
L 242.657952 166.325913 
L 243.917091 164.995055 
L 244.452525 164.394596 
L 245.102349 163.657809 
L 246.247098 162.320563 
L 246.247098 162.320563 
L 247.323427 160.983317 
L 248.041671 160.092102 
L 248.36991 159.64607 
L 249.346047 158.308824 
L 249.836244 157.624898 
L 250.241391 156.971578 
L 251.018717 155.634332 
L 251.630817 154.427849 
L 251.687951 154.297085 
L 252.165598 152.959839 
L 252.491254 151.622593 
L 252.650399 150.285347 
L 252.646394 148.948101 
L 252.503936 147.610854 
L 252.270506 146.273608 
L 252.011979 144.936362 
L 251.79787 143.599116 
L 251.678084 142.261869 
L 251.664448 140.924623 
L 251.731467 139.587377 
L 251.834829 138.250131 
L 251.932422 136.912884 
L 251.996148 135.575638 
L 252.013033 134.238392 
L 251.979002 132.901146 
L 251.88962 131.563899 
L 251.733148 130.226653 
L 251.630817 129.655525 
L 251.479216 128.889407 
L 251.100166 127.552161 
L 250.589911 126.214915 
L 249.949038 124.877668 
L 249.836244 124.671853 
L 249.124999 123.540422 
L 248.190886 122.203176 
L 248.041671 122.000101 
L 247.127498 120.86593 
L 246.247098 119.811289 
L 246.002696 119.528683 
L 244.814287 118.191437 
L 244.452525 117.805704 
L 243.539622 116.854191 
L 242.657952 116.021229 
L 242.091878 115.516945 
L 240.863379 114.556876 
L 240.324238 114.179698 
L 239.068807 113.411239 
L 237.989941 112.842452 
L 237.274234 112.504814 
L 235.479661 111.762959 
L 234.786581 111.505206 
L 233.685088 111.118778 
L 231.890515 110.517353 
L 230.860785 110.16796 
L 230.095942 109.915798 
L 228.301369 109.28982 
L 227.069229 108.830714 
L 226.506796 108.636218 
L 224.712224 108.003511 
L 223.20223 107.493467 
L 222.917651 107.410048 
L 221.123078 106.924198 
L 219.328505 106.516533 
L 217.533932 106.191895 
L 217.27497 106.156221 
L 215.739359 105.965847 
L 213.944786 105.819265 
L 212.150214 105.744212 
L 210.355641 105.729168 
L 208.561068 105.757357 
L 206.766495 105.810534 
L 204.971922 105.874465 
L 203.177349 105.943944 
L 201.382776 106.025245 
L 199.588204 106.134301 
L 199.327514 106.156221 
L 197.793631 106.295281 
L 195.999058 106.515956 
L 194.204485 106.783687 
L 192.409912 107.064406 
L 190.615339 107.317928 
L 189.05889 107.493467 
L 188.820766 107.52326 
L 187.026193 107.697048 
L 185.231621 107.865925 
L 183.437048 108.088427 
L 181.642475 108.418568 
L 180.031114 108.830714 
L 179.847902 108.882561 
L 178.053329 109.485456 
L 176.258756 110.138144 
L 176.176724 110.16796 
L 174.464183 110.797053 
L 172.669611 111.436289 
L 172.47777 111.505206 
L 170.875038 112.092747 
L 169.080465 112.8273 
L 169.049325 112.842452 
L 167.285892 113.761624 
L 166.644159 114.179698 
L 165.491319 115.012371 
L 164.918663 115.516945 
L 163.696746 116.746944 
L 163.606102 116.854191 
L 162.65102 118.191437 
L 161.902173 119.479407 
L 161.877154 119.528683 
L 161.332812 120.86593 
L 160.876048 122.203176 
L 160.454599 123.540422 
L 160.107601 124.650871 
L 160.042732 124.877668 
L 159.659909 126.214915 
L 159.299658 127.552161 
L 158.994876 128.889407 
L 158.766535 130.226653 
L 158.610856 131.563899 
L 158.501533 132.901146 
L 158.405308 134.238392 
L 158.313028 135.412453 
L 158.30122 135.575638 
L 158.195956 136.912884 
L 158.098785 138.250131 
L 158.032678 139.587377 
L 158.019327 140.924623 
L 158.072305 142.261869 
L 158.19217 143.599116 
L 158.313028 144.543321 
L 158.36894 144.936362 
L 158.583099 146.273608 
L 158.79192 147.610854 
L 158.9768 148.948101 
L 159.141921 150.285347 
L 159.315553 151.622593 
L 159.538018 152.959839 
L 159.840626 154.297085 
L 160.107601 155.211394 
L 160.248288 155.634332 
L 160.76692 156.971578 
L 161.322915 158.308824 
L 161.902173 159.63122 
L 161.909105 159.64607 
L 162.588547 160.983317 
L 163.346224 162.320563 
L 163.696746 162.855295 
L 164.268871 163.657809 
L 165.405626 164.995055 
L 165.491319 165.083094 
L 166.909777 166.332302 
L 167.285892 166.619342 
L 168.962134 167.669548 
L 169.080465 167.734995 
L 170.875038 168.562799 
L 172.03824 169.006794 
L 172.669611 169.225921 
L 174.464183 169.7905 
L 176.258756 170.33786 
L 176.27804 170.34404 
L 178.053329 170.87197 
L 179.847902 171.451323 
L 180.512446 171.681286 
L 181.642475 172.035916 
L 183.437048 172.598802 
L 184.891324 173.018533 
L 185.231621 173.105399 
L 187.026193 173.490918 
L 188.820766 173.777054 
L 190.615339 173.966905 
L 192.409912 174.077604 
L 194.204485 174.135819 
L 195.999058 174.172547 
L 197.793631 174.215491 
L 199.588204 174.280645 
L 201.139323 174.355779 
L 201.382776 174.367302 
z
" clip-path="url(#p5d6995e04a)" style="fill: none; stroke: #1fa188; stroke-width: 1.5"/>
   </g>
   <g id="PathCollection_6">
    <path d="M 192.409912 170.392906 
L 194.204485 170.549361 
L 195.999058 170.646219 
L 197.793631 170.714833 
L 199.588204 170.773928 
L 201.382776 170.827555 
L 203.177349 170.869931 
L 204.971922 170.893375 
L 206.766495 170.893705 
L 208.561068 170.868558 
L 210.355641 170.810617 
L 212.150214 170.704262 
L 213.944786 170.531054 
L 215.28453 170.34404 
L 215.739359 170.27275 
L 217.533932 169.914439 
L 219.328505 169.506957 
L 221.123078 169.091225 
L 221.533665 169.006794 
L 222.917651 168.688576 
L 224.712224 168.350579 
L 226.506796 168.071828 
L 228.301369 167.793077 
L 228.906305 167.669548 
L 230.095942 167.415365 
L 231.890515 166.824488 
L 232.898517 166.332302 
L 233.685088 165.921737 
L 234.990235 164.995055 
L 235.479661 164.60957 
L 236.481528 163.657809 
L 237.274234 162.803776 
L 237.690061 162.320563 
L 238.737683 160.983317 
L 239.068807 160.52931 
L 239.732861 159.64607 
L 240.71794 158.308824 
L 240.863379 158.111639 
L 241.778023 156.971578 
L 242.657952 155.9006 
L 242.891148 155.634332 
L 244.044299 154.297085 
L 244.452525 153.791709 
L 245.094929 152.959839 
L 245.936309 151.622593 
L 246.247098 150.90585 
L 246.474739 150.285347 
L 246.708952 148.948101 
L 246.710367 147.610854 
L 246.551562 146.273608 
L 246.325869 144.936362 
L 246.247098 144.414289 
L 246.105944 143.599116 
L 245.978971 142.261869 
L 245.983293 140.924623 
L 246.085648 139.587377 
L 246.210545 138.250131 
L 246.247098 137.540553 
L 246.274637 136.912884 
L 246.247131 135.575638 
L 246.247098 135.575269 
L 246.106773 134.238392 
L 245.868139 132.901146 
L 245.530034 131.563899 
L 245.069614 130.226653 
L 244.453021 128.889407 
L 244.452525 128.888546 
L 243.590052 127.552161 
L 242.657952 126.328221 
L 242.567371 126.214915 
L 241.433787 124.877668 
L 240.863379 124.205728 
L 240.306718 123.540422 
L 239.210076 122.203176 
L 239.068807 122.032841 
L 238.081632 120.86593 
L 237.274234 119.982079 
L 236.827134 119.528683 
L 235.479661 118.344058 
L 235.28216 118.191437 
L 233.685088 117.142314 
L 233.172117 116.854191 
L 231.890515 116.229496 
L 230.225842 115.516945 
L 230.095942 115.466475 
L 228.301369 114.803577 
L 226.70596 114.179698 
L 226.506796 114.103944 
L 224.712224 113.341692 
L 223.698967 112.842452 
L 222.917651 112.469907 
L 221.123078 111.538322 
L 221.059967 111.505206 
L 219.328505 110.720614 
L 217.983399 110.16796 
L 217.533932 110.01868 
L 215.739359 109.532579 
L 213.944786 109.178137 
L 212.150214 108.949963 
L 210.362567 108.830714 
L 210.355641 108.830336 
L 208.561068 108.799956 
L 206.766495 108.822697 
L 206.547576 108.830714 
L 204.971922 108.896482 
L 203.177349 109.018729 
L 201.382776 109.198416 
L 199.588204 109.45085 
L 197.793631 109.784316 
L 196.079503 110.16796 
L 195.999058 110.18864 
L 194.204485 110.66556 
L 192.409912 111.113388 
L 190.615339 111.505206 
L 190.615339 111.505206 
L 188.820766 111.868236 
L 187.026193 112.216778 
L 185.231621 112.601889 
L 184.288111 112.842452 
L 183.437048 113.071435 
L 181.642475 113.635851 
L 180.114685 114.179698 
L 179.847902 114.280975 
L 178.053329 115.014437 
L 176.880869 115.516945 
L 176.258756 115.828702 
L 174.464183 116.765011 
L 174.295241 116.854191 
L 172.669611 117.964047 
L 172.345957 118.191437 
L 170.88162 119.528683 
L 170.875038 119.535785 
L 169.683246 120.86593 
L 169.080465 121.578963 
L 168.606842 122.203176 
L 167.590322 123.540422 
L 167.285892 123.94779 
L 166.701249 124.877668 
L 165.935169 126.214915 
L 165.491319 127.157204 
L 165.331588 127.552161 
L 164.923994 128.889407 
L 164.668696 130.226653 
L 164.54265 131.563899 
L 164.498663 132.901146 
L 164.481254 134.238392 
L 164.446098 135.575638 
L 164.377322 136.912884 
L 164.293912 138.250131 
L 164.237833 139.587377 
L 164.249233 140.924623 
L 164.347649 142.261869 
L 164.531583 143.599116 
L 164.789987 144.936362 
L 165.112429 146.273608 
L 165.491319 147.607321 
L 165.492365 147.610854 
L 165.9388 148.948101 
L 166.427518 150.285347 
L 166.947181 151.622593 
L 167.285892 152.488433 
L 167.469481 152.959839 
L 167.961275 154.297085 
L 168.415217 155.634332 
L 168.829703 156.971578 
L 169.080465 157.784424 
L 169.244871 158.308824 
L 169.767841 159.64607 
L 170.519171 160.983317 
L 170.875038 161.422481 
L 171.720702 162.320563 
L 172.669611 163.042909 
L 173.632915 163.657809 
L 174.464183 164.081133 
L 176.258756 164.883082 
L 176.52305 164.995055 
L 178.053329 165.577714 
L 179.847902 166.273693 
L 179.992031 166.332302 
L 181.642475 166.98373 
L 183.294983 167.669548 
L 183.437048 167.727375 
L 185.231621 168.459682 
L 186.646581 169.006794 
L 187.026193 169.142469 
L 188.820766 169.689894 
L 190.615339 170.110468 
L 192.051966 170.34404 
L 192.409912 170.392906 
z
" clip-path="url(#p5d6995e04a)" style="fill: none; stroke: #3aba76; stroke-width: 1.5"/>
   </g>
   <g id="PathCollection_7">
    <path d="M 199.588204 166.38389 
L 201.382776 166.38563 
L 203.177349 166.356746 
L 204.791816 166.332302 
L 204.971922 166.32923 
L 206.766495 166.331354 
L 206.814889 166.332302 
L 208.561068 166.362171 
L 210.355641 166.387166 
L 212.150214 166.351306 
L 212.373812 166.332302 
L 213.944786 166.194841 
L 215.739359 165.890604 
L 217.533932 165.45479 
L 219.13965 164.995055 
L 219.328505 164.9412 
L 221.123078 164.424443 
L 222.917651 163.968495 
L 224.337105 163.657809 
L 224.712224 163.57617 
L 226.506796 163.201991 
L 228.301369 162.753553 
L 229.526151 162.320563 
L 230.095942 162.090058 
L 231.890515 161.024442 
L 231.942142 160.983317 
L 233.354099 159.64607 
L 233.685088 159.263685 
L 234.409188 158.308824 
L 235.288025 156.971578 
L 235.479661 156.638293 
L 236.058544 155.634332 
L 236.763379 154.297085 
L 237.274234 153.233929 
L 237.419077 152.959839 
L 238.037095 151.622593 
L 238.563218 150.285347 
L 238.930655 148.948101 
L 239.068807 147.610854 
L 238.95569 146.273608 
L 238.657484 144.936362 
L 238.312172 143.599116 
L 238.064193 142.261869 
L 238.000289 140.924623 
L 238.122011 139.587377 
L 238.357273 138.250131 
L 238.599795 136.912884 
L 238.753705 135.575638 
L 238.754777 134.238392 
L 238.563398 132.901146 
L 238.15122 131.563899 
L 237.501742 130.226653 
L 237.274234 129.874179 
L 236.6361 128.889407 
L 235.599386 127.552161 
L 235.479661 127.408141 
L 234.445876 126.214915 
L 233.685088 125.363239 
L 233.212135 124.877668 
L 231.890515 123.564362 
L 231.863099 123.540422 
L 230.22829 122.203176 
L 230.095942 122.105437 
L 228.301369 120.977878 
L 228.096971 120.86593 
L 226.506796 120.076496 
L 225.316429 119.528683 
L 224.712224 119.267794 
L 222.917651 118.476743 
L 222.29629 118.191437 
L 221.123078 117.645451 
L 219.518274 116.854191 
L 219.328505 116.755659 
L 217.533932 115.797707 
L 217.006212 115.516945 
L 215.739359 114.825178 
L 214.478086 114.179698 
L 213.944786 113.93156 
L 212.150214 113.22734 
L 210.837215 112.842452 
L 210.355641 112.731842 
L 208.561068 112.462525 
L 206.766495 112.342977 
L 204.971922 112.360348 
L 203.177349 112.507195 
L 201.382776 112.77953 
L 201.091628 112.842452 
L 199.588204 113.204427 
L 197.793631 113.716279 
L 196.248953 114.179698 
L 195.999058 114.257571 
L 194.204485 114.803826 
L 192.409912 115.304533 
L 191.580784 115.516945 
L 190.615339 115.790102 
L 188.820766 116.281918 
L 187.026193 116.782398 
L 186.783719 116.854191 
L 185.231621 117.375562 
L 183.437048 118.046477 
L 183.103378 118.191437 
L 181.642475 118.900421 
L 180.578394 119.528683 
L 179.847902 119.99421 
L 178.722433 120.86593 
L 178.053329 121.398068 
L 177.171059 122.203176 
L 176.258756 123.035906 
L 175.739768 123.540422 
L 174.464183 124.821282 
L 174.408502 124.877668 
L 173.222283 126.214915 
L 172.669611 127.021097 
L 172.299233 127.552161 
L 171.7068 128.889407 
L 171.472098 130.226653 
L 171.562702 131.563899 
L 171.883932 132.901146 
L 172.281641 134.238392 
L 172.591777 135.575638 
L 172.669611 136.461042 
L 172.704849 136.912884 
L 172.669611 137.478948 
L 172.617867 138.250131 
L 172.376561 139.587377 
L 172.073501 140.924623 
L 171.79655 142.261869 
L 171.616946 143.599116 
L 171.583111 144.936362 
L 171.716922 146.273608 
L 172.012254 147.610854 
L 172.440358 148.948101 
L 172.669611 149.534237 
L 172.961146 150.285347 
L 173.538268 151.622593 
L 174.152734 152.959839 
L 174.464183 153.617265 
L 174.814608 154.297085 
L 175.531451 155.634332 
L 176.258756 156.882911 
L 176.318172 156.971578 
L 177.286954 158.308824 
L 178.053329 159.174899 
L 178.515051 159.64607 
L 179.847902 160.732873 
L 180.17403 160.983317 
L 181.642475 161.889233 
L 182.381127 162.320563 
L 183.437048 162.841346 
L 185.224636 163.657809 
L 185.231621 163.66073 
L 187.026193 164.324964 
L 188.820766 164.898485 
L 189.199212 164.995055 
L 190.615339 165.355561 
L 192.409912 165.715132 
L 194.204485 165.992265 
L 195.999058 166.196146 
L 197.793631 166.330162 
L 197.854806 166.332302 
L 199.588204 166.38389 
z
" clip-path="url(#p5d6995e04a)" style="fill: none; stroke: #67cc5c; stroke-width: 1.5"/>
   </g>
   <g id="PathCollection_8">
    <path d="M 210.355641 161.002452 
L 212.150214 161.134969 
L 213.944786 161.081897 
L 214.702638 160.983317 
L 215.739359 160.841138 
L 217.533932 160.461418 
L 219.328505 160.041694 
L 221.123078 159.64607 
L 221.123078 159.64607 
L 222.917651 159.221973 
L 224.712224 158.738903 
L 225.90515 158.308824 
L 226.506796 158.039425 
L 228.157697 156.971578 
L 228.301369 156.84761 
L 229.364438 155.634332 
L 230.095942 154.470816 
L 230.188438 154.297085 
L 230.698946 152.959839 
L 231.02592 151.622593 
L 231.183561 150.285347 
L 231.180307 148.948101 
L 231.037552 147.610854 
L 230.814089 146.273608 
L 230.60503 144.936362 
L 230.500564 143.599116 
L 230.542257 142.261869 
L 230.717801 140.924623 
L 230.984302 139.587377 
L 231.288888 138.250131 
L 231.573842 136.912884 
L 231.771064 135.575638 
L 231.796453 134.238392 
L 231.556413 132.901146 
L 230.975017 131.563899 
L 230.095942 130.31228 
L 230.024809 130.226653 
L 228.628464 128.889407 
L 228.301369 128.61143 
L 226.867571 127.552161 
L 226.506796 127.295047 
L 224.827119 126.214915 
L 224.712224 126.142402 
L 222.917651 125.082889 
L 222.557197 124.877668 
L 221.123078 124.090644 
L 220.10254 123.540422 
L 219.328505 123.14562 
L 217.533932 122.238511 
L 217.463861 122.203176 
L 215.739359 121.385047 
L 214.672882 120.86593 
L 213.944786 120.52639 
L 212.150214 119.674932 
L 211.835503 119.528683 
L 210.355641 118.864268 
L 208.61546 118.191437 
L 208.561068 118.171001 
L 206.766495 117.682194 
L 204.971922 117.441044 
L 203.177349 117.443325 
L 201.382776 117.655026 
L 199.588204 118.027776 
L 198.988594 118.191437 
L 197.793631 118.535674 
L 195.999058 119.148861 
L 194.9952 119.528683 
L 194.204485 119.859224 
L 192.409912 120.639441 
L 191.878715 120.86593 
L 190.615339 121.404067 
L 188.820766 122.090707 
L 188.504223 122.203176 
L 187.026193 122.688468 
L 185.231621 123.298457 
L 184.634605 123.540422 
L 183.437048 124.034534 
L 181.888455 124.877668 
L 181.642475 125.035195 
L 180.192924 126.214915 
L 179.847902 126.616439 
L 179.149568 127.552161 
L 178.622784 128.889407 
L 178.520908 130.226653 
L 178.692041 131.563899 
L 178.941649 132.901146 
L 179.115255 134.238392 
L 179.146943 135.575638 
L 179.046465 136.912884 
L 178.856687 138.250131 
L 178.621238 139.587377 
L 178.374681 140.924623 
L 178.148482 142.261869 
L 178.053329 143.041016 
L 177.98532 143.599116 
L 177.932231 144.936362 
L 178.023621 146.273608 
L 178.053329 146.42818 
L 178.308551 147.610854 
L 178.798328 148.948101 
L 179.488761 150.285347 
L 179.847902 150.839496 
L 180.467323 151.622593 
L 181.642475 152.900761 
L 181.708028 152.959839 
L 183.23886 154.297085 
L 183.437048 154.477305 
L 184.878289 155.634332 
L 185.231621 155.937442 
L 186.674706 156.971578 
L 187.026193 157.217854 
L 188.820766 158.102147 
L 189.603436 158.308824 
L 190.615339 158.548628 
L 192.409912 158.702636 
L 194.204485 158.703682 
L 195.999058 158.672612 
L 197.793631 158.700642 
L 199.588204 158.841729 
L 201.382776 159.107681 
L 203.177349 159.473143 
L 203.886691 159.64607 
L 204.971922 159.905541 
L 206.766495 160.339502 
L 208.561068 160.719654 
L 210.232361 160.983317 
L 210.355641 161.002452 
z
" clip-path="url(#p5d6995e04a)" style="fill: none; stroke: #9dd93b; stroke-width: 1.5"/>
   </g>
   <g id="PathCollection_9">
    <path d="M 206.766495 154.751703 
L 208.561068 155.191949 
L 210.355641 155.442742 
L 212.150214 155.417776 
L 213.944786 155.104563 
L 215.739359 154.570537 
L 216.510704 154.297085 
L 217.533932 153.798901 
L 219.138866 152.959839 
L 219.328505 152.775688 
L 220.456453 151.622593 
L 220.738555 150.285347 
L 220.210348 148.948101 
L 219.328505 147.87987 
L 219.099267 147.610854 
L 217.863946 146.273608 
L 217.533932 145.766665 
L 217.062416 144.936362 
L 216.920825 143.599116 
L 217.533932 142.261869 
L 217.533932 142.261869 
L 219.328505 141.18579 
L 219.890122 140.924623 
L 221.123078 140.400675 
L 222.193885 139.587377 
L 222.917651 138.849511 
L 223.223542 138.250131 
L 223.480903 136.912884 
L 223.193521 135.575638 
L 222.917651 135.153395 
L 221.961171 134.238392 
L 221.123078 133.670841 
L 219.853536 132.901146 
L 219.328505 132.617346 
L 217.751209 131.563899 
L 217.533932 131.430993 
L 215.977206 130.226653 
L 215.739359 130.065897 
L 214.273232 128.889407 
L 213.944786 128.662239 
L 212.529555 127.552161 
L 212.150214 127.28947 
L 210.711121 126.214915 
L 210.355641 125.976809 
L 208.676993 124.877668 
L 208.561068 124.810143 
L 206.766495 123.948714 
L 205.418502 123.540422 
L 204.971922 123.422789 
L 203.177349 123.299682 
L 201.382776 123.522735 
L 201.320085 123.540422 
L 199.588204 124.098811 
L 197.793631 124.833213 
L 197.689506 124.877668 
L 195.999058 125.599475 
L 194.204485 126.19955 
L 194.150851 126.214915 
L 192.409912 126.705491 
L 190.615339 127.16836 
L 189.320171 127.552161 
L 188.820766 127.735588 
L 187.026193 128.696637 
L 186.777107 128.889407 
L 185.800703 130.226653 
L 185.382314 131.563899 
L 185.231621 132.576548 
L 185.193483 132.901146 
L 185.062479 134.238392 
L 184.923304 135.575638 
L 184.796272 136.912884 
L 184.730957 138.250131 
L 184.779309 139.587377 
L 184.976621 140.924623 
L 185.231621 141.922073 
L 185.347772 142.261869 
L 185.912163 143.599116 
L 186.54326 144.936362 
L 187.026193 145.905809 
L 187.222664 146.273608 
L 188.001671 147.610854 
L 188.820766 148.725731 
L 188.979245 148.948101 
L 190.324816 150.285347 
L 190.615339 150.497772 
L 192.409912 151.615699 
L 192.424497 151.622593 
L 194.204485 152.258715 
L 195.999058 152.661695 
L 197.793631 152.923798 
L 198.08734 152.959839 
L 199.588204 153.130315 
L 201.382776 153.380623 
L 203.177349 153.742021 
L 204.971922 154.237469 
L 205.170321 154.297085 
L 206.766495 154.751703 
z
" clip-path="url(#p5d6995e04a)" style="fill: none; stroke: #d8e219; stroke-width: 1.5"/>
   </g>
   <g id="PathCollection_10"/>
   <g id="patch_3">
    <path d="M 34.4875 273.312 
L 34.4875 7.2 
" style="fill: none"/>
   </g>
   <g id="patch_4">
    <path d="M 391.6075 273.312 
L 391.6075 7.2 
" style="fill: none"/>
   </g>
   <g id="patch_5">
    <path d="M 34.4875 273.312 
L 391.6075 273.312 
" style="fill: none"/>
   </g>
   <g id="patch_6">
    <path d="M 34.4875 7.2 
L 391.6075 7.2 
" style="fill: none"/>
   </g>
  </g>
 </g>
 <defs>
  <clipPath id="p5d6995e04a">
   <rect x="34.4875" y="7.2" width="357.12" height="266.112"/>
  </clipPath>
 </defs>
</svg>
