<?xml version="1.0" encoding="utf-8" standalone="no"?>
<!DOCTYPE svg PUBLIC "-//W3C//DTD SVG 1.1//EN"
  "http://www.w3.org/Graphics/SVG/1.1/DTD/svg11.dtd">
<svg xmlns:xlink="http://www.w3.org/1999/xlink" width="335.581647pt" height="235.491115pt" viewBox="0 0 335.581647 235.491115" xmlns="http://www.w3.org/2000/svg" version="1.1">
 <metadata>
  <rdf:RDF xmlns:dc="http://purl.org/dc/elements/1.1/" xmlns:cc="http://creativecommons.org/ns#" xmlns:rdf="http://www.w3.org/1999/02/22-rdf-syntax-ns#">
   <cc:Work>
    <dc:type rdf:resource="http://purl.org/dc/dcmitype/StillImage"/>
    <dc:date>2023-09-19T14:27:44.816973</dc:date>
    <dc:format>image/svg+xml</dc:format>
    <dc:creator>
     <cc:Agent>
      <dc:title>Matplotlib v3.8.0, https://matplotlib.org/</dc:title>
     </cc:Agent>
    </dc:creator>
   </cc:Work>
  </rdf:RDF>
 </metadata>
 <defs>
  <style type="text/css">*{stroke-linejoin: round; stroke-linecap: butt}</style>
 </defs>
 <g id="figure_1">
  <g id="patch_1">
   <path d="M 0 235.491115 
L 335.581647 235.491115 
L 335.581647 -0 
L 0 -0 
L 0 235.491115 
z
" style="fill: none"/>
  </g>
  <g id="axes_1">
   <g id="patch_2">
    <path d="M 59.82125 192.009865 
L 326.19734 192.009865 
L 326.19734 28.442513 
L 59.82125 28.442513 
L 59.82125 192.009865 
z
" style="fill: none"/>
   </g>
   <g id="matplotlib.axis_1">
    <g id="xtick_1">
     <g id="line2d_1">
      <path d="M 71.929254 192.009865 
L 71.929254 28.442513 
" clip-path="url(#p1f39bfa76d)" style="fill: none; stroke-dasharray: 1.85,0.8; stroke-dashoffset: 0; stroke: #838383; stroke-opacity: 0.33; stroke-width: 0.5"/>
     </g>
     <g id="line2d_2"/>
     <g id="text_1">
      <!-- 0 -->
      <g style="fill: #838383" transform="translate(67.980504 207.509865) scale(0.16 -0.16)">
       <defs>
        <path id="RobotoCondensed-Regular-30" d="M 2797 1941 
Q 2797 934 2503 435 
Q 2209 -63 1581 -63 
Q 972 -63 672 415 
Q 372 894 359 1853 
L 359 2634 
Q 359 3631 654 4122 
Q 950 4613 1575 4613 
Q 2191 4613 2486 4147 
Q 2781 3681 2797 2738 
L 2797 1941 
z
M 2244 2731 
Q 2244 3453 2084 3795 
Q 1925 4138 1575 4138 
Q 1234 4138 1075 3802 
Q 916 3466 909 2788 
L 909 1850 
Q 909 1131 1075 770 
Q 1241 409 1581 409 
Q 1919 409 2078 750 
Q 2238 1091 2244 1791 
L 2244 2731 
z
" transform="scale(0.015625)"/>
       </defs>
       <use xlink:href="#RobotoCondensed-Regular-30"/>
      </g>
     </g>
    </g>
    <g id="xtick_2">
     <g id="line2d_3">
      <path d="M 133.08079 192.009865 
L 133.08079 28.442513 
" clip-path="url(#p1f39bfa76d)" style="fill: none; stroke-dasharray: 1.85,0.8; stroke-dashoffset: 0; stroke: #838383; stroke-opacity: 0.33; stroke-width: 0.5"/>
     </g>
     <g id="line2d_4"/>
     <g id="text_2">
      <!-- 25 -->
      <g style="fill: #838383" transform="translate(125.18329 207.509865) scale(0.16 -0.16)">
       <defs>
        <path id="RobotoCondensed-Regular-32" d="M 2909 0 
L 366 0 
L 366 416 
L 1663 2134 
Q 1956 2531 2070 2786 
Q 2184 3041 2184 3325 
Q 2184 3688 2015 3913 
Q 1847 4138 1572 4138 
Q 1225 4138 1036 3898 
Q 847 3659 847 3209 
L 294 3209 
Q 294 3838 637 4225 
Q 981 4613 1572 4613 
Q 2116 4613 2428 4280 
Q 2741 3947 2741 3394 
Q 2741 2719 2038 1797 
L 1025 472 
L 2909 472 
L 2909 0 
z
" transform="scale(0.015625)"/>
        <path id="RobotoCondensed-Regular-35" d="M 591 2281 
L 788 4550 
L 2766 4550 
L 2766 4016 
L 1253 4016 
L 1147 2775 
Q 1428 2972 1753 2972 
Q 2284 2972 2587 2559 
Q 2891 2147 2891 1450 
Q 2891 744 2561 340 
Q 2231 -63 1656 -63 
Q 1144 -63 822 271 
Q 500 606 453 1197 
L 972 1197 
Q 1019 806 1195 607 
Q 1372 409 1656 409 
Q 1978 409 2159 689 
Q 2341 969 2341 1444 
Q 2341 1891 2145 2172 
Q 1950 2453 1619 2453 
Q 1344 2453 1178 2309 
L 1031 2163 
L 591 2281 
z
" transform="scale(0.015625)"/>
       </defs>
       <use xlink:href="#RobotoCondensed-Regular-32"/>
       <use xlink:href="#RobotoCondensed-Regular-35" x="49.365234"/>
      </g>
     </g>
    </g>
    <g id="xtick_3">
     <g id="line2d_5">
      <path d="M 194.232326 192.009865 
L 194.232326 28.442513 
" clip-path="url(#p1f39bfa76d)" style="fill: none; stroke-dasharray: 1.85,0.8; stroke-dashoffset: 0; stroke: #838383; stroke-opacity: 0.33; stroke-width: 0.5"/>
     </g>
     <g id="line2d_6"/>
     <g id="text_3">
      <!-- 50 -->
      <g style="fill: #838383" transform="translate(186.334826 207.509865) scale(0.16 -0.16)">
       <use xlink:href="#RobotoCondensed-Regular-35"/>
       <use xlink:href="#RobotoCondensed-Regular-30" x="49.365234"/>
      </g>
     </g>
    </g>
    <g id="xtick_4">
     <g id="line2d_7">
      <path d="M 255.383861 192.009865 
L 255.383861 28.442513 
" clip-path="url(#p1f39bfa76d)" style="fill: none; stroke-dasharray: 1.85,0.8; stroke-dashoffset: 0; stroke: #838383; stroke-opacity: 0.33; stroke-width: 0.5"/>
     </g>
     <g id="line2d_8"/>
     <g id="text_4">
      <!-- 75 -->
      <g style="fill: #838383" transform="translate(247.486361 207.509865) scale(0.16 -0.16)">
       <defs>
        <path id="RobotoCondensed-Regular-37" d="M 2875 4225 
L 1309 0 
L 731 0 
L 2294 4075 
L 266 4075 
L 266 4550 
L 2875 4550 
L 2875 4225 
z
" transform="scale(0.015625)"/>
       </defs>
       <use xlink:href="#RobotoCondensed-Regular-37"/>
       <use xlink:href="#RobotoCondensed-Regular-35" x="49.365234"/>
      </g>
     </g>
    </g>
    <g id="xtick_5">
     <g id="line2d_9">
      <path d="M 316.535397 192.009865 
L 316.535397 28.442513 
" clip-path="url(#p1f39bfa76d)" style="fill: none; stroke-dasharray: 1.85,0.8; stroke-dashoffset: 0; stroke: #838383; stroke-opacity: 0.33; stroke-width: 0.5"/>
     </g>
     <g id="line2d_10"/>
     <g id="text_5">
      <!-- 100 -->
      <g style="fill: #838383" transform="translate(304.689147 207.509865) scale(0.16 -0.16)">
       <defs>
        <path id="RobotoCondensed-Regular-31" d="M 2013 0 
L 1456 0 
L 1456 3853 
L 500 3425 
L 500 3950 
L 1925 4572 
L 2013 4572 
L 2013 0 
z
" transform="scale(0.015625)"/>
       </defs>
       <use xlink:href="#RobotoCondensed-Regular-31"/>
       <use xlink:href="#RobotoCondensed-Regular-30" x="49.365234"/>
       <use xlink:href="#RobotoCondensed-Regular-30" x="98.730469"/>
      </g>
     </g>
    </g>
    <g id="text_6">
     <!-- draw -->
     <g style="fill: #bdbdbd" transform="translate(306.889527 226.259865) scale(0.1 -0.1)">
      <defs>
       <path id="RobotoCondensed-Bold-64" d="M 203 1794 
Q 203 2625 484 3034 
Q 766 3444 1303 3444 
Q 1694 3444 1953 3106 
L 1953 4800 
L 2844 4800 
L 2844 0 
L 2041 0 
L 2000 344 
Q 1728 -63 1300 -63 
Q 769 -63 489 343 
Q 209 750 203 1538 
L 203 1794 
z
M 1091 1572 
Q 1091 1072 1197 873 
Q 1303 675 1556 675 
Q 1819 675 1953 909 
L 1953 2453 
Q 1822 2703 1559 2703 
Q 1316 2703 1203 2506 
Q 1091 2309 1091 1806 
L 1091 1572 
z
" transform="scale(0.015625)"/>
       <path id="RobotoCondensed-Bold-72" d="M 1991 2528 
L 1697 2553 
Q 1334 2553 1206 2234 
L 1206 0 
L 319 0 
L 319 3381 
L 1153 3381 
L 1178 3016 
Q 1388 3444 1756 3444 
Q 1906 3444 2000 3403 
L 1991 2528 
z
" transform="scale(0.015625)"/>
       <path id="RobotoCondensed-Bold-61" d="M 1928 0 
Q 1891 78 1853 263 
Q 1616 -63 1209 -63 
Q 784 -63 504 218 
Q 225 500 225 947 
Q 225 1478 564 1768 
Q 903 2059 1541 2066 
L 1809 2066 
L 1809 2338 
Q 1809 2566 1731 2659 
Q 1653 2753 1503 2753 
Q 1172 2753 1172 2366 
L 288 2366 
Q 288 2834 639 3139 
Q 991 3444 1528 3444 
Q 2084 3444 2389 3155 
Q 2694 2866 2694 2328 
L 2694 738 
Q 2700 300 2819 53 
L 2819 0 
L 1928 0 
z
M 1406 631 
Q 1553 631 1656 690 
Q 1759 750 1809 831 
L 1809 1534 
L 1597 1534 
Q 1372 1534 1242 1390 
Q 1113 1247 1113 1006 
Q 1113 631 1406 631 
z
" transform="scale(0.015625)"/>
       <path id="RobotoCondensed-Bold-77" d="M 2784 1484 
L 3088 3381 
L 3934 3381 
L 3234 0 
L 2500 0 
L 2022 1956 
L 1544 0 
L 806 0 
L 106 3381 
L 956 3381 
L 1256 1481 
L 1706 3381 
L 2334 3381 
L 2784 1484 
z
" transform="scale(0.015625)"/>
      </defs>
      <use xlink:href="#RobotoCondensed-Bold-64"/>
      <use xlink:href="#RobotoCondensed-Bold-72" x="49.560547"/>
      <use xlink:href="#RobotoCondensed-Bold-61" x="82.714844"/>
      <use xlink:href="#RobotoCondensed-Bold-77" x="129.785156"/>
     </g>
    </g>
   </g>
   <g id="matplotlib.axis_2">
    <g id="ytick_1">
     <g id="line2d_11">
      <path d="M 59.82125 169.198883 
L 326.19734 169.198883 
" clip-path="url(#p1f39bfa76d)" style="fill: none; stroke-dasharray: 1.85,0.8; stroke-dashoffset: 0; stroke: #838383; stroke-opacity: 0.33; stroke-width: 0.5"/>
     </g>
     <g id="line2d_12"/>
     <g id="text_7">
      <!-- 1500 -->
      <g style="fill: #838383" transform="translate(24.73125 175.198883) scale(0.16 -0.16)">
       <use xlink:href="#RobotoCondensed-Regular-31"/>
       <use xlink:href="#RobotoCondensed-Regular-35" x="49.365234"/>
       <use xlink:href="#RobotoCondensed-Regular-30" x="98.730469"/>
       <use xlink:href="#RobotoCondensed-Regular-30" x="148.095703"/>
      </g>
     </g>
    </g>
    <g id="ytick_2">
     <g id="line2d_13">
      <path d="M 59.82125 130.047966 
L 326.19734 130.047966 
" clip-path="url(#p1f39bfa76d)" style="fill: none; stroke-dasharray: 1.85,0.8; stroke-dashoffset: 0; stroke: #838383; stroke-opacity: 0.33; stroke-width: 0.5"/>
     </g>
     <g id="line2d_14"/>
     <g id="text_8">
      <!-- 1550 -->
      <g style="fill: #838383" transform="translate(24.73125 136.047966) scale(0.16 -0.16)">
       <use xlink:href="#RobotoCondensed-Regular-31"/>
       <use xlink:href="#RobotoCondensed-Regular-35" x="49.365234"/>
       <use xlink:href="#RobotoCondensed-Regular-35" x="98.730469"/>
       <use xlink:href="#RobotoCondensed-Regular-30" x="148.095703"/>
      </g>
     </g>
    </g>
    <g id="ytick_3">
     <g id="line2d_15">
      <path d="M 59.82125 90.897048 
L 326.19734 90.897048 
" clip-path="url(#p1f39bfa76d)" style="fill: none; stroke-dasharray: 1.85,0.8; stroke-dashoffset: 0; stroke: #838383; stroke-opacity: 0.33; stroke-width: 0.5"/>
     </g>
     <g id="line2d_16"/>
     <g id="text_9">
      <!-- 1600 -->
      <g style="fill: #838383" transform="translate(24.73125 96.897048) scale(0.16 -0.16)">
       <defs>
        <path id="RobotoCondensed-Regular-36" d="M 2291 4553 
L 2291 4063 
L 2200 4063 
Q 1647 4050 1334 3689 
Q 1022 3328 975 2603 
Q 1278 2984 1750 2984 
Q 2253 2984 2548 2570 
Q 2844 2156 2844 1484 
Q 2844 769 2517 353 
Q 2191 -63 1641 -63 
Q 1088 -63 750 428 
Q 413 919 413 1731 
L 413 1953 
Q 413 2891 616 3447 
Q 819 4003 1214 4273 
Q 1609 4544 2197 4553 
L 2291 4553 
z
M 1656 2503 
Q 1431 2503 1240 2331 
Q 1050 2159 966 1894 
L 966 1666 
Q 966 1113 1161 764 
Q 1356 416 1641 416 
Q 1950 416 2125 702 
Q 2300 988 2300 1456 
Q 2300 1919 2125 2211 
Q 1950 2503 1656 2503 
z
" transform="scale(0.015625)"/>
       </defs>
       <use xlink:href="#RobotoCondensed-Regular-31"/>
       <use xlink:href="#RobotoCondensed-Regular-36" x="49.365234"/>
       <use xlink:href="#RobotoCondensed-Regular-30" x="98.730469"/>
       <use xlink:href="#RobotoCondensed-Regular-30" x="148.095703"/>
      </g>
     </g>
    </g>
    <g id="ytick_4">
     <g id="line2d_17">
      <path d="M 59.82125 51.746131 
L 326.19734 51.746131 
" clip-path="url(#p1f39bfa76d)" style="fill: none; stroke-dasharray: 1.85,0.8; stroke-dashoffset: 0; stroke: #838383; stroke-opacity: 0.33; stroke-width: 0.5"/>
     </g>
     <g id="line2d_18"/>
     <g id="text_10">
      <!-- 1650 -->
      <g style="fill: #838383" transform="translate(24.73125 57.746131) scale(0.16 -0.16)">
       <use xlink:href="#RobotoCondensed-Regular-31"/>
       <use xlink:href="#RobotoCondensed-Regular-36" x="49.365234"/>
       <use xlink:href="#RobotoCondensed-Regular-35" x="98.730469"/>
       <use xlink:href="#RobotoCondensed-Regular-30" x="148.095703"/>
      </g>
     </g>
    </g>
    <g id="text_11">
     <!-- energy -->
     <g style="fill: #bdbdbd" transform="translate(14.596875 55.744076) rotate(-90) scale(0.1 -0.1)">
      <defs>
       <path id="RobotoCondensed-Bold-65" d="M 1688 -63 
Q 1006 -63 625 343 
Q 244 750 244 1506 
L 244 1775 
Q 244 2575 594 3009 
Q 944 3444 1597 3444 
Q 2234 3444 2556 3036 
Q 2878 2628 2884 1828 
L 2884 1394 
L 1125 1394 
Q 1144 1019 1291 845 
Q 1438 672 1744 672 
Q 2188 672 2484 975 
L 2831 441 
Q 2669 216 2359 76 
Q 2050 -63 1688 -63 
z
M 1131 2013 
L 2016 2013 
L 2016 2094 
Q 2009 2397 1915 2553 
Q 1822 2709 1590 2709 
Q 1359 2709 1254 2543 
Q 1150 2378 1131 2013 
z
" transform="scale(0.015625)"/>
       <path id="RobotoCondensed-Bold-6e" d="M 1131 3381 
L 1156 3047 
Q 1456 3444 1941 3444 
Q 2813 3444 2838 2222 
L 2838 0 
L 1950 0 
L 1950 2156 
Q 1950 2444 1864 2573 
Q 1778 2703 1563 2703 
Q 1322 2703 1188 2456 
L 1188 0 
L 300 0 
L 300 3381 
L 1131 3381 
z
" transform="scale(0.015625)"/>
       <path id="RobotoCondensed-Bold-67" d="M 216 1794 
Q 216 2625 516 3034 
Q 816 3444 1356 3444 
Q 1816 3444 2066 3081 
L 2100 3381 
L 2897 3381 
L 2897 0 
Q 2897 -647 2534 -989 
Q 2172 -1331 1494 -1331 
Q 1216 -1331 909 -1220 
Q 603 -1109 453 -938 
L 750 -325 
Q 875 -456 1075 -539 
Q 1275 -622 1453 -622 
Q 1750 -622 1879 -480 
Q 2009 -338 2013 -22 
L 2013 269 
Q 1759 -63 1353 -63 
Q 813 -63 517 357 
Q 222 778 216 1544 
L 216 1794 
z
M 1100 1572 
Q 1100 1103 1222 889 
Q 1344 675 1609 675 
Q 1881 675 2013 872 
L 2013 2488 
Q 1875 2703 1616 2703 
Q 1353 2703 1226 2487 
Q 1100 2272 1100 1794 
L 1100 1572 
z
" transform="scale(0.015625)"/>
       <path id="RobotoCondensed-Bold-79" d="M 1406 1472 
L 1856 3381 
L 2800 3381 
L 1688 -506 
Q 1438 -1366 747 -1366 
Q 588 -1366 384 -1306 
L 384 -616 
L 488 -619 
Q 694 -619 798 -539 
Q 903 -459 956 -263 
L 1025 -34 
L 50 3381 
L 1000 3381 
L 1406 1472 
z
" transform="scale(0.015625)"/>
      </defs>
      <use xlink:href="#RobotoCondensed-Bold-65"/>
      <use xlink:href="#RobotoCondensed-Bold-6e" x="47.851562"/>
      <use xlink:href="#RobotoCondensed-Bold-65" x="97.070312"/>
      <use xlink:href="#RobotoCondensed-Bold-72" x="144.921875"/>
      <use xlink:href="#RobotoCondensed-Bold-67" x="178.076172"/>
      <use xlink:href="#RobotoCondensed-Bold-79" x="228.369141"/>
     </g>
    </g>
   </g>
   <g id="line2d_19">
    <path d="M 71.929254 62.18765 
L 74.375316 95.685963 
L 76.821377 149.996295 
L 79.267438 99.906156 
L 81.7135 108.151362 
L 84.159561 95.954838 
L 86.605623 138.042361 
L 89.051684 70.863459 
L 91.497746 93.49959 
L 93.943807 123.642547 
L 96.389868 138.903758 
L 98.83593 97.111683 
L 101.281991 116.995493 
L 103.728053 92.966331 
L 106.174114 67.666485 
L 108.620176 130.359376 
L 111.066237 50.684296 
L 113.512298 69.084654 
L 115.95836 65.805096 
L 118.404421 136.387432 
L 120.850483 131.869114 
L 123.296544 86.045814 
L 125.742606 70.132438 
L 128.188667 42.958777 
L 130.634728 66.614877 
L 133.08079 107.458384 
L 135.526851 79.516806 
L 137.972913 129.912237 
L 140.418974 57.812421 
L 142.865036 108.32064 
L 145.311097 109.221704 
L 147.757158 131.07453 
L 150.20322 117.684267 
L 152.649281 122.937716 
L 155.095343 88.639084 
L 157.541404 101.438548 
L 159.987466 144.027405 
L 162.433527 95.580725 
L 164.879588 96.328091 
L 167.32565 153.192696 
L 169.771711 107.465266 
L 172.217773 183.921769 
L 174.663834 63.433292 
L 177.109896 141.08277 
L 179.555957 136.310965 
L 182.002018 144.840245 
L 184.44808 95.334216 
L 186.894141 59.802082 
L 189.340203 90.476482 
L 191.786264 92.365017 
L 194.232326 101.986909 
L 196.678387 115.994736 
L 199.124448 67.666102 
L 201.57051 126.517501 
L 204.016571 117.017478 
L 206.462633 122.999654 
L 208.908694 115.683135 
L 211.354756 139.336655 
L 213.800817 110.220358 
L 216.246878 46.630896 
L 218.69294 86.21557 
L 221.139001 65.127028 
L 223.585063 115.507262 
L 226.031124 90.356429 
L 228.477186 133.475583 
L 230.923247 110.518578 
L 233.369308 108.676784 
L 235.81537 92.330798 
L 238.261431 137.377675 
L 240.707493 114.1019 
L 243.153554 118.200799 
L 245.599616 80.8046 
L 248.045677 97.578321 
L 250.491738 138.591009 
L 252.9378 138.251498 
L 255.383861 124.201136 
L 257.829923 102.500956 
L 260.275984 149.991038 
L 262.722046 90.057923 
L 265.168107 104.679586 
L 267.614168 142.772205 
L 270.06023 136.676667 
L 272.506291 71.415931 
L 274.952353 65.959941 
L 277.398414 124.155638 
L 279.844476 86.863242 
L 282.290537 76.198823 
L 284.736598 38.67913 
L 287.18266 105.871892 
L 289.628721 96.394044 
L 292.074783 133.059126 
L 294.520844 127.445137 
L 296.966906 135.042671 
L 299.412967 127.277484 
L 301.859028 100.517603 
L 304.30509 97.594761 
L 306.751151 123.378928 
L 309.197213 163.593687 
L 311.643274 100.05431 
L 314.089336 102.639838 
" clip-path="url(#p1f39bfa76d)" style="fill: none; stroke: #440154; stroke-width: 1.5; stroke-linecap: round"/>
   </g>
   <g id="line2d_20">
    <path d="M 71.929254 61.98119 
L 74.375316 96.422528 
L 76.821377 149.71614 
L 79.267438 99.571806 
L 81.7135 107.548519 
L 84.159561 95.902937 
L 86.605623 137.144834 
L 89.051684 70.52022 
L 91.497746 93.280131 
L 93.943807 122.375304 
L 96.389868 139.037766 
L 98.83593 96.904745 
L 101.281991 116.839693 
L 103.728053 93.187798 
L 106.174114 67.515463 
L 108.620176 130.76484 
L 111.066237 50.950114 
L 113.512298 69.095646 
L 115.95836 65.346774 
L 118.404421 135.599061 
L 120.850483 132.146401 
L 123.296544 86.194159 
L 125.742606 70.13846 
L 128.188667 43.710253 
L 130.634728 67.275358 
L 133.08079 106.877142 
L 135.526851 79.291707 
L 137.972913 131.012114 
L 140.418974 57.852183 
L 142.865036 108.833062 
L 145.311097 109.497749 
L 147.757158 131.173746 
L 150.20322 117.845994 
L 152.649281 122.227149 
L 155.095343 88.940936 
L 157.541404 101.233235 
L 159.987466 144.011729 
L 162.433527 95.609687 
L 164.879588 96.007409 
L 167.32565 153.654841 
L 169.771711 106.53352 
L 172.217773 183.509518 
L 174.663834 62.519038 
L 177.109896 141.275562 
L 179.555957 135.961704 
L 182.002018 144.173552 
L 184.44808 94.58102 
L 186.894141 59.873961 
L 189.340203 88.966648 
L 191.786264 92.082186 
L 194.232326 101.091963 
L 196.678387 115.907564 
L 199.124448 66.964425 
L 201.57051 126.752636 
L 204.016571 116.876014 
L 206.462633 122.412772 
L 208.908694 115.367136 
L 211.354756 138.930712 
L 213.800817 109.316523 
L 216.246878 46.46286 
L 218.69294 85.664437 
L 221.139001 64.935479 
L 223.585063 115.414163 
L 226.031124 89.103906 
L 228.477186 133.170768 
L 230.923247 110.54993 
L 233.369308 109.295112 
L 235.81537 93.149947 
L 238.261431 137.591208 
L 240.707493 113.922299 
L 243.153554 118.272104 
L 245.599616 81.325337 
L 248.045677 96.956647 
L 250.491738 138.477265 
L 252.9378 137.897457 
L 255.383861 124.310387 
L 257.829923 102.016253 
L 260.275984 148.89766 
L 262.722046 89.387119 
L 265.168107 103.871238 
L 267.614168 142.408224 
L 270.06023 135.791088 
L 272.506291 70.715305 
L 274.952353 65.778332 
L 277.398414 124.247016 
L 279.844476 87.424125 
L 282.290537 75.946005 
L 284.736598 37.774817 
L 287.18266 106.079499 
L 289.628721 96.807919 
L 292.074783 132.683771 
L 294.520844 127.440836 
L 296.966906 135.04831 
L 299.412967 127.403272 
L 301.859028 100.805882 
L 304.30509 97.27991 
L 306.751151 123.946693 
L 309.197213 163.448879 
L 311.643274 101.082213 
L 314.089336 102.050663 
" clip-path="url(#p1f39bfa76d)" style="fill: none; stroke: #471365; stroke-width: 1.5; stroke-linecap: round"/>
   </g>
   <g id="line2d_21">
    <path d="M 71.929254 61.575726 
L 74.375316 96.807633 
L 76.821377 149.547531 
L 79.267438 99.368309 
L 81.7135 106.776014 
L 84.159561 95.886688 
L 86.605623 136.436466 
L 89.051684 70.851129 
L 91.497746 93.388523 
L 93.943807 121.138647 
L 96.389868 139.054397 
L 98.83593 96.474334 
L 101.281991 116.333388 
L 103.728053 92.076929 
L 106.174114 66.858328 
L 108.620176 130.575968 
L 111.066237 51.040249 
L 113.512298 69.241506 
L 115.95836 65.033738 
L 118.404421 134.946896 
L 120.850483 132.661595 
L 123.296544 86.271008 
L 125.742606 69.67641 
L 128.188667 44.130532 
L 130.634728 66.468061 
L 133.08079 106.205478 
L 135.526851 78.647667 
L 137.972913 131.135321 
L 140.418974 57.565433 
L 142.865036 108.884104 
L 145.311097 109.698665 
L 147.757158 131.118594 
L 150.20322 117.505526 
L 152.649281 121.20957 
L 155.095343 88.660495 
L 157.541404 100.745569 
L 159.987466 144.000833 
L 162.433527 95.579292 
L 164.879588 95.285469 
L 167.32565 153.64729 
L 169.771711 105.533527 
L 172.217773 183.381914 
L 174.663834 61.760393 
L 177.109896 140.977342 
L 179.555957 135.004533 
L 182.002018 143.75547 
L 184.44808 93.934877 
L 186.894141 59.189489 
L 189.340203 87.77482 
L 191.786264 91.921893 
L 194.232326 100.846122 
L 196.678387 115.73972 
L 199.124448 66.350685 
L 201.57051 127.138793 
L 204.016571 115.801658 
L 206.462633 121.92004 
L 208.908694 114.713251 
L 211.354756 137.400233 
L 213.800817 108.216933 
L 216.246878 45.850649 
L 218.69294 85.356085 
L 221.139001 64.508604 
L 223.585063 115.613359 
L 226.031124 87.99839 
L 228.477186 132.990593 
L 230.923247 111.155736 
L 233.369308 109.851025 
L 235.81537 93.458107 
L 238.261431 137.146363 
L 240.707493 113.755889 
L 243.153554 118.445492 
L 245.599616 80.75461 
L 248.045677 96.614076 
L 250.491738 138.729605 
L 252.9378 137.318031 
L 255.383861 124.289646 
L 257.829923 102.02562 
L 260.275984 148.153258 
L 262.722046 88.920768 
L 265.168107 102.466833 
L 267.614168 141.685996 
L 270.06023 135.297974 
L 272.506291 70.404181 
L 274.952353 65.454783 
L 277.398414 123.763173 
L 279.844476 87.531943 
L 282.290537 75.528689 
L 284.736598 36.61434 
L 287.18266 106.623177 
L 289.628721 97.637487 
L 292.074783 133.226684 
L 294.520844 127.315908 
L 296.966906 134.482553 
L 299.412967 127.204554 
L 301.859028 100.60812 
L 304.30509 96.592188 
L 306.751151 123.590263 
L 309.197213 163.947632 
L 311.643274 101.019606 
L 314.089336 101.821646 
" clip-path="url(#p1f39bfa76d)" style="fill: none; stroke: #482374; stroke-width: 1.5; stroke-linecap: round"/>
   </g>
   <g id="line2d_22">
    <path d="M 71.929254 61.399566 
L 74.375316 96.320445 
L 76.821377 149.925276 
L 79.267438 99.269763 
L 81.7135 106.477125 
L 84.159561 96.16407 
L 86.605623 136.602303 
L 89.051684 71.46248 
L 91.497746 93.446446 
L 93.943807 121.044593 
L 96.389868 138.934918 
L 98.83593 96.556535 
L 101.281991 116.182366 
L 103.728053 90.829567 
L 106.174114 66.417593 
L 108.620176 130.133226 
L 111.066237 51.001155 
L 113.512298 69.141048 
L 115.95836 64.979065 
L 118.404421 134.699718 
L 120.850483 132.967271 
L 123.296544 86.333711 
L 125.742606 68.978174 
L 128.188667 44.06544 
L 130.634728 64.826036 
L 133.08079 105.918728 
L 135.526851 78.17864 
L 137.972913 130.399712 
L 140.418974 56.971479 
L 142.865036 108.624978 
L 145.311097 109.656321 
L 147.757158 130.804507 
L 150.20322 117.028756 
L 152.649281 120.761093 
L 155.095343 88.125898 
L 157.541404 100.677896 
L 159.987466 144.060859 
L 162.433527 95.972139 
L 164.879588 94.819978 
L 167.32565 153.104186 
L 169.771711 105.069757 
L 172.217773 183.411354 
L 174.663834 62.111853 
L 177.109896 140.945991 
L 179.555957 134.234323 
L 182.002018 143.953997 
L 184.44808 94.07634 
L 186.894141 58.266728 
L 189.340203 87.810282 
L 191.786264 91.856131 
L 194.232326 101.759516 
L 196.678387 115.795923 
L 199.124448 66.064891 
L 201.57051 127.245846 
L 204.016571 114.884345 
L 206.462633 121.968214 
L 208.908694 114.416178 
L 211.354756 136.246351 
L 213.800817 107.912022 
L 216.246878 45.616375 
L 218.69294 85.139398 
L 221.139001 64.462342 
L 223.585063 115.974377 
L 226.031124 87.984721 
L 228.477186 133.316341 
L 230.923247 111.740802 
L 233.369308 109.813365 
L 235.81537 93.244765 
L 238.261431 136.481868 
L 240.707493 113.718516 
L 243.153554 118.726411 
L 245.599616 79.773447 
L 248.045677 96.54172 
L 250.491738 138.98032 
L 252.9378 137.164333 
L 255.383861 124.377009 
L 257.829923 102.603708 
L 260.275984 148.450331 
L 262.722046 88.900409 
L 265.168107 101.560608 
L 267.614168 141.331287 
L 270.06023 135.565989 
L 272.506291 70.542013 
L 274.952353 64.944846 
L 277.398414 122.994014 
L 279.844476 87.032616 
L 282.290537 75.253982 
L 284.736598 35.877393 
L 287.18266 106.846842 
L 289.628721 98.391543 
L 292.074783 133.874165 
L 294.520844 126.853381 
L 296.966906 133.715879 
L 299.412967 126.75321 
L 301.859028 100.197016 
L 304.30509 95.883629 
L 306.751151 122.814031 
L 309.197213 164.813139 
L 311.643274 100.329495 
L 314.089336 102.156952 
" clip-path="url(#p1f39bfa76d)" style="fill: none; stroke: #46327e; stroke-width: 1.5; stroke-linecap: round"/>
   </g>
   <g id="line2d_23">
    <path d="M 71.929254 61.184217 
L 74.375316 95.512575 
L 76.821377 150.494762 
L 79.267438 99.324914 
L 81.7135 106.847128 
L 84.159561 96.413352 
L 86.605623 137.275019 
L 89.051684 71.541814 
L 91.497746 93.15377 
L 93.943807 121.684141 
L 96.389868 138.624272 
L 98.83593 97.067141 
L 101.281991 116.245929 
L 103.728053 90.432131 
L 106.174114 66.334818 
L 108.620176 129.72174 
L 111.066237 51.367908 
L 113.512298 68.624612 
L 115.95836 64.935766 
L 118.404421 134.823498 
L 120.850483 132.907818 
L 123.296544 86.209835 
L 125.742606 68.364816 
L 128.188667 43.537629 
L 130.634728 63.965977 
L 133.08079 106.314825 
L 135.526851 78.542621 
L 137.972913 129.907458 
L 140.418974 56.493562 
L 142.865036 108.435818 
L 145.311097 109.350742 
L 147.757158 130.575203 
L 150.20322 116.54759 
L 152.649281 121.365275 
L 155.095343 87.701699 
L 157.541404 100.825381 
L 159.987466 144.357358 
L 162.433527 96.334591 
L 164.879588 95.047084 
L 167.32565 152.622637 
L 169.771711 105.468148 
L 172.217773 183.604815 
L 174.663834 62.934156 
L 177.109896 141.181795 
L 179.555957 134.369573 
L 182.002018 144.657299 
L 184.44808 94.529405 
L 186.894141 57.949774 
L 189.340203 88.891998 
L 191.786264 92.031049 
L 194.232326 102.831387 
L 196.678387 115.798408 
L 199.124448 65.880033 
L 201.57051 126.761047 
L 204.016571 114.814761 
L 206.462633 122.514377 
L 208.908694 114.709237 
L 211.354756 136.172561 
L 213.800817 108.835548 
L 216.246878 46.080432 
L 218.69294 84.926534 
L 221.139001 64.262668 
L 223.585063 116.081717 
L 226.031124 88.489114 
L 228.477186 133.697718 
L 230.923247 111.612433 
L 233.369308 109.166457 
L 235.81537 92.5147 
L 238.261431 136.028612 
L 240.707493 113.924402 
L 243.153554 118.89588 
L 245.599616 79.192301 
L 248.045677 96.689205 
L 250.491738 138.737061 
L 252.9378 136.937514 
L 255.383861 124.292322 
L 257.829923 102.926397 
L 260.275984 149.55231 
L 262.722046 88.969611 
L 265.168107 101.546174 
L 267.614168 141.5301 
L 270.06023 136.033774 
L 272.506291 70.827233 
L 274.952353 64.598643 
L 277.398414 122.585969 
L 279.844476 86.857794 
L 282.290537 75.464361 
L 284.736598 35.892877 
L 287.18266 106.617059 
L 289.628721 98.258874 
L 292.074783 133.916222 
L 294.520844 126.598556 
L 296.966906 133.345781 
L 299.412967 126.694235 
L 301.859028 100.201031 
L 304.30509 95.574035 
L 306.751151 122.472225 
L 309.197213 165.188686 
L 311.643274 99.64292 
L 314.089336 102.629516 
" clip-path="url(#p1f39bfa76d)" style="fill: none; stroke: #424086; stroke-width: 1.5; stroke-linecap: round"/>
   </g>
   <g id="line2d_24">
    <path d="M 71.929254 61.165865 
L 74.375316 95.088949 
L 76.821377 150.504607 
L 79.267438 99.367067 
L 81.7135 107.689122 
L 84.159561 96.179746 
L 86.605623 137.83399 
L 89.051684 71.125644 
L 91.497746 92.916341 
L 93.943807 122.252766 
L 96.389868 138.334177 
L 98.83593 97.335157 
L 101.281991 116.621189 
L 103.728053 90.961376 
L 106.174114 66.507537 
L 108.620176 129.526654 
L 111.066237 51.64682 
L 113.512298 68.504368 
L 115.95836 64.946662 
L 118.404421 135.252285 
L 120.850483 132.607304 
L 123.296544 85.990089 
L 125.742606 68.280321 
L 128.188667 42.782139 
L 130.634728 64.284652 
L 133.08079 107.312141 
L 135.526851 79.299163 
L 137.972913 129.81761 
L 140.418974 56.772092 
L 142.865036 108.288429 
L 145.311097 108.947189 
L 147.757158 130.544521 
L 150.20322 116.468256 
L 152.649281 122.351981 
L 155.095343 87.40692 
L 157.541404 100.582982 
L 159.987466 144.480565 
L 162.433527 95.971566 
L 164.879588 95.689499 
L 167.32565 152.848405 
L 169.771711 106.20347 
L 172.217773 183.914696 
L 174.663834 63.334459 
L 177.109896 141.126643 
L 179.555957 135.239477 
L 182.002018 145.394437 
L 184.44808 94.691514 
L 186.894141 58.347496 
L 189.340203 90.098354 
L 191.786264 92.371325 
L 194.232326 102.819153 
L 196.678387 115.510703 
L 199.124448 66.127211 
L 201.57051 126.199973 
L 204.016571 115.497512 
L 206.462633 123.106707 
L 208.908694 115.259892 
L 211.354756 136.87873 
L 213.800817 109.860583 
L 216.246878 46.423098 
L 218.69294 84.95712 
L 221.139001 64.060509 
L 223.585063 115.638975 
L 226.031124 88.756939 
L 228.477186 133.371397 
L 230.923247 111.064741 
L 233.369308 108.5812 
L 235.81537 91.685037 
L 238.261431 136.101447 
L 240.707493 114.396584 
L 243.153554 119.01125 
L 245.599616 79.148523 
L 248.045677 97.037319 
L 250.491738 138.498676 
L 252.9378 136.721591 
L 255.383861 123.885902 
L 257.829923 102.89084 
L 260.275984 150.489696 
L 262.722046 89.121302 
L 265.168107 102.16479 
L 267.614168 141.891883 
L 270.06023 136.357801 
L 272.506291 71.08894 
L 274.952353 64.717167 
L 277.398414 122.937333 
L 279.844476 87.085665 
L 282.290537 75.883398 
L 284.736598 36.722923 
L 287.18266 106.488022 
L 289.628721 96.910002 
L 292.074783 133.564857 
L 294.520844 127.082398 
L 296.966906 133.607488 
L 299.412967 126.984903 
L 301.859028 100.412843 
L 304.30509 95.882578 
L 306.751151 122.424242 
L 309.197213 164.618723 
L 311.643274 99.10708 
L 314.089336 102.877267 
" clip-path="url(#p1f39bfa76d)" style="fill: none; stroke: #3d4e8a; stroke-width: 1.5; stroke-linecap: round"/>
   </g>
   <g id="line2d_25">
    <path d="M 71.929254 61.878247 
L 74.375316 95.06276 
L 76.821377 150.073908 
L 79.267438 99.145887 
L 81.7135 108.062183 
L 84.159561 95.636451 
L 86.605623 137.553739 
L 89.051684 70.829527 
L 91.497746 92.881167 
L 93.943807 122.559493 
L 96.389868 138.367727 
L 98.83593 97.30696 
L 101.281991 117.076835 
L 103.728053 92.281764 
L 106.174114 66.893216 
L 108.620176 129.886621 
L 111.066237 51.141471 
L 113.512298 69.140188 
L 115.95836 65.172334 
L 118.404421 135.850636 
L 120.850483 132.386315 
L 123.296544 85.952334 
L 125.742606 68.582746 
L 128.188667 42.277459 
L 130.634728 65.412917 
L 133.08079 108.048897 
L 135.526851 79.397422 
L 137.972913 129.802699 
L 140.418974 57.751534 
L 142.865036 108.307163 
L 145.311097 108.756787 
L 147.757158 130.757767 
L 150.20322 117.10398 
L 152.649281 122.792811 
L 155.095343 87.368878 
L 157.541404 100.24605 
L 159.987466 143.926182 
L 162.433527 95.311467 
L 164.879588 95.881717 
L 167.32565 153.393229 
L 169.771711 106.679571 
L 172.217773 184.180417 
L 174.663834 63.078009 
L 177.109896 140.841614 
L 179.555957 136.145798 
L 182.002018 145.606728 
L 184.44808 94.594784 
L 186.894141 59.069341 
L 189.340203 90.636871 
L 191.786264 92.368267 
L 194.232326 102.006886 
L 196.678387 115.305007 
L 199.124448 66.665728 
L 201.57051 126.229987 
L 204.016571 116.368658 
L 206.462633 123.11053 
L 208.908694 115.681988 
L 211.354756 137.658212 
L 213.800817 109.839937 
L 216.246878 46.269113 
L 218.69294 85.477954 
L 221.139001 64.390845 
L 223.585063 115.083254 
L 226.031124 89.117479 
L 228.477186 132.449974 
L 230.923247 110.8384 
L 233.369308 108.603376 
L 235.81537 91.401728 
L 238.261431 136.646176 
L 240.707493 114.604191 
L 243.153554 119.229657 
L 245.599616 79.441582 
L 248.045677 97.62076 
L 250.491738 138.848128 
L 252.9378 137.079837 
L 255.383861 123.717866 
L 257.829923 102.600745 
L 260.275984 150.576581 
L 262.722046 89.298418 
L 265.168107 103.067669 
L 267.614168 142.135047 
L 270.06023 136.776552 
L 272.506291 71.369955 
L 274.952353 65.104852 
L 277.398414 123.759923 
L 279.844476 87.503459 
L 282.290537 75.964644 
L 284.736598 37.779214 
L 287.18266 106.554548 
L 289.628721 95.46679 
L 292.074783 133.423776 
L 294.520844 127.692602 
L 296.966906 134.251241 
L 299.412967 127.278822 
L 301.859028 100.218714 
L 304.30509 96.369383 
L 306.751151 122.524605 
L 309.197213 163.576291 
L 311.643274 99.039598 
L 314.089336 103.132284 
" clip-path="url(#p1f39bfa76d)" style="fill: none; stroke: #365c8d; stroke-width: 1.5; stroke-linecap: round"/>
   </g>
   <g id="line2d_26">
    <path d="M 71.929254 62.566925 
L 74.375316 95.448725 
L 76.821377 149.816311 
L 79.267438 98.9097 
L 81.7135 107.607111 
L 84.159561 95.383537 
L 86.605623 136.775309 
L 89.051684 70.962292 
L 91.497746 93.078068 
L 93.943807 122.723513 
L 96.389868 138.468567 
L 98.83593 97.170849 
L 101.281991 116.823252 
L 103.728053 93.406588 
L 106.174114 67.216287 
L 108.620176 130.287689 
L 111.066237 50.314485 
L 113.512298 69.777346 
L 115.95836 65.467209 
L 118.404421 136.182502 
L 120.850483 132.496714 
L 123.296544 86.12706 
L 125.742606 68.937743 
L 128.188667 42.384608 
L 130.634728 66.675573 
L 133.08079 107.685107 
L 135.526851 78.674622 
L 137.972913 129.833477 
L 140.418974 58.371583 
L 142.865036 108.48447 
L 145.311097 108.734038 
L 147.757158 131.128248 
L 150.20322 117.690671 
L 152.649281 122.695508 
L 155.095343 87.8034 
L 157.541404 100.286004 
L 159.987466 143.533048 
L 162.433527 94.973867 
L 164.879588 95.639127 
L 167.32565 153.451726 
L 169.771711 106.731664 
L 172.217773 184.397105 
L 174.663834 62.232861 
L 177.109896 140.761515 
L 179.555957 136.419261 
L 182.002018 145.185874 
L 184.44808 94.527971 
L 186.894141 59.757349 
L 189.340203 90.21315 
L 191.786264 92.261787 
L 194.232326 101.42832 
L 196.678387 115.412634 
L 199.124448 66.79811 
L 201.57051 126.652943 
L 204.016571 116.840266 
L 206.462633 122.844809 
L 208.908694 115.797548 
L 211.354756 138.056699 
L 213.800817 109.36852 
L 216.246878 45.971275 
L 218.69294 86.050498 
L 221.139001 65.015004 
L 223.585063 115.181036 
L 226.031124 89.604954 
L 228.477186 131.768943 
L 230.923247 111.081564 
L 233.369308 109.050992 
L 235.81537 91.446748 
L 238.261431 137.120365 
L 240.707493 114.485094 
L 243.153554 118.933827 
L 245.599616 79.961364 
L 248.045677 97.972411 
L 250.491738 139.419334 
L 252.9378 137.468001 
L 255.383861 123.680685 
L 257.829923 101.988916 
L 260.275984 149.798055 
L 262.722046 89.325468 
L 265.168107 104.036119 
L 267.614168 142.090505 
L 270.06023 137.146937 
L 272.506291 71.278386 
L 274.952353 65.711137 
L 277.398414 124.151815 
L 279.844476 87.885028 
L 282.290537 75.654572 
L 284.736598 38.689836 
L 287.18266 106.634838 
L 289.628721 95.17182 
L 292.074783 133.313282 
L 294.520844 127.807302 
L 296.966906 134.91631 
L 299.412967 127.384442 
L 301.859028 99.975454 
L 304.30509 96.626885 
L 306.751151 122.844235 
L 309.197213 163.221677 
L 311.643274 99.554983 
L 314.089336 103.189251 
" clip-path="url(#p1f39bfa76d)" style="fill: none; stroke: #31688e; stroke-width: 1.5; stroke-linecap: round"/>
   </g>
   <g id="line2d_27">
    <path d="M 71.929254 62.302924 
L 74.375316 96.198194 
L 76.821377 149.768233 
L 79.267438 99.004615 
L 81.7135 106.882972 
L 84.159561 95.504354 
L 86.605623 136.494868 
L 89.051684 71.049751 
L 91.497746 93.48315 
L 93.943807 122.84911 
L 96.389868 138.349375 
L 98.83593 96.943552 
L 101.281991 116.12234 
L 103.728053 93.352774 
L 106.174114 67.153967 
L 108.620176 130.170312 
L 111.066237 50.410068 
L 113.512298 69.922346 
L 115.95836 65.361972 
L 118.404421 135.955969 
L 120.850483 132.5641 
L 123.296544 86.095804 
L 125.742606 69.403902 
L 128.188667 42.930102 
L 130.634728 66.876298 
L 133.08079 106.632735 
L 135.526851 77.74928 
L 137.972913 129.929442 
L 140.418974 58.071451 
L 142.865036 108.573076 
L 145.311097 108.74742 
L 147.757158 131.413373 
L 150.20322 117.688663 
L 152.649281 122.267294 
L 155.095343 88.470189 
L 157.541404 100.285431 
L 159.987466 143.846944 
L 162.433527 95.145726 
L 164.879588 95.638553 
L 167.32565 153.052857 
L 169.771711 106.365962 
L 172.217773 184.502246 
L 174.663834 61.591211 
L 177.109896 141.1081 
L 179.555957 135.754288 
L 182.002018 144.393298 
L 184.44808 94.34015 
L 186.894141 59.90082 
L 189.340203 89.177505 
L 191.786264 92.408985 
L 194.232326 101.457473 
L 196.678387 115.673576 
L 199.124448 66.363398 
L 201.57051 127.127131 
L 204.016571 116.786931 
L 206.462633 122.798642 
L 208.908694 115.443794 
L 211.354756 138.094167 
L 213.800817 109.185 
L 216.246878 45.860781 
L 218.69294 86.27464 
L 221.139001 65.463099 
L 223.585063 115.861493 
L 226.031124 89.616997 
L 228.477186 131.888422 
L 230.923247 111.285921 
L 233.369308 109.516483 
L 235.81537 91.84772 
L 238.261431 137.222257 
L 240.707493 114.521893 
L 243.153554 118.415288 
L 245.599616 80.443677 
L 248.045677 97.785928 
L 250.491738 139.48586 
L 252.9378 137.562055 
L 255.383861 123.543905 
L 257.829923 101.707806 
L 260.275984 148.665297 
L 262.722046 89.095399 
L 265.168107 104.458311 
L 267.614168 141.88806 
L 270.06023 137.086624 
L 272.506291 70.898156 
L 274.952353 66.289894 
L 277.398414 123.922032 
L 279.844476 87.558324 
L 282.290537 75.423451 
L 284.736598 38.874503 
L 287.18266 106.623081 
L 289.628721 95.965161 
L 292.074783 133.227831 
L 294.520844 127.58899 
L 296.966906 135.112351 
L 299.412967 127.330437 
L 301.859028 100.297857 
L 304.30509 96.749136 
L 306.751151 123.268147 
L 309.197213 163.972675 
L 311.643274 100.143012 
L 314.089336 102.860254 
" clip-path="url(#p1f39bfa76d)" style="fill: none; stroke: #2c738e; stroke-width: 1.5; stroke-linecap: round"/>
   </g>
   <g id="line2d_28">
    <path d="M 71.929254 61.486642 
L 74.375316 96.561314 
L 76.821377 149.75705 
L 79.267438 99.372324 
L 81.7135 106.550725 
L 84.159561 95.809074 
L 86.605623 136.862385 
L 89.051684 71.05453 
L 91.497746 93.979227 
L 93.943807 122.772643 
L 96.389868 138.288201 
L 98.83593 96.60643 
L 101.281991 115.909285 
L 103.728053 92.35737 
L 106.174114 66.953433 
L 108.620176 129.989469 
L 111.066237 51.002111 
L 113.512298 69.474729 
L 115.95836 64.974094 
L 118.404421 135.477766 
L 120.850483 132.38125 
L 123.296544 85.789268 
L 125.742606 69.763009 
L 128.188667 43.565157 
L 130.634728 66.06642 
L 133.08079 105.84943 
L 135.526851 77.567767 
L 137.972913 130.199943 
L 140.418974 57.572124 
L 142.865036 108.351514 
L 145.311097 109.02767 
L 147.757158 131.400087 
L 150.20322 117.181307 
L 152.649281 121.71186 
L 155.095343 88.65237 
L 157.541404 100.159452 
L 159.987466 144.13962 
L 162.433527 95.575182 
L 164.879588 95.675162 
L 167.32565 152.903078 
L 169.771711 105.914904 
L 172.217773 184.262332 
L 174.663834 61.817552 
L 177.109896 141.373248 
L 179.555957 134.785169 
L 182.002018 143.5882 
L 184.44808 94.170394 
L 186.894141 59.238428 
L 189.340203 88.300815 
L 191.786264 92.346091 
L 194.232326 101.61098 
L 196.678387 116.105039 
L 199.124448 66.050171 
L 201.57051 127.407764 
L 204.016571 116.298213 
L 206.462633 122.684707 
L 208.908694 115.046359 
L 211.354756 137.847658 
L 213.800817 109.190353 
L 216.246878 45.799895 
L 218.69294 86.257818 
L 221.139001 65.192885 
L 223.585063 116.120333 
L 226.031124 88.918761 
L 228.477186 132.903803 
L 230.923247 110.992193 
L 233.369308 109.568671 
L 235.81537 92.822 
L 238.261431 136.903869 
L 240.707493 114.602279 
L 243.153554 118.474071 
L 245.599616 80.54901 
L 248.045677 97.329231 
L 250.491738 138.907964 
L 252.9378 137.632309 
L 255.383861 123.829317 
L 257.829923 102.051619 
L 260.275984 148.265377 
L 262.722046 88.559081 
L 265.168107 103.770207 
L 267.614168 141.882325 
L 270.06023 136.834571 
L 272.506291 70.755068 
L 274.952353 66.120712 
L 277.398414 123.534824 
L 279.844476 86.596278 
L 282.290537 75.43626 
L 284.736598 37.932051 
L 287.18266 106.382116 
L 289.628721 96.975764 
L 292.074783 133.489155 
L 294.520844 127.31868 
L 296.966906 134.751428 
L 299.412967 127.199392 
L 301.859028 100.781317 
L 304.30509 96.841182 
L 306.751151 123.310682 
L 309.197213 164.888172 
L 311.643274 100.298621 
L 314.089336 102.432709 
" clip-path="url(#p1f39bfa76d)" style="fill: none; stroke: #277f8e; stroke-width: 1.5; stroke-linecap: round"/>
   </g>
   <g id="line2d_29">
    <path d="M 71.929254 60.937899 
L 74.375316 96.004351 
L 76.821377 149.990464 
L 79.267438 99.589871 
L 81.7135 106.721436 
L 84.159561 96.230023 
L 86.605623 137.462744 
L 89.051684 71.283261 
L 91.497746 93.993183 
L 93.943807 122.275706 
L 96.389868 138.401754 
L 98.83593 96.369192 
L 101.281991 116.316661 
L 103.728053 91.432028 
L 106.174114 67.017092 
L 108.620176 130.198987 
L 111.066237 50.973627 
L 113.512298 68.627861 
L 115.95836 64.726534 
L 118.404421 135.137011 
L 120.850483 132.292261 
L 123.296544 85.680303 
L 125.742606 69.494802 
L 128.188667 44.059323 
L 130.634728 65.437865 
L 133.08079 106.023678 
L 135.526851 78.42209 
L 137.972913 130.582467 
L 140.418974 57.396442 
L 142.865036 108.261379 
L 145.311097 109.671328 
L 147.757158 131.064016 
L 150.20322 116.556001 
L 152.649281 121.624784 
L 155.095343 88.139088 
L 157.541404 100.428232 
L 159.987466 144.253173 
L 162.433527 95.798177 
L 164.879588 95.548132 
L 167.32565 153.000191 
L 169.771711 105.912993 
L 172.217773 183.701832 
L 174.663834 62.630583 
L 177.109896 141.096056 
L 179.555957 134.317098 
L 182.002018 143.555032 
L 184.44808 94.633304 
L 186.894141 58.368715 
L 189.340203 88.377855 
L 191.786264 92.136573 
L 194.232326 101.721665 
L 196.678387 116.420847 
L 199.124448 66.059538 
L 201.57051 127.22023 
L 204.016571 115.852126 
L 206.462633 122.34682 
L 208.908694 115.026095 
L 211.354756 137.342978 
L 213.800817 109.050037 
L 216.246878 45.901213 
L 218.69294 86.075062 
L 221.139001 64.530397 
L 223.585063 115.991678 
L 226.031124 88.158683 
L 228.477186 134.229735 
L 230.923247 110.567708 
L 233.369308 109.236615 
L 235.81537 93.519663 
L 238.261431 136.496588 
L 240.707493 114.442081 
L 243.153554 118.61238 
L 245.599616 80.07291 
L 248.045677 96.787369 
L 250.491738 138.48625 
L 252.9378 137.602391 
L 255.383861 124.658119 
L 257.829923 102.590518 
L 260.275984 148.831039 
L 262.722046 88.190608 
L 265.168107 102.730834 
L 267.614168 141.995591 
L 270.06023 136.614347 
L 272.506291 70.682329 
L 274.952353 65.504964 
L 277.398414 123.233068 
L 279.844476 86.077739 
L 282.290537 75.646352 
L 284.736598 36.584422 
L 287.18266 106.024825 
L 289.628721 97.837543 
L 292.074783 133.671337 
L 294.520844 126.96789 
L 296.966906 134.392991 
L 299.412967 127.050856 
L 301.859028 100.830733 
L 304.30509 96.660339 
L 306.751151 122.694743 
L 309.197213 165.025621 
L 311.643274 100.079927 
L 314.089336 102.165745 
" clip-path="url(#p1f39bfa76d)" style="fill: none; stroke: #238a8d; stroke-width: 1.5; stroke-linecap: round"/>
   </g>
   <g id="line2d_30">
    <path d="M 71.929254 61.097332 
L 74.375316 95.227354 
L 76.821377 150.540833 
L 79.267438 99.935883 
L 81.7135 106.994613 
L 84.159561 96.684426 
L 86.605623 137.868878 
L 89.051684 71.397101 
L 91.497746 93.414139 
L 93.943807 121.653267 
L 96.389868 138.642242 
L 98.83593 96.545448 
L 101.281991 116.572251 
L 103.728053 90.944745 
L 106.174114 66.956301 
L 108.620176 130.144983 
L 111.066237 50.935967 
L 113.512298 68.174223 
L 115.95836 64.876504 
L 118.404421 135.020878 
L 120.850483 132.646493 
L 123.296544 85.880359 
L 125.742606 68.849041 
L 128.188667 44.035427 
L 130.634728 65.434424 
L 133.08079 106.923117 
L 135.526851 79.489756 
L 137.972913 130.556182 
L 140.418974 57.470997 
L 142.865036 108.737288 
L 145.311097 110.275223 
L 147.757158 130.60579 
L 150.20322 116.332528 
L 152.649281 121.843383 
L 155.095343 87.595793 
L 157.541404 100.885407 
L 159.987466 144.213792 
L 162.433527 95.957802 
L 164.879588 95.594967 
L 167.32565 153.131522 
L 169.771711 106.345603 
L 172.217773 183.340049 
L 174.663834 63.393051 
L 177.109896 140.56079 
L 179.555957 134.670947 
L 182.002018 144.505512 
L 184.44808 95.293498 
L 186.894141 58.011999 
L 189.340203 89.307212 
L 191.786264 92.187232 
L 194.232326 101.778633 
L 196.678387 116.170418 
L 199.124448 66.017673 
L 201.57051 126.75904 
L 204.016571 115.769351 
L 206.462633 122.201533 
L 208.908694 114.922865 
L 211.354756 136.935698 
L 213.800817 108.966114 
L 216.246878 46.283546 
L 218.69294 85.714618 
L 221.139001 64.316004 
L 223.585063 115.974282 
L 226.031124 88.296801 
L 228.477186 134.446135 
L 230.923247 110.677916 
L 233.369308 108.919374 
L 235.81537 93.111618 
L 238.261431 136.360669 
L 240.707493 114.00928 
L 243.153554 118.405347 
L 245.599616 79.55437 
L 248.045677 96.428836 
L 250.491738 138.515307 
L 252.9378 137.339824 
L 255.383861 125.152381 
L 257.829923 102.999232 
L 260.275984 149.579265 
L 262.722046 88.384833 
L 265.168107 102.321546 
L 267.614168 142.160759 
L 270.06023 136.210794 
L 272.506291 70.569349 
L 274.952353 64.965492 
L 277.398414 123.314983 
L 279.844476 86.639864 
L 282.290537 76.084314 
L 284.736598 36.163569 
L 287.18266 105.899707 
L 289.628721 98.264226 
L 292.074783 133.485906 
L 294.520844 126.675978 
L 296.966906 134.196281 
L 299.412967 127.070737 
L 301.859028 100.648456 
L 304.30509 96.377603 
L 306.751151 122.051467 
L 309.197213 164.28485 
L 311.643274 100.074956 
L 314.089336 102.379087 
" clip-path="url(#p1f39bfa76d)" style="fill: none; stroke: #1f968b; stroke-width: 1.5; stroke-linecap: round"/>
   </g>
   <g id="line2d_31">
    <path d="M 71.929254 61.650663 
L 74.375316 95.149167 
L 76.821377 150.969428 
L 79.267438 100.375279 
L 81.7135 107.298759 
L 84.159561 96.520787 
L 86.605623 137.935212 
L 89.051684 71.157951 
L 91.497746 93.050349 
L 93.943807 121.384487 
L 96.389868 138.84182 
L 98.83593 97.14724 
L 101.281991 116.670128 
L 103.728053 90.709036 
L 106.174114 66.79553 
L 108.620176 129.68972 
L 111.066237 51.09129 
L 113.512298 68.515264 
L 115.95836 65.284549 
L 118.404421 135.147334 
L 120.850483 132.937831 
L 123.296544 85.991427 
L 125.742606 68.648412 
L 128.188667 43.316067 
L 130.634728 65.723659 
L 133.08079 107.628713 
L 135.526851 79.907264 
L 137.972913 130.187517 
L 140.418974 57.541442 
L 142.865036 109.092476 
L 145.311097 110.041618 
L 147.757158 130.655971 
L 150.20322 116.777564 
L 152.649281 121.874638 
L 155.095343 87.746623 
L 157.541404 100.961014 
L 159.987466 143.91022 
L 162.433527 96.018019 
L 164.879588 95.80678 
L 167.32565 153.353754 
L 169.771711 106.336427 
L 172.217773 183.491548 
L 174.663834 63.644531 
L 177.109896 140.27404 
L 179.555957 135.60059 
L 182.002018 145.53093 
L 184.44808 95.200208 
L 186.894141 58.496701 
L 189.340203 89.978684 
L 191.786264 92.269147 
L 194.232326 101.646059 
L 196.678387 115.674341 
L 199.124448 66.295725 
L 201.57051 126.301674 
L 204.016571 115.959466 
L 206.462633 122.497459 
L 208.908694 114.476491 
L 211.354756 137.09991 
L 213.800817 109.012568 
L 216.246878 46.559782 
L 218.69294 85.164536 
L 221.139001 64.335503 
L 223.585063 115.781394 
L 226.031124 89.051335 
L 228.477186 133.120777 
L 230.923247 111.05222 
L 233.369308 109.056727 
L 235.81537 92.233685 
L 238.261431 136.54438 
L 240.707493 113.559274 
L 243.153554 118.148228 
L 245.599616 79.508873 
L 248.045677 96.303813 
L 250.491738 138.453369 
L 252.9378 137.234682 
L 255.383861 124.6845 
L 257.829923 103.070537 
L 260.275984 149.993332 
L 262.722046 88.775291 
L 265.168107 102.541101 
L 267.614168 142.467485 
L 270.06023 135.711563 
L 272.506291 70.578334 
L 274.952353 64.701013 
L 277.398414 123.667016 
L 279.844476 87.692714 
L 282.290537 76.389703 
L 284.736598 36.776258 
L 287.18266 106.060096 
L 289.628721 97.688815 
L 292.074783 133.137409 
L 294.520844 126.847837 
L 296.966906 134.02901 
L 299.412967 127.191937 
L 301.859028 100.42785 
L 304.30509 96.372824 
L 306.751151 121.940208 
L 309.197213 163.271572 
L 311.643274 100.092161 
L 314.089336 102.859489 
" clip-path="url(#p1f39bfa76d)" style="fill: none; stroke: #1fa187; stroke-width: 1.5; stroke-linecap: round"/>
   </g>
   <g id="line2d_32">
    <path d="M 71.929254 62.055745 
L 74.375316 95.694278 
L 76.821377 150.620836 
L 79.267438 99.980329 
L 81.7135 107.561422 
L 84.159561 95.629377 
L 86.605623 137.514455 
L 89.051684 70.996416 
L 91.497746 93.036203 
L 93.943807 121.641319 
L 96.389868 138.926124 
L 98.83593 97.762892 
L 101.281991 117.009544 
L 103.728053 90.767055 
L 106.174114 66.87907 
L 108.620176 129.732732 
L 111.066237 51.191653 
L 113.512298 69.118204 
L 115.95836 65.784067 
L 118.404421 135.539417 
L 120.850483 133.002445 
L 123.296544 85.712897 
L 125.742606 69.036384 
L 128.188667 42.61678 
L 130.634728 65.648913 
L 133.08079 107.498433 
L 135.526851 79.626727 
L 137.972913 129.98144 
L 140.418974 57.331063 
L 142.865036 108.825607 
L 145.311097 108.981217 
L 147.757158 131.197068 
L 150.20322 117.438809 
L 152.649281 121.663208 
L 155.095343 88.250729 
L 157.541404 100.848034 
L 159.987466 143.750978 
L 162.433527 95.876938 
L 164.879588 95.717696 
L 167.32565 153.436051 
L 169.771711 105.76178 
L 172.217773 183.93257 
L 174.663834 63.076193 
L 177.109896 140.376696 
L 179.555957 136.238322 
L 182.002018 145.560943 
L 184.44808 94.491936 
L 186.894141 59.264044 
L 189.340203 89.805678 
L 191.786264 92.189143 
L 194.232326 101.551909 
L 196.678387 115.326322 
L 199.124448 66.879452 
L 201.57051 126.121978 
L 204.016571 116.112399 
L 206.462633 122.964097 
L 208.908694 114.482417 
L 211.354756 137.750354 
L 213.800817 108.820063 
L 216.246878 46.466301 
L 218.69294 84.643511 
L 221.139001 64.433858 
L 223.585063 115.199483 
L 226.031124 89.612791 
L 228.477186 131.80861 
L 230.923247 111.21041 
L 233.369308 109.509601 
L 235.81537 91.633805 
L 238.261431 136.907023 
L 240.707493 113.482425 
L 243.153554 118.368643 
L 245.599616 79.672893 
L 248.045677 96.498803 
L 250.491738 138.60009 
L 252.9378 137.321472 
L 255.383861 123.841742 
L 257.829923 102.663543 
L 260.275984 150.069607 
L 262.722046 89.317439 
L 265.168107 103.012996 
L 267.614168 142.386526 
L 270.06023 135.613972 
L 272.506291 70.786706 
L 274.952353 65.126072 
L 277.398414 123.796149 
L 279.844476 88.269273 
L 282.290537 75.985003 
L 284.736598 37.461686 
L 287.18266 106.476456 
L 289.628721 96.693315 
L 292.074783 133.135497 
L 294.520844 127.530875 
L 296.966906 134.057303 
L 299.412967 127.064811 
L 301.859028 99.884459 
L 304.30509 96.462768 
L 306.751151 122.342614 
L 309.197213 163.053355 
L 311.643274 99.640626 
L 314.089336 103.06614 
" clip-path="url(#p1f39bfa76d)" style="fill: none; stroke: #26ad81; stroke-width: 1.5; stroke-linecap: round"/>
   </g>
   <g id="line2d_33">
    <path d="M 71.929254 61.939707 
L 74.375316 96.197524 
L 76.821377 149.717956 
L 79.267438 99.133652 
L 81.7135 107.301245 
L 84.159561 95.138462 
L 86.605623 136.798631 
L 89.051684 71.368617 
L 91.497746 93.321614 
L 93.943807 122.008646 
L 96.389868 138.897067 
L 98.83593 97.719019 
L 101.281991 116.949231 
L 103.728053 91.461563 
L 106.174114 67.046723 
L 108.620176 130.058002 
L 111.066237 51.400406 
L 113.512298 69.437261 
L 115.95836 66.030003 
L 118.404421 135.840982 
L 120.850483 133.04584 
L 123.296544 85.33066 
L 125.742606 69.409828 
L 128.188667 42.517373 
L 130.634728 65.306916 
L 133.08079 106.797329 
L 135.526851 78.659711 
L 137.972913 130.008777 
L 140.418974 56.855632 
L 142.865036 108.367381 
L 145.311097 108.087608 
L 147.757158 131.420637 
L 150.20322 117.438713 
L 152.649281 121.423581 
L 155.095343 88.522951 
L 157.541404 100.729224 
L 159.987466 143.94635 
L 162.433527 95.479025 
L 164.879588 95.26922 
L 167.32565 153.0844 
L 169.771711 105.596899 
L 172.217773 184.330483 
L 174.663834 61.82128 
L 177.109896 140.766294 
L 179.555957 136.114446 
L 182.002018 144.733001 
L 184.44808 93.748298 
L 186.894141 59.245788 
L 189.340203 89.310557 
L 191.786264 92.169836 
L 194.232326 101.710387 
L 196.678387 115.122443 
L 199.124448 67.107131 
L 201.57051 126.572844 
L 204.016571 115.979825 
L 206.462633 123.294241 
L 208.908694 115.196616 
L 211.354756 138.187552 
L 213.800817 108.588752 
L 216.246878 45.857722 
L 218.69294 84.575934 
L 221.139001 64.569682 
L 223.585063 114.932997 
L 226.031124 89.539766 
L 228.477186 131.92503 
L 230.923247 111.417444 
L 233.369308 109.719311 
L 235.81537 91.438146 
L 238.261431 136.95319 
L 240.707493 113.898786 
L 243.153554 119.141147 
L 245.599616 79.928961 
L 248.045677 97.083295 
L 250.491738 138.906052 
L 252.9378 136.998496 
L 255.383861 123.429109 
L 257.829923 102.121968 
L 260.275984 149.832274 
L 262.722046 90.110876 
L 265.168107 103.515477 
L 267.614168 141.73742 
L 270.06023 135.968204 
L 272.506291 70.935625 
L 274.952353 65.831859 
L 277.398414 123.522877 
L 279.844476 88.131346 
L 282.290537 75.108791 
L 284.736598 37.797852 
L 287.18266 107.280121 
L 289.628721 96.308019 
L 292.074783 133.743789 
L 294.520844 128.050084 
L 296.966906 134.422622 
L 299.412967 126.849462 
L 301.859028 99.256955 
L 304.30509 96.282211 
L 306.751151 122.883424 
L 309.197213 163.882062 
L 311.643274 99.161945 
L 314.089336 102.984607 
" clip-path="url(#p1f39bfa76d)" style="fill: none; stroke: #35b779; stroke-width: 1.5; stroke-linecap: round"/>
   </g>
   <g id="line2d_34">
    <path d="M 71.929254 61.472209 
L 74.375316 96.161681 
L 76.821377 149.085482 
L 79.267438 98.754569 
L 81.7135 106.775345 
L 84.159561 95.572983 
L 86.605623 136.397086 
L 89.051684 71.735466 
L 91.497746 93.648509 
L 93.943807 122.252001 
L 96.389868 138.543122 
L 98.83593 96.910002 
L 101.281991 116.230445 
L 103.728053 92.539839 
L 106.174114 67.205391 
L 108.620176 129.897518 
L 111.066237 51.431567 
L 113.512298 69.381536 
L 115.95836 65.533066 
L 118.404421 135.705923 
L 120.850483 132.88679 
L 123.296544 85.652775 
L 125.742606 69.275725 
L 128.188667 42.978085 
L 130.634728 65.259506 
L 133.08079 106.263497 
L 135.526851 77.57981 
L 137.972913 130.084096 
L 140.418974 56.817207 
L 142.865036 108.10185 
L 145.311097 108.296076 
L 147.757158 130.999211 
L 150.20322 116.995971 
L 152.649281 121.624592 
L 155.095343 88.343828 
L 157.541404 100.639471 
L 159.987466 144.113334 
L 162.433527 95.185584 
L 164.879588 95.013247 
L 167.32565 152.458712 
L 169.771711 106.259004 
L 172.217773 184.574985 
L 174.663834 61.014652 
L 177.109896 141.408231 
L 179.555957 135.353316 
L 182.002018 144.15281 
L 184.44808 93.4323 
L 186.894141 58.513142 
L 189.340203 89.092436 
L 191.786264 92.16735 
L 194.232326 102.216022 
L 196.678387 115.091761 
L 199.124448 67.090117 
L 201.57051 127.308644 
L 204.016571 115.834156 
L 206.462633 123.208408 
L 208.908694 115.675106 
L 211.354756 137.760582 
L 213.800817 108.741302 
L 216.246878 45.503682 
L 218.69294 85.30686 
L 221.139001 64.570159 
L 223.585063 115.347637 
L 226.031124 88.882248 
L 228.477186 133.066295 
L 230.923247 111.555275 
L 233.369308 109.620191 
L 235.81537 91.93126 
L 238.261431 136.72226 
L 240.707493 114.376129 
L 243.153554 119.647356 
L 245.599616 80.221542 
L 248.045677 97.667309 
L 250.491738 138.831306 
L 252.9378 136.720062 
L 255.383861 123.415059 
L 257.829923 102.030877 
L 260.275984 149.407406 
L 262.722046 90.250523 
L 265.168107 103.77814 
L 267.614168 141.411672 
L 270.06023 136.56818 
L 272.506291 71.100792 
L 274.952353 66.005916 
L 277.398414 123.023932 
L 279.844476 87.563103 
L 282.290537 74.785337 
L 284.736598 37.603723 
L 287.18266 108.039148 
L 289.628721 96.579475 
L 292.074783 134.34281 
L 294.520844 127.76926 
L 296.966906 134.509412 
L 299.412967 127.088133 
L 301.859028 99.256285 
L 304.30509 96.225817 
L 306.751151 123.156123 
L 309.197213 164.846402 
L 311.643274 99.175709 
L 314.089336 102.745554 
" clip-path="url(#p1f39bfa76d)" style="fill: none; stroke: #4ac16d; stroke-width: 1.5; stroke-linecap: round"/>
   </g>
   <g id="line2d_35">
    <path d="M 71.929254 61.201231 
L 74.375316 95.827426 
L 76.821377 149.134611 
L 79.267438 98.965234 
L 81.7135 106.784139 
L 84.159561 96.249331 
L 86.605623 136.620369 
L 89.051684 71.505492 
L 91.497746 93.61582 
L 93.943807 122.546398 
L 96.389868 138.348515 
L 98.83593 96.171908 
L 101.281991 115.797261 
L 103.728053 93.324482 
L 106.174114 67.141541 
L 108.620176 129.560873 
L 111.066237 51.182572 
L 113.512298 69.314341 
L 115.95836 64.876217 
L 118.404421 135.383425 
L 120.850483 132.561424 
L 123.296544 86.667679 
L 125.742606 69.176605 
L 128.188667 43.599758 
L 130.634728 65.317047 
L 133.08079 106.059426 
L 135.526851 77.521505 
L 137.972913 130.257675 
L 140.418974 57.442131 
L 142.865036 107.980268 
L 145.311097 109.298458 
L 147.757158 130.542514 
L 150.20322 116.959554 
L 152.649281 122.178211 
L 155.095343 87.636702 
L 157.541404 100.45576 
L 159.987466 144.031706 
L 162.433527 95.345113 
L 164.879588 95.27591 
L 167.32565 152.15772 
L 169.771711 106.916044 
L 172.217773 184.5184 
L 174.663834 61.771863 
L 177.109896 141.88156 
L 179.555957 134.444606 
L 182.002018 144.101291 
L 184.44808 93.861851 
L 186.894141 57.96306 
L 189.340203 89.049423 
L 191.786264 91.91826 
L 194.232326 102.553622 
L 196.678387 115.413208 
L 199.124448 66.752613 
L 201.57051 127.333591 
L 204.016571 115.830429 
L 206.462633 122.653738 
L 208.908694 115.500762 
L 211.354756 137.048677 
L 213.800817 109.207175 
L 216.246878 46.065616 
L 218.69294 86.408266 
L 221.139001 64.574843 
L 223.585063 116.011368 
L 226.031124 88.269273 
L 228.477186 133.879804 
L 230.923247 111.233541 
L 233.369308 109.318148 
L 235.81537 92.788546 
L 238.261431 136.66491 
L 240.707493 114.705891 
L 243.153554 119.377907 
L 245.599616 80.308714 
L 248.045677 97.938861 
L 250.491738 138.738399 
L 252.9378 137.046097 
L 255.383861 123.620276 
L 257.829923 102.163929 
L 260.275984 149.055277 
L 262.722046 89.293543 
L 265.168107 103.641934 
L 267.614168 141.637727 
L 270.06023 137.192243 
L 272.506291 71.235374 
L 274.952353 65.638016 
L 277.398414 122.812119 
L 279.844476 86.78085 
L 282.290537 75.139665 
L 284.736598 37.193384 
L 287.18266 107.582737 
L 289.628721 96.855711 
L 292.074783 134.244263 
L 294.520844 127.049135 
L 296.966906 134.245984 
L 299.412967 127.602658 
L 301.859028 100.206479 
L 304.30509 96.709851 
L 306.751151 123.054136 
L 309.197213 165.130093 
L 311.643274 99.584423 
L 314.089336 102.435673 
" clip-path="url(#p1f39bfa76d)" style="fill: none; stroke: #65cb5e; stroke-width: 1.5; stroke-linecap: round"/>
   </g>
   <g id="line2d_36">
    <path d="M 71.929254 61.339253 
L 74.375316 95.558359 
L 76.821377 149.797959 
L 79.267438 99.271005 
L 81.7135 107.255078 
L 84.159561 96.272271 
L 86.605623 137.222448 
L 89.051684 71.048508 
L 91.497746 93.334996 
L 93.943807 122.855801 
L 96.389868 138.521998 
L 98.83593 96.064759 
L 101.281991 116.218975 
L 103.728053 93.175372 
L 106.174114 67.01432 
L 108.620176 129.746496 
L 111.066237 50.948298 
L 113.512298 69.215125 
L 115.95836 64.754444 
L 118.404421 135.404549 
L 120.850483 132.253646 
L 123.296544 87.117494 
L 125.742606 69.165804 
L 128.188667 43.983812 
L 130.634728 65.364266 
L 133.08079 106.170494 
L 135.526851 78.499322 
L 137.972913 130.526169 
L 140.418974 58.074701 
L 142.865036 108.071072 
L 145.311097 110.019825 
L 147.757158 130.467768 
L 150.20322 117.313212 
L 152.649281 122.488474 
L 155.095343 87.13728 
L 157.541404 100.251021 
L 159.987466 143.848473 
L 162.433527 95.527964 
L 164.879588 95.624789 
L 167.32565 152.484423 
L 169.771711 106.91289 
L 172.217773 183.987435 
L 174.663834 63.386074 
L 177.109896 141.535166 
L 179.555957 134.234705 
L 182.002018 144.253555 
L 184.44808 94.65806 
L 186.894141 58.273706 
L 189.340203 89.197291 
L 191.786264 91.753475 
L 194.232326 102.070927 
L 196.678387 115.757977 
L 199.124448 66.046921 
L 201.57051 126.489209 
L 204.016571 115.995119 
L 206.462633 122.142271 
L 208.908694 115.440736 
L 211.354756 136.951182 
L 213.800817 109.673431 
L 216.246878 46.675629 
L 218.69294 86.795761 
L 221.139001 64.891893 
L 223.585063 116.488806 
L 226.031124 88.275008 
L 228.477186 133.674587 
L 230.923247 110.526607 
L 233.369308 108.815857 
L 235.81537 93.03324 
L 238.261431 136.880929 
L 240.707493 115.060983 
L 243.153554 118.551112 
L 245.599616 80.206057 
L 248.045677 97.706976 
L 250.491738 139.141951 
L 252.9378 137.670733 
L 255.383861 124.058525 
L 257.829923 102.14854 
L 260.275984 148.934651 
L 262.722046 88.071224 
L 265.168107 102.960043 
L 267.614168 141.77422 
L 270.06023 137.299297 
L 272.506291 71.032928 
L 274.952353 65.346774 
L 277.398414 123.377877 
L 279.844476 86.285155 
L 282.290537 75.789535 
L 284.736598 37.295753 
L 287.18266 106.066882 
L 289.628721 96.988763 
L 292.074783 133.667514 
L 294.520844 126.508134 
L 296.966906 134.157474 
L 299.412967 127.539287 
L 301.859028 101.356155 
L 304.30509 97.125543 
L 306.751151 122.738902 
L 309.197213 164.585746 
L 311.643274 100.098183 
L 314.089336 102.103521 
" clip-path="url(#p1f39bfa76d)" style="fill: none; stroke: #81d34d; stroke-width: 1.5; stroke-linecap: round"/>
   </g>
   <g id="line2d_37">
    <path d="M 71.929254 61.69511 
L 74.375316 95.502634 
L 76.821377 150.561957 
L 79.267438 99.505471 
L 81.7135 107.429231 
L 84.159561 95.887261 
L 86.605623 137.697497 
L 89.051684 70.82666 
L 91.497746 93.283763 
L 93.943807 123.053085 
L 96.389868 138.713165 
L 98.83593 96.399588 
L 101.281991 116.879838 
L 103.728053 92.0689 
L 106.174114 67.124814 
L 108.620176 130.338348 
L 111.066237 50.724537 
L 113.512298 68.856497 
L 115.95836 64.997034 
L 118.404421 135.728385 
L 120.850483 132.063913 
L 123.296544 86.378635 
L 125.742606 68.719239 
L 128.188667 43.935351 
L 130.634728 65.809875 
L 133.08079 106.742178 
L 135.526851 79.601588 
L 137.972913 130.606937 
L 140.418974 58.232796 
L 142.865036 108.55654 
L 145.311097 109.874729 
L 147.757158 130.814735 
L 150.20322 117.447794 
L 152.649281 122.342996 
L 155.095343 87.496864 
L 157.541404 100.311238 
L 159.987466 143.817886 
L 162.433527 95.486002 
L 164.879588 95.794354 
L 167.32565 153.119861 
L 169.771711 106.520807 
L 172.217773 183.145059 
L 174.663834 64.050473 
L 177.109896 140.654844 
L 179.555957 135.003099 
L 182.002018 144.406679 
L 184.44808 95.163696 
L 186.894141 59.192452 
L 189.340203 89.577617 
L 191.786264 91.945693 
L 194.232326 101.098271 
L 196.678387 116.044344 
L 199.124448 65.672235 
L 201.57051 125.905195 
L 204.016571 116.439199 
L 206.462633 122.222753 
L 208.908694 115.480881 
L 211.354756 137.167296 
L 213.800817 109.802851 
L 216.246878 46.582626 
L 218.69294 86.255237 
L 221.139001 65.383956 
L 223.585063 116.400392 
L 226.031124 88.872212 
L 228.477186 133.039627 
L 230.923247 110.133569 
L 233.369308 108.48036 
L 235.81537 92.527699 
L 238.261431 136.980144 
L 240.707493 114.874787 
L 243.153554 117.701472 
L 245.599616 80.038308 
L 248.045677 96.983697 
L 250.491738 139.353191 
L 252.9378 137.884458 
L 255.383861 124.494768 
L 257.829923 102.168708 
L 260.275984 149.051645 
L 262.722046 87.636511 
L 265.168107 101.948389 
L 267.614168 141.710561 
L 270.06023 136.694446 
L 272.506291 70.465928 
L 274.952353 65.365221 
L 277.398414 124.354929 
L 279.844476 86.763645 
L 282.290537 76.378042 
L 284.736598 37.663271 
L 287.18266 105.023208 
L 289.628721 97.156607 
L 292.074783 133.218464 
L 294.520844 126.543213 
L 296.966906 134.238051 
L 299.412967 126.945045 
L 301.859028 101.498574 
L 304.30509 96.817478 
L 306.751151 122.646569 
L 309.197213 163.735342 
L 311.643274 100.487589 
L 314.089336 102.2468 
" clip-path="url(#p1f39bfa76d)" style="fill: none; stroke: #a0da39; stroke-width: 1.5; stroke-linecap: round"/>
   </g>
   <g id="line2d_38">
    <path d="M 71.929254 62.109654 
L 74.375316 95.779825 
L 76.821377 150.758189 
L 79.267438 99.775972 
L 81.7135 107.191037 
L 84.159561 95.68061 
L 86.605623 137.655058 
L 89.051684 70.728496 
L 91.497746 93.479231 
L 93.943807 122.883233 
L 96.389868 138.641669 
L 98.83593 96.832867 
L 101.281991 117.095569 
L 103.728053 91.249942 
L 106.174114 67.088397 
L 108.620176 130.601966 
L 111.066237 50.567494 
L 113.512298 68.482957 
L 115.95836 65.295159 
L 118.404421 136.040465 
L 120.850483 132.149842 
L 123.296544 85.343086 
L 125.742606 68.460017 
L 128.188667 43.339294 
L 130.634728 66.307099 
L 133.08079 107.559128 
L 135.526851 79.952952 
L 137.972913 130.344847 
L 140.418974 57.994794 
L 142.865036 109.194845 
L 145.311097 109.08999 
L 147.757158 131.374757 
L 150.20322 117.494343 
L 152.649281 121.911247 
L 155.095343 88.3098 
L 157.541404 100.54427 
L 159.987466 144.000068 
L 162.433527 95.785369 
L 164.879588 95.921289 
L 167.32565 153.700434 
L 169.771711 105.992614 
L 172.217773 182.723537 
L 174.663834 63.39936 
L 177.109896 140.240012 
L 179.555957 135.83324 
L 182.002018 144.379725 
L 184.44808 95.037526 
L 186.894141 59.724851 
L 189.340203 89.563279 
L 191.786264 92.043475 
L 194.232326 100.733716 
L 196.678387 116.293721 
L 199.124448 65.76323 
L 201.57051 126.100185 
L 204.016571 116.545296 
L 206.462633 122.529957 
L 208.908694 114.98748 
L 211.354756 137.178671 
L 213.800817 109.541335 
L 216.246878 46.183375 
L 218.69294 85.491431 
L 221.139001 65.184378 
L 223.585063 115.80615 
L 226.031124 89.481269 
L 228.477186 132.54766 
L 230.923247 110.813548 
L 233.369308 108.911441 
L 235.81537 92.013175 
L 238.261431 136.718341 
L 240.707493 114.049043 
L 243.153554 117.483159 
L 245.599616 79.799063 
L 248.045677 96.39022 
L 250.491738 138.820218 
L 252.9378 137.657543 
L 255.383861 124.653627 
L 257.829923 102.48117 
L 260.275984 149.433596 
L 262.722046 88.425647 
L 265.168107 101.711916 
L 267.614168 141.873913 
L 270.06023 135.868797 
L 272.506291 70.249336 
L 274.952353 65.471892 
L 277.398414 124.658215 
L 279.844476 87.680862 
L 282.290537 76.263437 
L 284.736598 37.584893 
L 287.18266 104.988702 
L 289.628721 96.995454 
L 292.074783 132.994034 
L 294.520844 127.312181 
L 296.966906 134.229735 
L 299.412967 126.649215 
L 301.859028 100.612517 
L 304.30509 96.219795 
L 306.751151 123.020682 
L 309.197213 163.463503 
L 311.643274 100.327296 
L 314.089336 102.914927 
" clip-path="url(#p1f39bfa76d)" style="fill: none; stroke: #c0df25; stroke-width: 1.5; stroke-linecap: round"/>
   </g>
   <g id="line2d_39">
    <path d="M 71.929254 62.262779 
L 74.375316 96.124117 
L 76.821377 150.372319 
L 79.267438 99.641964 
L 81.7135 106.963453 
L 84.159561 95.681757 
L 86.605623 137.279989 
L 89.051684 70.647536 
L 91.497746 93.503414 
L 93.943807 122.245119 
L 96.389868 138.267651 
L 98.83593 97.364501 
L 101.281991 116.659996 
L 103.728053 91.158182 
L 106.174114 66.832998 
L 108.620176 130.340642 
L 111.066237 50.277398 
L 113.512298 68.585614 
L 115.95836 65.503148 
L 118.404421 136.008062 
L 120.850483 132.569549 
L 123.296544 84.965245 
L 125.742606 68.922832 
L 128.188667 42.60856 
L 130.634728 65.970072 
L 133.08079 107.877612 
L 135.526851 79.429156 
L 137.972913 129.945309 
L 140.418974 57.511333 
L 142.865036 109.460184 
L 145.311097 108.502535 
L 147.757158 131.76034 
L 150.20322 117.392546 
L 152.649281 121.432661 
L 155.095343 88.955656 
L 157.541404 100.817543 
L 159.987466 144.17661 
L 162.433527 96.291483 
L 164.879588 95.689786 
L 167.32565 154.060401 
L 169.771711 105.656543 
L 172.217773 183.370253 
L 174.663834 62.396691 
L 177.109896 140.513189 
L 179.555957 135.79711 
L 182.002018 144.202513 
L 184.44808 94.622312 
L 186.894141 59.49526 
L 189.340203 89.004882 
L 191.786264 91.982588 
L 194.232326 101.435871 
L 196.678387 116.117848 
L 199.124448 65.937192 
L 201.57051 126.764106 
L 204.016571 116.031631 
L 206.462633 122.606615 
L 208.908694 114.454889 
L 211.354756 137.210595 
L 213.800817 109.113408 
L 216.246878 45.946137 
L 218.69294 85.113686 
L 221.139001 64.381956 
L 223.585063 115.287611 
L 226.031124 89.561368 
L 228.477186 132.466414 
L 230.923247 112.135656 
L 233.369308 109.753147 
L 235.81537 92.03774 
L 238.261431 136.548777 
L 240.707493 113.568641 
L 243.153554 118.173558 
L 245.599616 79.709215 
L 248.045677 96.404176 
L 250.491738 138.330258 
L 252.9378 137.421548 
L 255.383861 124.444682 
L 257.829923 102.942646 
L 260.275984 149.862191 
L 262.722046 89.650642 
L 265.168107 102.746509 
L 267.614168 142.306906 
L 270.06023 135.476332 
L 272.506291 70.838894 
L 274.952353 65.473708 
L 277.398414 124.06426 
L 279.844476 87.831692 
L 282.290537 75.711731 
L 284.736598 37.188796 
L 287.18266 105.5406 
L 289.628721 96.478826 
L 292.074783 133.046222 
L 294.520844 128.167556 
L 296.966906 134.141225 
L 299.412967 126.792494 
L 301.859028 99.664904 
L 304.30509 95.909436 
L 306.751151 123.295388 
L 309.197213 164.037959 
L 311.643274 99.779795 
L 314.089336 103.112689 
" clip-path="url(#p1f39bfa76d)" style="fill: none; stroke: #dfe318; stroke-width: 1.5; stroke-linecap: round"/>
   </g>
   <g id="patch_3">
    <path d="M 59.82125 192.009865 
L 59.82125 28.442513 
" style="fill: none"/>
   </g>
   <g id="patch_4">
    <path d="M 326.19734 192.009865 
L 326.19734 28.442513 
" style="fill: none"/>
   </g>
   <g id="patch_5">
    <path d="M 59.82125 192.009865 
L 326.19734 192.009865 
" style="fill: none"/>
   </g>
   <g id="patch_6">
    <path d="M 59.82125 28.442513 
L 326.19734 28.442513 
" style="fill: none"/>
   </g>
  </g>
  <g id="text_12">
   <!-- hmc: pytorch -->
   <g style="fill: #838383" transform="translate(158.016344 16.2) scale(0.12 -0.12)">
    <defs>
     <path id="RobotoCondensed-Regular-68" d="M 966 3034 
Q 1281 3444 1772 3444 
Q 2669 3444 2681 2247 
L 2681 0 
L 2131 0 
L 2131 2222 
Q 2131 2619 1998 2786 
Q 1866 2953 1600 2953 
Q 1394 2953 1230 2815 
Q 1066 2678 966 2456 
L 966 0 
L 413 0 
L 413 4800 
L 966 4800 
L 966 3034 
z
" transform="scale(0.015625)"/>
     <path id="RobotoCondensed-Regular-6d" d="M 934 3381 
L 947 3069 
Q 1256 3444 1763 3444 
Q 2328 3444 2553 2953 
Q 2872 3444 3441 3444 
Q 4375 3444 4397 2278 
L 4397 0 
L 3847 0 
L 3847 2225 
Q 3847 2594 3715 2773 
Q 3584 2953 3272 2953 
Q 3022 2953 2865 2759 
Q 2709 2566 2684 2266 
L 2684 0 
L 2128 0 
L 2128 2250 
Q 2119 2953 1556 2953 
Q 1138 2953 966 2534 
L 966 0 
L 416 0 
L 416 3381 
L 934 3381 
z
" transform="scale(0.015625)"/>
     <path id="RobotoCondensed-Regular-63" d="M 1588 409 
Q 1863 409 2028 579 
Q 2194 750 2209 1066 
L 2731 1066 
Q 2713 578 2386 257 
Q 2059 -63 1588 -63 
Q 959 -63 629 332 
Q 300 728 300 1509 
L 300 1881 
Q 300 2647 628 3045 
Q 956 3444 1584 3444 
Q 2103 3444 2408 3116 
Q 2713 2788 2731 2219 
L 2209 2219 
Q 2191 2594 2030 2781 
Q 1869 2969 1584 2969 
Q 1216 2969 1037 2726 
Q 859 2484 853 1931 
L 853 1500 
Q 853 903 1029 656 
Q 1206 409 1588 409 
z
" transform="scale(0.015625)"/>
     <path id="RobotoCondensed-Regular-3a" d="M 434 303 
Q 434 453 523 553 
Q 612 653 790 653 
Q 968 653 1060 553 
Q 1153 453 1153 303 
Q 1153 159 1060 62 
Q 968 -34 790 -34 
Q 612 -34 523 62 
Q 434 159 434 303 
z
M 434 3055 
Q 434 3205 523 3305 
Q 612 3405 790 3405 
Q 968 3405 1060 3305 
Q 1153 3205 1153 3055 
Q 1153 2911 1060 2814 
Q 968 2718 790 2718 
Q 612 2718 523 2814 
Q 434 2911 434 3055 
z
" transform="scale(0.015625)"/>
     <path id="RobotoCondensed-Regular-20" transform="scale(0.015625)"/>
     <path id="RobotoCondensed-Regular-70" d="M 2856 1528 
Q 2856 725 2567 331 
Q 2278 -63 1750 -63 
Q 1241 -63 966 322 
L 966 -1300 
L 416 -1300 
L 416 3381 
L 916 3381 
L 944 3006 
Q 1222 3444 1741 3444 
Q 2297 3444 2572 3056 
Q 2847 2669 2856 1897 
L 2856 1528 
z
M 2306 1844 
Q 2306 2413 2131 2683 
Q 1956 2953 1569 2953 
Q 1172 2953 966 2556 
L 966 797 
Q 1169 409 1575 409 
Q 1950 409 2126 679 
Q 2303 950 2306 1506 
L 2306 1844 
z
" transform="scale(0.015625)"/>
     <path id="RobotoCondensed-Regular-79" d="M 1338 919 
L 1953 3381 
L 2541 3381 
L 1434 -478 
Q 1309 -913 1081 -1139 
Q 853 -1366 563 -1366 
Q 450 -1366 275 -1316 
L 275 -847 
L 397 -859 
Q 638 -859 773 -745 
Q 909 -631 994 -350 
L 1103 28 
L 109 3381 
L 713 3381 
L 1338 919 
z
" transform="scale(0.015625)"/>
     <path id="RobotoCondensed-Regular-74" d="M 1138 4200 
L 1138 3381 
L 1647 3381 
L 1647 2934 
L 1138 2934 
L 1138 838 
Q 1138 638 1203 534 
Q 1269 431 1428 431 
Q 1538 431 1650 469 
L 1644 0 
Q 1456 -63 1259 -63 
Q 931 -63 759 171 
Q 588 406 588 834 
L 588 2934 
L 72 2934 
L 72 3381 
L 588 3381 
L 588 4200 
L 1138 4200 
z
" transform="scale(0.015625)"/>
     <path id="RobotoCondensed-Regular-6f" d="M 297 1847 
Q 297 2584 655 3014 
Q 1013 3444 1600 3444 
Q 2188 3444 2545 3025 
Q 2903 2606 2913 1884 
L 2913 1528 
Q 2913 794 2556 365 
Q 2200 -63 1606 -63 
Q 1019 -63 664 353 
Q 309 769 297 1478 
L 297 1847 
z
M 850 1528 
Q 850 1006 1054 707 
Q 1259 409 1606 409 
Q 2338 409 2359 1466 
L 2359 1847 
Q 2359 2366 2153 2667 
Q 1947 2969 1600 2969 
Q 1259 2969 1054 2667 
Q 850 2366 850 1850 
L 850 1528 
z
" transform="scale(0.015625)"/>
     <path id="RobotoCondensed-Regular-72" d="M 1809 2863 
Q 1694 2884 1559 2884 
Q 1134 2884 966 2419 
L 966 0 
L 413 0 
L 413 3381 
L 950 3381 
L 959 3038 
Q 1181 3444 1588 3444 
Q 1719 3444 1806 3400 
L 1809 2863 
z
" transform="scale(0.015625)"/>
    </defs>
    <use xlink:href="#RobotoCondensed-Regular-68"/>
    <use xlink:href="#RobotoCondensed-Regular-6d" x="48.291016"/>
    <use xlink:href="#RobotoCondensed-Regular-63" x="123.535156"/>
    <use xlink:href="#RobotoCondensed-Regular-3a" x="169.726562"/>
    <use xlink:href="#RobotoCondensed-Regular-20" x="193.066406"/>
    <use xlink:href="#RobotoCondensed-Regular-70" x="215.966797"/>
    <use xlink:href="#RobotoCondensed-Regular-79" x="265.283203"/>
    <use xlink:href="#RobotoCondensed-Regular-74" x="306.933594"/>
    <use xlink:href="#RobotoCondensed-Regular-6f" x="336.474609"/>
    <use xlink:href="#RobotoCondensed-Regular-72" x="386.669922"/>
    <use xlink:href="#RobotoCondensed-Regular-63" x="417.089844"/>
    <use xlink:href="#RobotoCondensed-Regular-68" x="463.28125"/>
   </g>
  </g>
 </g>
 <defs>
  <clipPath id="p1f39bfa76d">
   <rect x="59.82125" y="28.442513" width="266.37609" height="163.567352"/>
  </clipPath>
 </defs>
</svg>
