<?xml version="1.0" encoding="utf-8" standalone="no"?>
<!DOCTYPE svg PUBLIC "-//W3C//DTD SVG 1.1//EN"
  "http://www.w3.org/Graphics/SVG/1.1/DTD/svg11.dtd">
<svg xmlns:xlink="http://www.w3.org/1999/xlink" width="656.39952pt" height="224.39952pt" viewBox="0 0 656.39952 224.39952" xmlns="http://www.w3.org/2000/svg" version="1.1">
 <metadata>
  <rdf:RDF xmlns:dc="http://purl.org/dc/elements/1.1/" xmlns:cc="http://creativecommons.org/ns#" xmlns:rdf="http://www.w3.org/1999/02/22-rdf-syntax-ns#">
   <cc:Work>
    <dc:type rdf:resource="http://purl.org/dc/dcmitype/StillImage"/>
    <dc:date>2023-09-19T14:27:21.553462</dc:date>
    <dc:format>image/svg+xml</dc:format>
    <dc:creator>
     <cc:Agent>
      <dc:title>Matplotlib v3.8.0, https://matplotlib.org/</dc:title>
     </cc:Agent>
    </dc:creator>
   </cc:Work>
  </rdf:RDF>
 </metadata>
 <defs>
  <style type="text/css">*{stroke-linejoin: round; stroke-linecap: butt}</style>
 </defs>
 <g id="figure_1">
  <g id="patch_1">
   <path d="M 0 224.39952 
L 656.39952 224.39952 
L 656.39952 0 
L 0 0 
L 0 224.39952 
z
" style="fill: none"/>
  </g>
  <g id="axes_1">
   <g id="patch_2">
    <path d="M 59.91625 180.91827 
L 608.16327 180.91827 
L 608.16327 7.2 
L 59.91625 7.2 
L 59.91625 180.91827 
z
" style="fill: none"/>
   </g>
   <g id="matplotlib.axis_1">
    <g id="xtick_1">
     <g id="line2d_1"/>
     <g id="text_1">
      <!-- 0 -->
      <g style="fill: #838383" transform="translate(80.887819 196.41827) scale(0.16 -0.16)">
       <defs>
        <path id="RobotoCondensed-Regular-30" d="M 2797 1941 
Q 2797 934 2503 435 
Q 2209 -63 1581 -63 
Q 972 -63 672 415 
Q 372 894 359 1853 
L 359 2634 
Q 359 3631 654 4122 
Q 950 4613 1575 4613 
Q 2191 4613 2486 4147 
Q 2781 3681 2797 2738 
L 2797 1941 
z
M 2244 2731 
Q 2244 3453 2084 3795 
Q 1925 4138 1575 4138 
Q 1234 4138 1075 3802 
Q 916 3466 909 2788 
L 909 1850 
Q 909 1131 1075 770 
Q 1241 409 1581 409 
Q 1919 409 2078 750 
Q 2238 1091 2244 1791 
L 2244 2731 
z
" transform="scale(0.015625)"/>
       </defs>
       <use xlink:href="#RobotoCondensed-Regular-30"/>
      </g>
     </g>
    </g>
    <g id="xtick_2">
     <g id="line2d_2"/>
     <g id="text_2">
      <!-- 200 -->
      <g style="fill: #838383" transform="translate(173.678477 196.41827) scale(0.16 -0.16)">
       <defs>
        <path id="RobotoCondensed-Regular-32" d="M 2909 0 
L 366 0 
L 366 416 
L 1663 2134 
Q 1956 2531 2070 2786 
Q 2184 3041 2184 3325 
Q 2184 3688 2015 3913 
Q 1847 4138 1572 4138 
Q 1225 4138 1036 3898 
Q 847 3659 847 3209 
L 294 3209 
Q 294 3838 637 4225 
Q 981 4613 1572 4613 
Q 2116 4613 2428 4280 
Q 2741 3947 2741 3394 
Q 2741 2719 2038 1797 
L 1025 472 
L 2909 472 
L 2909 0 
z
" transform="scale(0.015625)"/>
       </defs>
       <use xlink:href="#RobotoCondensed-Regular-32"/>
       <use xlink:href="#RobotoCondensed-Regular-30" x="49.365234"/>
       <use xlink:href="#RobotoCondensed-Regular-30" x="98.730469"/>
      </g>
     </g>
    </g>
    <g id="xtick_3">
     <g id="line2d_3"/>
     <g id="text_3">
      <!-- 400 -->
      <g style="fill: #838383" transform="translate(274.366635 196.41827) scale(0.16 -0.16)">
       <defs>
        <path id="RobotoCondensed-Regular-34" d="M 2459 1528 
L 2966 1528 
L 2966 1056 
L 2459 1056 
L 2459 0 
L 1906 0 
L 1906 1056 
L 188 1056 
L 188 1397 
L 1878 4550 
L 2459 4550 
L 2459 1528 
z
M 800 1528 
L 1906 1528 
L 1906 3691 
L 800 1528 
z
" transform="scale(0.015625)"/>
       </defs>
       <use xlink:href="#RobotoCondensed-Regular-34"/>
       <use xlink:href="#RobotoCondensed-Regular-30" x="49.365234"/>
       <use xlink:href="#RobotoCondensed-Regular-30" x="98.730469"/>
      </g>
     </g>
    </g>
    <g id="xtick_4">
     <g id="line2d_4"/>
     <g id="text_4">
      <!-- 600 -->
      <g style="fill: #838383" transform="translate(375.054793 196.41827) scale(0.16 -0.16)">
       <defs>
        <path id="RobotoCondensed-Regular-36" d="M 2291 4553 
L 2291 4063 
L 2200 4063 
Q 1647 4050 1334 3689 
Q 1022 3328 975 2603 
Q 1278 2984 1750 2984 
Q 2253 2984 2548 2570 
Q 2844 2156 2844 1484 
Q 2844 769 2517 353 
Q 2191 -63 1641 -63 
Q 1088 -63 750 428 
Q 413 919 413 1731 
L 413 1953 
Q 413 2891 616 3447 
Q 819 4003 1214 4273 
Q 1609 4544 2197 4553 
L 2291 4553 
z
M 1656 2503 
Q 1431 2503 1240 2331 
Q 1050 2159 966 1894 
L 966 1666 
Q 966 1113 1161 764 
Q 1356 416 1641 416 
Q 1950 416 2125 702 
Q 2300 988 2300 1456 
Q 2300 1919 2125 2211 
Q 1950 2503 1656 2503 
z
" transform="scale(0.015625)"/>
       </defs>
       <use xlink:href="#RobotoCondensed-Regular-36"/>
       <use xlink:href="#RobotoCondensed-Regular-30" x="49.365234"/>
       <use xlink:href="#RobotoCondensed-Regular-30" x="98.730469"/>
      </g>
     </g>
    </g>
    <g id="xtick_5">
     <g id="line2d_5"/>
     <g id="text_5">
      <!-- 800 -->
      <g style="fill: #838383" transform="translate(475.742951 196.41827) scale(0.16 -0.16)">
       <defs>
        <path id="RobotoCondensed-Regular-38" d="M 2706 3363 
Q 2706 3022 2554 2756 
Q 2403 2491 2147 2341 
Q 2450 2184 2622 1892 
Q 2794 1600 2794 1228 
Q 2794 641 2461 289 
Q 2128 -63 1578 -63 
Q 1028 -63 695 289 
Q 363 641 363 1228 
Q 363 1603 533 1898 
Q 703 2194 997 2344 
Q 741 2494 594 2758 
Q 447 3022 447 3363 
Q 447 3938 758 4275 
Q 1069 4613 1578 4613 
Q 2084 4613 2395 4278 
Q 2706 3944 2706 3363 
z
M 2241 1241 
Q 2241 1631 2056 1867 
Q 1872 2103 1572 2103 
Q 1266 2103 1089 1865 
Q 913 1628 913 1241 
Q 913 847 1086 628 
Q 1259 409 1578 409 
Q 1897 409 2069 628 
Q 2241 847 2241 1241 
z
M 2156 3353 
Q 2156 3700 1993 3919 
Q 1831 4138 1578 4138 
Q 1313 4138 1156 3922 
Q 1000 3706 1000 3353 
Q 1000 2997 1159 2787 
Q 1319 2578 1578 2578 
Q 1844 2578 2000 2790 
Q 2156 3003 2156 3353 
z
" transform="scale(0.015625)"/>
       </defs>
       <use xlink:href="#RobotoCondensed-Regular-38"/>
       <use xlink:href="#RobotoCondensed-Regular-30" x="49.365234"/>
       <use xlink:href="#RobotoCondensed-Regular-30" x="98.730469"/>
      </g>
     </g>
    </g>
    <g id="xtick_6">
     <g id="line2d_6"/>
     <g id="text_6">
      <!-- 1000 -->
      <g style="fill: #838383" transform="translate(572.482359 196.41827) scale(0.16 -0.16)">
       <defs>
        <path id="RobotoCondensed-Regular-31" d="M 2013 0 
L 1456 0 
L 1456 3853 
L 500 3425 
L 500 3950 
L 1925 4572 
L 2013 4572 
L 2013 0 
z
" transform="scale(0.015625)"/>
       </defs>
       <use xlink:href="#RobotoCondensed-Regular-31"/>
       <use xlink:href="#RobotoCondensed-Regular-30" x="49.365234"/>
       <use xlink:href="#RobotoCondensed-Regular-30" x="98.730469"/>
       <use xlink:href="#RobotoCondensed-Regular-30" x="148.095703"/>
      </g>
     </g>
    </g>
    <g id="text_7">
     <!-- Step -->
     <g style="fill: #808080" transform="translate(589.953895 215.16827) scale(0.1 -0.1)">
      <defs>
       <path id="RobotoCondensed-Bold-53" d="M 2288 1194 
Q 2288 1472 2145 1614 
Q 2003 1756 1628 1909 
Q 944 2169 644 2517 
Q 344 2866 344 3341 
Q 344 3916 751 4264 
Q 1159 4613 1788 4613 
Q 2206 4613 2534 4436 
Q 2863 4259 3039 3937 
Q 3216 3616 3216 3206 
L 2300 3206 
Q 2300 3525 2164 3692 
Q 2028 3859 1772 3859 
Q 1531 3859 1397 3717 
Q 1263 3575 1263 3334 
Q 1263 3147 1413 2995 
Q 1563 2844 1944 2681 
Q 2609 2441 2911 2091 
Q 3213 1741 3213 1200 
Q 3213 606 2834 271 
Q 2456 -63 1806 -63 
Q 1366 -63 1003 118 
Q 641 300 436 637 
Q 231 975 231 1434 
L 1153 1434 
Q 1153 1041 1306 862 
Q 1459 684 1806 684 
Q 2288 684 2288 1194 
z
" transform="scale(0.015625)"/>
       <path id="RobotoCondensed-Bold-74" d="M 1350 4213 
L 1350 3381 
L 1803 3381 
L 1803 2716 
L 1350 2716 
L 1350 1038 
Q 1350 838 1404 763 
Q 1459 688 1616 688 
Q 1744 688 1825 709 
L 1819 22 
Q 1594 -63 1331 -63 
Q 475 -63 466 919 
L 466 2716 
L 75 2716 
L 75 3381 
L 466 3381 
L 466 4213 
L 1350 4213 
z
" transform="scale(0.015625)"/>
       <path id="RobotoCondensed-Bold-65" d="M 1688 -63 
Q 1006 -63 625 343 
Q 244 750 244 1506 
L 244 1775 
Q 244 2575 594 3009 
Q 944 3444 1597 3444 
Q 2234 3444 2556 3036 
Q 2878 2628 2884 1828 
L 2884 1394 
L 1125 1394 
Q 1144 1019 1291 845 
Q 1438 672 1744 672 
Q 2188 672 2484 975 
L 2831 441 
Q 2669 216 2359 76 
Q 2050 -63 1688 -63 
z
M 1131 2013 
L 2016 2013 
L 2016 2094 
Q 2009 2397 1915 2553 
Q 1822 2709 1590 2709 
Q 1359 2709 1254 2543 
Q 1150 2378 1131 2013 
z
" transform="scale(0.015625)"/>
       <path id="RobotoCondensed-Bold-70" d="M 2956 1584 
Q 2956 788 2682 362 
Q 2409 -63 1869 -63 
Q 1456 -63 1206 272 
L 1206 -1300 
L 322 -1300 
L 322 3381 
L 1141 3381 
L 1172 3072 
Q 1425 3444 1863 3444 
Q 2403 3444 2676 3050 
Q 2950 2656 2956 1844 
L 2956 1584 
z
M 2075 1806 
Q 2075 2297 1967 2500 
Q 1859 2703 1603 2703 
Q 1331 2703 1206 2475 
L 1206 891 
Q 1325 672 1609 672 
Q 1872 672 1973 894 
Q 2075 1116 2075 1584 
L 2075 1806 
z
" transform="scale(0.015625)"/>
      </defs>
      <use xlink:href="#RobotoCondensed-Bold-53"/>
      <use xlink:href="#RobotoCondensed-Bold-74" x="54.003906"/>
      <use xlink:href="#RobotoCondensed-Bold-65" x="84.716797"/>
      <use xlink:href="#RobotoCondensed-Bold-70" x="132.568359"/>
     </g>
    </g>
   </g>
   <g id="matplotlib.axis_2">
    <g id="ytick_1">
     <g id="line2d_7"/>
     <g id="text_8">
      <!-- −600 -->
      <g style="fill: #2196f3" transform="translate(24.73125 185.556177) scale(0.16 -0.16)">
       <defs>
        <path id="RobotoCondensed-Regular-2212" d="M 2697 2034 
L 506 2034 
L 506 2506 
L 2697 2506 
L 2697 2034 
z
" transform="scale(0.015625)"/>
       </defs>
       <use xlink:href="#RobotoCondensed-Regular-2212"/>
       <use xlink:href="#RobotoCondensed-Regular-36" x="49.951172"/>
       <use xlink:href="#RobotoCondensed-Regular-30" x="99.316406"/>
       <use xlink:href="#RobotoCondensed-Regular-30" x="148.681641"/>
      </g>
     </g>
    </g>
    <g id="ytick_2">
     <g id="line2d_8"/>
     <g id="text_9">
      <!-- −400 -->
      <g style="fill: #2196f3" transform="translate(24.73125 138.226069) scale(0.16 -0.16)">
       <use xlink:href="#RobotoCondensed-Regular-2212"/>
       <use xlink:href="#RobotoCondensed-Regular-34" x="49.951172"/>
       <use xlink:href="#RobotoCondensed-Regular-30" x="99.316406"/>
       <use xlink:href="#RobotoCondensed-Regular-30" x="148.681641"/>
      </g>
     </g>
    </g>
    <g id="ytick_3">
     <g id="line2d_9"/>
     <g id="text_10">
      <!-- −200 -->
      <g style="fill: #2196f3" transform="translate(24.73125 90.895961) scale(0.16 -0.16)">
       <use xlink:href="#RobotoCondensed-Regular-2212"/>
       <use xlink:href="#RobotoCondensed-Regular-32" x="49.951172"/>
       <use xlink:href="#RobotoCondensed-Regular-30" x="99.316406"/>
       <use xlink:href="#RobotoCondensed-Regular-30" x="148.681641"/>
      </g>
     </g>
    </g>
    <g id="ytick_4">
     <g id="line2d_10"/>
     <g id="text_11">
      <!-- 0 -->
      <g style="fill: #2196f3" transform="translate(48.51875 43.565852) scale(0.16 -0.16)">
       <use xlink:href="#RobotoCondensed-Regular-30"/>
      </g>
     </g>
    </g>
    <g id="text_12">
     <!-- loss -->
     <g style="fill: #2196f3" transform="translate(14.7 23.776563) rotate(-90) scale(0.1 -0.1)">
      <defs>
       <path id="RobotoCondensed-Bold-6c" d="M 1250 0 
L 363 0 
L 363 4800 
L 1250 4800 
L 1250 0 
z
" transform="scale(0.015625)"/>
       <path id="RobotoCondensed-Bold-6f" d="M 219 1800 
Q 219 2569 581 3006 
Q 944 3444 1584 3444 
Q 2231 3444 2593 3006 
Q 2956 2569 2956 1794 
L 2956 1578 
Q 2956 806 2597 371 
Q 2238 -63 1591 -63 
Q 941 -63 580 373 
Q 219 809 219 1584 
L 219 1800 
z
M 1106 1578 
Q 1106 672 1591 672 
Q 2038 672 2072 1428 
L 2075 1800 
Q 2075 2263 1947 2486 
Q 1819 2709 1584 2709 
Q 1359 2709 1232 2486 
Q 1106 2263 1106 1800 
L 1106 1578 
z
" transform="scale(0.015625)"/>
       <path id="RobotoCondensed-Bold-73" d="M 1819 906 
Q 1819 1019 1711 1114 
Q 1603 1209 1231 1372 
Q 684 1594 479 1831 
Q 275 2069 275 2422 
Q 275 2866 595 3155 
Q 916 3444 1444 3444 
Q 2000 3444 2334 3156 
Q 2669 2869 2669 2384 
L 1784 2384 
Q 1784 2797 1441 2797 
Q 1300 2797 1209 2709 
Q 1119 2622 1119 2466 
Q 1119 2353 1219 2267 
Q 1319 2181 1691 2022 
Q 2231 1822 2454 1576 
Q 2678 1331 2678 941 
Q 2678 488 2337 212 
Q 1997 -63 1444 -63 
Q 1072 -63 787 82 
Q 503 228 342 487 
Q 181 747 181 1047 
L 1022 1047 
Q 1028 816 1129 700 
Q 1231 584 1463 584 
Q 1819 584 1819 906 
z
" transform="scale(0.015625)"/>
      </defs>
      <use xlink:href="#RobotoCondensed-Bold-6c"/>
      <use xlink:href="#RobotoCondensed-Bold-6f" x="25.195312"/>
      <use xlink:href="#RobotoCondensed-Bold-73" x="74.951172"/>
      <use xlink:href="#RobotoCondensed-Bold-73" x="120.361328"/>
     </g>
    </g>
   </g>
   <g id="line2d_11">
    <path d="M 84.836569 46.920917 
L 89.870977 55.676119 
L 94.905385 37.135988 
L 99.939793 140.826743 
L 104.974201 42.000387 
L 110.008609 39.531999 
L 115.043016 50.121552 
L 120.077424 50.9294 
L 125.111832 89.864615 
L 130.14624 40.460451 
L 135.180648 46.168991 
L 140.215056 39.151756 
L 145.249464 71.721019 
L 150.283872 38.047179 
L 155.31828 62.114555 
L 160.352688 125.700622 
L 165.387095 44.68222 
L 170.421503 40.249359 
L 175.455911 44.931473 
L 180.490319 37.318945 
L 185.524727 57.158987 
L 190.559135 38.573128 
L 195.593543 35.233576 
L 200.627951 120.343306 
L 205.662359 103.158958 
L 210.696767 80.233552 
L 215.731174 105.271285 
L 220.765582 59.308368 
L 225.79999 39.068483 
L 230.834398 45.635062 
L 235.868806 54.081643 
L 240.903214 39.508124 
L 245.937622 43.170485 
L 250.97203 37.206074 
L 256.006438 126.805827 
L 261.040845 44.324109 
L 266.075253 78.046958 
L 271.109661 39.818056 
L 276.144069 37.915329 
L 281.178477 44.919044 
L 286.212885 26.314802 
L 291.247293 22.708558 
L 296.281701 36.813406 
L 301.316109 59.136533 
L 306.350517 34.19908 
L 311.384924 37.490955 
L 316.419332 37.704628 
L 321.45374 37.862063 
L 326.488148 39.046342 
L 331.522556 56.988891 
L 336.556964 39.885692 
L 341.591372 46.52514 
L 346.62578 39.136515 
L 351.660188 82.900623 
L 356.694596 15.096285 
L 361.729003 75.788483 
L 366.763411 38.053455 
L 371.797819 38.46509 
L 376.832227 37.896694 
L 381.866635 40.391367 
L 386.901043 45.36939 
L 391.935451 43.391879 
L 396.969859 92.189568 
L 402.004267 43.284544 
L 407.038675 38.569541 
L 412.073082 39.26969 
L 417.10749 46.852692 
L 422.141898 40.912549 
L 427.176306 42.184437 
L 432.210714 173.021985 
L 437.245122 42.694241 
L 442.27953 39.006171 
L 447.313938 46.434898 
L 452.348346 51.587209 
L 457.382753 37.381794 
L 462.417161 76.111974 
L 467.451569 51.286008 
L 472.485977 62.309305 
L 477.520385 37.886661 
L 482.554793 40.001548 
L 487.589201 38.733947 
L 492.623609 45.711088 
L 497.658017 38.733166 
L 502.692425 37.966644 
L 507.726832 41.92012 
L 512.76124 38.224633 
L 517.795648 37.769278 
L 522.830056 40.373466 
L 527.864464 37.553154 
L 532.898872 43.793007 
L 537.93328 39.08557 
L 542.967688 50.631643 
L 548.002096 50.436265 
L 553.036504 55.109668 
L 558.070911 35.84274 
L 563.105319 38.628345 
L 568.139727 74.124234 
L 573.174135 51.504772 
L 578.208543 55.650811 
L 583.242951 52.464458 
" clip-path="url(#p7a73f25bba)" style="fill: none; stroke: #2196f3; stroke-opacity: 0.9; stroke-width: 1.5; stroke-linecap: round"/>
   </g>
   <g id="patch_3">
    <path d="M 59.91625 180.91827 
L 59.91625 7.2 
" style="fill: none"/>
   </g>
   <g id="patch_4">
    <path d="M 608.16327 180.91827 
L 608.16327 7.2 
" style="fill: none"/>
   </g>
   <g id="patch_5">
    <path d="M 59.91625 180.91827 
L 608.16327 180.91827 
" style="fill: none"/>
   </g>
   <g id="patch_6">
    <path d="M 59.91625 7.2 
L 608.16327 7.2 
" style="fill: none"/>
   </g>
  </g>
  <g id="axes_2">
   <g id="matplotlib.axis_3">
    <g id="ytick_5">
     <g id="line2d_12"/>
     <g id="text_13">
      <!-- 0.0 -->
      <g style="fill: #ef5350" transform="translate(611.66327 179.021985) scale(0.16 -0.16)">
       <defs>
        <path id="RobotoCondensed-Regular-2e" d="M 450 303 
Q 450 453 539 553 
Q 628 653 806 653 
Q 984 653 1076 553 
Q 1169 453 1169 303 
Q 1169 159 1076 62 
Q 984 -34 806 -34 
Q 628 -34 539 62 
Q 450 159 450 303 
z
" transform="scale(0.015625)"/>
       </defs>
       <use xlink:href="#RobotoCondensed-Regular-30"/>
       <use xlink:href="#RobotoCondensed-Regular-2e" x="49.365234"/>
       <use xlink:href="#RobotoCondensed-Regular-30" x="75.683594"/>
      </g>
     </g>
    </g>
    <g id="ytick_6">
     <g id="line2d_13"/>
     <g id="text_14">
      <!-- 0.5 -->
      <g style="fill: #ef5350" transform="translate(611.66327 139.540626) scale(0.16 -0.16)">
       <defs>
        <path id="RobotoCondensed-Regular-35" d="M 591 2281 
L 788 4550 
L 2766 4550 
L 2766 4016 
L 1253 4016 
L 1147 2775 
Q 1428 2972 1753 2972 
Q 2284 2972 2587 2559 
Q 2891 2147 2891 1450 
Q 2891 744 2561 340 
Q 2231 -63 1656 -63 
Q 1144 -63 822 271 
Q 500 606 453 1197 
L 972 1197 
Q 1019 806 1195 607 
Q 1372 409 1656 409 
Q 1978 409 2159 689 
Q 2341 969 2341 1444 
Q 2341 1891 2145 2172 
Q 1950 2453 1619 2453 
Q 1344 2453 1178 2309 
L 1031 2163 
L 591 2281 
z
" transform="scale(0.015625)"/>
       </defs>
       <use xlink:href="#RobotoCondensed-Regular-30"/>
       <use xlink:href="#RobotoCondensed-Regular-2e" x="49.365234"/>
       <use xlink:href="#RobotoCondensed-Regular-35" x="75.683594"/>
      </g>
     </g>
    </g>
    <g id="ytick_7">
     <g id="line2d_14"/>
     <g id="text_15">
      <!-- 1.0 -->
      <g style="fill: #ef5350" transform="translate(611.66327 100.059267) scale(0.16 -0.16)">
       <use xlink:href="#RobotoCondensed-Regular-31"/>
       <use xlink:href="#RobotoCondensed-Regular-2e" x="49.365234"/>
       <use xlink:href="#RobotoCondensed-Regular-30" x="75.683594"/>
      </g>
     </g>
    </g>
    <g id="ytick_8">
     <g id="line2d_15"/>
     <g id="text_16">
      <!-- 1.5 -->
      <g style="fill: #ef5350" transform="translate(611.66327 60.577908) scale(0.16 -0.16)">
       <use xlink:href="#RobotoCondensed-Regular-31"/>
       <use xlink:href="#RobotoCondensed-Regular-2e" x="49.365234"/>
       <use xlink:href="#RobotoCondensed-Regular-35" x="75.683594"/>
      </g>
     </g>
    </g>
    <g id="ytick_9">
     <g id="line2d_16"/>
     <g id="text_17">
      <!-- 2.0 -->
      <g style="fill: #ef5350" transform="translate(611.66327 21.096549) scale(0.16 -0.16)">
       <use xlink:href="#RobotoCondensed-Regular-32"/>
       <use xlink:href="#RobotoCondensed-Regular-2e" x="49.365234"/>
       <use xlink:href="#RobotoCondensed-Regular-30" x="75.683594"/>
      </g>
     </g>
    </g>
    <g id="text_18">
     <!-- dQint -->
     <g style="fill: #ef5350" transform="translate(647.16827 28.70625) rotate(-90) scale(0.1 -0.1)">
      <defs>
       <path id="RobotoCondensed-Bold-64" d="M 203 1794 
Q 203 2625 484 3034 
Q 766 3444 1303 3444 
Q 1694 3444 1953 3106 
L 1953 4800 
L 2844 4800 
L 2844 0 
L 2041 0 
L 2000 344 
Q 1728 -63 1300 -63 
Q 769 -63 489 343 
Q 209 750 203 1538 
L 203 1794 
z
M 1091 1572 
Q 1091 1072 1197 873 
Q 1303 675 1556 675 
Q 1819 675 1953 909 
L 1953 2453 
Q 1822 2703 1559 2703 
Q 1316 2703 1203 2506 
Q 1091 2309 1091 1806 
L 1091 1572 
z
" transform="scale(0.015625)"/>
       <path id="RobotoCondensed-Bold-51" d="M 3566 1922 
Q 3566 794 2956 281 
L 3584 -281 
L 3006 -813 
L 2169 -47 
L 1928 -63 
Q 1156 -63 720 460 
Q 284 984 281 1909 
L 281 2622 
Q 281 3559 715 4086 
Q 1150 4613 1922 4613 
Q 2675 4613 3112 4106 
Q 3550 3600 3566 2684 
L 3566 1922 
z
M 2644 2628 
Q 2644 3250 2466 3547 
Q 2288 3844 1922 3844 
Q 1556 3844 1381 3555 
Q 1206 3266 1200 2675 
L 1200 1922 
Q 1200 1297 1379 1000 
Q 1559 703 1928 703 
Q 2288 703 2464 998 
Q 2641 1294 2644 1900 
L 2644 2628 
z
" transform="scale(0.015625)"/>
       <path id="RobotoCondensed-Bold-69" d="M 1250 0 
L 363 0 
L 363 3381 
L 1250 3381 
L 1250 0 
z
M 322 4256 
Q 322 4463 453 4594 
Q 584 4725 803 4725 
Q 1022 4725 1153 4594 
Q 1284 4463 1284 4256 
Q 1284 4053 1154 3918 
Q 1025 3784 803 3784 
Q 581 3784 451 3918 
Q 322 4053 322 4256 
z
" transform="scale(0.015625)"/>
       <path id="RobotoCondensed-Bold-6e" d="M 1131 3381 
L 1156 3047 
Q 1456 3444 1941 3444 
Q 2813 3444 2838 2222 
L 2838 0 
L 1950 0 
L 1950 2156 
Q 1950 2444 1864 2573 
Q 1778 2703 1563 2703 
Q 1322 2703 1188 2456 
L 1188 0 
L 300 0 
L 300 3381 
L 1131 3381 
z
" transform="scale(0.015625)"/>
      </defs>
      <use xlink:href="#RobotoCondensed-Bold-64"/>
      <use xlink:href="#RobotoCondensed-Bold-51" x="49.560547"/>
      <use xlink:href="#RobotoCondensed-Bold-69" x="109.912109"/>
      <use xlink:href="#RobotoCondensed-Bold-6e" x="135.107422"/>
      <use xlink:href="#RobotoCondensed-Bold-74" x="184.326172"/>
     </g>
    </g>
   </g>
   <g id="line2d_17">
    <path d="M 84.836569 173.021759 
L 89.870977 173.021849 
L 94.905385 173.021905 
L 99.939793 173.021985 
L 104.974201 94.059342 
L 110.008609 173.021985 
L 115.043016 94.059474 
L 120.077424 94.059399 
L 125.111832 94.059154 
L 130.14624 173.021985 
L 135.180648 173.021985 
L 140.215056 173.021877 
L 145.249464 15.096549 
L 150.283872 173.021976 
L 155.31828 15.096492 
L 160.352688 15.096643 
L 165.387095 173.021985 
L 170.421503 173.021947 
L 175.455911 173.021985 
L 180.490319 173.021966 
L 185.524727 173.021834 
L 190.559135 173.021985 
L 195.593543 173.021985 
L 200.627951 15.09668 
L 205.662359 94.059403 
L 210.696767 15.096436 
L 215.731174 94.059201 
L 220.765582 173.0219 
L 225.79999 173.021985 
L 230.834398 173.021931 
L 235.868806 173.021985 
L 240.903214 173.021947 
L 245.937622 173.021914 
L 250.97203 173.021985 
L 256.006438 15.096285 
L 261.040845 94.059342 
L 266.075253 94.059173 
L 271.109661 173.021891 
L 276.144069 173.021976 
L 281.178477 173.02197 
L 286.212885 173.021985 
L 291.247293 173.021976 
L 296.281701 173.021985 
L 301.316109 173.021985 
L 306.350517 173.0219 
L 311.384924 173.021985 
L 316.419332 94.059286 
L 321.45374 15.096549 
L 326.488148 173.021985 
L 331.522556 173.021985 
L 336.556964 173.021985 
L 341.591372 94.059361 
L 346.62578 173.021985 
L 351.660188 15.096558 
L 356.694596 173.021985 
L 361.729003 173.021985 
L 366.763411 173.021896 
L 371.797819 173.021985 
L 376.832227 173.021985 
L 381.866635 94.059154 
L 386.901043 173.021985 
L 391.935451 173.021905 
L 396.969859 15.096709 
L 402.004267 173.021985 
L 407.038675 173.021985 
L 412.073082 94.059191 
L 417.10749 94.059239 
L 422.141898 173.021985 
L 427.176306 173.021853 
L 432.210714 15.096624 
L 437.245122 94.059417 
L 442.27953 173.021985 
L 447.313938 94.059356 
L 452.348346 15.096586 
L 457.382753 173.021985 
L 462.417161 173.021881 
L 467.451569 173.021698 
L 472.485977 173.021985 
L 477.520385 173.021985 
L 482.554793 173.021985 
L 487.589201 173.021985 
L 492.623609 173.021985 
L 497.658017 173.021778 
L 502.692425 173.021985 
L 507.726832 173.021877 
L 512.76124 15.09653 
L 517.795648 173.021985 
L 522.830056 173.021985 
L 527.864464 173.021896 
L 532.898872 173.021816 
L 537.93328 94.05921 
L 542.967688 173.021759 
L 548.002096 94.059333 
L 553.036504 173.021816 
L 558.070911 173.021985 
L 563.105319 173.021985 
L 568.139727 15.096285 
L 573.174135 173.021904 
L 578.208543 94.059427 
L 583.242951 173.021724 
" clip-path="url(#p7a73f25bba)" style="fill: none; stroke: #ef5350; stroke-opacity: 0.9; stroke-width: 1.5; stroke-linecap: round"/>
   </g>
   <g id="patch_7">
    <path d="M 59.91625 180.91827 
L 59.91625 7.2 
" style="fill: none"/>
   </g>
   <g id="patch_8">
    <path d="M 608.16327 180.91827 
L 608.16327 7.2 
" style="fill: none"/>
   </g>
   <g id="patch_9">
    <path d="M 59.91625 180.91827 
L 608.16327 180.91827 
" style="fill: none"/>
   </g>
   <g id="patch_10">
    <path d="M 59.91625 7.2 
L 608.16327 7.2 
" style="fill: none"/>
   </g>
  </g>
 </g>
 <defs>
  <clipPath id="p7a73f25bba">
   <rect x="59.91625" y="7.2" width="548.24702" height="173.71827"/>
  </clipPath>
 </defs>
</svg>
