<?xml version="1.0" encoding="utf-8" standalone="no"?>
<!DOCTYPE svg PUBLIC "-//W3C//DTD SVG 1.1//EN"
  "http://www.w3.org/Graphics/SVG/1.1/DTD/svg11.dtd">
<svg xmlns:xlink="http://www.w3.org/1999/xlink" width="401.650156pt" height="304.621375pt" viewBox="0 0 401.650156 304.621375" xmlns="http://www.w3.org/2000/svg" version="1.1">
 <metadata>
  <rdf:RDF xmlns:dc="http://purl.org/dc/elements/1.1/" xmlns:cc="http://creativecommons.org/ns#" xmlns:rdf="http://www.w3.org/1999/02/22-rdf-syntax-ns#">
   <cc:Work>
    <dc:type rdf:resource="http://purl.org/dc/dcmitype/StillImage"/>
    <dc:date>2023-09-19T18:19:15.749529</dc:date>
    <dc:format>image/svg+xml</dc:format>
    <dc:creator>
     <cc:Agent>
      <dc:title>Matplotlib v3.8.0, https://matplotlib.org/</dc:title>
     </cc:Agent>
    </dc:creator>
   </cc:Work>
  </rdf:RDF>
 </metadata>
 <defs>
  <style type="text/css">*{stroke-linejoin: round; stroke-linecap: butt}</style>
 </defs>
 <g id="figure_1">
  <g id="patch_1">
   <path d="M 0 304.621375 
L 401.650156 304.621375 
L 401.650156 0 
L 0 0 
L 0 304.621375 
z
" style="fill: none"/>
  </g>
  <g id="axes_1">
   <g id="patch_2">
    <path d="M 30.453437 277.437 
L 387.573438 277.437 
L 387.573438 11.325 
L 30.453437 11.325 
L 30.453437 277.437 
z
" style="fill: none"/>
   </g>
   <g id="matplotlib.axis_1">
    <g id="xtick_1">
     <g id="line2d_1">
      <path d="M 30.453437 277.437 
L 30.453437 11.325 
" clip-path="url(#p389095a900)" style="fill: none; stroke-dasharray: 3.7,1.6; stroke-dashoffset: 0; stroke: #838383; stroke-opacity: 0.33"/>
     </g>
     <g id="line2d_2">
      <defs>
       <path id="m1801cb9565" d="M 0 0 
L 0 6 
" style="stroke: #000000; stroke-opacity: 0; stroke-width: 1.25"/>
      </defs>
      <g>
       <use xlink:href="#m1801cb9565" x="30.453437" y="277.437" style="fill-opacity: 0; stroke: #000000; stroke-opacity: 0; stroke-width: 1.25"/>
      </g>
     </g>
     <g id="text_1">
      <!-- 0.0 -->
      <g style="fill: #838383" transform="translate(23.576719 295.187) scale(0.11 -0.11)">
       <defs>
        <path id="RobotoCondensed-Regular-30" d="M 2797 1941 
Q 2797 934 2503 435 
Q 2209 -63 1581 -63 
Q 972 -63 672 415 
Q 372 894 359 1853 
L 359 2634 
Q 359 3631 654 4122 
Q 950 4613 1575 4613 
Q 2191 4613 2486 4147 
Q 2781 3681 2797 2738 
L 2797 1941 
z
M 2244 2731 
Q 2244 3453 2084 3795 
Q 1925 4138 1575 4138 
Q 1234 4138 1075 3802 
Q 916 3466 909 2788 
L 909 1850 
Q 909 1131 1075 770 
Q 1241 409 1581 409 
Q 1919 409 2078 750 
Q 2238 1091 2244 1791 
L 2244 2731 
z
" transform="scale(0.015625)"/>
        <path id="RobotoCondensed-Regular-2e" d="M 450 303 
Q 450 453 539 553 
Q 628 653 806 653 
Q 984 653 1076 553 
Q 1169 453 1169 303 
Q 1169 159 1076 62 
Q 984 -34 806 -34 
Q 628 -34 539 62 
Q 450 159 450 303 
z
" transform="scale(0.015625)"/>
       </defs>
       <use xlink:href="#RobotoCondensed-Regular-30"/>
       <use xlink:href="#RobotoCondensed-Regular-2e" x="49.365234"/>
       <use xlink:href="#RobotoCondensed-Regular-30" x="75.683594"/>
      </g>
     </g>
    </g>
    <g id="xtick_2">
     <g id="line2d_3">
      <path d="M 101.877438 277.437 
L 101.877438 11.325 
" clip-path="url(#p389095a900)" style="fill: none; stroke-dasharray: 3.7,1.6; stroke-dashoffset: 0; stroke: #838383; stroke-opacity: 0.33"/>
     </g>
     <g id="line2d_4">
      <g>
       <use xlink:href="#m1801cb9565" x="101.877438" y="277.437" style="fill-opacity: 0; stroke: #000000; stroke-opacity: 0; stroke-width: 1.25"/>
      </g>
     </g>
     <g id="text_2">
      <!-- 0.2 -->
      <g style="fill: #838383" transform="translate(95.000719 295.187) scale(0.11 -0.11)">
       <defs>
        <path id="RobotoCondensed-Regular-32" d="M 2909 0 
L 366 0 
L 366 416 
L 1663 2134 
Q 1956 2531 2070 2786 
Q 2184 3041 2184 3325 
Q 2184 3688 2015 3913 
Q 1847 4138 1572 4138 
Q 1225 4138 1036 3898 
Q 847 3659 847 3209 
L 294 3209 
Q 294 3838 637 4225 
Q 981 4613 1572 4613 
Q 2116 4613 2428 4280 
Q 2741 3947 2741 3394 
Q 2741 2719 2038 1797 
L 1025 472 
L 2909 472 
L 2909 0 
z
" transform="scale(0.015625)"/>
       </defs>
       <use xlink:href="#RobotoCondensed-Regular-30"/>
       <use xlink:href="#RobotoCondensed-Regular-2e" x="49.365234"/>
       <use xlink:href="#RobotoCondensed-Regular-32" x="75.683594"/>
      </g>
     </g>
    </g>
    <g id="xtick_3">
     <g id="line2d_5">
      <path d="M 173.301438 277.437 
L 173.301438 11.325 
" clip-path="url(#p389095a900)" style="fill: none; stroke-dasharray: 3.7,1.6; stroke-dashoffset: 0; stroke: #838383; stroke-opacity: 0.33"/>
     </g>
     <g id="line2d_6">
      <g>
       <use xlink:href="#m1801cb9565" x="173.301438" y="277.437" style="fill-opacity: 0; stroke: #000000; stroke-opacity: 0; stroke-width: 1.25"/>
      </g>
     </g>
     <g id="text_3">
      <!-- 0.4 -->
      <g style="fill: #838383" transform="translate(166.424719 295.187) scale(0.11 -0.11)">
       <defs>
        <path id="RobotoCondensed-Regular-34" d="M 2459 1528 
L 2966 1528 
L 2966 1056 
L 2459 1056 
L 2459 0 
L 1906 0 
L 1906 1056 
L 188 1056 
L 188 1397 
L 1878 4550 
L 2459 4550 
L 2459 1528 
z
M 800 1528 
L 1906 1528 
L 1906 3691 
L 800 1528 
z
" transform="scale(0.015625)"/>
       </defs>
       <use xlink:href="#RobotoCondensed-Regular-30"/>
       <use xlink:href="#RobotoCondensed-Regular-2e" x="49.365234"/>
       <use xlink:href="#RobotoCondensed-Regular-34" x="75.683594"/>
      </g>
     </g>
    </g>
    <g id="xtick_4">
     <g id="line2d_7">
      <path d="M 244.725438 277.437 
L 244.725438 11.325 
" clip-path="url(#p389095a900)" style="fill: none; stroke-dasharray: 3.7,1.6; stroke-dashoffset: 0; stroke: #838383; stroke-opacity: 0.33"/>
     </g>
     <g id="line2d_8">
      <g>
       <use xlink:href="#m1801cb9565" x="244.725438" y="277.437" style="fill-opacity: 0; stroke: #000000; stroke-opacity: 0; stroke-width: 1.25"/>
      </g>
     </g>
     <g id="text_4">
      <!-- 0.6 -->
      <g style="fill: #838383" transform="translate(237.848719 295.187) scale(0.11 -0.11)">
       <defs>
        <path id="RobotoCondensed-Regular-36" d="M 2291 4553 
L 2291 4063 
L 2200 4063 
Q 1647 4050 1334 3689 
Q 1022 3328 975 2603 
Q 1278 2984 1750 2984 
Q 2253 2984 2548 2570 
Q 2844 2156 2844 1484 
Q 2844 769 2517 353 
Q 2191 -63 1641 -63 
Q 1088 -63 750 428 
Q 413 919 413 1731 
L 413 1953 
Q 413 2891 616 3447 
Q 819 4003 1214 4273 
Q 1609 4544 2197 4553 
L 2291 4553 
z
M 1656 2503 
Q 1431 2503 1240 2331 
Q 1050 2159 966 1894 
L 966 1666 
Q 966 1113 1161 764 
Q 1356 416 1641 416 
Q 1950 416 2125 702 
Q 2300 988 2300 1456 
Q 2300 1919 2125 2211 
Q 1950 2503 1656 2503 
z
" transform="scale(0.015625)"/>
       </defs>
       <use xlink:href="#RobotoCondensed-Regular-30"/>
       <use xlink:href="#RobotoCondensed-Regular-2e" x="49.365234"/>
       <use xlink:href="#RobotoCondensed-Regular-36" x="75.683594"/>
      </g>
     </g>
    </g>
    <g id="xtick_5">
     <g id="line2d_9">
      <path d="M 316.149438 277.437 
L 316.149438 11.325 
" clip-path="url(#p389095a900)" style="fill: none; stroke-dasharray: 3.7,1.6; stroke-dashoffset: 0; stroke: #838383; stroke-opacity: 0.33"/>
     </g>
     <g id="line2d_10">
      <g>
       <use xlink:href="#m1801cb9565" x="316.149438" y="277.437" style="fill-opacity: 0; stroke: #000000; stroke-opacity: 0; stroke-width: 1.25"/>
      </g>
     </g>
     <g id="text_5">
      <!-- 0.8 -->
      <g style="fill: #838383" transform="translate(309.272719 295.187) scale(0.11 -0.11)">
       <defs>
        <path id="RobotoCondensed-Regular-38" d="M 2706 3363 
Q 2706 3022 2554 2756 
Q 2403 2491 2147 2341 
Q 2450 2184 2622 1892 
Q 2794 1600 2794 1228 
Q 2794 641 2461 289 
Q 2128 -63 1578 -63 
Q 1028 -63 695 289 
Q 363 641 363 1228 
Q 363 1603 533 1898 
Q 703 2194 997 2344 
Q 741 2494 594 2758 
Q 447 3022 447 3363 
Q 447 3938 758 4275 
Q 1069 4613 1578 4613 
Q 2084 4613 2395 4278 
Q 2706 3944 2706 3363 
z
M 2241 1241 
Q 2241 1631 2056 1867 
Q 1872 2103 1572 2103 
Q 1266 2103 1089 1865 
Q 913 1628 913 1241 
Q 913 847 1086 628 
Q 1259 409 1578 409 
Q 1897 409 2069 628 
Q 2241 847 2241 1241 
z
M 2156 3353 
Q 2156 3700 1993 3919 
Q 1831 4138 1578 4138 
Q 1313 4138 1156 3922 
Q 1000 3706 1000 3353 
Q 1000 2997 1159 2787 
Q 1319 2578 1578 2578 
Q 1844 2578 2000 2790 
Q 2156 3003 2156 3353 
z
" transform="scale(0.015625)"/>
       </defs>
       <use xlink:href="#RobotoCondensed-Regular-30"/>
       <use xlink:href="#RobotoCondensed-Regular-2e" x="49.365234"/>
       <use xlink:href="#RobotoCondensed-Regular-38" x="75.683594"/>
      </g>
     </g>
    </g>
    <g id="xtick_6">
     <g id="line2d_11">
      <path d="M 387.573438 277.437 
L 387.573438 11.325 
" clip-path="url(#p389095a900)" style="fill: none; stroke-dasharray: 3.7,1.6; stroke-dashoffset: 0; stroke: #838383; stroke-opacity: 0.33"/>
     </g>
     <g id="line2d_12">
      <g>
       <use xlink:href="#m1801cb9565" x="387.573438" y="277.437" style="fill-opacity: 0; stroke: #000000; stroke-opacity: 0; stroke-width: 1.25"/>
      </g>
     </g>
     <g id="text_6">
      <!-- 1.0 -->
      <g style="fill: #838383" transform="translate(380.696719 295.187) scale(0.11 -0.11)">
       <defs>
        <path id="RobotoCondensed-Regular-31" d="M 2013 0 
L 1456 0 
L 1456 3853 
L 500 3425 
L 500 3950 
L 1925 4572 
L 2013 4572 
L 2013 0 
z
" transform="scale(0.015625)"/>
       </defs>
       <use xlink:href="#RobotoCondensed-Regular-31"/>
       <use xlink:href="#RobotoCondensed-Regular-2e" x="49.365234"/>
       <use xlink:href="#RobotoCondensed-Regular-30" x="75.683594"/>
      </g>
     </g>
    </g>
   </g>
   <g id="matplotlib.axis_2">
    <g id="ytick_1">
     <g id="line2d_13">
      <path d="M 30.453437 277.437 
L 387.573438 277.437 
" clip-path="url(#p389095a900)" style="fill: none; stroke-dasharray: 3.7,1.6; stroke-dashoffset: 0; stroke: #838383; stroke-opacity: 0.33"/>
     </g>
     <g id="line2d_14">
      <defs>
       <path id="me2eb3a2f99" d="M 0 0 
L -6 0 
" style="stroke: #000000; stroke-opacity: 0; stroke-width: 1.25"/>
      </defs>
      <g>
       <use xlink:href="#me2eb3a2f99" x="30.453437" y="277.437" style="fill-opacity: 0; stroke: #000000; stroke-opacity: 0; stroke-width: 1.25"/>
      </g>
     </g>
     <g id="text_7">
      <!-- 0.0 -->
      <g style="fill: #838383" transform="translate(7.2 281.562) scale(0.11 -0.11)">
       <use xlink:href="#RobotoCondensed-Regular-30"/>
       <use xlink:href="#RobotoCondensed-Regular-2e" x="49.365234"/>
       <use xlink:href="#RobotoCondensed-Regular-30" x="75.683594"/>
      </g>
     </g>
    </g>
    <g id="ytick_2">
     <g id="line2d_15">
      <path d="M 30.453437 224.2146 
L 387.573438 224.2146 
" clip-path="url(#p389095a900)" style="fill: none; stroke-dasharray: 3.7,1.6; stroke-dashoffset: 0; stroke: #838383; stroke-opacity: 0.33"/>
     </g>
     <g id="line2d_16">
      <g>
       <use xlink:href="#me2eb3a2f99" x="30.453437" y="224.2146" style="fill-opacity: 0; stroke: #000000; stroke-opacity: 0; stroke-width: 1.25"/>
      </g>
     </g>
     <g id="text_8">
      <!-- 0.2 -->
      <g style="fill: #838383" transform="translate(7.2 228.3396) scale(0.11 -0.11)">
       <use xlink:href="#RobotoCondensed-Regular-30"/>
       <use xlink:href="#RobotoCondensed-Regular-2e" x="49.365234"/>
       <use xlink:href="#RobotoCondensed-Regular-32" x="75.683594"/>
      </g>
     </g>
    </g>
    <g id="ytick_3">
     <g id="line2d_17">
      <path d="M 30.453437 170.9922 
L 387.573438 170.9922 
" clip-path="url(#p389095a900)" style="fill: none; stroke-dasharray: 3.7,1.6; stroke-dashoffset: 0; stroke: #838383; stroke-opacity: 0.33"/>
     </g>
     <g id="line2d_18">
      <g>
       <use xlink:href="#me2eb3a2f99" x="30.453437" y="170.9922" style="fill-opacity: 0; stroke: #000000; stroke-opacity: 0; stroke-width: 1.25"/>
      </g>
     </g>
     <g id="text_9">
      <!-- 0.4 -->
      <g style="fill: #838383" transform="translate(7.2 175.1172) scale(0.11 -0.11)">
       <use xlink:href="#RobotoCondensed-Regular-30"/>
       <use xlink:href="#RobotoCondensed-Regular-2e" x="49.365234"/>
       <use xlink:href="#RobotoCondensed-Regular-34" x="75.683594"/>
      </g>
     </g>
    </g>
    <g id="ytick_4">
     <g id="line2d_19">
      <path d="M 30.453437 117.7698 
L 387.573438 117.7698 
" clip-path="url(#p389095a900)" style="fill: none; stroke-dasharray: 3.7,1.6; stroke-dashoffset: 0; stroke: #838383; stroke-opacity: 0.33"/>
     </g>
     <g id="line2d_20">
      <g>
       <use xlink:href="#me2eb3a2f99" x="30.453437" y="117.7698" style="fill-opacity: 0; stroke: #000000; stroke-opacity: 0; stroke-width: 1.25"/>
      </g>
     </g>
     <g id="text_10">
      <!-- 0.6 -->
      <g style="fill: #838383" transform="translate(7.2 121.8948) scale(0.11 -0.11)">
       <use xlink:href="#RobotoCondensed-Regular-30"/>
       <use xlink:href="#RobotoCondensed-Regular-2e" x="49.365234"/>
       <use xlink:href="#RobotoCondensed-Regular-36" x="75.683594"/>
      </g>
     </g>
    </g>
    <g id="ytick_5">
     <g id="line2d_21">
      <path d="M 30.453437 64.5474 
L 387.573438 64.5474 
" clip-path="url(#p389095a900)" style="fill: none; stroke-dasharray: 3.7,1.6; stroke-dashoffset: 0; stroke: #838383; stroke-opacity: 0.33"/>
     </g>
     <g id="line2d_22">
      <g>
       <use xlink:href="#me2eb3a2f99" x="30.453437" y="64.5474" style="fill-opacity: 0; stroke: #000000; stroke-opacity: 0; stroke-width: 1.25"/>
      </g>
     </g>
     <g id="text_11">
      <!-- 0.8 -->
      <g style="fill: #838383" transform="translate(7.2 68.6724) scale(0.11 -0.11)">
       <use xlink:href="#RobotoCondensed-Regular-30"/>
       <use xlink:href="#RobotoCondensed-Regular-2e" x="49.365234"/>
       <use xlink:href="#RobotoCondensed-Regular-38" x="75.683594"/>
      </g>
     </g>
    </g>
    <g id="ytick_6">
     <g id="line2d_23">
      <path d="M 30.453437 11.325 
L 387.573438 11.325 
" clip-path="url(#p389095a900)" style="fill: none; stroke-dasharray: 3.7,1.6; stroke-dashoffset: 0; stroke: #838383; stroke-opacity: 0.33"/>
     </g>
     <g id="line2d_24">
      <g>
       <use xlink:href="#me2eb3a2f99" x="30.453437" y="11.325" style="fill-opacity: 0; stroke: #000000; stroke-opacity: 0; stroke-width: 1.25"/>
      </g>
     </g>
     <g id="text_12">
      <!-- 1.0 -->
      <g style="fill: #838383" transform="translate(7.2 15.45) scale(0.11 -0.11)">
       <use xlink:href="#RobotoCondensed-Regular-31"/>
       <use xlink:href="#RobotoCondensed-Regular-2e" x="49.365234"/>
       <use xlink:href="#RobotoCondensed-Regular-30" x="75.683594"/>
      </g>
     </g>
    </g>
   </g>
   <g id="patch_3">
    <path d="M 30.453437 277.437 
L 30.453437 11.325 
" style="fill: none"/>
   </g>
   <g id="patch_4">
    <path d="M 387.573438 277.437 
L 387.573438 11.325 
" style="fill: none"/>
   </g>
   <g id="patch_5">
    <path d="M 30.453437 277.437 
L 387.573438 277.437 
" style="fill: none"/>
   </g>
   <g id="patch_6">
    <path d="M 30.453437 11.325 
L 387.573438 11.325 
" style="fill: none"/>
   </g>
  </g>
 </g>
 <defs>
  <clipPath id="p389095a900">
   <rect x="30.453437" y="11.325" width="357.12" height="266.112"/>
  </clipPath>
 </defs>
</svg>
