<?xml version="1.0" encoding="utf-8" standalone="no"?>
<!DOCTYPE svg PUBLIC "-//W3C//DTD SVG 1.1//EN"
  "http://www.w3.org/Graphics/SVG/1.1/DTD/svg11.dtd">
<svg xmlns:xlink="http://www.w3.org/1999/xlink" width="397.373906pt" height="301.710494pt" viewBox="0 0 397.373906 301.710494" xmlns="http://www.w3.org/2000/svg" version="1.1">
 <metadata>
  <rdf:RDF xmlns:dc="http://purl.org/dc/elements/1.1/" xmlns:cc="http://creativecommons.org/ns#" xmlns:rdf="http://www.w3.org/1999/02/22-rdf-syntax-ns#">
   <cc:Work>
    <dc:type rdf:resource="http://purl.org/dc/dcmitype/StillImage"/>
    <dc:date>2023-09-19T20:17:27.809712</dc:date>
    <dc:format>image/svg+xml</dc:format>
    <dc:creator>
     <cc:Agent>
      <dc:title>Matplotlib v3.8.0, https://matplotlib.org/</dc:title>
     </cc:Agent>
    </dc:creator>
   </cc:Work>
  </rdf:RDF>
 </metadata>
 <defs>
  <style type="text/css">*{stroke-linejoin: round; stroke-linecap: butt}</style>
 </defs>
 <g id="figure_1">
  <g id="patch_1">
   <path d="M 0 301.710494 
L 397.373906 301.710494 
L 397.373906 0 
L 0 0 
L 0 301.710494 
z
" style="fill: none"/>
  </g>
  <g id="axes_1">
   <g id="patch_2">
    <path d="M 33.053906 274.526119 
L 390.173906 274.526119 
L 390.173906 8.414119 
L 33.053906 8.414119 
L 33.053906 274.526119 
z
" style="fill: none"/>
   </g>
   <g id="matplotlib.axis_1">
    <g id="xtick_1">
     <g id="line2d_1">
      <path d="M 49.286634 274.526119 
L 49.286634 8.414119 
" clip-path="url(#p19393694e9)" style="fill: none; stroke-dasharray: 3.7,1.6; stroke-dashoffset: 0; stroke: #838383; stroke-opacity: 0.33"/>
     </g>
     <g id="line2d_2">
      <defs>
       <path id="md25e268e49" d="M 0 0 
L 0 6 
" style="stroke: #000000; stroke-opacity: 0; stroke-width: 1.25"/>
      </defs>
      <g>
       <use xlink:href="#md25e268e49" x="49.286634" y="274.526119" style="fill-opacity: 0; stroke: #000000; stroke-opacity: 0; stroke-width: 1.25"/>
      </g>
     </g>
     <g id="text_1">
      <!-- 0 -->
      <g style="fill: #838383" transform="translate(46.571868 292.276119) scale(0.11 -0.11)">
       <defs>
        <path id="RobotoCondensed-Regular-30" d="M 2797 1941 
Q 2797 934 2503 435 
Q 2209 -63 1581 -63 
Q 972 -63 672 415 
Q 372 894 359 1853 
L 359 2634 
Q 359 3631 654 4122 
Q 950 4613 1575 4613 
Q 2191 4613 2486 4147 
Q 2781 3681 2797 2738 
L 2797 1941 
z
M 2244 2731 
Q 2244 3453 2084 3795 
Q 1925 4138 1575 4138 
Q 1234 4138 1075 3802 
Q 916 3466 909 2788 
L 909 1850 
Q 909 1131 1075 770 
Q 1241 409 1581 409 
Q 1919 409 2078 750 
Q 2238 1091 2244 1791 
L 2244 2731 
z
" transform="scale(0.015625)"/>
       </defs>
       <use xlink:href="#RobotoCondensed-Regular-30"/>
      </g>
     </g>
    </g>
    <g id="xtick_2">
     <g id="line2d_3">
      <path d="M 114.347665 274.526119 
L 114.347665 8.414119 
" clip-path="url(#p19393694e9)" style="fill: none; stroke-dasharray: 3.7,1.6; stroke-dashoffset: 0; stroke: #838383; stroke-opacity: 0.33"/>
     </g>
     <g id="line2d_4">
      <g>
       <use xlink:href="#md25e268e49" x="114.347665" y="274.526119" style="fill-opacity: 0; stroke: #000000; stroke-opacity: 0; stroke-width: 1.25"/>
      </g>
     </g>
     <g id="text_2">
      <!-- 200 -->
      <g style="fill: #838383" transform="translate(106.203368 292.276119) scale(0.11 -0.11)">
       <defs>
        <path id="RobotoCondensed-Regular-32" d="M 2909 0 
L 366 0 
L 366 416 
L 1663 2134 
Q 1956 2531 2070 2786 
Q 2184 3041 2184 3325 
Q 2184 3688 2015 3913 
Q 1847 4138 1572 4138 
Q 1225 4138 1036 3898 
Q 847 3659 847 3209 
L 294 3209 
Q 294 3838 637 4225 
Q 981 4613 1572 4613 
Q 2116 4613 2428 4280 
Q 2741 3947 2741 3394 
Q 2741 2719 2038 1797 
L 1025 472 
L 2909 472 
L 2909 0 
z
" transform="scale(0.015625)"/>
       </defs>
       <use xlink:href="#RobotoCondensed-Regular-32"/>
       <use xlink:href="#RobotoCondensed-Regular-30" x="49.365234"/>
       <use xlink:href="#RobotoCondensed-Regular-30" x="98.730469"/>
      </g>
     </g>
    </g>
    <g id="xtick_3">
     <g id="line2d_5">
      <path d="M 179.408696 274.526119 
L 179.408696 8.414119 
" clip-path="url(#p19393694e9)" style="fill: none; stroke-dasharray: 3.7,1.6; stroke-dashoffset: 0; stroke: #838383; stroke-opacity: 0.33"/>
     </g>
     <g id="line2d_6">
      <g>
       <use xlink:href="#md25e268e49" x="179.408696" y="274.526119" style="fill-opacity: 0; stroke: #000000; stroke-opacity: 0; stroke-width: 1.25"/>
      </g>
     </g>
     <g id="text_3">
      <!-- 400 -->
      <g style="fill: #838383" transform="translate(171.264399 292.276119) scale(0.11 -0.11)">
       <defs>
        <path id="RobotoCondensed-Regular-34" d="M 2459 1528 
L 2966 1528 
L 2966 1056 
L 2459 1056 
L 2459 0 
L 1906 0 
L 1906 1056 
L 188 1056 
L 188 1397 
L 1878 4550 
L 2459 4550 
L 2459 1528 
z
M 800 1528 
L 1906 1528 
L 1906 3691 
L 800 1528 
z
" transform="scale(0.015625)"/>
       </defs>
       <use xlink:href="#RobotoCondensed-Regular-34"/>
       <use xlink:href="#RobotoCondensed-Regular-30" x="49.365234"/>
       <use xlink:href="#RobotoCondensed-Regular-30" x="98.730469"/>
      </g>
     </g>
    </g>
    <g id="xtick_4">
     <g id="line2d_7">
      <path d="M 244.469727 274.526119 
L 244.469727 8.414119 
" clip-path="url(#p19393694e9)" style="fill: none; stroke-dasharray: 3.7,1.6; stroke-dashoffset: 0; stroke: #838383; stroke-opacity: 0.33"/>
     </g>
     <g id="line2d_8">
      <g>
       <use xlink:href="#md25e268e49" x="244.469727" y="274.526119" style="fill-opacity: 0; stroke: #000000; stroke-opacity: 0; stroke-width: 1.25"/>
      </g>
     </g>
     <g id="text_4">
      <!-- 600 -->
      <g style="fill: #838383" transform="translate(236.32543 292.276119) scale(0.11 -0.11)">
       <defs>
        <path id="RobotoCondensed-Regular-36" d="M 2291 4553 
L 2291 4063 
L 2200 4063 
Q 1647 4050 1334 3689 
Q 1022 3328 975 2603 
Q 1278 2984 1750 2984 
Q 2253 2984 2548 2570 
Q 2844 2156 2844 1484 
Q 2844 769 2517 353 
Q 2191 -63 1641 -63 
Q 1088 -63 750 428 
Q 413 919 413 1731 
L 413 1953 
Q 413 2891 616 3447 
Q 819 4003 1214 4273 
Q 1609 4544 2197 4553 
L 2291 4553 
z
M 1656 2503 
Q 1431 2503 1240 2331 
Q 1050 2159 966 1894 
L 966 1666 
Q 966 1113 1161 764 
Q 1356 416 1641 416 
Q 1950 416 2125 702 
Q 2300 988 2300 1456 
Q 2300 1919 2125 2211 
Q 1950 2503 1656 2503 
z
" transform="scale(0.015625)"/>
       </defs>
       <use xlink:href="#RobotoCondensed-Regular-36"/>
       <use xlink:href="#RobotoCondensed-Regular-30" x="49.365234"/>
       <use xlink:href="#RobotoCondensed-Regular-30" x="98.730469"/>
      </g>
     </g>
    </g>
    <g id="xtick_5">
     <g id="line2d_9">
      <path d="M 309.530758 274.526119 
L 309.530758 8.414119 
" clip-path="url(#p19393694e9)" style="fill: none; stroke-dasharray: 3.7,1.6; stroke-dashoffset: 0; stroke: #838383; stroke-opacity: 0.33"/>
     </g>
     <g id="line2d_10">
      <g>
       <use xlink:href="#md25e268e49" x="309.530758" y="274.526119" style="fill-opacity: 0; stroke: #000000; stroke-opacity: 0; stroke-width: 1.25"/>
      </g>
     </g>
     <g id="text_5">
      <!-- 800 -->
      <g style="fill: #838383" transform="translate(301.386461 292.276119) scale(0.11 -0.11)">
       <defs>
        <path id="RobotoCondensed-Regular-38" d="M 2706 3363 
Q 2706 3022 2554 2756 
Q 2403 2491 2147 2341 
Q 2450 2184 2622 1892 
Q 2794 1600 2794 1228 
Q 2794 641 2461 289 
Q 2128 -63 1578 -63 
Q 1028 -63 695 289 
Q 363 641 363 1228 
Q 363 1603 533 1898 
Q 703 2194 997 2344 
Q 741 2494 594 2758 
Q 447 3022 447 3363 
Q 447 3938 758 4275 
Q 1069 4613 1578 4613 
Q 2084 4613 2395 4278 
Q 2706 3944 2706 3363 
z
M 2241 1241 
Q 2241 1631 2056 1867 
Q 1872 2103 1572 2103 
Q 1266 2103 1089 1865 
Q 913 1628 913 1241 
Q 913 847 1086 628 
Q 1259 409 1578 409 
Q 1897 409 2069 628 
Q 2241 847 2241 1241 
z
M 2156 3353 
Q 2156 3700 1993 3919 
Q 1831 4138 1578 4138 
Q 1313 4138 1156 3922 
Q 1000 3706 1000 3353 
Q 1000 2997 1159 2787 
Q 1319 2578 1578 2578 
Q 1844 2578 2000 2790 
Q 2156 3003 2156 3353 
z
" transform="scale(0.015625)"/>
       </defs>
       <use xlink:href="#RobotoCondensed-Regular-38"/>
       <use xlink:href="#RobotoCondensed-Regular-30" x="49.365234"/>
       <use xlink:href="#RobotoCondensed-Regular-30" x="98.730469"/>
      </g>
     </g>
    </g>
    <g id="xtick_6">
     <g id="line2d_11">
      <path d="M 374.591789 274.526119 
L 374.591789 8.414119 
" clip-path="url(#p19393694e9)" style="fill: none; stroke-dasharray: 3.7,1.6; stroke-dashoffset: 0; stroke: #838383; stroke-opacity: 0.33"/>
     </g>
     <g id="line2d_12">
      <g>
       <use xlink:href="#md25e268e49" x="374.591789" y="274.526119" style="fill-opacity: 0; stroke: #000000; stroke-opacity: 0; stroke-width: 1.25"/>
      </g>
     </g>
     <g id="text_6">
      <!-- 1000 -->
      <g style="fill: #838383" transform="translate(363.732727 292.276119) scale(0.11 -0.11)">
       <defs>
        <path id="RobotoCondensed-Regular-31" d="M 2013 0 
L 1456 0 
L 1456 3853 
L 500 3425 
L 500 3950 
L 1925 4572 
L 2013 4572 
L 2013 0 
z
" transform="scale(0.015625)"/>
       </defs>
       <use xlink:href="#RobotoCondensed-Regular-31"/>
       <use xlink:href="#RobotoCondensed-Regular-30" x="49.365234"/>
       <use xlink:href="#RobotoCondensed-Regular-30" x="98.730469"/>
       <use xlink:href="#RobotoCondensed-Regular-30" x="148.095703"/>
      </g>
     </g>
    </g>
   </g>
   <g id="matplotlib.axis_2">
    <g id="ytick_1">
     <g id="line2d_13">
      <path d="M 33.053906 247.729189 
L 390.173906 247.729189 
" clip-path="url(#p19393694e9)" style="fill: none; stroke-dasharray: 3.7,1.6; stroke-dashoffset: 0; stroke: #838383; stroke-opacity: 0.33"/>
     </g>
     <g id="line2d_14">
      <defs>
       <path id="m4bc2e39ee1" d="M 0 0 
L -6 0 
" style="stroke: #000000; stroke-opacity: 0; stroke-width: 1.25"/>
      </defs>
      <g>
       <use xlink:href="#m4bc2e39ee1" x="33.053906" y="247.729189" style="fill-opacity: 0; stroke: #000000; stroke-opacity: 0; stroke-width: 1.25"/>
      </g>
     </g>
     <g id="text_7">
      <!-- −10 -->
      <g style="fill: #838383" transform="translate(7.2 251.854189) scale(0.11 -0.11)">
       <defs>
        <path id="RobotoCondensed-Regular-2212" d="M 2697 2034 
L 506 2034 
L 506 2506 
L 2697 2506 
L 2697 2034 
z
" transform="scale(0.015625)"/>
       </defs>
       <use xlink:href="#RobotoCondensed-Regular-2212"/>
       <use xlink:href="#RobotoCondensed-Regular-31" x="49.951172"/>
       <use xlink:href="#RobotoCondensed-Regular-30" x="99.316406"/>
      </g>
     </g>
    </g>
    <g id="ytick_2">
     <g id="line2d_15">
      <path d="M 33.053906 208.328491 
L 390.173906 208.328491 
" clip-path="url(#p19393694e9)" style="fill: none; stroke-dasharray: 3.7,1.6; stroke-dashoffset: 0; stroke: #838383; stroke-opacity: 0.33"/>
     </g>
     <g id="line2d_16">
      <g>
       <use xlink:href="#m4bc2e39ee1" x="33.053906" y="208.328491" style="fill-opacity: 0; stroke: #000000; stroke-opacity: 0; stroke-width: 1.25"/>
      </g>
     </g>
     <g id="text_8">
      <!-- −5 -->
      <g style="fill: #838383" transform="translate(12.629531 212.453491) scale(0.11 -0.11)">
       <defs>
        <path id="RobotoCondensed-Regular-35" d="M 591 2281 
L 788 4550 
L 2766 4550 
L 2766 4016 
L 1253 4016 
L 1147 2775 
Q 1428 2972 1753 2972 
Q 2284 2972 2587 2559 
Q 2891 2147 2891 1450 
Q 2891 744 2561 340 
Q 2231 -63 1656 -63 
Q 1144 -63 822 271 
Q 500 606 453 1197 
L 972 1197 
Q 1019 806 1195 607 
Q 1372 409 1656 409 
Q 1978 409 2159 689 
Q 2341 969 2341 1444 
Q 2341 1891 2145 2172 
Q 1950 2453 1619 2453 
Q 1344 2453 1178 2309 
L 1031 2163 
L 591 2281 
z
" transform="scale(0.015625)"/>
       </defs>
       <use xlink:href="#RobotoCondensed-Regular-2212"/>
       <use xlink:href="#RobotoCondensed-Regular-35" x="49.951172"/>
      </g>
     </g>
    </g>
    <g id="ytick_3">
     <g id="line2d_17">
      <path d="M 33.053906 168.927793 
L 390.173906 168.927793 
" clip-path="url(#p19393694e9)" style="fill: none; stroke-dasharray: 3.7,1.6; stroke-dashoffset: 0; stroke: #838383; stroke-opacity: 0.33"/>
     </g>
     <g id="line2d_18">
      <g>
       <use xlink:href="#m4bc2e39ee1" x="33.053906" y="168.927793" style="fill-opacity: 0; stroke: #000000; stroke-opacity: 0; stroke-width: 1.25"/>
      </g>
     </g>
     <g id="text_9">
      <!-- 0 -->
      <g style="fill: #838383" transform="translate(18.124375 173.052793) scale(0.11 -0.11)">
       <use xlink:href="#RobotoCondensed-Regular-30"/>
      </g>
     </g>
    </g>
    <g id="ytick_4">
     <g id="line2d_19">
      <path d="M 33.053906 129.527095 
L 390.173906 129.527095 
" clip-path="url(#p19393694e9)" style="fill: none; stroke-dasharray: 3.7,1.6; stroke-dashoffset: 0; stroke: #838383; stroke-opacity: 0.33"/>
     </g>
     <g id="line2d_20">
      <g>
       <use xlink:href="#m4bc2e39ee1" x="33.053906" y="129.527095" style="fill-opacity: 0; stroke: #000000; stroke-opacity: 0; stroke-width: 1.25"/>
      </g>
     </g>
     <g id="text_10">
      <!-- 5 -->
      <g style="fill: #838383" transform="translate(18.124375 133.652095) scale(0.11 -0.11)">
       <use xlink:href="#RobotoCondensed-Regular-35"/>
      </g>
     </g>
    </g>
    <g id="ytick_5">
     <g id="line2d_21">
      <path d="M 33.053906 90.126396 
L 390.173906 90.126396 
" clip-path="url(#p19393694e9)" style="fill: none; stroke-dasharray: 3.7,1.6; stroke-dashoffset: 0; stroke: #838383; stroke-opacity: 0.33"/>
     </g>
     <g id="line2d_22">
      <g>
       <use xlink:href="#m4bc2e39ee1" x="33.053906" y="90.126396" style="fill-opacity: 0; stroke: #000000; stroke-opacity: 0; stroke-width: 1.25"/>
      </g>
     </g>
     <g id="text_11">
      <!-- 10 -->
      <g style="fill: #838383" transform="translate(12.694844 94.251396) scale(0.11 -0.11)">
       <use xlink:href="#RobotoCondensed-Regular-31"/>
       <use xlink:href="#RobotoCondensed-Regular-30" x="49.365234"/>
      </g>
     </g>
    </g>
    <g id="ytick_6">
     <g id="line2d_23">
      <path d="M 33.053906 50.725698 
L 390.173906 50.725698 
" clip-path="url(#p19393694e9)" style="fill: none; stroke-dasharray: 3.7,1.6; stroke-dashoffset: 0; stroke: #838383; stroke-opacity: 0.33"/>
     </g>
     <g id="line2d_24">
      <g>
       <use xlink:href="#m4bc2e39ee1" x="33.053906" y="50.725698" style="fill-opacity: 0; stroke: #000000; stroke-opacity: 0; stroke-width: 1.25"/>
      </g>
     </g>
     <g id="text_12">
      <!-- 15 -->
      <g style="fill: #838383" transform="translate(12.694844 54.850698) scale(0.11 -0.11)">
       <use xlink:href="#RobotoCondensed-Regular-31"/>
       <use xlink:href="#RobotoCondensed-Regular-35" x="49.365234"/>
      </g>
     </g>
    </g>
    <g id="ytick_7">
     <g id="line2d_25">
      <path d="M 33.053906 11.325 
L 390.173906 11.325 
" clip-path="url(#p19393694e9)" style="fill: none; stroke-dasharray: 3.7,1.6; stroke-dashoffset: 0; stroke: #838383; stroke-opacity: 0.33"/>
     </g>
     <g id="line2d_26">
      <g>
       <use xlink:href="#m4bc2e39ee1" x="33.053906" y="11.325" style="fill-opacity: 0; stroke: #000000; stroke-opacity: 0; stroke-width: 1.25"/>
      </g>
     </g>
     <g id="text_13">
      <!-- 20 -->
      <g style="fill: #838383" transform="translate(12.694844 15.45) scale(0.11 -0.11)">
       <use xlink:href="#RobotoCondensed-Regular-32"/>
       <use xlink:href="#RobotoCondensed-Regular-30" x="49.365234"/>
      </g>
     </g>
    </g>
   </g>
   <g id="line2d_27">
    <path d="M 49.286634 116.01424 
L 49.611939 181.33093 
L 49.937244 139.278714 
L 50.262549 166.473962 
L 50.587854 178.731751 
L 50.913159 168.682456 
L 51.238464 113.385812 
L 51.56377 156.93336 
L 51.889075 129.95382 
L 52.21438 135.868513 
L 52.539685 157.379777 
L 52.86499 127.959252 
L 53.190295 199.907258 
L 53.515601 95.081461 
L 53.840906 146.603981 
L 54.166211 145.867884 
L 54.816821 175.909148 
L 55.142126 144.814365 
L 55.467431 190.245289 
L 55.792737 179.750406 
L 56.443347 122.837814 
L 56.768652 212.530901 
L 57.093957 171.005701 
L 57.419262 155.923362 
L 57.744568 223.391085 
L 58.069873 131.292035 
L 58.395178 133.684922 
L 58.720483 163.171013 
L 59.371093 143.087197 
L 59.696399 154.413648 
L 60.021704 200.145341 
L 60.347009 200.145322 
L 60.997619 127.472519 
L 61.322924 235.614163 
L 61.973535 92.249371 
L 62.29884 165.342856 
L 62.624145 195.457049 
L 62.94945 168.027487 
L 63.274755 173.691545 
L 63.60006 109.223915 
L 64.250671 197.874759 
L 64.575976 174.601493 
L 64.901281 172.799436 
L 65.226586 116.041891 
L 65.551891 118.215773 
L 65.877196 202.907664 
L 66.202502 140.074508 
L 66.527807 145.986784 
L 66.853112 148.356599 
L 67.178417 187.209808 
L 67.503722 177.721 
L 67.829027 213.433576 
L 68.154333 144.006737 
L 68.479638 186.52304 
L 69.130248 132.694339 
L 69.455553 193.634561 
L 69.780858 180.537686 
L 70.106163 187.326642 
L 70.431469 186.752459 
L 70.756774 119.950308 
L 71.082079 105.608602 
L 71.407384 138.671631 
L 71.732689 139.508468 
L 72.057994 162.65386 
L 72.3833 194.873044 
L 72.708605 140.284874 
L 73.03391 205.553436 
L 73.359215 93.817018 
L 73.68452 94.589546 
L 74.009825 214.135154 
L 74.660436 83.883704 
L 74.985741 61.067577 
L 75.311046 218.882341 
L 75.636351 128.890172 
L 75.961656 146.163885 
L 76.286961 173.558665 
L 76.612267 123.144156 
L 76.937572 185.776909 
L 77.262877 180.785334 
L 77.588182 241.053974 
L 77.913487 151.7706 
L 78.238792 113.050586 
L 78.564098 200.815569 
L 78.889403 127.521386 
L 79.214708 195.922133 
L 79.540013 142.035399 
L 79.865318 166.844603 
L 80.190623 132.149364 
L 80.515928 145.028878 
L 80.841234 176.067131 
L 81.166539 176.067125 
L 81.491844 186.25252 
L 81.817149 131.997631 
L 82.142454 145.366932 
L 82.467759 179.725382 
L 82.793065 101.23147 
L 83.11837 176.204001 
L 83.443675 154.524478 
L 83.76898 227.692672 
L 84.094285 122.693089 
L 84.41959 122.693089 
L 84.744896 151.339852 
L 85.070201 65.753715 
L 85.395506 87.621077 
L 85.720811 214.552805 
L 86.046116 147.384305 
L 86.371421 132.639911 
L 86.696726 164.250565 
L 87.022032 110.959367 
L 87.347337 199.760129 
L 87.672642 140.330511 
L 87.997947 180.857975 
L 88.323252 155.587922 
L 88.648557 200.443363 
L 88.973863 148.453023 
L 89.299168 148.453029 
L 89.624473 106.809758 
L 89.949778 190.537504 
L 90.275083 90.689337 
L 90.600388 197.036416 
L 90.925693 158.243596 
L 91.250999 196.942105 
L 91.576304 161.989406 
L 91.901609 154.194893 
L 92.226914 149.900467 
L 92.552219 92.711752 
L 92.877524 150.305705 
L 93.20283 111.064221 
L 93.528135 159.41973 
L 93.85344 186.681092 
L 94.178745 134.970464 
L 94.50405 192.544645 
L 94.829355 146.650423 
L 95.15466 168.474831 
L 95.479966 73.153686 
L 95.805271 194.50763 
L 96.455881 122.681801 
L 96.781186 173.859438 
L 97.106491 151.230712 
L 97.431797 178.163608 
L 97.757102 186.171494 
L 98.082407 159.612731 
L 98.407712 183.094977 
L 98.733017 146.091729 
L 99.058322 159.940026 
L 99.383628 119.916388 
L 99.708933 209.647032 
L 100.034238 73.971102 
L 100.359543 230.496599 
L 100.684848 127.499182 
L 101.010153 188.704056 
L 101.335458 143.760342 
L 101.660764 141.82808 
L 101.986069 163.08737 
L 102.311374 157.586313 
L 102.636679 162.317429 
L 102.961984 176.122873 
L 103.287289 176.12287 
L 103.612595 170.313526 
L 103.9379 73.134838 
L 104.263205 201.253236 
L 104.58851 146.962143 
L 104.913815 141.875979 
L 105.23912 123.89734 
L 105.564425 197.465918 
L 105.889731 149.557533 
L 106.215036 205.378109 
L 106.540341 161.588162 
L 106.865646 86.422315 
L 107.190951 151.96828 
L 107.516256 93.137587 
L 108.166867 179.815075 
L 108.492172 150.23073 
L 108.817477 155.089189 
L 109.142782 45.254632 
L 109.468087 113.06884 
L 109.793392 208.096906 
L 110.118698 155.726107 
L 110.444003 156.015957 
L 110.769308 171.528883 
L 111.094613 132.248281 
L 111.419918 195.997291 
L 111.745223 83.877053 
L 112.070529 105.618936 
L 112.395834 137.199051 
L 112.721139 210.859888 
L 113.046444 125.50428 
L 113.371749 94.359119 
L 113.697054 243.946876 
L 114.02236 132.251047 
L 114.347665 129.257254 
L 114.67297 159.752886 
L 114.998275 116.543542 
L 115.32358 127.033758 
L 115.648885 188.273674 
L 115.97419 111.876106 
L 116.299496 196.681514 
L 116.624801 168.813087 
L 116.950106 201.027344 
L 117.275411 148.735435 
L 117.926021 148.697671 
L 118.251327 97.647292 
L 118.576632 164.269346 
L 118.901937 155.971192 
L 119.227242 169.498246 
L 119.552547 146.735405 
L 119.877852 144.338619 
L 120.203157 109.287824 
L 120.528463 221.775886 
L 120.853768 142.096049 
L 121.179073 190.354914 
L 121.504378 138.022271 
L 121.829683 172.009465 
L 122.154988 149.086953 
L 122.480294 150.693585 
L 122.805599 115.74535 
L 123.130904 191.654753 
L 123.456209 149.539235 
L 123.781514 161.838289 
L 124.106819 166.273999 
L 124.432125 119.207599 
L 124.75743 153.199752 
L 125.082735 156.146726 
L 125.40804 115.401027 
L 125.733345 185.062395 
L 126.05865 107.232511 
L 126.383955 174.643578 
L 126.709261 212.67306 
L 127.034566 212.673068 
L 127.359871 196.628113 
L 127.685176 221.865109 
L 128.010481 95.64852 
L 128.335786 146.941272 
L 128.661092 95.237024 
L 128.986397 215.984031 
L 129.311702 167.507119 
L 129.637007 152.966989 
L 129.962312 188.755536 
L 130.287617 195.017288 
L 130.612922 155.382584 
L 130.938228 167.30188 
L 131.263533 163.736106 
L 131.588838 80.914801 
L 131.914143 224.963835 
L 132.564753 83.190896 
L 132.890059 206.560608 
L 133.215364 108.264397 
L 133.865974 160.2315 
L 134.191279 136.76011 
L 134.516584 87.275007 
L 134.841889 110.321787 
L 135.167195 173.759221 
L 135.4925 134.959044 
L 135.817805 186.953052 
L 136.14311 139.666559 
L 136.468415 209.095473 
L 136.79372 145.043844 
L 137.119026 176.59821 
L 137.444331 188.484606 
L 137.769636 193.233675 
L 138.420246 130.473 
L 138.745551 186.134274 
L 139.070857 163.399004 
L 139.396162 199.774885 
L 139.721467 162.792879 
L 140.046772 162.792887 
L 140.372077 175.409828 
L 140.697382 61.221689 
L 141.022687 152.940678 
L 141.673298 223.527919 
L 141.998603 195.101348 
L 142.974518 151.527119 
L 143.299824 111.183388 
L 143.625129 165.899653 
L 143.950434 94.47171 
L 144.275739 127.292499 
L 144.601044 193.095311 
L 144.926349 145.134977 
L 145.251654 156.659746 
L 145.57696 176.7734 
L 145.902265 161.818555 
L 146.22757 162.869822 
L 146.552875 187.292557 
L 146.87818 165.889429 
L 147.203485 178.841863 
L 147.528791 64.970906 
L 147.854096 207.854443 
L 148.504706 102.980719 
L 148.830011 100.753774 
L 149.155316 202.200904 
L 149.480621 81.113613 
L 149.805927 204.071905 
L 150.131232 131.857632 
L 150.456537 155.374331 
L 150.781842 67.010628 
L 151.107147 207.30311 
L 151.432452 140.799139 
L 151.757758 157.161683 
L 152.083063 100.571691 
L 152.408368 157.236084 
L 152.733673 175.22964 
L 153.058978 158.815288 
L 153.384283 165.185576 
L 154.034894 57.025971 
L 154.360199 168.098199 
L 154.685504 171.470501 
L 155.010809 130.932288 
L 155.336114 195.233208 
L 155.661419 167.853149 
L 155.986725 84.234636 
L 156.31203 81.570012 
L 156.637335 198.991465 
L 156.96264 131.133565 
L 157.287945 217.820106 
L 157.61325 152.267268 
L 157.938556 160.649103 
L 158.263861 156.933214 
L 158.589166 102.393228 
L 158.914471 208.308632 
L 159.239776 151.20415 
L 159.565081 196.808558 
L 159.890386 152.217285 
L 160.215692 171.852229 
L 160.540997 166.571112 
L 160.866302 171.015049 
L 161.191607 112.933791 
L 161.516912 184.132223 
L 161.842217 160.127709 
L 162.167523 60.467565 
L 162.492828 186.645491 
L 162.818133 151.877906 
L 163.143438 161.89706 
L 163.794048 81.627908 
L 164.119354 195.33882 
L 164.444659 158.172225 
L 164.769964 166.329234 
L 165.095269 195.430812 
L 165.420574 149.605199 
L 165.745879 165.936712 
L 166.071184 149.980596 
L 166.39649 184.728246 
L 166.721795 184.728257 
L 167.0471 160.12031 
L 167.372405 171.807715 
L 167.69771 221.378924 
L 168.023015 161.947292 
L 168.348321 131.074921 
L 168.673626 174.936961 
L 168.998931 187.147848 
L 169.324236 160.685268 
L 169.649541 203.770366 
L 169.974846 150.881509 
L 170.625457 150.881505 
L 170.950762 114.529315 
L 171.276067 57.270136 
L 171.601372 229.243 
L 171.926677 128.333162 
L 172.251982 195.451687 
L 172.577288 176.578954 
L 172.902593 139.30513 
L 173.227898 75.248824 
L 173.553203 118.352495 
L 173.878508 74.592705 
L 174.203813 220.725337 
L 174.854424 82.573794 
L 175.179729 210.220565 
L 175.505034 130.604736 
L 175.830339 160.077736 
L 176.155644 206.645142 
L 176.480949 107.415064 
L 176.806255 194.068954 
L 177.13156 172.875483 
L 177.456865 72.699925 
L 177.78217 222.955259 
L 178.107475 129.974953 
L 178.43278 127.047405 
L 178.758086 218.970962 
L 179.083391 178.317465 
L 179.408696 157.377119 
L 179.734001 167.870751 
L 180.059306 161.994677 
L 180.384611 208.236322 
L 180.709916 162.312196 
L 181.035222 170.586974 
L 181.360527 74.294228 
L 181.685832 226.37696 
L 182.011137 140.153495 
L 182.336442 180.513023 
L 182.661747 90.248028 
L 182.987053 157.004991 
L 183.312358 110.640738 
L 183.637663 150.445115 
L 183.962968 60.805519 
L 185.264189 178.893745 
L 185.589494 146.041214 
L 185.914799 186.408302 
L 186.240104 115.492948 
L 186.565409 128.953374 
L 186.890714 196.460074 
L 187.21602 161.453943 
L 187.541325 161.2115 
L 187.86663 66.647484 
L 188.191935 262.430119 
L 188.51724 106.948704 
L 188.842545 75.647372 
L 189.167851 183.299788 
L 189.493156 167.752268 
L 190.143766 188.681606 
L 190.469071 126.886038 
L 190.794376 90.19661 
L 191.119681 197.598715 
L 191.444987 145.153842 
L 191.770292 164.293144 
L 192.420902 164.29315 
L 192.746207 91.572637 
L 193.071512 180.979368 
L 193.396818 187.976073 
L 193.722123 143.727655 
L 194.372733 101.044487 
L 194.698038 144.732975 
L 195.023343 173.485072 
L 195.348648 126.526091 
L 195.673954 164.817471 
L 195.999259 102.507915 
L 196.324564 180.078278 
L 196.649869 212.235201 
L 196.975174 146.144577 
L 197.300479 201.962852 
L 197.625785 96.847191 
L 197.95109 175.26198 
L 198.276395 109.688066 
L 198.6017 178.751345 
L 198.927005 126.142318 
L 199.25231 195.622191 
L 199.577615 176.846992 
L 199.902921 76.171121 
L 200.228226 229.622685 
L 200.553531 133.710529 
L 200.878836 209.598706 
L 201.204141 193.994115 
L 201.529446 240.753881 
L 202.180057 33.661446 
L 202.830667 189.52485 
L 203.155972 179.728551 
L 203.481277 20.510119 
L 203.806583 204.464279 
L 204.131888 155.559926 
L 204.457193 89.227427 
L 204.782498 155.410457 
L 205.433108 125.577642 
L 205.758413 224.767882 
L 206.083719 53.294971 
L 206.409024 106.107788 
L 206.734329 65.370881 
L 207.059634 207.17789 
L 207.384939 67.034887 
L 207.710244 216.593234 
L 208.03555 76.286041 
L 208.360855 98.425968 
L 208.68616 108.522968 
L 209.33677 173.025066 
L 209.662075 178.596152 
L 209.98738 170.121476 
L 210.312686 90.272317 
L 210.637991 222.364911 
L 210.963296 64.888668 
L 211.288601 87.025536 
L 211.613906 214.039078 
L 211.939211 169.209858 
L 212.264517 198.049881 
L 212.589822 207.481909 
L 212.915127 143.115963 
L 213.240432 178.690714 
L 213.565737 178.690704 
L 213.891042 151.9549 
L 214.216347 186.418866 
L 214.541653 153.700581 
L 214.866958 172.933276 
L 215.192263 141.579034 
L 215.517568 209.23956 
L 215.842873 116.241575 
L 216.168178 117.34261 
L 216.493484 201.226449 
L 216.818789 152.290409 
L 217.144094 173.834861 
L 217.469399 139.946672 
L 217.794704 137.149835 
L 218.120009 215.044228 
L 218.445315 122.920432 
L 218.77062 158.202944 
L 219.095925 146.781108 
L 219.42123 150.638724 
L 219.746535 202.556232 
L 220.07184 143.995382 
L 220.397145 228.371562 
L 220.722451 138.436375 
L 221.047756 145.693824 
L 221.373061 190.676048 
L 221.698366 156.044762 
L 222.023671 140.806084 
L 222.348976 117.656692 
L 222.674282 189.575952 
L 222.999587 176.137058 
L 223.324892 200.827694 
L 223.650197 122.477977 
L 223.975502 169.711733 
L 224.300807 190.705165 
L 224.626112 157.530796 
L 224.951418 95.663309 
L 225.276723 212.120127 
L 225.602028 198.735162 
L 225.927333 155.334947 
L 226.252638 233.532792 
L 226.577943 158.486956 
L 226.903249 233.032813 
L 227.228554 165.382522 
L 227.553859 173.188415 
L 227.879164 197.987266 
L 228.204469 85.635869 
L 228.529774 183.947348 
L 228.85508 109.648717 
L 229.180385 117.750589 
L 229.50569 169.982438 
L 229.830995 131.152428 
L 230.1563 163.084308 
L 230.481605 155.624245 
L 231.132216 210.884714 
L 231.457521 159.448044 
L 231.782826 142.896643 
L 232.108131 149.749906 
L 232.433436 197.843806 
L 232.758741 140.695994 
L 233.084047 176.433801 
L 233.409352 83.898095 
L 233.734657 154.212361 
L 234.059962 137.199378 
L 234.385267 186.434531 
L 234.710572 161.034236 
L 235.035877 150.888321 
L 235.361183 218.805567 
L 235.686488 204.562012 
L 236.011793 86.28131 
L 236.337098 178.516767 
L 236.662403 181.509798 
L 237.313014 147.98542 
L 237.638319 178.633028 
L 237.963624 140.4899 
L 238.288929 177.47124 
L 238.614234 116.487487 
L 238.939539 150.822346 
L 239.264844 91.128736 
L 239.59015 133.608283 
L 239.915455 193.486897 
L 240.24076 153.05183 
L 240.566065 211.813609 
L 240.89137 141.350519 
L 241.216675 185.85177 
L 241.867286 120.897149 
L 242.192591 239.623462 
L 242.517896 142.904238 
L 242.843201 151.850155 
L 243.168506 131.570913 
L 243.493812 160.335103 
L 243.819117 174.005441 
L 244.144422 96.031436 
L 244.469727 163.756557 
L 244.795032 168.424733 
L 245.120337 129.633084 
L 245.445642 199.657171 
L 246.421558 141.46682 
L 246.746863 186.075423 
L 247.072168 125.882484 
L 247.397473 92.542144 
L 247.722779 119.689316 
L 248.048084 184.417474 
L 248.373389 136.650781 
L 248.698694 197.66255 
L 249.023999 145.387541 
L 249.674609 127.829294 
L 249.999915 196.230624 
L 250.32522 132.594107 
L 250.650525 176.645273 
L 250.97583 115.120207 
L 251.301135 189.983215 
L 251.62644 163.824162 
L 251.951746 211.71816 
L 252.277051 164.455048 
L 252.602356 143.234359 
L 252.927661 208.91743 
L 253.252966 178.65518 
L 253.578271 214.898375 
L 253.903576 143.000274 
L 254.228882 181.361651 
L 254.554187 192.011282 
L 254.879492 152.895099 
L 255.204797 172.148432 
L 255.530102 117.820949 
L 256.180713 195.995535 
L 256.506018 140.227372 
L 256.831323 181.061334 
L 257.156628 153.555145 
L 257.807238 172.987496 
L 258.132544 190.474095 
L 258.457849 161.812079 
L 258.783154 159.265943 
L 259.108459 168.886689 
L 259.433764 150.034412 
L 259.759069 221.636383 
L 260.084374 221.636372 
L 260.40968 193.318411 
L 260.734985 196.083644 
L 261.06029 174.175001 
L 261.385595 171.67133 
L 261.7109 170.202732 
L 262.036205 203.599965 
L 262.361511 204.426658 
L 262.686816 141.263988 
L 263.012121 189.88163 
L 263.337426 166.333283 
L 263.662731 171.806073 
L 263.988036 133.447231 
L 264.638647 203.561409 
L 264.963952 148.964237 
L 265.289257 146.726832 
L 265.614562 152.438325 
L 265.939867 172.083887 
L 266.265172 139.811683 
L 266.590478 187.56261 
L 266.915783 150.12328 
L 267.241088 182.832582 
L 267.566393 138.756008 
L 267.891698 187.431624 
L 268.217003 142.509687 
L 268.542309 153.804447 
L 268.867614 159.227035 
L 269.192919 148.336784 
L 269.518224 118.231927 
L 269.843529 203.661904 
L 270.168834 109.762676 
L 270.494139 182.151472 
L 270.819445 139.259542 
L 271.14475 182.722771 
L 271.470055 118.727141 
L 271.79536 160.282359 
L 272.120665 148.895365 
L 272.44597 153.77227 
L 272.771276 185.390868 
L 273.096581 154.32079 
L 273.421886 156.773787 
L 273.747191 150.06467 
L 274.072496 205.102858 
L 274.397801 144.975092 
L 274.723106 119.202707 
L 275.048412 196.606648 
L 275.373717 178.365394 
L 275.699022 148.001107 
L 276.024327 131.52105 
L 276.349632 143.765845 
L 276.674937 199.340956 
L 277.000243 133.424994 
L 277.650853 155.095984 
L 277.976158 155.987451 
L 278.301463 184.038378 
L 278.626768 157.821485 
L 278.952073 174.37219 
L 279.277379 120.893553 
L 279.602684 124.715974 
L 279.927989 137.668605 
L 280.253294 169.912955 
L 280.578599 157.128461 
L 280.903904 199.136373 
L 281.22921 152.519976 
L 281.554515 206.443726 
L 281.87982 169.393815 
L 282.205125 185.063689 
L 282.53043 143.454946 
L 282.855735 157.43175 
L 283.181041 150.308848 
L 283.506346 159.829298 
L 283.831651 131.915419 
L 284.156956 176.738836 
L 284.482261 150.638822 
L 285.132871 214.569665 
L 285.458177 127.151876 
L 285.783482 159.718988 
L 286.108787 178.207372 
L 286.434092 209.292838 
L 286.759397 147.651662 
L 287.084702 192.472855 
L 287.410008 174.306177 
L 287.735313 174.077126 
L 288.060618 164.363219 
L 288.385923 127.11713 
L 288.711228 182.364797 
L 289.036533 193.703204 
L 289.687144 167.061061 
L 290.012449 157.067806 
L 290.337754 161.305488 
L 290.663059 98.445147 
L 290.988364 144.311908 
L 291.313669 229.793183 
L 291.638975 135.529011 
L 291.96428 125.195331 
L 292.289585 182.537387 
L 292.61489 130.518504 
L 292.940195 188.969924 
L 293.2655 223.748889 
L 293.590806 142.075486 
L 293.916111 141.278695 
L 294.241416 203.498391 
L 294.566721 125.14011 
L 294.892026 183.190233 
L 295.217331 143.233963 
L 295.542636 190.51116 
L 295.867942 172.745019 
L 296.193247 238.224634 
L 296.518552 176.943235 
L 296.843857 147.210648 
L 297.169162 154.356253 
L 297.494467 175.232621 
L 297.819773 178.148381 
L 298.145078 148.760995 
L 298.470383 161.837223 
L 298.795688 193.770064 
L 299.120993 158.549409 
L 299.446298 143.396413 
L 299.771603 197.700787 
L 300.096909 178.442625 
L 300.747519 158.379974 
L 301.072824 195.338605 
L 301.398129 108.241968 
L 301.723434 142.412866 
L 302.04874 127.982594 
L 302.374045 179.315356 
L 302.69935 195.052857 
L 303.024655 134.806379 
L 303.34996 198.817531 
L 304.00057 176.988858 
L 304.325876 169.866319 
L 304.651181 130.420413 
L 304.976486 223.217828 
L 305.301791 160.954986 
L 305.627096 193.431109 
L 305.952401 155.573293 
L 306.277707 170.44838 
L 306.603012 128.323918 
L 306.928317 174.58524 
L 307.578927 129.3778 
L 307.904232 183.917492 
L 308.229538 181.643066 
L 308.554843 152.344322 
L 308.880148 167.307251 
L 309.205453 124.97645 
L 309.530758 153.22146 
L 309.856063 167.088353 
L 310.181368 197.260461 
L 310.506674 150.857259 
L 310.831979 191.137294 
L 311.157284 159.014276 
L 311.482589 169.056116 
L 311.807894 167.823096 
L 312.133199 179.841818 
L 312.458505 173.754349 
L 312.78381 221.727831 
L 313.109115 206.426415 
L 313.43442 144.826058 
L 314.08503 144.826053 
L 314.410335 94.244138 
L 314.735641 134.319901 
L 315.060946 152.846779 
L 315.386251 217.894453 
L 315.711556 134.799852 
L 316.036861 193.88942 
L 316.362166 94.788771 
L 316.687472 206.754404 
L 317.012777 115.188035 
L 317.338082 133.3735 
L 317.663387 224.378338 
L 317.988692 124.672499 
L 318.313997 182.855026 
L 318.639302 165.837051 
L 318.964608 184.780579 
L 319.289913 149.135557 
L 319.615218 157.90471 
L 319.940523 188.224495 
L 320.265828 128.928743 
L 320.591133 124.420157 
L 320.916439 171.178131 
L 321.241744 121.706971 
L 321.567049 163.966366 
L 321.892354 143.162958 
L 322.217659 211.192423 
L 322.86827 128.045574 
L 323.193575 195.071502 
L 323.51888 97.76331 
L 323.844185 178.202853 
L 324.16949 205.079629 
L 324.494795 172.555419 
L 324.8201 115.940945 
L 325.145406 157.946573 
L 325.470711 109.461587 
L 325.796016 210.30048 
L 326.121321 132.709974 
L 326.446626 161.766798 
L 326.771931 160.699624 
L 327.422542 99.545551 
L 327.747847 104.090066 
L 328.073152 209.016603 
L 328.723762 139.917454 
L 329.049067 184.185129 
L 329.374373 163.300373 
L 329.699678 162.347435 
L 330.024983 142.510271 
L 330.350288 138.744931 
L 330.675593 170.804121 
L 331.326204 180.735489 
L 331.651509 190.160134 
L 331.976814 131.308933 
L 332.302119 233.081413 
L 332.627424 117.575717 
L 332.952729 167.4721 
L 333.278035 140.60889 
L 333.60334 133.806429 
L 333.928645 91.625453 
L 334.25395 226.402579 
L 334.579255 184.235889 
L 334.90456 211.048209 
L 335.229865 136.466518 
L 335.880476 187.409336 
L 336.531086 118.642566 
L 336.856391 144.098134 
L 337.181696 199.048501 
L 337.507002 178.082603 
L 337.832307 180.979078 
L 338.157612 174.113106 
L 338.482917 131.287748 
L 338.808222 144.985378 
L 339.133527 141.801982 
L 339.458832 126.289227 
L 339.784138 190.713244 
L 340.109443 147.429951 
L 340.434748 147.429942 
L 340.760053 186.244415 
L 341.085358 86.20534 
L 341.410663 224.396836 
L 341.735969 106.996023 
L 342.061274 182.509205 
L 342.386579 207.2541 
L 342.711884 124.382766 
L 343.362494 192.986494 
L 343.687799 134.699214 
L 344.013105 155.561283 
L 344.33841 162.911199 
L 344.98902 192.388654 
L 345.314325 161.763297 
L 345.63963 148.521328 
L 346.290241 226.265286 
L 346.615546 107.854618 
L 346.940851 184.755483 
L 347.266156 189.336174 
L 347.591461 175.38285 
L 347.916767 69.122022 
L 348.242072 209.404355 
L 348.567377 207.48868 
L 348.892682 106.841039 
L 349.217987 167.847469 
L 349.868597 152.002995 
L 350.193903 199.671423 
L 350.519208 97.169664 
L 350.844513 222.543421 
L 351.169818 117.875539 
L 351.495123 128.90229 
L 351.820428 145.479926 
L 352.145734 152.563855 
L 352.471039 184.920309 
L 352.796344 138.073683 
L 353.121649 167.026028 
L 353.446954 231.576964 
L 353.772259 148.487747 
L 354.097564 186.154529 
L 354.42287 145.085541 
L 354.748175 173.412111 
L 355.07348 114.083043 
L 355.398785 152.715744 
L 355.72409 148.258338 
L 356.049395 133.676888 
L 356.374701 228.163928 
L 356.700006 158.5225 
L 357.025311 135.198802 
L 357.350616 174.073881 
L 357.675921 191.966056 
L 358.001226 125.141685 
L 358.326532 164.322418 
L 358.651837 142.488872 
L 358.977142 180.431225 
L 359.302447 130.427068 
L 359.627752 216.081006 
L 359.953057 172.385293 
L 360.278362 170.296077 
L 360.603668 154.180716 
L 360.928973 195.294837 
L 361.254278 156.436585 
L 361.579583 159.602104 
L 361.904888 139.482514 
L 362.230193 215.830006 
L 362.555499 146.389747 
L 362.880804 212.119394 
L 363.206109 127.63994 
L 363.531414 216.05364 
L 363.856719 123.68292 
L 364.182024 200.414194 
L 364.507329 202.752684 
L 364.832635 155.207508 
L 365.15794 125.253614 
L 365.483245 205.334165 
L 365.80855 132.951645 
L 366.133855 134.423786 
L 366.45916 127.510617 
L 366.784466 140.721453 
L 367.109771 165.185386 
L 367.435076 159.322803 
L 367.760381 187.08249 
L 368.085686 178.792972 
L 368.410991 132.182009 
L 368.736296 182.38514 
L 369.061602 131.743264 
L 369.386907 188.082844 
L 370.037517 121.369641 
L 370.362822 125.908719 
L 370.688127 151.139881 
L 371.013433 140.216594 
L 371.338738 229.023417 
L 371.664043 137.676098 
L 371.989348 150.302826 
L 372.314653 212.049872 
L 372.639958 219.511222 
L 372.965264 123.809774 
L 373.290569 96.449027 
L 373.615874 182.043527 
L 373.941179 149.458732 
L 373.941179 149.458732 
" clip-path="url(#p19393694e9)" style="fill: none; stroke: #2196f3; stroke-width: 1.5; stroke-linecap: round"/>
   </g>
   <g id="patch_3">
    <path d="M 33.053906 274.526119 
L 33.053906 8.414119 
" style="fill: none"/>
   </g>
   <g id="patch_4">
    <path d="M 390.173906 274.526119 
L 390.173906 8.414119 
" style="fill: none"/>
   </g>
   <g id="patch_5">
    <path d="M 33.053906 274.526119 
L 390.173906 274.526119 
" style="fill: none"/>
   </g>
   <g id="patch_6">
    <path d="M 33.053906 8.414119 
L 390.173906 8.414119 
" style="fill: none"/>
   </g>
  </g>
 </g>
 <defs>
  <clipPath id="p19393694e9">
   <rect x="33.053906" y="8.414119" width="357.12" height="266.112"/>
  </clipPath>
 </defs>
</svg>
