<?xml version="1.0" encoding="utf-8" standalone="no"?>
<!DOCTYPE svg PUBLIC "-//W3C//DTD SVG 1.1//EN"
  "http://www.w3.org/Graphics/SVG/1.1/DTD/svg11.dtd">
<svg xmlns:xlink="http://www.w3.org/1999/xlink" width="853.790366pt" height="286.197344pt" viewBox="0 0 853.790366 286.197344" xmlns="http://www.w3.org/2000/svg" version="1.1">
 <metadata>
  <rdf:RDF xmlns:dc="http://purl.org/dc/elements/1.1/" xmlns:cc="http://creativecommons.org/ns#" xmlns:rdf="http://www.w3.org/1999/02/22-rdf-syntax-ns#">
   <cc:Work>
    <dc:type rdf:resource="http://purl.org/dc/dcmitype/StillImage"/>
    <dc:date>2023-09-21T13:18:10.021624</dc:date>
    <dc:format>image/svg+xml</dc:format>
    <dc:creator>
     <cc:Agent>
      <dc:title>Matplotlib v3.8.0, https://matplotlib.org/</dc:title>
     </cc:Agent>
    </dc:creator>
   </cc:Work>
  </rdf:RDF>
 </metadata>
 <defs>
  <style type="text/css">*{stroke-linejoin: round; stroke-linecap: butt}</style>
 </defs>
 <g id="figure_1">
  <g id="patch_1">
   <path d="M 0 286.197344 
L 853.790366 286.197344 
L 853.790366 0 
L 0 0 
L 0 286.197344 
z
" style="fill: none"/>
  </g>
  <g id="axes_1">
   <g id="patch_2">
    <path d="M 63.181562 240.48 
L 292.946268 240.48 
L 292.946268 18.72 
L 63.181562 18.72 
L 63.181562 240.48 
z
" style="fill: none"/>
   </g>
   <g id="matplotlib.axis_1">
    <g id="xtick_1">
     <g id="line2d_1">
      <path d="M 73.625413 240.48 
L 73.625413 18.72 
" clip-path="url(#pe3bce4d5c7)" style="fill: none; stroke-dasharray: 3.7,1.6; stroke-dashoffset: 0; stroke: #838383; stroke-opacity: 0.33"/>
     </g>
     <g id="text_1">
      <!-- 0 -->
      <g style="fill: #838383" transform="translate(70.566897 257.853594) scale(0.11 -0.11)">
       <defs>
        <path id="ArialMT-30" d="M 266 2259 
Q 266 3072 433 3567 
Q 600 4063 929 4331 
Q 1259 4600 1759 4600 
Q 2128 4600 2406 4451 
Q 2684 4303 2865 4023 
Q 3047 3744 3150 3342 
Q 3253 2941 3253 2259 
Q 3253 1453 3087 958 
Q 2922 463 2592 192 
Q 2263 -78 1759 -78 
Q 1097 -78 719 397 
Q 266 969 266 2259 
z
M 844 2259 
Q 844 1131 1108 757 
Q 1372 384 1759 384 
Q 2147 384 2411 759 
Q 2675 1134 2675 2259 
Q 2675 3391 2411 3762 
Q 2147 4134 1753 4134 
Q 1366 4134 1134 3806 
Q 844 3388 844 2259 
z
" transform="scale(0.015625)"/>
       </defs>
       <use xlink:href="#ArialMT-30"/>
      </g>
     </g>
    </g>
    <g id="xtick_2">
     <g id="line2d_2">
      <path d="M 115.484532 240.48 
L 115.484532 18.72 
" clip-path="url(#pe3bce4d5c7)" style="fill: none; stroke-dasharray: 3.7,1.6; stroke-dashoffset: 0; stroke: #838383; stroke-opacity: 0.33"/>
     </g>
     <g id="text_2">
      <!-- 200 -->
      <g style="fill: #838383" transform="translate(106.308985 257.853594) scale(0.11 -0.11)">
       <defs>
        <path id="ArialMT-32" d="M 3222 541 
L 3222 0 
L 194 0 
Q 188 203 259 391 
Q 375 700 629 1000 
Q 884 1300 1366 1694 
Q 2113 2306 2375 2664 
Q 2638 3022 2638 3341 
Q 2638 3675 2398 3904 
Q 2159 4134 1775 4134 
Q 1369 4134 1125 3890 
Q 881 3647 878 3216 
L 300 3275 
Q 359 3922 746 4261 
Q 1134 4600 1788 4600 
Q 2447 4600 2831 4234 
Q 3216 3869 3216 3328 
Q 3216 3053 3103 2787 
Q 2991 2522 2730 2228 
Q 2469 1934 1863 1422 
Q 1356 997 1212 845 
Q 1069 694 975 541 
L 3222 541 
z
" transform="scale(0.015625)"/>
       </defs>
       <use xlink:href="#ArialMT-32"/>
       <use xlink:href="#ArialMT-30" x="55.615234"/>
       <use xlink:href="#ArialMT-30" x="111.230469"/>
      </g>
     </g>
    </g>
    <g id="xtick_3">
     <g id="line2d_3">
      <path d="M 157.343651 240.48 
L 157.343651 18.72 
" clip-path="url(#pe3bce4d5c7)" style="fill: none; stroke-dasharray: 3.7,1.6; stroke-dashoffset: 0; stroke: #838383; stroke-opacity: 0.33"/>
     </g>
     <g id="text_3">
      <!-- 400 -->
      <g style="fill: #838383" transform="translate(148.168105 257.853594) scale(0.11 -0.11)">
       <defs>
        <path id="ArialMT-34" d="M 2069 0 
L 2069 1097 
L 81 1097 
L 81 1613 
L 2172 4581 
L 2631 4581 
L 2631 1613 
L 3250 1613 
L 3250 1097 
L 2631 1097 
L 2631 0 
L 2069 0 
z
M 2069 1613 
L 2069 3678 
L 634 1613 
L 2069 1613 
z
" transform="scale(0.015625)"/>
       </defs>
       <use xlink:href="#ArialMT-34"/>
       <use xlink:href="#ArialMT-30" x="55.615234"/>
       <use xlink:href="#ArialMT-30" x="111.230469"/>
      </g>
     </g>
    </g>
    <g id="xtick_4">
     <g id="line2d_4">
      <path d="M 199.202771 240.48 
L 199.202771 18.72 
" clip-path="url(#pe3bce4d5c7)" style="fill: none; stroke-dasharray: 3.7,1.6; stroke-dashoffset: 0; stroke: #838383; stroke-opacity: 0.33"/>
     </g>
     <g id="text_4">
      <!-- 600 -->
      <g style="fill: #838383" transform="translate(190.027224 257.853594) scale(0.11 -0.11)">
       <defs>
        <path id="ArialMT-36" d="M 3184 3459 
L 2625 3416 
Q 2550 3747 2413 3897 
Q 2184 4138 1850 4138 
Q 1581 4138 1378 3988 
Q 1113 3794 959 3422 
Q 806 3050 800 2363 
Q 1003 2672 1297 2822 
Q 1591 2972 1913 2972 
Q 2475 2972 2870 2558 
Q 3266 2144 3266 1488 
Q 3266 1056 3080 686 
Q 2894 316 2569 119 
Q 2244 -78 1831 -78 
Q 1128 -78 684 439 
Q 241 956 241 2144 
Q 241 3472 731 4075 
Q 1159 4600 1884 4600 
Q 2425 4600 2770 4297 
Q 3116 3994 3184 3459 
z
M 888 1484 
Q 888 1194 1011 928 
Q 1134 663 1356 523 
Q 1578 384 1822 384 
Q 2178 384 2434 671 
Q 2691 959 2691 1453 
Q 2691 1928 2437 2201 
Q 2184 2475 1800 2475 
Q 1419 2475 1153 2201 
Q 888 1928 888 1484 
z
" transform="scale(0.015625)"/>
       </defs>
       <use xlink:href="#ArialMT-36"/>
       <use xlink:href="#ArialMT-30" x="55.615234"/>
       <use xlink:href="#ArialMT-30" x="111.230469"/>
      </g>
     </g>
    </g>
    <g id="xtick_5">
     <g id="line2d_5">
      <path d="M 241.06189 240.48 
L 241.06189 18.72 
" clip-path="url(#pe3bce4d5c7)" style="fill: none; stroke-dasharray: 3.7,1.6; stroke-dashoffset: 0; stroke: #838383; stroke-opacity: 0.33"/>
     </g>
     <g id="text_5">
      <!-- 800 -->
      <g style="fill: #838383" transform="translate(231.886343 257.853594) scale(0.11 -0.11)">
       <defs>
        <path id="ArialMT-38" d="M 1131 2484 
Q 781 2613 612 2850 
Q 444 3088 444 3419 
Q 444 3919 803 4259 
Q 1163 4600 1759 4600 
Q 2359 4600 2725 4251 
Q 3091 3903 3091 3403 
Q 3091 3084 2923 2848 
Q 2756 2613 2416 2484 
Q 2838 2347 3058 2040 
Q 3278 1734 3278 1309 
Q 3278 722 2862 322 
Q 2447 -78 1769 -78 
Q 1091 -78 675 323 
Q 259 725 259 1325 
Q 259 1772 486 2073 
Q 713 2375 1131 2484 
z
M 1019 3438 
Q 1019 3113 1228 2906 
Q 1438 2700 1772 2700 
Q 2097 2700 2305 2904 
Q 2513 3109 2513 3406 
Q 2513 3716 2298 3927 
Q 2084 4138 1766 4138 
Q 1444 4138 1231 3931 
Q 1019 3725 1019 3438 
z
M 838 1322 
Q 838 1081 952 856 
Q 1066 631 1291 507 
Q 1516 384 1775 384 
Q 2178 384 2440 643 
Q 2703 903 2703 1303 
Q 2703 1709 2433 1975 
Q 2163 2241 1756 2241 
Q 1359 2241 1098 1978 
Q 838 1716 838 1322 
z
" transform="scale(0.015625)"/>
       </defs>
       <use xlink:href="#ArialMT-38"/>
       <use xlink:href="#ArialMT-30" x="55.615234"/>
       <use xlink:href="#ArialMT-30" x="111.230469"/>
      </g>
     </g>
    </g>
    <g id="xtick_6">
     <g id="line2d_6">
      <path d="M 282.921009 240.48 
L 282.921009 18.72 
" clip-path="url(#pe3bce4d5c7)" style="fill: none; stroke-dasharray: 3.7,1.6; stroke-dashoffset: 0; stroke: #838383; stroke-opacity: 0.33"/>
     </g>
     <g id="text_6">
      <!-- 1000 -->
      <g style="fill: #838383" transform="translate(270.686947 257.853594) scale(0.11 -0.11)">
       <defs>
        <path id="ArialMT-31" d="M 2384 0 
L 1822 0 
L 1822 3584 
Q 1619 3391 1289 3197 
Q 959 3003 697 2906 
L 697 3450 
Q 1169 3672 1522 3987 
Q 1875 4303 2022 4600 
L 2384 4600 
L 2384 0 
z
" transform="scale(0.015625)"/>
       </defs>
       <use xlink:href="#ArialMT-31"/>
       <use xlink:href="#ArialMT-30" x="55.615234"/>
       <use xlink:href="#ArialMT-30" x="111.230469"/>
       <use xlink:href="#ArialMT-30" x="166.845703"/>
      </g>
     </g>
    </g>
    <g id="text_7">
     <!-- Draw -->
     <g style="fill: #bdbdbd" transform="translate(163.39204 276.629219) scale(0.12 -0.12)">
      <defs>
       <path id="Arial-BoldMT-44" d="M 463 4581 
L 2153 4581 
Q 2725 4581 3025 4494 
Q 3428 4375 3715 4072 
Q 4003 3769 4153 3330 
Q 4303 2891 4303 2247 
Q 4303 1681 4163 1272 
Q 3991 772 3672 463 
Q 3431 228 3022 97 
Q 2716 0 2203 0 
L 463 0 
L 463 4581 
z
M 1388 3806 
L 1388 772 
L 2078 772 
Q 2466 772 2638 816 
Q 2863 872 3011 1006 
Q 3159 1141 3253 1448 
Q 3347 1756 3347 2288 
Q 3347 2819 3253 3103 
Q 3159 3388 2990 3547 
Q 2822 3706 2563 3763 
Q 2369 3806 1803 3806 
L 1388 3806 
z
" transform="scale(0.015625)"/>
       <path id="Arial-BoldMT-72" d="M 1300 0 
L 422 0 
L 422 3319 
L 1238 3319 
L 1238 2847 
Q 1447 3181 1614 3287 
Q 1781 3394 1994 3394 
Q 2294 3394 2572 3228 
L 2300 2463 
Q 2078 2606 1888 2606 
Q 1703 2606 1575 2504 
Q 1447 2403 1373 2137 
Q 1300 1872 1300 1025 
L 1300 0 
z
" transform="scale(0.015625)"/>
       <path id="Arial-BoldMT-61" d="M 1116 2306 
L 319 2450 
Q 453 2931 781 3162 
Q 1109 3394 1756 3394 
Q 2344 3394 2631 3255 
Q 2919 3116 3036 2902 
Q 3153 2688 3153 2116 
L 3144 1091 
Q 3144 653 3186 445 
Q 3228 238 3344 0 
L 2475 0 
Q 2441 88 2391 259 
Q 2369 338 2359 363 
Q 2134 144 1878 34 
Q 1622 -75 1331 -75 
Q 819 -75 523 203 
Q 228 481 228 906 
Q 228 1188 362 1408 
Q 497 1628 739 1745 
Q 981 1863 1438 1950 
Q 2053 2066 2291 2166 
L 2291 2253 
Q 2291 2506 2166 2614 
Q 2041 2722 1694 2722 
Q 1459 2722 1328 2630 
Q 1197 2538 1116 2306 
z
M 2291 1594 
Q 2122 1538 1756 1459 
Q 1391 1381 1278 1306 
Q 1106 1184 1106 997 
Q 1106 813 1243 678 
Q 1381 544 1594 544 
Q 1831 544 2047 700 
Q 2206 819 2256 991 
Q 2291 1103 2291 1419 
L 2291 1594 
z
" transform="scale(0.015625)"/>
       <path id="Arial-BoldMT-77" d="M 1078 0 
L 28 3319 
L 881 3319 
L 1503 1144 
L 2075 3319 
L 2922 3319 
L 3475 1144 
L 4109 3319 
L 4975 3319 
L 3909 0 
L 3066 0 
L 2494 2134 
L 1931 0 
L 1078 0 
z
" transform="scale(0.015625)"/>
      </defs>
      <use xlink:href="#Arial-BoldMT-44"/>
      <use xlink:href="#Arial-BoldMT-72" x="72.216797"/>
      <use xlink:href="#Arial-BoldMT-61" x="111.132812"/>
      <use xlink:href="#Arial-BoldMT-77" x="166.748047"/>
     </g>
    </g>
   </g>
   <g id="matplotlib.axis_2">
    <g id="ytick_1">
     <g id="line2d_7">
      <path d="M 63.181562 224.456283 
L 292.946268 224.456283 
" clip-path="url(#pe3bce4d5c7)" style="fill: none; stroke-dasharray: 3.7,1.6; stroke-dashoffset: 0; stroke: #838383; stroke-opacity: 0.33"/>
     </g>
     <g id="text_8">
      <!-- 0.900 -->
      <g style="fill: #838383" transform="translate(26.1575 228.393079) scale(0.11 -0.11)">
       <defs>
        <path id="ArialMT-2e" d="M 581 0 
L 581 641 
L 1222 641 
L 1222 0 
L 581 0 
z
" transform="scale(0.015625)"/>
        <path id="ArialMT-39" d="M 350 1059 
L 891 1109 
Q 959 728 1153 556 
Q 1347 384 1650 384 
Q 1909 384 2104 503 
Q 2300 622 2425 820 
Q 2550 1019 2634 1356 
Q 2719 1694 2719 2044 
Q 2719 2081 2716 2156 
Q 2547 1888 2255 1720 
Q 1963 1553 1622 1553 
Q 1053 1553 659 1965 
Q 266 2378 266 3053 
Q 266 3750 677 4175 
Q 1088 4600 1706 4600 
Q 2153 4600 2523 4359 
Q 2894 4119 3086 3673 
Q 3278 3228 3278 2384 
Q 3278 1506 3087 986 
Q 2897 466 2520 194 
Q 2144 -78 1638 -78 
Q 1100 -78 759 220 
Q 419 519 350 1059 
z
M 2653 3081 
Q 2653 3566 2395 3850 
Q 2138 4134 1775 4134 
Q 1400 4134 1122 3828 
Q 844 3522 844 3034 
Q 844 2597 1108 2323 
Q 1372 2050 1759 2050 
Q 2150 2050 2401 2323 
Q 2653 2597 2653 3081 
z
" transform="scale(0.015625)"/>
       </defs>
       <use xlink:href="#ArialMT-30"/>
       <use xlink:href="#ArialMT-2e" x="55.615234"/>
       <use xlink:href="#ArialMT-39" x="83.398438"/>
       <use xlink:href="#ArialMT-30" x="139.013672"/>
       <use xlink:href="#ArialMT-30" x="194.628906"/>
      </g>
     </g>
    </g>
    <g id="ytick_2">
     <g id="line2d_8">
      <path d="M 63.181562 178.22757 
L 292.946268 178.22757 
" clip-path="url(#pe3bce4d5c7)" style="fill: none; stroke-dasharray: 3.7,1.6; stroke-dashoffset: 0; stroke: #838383; stroke-opacity: 0.33"/>
     </g>
     <g id="text_9">
      <!-- 0.905 -->
      <g style="fill: #838383" transform="translate(26.1575 182.164367) scale(0.11 -0.11)">
       <defs>
        <path id="ArialMT-35" d="M 266 1200 
L 856 1250 
Q 922 819 1161 601 
Q 1400 384 1738 384 
Q 2144 384 2425 690 
Q 2706 997 2706 1503 
Q 2706 1984 2436 2262 
Q 2166 2541 1728 2541 
Q 1456 2541 1237 2417 
Q 1019 2294 894 2097 
L 366 2166 
L 809 4519 
L 3088 4519 
L 3088 3981 
L 1259 3981 
L 1013 2750 
Q 1425 3038 1878 3038 
Q 2478 3038 2890 2622 
Q 3303 2206 3303 1553 
Q 3303 931 2941 478 
Q 2500 -78 1738 -78 
Q 1113 -78 717 272 
Q 322 622 266 1200 
z
" transform="scale(0.015625)"/>
       </defs>
       <use xlink:href="#ArialMT-30"/>
       <use xlink:href="#ArialMT-2e" x="55.615234"/>
       <use xlink:href="#ArialMT-39" x="83.398438"/>
       <use xlink:href="#ArialMT-30" x="139.013672"/>
       <use xlink:href="#ArialMT-35" x="194.628906"/>
      </g>
     </g>
    </g>
    <g id="ytick_3">
     <g id="line2d_9">
      <path d="M 63.181562 131.998858 
L 292.946268 131.998858 
" clip-path="url(#pe3bce4d5c7)" style="fill: none; stroke-dasharray: 3.7,1.6; stroke-dashoffset: 0; stroke: #838383; stroke-opacity: 0.33"/>
     </g>
     <g id="text_10">
      <!-- 0.910 -->
      <g style="fill: #838383" transform="translate(26.1575 135.935655) scale(0.11 -0.11)">
       <use xlink:href="#ArialMT-30"/>
       <use xlink:href="#ArialMT-2e" x="55.615234"/>
       <use xlink:href="#ArialMT-39" x="83.398438"/>
       <use xlink:href="#ArialMT-31" x="139.013672"/>
       <use xlink:href="#ArialMT-30" x="194.628906"/>
      </g>
     </g>
    </g>
    <g id="ytick_4">
     <g id="line2d_10">
      <path d="M 63.181562 85.770146 
L 292.946268 85.770146 
" clip-path="url(#pe3bce4d5c7)" style="fill: none; stroke-dasharray: 3.7,1.6; stroke-dashoffset: 0; stroke: #838383; stroke-opacity: 0.33"/>
     </g>
     <g id="text_11">
      <!-- 0.915 -->
      <g style="fill: #838383" transform="translate(26.1575 89.706943) scale(0.11 -0.11)">
       <use xlink:href="#ArialMT-30"/>
       <use xlink:href="#ArialMT-2e" x="55.615234"/>
       <use xlink:href="#ArialMT-39" x="83.398438"/>
       <use xlink:href="#ArialMT-31" x="139.013672"/>
       <use xlink:href="#ArialMT-35" x="194.628906"/>
      </g>
     </g>
    </g>
    <g id="ytick_5">
     <g id="line2d_11">
      <path d="M 63.181562 39.541434 
L 292.946268 39.541434 
" clip-path="url(#pe3bce4d5c7)" style="fill: none; stroke-dasharray: 3.7,1.6; stroke-dashoffset: 0; stroke: #838383; stroke-opacity: 0.33"/>
     </g>
     <g id="text_12">
      <!-- 0.920 -->
      <g style="fill: #838383" transform="translate(26.1575 43.478231) scale(0.11 -0.11)">
       <use xlink:href="#ArialMT-30"/>
       <use xlink:href="#ArialMT-2e" x="55.615234"/>
       <use xlink:href="#ArialMT-39" x="83.398438"/>
       <use xlink:href="#ArialMT-32" x="139.013672"/>
       <use xlink:href="#ArialMT-30" x="194.628906"/>
      </g>
     </g>
    </g>
    <g id="text_13">
     <!-- plaqs -->
     <g style="fill: #bdbdbd" transform="translate(15.789375 145.269375) rotate(-90) scale(0.12 -0.12)">
      <defs>
       <path id="Arial-BoldMT-70" d="M 434 3319 
L 1253 3319 
L 1253 2831 
Q 1413 3081 1684 3237 
Q 1956 3394 2288 3394 
Q 2866 3394 3269 2941 
Q 3672 2488 3672 1678 
Q 3672 847 3265 386 
Q 2859 -75 2281 -75 
Q 2006 -75 1782 34 
Q 1559 144 1313 409 
L 1313 -1263 
L 434 -1263 
L 434 3319 
z
M 1303 1716 
Q 1303 1156 1525 889 
Q 1747 622 2066 622 
Q 2372 622 2575 867 
Q 2778 1113 2778 1672 
Q 2778 2194 2568 2447 
Q 2359 2700 2050 2700 
Q 1728 2700 1515 2451 
Q 1303 2203 1303 1716 
z
" transform="scale(0.015625)"/>
       <path id="Arial-BoldMT-6c" d="M 459 0 
L 459 4581 
L 1338 4581 
L 1338 0 
L 459 0 
z
" transform="scale(0.015625)"/>
       <path id="Arial-BoldMT-71" d="M 2628 -1263 
L 2628 406 
Q 2456 184 2200 54 
Q 1944 -75 1647 -75 
Q 1081 -75 716 350 
Q 284 847 284 1697 
Q 284 2497 689 2945 
Q 1094 3394 1694 3394 
Q 2025 3394 2267 3253 
Q 2509 3113 2697 2828 
L 2697 3319 
L 3506 3319 
L 3506 -1263 
L 2628 -1263 
z
M 2656 1700 
Q 2656 2209 2448 2457 
Q 2241 2706 1928 2706 
Q 1609 2706 1395 2453 
Q 1181 2200 1181 1650 
Q 1181 1103 1387 861 
Q 1594 619 1897 619 
Q 2200 619 2428 891 
Q 2656 1163 2656 1700 
z
" transform="scale(0.015625)"/>
       <path id="Arial-BoldMT-73" d="M 150 947 
L 1031 1081 
Q 1088 825 1259 692 
Q 1431 559 1741 559 
Q 2081 559 2253 684 
Q 2369 772 2369 919 
Q 2369 1019 2306 1084 
Q 2241 1147 2013 1200 
Q 950 1434 666 1628 
Q 272 1897 272 2375 
Q 272 2806 612 3100 
Q 953 3394 1669 3394 
Q 2350 3394 2681 3172 
Q 3013 2950 3138 2516 
L 2309 2363 
Q 2256 2556 2107 2659 
Q 1959 2763 1684 2763 
Q 1338 2763 1188 2666 
Q 1088 2597 1088 2488 
Q 1088 2394 1175 2328 
Q 1294 2241 1995 2081 
Q 2697 1922 2975 1691 
Q 3250 1456 3250 1038 
Q 3250 581 2869 253 
Q 2488 -75 1741 -75 
Q 1063 -75 667 200 
Q 272 475 150 947 
z
" transform="scale(0.015625)"/>
      </defs>
      <use xlink:href="#Arial-BoldMT-70"/>
      <use xlink:href="#Arial-BoldMT-6c" x="61.083984"/>
      <use xlink:href="#Arial-BoldMT-61" x="88.867188"/>
      <use xlink:href="#Arial-BoldMT-71" x="144.482422"/>
      <use xlink:href="#Arial-BoldMT-73" x="205.566406"/>
     </g>
    </g>
   </g>
   <g id="line2d_12">
    <path d="M 73.625413 115.218501 
L 73.834708 119.440946 
L 74.462595 160.762716 
L 74.881186 150.570322 
L 76.13696 109.138885 
L 76.555551 109.138885 
L 77.392734 127.256493 
L 77.183438 93.67422 
L 77.602029 116.195031 
L 78.02062 116.19448 
L 78.439211 120.316627 
L 78.648507 113.117198 
L 78.857803 113.117198 
L 79.904281 102.143359 
L 80.741463 161.053691 
L 81.160054 151.351215 
L 81.578645 82.200543 
L 81.997237 118.695323 
L 82.206532 193.976862 
L 83.043715 148.470672 
L 83.671601 148.470672 
L 84.090193 156.388721 
L 84.299488 138.639241 
L 84.508784 138.638689 
L 84.927375 156.971223 
L 85.555262 156.561212 
L 85.764557 148.858087 
L 85.973853 185.469698 
L 86.60174 168.43002 
L 86.811035 118.779639 
L 87.438922 164.545392 
L 88.4854 164.545944 
L 89.322583 193.015211 
L 89.531878 166.435077 
L 90.787652 95.089968 
L 91.206243 95.089968 
L 91.415538 127.045977 
L 92.252721 107.040888 
L 92.671312 106.848007 
L 93.299199 124.29494 
L 93.508494 113.887069 
L 93.71779 91.003091 
L 94.554972 102.370958 
L 94.764268 102.370958 
L 96.020042 181.94438 
L 97.275815 94.282071 
L 97.694406 133.300839 
L 98.740884 190.863759 
L 98.95018 163.460298 
L 99.368771 108.251631 
L 99.787362 167.222033 
L 99.996658 167.221482 
L 100.415249 107.462472 
L 101.043136 142.725567 
L 101.252432 142.725016 
L 102.508205 80.530743 
L 102.717501 142.726669 
L 103.554683 106.730625 
L 103.973274 106.730625 
L 104.601161 107.752344 
L 105.647639 98.540889 
L 106.694117 194.438675 
L 106.903413 134.457025 
L 107.740595 156.038229 
L 108.577777 103.726087 
L 108.787073 138.457381 
L 109.41496 157.655124 
L 110.042847 118.69918 
L 110.461438 118.69918 
L 110.670733 150.803983 
L 111.089325 94.250108 
L 111.29862 94.250659 
L 112.135803 94.250659 
L 113.182281 113.370148 
L 113.391576 113.987919 
L 113.600872 110.825769 
L 114.019463 72.163004 
L 114.228758 162.952194 
L 115.065941 109.746736 
L 115.275236 109.746736 
L 115.484532 136.500463 
L 115.693828 98.278019 
L 116.112419 112.967853 
L 116.321714 112.967853 
L 117.368192 77.90866 
L 117.996079 108.404834 
L 118.205375 94.930152 
L 119.251853 28.8 
L 119.670444 62.902501 
L 119.87974 62.902501 
L 120.716922 74.345318 
L 120.926218 69.424091 
L 121.7634 69.424091 
L 122.391287 125.966944 
L 123.019174 105.75134 
L 123.228469 63.357701 
L 123.856356 104.930768 
L 124.902834 97.259055 
L 125.11213 97.259055 
L 126.577199 154.437314 
L 127.205085 90.558362 
L 127.832972 112.707738 
L 128.251563 119.121315 
L 128.460859 110.921658 
L 128.670155 113.452811 
L 130.344519 52.952035 
L 130.763111 116.077098 
L 131.390997 114.681189 
L 132.018884 114.966102 
L 132.22818 144.284047 
L 132.437475 114.098688 
L 133.065362 140.126079 
L 133.902545 140.126079 
L 134.11184 165.745114 
L 134.321136 125.146924 
L 134.530431 125.146924 
L 135.576909 34.179733 
L 136.414092 114.420524 
L 136.623387 107.086629 
L 137.669865 87.792996 
L 137.879161 97.875173 
L 138.088457 86.996121 
L 138.507048 86.996121 
L 138.925639 86.996121 
L 140.390708 161.090614 
L 141.646482 131.410604 
L 142.065073 131.410604 
L 143.530142 141.15386 
L 144.785916 112.113664 
L 145.832394 230.4 
L 146.041689 175.848783 
L 146.250985 178.292312 
L 147.297463 132.597099 
L 147.92535 153.897798 
L 148.343941 109.643683 
L 148.971828 139.270789 
L 150.018306 112.324731 
L 150.227601 112.324731 
L 151.274079 164.55917 
L 152.739148 48.580244 
L 153.994922 48.580244 
L 155.250695 158.572137 
L 155.878582 153.006136 
L 156.506469 95.345122 
L 156.92506 105.891867 
L 157.134356 105.891867 
L 157.971538 72.747159 
L 158.180834 100.653765 
L 159.018016 88.545233 
L 161.738859 88.545233 
L 161.948155 165.543415 
L 162.785337 121.623259 
L 162.994632 121.623259 
L 163.203928 116.821619 
L 163.413224 154.322688 
L 164.250406 129.603031 
L 164.668997 129.603031 
L 165.087588 133.311861 
L 165.296884 124.384767 
L 166.134066 124.384767 
L 166.971249 112.60248 
L 167.38984 132.206927 
L 167.599136 81.41469 
L 167.808431 81.414139 
L 169.692092 205.072492 
L 170.110683 161.851668 
L 170.319978 163.870859 
L 170.529274 207.823529 
L 171.157161 171.887003 
L 171.366456 171.887003 
L 171.994343 223.985873 
L 172.203639 176.227932 
L 172.412934 176.227932 
L 173.668708 118.41592 
L 174.087299 108.621412 
L 174.924481 162.190588 
L 175.133777 162.189486 
L 175.552368 134.65211 
L 175.761664 188.59768 
L 175.970959 162.572493 
L 176.389551 168.852706 
L 176.808142 201.569769 
L 177.017437 194.154313 
L 178.063915 147.115543 
L 178.273211 158.516477 
L 179.110393 153.836076 
L 179.528985 153.836076 
L 180.366167 118.447884 
L 181.412645 174.515698 
L 182.040532 128.148156 
L 182.249827 185.630616 
L 182.459123 166.404767 
L 183.296305 138.746152 
L 182.877714 169.842462 
L 183.505601 150.903731 
L 183.924192 180.941398 
L 184.133488 139.104911 
L 184.552079 162.025262 
L 185.179966 104.274421 
L 186.017148 151.774451 
L 186.85433 107.475147 
L 187.063626 109.624394 
L 187.482217 109.625497 
L 188.737991 144.199179 
L 188.947286 144.199179 
L 190.412356 77.946685 
L 192.08672 130.250561 
L 192.505312 112.534145 
L 193.55179 92.645336 
L 193.761085 91.044422 
L 194.388972 81.366745 
L 194.598268 94.867328 
L 194.807563 94.867328 
L 195.016859 84.002053 
L 195.854041 85.303175 
L 196.691224 85.302624 
L 197.109815 82.014826 
L 197.737702 119.094311 
L 197.946997 119.09376 
L 198.993475 56.254161 
L 199.412066 108.964741 
L 200.039953 94.88882 
L 200.249249 94.88882 
L 201.714318 48.546077 
L 201.923613 48.546077 
L 202.342205 138.707024 
L 202.970091 102.865837 
L 203.388683 102.865837 
L 204.016569 86.353551 
L 204.853752 149.940427 
L 205.272343 130.759216 
L 205.481639 130.759216 
L 205.690934 127.291212 
L 206.318821 172.115154 
L 206.737412 141.839415 
L 207.78389 117.033789 
L 207.993186 122.21568 
L 208.411777 93.301133 
L 208.830368 140.822656 
L 210.714029 110.157849 
L 210.923324 132.249912 
L 211.13262 81.85005 
L 211.551211 120.580048 
L 212.806984 56.925939 
L 214.272054 56.925939 
L 215.318532 77.902047 
L 215.527827 77.902047 
L 216.155714 106.547112 
L 216.574305 97.871315 
L 216.992896 97.871315 
L 217.411488 86.360715 
L 217.830079 88.501697 
L 218.039374 142.669356 
L 218.24867 55.800615 
L 218.667261 55.800615 
L 219.295148 55.800615 
L 219.713739 86.683102 
L 220.550922 82.776982 
L 220.760217 82.776982 
L 222.434582 148.530189 
L 222.643878 155.10799 
L 222.853173 132.619142 
L 223.48106 132.619693 
L 224.736833 106.587893 
L 225.992607 152.309559 
L 227.248381 97.067276 
L 228.294859 97.066725 
L 228.504154 90.551197 
L 228.71345 112.810792 
L 228.922745 112.811894 
L 229.341337 64.737077 
L 229.969223 76.044877 
L 231.015701 76.417413 
L 232.271475 123.508536 
L 231.643588 75.367588 
L 232.690066 110.184852 
L 233.94584 65.896018 
L 234.364431 64.585528 
L 234.783022 86.526042 
L 235.410909 75.210528 
L 236.457387 40.10835 
L 237.085274 40.10835 
L 238.341047 109.579756 
L 239.596821 46.744015 
L 240.643299 64.26259 
L 241.271186 64.26259 
L 242.526959 79.179472 
L 242.736255 79.179472 
L 243.154846 114.010513 
L 244.201324 105.275199 
L 244.829211 105.275199 
L 245.875689 74.747062 
L 246.712871 74.747062 
L 247.131462 118.15746 
L 247.759349 90.949084 
L 249.433714 90.949084 
L 250.061601 81.728811 
L 250.689487 152.081408 
L 251.317374 136.661932 
L 251.945261 133.745017 
L 252.363852 156.015083 
L 252.573148 127.178239 
L 252.782443 127.177687 
L 253.201035 125.47372 
L 253.828921 139.411316 
L 254.875399 99.39177 
L 255.293991 124.822883 
L 255.712582 105.007369 
L 256.131173 105.007369 
L 256.340469 83.689586 
L 257.177651 98.085138 
L 257.386947 98.085138 
L 258.224129 79.304018 
L 258.852016 120.577292 
L 259.270607 94.985812 
L 259.898494 94.98471 
L 260.52638 95.600277 
L 261.363563 76.120376 
L 262.619336 76.120376 
L 263.456519 105.003512 
L 263.665814 83.673053 
L 263.87511 68.017711 
L 264.084406 101.01087 
L 264.502997 83.207934 
L 269.526091 83.207934 
L 271.409751 138.980365 
L 271.828343 111.413781 
L 272.246934 129.460299 
L 272.456229 143.424899 
L 272.874821 117.748 
L 273.502707 107.558361 
L 273.921299 148.289363 
L 274.33989 96.798896 
L 275.386368 99.985844 
L 275.595663 99.985844 
L 276.642141 170.361037 
L 276.851437 115.773448 
L 277.897915 67.148093 
L 278.525802 70.240805 
L 279.57228 152.467171 
L 279.990871 152.467722 
L 281.246645 71.961857 
L 282.293123 64.811474 
L 282.502418 64.811474 
L 282.502418 64.811474 
" clip-path="url(#pe3bce4d5c7)" style="fill: none; stroke: #2196f3; stroke-width: 1.5; stroke-linecap: round"/>
   </g>
   <g id="patch_3">
    <path d="M 63.181562 240.48 
L 63.181562 18.72 
" style="fill: none"/>
   </g>
   <g id="patch_4">
    <path d="M 292.946268 240.48 
L 292.946268 18.72 
" style="fill: none"/>
   </g>
   <g id="patch_5">
    <path d="M 63.181562 240.48 
L 292.946268 240.48 
" style="fill: none"/>
   </g>
   <g id="patch_6">
    <path d="M 63.181562 18.72 
L 292.946268 18.72 
" style="fill: none"/>
   </g>
  </g>
  <g id="axes_2">
   <g id="patch_7">
    <path d="M 338.89921 240.48 
L 568.663915 240.48 
L 568.663915 18.72 
L 338.89921 18.72 
L 338.89921 240.48 
z
" style="fill: none"/>
   </g>
   <g id="matplotlib.axis_3">
    <g id="xtick_7">
     <g id="line2d_13">
      <path d="M 349.34306 240.48 
L 349.34306 18.72 
" clip-path="url(#pebacb92acc)" style="fill: none; stroke-dasharray: 3.7,1.6; stroke-dashoffset: 0; stroke: #838383; stroke-opacity: 0.33"/>
     </g>
     <g id="text_14">
      <!-- 0 -->
      <g style="fill: #838383" transform="translate(346.284544 257.853594) scale(0.11 -0.11)">
       <use xlink:href="#ArialMT-30"/>
      </g>
     </g>
    </g>
    <g id="xtick_8">
     <g id="line2d_14">
      <path d="M 391.202179 240.48 
L 391.202179 18.72 
" clip-path="url(#pebacb92acc)" style="fill: none; stroke-dasharray: 3.7,1.6; stroke-dashoffset: 0; stroke: #838383; stroke-opacity: 0.33"/>
     </g>
     <g id="text_15">
      <!-- 200 -->
      <g style="fill: #838383" transform="translate(382.026632 257.853594) scale(0.11 -0.11)">
       <use xlink:href="#ArialMT-32"/>
       <use xlink:href="#ArialMT-30" x="55.615234"/>
       <use xlink:href="#ArialMT-30" x="111.230469"/>
      </g>
     </g>
    </g>
    <g id="xtick_9">
     <g id="line2d_15">
      <path d="M 433.061298 240.48 
L 433.061298 18.72 
" clip-path="url(#pebacb92acc)" style="fill: none; stroke-dasharray: 3.7,1.6; stroke-dashoffset: 0; stroke: #838383; stroke-opacity: 0.33"/>
     </g>
     <g id="text_16">
      <!-- 400 -->
      <g style="fill: #838383" transform="translate(423.885752 257.853594) scale(0.11 -0.11)">
       <use xlink:href="#ArialMT-34"/>
       <use xlink:href="#ArialMT-30" x="55.615234"/>
       <use xlink:href="#ArialMT-30" x="111.230469"/>
      </g>
     </g>
    </g>
    <g id="xtick_10">
     <g id="line2d_16">
      <path d="M 474.920418 240.48 
L 474.920418 18.72 
" clip-path="url(#pebacb92acc)" style="fill: none; stroke-dasharray: 3.7,1.6; stroke-dashoffset: 0; stroke: #838383; stroke-opacity: 0.33"/>
     </g>
     <g id="text_17">
      <!-- 600 -->
      <g style="fill: #838383" transform="translate(465.744871 257.853594) scale(0.11 -0.11)">
       <use xlink:href="#ArialMT-36"/>
       <use xlink:href="#ArialMT-30" x="55.615234"/>
       <use xlink:href="#ArialMT-30" x="111.230469"/>
      </g>
     </g>
    </g>
    <g id="xtick_11">
     <g id="line2d_17">
      <path d="M 516.779537 240.48 
L 516.779537 18.72 
" clip-path="url(#pebacb92acc)" style="fill: none; stroke-dasharray: 3.7,1.6; stroke-dashoffset: 0; stroke: #838383; stroke-opacity: 0.33"/>
     </g>
     <g id="text_18">
      <!-- 800 -->
      <g style="fill: #838383" transform="translate(507.60399 257.853594) scale(0.11 -0.11)">
       <use xlink:href="#ArialMT-38"/>
       <use xlink:href="#ArialMT-30" x="55.615234"/>
       <use xlink:href="#ArialMT-30" x="111.230469"/>
      </g>
     </g>
    </g>
    <g id="xtick_12">
     <g id="line2d_18">
      <path d="M 558.638656 240.48 
L 558.638656 18.72 
" clip-path="url(#pebacb92acc)" style="fill: none; stroke-dasharray: 3.7,1.6; stroke-dashoffset: 0; stroke: #838383; stroke-opacity: 0.33"/>
     </g>
     <g id="text_19">
      <!-- 1000 -->
      <g style="fill: #838383" transform="translate(546.404594 257.853594) scale(0.11 -0.11)">
       <use xlink:href="#ArialMT-31"/>
       <use xlink:href="#ArialMT-30" x="55.615234"/>
       <use xlink:href="#ArialMT-30" x="111.230469"/>
       <use xlink:href="#ArialMT-30" x="166.845703"/>
      </g>
     </g>
    </g>
    <g id="text_20">
     <!-- Draw -->
     <g style="fill: #bdbdbd" transform="translate(439.109688 276.629219) scale(0.12 -0.12)">
      <use xlink:href="#Arial-BoldMT-44"/>
      <use xlink:href="#Arial-BoldMT-72" x="72.216797"/>
      <use xlink:href="#Arial-BoldMT-61" x="111.132812"/>
      <use xlink:href="#Arial-BoldMT-77" x="166.748047"/>
     </g>
    </g>
   </g>
   <g id="matplotlib.axis_4">
    <g id="ytick_6">
     <g id="line2d_19">
      <path d="M 338.89921 230.399922 
L 568.663915 230.399922 
" clip-path="url(#pebacb92acc)" style="fill: none; stroke-dasharray: 3.7,1.6; stroke-dashoffset: 0; stroke: #838383; stroke-opacity: 0.33"/>
     </g>
     <g id="text_21">
      <!-- −1.0 -->
      <g style="fill: #838383" transform="translate(307.684522 234.336719) scale(0.11 -0.11)">
       <defs>
        <path id="ArialMT-2212" d="M 3381 1997 
L 356 1997 
L 356 2522 
L 3381 2522 
L 3381 1997 
z
" transform="scale(0.015625)"/>
       </defs>
       <use xlink:href="#ArialMT-2212"/>
       <use xlink:href="#ArialMT-31" x="58.398438"/>
       <use xlink:href="#ArialMT-2e" x="114.013672"/>
       <use xlink:href="#ArialMT-30" x="141.796875"/>
      </g>
     </g>
    </g>
    <g id="ytick_7">
     <g id="line2d_20">
      <path d="M 338.89921 205.19995 
L 568.663915 205.19995 
" clip-path="url(#pebacb92acc)" style="fill: none; stroke-dasharray: 3.7,1.6; stroke-dashoffset: 0; stroke: #838383; stroke-opacity: 0.33"/>
     </g>
     <g id="text_22">
      <!-- −0.5 -->
      <g style="fill: #838383" transform="translate(307.684522 209.136747) scale(0.11 -0.11)">
       <use xlink:href="#ArialMT-2212"/>
       <use xlink:href="#ArialMT-30" x="58.398438"/>
       <use xlink:href="#ArialMT-2e" x="114.013672"/>
       <use xlink:href="#ArialMT-35" x="141.796875"/>
      </g>
     </g>
    </g>
    <g id="ytick_8">
     <g id="line2d_21">
      <path d="M 338.89921 179.999977 
L 568.663915 179.999977 
" clip-path="url(#pebacb92acc)" style="fill: none; stroke-dasharray: 3.7,1.6; stroke-dashoffset: 0; stroke: #838383; stroke-opacity: 0.33"/>
     </g>
     <g id="text_23">
      <!-- 0.0 -->
      <g style="fill: #838383" transform="translate(314.10921 183.936774) scale(0.11 -0.11)">
       <use xlink:href="#ArialMT-30"/>
       <use xlink:href="#ArialMT-2e" x="55.615234"/>
       <use xlink:href="#ArialMT-30" x="83.398438"/>
      </g>
     </g>
    </g>
    <g id="ytick_9">
     <g id="line2d_22">
      <path d="M 338.89921 154.800005 
L 568.663915 154.800005 
" clip-path="url(#pebacb92acc)" style="fill: none; stroke-dasharray: 3.7,1.6; stroke-dashoffset: 0; stroke: #838383; stroke-opacity: 0.33"/>
     </g>
     <g id="text_24">
      <!-- 0.5 -->
      <g style="fill: #838383" transform="translate(314.10921 158.736802) scale(0.11 -0.11)">
       <use xlink:href="#ArialMT-30"/>
       <use xlink:href="#ArialMT-2e" x="55.615234"/>
       <use xlink:href="#ArialMT-35" x="83.398438"/>
      </g>
     </g>
    </g>
    <g id="ytick_10">
     <g id="line2d_23">
      <path d="M 338.89921 129.600033 
L 568.663915 129.600033 
" clip-path="url(#pebacb92acc)" style="fill: none; stroke-dasharray: 3.7,1.6; stroke-dashoffset: 0; stroke: #838383; stroke-opacity: 0.33"/>
     </g>
     <g id="text_25">
      <!-- 1.0 -->
      <g style="fill: #838383" transform="translate(314.10921 133.53683) scale(0.11 -0.11)">
       <use xlink:href="#ArialMT-31"/>
       <use xlink:href="#ArialMT-2e" x="55.615234"/>
       <use xlink:href="#ArialMT-30" x="83.398438"/>
      </g>
     </g>
    </g>
    <g id="ytick_11">
     <g id="line2d_24">
      <path d="M 338.89921 104.400061 
L 568.663915 104.400061 
" clip-path="url(#pebacb92acc)" style="fill: none; stroke-dasharray: 3.7,1.6; stroke-dashoffset: 0; stroke: #838383; stroke-opacity: 0.33"/>
     </g>
     <g id="text_26">
      <!-- 1.5 -->
      <g style="fill: #838383" transform="translate(314.10921 108.336858) scale(0.11 -0.11)">
       <use xlink:href="#ArialMT-31"/>
       <use xlink:href="#ArialMT-2e" x="55.615234"/>
       <use xlink:href="#ArialMT-35" x="83.398438"/>
      </g>
     </g>
    </g>
    <g id="ytick_12">
     <g id="line2d_25">
      <path d="M 338.89921 79.200089 
L 568.663915 79.200089 
" clip-path="url(#pebacb92acc)" style="fill: none; stroke-dasharray: 3.7,1.6; stroke-dashoffset: 0; stroke: #838383; stroke-opacity: 0.33"/>
     </g>
     <g id="text_27">
      <!-- 2.0 -->
      <g style="fill: #838383" transform="translate(314.10921 83.136885) scale(0.11 -0.11)">
       <use xlink:href="#ArialMT-32"/>
       <use xlink:href="#ArialMT-2e" x="55.615234"/>
       <use xlink:href="#ArialMT-30" x="83.398438"/>
      </g>
     </g>
    </g>
    <g id="ytick_13">
     <g id="line2d_26">
      <path d="M 338.89921 54.000116 
L 568.663915 54.000116 
" clip-path="url(#pebacb92acc)" style="fill: none; stroke-dasharray: 3.7,1.6; stroke-dashoffset: 0; stroke: #838383; stroke-opacity: 0.33"/>
     </g>
     <g id="text_28">
      <!-- 2.5 -->
      <g style="fill: #838383" transform="translate(314.10921 57.936913) scale(0.11 -0.11)">
       <use xlink:href="#ArialMT-32"/>
       <use xlink:href="#ArialMT-2e" x="55.615234"/>
       <use xlink:href="#ArialMT-35" x="83.398438"/>
      </g>
     </g>
    </g>
    <g id="ytick_14">
     <g id="line2d_27">
      <path d="M 338.89921 28.800144 
L 568.663915 28.800144 
" clip-path="url(#pebacb92acc)" style="fill: none; stroke-dasharray: 3.7,1.6; stroke-dashoffset: 0; stroke: #838383; stroke-opacity: 0.33"/>
     </g>
     <g id="text_29">
      <!-- 3.0 -->
      <g style="fill: #838383" transform="translate(314.10921 32.736941) scale(0.11 -0.11)">
       <defs>
        <path id="ArialMT-33" d="M 269 1209 
L 831 1284 
Q 928 806 1161 595 
Q 1394 384 1728 384 
Q 2125 384 2398 659 
Q 2672 934 2672 1341 
Q 2672 1728 2419 1979 
Q 2166 2231 1775 2231 
Q 1616 2231 1378 2169 
L 1441 2663 
Q 1497 2656 1531 2656 
Q 1891 2656 2178 2843 
Q 2466 3031 2466 3422 
Q 2466 3731 2256 3934 
Q 2047 4138 1716 4138 
Q 1388 4138 1169 3931 
Q 950 3725 888 3313 
L 325 3413 
Q 428 3978 793 4289 
Q 1159 4600 1703 4600 
Q 2078 4600 2393 4439 
Q 2709 4278 2876 4000 
Q 3044 3722 3044 3409 
Q 3044 3113 2884 2869 
Q 2725 2625 2413 2481 
Q 2819 2388 3044 2092 
Q 3269 1797 3269 1353 
Q 3269 753 2831 336 
Q 2394 -81 1725 -81 
Q 1122 -81 723 278 
Q 325 638 269 1209 
z
" transform="scale(0.015625)"/>
       </defs>
       <use xlink:href="#ArialMT-33"/>
       <use xlink:href="#ArialMT-2e" x="55.615234"/>
       <use xlink:href="#ArialMT-30" x="83.398438"/>
      </g>
     </g>
    </g>
    <g id="text_30">
     <!-- intQ -->
     <g style="fill: #bdbdbd" transform="translate(297.316397 141.59625) rotate(-90) scale(0.12 -0.12)">
      <defs>
       <path id="Arial-BoldMT-69" d="M 459 3769 
L 459 4581 
L 1338 4581 
L 1338 3769 
L 459 3769 
z
M 459 0 
L 459 3319 
L 1338 3319 
L 1338 0 
L 459 0 
z
" transform="scale(0.015625)"/>
       <path id="Arial-BoldMT-6e" d="M 3478 0 
L 2600 0 
L 2600 1694 
Q 2600 2231 2544 2389 
Q 2488 2547 2361 2634 
Q 2234 2722 2056 2722 
Q 1828 2722 1647 2597 
Q 1466 2472 1398 2265 
Q 1331 2059 1331 1503 
L 1331 0 
L 453 0 
L 453 3319 
L 1269 3319 
L 1269 2831 
Q 1703 3394 2363 3394 
Q 2653 3394 2893 3289 
Q 3134 3184 3257 3021 
Q 3381 2859 3429 2653 
Q 3478 2447 3478 2063 
L 3478 0 
z
" transform="scale(0.015625)"/>
       <path id="Arial-BoldMT-74" d="M 1981 3319 
L 1981 2619 
L 1381 2619 
L 1381 1281 
Q 1381 875 1398 808 
Q 1416 741 1477 697 
Q 1538 653 1625 653 
Q 1747 653 1978 738 
L 2053 56 
Q 1747 -75 1359 -75 
Q 1122 -75 931 4 
Q 741 84 652 211 
Q 563 338 528 553 
Q 500 706 500 1172 
L 500 2619 
L 97 2619 
L 97 3319 
L 500 3319 
L 500 3978 
L 1381 4491 
L 1381 3319 
L 1981 3319 
z
" transform="scale(0.015625)"/>
       <path id="Arial-BoldMT-51" d="M 4153 581 
Q 4494 338 4894 194 
L 4553 -459 
Q 4344 -397 4144 -288 
Q 4100 -266 3528 119 
Q 3078 -78 2531 -78 
Q 1475 -78 876 544 
Q 278 1166 278 2291 
Q 278 3413 878 4036 
Q 1478 4659 2506 4659 
Q 3525 4659 4122 4036 
Q 4719 3413 4719 2291 
Q 4719 1697 4553 1247 
Q 4428 903 4153 581 
z
M 3409 1103 
Q 3588 1313 3677 1609 
Q 3766 1906 3766 2291 
Q 3766 3084 3416 3476 
Q 3066 3869 2500 3869 
Q 1934 3869 1582 3475 
Q 1231 3081 1231 2291 
Q 1231 1488 1582 1089 
Q 1934 691 2472 691 
Q 2672 691 2850 756 
Q 2569 941 2278 1044 
L 2538 1572 
Q 2994 1416 3409 1103 
z
" transform="scale(0.015625)"/>
      </defs>
      <use xlink:href="#Arial-BoldMT-69"/>
      <use xlink:href="#Arial-BoldMT-6e" x="27.783203"/>
      <use xlink:href="#Arial-BoldMT-74" x="88.867188"/>
      <use xlink:href="#Arial-BoldMT-51" x="122.167969"/>
     </g>
    </g>
   </g>
   <g id="line2d_28">
    <path d="M 349.34306 179.999961 
L 369.644733 179.999993 
L 370.691211 129.600045 
L 386.38838 129.600036 
L 387.434858 179.999974 
L 398.736821 179.999993 
L 399.783299 230.399898 
L 409.620192 230.399841 
L 410.66667 179.999928 
L 453.781563 179.999966 
L 454.82804 129.599961 
L 455.874518 129.600027 
L 456.920996 180.000001 
L 457.130292 180.000001 
L 458.17677 129.600036 
L 459.641839 129.600009 
L 460.688317 79.200077 
L 464.664934 79.200065 
L 465.711412 129.599985 
L 468.222959 129.600015 
L 469.269437 79.200041 
L 507.361235 79.200077 
L 508.407713 28.800144 
L 528.081499 28.800144 
L 529.127977 79.200077 
L 558.220065 79.200017 
L 558.220065 79.200017 
" clip-path="url(#pebacb92acc)" style="fill: none; stroke: #2196f3; stroke-width: 1.5; stroke-linecap: round"/>
   </g>
   <g id="patch_8">
    <path d="M 338.89921 240.48 
L 338.89921 18.72 
" style="fill: none"/>
   </g>
   <g id="patch_9">
    <path d="M 568.663915 240.48 
L 568.663915 18.72 
" style="fill: none"/>
   </g>
   <g id="patch_10">
    <path d="M 338.89921 240.48 
L 568.663915 240.48 
" style="fill: none"/>
   </g>
   <g id="patch_11">
    <path d="M 338.89921 18.72 
L 568.663915 18.72 
" style="fill: none"/>
   </g>
  </g>
  <g id="axes_3">
   <g id="patch_12">
    <path d="M 614.616857 240.48 
L 844.381563 240.48 
L 844.381563 18.72 
L 614.616857 18.72 
L 614.616857 240.48 
z
" style="fill: none"/>
   </g>
   <g id="matplotlib.axis_5">
    <g id="xtick_13">
     <g id="line2d_29">
      <path d="M 625.060707 240.48 
L 625.060707 18.72 
" clip-path="url(#p35b179deb3)" style="fill: none; stroke-dasharray: 3.7,1.6; stroke-dashoffset: 0; stroke: #838383; stroke-opacity: 0.33"/>
     </g>
     <g id="text_31">
      <!-- 0 -->
      <g style="fill: #838383" transform="translate(622.002191 257.853594) scale(0.11 -0.11)">
       <use xlink:href="#ArialMT-30"/>
      </g>
     </g>
    </g>
    <g id="xtick_14">
     <g id="line2d_30">
      <path d="M 666.919826 240.48 
L 666.919826 18.72 
" clip-path="url(#p35b179deb3)" style="fill: none; stroke-dasharray: 3.7,1.6; stroke-dashoffset: 0; stroke: #838383; stroke-opacity: 0.33"/>
     </g>
     <g id="text_32">
      <!-- 200 -->
      <g style="fill: #838383" transform="translate(657.744279 257.853594) scale(0.11 -0.11)">
       <use xlink:href="#ArialMT-32"/>
       <use xlink:href="#ArialMT-30" x="55.615234"/>
       <use xlink:href="#ArialMT-30" x="111.230469"/>
      </g>
     </g>
    </g>
    <g id="xtick_15">
     <g id="line2d_31">
      <path d="M 708.778946 240.48 
L 708.778946 18.72 
" clip-path="url(#p35b179deb3)" style="fill: none; stroke-dasharray: 3.7,1.6; stroke-dashoffset: 0; stroke: #838383; stroke-opacity: 0.33"/>
     </g>
     <g id="text_33">
      <!-- 400 -->
      <g style="fill: #838383" transform="translate(699.603399 257.853594) scale(0.11 -0.11)">
       <use xlink:href="#ArialMT-34"/>
       <use xlink:href="#ArialMT-30" x="55.615234"/>
       <use xlink:href="#ArialMT-30" x="111.230469"/>
      </g>
     </g>
    </g>
    <g id="xtick_16">
     <g id="line2d_32">
      <path d="M 750.638065 240.48 
L 750.638065 18.72 
" clip-path="url(#p35b179deb3)" style="fill: none; stroke-dasharray: 3.7,1.6; stroke-dashoffset: 0; stroke: #838383; stroke-opacity: 0.33"/>
     </g>
     <g id="text_34">
      <!-- 600 -->
      <g style="fill: #838383" transform="translate(741.462518 257.853594) scale(0.11 -0.11)">
       <use xlink:href="#ArialMT-36"/>
       <use xlink:href="#ArialMT-30" x="55.615234"/>
       <use xlink:href="#ArialMT-30" x="111.230469"/>
      </g>
     </g>
    </g>
    <g id="xtick_17">
     <g id="line2d_33">
      <path d="M 792.497184 240.48 
L 792.497184 18.72 
" clip-path="url(#p35b179deb3)" style="fill: none; stroke-dasharray: 3.7,1.6; stroke-dashoffset: 0; stroke: #838383; stroke-opacity: 0.33"/>
     </g>
     <g id="text_35">
      <!-- 800 -->
      <g style="fill: #838383" transform="translate(783.321637 257.853594) scale(0.11 -0.11)">
       <use xlink:href="#ArialMT-38"/>
       <use xlink:href="#ArialMT-30" x="55.615234"/>
       <use xlink:href="#ArialMT-30" x="111.230469"/>
      </g>
     </g>
    </g>
    <g id="xtick_18">
     <g id="line2d_34">
      <path d="M 834.356303 240.48 
L 834.356303 18.72 
" clip-path="url(#p35b179deb3)" style="fill: none; stroke-dasharray: 3.7,1.6; stroke-dashoffset: 0; stroke: #838383; stroke-opacity: 0.33"/>
     </g>
     <g id="text_36">
      <!-- 1000 -->
      <g style="fill: #838383" transform="translate(822.122241 257.853594) scale(0.11 -0.11)">
       <use xlink:href="#ArialMT-31"/>
       <use xlink:href="#ArialMT-30" x="55.615234"/>
       <use xlink:href="#ArialMT-30" x="111.230469"/>
       <use xlink:href="#ArialMT-30" x="166.845703"/>
      </g>
     </g>
    </g>
    <g id="text_37">
     <!-- Draw -->
     <g style="fill: #bdbdbd" transform="translate(714.827335 276.629219) scale(0.12 -0.12)">
      <use xlink:href="#Arial-BoldMT-44"/>
      <use xlink:href="#Arial-BoldMT-72" x="72.216797"/>
      <use xlink:href="#Arial-BoldMT-61" x="111.132812"/>
      <use xlink:href="#Arial-BoldMT-77" x="166.748047"/>
     </g>
    </g>
   </g>
   <g id="matplotlib.axis_6">
    <g id="ytick_15">
     <g id="line2d_35">
      <path d="M 614.616857 213.523377 
L 844.381563 213.523377 
" clip-path="url(#p35b179deb3)" style="fill: none; stroke-dasharray: 3.7,1.6; stroke-dashoffset: 0; stroke: #838383; stroke-opacity: 0.33"/>
     </g>
     <g id="text_38">
      <!-- −1 -->
      <g style="fill: #838383" transform="translate(592.575138 217.460174) scale(0.11 -0.11)">
       <use xlink:href="#ArialMT-2212"/>
       <use xlink:href="#ArialMT-31" x="58.398438"/>
      </g>
     </g>
    </g>
    <g id="ytick_16">
     <g id="line2d_36">
      <path d="M 614.616857 167.838894 
L 844.381563 167.838894 
" clip-path="url(#p35b179deb3)" style="fill: none; stroke-dasharray: 3.7,1.6; stroke-dashoffset: 0; stroke: #838383; stroke-opacity: 0.33"/>
     </g>
     <g id="text_39">
      <!-- 0 -->
      <g style="fill: #838383" transform="translate(598.999825 171.775691) scale(0.11 -0.11)">
       <use xlink:href="#ArialMT-30"/>
      </g>
     </g>
    </g>
    <g id="ytick_17">
     <g id="line2d_37">
      <path d="M 614.616857 122.15441 
L 844.381563 122.15441 
" clip-path="url(#p35b179deb3)" style="fill: none; stroke-dasharray: 3.7,1.6; stroke-dashoffset: 0; stroke: #838383; stroke-opacity: 0.33"/>
     </g>
     <g id="text_40">
      <!-- 1 -->
      <g style="fill: #838383" transform="translate(598.999825 126.091207) scale(0.11 -0.11)">
       <use xlink:href="#ArialMT-31"/>
      </g>
     </g>
    </g>
    <g id="ytick_18">
     <g id="line2d_38">
      <path d="M 614.616857 76.469926 
L 844.381563 76.469926 
" clip-path="url(#p35b179deb3)" style="fill: none; stroke-dasharray: 3.7,1.6; stroke-dashoffset: 0; stroke: #838383; stroke-opacity: 0.33"/>
     </g>
     <g id="text_41">
      <!-- 2 -->
      <g style="fill: #838383" transform="translate(598.999825 80.406723) scale(0.11 -0.11)">
       <use xlink:href="#ArialMT-32"/>
      </g>
     </g>
    </g>
    <g id="ytick_19">
     <g id="line2d_39">
      <path d="M 614.616857 30.785443 
L 844.381563 30.785443 
" clip-path="url(#p35b179deb3)" style="fill: none; stroke-dasharray: 3.7,1.6; stroke-dashoffset: 0; stroke: #838383; stroke-opacity: 0.33"/>
     </g>
     <g id="text_42">
      <!-- 3 -->
      <g style="fill: #838383" transform="translate(598.999825 34.72224) scale(0.11 -0.11)">
       <use xlink:href="#ArialMT-33"/>
      </g>
     </g>
    </g>
    <g id="text_43">
     <!-- sinQ -->
     <g style="fill: #bdbdbd" transform="translate(582.207013 142.935) rotate(-90) scale(0.12 -0.12)">
      <use xlink:href="#Arial-BoldMT-73"/>
      <use xlink:href="#Arial-BoldMT-69" x="55.615234"/>
      <use xlink:href="#Arial-BoldMT-6e" x="83.398438"/>
      <use xlink:href="#Arial-BoldMT-51" x="144.482422"/>
     </g>
    </g>
   </g>
   <g id="line2d_40">
    <path d="M 625.060707 159.975747 
L 625.270002 170.33524 
L 625.897889 167.827654 
L 626.31648 151.40977 
L 626.735072 177.834711 
L 626.944367 157.28481 
L 627.990845 155.828868 
L 629.246619 191.641638 
L 629.455914 191.641638 
L 630.293097 169.721159 
L 630.711688 176.075577 
L 631.339575 176.075577 
L 631.967462 169.248918 
L 632.176757 170.977686 
L 632.595348 178.258145 
L 633.01394 172.183134 
L 633.432531 161.125793 
L 633.641826 173.450057 
L 633.851122 171.392012 
L 635.525487 181.786112 
L 636.990556 162.448666 
L 637.409147 171.945764 
L 637.827738 162.609271 
L 638.037034 157.872962 
L 638.664921 187.659202 
L 639.083512 163.918803 
L 639.920694 163.918803 
L 640.967172 154.904316 
L 641.595059 186.872903 
L 642.01365 173.852534 
L 642.641537 173.8525 
L 642.850833 159.650172 
L 643.688015 162.058529 
L 643.897311 162.05844 
L 644.315902 180.225687 
L 644.943789 170.20774 
L 646.408858 117.146407 
L 646.827449 121.099185 
L 647.24604 116.296971 
L 647.455336 129.170476 
L 647.664631 121.422057 
L 647.873927 132.555936 
L 648.083223 121.187617 
L 648.501814 121.187617 
L 648.711109 121.187617 
L 649.1297 126.765592 
L 649.757587 110.539427 
L 649.966883 134.397525 
L 650.176178 118.27468 
L 650.385474 131.909252 
L 651.013361 124.950331 
L 651.431952 114.949654 
L 651.641248 134.107702 
L 651.850543 134.107691 
L 652.687726 119.59597 
L 653.106317 131.150219 
L 653.943499 130.480533 
L 654.36209 120.646343 
L 654.989977 128.154897 
L 655.408568 128.154919 
L 656.036455 131.347898 
L 657.082933 125.208083 
L 657.71082 126.663114 
L 657.920116 119.572667 
L 658.129411 149.482986 
L 658.966594 134.730701 
L 660.013072 115.092503 
L 660.850254 135.66206 
L 661.896732 132.196121 
L 662.106027 124.783675 
L 663.361801 173.839779 
L 663.571097 173.839779 
L 664.82687 165.68851 
L 665.036166 162.559998 
L 665.245461 184.695628 
L 665.664053 160.681996 
L 666.082644 179.820889 
L 666.710531 159.059711 
L 667.129122 174.619207 
L 667.338417 162.015831 
L 667.966304 162.669186 
L 668.594191 160.15222 
L 669.012782 176.063684 
L 669.640669 159.774737 
L 669.849965 177.504788 
L 670.268556 165.676095 
L 670.687147 165.676095 
L 671.315034 169.060743 
L 671.733625 167.007698 
L 671.942921 167.007698 
L 672.152216 152.810162 
L 672.361512 195.379061 
L 673.198694 195.379026 
L 674.035876 164.567925 
L 674.245172 176.234055 
L 674.454468 176.233963 
L 675.710241 218.740556 
L 676.966015 218.568963 
L 677.593902 193.002638 
L 677.803197 222.16311 
L 678.012493 222.163071 
L 678.221788 208.510615 
L 679.058971 218.593448 
L 679.268266 218.593448 
L 680.733336 191.36323 
L 681.361222 219.863339 
L 681.779814 210.115828 
L 682.198405 202.824373 
L 682.826292 207.394095 
L 683.454178 208.072347 
L 683.663474 210.821751 
L 683.87277 203.132438 
L 684.082065 230.4 
L 684.291361 182.770046 
L 684.919247 217.727276 
L 685.337839 217.727276 
L 685.547134 163.217935 
L 686.384317 174.704986 
L 687.012203 174.704993 
L 688.267977 152.85111 
L 689.105159 152.851096 
L 689.314455 169.557457 
L 690.151637 165.40776 
L 690.360933 165.40776 
L 691.198115 178.160956 
L 691.407411 173.134504 
L 691.826002 148.66606 
L 692.244593 172.803651 
L 692.453889 172.803651 
L 693.500367 177.495231 
L 693.709663 173.966411 
L 694.546845 174.868256 
L 694.965436 174.868256 
L 695.174732 185.666604 
L 695.384027 169.525316 
L 695.593323 169.525371 
L 696.430505 163.224881 
L 697.686279 174.24725 
L 698.10487 176.768228 
L 698.732757 155.553611 
L 699.360644 160.085575 
L 699.98853 172.408135 
L 700.407122 163.218084 
L 701.4536 157.427189 
L 701.662895 157.427189 
L 701.872191 184.683379 
L 702.500078 162.982829 
L 702.709373 162.982749 
L 703.755851 180.2689 
L 704.383738 174.276526 
L 705.639512 173.585964 
L 705.848807 168.183779 
L 706.267398 189.256217 
L 706.68599 170.29282 
L 706.895285 172.617824 
L 707.313876 163.603689 
L 707.941763 188.976737 
L 708.151059 163.100628 
L 708.56965 163.100579 
L 709.616128 174.469844 
L 710.662606 164.795109 
L 713.174153 164.795109 
L 713.592744 158.742499 
L 714.429927 182.264369 
L 714.639222 164.21541 
L 715.476405 172.04898 
L 716.104291 172.04898 
L 716.522883 175.484769 
L 717.569361 153.608603 
L 719.243725 170.579298 
L 719.453021 168.081511 
L 719.662317 173.260019 
L 720.080908 172.007587 
L 720.708795 178.456366 
L 720.91809 168.804945 
L 721.127386 162.416099 
L 721.336681 172.987151 
L 721.755272 163.380033 
L 721.964568 174.908297 
L 722.80175 170.351042 
L 723.220342 170.413043 
L 724.057524 161.441843 
L 724.26682 161.754244 
L 724.476115 162.257261 
L 724.685411 177.02574 
L 725.313298 167.716591 
L 725.941184 147.099219 
L 726.15048 170.217694 
L 726.569071 166.924406 
L 726.778367 180.261629 
L 727.406254 172.460993 
L 727.615549 161.863745 
L 728.452732 167.849633 
L 729.49921 166.040749 
L 729.708505 132.201706 
L 730.545688 139.953291 
L 730.964279 139.953291 
L 731.592166 141.005562 
L 731.801461 178.645132 
L 732.638644 161.61183 
L 732.847939 161.61183 
L 733.894417 117.50909 
L 734.103713 123.137881 
L 734.522304 113.51379 
L 734.940895 142.063325 
L 735.778077 88.586656 
L 736.196669 96.890658 
L 736.61526 87.217462 
L 737.243147 88.994214 
L 737.452442 88.994214 
L 738.289625 86.066431 
L 739.126807 91.063084 
L 739.754694 82.872283 
L 739.963989 89.701096 
L 740.382581 89.701058 
L 741.010467 132.222705 
L 741.429059 128.079936 
L 741.84765 128.079936 
L 742.894128 140.486807 
L 744.987084 79.575642 
L 745.196379 86.734428 
L 745.405675 69.613012 
L 745.61497 69.612969 
L 745.824266 69.612969 
L 746.661448 67.247122 
L 747.08004 98.837815 
L 748.126518 85.559385 
L 748.335813 106.064143 
L 748.9637 85.714547 
L 749.382291 73.610071 
L 749.591587 87.500737 
L 750.010178 82.816723 
L 750.428769 82.816723 
L 751.893838 99.119848 
L 752.31243 71.77508 
L 752.940316 88.297353 
L 753.358908 88.297353 
L 753.568203 94.393687 
L 753.777499 87.716633 
L 753.986794 88.479582 
L 754.823977 70.508218 
L 755.033272 81.380239 
L 755.242568 81.380277 
L 755.661159 96.181243 
L 755.870455 76.203257 
L 756.07975 91.601749 
L 756.289046 74.371708 
L 756.498342 97.81019 
L 756.916933 97.810185 
L 757.126228 101.506722 
L 757.335524 88.953919 
L 757.544819 70.792979 
L 757.754115 92.970442 
L 758.172706 91.679535 
L 759.219184 85.217299 
L 759.42848 88.286787 
L 759.847071 90.579728 
L 760.056367 76.877212 
L 760.474958 94.301611 
L 760.684253 94.3016 
L 761.31214 94.3016 
L 761.521436 72.799029 
L 762.358618 89.067691 
L 762.777209 98.63543 
L 762.986505 80.536259 
L 763.195801 89.440678 
L 763.405096 89.440602 
L 763.614392 95.996874 
L 763.823687 87.458688 
L 764.242279 87.45865 
L 765.707348 87.45865 
L 766.125939 91.822286 
L 766.753826 90.571962 
L 766.963121 90.571962 
L 767.591008 83.491773 
L 767.800304 92.522943 
L 768.428191 92.522877 
L 769.265373 73.319548 
L 769.89326 78.803827 
L 770.730442 78.803827 
L 771.567624 98.768552 
L 771.149033 76.398965 
L 771.986216 96.884525 
L 772.195511 96.884525 
L 772.404807 77.867401 
L 773.241989 79.131982 
L 773.451285 79.131911 
L 773.869876 82.568417 
L 774.079172 76.795745 
L 775.12565 68.7298 
L 775.544241 68.729756 
L 775.753536 93.179885 
L 776.590719 86.709665 
L 776.800014 86.7096 
L 777.218606 69.679966 
L 777.846492 81.432057 
L 779.730153 87.2236 
L 779.939448 86.957432 
L 780.35804 85.992251 
L 780.776631 89.510518 
L 780.985926 83.060209 
L 782.032404 83.060165 
L 783.497473 34.866959 
L 782.660291 84.954338 
L 783.706769 36.667498 
L 784.12536 43.804392 
L 784.753247 40.454842 
L 785.381134 30.962667 
L 785.799725 31.645554 
L 786.846203 58.807237 
L 787.892681 36.57289 
L 788.520568 36.57289 
L 789.567046 45.618481 
L 789.776341 32.902603 
L 789.985637 47.271597 
L 790.613524 40.287693 
L 791.032115 40.287693 
L 792.078593 37.663182 
L 792.70648 37.663182 
L 793.962253 48.181866 
L 794.171549 48.181866 
L 794.59014 50.557494 
L 794.799436 37.479575 
L 795.845914 64.557324 
L 796.264505 64.557324 
L 797.310983 43.179843 
L 798.148165 43.179843 
L 798.776052 53.629035 
L 799.194643 34.870128 
L 800.869008 34.870128 
L 801.915486 58.651274 
L 802.543373 33.732989 
L 802.961964 53.739001 
L 803.380555 53.738936 
L 803.799146 28.8 
L 804.217738 88.489902 
L 804.845624 65.390772 
L 805.05492 65.390706 
L 806.729285 90.740342 
L 807.566467 83.641239 
L 807.775763 98.853772 
L 808.612945 94.858962 
L 808.822241 94.858962 
L 809.659423 100.696257 
L 810.496605 69.903252 
L 810.915197 86.090012 
L 811.333788 86.090012 
L 812.17097 86.135307 
L 812.589561 74.169388 
L 814.054631 74.169388 
L 814.891813 89.074445 
L 815.101109 81.581267 
L 815.310404 76.423929 
L 815.5197 87.032271 
L 816.147587 78.546857 
L 820.961385 78.546857 
L 822.007863 93.428386 
L 822.845046 80.329789 
L 823.054341 87.023279 
L 823.263637 87.023274 
L 823.682228 85.44449 
L 823.891524 68.456301 
L 824.310115 101.126209 
L 824.728706 74.343127 
L 825.147297 74.45025 
L 825.565888 78.839057 
L 825.775184 69.41053 
L 826.821662 77.382352 
L 827.030958 77.382352 
L 827.658844 74.115788 
L 828.077436 91.349223 
L 828.286731 70.014416 
L 829.123914 90.032246 
L 829.333209 90.032246 
L 829.961096 79.125 
L 830.379687 79.919176 
L 830.588983 79.919176 
L 831.426165 95.933885 
L 831.844756 98.860345 
L 832.472643 79.241991 
L 832.681939 79.241991 
L 833.728417 87.614319 
L 833.937712 87.614319 
L 833.937712 87.614319 
" clip-path="url(#p35b179deb3)" style="fill: none; stroke: #2196f3; stroke-width: 1.5; stroke-linecap: round"/>
   </g>
   <g id="patch_13">
    <path d="M 614.616857 240.48 
L 614.616857 18.72 
" style="fill: none"/>
   </g>
   <g id="patch_14">
    <path d="M 844.381563 240.48 
L 844.381563 18.72 
" style="fill: none"/>
   </g>
   <g id="patch_15">
    <path d="M 614.616857 240.48 
L 844.381563 240.48 
" style="fill: none"/>
   </g>
   <g id="patch_16">
    <path d="M 614.616857 18.72 
L 844.381563 18.72 
" style="fill: none"/>
   </g>
  </g>
  <g id="text_44">
   <!-- Initial HMC States -->
   <g style="fill: #838383" transform="translate(383.565812 17.50725) scale(0.144 -0.144)">
    <defs>
     <path id="ArialMT-49" d="M 597 0 
L 597 4581 
L 1203 4581 
L 1203 0 
L 597 0 
z
" transform="scale(0.015625)"/>
     <path id="ArialMT-6e" d="M 422 0 
L 422 3319 
L 928 3319 
L 928 2847 
Q 1294 3394 1984 3394 
Q 2284 3394 2536 3286 
Q 2788 3178 2913 3003 
Q 3038 2828 3088 2588 
Q 3119 2431 3119 2041 
L 3119 0 
L 2556 0 
L 2556 2019 
Q 2556 2363 2490 2533 
Q 2425 2703 2258 2804 
Q 2091 2906 1866 2906 
Q 1506 2906 1245 2678 
Q 984 2450 984 1813 
L 984 0 
L 422 0 
z
" transform="scale(0.015625)"/>
     <path id="ArialMT-69" d="M 425 3934 
L 425 4581 
L 988 4581 
L 988 3934 
L 425 3934 
z
M 425 0 
L 425 3319 
L 988 3319 
L 988 0 
L 425 0 
z
" transform="scale(0.015625)"/>
     <path id="ArialMT-74" d="M 1650 503 
L 1731 6 
Q 1494 -44 1306 -44 
Q 1000 -44 831 53 
Q 663 150 594 308 
Q 525 466 525 972 
L 525 2881 
L 113 2881 
L 113 3319 
L 525 3319 
L 525 4141 
L 1084 4478 
L 1084 3319 
L 1650 3319 
L 1650 2881 
L 1084 2881 
L 1084 941 
Q 1084 700 1114 631 
Q 1144 563 1211 522 
Q 1278 481 1403 481 
Q 1497 481 1650 503 
z
" transform="scale(0.015625)"/>
     <path id="ArialMT-61" d="M 2588 409 
Q 2275 144 1986 34 
Q 1697 -75 1366 -75 
Q 819 -75 525 192 
Q 231 459 231 875 
Q 231 1119 342 1320 
Q 453 1522 633 1644 
Q 813 1766 1038 1828 
Q 1203 1872 1538 1913 
Q 2219 1994 2541 2106 
Q 2544 2222 2544 2253 
Q 2544 2597 2384 2738 
Q 2169 2928 1744 2928 
Q 1347 2928 1158 2789 
Q 969 2650 878 2297 
L 328 2372 
Q 403 2725 575 2942 
Q 747 3159 1072 3276 
Q 1397 3394 1825 3394 
Q 2250 3394 2515 3294 
Q 2781 3194 2906 3042 
Q 3031 2891 3081 2659 
Q 3109 2516 3109 2141 
L 3109 1391 
Q 3109 606 3145 398 
Q 3181 191 3288 0 
L 2700 0 
Q 2613 175 2588 409 
z
M 2541 1666 
Q 2234 1541 1622 1453 
Q 1275 1403 1131 1340 
Q 988 1278 909 1158 
Q 831 1038 831 891 
Q 831 666 1001 516 
Q 1172 366 1500 366 
Q 1825 366 2078 508 
Q 2331 650 2450 897 
Q 2541 1088 2541 1459 
L 2541 1666 
z
" transform="scale(0.015625)"/>
     <path id="ArialMT-6c" d="M 409 0 
L 409 4581 
L 972 4581 
L 972 0 
L 409 0 
z
" transform="scale(0.015625)"/>
     <path id="ArialMT-20" transform="scale(0.015625)"/>
     <path id="ArialMT-48" d="M 513 0 
L 513 4581 
L 1119 4581 
L 1119 2700 
L 3500 2700 
L 3500 4581 
L 4106 4581 
L 4106 0 
L 3500 0 
L 3500 2159 
L 1119 2159 
L 1119 0 
L 513 0 
z
" transform="scale(0.015625)"/>
     <path id="ArialMT-4d" d="M 475 0 
L 475 4581 
L 1388 4581 
L 2472 1338 
Q 2622 884 2691 659 
Q 2769 909 2934 1394 
L 4031 4581 
L 4847 4581 
L 4847 0 
L 4263 0 
L 4263 3834 
L 2931 0 
L 2384 0 
L 1059 3900 
L 1059 0 
L 475 0 
z
" transform="scale(0.015625)"/>
     <path id="ArialMT-43" d="M 3763 1606 
L 4369 1453 
Q 4178 706 3683 314 
Q 3188 -78 2472 -78 
Q 1731 -78 1267 223 
Q 803 525 561 1097 
Q 319 1669 319 2325 
Q 319 3041 592 3573 
Q 866 4106 1370 4382 
Q 1875 4659 2481 4659 
Q 3169 4659 3637 4309 
Q 4106 3959 4291 3325 
L 3694 3184 
Q 3534 3684 3231 3912 
Q 2928 4141 2469 4141 
Q 1941 4141 1586 3887 
Q 1231 3634 1087 3207 
Q 944 2781 944 2328 
Q 944 1744 1114 1308 
Q 1284 872 1643 656 
Q 2003 441 2422 441 
Q 2931 441 3284 734 
Q 3638 1028 3763 1606 
z
" transform="scale(0.015625)"/>
     <path id="ArialMT-53" d="M 288 1472 
L 859 1522 
Q 900 1178 1048 958 
Q 1197 738 1509 602 
Q 1822 466 2213 466 
Q 2559 466 2825 569 
Q 3091 672 3220 851 
Q 3350 1031 3350 1244 
Q 3350 1459 3225 1620 
Q 3100 1781 2813 1891 
Q 2628 1963 1997 2114 
Q 1366 2266 1113 2400 
Q 784 2572 623 2826 
Q 463 3081 463 3397 
Q 463 3744 659 4045 
Q 856 4347 1234 4503 
Q 1613 4659 2075 4659 
Q 2584 4659 2973 4495 
Q 3363 4331 3572 4012 
Q 3781 3694 3797 3291 
L 3216 3247 
Q 3169 3681 2898 3903 
Q 2628 4125 2100 4125 
Q 1550 4125 1298 3923 
Q 1047 3722 1047 3438 
Q 1047 3191 1225 3031 
Q 1400 2872 2139 2705 
Q 2878 2538 3153 2413 
Q 3553 2228 3743 1945 
Q 3934 1663 3934 1294 
Q 3934 928 3725 604 
Q 3516 281 3123 101 
Q 2731 -78 2241 -78 
Q 1619 -78 1198 103 
Q 778 284 539 648 
Q 300 1013 288 1472 
z
" transform="scale(0.015625)"/>
     <path id="ArialMT-65" d="M 2694 1069 
L 3275 997 
Q 3138 488 2766 206 
Q 2394 -75 1816 -75 
Q 1088 -75 661 373 
Q 234 822 234 1631 
Q 234 2469 665 2931 
Q 1097 3394 1784 3394 
Q 2450 3394 2872 2941 
Q 3294 2488 3294 1666 
Q 3294 1616 3291 1516 
L 816 1516 
Q 847 969 1125 678 
Q 1403 388 1819 388 
Q 2128 388 2347 550 
Q 2566 713 2694 1069 
z
M 847 1978 
L 2700 1978 
Q 2663 2397 2488 2606 
Q 2219 2931 1791 2931 
Q 1403 2931 1139 2672 
Q 875 2413 847 1978 
z
" transform="scale(0.015625)"/>
     <path id="ArialMT-73" d="M 197 991 
L 753 1078 
Q 800 744 1014 566 
Q 1228 388 1613 388 
Q 2000 388 2187 545 
Q 2375 703 2375 916 
Q 2375 1106 2209 1216 
Q 2094 1291 1634 1406 
Q 1016 1563 777 1677 
Q 538 1791 414 1992 
Q 291 2194 291 2438 
Q 291 2659 392 2848 
Q 494 3038 669 3163 
Q 800 3259 1026 3326 
Q 1253 3394 1513 3394 
Q 1903 3394 2198 3281 
Q 2494 3169 2634 2976 
Q 2775 2784 2828 2463 
L 2278 2388 
Q 2241 2644 2061 2787 
Q 1881 2931 1553 2931 
Q 1166 2931 1000 2803 
Q 834 2675 834 2503 
Q 834 2394 903 2306 
Q 972 2216 1119 2156 
Q 1203 2125 1616 2013 
Q 2213 1853 2448 1751 
Q 2684 1650 2818 1456 
Q 2953 1263 2953 975 
Q 2953 694 2789 445 
Q 2625 197 2315 61 
Q 2006 -75 1616 -75 
Q 969 -75 630 194 
Q 291 463 197 991 
z
" transform="scale(0.015625)"/>
    </defs>
    <use xlink:href="#ArialMT-49"/>
    <use xlink:href="#ArialMT-6e" x="27.783203"/>
    <use xlink:href="#ArialMT-69" x="83.398438"/>
    <use xlink:href="#ArialMT-74" x="105.615234"/>
    <use xlink:href="#ArialMT-69" x="133.398438"/>
    <use xlink:href="#ArialMT-61" x="155.615234"/>
    <use xlink:href="#ArialMT-6c" x="211.230469"/>
    <use xlink:href="#ArialMT-20" x="233.447266"/>
    <use xlink:href="#ArialMT-48" x="261.230469"/>
    <use xlink:href="#ArialMT-4d" x="333.447266"/>
    <use xlink:href="#ArialMT-43" x="416.748047"/>
    <use xlink:href="#ArialMT-20" x="488.964844"/>
    <use xlink:href="#ArialMT-53" x="516.748047"/>
    <use xlink:href="#ArialMT-74" x="583.447266"/>
    <use xlink:href="#ArialMT-61" x="611.230469"/>
    <use xlink:href="#ArialMT-74" x="666.845703"/>
    <use xlink:href="#ArialMT-65" x="694.628906"/>
    <use xlink:href="#ArialMT-73" x="750.244141"/>
   </g>
  </g>
 </g>
 <defs>
  <clipPath id="pe3bce4d5c7">
   <rect x="63.181562" y="18.72" width="229.764706" height="221.76"/>
  </clipPath>
  <clipPath id="pebacb92acc">
   <rect x="338.89921" y="18.72" width="229.764706" height="221.76"/>
  </clipPath>
  <clipPath id="p35b179deb3">
   <rect x="614.616857" y="18.72" width="229.764706" height="221.76"/>
  </clipPath>
 </defs>
</svg>
