<?xml version="1.0" encoding="utf-8" standalone="no"?>
<!DOCTYPE svg PUBLIC "-//W3C//DTD SVG 1.1//EN"
  "http://www.w3.org/Graphics/SVG/1.1/DTD/svg11.dtd">
<svg xmlns:xlink="http://www.w3.org/1999/xlink" width="333.859215pt" height="220.403063pt" viewBox="0 0 333.859215 220.403063" xmlns="http://www.w3.org/2000/svg" version="1.1">
 <metadata>
  <rdf:RDF xmlns:dc="http://purl.org/dc/elements/1.1/" xmlns:cc="http://creativecommons.org/ns#" xmlns:rdf="http://www.w3.org/1999/02/22-rdf-syntax-ns#">
   <cc:Work>
    <dc:type rdf:resource="http://purl.org/dc/dcmitype/StillImage"/>
    <dc:date>2023-09-21T12:25:32.085586</dc:date>
    <dc:format>image/svg+xml</dc:format>
    <dc:creator>
     <cc:Agent>
      <dc:title>Matplotlib v3.8.0, https://matplotlib.org/</dc:title>
     </cc:Agent>
    </dc:creator>
   </cc:Work>
  </rdf:RDF>
 </metadata>
 <defs>
  <style type="text/css">*{stroke-linejoin: round; stroke-linecap: butt}</style>
 </defs>
 <g id="figure_1">
  <g id="patch_1">
   <path d="M 0 220.403063 
L 333.859215 220.403063 
L 333.859215 0 
L 0 0 
L 0 220.403063 
z
" style="fill: none"/>
  </g>
  <g id="axes_1">
   <g id="patch_2">
    <path d="M 60.283125 174.685719 
L 326.659215 174.685719 
L 326.659215 11.118367 
L 60.283125 11.118367 
L 60.283125 174.685719 
z
" style="fill: none"/>
   </g>
   <g id="matplotlib.axis_1">
    <g id="xtick_1">
     <g id="line2d_1">
      <path d="M 72.391129 174.685719 
L 72.391129 11.118367 
" clip-path="url(#p8a587a10ed)" style="fill: none; stroke-dasharray: 1.85,0.8; stroke-dashoffset: 0; stroke: #838383; stroke-opacity: 0.33; stroke-width: 0.5"/>
     </g>
     <g id="text_1">
      <!-- 0 -->
      <g style="fill: #838383" transform="translate(69.332613 192.059313) scale(0.11 -0.11)">
       <defs>
        <path id="ArialMT-30" d="M 266 2259 
Q 266 3072 433 3567 
Q 600 4063 929 4331 
Q 1259 4600 1759 4600 
Q 2128 4600 2406 4451 
Q 2684 4303 2865 4023 
Q 3047 3744 3150 3342 
Q 3253 2941 3253 2259 
Q 3253 1453 3087 958 
Q 2922 463 2592 192 
Q 2263 -78 1759 -78 
Q 1097 -78 719 397 
Q 266 969 266 2259 
z
M 844 2259 
Q 844 1131 1108 757 
Q 1372 384 1759 384 
Q 2147 384 2411 759 
Q 2675 1134 2675 2259 
Q 2675 3391 2411 3762 
Q 2147 4134 1753 4134 
Q 1366 4134 1134 3806 
Q 844 3388 844 2259 
z
" transform="scale(0.015625)"/>
       </defs>
       <use xlink:href="#ArialMT-30"/>
      </g>
     </g>
    </g>
    <g id="xtick_2">
     <g id="line2d_2">
      <path d="M 121.312358 174.685719 
L 121.312358 11.118367 
" clip-path="url(#p8a587a10ed)" style="fill: none; stroke-dasharray: 1.85,0.8; stroke-dashoffset: 0; stroke: #838383; stroke-opacity: 0.33; stroke-width: 0.5"/>
     </g>
     <g id="text_2">
      <!-- 20 -->
      <g style="fill: #838383" transform="translate(115.195326 192.059313) scale(0.11 -0.11)">
       <defs>
        <path id="ArialMT-32" d="M 3222 541 
L 3222 0 
L 194 0 
Q 188 203 259 391 
Q 375 700 629 1000 
Q 884 1300 1366 1694 
Q 2113 2306 2375 2664 
Q 2638 3022 2638 3341 
Q 2638 3675 2398 3904 
Q 2159 4134 1775 4134 
Q 1369 4134 1125 3890 
Q 881 3647 878 3216 
L 300 3275 
Q 359 3922 746 4261 
Q 1134 4600 1788 4600 
Q 2447 4600 2831 4234 
Q 3216 3869 3216 3328 
Q 3216 3053 3103 2787 
Q 2991 2522 2730 2228 
Q 2469 1934 1863 1422 
Q 1356 997 1212 845 
Q 1069 694 975 541 
L 3222 541 
z
" transform="scale(0.015625)"/>
       </defs>
       <use xlink:href="#ArialMT-32"/>
       <use xlink:href="#ArialMT-30" x="55.615234"/>
      </g>
     </g>
    </g>
    <g id="xtick_3">
     <g id="line2d_3">
      <path d="M 170.233586 174.685719 
L 170.233586 11.118367 
" clip-path="url(#p8a587a10ed)" style="fill: none; stroke-dasharray: 1.85,0.8; stroke-dashoffset: 0; stroke: #838383; stroke-opacity: 0.33; stroke-width: 0.5"/>
     </g>
     <g id="text_3">
      <!-- 40 -->
      <g style="fill: #838383" transform="translate(164.116555 192.059313) scale(0.11 -0.11)">
       <defs>
        <path id="ArialMT-34" d="M 2069 0 
L 2069 1097 
L 81 1097 
L 81 1613 
L 2172 4581 
L 2631 4581 
L 2631 1613 
L 3250 1613 
L 3250 1097 
L 2631 1097 
L 2631 0 
L 2069 0 
z
M 2069 1613 
L 2069 3678 
L 634 1613 
L 2069 1613 
z
" transform="scale(0.015625)"/>
       </defs>
       <use xlink:href="#ArialMT-34"/>
       <use xlink:href="#ArialMT-30" x="55.615234"/>
      </g>
     </g>
    </g>
    <g id="xtick_4">
     <g id="line2d_4">
      <path d="M 219.154815 174.685719 
L 219.154815 11.118367 
" clip-path="url(#p8a587a10ed)" style="fill: none; stroke-dasharray: 1.85,0.8; stroke-dashoffset: 0; stroke: #838383; stroke-opacity: 0.33; stroke-width: 0.5"/>
     </g>
     <g id="text_4">
      <!-- 60 -->
      <g style="fill: #838383" transform="translate(213.037784 192.059313) scale(0.11 -0.11)">
       <defs>
        <path id="ArialMT-36" d="M 3184 3459 
L 2625 3416 
Q 2550 3747 2413 3897 
Q 2184 4138 1850 4138 
Q 1581 4138 1378 3988 
Q 1113 3794 959 3422 
Q 806 3050 800 2363 
Q 1003 2672 1297 2822 
Q 1591 2972 1913 2972 
Q 2475 2972 2870 2558 
Q 3266 2144 3266 1488 
Q 3266 1056 3080 686 
Q 2894 316 2569 119 
Q 2244 -78 1831 -78 
Q 1128 -78 684 439 
Q 241 956 241 2144 
Q 241 3472 731 4075 
Q 1159 4600 1884 4600 
Q 2425 4600 2770 4297 
Q 3116 3994 3184 3459 
z
M 888 1484 
Q 888 1194 1011 928 
Q 1134 663 1356 523 
Q 1578 384 1822 384 
Q 2178 384 2434 671 
Q 2691 959 2691 1453 
Q 2691 1928 2437 2201 
Q 2184 2475 1800 2475 
Q 1419 2475 1153 2201 
Q 888 1928 888 1484 
z
" transform="scale(0.015625)"/>
       </defs>
       <use xlink:href="#ArialMT-36"/>
       <use xlink:href="#ArialMT-30" x="55.615234"/>
      </g>
     </g>
    </g>
    <g id="xtick_5">
     <g id="line2d_5">
      <path d="M 268.076043 174.685719 
L 268.076043 11.118367 
" clip-path="url(#p8a587a10ed)" style="fill: none; stroke-dasharray: 1.85,0.8; stroke-dashoffset: 0; stroke: #838383; stroke-opacity: 0.33; stroke-width: 0.5"/>
     </g>
     <g id="text_5">
      <!-- 80 -->
      <g style="fill: #838383" transform="translate(261.959012 192.059313) scale(0.11 -0.11)">
       <defs>
        <path id="ArialMT-38" d="M 1131 2484 
Q 781 2613 612 2850 
Q 444 3088 444 3419 
Q 444 3919 803 4259 
Q 1163 4600 1759 4600 
Q 2359 4600 2725 4251 
Q 3091 3903 3091 3403 
Q 3091 3084 2923 2848 
Q 2756 2613 2416 2484 
Q 2838 2347 3058 2040 
Q 3278 1734 3278 1309 
Q 3278 722 2862 322 
Q 2447 -78 1769 -78 
Q 1091 -78 675 323 
Q 259 725 259 1325 
Q 259 1772 486 2073 
Q 713 2375 1131 2484 
z
M 1019 3438 
Q 1019 3113 1228 2906 
Q 1438 2700 1772 2700 
Q 2097 2700 2305 2904 
Q 2513 3109 2513 3406 
Q 2513 3716 2298 3927 
Q 2084 4138 1766 4138 
Q 1444 4138 1231 3931 
Q 1019 3725 1019 3438 
z
M 838 1322 
Q 838 1081 952 856 
Q 1066 631 1291 507 
Q 1516 384 1775 384 
Q 2178 384 2440 643 
Q 2703 903 2703 1303 
Q 2703 1709 2433 1975 
Q 2163 2241 1756 2241 
Q 1359 2241 1098 1978 
Q 838 1716 838 1322 
z
" transform="scale(0.015625)"/>
       </defs>
       <use xlink:href="#ArialMT-38"/>
       <use xlink:href="#ArialMT-30" x="55.615234"/>
      </g>
     </g>
    </g>
    <g id="xtick_6">
     <g id="line2d_6">
      <path d="M 316.997272 174.685719 
L 316.997272 11.118367 
" clip-path="url(#p8a587a10ed)" style="fill: none; stroke-dasharray: 1.85,0.8; stroke-dashoffset: 0; stroke: #838383; stroke-opacity: 0.33; stroke-width: 0.5"/>
     </g>
     <g id="text_6">
      <!-- 100 -->
      <g style="fill: #838383" transform="translate(307.821725 192.059313) scale(0.11 -0.11)">
       <defs>
        <path id="ArialMT-31" d="M 2384 0 
L 1822 0 
L 1822 3584 
Q 1619 3391 1289 3197 
Q 959 3003 697 2906 
L 697 3450 
Q 1169 3672 1522 3987 
Q 1875 4303 2022 4600 
L 2384 4600 
L 2384 0 
z
" transform="scale(0.015625)"/>
       </defs>
       <use xlink:href="#ArialMT-31"/>
       <use xlink:href="#ArialMT-30" x="55.615234"/>
       <use xlink:href="#ArialMT-30" x="111.230469"/>
      </g>
     </g>
    </g>
    <g id="text_7">
     <!-- draw -->
     <g style="fill: #bdbdbd" transform="translate(298.65234 210.834938) scale(0.12 -0.12)">
      <defs>
       <path id="Arial-BoldMT-64" d="M 3503 0 
L 2688 0 
L 2688 488 
Q 2484 203 2207 64 
Q 1931 -75 1650 -75 
Q 1078 -75 670 386 
Q 263 847 263 1672 
Q 263 2516 659 2955 
Q 1056 3394 1663 3394 
Q 2219 3394 2625 2931 
L 2625 4581 
L 3503 4581 
L 3503 0 
z
M 1159 1731 
Q 1159 1200 1306 963 
Q 1519 619 1900 619 
Q 2203 619 2415 876 
Q 2628 1134 2628 1647 
Q 2628 2219 2422 2470 
Q 2216 2722 1894 2722 
Q 1581 2722 1370 2473 
Q 1159 2225 1159 1731 
z
" transform="scale(0.015625)"/>
       <path id="Arial-BoldMT-72" d="M 1300 0 
L 422 0 
L 422 3319 
L 1238 3319 
L 1238 2847 
Q 1447 3181 1614 3287 
Q 1781 3394 1994 3394 
Q 2294 3394 2572 3228 
L 2300 2463 
Q 2078 2606 1888 2606 
Q 1703 2606 1575 2504 
Q 1447 2403 1373 2137 
Q 1300 1872 1300 1025 
L 1300 0 
z
" transform="scale(0.015625)"/>
       <path id="Arial-BoldMT-61" d="M 1116 2306 
L 319 2450 
Q 453 2931 781 3162 
Q 1109 3394 1756 3394 
Q 2344 3394 2631 3255 
Q 2919 3116 3036 2902 
Q 3153 2688 3153 2116 
L 3144 1091 
Q 3144 653 3186 445 
Q 3228 238 3344 0 
L 2475 0 
Q 2441 88 2391 259 
Q 2369 338 2359 363 
Q 2134 144 1878 34 
Q 1622 -75 1331 -75 
Q 819 -75 523 203 
Q 228 481 228 906 
Q 228 1188 362 1408 
Q 497 1628 739 1745 
Q 981 1863 1438 1950 
Q 2053 2066 2291 2166 
L 2291 2253 
Q 2291 2506 2166 2614 
Q 2041 2722 1694 2722 
Q 1459 2722 1328 2630 
Q 1197 2538 1116 2306 
z
M 2291 1594 
Q 2122 1538 1756 1459 
Q 1391 1381 1278 1306 
Q 1106 1184 1106 997 
Q 1106 813 1243 678 
Q 1381 544 1594 544 
Q 1831 544 2047 700 
Q 2206 819 2256 991 
Q 2291 1103 2291 1419 
L 2291 1594 
z
" transform="scale(0.015625)"/>
       <path id="Arial-BoldMT-77" d="M 1078 0 
L 28 3319 
L 881 3319 
L 1503 1144 
L 2075 3319 
L 2922 3319 
L 3475 1144 
L 4109 3319 
L 4975 3319 
L 3909 0 
L 3066 0 
L 2494 2134 
L 1931 0 
L 1078 0 
z
" transform="scale(0.015625)"/>
      </defs>
      <use xlink:href="#Arial-BoldMT-64"/>
      <use xlink:href="#Arial-BoldMT-72" x="61.083984"/>
      <use xlink:href="#Arial-BoldMT-61" x="100"/>
      <use xlink:href="#Arial-BoldMT-77" x="155.615234"/>
     </g>
    </g>
   </g>
   <g id="matplotlib.axis_2">
    <g id="ytick_1">
     <g id="line2d_7">
      <path d="M 60.283125 149.645731 
L 326.659215 149.645731 
" clip-path="url(#p8a587a10ed)" style="fill: none; stroke-dasharray: 1.85,0.8; stroke-dashoffset: 0; stroke: #838383; stroke-opacity: 0.33; stroke-width: 0.5"/>
     </g>
     <g id="text_8">
      <!-- 1540 -->
      <g style="fill: #838383" transform="translate(26.315 153.582528) scale(0.11 -0.11)">
       <defs>
        <path id="ArialMT-35" d="M 266 1200 
L 856 1250 
Q 922 819 1161 601 
Q 1400 384 1738 384 
Q 2144 384 2425 690 
Q 2706 997 2706 1503 
Q 2706 1984 2436 2262 
Q 2166 2541 1728 2541 
Q 1456 2541 1237 2417 
Q 1019 2294 894 2097 
L 366 2166 
L 809 4519 
L 3088 4519 
L 3088 3981 
L 1259 3981 
L 1013 2750 
Q 1425 3038 1878 3038 
Q 2478 3038 2890 2622 
Q 3303 2206 3303 1553 
Q 3303 931 2941 478 
Q 2500 -78 1738 -78 
Q 1113 -78 717 272 
Q 322 622 266 1200 
z
" transform="scale(0.015625)"/>
       </defs>
       <use xlink:href="#ArialMT-31"/>
       <use xlink:href="#ArialMT-35" x="55.615234"/>
       <use xlink:href="#ArialMT-34" x="111.230469"/>
       <use xlink:href="#ArialMT-30" x="166.845703"/>
      </g>
     </g>
    </g>
    <g id="ytick_2">
     <g id="line2d_8">
      <path d="M 60.283125 121.943945 
L 326.659215 121.943945 
" clip-path="url(#p8a587a10ed)" style="fill: none; stroke-dasharray: 1.85,0.8; stroke-dashoffset: 0; stroke: #838383; stroke-opacity: 0.33; stroke-width: 0.5"/>
     </g>
     <g id="text_9">
      <!-- 1550 -->
      <g style="fill: #838383" transform="translate(26.315 125.880741) scale(0.11 -0.11)">
       <use xlink:href="#ArialMT-31"/>
       <use xlink:href="#ArialMT-35" x="55.615234"/>
       <use xlink:href="#ArialMT-35" x="111.230469"/>
       <use xlink:href="#ArialMT-30" x="166.845703"/>
      </g>
     </g>
    </g>
    <g id="ytick_3">
     <g id="line2d_9">
      <path d="M 60.283125 94.242158 
L 326.659215 94.242158 
" clip-path="url(#p8a587a10ed)" style="fill: none; stroke-dasharray: 1.85,0.8; stroke-dashoffset: 0; stroke: #838383; stroke-opacity: 0.33; stroke-width: 0.5"/>
     </g>
     <g id="text_10">
      <!-- 1560 -->
      <g style="fill: #838383" transform="translate(26.315 98.178955) scale(0.11 -0.11)">
       <use xlink:href="#ArialMT-31"/>
       <use xlink:href="#ArialMT-35" x="55.615234"/>
       <use xlink:href="#ArialMT-36" x="111.230469"/>
       <use xlink:href="#ArialMT-30" x="166.845703"/>
      </g>
     </g>
    </g>
    <g id="ytick_4">
     <g id="line2d_10">
      <path d="M 60.283125 66.540371 
L 326.659215 66.540371 
" clip-path="url(#p8a587a10ed)" style="fill: none; stroke-dasharray: 1.85,0.8; stroke-dashoffset: 0; stroke: #838383; stroke-opacity: 0.33; stroke-width: 0.5"/>
     </g>
     <g id="text_11">
      <!-- 1570 -->
      <g style="fill: #838383" transform="translate(26.315 70.477168) scale(0.11 -0.11)">
       <defs>
        <path id="ArialMT-37" d="M 303 3981 
L 303 4522 
L 3269 4522 
L 3269 4084 
Q 2831 3619 2401 2847 
Q 1972 2075 1738 1259 
Q 1569 684 1522 0 
L 944 0 
Q 953 541 1156 1306 
Q 1359 2072 1739 2783 
Q 2119 3494 2547 3981 
L 303 3981 
z
" transform="scale(0.015625)"/>
       </defs>
       <use xlink:href="#ArialMT-31"/>
       <use xlink:href="#ArialMT-35" x="55.615234"/>
       <use xlink:href="#ArialMT-37" x="111.230469"/>
       <use xlink:href="#ArialMT-30" x="166.845703"/>
      </g>
     </g>
    </g>
    <g id="ytick_5">
     <g id="line2d_11">
      <path d="M 60.283125 38.838584 
L 326.659215 38.838584 
" clip-path="url(#p8a587a10ed)" style="fill: none; stroke-dasharray: 1.85,0.8; stroke-dashoffset: 0; stroke: #838383; stroke-opacity: 0.33; stroke-width: 0.5"/>
     </g>
     <g id="text_12">
      <!-- 1580 -->
      <g style="fill: #838383" transform="translate(26.315 42.775381) scale(0.11 -0.11)">
       <use xlink:href="#ArialMT-31"/>
       <use xlink:href="#ArialMT-35" x="55.615234"/>
       <use xlink:href="#ArialMT-38" x="111.230469"/>
       <use xlink:href="#ArialMT-30" x="166.845703"/>
      </g>
     </g>
    </g>
    <g id="ytick_6">
     <g id="line2d_12">
      <path d="M 60.283125 11.136797 
L 326.659215 11.136797 
" clip-path="url(#p8a587a10ed)" style="fill: none; stroke-dasharray: 1.85,0.8; stroke-dashoffset: 0; stroke: #838383; stroke-opacity: 0.33; stroke-width: 0.5"/>
     </g>
     <g id="text_13">
      <!-- 1590 -->
      <g style="fill: #838383" transform="translate(26.315 15.073594) scale(0.11 -0.11)">
       <defs>
        <path id="ArialMT-39" d="M 350 1059 
L 891 1109 
Q 959 728 1153 556 
Q 1347 384 1650 384 
Q 1909 384 2104 503 
Q 2300 622 2425 820 
Q 2550 1019 2634 1356 
Q 2719 1694 2719 2044 
Q 2719 2081 2716 2156 
Q 2547 1888 2255 1720 
Q 1963 1553 1622 1553 
Q 1053 1553 659 1965 
Q 266 2378 266 3053 
Q 266 3750 677 4175 
Q 1088 4600 1706 4600 
Q 2153 4600 2523 4359 
Q 2894 4119 3086 3673 
Q 3278 3228 3278 2384 
Q 3278 1506 3087 986 
Q 2897 466 2520 194 
Q 2144 -78 1638 -78 
Q 1100 -78 759 220 
Q 419 519 350 1059 
z
M 2653 3081 
Q 2653 3566 2395 3850 
Q 2138 4134 1775 4134 
Q 1400 4134 1122 3828 
Q 844 3522 844 3034 
Q 844 2597 1108 2323 
Q 1372 2050 1759 2050 
Q 2150 2050 2401 2323 
Q 2653 2597 2653 3081 
z
" transform="scale(0.015625)"/>
       </defs>
       <use xlink:href="#ArialMT-31"/>
       <use xlink:href="#ArialMT-35" x="55.615234"/>
       <use xlink:href="#ArialMT-39" x="111.230469"/>
       <use xlink:href="#ArialMT-30" x="166.845703"/>
      </g>
     </g>
    </g>
    <g id="text_14">
     <!-- logprob -->
     <g style="fill: #bdbdbd" transform="translate(15.789375 55.769617) rotate(-90) scale(0.12 -0.12)">
      <defs>
       <path id="Arial-BoldMT-6c" d="M 459 0 
L 459 4581 
L 1338 4581 
L 1338 0 
L 459 0 
z
" transform="scale(0.015625)"/>
       <path id="Arial-BoldMT-6f" d="M 256 1706 
Q 256 2144 472 2553 
Q 688 2963 1083 3178 
Q 1478 3394 1966 3394 
Q 2719 3394 3200 2905 
Q 3681 2416 3681 1669 
Q 3681 916 3195 420 
Q 2709 -75 1972 -75 
Q 1516 -75 1102 131 
Q 688 338 472 736 
Q 256 1134 256 1706 
z
M 1156 1659 
Q 1156 1166 1390 903 
Q 1625 641 1969 641 
Q 2313 641 2545 903 
Q 2778 1166 2778 1666 
Q 2778 2153 2545 2415 
Q 2313 2678 1969 2678 
Q 1625 2678 1390 2415 
Q 1156 2153 1156 1659 
z
" transform="scale(0.015625)"/>
       <path id="Arial-BoldMT-67" d="M 378 -219 
L 1381 -341 
Q 1406 -516 1497 -581 
Q 1622 -675 1891 -675 
Q 2234 -675 2406 -572 
Q 2522 -503 2581 -350 
Q 2622 -241 2622 53 
L 2622 538 
Q 2228 0 1628 0 
Q 959 0 569 566 
Q 263 1013 263 1678 
Q 263 2513 664 2953 
Q 1066 3394 1663 3394 
Q 2278 3394 2678 2853 
L 2678 3319 
L 3500 3319 
L 3500 341 
Q 3500 -247 3403 -537 
Q 3306 -828 3131 -993 
Q 2956 -1159 2664 -1253 
Q 2372 -1347 1925 -1347 
Q 1081 -1347 728 -1058 
Q 375 -769 375 -325 
Q 375 -281 378 -219 
z
M 1163 1728 
Q 1163 1200 1367 954 
Q 1572 709 1872 709 
Q 2194 709 2416 961 
Q 2638 1213 2638 1706 
Q 2638 2222 2425 2472 
Q 2213 2722 1888 2722 
Q 1572 2722 1367 2476 
Q 1163 2231 1163 1728 
z
" transform="scale(0.015625)"/>
       <path id="Arial-BoldMT-70" d="M 434 3319 
L 1253 3319 
L 1253 2831 
Q 1413 3081 1684 3237 
Q 1956 3394 2288 3394 
Q 2866 3394 3269 2941 
Q 3672 2488 3672 1678 
Q 3672 847 3265 386 
Q 2859 -75 2281 -75 
Q 2006 -75 1782 34 
Q 1559 144 1313 409 
L 1313 -1263 
L 434 -1263 
L 434 3319 
z
M 1303 1716 
Q 1303 1156 1525 889 
Q 1747 622 2066 622 
Q 2372 622 2575 867 
Q 2778 1113 2778 1672 
Q 2778 2194 2568 2447 
Q 2359 2700 2050 2700 
Q 1728 2700 1515 2451 
Q 1303 2203 1303 1716 
z
" transform="scale(0.015625)"/>
       <path id="Arial-BoldMT-62" d="M 422 0 
L 422 4581 
L 1300 4581 
L 1300 2931 
Q 1706 3394 2263 3394 
Q 2869 3394 3266 2955 
Q 3663 2516 3663 1694 
Q 3663 844 3258 384 
Q 2853 -75 2275 -75 
Q 1991 -75 1714 67 
Q 1438 209 1238 488 
L 1238 0 
L 422 0 
z
M 1294 1731 
Q 1294 1216 1456 969 
Q 1684 619 2063 619 
Q 2353 619 2558 867 
Q 2763 1116 2763 1650 
Q 2763 2219 2556 2470 
Q 2350 2722 2028 2722 
Q 1713 2722 1503 2476 
Q 1294 2231 1294 1731 
z
" transform="scale(0.015625)"/>
      </defs>
      <use xlink:href="#Arial-BoldMT-6c"/>
      <use xlink:href="#Arial-BoldMT-6f" x="27.783203"/>
      <use xlink:href="#Arial-BoldMT-67" x="88.867188"/>
      <use xlink:href="#Arial-BoldMT-70" x="149.951172"/>
      <use xlink:href="#Arial-BoldMT-72" x="211.035156"/>
      <use xlink:href="#Arial-BoldMT-6f" x="249.951172"/>
      <use xlink:href="#Arial-BoldMT-62" x="311.035156"/>
     </g>
    </g>
   </g>
   <g id="line2d_13">
    <path d="M 72.391129 23.324974 
L 74.837191 58.656926 
L 77.283252 97.903041 
L 79.729313 46.320636 
L 82.175375 69.526631 
L 84.621436 85.605639 
L 87.067498 57.15382 
L 89.513559 114.161271 
L 91.959621 80.815313 
L 94.405682 35.201372 
L 96.851743 108.072424 
L 99.297805 36.027826 
L 101.743866 115.850363 
L 104.189928 110.139913 
L 106.635989 120.309296 
L 109.082051 81.908235 
L 111.528112 147.15115 
L 113.974173 139.698856 
L 116.420235 91.435458 
L 118.866296 103.079204 
L 121.312358 69.853291 
L 123.758419 97.502325 
L 126.204481 123.209326 
L 128.650542 97.874297 
L 131.096603 64.266606 
L 133.542665 81.091248 
L 135.988726 67.195042 
L 138.434788 89.868102 
L 140.880849 94.707799 
L 143.326911 70.153236 
L 145.772972 114.184266 
L 148.219033 93.091749 
L 150.665095 109.523453 
L 153.111156 96.014098 
L 155.557218 59.070492 
L 158.003279 88.677791 
L 160.449341 102.56994 
L 162.895402 58.247757 
L 165.341463 104.846072 
L 167.787525 67.094948 
L 170.233586 78.843522 
L 172.679648 55.440043 
L 175.125709 77.832772 
L 177.571771 74.165802 
L 180.017832 96.202113 
L 182.463893 116.212867 
L 184.909955 155.747091 
L 187.356016 84.284799 
L 189.802078 88.829623 
L 192.248139 46.115037 
L 194.694201 67.547063 
L 197.140262 86.49871 
L 199.586323 81.965721 
L 202.032385 143.522392 
L 204.478446 77.977503 
L 206.924508 86.104758 
L 209.370569 101.840536 
L 211.816631 74.489417 
L 214.262692 147.087239 
L 216.708753 152.371612 
L 219.154815 75.268868 
L 221.600876 89.92897 
L 224.046938 107.906389 
L 226.492999 116.105333 
L 228.939061 101.772228 
L 231.385122 92.952767 
L 233.831183 111.460414 
L 236.277245 63.872653 
L 238.723306 67.768555 
L 241.169368 92.86417 
L 243.615429 86.867301 
L 246.061491 106.857427 
L 248.507552 87.507431 
L 250.953613 64.012988 
L 253.399675 89.292898 
L 255.845736 129.907194 
L 258.291798 43.290077 
L 260.737859 125.751926 
L 263.183921 53.020871 
L 265.629982 73.447557 
L 268.076043 93.936126 
L 270.522105 79.542829 
L 272.968166 103.657113 
L 275.414228 62.353992 
L 277.860289 37.29287 
L 280.306351 34.251152 
L 282.752412 59.075226 
L 285.198473 97.345759 
L 287.644535 108.913081 
L 290.090596 121.625401 
L 292.536658 84.781889 
L 294.982719 107.766392 
L 297.428781 73.765762 
L 299.874842 95.980959 
L 302.320903 57.832839 
L 304.766965 57.879843 
L 307.213026 167.250839 
L 309.659088 109.747989 
L 312.105149 152.011475 
L 314.551211 41.968561 
" clip-path="url(#p8a587a10ed)" style="fill: none; stroke: #440154; stroke-width: 1.5; stroke-linecap: round"/>
   </g>
   <g id="line2d_14">
    <path d="M 72.391129 22.071766 
L 74.837191 57.270823 
L 77.283252 97.608845 
L 79.729313 43.30428 
L 82.175375 68.255163 
L 84.621436 83.747468 
L 87.067498 55.091742 
L 89.513559 112.188804 
L 91.959621 78.926708 
L 94.405682 32.897849 
L 96.851743 107.268287 
L 99.297805 34.401631 
L 101.743866 113.797076 
L 104.189928 107.618956 
L 106.635989 119.19135 
L 109.082051 78.704539 
L 111.528112 145.362978 
L 113.974173 136.460668 
L 116.420235 88.833681 
L 118.866296 99.579959 
L 121.312358 68.289993 
L 123.758419 96.901083 
L 126.204481 121.089423 
L 128.650542 95.032091 
L 131.096603 63.342086 
L 133.542665 78.163827 
L 135.988726 64.520223 
L 138.434788 87.378932 
L 140.880849 92.921994 
L 143.326911 68.427284 
L 145.772972 112.206388 
L 148.219033 90.275581 
L 150.665095 107.607458 
L 153.111156 94.25095 
L 155.557218 56.08626 
L 158.003279 86.897059 
L 160.449341 100.255258 
L 162.895402 57.717189 
L 165.341463 103.335864 
L 167.787525 66.280328 
L 170.233586 77.066847 
L 172.679648 53.24304 
L 175.125709 77.243703 
L 177.571771 72.42159 
L 180.017832 94.31689 
L 182.463893 114.304311 
L 184.909955 154.292003 
L 187.356016 81.622492 
L 189.802078 87.609893 
L 192.248139 45.336601 
L 194.694201 65.297307 
L 197.140262 84.677737 
L 199.586323 78.841154 
L 202.032385 141.599634 
L 204.478446 76.083826 
L 206.924508 82.985601 
L 209.370569 100.26405 
L 211.816631 74.211791 
L 214.262692 145.361964 
L 216.708753 150.421463 
L 219.154815 74.165802 
L 221.600876 86.703633 
L 224.046938 107.425868 
L 226.492999 114.389527 
L 228.939061 99.770341 
L 231.385122 92.334616 
L 233.831183 110.259958 
L 236.277245 62.783451 
L 238.723306 64.959827 
L 241.169368 91.410434 
L 243.615429 85.300283 
L 246.061491 105.043555 
L 248.507552 86.405379 
L 250.953613 62.337084 
L 253.399675 87.861143 
L 255.845736 129.504449 
L 258.291798 40.999404 
L 260.737859 123.786222 
L 263.183921 50.446823 
L 265.629982 71.803102 
L 268.076043 91.919022 
L 270.522105 76.800718 
L 272.968166 101.735707 
L 275.414228 60.237132 
L 277.860289 35.767108 
L 280.306351 32.543461 
L 282.752412 57.423669 
L 285.198473 94.463312 
L 287.644535 107.960494 
L 290.090596 120.846965 
L 292.536658 82.757346 
L 294.982719 106.242996 
L 297.428781 72.03643 
L 299.874842 93.835693 
L 302.320903 56.253309 
L 304.766965 56.380794 
L 307.213026 167.118282 
L 309.659088 107.93547 
L 312.105149 151.28782 
L 314.551211 40.893899 
" clip-path="url(#p8a587a10ed)" style="fill: none; stroke: #471365; stroke-width: 1.5; stroke-linecap: round"/>
   </g>
   <g id="line2d_15">
    <path d="M 72.391129 19.40743 
L 74.837191 54.155048 
L 77.283252 95.502805 
L 79.729313 40.385988 
L 82.175375 64.683891 
L 84.621436 81.714133 
L 87.067498 50.299048 
L 89.513559 107.529006 
L 91.959621 78.127644 
L 94.405682 28.500123 
L 96.851743 104.615449 
L 99.297805 31.650051 
L 101.743866 110.871346 
L 104.189928 103.753826 
L 106.635989 117.738967 
L 109.082051 74.341643 
L 111.528112 140.838443 
L 113.974173 133.161951 
L 116.420235 85.171784 
L 118.866296 95.508892 
L 121.312358 64.945286 
L 123.758419 94.561377 
L 126.204481 117.121832 
L 128.650542 91.576131 
L 131.096603 61.372662 
L 133.542665 74.941533 
L 135.988726 60.747749 
L 138.434788 84.49006 
L 140.880849 89.463667 
L 143.326911 65.22156 
L 145.772972 108.47483 
L 148.219033 86.251518 
L 150.665095 103.747063 
L 153.111156 91.594392 
L 155.557218 52.597499 
L 158.003279 84.091373 
L 160.449341 97.201704 
L 162.895402 55.064689 
L 165.341463 100.01821 
L 167.787525 63.258561 
L 170.233586 74.64125 
L 172.679648 49.491192 
L 175.125709 73.473933 
L 177.571771 69.354172 
L 180.017832 91.731007 
L 182.463893 111.92707 
L 184.909955 150.544214 
L 187.356016 77.960933 
L 189.802078 84.511364 
L 192.248139 43.583597 
L 194.694201 62.059796 
L 197.140262 81.838236 
L 199.586323 76.082811 
L 202.032385 138.488593 
L 204.478446 72.410093 
L 206.924508 79.518144 
L 209.370569 97.354551 
L 211.816631 70.589119 
L 214.262692 140.481012 
L 216.708753 147.19714 
L 219.154815 70.580666 
L 221.600876 82.368804 
L 224.046938 104.350334 
L 226.492999 110.611641 
L 228.939061 96.371191 
L 231.385122 89.513376 
L 233.831183 106.674822 
L 236.277245 59.98622 
L 238.723306 61.482225 
L 241.169368 87.052611 
L 243.615429 82.060405 
L 246.061491 101.79759 
L 248.507552 83.059658 
L 250.953613 58.476689 
L 253.399675 84.622279 
L 255.845736 127.0004 
L 258.291798 36.631098 
L 260.737859 121.549992 
L 263.183921 46.753477 
L 265.629982 67.97686 
L 268.076043 88.271327 
L 270.522105 73.901363 
L 272.968166 98.637517 
L 275.414228 57.051021 
L 277.860289 32.837657 
L 280.306351 27.969555 
L 282.752412 53.770226 
L 285.198473 90.541372 
L 287.644535 104.172464 
L 290.090596 116.466484 
L 292.536658 80.146777 
L 294.982719 102.433663 
L 297.428781 69.28485 
L 299.874842 90.888321 
L 302.320903 53.528782 
L 304.766965 54.397844 
L 307.213026 164.218589 
L 309.659088 105.012445 
L 312.105149 148.817248 
L 314.551211 37.873485 
" clip-path="url(#p8a587a10ed)" style="fill: none; stroke: #482374; stroke-width: 1.5; stroke-linecap: round"/>
   </g>
   <g id="line2d_16">
    <path d="M 72.391129 18.553247 
L 74.837191 53.377626 
L 77.283252 94.660795 
L 79.729313 40.496227 
L 82.175375 62.863932 
L 84.621436 81.666791 
L 87.067498 48.779711 
L 89.513559 105.870348 
L 91.959621 78.103973 
L 94.405682 27.721348 
L 96.851743 103.678079 
L 99.297805 30.968666 
L 101.743866 111.222352 
L 104.189928 102.734622 
L 106.635989 116.916909 
L 109.082051 73.708614 
L 111.528112 138.552505 
L 113.974173 133.181564 
L 116.420235 84.698703 
L 118.866296 95.561306 
L 121.312358 63.928449 
L 123.758419 92.75224 
L 126.204481 115.688724 
L 128.650542 91.438163 
L 131.096603 60.769729 
L 133.542665 74.764339 
L 135.988726 60.558381 
L 138.434788 84.422767 
L 140.880849 88.088384 
L 143.326911 64.062359 
L 145.772972 107.067084 
L 148.219033 86.086159 
L 150.665095 102.539844 
L 153.111156 90.990106 
L 155.557218 52.623875 
L 158.003279 83.924662 
L 160.449341 96.654567 
L 162.895402 53.922396 
L 165.341463 98.893163 
L 167.787525 61.785889 
L 170.233586 74.566855 
L 172.679648 49.036034 
L 175.125709 70.863026 
L 177.571771 68.536171 
L 180.017832 91.739123 
L 182.463893 111.40428 
L 184.909955 148.833141 
L 187.356016 77.597415 
L 189.802078 83.009272 
L 192.248139 42.438599 
L 194.694201 61.52348 
L 197.140262 81.252549 
L 199.586323 77.191627 
L 202.032385 138.253913 
L 204.478446 71.436202 
L 206.924508 80.043639 
L 209.370569 96.040474 
L 211.816631 68.168256 
L 214.262692 138.121355 
L 216.708753 146.10929 
L 219.154815 68.859449 
L 221.600876 82.623436 
L 224.046938 102.902348 
L 226.492999 109.127134 
L 228.939061 95.546089 
L 231.385122 87.980174 
L 233.831183 104.946842 
L 236.277245 58.532147 
L 238.723306 61.055471 
L 241.169368 84.871163 
L 243.615429 80.827148 
L 246.061491 100.667133 
L 248.507552 81.486891 
L 250.953613 57.573811 
L 253.399675 83.349458 
L 255.845736 125.320776 
L 258.291798 35.325813 
L 260.737859 121.133721 
L 263.183921 46.199576 
L 265.629982 66.964757 
L 268.076043 86.3134 
L 270.522105 74.093774 
L 272.968166 97.744445 
L 275.414228 56.726052 
L 277.860289 31.568894 
L 280.306351 25.498307 
L 282.752412 52.054419 
L 285.198473 90.343889 
L 287.644535 102.676797 
L 290.090596 114.370252 
L 292.536658 79.707512 
L 294.982719 101.328567 
L 297.428781 69.607789 
L 299.874842 90.952232 
L 302.320903 52.134224 
L 304.766965 54.285576 
L 307.213026 161.89613 
L 309.659088 103.898557 
L 312.105149 147.570126 
L 314.551211 36.263183 
" clip-path="url(#p8a587a10ed)" style="fill: none; stroke: #46327e; stroke-width: 1.5; stroke-linecap: round"/>
   </g>
   <g id="line2d_17">
    <path d="M 72.391129 19.98162 
L 74.837191 55.778876 
L 77.283252 95.848063 
L 79.729313 43.444276 
L 82.175375 64.643312 
L 84.621436 83.397476 
L 87.067498 51.665201 
L 89.513559 108.303384 
L 91.959621 78.428942 
L 94.405682 30.207475 
L 96.851743 105.489922 
L 99.297805 32.456893 
L 101.743866 114.27523 
L 104.189928 104.800082 
L 106.635989 117.432936 
L 109.082051 76.486232 
L 111.528112 140.00624 
L 113.974173 135.759332 
L 116.420235 87.353908 
L 118.866296 99.089632 
L 121.312358 65.676042 
L 123.758419 93.187785 
L 126.204481 117.944229 
L 128.650542 94.558672 
L 131.096603 62.070279 
L 133.542665 77.498673 
L 135.988726 63.875021 
L 138.434788 86.48958 
L 140.880849 89.467387 
L 143.326911 65.717636 
L 145.772972 109.369254 
L 148.219033 89.380142 
L 150.665095 104.581633 
L 153.111156 92.180079 
L 155.557218 55.377146 
L 158.003279 85.770659 
L 160.449341 98.96891 
L 162.895402 54.650109 
L 165.341463 100.840945 
L 167.787525 63.334985 
L 170.233586 76.528163 
L 172.679648 52.040893 
L 175.125709 72.197054 
L 177.571771 70.06261 
L 180.017832 94.146121 
L 182.463893 112.533385 
L 184.909955 150.606772 
L 187.356016 80.520102 
L 189.802078 84.762952 
L 192.248139 42.774726 
L 194.694201 63.629519 
L 197.140262 82.151031 
L 199.586323 80.408172 
L 202.032385 140.432317 
L 204.478446 73.889866 
L 206.924508 83.756598 
L 209.370569 97.298079 
L 211.816631 68.768823 
L 214.262692 141.224956 
L 216.708753 147.565392 
L 219.154815 70.605013 
L 221.600876 86.555182 
L 224.046938 104.069664 
L 226.492999 110.695504 
L 228.939061 97.552372 
L 231.385122 88.527311 
L 233.831183 106.838152 
L 236.277245 60.045059 
L 238.723306 63.533482 
L 241.169368 86.996815 
L 243.615429 82.746187 
L 246.061491 102.142172 
L 248.507552 82.881449 
L 250.953613 59.93482 
L 253.399675 85.056472 
L 255.845736 126.37853 
L 258.291798 38.136233 
L 260.737859 122.125196 
L 263.183921 48.568025 
L 265.629982 69.372432 
L 268.076043 88.609484 
L 270.522105 76.277251 
L 272.968166 99.986762 
L 275.414228 58.885858 
L 277.860289 32.693602 
L 280.306351 27.559033 
L 282.752412 53.412456 
L 285.198473 94.010182 
L 287.644535 105.073313 
L 290.090596 116.833046 
L 292.536658 81.115257 
L 294.982719 104.046331 
L 297.428781 71.340165 
L 299.874842 93.193196 
L 302.320903 53.028648 
L 304.766965 55.556369 
L 307.213026 162.601524 
L 309.659088 105.85716 
L 312.105149 148.354988 
L 314.551211 37.718947 
" clip-path="url(#p8a587a10ed)" style="fill: none; stroke: #424086; stroke-width: 1.5; stroke-linecap: round"/>
   </g>
   <g id="line2d_18">
    <path d="M 72.391129 21.596656 
L 74.837191 57.923127 
L 77.283252 97.084702 
L 79.729313 45.939872 
L 82.175375 67.949131 
L 84.621436 84.832275 
L 87.067498 55.209758 
L 89.513559 111.975089 
L 91.959621 79.073806 
L 94.405682 32.551239 
L 96.851743 106.85878 
L 99.297805 34.668437 
L 101.743866 115.859831 
L 104.189928 107.198965 
L 106.635989 119.151448 
L 109.082051 78.911491 
L 111.528112 143.252543 
L 113.974173 137.835275 
L 116.420235 89.286811 
L 118.866296 101.162194 
L 121.312358 67.911934 
L 123.758419 95.084844 
L 126.204481 120.787449 
L 128.650542 96.926106 
L 131.096603 63.503386 
L 133.542665 80.3774 
L 135.988726 66.269845 
L 138.434788 87.985585 
L 140.880849 91.957234 
L 143.326911 67.44122 
L 145.772972 112.90671 
L 148.219033 91.951485 
L 150.665095 107.740016 
L 153.111156 93.675069 
L 155.557218 57.205558 
L 158.003279 87.186521 
L 160.449341 101.116881 
L 162.895402 55.201304 
L 165.341463 103.446442 
L 167.787525 65.651695 
L 170.233586 77.687364 
L 172.679648 54.134082 
L 175.125709 76.097014 
L 177.571771 72.243043 
L 180.017832 95.607972 
L 182.463893 114.455129 
L 184.909955 153.487528 
L 187.356016 82.834784 
L 189.802078 87.667717 
L 192.248139 44.357975 
L 194.694201 65.683144 
L 197.140262 82.949081 
L 199.586323 81.330325 
L 202.032385 142.2773 
L 204.478446 76.162954 
L 206.924508 86.135868 
L 209.370569 99.246875 
L 211.816631 71.032105 
L 214.262692 146.156632 
L 216.708753 149.780318 
L 219.154815 73.457702 
L 221.600876 89.024402 
L 224.046938 106.097251 
L 226.492999 113.724373 
L 228.939061 99.550201 
L 231.385122 90.758469 
L 233.831183 109.852818 
L 236.277245 62.157185 
L 238.723306 65.899902 
L 241.169368 90.770304 
L 243.615429 85.146084 
L 246.061491 104.028409 
L 248.507552 85.036183 
L 250.953613 62.414184 
L 253.399675 86.892663 
L 255.845736 129.098661 
L 258.291798 41.440022 
L 260.737859 123.857234 
L 263.183921 51.21782 
L 265.629982 71.705712 
L 268.076043 92.362007 
L 270.522105 77.980208 
L 272.968166 102.207774 
L 275.414228 60.443408 
L 277.860289 35.129006 
L 280.306351 31.119822 
L 282.752412 56.718275 
L 285.198473 96.979535 
L 287.644535 107.475577 
L 290.090596 120.464848 
L 292.536658 82.731984 
L 294.982719 106.776946 
L 297.428781 71.203888 
L 299.874842 94.662486 
L 302.320903 55.224299 
L 304.766965 57.304638 
L 307.213026 164.73766 
L 309.659088 108.52792 
L 312.105149 149.825631 
L 314.551211 40.294348 
" clip-path="url(#p8a587a10ed)" style="fill: none; stroke: #3d4e8a; stroke-width: 1.5; stroke-linecap: round"/>
   </g>
   <g id="line2d_19">
    <path d="M 72.391129 21.968967 
L 74.837191 57.287054 
L 77.283252 96.424958 
L 79.729313 44.91661 
L 82.175375 69.243933 
L 84.621436 84.338228 
L 87.067498 55.803899 
L 89.513559 113.467374 
L 91.959621 78.908109 
L 94.405682 32.400759 
L 96.851743 106.708976 
L 99.297805 34.88621 
L 101.743866 113.967845 
L 104.189928 107.566879 
L 106.635989 119.528492 
L 109.082051 78.345417 
L 111.528112 145.446503 
L 113.974173 137.250264 
L 116.420235 88.532046 
L 118.866296 100.74288 
L 121.312358 68.065457 
L 123.758419 96.294768 
L 126.204481 121.2 
L 128.650542 95.441599 
L 131.096603 63.50271 
L 133.542665 79.785626 
L 135.988726 65.601648 
L 138.434788 87.586898 
L 140.880849 92.629151 
L 143.326911 67.97686 
L 145.772972 113.427133 
L 148.219033 91.000927 
L 150.665095 108.546519 
L 153.111156 94.056172 
L 155.557218 56.399393 
L 158.003279 86.701266 
L 160.449341 99.596867 
L 162.895402 55.588832 
L 165.341463 103.736918 
L 167.787525 66.234677 
L 170.233586 76.299231 
L 172.679648 53.233233 
L 175.125709 77.395197 
L 177.571771 72.178794 
L 180.017832 94.157618 
L 182.463893 114.458849 
L 184.909955 153.713755 
L 187.356016 82.411412 
L 189.802078 88.220603 
L 192.248139 44.970715 
L 194.694201 65.663869 
L 197.140262 83.166515 
L 199.586323 79.443073 
L 202.032385 141.770741 
L 204.478446 75.749051 
L 206.924508 84.23137 
L 209.370569 99.443006 
L 211.816631 72.285989 
L 214.262692 146.863041 
L 216.708753 150.722422 
L 219.154815 73.996723 
L 221.600876 87.270722 
L 224.046938 106.760038 
L 226.492999 114.801739 
L 228.939061 99.650296 
L 231.385122 92.137471 
L 233.831183 110.346527 
L 236.277245 62.004338 
L 238.723306 65.73894 
L 241.169368 92.363022 
L 243.615429 85.441971 
L 246.061491 104.3199 
L 248.507552 85.713849 
L 250.953613 62.375634 
L 253.399675 86.587645 
L 255.845736 130.015742 
L 258.291798 41.631081 
L 260.737859 124.931896 
L 263.183921 51.109272 
L 265.629982 71.46224 
L 268.076043 92.663981 
L 270.522105 76.862938 
L 272.968166 102.672063 
L 275.414228 60.025446 
L 277.860289 36.476898 
L 280.306351 32.056854 
L 282.752412 58.391473 
L 285.198473 95.776374 
L 287.644535 106.922353 
L 290.090596 121.07894 
L 292.536658 82.606528 
L 294.982719 106.18179 
L 297.428781 70.15797 
L 299.874842 94.142063 
L 302.320903 55.977712 
L 304.766965 57.396279 
L 307.213026 165.83633 
L 309.659088 108.655067 
L 312.105149 150.634501 
L 314.551211 40.817476 
" clip-path="url(#p8a587a10ed)" style="fill: none; stroke: #365c8d; stroke-width: 1.5; stroke-linecap: round"/>
   </g>
   <g id="line2d_20">
    <path d="M 72.391129 21.367386 
L 74.837191 55.161064 
L 77.283252 94.56273 
L 79.729313 42.712506 
L 82.175375 67.125043 
L 84.621436 82.929806 
L 87.067498 53.637668 
L 89.513559 111.33462 
L 91.959621 78.588551 
L 94.405682 30.364042 
L 96.851743 105.527119 
L 99.297805 32.969538 
L 101.743866 111.335296 
L 104.189928 106.27715 
L 106.635989 118.1549 
L 109.082051 76.667484 
L 111.528112 144.724201 
L 113.974173 135.604118 
L 116.420235 87.008312 
L 118.866296 98.945239 
L 121.312358 66.24888 
L 123.758419 95.996514 
L 126.204481 119.763511 
L 128.650542 92.839484 
L 131.096603 62.888956 
L 133.542665 77.459447 
L 135.988726 63.233199 
L 138.434788 85.879884 
L 140.880849 91.009043 
L 143.326911 67.643099 
L 145.772972 110.376961 
L 148.219033 88.466781 
L 150.665095 106.353574 
L 153.111156 93.283822 
L 155.557218 54.657549 
L 158.003279 85.081496 
L 160.449341 96.960937 
L 162.895402 55.968243 
L 165.341463 101.601459 
L 167.787525 64.800217 
L 170.233586 74.599318 
L 172.679648 51.264147 
L 175.125709 74.758928 
L 177.571771 70.451152 
L 180.017832 92.174668 
L 182.463893 112.402519 
L 184.909955 151.818726 
L 187.356016 80.660437 
L 189.802078 86.083116 
L 192.248139 44.160492 
L 194.694201 63.923039 
L 197.140262 83.12898 
L 199.586323 77.418192 
L 202.032385 139.662335 
L 204.478446 74.106962 
L 206.924508 80.989801 
L 209.370569 98.826885 
L 211.816631 71.596488 
L 214.262692 143.207907 
L 216.708753 149.620032 
L 219.154815 71.902858 
L 221.600876 84.217168 
L 224.046938 105.577842 
L 226.492999 112.954052 
L 228.939061 98.420082 
L 231.385122 90.579922 
L 233.831183 108.015275 
L 236.277245 60.534034 
L 238.723306 63.736376 
L 241.169368 90.581275 
L 243.615429 83.914856 
L 246.061491 103.148864 
L 248.507552 84.492765 
L 250.953613 60.394375 
L 253.399675 85.307385 
L 255.845736 128.152161 
L 258.291798 39.026261 
L 260.737859 124.132494 
L 263.183921 48.747924 
L 265.629982 69.4076 
L 268.076043 90.331039 
L 270.522105 74.349759 
L 272.968166 101.483443 
L 275.414228 58.138194 
L 277.860289 35.210164 
L 280.306351 30.803307 
L 282.752412 56.145099 
L 285.198473 92.692386 
L 287.644535 105.091573 
L 290.090596 118.270211 
L 292.536658 81.743552 
L 294.982719 103.2706 
L 297.428781 70.256373 
L 299.874842 92.955134 
L 302.320903 55.182368 
L 304.766965 55.564484 
L 307.213026 165.343636 
L 309.659088 106.668736 
L 312.105149 150.289582 
L 314.551211 39.218672 
" clip-path="url(#p8a587a10ed)" style="fill: none; stroke: #31688e; stroke-width: 1.5; stroke-linecap: round"/>
   </g>
   <g id="line2d_21">
    <path d="M 72.391129 20.830732 
L 74.837191 54.208477 
L 77.283252 94.415294 
L 79.729313 42.160972 
L 82.175375 64.37414 
L 84.621436 82.670778 
L 87.067498 51.81771 
L 89.513559 108.65642 
L 91.959621 78.835068 
L 94.405682 29.532515 
L 96.851743 104.614096 
L 99.297805 31.805603 
L 101.743866 111.538867 
L 104.189928 105.708371 
L 106.635989 117.200284 
L 109.082051 76.674923 
L 111.528112 142.361839 
L 113.974173 135.295719 
L 116.420235 86.529482 
L 118.866296 97.721113 
L 121.312358 65.285133 
L 123.758419 94.66181 
L 126.204481 118.525858 
L 128.650542 92.872623 
L 131.096603 62.146026 
L 133.542665 76.764535 
L 135.988726 62.18018 
L 138.434788 85.653319 
L 140.880849 89.678058 
L 143.326911 67.110503 
L 145.772972 107.990251 
L 148.219033 87.954474 
L 150.665095 104.534629 
L 153.111156 92.441136 
L 155.557218 54.452626 
L 158.003279 84.768701 
L 160.449341 96.879779 
L 162.895402 56.305047 
L 165.341463 100.055746 
L 167.787525 63.447591 
L 170.233586 75.524853 
L 172.679648 50.890146 
L 175.125709 72.111162 
L 177.571771 69.929376 
L 180.017832 92.733979 
L 182.463893 112.022769 
L 184.909955 150.704838 
L 187.356016 79.651378 
L 189.802078 83.937174 
L 192.248139 43.500749 
L 194.694201 63.262957 
L 197.140262 83.456315 
L 199.586323 77.619057 
L 202.032385 138.863271 
L 204.478446 73.512483 
L 206.924508 80.416964 
L 209.370569 98.683506 
L 211.816631 70.393327 
L 214.262692 140.616951 
L 216.708753 148.383731 
L 219.154815 70.4312 
L 221.600876 83.67747 
L 224.046938 104.302316 
L 226.492999 111.301481 
L 228.939061 97.555416 
L 231.385122 88.778224 
L 233.831183 106.023871 
L 236.277245 60.209403 
L 238.723306 62.673888 
L 241.169368 87.717088 
L 243.615429 83.135067 
L 246.061491 102.423518 
L 248.507552 83.302116 
L 250.953613 58.955519 
L 253.399675 85.189706 
L 255.845736 125.942984 
L 258.291798 37.471755 
L 260.737859 122.885034 
L 263.183921 48.173734 
L 265.629982 68.213569 
L 268.076043 88.693684 
L 270.522105 74.008897 
L 272.968166 100.030384 
L 275.414228 57.653278 
L 277.860289 33.011131 
L 280.306351 29.33165 
L 282.752412 53.508154 
L 285.198473 91.284978 
L 287.644535 104.16029 
L 290.090596 115.953501 
L 292.536658 81.567711 
L 294.982719 101.868265 
L 297.428781 71.758127 
L 299.874842 92.861802 
L 302.320903 54.291663 
L 304.766965 54.443834 
L 307.213026 164.210135 
L 309.659088 105.005005 
L 312.105149 149.42762 
L 314.551211 38.065558 
" clip-path="url(#p8a587a10ed)" style="fill: none; stroke: #2c738e; stroke-width: 1.5; stroke-linecap: round"/>
   </g>
   <g id="line2d_22">
    <path d="M 72.391129 20.917638 
L 74.837191 55.722404 
L 77.283252 96.583554 
L 79.729313 42.826126 
L 82.175375 64.04579 
L 84.621436 83.668678 
L 87.067498 51.646602 
L 89.513559 108.067689 
L 91.959621 78.99231 
L 94.405682 30.743115 
L 96.851743 105.522385 
L 99.297805 32.400759 
L 101.743866 114.105475 
L 104.189928 106.012036 
L 106.635989 117.564141 
L 109.082051 77.660312 
L 111.528112 140.970663 
L 113.974173 136.084976 
L 116.420235 87.342749 
L 118.866296 98.310519 
L 121.312358 66.345254 
L 123.758419 93.376477 
L 126.204481 119.195408 
L 128.650542 94.960402 
L 131.096603 62.026995 
L 133.542665 77.055688 
L 135.988726 63.487155 
L 138.434788 87.246374 
L 140.880849 90.202539 
L 143.326911 66.963405 
L 145.772972 108.91511 
L 148.219033 89.399755 
L 150.665095 104.749359 
L 153.111156 92.662628 
L 155.557218 55.338934 
L 158.003279 86.221084 
L 160.449341 98.89384 
L 162.895402 56.478522 
L 165.341463 100.600178 
L 167.787525 63.824297 
L 170.233586 77.749247 
L 172.679648 52.41016 
L 175.125709 72.159857 
L 177.571771 70.721339 
L 180.017832 94.871467 
L 182.463893 113.628336 
L 184.909955 151.651676 
L 187.356016 80.331072 
L 189.802078 84.573585 
L 192.248139 43.582244 
L 194.694201 64.273369 
L 197.140262 84.007849 
L 199.586323 79.71698 
L 202.032385 140.166188 
L 204.478446 74.451206 
L 206.924508 82.956182 
L 209.370569 99.038571 
L 211.816631 70.435934 
L 214.262692 141.100177 
L 216.708753 148.321172 
L 219.154815 70.985777 
L 221.600876 85.508926 
L 224.046938 104.450428 
L 226.492999 111.188536 
L 228.939061 97.459041 
L 231.385122 89.457242 
L 233.831183 107.19998 
L 236.277245 61.133247 
L 238.723306 63.239286 
L 241.169368 86.69315 
L 243.615429 83.572641 
L 246.061491 103.052151 
L 248.507552 83.706213 
L 250.953613 59.673087 
L 253.399675 86.694841 
L 255.845736 125.729269 
L 258.291798 38.554532 
L 260.737859 122.560742 
L 263.183921 49.038739 
L 265.629982 69.277072 
L 268.076043 89.537723 
L 270.522105 76.104791 
L 272.968166 99.982704 
L 275.414228 59.613233 
L 277.860289 32.760219 
L 280.306351 28.683065 
L 282.752412 53.716797 
L 285.198473 92.499975 
L 287.644535 104.976938 
L 290.090596 117.073814 
L 292.536658 81.688433 
L 294.982719 103.734889 
L 297.428781 72.442556 
L 299.874842 93.377491 
L 302.320903 53.859499 
L 304.766965 54.623733 
L 307.213026 163.779324 
L 309.659088 105.220073 
L 312.105149 148.931545 
L 314.551211 38.222801 
" clip-path="url(#p8a587a10ed)" style="fill: none; stroke: #277f8e; stroke-width: 1.5; stroke-linecap: round"/>
   </g>
   <g id="line2d_23">
    <path d="M 72.391129 20.861504 
L 74.837191 57.477774 
L 77.283252 97.711982 
L 79.729313 43.310028 
L 82.175375 65.819759 
L 84.621436 83.943937 
L 87.067498 51.985435 
L 89.513559 109.260029 
L 91.959621 79.142114 
L 94.405682 31.935117 
L 96.851743 107.215873 
L 99.297805 33.568752 
L 101.743866 115.777997 
L 104.189928 105.942713 
L 106.635989 118.642522 
L 109.082051 77.614322 
L 111.528112 141.281767 
L 113.974173 136.318643 
L 116.420235 88.245965 
L 118.866296 99.224219 
L 121.312358 67.455761 
L 123.758419 93.691977 
L 126.204481 120.146304 
L 128.650542 95.869367 
L 131.096603 62.462202 
L 133.542665 77.620071 
L 135.988726 64.600028 
L 138.434788 87.37927 
L 140.880849 91.343479 
L 143.326911 66.502497 
L 145.772972 111.41172 
L 148.219033 90.054427 
L 150.665095 105.846339 
L 153.111156 93.031557 
L 155.557218 55.556707 
L 158.003279 87.192269 
L 160.449341 100.97215 
L 162.895402 55.895202 
L 165.341463 102.132027 
L 167.787525 64.974706 
L 170.233586 78.185131 
L 172.679648 53.336033 
L 175.125709 74.495166 
L 177.571771 71.511272 
L 180.017832 94.912722 
L 182.463893 114.725654 
L 184.909955 153.15512 
L 187.356016 81.41385 
L 189.802078 86.791892 
L 192.248139 44.064456 
L 194.694201 64.782633 
L 197.140262 83.53071 
L 199.586323 80.615462 
L 202.032385 142.023682 
L 204.478446 75.76934 
L 206.924508 85.316853 
L 209.370569 99.330062 
L 211.816631 71.20355 
L 214.262692 142.850137 
L 216.708753 148.504791 
L 219.154815 72.429706 
L 221.600876 86.89672 
L 224.046938 105.637358 
L 226.492999 111.725529 
L 228.939061 97.635897 
L 231.385122 90.999912 
L 233.831183 109.362491 
L 236.277245 61.836275 
L 238.723306 64.128638 
L 241.169368 88.119156 
L 243.615429 84.245573 
L 246.061491 103.904982 
L 248.507552 84.51948 
L 250.953613 61.068997 
L 253.399675 87.192269 
L 255.845736 127.46807 
L 258.291798 39.692429 
L 260.737859 122.499198 
L 263.183921 49.07526 
L 265.629982 71.231279 
L 268.076043 91.480095 
L 270.522105 77.694804 
L 272.968166 100.68235 
L 275.414228 60.441379 
L 277.860289 34.351922 
L 280.306351 28.735142 
L 282.752412 55.276375 
L 285.198473 94.543793 
L 287.644535 106.621056 
L 290.090596 118.920148 
L 292.536658 81.566696 
L 294.982719 106.229808 
L 297.428781 71.507553 
L 299.874842 93.716662 
L 302.320903 54.345092 
L 304.766965 56.163022 
L 307.213026 164.229748 
L 309.659088 107.000805 
L 312.105149 148.895024 
L 314.551211 38.752692 
" clip-path="url(#p8a587a10ed)" style="fill: none; stroke: #238a8d; stroke-width: 1.5; stroke-linecap: round"/>
   </g>
   <g id="line2d_24">
    <path d="M 72.391129 20.060073 
L 74.837191 56.649967 
L 77.283252 96.467228 
L 79.729313 43.285005 
L 82.175375 67.315426 
L 84.621436 83.30313 
L 87.067498 52.34219 
L 89.513559 110.594733 
L 91.959621 79.149553 
L 94.405682 31.274021 
L 96.851743 107.045442 
L 99.297805 34.246417 
L 101.743866 114.175812 
L 104.189928 105.256932 
L 106.635989 119.310719 
L 109.082051 76.419953 
L 111.528112 142.067981 
L 113.974173 135.692038 
L 116.420235 87.801627 
L 118.866296 98.829928 
L 121.312358 67.054369 
L 123.758419 95.493675 
L 126.204481 119.355018 
L 128.650542 94.463312 
L 131.096603 62.382736 
L 133.542665 77.738764 
L 135.988726 63.579472 
L 138.434788 85.848097 
L 140.880849 91.329615 
L 143.326911 65.560393 
L 145.772972 112.068082 
L 148.219033 89.13836 
L 150.665095 106.133772 
L 153.111156 92.828663 
L 155.557218 55.10662 
L 158.003279 86.017513 
L 160.449341 100.653268 
L 162.895402 54.491852 
L 165.341463 102.8523 
L 167.787525 65.18301 
L 170.233586 75.777456 
L 172.679648 51.888722 
L 175.125709 76.31242 
L 177.571771 71.51905 
L 180.017832 92.93383 
L 182.463893 114.098374 
L 184.909955 152.703343 
L 187.356016 81.053375 
L 189.802078 87.577091 
L 192.248139 44.44522 
L 194.694201 63.93927 
L 197.140262 82.188228 
L 199.586323 79.584084 
L 202.032385 142.26986 
L 204.478446 75.027086 
L 206.924508 84.452187 
L 209.370569 98.351775 
L 211.816631 71.188671 
L 214.262692 143.883543 
L 216.708753 148.297163 
L 219.154815 73.271039 
L 221.600876 86.292773 
L 224.046938 106.237924 
L 226.492999 112.357206 
L 228.939061 97.963233 
L 231.385122 91.359035 
L 233.831183 109.053754 
L 236.277245 61.22624 
L 238.723306 64.41269 
L 241.169368 89.730473 
L 243.615429 84.000071 
L 246.061491 103.886721 
L 248.507552 84.700393 
L 250.953613 61.522127 
L 253.399675 85.523128 
L 255.845736 129.313729 
L 258.291798 39.659628 
L 260.737859 122.536733 
L 263.183921 48.620777 
L 265.629982 71.276592 
L 268.076043 91.475022 
L 270.522105 76.997525 
L 272.968166 100.612689 
L 275.414228 59.056966 
L 277.860289 35.417116 
L 280.306351 29.041511 
L 282.752412 56.292874 
L 285.198473 94.835961 
L 287.644535 106.578448 
L 290.090596 118.784886 
L 292.536658 81.169701 
L 294.982719 105.83518 
L 297.428781 69.932081 
L 299.874842 93.293967 
L 302.320903 55.138069 
L 304.766965 57.598834 
L 307.213026 164.31564 
L 309.659088 108.348021 
L 312.105149 148.62788 
L 314.551211 39.339732 
" clip-path="url(#p8a587a10ed)" style="fill: none; stroke: #1f968b; stroke-width: 1.5; stroke-linecap: round"/>
   </g>
   <g id="line2d_25">
    <path d="M 72.391129 19.738824 
L 74.837191 54.472915 
L 77.283252 95.049337 
L 79.729313 43.213992 
L 82.175375 67.157168 
L 84.621436 82.747539 
L 87.067498 52.990437 
L 89.513559 111.096896 
L 91.959621 78.745118 
L 94.405682 30.132066 
L 96.851743 105.249154 
L 99.297805 34.141589 
L 101.743866 111.613261 
L 104.189928 104.722983 
L 106.635989 118.643536 
L 109.082051 75.644222 
L 111.528112 142.610046 
L 113.974173 135.224706 
L 116.420235 86.558902 
L 118.866296 98.188107 
L 121.312358 65.747055 
L 123.758419 96.929488 
L 126.204481 118.357118 
L 128.650542 92.661276 
L 131.096603 62.260661 
L 133.542665 77.405342 
L 135.988726 62.624518 
L 138.434788 85.480521 
L 140.880849 90.230268 
L 143.326911 65.983427 
L 145.772972 110.369859 
L 148.219033 88.158044 
L 150.665095 105.986336 
L 153.111156 92.74311 
L 155.557218 54.852327 
L 158.003279 84.51948 
L 160.449341 98.427183 
L 162.895402 54.158091 
L 165.341463 102.094153 
L 167.787525 64.293658 
L 170.233586 73.650451 
L 172.679648 50.1648 
L 175.125709 75.168436 
L 177.571771 70.473808 
L 180.017832 92.177035 
L 182.463893 112.585461 
L 184.909955 150.874592 
L 187.356016 79.833306 
L 189.802078 86.568032 
L 192.248139 44.115179 
L 194.694201 63.312328 
L 197.140262 81.47066 
L 199.586323 78.038709 
L 202.032385 140.510093 
L 204.478446 73.066116 
L 206.924508 81.780411 
L 209.370569 97.386676 
L 211.816631 70.34869 
L 214.262692 143.318484 
L 216.708753 148.516289 
L 219.154815 72.371881 
L 221.600876 84.990532 
L 224.046938 105.113892 
L 226.492999 112.365998 
L 228.939061 98.521529 
L 231.385122 90.526831 
L 233.831183 107.487751 
L 236.277245 60.772434 
L 238.723306 64.273707 
L 241.169368 89.574921 
L 243.615429 82.777297 
L 246.061491 103.194515 
L 248.507552 84.432912 
L 250.953613 60.991221 
L 253.399675 84.431221 
L 255.845736 129.23832 
L 258.291798 39.217319 
L 260.737859 123.076769 
L 263.183921 49.017773 
L 265.629982 69.297699 
L 268.076043 90.10887 
L 270.522105 75.333794 
L 272.968166 100.083474 
L 275.414228 57.831148 
L 277.860289 34.953165 
L 280.306351 29.70768 
L 282.752412 56.102153 
L 285.198473 93.881006 
L 287.644535 105.116597 
L 290.090596 117.767711 
L 292.536658 81.212647 
L 294.982719 103.49074 
L 297.428781 69.246976 
L 299.874842 92.539539 
L 302.320903 55.04981 
L 304.766965 57.214689 
L 307.213026 163.877389 
L 309.659088 107.396449 
L 312.105149 149.089464 
L 314.551211 39.380649 
" clip-path="url(#p8a587a10ed)" style="fill: none; stroke: #1fa187; stroke-width: 1.5; stroke-linecap: round"/>
   </g>
   <g id="line2d_26">
    <path d="M 72.391129 20.663344 
L 74.837191 54.398859 
L 77.283252 95.264067 
L 79.729313 43.505821 
L 82.175375 66.311777 
L 84.621436 82.918985 
L 87.067498 53.958241 
L 89.513559 110.577826 
L 91.959621 78.674443 
L 94.405682 30.579786 
L 96.851743 104.230288 
L 99.297805 33.465614 
L 101.743866 111.743451 
L 104.189928 105.536926 
L 106.635989 117.625685 
L 109.082051 76.777047 
L 111.528112 143.202496 
L 113.974173 135.672425 
L 116.420235 86.526101 
L 118.866296 98.870845 
L 121.312358 65.306776 
L 123.758419 96.356989 
L 126.204481 118.005097 
L 128.650542 93.402853 
L 131.096603 62.767896 
L 133.542665 77.899727 
L 135.988726 63.554786 
L 138.434788 86.864934 
L 140.880849 90.165342 
L 143.326911 67.712083 
L 145.772972 109.280657 
L 148.219033 88.656487 
L 150.665095 106.011359 
L 153.111156 92.86586 
L 155.557218 55.0444 
L 158.003279 84.808265 
L 160.449341 97.345082 
L 162.895402 55.396083 
L 165.341463 100.903504 
L 167.787525 63.434064 
L 170.233586 74.71632 
L 172.679648 50.960145 
L 175.125709 73.095874 
L 177.571771 69.806963 
L 180.017832 94.023708 
L 182.463893 112.10325 
L 184.909955 150.402188 
L 187.356016 79.960453 
L 189.802078 84.635467 
L 192.248139 43.902817 
L 194.694201 63.807389 
L 197.140262 82.215957 
L 199.586323 77.766831 
L 202.032385 138.854479 
L 204.478446 72.698202 
L 206.924508 81.110185 
L 209.370569 97.942943 
L 211.816631 70.233717 
L 214.262692 142.72671 
L 216.708753 149.570661 
L 219.154815 71.206255 
L 221.600876 84.941837 
L 224.046938 104.041259 
L 226.492999 112.523579 
L 228.939061 99.532955 
L 231.385122 89.387244 
L 233.831183 106.844577 
L 236.277245 60.882335 
L 238.723306 64.458679 
L 241.169368 89.27058 
L 243.615429 82.336003 
L 246.061491 102.390379 
L 248.507552 84.035578 
L 250.953613 60.036943 
L 253.399675 85.352697 
L 255.845736 127.628018 
L 258.291798 39.059738 
L 260.737859 123.428114 
L 263.183921 49.970022 
L 265.629982 68.542258 
L 268.076043 88.949331 
L 270.522105 75.151866 
L 272.968166 100.676601 
L 275.414228 58.433405 
L 277.860289 34.05333 
L 280.306351 30.933836 
L 282.752412 55.268936 
L 285.198473 93.265561 
L 287.644535 104.715543 
L 290.090596 117.82283 
L 292.536658 82.278854 
L 294.982719 102.654479 
L 297.428781 70.444388 
L 299.874842 92.648426 
L 302.320903 54.563879 
L 304.766965 55.773465 
L 307.213026 164.271003 
L 309.659088 105.954211 
L 312.105149 150.323059 
L 314.551211 38.958968 
" clip-path="url(#p8a587a10ed)" style="fill: none; stroke: #26ad81; stroke-width: 1.5; stroke-linecap: round"/>
   </g>
   <g id="line2d_27">
    <path d="M 72.391129 21.542551 
L 74.837191 56.592142 
L 77.283252 96.469933 
L 79.729313 43.94813 
L 82.175375 66.112941 
L 84.621436 83.667663 
L 87.067498 54.420163 
L 89.513559 110.085131 
L 91.959621 79.051488 
L 94.405682 31.564159 
L 96.851743 105.166306 
L 99.297805 32.336509 
L 101.743866 113.875529 
L 104.189928 107.014332 
L 106.635989 117.792058 
L 109.082051 78.160783 
L 111.528112 143.487224 
L 113.974173 136.569893 
L 116.420235 88.110703 
L 118.866296 100.121686 
L 121.312358 66.403755 
L 123.758419 94.517417 
L 126.204481 119.220431 
L 128.650542 95.713477 
L 131.096603 63.424258 
L 133.542665 78.486766 
L 135.988726 64.792439 
L 138.434788 88.01027 
L 140.880849 91.414154 
L 143.326911 68.504384 
L 145.772972 110.193342 
L 148.219033 89.992206 
L 150.665095 106.01846 
L 153.111156 93.299377 
L 155.557218 55.591537 
L 158.003279 86.41248 
L 160.449341 98.376122 
L 162.895402 56.349008 
L 165.341463 100.530517 
L 167.787525 64.065403 
L 170.233586 77.294426 
L 172.679648 53.462503 
L 175.125709 73.240605 
L 177.571771 70.700035 
L 180.017832 95.619808 
L 182.463893 112.931395 
L 184.909955 151.502887 
L 187.356016 81.122697 
L 189.802078 84.076495 
L 192.248139 44.044842 
L 194.694201 64.553025 
L 197.140262 83.736985 
L 199.586323 79.3024 
L 202.032385 138.899792 
L 204.478446 74.289567 
L 206.924508 82.757684 
L 209.370569 99.382476 
L 211.816631 70.665881 
L 214.262692 143.178149 
L 216.708753 150.188473 
L 219.154815 71.357073 
L 221.600876 86.327941 
L 224.046938 104.731098 
L 226.492999 112.681836 
L 228.939061 99.466 
L 231.385122 89.082226 
L 233.831183 107.560793 
L 236.277245 61.033153 
L 238.723306 64.30245 
L 241.169368 89.424779 
L 243.615429 83.610177 
L 246.061491 102.69641 
L 248.507552 84.06635 
L 250.953613 59.786031 
L 253.399675 86.931889 
L 255.845736 126.578042 
L 258.291798 39.19703 
L 260.737859 123.691538 
L 263.183921 50.2419 
L 265.629982 69.607451 
L 268.076043 89.018315 
L 270.522105 76.590722 
L 272.968166 101.448951 
L 275.414228 59.787384 
L 277.860289 33.441943 
L 280.306351 31.47049 
L 282.752412 54.968653 
L 285.198473 93.537439 
L 287.644535 105.658324 
L 290.090596 118.98778 
L 292.536658 83.205065 
L 294.982719 104.118359 
L 297.428781 72.319805 
L 299.874842 93.00721 
L 302.320903 54.498615 
L 304.766965 54.896625 
L 307.213026 165.05316 
L 309.659088 105.887932 
L 312.105149 150.5503 
L 314.551211 39.144954 
" clip-path="url(#p8a587a10ed)" style="fill: none; stroke: #35b779; stroke-width: 1.5; stroke-linecap: round"/>
   </g>
   <g id="line2d_28">
    <path d="M 72.391129 21.469847 
L 74.837191 57.716175 
L 77.283252 96.953159 
L 79.729313 43.707024 
L 82.175375 65.975649 
L 84.621436 84.1049 
L 87.067498 53.430378 
L 89.513559 109.84504 
L 91.959621 78.878352 
L 94.405682 30.985235 
L 96.851743 106.601442 
L 99.297805 31.619955 
L 101.743866 115.066854 
L 104.189928 107.311233 
L 106.635989 117.958769 
L 109.082051 77.863882 
L 111.528112 143.138246 
L 113.974173 136.885393 
L 116.420235 89.069038 
L 118.866296 99.892416 
L 121.312358 67.789183 
L 123.758419 93.557052 
L 126.204481 120.929813 
L 128.650542 96.176751 
L 131.096603 63.214939 
L 133.542665 78.242617 
L 135.988726 64.692683 
L 138.434788 86.993433 
L 140.880849 91.985639 
L 143.326911 67.358033 
L 145.772972 111.566934 
L 148.219033 90.558618 
L 150.665095 105.769915 
L 153.111156 93.534734 
L 155.557218 55.748442 
L 158.003279 87.317387 
L 160.449341 99.733482 
L 162.895402 56.166403 
L 165.341463 101.795561 
L 167.787525 65.397063 
L 170.233586 78.337301 
L 172.679648 54.543252 
L 175.125709 74.815739 
L 177.571771 71.86938 
L 180.017832 94.225926 
L 182.463893 113.765966 
L 184.909955 152.625229 
L 187.356016 81.403705 
L 189.802078 85.66583 
L 192.248139 43.969772 
L 194.694201 64.648723 
L 197.140262 84.13973 
L 199.586323 80.406819 
L 202.032385 140.201695 
L 204.478446 76.19677 
L 206.924508 83.543898 
L 209.370569 99.9871 
L 211.816631 71.281664 
L 214.262692 143.212979 
L 216.708753 149.532449 
L 219.154815 71.871071 
L 221.600876 86.596437 
L 224.046938 106.041793 
L 226.492999 112.165133 
L 228.939061 97.572662 
L 231.385122 90.069982 
L 233.831183 109.177857 
L 236.277245 61.134938 
L 238.723306 63.519956 
L 241.169368 89.339902 
L 243.615429 84.860342 
L 246.061491 103.958749 
L 248.507552 84.127894 
L 250.953613 60.443408 
L 253.399675 87.488494 
L 255.845736 126.611858 
L 258.291798 39.570693 
L 260.737859 123.995541 
L 263.183921 49.02386 
L 265.629982 70.553613 
L 268.076043 90.062542 
L 270.522105 77.153753 
L 272.968166 101.071568 
L 275.414228 59.786708 
L 277.860289 33.57822 
L 280.306351 30.021827 
L 282.752412 54.893582 
L 285.198473 94.165396 
L 287.644535 106.386713 
L 290.090596 119.309705 
L 292.536658 81.946446 
L 294.982719 105.592045 
L 297.428781 72.227488 
L 299.874842 93.017693 
L 302.320903 54.059011 
L 304.766965 55.0187 
L 307.213026 165.362911 
L 309.659088 106.762067 
L 312.105149 149.806694 
L 314.551211 39.023894 
" clip-path="url(#p8a587a10ed)" style="fill: none; stroke: #4ac16d; stroke-width: 1.5; stroke-linecap: round"/>
   </g>
   <g id="line2d_29">
    <path d="M 72.391129 20.707981 
L 74.837191 56.244856 
L 77.283252 95.974872 
L 79.729313 42.826464 
L 82.175375 65.594885 
L 84.621436 83.82423 
L 87.067498 51.725055 
L 89.513559 109.525821 
L 91.959621 78.621691 
L 94.405682 29.677246 
L 96.851743 106.758685 
L 99.297805 32.391967 
L 101.743866 114.064896 
L 104.189928 106.06073 
L 106.635989 117.828917 
L 109.082051 76.597147 
L 111.528112 142.325994 
L 113.974173 136.410283 
L 116.420235 87.940948 
L 118.866296 98.299022 
L 121.312358 67.511556 
L 123.758419 93.431258 
L 126.204481 120.168284 
L 128.650542 94.132595 
L 131.096603 61.747339 
L 133.542665 77.721518 
L 135.988726 63.283247 
L 138.434788 85.456173 
L 140.880849 90.943778 
L 143.326911 65.56648 
L 145.772972 111.436743 
L 148.219033 89.309129 
L 150.665095 105.631609 
L 153.111156 92.775234 
L 155.557218 55.164783 
L 158.003279 86.401997 
L 160.449341 99.538366 
L 162.895402 55.476902 
L 165.341463 102.804282 
L 167.787525 65.338562 
L 170.233586 77.267374 
L 172.679648 52.993818 
L 175.125709 75.443357 
L 177.571771 71.669192 
L 180.017832 92.254473 
L 182.463893 113.710508 
L 184.909955 152.648562 
L 187.356016 80.91845 
L 189.802078 86.881165 
L 192.248139 43.488575 
L 194.694201 64.330517 
L 197.140262 83.118835 
L 199.586323 79.466068 
L 202.032385 141.425145 
L 204.478446 76.252904 
L 206.924508 82.652855 
L 209.370569 98.721042 
L 211.816631 71.923823 
L 214.262692 142.686807 
L 216.708753 148.124365 
L 219.154815 71.922471 
L 221.600876 85.30637 
L 224.046938 106.437098 
L 226.492999 111.711326 
L 228.939061 96.279889 
L 231.385122 90.968464 
L 233.831183 109.340173 
L 236.277245 60.932382 
L 238.723306 63.045861 
L 241.169368 88.636198 
L 243.615429 84.374411 
L 246.061491 104.394294 
L 248.507552 83.628775 
L 250.953613 60.688233 
L 253.399675 85.888676 
L 255.845736 127.571884 
L 258.291798 39.49055 
L 260.737859 123.51502 
L 263.183921 47.603602 
L 265.629982 70.73757 
L 268.076043 90.909286 
L 270.522105 76.137254 
L 272.968166 100.47134 
L 275.414228 58.85069 
L 277.860289 34.097967 
L 280.306351 27.928976 
L 282.752412 55.026816 
L 285.198473 94.154913 
L 287.644535 106.006963 
L 290.090596 117.717664 
L 292.536658 79.893836 
L 294.982719 104.572165 
L 297.428781 70.605351 
L 299.874842 93.28044 
L 302.320903 53.956888 
L 304.766965 55.818778 
L 307.213026 164.760654 
L 309.659088 107.376835 
L 312.105149 148.830436 
L 314.551211 38.702307 
" clip-path="url(#p8a587a10ed)" style="fill: none; stroke: #65cb5e; stroke-width: 1.5; stroke-linecap: round"/>
   </g>
   <g id="line2d_30">
    <path d="M 72.391129 20.533492 
L 74.837191 54.669384 
L 77.283252 94.509978 
L 79.729313 42.237734 
L 82.175375 65.823479 
L 84.621436 83.346415 
L 87.067498 51.31318 
L 89.513559 109.437562 
L 91.959621 79.133998 
L 94.405682 29.551452 
L 96.851743 105.816581 
L 99.297805 33.643146 
L 101.743866 112.29769 
L 104.189928 104.811241 
L 106.635989 118.275622 
L 109.082051 75.80045 
L 111.528112 141.565818 
L 113.974173 135.322771 
L 116.420235 86.311371 
L 118.866296 97.632515 
L 121.312358 65.658797 
L 123.758419 93.991245 
L 126.204481 118.498805 
L 128.650542 92.233846 
L 131.096603 60.9547 
L 133.542665 77.136169 
L 135.988726 62.225493 
L 138.434788 85.475448 
L 140.880849 88.998702 
L 143.326911 64.648385 
L 145.772972 109.998225 
L 148.219033 87.530426 
L 150.665095 105.699579 
L 153.111156 91.958924 
L 155.557218 54.887157 
L 158.003279 84.827878 
L 160.449341 98.20028 
L 162.895402 55.263525 
L 165.341463 102.112414 
L 167.787525 64.408632 
L 170.233586 75.240463 
L 172.679648 50.597641 
L 175.125709 74.168845 
L 177.571771 70.311831 
L 180.017832 92.287613 
L 182.463893 113.075788 
L 184.909955 152.060508 
L 187.356016 80.39566 
L 189.802078 86.618756 
L 192.248139 43.172399 
L 194.694201 63.996419 
L 197.140262 82.358997 
L 199.586323 78.201362 
L 202.032385 141.640889 
L 204.478446 74.353478 
L 206.924508 82.282236 
L 209.370569 97.600052 
L 211.816631 71.455815 
L 214.262692 142.207639 
L 216.708753 146.964826 
L 219.154815 71.923147 
L 221.600876 84.654742 
L 224.046938 105.801026 
L 226.492999 112.011271 
L 228.939061 96.878426 
L 231.385122 90.479151 
L 233.831183 107.440071 
L 236.277245 60.636833 
L 238.723306 63.296773 
L 241.169368 88.114084 
L 243.615429 83.468489 
L 246.061491 103.217848 
L 248.507552 83.56554 
L 250.953613 60.468431 
L 253.399675 83.945966 
L 255.845736 128.469014 
L 258.291798 38.845347 
L 260.737859 122.800495 
L 263.183921 48.133156 
L 265.629982 69.711265 
L 268.076043 90.669195 
L 270.522105 75.069356 
L 272.968166 100.327623 
L 275.414228 58.027617 
L 277.860289 34.161878 
L 280.306351 27.154598 
L 282.752412 55.356518 
L 285.198473 93.63821 
L 287.644535 105.090221 
L 290.090596 116.388032 
L 292.536658 79.853933 
L 294.982719 102.800901 
L 297.428781 69.569577 
L 299.874842 93.519179 
L 302.320903 54.564555 
L 304.766965 56.692575 
L 307.213026 163.615994 
L 309.659088 106.308937 
L 312.105149 148.603195 
L 314.551211 39.132442 
" clip-path="url(#p8a587a10ed)" style="fill: none; stroke: #81d34d; stroke-width: 1.5; stroke-linecap: round"/>
   </g>
   <g id="line2d_31">
    <path d="M 72.391129 21.060002 
L 74.837191 54.740059 
L 77.283252 94.664853 
L 79.729313 42.912356 
L 82.175375 66.472401 
L 84.621436 82.954491 
L 87.067498 52.541365 
L 89.513559 109.836586 
L 91.959621 79.171872 
L 94.405682 31.008906 
L 96.851743 105.142973 
L 99.297805 34.535879 
L 101.743866 111.964606 
L 104.189928 105.156499 
L 106.635989 118.990485 
L 109.082051 76.610335 
L 111.528112 141.546205 
L 113.974173 134.565301 
L 116.420235 86.056063 
L 118.866296 98.557712 
L 121.312358 64.72988 
L 123.758419 95.571789 
L 126.204481 118.345959 
L 128.650542 92.995036 
L 131.096603 61.909993 
L 133.542665 77.311672 
L 135.988726 63.123637 
L 138.434788 86.497019 
L 140.880849 88.835372 
L 143.326911 66.068304 
L 145.772972 109.081821 
L 148.219033 88.009932 
L 150.665095 106.115173 
L 153.111156 92.262251 
L 155.557218 55.327099 
L 158.003279 84.95976 
L 160.449341 97.833719 
L 162.895402 55.816749 
L 165.341463 101.286974 
L 167.787525 64.163806 
L 170.233586 74.495166 
L 172.679648 49.753264 
L 175.125709 73.207128 
L 177.571771 69.985848 
L 180.017832 94.045351 
L 182.463893 112.880672 
L 184.909955 151.52994 
L 187.356016 80.219481 
L 189.802078 86.060797 
L 192.248139 44.023877 
L 194.694201 63.913232 
L 197.140262 82.625127 
L 199.586323 78.306529 
L 202.032385 140.911823 
L 204.478446 72.936941 
L 206.924508 83.080285 
L 209.370569 97.967291 
L 211.816631 70.843751 
L 214.262692 142.832215 
L 216.708753 147.5309 
L 219.154815 72.07295 
L 221.600876 85.717907 
L 224.046938 104.643854 
L 226.492999 112.563481 
L 228.939061 98.606406 
L 231.385122 90.046987 
L 233.831183 106.358308 
L 236.277245 60.66118 
L 238.723306 64.23279 
L 241.169368 88.557069 
L 243.615429 83.067435 
L 246.061491 102.315308 
L 248.507552 84.150889 
L 250.953613 60.607075 
L 253.399675 84.718316 
L 255.845736 128.432155 
L 258.291798 38.745253 
L 260.737859 122.544511 
L 263.183921 49.720801 
L 265.629982 68.373179 
L 268.076043 90.479489 
L 270.522105 75.228966 
L 272.968166 101.001908 
L 275.414228 57.928537 
L 277.860289 34.3083 
L 280.306351 28.805478 
L 282.752412 55.730858 
L 285.198473 93.163776 
L 287.644535 104.880564 
L 290.090596 117.119126 
L 292.536658 81.390855 
L 294.982719 103.285817 
L 297.428781 70.258064 
L 299.874842 93.390679 
L 302.320903 55.336567 
L 304.766965 56.758854 
L 307.213026 163.178081 
L 309.659088 105.337751 
L 312.105149 149.618003 
L 314.551211 39.445913 
" clip-path="url(#p8a587a10ed)" style="fill: none; stroke: #a0da39; stroke-width: 1.5; stroke-linecap: round"/>
   </g>
   <g id="line2d_32">
    <path d="M 72.391129 20.795901 
L 74.837191 56.330071 
L 77.283252 96.350902 
L 79.729313 43.955569 
L 82.175375 66.639789 
L 84.621436 82.612277 
L 87.067498 53.95283 
L 89.513559 110.714779 
L 91.959621 78.6714 
L 94.405682 32.520804 
L 96.851743 105.427025 
L 99.297805 34.329604 
L 101.743866 113.335831 
L 104.189928 106.267006 
L 106.635989 119.454774 
L 109.082051 78.094505 
L 111.528112 142.263097 
L 113.974173 135.629141 
L 116.420235 87.40125 
L 118.866296 99.565418 
L 121.312358 65.87285 
L 123.758419 96.449644 
L 126.204481 118.970872 
L 128.650542 95.297206 
L 131.096603 63.406336 
L 133.542665 78.112089 
L 135.988726 64.872244 
L 138.434788 87.685978 
L 140.880849 91.343479 
L 143.326911 68.621048 
L 145.772972 109.921464 
L 148.219033 90.090947 
L 150.665095 106.512169 
L 153.111156 93.374448 
L 155.557218 55.337243 
L 158.003279 86.224803 
L 160.449341 98.634135 
L 162.895402 55.698056 
L 165.341463 100.930895 
L 167.787525 64.215882 
L 170.233586 75.327031 
L 172.679648 51.253664 
L 175.125709 74.078219 
L 177.571771 71.266109 
L 180.017832 95.284356 
L 182.463893 113.318923 
L 184.909955 151.316563 
L 187.356016 80.968159 
L 189.802078 85.782833 
L 192.248139 45.153996 
L 194.694201 64.136416 
L 197.140262 83.010287 
L 199.586323 78.989267 
L 202.032385 140.284205 
L 204.478446 73.135777 
L 206.924508 84.026447 
L 209.370569 98.793069 
L 211.816631 70.908677 
L 214.262692 143.942721 
L 216.708753 149.486798 
L 219.154815 72.171692 
L 221.600876 87.118889 
L 224.046938 103.587453 
L 226.492999 112.861735 
L 228.939061 99.713531 
L 231.385122 90.320894 
L 233.831183 107.505335 
L 236.277245 60.78055 
L 238.723306 65.194508 
L 241.169368 89.772404 
L 243.615429 83.298734 
L 246.061491 102.391731 
L 248.507552 84.781213 
L 250.953613 60.878953 
L 253.399675 86.712763 
L 255.845736 127.999314 
L 258.291798 38.483181 
L 260.737859 122.257754 
L 263.183921 50.422137 
L 265.629982 68.953456 
L 268.076043 90.504851 
L 270.522105 75.888033 
L 272.968166 101.554117 
L 275.414228 59.286236 
L 277.860289 35.11176 
L 280.306351 31.58783 
L 282.752412 56.035875 
L 285.198473 92.967307 
L 287.644535 105.418909 
L 290.090596 119.359752 
L 292.536658 83.60781 
L 294.982719 105.245096 
L 297.428781 71.783488 
L 299.874842 93.423819 
L 302.320903 55.609121 
L 304.766965 55.892496 
L 307.213026 163.990672 
L 309.659088 106.186862 
L 312.105149 150.201999 
L 314.551211 39.061091 
" clip-path="url(#p8a587a10ed)" style="fill: none; stroke: #c0df25; stroke-width: 1.5; stroke-linecap: round"/>
   </g>
   <g id="line2d_33">
    <path d="M 72.391129 19.888289 
L 74.837191 57.391883 
L 77.283252 97.643675 
L 79.729313 44.191264 
L 82.175375 66.324627 
L 84.621436 82.729955 
L 87.067498 54.135773 
L 89.513559 110.76415 
L 91.959621 78.938544 
L 94.405682 31.610825 
L 96.851743 106.401592 
L 99.297805 32.953645 
L 101.743866 114.719567 
L 104.189928 106.448257 
L 106.635989 118.438613 
L 109.082051 78.27339 
L 111.528112 143.099358 
L 113.974173 137.092007 
L 116.420235 88.994982 
L 118.866296 99.520782 
L 121.312358 67.629911 
L 123.758419 95.615073 
L 126.204481 119.827084 
L 128.650542 96.116898 
L 131.096603 63.824973 
L 133.542665 78.134407 
L 135.988726 65.074462 
L 138.434788 87.425259 
L 140.880849 93.361936 
L 143.326911 68.724186 
L 145.772972 111.030279 
L 148.219033 90.858563 
L 150.665095 106.141549 
L 153.111156 94.552585 
L 155.557218 55.096138 
L 158.003279 86.451706 
L 160.449341 99.71556 
L 162.895402 54.837448 
L 165.341463 101.266684 
L 167.787525 63.97782 
L 170.233586 76.199475 
L 172.679648 53.133139 
L 175.125709 75.401426 
L 177.571771 71.724987 
L 180.017832 94.327373 
L 182.463893 113.495779 
L 184.909955 151.912057 
L 187.356016 81.446989 
L 189.802078 85.888676 
L 192.248139 44.605506 
L 194.694201 64.376507 
L 197.140262 83.481339 
L 199.586323 79.61418 
L 202.032385 140.012327 
L 204.478446 74.56787 
L 206.924508 83.917899 
L 209.370569 98.891134 
L 211.816631 70.365598 
L 214.262692 143.334377 
L 216.708753 150.444795 
L 219.154815 72.140244 
L 221.600876 86.566003 
L 224.046938 103.980053 
L 226.492999 112.322714 
L 228.939061 98.95606 
L 231.385122 90.093653 
L 233.831183 109.207615 
L 236.277245 60.855959 
L 238.723306 64.693698 
L 241.169368 90.127807 
L 243.615429 84.27736 
L 246.061491 103.337893 
L 248.507552 84.942175 
L 250.953613 60.396742 
L 253.399675 87.353232 
L 255.845736 127.273969 
L 258.291798 38.546417 
L 260.737859 122.905662 
L 263.183921 49.748868 
L 265.629982 71.133552 
L 268.076043 89.779843 
L 270.522105 76.203533 
L 272.968166 100.769932 
L 275.414228 60.504952 
L 277.860289 34.949783 
L 280.306351 32.138349 
L 282.752412 55.527625 
L 285.198473 93.196239 
L 287.644535 106.106719 
L 290.090596 120.220699 
L 292.536658 84.382188 
L 294.982719 106.250774 
L 297.428781 72.334346 
L 299.874842 93.109333 
L 302.320903 54.535136 
L 304.766965 55.326422 
L 307.213026 164.801571 
L 309.659088 107.848226 
L 312.105149 149.839833 
L 314.551211 38.481152 
" clip-path="url(#p8a587a10ed)" style="fill: none; stroke: #dfe318; stroke-width: 1.5; stroke-linecap: round"/>
   </g>
   <g id="patch_3">
    <path d="M 60.283125 174.685719 
L 60.283125 11.118367 
" style="fill: none"/>
   </g>
   <g id="patch_4">
    <path d="M 326.659215 174.685719 
L 326.659215 11.118367 
" style="fill: none"/>
   </g>
   <g id="patch_5">
    <path d="M 60.283125 174.685719 
L 326.659215 174.685719 
" style="fill: none"/>
   </g>
   <g id="patch_6">
    <path d="M 60.283125 11.118367 
L 326.659215 11.118367 
" style="fill: none"/>
   </g>
  </g>
 </g>
 <defs>
  <clipPath id="p8a587a10ed">
   <rect x="60.283125" y="11.118367" width="266.37609" height="163.567352"/>
  </clipPath>
 </defs>
</svg>
