<?xml version="1.0" encoding="utf-8" standalone="no"?>
<!DOCTYPE svg PUBLIC "-//W3C//DTD SVG 1.1//EN"
  "http://www.w3.org/Graphics/SVG/1.1/DTD/svg11.dtd">
<svg xmlns:xlink="http://www.w3.org/1999/xlink" width="656.39952pt" height="224.39952pt" viewBox="0 0 656.39952 224.39952" xmlns="http://www.w3.org/2000/svg" version="1.1">
 <metadata>
  <rdf:RDF xmlns:dc="http://purl.org/dc/elements/1.1/" xmlns:cc="http://creativecommons.org/ns#" xmlns:rdf="http://www.w3.org/1999/02/22-rdf-syntax-ns#">
   <cc:Work>
    <dc:type rdf:resource="http://purl.org/dc/dcmitype/StillImage"/>
    <dc:date>2023-12-05T12:05:22.952168</dc:date>
    <dc:format>image/svg+xml</dc:format>
    <dc:creator>
     <cc:Agent>
      <dc:title>Matplotlib v3.8.2, https://matplotlib.org/</dc:title>
     </cc:Agent>
    </dc:creator>
   </cc:Work>
  </rdf:RDF>
 </metadata>
 <defs>
  <style type="text/css">*{stroke-linejoin: round; stroke-linecap: butt}</style>
 </defs>
 <g id="figure_1">
  <g id="patch_1">
   <path d="M 0 224.39952 
L 656.39952 224.39952 
L 656.39952 0 
L 0 0 
L 0 224.39952 
z
" style="fill: none"/>
  </g>
  <g id="axes_1">
   <g id="patch_2">
    <path d="M 55.4625 181.874911 
L 596.567098 181.874911 
L 596.567098 7.2 
L 55.4625 7.2 
L 55.4625 181.874911 
z
" style="fill: none"/>
   </g>
   <g id="matplotlib.axis_1">
    <g id="xtick_1">
     <g id="text_1">
      <!-- 0 -->
      <g style="fill: #838383" transform="translate(75.683945 195.822762) scale(0.1375 -0.1375)">
       <defs>
        <path id="DejaVuSans-30" d="M 2034 4250 
Q 1547 4250 1301 3770 
Q 1056 3291 1056 2328 
Q 1056 1369 1301 889 
Q 1547 409 2034 409 
Q 2525 409 2770 889 
Q 3016 1369 3016 2328 
Q 3016 3291 2770 3770 
Q 2525 4250 2034 4250 
z
M 2034 4750 
Q 2819 4750 3233 4129 
Q 3647 3509 3647 2328 
Q 3647 1150 3233 529 
Q 2819 -91 2034 -91 
Q 1250 -91 836 529 
Q 422 1150 422 2328 
Q 422 3509 836 4129 
Q 1250 4750 2034 4750 
z
" transform="scale(0.015625)"/>
       </defs>
       <use xlink:href="#DejaVuSans-30"/>
      </g>
     </g>
    </g>
    <g id="xtick_2">
     <g id="text_2">
      <!-- 50 -->
      <g style="fill: #838383" transform="translate(170.087491 195.822762) scale(0.1375 -0.1375)">
       <defs>
        <path id="DejaVuSans-35" d="M 691 4666 
L 3169 4666 
L 3169 4134 
L 1269 4134 
L 1269 2991 
Q 1406 3038 1543 3061 
Q 1681 3084 1819 3084 
Q 2600 3084 3056 2656 
Q 3513 2228 3513 1497 
Q 3513 744 3044 326 
Q 2575 -91 1722 -91 
Q 1428 -91 1123 -41 
Q 819 9 494 109 
L 494 744 
Q 775 591 1075 516 
Q 1375 441 1709 441 
Q 2250 441 2565 725 
Q 2881 1009 2881 1497 
Q 2881 1984 2565 2268 
Q 2250 2553 1709 2553 
Q 1456 2553 1204 2497 
Q 953 2441 691 2322 
L 691 4666 
z
" transform="scale(0.015625)"/>
       </defs>
       <use xlink:href="#DejaVuSans-35"/>
       <use xlink:href="#DejaVuSans-30" x="63.623047"/>
      </g>
     </g>
    </g>
    <g id="xtick_3">
     <g id="text_3">
      <!-- 100 -->
      <g style="fill: #838383" transform="translate(264.491038 195.822762) scale(0.1375 -0.1375)">
       <defs>
        <path id="DejaVuSans-31" d="M 794 531 
L 1825 531 
L 1825 4091 
L 703 3866 
L 703 4441 
L 1819 4666 
L 2450 4666 
L 2450 531 
L 3481 531 
L 3481 0 
L 794 0 
L 794 531 
z
" transform="scale(0.015625)"/>
       </defs>
       <use xlink:href="#DejaVuSans-31"/>
       <use xlink:href="#DejaVuSans-30" x="63.623047"/>
       <use xlink:href="#DejaVuSans-30" x="127.246094"/>
      </g>
     </g>
    </g>
    <g id="xtick_4">
     <g id="text_4">
      <!-- 150 -->
      <g style="fill: #838383" transform="translate(363.268803 195.822762) scale(0.1375 -0.1375)">
       <use xlink:href="#DejaVuSans-31"/>
       <use xlink:href="#DejaVuSans-35" x="63.623047"/>
       <use xlink:href="#DejaVuSans-30" x="127.246094"/>
      </g>
     </g>
    </g>
    <g id="xtick_5">
     <g id="text_5">
      <!-- 200 -->
      <g style="fill: #838383" transform="translate(462.046568 195.822762) scale(0.1375 -0.1375)">
       <defs>
        <path id="DejaVuSans-32" d="M 1228 531 
L 3431 531 
L 3431 0 
L 469 0 
L 469 531 
Q 828 903 1448 1529 
Q 2069 2156 2228 2338 
Q 2531 2678 2651 2914 
Q 2772 3150 2772 3378 
Q 2772 3750 2511 3984 
Q 2250 4219 1831 4219 
Q 1534 4219 1204 4116 
Q 875 4013 500 3803 
L 500 4441 
Q 881 4594 1212 4672 
Q 1544 4750 1819 4750 
Q 2544 4750 2975 4387 
Q 3406 4025 3406 3419 
Q 3406 3131 3298 2873 
Q 3191 2616 2906 2266 
Q 2828 2175 2409 1742 
Q 1991 1309 1228 531 
z
" transform="scale(0.015625)"/>
       </defs>
       <use xlink:href="#DejaVuSans-32"/>
       <use xlink:href="#DejaVuSans-30" x="63.623047"/>
       <use xlink:href="#DejaVuSans-30" x="127.246094"/>
      </g>
     </g>
    </g>
    <g id="xtick_6">
     <g id="text_6">
      <!-- 250 -->
      <g style="fill: #838383" transform="translate(560.824334 195.822762) scale(0.1375 -0.1375)">
       <use xlink:href="#DejaVuSans-32"/>
       <use xlink:href="#DejaVuSans-35" x="63.623047"/>
       <use xlink:href="#DejaVuSans-30" x="127.246094"/>
      </g>
     </g>
    </g>
    <g id="text_7">
     <!-- Step -->
     <g style="fill: #838383" transform="translate(308.937065 214.079989) scale(0.15 -0.15)">
      <defs>
       <path id="DejaVuSans-53" d="M 3425 4513 
L 3425 3897 
Q 3066 4069 2747 4153 
Q 2428 4238 2131 4238 
Q 1616 4238 1336 4038 
Q 1056 3838 1056 3469 
Q 1056 3159 1242 3001 
Q 1428 2844 1947 2747 
L 2328 2669 
Q 3034 2534 3370 2195 
Q 3706 1856 3706 1288 
Q 3706 609 3251 259 
Q 2797 -91 1919 -91 
Q 1588 -91 1214 -16 
Q 841 59 441 206 
L 441 856 
Q 825 641 1194 531 
Q 1563 422 1919 422 
Q 2459 422 2753 634 
Q 3047 847 3047 1241 
Q 3047 1584 2836 1778 
Q 2625 1972 2144 2069 
L 1759 2144 
Q 1053 2284 737 2584 
Q 422 2884 422 3419 
Q 422 4038 858 4394 
Q 1294 4750 2059 4750 
Q 2388 4750 2728 4690 
Q 3069 4631 3425 4513 
z
" transform="scale(0.015625)"/>
       <path id="DejaVuSans-74" d="M 1172 4494 
L 1172 3500 
L 2356 3500 
L 2356 3053 
L 1172 3053 
L 1172 1153 
Q 1172 725 1289 603 
Q 1406 481 1766 481 
L 2356 481 
L 2356 0 
L 1766 0 
Q 1100 0 847 248 
Q 594 497 594 1153 
L 594 3053 
L 172 3053 
L 172 3500 
L 594 3500 
L 594 4494 
L 1172 4494 
z
" transform="scale(0.015625)"/>
       <path id="DejaVuSans-65" d="M 3597 1894 
L 3597 1613 
L 953 1613 
Q 991 1019 1311 708 
Q 1631 397 2203 397 
Q 2534 397 2845 478 
Q 3156 559 3463 722 
L 3463 178 
Q 3153 47 2828 -22 
Q 2503 -91 2169 -91 
Q 1331 -91 842 396 
Q 353 884 353 1716 
Q 353 2575 817 3079 
Q 1281 3584 2069 3584 
Q 2775 3584 3186 3129 
Q 3597 2675 3597 1894 
z
M 3022 2063 
Q 3016 2534 2758 2815 
Q 2500 3097 2075 3097 
Q 1594 3097 1305 2825 
Q 1016 2553 972 2059 
L 3022 2063 
z
" transform="scale(0.015625)"/>
       <path id="DejaVuSans-70" d="M 1159 525 
L 1159 -1331 
L 581 -1331 
L 581 3500 
L 1159 3500 
L 1159 2969 
Q 1341 3281 1617 3432 
Q 1894 3584 2278 3584 
Q 2916 3584 3314 3078 
Q 3713 2572 3713 1747 
Q 3713 922 3314 415 
Q 2916 -91 2278 -91 
Q 1894 -91 1617 61 
Q 1341 213 1159 525 
z
M 3116 1747 
Q 3116 2381 2855 2742 
Q 2594 3103 2138 3103 
Q 1681 3103 1420 2742 
Q 1159 2381 1159 1747 
Q 1159 1113 1420 752 
Q 1681 391 2138 391 
Q 2594 391 2855 752 
Q 3116 1113 3116 1747 
z
" transform="scale(0.015625)"/>
      </defs>
      <use xlink:href="#DejaVuSans-53"/>
      <use xlink:href="#DejaVuSans-74" x="63.476562"/>
      <use xlink:href="#DejaVuSans-65" x="102.685547"/>
      <use xlink:href="#DejaVuSans-70" x="164.208984"/>
     </g>
    </g>
   </g>
   <g id="matplotlib.axis_2">
    <g id="ytick_1">
     <g id="line2d_1"/>
     <g id="text_8">
      <!-- 0 -->
      <g style="fill: #023eff" transform="translate(43.214062 164.906311) scale(0.1375 -0.1375)">
       <use xlink:href="#DejaVuSans-30"/>
      </g>
     </g>
    </g>
    <g id="ytick_2">
     <g id="line2d_2"/>
     <g id="text_9">
      <!-- 20 -->
      <g style="fill: #023eff" transform="translate(34.465625 135.739095) scale(0.1375 -0.1375)">
       <use xlink:href="#DejaVuSans-32"/>
       <use xlink:href="#DejaVuSans-30" x="63.623047"/>
      </g>
     </g>
    </g>
    <g id="ytick_3">
     <g id="line2d_3"/>
     <g id="text_10">
      <!-- 40 -->
      <g style="fill: #023eff" transform="translate(34.465625 106.571878) scale(0.1375 -0.1375)">
       <defs>
        <path id="DejaVuSans-34" d="M 2419 4116 
L 825 1625 
L 2419 1625 
L 2419 4116 
z
M 2253 4666 
L 3047 4666 
L 3047 1625 
L 3713 1625 
L 3713 1100 
L 3047 1100 
L 3047 0 
L 2419 0 
L 2419 1100 
L 313 1100 
L 313 1709 
L 2253 4666 
z
" transform="scale(0.015625)"/>
       </defs>
       <use xlink:href="#DejaVuSans-34"/>
       <use xlink:href="#DejaVuSans-30" x="63.623047"/>
      </g>
     </g>
    </g>
    <g id="ytick_4">
     <g id="line2d_4"/>
     <g id="text_11">
      <!-- 60 -->
      <g style="fill: #023eff" transform="translate(34.465625 77.404661) scale(0.1375 -0.1375)">
       <defs>
        <path id="DejaVuSans-36" d="M 2113 2584 
Q 1688 2584 1439 2293 
Q 1191 2003 1191 1497 
Q 1191 994 1439 701 
Q 1688 409 2113 409 
Q 2538 409 2786 701 
Q 3034 994 3034 1497 
Q 3034 2003 2786 2293 
Q 2538 2584 2113 2584 
z
M 3366 4563 
L 3366 3988 
Q 3128 4100 2886 4159 
Q 2644 4219 2406 4219 
Q 1781 4219 1451 3797 
Q 1122 3375 1075 2522 
Q 1259 2794 1537 2939 
Q 1816 3084 2150 3084 
Q 2853 3084 3261 2657 
Q 3669 2231 3669 1497 
Q 3669 778 3244 343 
Q 2819 -91 2113 -91 
Q 1303 -91 875 529 
Q 447 1150 447 2328 
Q 447 3434 972 4092 
Q 1497 4750 2381 4750 
Q 2619 4750 2861 4703 
Q 3103 4656 3366 4563 
z
" transform="scale(0.015625)"/>
       </defs>
       <use xlink:href="#DejaVuSans-36"/>
       <use xlink:href="#DejaVuSans-30" x="63.623047"/>
      </g>
     </g>
    </g>
    <g id="ytick_5">
     <g id="line2d_5"/>
     <g id="text_12">
      <!-- 80 -->
      <g style="fill: #023eff" transform="translate(34.465625 48.237444) scale(0.1375 -0.1375)">
       <defs>
        <path id="DejaVuSans-38" d="M 2034 2216 
Q 1584 2216 1326 1975 
Q 1069 1734 1069 1313 
Q 1069 891 1326 650 
Q 1584 409 2034 409 
Q 2484 409 2743 651 
Q 3003 894 3003 1313 
Q 3003 1734 2745 1975 
Q 2488 2216 2034 2216 
z
M 1403 2484 
Q 997 2584 770 2862 
Q 544 3141 544 3541 
Q 544 4100 942 4425 
Q 1341 4750 2034 4750 
Q 2731 4750 3128 4425 
Q 3525 4100 3525 3541 
Q 3525 3141 3298 2862 
Q 3072 2584 2669 2484 
Q 3125 2378 3379 2068 
Q 3634 1759 3634 1313 
Q 3634 634 3220 271 
Q 2806 -91 2034 -91 
Q 1263 -91 848 271 
Q 434 634 434 1313 
Q 434 1759 690 2068 
Q 947 2378 1403 2484 
z
M 1172 3481 
Q 1172 3119 1398 2916 
Q 1625 2713 2034 2713 
Q 2441 2713 2670 2916 
Q 2900 3119 2900 3481 
Q 2900 3844 2670 4047 
Q 2441 4250 2034 4250 
Q 1625 4250 1398 4047 
Q 1172 3844 1172 3481 
z
" transform="scale(0.015625)"/>
       </defs>
       <use xlink:href="#DejaVuSans-38"/>
       <use xlink:href="#DejaVuSans-30" x="63.623047"/>
      </g>
     </g>
    </g>
    <g id="ytick_6">
     <g id="line2d_6"/>
     <g id="text_13">
      <!-- 100 -->
      <g style="fill: #023eff" transform="translate(25.717187 19.070227) scale(0.1375 -0.1375)">
       <use xlink:href="#DejaVuSans-31"/>
       <use xlink:href="#DejaVuSans-30" x="63.623047"/>
       <use xlink:href="#DejaVuSans-30" x="127.246094"/>
      </g>
     </g>
    </g>
    <g id="text_14">
     <!-- loss -->
     <g style="fill: #023eff" transform="translate(18.597656 109.024174) rotate(-90) scale(0.15 -0.15)">
      <defs>
       <path id="DejaVuSans-6c" d="M 603 4863 
L 1178 4863 
L 1178 0 
L 603 0 
L 603 4863 
z
" transform="scale(0.015625)"/>
       <path id="DejaVuSans-6f" d="M 1959 3097 
Q 1497 3097 1228 2736 
Q 959 2375 959 1747 
Q 959 1119 1226 758 
Q 1494 397 1959 397 
Q 2419 397 2687 759 
Q 2956 1122 2956 1747 
Q 2956 2369 2687 2733 
Q 2419 3097 1959 3097 
z
M 1959 3584 
Q 2709 3584 3137 3096 
Q 3566 2609 3566 1747 
Q 3566 888 3137 398 
Q 2709 -91 1959 -91 
Q 1206 -91 779 398 
Q 353 888 353 1747 
Q 353 2609 779 3096 
Q 1206 3584 1959 3584 
z
" transform="scale(0.015625)"/>
       <path id="DejaVuSans-73" d="M 2834 3397 
L 2834 2853 
Q 2591 2978 2328 3040 
Q 2066 3103 1784 3103 
Q 1356 3103 1142 2972 
Q 928 2841 928 2578 
Q 928 2378 1081 2264 
Q 1234 2150 1697 2047 
L 1894 2003 
Q 2506 1872 2764 1633 
Q 3022 1394 3022 966 
Q 3022 478 2636 193 
Q 2250 -91 1575 -91 
Q 1294 -91 989 -36 
Q 684 19 347 128 
L 347 722 
Q 666 556 975 473 
Q 1284 391 1588 391 
Q 1994 391 2212 530 
Q 2431 669 2431 922 
Q 2431 1156 2273 1281 
Q 2116 1406 1581 1522 
L 1381 1569 
Q 847 1681 609 1914 
Q 372 2147 372 2553 
Q 372 3047 722 3315 
Q 1072 3584 1716 3584 
Q 2034 3584 2315 3537 
Q 2597 3491 2834 3397 
z
" transform="scale(0.015625)"/>
      </defs>
      <use xlink:href="#DejaVuSans-6c"/>
      <use xlink:href="#DejaVuSans-6f" x="27.783203"/>
      <use xlink:href="#DejaVuSans-73" x="88.964844"/>
      <use xlink:href="#DejaVuSans-73" x="141.064453"/>
     </g>
    </g>
   </g>
   <g id="line2d_7">
    <path d="M 80.058164 15.139769 
L 82.033719 102.390908 
L 84.009274 131.129252 
L 85.984829 142.291329 
L 87.960385 146.934472 
L 89.93594 148.147557 
L 91.911495 151.453408 
L 99.813717 155.651764 
L 101.789272 154.580738 
L 103.764827 155.285908 
L 107.715938 157.897905 
L 109.691493 156.483794 
L 111.667048 156.728098 
L 113.642604 158.276498 
L 115.618159 156.599046 
L 129.447046 159.722395 
L 131.422601 158.457428 
L 133.398157 159.481583 
L 135.373712 158.760463 
L 143.275933 160.481788 
L 145.251489 159.775902 
L 147.227044 160.991228 
L 149.202599 160.35425 
L 151.178155 161.82184 
L 153.15371 160.768528 
L 157.10482 160.861947 
L 165.007042 160.680393 
L 166.982597 161.43025 
L 172.909263 161.158198 
L 174.884818 161.841927 
L 178.835929 160.723342 
L 182.787039 161.435279 
L 190.689261 162.272186 
L 192.664816 160.544957 
L 194.640371 162.06267 
L 196.615927 161.781222 
L 198.591482 162.662046 
L 200.567037 161.536601 
L 204.518148 163.28977 
L 206.493703 161.364857 
L 210.444814 162.130606 
L 214.395924 161.98851 
L 216.37148 162.512641 
L 218.347035 161.522757 
L 220.32259 162.436314 
L 222.298146 161.860752 
L 224.273701 162.920131 
L 228.224811 162.496643 
L 230.200367 164.311498 
L 232.175922 163.117749 
L 236.127033 163.589476 
L 240.078143 163.172795 
L 242.053699 164.235489 
L 244.029254 163.729656 
L 246.004809 164.422326 
L 247.980365 163.166658 
L 249.95592 164.453038 
L 255.882586 163.952288 
L 257.858141 165.029916 
L 259.833696 163.917757 
L 261.809252 164.160655 
L 263.784807 163.293052 
L 267.735918 164.509186 
L 269.711473 164.421685 
L 271.687028 165.646421 
L 275.638139 163.444839 
L 279.589249 165.431438 
L 281.564805 163.348774 
L 283.54036 165.139726 
L 285.515915 164.420451 
L 287.491471 165.83917 
L 289.467026 163.840546 
L 291.442581 166.208002 
L 293.418137 165.464903 
L 295.393692 165.926912 
L 297.369247 165.311321 
L 301.320358 166.72459 
L 303.295913 165.379884 
L 315.149245 168.089489 
L 319.100355 166.678686 
L 323.051466 167.854481 
L 328.978132 168.379056 
L 332.929243 167.447845 
L 336.880353 169.302142 
L 340.831464 167.888663 
L 342.807019 169.346284 
L 344.782574 169.206518 
L 346.75813 167.892239 
L 348.733685 168.796754 
L 350.70924 167.884081 
L 352.684796 169.55493 
L 354.660351 167.916403 
L 356.635906 168.608646 
L 358.611462 168.094369 
L 362.562572 169.558913 
L 366.513683 169.338264 
L 368.489238 169.486473 
L 370.464793 170.916594 
L 374.415904 170.085391 
L 376.391459 170.487987 
L 378.367015 167.659362 
L 380.34257 171.58394 
L 390.220346 169.586085 
L 394.171457 172.083791 
L 396.147012 170.044436 
L 398.122568 170.566065 
L 400.098123 169.538439 
L 402.073678 171.332022 
L 404.049234 169.855869 
L 406.024789 171.01574 
L 409.9759 170.787138 
L 411.951455 171.454115 
L 415.902565 170.471438 
L 417.878121 171.69156 
L 421.829231 170.114858 
L 423.804787 170.419647 
L 425.780342 171.749779 
L 427.755897 169.933567 
L 429.731453 170.725189 
L 431.707008 168.502222 
L 433.682563 172.162799 
L 435.658119 170.721925 
L 441.584784 170.582719 
L 443.56034 171.656602 
L 445.535895 170.395891 
L 449.487006 171.639512 
L 457.389227 170.606768 
L 463.315893 172.364603 
L 465.291448 170.360562 
L 467.267003 171.994556 
L 469.242559 170.824819 
L 471.218114 171.025487 
L 473.193669 172.714846 
L 475.169225 172.553118 
L 477.14478 170.423899 
L 479.120335 171.694871 
L 481.095891 170.256995 
L 483.071446 172.559445 
L 487.022556 171.740157 
L 496.900333 170.905582 
L 500.851444 173.571041 
L 502.826999 171.377488 
L 506.778109 170.49761 
L 508.753665 172.587721 
L 510.72922 172.145533 
L 512.704775 173.451044 
L 514.680331 171.31105 
L 516.655886 171.771461 
L 518.631441 173.333531 
L 520.606997 170.785977 
L 528.509218 172.501646 
L 530.484773 173.935142 
L 532.460328 171.885919 
L 536.411439 173.34831 
L 540.36255 171.127769 
L 542.338105 171.652345 
L 546.289216 170.595909 
L 548.264771 172.78145 
L 550.240326 170.994743 
L 552.215882 170.860543 
L 554.191437 172.427572 
L 556.166992 171.836668 
L 558.142547 172.853527 
L 560.118103 171.910277 
L 562.093658 173.661898 
L 566.044769 172.246533 
L 568.020324 173.396465 
L 569.995879 171.097848 
L 571.971435 172.367998 
L 571.971435 172.367998 
" clip-path="url(#p1a78d1e54e)" style="fill: none; stroke: #023eff; stroke-opacity: 0.9; stroke-width: 1.5; stroke-linecap: round"/>
   </g>
  </g>
  <g id="axes_2">
   <g id="matplotlib.axis_3">
    <g id="ytick_7">
     <g id="line2d_8"/>
     <g id="text_15">
      <!-- 0.00 -->
      <g style="fill: #ff7c00" transform="translate(600.067098 179.159068) scale(0.1375 -0.1375)">
       <defs>
        <path id="DejaVuSans-2e" d="M 684 794 
L 1344 794 
L 1344 0 
L 684 0 
L 684 794 
z
" transform="scale(0.015625)"/>
       </defs>
       <use xlink:href="#DejaVuSans-30"/>
       <use xlink:href="#DejaVuSans-2e" x="63.623047"/>
       <use xlink:href="#DejaVuSans-30" x="95.410156"/>
       <use xlink:href="#DejaVuSans-30" x="159.033203"/>
      </g>
     </g>
    </g>
    <g id="ytick_8">
     <g id="line2d_9"/>
     <g id="text_16">
      <!-- 0.02 -->
      <g style="fill: #ff7c00" transform="translate(600.067098 148.478714) scale(0.1375 -0.1375)">
       <use xlink:href="#DejaVuSans-30"/>
       <use xlink:href="#DejaVuSans-2e" x="63.623047"/>
       <use xlink:href="#DejaVuSans-30" x="95.410156"/>
       <use xlink:href="#DejaVuSans-32" x="159.033203"/>
      </g>
     </g>
    </g>
    <g id="ytick_9">
     <g id="line2d_10"/>
     <g id="text_17">
      <!-- 0.04 -->
      <g style="fill: #ff7c00" transform="translate(600.067098 117.798359) scale(0.1375 -0.1375)">
       <use xlink:href="#DejaVuSans-30"/>
       <use xlink:href="#DejaVuSans-2e" x="63.623047"/>
       <use xlink:href="#DejaVuSans-30" x="95.410156"/>
       <use xlink:href="#DejaVuSans-34" x="159.033203"/>
      </g>
     </g>
    </g>
    <g id="ytick_10">
     <g id="line2d_11"/>
     <g id="text_18">
      <!-- 0.06 -->
      <g style="fill: #ff7c00" transform="translate(600.067098 87.118005) scale(0.1375 -0.1375)">
       <use xlink:href="#DejaVuSans-30"/>
       <use xlink:href="#DejaVuSans-2e" x="63.623047"/>
       <use xlink:href="#DejaVuSans-30" x="95.410156"/>
       <use xlink:href="#DejaVuSans-36" x="159.033203"/>
      </g>
     </g>
    </g>
    <g id="ytick_11">
     <g id="line2d_12"/>
     <g id="text_19">
      <!-- 0.08 -->
      <g style="fill: #ff7c00" transform="translate(600.067098 56.437651) scale(0.1375 -0.1375)">
       <use xlink:href="#DejaVuSans-30"/>
       <use xlink:href="#DejaVuSans-2e" x="63.623047"/>
       <use xlink:href="#DejaVuSans-30" x="95.410156"/>
       <use xlink:href="#DejaVuSans-38" x="159.033203"/>
      </g>
     </g>
    </g>
    <g id="ytick_12">
     <g id="line2d_13"/>
     <g id="text_20">
      <!-- 0.10 -->
      <g style="fill: #ff7c00" transform="translate(600.067098 25.757297) scale(0.1375 -0.1375)">
       <use xlink:href="#DejaVuSans-30"/>
       <use xlink:href="#DejaVuSans-2e" x="63.623047"/>
       <use xlink:href="#DejaVuSans-31" x="95.410156"/>
       <use xlink:href="#DejaVuSans-30" x="159.033203"/>
      </g>
     </g>
    </g>
    <g id="text_21">
     <!-- dQint -->
     <g style="fill: #ff7c00" transform="translate(646.079989 114.979643) rotate(-90) scale(0.15 -0.15)">
      <defs>
       <path id="DejaVuSans-64" d="M 2906 2969 
L 2906 4863 
L 3481 4863 
L 3481 0 
L 2906 0 
L 2906 525 
Q 2725 213 2448 61 
Q 2172 -91 1784 -91 
Q 1150 -91 751 415 
Q 353 922 353 1747 
Q 353 2572 751 3078 
Q 1150 3584 1784 3584 
Q 2172 3584 2448 3432 
Q 2725 3281 2906 2969 
z
M 947 1747 
Q 947 1113 1208 752 
Q 1469 391 1925 391 
Q 2381 391 2643 752 
Q 2906 1113 2906 1747 
Q 2906 2381 2643 2742 
Q 2381 3103 1925 3103 
Q 1469 3103 1208 2742 
Q 947 2381 947 1747 
z
" transform="scale(0.015625)"/>
       <path id="DejaVuSans-51" d="M 2522 4238 
Q 1834 4238 1429 3725 
Q 1025 3213 1025 2328 
Q 1025 1447 1429 934 
Q 1834 422 2522 422 
Q 3209 422 3611 934 
Q 4013 1447 4013 2328 
Q 4013 3213 3611 3725 
Q 3209 4238 2522 4238 
z
M 3406 84 
L 4238 -825 
L 3475 -825 
L 2784 -78 
Q 2681 -84 2626 -87 
Q 2572 -91 2522 -91 
Q 1538 -91 948 567 
Q 359 1225 359 2328 
Q 359 3434 948 4092 
Q 1538 4750 2522 4750 
Q 3503 4750 4090 4092 
Q 4678 3434 4678 2328 
Q 4678 1516 4351 937 
Q 4025 359 3406 84 
z
" transform="scale(0.015625)"/>
       <path id="DejaVuSans-69" d="M 603 3500 
L 1178 3500 
L 1178 0 
L 603 0 
L 603 3500 
z
M 603 4863 
L 1178 4863 
L 1178 4134 
L 603 4134 
L 603 4863 
z
" transform="scale(0.015625)"/>
       <path id="DejaVuSans-6e" d="M 3513 2113 
L 3513 0 
L 2938 0 
L 2938 2094 
Q 2938 2591 2744 2837 
Q 2550 3084 2163 3084 
Q 1697 3084 1428 2787 
Q 1159 2491 1159 1978 
L 1159 0 
L 581 0 
L 581 3500 
L 1159 3500 
L 1159 2956 
Q 1366 3272 1645 3428 
Q 1925 3584 2291 3584 
Q 2894 3584 3203 3211 
Q 3513 2838 3513 2113 
z
" transform="scale(0.015625)"/>
      </defs>
      <use xlink:href="#DejaVuSans-64"/>
      <use xlink:href="#DejaVuSans-51" x="63.476562"/>
      <use xlink:href="#DejaVuSans-69" x="142.1875"/>
      <use xlink:href="#DejaVuSans-6e" x="169.970703"/>
      <use xlink:href="#DejaVuSans-74" x="233.349609"/>
     </g>
    </g>
   </g>
   <g id="line2d_14">
    <path d="M 80.058164 173.935142 
L 82.033719 107.271149 
L 85.984829 144.722579 
L 87.960385 134.985128 
L 89.93594 147.718625 
L 91.911495 142.475389 
L 93.887051 141.726322 
L 95.862606 137.98115 
L 97.838161 137.981139 
L 101.789272 125.247582 
L 103.764827 140.977227 
L 105.740383 123.749484 
L 107.715938 138.730114 
L 109.691493 137.981082 
L 111.667048 125.996557 
L 115.618159 126.745583 
L 117.593714 137.232027 
L 119.56927 131.23977 
L 121.544825 131.239745 
L 123.52038 117.757181 
L 125.495936 120.75331 
L 127.471491 141.726182 
L 129.447046 125.247485 
L 131.422601 120.00426 
L 133.398157 133.486832 
L 135.373712 129.741669 
L 137.349267 121.502325 
L 139.324823 122.251345 
L 141.300378 130.490721 
L 143.275933 132.737777 
L 147.227044 125.996483 
L 149.202599 117.008132 
L 151.178155 117.757136 
L 153.15371 114.011981 
L 157.10482 128.243565 
L 161.055931 112.513905 
L 163.031486 118.506179 
L 165.007042 120.753258 
L 166.982597 116.259083 
L 168.958152 116.259077 
L 170.933708 117.757141 
L 172.909263 126.745526 
L 174.884818 122.251311 
L 176.860374 128.992623 
L 178.835929 116.259071 
L 180.811484 112.513894 
L 182.787039 117.008098 
L 184.762595 114.011947 
L 188.713705 122.251317 
L 190.689261 108.768745 
L 192.664816 117.757136 
L 196.615927 98.282307 
L 198.591482 102.027468 
L 200.567037 112.513928 
L 202.542592 103.525515 
L 204.518148 106.521666 
L 206.493703 114.011952 
L 208.469258 94.537124 
L 210.444814 105.772617 
L 212.420369 101.278435 
L 214.395924 120.004226 
L 216.37148 120.753218 
L 218.347035 105.772617 
L 220.32259 123.000337 
L 222.298146 109.517777 
L 224.273701 120.004243 
L 226.249256 107.270675 
L 228.224811 103.525497 
L 230.200367 111.015841 
L 232.175922 105.772617 
L 234.151477 96.784232 
L 236.127033 105.023567 
L 238.102588 96.784243 
L 240.078143 96.784243 
L 242.053699 103.525509 
L 244.029254 104.274541 
L 246.004809 102.776488 
L 247.980365 105.023562 
L 249.95592 96.78422 
L 251.931475 101.278418 
L 253.90703 99.031328 
L 255.882586 90.791975 
L 257.858141 88.544856 
L 259.833696 118.506145 
L 261.809252 87.795824 
L 267.735918 103.525532 
L 269.711473 87.046814 
L 271.687028 98.282279 
L 273.662583 87.795858 
L 275.638139 90.042937 
L 277.613694 96.784243 
L 279.589249 87.046803 
L 281.564805 98.282284 
L 283.54036 88.544879 
L 285.515915 97.533252 
L 289.467026 80.305526 
L 291.442581 96.035188 
L 293.418137 80.305503 
L 295.393692 98.282261 
L 297.369247 94.537124 
L 299.344802 87.046803 
L 303.295913 94.537135 
L 305.271468 85.54875 
L 307.247024 87.046849 
L 311.198134 72.815193 
L 313.17369 83.301654 
L 315.149245 66.073905 
L 317.1248 77.309374 
L 319.100355 72.066173 
L 321.075911 72.066184 
L 323.051466 81.054546 
L 325.027021 78.807473 
L 327.002577 69.819088 
L 328.978132 68.321024 
L 330.953687 88.544861 
L 332.929243 83.301637 
L 334.904798 64.575852 
L 336.880353 71.317129 
L 338.855909 64.57584 
L 340.831464 76.560377 
L 342.807019 60.830703 
L 344.782574 66.073928 
L 346.75813 78.058418 
L 348.733685 63.077799 
L 350.70924 79.556505 
L 352.684796 86.297782 
L 354.660351 83.30166 
L 356.635906 64.575863 
L 358.611462 86.297805 
L 360.587017 60.830703 
L 364.538128 84.05068 
L 366.513683 71.317141 
L 368.489238 67.571992 
L 370.464793 75.811333 
L 372.440349 53.340359 
L 374.415904 64.575863 
L 376.391459 54.089437 
L 378.367015 75.062313 
L 380.34257 51.093286 
L 382.318125 66.073928 
L 384.293681 46.599082 
L 386.269236 64.575875 
L 388.244791 72.066184 
L 390.220346 71.317152 
L 392.195902 63.077799 
L 394.171457 62.328767 
L 396.147012 76.5604 
L 398.122568 49.595222 
L 400.098123 51.842306 
L 402.073678 42.85391 
L 404.049234 64.575863 
L 406.024789 73.56426 
L 408.000344 38.35974 
L 409.9759 65.324884 
L 411.951455 54.838446 
L 413.92701 30.86942 
L 415.902565 48.84619 
L 417.878121 52.591361 
L 421.829231 53.340382 
L 423.804787 38.359752 
L 427.755897 60.081671 
L 429.731453 55.587478 
L 431.707008 66.82296 
L 433.682563 39.857827 
L 435.658119 62.328767 
L 437.633674 51.093309 
L 439.609229 53.340371 
L 441.584784 49.595233 
L 443.56034 48.84619 
L 445.535895 37.61072 
L 447.51145 57.085543 
L 449.487006 34.61458 
L 451.462561 55.587501 
L 453.438116 51.842329 
L 455.413672 28.622335 
L 457.389227 50.344265 
L 459.364782 56.336499 
L 461.340337 55.587501 
L 463.315893 48.846178 
L 465.291448 56.33651 
L 467.267003 28.622335 
L 469.242559 51.093309 
L 471.218114 43.602988 
L 473.193669 49.595222 
L 475.169225 39.857816 
L 477.14478 44.352009 
L 479.120335 37.610731 
L 481.095891 47.348103 
L 483.071446 45.101052 
L 485.047001 47.348114 
L 487.022556 23.379122 
L 488.998112 45.85005 
L 490.973667 47.348148 
L 492.949222 35.363624 
L 494.924778 60.830692 
L 496.900333 58.583607 
L 500.851444 15.139769 
L 502.826999 32.367518 
L 504.802554 36.861699 
L 506.778109 46.599116 
L 508.753665 24.128154 
L 510.72922 28.622346 
L 512.704775 18.884929 
L 514.680331 27.124271 
L 516.655886 46.599105 
L 518.631441 27.873291 
L 520.606997 42.104912 
L 522.582552 47.348125 
L 524.558107 22.630067 
L 526.533663 39.108772 
L 528.509218 39.108784 
L 530.484773 26.375273 
L 532.460328 46.599093 
L 534.435884 29.371367 
L 536.411439 44.35202 
L 538.386994 32.367507 
L 540.36255 28.622346 
L 542.338105 27.873314 
L 544.31366 46.599093 
L 546.289216 36.112667 
L 548.264771 42.104912 
L 550.240326 33.865548 
L 552.215882 42.853956 
L 556.166992 36.861699 
L 558.142547 27.124282 
L 560.118103 31.618486 
L 562.093658 20.382993 
L 564.069213 26.37525 
L 566.044769 28.622346 
L 568.020324 24.128142 
L 571.971435 38.35974 
L 571.971435 38.35974 
" clip-path="url(#p1a78d1e54e)" style="fill: none; stroke: #ff7c00; stroke-opacity: 0.9; stroke-width: 1.5; stroke-linecap: round"/>
   </g>
  </g>
 </g>
 <defs>
  <clipPath id="p1a78d1e54e">
   <rect x="55.4625" y="7.2" width="541.104598" height="174.674911"/>
  </clipPath>
 </defs>
</svg>
