<?xml version="1.0" encoding="utf-8" standalone="no"?>
<!DOCTYPE svg PUBLIC "-//W3C//DTD SVG 1.1//EN"
  "http://www.w3.org/Graphics/SVG/1.1/DTD/svg11.dtd">
<svg xmlns:xlink="http://www.w3.org/1999/xlink" width="656.39952pt" height="224.399247pt" viewBox="0 0 656.39952 224.399247" xmlns="http://www.w3.org/2000/svg" version="1.1">
 <metadata>
  <rdf:RDF xmlns:dc="http://purl.org/dc/elements/1.1/" xmlns:cc="http://creativecommons.org/ns#" xmlns:rdf="http://www.w3.org/1999/02/22-rdf-syntax-ns#">
   <cc:Work>
    <dc:type rdf:resource="http://purl.org/dc/dcmitype/StillImage"/>
    <dc:date>2023-12-05T12:09:30.813989</dc:date>
    <dc:format>image/svg+xml</dc:format>
    <dc:creator>
     <cc:Agent>
      <dc:title>Matplotlib v3.8.2, https://matplotlib.org/</dc:title>
     </cc:Agent>
    </dc:creator>
   </cc:Work>
  </rdf:RDF>
 </metadata>
 <defs>
  <style type="text/css">*{stroke-linejoin: round; stroke-linecap: butt}</style>
 </defs>
 <g id="figure_1">
  <g id="patch_1">
   <path d="M 0 224.399247 
L 656.39952 224.399247 
L 656.39952 0 
L 0 0 
L 0 224.399247 
z
" style="fill: none"/>
  </g>
  <g id="axes_1">
   <g id="patch_2">
    <path d="M 53.55 182.674247 
L 599.10909 182.674247 
L 599.10909 8.902043 
L 53.55 8.902043 
L 53.55 182.674247 
z
" style="fill: none"/>
   </g>
   <g id="matplotlib.axis_1">
    <g id="xtick_1">
     <g id="text_1">
      <!-- 0 -->
      <g style="fill: #838383" transform="translate(74.22314 196.349247) scale(0.1375 -0.1375)">
       <defs>
        <path id="IBMPlexSans-Regular-30" d="M 1920 -77 
Q 1120 -77 752 531 
Q 384 1139 384 2234 
Q 384 3328 752 3936 
Q 1120 4544 1920 4544 
Q 2720 4544 3088 3936 
Q 3456 3328 3456 2234 
Q 3456 1139 3088 531 
Q 2720 -77 1920 -77 
z
M 1920 390 
Q 2182 390 2368 499 
Q 2554 608 2669 806 
Q 2784 1005 2838 1273 
Q 2893 1542 2893 1869 
L 2893 2598 
Q 2893 2925 2838 3193 
Q 2784 3462 2669 3660 
Q 2554 3859 2368 3968 
Q 2182 4077 1920 4077 
Q 1658 4077 1472 3968 
Q 1286 3859 1171 3660 
Q 1056 3462 1001 3193 
Q 947 2925 947 2598 
L 947 1869 
Q 947 1542 1001 1273 
Q 1056 1005 1171 806 
Q 1286 608 1472 499 
Q 1658 390 1920 390 
z
" transform="scale(0.015625)"/>
       </defs>
       <use xlink:href="#IBMPlexSans-Regular-30"/>
      </g>
     </g>
    </g>
    <g id="xtick_2">
     <g id="text_2">
      <!-- 250 -->
      <g style="fill: #838383" transform="translate(128.280026 196.349247) scale(0.1375 -0.1375)">
       <defs>
        <path id="IBMPlexSans-Regular-32" d="M 3411 0 
L 480 0 
L 480 550 
L 1939 1894 
Q 2253 2182 2464 2505 
Q 2675 2829 2675 3155 
L 2675 3232 
Q 2675 3603 2470 3833 
Q 2266 4064 1850 4064 
Q 1645 4064 1491 4006 
Q 1338 3949 1226 3846 
Q 1114 3744 1040 3606 
Q 966 3469 922 3309 
L 442 3494 
Q 506 3693 618 3881 
Q 730 4070 899 4217 
Q 1069 4365 1309 4454 
Q 1549 4544 1875 4544 
Q 2202 4544 2458 4448 
Q 2714 4352 2886 4179 
Q 3059 4006 3152 3769 
Q 3245 3533 3245 3245 
Q 3245 2982 3171 2758 
Q 3098 2534 2970 2332 
Q 2842 2131 2659 1939 
Q 2477 1747 2266 1555 
L 1062 474 
L 3411 474 
L 3411 0 
z
" transform="scale(0.015625)"/>
        <path id="IBMPlexSans-Regular-35" d="M 3187 3994 
L 1229 3994 
L 1101 2291 
L 1146 2291 
Q 1306 2515 1507 2649 
Q 1709 2784 2061 2784 
Q 2349 2784 2592 2688 
Q 2835 2592 3014 2416 
Q 3194 2240 3293 1984 
Q 3392 1728 3392 1402 
Q 3392 1075 3289 803 
Q 3187 531 2992 336 
Q 2797 141 2518 32 
Q 2240 -77 1888 -77 
Q 1606 -77 1392 -13 
Q 1178 51 1011 160 
Q 845 269 720 403 
Q 595 538 493 685 
L 896 992 
Q 979 858 1072 749 
Q 1165 640 1277 563 
Q 1389 486 1536 444 
Q 1683 403 1888 403 
Q 2349 403 2585 646 
Q 2822 890 2822 1331 
L 2822 1395 
Q 2822 1837 2585 2080 
Q 2349 2323 1888 2323 
Q 1581 2323 1405 2211 
Q 1229 2099 1088 1946 
L 634 2010 
L 794 4467 
L 3187 4467 
L 3187 3994 
z
" transform="scale(0.015625)"/>
       </defs>
       <use xlink:href="#IBMPlexSans-Regular-32"/>
       <use xlink:href="#IBMPlexSans-Regular-35" x="59.999985"/>
       <use xlink:href="#IBMPlexSans-Regular-30" x="119.999969"/>
      </g>
     </g>
    </g>
    <g id="xtick_3">
     <g id="text_3">
      <!-- 500 -->
      <g style="fill: #838383" transform="translate(190.586912 196.349247) scale(0.1375 -0.1375)">
       <use xlink:href="#IBMPlexSans-Regular-35"/>
       <use xlink:href="#IBMPlexSans-Regular-30" x="59.999985"/>
       <use xlink:href="#IBMPlexSans-Regular-30" x="119.999969"/>
      </g>
     </g>
    </g>
    <g id="xtick_4">
     <g id="text_4">
      <!-- 750 -->
      <g style="fill: #838383" transform="translate(252.893797 196.349247) scale(0.1375 -0.1375)">
       <defs>
        <path id="IBMPlexSans-Regular-37" d="M 1120 0 
L 2829 4006 
L 922 4006 
L 922 3174 
L 442 3174 
L 442 4467 
L 3373 4467 
L 3373 3994 
L 1696 0 
L 1120 0 
z
" transform="scale(0.015625)"/>
       </defs>
       <use xlink:href="#IBMPlexSans-Regular-37"/>
       <use xlink:href="#IBMPlexSans-Regular-35" x="59.999985"/>
       <use xlink:href="#IBMPlexSans-Regular-30" x="119.999969"/>
      </g>
     </g>
    </g>
    <g id="xtick_5">
     <g id="text_5">
      <!-- 1000 -->
      <g style="fill: #838383" transform="translate(311.075683 196.349247) scale(0.1375 -0.1375)">
       <defs>
        <path id="IBMPlexSans-Regular-31" d="M 563 0 
L 563 474 
L 1811 474 
L 1811 4070 
L 1766 4070 
L 640 3021 
L 326 3360 
L 1510 4467 
L 2349 4467 
L 2349 474 
L 3501 474 
L 3501 0 
L 563 0 
z
" transform="scale(0.015625)"/>
       </defs>
       <use xlink:href="#IBMPlexSans-Regular-31"/>
       <use xlink:href="#IBMPlexSans-Regular-30" x="59.999985"/>
       <use xlink:href="#IBMPlexSans-Regular-30" x="119.999969"/>
       <use xlink:href="#IBMPlexSans-Regular-30" x="179.999954"/>
      </g>
     </g>
    </g>
    <g id="xtick_6">
     <g id="text_6">
      <!-- 1250 -->
      <g style="fill: #838383" transform="translate(373.382568 196.349247) scale(0.1375 -0.1375)">
       <use xlink:href="#IBMPlexSans-Regular-31"/>
       <use xlink:href="#IBMPlexSans-Regular-32" x="59.999985"/>
       <use xlink:href="#IBMPlexSans-Regular-35" x="119.999969"/>
       <use xlink:href="#IBMPlexSans-Regular-30" x="179.999954"/>
      </g>
     </g>
    </g>
    <g id="xtick_7">
     <g id="text_7">
      <!-- 1500 -->
      <g style="fill: #838383" transform="translate(435.689454 196.349247) scale(0.1375 -0.1375)">
       <use xlink:href="#IBMPlexSans-Regular-31"/>
       <use xlink:href="#IBMPlexSans-Regular-35" x="59.999985"/>
       <use xlink:href="#IBMPlexSans-Regular-30" x="119.999969"/>
       <use xlink:href="#IBMPlexSans-Regular-30" x="179.999954"/>
      </g>
     </g>
    </g>
    <g id="xtick_8">
     <g id="text_8">
      <!-- 1750 -->
      <g style="fill: #838383" transform="translate(497.99634 196.349247) scale(0.1375 -0.1375)">
       <use xlink:href="#IBMPlexSans-Regular-31"/>
       <use xlink:href="#IBMPlexSans-Regular-37" x="59.999985"/>
       <use xlink:href="#IBMPlexSans-Regular-35" x="119.999969"/>
       <use xlink:href="#IBMPlexSans-Regular-30" x="179.999954"/>
      </g>
     </g>
    </g>
    <g id="xtick_9">
     <g id="text_9">
      <!-- 2000 -->
      <g style="fill: #838383" transform="translate(560.303225 196.349247) scale(0.1375 -0.1375)">
       <use xlink:href="#IBMPlexSans-Regular-32"/>
       <use xlink:href="#IBMPlexSans-Regular-30" x="59.999985"/>
       <use xlink:href="#IBMPlexSans-Regular-30" x="119.999969"/>
       <use xlink:href="#IBMPlexSans-Regular-30" x="179.999954"/>
      </g>
     </g>
    </g>
    <g id="text_10">
     <!-- Step -->
     <g style="fill: #838383" transform="translate(310.872514 214.199247) scale(0.15 -0.15)">
      <defs>
       <path id="IBMPlexSans-Regular-53" d="M 1850 -77 
Q 1306 -77 922 131 
Q 538 339 269 704 
L 666 1037 
Q 902 723 1190 560 
Q 1478 397 1869 397 
Q 2349 397 2601 627 
Q 2854 858 2854 1242 
Q 2854 1562 2662 1734 
Q 2470 1907 2029 2010 
L 1664 2093 
Q 1050 2234 726 2518 
Q 403 2803 403 3322 
Q 403 3616 512 3846 
Q 621 4077 816 4230 
Q 1011 4384 1283 4464 
Q 1555 4544 1882 4544 
Q 2387 4544 2748 4358 
Q 3110 4173 3360 3814 
L 2957 3520 
Q 2771 3776 2508 3923 
Q 2246 4070 1856 4070 
Q 1427 4070 1180 3888 
Q 934 3706 934 3341 
Q 934 3021 1142 2857 
Q 1350 2694 1773 2598 
L 2138 2515 
Q 2797 2368 3091 2067 
Q 3386 1766 3386 1267 
Q 3386 960 3280 710 
Q 3174 461 2976 288 
Q 2778 115 2493 19 
Q 2208 -77 1850 -77 
z
" transform="scale(0.015625)"/>
       <path id="IBMPlexSans-Regular-74" d="M 1274 0 
Q 1005 0 867 150 
Q 730 301 730 544 
L 730 2854 
L 186 2854 
L 186 3302 
L 493 3302 
Q 659 3302 720 3369 
Q 781 3437 781 3603 
L 781 4218 
L 1242 4218 
L 1242 3302 
L 1965 3302 
L 1965 2854 
L 1242 2854 
L 1242 448 
L 1914 448 
L 1914 0 
L 1274 0 
z
" transform="scale(0.015625)"/>
       <path id="IBMPlexSans-Regular-65" d="M 1786 -77 
Q 1446 -77 1174 44 
Q 902 166 707 393 
Q 512 621 406 937 
Q 301 1254 301 1651 
Q 301 2042 406 2362 
Q 512 2682 707 2909 
Q 902 3136 1174 3257 
Q 1446 3379 1786 3379 
Q 2118 3379 2380 3257 
Q 2643 3136 2828 2921 
Q 3014 2707 3113 2412 
Q 3213 2118 3213 1766 
L 3213 1523 
L 838 1523 
L 838 1370 
Q 838 1158 905 976 
Q 973 794 1097 659 
Q 1222 525 1404 448 
Q 1587 371 1818 371 
Q 2131 371 2364 518 
Q 2598 666 2726 941 
L 3091 678 
Q 2931 339 2592 131 
Q 2253 -77 1786 -77 
z
M 1786 2950 
Q 1574 2950 1401 2876 
Q 1229 2803 1104 2668 
Q 979 2534 908 2352 
Q 838 2170 838 1952 
L 838 1907 
L 2662 1907 
L 2662 1978 
Q 2662 2419 2422 2684 
Q 2182 2950 1786 2950 
z
" transform="scale(0.015625)"/>
       <path id="IBMPlexSans-Regular-70" d="M 544 3302 
L 1056 3302 
L 1056 2765 
L 1082 2765 
Q 1210 3078 1456 3228 
Q 1702 3379 2048 3379 
Q 2355 3379 2604 3257 
Q 2854 3136 3030 2912 
Q 3206 2688 3299 2368 
Q 3392 2048 3392 1651 
Q 3392 1254 3299 934 
Q 3206 614 3030 390 
Q 2854 166 2604 44 
Q 2355 -77 2048 -77 
Q 1376 -77 1082 538 
L 1056 538 
L 1056 -1280 
L 544 -1280 
L 544 3302 
z
M 1907 384 
Q 2342 384 2592 656 
Q 2842 928 2842 1370 
L 2842 1933 
Q 2842 2374 2592 2646 
Q 2342 2918 1907 2918 
Q 1734 2918 1577 2870 
Q 1421 2822 1305 2739 
Q 1190 2656 1123 2537 
Q 1056 2419 1056 2285 
L 1056 1056 
Q 1056 896 1123 771 
Q 1190 646 1305 560 
Q 1421 474 1577 429 
Q 1734 384 1907 384 
z
" transform="scale(0.015625)"/>
      </defs>
      <use xlink:href="#IBMPlexSans-Regular-53"/>
      <use xlink:href="#IBMPlexSans-Regular-74" x="58.099991"/>
      <use xlink:href="#IBMPlexSans-Regular-65" x="93.199982"/>
      <use xlink:href="#IBMPlexSans-Regular-70" x="148.099976"/>
     </g>
    </g>
   </g>
   <g id="matplotlib.axis_2">
    <g id="ytick_1">
     <g id="line2d_1"/>
     <g id="text_11">
      <!-- −15 -->
      <g style="fill: #2196f3" transform="translate(25.3 172.858357) scale(0.1375 -0.1375)">
       <defs>
        <path id="IBMPlexSans-Regular-2212" d="M 429 1734 
L 429 2170 
L 3411 2170 
L 3411 1734 
L 429 1734 
z
" transform="scale(0.015625)"/>
       </defs>
       <use xlink:href="#IBMPlexSans-Regular-2212"/>
       <use xlink:href="#IBMPlexSans-Regular-31" x="59.999985"/>
       <use xlink:href="#IBMPlexSans-Regular-35" x="119.999969"/>
      </g>
     </g>
    </g>
    <g id="ytick_2">
     <g id="line2d_2"/>
     <g id="text_12">
      <!-- −10 -->
      <g style="fill: #2196f3" transform="translate(25.3 117.474552) scale(0.1375 -0.1375)">
       <use xlink:href="#IBMPlexSans-Regular-2212"/>
       <use xlink:href="#IBMPlexSans-Regular-31" x="59.999985"/>
       <use xlink:href="#IBMPlexSans-Regular-30" x="119.999969"/>
      </g>
     </g>
    </g>
    <g id="ytick_3">
     <g id="line2d_3"/>
     <g id="text_13">
      <!-- −5 -->
      <g style="fill: #2196f3" transform="translate(33.55 62.090747) scale(0.1375 -0.1375)">
       <use xlink:href="#IBMPlexSans-Regular-2212"/>
       <use xlink:href="#IBMPlexSans-Regular-35" x="59.999985"/>
      </g>
     </g>
    </g>
    <g id="text_14">
     <!-- loss -->
     <g style="fill: #2196f3" transform="translate(18.3 109.333848) rotate(-90) scale(0.15 -0.15)">
      <defs>
       <path id="IBMPlexSans-Regular-6c" d="M 1088 0 
Q 819 0 681 150 
Q 544 301 544 531 
L 544 4736 
L 1056 4736 
L 1056 448 
L 1542 448 
L 1542 0 
L 1088 0 
z
" transform="scale(0.015625)"/>
       <path id="IBMPlexSans-Regular-6f" d="M 1792 -77 
Q 1459 -77 1184 44 
Q 909 166 713 393 
Q 518 621 409 937 
Q 301 1254 301 1651 
Q 301 2042 409 2362 
Q 518 2682 713 2909 
Q 909 3136 1184 3257 
Q 1459 3379 1792 3379 
Q 2125 3379 2397 3257 
Q 2669 3136 2867 2909 
Q 3066 2682 3174 2362 
Q 3283 2042 3283 1651 
Q 3283 1254 3174 937 
Q 3066 621 2867 393 
Q 2669 166 2397 44 
Q 2125 -77 1792 -77 
z
M 1792 378 
Q 2208 378 2470 634 
Q 2733 890 2733 1414 
L 2733 1888 
Q 2733 2413 2470 2669 
Q 2208 2925 1792 2925 
Q 1376 2925 1113 2669 
Q 851 2413 851 1888 
L 851 1414 
Q 851 890 1113 634 
Q 1376 378 1792 378 
z
" transform="scale(0.015625)"/>
       <path id="IBMPlexSans-Regular-73" d="M 1536 -77 
Q 1075 -77 764 99 
Q 454 275 230 570 
L 595 864 
Q 787 621 1024 489 
Q 1261 358 1574 358 
Q 1901 358 2083 499 
Q 2266 640 2266 896 
Q 2266 1088 2141 1225 
Q 2016 1363 1690 1414 
L 1427 1453 
Q 1197 1485 1005 1552 
Q 813 1619 669 1731 
Q 525 1843 445 2009 
Q 365 2176 365 2406 
Q 365 2650 454 2832 
Q 544 3014 701 3136 
Q 858 3258 1075 3318 
Q 1293 3379 1542 3379 
Q 1946 3379 2218 3238 
Q 2490 3098 2694 2848 
L 2355 2541 
Q 2246 2694 2035 2819 
Q 1824 2944 1504 2944 
Q 1184 2944 1021 2806 
Q 858 2669 858 2432 
Q 858 2189 1021 2080 
Q 1184 1971 1491 1920 
L 1747 1882 
Q 2298 1798 2528 1564 
Q 2758 1331 2758 954 
Q 2758 474 2432 198 
Q 2106 -77 1536 -77 
z
" transform="scale(0.015625)"/>
      </defs>
      <use xlink:href="#IBMPlexSans-Regular-6c"/>
      <use xlink:href="#IBMPlexSans-Regular-6f" x="27.199997"/>
      <use xlink:href="#IBMPlexSans-Regular-73" x="83.199982"/>
      <use xlink:href="#IBMPlexSans-Regular-73" x="131.899979"/>
     </g>
    </g>
   </g>
   <g id="line2d_4">
    <path d="M 78.34814 84.717512 
L 80.840416 163.595036 
L 83.332691 92.088079 
L 88.317242 89.330403 
L 90.809518 42.679291 
L 93.301793 82.698857 
L 95.794068 85.264307 
L 98.286344 25.945024 
L 100.778619 88.644507 
L 103.270895 88.064596 
L 105.76317 52.913197 
L 108.255446 107.42442 
L 110.747721 91.768318 
L 113.239996 64.672849 
L 115.732272 112.182519 
L 118.224547 103.415293 
L 123.209098 43.056954 
L 125.701374 51.887279 
L 128.193649 147.528358 
L 130.685924 74.481436 
L 133.1782 74.835682 
L 135.670475 104.030846 
L 138.162751 77.004034 
L 140.655026 131.066885 
L 143.147301 62.737318 
L 145.639577 73.361513 
L 148.131852 48.440939 
L 150.624128 133.368656 
L 153.116403 37.74388 
L 155.608679 78.127164 
L 158.100954 160.155753 
L 160.593229 160.146774 
L 163.085505 86.187462 
L 165.57778 93.950129 
L 168.070056 94.217019 
L 170.562331 64.504253 
L 173.054607 102.791015 
L 175.546882 99.823049 
L 178.039157 82.765989 
L 180.531433 57.010293 
L 183.023708 63.878211 
L 185.515984 117.895896 
L 188.008259 112.421595 
L 190.500535 77.021935 
L 192.99281 67.794531 
L 195.485085 114.171881 
L 202.961912 39.331724 
L 205.454187 91.107479 
L 207.946463 111.647017 
L 210.438738 110.225386 
L 212.931013 174.77551 
L 215.423289 16.80078 
L 220.40784 122.324716 
L 222.900115 51.214075 
L 225.39239 138.845577 
L 227.884666 147.604468 
L 230.376941 108.043713 
L 232.869217 113.512152 
L 237.853768 36.119934 
L 240.346043 170.836124 
L 242.838318 108.868795 
L 245.330594 110.530928 
L 247.822869 68.181133 
L 250.315145 135.972579 
L 252.80742 45.330343 
L 255.299696 35.119916 
L 257.791971 94.237776 
L 260.284246 67.199746 
L 262.776522 75.081323 
L 265.268797 78.995832 
L 267.761073 75.100523 
L 270.253348 74.65328 
L 272.745624 39.769272 
L 275.237899 101.974362 
L 277.730174 117.485014 
L 280.22245 73.658604 
L 282.714725 58.404295 
L 285.207001 75.294428 
L 287.699276 113.015513 
L 290.191552 116.570637 
L 292.683827 94.67717 
L 295.176102 101.679151 
L 297.668378 91.17965 
L 300.160653 52.807518 
L 302.652929 102.351272 
L 305.145204 94.738165 
L 307.637479 91.255645 
L 310.129755 127.862241 
L 312.62203 134.549701 
L 315.114306 100.468571 
L 317.606581 100.198227 
L 320.098857 62.709821 
L 322.591132 54.453917 
L 325.083407 98.541407 
L 327.575683 65.688752 
L 330.067958 117.645348 
L 332.560234 136.072901 
L 335.052509 117.550276 
L 337.544785 166.219779 
L 340.03706 124.382626 
L 345.021611 130.96971 
L 347.513886 83.9481 
L 350.006162 92.352033 
L 352.498437 67.326304 
L 354.990713 77.411209 
L 357.482988 120.706327 
L 359.975263 126.686521 
L 362.467539 93.192073 
L 364.959814 106.77049 
L 367.45209 144.267388 
L 369.944365 116.306177 
L 372.436641 118.934934 
L 374.928916 118.065781 
L 377.421191 103.106762 
L 379.913467 43.670138 
L 382.405742 83.818585 
L 384.898018 43.346458 
L 387.390293 132.543775 
L 392.374844 70.537883 
L 394.867119 163.478709 
L 397.359395 58.479545 
L 402.343946 82.142635 
L 404.836221 72.668972 
L 407.328496 112.791131 
L 409.820772 74.848443 
L 412.313047 82.124291 
L 414.805323 158.151474 
L 417.297598 88.017456 
L 422.282149 144.803038 
L 424.774424 75.351155 
L 427.2667 80.548706 
L 429.758975 127.074554 
L 432.251251 93.0835 
L 434.743526 163.483463 
L 437.235802 124.637674 
L 439.728077 111.543948 
L 442.220352 120.383714 
L 444.712628 124.256423 
L 447.204903 50.595813 
L 449.697179 18.68085 
L 452.189454 80.560516 
L 454.681729 73.259003 
L 457.174005 121.643859 
L 459.66628 57.982178 
L 462.158556 92.371036 
L 464.650831 63.02551 
L 467.143107 92.43727 
L 469.635382 141.298725 
L 472.127657 94.697188 
L 474.619933 103.686789 
L 477.112208 150.543046 
L 479.604484 70.266588 
L 482.096759 122.631801 
L 484.589035 87.344474 
L 487.08131 103.479436 
L 489.573585 78.712653 
L 492.065861 82.840668 
L 494.558136 96.573774 
L 497.050412 69.041086 
L 502.034963 118.666534 
L 504.527238 53.000901 
L 507.019513 74.504861 
L 509.511789 129.230442 
L 512.004064 134.522087 
L 514.49634 94.26801 
L 516.988615 80.135436 
L 519.480891 88.257794 
L 521.973166 124.41156 
L 524.465441 69.34731 
L 526.957717 123.436643 
L 529.449992 152.775319 
L 531.942268 20.071263 
L 536.926818 126.688137 
L 539.419094 65.767187 
L 541.911369 127.420386 
L 544.403645 63.637983 
L 546.89592 96.860713 
L 551.880471 60.785462 
L 554.372746 63.209787 
L 556.865022 89.521425 
L 559.357297 127.009788 
L 561.849573 104.788247 
L 564.341848 92.275045 
L 566.834124 108.590591 
L 569.326399 78.219971 
L 571.818674 84.03121 
L 574.31095 127.533554 
L 574.31095 127.533554 
" clip-path="url(#p86caecd0db)" style="fill: none; stroke: #2196f3; stroke-opacity: 0.9; stroke-width: 1.5; stroke-linecap: round"/>
   </g>
  </g>
  <g id="axes_2">
   <g id="matplotlib.axis_3">
    <g id="ytick_4">
     <g id="line2d_5"/>
     <g id="text_15">
      <!-- 0.05 -->
      <g style="fill: #ef5350" transform="translate(602.60909 161.809141) scale(0.1375 -0.1375)">
       <defs>
        <path id="IBMPlexSans-Regular-2e" d="M 870 -77 
Q 666 -77 573 25 
Q 480 128 480 294 
L 480 378 
Q 480 544 573 646 
Q 666 749 870 749 
Q 1075 749 1168 646 
Q 1261 544 1261 378 
L 1261 294 
Q 1261 128 1168 25 
Q 1075 -77 870 -77 
z
" transform="scale(0.015625)"/>
       </defs>
       <use xlink:href="#IBMPlexSans-Regular-30"/>
       <use xlink:href="#IBMPlexSans-Regular-2e" x="59.999985"/>
       <use xlink:href="#IBMPlexSans-Regular-30" x="87.199982"/>
       <use xlink:href="#IBMPlexSans-Regular-35" x="147.199966"/>
      </g>
     </g>
    </g>
    <g id="ytick_5">
     <g id="line2d_6"/>
     <g id="text_16">
      <!-- 0.10 -->
      <g style="fill: #ef5350" transform="translate(602.60909 113.664427) scale(0.1375 -0.1375)">
       <use xlink:href="#IBMPlexSans-Regular-30"/>
       <use xlink:href="#IBMPlexSans-Regular-2e" x="59.999985"/>
       <use xlink:href="#IBMPlexSans-Regular-31" x="87.199982"/>
       <use xlink:href="#IBMPlexSans-Regular-30" x="147.199966"/>
      </g>
     </g>
    </g>
    <g id="ytick_6">
     <g id="line2d_7"/>
     <g id="text_17">
      <!-- 0.15 -->
      <g style="fill: #ef5350" transform="translate(602.60909 65.519714) scale(0.1375 -0.1375)">
       <use xlink:href="#IBMPlexSans-Regular-30"/>
       <use xlink:href="#IBMPlexSans-Regular-2e" x="59.999985"/>
       <use xlink:href="#IBMPlexSans-Regular-31" x="87.199982"/>
       <use xlink:href="#IBMPlexSans-Regular-35" x="147.199966"/>
      </g>
     </g>
    </g>
    <g id="ytick_7">
     <g id="line2d_8"/>
     <g id="text_18">
      <!-- 0.20 -->
      <g style="fill: #ef5350" transform="translate(602.60909 17.375) scale(0.1375 -0.1375)">
       <use xlink:href="#IBMPlexSans-Regular-30"/>
       <use xlink:href="#IBMPlexSans-Regular-2e" x="59.999985"/>
       <use xlink:href="#IBMPlexSans-Regular-32" x="87.199982"/>
       <use xlink:href="#IBMPlexSans-Regular-30" x="147.199966"/>
      </g>
     </g>
    </g>
    <g id="text_19">
     <!-- dQint -->
     <g style="fill: #ef5350" transform="translate(646.19952 114.214708) rotate(-90) scale(0.15 -0.15)">
      <defs>
       <path id="IBMPlexSans-Regular-64" d="M 2656 538 
L 2630 538 
Q 2330 -77 1664 -77 
Q 1357 -77 1107 44 
Q 858 166 682 390 
Q 506 614 413 934 
Q 320 1254 320 1651 
Q 320 2048 413 2368 
Q 506 2688 682 2912 
Q 858 3136 1107 3257 
Q 1357 3379 1664 3379 
Q 2010 3379 2256 3228 
Q 2502 3078 2630 2765 
L 2656 2765 
L 2656 4736 
L 3168 4736 
L 3168 0 
L 2656 0 
L 2656 538 
z
M 1805 384 
Q 1978 384 2134 429 
Q 2291 474 2406 560 
Q 2522 646 2589 771 
Q 2656 896 2656 1056 
L 2656 2285 
Q 2656 2419 2589 2537 
Q 2522 2656 2406 2739 
Q 2291 2822 2134 2870 
Q 1978 2918 1805 2918 
Q 1370 2918 1120 2646 
Q 870 2374 870 1933 
L 870 1370 
Q 870 928 1120 656 
Q 1370 384 1805 384 
z
" transform="scale(0.015625)"/>
       <path id="IBMPlexSans-Regular-51" d="M 3251 -1050 
L 2592 -1050 
Q 2323 -1050 2188 -899 
Q 2054 -749 2054 -525 
L 2054 -70 
Q 1670 -32 1356 134 
Q 1043 301 825 592 
Q 608 883 489 1296 
Q 371 1709 371 2234 
Q 371 2797 505 3225 
Q 640 3654 886 3948 
Q 1133 4243 1481 4393 
Q 1830 4544 2266 4544 
Q 2694 4544 3046 4393 
Q 3398 4243 3644 3948 
Q 3891 3654 4025 3225 
Q 4160 2797 4160 2234 
Q 4160 1203 3731 624 
Q 3302 45 2566 -58 
L 2566 -602 
L 3251 -602 
L 3251 -1050 
z
M 2266 403 
Q 2554 403 2797 505 
Q 3040 608 3216 800 
Q 3392 992 3488 1261 
Q 3584 1530 3584 1862 
L 3584 2605 
Q 3584 2938 3488 3206 
Q 3392 3475 3216 3667 
Q 3040 3859 2797 3961 
Q 2554 4064 2266 4064 
Q 1978 4064 1734 3961 
Q 1491 3859 1315 3667 
Q 1139 3475 1043 3206 
Q 947 2938 947 2605 
L 947 1862 
Q 947 1530 1043 1261 
Q 1139 992 1315 800 
Q 1491 608 1734 505 
Q 1978 403 2266 403 
z
" transform="scale(0.015625)"/>
       <path id="IBMPlexSans-Regular-69" d="M 800 4077 
Q 634 4077 560 4157 
Q 486 4237 486 4365 
L 486 4448 
Q 486 4576 560 4656 
Q 634 4736 800 4736 
Q 966 4736 1040 4656 
Q 1114 4576 1114 4448 
L 1114 4365 
Q 1114 4237 1040 4157 
Q 966 4077 800 4077 
z
M 544 3302 
L 1056 3302 
L 1056 0 
L 544 0 
L 544 3302 
z
" transform="scale(0.015625)"/>
       <path id="IBMPlexSans-Regular-6e" d="M 544 0 
L 544 3302 
L 1056 3302 
L 1056 2765 
L 1082 2765 
Q 1203 3046 1424 3212 
Q 1645 3379 2016 3379 
Q 2528 3379 2825 3049 
Q 3123 2720 3123 2118 
L 3123 0 
L 2611 0 
L 2611 2029 
Q 2611 2918 1862 2918 
Q 1709 2918 1565 2880 
Q 1421 2842 1305 2765 
Q 1190 2688 1123 2569 
Q 1056 2451 1056 2291 
L 1056 0 
L 544 0 
z
" transform="scale(0.015625)"/>
      </defs>
      <use xlink:href="#IBMPlexSans-Regular-64"/>
      <use xlink:href="#IBMPlexSans-Regular-51" x="57.999985"/>
      <use xlink:href="#IBMPlexSans-Regular-69" x="128.799973"/>
      <use xlink:href="#IBMPlexSans-Regular-6e" x="153.799957"/>
      <use xlink:href="#IBMPlexSans-Regular-74" x="210.599945"/>
     </g>
    </g>
   </g>
   <g id="line2d_9">
    <path d="M 78.34814 92.026809 
L 80.840416 69.45896 
L 83.332691 107.07196 
L 85.824967 92.026744 
L 88.317242 92.026752 
L 90.809518 144.685025 
L 93.301793 99.549428 
L 95.794068 84.504126 
L 98.286344 137.162385 
L 100.778619 84.504154 
L 103.270895 99.549399 
L 105.76317 129.639809 
L 108.255446 92.026759 
L 110.747721 122.117219 
L 115.732272 92.026795 
L 118.224547 129.639809 
L 120.716823 129.639816 
L 123.209098 92.026759 
L 125.701374 137.162464 
L 128.193649 69.459032 
L 130.685924 152.20769 
L 133.1782 114.594579 
L 135.670475 114.594629 
L 138.162751 129.639809 
L 140.655026 107.071989 
L 143.147301 114.594615 
L 145.639577 129.639838 
L 148.131852 174.77551 
L 150.624128 99.549392 
L 153.116403 129.639867 
L 155.608679 129.639816 
L 158.100954 114.5946 
L 160.593229 84.504226 
L 163.085505 129.639859 
L 165.57778 99.549392 
L 168.070056 114.594572 
L 170.562331 99.549435 
L 173.054607 144.685054 
L 175.546882 129.639809 
L 180.531433 61.936334 
L 183.023708 152.207608 
L 185.515984 114.594536 
L 188.008259 99.549406 
L 190.500535 107.072046 
L 192.99281 122.117198 
L 195.485085 107.071982 
L 197.977361 107.071975 
L 200.469636 144.685003 
L 202.961912 159.730291 
L 205.454187 122.117248 
L 210.438738 137.162413 
L 212.931013 16.80078 
L 215.423289 144.685111 
L 217.915564 107.072018 
L 220.40784 122.117212 
L 222.900115 129.639881 
L 225.39239 114.594651 
L 227.884666 84.50414 
L 230.376941 99.549363 
L 232.869217 152.207669 
L 235.361492 122.117248 
L 237.853768 159.730226 
L 240.346043 61.936363 
L 242.838318 129.639802 
L 245.330594 76.981643 
L 247.822869 122.117219 
L 250.315145 114.5946 
L 252.80742 114.594622 
L 255.299696 167.252831 
L 257.791971 84.504169 
L 260.284246 144.685061 
L 262.776522 99.549392 
L 267.761073 129.639845 
L 270.253348 122.117183 
L 272.745624 137.162421 
L 275.237899 129.639838 
L 277.730174 84.504169 
L 280.22245 152.207647 
L 282.714725 152.20759 
L 285.207001 144.685018 
L 290.191552 144.685061 
L 292.683827 99.549299 
L 295.176102 107.071967 
L 300.160653 144.685047 
L 302.652929 159.73027 
L 307.637479 69.458917 
L 312.62203 99.549342 
L 317.606581 144.685003 
L 320.098857 144.685075 
L 322.591132 159.730234 
L 325.083407 122.117226 
L 327.575683 107.072025 
L 330.067958 122.117176 
L 332.560234 129.639795 
L 335.052509 122.117241 
L 337.544785 61.936363 
L 340.03706 122.117284 
L 342.529335 84.504169 
L 345.021611 144.685118 
L 347.513886 107.072003 
L 350.006162 129.639838 
L 352.498437 137.162413 
L 354.990713 152.207723 
L 357.482988 114.594629 
L 359.975263 137.162392 
L 362.467539 76.981543 
L 364.959814 107.072003 
L 367.45209 92.026723 
L 369.944365 107.071996 
L 372.436641 137.162378 
L 374.928916 114.594651 
L 377.421191 107.072003 
L 379.913467 122.117212 
L 382.405742 152.207669 
L 384.898018 152.207619 
L 389.882568 137.162406 
L 392.374844 114.594586 
L 394.867119 76.981572 
L 397.359395 167.252874 
L 402.343946 99.549363 
L 404.836221 122.117241 
L 407.328496 99.549385 
L 409.820772 122.117262 
L 412.313047 114.594629 
L 414.805323 114.594572 
L 417.297598 152.207629 
L 419.789874 122.117183 
L 422.282149 61.936377 
L 424.774424 129.639802 
L 429.758975 114.594572 
L 432.251251 159.730262 
L 434.743526 84.504183 
L 437.235802 69.458974 
L 439.728077 114.594622 
L 442.220352 84.504169 
L 444.712628 99.549363 
L 447.204903 152.207651 
L 449.697179 137.162399 
L 452.189454 144.685018 
L 454.681729 129.639867 
L 457.174005 122.117169 
L 459.66628 92.02678 
L 464.650831 144.685054 
L 469.635382 76.981615 
L 472.127657 122.117277 
L 474.619933 114.594522 
L 477.112208 122.117198 
L 479.604484 137.162392 
L 482.096759 99.549413 
L 484.589035 114.594572 
L 487.08131 144.685018 
L 489.573585 107.071989 
L 492.065861 107.071932 
L 494.558136 137.162421 
L 497.050412 129.639809 
L 502.034963 129.639816 
L 504.527238 167.25286 
L 507.019513 144.685061 
L 512.004064 84.504197 
L 514.49634 159.730277 
L 516.988615 84.504197 
L 519.480891 129.63978 
L 521.973166 114.594629 
L 524.465441 137.162442 
L 526.957717 122.117255 
L 529.449992 76.981557 
L 531.942268 137.162378 
L 534.434543 129.639816 
L 536.926818 129.639795 
L 539.419094 122.117183 
L 541.911369 107.071975 
L 544.403645 129.639788 
L 546.89592 114.594629 
L 549.388196 137.162457 
L 551.880471 122.117212 
L 554.372746 122.117212 
L 556.865022 144.684975 
L 559.357297 92.026752 
L 561.849573 69.45896 
L 564.341848 129.639809 
L 566.834124 92.026766 
L 569.326399 122.117241 
L 571.818674 122.117262 
L 574.31095 137.162464 
L 574.31095 137.162464 
" clip-path="url(#p86caecd0db)" style="fill: none; stroke: #ef5350; stroke-opacity: 0.9; stroke-width: 1.5; stroke-linecap: round"/>
   </g>
  </g>
 </g>
 <defs>
  <clipPath id="p86caecd0db">
   <rect x="53.55" y="8.902043" width="545.55909" height="173.772204"/>
  </clipPath>
 </defs>
</svg>
