<?xml version="1.0" encoding="utf-8" standalone="no"?>
<!DOCTYPE svg PUBLIC "-//W3C//DTD SVG 1.1//EN"
  "http://www.w3.org/Graphics/SVG/1.1/DTD/svg11.dtd">
<svg xmlns:xlink="http://www.w3.org/1999/xlink" width="226.872695pt" height="174.899688pt" viewBox="0 0 226.872695 174.899688" xmlns="http://www.w3.org/2000/svg" version="1.1">
 <metadata>
  <rdf:RDF xmlns:dc="http://purl.org/dc/elements/1.1/" xmlns:cc="http://creativecommons.org/ns#" xmlns:rdf="http://www.w3.org/1999/02/22-rdf-syntax-ns#">
   <cc:Work>
    <dc:type rdf:resource="http://purl.org/dc/dcmitype/StillImage"/>
    <dc:date>2023-12-05T11:41:47.137811</dc:date>
    <dc:format>image/svg+xml</dc:format>
    <dc:creator>
     <cc:Agent>
      <dc:title>Matplotlib v3.8.2, https://matplotlib.org/</dc:title>
     </cc:Agent>
    </dc:creator>
   </cc:Work>
  </rdf:RDF>
 </metadata>
 <defs>
  <style type="text/css">*{stroke-linejoin: round; stroke-linecap: butt}</style>
 </defs>
 <g id="figure_1">
  <g id="patch_1">
   <path d="M 0 174.899688 
L 226.872695 174.899688 
L 226.872695 0 
L 0 0 
L 0 174.899688 
z
" style="fill: none"/>
  </g>
  <g id="axes_1">
   <g id="patch_2">
    <path d="M 10.422695 48.78 
L 219.672695 48.78 
L 219.672695 7.2 
L 10.422695 7.2 
L 10.422695 48.78 
z
" style="fill: none"/>
   </g>
   <g id="matplotlib.axis_1">
    <g id="xtick_1"/>
    <g id="xtick_2"/>
    <g id="xtick_3"/>
    <g id="xtick_4"/>
    <g id="xtick_5"/>
   </g>
   <g id="matplotlib.axis_2"/>
   <g id="line2d_1">
    <path d="M 10.422695 48.78 
L 219.672695 48.78 
" style="fill: none; stroke: #482475; stroke-opacity: 0.9; stroke-linecap: round"/>
   </g>
   <g id="text_1">
    <!-- 0 -->
    <g style="fill: #482475" transform="translate(10.422695 47.93325) scale(0.12 -0.12)">
     <defs>
      <path id="DejaVuSans-Bold-30" d="M 2944 2338 
Q 2944 3213 2780 3570 
Q 2616 3928 2228 3928 
Q 1841 3928 1675 3570 
Q 1509 3213 1509 2338 
Q 1509 1453 1675 1090 
Q 1841 728 2228 728 
Q 2613 728 2778 1090 
Q 2944 1453 2944 2338 
z
M 4147 2328 
Q 4147 1169 3647 539 
Q 3147 -91 2228 -91 
Q 1306 -91 806 539 
Q 306 1169 306 2328 
Q 306 3491 806 4120 
Q 1306 4750 2228 4750 
Q 3147 4750 3647 4120 
Q 4147 3491 4147 2328 
z
" transform="scale(0.015625)"/>
     </defs>
     <use xlink:href="#DejaVuSans-Bold-30"/>
    </g>
   </g>
  </g>
  <g id="axes_2">
   <g id="patch_3">
    <path d="M 10.422695 59.175 
L 219.672695 59.175 
L 219.672695 17.595 
L 10.422695 17.595 
L 10.422695 59.175 
z
" style="fill: none"/>
   </g>
   <g id="matplotlib.axis_3">
    <g id="xtick_6"/>
    <g id="xtick_7"/>
    <g id="xtick_8"/>
    <g id="xtick_9"/>
    <g id="xtick_10"/>
   </g>
   <g id="matplotlib.axis_4"/>
   <g id="PolyCollection_1">
    <defs>
     <path id="mddecdcf0cf" d="M 31.434566 -115.734562 
L 31.434566 -115.724688 
L 31.764703 -115.724688 
L 32.094839 -115.724688 
L 32.424976 -115.724688 
L 32.755112 -115.724688 
L 33.085249 -115.724688 
L 33.415385 -115.724688 
L 33.745521 -115.724688 
L 34.075658 -115.724688 
L 34.405794 -115.724688 
L 34.735931 -115.724688 
L 35.066067 -115.724688 
L 35.396204 -115.724688 
L 35.72634 -115.724688 
L 36.056477 -115.724688 
L 36.386613 -115.724688 
L 36.716749 -115.724688 
L 37.046886 -115.724688 
L 37.377022 -115.724688 
L 37.707159 -115.724688 
L 38.037295 -115.724688 
L 38.367432 -115.724688 
L 38.697568 -115.724688 
L 39.027704 -115.724688 
L 39.357841 -115.724688 
L 39.687977 -115.724688 
L 40.018114 -115.724688 
L 40.34825 -115.724688 
L 40.678387 -115.724688 
L 41.008523 -115.724688 
L 41.33866 -115.724688 
L 41.668796 -115.724688 
L 41.998932 -115.724688 
L 42.329069 -115.724688 
L 42.659205 -115.724688 
L 42.989342 -115.724688 
L 43.319478 -115.724688 
L 43.649615 -115.724688 
L 43.979751 -115.724688 
L 44.309887 -115.724688 
L 44.640024 -115.724688 
L 44.97016 -115.724688 
L 45.300297 -115.724688 
L 45.630433 -115.724688 
L 45.96057 -115.724688 
L 46.290706 -115.724688 
L 46.620843 -115.724688 
L 46.950979 -115.724688 
L 47.281115 -115.724688 
L 47.611252 -115.724688 
L 47.941388 -115.724688 
L 48.271525 -115.724688 
L 48.601661 -115.724688 
L 48.931798 -115.724688 
L 49.261934 -115.724688 
L 49.59207 -115.724688 
L 49.922207 -115.724688 
L 50.252343 -115.724688 
L 50.58248 -115.724688 
L 50.912616 -115.724688 
L 51.242753 -115.724688 
L 51.572889 -115.724688 
L 51.903026 -115.724688 
L 52.233162 -115.724688 
L 52.563298 -115.724688 
L 52.893435 -115.724688 
L 53.223571 -115.724688 
L 53.553708 -115.724688 
L 53.883844 -115.724688 
L 54.213981 -115.724688 
L 54.544117 -115.724688 
L 54.874254 -115.724688 
L 55.20439 -115.724688 
L 55.534526 -115.724688 
L 55.864663 -115.724688 
L 56.194799 -115.724688 
L 56.524936 -115.724688 
L 56.855072 -115.724688 
L 57.185209 -115.724688 
L 57.515345 -115.724688 
L 57.845481 -115.724688 
L 58.175618 -115.724688 
L 58.505754 -115.724688 
L 58.835891 -115.724688 
L 59.166027 -115.724688 
L 59.496164 -115.724688 
L 59.8263 -115.724688 
L 60.156437 -115.724688 
L 60.486573 -115.724688 
L 60.816709 -115.724688 
L 61.146846 -115.724688 
L 61.476982 -115.724688 
L 61.807119 -115.724688 
L 62.137255 -115.724688 
L 62.467392 -115.724688 
L 62.797528 -115.724688 
L 63.127664 -115.724688 
L 63.457801 -115.724688 
L 63.787937 -115.724688 
L 64.118074 -115.724688 
L 64.44821 -115.724688 
L 64.778347 -115.724688 
L 65.108483 -115.724688 
L 65.43862 -115.724688 
L 65.768756 -115.724688 
L 66.098892 -115.724688 
L 66.429029 -115.724688 
L 66.759165 -115.724688 
L 67.089302 -115.724688 
L 67.419438 -115.724688 
L 67.749575 -115.724688 
L 68.079711 -115.724688 
L 68.409847 -115.724688 
L 68.739984 -115.724688 
L 69.07012 -115.724688 
L 69.400257 -115.724688 
L 69.730393 -115.724688 
L 70.06053 -115.724688 
L 70.390666 -115.724688 
L 70.720803 -115.724688 
L 71.050939 -115.724688 
L 71.381075 -115.724688 
L 71.711212 -115.724688 
L 72.041348 -115.724688 
L 72.371485 -115.724688 
L 72.701621 -115.724688 
L 73.031758 -115.724688 
L 73.361894 -115.724688 
L 73.69203 -115.724688 
L 74.022167 -115.724688 
L 74.352303 -115.724688 
L 74.68244 -115.724688 
L 75.012576 -115.724688 
L 75.342713 -115.724688 
L 75.672849 -115.724688 
L 76.002986 -115.724688 
L 76.333122 -115.724688 
L 76.663258 -115.724688 
L 76.993395 -115.724688 
L 77.323531 -115.724688 
L 77.653668 -115.724688 
L 77.983804 -115.724688 
L 78.313941 -115.724688 
L 78.644077 -115.724688 
L 78.974214 -115.724688 
L 79.30435 -115.724688 
L 79.634486 -115.724688 
L 79.964623 -115.724688 
L 80.294759 -115.724688 
L 80.624896 -115.724688 
L 80.955032 -115.724688 
L 81.285169 -115.724688 
L 81.615305 -115.724688 
L 81.945441 -115.724688 
L 82.275578 -115.724688 
L 82.605714 -115.724688 
L 82.935851 -115.724688 
L 83.265987 -115.724688 
L 83.596124 -115.724688 
L 83.92626 -115.724688 
L 84.256397 -115.724688 
L 84.586533 -115.724688 
L 84.916669 -115.724688 
L 85.246806 -115.724688 
L 85.576942 -115.724688 
L 85.907079 -115.724688 
L 86.237215 -115.724688 
L 86.567352 -115.724688 
L 86.897488 -115.724688 
L 87.227624 -115.724688 
L 87.557761 -115.724688 
L 87.887897 -115.724688 
L 88.218034 -115.724688 
L 88.54817 -115.724688 
L 88.878307 -115.724688 
L 89.208443 -115.724688 
L 89.53858 -115.724688 
L 89.868716 -115.724688 
L 90.198852 -115.724688 
L 90.528989 -115.724688 
L 90.859125 -115.724688 
L 91.189262 -115.724688 
L 91.519398 -115.724688 
L 91.849535 -115.724688 
L 92.179671 -115.724688 
L 92.509807 -115.724688 
L 92.839944 -115.724688 
L 93.17008 -115.724688 
L 93.500217 -115.724688 
L 93.830353 -115.724688 
L 94.16049 -115.724688 
L 94.490626 -115.724688 
L 94.820763 -115.724688 
L 95.150899 -115.724688 
L 95.481035 -115.724688 
L 95.811172 -115.724688 
L 96.141308 -115.724688 
L 96.471445 -115.724688 
L 96.801581 -115.724688 
L 97.131718 -115.724688 
L 97.131718 -115.771667 
L 97.131718 -115.771667 
L 96.801581 -115.807972 
L 96.471445 -115.869712 
L 96.141308 -115.972039 
L 95.811172 -116.136729 
L 95.481035 -116.39347 
L 95.150899 -116.780581 
L 94.820763 -117.34474 
L 94.490626 -118.139375 
L 94.16049 -119.221402 
L 93.830353 -120.646213 
L 93.500217 -122.46099 
L 93.17008 -124.696738 
L 92.839944 -127.359731 
L 92.509807 -130.423495 
L 92.179671 -133.822741 
L 91.849535 -137.450859 
L 91.519398 -141.162437 
L 91.189262 -144.781703 
L 90.859125 -148.116882 
L 90.528989 -150.979256 
L 90.198852 -153.204488 
L 89.868716 -154.672862 
L 89.53858 -155.324688 
L 89.208443 -155.167574 
L 88.878307 -154.273673 
L 88.54817 -152.767137 
L 88.218034 -150.804392 
L 87.887897 -148.551656 
L 87.557761 -146.164631 
L 87.227624 -143.774223 
L 86.897488 -141.479901 
L 86.567352 -139.349774 
L 86.237215 -137.42481 
L 85.907079 -135.724273 
L 85.576942 -134.250434 
L 85.246806 -132.991983 
L 84.916669 -131.926699 
L 84.586533 -131.024205 
L 84.256397 -130.249312 
L 83.92626 -129.565846 
L 83.596124 -128.94042 
L 83.265987 -128.345525 
L 82.935851 -127.761485 
L 82.605714 -127.177081 
L 82.275578 -126.588985 
L 81.945441 -126.000342 
L 81.615305 -125.419078 
L 81.285169 -124.856481 
L 80.955032 -124.3265 
L 80.624896 -123.84585 
L 80.294759 -123.434641 
L 79.964623 -123.116955 
L 79.634486 -122.920728 
L 79.30435 -122.876346 
L 78.974214 -123.013649 
L 78.644077 -123.35728 
L 78.313941 -123.920752 
L 77.983804 -124.70001 
L 77.653668 -125.667832 
L 77.323531 -126.77078 
L 76.993395 -127.930385 
L 76.663258 -129.049632 
L 76.333122 -130.024503 
L 76.002986 -130.758784 
L 75.672849 -131.179047 
L 75.342713 -131.246311 
L 75.012576 -130.961578 
L 74.68244 -130.364046 
L 74.352303 -129.522744 
L 74.022167 -128.523912 
L 73.69203 -127.457223 
L 73.361894 -126.403719 
L 73.031758 -125.427461 
L 72.701621 -124.571649 
L 72.371485 -123.858834 
L 72.041348 -123.294064 
L 71.711212 -122.86952 
L 71.381075 -122.56929 
L 71.050939 -122.373373 
L 70.720803 -122.260509 
L 70.390666 -122.209939 
L 70.06053 -122.20243 
L 69.730393 -122.220929 
L 69.400257 -122.250972 
L 69.07012 -122.28077 
L 68.739984 -122.300785 
L 68.409847 -122.302819 
L 68.079711 -122.2789 
L 67.749575 -122.220547 
L 67.419438 -122.118859 
L 67.089302 -121.965615 
L 66.759165 -121.754994 
L 66.429029 -121.485241 
L 66.098892 -121.159541 
L 65.768756 -120.785774 
L 65.43862 -120.37527 
L 65.108483 -119.941123 
L 64.778347 -119.496685 
L 64.44821 -119.05459 
L 64.118074 -118.626274 
L 63.787937 -118.221699 
L 63.457801 -117.848968 
L 63.127664 -117.513778 
L 62.797528 -117.218936 
L 62.467392 -116.964258 
L 62.137255 -116.747068 
L 61.807119 -116.563193 
L 61.476982 -116.408117 
L 61.146846 -116.277888 
L 60.816709 -116.169512 
L 60.486573 -116.080813 
L 60.156437 -116.009984 
L 59.8263 -115.955101 
L 59.496164 -115.913849 
L 59.166027 -115.883542 
L 58.835891 -115.86138 
L 58.505754 -115.844807 
L 58.175618 -115.831806 
L 57.845481 -115.821027 
L 57.515345 -115.811736 
L 57.185209 -115.803617 
L 56.855072 -115.796549 
L 56.524936 -115.790425 
L 56.194799 -115.785087 
L 55.864663 -115.780364 
L 55.534526 -115.776173 
L 55.20439 -115.772605 
L 54.874254 -115.769942 
L 54.544117 -115.768573 
L 54.213981 -115.768836 
L 53.883844 -115.770844 
L 53.553708 -115.774364 
L 53.223571 -115.778818 
L 52.893435 -115.783399 
L 52.563298 -115.787267 
L 52.233162 -115.789736 
L 51.903026 -115.790398 
L 51.572889 -115.789137 
L 51.242753 -115.78607 
L 50.912616 -115.78147 
L 50.58248 -115.775706 
L 50.252343 -115.769231 
L 49.922207 -115.762565 
L 49.59207 -115.756271 
L 49.261934 -115.750874 
L 48.931798 -115.74676 
L 48.601661 -115.744081 
L 48.271525 -115.742712 
L 47.941388 -115.742285 
L 47.611252 -115.742283 
L 47.281115 -115.742185 
L 46.950979 -115.741596 
L 46.620843 -115.740328 
L 46.290706 -115.738415 
L 45.96057 -115.736067 
L 45.630433 -115.733574 
L 45.300297 -115.731216 
L 44.97016 -115.729197 
L 44.640024 -115.727615 
L 44.309887 -115.726473 
L 43.979751 -115.725711 
L 43.649615 -115.725239 
L 43.319478 -115.724966 
L 42.989342 -115.72482 
L 42.659205 -115.724747 
L 42.329069 -115.724712 
L 41.998932 -115.724697 
L 41.668796 -115.724691 
L 41.33866 -115.724689 
L 41.008523 -115.724688 
L 40.678387 -115.724688 
L 40.34825 -115.724688 
L 40.018114 -115.724688 
L 39.687977 -115.724688 
L 39.357841 -115.724688 
L 39.027704 -115.724688 
L 38.697568 -115.724688 
L 38.367432 -115.724689 
L 38.037295 -115.724693 
L 37.707159 -115.724702 
L 37.377022 -115.724723 
L 37.046886 -115.724771 
L 36.716749 -115.72487 
L 36.386613 -115.725061 
L 36.056477 -115.725407 
L 35.72634 -115.725989 
L 35.396204 -115.7269 
L 35.066067 -115.72822 
L 34.735931 -115.729986 
L 34.405794 -115.732155 
L 34.075658 -115.734575 
L 33.745521 -115.736987 
L 33.415385 -115.739062 
L 33.085249 -115.740471 
L 32.755112 -115.740968 
L 32.424976 -115.740465 
L 32.094839 -115.739053 
L 31.764703 -115.736975 
L 31.434566 -115.734562 
z
" style="stroke: #414487; stroke-width: 1.25"/>
    </defs>
    <g>
     <use xlink:href="#mddecdcf0cf" x="0" y="174.899688" style="fill: #414487; fill-opacity: 0.7; stroke: #414487; stroke-width: 1.25"/>
    </g>
   </g>
   <g id="line2d_2">
    <path d="M 10.422695 59.175 
L 219.672695 59.175 
" style="fill: none; stroke: #414487; stroke-opacity: 0.9; stroke-linecap: round"/>
   </g>
   <g id="text_2">
    <!-- 1 -->
    <g style="fill: #414487" transform="translate(10.422695 58.32825) scale(0.12 -0.12)">
     <defs>
      <path id="DejaVuSans-Bold-31" d="M 750 831 
L 1813 831 
L 1813 3847 
L 722 3622 
L 722 4441 
L 1806 4666 
L 2950 4666 
L 2950 831 
L 4013 831 
L 4013 0 
L 750 0 
L 750 831 
z
" transform="scale(0.015625)"/>
     </defs>
     <use xlink:href="#DejaVuSans-Bold-31"/>
    </g>
   </g>
  </g>
  <g id="axes_3">
   <g id="patch_4">
    <path d="M 10.422695 69.57 
L 219.672695 69.57 
L 219.672695 27.99 
L 10.422695 27.99 
L 10.422695 69.57 
z
" style="fill: none"/>
   </g>
   <g id="matplotlib.axis_5">
    <g id="xtick_11"/>
    <g id="xtick_12"/>
    <g id="xtick_13"/>
    <g id="xtick_14"/>
    <g id="xtick_15"/>
   </g>
   <g id="matplotlib.axis_6"/>
   <g id="PolyCollection_2">
    <defs>
     <path id="m14b44233dc" d="M 28.727581 -105.33315 
L 28.727581 -105.329688 
L 29.323911 -105.329688 
L 29.920241 -105.329688 
L 30.51657 -105.329688 
L 31.1129 -105.329688 
L 31.709229 -105.329688 
L 32.305559 -105.329688 
L 32.901888 -105.329688 
L 33.498218 -105.329688 
L 34.094547 -105.329688 
L 34.690877 -105.329688 
L 35.287207 -105.329688 
L 35.883536 -105.329688 
L 36.479866 -105.329688 
L 37.076195 -105.329688 
L 37.672525 -105.329688 
L 38.268854 -105.329688 
L 38.865184 -105.329688 
L 39.461513 -105.329688 
L 40.057843 -105.329688 
L 40.654173 -105.329688 
L 41.250502 -105.329688 
L 41.846832 -105.329688 
L 42.443161 -105.329688 
L 43.039491 -105.329688 
L 43.63582 -105.329688 
L 44.23215 -105.329688 
L 44.828479 -105.329688 
L 45.424809 -105.329688 
L 46.021138 -105.329688 
L 46.617468 -105.329688 
L 47.213798 -105.329688 
L 47.810127 -105.329688 
L 48.406457 -105.329688 
L 49.002786 -105.329688 
L 49.599116 -105.329688 
L 50.195445 -105.329688 
L 50.791775 -105.329688 
L 51.388104 -105.329688 
L 51.984434 -105.329688 
L 52.580764 -105.329688 
L 53.177093 -105.329688 
L 53.773423 -105.329688 
L 54.369752 -105.329688 
L 54.966082 -105.329688 
L 55.562411 -105.329688 
L 56.158741 -105.329688 
L 56.75507 -105.329688 
L 57.3514 -105.329688 
L 57.94773 -105.329688 
L 58.544059 -105.329688 
L 59.140389 -105.329688 
L 59.736718 -105.329688 
L 60.333048 -105.329688 
L 60.929377 -105.329688 
L 61.525707 -105.329688 
L 62.122036 -105.329688 
L 62.718366 -105.329688 
L 63.314695 -105.329688 
L 63.911025 -105.329688 
L 64.507355 -105.329688 
L 65.103684 -105.329688 
L 65.700014 -105.329688 
L 66.296343 -105.329688 
L 66.892673 -105.329688 
L 67.489002 -105.329688 
L 68.085332 -105.329688 
L 68.681661 -105.329688 
L 69.277991 -105.329688 
L 69.874321 -105.329688 
L 70.47065 -105.329688 
L 71.06698 -105.329688 
L 71.663309 -105.329688 
L 72.259639 -105.329688 
L 72.855968 -105.329688 
L 73.452298 -105.329688 
L 74.048627 -105.329688 
L 74.644957 -105.329688 
L 75.241287 -105.329688 
L 75.837616 -105.329688 
L 76.433946 -105.329688 
L 77.030275 -105.329688 
L 77.626605 -105.329688 
L 78.222934 -105.329688 
L 78.819264 -105.329688 
L 79.415593 -105.329688 
L 80.011923 -105.329688 
L 80.608252 -105.329688 
L 81.204582 -105.329688 
L 81.800912 -105.329688 
L 82.397241 -105.329688 
L 82.993571 -105.329688 
L 83.5899 -105.329688 
L 84.18623 -105.329688 
L 84.782559 -105.329688 
L 85.378889 -105.329688 
L 85.975218 -105.329688 
L 86.571548 -105.329688 
L 87.167878 -105.329688 
L 87.764207 -105.329688 
L 88.360537 -105.329688 
L 88.956866 -105.329688 
L 89.553196 -105.329688 
L 90.149525 -105.329688 
L 90.745855 -105.329688 
L 91.342184 -105.329688 
L 91.938514 -105.329688 
L 92.534844 -105.329688 
L 93.131173 -105.329688 
L 93.727503 -105.329688 
L 94.323832 -105.329688 
L 94.920162 -105.329688 
L 95.516491 -105.329688 
L 96.112821 -105.329688 
L 96.70915 -105.329688 
L 97.30548 -105.329688 
L 97.901809 -105.329688 
L 98.498139 -105.329688 
L 99.094469 -105.329688 
L 99.690798 -105.329688 
L 100.287128 -105.329688 
L 100.883457 -105.329688 
L 101.479787 -105.329688 
L 102.076116 -105.329688 
L 102.672446 -105.329688 
L 103.268775 -105.329688 
L 103.865105 -105.329688 
L 104.461435 -105.329688 
L 105.057764 -105.329688 
L 105.654094 -105.329688 
L 106.250423 -105.329688 
L 106.846753 -105.329688 
L 107.443082 -105.329688 
L 108.039412 -105.329688 
L 108.635741 -105.329688 
L 109.232071 -105.329688 
L 109.828401 -105.329688 
L 110.42473 -105.329688 
L 111.02106 -105.329688 
L 111.617389 -105.329688 
L 112.213719 -105.329688 
L 112.810048 -105.329688 
L 113.406378 -105.329688 
L 114.002707 -105.329688 
L 114.599037 -105.329688 
L 115.195366 -105.329688 
L 115.791696 -105.329688 
L 116.388026 -105.329688 
L 116.984355 -105.329688 
L 117.580685 -105.329688 
L 118.177014 -105.329688 
L 118.773344 -105.329688 
L 119.369673 -105.329688 
L 119.966003 -105.329688 
L 120.562332 -105.329688 
L 121.158662 -105.329688 
L 121.754992 -105.329688 
L 122.351321 -105.329688 
L 122.947651 -105.329688 
L 123.54398 -105.329688 
L 124.14031 -105.329688 
L 124.736639 -105.329688 
L 125.332969 -105.329688 
L 125.929298 -105.329688 
L 126.525628 -105.329688 
L 127.121958 -105.329688 
L 127.718287 -105.329688 
L 128.314617 -105.329688 
L 128.910946 -105.329688 
L 129.507276 -105.329688 
L 130.103605 -105.329688 
L 130.699935 -105.329688 
L 131.296264 -105.329688 
L 131.892594 -105.329688 
L 132.488923 -105.329688 
L 133.085253 -105.329688 
L 133.681583 -105.329688 
L 134.277912 -105.329688 
L 134.874242 -105.329688 
L 135.470571 -105.329688 
L 136.066901 -105.329688 
L 136.66323 -105.329688 
L 137.25956 -105.329688 
L 137.855889 -105.329688 
L 138.452219 -105.329688 
L 139.048549 -105.329688 
L 139.644878 -105.329688 
L 140.241208 -105.329688 
L 140.837537 -105.329688 
L 141.433867 -105.329688 
L 142.030196 -105.329688 
L 142.626526 -105.329688 
L 143.222855 -105.329688 
L 143.819185 -105.329688 
L 144.415515 -105.329688 
L 145.011844 -105.329688 
L 145.608174 -105.329688 
L 146.204503 -105.329688 
L 146.800833 -105.329688 
L 147.397162 -105.329688 
L 147.397162 -105.96461 
L 147.397162 -105.96461 
L 146.800833 -106.176061 
L 146.204503 -106.438639 
L 145.608174 -106.758426 
L 145.011844 -107.140518 
L 144.415515 -107.588585 
L 143.819185 -108.104475 
L 143.222855 -108.687906 
L 142.626526 -109.336263 
L 142.030196 -110.044528 
L 141.433867 -110.805328 
L 140.837537 -111.609095 
L 140.241208 -112.444309 
L 139.644878 -113.297794 
L 139.048549 -114.155043 
L 138.452219 -115.000556 
L 137.855889 -115.818179 
L 137.25956 -116.591461 
L 136.66323 -117.304031 
L 136.066901 -117.94002 
L 135.470571 -118.484545 
L 134.874242 -118.924252 
L 134.277912 -119.24791 
L 133.681583 -119.447027 
L 133.085253 -119.516445 
L 132.488923 -119.454841 
L 131.892594 -119.265085 
L 131.296264 -118.954365 
L 130.699935 -118.534053 
L 130.103605 -118.019259 
L 129.507276 -117.428105 
L 128.910946 -116.78074 
L 128.314617 -116.098189 
L 127.718287 -115.40114 
L 127.121958 -114.70878 
L 126.525628 -114.037812 
L 125.929298 -113.401725 
L 125.332969 -112.810405 
L 124.736639 -112.270076 
L 124.14031 -111.783567 
L 123.54398 -111.350817 
L 122.947651 -110.969558 
L 122.351321 -110.636046 
L 121.754992 -110.345765 
L 121.158662 -110.094024 
L 120.562332 -109.876401 
L 119.966003 -109.689015 
L 119.369673 -109.528638 
L 118.773344 -109.392677 
L 118.177014 -109.279073 
L 117.580685 -109.186152 
L 116.984355 -109.112477 
L 116.388026 -109.056711 
L 115.791696 -109.017518 
L 115.195366 -108.993489 
L 114.599037 -108.983089 
L 114.002707 -108.984618 
L 113.406378 -108.996169 
L 112.810048 -109.015594 
L 112.213719 -109.040465 
L 111.617389 -109.068066 
L 111.02106 -109.095411 
L 110.42473 -109.119314 
L 109.828401 -109.136511 
L 109.232071 -109.143837 
L 108.635741 -109.138431 
L 108.039412 -109.117974 
L 107.443082 -109.08089 
L 106.846753 -109.026525 
L 106.250423 -108.955241 
L 105.654094 -108.868432 
L 105.057764 -108.768452 
L 104.461435 -108.658462 
L 103.865105 -108.542219 
L 103.268775 -108.423836 
L 102.672446 -108.307535 
L 102.076116 -108.197425 
L 101.479787 -108.097327 
L 100.883457 -108.010641 
L 100.287128 -107.940269 
L 99.690798 -107.888586 
L 99.094469 -107.857429 
L 98.498139 -107.848116 
L 97.901809 -107.86145 
L 97.30548 -107.897733 
L 96.70915 -107.956759 
L 96.112821 -108.037803 
L 95.516491 -108.139604 
L 94.920162 -108.260357 
L 94.323832 -108.397716 
L 93.727503 -108.548816 
L 93.131173 -108.710318 
L 92.534844 -108.878482 
L 91.938514 -109.049257 
L 91.342184 -109.218398 
L 90.745855 -109.381601 
L 90.149525 -109.534647 
L 89.553196 -109.673559 
L 88.956866 -109.794762 
L 88.360537 -109.895241 
L 87.764207 -109.972689 
L 87.167878 -110.025625 
L 86.571548 -110.053493 
L 85.975218 -110.056703 
L 85.378889 -110.036627 
L 84.782559 -109.995533 
L 84.18623 -109.936463 
L 83.5899 -109.863055 
L 82.993571 -109.77933 
L 82.397241 -109.689455 
L 81.800912 -109.597505 
L 81.204582 -109.50724 
L 80.608252 -109.421921 
L 80.011923 -109.34417 
L 79.415593 -109.275881 
L 78.819264 -109.218186 
L 78.222934 -109.171464 
L 77.626605 -109.135383 
L 77.030275 -109.108968 
L 76.433946 -109.09068 
L 75.837616 -109.078499 
L 75.241287 -109.07001 
L 74.644957 -109.062487 
L 74.048627 -109.052976 
L 73.452298 -109.038397 
L 72.855968 -109.015643 
L 72.259639 -108.981714 
L 71.663309 -108.933851 
L 71.06698 -108.869689 
L 70.47065 -108.787414 
L 69.874321 -108.685898 
L 69.277991 -108.564815 
L 68.681661 -108.424707 
L 68.085332 -108.26699 
L 67.489002 -108.093908 
L 66.892673 -107.908408 
L 66.296343 -107.71397 
L 65.700014 -107.514396 
L 65.103684 -107.313578 
L 64.507355 -107.115269 
L 63.911025 -106.922884 
L 63.314695 -106.739337 
L 62.718366 -106.566939 
L 62.122036 -106.407345 
L 61.525707 -106.261563 
L 60.929377 -106.130007 
L 60.333048 -106.012584 
L 59.736718 -105.908795 
L 59.140389 -105.817854 
L 58.544059 -105.738785 
L 57.94773 -105.670524 
L 57.3514 -105.611983 
L 56.75507 -105.562108 
L 56.158741 -105.519908 
L 55.562411 -105.484474 
L 54.966082 -105.45498 
L 54.369752 -105.430678 
L 53.773423 -105.410895 
L 53.177093 -105.395016 
L 52.580764 -105.382485 
L 51.984434 -105.372788 
L 51.388104 -105.365458 
L 50.791775 -105.360071 
L 50.195445 -105.356241 
L 49.599116 -105.353626 
L 49.002786 -105.351922 
L 48.406457 -105.350871 
L 47.810127 -105.35025 
L 47.213798 -105.349879 
L 46.617468 -105.349615 
L 46.021138 -105.349354 
L 45.424809 -105.349021 
L 44.828479 -105.348576 
L 44.23215 -105.348001 
L 43.63582 -105.347301 
L 43.039491 -105.346494 
L 42.443161 -105.345609 
L 41.846832 -105.34468 
L 41.250502 -105.34374 
L 40.654173 -105.34282 
L 40.057843 -105.341945 
L 39.461513 -105.341137 
L 38.865184 -105.340408 
L 38.268854 -105.339767 
L 37.672525 -105.339215 
L 37.076195 -105.338748 
L 36.479866 -105.338357 
L 35.883536 -105.338028 
L 35.287207 -105.337743 
L 34.690877 -105.337481 
L 34.094547 -105.337222 
L 33.498218 -105.336943 
L 32.901888 -105.336627 
L 32.305559 -105.336262 
L 31.709229 -105.335842 
L 31.1129 -105.335368 
L 30.51657 -105.334847 
L 29.920241 -105.334292 
L 29.323911 -105.33372 
L 28.727581 -105.33315 
z
" style="stroke: #355f8d; stroke-width: 1.25"/>
    </defs>
    <g>
     <use xlink:href="#m14b44233dc" x="0" y="174.899688" style="fill: #355f8d; fill-opacity: 0.7; stroke: #355f8d; stroke-width: 1.25"/>
    </g>
   </g>
   <g id="line2d_3">
    <path d="M 10.422695 69.57 
L 219.672695 69.57 
" style="fill: none; stroke: #355f8d; stroke-opacity: 0.9; stroke-linecap: round"/>
   </g>
   <g id="text_3">
    <!-- 2 -->
    <g style="fill: #355f8d" transform="translate(10.422695 68.72325) scale(0.12 -0.12)">
     <defs>
      <path id="DejaVuSans-Bold-32" d="M 1844 884 
L 3897 884 
L 3897 0 
L 506 0 
L 506 884 
L 2209 2388 
Q 2438 2594 2547 2791 
Q 2656 2988 2656 3200 
Q 2656 3528 2436 3728 
Q 2216 3928 1850 3928 
Q 1569 3928 1234 3808 
Q 900 3688 519 3450 
L 519 4475 
Q 925 4609 1322 4679 
Q 1719 4750 2100 4750 
Q 2938 4750 3402 4381 
Q 3866 4013 3866 3353 
Q 3866 2972 3669 2642 
Q 3472 2313 2841 1759 
L 1844 884 
z
" transform="scale(0.015625)"/>
     </defs>
     <use xlink:href="#DejaVuSans-Bold-32"/>
    </g>
   </g>
  </g>
  <g id="axes_4">
   <g id="patch_5">
    <path d="M 10.422695 79.965 
L 219.672695 79.965 
L 219.672695 38.385 
L 10.422695 38.385 
L 10.422695 79.965 
z
" style="fill: none"/>
   </g>
   <g id="matplotlib.axis_7">
    <g id="xtick_16"/>
    <g id="xtick_17"/>
    <g id="xtick_18"/>
    <g id="xtick_19"/>
    <g id="xtick_20"/>
   </g>
   <g id="matplotlib.axis_8"/>
   <g id="PolyCollection_3">
    <defs>
     <path id="m26e900d597" d="M 26.779223 -94.937047 
L 26.779223 -94.934688 
L 27.605367 -94.934688 
L 28.431511 -94.934688 
L 29.257654 -94.934688 
L 30.083798 -94.934688 
L 30.909942 -94.934688 
L 31.736086 -94.934688 
L 32.562229 -94.934688 
L 33.388373 -94.934688 
L 34.214517 -94.934688 
L 35.040661 -94.934688 
L 35.866804 -94.934688 
L 36.692948 -94.934688 
L 37.519092 -94.934688 
L 38.345236 -94.934688 
L 39.171379 -94.934688 
L 39.997523 -94.934688 
L 40.823667 -94.934688 
L 41.649811 -94.934688 
L 42.475954 -94.934688 
L 43.302098 -94.934688 
L 44.128242 -94.934688 
L 44.954386 -94.934688 
L 45.78053 -94.934688 
L 46.606673 -94.934688 
L 47.432817 -94.934688 
L 48.258961 -94.934688 
L 49.085105 -94.934688 
L 49.911248 -94.934688 
L 50.737392 -94.934688 
L 51.563536 -94.934688 
L 52.38968 -94.934688 
L 53.215823 -94.934688 
L 54.041967 -94.934688 
L 54.868111 -94.934688 
L 55.694255 -94.934688 
L 56.520398 -94.934688 
L 57.346542 -94.934688 
L 58.172686 -94.934688 
L 58.99883 -94.934688 
L 59.824973 -94.934688 
L 60.651117 -94.934688 
L 61.477261 -94.934688 
L 62.303405 -94.934688 
L 63.129548 -94.934688 
L 63.955692 -94.934688 
L 64.781836 -94.934688 
L 65.60798 -94.934688 
L 66.434123 -94.934688 
L 67.260267 -94.934688 
L 68.086411 -94.934688 
L 68.912555 -94.934688 
L 69.738698 -94.934688 
L 70.564842 -94.934688 
L 71.390986 -94.934688 
L 72.21713 -94.934688 
L 73.043273 -94.934688 
L 73.869417 -94.934688 
L 74.695561 -94.934688 
L 75.521705 -94.934688 
L 76.347848 -94.934688 
L 77.173992 -94.934688 
L 78.000136 -94.934688 
L 78.82628 -94.934688 
L 79.652423 -94.934688 
L 80.478567 -94.934688 
L 81.304711 -94.934688 
L 82.130855 -94.934688 
L 82.956998 -94.934688 
L 83.783142 -94.934688 
L 84.609286 -94.934688 
L 85.43543 -94.934688 
L 86.261573 -94.934688 
L 87.087717 -94.934688 
L 87.913861 -94.934688 
L 88.740005 -94.934688 
L 89.566148 -94.934688 
L 90.392292 -94.934688 
L 91.218436 -94.934688 
L 92.04458 -94.934688 
L 92.870723 -94.934688 
L 93.696867 -94.934688 
L 94.523011 -94.934688 
L 95.349155 -94.934688 
L 96.175298 -94.934688 
L 97.001442 -94.934688 
L 97.827586 -94.934688 
L 98.65373 -94.934688 
L 99.479873 -94.934688 
L 100.306017 -94.934688 
L 101.132161 -94.934688 
L 101.958305 -94.934688 
L 102.784449 -94.934688 
L 103.610592 -94.934688 
L 104.436736 -94.934688 
L 105.26288 -94.934688 
L 106.089024 -94.934688 
L 106.915167 -94.934688 
L 107.741311 -94.934688 
L 108.567455 -94.934688 
L 109.393599 -94.934688 
L 110.219742 -94.934688 
L 111.045886 -94.934688 
L 111.87203 -94.934688 
L 112.698174 -94.934688 
L 113.524317 -94.934688 
L 114.350461 -94.934688 
L 115.176605 -94.934688 
L 116.002749 -94.934688 
L 116.828892 -94.934688 
L 117.655036 -94.934688 
L 118.48118 -94.934688 
L 119.307324 -94.934688 
L 120.133467 -94.934688 
L 120.959611 -94.934688 
L 121.785755 -94.934688 
L 122.611899 -94.934688 
L 123.438042 -94.934688 
L 124.264186 -94.934688 
L 125.09033 -94.934688 
L 125.916474 -94.934688 
L 126.742617 -94.934688 
L 127.568761 -94.934688 
L 128.394905 -94.934688 
L 129.221049 -94.934688 
L 130.047192 -94.934688 
L 130.873336 -94.934688 
L 131.69948 -94.934688 
L 132.525624 -94.934688 
L 133.351767 -94.934688 
L 134.177911 -94.934688 
L 135.004055 -94.934688 
L 135.830199 -94.934688 
L 136.656342 -94.934688 
L 137.482486 -94.934688 
L 138.30863 -94.934688 
L 139.134774 -94.934688 
L 139.960917 -94.934688 
L 140.787061 -94.934688 
L 141.613205 -94.934688 
L 142.439349 -94.934688 
L 143.265492 -94.934688 
L 144.091636 -94.934688 
L 144.91778 -94.934688 
L 145.743924 -94.934688 
L 146.570067 -94.934688 
L 147.396211 -94.934688 
L 148.222355 -94.934688 
L 149.048499 -94.934688 
L 149.874642 -94.934688 
L 150.700786 -94.934688 
L 151.52693 -94.934688 
L 152.353074 -94.934688 
L 153.179217 -94.934688 
L 154.005361 -94.934688 
L 154.831505 -94.934688 
L 155.657649 -94.934688 
L 156.483792 -94.934688 
L 157.309936 -94.934688 
L 158.13608 -94.934688 
L 158.962224 -94.934688 
L 159.788368 -94.934688 
L 160.614511 -94.934688 
L 161.440655 -94.934688 
L 162.266799 -94.934688 
L 163.092943 -94.934688 
L 163.919086 -94.934688 
L 164.74523 -94.934688 
L 165.571374 -94.934688 
L 166.397518 -94.934688 
L 167.223661 -94.934688 
L 168.049805 -94.934688 
L 168.875949 -94.934688 
L 169.702093 -94.934688 
L 170.528236 -94.934688 
L 171.35438 -94.934688 
L 172.180524 -94.934688 
L 173.006668 -94.934688 
L 173.832811 -94.934688 
L 174.658955 -94.934688 
L 175.485099 -94.934688 
L 176.311243 -94.934688 
L 177.137386 -94.934688 
L 177.96353 -94.934688 
L 178.789674 -94.934688 
L 179.615818 -94.934688 
L 180.441961 -94.934688 
L 181.268105 -94.934688 
L 182.094249 -94.934688 
L 182.920393 -94.934688 
L 183.746536 -94.934688 
L 184.57268 -94.934688 
L 185.398824 -94.934688 
L 186.224968 -94.934688 
L 187.051111 -94.934688 
L 187.877255 -94.934688 
L 188.703399 -94.934688 
L 189.529543 -94.934688 
L 190.355686 -94.934688 
L 191.18183 -94.934688 
L 191.18183 -95.246126 
L 191.18183 -95.246126 
L 190.355686 -95.358739 
L 189.529543 -95.50313 
L 188.703399 -95.685092 
L 187.877255 -95.910502 
L 187.051111 -96.185017 
L 186.224968 -96.513715 
L 185.398824 -96.900682 
L 184.57268 -97.348586 
L 183.746536 -97.858242 
L 182.920393 -98.428211 
L 182.094249 -99.05446 
L 181.268105 -99.73012 
L 180.441961 -100.445363 
L 179.615818 -101.187454 
L 178.789674 -101.940966 
L 177.96353 -102.688205 
L 177.137386 -103.409826 
L 176.311243 -104.085644 
L 175.485099 -104.695588 
L 174.658955 -105.220768 
L 173.832811 -105.644569 
L 173.006668 -105.95369 
L 172.180524 -106.139045 
L 171.35438 -106.196428 
L 170.528236 -106.126874 
L 169.702093 -105.936655 
L 168.875949 -105.636917 
L 168.049805 -105.24295 
L 167.223661 -104.77318 
L 166.397518 -104.247953 
L 165.571374 -103.688233 
L 164.74523 -103.114335 
L 163.919086 -102.544804 
L 163.092943 -101.995535 
L 162.266799 -101.479186 
L 161.440655 -101.004928 
L 160.614511 -100.578488 
L 159.788368 -100.202473 
L 158.962224 -99.876868 
L 158.13608 -99.599659 
L 157.309936 -99.367468 
L 156.483792 -99.176139 
L 155.657649 -99.021225 
L 154.831505 -98.898322 
L 154.005361 -98.803267 
L 153.179217 -98.732187 
L 152.353074 -98.681459 
L 151.52693 -98.647585 
L 150.700786 -98.627067 
L 149.874642 -98.616283 
L 149.048499 -98.611429 
L 148.222355 -98.608525 
L 147.396211 -98.603506 
L 146.570067 -98.592374 
L 145.743924 -98.571415 
L 144.91778 -98.537437 
L 144.091636 -98.487997 
L 143.265492 -98.421602 
L 142.439349 -98.337841 
L 141.613205 -98.237433 
L 140.787061 -98.122192 
L 139.960917 -97.994893 
L 139.134774 -97.859074 
L 138.30863 -97.718771 
L 137.482486 -97.578234 
L 136.656342 -97.441636 
L 135.830199 -97.312812 
L 135.004055 -97.195042 
L 134.177911 -97.090896 
L 133.351767 -97.002147 
L 132.525624 -96.929748 
L 131.69948 -96.873873 
L 130.873336 -96.834003 
L 130.047192 -96.809047 
L 129.221049 -96.797488 
L 128.394905 -96.797532 
L 127.568761 -96.807253 
L 126.742617 -96.824726 
L 125.916474 -96.848134 
L 125.09033 -96.875847 
L 124.264186 -96.90647 
L 123.438042 -96.938855 
L 122.611899 -96.972084 
L 121.785755 -97.005425 
L 120.959611 -97.038272 
L 120.133467 -97.070082 
L 119.307324 -97.100314 
L 118.48118 -97.128386 
L 117.655036 -97.153663 
L 116.828892 -97.175465 
L 116.002749 -97.193105 
L 115.176605 -97.205948 
L 114.350461 -97.21347 
L 113.524317 -97.215322 
L 112.698174 -97.211368 
L 111.87203 -97.201707 
L 111.045886 -97.186654 
L 110.219742 -97.166715 
L 109.393599 -97.142523 
L 108.567455 -97.114778 
L 107.741311 -97.084191 
L 106.915167 -97.051434 
L 106.089024 -97.017113 
L 105.26288 -96.98176 
L 104.436736 -96.945845 
L 103.610592 -96.909792 
L 102.784449 -96.874004 
L 101.958305 -96.838881 
L 101.132161 -96.804828 
L 100.306017 -96.772252 
L 99.479873 -96.741547 
L 98.65373 -96.713072 
L 97.827586 -96.687135 
L 97.001442 -96.663976 
L 96.175298 -96.643761 
L 95.349155 -96.626592 
L 94.523011 -96.612522 
L 93.696867 -96.60158 
L 92.870723 -96.593793 
L 92.04458 -96.589209 
L 91.218436 -96.587902 
L 90.392292 -96.589965 
L 89.566148 -96.595493 
L 88.740005 -96.604546 
L 87.913861 -96.617113 
L 87.087717 -96.633065 
L 86.261573 -96.652128 
L 85.43543 -96.673849 
L 84.609286 -96.69759 
L 83.783142 -96.722533 
L 82.956998 -96.747705 
L 82.130855 -96.772004 
L 81.304711 -96.794251 
L 80.478567 -96.813227 
L 79.652423 -96.827726 
L 78.82628 -96.836597 
L 78.000136 -96.838776 
L 77.173992 -96.83333 
L 76.347848 -96.819479 
L 75.521705 -96.796625 
L 74.695561 -96.764372 
L 73.869417 -96.72255 
L 73.043273 -96.671229 
L 72.21713 -96.610729 
L 71.390986 -96.541621 
L 70.564842 -96.464719 
L 69.738698 -96.381061 
L 68.912555 -96.291875 
L 68.086411 -96.198539 
L 67.260267 -96.102523 
L 66.434123 -96.00534 
L 65.60798 -95.908478 
L 64.781836 -95.813352 
L 63.955692 -95.721247 
L 63.129548 -95.633283 
L 62.303405 -95.550382 
L 61.477261 -95.473249 
L 60.651117 -95.402372 
L 59.824973 -95.338025 
L 58.99883 -95.280282 
L 58.172686 -95.229043 
L 57.346542 -95.184061 
L 56.520398 -95.144972 
L 55.694255 -95.111326 
L 54.868111 -95.082617 
L 54.041967 -95.05831 
L 53.215823 -95.037868 
L 52.38968 -95.020766 
L 51.563536 -95.00651 
L 50.737392 -94.99465 
L 49.911248 -94.984782 
L 49.085105 -94.976557 
L 48.258961 -94.969682 
L 47.432817 -94.963912 
L 46.606673 -94.959053 
L 45.78053 -94.954952 
L 44.954386 -94.951492 
L 44.128242 -94.948583 
L 43.302098 -94.946157 
L 42.475954 -94.944162 
L 41.649811 -94.942554 
L 40.823667 -94.941291 
L 39.997523 -94.940336 
L 39.171379 -94.939649 
L 38.345236 -94.939189 
L 37.519092 -94.938911 
L 36.692948 -94.938772 
L 35.866804 -94.938728 
L 35.040661 -94.938738 
L 34.214517 -94.938764 
L 33.388373 -94.938775 
L 32.562229 -94.938747 
L 31.736086 -94.938664 
L 30.909942 -94.938519 
L 30.083798 -94.938311 
L 29.257654 -94.938047 
L 28.431511 -94.937738 
L 27.605367 -94.9374 
L 26.779223 -94.937047 
z
" style="stroke: #2a788e; stroke-width: 1.25"/>
    </defs>
    <g>
     <use xlink:href="#m26e900d597" x="0" y="174.899688" style="fill: #2a788e; fill-opacity: 0.7; stroke: #2a788e; stroke-width: 1.25"/>
    </g>
   </g>
   <g id="line2d_4">
    <path d="M 10.422695 79.965 
L 219.672695 79.965 
" style="fill: none; stroke: #2a788e; stroke-opacity: 0.9; stroke-linecap: round"/>
   </g>
   <g id="text_4">
    <!-- 3 -->
    <g style="fill: #2a788e" transform="translate(10.422695 79.11825) scale(0.12 -0.12)">
     <defs>
      <path id="DejaVuSans-Bold-33" d="M 2981 2516 
Q 3453 2394 3698 2092 
Q 3944 1791 3944 1325 
Q 3944 631 3412 270 
Q 2881 -91 1863 -91 
Q 1503 -91 1142 -33 
Q 781 25 428 141 
L 428 1069 
Q 766 900 1098 814 
Q 1431 728 1753 728 
Q 2231 728 2486 893 
Q 2741 1059 2741 1369 
Q 2741 1688 2480 1852 
Q 2219 2016 1709 2016 
L 1228 2016 
L 1228 2791 
L 1734 2791 
Q 2188 2791 2409 2933 
Q 2631 3075 2631 3366 
Q 2631 3634 2415 3781 
Q 2200 3928 1806 3928 
Q 1516 3928 1219 3862 
Q 922 3797 628 3669 
L 628 4550 
Q 984 4650 1334 4700 
Q 1684 4750 2022 4750 
Q 2931 4750 3382 4451 
Q 3834 4153 3834 3553 
Q 3834 3144 3618 2883 
Q 3403 2622 2981 2516 
z
" transform="scale(0.015625)"/>
     </defs>
     <use xlink:href="#DejaVuSans-Bold-33"/>
    </g>
   </g>
  </g>
  <g id="axes_5">
   <g id="patch_6">
    <path d="M 10.422695 90.36 
L 219.672695 90.36 
L 219.672695 48.78 
L 10.422695 48.78 
L 10.422695 90.36 
z
" style="fill: none"/>
   </g>
   <g id="matplotlib.axis_9">
    <g id="xtick_21"/>
    <g id="xtick_22"/>
    <g id="xtick_23"/>
    <g id="xtick_24"/>
    <g id="xtick_25"/>
   </g>
   <g id="matplotlib.axis_10"/>
   <g id="PolyCollection_4">
    <defs>
     <path id="mdaad5daa01" d="M 19.934059 -84.541796 
L 19.934059 -84.539688 
L 20.889975 -84.539688 
L 21.845891 -84.539688 
L 22.801807 -84.539688 
L 23.757723 -84.539688 
L 24.713638 -84.539688 
L 25.669554 -84.539688 
L 26.62547 -84.539688 
L 27.581386 -84.539688 
L 28.537302 -84.539688 
L 29.493218 -84.539688 
L 30.449134 -84.539688 
L 31.40505 -84.539688 
L 32.360966 -84.539688 
L 33.316882 -84.539688 
L 34.272798 -84.539688 
L 35.228714 -84.539688 
L 36.18463 -84.539688 
L 37.140546 -84.539688 
L 38.096462 -84.539688 
L 39.052378 -84.539688 
L 40.008294 -84.539688 
L 40.96421 -84.539688 
L 41.920125 -84.539688 
L 42.876041 -84.539688 
L 43.831957 -84.539688 
L 44.787873 -84.539688 
L 45.743789 -84.539688 
L 46.699705 -84.539688 
L 47.655621 -84.539688 
L 48.611537 -84.539688 
L 49.567453 -84.539688 
L 50.523369 -84.539688 
L 51.479285 -84.539688 
L 52.435201 -84.539688 
L 53.391117 -84.539688 
L 54.347033 -84.539688 
L 55.302949 -84.539688 
L 56.258865 -84.539688 
L 57.214781 -84.539688 
L 58.170696 -84.539688 
L 59.126612 -84.539688 
L 60.082528 -84.539688 
L 61.038444 -84.539688 
L 61.99436 -84.539688 
L 62.950276 -84.539688 
L 63.906192 -84.539688 
L 64.862108 -84.539688 
L 65.818024 -84.539688 
L 66.77394 -84.539688 
L 67.729856 -84.539688 
L 68.685772 -84.539688 
L 69.641688 -84.539688 
L 70.597604 -84.539688 
L 71.55352 -84.539688 
L 72.509436 -84.539688 
L 73.465352 -84.539688 
L 74.421268 -84.539688 
L 75.377183 -84.539688 
L 76.333099 -84.539688 
L 77.289015 -84.539688 
L 78.244931 -84.539688 
L 79.200847 -84.539688 
L 80.156763 -84.539688 
L 81.112679 -84.539688 
L 82.068595 -84.539688 
L 83.024511 -84.539688 
L 83.980427 -84.539688 
L 84.936343 -84.539688 
L 85.892259 -84.539688 
L 86.848175 -84.539688 
L 87.804091 -84.539688 
L 88.760007 -84.539688 
L 89.715923 -84.539688 
L 90.671839 -84.539688 
L 91.627755 -84.539688 
L 92.58367 -84.539688 
L 93.539586 -84.539688 
L 94.495502 -84.539688 
L 95.451418 -84.539688 
L 96.407334 -84.539688 
L 97.36325 -84.539688 
L 98.319166 -84.539688 
L 99.275082 -84.539688 
L 100.230998 -84.539688 
L 101.186914 -84.539688 
L 102.14283 -84.539688 
L 103.098746 -84.539688 
L 104.054662 -84.539688 
L 105.010578 -84.539688 
L 105.966494 -84.539688 
L 106.92241 -84.539688 
L 107.878326 -84.539688 
L 108.834241 -84.539688 
L 109.790157 -84.539688 
L 110.746073 -84.539688 
L 111.701989 -84.539688 
L 112.657905 -84.539688 
L 113.613821 -84.539688 
L 114.569737 -84.539688 
L 115.525653 -84.539688 
L 116.481569 -84.539688 
L 117.437485 -84.539688 
L 118.393401 -84.539688 
L 119.349317 -84.539688 
L 120.305233 -84.539688 
L 121.261149 -84.539688 
L 122.217065 -84.539688 
L 123.172981 -84.539688 
L 124.128897 -84.539688 
L 125.084813 -84.539688 
L 126.040728 -84.539688 
L 126.996644 -84.539688 
L 127.95256 -84.539688 
L 128.908476 -84.539688 
L 129.864392 -84.539688 
L 130.820308 -84.539688 
L 131.776224 -84.539688 
L 132.73214 -84.539688 
L 133.688056 -84.539688 
L 134.643972 -84.539688 
L 135.599888 -84.539688 
L 136.555804 -84.539688 
L 137.51172 -84.539688 
L 138.467636 -84.539688 
L 139.423552 -84.539688 
L 140.379468 -84.539688 
L 141.335384 -84.539688 
L 142.2913 -84.539688 
L 143.247215 -84.539688 
L 144.203131 -84.539688 
L 145.159047 -84.539688 
L 146.114963 -84.539688 
L 147.070879 -84.539688 
L 148.026795 -84.539688 
L 148.982711 -84.539688 
L 149.938627 -84.539688 
L 150.894543 -84.539688 
L 151.850459 -84.539688 
L 152.806375 -84.539688 
L 153.762291 -84.539688 
L 154.718207 -84.539688 
L 155.674123 -84.539688 
L 156.630039 -84.539688 
L 157.585955 -84.539688 
L 158.541871 -84.539688 
L 159.497786 -84.539688 
L 160.453702 -84.539688 
L 161.409618 -84.539688 
L 162.365534 -84.539688 
L 163.32145 -84.539688 
L 164.277366 -84.539688 
L 165.233282 -84.539688 
L 166.189198 -84.539688 
L 167.145114 -84.539688 
L 168.10103 -84.539688 
L 169.056946 -84.539688 
L 170.012862 -84.539688 
L 170.968778 -84.539688 
L 171.924694 -84.539688 
L 172.88061 -84.539688 
L 173.836526 -84.539688 
L 174.792442 -84.539688 
L 175.748358 -84.539688 
L 176.704273 -84.539688 
L 177.660189 -84.539688 
L 178.616105 -84.539688 
L 179.572021 -84.539688 
L 180.527937 -84.539688 
L 181.483853 -84.539688 
L 182.439769 -84.539688 
L 183.395685 -84.539688 
L 184.351601 -84.539688 
L 185.307517 -84.539688 
L 186.263433 -84.539688 
L 187.219349 -84.539688 
L 188.175265 -84.539688 
L 189.131181 -84.539688 
L 190.087097 -84.539688 
L 191.043013 -84.539688 
L 191.998929 -84.539688 
L 192.954845 -84.539688 
L 193.91076 -84.539688 
L 194.866676 -84.539688 
L 195.822592 -84.539688 
L 196.778508 -84.539688 
L 197.734424 -84.539688 
L 198.69034 -84.539688 
L 199.646256 -84.539688 
L 200.602172 -84.539688 
L 201.558088 -84.539688 
L 202.514004 -84.539688 
L 203.46992 -84.539688 
L 204.425836 -84.539688 
L 205.381752 -84.539688 
L 206.337668 -84.539688 
L 207.293584 -84.539688 
L 208.2495 -84.539688 
L 209.205416 -84.539688 
L 210.161331 -84.539688 
L 210.161331 -84.610363 
L 210.161331 -84.610363 
L 209.205416 -84.640642 
L 208.2495 -84.681737 
L 207.293584 -84.736595 
L 206.337668 -84.808626 
L 205.381752 -84.90165 
L 204.425836 -85.019814 
L 203.46992 -85.167446 
L 202.514004 -85.348867 
L 201.558088 -85.568143 
L 200.602172 -85.828814 
L 199.646256 -86.133591 
L 198.69034 -86.484049 
L 197.734424 -86.88035 
L 196.778508 -87.321 
L 195.822592 -87.802685 
L 194.866676 -88.320177 
L 193.91076 -88.866355 
L 192.954845 -89.432313 
L 191.998929 -90.007581 
L 191.043013 -90.580437 
L 190.087097 -91.138302 
L 189.131181 -91.668203 
L 188.175265 -92.157289 
L 187.219349 -92.593369 
L 186.263433 -92.965459 
L 185.307517 -93.264303 
L 184.351601 -93.482847 
L 183.395685 -93.616621 
L 182.439769 -93.664015 
L 181.483853 -93.626411 
L 180.527937 -93.508146 
L 179.572021 -93.316313 
L 178.616105 -93.060385 
L 177.660189 -92.751687 
L 176.704273 -92.402763 
L 175.748358 -92.026667 
L 174.792442 -91.636245 
L 173.836526 -91.243469 
L 172.88061 -90.858873 
L 171.924694 -90.491133 
L 170.968778 -90.146827 
L 170.012862 -89.830373 
L 169.056946 -89.544132 
L 168.10103 -89.288659 
L 167.145114 -89.063048 
L 166.189198 -88.86532 
L 165.233282 -88.692823 
L 164.277366 -88.542583 
L 163.32145 -88.411588 
L 162.365534 -88.296988 
L 161.409618 -88.196204 
L 160.453702 -88.106958 
L 159.497786 -88.027246 
L 158.541871 -87.955264 
L 157.585955 -87.889341 
L 156.630039 -87.827859 
L 155.674123 -87.769214 
L 154.718207 -87.711806 
L 153.762291 -87.654061 
L 152.806375 -87.594486 
L 151.850459 -87.53175 
L 150.894543 -87.464761 
L 149.938627 -87.392749 
L 148.982711 -87.315331 
L 148.026795 -87.232547 
L 147.070879 -87.14487 
L 146.114963 -87.053186 
L 145.159047 -86.958748 
L 144.203131 -86.8631 
L 143.247215 -86.767993 
L 142.2913 -86.675292 
L 141.335384 -86.586871 
L 140.379468 -86.504526 
L 139.423552 -86.429882 
L 138.467636 -86.364326 
L 137.51172 -86.308941 
L 136.555804 -86.264462 
L 135.599888 -86.231254 
L 134.643972 -86.209299 
L 133.688056 -86.198211 
L 132.73214 -86.197258 
L 131.776224 -86.205412 
L 130.820308 -86.221403 
L 129.864392 -86.243783 
L 128.908476 -86.271001 
L 127.95256 -86.301471 
L 126.996644 -86.333641 
L 126.040728 -86.36605 
L 125.084813 -86.397384 
L 124.128897 -86.426508 
L 123.172981 -86.452492 
L 122.217065 -86.474627 
L 121.261149 -86.492419 
L 120.305233 -86.505581 
L 119.349317 -86.514011 
L 118.393401 -86.51777 
L 117.437485 -86.517052 
L 116.481569 -86.512161 
L 115.525653 -86.503486 
L 114.569737 -86.491485 
L 113.613821 -86.476665 
L 112.657905 -86.459572 
L 111.701989 -86.440779 
L 110.746073 -86.420864 
L 109.790157 -86.400398 
L 108.834241 -86.379915 
L 107.878326 -86.359885 
L 106.92241 -86.34069 
L 105.966494 -86.322598 
L 105.010578 -86.305748 
L 104.054662 -86.290148 
L 103.098746 -86.275688 
L 102.14283 -86.262159 
L 101.186914 -86.249297 
L 100.230998 -86.23682 
L 99.275082 -86.224481 
L 98.319166 -86.212107 
L 97.36325 -86.199637 
L 96.407334 -86.187143 
L 95.451418 -86.174843 
L 94.495502 -86.163088 
L 93.539586 -86.152341 
L 92.58367 -86.143137 
L 91.627755 -86.136039 
L 90.671839 -86.131579 
L 89.715923 -86.130205 
L 88.760007 -86.132229 
L 87.804091 -86.137786 
L 86.848175 -86.146801 
L 85.892259 -86.158979 
L 84.936343 -86.173796 
L 83.980427 -86.190513 
L 83.024511 -86.208199 
L 82.068595 -86.225754 
L 81.112679 -86.241949 
L 80.156763 -86.255459 
L 79.200847 -86.26491 
L 78.244931 -86.268922 
L 77.289015 -86.266166 
L 76.333099 -86.255418 
L 75.377183 -86.235623 
L 74.421268 -86.205958 
L 73.465352 -86.16589 
L 72.509436 -86.11523 
L 71.55352 -86.054167 
L 70.597604 -85.983288 
L 69.641688 -85.903566 
L 68.685772 -85.816328 
L 67.729856 -85.723203 
L 66.77394 -85.626035 
L 65.818024 -85.526795 
L 64.862108 -85.427477 
L 63.906192 -85.330001 
L 62.950276 -85.236112 
L 61.99436 -85.147312 
L 61.038444 -85.0648 
L 60.082528 -84.989438 
L 59.126612 -84.921746 
L 58.170696 -84.861915 
L 57.214781 -84.809838 
L 56.258865 -84.765163 
L 55.302949 -84.727344 
L 54.347033 -84.695707 
L 53.391117 -84.669502 
L 52.435201 -84.647957 
L 51.479285 -84.630324 
L 50.523369 -84.61591 
L 49.567453 -84.604097 
L 48.611537 -84.594359 
L 47.655621 -84.586258 
L 46.699705 -84.579447 
L 45.743789 -84.573656 
L 44.787873 -84.568682 
L 43.831957 -84.564377 
L 42.876041 -84.560636 
L 41.920125 -84.557383 
L 40.96421 -84.554563 
L 40.008294 -84.552138 
L 39.052378 -84.550075 
L 38.096462 -84.548349 
L 37.140546 -84.546935 
L 36.18463 -84.545807 
L 35.228714 -84.544939 
L 34.272798 -84.544301 
L 33.316882 -84.543861 
L 32.360966 -84.543584 
L 31.40505 -84.543435 
L 30.449134 -84.543377 
L 29.493218 -84.543371 
L 28.537302 -84.543386 
L 27.581386 -84.543392 
L 26.62547 -84.543365 
L 25.669554 -84.543289 
L 24.713638 -84.543156 
L 23.757723 -84.542965 
L 22.801807 -84.542722 
L 21.845891 -84.542436 
L 20.889975 -84.542123 
L 19.934059 -84.541796 
z
" style="stroke: #21918c; stroke-width: 1.25"/>
    </defs>
    <g>
     <use xlink:href="#mdaad5daa01" x="0" y="174.899688" style="fill: #21918c; fill-opacity: 0.7; stroke: #21918c; stroke-width: 1.25"/>
    </g>
   </g>
   <g id="line2d_5">
    <path d="M 10.422695 90.36 
L 219.672695 90.36 
" style="fill: none; stroke: #21918c; stroke-opacity: 0.9; stroke-linecap: round"/>
   </g>
   <g id="text_5">
    <!-- 4 -->
    <g style="fill: #21918c" transform="translate(10.422695 89.51325) scale(0.12 -0.12)">
     <defs>
      <path id="DejaVuSans-Bold-34" d="M 2356 3675 
L 1038 1722 
L 2356 1722 
L 2356 3675 
z
M 2156 4666 
L 3494 4666 
L 3494 1722 
L 4159 1722 
L 4159 850 
L 3494 850 
L 3494 0 
L 2356 0 
L 2356 850 
L 288 850 
L 288 1881 
L 2156 4666 
z
" transform="scale(0.015625)"/>
     </defs>
     <use xlink:href="#DejaVuSans-Bold-34"/>
    </g>
   </g>
  </g>
  <g id="axes_6">
   <g id="patch_7">
    <path d="M 10.422695 100.755 
L 219.672695 100.755 
L 219.672695 59.175 
L 10.422695 59.175 
L 10.422695 100.755 
z
" style="fill: none"/>
   </g>
   <g id="matplotlib.axis_11">
    <g id="xtick_26"/>
    <g id="xtick_27"/>
    <g id="xtick_28"/>
    <g id="xtick_29"/>
    <g id="xtick_30"/>
   </g>
   <g id="matplotlib.axis_12"/>
   <g id="line2d_6">
    <path d="M 10.422695 100.755 
L 219.672695 100.755 
" style="fill: none; stroke: #482475; stroke-opacity: 0.9; stroke-linecap: round"/>
   </g>
   <g id="text_6">
    <!-- 5 -->
    <g style="fill: #482475" transform="translate(10.422695 99.90825) scale(0.12 -0.12)">
     <defs>
      <path id="DejaVuSans-Bold-35" d="M 678 4666 
L 3669 4666 
L 3669 3781 
L 1638 3781 
L 1638 3059 
Q 1775 3097 1914 3117 
Q 2053 3138 2203 3138 
Q 3056 3138 3531 2711 
Q 4006 2284 4006 1522 
Q 4006 766 3489 337 
Q 2972 -91 2053 -91 
Q 1656 -91 1267 -14 
Q 878 63 494 219 
L 494 1166 
Q 875 947 1217 837 
Q 1559 728 1863 728 
Q 2300 728 2551 942 
Q 2803 1156 2803 1522 
Q 2803 1891 2551 2103 
Q 2300 2316 1863 2316 
Q 1603 2316 1309 2248 
Q 1016 2181 678 2041 
L 678 4666 
z
" transform="scale(0.015625)"/>
     </defs>
     <use xlink:href="#DejaVuSans-Bold-35"/>
    </g>
   </g>
  </g>
  <g id="axes_7">
   <g id="patch_8">
    <path d="M 10.422695 111.15 
L 219.672695 111.15 
L 219.672695 69.57 
L 10.422695 69.57 
L 10.422695 111.15 
z
" style="fill: none"/>
   </g>
   <g id="matplotlib.axis_13">
    <g id="xtick_31"/>
    <g id="xtick_32"/>
    <g id="xtick_33"/>
    <g id="xtick_34"/>
    <g id="xtick_35"/>
   </g>
   <g id="matplotlib.axis_14"/>
   <g id="line2d_7">
    <path d="M 10.422695 111.15 
L 219.672695 111.15 
" style="fill: none; stroke: #482475; stroke-opacity: 0.9; stroke-linecap: round"/>
   </g>
   <g id="text_7">
    <!-- 6 -->
    <g style="fill: #482475" transform="translate(10.422695 110.30325) scale(0.12 -0.12)">
     <defs>
      <path id="DejaVuSans-Bold-36" d="M 2316 2303 
Q 2000 2303 1842 2098 
Q 1684 1894 1684 1484 
Q 1684 1075 1842 870 
Q 2000 666 2316 666 
Q 2634 666 2792 870 
Q 2950 1075 2950 1484 
Q 2950 1894 2792 2098 
Q 2634 2303 2316 2303 
z
M 3803 4544 
L 3803 3681 
Q 3506 3822 3243 3889 
Q 2981 3956 2731 3956 
Q 2194 3956 1894 3657 
Q 1594 3359 1544 2772 
Q 1750 2925 1990 3001 
Q 2231 3078 2516 3078 
Q 3231 3078 3670 2659 
Q 4109 2241 4109 1563 
Q 4109 813 3618 361 
Q 3128 -91 2303 -91 
Q 1394 -91 895 523 
Q 397 1138 397 2266 
Q 397 3422 980 4083 
Q 1563 4744 2578 4744 
Q 2900 4744 3203 4694 
Q 3506 4644 3803 4544 
z
" transform="scale(0.015625)"/>
     </defs>
     <use xlink:href="#DejaVuSans-Bold-36"/>
    </g>
   </g>
  </g>
  <g id="axes_8">
   <g id="patch_9">
    <path d="M 10.422695 121.545 
L 219.672695 121.545 
L 219.672695 79.965 
L 10.422695 79.965 
L 10.422695 121.545 
z
" style="fill: none"/>
   </g>
   <g id="matplotlib.axis_15">
    <g id="xtick_36"/>
    <g id="xtick_37"/>
    <g id="xtick_38"/>
    <g id="xtick_39"/>
    <g id="xtick_40"/>
   </g>
   <g id="matplotlib.axis_16"/>
   <g id="line2d_8">
    <path d="M 10.422695 121.545 
L 219.672695 121.545 
" style="fill: none; stroke: #482475; stroke-opacity: 0.9; stroke-linecap: round"/>
   </g>
   <g id="text_8">
    <!-- 7 -->
    <g style="fill: #482475" transform="translate(10.422695 120.69825) scale(0.12 -0.12)">
     <defs>
      <path id="DejaVuSans-Bold-37" d="M 428 4666 
L 3944 4666 
L 3944 3988 
L 2125 0 
L 953 0 
L 2675 3781 
L 428 3781 
L 428 4666 
z
" transform="scale(0.015625)"/>
     </defs>
     <use xlink:href="#DejaVuSans-Bold-37"/>
    </g>
   </g>
  </g>
  <g id="axes_9">
   <g id="patch_10">
    <path d="M 10.422695 131.94 
L 219.672695 131.94 
L 219.672695 90.36 
L 10.422695 90.36 
L 10.422695 131.94 
z
" style="fill: none"/>
   </g>
   <g id="matplotlib.axis_17">
    <g id="xtick_41">
     <g id="text_9">
      <!-- 2.5 -->
      <g style="fill: #838383" transform="translate(7.2 149.798281) scale(0.11 -0.11)">
       <defs>
        <path id="DejaVuSans-2212" d="M 678 2272 
L 4684 2272 
L 4684 1741 
L 678 1741 
L 678 2272 
z
" transform="scale(0.015625)"/>
        <path id="DejaVuSans-32" d="M 1228 531 
L 3431 531 
L 3431 0 
L 469 0 
L 469 531 
Q 828 903 1448 1529 
Q 2069 2156 2228 2338 
Q 2531 2678 2651 2914 
Q 2772 3150 2772 3378 
Q 2772 3750 2511 3984 
Q 2250 4219 1831 4219 
Q 1534 4219 1204 4116 
Q 875 4013 500 3803 
L 500 4441 
Q 881 4594 1212 4672 
Q 1544 4750 1819 4750 
Q 2544 4750 2975 4387 
Q 3406 4025 3406 3419 
Q 3406 3131 3298 2873 
Q 3191 2616 2906 2266 
Q 2828 2175 2409 1742 
Q 1991 1309 1228 531 
z
" transform="scale(0.015625)"/>
        <path id="DejaVuSans-2e" d="M 684 794 
L 1344 794 
L 1344 0 
L 684 0 
L 684 794 
z
" transform="scale(0.015625)"/>
        <path id="DejaVuSans-35" d="M 691 4666 
L 3169 4666 
L 3169 4134 
L 1269 4134 
L 1269 2991 
Q 1406 3038 1543 3061 
Q 1681 3084 1819 3084 
Q 2600 3084 3056 2656 
Q 3513 2228 3513 1497 
Q 3513 744 3044 326 
Q 2575 -91 1722 -91 
Q 1428 -91 1123 -41 
Q 819 9 494 109 
L 494 744 
Q 775 591 1075 516 
Q 1375 441 1709 441 
Q 2250 441 2565 725 
Q 2881 1009 2881 1497 
Q 2881 1984 2565 2268 
Q 2250 2553 1709 2553 
Q 1456 2553 1204 2497 
Q 953 2441 691 2322 
L 691 4666 
z
" transform="scale(0.015625)"/>
       </defs>
       <use xlink:href="#DejaVuSans-2212"/>
       <use xlink:href="#DejaVuSans-32" x="83.789062"/>
       <use xlink:href="#DejaVuSans-2e" x="147.412109"/>
       <use xlink:href="#DejaVuSans-35" x="179.199219"/>
      </g>
     </g>
    </g>
    <g id="xtick_42">
     <g id="text_10">
      <!-- 0.0 -->
      <g style="fill: #838383" transform="translate(54.590372 149.798281) scale(0.11 -0.11)">
       <defs>
        <path id="DejaVuSans-30" d="M 2034 4250 
Q 1547 4250 1301 3770 
Q 1056 3291 1056 2328 
Q 1056 1369 1301 889 
Q 1547 409 2034 409 
Q 2525 409 2770 889 
Q 3016 1369 3016 2328 
Q 3016 3291 2770 3770 
Q 2525 4250 2034 4250 
z
M 2034 4750 
Q 2819 4750 3233 4129 
Q 3647 3509 3647 2328 
Q 3647 1150 3233 529 
Q 2819 -91 2034 -91 
Q 1250 -91 836 529 
Q 422 1150 422 2328 
Q 422 3509 836 4129 
Q 1250 4750 2034 4750 
z
" transform="scale(0.015625)"/>
       </defs>
       <use xlink:href="#DejaVuSans-30"/>
       <use xlink:href="#DejaVuSans-2e" x="63.623047"/>
       <use xlink:href="#DejaVuSans-30" x="95.410156"/>
      </g>
     </g>
    </g>
    <g id="xtick_43">
     <g id="text_11">
      <!-- 2.5 -->
      <g style="fill: #838383" transform="translate(97.371916 149.798281) scale(0.11 -0.11)">
       <use xlink:href="#DejaVuSans-32"/>
       <use xlink:href="#DejaVuSans-2e" x="63.623047"/>
       <use xlink:href="#DejaVuSans-35" x="95.410156"/>
      </g>
     </g>
    </g>
    <g id="xtick_44">
     <g id="text_12">
      <!-- 5.0 -->
      <g style="fill: #838383" transform="translate(140.15346 149.798281) scale(0.11 -0.11)">
       <use xlink:href="#DejaVuSans-35"/>
       <use xlink:href="#DejaVuSans-2e" x="63.623047"/>
       <use xlink:href="#DejaVuSans-30" x="95.410156"/>
      </g>
     </g>
    </g>
    <g id="xtick_45">
     <g id="text_13">
      <!-- 7.5 -->
      <g style="fill: #838383" transform="translate(182.935003 149.798281) scale(0.11 -0.11)">
       <defs>
        <path id="DejaVuSans-37" d="M 525 4666 
L 3525 4666 
L 3525 4397 
L 1831 0 
L 1172 0 
L 2766 4134 
L 525 4134 
L 525 4666 
z
" transform="scale(0.015625)"/>
       </defs>
       <use xlink:href="#DejaVuSans-37"/>
       <use xlink:href="#DejaVuSans-2e" x="63.623047"/>
       <use xlink:href="#DejaVuSans-35" x="95.410156"/>
      </g>
     </g>
    </g>
    <g id="text_14">
     <!-- sldf -->
     <g style="fill: #262626" transform="translate(104.333945 165.204063) scale(0.12 -0.12)">
      <defs>
       <path id="DejaVuSans-73" d="M 2834 3397 
L 2834 2853 
Q 2591 2978 2328 3040 
Q 2066 3103 1784 3103 
Q 1356 3103 1142 2972 
Q 928 2841 928 2578 
Q 928 2378 1081 2264 
Q 1234 2150 1697 2047 
L 1894 2003 
Q 2506 1872 2764 1633 
Q 3022 1394 3022 966 
Q 3022 478 2636 193 
Q 2250 -91 1575 -91 
Q 1294 -91 989 -36 
Q 684 19 347 128 
L 347 722 
Q 666 556 975 473 
Q 1284 391 1588 391 
Q 1994 391 2212 530 
Q 2431 669 2431 922 
Q 2431 1156 2273 1281 
Q 2116 1406 1581 1522 
L 1381 1569 
Q 847 1681 609 1914 
Q 372 2147 372 2553 
Q 372 3047 722 3315 
Q 1072 3584 1716 3584 
Q 2034 3584 2315 3537 
Q 2597 3491 2834 3397 
z
" transform="scale(0.015625)"/>
       <path id="DejaVuSans-6c" d="M 603 4863 
L 1178 4863 
L 1178 0 
L 603 0 
L 603 4863 
z
" transform="scale(0.015625)"/>
       <path id="DejaVuSans-64" d="M 2906 2969 
L 2906 4863 
L 3481 4863 
L 3481 0 
L 2906 0 
L 2906 525 
Q 2725 213 2448 61 
Q 2172 -91 1784 -91 
Q 1150 -91 751 415 
Q 353 922 353 1747 
Q 353 2572 751 3078 
Q 1150 3584 1784 3584 
Q 2172 3584 2448 3432 
Q 2725 3281 2906 2969 
z
M 947 1747 
Q 947 1113 1208 752 
Q 1469 391 1925 391 
Q 2381 391 2643 752 
Q 2906 1113 2906 1747 
Q 2906 2381 2643 2742 
Q 2381 3103 1925 3103 
Q 1469 3103 1208 2742 
Q 947 2381 947 1747 
z
" transform="scale(0.015625)"/>
       <path id="DejaVuSans-66" d="M 2375 4863 
L 2375 4384 
L 1825 4384 
Q 1516 4384 1395 4259 
Q 1275 4134 1275 3809 
L 1275 3500 
L 2222 3500 
L 2222 3053 
L 1275 3053 
L 1275 0 
L 697 0 
L 697 3053 
L 147 3053 
L 147 3500 
L 697 3500 
L 697 3744 
Q 697 4328 969 4595 
Q 1241 4863 1831 4863 
L 2375 4863 
z
" transform="scale(0.015625)"/>
      </defs>
      <use xlink:href="#DejaVuSans-73"/>
      <use xlink:href="#DejaVuSans-6c" x="52.099609"/>
      <use xlink:href="#DejaVuSans-64" x="79.882812"/>
      <use xlink:href="#DejaVuSans-66" x="143.359375"/>
     </g>
    </g>
   </g>
   <g id="matplotlib.axis_18"/>
   <g id="line2d_9">
    <path d="M 10.422695 131.94 
L 219.672695 131.94 
" style="fill: none; stroke: #482475; stroke-opacity: 0.9; stroke-linecap: round"/>
   </g>
   <g id="text_15">
    <!-- 8 -->
    <g style="fill: #482475" transform="translate(10.422695 131.09325) scale(0.12 -0.12)">
     <defs>
      <path id="DejaVuSans-Bold-38" d="M 2228 2088 
Q 1891 2088 1709 1903 
Q 1528 1719 1528 1375 
Q 1528 1031 1709 848 
Q 1891 666 2228 666 
Q 2563 666 2741 848 
Q 2919 1031 2919 1375 
Q 2919 1722 2741 1905 
Q 2563 2088 2228 2088 
z
M 1350 2484 
Q 925 2613 709 2878 
Q 494 3144 494 3541 
Q 494 4131 934 4440 
Q 1375 4750 2228 4750 
Q 3075 4750 3515 4442 
Q 3956 4134 3956 3541 
Q 3956 3144 3739 2878 
Q 3522 2613 3097 2484 
Q 3572 2353 3814 2058 
Q 4056 1763 4056 1313 
Q 4056 619 3595 264 
Q 3134 -91 2228 -91 
Q 1319 -91 855 264 
Q 391 619 391 1313 
Q 391 1763 633 2058 
Q 875 2353 1350 2484 
z
M 1631 3419 
Q 1631 3141 1786 2991 
Q 1941 2841 2228 2841 
Q 2509 2841 2662 2991 
Q 2816 3141 2816 3419 
Q 2816 3697 2662 3845 
Q 2509 3994 2228 3994 
Q 1941 3994 1786 3844 
Q 1631 3694 1631 3419 
z
" transform="scale(0.015625)"/>
     </defs>
     <use xlink:href="#DejaVuSans-Bold-38"/>
    </g>
   </g>
  </g>
 </g>
</svg>
