<?xml version="1.0" encoding="utf-8" standalone="no"?>
<!DOCTYPE svg PUBLIC "-//W3C//DTD SVG 1.1//EN"
  "http://www.w3.org/Graphics/SVG/1.1/DTD/svg11.dtd">
<svg xmlns:xlink="http://www.w3.org/1999/xlink" width="223.65pt" height="174.899688pt" viewBox="0 0 223.65 174.899688" xmlns="http://www.w3.org/2000/svg" version="1.1">
 <metadata>
  <rdf:RDF xmlns:dc="http://purl.org/dc/elements/1.1/" xmlns:cc="http://creativecommons.org/ns#" xmlns:rdf="http://www.w3.org/1999/02/22-rdf-syntax-ns#">
   <cc:Work>
    <dc:type rdf:resource="http://purl.org/dc/dcmitype/StillImage"/>
    <dc:date>2023-12-05T12:05:25.030136</dc:date>
    <dc:format>image/svg+xml</dc:format>
    <dc:creator>
     <cc:Agent>
      <dc:title>Matplotlib v3.8.2, https://matplotlib.org/</dc:title>
     </cc:Agent>
    </dc:creator>
   </cc:Work>
  </rdf:RDF>
 </metadata>
 <defs>
  <style type="text/css">*{stroke-linejoin: round; stroke-linecap: butt}</style>
 </defs>
 <g id="figure_1">
  <g id="patch_1">
   <path d="M 0 174.899688 
L 223.65 174.899688 
L 223.65 0 
L 0 0 
L 0 174.899688 
z
" style="fill: none"/>
  </g>
  <g id="axes_1">
   <g id="patch_2">
    <path d="M 7.2 48.78 
L 216.45 48.78 
L 216.45 7.2 
L 7.2 7.2 
L 7.2 48.78 
z
" style="fill: none"/>
   </g>
   <g id="matplotlib.axis_1">
    <g id="xtick_1"/>
    <g id="xtick_2"/>
    <g id="xtick_3"/>
    <g id="xtick_4"/>
    <g id="xtick_5"/>
   </g>
   <g id="matplotlib.axis_2"/>
   <g id="line2d_1">
    <path d="M 7.2 48.78 
L 216.45 48.78 
" style="fill: none; stroke: #414487; stroke-opacity: 0.9; stroke-linecap: round"/>
   </g>
   <g id="text_1">
    <!-- 0 -->
    <g style="fill: #414487" transform="translate(7.2 47.93325) scale(0.12 -0.12)">
     <defs>
      <path id="DejaVuSans-Bold-30" d="M 2944 2338 
Q 2944 3213 2780 3570 
Q 2616 3928 2228 3928 
Q 1841 3928 1675 3570 
Q 1509 3213 1509 2338 
Q 1509 1453 1675 1090 
Q 1841 728 2228 728 
Q 2613 728 2778 1090 
Q 2944 1453 2944 2338 
z
M 4147 2328 
Q 4147 1169 3647 539 
Q 3147 -91 2228 -91 
Q 1306 -91 806 539 
Q 306 1169 306 2328 
Q 306 3491 806 4120 
Q 1306 4750 2228 4750 
Q 3147 4750 3647 4120 
Q 4147 3491 4147 2328 
z
" transform="scale(0.015625)"/>
     </defs>
     <use xlink:href="#DejaVuSans-Bold-30"/>
    </g>
   </g>
  </g>
  <g id="axes_2">
   <g id="patch_3">
    <path d="M 7.2 59.175 
L 216.45 59.175 
L 216.45 17.595 
L 7.2 17.595 
L 7.2 59.175 
z
" style="fill: none"/>
   </g>
   <g id="matplotlib.axis_3">
    <g id="xtick_6"/>
    <g id="xtick_7"/>
    <g id="xtick_8"/>
    <g id="xtick_9"/>
    <g id="xtick_10"/>
   </g>
   <g id="matplotlib.axis_4"/>
   <g id="PolyCollection_1">
    <defs>
     <path id="m678d1dee87" d="M 75.095774 -115.732032 
L 75.095774 -115.724688 
L 75.456355 -115.724688 
L 75.816935 -115.724688 
L 76.177516 -115.724688 
L 76.538097 -115.724688 
L 76.898678 -115.724688 
L 77.259258 -115.724688 
L 77.619839 -115.724688 
L 77.98042 -115.724688 
L 78.341001 -115.724688 
L 78.701581 -115.724688 
L 79.062162 -115.724688 
L 79.422743 -115.724688 
L 79.783324 -115.724688 
L 80.143904 -115.724688 
L 80.504485 -115.724688 
L 80.865066 -115.724688 
L 81.225647 -115.724688 
L 81.586227 -115.724688 
L 81.946808 -115.724688 
L 82.307389 -115.724688 
L 82.66797 -115.724688 
L 83.02855 -115.724688 
L 83.389131 -115.724688 
L 83.749712 -115.724688 
L 84.110293 -115.724688 
L 84.470873 -115.724688 
L 84.831454 -115.724688 
L 85.192035 -115.724688 
L 85.552616 -115.724688 
L 85.913196 -115.724688 
L 86.273777 -115.724688 
L 86.634358 -115.724688 
L 86.994939 -115.724688 
L 87.355519 -115.724688 
L 87.7161 -115.724688 
L 88.076681 -115.724688 
L 88.437262 -115.724688 
L 88.797842 -115.724688 
L 89.158423 -115.724688 
L 89.519004 -115.724688 
L 89.879585 -115.724688 
L 90.240165 -115.724688 
L 90.600746 -115.724688 
L 90.961327 -115.724688 
L 91.321907 -115.724688 
L 91.682488 -115.724688 
L 92.043069 -115.724688 
L 92.40365 -115.724688 
L 92.76423 -115.724688 
L 93.124811 -115.724688 
L 93.485392 -115.724688 
L 93.845973 -115.724688 
L 94.206553 -115.724688 
L 94.567134 -115.724688 
L 94.927715 -115.724688 
L 95.288296 -115.724688 
L 95.648876 -115.724688 
L 96.009457 -115.724688 
L 96.370038 -115.724688 
L 96.730619 -115.724688 
L 97.091199 -115.724688 
L 97.45178 -115.724688 
L 97.812361 -115.724688 
L 98.172942 -115.724688 
L 98.533522 -115.724688 
L 98.894103 -115.724688 
L 99.254684 -115.724688 
L 99.615265 -115.724688 
L 99.975845 -115.724688 
L 100.336426 -115.724688 
L 100.697007 -115.724688 
L 101.057588 -115.724688 
L 101.418168 -115.724688 
L 101.778749 -115.724688 
L 102.13933 -115.724688 
L 102.499911 -115.724688 
L 102.860491 -115.724688 
L 103.221072 -115.724688 
L 103.581653 -115.724688 
L 103.942234 -115.724688 
L 104.302814 -115.724688 
L 104.663395 -115.724688 
L 105.023976 -115.724688 
L 105.384557 -115.724688 
L 105.745137 -115.724688 
L 106.105718 -115.724688 
L 106.466299 -115.724688 
L 106.82688 -115.724688 
L 107.18746 -115.724688 
L 107.548041 -115.724688 
L 107.908622 -115.724688 
L 108.269203 -115.724688 
L 108.629783 -115.724688 
L 108.990364 -115.724688 
L 109.350945 -115.724688 
L 109.711525 -115.724688 
L 110.072106 -115.724688 
L 110.432687 -115.724688 
L 110.793268 -115.724688 
L 111.153848 -115.724688 
L 111.514429 -115.724688 
L 111.87501 -115.724688 
L 112.235591 -115.724688 
L 112.596171 -115.724688 
L 112.956752 -115.724688 
L 113.317333 -115.724688 
L 113.677914 -115.724688 
L 114.038494 -115.724688 
L 114.399075 -115.724688 
L 114.759656 -115.724688 
L 115.120237 -115.724688 
L 115.480817 -115.724688 
L 115.841398 -115.724688 
L 116.201979 -115.724688 
L 116.56256 -115.724688 
L 116.92314 -115.724688 
L 117.283721 -115.724688 
L 117.644302 -115.724688 
L 118.004883 -115.724688 
L 118.365463 -115.724688 
L 118.726044 -115.724688 
L 119.086625 -115.724688 
L 119.447206 -115.724688 
L 119.807786 -115.724688 
L 120.168367 -115.724688 
L 120.528948 -115.724688 
L 120.889529 -115.724688 
L 121.250109 -115.724688 
L 121.61069 -115.724688 
L 121.971271 -115.724688 
L 122.331852 -115.724688 
L 122.692432 -115.724688 
L 123.053013 -115.724688 
L 123.413594 -115.724688 
L 123.774175 -115.724688 
L 124.134755 -115.724688 
L 124.495336 -115.724688 
L 124.855917 -115.724688 
L 125.216498 -115.724688 
L 125.577078 -115.724688 
L 125.937659 -115.724688 
L 126.29824 -115.724688 
L 126.65882 -115.724688 
L 127.019401 -115.724688 
L 127.379982 -115.724688 
L 127.740563 -115.724688 
L 128.101143 -115.724688 
L 128.461724 -115.724688 
L 128.822305 -115.724688 
L 129.182886 -115.724688 
L 129.543466 -115.724688 
L 129.904047 -115.724688 
L 130.264628 -115.724688 
L 130.625209 -115.724688 
L 130.985789 -115.724688 
L 131.34637 -115.724688 
L 131.706951 -115.724688 
L 132.067532 -115.724688 
L 132.428112 -115.724688 
L 132.788693 -115.724688 
L 133.149274 -115.724688 
L 133.509855 -115.724688 
L 133.870435 -115.724688 
L 134.231016 -115.724688 
L 134.591597 -115.724688 
L 134.952178 -115.724688 
L 135.312758 -115.724688 
L 135.673339 -115.724688 
L 136.03392 -115.724688 
L 136.394501 -115.724688 
L 136.755081 -115.724688 
L 137.115662 -115.724688 
L 137.476243 -115.724688 
L 137.836824 -115.724688 
L 138.197404 -115.724688 
L 138.557985 -115.724688 
L 138.918566 -115.724688 
L 139.279147 -115.724688 
L 139.639727 -115.724688 
L 140.000308 -115.724688 
L 140.360889 -115.724688 
L 140.72147 -115.724688 
L 141.08205 -115.724688 
L 141.442631 -115.724688 
L 141.803212 -115.724688 
L 142.163793 -115.724688 
L 142.524373 -115.724688 
L 142.884954 -115.724688 
L 143.245535 -115.724688 
L 143.606116 -115.724688 
L 143.966696 -115.724688 
L 144.327277 -115.724688 
L 144.687858 -115.724688 
L 145.048438 -115.724688 
L 145.409019 -115.724688 
L 145.7696 -115.724688 
L 146.130181 -115.724688 
L 146.490761 -115.724688 
L 146.851342 -115.724688 
L 146.851342 -115.732062 
L 146.851342 -115.732062 
L 146.490761 -115.735162 
L 146.130181 -115.737138 
L 145.7696 -115.737411 
L 145.409019 -115.736601 
L 145.048438 -115.736033 
L 144.687858 -115.736467 
L 144.327277 -115.737339 
L 143.966696 -115.737355 
L 143.606116 -115.735829 
L 143.245535 -115.733457 
L 142.884954 -115.731947 
L 142.524373 -115.733085 
L 142.163793 -115.737955 
L 141.803212 -115.746513 
L 141.442631 -115.757468 
L 141.08205 -115.768613 
L 140.72147 -115.777633 
L 140.360889 -115.783133 
L 140.000308 -115.785418 
L 139.639727 -115.786414 
L 139.279147 -115.788362 
L 138.918566 -115.792049 
L 138.557985 -115.79611 
L 138.197404 -115.79813 
L 137.836824 -115.796543 
L 137.476243 -115.791645 
L 137.115662 -115.784923 
L 136.755081 -115.777646 
L 136.394501 -115.77028 
L 136.03392 -115.763118 
L 135.673339 -115.757094 
L 135.312758 -115.75386 
L 134.952178 -115.755042 
L 134.591597 -115.761295 
L 134.231016 -115.771995 
L 133.870435 -115.786072 
L 133.509855 -115.803249 
L 133.149274 -115.824123 
L 132.788693 -115.848711 
L 132.428112 -115.875303 
L 132.067532 -115.901894 
L 131.706951 -115.930707 
L 131.34637 -115.976275 
L 130.985789 -116.08142 
L 130.625209 -116.347537 
L 130.264628 -116.974406 
L 129.904047 -118.275882 
L 129.543466 -120.610809 
L 129.182886 -124.191432 
L 128.822305 -128.835 
L 128.461724 -133.84362 
L 128.101143 -138.185302 
L 127.740563 -140.942495 
L 127.379982 -141.750024 
L 127.019401 -140.909569 
L 126.65882 -139.106362 
L 126.29824 -136.963818 
L 125.937659 -134.775467 
L 125.577078 -132.560692 
L 125.216498 -130.299357 
L 124.855917 -128.095764 
L 124.495336 -126.161024 
L 124.134755 -124.688185 
L 123.774175 -123.751513 
L 123.413594 -123.2975 
L 123.053013 -123.207491 
L 122.692432 -123.37115 
L 122.331852 -123.728141 
L 121.971271 -124.27288 
L 121.61069 -125.033096 
L 121.250109 -126.032025 
L 120.889529 -127.24808 
L 120.528948 -128.591166 
L 120.168367 -129.908718 
L 119.807786 -131.018053 
L 119.447206 -131.746281 
L 119.086625 -131.960925 
L 118.726044 -131.593799 
L 118.365463 -130.665524 
L 118.004883 -129.294013 
L 117.644302 -127.661471 
L 117.283721 -125.95146 
L 116.92314 -124.301262 
L 116.56256 -122.794073 
L 116.201979 -121.473453 
L 115.841398 -120.355336 
L 115.480817 -119.434621 
L 115.120237 -118.693295 
L 114.759656 -118.109153 
L 114.399075 -117.66031 
L 114.038494 -117.326115 
L 113.677914 -117.087051 
L 113.317333 -116.923009 
L 112.956752 -116.810538 
L 112.596171 -116.724288 
L 112.235591 -116.644953 
L 111.87501 -116.566387 
L 111.514429 -116.493035 
L 111.153848 -116.429878 
L 110.793268 -116.37595 
L 110.432687 -116.326699 
L 110.072106 -116.279238 
L 109.711525 -116.233474 
L 109.350945 -116.189582 
L 108.990364 -116.146032 
L 108.629783 -116.099982 
L 108.269203 -116.049779 
L 107.908622 -115.998221 
L 107.548041 -115.953369 
L 107.18746 -115.924202 
L 106.82688 -115.913674 
L 106.466299 -115.915509 
L 106.105718 -115.917997 
L 105.745137 -115.911427 
L 105.384557 -115.893144 
L 105.023976 -115.867678 
L 104.663395 -115.843468 
L 104.302814 -115.828424 
L 103.942234 -115.825903 
L 103.581653 -115.833159 
L 103.221072 -115.843578 
L 102.860491 -115.850762 
L 102.499911 -115.851025 
L 102.13933 -115.843526 
L 101.778749 -115.829909 
L 101.418168 -115.814142 
L 101.057588 -115.801258 
L 100.697007 -115.794879 
L 100.336426 -115.795484 
L 99.975845 -115.800896 
L 99.615265 -115.808159 
L 99.254684 -115.815014 
L 98.894103 -115.820115 
L 98.533522 -115.822355 
L 98.172942 -115.820429 
L 97.812361 -115.813581 
L 97.45178 -115.802945 
L 97.091199 -115.791629 
L 96.730619 -115.782672 
L 96.370038 -115.776671 
L 96.009457 -115.771782 
L 95.648876 -115.766288 
L 95.288296 -115.760784 
L 94.927715 -115.757492 
L 94.567134 -115.7578 
L 94.206553 -115.761072 
L 93.845973 -115.765654 
L 93.485392 -115.770183 
L 93.124811 -115.773538 
L 92.76423 -115.774235 
L 92.40365 -115.770843 
L 92.043069 -115.763386 
L 91.682488 -115.75407 
L 91.321907 -115.746224 
L 90.961327 -115.742245 
L 90.600746 -115.742248 
L 90.240165 -115.74435 
L 89.879585 -115.746055 
L 89.519004 -115.745646 
L 89.158423 -115.742872 
L 88.797842 -115.738909 
L 88.437262 -115.73575 
L 88.076681 -115.735255 
L 87.7161 -115.738105 
L 87.355519 -115.743128 
L 86.994939 -115.747599 
L 86.634358 -115.74877 
L 86.273777 -115.745723 
L 85.913196 -115.739904 
L 85.552616 -115.733867 
L 85.192035 -115.729561 
L 84.831454 -115.727669 
L 84.470873 -115.728036 
L 84.110293 -115.730162 
L 83.749712 -115.733198 
L 83.389131 -115.735847 
L 83.02855 -115.736791 
L 82.66797 -115.735514 
L 82.307389 -115.73267 
L 81.946808 -115.72954 
L 81.586227 -115.727119 
L 81.225647 -115.725692 
L 80.865066 -115.725029 
L 80.504485 -115.724783 
L 80.143904 -115.72471 
L 79.783324 -115.724692 
L 79.422743 -115.724689 
L 79.062162 -115.724695 
L 78.701581 -115.724726 
L 78.341001 -115.724841 
L 77.98042 -115.725198 
L 77.619839 -115.726089 
L 77.259258 -115.727857 
L 76.898678 -115.730598 
L 76.538097 -115.733772 
L 76.177516 -115.736198 
L 75.816935 -115.736709 
L 75.456355 -115.735037 
L 75.095774 -115.732032 
z
" style="stroke: #2a788e; stroke-width: 1.25"/>
    </defs>
    <g>
     <use xlink:href="#m678d1dee87" x="0" y="174.899688" style="fill: #2a788e; fill-opacity: 0.7; stroke: #2a788e; stroke-width: 1.25"/>
    </g>
   </g>
   <g id="line2d_2">
    <path d="M 7.2 59.175 
L 216.45 59.175 
" style="fill: none; stroke: #2a788e; stroke-opacity: 0.9; stroke-linecap: round"/>
   </g>
   <g id="text_2">
    <!-- 1 -->
    <g style="fill: #2a788e" transform="translate(7.2 58.32825) scale(0.12 -0.12)">
     <defs>
      <path id="DejaVuSans-Bold-31" d="M 750 831 
L 1813 831 
L 1813 3847 
L 722 3622 
L 722 4441 
L 1806 4666 
L 2950 4666 
L 2950 831 
L 4013 831 
L 4013 0 
L 750 0 
L 750 831 
z
" transform="scale(0.015625)"/>
     </defs>
     <use xlink:href="#DejaVuSans-Bold-31"/>
    </g>
   </g>
  </g>
  <g id="axes_3">
   <g id="patch_4">
    <path d="M 7.2 69.57 
L 216.45 69.57 
L 216.45 27.99 
L 7.2 27.99 
L 7.2 69.57 
z
" style="fill: none"/>
   </g>
   <g id="matplotlib.axis_5">
    <g id="xtick_11"/>
    <g id="xtick_12"/>
    <g id="xtick_13"/>
    <g id="xtick_14"/>
    <g id="xtick_15"/>
   </g>
   <g id="matplotlib.axis_6"/>
   <g id="PolyCollection_2">
    <defs>
     <path id="mc473fa824d" d="M 52.434315 -105.332522 
L 52.434315 -105.329688 
L 53.025632 -105.329688 
L 53.616949 -105.329688 
L 54.208267 -105.329688 
L 54.799584 -105.329688 
L 55.390901 -105.329688 
L 55.982218 -105.329688 
L 56.573535 -105.329688 
L 57.164852 -105.329688 
L 57.75617 -105.329688 
L 58.347487 -105.329688 
L 58.938804 -105.329688 
L 59.530121 -105.329688 
L 60.121438 -105.329688 
L 60.712755 -105.329688 
L 61.304072 -105.329688 
L 61.89539 -105.329688 
L 62.486707 -105.329688 
L 63.078024 -105.329688 
L 63.669341 -105.329688 
L 64.260658 -105.329688 
L 64.851975 -105.329688 
L 65.443293 -105.329688 
L 66.03461 -105.329688 
L 66.625927 -105.329688 
L 67.217244 -105.329688 
L 67.808561 -105.329688 
L 68.399878 -105.329688 
L 68.991196 -105.329688 
L 69.582513 -105.329688 
L 70.17383 -105.329688 
L 70.765147 -105.329688 
L 71.356464 -105.329688 
L 71.947781 -105.329688 
L 72.539098 -105.329688 
L 73.130416 -105.329688 
L 73.721733 -105.329688 
L 74.31305 -105.329688 
L 74.904367 -105.329688 
L 75.495684 -105.329688 
L 76.087001 -105.329688 
L 76.678319 -105.329688 
L 77.269636 -105.329688 
L 77.860953 -105.329688 
L 78.45227 -105.329688 
L 79.043587 -105.329688 
L 79.634904 -105.329688 
L 80.226221 -105.329688 
L 80.817539 -105.329688 
L 81.408856 -105.329688 
L 82.000173 -105.329688 
L 82.59149 -105.329688 
L 83.182807 -105.329688 
L 83.774124 -105.329688 
L 84.365442 -105.329688 
L 84.956759 -105.329688 
L 85.548076 -105.329688 
L 86.139393 -105.329688 
L 86.73071 -105.329688 
L 87.322027 -105.329688 
L 87.913345 -105.329688 
L 88.504662 -105.329688 
L 89.095979 -105.329688 
L 89.687296 -105.329688 
L 90.278613 -105.329688 
L 90.86993 -105.329688 
L 91.461247 -105.329688 
L 92.052565 -105.329688 
L 92.643882 -105.329688 
L 93.235199 -105.329688 
L 93.826516 -105.329688 
L 94.417833 -105.329688 
L 95.00915 -105.329688 
L 95.600468 -105.329688 
L 96.191785 -105.329688 
L 96.783102 -105.329688 
L 97.374419 -105.329688 
L 97.965736 -105.329688 
L 98.557053 -105.329688 
L 99.148371 -105.329688 
L 99.739688 -105.329688 
L 100.331005 -105.329688 
L 100.922322 -105.329688 
L 101.513639 -105.329688 
L 102.104956 -105.329688 
L 102.696273 -105.329688 
L 103.287591 -105.329688 
L 103.878908 -105.329688 
L 104.470225 -105.329688 
L 105.061542 -105.329688 
L 105.652859 -105.329688 
L 106.244176 -105.329688 
L 106.835494 -105.329688 
L 107.426811 -105.329688 
L 108.018128 -105.329688 
L 108.609445 -105.329688 
L 109.200762 -105.329688 
L 109.792079 -105.329688 
L 110.383396 -105.329688 
L 110.974714 -105.329688 
L 111.566031 -105.329688 
L 112.157348 -105.329688 
L 112.748665 -105.329688 
L 113.339982 -105.329688 
L 113.931299 -105.329688 
L 114.522617 -105.329688 
L 115.113934 -105.329688 
L 115.705251 -105.329688 
L 116.296568 -105.329688 
L 116.887885 -105.329688 
L 117.479202 -105.329688 
L 118.07052 -105.329688 
L 118.661837 -105.329688 
L 119.253154 -105.329688 
L 119.844471 -105.329688 
L 120.435788 -105.329688 
L 121.027105 -105.329688 
L 121.618422 -105.329688 
L 122.20974 -105.329688 
L 122.801057 -105.329688 
L 123.392374 -105.329688 
L 123.983691 -105.329688 
L 124.575008 -105.329688 
L 125.166325 -105.329688 
L 125.757643 -105.329688 
L 126.34896 -105.329688 
L 126.940277 -105.329688 
L 127.531594 -105.329688 
L 128.122911 -105.329688 
L 128.714228 -105.329688 
L 129.305546 -105.329688 
L 129.896863 -105.329688 
L 130.48818 -105.329688 
L 131.079497 -105.329688 
L 131.670814 -105.329688 
L 132.262131 -105.329688 
L 132.853448 -105.329688 
L 133.444766 -105.329688 
L 134.036083 -105.329688 
L 134.6274 -105.329688 
L 135.218717 -105.329688 
L 135.810034 -105.329688 
L 136.401351 -105.329688 
L 136.992669 -105.329688 
L 137.583986 -105.329688 
L 138.175303 -105.329688 
L 138.76662 -105.329688 
L 139.357937 -105.329688 
L 139.949254 -105.329688 
L 140.540571 -105.329688 
L 141.131889 -105.329688 
L 141.723206 -105.329688 
L 142.314523 -105.329688 
L 142.90584 -105.329688 
L 143.497157 -105.329688 
L 144.088474 -105.329688 
L 144.679792 -105.329688 
L 145.271109 -105.329688 
L 145.862426 -105.329688 
L 146.453743 -105.329688 
L 147.04506 -105.329688 
L 147.636377 -105.329688 
L 148.227695 -105.329688 
L 148.819012 -105.329688 
L 149.410329 -105.329688 
L 150.001646 -105.329688 
L 150.592963 -105.329688 
L 151.18428 -105.329688 
L 151.775597 -105.329688 
L 152.366915 -105.329688 
L 152.958232 -105.329688 
L 153.549549 -105.329688 
L 154.140866 -105.329688 
L 154.732183 -105.329688 
L 155.3235 -105.329688 
L 155.914818 -105.329688 
L 156.506135 -105.329688 
L 157.097452 -105.329688 
L 157.688769 -105.329688 
L 158.280086 -105.329688 
L 158.871403 -105.329688 
L 159.46272 -105.329688 
L 160.054038 -105.329688 
L 160.645355 -105.329688 
L 161.236672 -105.329688 
L 161.827989 -105.329688 
L 162.419306 -105.329688 
L 163.010623 -105.329688 
L 163.601941 -105.329688 
L 164.193258 -105.329688 
L 164.784575 -105.329688 
L 165.375892 -105.329688 
L 165.967209 -105.329688 
L 166.558526 -105.329688 
L 167.149844 -105.329688 
L 167.741161 -105.329688 
L 168.332478 -105.329688 
L 168.923795 -105.329688 
L 169.515112 -105.329688 
L 170.106429 -105.329688 
L 170.106429 -105.333407 
L 170.106429 -105.333407 
L 169.515112 -105.33472 
L 168.923795 -105.336076 
L 168.332478 -105.33732 
L 167.741161 -105.338312 
L 167.149844 -105.33897 
L 166.558526 -105.339308 
L 165.967209 -105.339438 
L 165.375892 -105.339541 
L 164.784575 -105.339812 
L 164.193258 -105.340398 
L 163.601941 -105.341356 
L 163.010623 -105.342645 
L 162.419306 -105.34416 
L 161.827989 -105.345782 
L 161.236672 -105.347434 
L 160.645355 -105.349133 
L 160.054038 -105.351084 
L 159.46272 -105.353894 
L 158.871403 -105.359086 
L 158.280086 -105.370115 
L 157.688769 -105.394096 
L 157.097452 -105.444265 
L 156.506135 -105.542764 
L 155.914818 -105.722605 
L 155.3235 -106.026868 
L 154.732183 -106.502854 
L 154.140866 -107.189862 
L 153.549549 -108.101931 
L 152.958232 -109.210696 
L 152.366915 -110.436344 
L 151.775597 -111.654158 
L 151.18428 -112.718757 
L 150.592963 -113.499882 
L 150.001646 -113.916746 
L 149.410329 -113.957172 
L 148.819012 -113.674289 
L 148.227695 -113.163749 
L 147.636377 -112.532558 
L 147.04506 -111.872194 
L 146.453743 -111.244062 
L 145.862426 -110.678204 
L 145.271109 -110.180908 
L 144.679792 -109.745391 
L 144.088474 -109.36119 
L 143.497157 -109.020317 
L 142.90584 -108.720044 
L 142.314523 -108.46299 
L 141.723206 -108.255314 
L 141.131889 -108.103821 
L 140.540571 -108.01276 
L 139.949254 -107.981146 
L 139.357937 -108.001368 
L 138.76662 -108.059576 
L 138.175303 -108.137826 
L 137.583986 -108.217446 
L 136.992669 -108.282653 
L 136.401351 -108.323462 
L 135.810034 -108.337239 
L 135.218717 -108.328668 
L 134.6274 -108.308351 
L 134.036083 -108.290444 
L 133.444766 -108.289897 
L 132.853448 -108.319938 
L 132.262131 -108.390396 
L 131.670814 -108.507243 
L 131.079497 -108.673266 
L 130.48818 -108.889409 
L 129.896863 -109.156119 
L 129.305546 -109.474142 
L 128.714228 -109.844445 
L 128.122911 -110.267141 
L 127.531594 -110.739487 
L 126.940277 -111.253282 
L 126.34896 -111.792384 
L 125.757643 -112.331364 
L 125.166325 -112.83624 
L 124.575008 -113.26761 
L 123.983691 -113.585725 
L 123.392374 -113.756321 
L 122.801057 -113.755841 
L 122.20974 -113.57501 
L 121.618422 -113.220233 
L 121.027105 -112.712808 
L 120.435788 -112.086231 
L 119.844471 -111.382031 
L 119.253154 -110.644638 
L 118.661837 -109.915956 
L 118.07052 -109.230493 
L 117.479202 -108.612017 
L 116.887885 -108.072476 
L 116.296568 -107.613347 
L 115.705251 -107.228775 
L 115.113934 -106.909351 
L 114.522617 -106.645253 
L 113.931299 -106.428063 
L 113.339982 -106.251182 
L 112.748665 -106.109345 
L 112.157348 -105.997874 
L 111.566031 -105.912101 
L 110.974714 -105.847145 
L 110.383396 -105.798022 
L 109.792079 -105.759946 
L 109.200762 -105.728695 
L 108.609445 -105.700955 
L 108.018128 -105.674525 
L 107.426811 -105.648359 
L 106.835494 -105.622434 
L 106.244176 -105.597454 
L 105.652859 -105.574453 
L 105.061542 -105.55438 
L 104.470225 -105.537764 
L 103.878908 -105.52455 
L 103.287591 -105.514145 
L 102.696273 -105.505634 
L 102.104956 -105.498065 
L 101.513639 -105.49067 
L 100.922322 -105.482964 
L 100.331005 -105.474743 
L 99.739688 -105.466036 
L 99.148371 -105.457076 
L 98.557053 -105.448276 
L 97.965736 -105.440174 
L 97.374419 -105.433292 
L 96.783102 -105.427944 
L 96.191785 -105.424077 
L 95.600468 -105.421231 
L 95.00915 -105.418665 
L 94.417833 -105.415595 
L 93.826516 -105.411442 
L 93.235199 -105.405969 
L 92.643882 -105.399293 
L 92.052565 -105.391769 
L 91.461247 -105.383864 
L 90.86993 -105.376049 
L 90.278613 -105.36875 
L 89.687296 -105.362319 
L 89.095979 -105.357016 
L 88.504662 -105.352971 
L 87.913345 -105.350167 
L 87.322027 -105.34845 
L 86.73071 -105.347573 
L 86.139393 -105.347258 
L 85.548076 -105.347255 
L 84.956759 -105.34738 
L 84.365442 -105.347528 
L 83.774124 -105.347656 
L 83.182807 -105.347757 
L 82.59149 -105.347819 
L 82.000173 -105.347805 
L 81.408856 -105.347639 
L 80.817539 -105.347229 
L 80.226221 -105.346497 
L 79.634904 -105.345408 
L 79.043587 -105.343993 
L 78.45227 -105.342349 
L 77.860953 -105.340628 
L 77.269636 -105.339008 
L 76.678319 -105.337648 
L 76.087001 -105.336645 
L 75.495684 -105.336001 
L 74.904367 -105.335631 
L 74.31305 -105.335393 
L 73.721733 -105.335147 
L 73.130416 -105.334816 
L 72.539098 -105.334413 
L 71.947781 -105.334025 
L 71.356464 -105.333774 
L 70.765147 -105.33375 
L 70.17383 -105.333978 
L 69.582513 -105.334399 
L 68.991196 -105.334905 
L 68.399878 -105.33538 
L 67.808561 -105.335746 
L 67.217244 -105.335974 
L 66.625927 -105.336076 
L 66.03461 -105.336067 
L 65.443293 -105.335939 
L 64.851975 -105.335661 
L 64.260658 -105.335196 
L 63.669341 -105.334538 
L 63.078024 -105.333728 
L 62.486707 -105.332851 
L 61.89539 -105.332008 
L 61.304072 -105.331289 
L 60.712755 -105.330751 
L 60.121438 -105.330422 
L 59.530121 -105.330308 
L 58.938804 -105.330407 
L 58.347487 -105.330718 
L 57.75617 -105.331229 
L 57.164852 -105.331906 
L 56.573535 -105.332676 
L 55.982218 -105.333425 
L 55.390901 -105.334018 
L 54.799584 -105.334331 
L 54.208267 -105.334297 
L 53.616949 -105.333923 
L 53.025632 -105.333289 
L 52.434315 -105.332522 
z
" style="stroke: #22a884; stroke-width: 1.25"/>
    </defs>
    <g>
     <use xlink:href="#mc473fa824d" x="0" y="174.899688" style="fill: #22a884; fill-opacity: 0.7; stroke: #22a884; stroke-width: 1.25"/>
    </g>
   </g>
   <g id="line2d_3">
    <path d="M 7.2 69.57 
L 216.45 69.57 
" style="fill: none; stroke: #22a884; stroke-opacity: 0.9; stroke-linecap: round"/>
   </g>
   <g id="text_3">
    <!-- 2 -->
    <g style="fill: #22a884" transform="translate(7.2 68.72325) scale(0.12 -0.12)">
     <defs>
      <path id="DejaVuSans-Bold-32" d="M 1844 884 
L 3897 884 
L 3897 0 
L 506 0 
L 506 884 
L 2209 2388 
Q 2438 2594 2547 2791 
Q 2656 2988 2656 3200 
Q 2656 3528 2436 3728 
Q 2216 3928 1850 3928 
Q 1569 3928 1234 3808 
Q 900 3688 519 3450 
L 519 4475 
Q 925 4609 1322 4679 
Q 1719 4750 2100 4750 
Q 2938 4750 3402 4381 
Q 3866 4013 3866 3353 
Q 3866 2972 3669 2642 
Q 3472 2313 2841 1759 
L 1844 884 
z
" transform="scale(0.015625)"/>
     </defs>
     <use xlink:href="#DejaVuSans-Bold-32"/>
    </g>
   </g>
  </g>
  <g id="axes_4">
   <g id="patch_5">
    <path d="M 7.2 79.965 
L 216.45 79.965 
L 216.45 38.385 
L 7.2 38.385 
L 7.2 79.965 
z
" style="fill: none"/>
   </g>
   <g id="matplotlib.axis_7">
    <g id="xtick_16"/>
    <g id="xtick_17"/>
    <g id="xtick_18"/>
    <g id="xtick_19"/>
    <g id="xtick_20"/>
   </g>
   <g id="matplotlib.axis_8"/>
   <g id="PolyCollection_3">
    <defs>
     <path id="m70a63d7b84" d="M 38.50599 -94.936805 
L 38.50599 -94.934688 
L 39.231276 -94.934688 
L 39.956563 -94.934688 
L 40.681849 -94.934688 
L 41.407135 -94.934688 
L 42.132421 -94.934688 
L 42.857708 -94.934688 
L 43.582994 -94.934688 
L 44.30828 -94.934688 
L 45.033566 -94.934688 
L 45.758853 -94.934688 
L 46.484139 -94.934688 
L 47.209425 -94.934688 
L 47.934712 -94.934688 
L 48.659998 -94.934688 
L 49.385284 -94.934688 
L 50.11057 -94.934688 
L 50.835857 -94.934688 
L 51.561143 -94.934688 
L 52.286429 -94.934688 
L 53.011715 -94.934688 
L 53.737002 -94.934688 
L 54.462288 -94.934688 
L 55.187574 -94.934688 
L 55.91286 -94.934688 
L 56.638147 -94.934688 
L 57.363433 -94.934688 
L 58.088719 -94.934688 
L 58.814005 -94.934688 
L 59.539292 -94.934688 
L 60.264578 -94.934688 
L 60.989864 -94.934688 
L 61.715151 -94.934688 
L 62.440437 -94.934688 
L 63.165723 -94.934688 
L 63.891009 -94.934688 
L 64.616296 -94.934688 
L 65.341582 -94.934688 
L 66.066868 -94.934688 
L 66.792154 -94.934688 
L 67.517441 -94.934688 
L 68.242727 -94.934688 
L 68.968013 -94.934688 
L 69.693299 -94.934688 
L 70.418586 -94.934688 
L 71.143872 -94.934688 
L 71.869158 -94.934688 
L 72.594444 -94.934688 
L 73.319731 -94.934688 
L 74.045017 -94.934688 
L 74.770303 -94.934688 
L 75.495589 -94.934688 
L 76.220876 -94.934688 
L 76.946162 -94.934688 
L 77.671448 -94.934688 
L 78.396735 -94.934688 
L 79.122021 -94.934688 
L 79.847307 -94.934688 
L 80.572593 -94.934688 
L 81.29788 -94.934688 
L 82.023166 -94.934688 
L 82.748452 -94.934688 
L 83.473738 -94.934688 
L 84.199025 -94.934688 
L 84.924311 -94.934688 
L 85.649597 -94.934688 
L 86.374883 -94.934688 
L 87.10017 -94.934688 
L 87.825456 -94.934688 
L 88.550742 -94.934688 
L 89.276028 -94.934688 
L 90.001315 -94.934688 
L 90.726601 -94.934688 
L 91.451887 -94.934688 
L 92.177174 -94.934688 
L 92.90246 -94.934688 
L 93.627746 -94.934688 
L 94.353032 -94.934688 
L 95.078319 -94.934688 
L 95.803605 -94.934688 
L 96.528891 -94.934688 
L 97.254177 -94.934688 
L 97.979464 -94.934688 
L 98.70475 -94.934688 
L 99.430036 -94.934688 
L 100.155322 -94.934688 
L 100.880609 -94.934688 
L 101.605895 -94.934688 
L 102.331181 -94.934688 
L 103.056467 -94.934688 
L 103.781754 -94.934688 
L 104.50704 -94.934688 
L 105.232326 -94.934688 
L 105.957612 -94.934688 
L 106.682899 -94.934688 
L 107.408185 -94.934688 
L 108.133471 -94.934688 
L 108.858758 -94.934688 
L 109.584044 -94.934688 
L 110.30933 -94.934688 
L 111.034616 -94.934688 
L 111.759903 -94.934688 
L 112.485189 -94.934688 
L 113.210475 -94.934688 
L 113.935761 -94.934688 
L 114.661048 -94.934688 
L 115.386334 -94.934688 
L 116.11162 -94.934688 
L 116.836906 -94.934688 
L 117.562193 -94.934688 
L 118.287479 -94.934688 
L 119.012765 -94.934688 
L 119.738051 -94.934688 
L 120.463338 -94.934688 
L 121.188624 -94.934688 
L 121.91391 -94.934688 
L 122.639196 -94.934688 
L 123.364483 -94.934688 
L 124.089769 -94.934688 
L 124.815055 -94.934688 
L 125.540342 -94.934688 
L 126.265628 -94.934688 
L 126.990914 -94.934688 
L 127.7162 -94.934688 
L 128.441487 -94.934688 
L 129.166773 -94.934688 
L 129.892059 -94.934688 
L 130.617345 -94.934688 
L 131.342632 -94.934688 
L 132.067918 -94.934688 
L 132.793204 -94.934688 
L 133.51849 -94.934688 
L 134.243777 -94.934688 
L 134.969063 -94.934688 
L 135.694349 -94.934688 
L 136.419635 -94.934688 
L 137.144922 -94.934688 
L 137.870208 -94.934688 
L 138.595494 -94.934688 
L 139.320781 -94.934688 
L 140.046067 -94.934688 
L 140.771353 -94.934688 
L 141.496639 -94.934688 
L 142.221926 -94.934688 
L 142.947212 -94.934688 
L 143.672498 -94.934688 
L 144.397784 -94.934688 
L 145.123071 -94.934688 
L 145.848357 -94.934688 
L 146.573643 -94.934688 
L 147.298929 -94.934688 
L 148.024216 -94.934688 
L 148.749502 -94.934688 
L 149.474788 -94.934688 
L 150.200074 -94.934688 
L 150.925361 -94.934688 
L 151.650647 -94.934688 
L 152.375933 -94.934688 
L 153.101219 -94.934688 
L 153.826506 -94.934688 
L 154.551792 -94.934688 
L 155.277078 -94.934688 
L 156.002365 -94.934688 
L 156.727651 -94.934688 
L 157.452937 -94.934688 
L 158.178223 -94.934688 
L 158.90351 -94.934688 
L 159.628796 -94.934688 
L 160.354082 -94.934688 
L 161.079368 -94.934688 
L 161.804655 -94.934688 
L 162.529941 -94.934688 
L 163.255227 -94.934688 
L 163.980513 -94.934688 
L 164.7058 -94.934688 
L 165.431086 -94.934688 
L 166.156372 -94.934688 
L 166.881658 -94.934688 
L 167.606945 -94.934688 
L 168.332231 -94.934688 
L 169.057517 -94.934688 
L 169.782804 -94.934688 
L 170.50809 -94.934688 
L 171.233376 -94.934688 
L 171.958662 -94.934688 
L 172.683949 -94.934688 
L 173.409235 -94.934688 
L 174.134521 -94.934688 
L 174.859807 -94.934688 
L 175.585094 -94.934688 
L 176.31038 -94.934688 
L 177.035666 -94.934688 
L 177.760952 -94.934688 
L 178.486239 -94.934688 
L 179.211525 -94.934688 
L 179.936811 -94.934688 
L 180.662097 -94.934688 
L 181.387384 -94.934688 
L 182.11267 -94.934688 
L 182.837956 -94.934688 
L 182.837956 -94.938787 
L 182.837956 -94.938787 
L 182.11267 -94.940167 
L 181.387384 -94.94162 
L 180.662097 -94.943014 
L 179.936811 -94.944219 
L 179.211525 -94.945148 
L 178.486239 -94.945786 
L 177.760952 -94.946208 
L 177.035666 -94.946572 
L 176.31038 -94.947137 
L 175.585094 -94.948324 
L 174.859807 -94.950913 
L 174.134521 -94.956475 
L 173.409235 -94.96811 
L 172.683949 -94.991559 
L 171.958662 -95.036593 
L 171.233376 -95.118388 
L 170.50809 -95.258243 
L 169.782804 -95.482758 
L 169.057517 -95.820507 
L 168.332231 -96.295733 
L 167.606945 -96.919651 
L 166.881658 -97.681421 
L 166.156372 -98.542113 
L 165.431086 -99.435067 
L 164.7058 -100.274591 
L 163.980513 -100.971927 
L 163.255227 -101.454274 
L 162.529941 -101.680837 
L 161.804655 -101.650561 
L 161.079368 -101.399264 
L 160.354082 -100.987814 
L 159.628796 -100.486016 
L 158.90351 -99.957597 
L 158.178223 -99.450271 
L 157.452937 -98.992253 
L 156.727651 -98.594259 
L 156.002365 -98.254712 
L 155.277078 -97.965774 
L 154.551792 -97.718466 
L 153.826506 -97.506003 
L 153.101219 -97.325207 
L 152.375933 -97.176302 
L 151.650647 -97.061611 
L 150.925361 -96.983716 
L 150.200074 -96.943632 
L 149.474788 -96.939435 
L 148.749502 -96.965694 
L 148.024216 -97.013808 
L 147.298929 -97.07318 
L 146.573643 -97.132912 
L 145.848357 -97.183627 
L 145.123071 -97.21898 
L 144.397784 -97.236586 
L 143.672498 -97.238174 
L 142.947212 -97.229006 
L 142.221926 -97.216718 
L 141.496639 -97.209847 
L 140.771353 -97.216413 
L 140.046067 -97.242869 
L 139.320781 -97.293645 
L 138.595494 -97.371291 
L 137.870208 -97.477038 
L 137.144922 -97.611485 
L 136.419635 -97.775122 
L 135.694349 -97.968483 
L 134.969063 -98.191874 
L 134.243777 -98.444699 
L 133.51849 -98.724583 
L 132.793204 -99.026529 
L 132.067918 -99.342442 
L 131.342632 -99.661228 
L 130.617345 -99.969487 
L 129.892059 -100.252578 
L 129.166773 -100.495742 
L 128.441487 -100.685013 
L 127.7162 -100.807912 
L 126.990914 -100.854104 
L 126.265628 -100.816234 
L 125.540342 -100.69098 
L 124.815055 -100.48008 
L 124.089769 -100.190894 
L 123.364483 -99.83612 
L 122.639196 -99.432539 
L 121.91391 -98.999061 
L 121.188624 -98.554542 
L 120.463338 -98.11593 
L 119.738051 -97.697061 
L 119.012765 -97.308192 
L 118.287479 -96.956079 
L 117.562193 -96.644357 
L 116.836906 -96.374003 
L 116.11162 -96.143819 
L 115.386334 -95.950934 
L 114.661048 -95.791384 
L 113.935761 -95.66072 
L 113.210475 -95.554575 
L 112.485189 -95.469035 
L 111.759903 -95.400773 
L 111.034616 -95.346957 
L 110.30933 -95.305051 
L 109.584044 -95.27265 
L 108.858758 -95.247426 
L 108.133471 -95.227207 
L 107.408185 -95.210109 
L 106.682899 -95.19467 
L 105.957612 -95.179925 
L 105.232326 -95.165405 
L 104.50704 -95.151082 
L 103.781754 -95.137244 
L 103.056467 -95.124345 
L 102.331181 -95.112832 
L 101.605895 -95.102981 
L 100.880609 -95.094794 
L 100.155322 -95.087982 
L 99.430036 -95.082033 
L 98.70475 -95.076338 
L 97.979464 -95.070341 
L 97.254177 -95.063657 
L 96.528891 -95.056132 
L 95.803605 -95.04785 
L 95.078319 -95.039085 
L 94.353032 -95.03022 
L 93.627746 -95.021667 
L 92.90246 -95.013796 
L 92.177174 -95.00689 
L 91.451887 -95.00111 
L 90.726601 -94.996492 
L 90.001315 -94.992949 
L 89.276028 -94.990287 
L 88.550742 -94.988241 
L 87.825456 -94.986525 
L 87.10017 -94.984879 
L 86.374883 -94.983116 
L 85.649597 -94.98113 
L 84.924311 -94.978895 
L 84.199025 -94.976425 
L 83.473738 -94.973753 
L 82.748452 -94.970903 
L 82.023166 -94.967894 
L 81.29788 -94.964756 
L 80.572593 -94.961549 
L 79.847307 -94.958385 
L 79.122021 -94.955417 
L 78.396735 -94.95281 
L 77.671448 -94.950702 
L 76.946162 -94.949162 
L 76.220876 -94.948167 
L 75.495589 -94.947611 
L 74.770303 -94.947332 
L 74.045017 -94.947149 
L 73.319731 -94.946898 
L 72.594444 -94.946457 
L 71.869158 -94.945761 
L 71.143872 -94.944807 
L 70.418586 -94.943655 
L 69.693299 -94.942416 
L 68.968013 -94.941222 
L 68.242727 -94.940203 
L 67.517441 -94.939444 
L 66.792154 -94.938969 
L 66.066868 -94.938734 
L 65.341582 -94.938647 
L 64.616296 -94.9386 
L 63.891009 -94.938503 
L 63.165723 -94.938313 
L 62.440437 -94.938047 
L 61.715151 -94.937763 
L 60.989864 -94.937548 
L 60.264578 -94.937481 
L 59.539292 -94.937609 
L 58.814005 -94.937943 
L 58.088719 -94.938453 
L 57.363433 -94.939084 
L 56.638147 -94.939778 
L 55.91286 -94.940481 
L 55.187574 -94.94115 
L 54.462288 -94.941746 
L 53.737002 -94.942223 
L 53.011715 -94.942523 
L 52.286429 -94.942585 
L 51.561143 -94.94236 
L 50.835857 -94.941837 
L 50.11057 -94.941054 
L 49.385284 -94.940097 
L 48.659998 -94.939088 
L 47.934712 -94.938155 
L 47.209425 -94.937408 
L 46.484139 -94.93692 
L 45.758853 -94.936719 
L 45.033566 -94.936782 
L 44.30828 -94.937049 
L 43.582994 -94.937427 
L 42.857708 -94.937808 
L 42.132421 -94.938089 
L 41.407135 -94.938195 
L 40.681849 -94.938091 
L 39.956563 -94.937786 
L 39.231276 -94.937334 
L 38.50599 -94.936805 
z
" style="stroke: #bddf26; stroke-width: 1.25"/>
    </defs>
    <g>
     <use xlink:href="#m70a63d7b84" x="0" y="174.899688" style="fill: #bddf26; fill-opacity: 0.7; stroke: #bddf26; stroke-width: 1.25"/>
    </g>
   </g>
   <g id="line2d_4">
    <path d="M 7.2 79.965 
L 216.45 79.965 
" style="fill: none; stroke: #bddf26; stroke-opacity: 0.9; stroke-linecap: round"/>
   </g>
   <g id="text_4">
    <!-- 3 -->
    <g style="fill: #bddf26" transform="translate(7.2 79.11825) scale(0.12 -0.12)">
     <defs>
      <path id="DejaVuSans-Bold-33" d="M 2981 2516 
Q 3453 2394 3698 2092 
Q 3944 1791 3944 1325 
Q 3944 631 3412 270 
Q 2881 -91 1863 -91 
Q 1503 -91 1142 -33 
Q 781 25 428 141 
L 428 1069 
Q 766 900 1098 814 
Q 1431 728 1753 728 
Q 2231 728 2486 893 
Q 2741 1059 2741 1369 
Q 2741 1688 2480 1852 
Q 2219 2016 1709 2016 
L 1228 2016 
L 1228 2791 
L 1734 2791 
Q 2188 2791 2409 2933 
Q 2631 3075 2631 3366 
Q 2631 3634 2415 3781 
Q 2200 3928 1806 3928 
Q 1516 3928 1219 3862 
Q 922 3797 628 3669 
L 628 4550 
Q 984 4650 1334 4700 
Q 1684 4750 2022 4750 
Q 2931 4750 3382 4451 
Q 3834 4153 3834 3553 
Q 3834 3144 3618 2883 
Q 3403 2622 2981 2516 
z
" transform="scale(0.015625)"/>
     </defs>
     <use xlink:href="#DejaVuSans-Bold-33"/>
    </g>
   </g>
  </g>
  <g id="axes_5">
   <g id="patch_6">
    <path d="M 7.2 90.36 
L 216.45 90.36 
L 216.45 48.78 
L 7.2 48.78 
L 7.2 90.36 
z
" style="fill: none"/>
   </g>
   <g id="matplotlib.axis_9">
    <g id="xtick_21"/>
    <g id="xtick_22"/>
    <g id="xtick_23"/>
    <g id="xtick_24"/>
    <g id="xtick_25"/>
   </g>
   <g id="matplotlib.axis_10"/>
   <g id="PolyCollection_4">
    <defs>
     <path id="m89df7eaf02" d="M 27.745281 -84.542112 
L 27.745281 -84.539688 
L 28.6257 -84.539688 
L 29.50612 -84.539688 
L 30.38654 -84.539688 
L 31.26696 -84.539688 
L 32.14738 -84.539688 
L 33.0278 -84.539688 
L 33.90822 -84.539688 
L 34.78864 -84.539688 
L 35.66906 -84.539688 
L 36.54948 -84.539688 
L 37.4299 -84.539688 
L 38.31032 -84.539688 
L 39.19074 -84.539688 
L 40.07116 -84.539688 
L 40.95158 -84.539688 
L 41.832 -84.539688 
L 42.71242 -84.539688 
L 43.59284 -84.539688 
L 44.47326 -84.539688 
L 45.35368 -84.539688 
L 46.2341 -84.539688 
L 47.11452 -84.539688 
L 47.99494 -84.539688 
L 48.87536 -84.539688 
L 49.75578 -84.539688 
L 50.6362 -84.539688 
L 51.51662 -84.539688 
L 52.39704 -84.539688 
L 53.27746 -84.539688 
L 54.157879 -84.539688 
L 55.038299 -84.539688 
L 55.918719 -84.539688 
L 56.799139 -84.539688 
L 57.679559 -84.539688 
L 58.559979 -84.539688 
L 59.440399 -84.539688 
L 60.320819 -84.539688 
L 61.201239 -84.539688 
L 62.081659 -84.539688 
L 62.962079 -84.539688 
L 63.842499 -84.539688 
L 64.722919 -84.539688 
L 65.603339 -84.539688 
L 66.483759 -84.539688 
L 67.364179 -84.539688 
L 68.244599 -84.539688 
L 69.125019 -84.539688 
L 70.005439 -84.539688 
L 70.885859 -84.539688 
L 71.766279 -84.539688 
L 72.646699 -84.539688 
L 73.527119 -84.539688 
L 74.407539 -84.539688 
L 75.287959 -84.539688 
L 76.168379 -84.539688 
L 77.048799 -84.539688 
L 77.929219 -84.539688 
L 78.809639 -84.539688 
L 79.690058 -84.539688 
L 80.570478 -84.539688 
L 81.450898 -84.539688 
L 82.331318 -84.539688 
L 83.211738 -84.539688 
L 84.092158 -84.539688 
L 84.972578 -84.539688 
L 85.852998 -84.539688 
L 86.733418 -84.539688 
L 87.613838 -84.539688 
L 88.494258 -84.539688 
L 89.374678 -84.539688 
L 90.255098 -84.539688 
L 91.135518 -84.539688 
L 92.015938 -84.539688 
L 92.896358 -84.539688 
L 93.776778 -84.539688 
L 94.657198 -84.539688 
L 95.537618 -84.539688 
L 96.418038 -84.539688 
L 97.298458 -84.539688 
L 98.178878 -84.539688 
L 99.059298 -84.539688 
L 99.939718 -84.539688 
L 100.820138 -84.539688 
L 101.700558 -84.539688 
L 102.580978 -84.539688 
L 103.461398 -84.539688 
L 104.341817 -84.539688 
L 105.222237 -84.539688 
L 106.102657 -84.539688 
L 106.983077 -84.539688 
L 107.863497 -84.539688 
L 108.743917 -84.539688 
L 109.624337 -84.539688 
L 110.504757 -84.539688 
L 111.385177 -84.539688 
L 112.265597 -84.539688 
L 113.146017 -84.539688 
L 114.026437 -84.539688 
L 114.906857 -84.539688 
L 115.787277 -84.539688 
L 116.667697 -84.539688 
L 117.548117 -84.539688 
L 118.428537 -84.539688 
L 119.308957 -84.539688 
L 120.189377 -84.539688 
L 121.069797 -84.539688 
L 121.950217 -84.539688 
L 122.830637 -84.539688 
L 123.711057 -84.539688 
L 124.591477 -84.539688 
L 125.471897 -84.539688 
L 126.352317 -84.539688 
L 127.232737 -84.539688 
L 128.113157 -84.539688 
L 128.993577 -84.539688 
L 129.873996 -84.539688 
L 130.754416 -84.539688 
L 131.634836 -84.539688 
L 132.515256 -84.539688 
L 133.395676 -84.539688 
L 134.276096 -84.539688 
L 135.156516 -84.539688 
L 136.036936 -84.539688 
L 136.917356 -84.539688 
L 137.797776 -84.539688 
L 138.678196 -84.539688 
L 139.558616 -84.539688 
L 140.439036 -84.539688 
L 141.319456 -84.539688 
L 142.199876 -84.539688 
L 143.080296 -84.539688 
L 143.960716 -84.539688 
L 144.841136 -84.539688 
L 145.721556 -84.539688 
L 146.601976 -84.539688 
L 147.482396 -84.539688 
L 148.362816 -84.539688 
L 149.243236 -84.539688 
L 150.123656 -84.539688 
L 151.004076 -84.539688 
L 151.884496 -84.539688 
L 152.764916 -84.539688 
L 153.645336 -84.539688 
L 154.525756 -84.539688 
L 155.406175 -84.539688 
L 156.286595 -84.539688 
L 157.167015 -84.539688 
L 158.047435 -84.539688 
L 158.927855 -84.539688 
L 159.808275 -84.539688 
L 160.688695 -84.539688 
L 161.569115 -84.539688 
L 162.449535 -84.539688 
L 163.329955 -84.539688 
L 164.210375 -84.539688 
L 165.090795 -84.539688 
L 165.971215 -84.539688 
L 166.851635 -84.539688 
L 167.732055 -84.539688 
L 168.612475 -84.539688 
L 169.492895 -84.539688 
L 170.373315 -84.539688 
L 171.253735 -84.539688 
L 172.134155 -84.539688 
L 173.014575 -84.539688 
L 173.894995 -84.539688 
L 174.775415 -84.539688 
L 175.655835 -84.539688 
L 176.536255 -84.539688 
L 177.416675 -84.539688 
L 178.297095 -84.539688 
L 179.177515 -84.539688 
L 180.057934 -84.539688 
L 180.938354 -84.539688 
L 181.818774 -84.539688 
L 182.699194 -84.539688 
L 183.579614 -84.539688 
L 184.460034 -84.539688 
L 185.340454 -84.539688 
L 186.220874 -84.539688 
L 187.101294 -84.539688 
L 187.981714 -84.539688 
L 188.862134 -84.539688 
L 189.742554 -84.539688 
L 190.622974 -84.539688 
L 191.503394 -84.539688 
L 192.383814 -84.539688 
L 193.264234 -84.539688 
L 194.144654 -84.539688 
L 195.025074 -84.539688 
L 195.905494 -84.539688 
L 196.785914 -84.539688 
L 197.666334 -84.539688 
L 198.546754 -84.539688 
L 199.427174 -84.539688 
L 200.307594 -84.539688 
L 201.188014 -84.539688 
L 202.068434 -84.539688 
L 202.948854 -84.539688 
L 202.948854 -84.542061 
L 202.948854 -84.542061 
L 202.068434 -84.542891 
L 201.188014 -84.5436 
L 200.307594 -84.544072 
L 199.427174 -84.544291 
L 198.546754 -84.544349 
L 197.666334 -84.54436 
L 196.785914 -84.544377 
L 195.905494 -84.544354 
L 195.025074 -84.544214 
L 194.144654 -84.543944 
L 193.264234 -84.543649 
L 192.383814 -84.543508 
L 191.503394 -84.543672 
L 190.622974 -84.544186 
L 189.742554 -84.544987 
L 188.862134 -84.545955 
L 187.981714 -84.546969 
L 187.101294 -84.54789 
L 186.220874 -84.548534 
L 185.340454 -84.548687 
L 184.460034 -84.548195 
L 183.579614 -84.547085 
L 182.699194 -84.545608 
L 181.818774 -84.544171 
L 180.938354 -84.543209 
L 180.057934 -84.543068 
L 179.177515 -84.543968 
L 178.297095 -84.546022 
L 177.416675 -84.549278 
L 176.536255 -84.553749 
L 175.655835 -84.559389 
L 174.775415 -84.566006 
L 173.894995 -84.573153 
L 173.014575 -84.580228 
L 172.134155 -84.587047 
L 171.253735 -84.59519 
L 170.373315 -84.610319 
L 169.492895 -84.645505 
L 168.612475 -84.725096 
L 167.732055 -84.887435 
L 166.851635 -85.182956 
L 165.971215 -85.663377 
L 165.090795 -86.360245 
L 164.210375 -87.258048 
L 163.329955 -88.275523 
L 162.449535 -89.271399 
L 161.569115 -90.081339 
L 160.688695 -90.573949 
L 159.808275 -90.698192 
L 158.927855 -90.496396 
L 158.047435 -90.077322 
L 157.167015 -89.567646 
L 156.286595 -89.069652 
L 155.406175 -88.64293 
L 154.525756 -88.309312 
L 153.645336 -88.06823 
L 152.764916 -87.910177 
L 151.884496 -87.823752 
L 151.004076 -87.798259 
L 150.123656 -87.824813 
L 149.243236 -87.896467 
L 148.362816 -88.006255 
L 147.482396 -88.143239 
L 146.601976 -88.289275 
L 145.721556 -88.420072 
L 144.841136 -88.511738 
L 143.960716 -88.550005 
L 143.080296 -88.53684 
L 142.199876 -88.490296 
L 141.319456 -88.437385 
L 140.439036 -88.403641 
L 139.558616 -88.404643 
L 138.678196 -88.443358 
L 137.797776 -88.513754 
L 136.917356 -88.607613 
L 136.036936 -88.719783 
L 135.156516 -88.848499 
L 134.276096 -88.990993 
L 133.395676 -89.138002 
L 132.515256 -89.271611 
L 131.634836 -89.368585 
L 130.754416 -89.407516 
L 129.873996 -89.375456 
L 128.993577 -89.270191 
L 128.113157 -89.097655 
L 127.232737 -88.867358 
L 126.352317 -88.589423 
L 125.471897 -88.27456 
L 124.591477 -87.935533 
L 123.711057 -87.587752 
L 122.830637 -87.247774 
L 121.950217 -86.930285 
L 121.069797 -86.645063 
L 120.189377 -86.395316 
L 119.308957 -86.178151 
L 118.428537 -85.986986 
L 117.548117 -85.814862 
L 116.667697 -85.657138 
L 115.787277 -85.512428 
L 114.906857 -85.381734 
L 114.026437 -85.266707 
L 113.146017 -85.168286 
L 112.265597 -85.08635 
L 111.385177 -85.020119 
L 110.504757 -84.968511 
L 109.624337 -84.929947 
L 108.743917 -84.901825 
L 107.863497 -84.880359 
L 106.983077 -84.861251 
L 106.102657 -84.840925 
L 105.222237 -84.817595 
L 104.341817 -84.791547 
L 103.461398 -84.764581 
L 102.580978 -84.739043 
L 101.700558 -84.716915 
L 100.820138 -84.69929 
L 99.939718 -84.686307 
L 99.059298 -84.677422 
L 98.178878 -84.671776 
L 97.298458 -84.668408 
L 96.418038 -84.666237 
L 95.537618 -84.663991 
L 94.657198 -84.66032 
L 93.776778 -84.654199 
L 92.896358 -84.645392 
L 92.015938 -84.634669 
L 91.135518 -84.623548 
L 90.255098 -84.613687 
L 89.374678 -84.606221 
L 88.494258 -84.601401 
L 87.613838 -84.598649 
L 86.733418 -84.596915 
L 85.852998 -84.595148 
L 84.972578 -84.592645 
L 84.092158 -84.589204 
L 83.211738 -84.585066 
L 82.331318 -84.580726 
L 81.450898 -84.576726 
L 80.570478 -84.573489 
L 79.690058 -84.571219 
L 78.809639 -84.569839 
L 77.929219 -84.569028 
L 77.048799 -84.568361 
L 76.168379 -84.567542 
L 75.287959 -84.566603 
L 74.407539 -84.565923 
L 73.527119 -84.565995 
L 72.646699 -84.567065 
L 71.766279 -84.568853 
L 70.885859 -84.570587 
L 70.005439 -84.571356 
L 69.125019 -84.570579 
L 68.244599 -84.568287 
L 67.364179 -84.565043 
L 66.483759 -84.561607 
L 65.603339 -84.558562 
L 64.722919 -84.55613 
L 63.842499 -84.554206 
L 62.962079 -84.55251 
L 62.081659 -84.550772 
L 61.201239 -84.548866 
L 60.320819 -84.546863 
L 59.440399 -84.54499 
L 58.559979 -84.543517 
L 57.679559 -84.542639 
L 56.799139 -84.542388 
L 55.918719 -84.542627 
L 55.038299 -84.543089 
L 54.157879 -84.543474 
L 53.27746 -84.543548 
L 52.39704 -84.543226 
L 51.51662 -84.542584 
L 50.6362 -84.541802 
L 49.75578 -84.541062 
L 48.87536 -84.540484 
L 47.99494 -84.540098 
L 47.11452 -84.539877 
L 46.2341 -84.539767 
L 45.35368 -84.539723 
L 44.47326 -84.53972 
L 43.59284 -84.53976 
L 42.71242 -84.539873 
L 41.832 -84.540122 
L 40.95158 -84.540601 
L 40.07116 -84.541408 
L 39.19074 -84.542585 
L 38.31032 -84.544058 
L 37.4299 -84.545607 
L 36.54948 -84.546908 
L 35.66906 -84.547677 
L 34.78864 -84.547799 
L 33.90822 -84.54739 
L 33.0278 -84.546706 
L 32.14738 -84.545983 
L 31.26696 -84.545311 
L 30.38654 -84.544642 
L 29.50612 -84.543886 
L 28.6257 -84.543019 
L 27.745281 -84.542112 
z
" style="stroke: #7ad151; stroke-width: 1.25"/>
    </defs>
    <g>
     <use xlink:href="#m89df7eaf02" x="0" y="174.899688" style="fill: #7ad151; fill-opacity: 0.7; stroke: #7ad151; stroke-width: 1.25"/>
    </g>
   </g>
   <g id="line2d_5">
    <path d="M 7.2 90.36 
L 216.45 90.36 
" style="fill: none; stroke: #7ad151; stroke-opacity: 0.9; stroke-linecap: round"/>
   </g>
   <g id="text_5">
    <!-- 4 -->
    <g style="fill: #7ad151" transform="translate(7.2 89.51325) scale(0.12 -0.12)">
     <defs>
      <path id="DejaVuSans-Bold-34" d="M 2356 3675 
L 1038 1722 
L 2356 1722 
L 2356 3675 
z
M 2156 4666 
L 3494 4666 
L 3494 1722 
L 4159 1722 
L 4159 850 
L 3494 850 
L 3494 0 
L 2356 0 
L 2356 850 
L 288 850 
L 288 1881 
L 2156 4666 
z
" transform="scale(0.015625)"/>
     </defs>
     <use xlink:href="#DejaVuSans-Bold-34"/>
    </g>
   </g>
  </g>
  <g id="axes_6">
   <g id="patch_7">
    <path d="M 7.2 100.755 
L 216.45 100.755 
L 216.45 59.175 
L 7.2 59.175 
L 7.2 100.755 
z
" style="fill: none"/>
   </g>
   <g id="matplotlib.axis_11">
    <g id="xtick_26"/>
    <g id="xtick_27"/>
    <g id="xtick_28"/>
    <g id="xtick_29"/>
    <g id="xtick_30"/>
   </g>
   <g id="matplotlib.axis_12"/>
   <g id="PolyCollection_5">
    <defs>
     <path id="me5d52fc0ac" d="M 48.419698 -74.148648 
L 48.419698 -74.144688 
L 49.122476 -74.144688 
L 49.825254 -74.144688 
L 50.528032 -74.144688 
L 51.230809 -74.144688 
L 51.933587 -74.144688 
L 52.636365 -74.144688 
L 53.339143 -74.144688 
L 54.04192 -74.144688 
L 54.744698 -74.144688 
L 55.447476 -74.144688 
L 56.150253 -74.144688 
L 56.853031 -74.144688 
L 57.555809 -74.144688 
L 58.258587 -74.144688 
L 58.961364 -74.144688 
L 59.664142 -74.144688 
L 60.36692 -74.144688 
L 61.069697 -74.144688 
L 61.772475 -74.144688 
L 62.475253 -74.144688 
L 63.178031 -74.144688 
L 63.880808 -74.144688 
L 64.583586 -74.144688 
L 65.286364 -74.144688 
L 65.989142 -74.144688 
L 66.691919 -74.144688 
L 67.394697 -74.144688 
L 68.097475 -74.144688 
L 68.800252 -74.144688 
L 69.50303 -74.144688 
L 70.205808 -74.144688 
L 70.908586 -74.144688 
L 71.611363 -74.144688 
L 72.314141 -74.144688 
L 73.016919 -74.144688 
L 73.719696 -74.144688 
L 74.422474 -74.144688 
L 75.125252 -74.144688 
L 75.82803 -74.144688 
L 76.530807 -74.144688 
L 77.233585 -74.144688 
L 77.936363 -74.144688 
L 78.639141 -74.144688 
L 79.341918 -74.144688 
L 80.044696 -74.144688 
L 80.747474 -74.144688 
L 81.450251 -74.144688 
L 82.153029 -74.144688 
L 82.855807 -74.144688 
L 83.558585 -74.144688 
L 84.261362 -74.144688 
L 84.96414 -74.144688 
L 85.666918 -74.144688 
L 86.369695 -74.144688 
L 87.072473 -74.144688 
L 87.775251 -74.144688 
L 88.478029 -74.144688 
L 89.180806 -74.144688 
L 89.883584 -74.144688 
L 90.586362 -74.144688 
L 91.28914 -74.144688 
L 91.991917 -74.144688 
L 92.694695 -74.144688 
L 93.397473 -74.144688 
L 94.10025 -74.144688 
L 94.803028 -74.144688 
L 95.505806 -74.144688 
L 96.208584 -74.144688 
L 96.911361 -74.144688 
L 97.614139 -74.144688 
L 98.316917 -74.144688 
L 99.019694 -74.144688 
L 99.722472 -74.144688 
L 100.42525 -74.144688 
L 101.128028 -74.144688 
L 101.830805 -74.144688 
L 102.533583 -74.144688 
L 103.236361 -74.144688 
L 103.939139 -74.144688 
L 104.641916 -74.144688 
L 105.344694 -74.144688 
L 106.047472 -74.144688 
L 106.750249 -74.144688 
L 107.453027 -74.144688 
L 108.155805 -74.144688 
L 108.858583 -74.144688 
L 109.56136 -74.144688 
L 110.264138 -74.144688 
L 110.966916 -74.144688 
L 111.669693 -74.144688 
L 112.372471 -74.144688 
L 113.075249 -74.144688 
L 113.778027 -74.144688 
L 114.480804 -74.144688 
L 115.183582 -74.144688 
L 115.88636 -74.144688 
L 116.589138 -74.144688 
L 117.291915 -74.144688 
L 117.994693 -74.144688 
L 118.697471 -74.144688 
L 119.400248 -74.144688 
L 120.103026 -74.144688 
L 120.805804 -74.144688 
L 121.508582 -74.144688 
L 122.211359 -74.144688 
L 122.914137 -74.144688 
L 123.616915 -74.144688 
L 124.319692 -74.144688 
L 125.02247 -74.144688 
L 125.725248 -74.144688 
L 126.428026 -74.144688 
L 127.130803 -74.144688 
L 127.833581 -74.144688 
L 128.536359 -74.144688 
L 129.239137 -74.144688 
L 129.941914 -74.144688 
L 130.644692 -74.144688 
L 131.34747 -74.144688 
L 132.050247 -74.144688 
L 132.753025 -74.144688 
L 133.455803 -74.144688 
L 134.158581 -74.144688 
L 134.861358 -74.144688 
L 135.564136 -74.144688 
L 136.266914 -74.144688 
L 136.969691 -74.144688 
L 137.672469 -74.144688 
L 138.375247 -74.144688 
L 139.078025 -74.144688 
L 139.780802 -74.144688 
L 140.48358 -74.144688 
L 141.186358 -74.144688 
L 141.889136 -74.144688 
L 142.591913 -74.144688 
L 143.294691 -74.144688 
L 143.997469 -74.144688 
L 144.700246 -74.144688 
L 145.403024 -74.144688 
L 146.105802 -74.144688 
L 146.80858 -74.144688 
L 147.511357 -74.144688 
L 148.214135 -74.144688 
L 148.916913 -74.144688 
L 149.61969 -74.144688 
L 150.322468 -74.144688 
L 151.025246 -74.144688 
L 151.728024 -74.144688 
L 152.430801 -74.144688 
L 153.133579 -74.144688 
L 153.836357 -74.144688 
L 154.539135 -74.144688 
L 155.241912 -74.144688 
L 155.94469 -74.144688 
L 156.647468 -74.144688 
L 157.350245 -74.144688 
L 158.053023 -74.144688 
L 158.755801 -74.144688 
L 159.458579 -74.144688 
L 160.161356 -74.144688 
L 160.864134 -74.144688 
L 161.566912 -74.144688 
L 162.269689 -74.144688 
L 162.972467 -74.144688 
L 163.675245 -74.144688 
L 164.378023 -74.144688 
L 165.0808 -74.144688 
L 165.783578 -74.144688 
L 166.486356 -74.144688 
L 167.189134 -74.144688 
L 167.891911 -74.144688 
L 168.594689 -74.144688 
L 169.297467 -74.144688 
L 170.000244 -74.144688 
L 170.703022 -74.144688 
L 171.4058 -74.144688 
L 172.108578 -74.144688 
L 172.811355 -74.144688 
L 173.514133 -74.144688 
L 174.216911 -74.144688 
L 174.919688 -74.144688 
L 175.622466 -74.144688 
L 176.325244 -74.144688 
L 177.028022 -74.144688 
L 177.730799 -74.144688 
L 178.433577 -74.144688 
L 179.136355 -74.144688 
L 179.839133 -74.144688 
L 180.54191 -74.144688 
L 181.244688 -74.144688 
L 181.947466 -74.144688 
L 182.650243 -74.144688 
L 183.353021 -74.144688 
L 184.055799 -74.144688 
L 184.758577 -74.144688 
L 185.461354 -74.144688 
L 186.164132 -74.144688 
L 186.86691 -74.144688 
L 187.569687 -74.144688 
L 188.272465 -74.144688 
L 188.272465 -74.148891 
L 188.272465 -74.148891 
L 187.569687 -74.150278 
L 186.86691 -74.151743 
L 186.164132 -74.153148 
L 185.461354 -74.15434 
L 184.758577 -74.155192 
L 184.055799 -74.155628 
L 183.353021 -74.15565 
L 182.650243 -74.155333 
L 181.947466 -74.154806 
L 181.244688 -74.154222 
L 180.54191 -74.153721 
L 179.839133 -74.153409 
L 179.136355 -74.153344 
L 178.433577 -74.153543 
L 177.730799 -74.153998 
L 177.028022 -74.154718 
L 176.325244 -74.155798 
L 175.622466 -74.15755 
L 174.919688 -74.160737 
L 174.216911 -74.166962 
L 173.514133 -74.179268 
L 172.811355 -74.202986 
L 172.108578 -74.246762 
L 171.4058 -74.323561 
L 170.703022 -74.451194 
L 170.000244 -74.651761 
L 169.297467 -74.949329 
L 168.594689 -75.365459 
L 167.891911 -75.912842 
L 167.189134 -76.588272 
L 166.486356 -77.367065 
L 165.783578 -78.201396 
L 165.0808 -79.024378 
L 164.378023 -79.760072 
L 163.675245 -80.337443 
L 162.972467 -80.704525 
L 162.269689 -80.838576 
L 161.566912 -80.749191 
L 160.864134 -80.473712 
L 160.161356 -80.066844 
L 159.458579 -79.588034 
L 158.755801 -79.090315 
L 158.053023 -78.613178 
L 157.350245 -78.180232 
L 156.647468 -77.800904 
L 155.94469 -77.474521 
L 155.241912 -77.19506 
L 154.539135 -76.955263 
L 153.836357 -76.749413 
L 153.133579 -76.574601 
L 152.430801 -76.43065 
L 151.728024 -76.31911 
L 151.025246 -76.241766 
L 150.322468 -76.199134 
L 149.61969 -76.189344 
L 148.916913 -76.207664 
L 148.214135 -76.246768 
L 147.511357 -76.297665 
L 146.80858 -76.351036 
L 146.105802 -76.398696 
L 145.403024 -76.434848 
L 144.700246 -76.456906 
L 143.997469 -76.46575 
L 143.294691 -76.465402 
L 142.591913 -76.46221 
L 141.889136 -76.463697 
L 141.186358 -76.477317 
L 140.48358 -76.509335 
L 139.780802 -76.564082 
L 139.078025 -76.643686 
L 138.375247 -76.748324 
L 137.672469 -76.876842 
L 136.969691 -77.02756 
L 136.266914 -77.19896 
L 135.564136 -77.390053 
L 134.861358 -77.60024 
L 134.158581 -77.828686 
L 133.455803 -78.073359 
L 132.753025 -78.330047 
L 132.050247 -78.591712 
L 131.34747 -78.848457 
L 130.644692 -79.088219 
L 129.941914 -79.298037 
L 129.239137 -79.465574 
L 128.536359 -79.580513 
L 127.833581 -79.635508 
L 127.130803 -79.626574 
L 126.428026 -79.552985 
L 125.725248 -79.41691 
L 125.02247 -79.223009 
L 124.319692 -78.978115 
L 123.616915 -78.690989 
L 122.914137 -78.371993 
L 122.211359 -78.032536 
L 121.508582 -77.684273 
L 120.805804 -77.338133 
L 120.103026 -77.003414 
L 119.400248 -76.68715 
L 118.697471 -76.39389 
L 117.994693 -76.125879 
L 117.291915 -75.88353 
L 116.589138 -75.666032 
L 115.88636 -75.471934 
L 115.183582 -75.299605 
L 114.480804 -75.147536 
L 113.778027 -75.014459 
L 113.075249 -74.899318 
L 112.372471 -74.801139 
L 111.669693 -74.718854 
L 110.966916 -74.651159 
L 110.264138 -74.596458 
L 109.56136 -74.552919 
L 108.858583 -74.518596 
L 108.155805 -74.491575 
L 107.453027 -74.470074 
L 106.750249 -74.452491 
L 106.047472 -74.43742 
L 105.344694 -74.423672 
L 104.641916 -74.41034 
L 103.939139 -74.396882 
L 103.236361 -74.38318 
L 102.533583 -74.369516 
L 101.830805 -74.356437 
L 101.128028 -74.344537 
L 100.42525 -74.334225 
L 99.722472 -74.325571 
L 99.019694 -74.318266 
L 98.316917 -74.311737 
L 97.614139 -74.305326 
L 96.911361 -74.29849 
L 96.208584 -74.290929 
L 95.505806 -74.282615 
L 94.803028 -74.273737 
L 94.10025 -74.264595 
L 93.397473 -74.255492 
L 92.694695 -74.246673 
L 91.991917 -74.238302 
L 91.28914 -74.230479 
L 90.586362 -74.223275 
L 89.883584 -74.216755 
L 89.180806 -74.210977 
L 88.478029 -74.20598 
L 87.775251 -74.201753 
L 87.072473 -74.198217 
L 86.369695 -74.195224 
L 85.666918 -74.192586 
L 84.96414 -74.190128 
L 84.261362 -74.187736 
L 83.558585 -74.185392 
L 82.855807 -74.183178 
L 82.153029 -74.181235 
L 81.450251 -74.179696 
L 80.747474 -74.17862 
L 80.044696 -74.177945 
L 79.341918 -74.17748 
L 78.639141 -74.176955 
L 77.936363 -74.176091 
L 77.233585 -74.174687 
L 76.530807 -74.172673 
L 75.82803 -74.17012 
L 75.125252 -74.167222 
L 74.422474 -74.164239 
L 73.719696 -74.161445 
L 73.016919 -74.159079 
L 72.314141 -74.157312 
L 71.611363 -74.156228 
L 70.908586 -74.155811 
L 70.205808 -74.155955 
L 69.50303 -74.156479 
L 68.800252 -74.157168 
L 68.097475 -74.157812 
L 67.394697 -74.158247 
L 66.691919 -74.158385 
L 65.989142 -74.158207 
L 65.286364 -74.157757 
L 64.583586 -74.157113 
L 63.880808 -74.156363 
L 63.178031 -74.155597 
L 62.475253 -74.154894 
L 61.772475 -74.154322 
L 61.069697 -74.153935 
L 60.36692 -74.153762 
L 59.664142 -74.153809 
L 58.961364 -74.154049 
L 58.258587 -74.154437 
L 57.555809 -74.154909 
L 56.853031 -74.155401 
L 56.150253 -74.155849 
L 55.447476 -74.156198 
L 54.744698 -74.156398 
L 54.04192 -74.156402 
L 53.339143 -74.156169 
L 52.636365 -74.155668 
L 51.933587 -74.154889 
L 51.230809 -74.153854 
L 50.528032 -74.152621 
L 49.825254 -74.151275 
L 49.122476 -74.149918 
L 48.419698 -74.148648 
z
" style="stroke: #44bf70; stroke-width: 1.25"/>
    </defs>
    <g>
     <use xlink:href="#me5d52fc0ac" x="0" y="174.899688" style="fill: #44bf70; fill-opacity: 0.7; stroke: #44bf70; stroke-width: 1.25"/>
    </g>
   </g>
   <g id="line2d_6">
    <path d="M 7.2 100.755 
L 216.45 100.755 
" style="fill: none; stroke: #44bf70; stroke-opacity: 0.9; stroke-linecap: round"/>
   </g>
   <g id="text_6">
    <!-- 5 -->
    <g style="fill: #44bf70" transform="translate(7.2 99.90825) scale(0.12 -0.12)">
     <defs>
      <path id="DejaVuSans-Bold-35" d="M 678 4666 
L 3669 4666 
L 3669 3781 
L 1638 3781 
L 1638 3059 
Q 1775 3097 1914 3117 
Q 2053 3138 2203 3138 
Q 3056 3138 3531 2711 
Q 4006 2284 4006 1522 
Q 4006 766 3489 337 
Q 2972 -91 2053 -91 
Q 1656 -91 1267 -14 
Q 878 63 494 219 
L 494 1166 
Q 875 947 1217 837 
Q 1559 728 1863 728 
Q 2300 728 2551 942 
Q 2803 1156 2803 1522 
Q 2803 1891 2551 2103 
Q 2300 2316 1863 2316 
Q 1603 2316 1309 2248 
Q 1016 2181 678 2041 
L 678 4666 
z
" transform="scale(0.015625)"/>
     </defs>
     <use xlink:href="#DejaVuSans-Bold-35"/>
    </g>
   </g>
  </g>
  <g id="axes_7">
   <g id="patch_8">
    <path d="M 7.2 111.15 
L 216.45 111.15 
L 216.45 69.57 
L 7.2 69.57 
L 7.2 111.15 
z
" style="fill: none"/>
   </g>
   <g id="matplotlib.axis_13">
    <g id="xtick_31"/>
    <g id="xtick_32"/>
    <g id="xtick_33"/>
    <g id="xtick_34"/>
    <g id="xtick_35"/>
   </g>
   <g id="matplotlib.axis_14"/>
   <g id="PolyCollection_6">
    <defs>
     <path id="m2d7811106b" d="M 53.568526 -63.752534 
L 53.568526 -63.749688 
L 54.249934 -63.749688 
L 54.931343 -63.749688 
L 55.612752 -63.749688 
L 56.29416 -63.749688 
L 56.975569 -63.749688 
L 57.656977 -63.749688 
L 58.338386 -63.749688 
L 59.019794 -63.749688 
L 59.701203 -63.749688 
L 60.382612 -63.749688 
L 61.06402 -63.749688 
L 61.745429 -63.749688 
L 62.426837 -63.749688 
L 63.108246 -63.749688 
L 63.789655 -63.749688 
L 64.471063 -63.749688 
L 65.152472 -63.749688 
L 65.83388 -63.749688 
L 66.515289 -63.749688 
L 67.196697 -63.749688 
L 67.878106 -63.749688 
L 68.559515 -63.749688 
L 69.240923 -63.749688 
L 69.922332 -63.749688 
L 70.60374 -63.749688 
L 71.285149 -63.749688 
L 71.966558 -63.749688 
L 72.647966 -63.749688 
L 73.329375 -63.749688 
L 74.010783 -63.749688 
L 74.692192 -63.749688 
L 75.3736 -63.749688 
L 76.055009 -63.749688 
L 76.736418 -63.749688 
L 77.417826 -63.749688 
L 78.099235 -63.749688 
L 78.780643 -63.749688 
L 79.462052 -63.749688 
L 80.143461 -63.749688 
L 80.824869 -63.749688 
L 81.506278 -63.749688 
L 82.187686 -63.749688 
L 82.869095 -63.749688 
L 83.550503 -63.749688 
L 84.231912 -63.749688 
L 84.913321 -63.749688 
L 85.594729 -63.749688 
L 86.276138 -63.749688 
L 86.957546 -63.749688 
L 87.638955 -63.749688 
L 88.320364 -63.749688 
L 89.001772 -63.749688 
L 89.683181 -63.749688 
L 90.364589 -63.749688 
L 91.045998 -63.749688 
L 91.727406 -63.749688 
L 92.408815 -63.749688 
L 93.090224 -63.749688 
L 93.771632 -63.749688 
L 94.453041 -63.749688 
L 95.134449 -63.749688 
L 95.815858 -63.749688 
L 96.497267 -63.749688 
L 97.178675 -63.749688 
L 97.860084 -63.749688 
L 98.541492 -63.749688 
L 99.222901 -63.749688 
L 99.90431 -63.749688 
L 100.585718 -63.749688 
L 101.267127 -63.749688 
L 101.948535 -63.749688 
L 102.629944 -63.749688 
L 103.311352 -63.749688 
L 103.992761 -63.749688 
L 104.67417 -63.749688 
L 105.355578 -63.749688 
L 106.036987 -63.749688 
L 106.718395 -63.749688 
L 107.399804 -63.749688 
L 108.081213 -63.749688 
L 108.762621 -63.749688 
L 109.44403 -63.749688 
L 110.125438 -63.749688 
L 110.806847 -63.749688 
L 111.488255 -63.749688 
L 112.169664 -63.749688 
L 112.851073 -63.749688 
L 113.532481 -63.749688 
L 114.21389 -63.749688 
L 114.895298 -63.749688 
L 115.576707 -63.749688 
L 116.258116 -63.749688 
L 116.939524 -63.749688 
L 117.620933 -63.749688 
L 118.302341 -63.749688 
L 118.98375 -63.749688 
L 119.665158 -63.749688 
L 120.346567 -63.749688 
L 121.027976 -63.749688 
L 121.709384 -63.749688 
L 122.390793 -63.749688 
L 123.072201 -63.749688 
L 123.75361 -63.749688 
L 124.435019 -63.749688 
L 125.116427 -63.749688 
L 125.797836 -63.749688 
L 126.479244 -63.749688 
L 127.160653 -63.749688 
L 127.842061 -63.749688 
L 128.52347 -63.749688 
L 129.204879 -63.749688 
L 129.886287 -63.749688 
L 130.567696 -63.749688 
L 131.249104 -63.749688 
L 131.930513 -63.749688 
L 132.611922 -63.749688 
L 133.29333 -63.749688 
L 133.974739 -63.749688 
L 134.656147 -63.749688 
L 135.337556 -63.749688 
L 136.018964 -63.749688 
L 136.700373 -63.749688 
L 137.381782 -63.749688 
L 138.06319 -63.749688 
L 138.744599 -63.749688 
L 139.426007 -63.749688 
L 140.107416 -63.749688 
L 140.788825 -63.749688 
L 141.470233 -63.749688 
L 142.151642 -63.749688 
L 142.83305 -63.749688 
L 143.514459 -63.749688 
L 144.195867 -63.749688 
L 144.877276 -63.749688 
L 145.558685 -63.749688 
L 146.240093 -63.749688 
L 146.921502 -63.749688 
L 147.60291 -63.749688 
L 148.284319 -63.749688 
L 148.965728 -63.749688 
L 149.647136 -63.749688 
L 150.328545 -63.749688 
L 151.009953 -63.749688 
L 151.691362 -63.749688 
L 152.37277 -63.749688 
L 153.054179 -63.749688 
L 153.735588 -63.749688 
L 154.416996 -63.749688 
L 155.098405 -63.749688 
L 155.779813 -63.749688 
L 156.461222 -63.749688 
L 157.142631 -63.749688 
L 157.824039 -63.749688 
L 158.505448 -63.749688 
L 159.186856 -63.749688 
L 159.868265 -63.749688 
L 160.549673 -63.749688 
L 161.231082 -63.749688 
L 161.912491 -63.749688 
L 162.593899 -63.749688 
L 163.275308 -63.749688 
L 163.956716 -63.749688 
L 164.638125 -63.749688 
L 165.319534 -63.749688 
L 166.000942 -63.749688 
L 166.682351 -63.749688 
L 167.363759 -63.749688 
L 168.045168 -63.749688 
L 168.726576 -63.749688 
L 169.407985 -63.749688 
L 170.089394 -63.749688 
L 170.770802 -63.749688 
L 171.452211 -63.749688 
L 172.133619 -63.749688 
L 172.815028 -63.749688 
L 173.496437 -63.749688 
L 174.177845 -63.749688 
L 174.859254 -63.749688 
L 175.540662 -63.749688 
L 176.222071 -63.749688 
L 176.90348 -63.749688 
L 177.584888 -63.749688 
L 178.266297 -63.749688 
L 178.947705 -63.749688 
L 179.629114 -63.749688 
L 180.310522 -63.749688 
L 180.991931 -63.749688 
L 181.67334 -63.749688 
L 182.354748 -63.749688 
L 183.036157 -63.749688 
L 183.717565 -63.749688 
L 184.398974 -63.749688 
L 185.080383 -63.749688 
L 185.761791 -63.749688 
L 186.4432 -63.749688 
L 187.124608 -63.749688 
L 187.806017 -63.749688 
L 188.487425 -63.749688 
L 189.168834 -63.749688 
L 189.168834 -63.752368 
L 189.168834 -63.752368 
L 188.487425 -63.753155 
L 187.806017 -63.753778 
L 187.124608 -63.754089 
L 186.4432 -63.754009 
L 185.761791 -63.753557 
L 185.080383 -63.752849 
L 184.398974 -63.752047 
L 183.717565 -63.751301 
L 183.036157 -63.750718 
L 182.354748 -63.750347 
L 181.67334 -63.750209 
L 180.991931 -63.750321 
L 180.310522 -63.750721 
L 179.629114 -63.751457 
L 178.947705 -63.752557 
L 178.266297 -63.753978 
L 177.584888 -63.755567 
L 176.90348 -63.757075 
L 176.222071 -63.758219 
L 175.540662 -63.758799 
L 174.859254 -63.758798 
L 174.177845 -63.758421 
L 173.496437 -63.758038 
L 172.815028 -63.758051 
L 172.133619 -63.758749 
L 171.452211 -63.760203 
L 170.770802 -63.762249 
L 170.089394 -63.764545 
L 169.407985 -63.76669 
L 168.726576 -63.768359 
L 168.045168 -63.769407 
L 167.363759 -63.769922 
L 166.682351 -63.77019 
L 166.000942 -63.770567 
L 165.319534 -63.771324 
L 164.638125 -63.772496 
L 163.956716 -63.77385 
L 163.275308 -63.774983 
L 162.593899 -63.775534 
L 161.912491 -63.77542 
L 161.231082 -63.774997 
L 160.549673 -63.775151 
L 159.868265 -63.777485 
L 159.186856 -63.784923 
L 158.505448 -63.80317 
L 157.824039 -63.843324 
L 157.142631 -63.925542 
L 156.461222 -64.082659 
L 155.779813 -64.361261 
L 155.098405 -64.816671 
L 154.416996 -65.498888 
L 153.735588 -66.430167 
L 153.054179 -67.580995 
L 152.37277 -68.856549 
L 151.691362 -70.105461 
L 151.009953 -71.154119 
L 150.328545 -71.856094 
L 149.647136 -72.135899 
L 148.965728 -72.007309 
L 148.284319 -71.559226 
L 147.60291 -70.918511 
L 146.921502 -70.208665 
L 146.240093 -69.521079 
L 145.558685 -68.905536 
L 144.877276 -68.37668 
L 144.195867 -67.928332 
L 143.514459 -67.548059 
L 142.83305 -67.227272 
L 142.151642 -66.9651 
L 141.470233 -66.76657 
L 140.788825 -66.637325 
L 140.107416 -66.577935 
L 139.426007 -66.580558 
L 138.744599 -66.629243 
L 138.06319 -66.703379 
L 137.381782 -66.782624 
L 136.700373 -66.851423 
L 136.018964 -66.901876 
L 135.337556 -66.934511 
L 134.656147 -66.957244 
L 133.974739 -66.983112 
L 133.29333 -67.027504 
L 132.611922 -67.105555 
L 131.930513 -67.230161 
L 131.249104 -67.410733 
L 130.567696 -67.652482 
L 129.886287 -67.95587 
L 129.204879 -68.315983 
L 128.52347 -68.721727 
L 127.842061 -69.155095 
L 127.160653 -69.591 
L 126.479244 -69.998407 
L 125.797836 -70.343327 
L 125.116427 -70.593541 
L 124.435019 -70.723977 
L 123.75361 -70.721047 
L 123.072201 -70.58447 
L 122.390793 -70.32616 
L 121.709384 -69.966931 
L 121.027976 -69.53241 
L 120.346567 -69.049323 
L 119.665158 -68.542708 
L 118.98375 -68.03408 
L 118.302341 -67.540466 
L 117.620933 -67.074263 
L 116.939524 -66.643804 
L 116.258116 -66.254332 
L 115.576707 -65.908961 
L 114.895298 -65.609266 
L 114.21389 -65.355367 
L 113.532481 -65.14559 
L 112.851073 -64.975967 
L 112.169664 -64.840064 
L 111.488255 -64.729557 
L 110.806847 -64.635665 
L 110.125438 -64.551014 
L 109.44403 -64.471114 
L 108.762621 -64.394749 
L 108.081213 -64.323159 
L 107.399804 -64.25849 
L 106.718395 -64.202332 
L 106.036987 -64.154929 
L 105.355578 -64.115223 
L 104.67417 -64.081458 
L 103.992761 -64.051923 
L 103.311352 -64.025496 
L 102.629944 -64.001825 
L 101.948535 -63.981149 
L 101.267127 -63.963877 
L 100.585718 -63.950121 
L 99.90431 -63.939404 
L 99.222901 -63.930698 
L 98.541492 -63.922787 
L 97.860084 -63.91474 
L 97.178675 -63.906215 
L 96.497267 -63.897422 
L 95.815858 -63.888792 
L 95.134449 -63.880601 
L 94.453041 -63.872791 
L 93.771632 -63.865083 
L 93.090224 -63.857271 
L 92.408815 -63.849481 
L 91.727406 -63.842239 
L 91.045998 -63.836315 
L 90.364589 -63.832445 
L 89.683181 -63.831036 
L 89.001772 -63.831947 
L 88.320364 -63.834427 
L 87.638955 -63.837246 
L 86.957546 -63.839035 
L 86.276138 -63.838714 
L 85.594729 -63.835846 
L 84.913321 -63.830746 
L 84.231912 -63.824301 
L 83.550503 -63.817599 
L 82.869095 -63.811539 
L 82.187686 -63.806585 
L 81.506278 -63.802727 
L 80.824869 -63.799597 
L 80.143461 -63.79667 
L 79.462052 -63.793464 
L 78.780643 -63.789673 
L 78.099235 -63.785226 
L 77.417826 -63.780274 
L 76.736418 -63.775118 
L 76.055009 -63.770135 
L 75.3736 -63.765703 
L 74.692192 -63.76213 
L 74.010783 -63.759597 
L 73.329375 -63.758117 
L 72.647966 -63.757531 
L 71.966558 -63.757554 
L 71.285149 -63.757849 
L 70.60374 -63.758131 
L 69.922332 -63.758229 
L 69.240923 -63.758114 
L 68.559515 -63.757874 
L 67.878106 -63.757651 
L 67.196697 -63.757566 
L 66.515289 -63.757662 
L 65.83388 -63.757885 
L 65.152472 -63.758117 
L 64.471063 -63.758233 
L 63.789655 -63.758156 
L 63.108246 -63.757892 
L 62.426837 -63.757518 
L 61.745429 -63.757142 
L 61.06402 -63.756853 
L 60.382612 -63.756684 
L 59.701203 -63.756614 
L 59.019794 -63.756588 
L 58.338386 -63.756549 
L 57.656977 -63.756443 
L 56.975569 -63.756221 
L 56.29416 -63.755829 
L 55.612752 -63.755232 
L 54.931343 -63.754435 
L 54.249934 -63.7535 
L 53.568526 -63.752534 
z
" style="stroke: #21918c; stroke-width: 1.25"/>
    </defs>
    <g>
     <use xlink:href="#m2d7811106b" x="0" y="174.899688" style="fill: #21918c; fill-opacity: 0.7; stroke: #21918c; stroke-width: 1.25"/>
    </g>
   </g>
   <g id="line2d_7">
    <path d="M 7.2 111.15 
L 216.45 111.15 
" style="fill: none; stroke: #21918c; stroke-opacity: 0.9; stroke-linecap: round"/>
   </g>
   <g id="text_7">
    <!-- 6 -->
    <g style="fill: #21918c" transform="translate(7.2 110.30325) scale(0.12 -0.12)">
     <defs>
      <path id="DejaVuSans-Bold-36" d="M 2316 2303 
Q 2000 2303 1842 2098 
Q 1684 1894 1684 1484 
Q 1684 1075 1842 870 
Q 2000 666 2316 666 
Q 2634 666 2792 870 
Q 2950 1075 2950 1484 
Q 2950 1894 2792 2098 
Q 2634 2303 2316 2303 
z
M 3803 4544 
L 3803 3681 
Q 3506 3822 3243 3889 
Q 2981 3956 2731 3956 
Q 2194 3956 1894 3657 
Q 1594 3359 1544 2772 
Q 1750 2925 1990 3001 
Q 2231 3078 2516 3078 
Q 3231 3078 3670 2659 
Q 4109 2241 4109 1563 
Q 4109 813 3618 361 
Q 3128 -91 2303 -91 
Q 1394 -91 895 523 
Q 397 1138 397 2266 
Q 397 3422 980 4083 
Q 1563 4744 2578 4744 
Q 2900 4744 3203 4694 
Q 3506 4644 3803 4544 
z
" transform="scale(0.015625)"/>
     </defs>
     <use xlink:href="#DejaVuSans-Bold-36"/>
    </g>
   </g>
  </g>
  <g id="axes_8">
   <g id="patch_9">
    <path d="M 7.2 121.545 
L 216.45 121.545 
L 216.45 79.965 
L 7.2 79.965 
L 7.2 121.545 
z
" style="fill: none"/>
   </g>
   <g id="matplotlib.axis_15">
    <g id="xtick_36"/>
    <g id="xtick_37"/>
    <g id="xtick_38"/>
    <g id="xtick_39"/>
    <g id="xtick_40"/>
   </g>
   <g id="matplotlib.axis_16"/>
   <g id="PolyCollection_7">
    <defs>
     <path id="m2e7b8c410a" d="M 44.734554 -53.359365 
L 44.734554 -53.354688 
L 45.54965 -53.354688 
L 46.364746 -53.354688 
L 47.179842 -53.354688 
L 47.994938 -53.354688 
L 48.810033 -53.354688 
L 49.625129 -53.354688 
L 50.440225 -53.354688 
L 51.255321 -53.354688 
L 52.070417 -53.354688 
L 52.885513 -53.354688 
L 53.700609 -53.354688 
L 54.515705 -53.354688 
L 55.330801 -53.354688 
L 56.145896 -53.354688 
L 56.960992 -53.354688 
L 57.776088 -53.354688 
L 58.591184 -53.354688 
L 59.40628 -53.354688 
L 60.221376 -53.354688 
L 61.036472 -53.354688 
L 61.851568 -53.354688 
L 62.666664 -53.354688 
L 63.481759 -53.354688 
L 64.296855 -53.354688 
L 65.111951 -53.354688 
L 65.927047 -53.354688 
L 66.742143 -53.354688 
L 67.557239 -53.354688 
L 68.372335 -53.354688 
L 69.187431 -53.354688 
L 70.002527 -53.354688 
L 70.817623 -53.354688 
L 71.632718 -53.354688 
L 72.447814 -53.354688 
L 73.26291 -53.354688 
L 74.078006 -53.354688 
L 74.893102 -53.354688 
L 75.708198 -53.354688 
L 76.523294 -53.354688 
L 77.33839 -53.354688 
L 78.153486 -53.354688 
L 78.968581 -53.354688 
L 79.783677 -53.354688 
L 80.598773 -53.354688 
L 81.413869 -53.354688 
L 82.228965 -53.354688 
L 83.044061 -53.354688 
L 83.859157 -53.354688 
L 84.674253 -53.354688 
L 85.489349 -53.354688 
L 86.304444 -53.354688 
L 87.11954 -53.354688 
L 87.934636 -53.354688 
L 88.749732 -53.354688 
L 89.564828 -53.354688 
L 90.379924 -53.354688 
L 91.19502 -53.354688 
L 92.010116 -53.354688 
L 92.825212 -53.354688 
L 93.640307 -53.354688 
L 94.455403 -53.354688 
L 95.270499 -53.354688 
L 96.085595 -53.354688 
L 96.900691 -53.354688 
L 97.715787 -53.354688 
L 98.530883 -53.354688 
L 99.345979 -53.354688 
L 100.161075 -53.354688 
L 100.97617 -53.354688 
L 101.791266 -53.354688 
L 102.606362 -53.354688 
L 103.421458 -53.354688 
L 104.236554 -53.354688 
L 105.05165 -53.354688 
L 105.866746 -53.354688 
L 106.681842 -53.354688 
L 107.496938 -53.354688 
L 108.312034 -53.354688 
L 109.127129 -53.354688 
L 109.942225 -53.354688 
L 110.757321 -53.354688 
L 111.572417 -53.354688 
L 112.387513 -53.354688 
L 113.202609 -53.354688 
L 114.017705 -53.354688 
L 114.832801 -53.354688 
L 115.647897 -53.354688 
L 116.462992 -53.354688 
L 117.278088 -53.354688 
L 118.093184 -53.354688 
L 118.90828 -53.354688 
L 119.723376 -53.354688 
L 120.538472 -53.354688 
L 121.353568 -53.354688 
L 122.168664 -53.354688 
L 122.98376 -53.354688 
L 123.798855 -53.354688 
L 124.613951 -53.354688 
L 125.429047 -53.354688 
L 126.244143 -53.354688 
L 127.059239 -53.354688 
L 127.874335 -53.354688 
L 128.689431 -53.354688 
L 129.504527 -53.354688 
L 130.319623 -53.354688 
L 131.134718 -53.354688 
L 131.949814 -53.354688 
L 132.76491 -53.354688 
L 133.580006 -53.354688 
L 134.395102 -53.354688 
L 135.210198 -53.354688 
L 136.025294 -53.354688 
L 136.84039 -53.354688 
L 137.655486 -53.354688 
L 138.470581 -53.354688 
L 139.285677 -53.354688 
L 140.100773 -53.354688 
L 140.915869 -53.354688 
L 141.730965 -53.354688 
L 142.546061 -53.354688 
L 143.361157 -53.354688 
L 144.176253 -53.354688 
L 144.991349 -53.354688 
L 145.806445 -53.354688 
L 146.62154 -53.354688 
L 147.436636 -53.354688 
L 148.251732 -53.354688 
L 149.066828 -53.354688 
L 149.881924 -53.354688 
L 150.69702 -53.354688 
L 151.512116 -53.354688 
L 152.327212 -53.354688 
L 153.142308 -53.354688 
L 153.957403 -53.354688 
L 154.772499 -53.354688 
L 155.587595 -53.354688 
L 156.402691 -53.354688 
L 157.217787 -53.354688 
L 158.032883 -53.354688 
L 158.847979 -53.354688 
L 159.663075 -53.354688 
L 160.478171 -53.354688 
L 161.293266 -53.354688 
L 162.108362 -53.354688 
L 162.923458 -53.354688 
L 163.738554 -53.354688 
L 164.55365 -53.354688 
L 165.368746 -53.354688 
L 166.183842 -53.354688 
L 166.998938 -53.354688 
L 167.814034 -53.354688 
L 168.629129 -53.354688 
L 169.444225 -53.354688 
L 170.259321 -53.354688 
L 171.074417 -53.354688 
L 171.889513 -53.354688 
L 172.704609 -53.354688 
L 173.519705 -53.354688 
L 174.334801 -53.354688 
L 175.149897 -53.354688 
L 175.964992 -53.354688 
L 176.780088 -53.354688 
L 177.595184 -53.354688 
L 178.41028 -53.354688 
L 179.225376 -53.354688 
L 180.040472 -53.354688 
L 180.855568 -53.354688 
L 181.670664 -53.354688 
L 182.48576 -53.354688 
L 183.300856 -53.354688 
L 184.115951 -53.354688 
L 184.931047 -53.354688 
L 185.746143 -53.354688 
L 186.561239 -53.354688 
L 187.376335 -53.354688 
L 188.191431 -53.354688 
L 189.006527 -53.354688 
L 189.821623 -53.354688 
L 190.636719 -53.354688 
L 191.451814 -53.354688 
L 192.26691 -53.354688 
L 193.082006 -53.354688 
L 193.897102 -53.354688 
L 194.712198 -53.354688 
L 195.527294 -53.354688 
L 196.34239 -53.354688 
L 197.157486 -53.354688 
L 197.972582 -53.354688 
L 198.787677 -53.354688 
L 199.602773 -53.354688 
L 200.417869 -53.354688 
L 201.232965 -53.354688 
L 202.048061 -53.354688 
L 202.863157 -53.354688 
L 203.678253 -53.354688 
L 204.493349 -53.354688 
L 205.308445 -53.354688 
L 206.12354 -53.354688 
L 206.938636 -53.354688 
L 206.938636 -53.359365 
L 206.938636 -53.359365 
L 206.12354 -53.361896 
L 205.308445 -53.362132 
L 204.493349 -53.359839 
L 203.678253 -53.357077 
L 202.863157 -53.35543 
L 202.048061 -53.354842 
L 201.232965 -53.354709 
L 200.417869 -53.35469 
L 199.602773 -53.354688 
L 198.787677 -53.354688 
L 197.972582 -53.354688 
L 197.157486 -53.354699 
L 196.34239 -53.354779 
L 195.527294 -53.355181 
L 194.712198 -53.356468 
L 193.897102 -53.358993 
L 193.082006 -53.361666 
L 192.26691 -53.362267 
L 191.451814 -53.360212 
L 190.636719 -53.357452 
L 189.821623 -53.355987 
L 189.006527 -53.356464 
L 188.191431 -53.358712 
L 187.376335 -53.361448 
L 186.561239 -53.362345 
L 185.746143 -53.360501 
L 184.931047 -53.357646 
L 184.115951 -53.355696 
L 183.300856 -53.354918 
L 182.48576 -53.354723 
L 181.670664 -53.354691 
L 180.855568 -53.354688 
L 180.040472 -53.354693 
L 179.225376 -53.354739 
L 178.41028 -53.354998 
L 177.595184 -53.355952 
L 176.780088 -53.358156 
L 175.964992 -53.361186 
L 175.149897 -53.363515 
L 174.334801 -53.365204 
L 173.519705 -53.368968 
L 172.704609 -53.375327 
L 171.889513 -53.379659 
L 171.074417 -53.378126 
L 170.259321 -53.372465 
L 169.444225 -53.366224 
L 168.629129 -53.361467 
L 167.814034 -53.359734 
L 166.998938 -53.361714 
L 166.183842 -53.365745 
L 165.368746 -53.368471 
L 164.55365 -53.367897 
L 163.738554 -53.365834 
L 162.923458 -53.366634 
L 162.108362 -53.372691 
L 161.293266 -53.381627 
L 160.478171 -53.388777 
L 159.663075 -53.391583 
L 158.847979 -53.391138 
L 158.032883 -53.391239 
L 157.217787 -53.395837 
L 156.402691 -53.404795 
L 155.587595 -53.411667 
L 154.772499 -53.409422 
L 153.957403 -53.400131 
L 153.142308 -53.394606 
L 152.327212 -53.401505 
L 151.512116 -53.418231 
L 150.69702 -53.431916 
L 149.881924 -53.432733 
L 149.066828 -53.424189 
L 148.251732 -53.415542 
L 147.436636 -53.412576 
L 146.62154 -53.417763 
L 145.806445 -53.428491 
L 144.991349 -53.438426 
L 144.176253 -53.446691 
L 143.361157 -53.458269 
L 142.546061 -53.47512 
L 141.730965 -53.492891 
L 140.915869 -53.506587 
L 140.100773 -53.520149 
L 139.285677 -53.54408 
L 138.470581 -53.576669 
L 137.655486 -53.602118 
L 136.84039 -53.615234 
L 136.025294 -53.628058 
L 135.210198 -53.649913 
L 134.395102 -53.683806 
L 133.580006 -53.745155 
L 132.76491 -53.887906 
L 131.949814 -54.285036 
L 131.134718 -55.382814 
L 130.319623 -57.899606 
L 129.504527 -62.29366 
L 128.689431 -67.883811 
L 127.874335 -72.702431 
L 127.059239 -74.756863 
L 126.244143 -73.576489 
L 125.429047 -70.376975 
L 124.613951 -66.908829 
L 123.798855 -64.351417 
L 122.98376 -63.005383 
L 122.168664 -62.591205 
L 121.353568 -62.63679 
L 120.538472 -62.66783 
L 119.723376 -62.341095 
L 118.90828 -61.581696 
L 118.093184 -60.548121 
L 117.278088 -59.468971 
L 116.462992 -58.51642 
L 115.647897 -57.751117 
L 114.832801 -57.14971 
L 114.017705 -56.659219 
L 113.202609 -56.203321 
L 112.387513 -55.721104 
L 111.572417 -55.247024 
L 110.757321 -54.875155 
L 109.942225 -54.639121 
L 109.127129 -54.486544 
L 108.312034 -54.354652 
L 107.496938 -54.227955 
L 106.681842 -54.119909 
L 105.866746 -54.031681 
L 105.05165 -53.954257 
L 104.236554 -53.886847 
L 103.421458 -53.82796 
L 102.606362 -53.76883 
L 101.791266 -53.710994 
L 100.97617 -53.669613 
L 100.161075 -53.649471 
L 99.345979 -53.635334 
L 98.530883 -53.612935 
L 97.715787 -53.585733 
L 96.900691 -53.565269 
L 96.085595 -53.554197 
L 95.270499 -53.544216 
L 94.455403 -53.527163 
L 93.640307 -53.505557 
L 92.825212 -53.490872 
L 92.010116 -53.490044 
L 91.19502 -53.497784 
L 90.379924 -53.502718 
L 89.564828 -53.498701 
L 88.749732 -53.490344 
L 87.934636 -53.483382 
L 87.11954 -53.474382 
L 86.304444 -53.458564 
L 85.489349 -53.439091 
L 84.674253 -53.421511 
L 83.859157 -53.407333 
L 83.044061 -53.396895 
L 82.228965 -53.392133 
L 81.413869 -53.394253 
L 80.598773 -53.400634 
L 79.783677 -53.405098 
L 78.968581 -53.402395 
L 78.153486 -53.393919 
L 77.33839 -53.387467 
L 76.523294 -53.388081 
L 75.708198 -53.391852 
L 74.893102 -53.391463 
L 74.078006 -53.384637 
L 73.26291 -53.375768 
L 72.447814 -53.371127 
L 71.632718 -53.372594 
L 70.817623 -53.376454 
L 70.002527 -53.378691 
L 69.187431 -53.379157 
L 68.372335 -53.379258 
L 67.557239 -53.378667 
L 66.742143 -53.376606 
L 65.927047 -53.373173 
L 65.111951 -53.368457 
L 64.296855 -53.363206 
L 63.481759 -53.359534 
L 62.666664 -53.359078 
L 61.851568 -53.361012 
L 61.036472 -53.362424 
L 60.221376 -53.361245 
L 59.40628 -53.358427 
L 58.591184 -53.356117 
L 57.776088 -53.355054 
L 56.960992 -53.354751 
L 56.145896 -53.354699 
L 55.330801 -53.35473 
L 54.515705 -53.354951 
L 53.700609 -53.355803 
L 52.885513 -53.357855 
L 52.070417 -53.360718 
L 51.255321 -53.362383 
L 50.440225 -53.361285 
L 49.625129 -53.358609 
L 48.810033 -53.356876 
L 47.994938 -53.357449 
L 47.179842 -53.359904 
L 46.364746 -53.362139 
L 45.54965 -53.361896 
L 44.734554 -53.359365 
z
" style="stroke: #355f8d; stroke-width: 1.25"/>
    </defs>
    <g>
     <use xlink:href="#m2e7b8c410a" x="0" y="174.899688" style="fill: #355f8d; fill-opacity: 0.7; stroke: #355f8d; stroke-width: 1.25"/>
    </g>
   </g>
   <g id="line2d_8">
    <path d="M 7.2 121.545 
L 216.45 121.545 
" style="fill: none; stroke: #355f8d; stroke-opacity: 0.9; stroke-linecap: round"/>
   </g>
   <g id="text_8">
    <!-- 7 -->
    <g style="fill: #355f8d" transform="translate(7.2 120.69825) scale(0.12 -0.12)">
     <defs>
      <path id="DejaVuSans-Bold-37" d="M 428 4666 
L 3944 4666 
L 3944 3988 
L 2125 0 
L 953 0 
L 2675 3781 
L 428 3781 
L 428 4666 
z
" transform="scale(0.015625)"/>
     </defs>
     <use xlink:href="#DejaVuSans-Bold-37"/>
    </g>
   </g>
  </g>
  <g id="axes_9">
   <g id="patch_10">
    <path d="M 7.2 131.94 
L 216.45 131.94 
L 216.45 90.36 
L 7.2 90.36 
L 7.2 131.94 
z
" style="fill: none"/>
   </g>
   <g id="matplotlib.axis_17">
    <g id="xtick_41">
     <g id="text_9">
      <!-- 2 -->
      <g style="fill: #838383" transform="translate(15.632511 149.798281) scale(0.11 -0.11)">
       <defs>
        <path id="DejaVuSans-2212" d="M 678 2272 
L 4684 2272 
L 4684 1741 
L 678 1741 
L 678 2272 
z
" transform="scale(0.015625)"/>
        <path id="DejaVuSans-32" d="M 1228 531 
L 3431 531 
L 3431 0 
L 469 0 
L 469 531 
Q 828 903 1448 1529 
Q 2069 2156 2228 2338 
Q 2531 2678 2651 2914 
Q 2772 3150 2772 3378 
Q 2772 3750 2511 3984 
Q 2250 4219 1831 4219 
Q 1534 4219 1204 4116 
Q 875 4013 500 3803 
L 500 4441 
Q 881 4594 1212 4672 
Q 1544 4750 1819 4750 
Q 2544 4750 2975 4387 
Q 3406 4025 3406 3419 
Q 3406 3131 3298 2873 
Q 3191 2616 2906 2266 
Q 2828 2175 2409 1742 
Q 1991 1309 1228 531 
z
" transform="scale(0.015625)"/>
       </defs>
       <use xlink:href="#DejaVuSans-2212"/>
       <use xlink:href="#DejaVuSans-32" x="83.789062"/>
      </g>
     </g>
    </g>
    <g id="xtick_42">
     <g id="text_10">
      <!-- 1 -->
      <g style="fill: #838383" transform="translate(61.032655 149.798281) scale(0.11 -0.11)">
       <defs>
        <path id="DejaVuSans-31" d="M 794 531 
L 1825 531 
L 1825 4091 
L 703 3866 
L 703 4441 
L 1819 4666 
L 2450 4666 
L 2450 531 
L 3481 531 
L 3481 0 
L 794 0 
L 794 531 
z
" transform="scale(0.015625)"/>
       </defs>
       <use xlink:href="#DejaVuSans-2212"/>
       <use xlink:href="#DejaVuSans-31" x="83.789062"/>
      </g>
     </g>
    </g>
    <g id="xtick_43">
     <g id="text_11">
      <!-- 0 -->
      <g style="fill: #838383" transform="translate(111.041627 149.798281) scale(0.11 -0.11)">
       <defs>
        <path id="DejaVuSans-30" d="M 2034 4250 
Q 1547 4250 1301 3770 
Q 1056 3291 1056 2328 
Q 1056 1369 1301 889 
Q 1547 409 2034 409 
Q 2525 409 2770 889 
Q 3016 1369 3016 2328 
Q 3016 3291 2770 3770 
Q 2525 4250 2034 4250 
z
M 2034 4750 
Q 2819 4750 3233 4129 
Q 3647 3509 3647 2328 
Q 3647 1150 3233 529 
Q 2819 -91 2034 -91 
Q 1250 -91 836 529 
Q 422 1150 422 2328 
Q 422 3509 836 4129 
Q 1250 4750 2034 4750 
z
" transform="scale(0.015625)"/>
       </defs>
       <use xlink:href="#DejaVuSans-30"/>
      </g>
     </g>
    </g>
    <g id="xtick_44">
     <g id="text_12">
      <!-- 1 -->
      <g style="fill: #838383" transform="translate(156.441772 149.798281) scale(0.11 -0.11)">
       <use xlink:href="#DejaVuSans-31"/>
      </g>
     </g>
    </g>
    <g id="xtick_45">
     <g id="text_13">
      <!-- 2 -->
      <g style="fill: #838383" transform="translate(201.841916 149.798281) scale(0.11 -0.11)">
       <use xlink:href="#DejaVuSans-32"/>
      </g>
     </g>
    </g>
    <g id="text_14">
     <!-- logdet -->
     <g style="fill: #262626" transform="translate(92.824688 165.204063) scale(0.12 -0.12)">
      <defs>
       <path id="DejaVuSans-6c" d="M 603 4863 
L 1178 4863 
L 1178 0 
L 603 0 
L 603 4863 
z
" transform="scale(0.015625)"/>
       <path id="DejaVuSans-6f" d="M 1959 3097 
Q 1497 3097 1228 2736 
Q 959 2375 959 1747 
Q 959 1119 1226 758 
Q 1494 397 1959 397 
Q 2419 397 2687 759 
Q 2956 1122 2956 1747 
Q 2956 2369 2687 2733 
Q 2419 3097 1959 3097 
z
M 1959 3584 
Q 2709 3584 3137 3096 
Q 3566 2609 3566 1747 
Q 3566 888 3137 398 
Q 2709 -91 1959 -91 
Q 1206 -91 779 398 
Q 353 888 353 1747 
Q 353 2609 779 3096 
Q 1206 3584 1959 3584 
z
" transform="scale(0.015625)"/>
       <path id="DejaVuSans-67" d="M 2906 1791 
Q 2906 2416 2648 2759 
Q 2391 3103 1925 3103 
Q 1463 3103 1205 2759 
Q 947 2416 947 1791 
Q 947 1169 1205 825 
Q 1463 481 1925 481 
Q 2391 481 2648 825 
Q 2906 1169 2906 1791 
z
M 3481 434 
Q 3481 -459 3084 -895 
Q 2688 -1331 1869 -1331 
Q 1566 -1331 1297 -1286 
Q 1028 -1241 775 -1147 
L 775 -588 
Q 1028 -725 1275 -790 
Q 1522 -856 1778 -856 
Q 2344 -856 2625 -561 
Q 2906 -266 2906 331 
L 2906 616 
Q 2728 306 2450 153 
Q 2172 0 1784 0 
Q 1141 0 747 490 
Q 353 981 353 1791 
Q 353 2603 747 3093 
Q 1141 3584 1784 3584 
Q 2172 3584 2450 3431 
Q 2728 3278 2906 2969 
L 2906 3500 
L 3481 3500 
L 3481 434 
z
" transform="scale(0.015625)"/>
       <path id="DejaVuSans-64" d="M 2906 2969 
L 2906 4863 
L 3481 4863 
L 3481 0 
L 2906 0 
L 2906 525 
Q 2725 213 2448 61 
Q 2172 -91 1784 -91 
Q 1150 -91 751 415 
Q 353 922 353 1747 
Q 353 2572 751 3078 
Q 1150 3584 1784 3584 
Q 2172 3584 2448 3432 
Q 2725 3281 2906 2969 
z
M 947 1747 
Q 947 1113 1208 752 
Q 1469 391 1925 391 
Q 2381 391 2643 752 
Q 2906 1113 2906 1747 
Q 2906 2381 2643 2742 
Q 2381 3103 1925 3103 
Q 1469 3103 1208 2742 
Q 947 2381 947 1747 
z
" transform="scale(0.015625)"/>
       <path id="DejaVuSans-65" d="M 3597 1894 
L 3597 1613 
L 953 1613 
Q 991 1019 1311 708 
Q 1631 397 2203 397 
Q 2534 397 2845 478 
Q 3156 559 3463 722 
L 3463 178 
Q 3153 47 2828 -22 
Q 2503 -91 2169 -91 
Q 1331 -91 842 396 
Q 353 884 353 1716 
Q 353 2575 817 3079 
Q 1281 3584 2069 3584 
Q 2775 3584 3186 3129 
Q 3597 2675 3597 1894 
z
M 3022 2063 
Q 3016 2534 2758 2815 
Q 2500 3097 2075 3097 
Q 1594 3097 1305 2825 
Q 1016 2553 972 2059 
L 3022 2063 
z
" transform="scale(0.015625)"/>
       <path id="DejaVuSans-74" d="M 1172 4494 
L 1172 3500 
L 2356 3500 
L 2356 3053 
L 1172 3053 
L 1172 1153 
Q 1172 725 1289 603 
Q 1406 481 1766 481 
L 2356 481 
L 2356 0 
L 1766 0 
Q 1100 0 847 248 
Q 594 497 594 1153 
L 594 3053 
L 172 3053 
L 172 3500 
L 594 3500 
L 594 4494 
L 1172 4494 
z
" transform="scale(0.015625)"/>
      </defs>
      <use xlink:href="#DejaVuSans-6c"/>
      <use xlink:href="#DejaVuSans-6f" x="27.783203"/>
      <use xlink:href="#DejaVuSans-67" x="88.964844"/>
      <use xlink:href="#DejaVuSans-64" x="152.441406"/>
      <use xlink:href="#DejaVuSans-65" x="215.917969"/>
      <use xlink:href="#DejaVuSans-74" x="277.441406"/>
     </g>
    </g>
   </g>
   <g id="matplotlib.axis_18"/>
   <g id="PolyCollection_8">
    <defs>
     <path id="m9b8cd5c201" d="M 16.711364 -42.965038 
L 16.711364 -42.959688 
L 17.617348 -42.959688 
L 18.523332 -42.959688 
L 19.429316 -42.959688 
L 20.3353 -42.959688 
L 21.241284 -42.959688 
L 22.147268 -42.959688 
L 23.053252 -42.959688 
L 23.959237 -42.959688 
L 24.865221 -42.959688 
L 25.771205 -42.959688 
L 26.677189 -42.959688 
L 27.583173 -42.959688 
L 28.489157 -42.959688 
L 29.395141 -42.959688 
L 30.301125 -42.959688 
L 31.20711 -42.959688 
L 32.113094 -42.959688 
L 33.019078 -42.959688 
L 33.925062 -42.959688 
L 34.831046 -42.959688 
L 35.73703 -42.959688 
L 36.643014 -42.959688 
L 37.548998 -42.959688 
L 38.454983 -42.959688 
L 39.360967 -42.959688 
L 40.266951 -42.959688 
L 41.172935 -42.959688 
L 42.078919 -42.959688 
L 42.984903 -42.959688 
L 43.890887 -42.959688 
L 44.796871 -42.959688 
L 45.702856 -42.959688 
L 46.60884 -42.959688 
L 47.514824 -42.959688 
L 48.420808 -42.959688 
L 49.326792 -42.959688 
L 50.232776 -42.959688 
L 51.13876 -42.959688 
L 52.044744 -42.959688 
L 52.950729 -42.959688 
L 53.856713 -42.959688 
L 54.762697 -42.959688 
L 55.668681 -42.959688 
L 56.574665 -42.959688 
L 57.480649 -42.959688 
L 58.386633 -42.959688 
L 59.292617 -42.959688 
L 60.198602 -42.959688 
L 61.104586 -42.959688 
L 62.01057 -42.959688 
L 62.916554 -42.959688 
L 63.822538 -42.959688 
L 64.728522 -42.959688 
L 65.634506 -42.959688 
L 66.54049 -42.959688 
L 67.446474 -42.959688 
L 68.352459 -42.959688 
L 69.258443 -42.959688 
L 70.164427 -42.959688 
L 71.070411 -42.959688 
L 71.976395 -42.959688 
L 72.882379 -42.959688 
L 73.788363 -42.959688 
L 74.694347 -42.959688 
L 75.600332 -42.959688 
L 76.506316 -42.959688 
L 77.4123 -42.959688 
L 78.318284 -42.959688 
L 79.224268 -42.959688 
L 80.130252 -42.959688 
L 81.036236 -42.959688 
L 81.94222 -42.959688 
L 82.848205 -42.959688 
L 83.754189 -42.959688 
L 84.660173 -42.959688 
L 85.566157 -42.959688 
L 86.472141 -42.959688 
L 87.378125 -42.959688 
L 88.284109 -42.959688 
L 89.190093 -42.959688 
L 90.096078 -42.959688 
L 91.002062 -42.959688 
L 91.908046 -42.959688 
L 92.81403 -42.959688 
L 93.720014 -42.959688 
L 94.625998 -42.959688 
L 95.531982 -42.959688 
L 96.437966 -42.959688 
L 97.343951 -42.959688 
L 98.249935 -42.959688 
L 99.155919 -42.959688 
L 100.061903 -42.959688 
L 100.967887 -42.959688 
L 101.873871 -42.959688 
L 102.779855 -42.959688 
L 103.685839 -42.959688 
L 104.591824 -42.959688 
L 105.497808 -42.959688 
L 106.403792 -42.959688 
L 107.309776 -42.959688 
L 108.21576 -42.959688 
L 109.121744 -42.959688 
L 110.027728 -42.959688 
L 110.933712 -42.959688 
L 111.839696 -42.959688 
L 112.745681 -42.959688 
L 113.651665 -42.959688 
L 114.557649 -42.959688 
L 115.463633 -42.959688 
L 116.369617 -42.959688 
L 117.275601 -42.959688 
L 118.181585 -42.959688 
L 119.087569 -42.959688 
L 119.993554 -42.959688 
L 120.899538 -42.959688 
L 121.805522 -42.959688 
L 122.711506 -42.959688 
L 123.61749 -42.959688 
L 124.523474 -42.959688 
L 125.429458 -42.959688 
L 126.335442 -42.959688 
L 127.241427 -42.959688 
L 128.147411 -42.959688 
L 129.053395 -42.959688 
L 129.959379 -42.959688 
L 130.865363 -42.959688 
L 131.771347 -42.959688 
L 132.677331 -42.959688 
L 133.583315 -42.959688 
L 134.4893 -42.959688 
L 135.395284 -42.959688 
L 136.301268 -42.959688 
L 137.207252 -42.959688 
L 138.113236 -42.959688 
L 139.01922 -42.959688 
L 139.925204 -42.959688 
L 140.831188 -42.959688 
L 141.737173 -42.959688 
L 142.643157 -42.959688 
L 143.549141 -42.959688 
L 144.455125 -42.959688 
L 145.361109 -42.959688 
L 146.267093 -42.959688 
L 147.173077 -42.959688 
L 148.079061 -42.959688 
L 148.985045 -42.959688 
L 149.89103 -42.959688 
L 150.797014 -42.959688 
L 151.702998 -42.959688 
L 152.608982 -42.959688 
L 153.514966 -42.959688 
L 154.42095 -42.959688 
L 155.326934 -42.959688 
L 156.232918 -42.959688 
L 157.138903 -42.959688 
L 158.044887 -42.959688 
L 158.950871 -42.959688 
L 159.856855 -42.959688 
L 160.762839 -42.959688 
L 161.668823 -42.959688 
L 162.574807 -42.959688 
L 163.480791 -42.959688 
L 164.386776 -42.959688 
L 165.29276 -42.959688 
L 166.198744 -42.959688 
L 167.104728 -42.959688 
L 168.010712 -42.959688 
L 168.916696 -42.959688 
L 169.82268 -42.959688 
L 170.728664 -42.959688 
L 171.634649 -42.959688 
L 172.540633 -42.959688 
L 173.446617 -42.959688 
L 174.352601 -42.959688 
L 175.258585 -42.959688 
L 176.164569 -42.959688 
L 177.070553 -42.959688 
L 177.976537 -42.959688 
L 178.882522 -42.959688 
L 179.788506 -42.959688 
L 180.69449 -42.959688 
L 181.600474 -42.959688 
L 182.506458 -42.959688 
L 183.412442 -42.959688 
L 184.318426 -42.959688 
L 185.22441 -42.959688 
L 186.130395 -42.959688 
L 187.036379 -42.959688 
L 187.942363 -42.959688 
L 188.848347 -42.959688 
L 189.754331 -42.959688 
L 190.660315 -42.959688 
L 191.566299 -42.959688 
L 192.472283 -42.959688 
L 193.378267 -42.959688 
L 194.284252 -42.959688 
L 195.190236 -42.959688 
L 196.09622 -42.959688 
L 197.002204 -42.959688 
L 197.002204 -42.965038 
L 197.002204 -42.965038 
L 196.09622 -42.968343 
L 195.190236 -42.967016 
L 194.284252 -42.962935 
L 193.378267 -42.960441 
L 192.472283 -42.959779 
L 191.566299 -42.959693 
L 190.660315 -42.959688 
L 189.754331 -42.959688 
L 188.848347 -42.959688 
L 187.942363 -42.959688 
L 187.036379 -42.959688 
L 186.130395 -42.959688 
L 185.22441 -42.959688 
L 184.318426 -42.959688 
L 183.412442 -42.959688 
L 182.506458 -42.959688 
L 181.600474 -42.959688 
L 180.69449 -42.959689 
L 179.788506 -42.959712 
L 178.882522 -42.960011 
L 177.976537 -42.961921 
L 177.070553 -42.96786 
L 176.164569 -42.975558 
L 175.258585 -42.976047 
L 174.352601 -42.96864 
L 173.446617 -42.962287 
L 172.540633 -42.960102 
L 171.634649 -42.959934 
L 170.728664 -42.961469 
L 169.82268 -42.967774 
L 168.916696 -42.980281 
L 168.010712 -42.990151 
L 167.104728 -42.986966 
L 166.198744 -42.974856 
L 165.29276 -42.964917 
L 164.386776 -42.961238 
L 163.480791 -42.962405 
L 162.574807 -42.967052 
L 161.668823 -42.972465 
L 160.762839 -42.976098 
L 159.856855 -42.977691 
L 158.950871 -42.977004 
L 158.044887 -42.977274 
L 157.138903 -42.980997 
L 156.232918 -42.985439 
L 155.326934 -42.993343 
L 154.42095 -43.003585 
L 153.514966 -43.004938 
L 152.608982 -42.995788 
L 151.702998 -42.989537 
L 150.797014 -42.999379 
L 149.89103 -43.019677 
L 148.985045 -43.029653 
L 148.079061 -43.025665 
L 147.173077 -43.019061 
L 146.267093 -43.016493 
L 145.361109 -43.022794 
L 144.455125 -43.038054 
L 143.549141 -43.063716 
L 142.643157 -43.088761 
L 141.737173 -43.089343 
L 140.831188 -43.07237 
L 139.925204 -43.063231 
L 139.01922 -43.08 
L 138.113236 -43.135046 
L 137.207252 -43.202542 
L 136.301268 -43.235245 
L 135.395284 -43.236557 
L 134.4893 -43.241427 
L 133.583315 -43.253375 
L 132.677331 -43.274458 
L 131.771347 -43.31013 
L 130.865363 -43.347738 
L 129.959379 -43.375088 
L 129.053395 -43.405442 
L 128.147411 -43.467013 
L 127.241427 -43.573629 
L 126.335442 -43.70299 
L 125.429458 -43.811189 
L 124.523474 -43.905318 
L 123.61749 -44.056381 
L 122.711506 -44.29845 
L 121.805522 -44.578584 
L 120.899538 -44.869015 
L 119.993554 -45.295008 
L 119.087569 -46.099461 
L 118.181585 -47.92313 
L 117.275601 -52.616311 
L 116.369617 -62.553002 
L 115.463633 -75.714274 
L 114.557649 -82.559688 
L 113.651665 -76.281013 
L 112.745681 -63.117977 
L 111.839696 -52.988524 
L 110.933712 -48.287209 
L 110.027728 -46.615783 
L 109.121744 -45.928435 
L 108.21576 -45.423922 
L 107.309776 -44.952292 
L 106.403792 -44.568591 
L 105.497808 -44.298069 
L 104.591824 -44.075901 
L 103.685839 -43.882468 
L 102.779855 -43.755036 
L 101.873871 -43.677799 
L 100.967887 -43.597006 
L 100.061903 -43.521726 
L 99.155919 -43.487036 
L 98.249935 -43.466046 
L 97.343951 -43.400313 
L 96.437966 -43.306676 
L 95.531982 -43.252757 
L 94.625998 -43.242815 
L 93.720014 -43.228463 
L 92.81403 -43.187093 
L 91.908046 -43.135824 
L 91.002062 -43.107845 
L 90.096078 -43.107694 
L 89.190093 -43.105746 
L 88.284109 -43.095382 
L 87.378125 -43.095258 
L 86.472141 -43.095444 
L 85.566157 -43.075111 
L 84.660173 -43.047094 
L 83.754189 -43.027692 
L 82.848205 -43.016225 
L 81.94222 -43.01556 
L 81.036236 -43.033704 
L 80.130252 -43.056548 
L 79.224268 -43.05505 
L 78.318284 -43.036905 
L 77.4123 -43.027911 
L 76.506316 -43.022989 
L 75.600332 -43.012296 
L 74.694347 -43.002798 
L 73.788363 -42.996418 
L 72.882379 -42.992703 
L 71.976395 -42.994904 
L 71.070411 -42.998403 
L 70.164427 -42.996896 
L 69.258443 -42.991245 
L 68.352459 -42.989529 
L 67.446474 -42.993662 
L 66.54049 -42.991782 
L 65.634506 -42.982965 
L 64.728522 -42.979313 
L 63.822538 -42.978939 
L 62.916554 -42.977022 
L 62.01057 -42.978134 
L 61.104586 -42.978457 
L 60.198602 -42.973802 
L 59.292617 -42.970584 
L 58.386633 -42.96889 
L 57.480649 -42.964968 
L 56.574665 -42.961355 
L 55.668681 -42.960031 
L 54.762697 -42.960314 
L 53.856713 -42.9625 
L 52.950729 -42.966555 
L 52.044744 -42.968469 
L 51.13876 -42.965565 
L 50.232776 -42.961747 
L 49.326792 -42.960065 
L 48.420808 -42.959724 
L 47.514824 -42.959695 
L 46.60884 -42.959782 
L 45.702856 -42.960456 
L 44.796871 -42.962978 
L 43.890887 -42.967057 
L 42.984903 -42.968327 
L 42.078919 -42.964989 
L 41.172935 -42.96139 
L 40.266951 -42.959974 
L 39.360967 -42.959713 
L 38.454983 -42.959689 
L 37.548998 -42.959688 
L 36.643014 -42.959688 
L 35.73703 -42.959688 
L 34.831046 -42.959688 
L 33.925062 -42.959688 
L 33.019078 -42.959688 
L 32.113094 -42.959688 
L 31.20711 -42.959688 
L 30.301125 -42.959688 
L 29.395141 -42.959688 
L 28.489157 -42.959688 
L 27.583173 -42.959688 
L 26.677189 -42.959688 
L 25.771205 -42.959688 
L 24.865221 -42.959688 
L 23.959237 -42.959688 
L 23.053252 -42.959688 
L 22.147268 -42.959693 
L 21.241284 -42.959779 
L 20.3353 -42.960441 
L 19.429316 -42.962935 
L 18.523332 -42.967016 
L 17.617348 -42.968343 
L 16.711364 -42.965038 
z
" style="stroke: #482475; stroke-width: 1.25"/>
    </defs>
    <g>
     <use xlink:href="#m9b8cd5c201" x="0" y="174.899688" style="fill: #482475; fill-opacity: 0.7; stroke: #482475; stroke-width: 1.25"/>
    </g>
   </g>
   <g id="line2d_9">
    <path d="M 7.2 131.94 
L 216.45 131.94 
" style="fill: none; stroke: #482475; stroke-opacity: 0.9; stroke-linecap: round"/>
   </g>
   <g id="text_15">
    <!-- 8 -->
    <g style="fill: #482475" transform="translate(7.2 131.09325) scale(0.12 -0.12)">
     <defs>
      <path id="DejaVuSans-Bold-38" d="M 2228 2088 
Q 1891 2088 1709 1903 
Q 1528 1719 1528 1375 
Q 1528 1031 1709 848 
Q 1891 666 2228 666 
Q 2563 666 2741 848 
Q 2919 1031 2919 1375 
Q 2919 1722 2741 1905 
Q 2563 2088 2228 2088 
z
M 1350 2484 
Q 925 2613 709 2878 
Q 494 3144 494 3541 
Q 494 4131 934 4440 
Q 1375 4750 2228 4750 
Q 3075 4750 3515 4442 
Q 3956 4134 3956 3541 
Q 3956 3144 3739 2878 
Q 3522 2613 3097 2484 
Q 3572 2353 3814 2058 
Q 4056 1763 4056 1313 
Q 4056 619 3595 264 
Q 3134 -91 2228 -91 
Q 1319 -91 855 264 
Q 391 619 391 1313 
Q 391 1763 633 2058 
Q 875 2353 1350 2484 
z
M 1631 3419 
Q 1631 3141 1786 2991 
Q 1941 2841 2228 2841 
Q 2509 2841 2662 2991 
Q 2816 3141 2816 3419 
Q 2816 3697 2662 3845 
Q 2509 3994 2228 3994 
Q 1941 3994 1786 3844 
Q 1631 3694 1631 3419 
z
" transform="scale(0.015625)"/>
     </defs>
     <use xlink:href="#DejaVuSans-Bold-38"/>
    </g>
   </g>
  </g>
 </g>
</svg>
