<?xml version="1.0" encoding="utf-8" standalone="no"?>
<!DOCTYPE svg PUBLIC "-//W3C//DTD SVG 1.1//EN"
  "http://www.w3.org/Graphics/SVG/1.1/DTD/svg11.dtd">
<svg xmlns:xlink="http://www.w3.org/1999/xlink" width="331.270127pt" height="234.534474pt" viewBox="0 0 331.270127 234.534474" xmlns="http://www.w3.org/2000/svg" version="1.1">
 <metadata>
  <rdf:RDF xmlns:dc="http://purl.org/dc/elements/1.1/" xmlns:cc="http://creativecommons.org/ns#" xmlns:rdf="http://www.w3.org/1999/02/22-rdf-syntax-ns#">
   <cc:Work>
    <dc:type rdf:resource="http://purl.org/dc/dcmitype/StillImage"/>
    <dc:date>2023-12-05T11:48:56.822623</dc:date>
    <dc:format>image/svg+xml</dc:format>
    <dc:creator>
     <cc:Agent>
      <dc:title>Matplotlib v3.8.2, https://matplotlib.org/</dc:title>
     </cc:Agent>
    </dc:creator>
   </cc:Work>
  </rdf:RDF>
 </metadata>
 <defs>
  <style type="text/css">*{stroke-linejoin: round; stroke-linecap: butt}</style>
 </defs>
 <g id="figure_1">
  <g id="patch_1">
   <path d="M 0 234.534474 
L 331.270127 234.534474 
L 331.270127 0 
L 0 0 
L 0 234.534474 
z
" style="fill: none"/>
  </g>
  <g id="axes_1">
   <g id="patch_2">
    <path d="M 55.4625 192.009865 
L 321.83859 192.009865 
L 321.83859 28.442513 
L 55.4625 28.442513 
L 55.4625 192.009865 
z
" style="fill: none"/>
   </g>
   <g id="matplotlib.axis_1">
    <g id="xtick_1">
     <g id="text_1">
      <!-- 0 -->
      <g style="fill: #838383" transform="translate(63.196285 205.957716) scale(0.1375 -0.1375)">
       <defs>
        <path id="DejaVuSans-30" d="M 2034 4250 
Q 1547 4250 1301 3770 
Q 1056 3291 1056 2328 
Q 1056 1369 1301 889 
Q 1547 409 2034 409 
Q 2525 409 2770 889 
Q 3016 1369 3016 2328 
Q 3016 3291 2770 3770 
Q 2525 4250 2034 4250 
z
M 2034 4750 
Q 2819 4750 3233 4129 
Q 3647 3509 3647 2328 
Q 3647 1150 3233 529 
Q 2819 -91 2034 -91 
Q 1250 -91 836 529 
Q 422 1150 422 2328 
Q 422 3509 836 4129 
Q 1250 4750 2034 4750 
z
" transform="scale(0.015625)"/>
       </defs>
       <use xlink:href="#DejaVuSans-30"/>
      </g>
     </g>
    </g>
    <g id="xtick_2">
     <g id="text_2">
      <!-- 50 -->
      <g style="fill: #838383" transform="translate(119.666308 205.957716) scale(0.1375 -0.1375)">
       <defs>
        <path id="DejaVuSans-35" d="M 691 4666 
L 3169 4666 
L 3169 4134 
L 1269 4134 
L 1269 2991 
Q 1406 3038 1543 3061 
Q 1681 3084 1819 3084 
Q 2600 3084 3056 2656 
Q 3513 2228 3513 1497 
Q 3513 744 3044 326 
Q 2575 -91 1722 -91 
Q 1428 -91 1123 -41 
Q 819 9 494 109 
L 494 744 
Q 775 591 1075 516 
Q 1375 441 1709 441 
Q 2250 441 2565 725 
Q 2881 1009 2881 1497 
Q 2881 1984 2565 2268 
Q 2250 2553 1709 2553 
Q 1456 2553 1204 2497 
Q 953 2441 691 2322 
L 691 4666 
z
" transform="scale(0.015625)"/>
       </defs>
       <use xlink:href="#DejaVuSans-35"/>
       <use xlink:href="#DejaVuSans-30" x="63.623047"/>
      </g>
     </g>
    </g>
    <g id="xtick_3">
     <g id="text_3">
      <!-- 100 -->
      <g style="fill: #838383" transform="translate(176.136331 205.957716) scale(0.1375 -0.1375)">
       <defs>
        <path id="DejaVuSans-31" d="M 794 531 
L 1825 531 
L 1825 4091 
L 703 3866 
L 703 4441 
L 1819 4666 
L 2450 4666 
L 2450 531 
L 3481 531 
L 3481 0 
L 794 0 
L 794 531 
z
" transform="scale(0.015625)"/>
       </defs>
       <use xlink:href="#DejaVuSans-31"/>
       <use xlink:href="#DejaVuSans-30" x="63.623047"/>
       <use xlink:href="#DejaVuSans-30" x="127.246094"/>
      </g>
     </g>
    </g>
    <g id="xtick_4">
     <g id="text_4">
      <!-- 150 -->
      <g style="fill: #838383" transform="translate(236.980573 205.957716) scale(0.1375 -0.1375)">
       <use xlink:href="#DejaVuSans-31"/>
       <use xlink:href="#DejaVuSans-35" x="63.623047"/>
       <use xlink:href="#DejaVuSans-30" x="127.246094"/>
      </g>
     </g>
    </g>
    <g id="xtick_5">
     <g id="text_5">
      <!-- 200 -->
      <g style="fill: #838383" transform="translate(297.824814 205.957716) scale(0.1375 -0.1375)">
       <defs>
        <path id="DejaVuSans-32" d="M 1228 531 
L 3431 531 
L 3431 0 
L 469 0 
L 469 531 
Q 828 903 1448 1529 
Q 2069 2156 2228 2338 
Q 2531 2678 2651 2914 
Q 2772 3150 2772 3378 
Q 2772 3750 2511 3984 
Q 2250 4219 1831 4219 
Q 1534 4219 1204 4116 
Q 875 4013 500 3803 
L 500 4441 
Q 881 4594 1212 4672 
Q 1544 4750 1819 4750 
Q 2544 4750 2975 4387 
Q 3406 4025 3406 3419 
Q 3406 3131 3298 2873 
Q 3191 2616 2906 2266 
Q 2828 2175 2409 1742 
Q 1991 1309 1228 531 
z
" transform="scale(0.015625)"/>
       </defs>
       <use xlink:href="#DejaVuSans-32"/>
       <use xlink:href="#DejaVuSans-30" x="63.623047"/>
       <use xlink:href="#DejaVuSans-30" x="127.246094"/>
      </g>
     </g>
    </g>
    <g id="text_6">
     <!-- draw -->
     <g style="fill: #838383" transform="translate(170.076326 224.214943) scale(0.15 -0.15)">
      <defs>
       <path id="DejaVuSans-64" d="M 2906 2969 
L 2906 4863 
L 3481 4863 
L 3481 0 
L 2906 0 
L 2906 525 
Q 2725 213 2448 61 
Q 2172 -91 1784 -91 
Q 1150 -91 751 415 
Q 353 922 353 1747 
Q 353 2572 751 3078 
Q 1150 3584 1784 3584 
Q 2172 3584 2448 3432 
Q 2725 3281 2906 2969 
z
M 947 1747 
Q 947 1113 1208 752 
Q 1469 391 1925 391 
Q 2381 391 2643 752 
Q 2906 1113 2906 1747 
Q 2906 2381 2643 2742 
Q 2381 3103 1925 3103 
Q 1469 3103 1208 2742 
Q 947 2381 947 1747 
z
" transform="scale(0.015625)"/>
       <path id="DejaVuSans-72" d="M 2631 2963 
Q 2534 3019 2420 3045 
Q 2306 3072 2169 3072 
Q 1681 3072 1420 2755 
Q 1159 2438 1159 1844 
L 1159 0 
L 581 0 
L 581 3500 
L 1159 3500 
L 1159 2956 
Q 1341 3275 1631 3429 
Q 1922 3584 2338 3584 
Q 2397 3584 2469 3576 
Q 2541 3569 2628 3553 
L 2631 2963 
z
" transform="scale(0.015625)"/>
       <path id="DejaVuSans-61" d="M 2194 1759 
Q 1497 1759 1228 1600 
Q 959 1441 959 1056 
Q 959 750 1161 570 
Q 1363 391 1709 391 
Q 2188 391 2477 730 
Q 2766 1069 2766 1631 
L 2766 1759 
L 2194 1759 
z
M 3341 1997 
L 3341 0 
L 2766 0 
L 2766 531 
Q 2569 213 2275 61 
Q 1981 -91 1556 -91 
Q 1019 -91 701 211 
Q 384 513 384 1019 
Q 384 1609 779 1909 
Q 1175 2209 1959 2209 
L 2766 2209 
L 2766 2266 
Q 2766 2663 2505 2880 
Q 2244 3097 1772 3097 
Q 1472 3097 1187 3025 
Q 903 2953 641 2809 
L 641 3341 
Q 956 3463 1253 3523 
Q 1550 3584 1831 3584 
Q 2591 3584 2966 3190 
Q 3341 2797 3341 1997 
z
" transform="scale(0.015625)"/>
       <path id="DejaVuSans-77" d="M 269 3500 
L 844 3500 
L 1563 769 
L 2278 3500 
L 2956 3500 
L 3675 769 
L 4391 3500 
L 4966 3500 
L 4050 0 
L 3372 0 
L 2619 2869 
L 1863 0 
L 1184 0 
L 269 3500 
z
" transform="scale(0.015625)"/>
      </defs>
      <use xlink:href="#DejaVuSans-64"/>
      <use xlink:href="#DejaVuSans-72" x="63.476562"/>
      <use xlink:href="#DejaVuSans-61" x="104.589844"/>
      <use xlink:href="#DejaVuSans-77" x="165.869141"/>
     </g>
    </g>
   </g>
   <g id="matplotlib.axis_2">
    <g id="ytick_1">
     <g id="text_7">
      <!-- 390 -->
      <g style="fill: #838383" transform="translate(25.717188 191.620299) scale(0.1375 -0.1375)">
       <defs>
        <path id="DejaVuSans-33" d="M 2597 2516 
Q 3050 2419 3304 2112 
Q 3559 1806 3559 1356 
Q 3559 666 3084 287 
Q 2609 -91 1734 -91 
Q 1441 -91 1130 -33 
Q 819 25 488 141 
L 488 750 
Q 750 597 1062 519 
Q 1375 441 1716 441 
Q 2309 441 2620 675 
Q 2931 909 2931 1356 
Q 2931 1769 2642 2001 
Q 2353 2234 1838 2234 
L 1294 2234 
L 1294 2753 
L 1863 2753 
Q 2328 2753 2575 2939 
Q 2822 3125 2822 3475 
Q 2822 3834 2567 4026 
Q 2313 4219 1838 4219 
Q 1578 4219 1281 4162 
Q 984 4106 628 3988 
L 628 4550 
Q 988 4650 1302 4700 
Q 1616 4750 1894 4750 
Q 2613 4750 3031 4423 
Q 3450 4097 3450 3541 
Q 3450 3153 3228 2886 
Q 3006 2619 2597 2516 
z
" transform="scale(0.015625)"/>
        <path id="DejaVuSans-39" d="M 703 97 
L 703 672 
Q 941 559 1184 500 
Q 1428 441 1663 441 
Q 2288 441 2617 861 
Q 2947 1281 2994 2138 
Q 2813 1869 2534 1725 
Q 2256 1581 1919 1581 
Q 1219 1581 811 2004 
Q 403 2428 403 3163 
Q 403 3881 828 4315 
Q 1253 4750 1959 4750 
Q 2769 4750 3195 4129 
Q 3622 3509 3622 2328 
Q 3622 1225 3098 567 
Q 2575 -91 1691 -91 
Q 1453 -91 1209 -44 
Q 966 3 703 97 
z
M 1959 2075 
Q 2384 2075 2632 2365 
Q 2881 2656 2881 3163 
Q 2881 3666 2632 3958 
Q 2384 4250 1959 4250 
Q 1534 4250 1286 3958 
Q 1038 3666 1038 3163 
Q 1038 2656 1286 2365 
Q 1534 2075 1959 2075 
z
" transform="scale(0.015625)"/>
       </defs>
       <use xlink:href="#DejaVuSans-33"/>
       <use xlink:href="#DejaVuSans-39" x="63.623047"/>
       <use xlink:href="#DejaVuSans-30" x="127.246094"/>
      </g>
     </g>
    </g>
    <g id="ytick_2">
     <g id="text_8">
      <!-- 395 -->
      <g style="fill: #838383" transform="translate(25.717188 139.604223) scale(0.1375 -0.1375)">
       <use xlink:href="#DejaVuSans-33"/>
       <use xlink:href="#DejaVuSans-39" x="63.623047"/>
       <use xlink:href="#DejaVuSans-35" x="127.246094"/>
      </g>
     </g>
    </g>
    <g id="ytick_3">
     <g id="text_9">
      <!-- 400 -->
      <g style="fill: #838383" transform="translate(25.717188 87.588147) scale(0.1375 -0.1375)">
       <defs>
        <path id="DejaVuSans-34" d="M 2419 4116 
L 825 1625 
L 2419 1625 
L 2419 4116 
z
M 2253 4666 
L 3047 4666 
L 3047 1625 
L 3713 1625 
L 3713 1100 
L 3047 1100 
L 3047 0 
L 2419 0 
L 2419 1100 
L 313 1100 
L 313 1709 
L 2253 4666 
z
" transform="scale(0.015625)"/>
       </defs>
       <use xlink:href="#DejaVuSans-34"/>
       <use xlink:href="#DejaVuSans-30" x="63.623047"/>
       <use xlink:href="#DejaVuSans-30" x="127.246094"/>
      </g>
     </g>
    </g>
    <g id="ytick_4">
     <g id="text_10">
      <!-- 405 -->
      <g style="fill: #838383" transform="translate(25.717188 35.572071) scale(0.1375 -0.1375)">
       <use xlink:href="#DejaVuSans-34"/>
       <use xlink:href="#DejaVuSans-30" x="63.623047"/>
       <use xlink:href="#DejaVuSans-35" x="127.246094"/>
      </g>
     </g>
    </g>
    <g id="text_11">
     <!-- logprob -->
     <g style="fill: #838383" transform="translate(18.597656 138.686345) rotate(-90) scale(0.15 -0.15)">
      <defs>
       <path id="DejaVuSans-6c" d="M 603 4863 
L 1178 4863 
L 1178 0 
L 603 0 
L 603 4863 
z
" transform="scale(0.015625)"/>
       <path id="DejaVuSans-6f" d="M 1959 3097 
Q 1497 3097 1228 2736 
Q 959 2375 959 1747 
Q 959 1119 1226 758 
Q 1494 397 1959 397 
Q 2419 397 2687 759 
Q 2956 1122 2956 1747 
Q 2956 2369 2687 2733 
Q 2419 3097 1959 3097 
z
M 1959 3584 
Q 2709 3584 3137 3096 
Q 3566 2609 3566 1747 
Q 3566 888 3137 398 
Q 2709 -91 1959 -91 
Q 1206 -91 779 398 
Q 353 888 353 1747 
Q 353 2609 779 3096 
Q 1206 3584 1959 3584 
z
" transform="scale(0.015625)"/>
       <path id="DejaVuSans-67" d="M 2906 1791 
Q 2906 2416 2648 2759 
Q 2391 3103 1925 3103 
Q 1463 3103 1205 2759 
Q 947 2416 947 1791 
Q 947 1169 1205 825 
Q 1463 481 1925 481 
Q 2391 481 2648 825 
Q 2906 1169 2906 1791 
z
M 3481 434 
Q 3481 -459 3084 -895 
Q 2688 -1331 1869 -1331 
Q 1566 -1331 1297 -1286 
Q 1028 -1241 775 -1147 
L 775 -588 
Q 1028 -725 1275 -790 
Q 1522 -856 1778 -856 
Q 2344 -856 2625 -561 
Q 2906 -266 2906 331 
L 2906 616 
Q 2728 306 2450 153 
Q 2172 0 1784 0 
Q 1141 0 747 490 
Q 353 981 353 1791 
Q 353 2603 747 3093 
Q 1141 3584 1784 3584 
Q 2172 3584 2450 3431 
Q 2728 3278 2906 2969 
L 2906 3500 
L 3481 3500 
L 3481 434 
z
" transform="scale(0.015625)"/>
       <path id="DejaVuSans-70" d="M 1159 525 
L 1159 -1331 
L 581 -1331 
L 581 3500 
L 1159 3500 
L 1159 2969 
Q 1341 3281 1617 3432 
Q 1894 3584 2278 3584 
Q 2916 3584 3314 3078 
Q 3713 2572 3713 1747 
Q 3713 922 3314 415 
Q 2916 -91 2278 -91 
Q 1894 -91 1617 61 
Q 1341 213 1159 525 
z
M 3116 1747 
Q 3116 2381 2855 2742 
Q 2594 3103 2138 3103 
Q 1681 3103 1420 2742 
Q 1159 2381 1159 1747 
Q 1159 1113 1420 752 
Q 1681 391 2138 391 
Q 2594 391 2855 752 
Q 3116 1113 3116 1747 
z
" transform="scale(0.015625)"/>
       <path id="DejaVuSans-62" d="M 3116 1747 
Q 3116 2381 2855 2742 
Q 2594 3103 2138 3103 
Q 1681 3103 1420 2742 
Q 1159 2381 1159 1747 
Q 1159 1113 1420 752 
Q 1681 391 2138 391 
Q 2594 391 2855 752 
Q 3116 1113 3116 1747 
z
M 1159 2969 
Q 1341 3281 1617 3432 
Q 1894 3584 2278 3584 
Q 2916 3584 3314 3078 
Q 3713 2572 3713 1747 
Q 3713 922 3314 415 
Q 2916 -91 2278 -91 
Q 1894 -91 1617 61 
Q 1341 213 1159 525 
L 1159 0 
L 581 0 
L 581 4863 
L 1159 4863 
L 1159 2969 
z
" transform="scale(0.015625)"/>
      </defs>
      <use xlink:href="#DejaVuSans-6c"/>
      <use xlink:href="#DejaVuSans-6f" x="27.783203"/>
      <use xlink:href="#DejaVuSans-67" x="88.964844"/>
      <use xlink:href="#DejaVuSans-70" x="152.441406"/>
      <use xlink:href="#DejaVuSans-72" x="215.917969"/>
      <use xlink:href="#DejaVuSans-6f" x="254.78125"/>
      <use xlink:href="#DejaVuSans-62" x="315.962891"/>
     </g>
    </g>
   </g>
   <g id="line2d_1">
    <path d="M 67.570504 47.172729 
L 70.004274 137.257309 
L 71.221159 135.530848 
L 72.438043 122.389995 
L 73.654928 91.593074 
L 74.871813 125.368283 
L 76.088698 114.27169 
L 77.305583 182.272931 
L 78.522468 110.249524 
L 79.739352 117.911291 
L 80.956237 112.953509 
L 82.173122 120.58702 
L 84.606892 108.713869 
L 85.823777 135.858488 
L 87.040661 114.994594 
L 88.257546 152.768793 
L 89.474431 112.542054 
L 90.691316 117.800808 
L 91.908201 118.028124 
L 93.125086 137.963069 
L 95.558855 122.044258 
L 96.77574 135.474971 
L 97.992625 114.091996 
L 100.426395 133.509764 
L 101.643279 131.54297 
L 104.077049 169.155889 
L 105.293934 114.425351 
L 106.510819 110.266033 
L 108.944588 156.369662 
L 110.161473 112.680158 
L 112.595243 135.36671 
L 113.812128 131.71441 
L 115.029013 115.682893 
L 116.245897 165.461046 
L 117.462782 109.651072 
L 118.679667 110.574307 
L 119.896552 103.290977 
L 122.330322 127.609064 
L 123.547206 138.792965 
L 124.764091 98.017301 
L 125.980976 96.468629 
L 127.197861 136.635682 
L 128.414746 91.988338 
L 130.848515 129.83397 
L 132.0654 93.997675 
L 133.282285 90.180919 
L 134.49917 157.65165 
L 135.716055 100.712397 
L 136.932939 99.023715 
L 140.583594 141.903643 
L 141.800479 120.04889 
L 143.017364 145.869932 
L 144.234248 97.699185 
L 145.451133 138.087204 
L 146.668018 110.384453 
L 147.884903 119.095178 
L 149.101788 98.257634 
L 150.318673 133.910425 
L 151.535557 100.377137 
L 152.752442 113.220828 
L 153.969327 160.164194 
L 156.403097 104.298344 
L 158.836866 167.893584 
L 160.053751 114.425033 
L 161.270636 176.690981 
L 162.487521 106.622622 
L 163.704406 162.608797 
L 164.921291 112.617614 
L 166.138175 151.679833 
L 167.35506 100.566038 
L 168.571945 134.491098 
L 169.78883 93.75004 
L 171.005715 112.704286 
L 172.2226 151.023283 
L 174.656369 99.404058 
L 175.873254 121.444854 
L 177.090139 119.026919 
L 178.307024 122.460793 
L 179.523909 154.050146 
L 183.174563 111.43341 
L 184.391448 148.520898 
L 185.608333 111.754066 
L 188.042102 130.222567 
L 190.475872 81.383205 
L 191.692757 136.024213 
L 192.909642 138.563426 
L 194.126527 94.880272 
L 195.343411 126.950608 
L 196.560296 78.852247 
L 198.994066 136.242005 
L 200.210951 146.990005 
L 201.427836 105.638113 
L 206.295375 184.574985 
L 207.51226 139.309506 
L 208.729145 143.095784 
L 211.162914 115.406684 
L 212.379799 106.40737 
L 214.813569 153.839973 
L 216.030454 145.588961 
L 217.247338 117.004248 
L 218.464223 155.255621 
L 219.681108 124.520609 
L 220.897993 140.907705 
L 222.114878 118.865639 
L 223.331763 129.060587 
L 224.548647 82.21818 
L 226.982417 144.943523 
L 228.199302 144.386026 
L 229.416187 131.058812 
L 230.633072 130.235266 
L 231.849956 135.50291 
L 233.066841 146.603948 
L 234.283726 104.60503 
L 236.717496 133.41325 
L 239.151265 113.782134 
L 240.36815 117.10616 
L 242.80192 127.409368 
L 244.018805 112.143298 
L 246.452574 155.876931 
L 250.103229 112.732542 
L 251.320114 144.90098 
L 252.536998 111.991542 
L 253.753883 126.948068 
L 254.970768 109.402167 
L 257.404538 146.083914 
L 259.838307 92.366458 
L 261.055192 124.750783 
L 262.272077 122.906536 
L 263.488962 115.158097 
L 264.705847 132.535733 
L 265.922732 106.676911 
L 267.139616 107.68904 
L 268.356501 101.594041 
L 270.790271 115.276199 
L 272.007156 137.234451 
L 273.224041 115.376841 
L 274.440925 123.824056 
L 275.65781 107.010901 
L 276.874695 124.727607 
L 278.09158 115.967038 
L 280.52535 134.780958 
L 281.742234 121.292146 
L 284.176004 150.093698 
L 285.392889 78.443014 
L 286.609774 110.788924 
L 287.826659 115.949259 
L 289.043543 139.771758 
L 290.260428 133.41452 
L 291.477313 109.171676 
L 292.694198 136.839504 
L 293.911083 109.870134 
L 295.127968 118.218295 
L 297.561737 148.293582 
L 298.778622 106.012106 
L 299.995507 133.311021 
L 301.212392 122.904631 
L 302.429277 153.025952 
L 303.646161 86.013664 
L 304.863046 130.470202 
L 306.079931 136.425509 
L 307.296816 113.192255 
L 309.730586 160.599777 
L 309.730586 160.599777 
" clip-path="url(#pcec8968538)" style="fill: none; stroke: #440154; stroke-width: 1.5; stroke-linecap: round"/>
   </g>
   <g id="line2d_2">
    <path d="M 67.570504 39.150621 
L 70.004274 126.273739 
L 71.221159 123.755798 
L 72.438043 109.39804 
L 73.654928 78.697316 
L 74.871813 114.412016 
L 76.088698 99.816148 
L 77.305583 171.863366 
L 78.522468 98.653215 
L 79.739352 105.536202 
L 80.956237 100.396821 
L 82.173122 110.205394 
L 84.606892 96.20004 
L 85.823777 126.695354 
L 87.040661 105.69526 
L 88.257546 141.360433 
L 89.474431 100.649853 
L 90.691316 107.61348 
L 91.908201 108.061763 
L 93.125086 127.391272 
L 94.34197 122.992891 
L 95.558855 112.173776 
L 96.77574 125.08636 
L 97.992625 103.166842 
L 100.426395 121.603594 
L 101.643279 119.997776 
L 104.077049 156.475065 
L 105.293934 100.750177 
L 106.510819 97.511871 
L 108.944588 140.520061 
L 110.161473 100.170139 
L 112.595243 121.800433 
L 113.812128 119.746648 
L 115.029013 100.738113 
L 116.245897 154.222855 
L 117.462782 98.15096 
L 118.679667 97.690296 
L 119.896552 93.380809 
L 122.330322 115.069837 
L 123.547206 126.565821 
L 124.764091 84.114493 
L 125.980976 86.024776 
L 127.197861 122.864629 
L 128.414746 80.619346 
L 130.848515 116.408336 
L 132.0654 81.853394 
L 133.282285 77.707411 
L 134.49917 144.91241 
L 135.716055 87.996968 
L 136.932939 89.376105 
L 139.366709 105.349523 
L 140.583594 131.045477 
L 141.800479 107.564588 
L 143.017364 132.892581 
L 144.234248 86.284476 
L 145.451133 125.604172 
L 146.668018 99.405963 
L 147.884903 106.644528 
L 149.101788 87.339782 
L 150.318673 122.556355 
L 151.535557 87.481379 
L 152.752442 100.383804 
L 153.969327 150.828984 
L 156.403097 92.722036 
L 158.836866 155.56326 
L 160.053751 102.749672 
L 161.270636 163.60156 
L 162.487521 94.767566 
L 163.704406 150.413719 
L 164.921291 100.111088 
L 166.138175 141.866815 
L 167.35506 86.737838 
L 168.571945 122.989081 
L 169.78883 84.462452 
L 171.005715 103.063978 
L 172.2226 139.893354 
L 174.656369 86.470519 
L 175.873254 111.363247 
L 177.090139 108.296064 
L 178.307024 113.274165 
L 179.523909 141.990633 
L 183.174563 100.291734 
L 184.391448 135.695303 
L 185.608333 100.447935 
L 188.042102 118.573556 
L 190.475872 69.724035 
L 191.692757 124.803167 
L 192.909642 128.125923 
L 194.126527 83.29825 
L 195.343411 113.695462 
L 196.560296 66.987349 
L 198.994066 125.794978 
L 200.210951 134.681904 
L 201.427836 96.080985 
L 205.07849 140.490218 
L 206.295375 174.903563 
L 207.51226 127.239198 
L 208.729145 131.826798 
L 211.162914 103.635444 
L 212.379799 95.092667 
L 213.596684 112.219493 
L 214.813569 143.592324 
L 216.030454 133.602786 
L 217.247338 107.18615 
L 218.464223 142.842434 
L 219.681108 113.759593 
L 220.897993 128.895497 
L 222.114878 109.063098 
L 223.331763 118.088446 
L 224.548647 69.652284 
L 226.982417 132.929727 
L 228.199302 130.696248 
L 229.416187 119.996823 
L 231.849956 122.900822 
L 233.066841 135.590852 
L 234.283726 91.917857 
L 236.717496 120.474632 
L 239.151265 103.211289 
L 240.36815 106.321015 
L 242.80192 115.372079 
L 244.018805 102.565533 
L 246.452574 145.28164 
L 250.103229 103.010641 
L 251.320114 135.165427 
L 252.536998 100.047274 
L 253.753883 116.039424 
L 254.970768 97.130259 
L 257.404538 134.019639 
L 259.838307 82.235959 
L 261.055192 115.562567 
L 263.488962 105.158717 
L 264.705847 120.827671 
L 265.922732 95.975581 
L 267.139616 94.998375 
L 268.356501 90.938746 
L 269.573386 94.993295 
L 270.790271 103.065248 
L 272.007156 127.442704 
L 273.224041 106.07465 
L 274.440925 110.718443 
L 275.65781 94.871065 
L 276.874695 110.962269 
L 278.09158 104.756151 
L 280.52535 122.313482 
L 281.742234 110.602245 
L 284.176004 139.915895 
L 285.392889 65.410739 
L 286.609774 101.330214 
L 287.826659 105.462546 
L 289.043543 129.83905 
L 290.260428 119.857449 
L 291.477313 99.106895 
L 292.694198 126.895367 
L 293.911083 98.304939 
L 295.127968 106.822317 
L 297.561737 136.839504 
L 298.778622 93.441131 
L 299.995507 119.83967 
L 301.212392 109.942837 
L 302.429277 141.470281 
L 303.646161 73.433482 
L 306.079931 128.648496 
L 307.296816 99.722491 
L 309.730586 150.113382 
L 309.730586 150.113382 
" clip-path="url(#pcec8968538)" style="fill: none; stroke: #482878; stroke-width: 1.5; stroke-linecap: round"/>
   </g>
   <g id="line2d_3">
    <path d="M 67.570504 36.418063 
L 70.004274 127.606524 
L 71.221159 125.67751 
L 72.438043 111.30864 
L 73.654928 81.026356 
L 74.871813 116.885193 
L 76.088698 101.52737 
L 77.305583 171.973214 
L 78.522468 99.012286 
L 79.739352 106.211484 
L 80.956237 103.530992 
L 82.173122 111.774385 
L 84.606892 98.326527 
L 85.823777 128.586588 
L 87.040661 104.970768 
L 88.257546 142.844974 
L 89.474431 101.209889 
L 90.691316 109.167231 
L 91.908201 108.781809 
L 93.125086 129.997473 
L 95.558855 112.470303 
L 96.77574 126.960768 
L 97.992625 104.273263 
L 100.426395 124.210113 
L 101.643279 120.989269 
L 104.077049 158.683145 
L 105.293934 105.716214 
L 106.510819 98.414152 
L 108.944588 145.078452 
L 110.161473 104.47772 
L 112.595243 125.298438 
L 113.812128 120.967045 
L 115.029013 104.038962 
L 116.245897 156.852233 
L 117.462782 100.704777 
L 118.679667 101.008289 
L 119.896552 92.185176 
L 122.330322 117.403639 
L 123.547206 127.646527 
L 124.764091 87.279461 
L 125.980976 87.360101 
L 127.197861 124.614584 
L 128.414746 84.026551 
L 130.848515 117.567142 
L 132.0654 82.95537 
L 133.282285 79.506893 
L 134.49917 148.679003 
L 135.716055 89.647234 
L 136.932939 89.932966 
L 140.583594 131.874103 
L 141.800479 109.418994 
L 143.017364 135.568946 
L 144.234248 87.204218 
L 145.451133 128.388162 
L 146.668018 101.888346 
L 147.884903 108.374799 
L 149.101788 89.7901 
L 150.318673 124.286943 
L 151.535557 87.735998 
L 152.752442 101.866122 
L 153.969327 152.626561 
L 156.403097 94.706927 
L 158.836866 156.501099 
L 160.053751 104.159287 
L 161.270636 165.39247 
L 162.487521 96.586732 
L 163.704406 152.993569 
L 164.921291 103.233513 
L 166.138175 143.512001 
L 167.35506 90.447286 
L 168.571945 124.612044 
L 169.78883 85.215835 
L 171.005715 103.169382 
L 172.2226 141.013109 
L 174.656369 88.862421 
L 175.873254 112.77572 
L 177.090139 110.218728 
L 178.307024 112.807468 
L 179.523909 144.07172 
L 183.174563 102.227098 
L 184.391448 138.851699 
L 185.608333 99.813926 
L 188.042102 120.239061 
L 190.475872 70.358679 
L 191.692757 126.874413 
L 192.909642 131.158818 
L 194.126527 85.213295 
L 195.343411 116.141017 
L 196.560296 69.10844 
L 198.994066 127.158241 
L 200.210951 136.384237 
L 201.427836 97.24233 
L 205.07849 141.945868 
L 206.295375 177.172917 
L 207.51226 130.432104 
L 208.729145 132.945283 
L 211.162914 105.635891 
L 212.379799 97.2763 
L 213.596684 113.794198 
L 214.813569 144.042829 
L 216.030454 135.470527 
L 217.247338 108.672596 
L 218.464223 145.07877 
L 219.681108 112.870964 
L 220.897993 130.787048 
L 222.114878 109.628849 
L 223.331763 120.532414 
L 224.548647 70.873951 
L 226.982417 134.756195 
L 228.199302 134.638727 
L 229.416187 123.504035 
L 230.633072 122.710333 
L 231.849956 126.183892 
L 233.066841 135.881664 
L 234.283726 93.231593 
L 236.717496 122.526829 
L 239.151265 104.137381 
L 240.36815 106.555633 
L 242.80192 117.147115 
L 244.018805 103.791644 
L 246.452574 145.759131 
L 250.103229 103.474798 
L 251.320114 137.370333 
L 252.536998 101.678809 
L 253.753883 117.299823 
L 254.970768 100.831769 
L 257.404538 136.404556 
L 259.838307 83.063631 
L 261.055192 114.027547 
L 262.272077 113.208129 
L 263.488962 102.897935 
L 264.705847 122.615724 
L 265.922732 95.332047 
L 267.139616 95.294584 
L 268.356501 91.121933 
L 269.573386 95.976851 
L 270.790271 105.137446 
L 272.007156 129.206628 
L 273.224041 107.126464 
L 274.440925 113.156062 
L 275.65781 95.12124 
L 276.874695 114.311375 
L 278.09158 104.731388 
L 280.52535 122.700809 
L 281.742234 110.831466 
L 284.176004 141.062001 
L 285.392889 67.014018 
L 287.826659 109.313273 
L 289.043543 131.418835 
L 290.260428 121.552797 
L 291.477313 98.791319 
L 292.694198 127.472547 
L 293.911083 99.738365 
L 295.127968 108.825939 
L 297.561737 137.516056 
L 298.778622 96.067016 
L 299.995507 122.105532 
L 301.212392 111.387693 
L 302.429277 142.493205 
L 303.646161 74.165593 
L 304.863046 121.146739 
L 306.079931 128.068776 
L 307.296816 100.663822 
L 309.730586 151.661419 
L 309.730586 151.661419 
" clip-path="url(#pcec8968538)" style="fill: none; stroke: #3e4989; stroke-width: 1.5; stroke-linecap: round"/>
   </g>
   <g id="line2d_4">
    <path d="M 67.570504 41.470454 
L 70.004274 133.388169 
L 71.221159 130.128592 
L 72.438043 117.419831 
L 73.654928 85.562524 
L 74.871813 118.437675 
L 76.088698 107.300443 
L 77.305583 178.37617 
L 78.522468 103.361457 
L 79.739352 112.146472 
L 80.956237 107.582366 
L 82.173122 114.775215 
L 84.606892 104.029755 
L 85.823777 131.274699 
L 87.040661 109.814257 
L 88.257546 146.230908 
L 89.474431 105.673671 
L 90.691316 112.141393 
L 91.908201 110.932108 
L 93.125086 132.319211 
L 94.34197 129.267584 
L 95.558855 115.376523 
L 96.77574 130.663548 
L 97.992625 108.909437 
L 100.426395 128.096714 
L 101.643279 126.58487 
L 104.077049 164.479077 
L 105.293934 109.538049 
L 106.510819 104.225958 
L 108.944588 152.77038 
L 110.161473 106.909307 
L 112.595243 130.42385 
L 113.812128 126.981721 
L 115.029013 110.60796 
L 116.245897 162.164958 
L 117.462782 102.324882 
L 118.679667 103.829107 
L 119.896552 96.249567 
L 122.330322 121.707728 
L 123.547206 133.145614 
L 124.764091 90.578723 
L 125.980976 90.494908 
L 127.197861 131.90966 
L 128.414746 85.170117 
L 130.848515 124.305992 
L 132.0654 86.522586 
L 133.282285 84.831048 
L 134.49917 153.31613 
L 135.716055 94.490088 
L 136.932939 92.36741 
L 140.583594 135.015259 
L 141.800479 113.238289 
L 143.017364 141.526793 
L 144.234248 91.183206 
L 145.451133 133.300227 
L 146.668018 105.162527 
L 147.884903 111.481032 
L 149.101788 91.5318 
L 150.318673 127.310314 
L 151.535557 93.709085 
L 152.752442 107.228058 
L 153.969327 154.801623 
L 156.403097 97.746807 
L 158.836866 163.588543 
L 160.053751 107.423309 
L 161.270636 170.58614 
L 162.487521 101.488002 
L 163.704406 158.168508 
L 164.921291 104.242785 
L 166.138175 147.094456 
L 167.35506 95.691436 
L 168.571945 127.256025 
L 169.78883 86.615291 
L 171.005715 105.679068 
L 172.2226 146.271863 
L 174.656369 92.355981 
L 175.873254 115.889573 
L 177.090139 113.5999 
L 178.307024 116.450244 
L 179.523909 149.02601 
L 183.174563 105.40159 
L 184.391448 142.832592 
L 185.608333 105.297774 
L 188.042102 124.640617 
L 190.475872 73.81065 
L 191.692757 129.689834 
L 192.909642 132.401121 
L 194.126527 88.170947 
L 195.343411 121.640422 
L 196.560296 72.102602 
L 198.994066 131.107386 
L 200.210951 143.171979 
L 201.427836 99.671694 
L 206.295375 178.325055 
L 207.51226 133.217364 
L 208.729145 138.24023 
L 211.162914 109.005951 
L 212.379799 99.922187 
L 214.813569 147.470036 
L 216.030454 139.369192 
L 217.247338 111.768353 
L 218.464223 150.126716 
L 219.681108 118.807857 
L 220.897993 133.956778 
L 222.114878 111.48262 
L 223.331763 122.788433 
L 224.548647 77.102609 
L 226.982417 139.014249 
L 228.199302 138.46088 
L 229.416187 124.082803 
L 230.633072 123.787546 
L 233.066841 142.096671 
L 234.283726 98.104291 
L 236.717496 128.275139 
L 239.151265 107.475375 
L 240.36815 111.580086 
L 242.80192 122.258558 
L 244.018805 106.321332 
L 246.452574 149.974643 
L 250.103229 105.340316 
L 251.320114 138.471991 
L 252.536998 108.005886 
L 253.753883 123.509432 
L 254.970768 104.036104 
L 257.404538 139.883512 
L 259.838307 85.933977 
L 261.055192 120.619404 
L 262.272077 117.503328 
L 263.488962 108.677358 
L 264.705847 127.550012 
L 265.922732 101.86009 
L 267.139616 101.577215 
L 268.356501 93.408748 
L 270.790271 111.618502 
L 272.007156 131.797907 
L 273.224041 108.369719 
L 274.440925 117.820174 
L 275.65781 100.754622 
L 276.874695 119.701249 
L 278.09158 111.898202 
L 279.308465 116.519455 
L 280.52535 130.00795 
L 281.742234 115.608919 
L 284.176004 143.184678 
L 285.392889 71.809567 
L 286.609774 106.727708 
L 287.826659 111.43722 
L 289.043543 134.299657 
L 290.260428 127.114428 
L 291.477313 103.673541 
L 292.694198 132.073481 
L 293.911083 103.167159 
L 295.127968 113.708479 
L 297.561737 142.434153 
L 298.778622 101.979145 
L 299.995507 127.45826 
L 301.212392 116.177845 
L 302.429277 147.399873 
L 303.646161 78.773829 
L 304.863046 125.92578 
L 306.079931 131.620435 
L 307.296816 107.875084 
L 309.730586 155.360707 
L 309.730586 155.360707 
" clip-path="url(#pcec8968538)" style="fill: none; stroke: #31688e; stroke-width: 1.5; stroke-linecap: round"/>
   </g>
   <g id="line2d_5">
    <path d="M 67.570504 35.984384 
L 70.004274 127.642082 
L 71.221159 126.66932 
L 72.438043 112.966843 
L 73.654928 84.811999 
L 74.871813 115.573044 
L 76.088698 106.179101 
L 77.305583 176.989096 
L 78.522468 103.014133 
L 79.739352 111.381343 
L 80.956237 105.047599 
L 82.173122 112.255051 
L 83.390007 109.949504 
L 84.606892 99.126579 
L 85.823777 126.914415 
L 87.040661 108.091288 
L 88.257546 147.631316 
L 89.474431 107.005186 
L 90.691316 110.534304 
L 91.908201 110.343181 
L 93.125086 130.29781 
L 94.34197 124.320279 
L 95.558855 112.18711 
L 96.77574 127.26174 
L 97.992625 107.713486 
L 101.643279 125.438129 
L 104.077049 161.373796 
L 105.293934 107.008996 
L 106.510819 102.423936 
L 108.944588 150.914069 
L 110.161473 103.580202 
L 112.595243 126.84711 
L 113.812128 123.833581 
L 115.029013 107.940802 
L 116.245897 158.952051 
L 117.462782 102.935716 
L 118.679667 101.389266 
L 119.896552 93.657018 
L 122.330322 120.385103 
L 123.547206 130.136847 
L 124.764091 89.328483 
L 125.980976 86.314001 
L 127.197861 128.935499 
L 128.414746 82.183574 
L 130.848515 122.768114 
L 132.0654 85.307269 
L 133.282285 81.073344 
L 134.49917 150.244819 
L 135.716055 91.7461 
L 136.932939 90.212985 
L 138.149824 106.741042 
L 139.366709 106.438483 
L 140.583594 135.027641 
L 141.800479 114.326931 
L 143.017364 140.611813 
L 144.234248 87.88204 
L 145.451133 132.211902 
L 146.668018 101.60674 
L 147.884903 111.635011 
L 149.101788 91.807691 
L 150.318673 126.725197 
L 151.535557 90.831437 
L 152.752442 105.589539 
L 153.969327 152.701169 
L 156.403097 95.805094 
L 158.836866 161.339826 
L 160.053751 104.718688 
L 161.270636 170.484229 
L 162.487521 98.388119 
L 163.704406 152.3167 
L 164.921291 102.529022 
L 166.138175 142.957997 
L 167.35506 90.852074 
L 168.571945 128.407846 
L 169.78883 84.991058 
L 171.005715 104.748214 
L 172.2226 143.695188 
L 174.656369 89.075768 
L 175.873254 112.046783 
L 177.090139 111.794704 
L 178.307024 113.728162 
L 179.523909 146.952542 
L 183.174563 101.746749 
L 184.391448 141.65061 
L 185.608333 103.293834 
L 188.042102 122.361104 
L 190.475872 72.569617 
L 191.692757 128.605954 
L 192.909642 129.307587 
L 194.126527 86.934042 
L 195.343411 119.979362 
L 196.560296 69.633236 
L 197.777181 119.691724 
L 198.994066 126.360729 
L 200.210951 138.619303 
L 201.427836 97.528063 
L 206.295375 178.440619 
L 207.51226 131.540113 
L 208.729145 133.181489 
L 211.162914 107.941755 
L 212.379799 99.143723 
L 214.813569 145.454032 
L 216.030454 138.213244 
L 217.247338 107.588399 
L 218.464223 148.762183 
L 219.681108 115.720355 
L 220.897993 133.956778 
L 222.114878 111.999479 
L 223.331763 120.730839 
L 224.548647 72.749311 
L 226.982417 136.535358 
L 228.199302 136.507419 
L 229.416187 122.370311 
L 230.633072 123.051307 
L 231.849956 125.283198 
L 233.066841 138.948213 
L 234.283726 95.729216 
L 236.717496 125.772119 
L 239.151265 105.723833 
L 240.36815 109.162787 
L 241.585035 118.447516 
L 242.80192 118.170356 
L 244.018805 103.824027 
L 246.452574 151.607448 
L 250.103229 104.773295 
L 251.320114 135.906428 
L 252.536998 104.557408 
L 253.753883 117.471263 
L 254.970768 101.239097 
L 257.404538 139.463167 
L 259.838307 83.516677 
L 261.055192 116.293408 
L 263.488962 106.518805 
L 264.705847 124.925715 
L 265.922732 99.28151 
L 267.139616 100.736208 
L 268.356501 91.969607 
L 270.790271 105.753041 
L 272.007156 128.08846 
L 273.224041 107.843336 
L 274.440925 117.172831 
L 275.65781 99.515811 
L 276.874695 115.887668 
L 278.09158 107.36521 
L 279.308465 113.988179 
L 280.52535 126.1804 
L 281.742234 114.218988 
L 284.176004 141.302651 
L 285.392889 71.427955 
L 287.826659 106.753741 
L 289.043543 129.897149 
L 290.260428 126.323901 
L 291.477313 100.461904 
L 292.694198 127.553822 
L 293.911083 102.514418 
L 295.127968 108.453852 
L 297.561737 141.638546 
L 298.778622 98.405263 
L 299.995507 126.723292 
L 301.212392 115.171431 
L 302.429277 144.793672 
L 303.646161 76.914343 
L 304.863046 121.789003 
L 306.079931 126.919813 
L 307.296816 105.266661 
L 309.730586 153.22533 
L 309.730586 153.22533 
" clip-path="url(#pcec8968538)" style="fill: none; stroke: #26828e; stroke-width: 1.5; stroke-linecap: round"/>
   </g>
   <g id="line2d_6">
    <path d="M 67.570504 40.880575 
L 70.004274 131.415025 
L 71.221159 131.614403 
L 72.438043 116.102285 
L 73.654928 85.507917 
L 74.871813 119.27011 
L 76.088698 108.265903 
L 77.305583 178.059959 
L 78.522468 104.442163 
L 79.739352 114.114854 
L 80.956237 106.971216 
L 82.173122 114.801883 
L 84.606892 103.083027 
L 85.823777 130.319716 
L 87.040661 107.756029 
L 88.257546 145.848343 
L 89.474431 107.727773 
L 90.691316 111.770575 
L 91.908201 111.912171 
L 93.125086 130.615608 
L 95.558855 117.005201 
L 96.77574 131.115958 
L 97.992625 109.269778 
L 100.426395 128.661513 
L 101.643279 125.826408 
L 102.860164 159.796233 
L 104.077049 165.00419 
L 105.293934 109.220251 
L 106.510819 103.447495 
L 108.944588 152.403055 
L 110.161473 107.880481 
L 112.595243 130.651801 
L 113.812128 126.945529 
L 115.029013 111.4423 
L 116.245897 161.158861 
L 117.462782 103.247799 
L 118.679667 104.213894 
L 119.896552 99.011016 
L 122.330322 122.328086 
L 123.547206 132.361753 
L 124.764091 91.601646 
L 125.980976 90.195841 
L 127.197861 131.33883 
L 128.414746 85.007885 
L 130.848515 125.175255 
L 132.0654 88.837975 
L 133.282285 83.63224 
L 134.49917 153.131991 
L 135.716055 95.555236 
L 136.932939 92.21121 
L 140.583594 136.588694 
L 141.800479 114.088186 
L 143.017364 140.819763 
L 144.234248 92.399158 
L 145.451133 133.565959 
L 146.668018 105.506359 
L 147.884903 113.983735 
L 149.101788 90.722859 
L 150.318673 126.715672 
L 151.535557 95.371732 
L 152.752442 107.956994 
L 153.969327 155.046401 
L 156.403097 97.27757 
L 158.836866 164.603212 
L 160.053751 109.061193 
L 161.270636 172.567539 
L 162.487521 100.705095 
L 163.704406 157.533547 
L 164.921291 107.665229 
L 166.138175 145.257511 
L 167.35506 95.658418 
L 168.571945 129.125988 
L 169.78883 86.825781 
L 171.005715 106.345461 
L 172.2226 145.546102 
L 174.656369 93.573838 
L 175.873254 115.911796 
L 177.090139 112.323309 
L 178.307024 116.598825 
L 179.523909 149.387303 
L 183.174563 105.740025 
L 184.391448 143.613278 
L 185.608333 105.806378 
L 188.042102 124.586645 
L 190.475872 75.76792 
L 191.692757 131.585195 
L 192.909642 130.992141 
L 194.126527 88.223649 
L 195.343411 122.729382 
L 196.560296 70.595203 
L 198.994066 131.422645 
L 200.210951 142.222076 
L 201.427836 99.396438 
L 206.295375 180.557264 
L 207.51226 132.811306 
L 208.729145 138.047202 
L 211.162914 109.068177 
L 212.379799 101.271798 
L 214.813569 146.236305 
L 216.030454 139.3657 
L 217.247338 110.86131 
L 218.464223 149.776852 
L 219.681108 118.55927 
L 220.897993 134.969224 
L 222.114878 113.09828 
L 223.331763 123.063372 
L 224.548647 76.825131 
L 226.982417 140.053999 
L 228.199302 139.074253 
L 229.416187 125.682907 
L 230.633072 123.424665 
L 233.066841 141.544254 
L 234.283726 100.550164 
L 235.500611 123.196714 
L 236.717496 126.732816 
L 239.151265 107.493154 
L 242.80192 123.224017 
L 244.018805 105.072362 
L 246.452574 151.124242 
L 250.103229 105.096491 
L 251.320114 139.000915 
L 252.536998 107.589351 
L 253.753883 122.477937 
L 254.970768 101.873424 
L 257.404538 139.752075 
L 259.838307 85.224724 
L 261.055192 119.825701 
L 262.272077 117.863669 
L 263.488962 109.845371 
L 264.705847 125.648936 
L 265.922732 99.765668 
L 267.139616 102.3579 
L 268.356501 95.561903 
L 270.790271 110.955601 
L 272.007156 131.697583 
L 273.224041 108.84848 
L 274.440925 117.276647 
L 275.65781 99.904725 
L 276.874695 119.628228 
L 278.09158 110.461919 
L 280.52535 127.574141 
L 281.742234 114.492022 
L 284.176004 145.289577 
L 285.392889 71.531772 
L 286.609774 104.978388 
L 287.826659 109.658692 
L 289.043543 134.760004 
L 290.260428 128.149416 
L 291.477313 100.912727 
L 292.694198 131.24549 
L 293.911083 105.365715 
L 295.127968 110.992429 
L 296.344852 137.978309 
L 297.561737 142.56686 
L 298.778622 98.720204 
L 299.995507 128.092905 
L 301.212392 116.248326 
L 302.429277 148.206592 
L 303.646161 78.553815 
L 304.863046 124.201223 
L 306.079931 131.50646 
L 307.296816 107.619512 
L 309.730586 156.425538 
L 309.730586 156.425538 
" clip-path="url(#pcec8968538)" style="fill: none; stroke: #1f9e89; stroke-width: 1.5; stroke-linecap: round"/>
   </g>
   <g id="line2d_7">
    <path d="M 67.570504 35.877393 
L 70.004274 129.172022 
L 71.221159 126.985849 
L 72.438043 113.397982 
L 73.654928 80.251703 
L 74.871813 116.212768 
L 76.088698 102.337581 
L 77.305583 173.993663 
L 78.522468 100.431743 
L 79.739352 107.23663 
L 80.956237 102.049309 
L 82.173122 112.52618 
L 84.606892 100.309196 
L 85.823777 127.227134 
L 87.040661 106.836286 
L 88.257546 142.500507 
L 89.474431 102.28107 
L 90.691316 108.917374 
L 91.908201 107.586811 
L 93.125086 128.349747 
L 94.34197 123.108137 
L 95.558855 112.26267 
L 96.77574 126.927115 
L 97.992625 103.45067 
L 100.426395 123.965653 
L 101.643279 123.093532 
L 104.077049 159.528914 
L 105.293934 104.262151 
L 106.510819 98.088417 
L 108.944588 145.247669 
L 110.161473 103.011911 
L 112.595243 125.395587 
L 113.812128 120.976252 
L 115.029013 104.347871 
L 116.245897 157.035102 
L 117.462782 101.543244 
L 118.679667 99.658677 
L 119.896552 92.513134 
L 122.330322 117.84081 
L 123.547206 127.984961 
L 124.764091 86.237806 
L 125.980976 88.099832 
L 127.197861 124.901586 
L 128.414746 82.71472 
L 130.848515 117.13632 
L 132.0654 82.312789 
L 133.282285 80.320279 
L 134.49917 148.314535 
L 135.716055 89.172917 
L 136.932939 89.833277 
L 140.583594 131.659168 
L 141.800479 108.767523 
L 143.017364 134.131392 
L 144.234248 87.011507 
L 145.451133 127.219515 
L 146.668018 100.833039 
L 147.884903 106.465786 
L 149.101788 88.761462 
L 150.318673 124.18027 
L 151.535557 88.967824 
L 152.752442 103.345266 
L 153.969327 151.520458 
L 156.403097 94.712324 
L 157.619982 116.370239 
L 158.836866 156.801753 
L 160.053751 103.847521 
L 161.270636 167.151314 
L 162.487521 96.639116 
L 163.704406 150.332444 
L 164.921291 102.95286 
L 166.138175 142.880532 
L 167.35506 90.723494 
L 168.571945 123.17576 
L 169.78883 82.800122 
L 171.005715 101.237828 
L 172.2226 141.084859 
L 174.656369 88.311274 
L 175.873254 113.163046 
L 177.090139 111.048623 
L 178.307024 114.22121 
L 179.523909 143.16182 
L 183.174563 102.457589 
L 184.391448 138.861223 
L 185.608333 102.472193 
L 186.825218 106.679451 
L 188.042102 118.697374 
L 190.475872 70.195177 
L 191.692757 126.943306 
L 192.909642 129.165355 
L 194.126527 84.845969 
L 195.343411 117.075681 
L 196.560296 69.581169 
L 198.994066 125.656556 
L 200.210951 136.594409 
L 201.427836 94.796139 
L 206.295375 174.422262 
L 207.51226 129.767299 
L 208.729145 132.409693 
L 211.162914 106.696912 
L 212.379799 95.205055 
L 213.596684 112.232192 
L 214.813569 144.681918 
L 216.030454 135.775308 
L 217.247338 107.433785 
L 218.464223 146.294404 
L 219.681108 113.653872 
L 220.897993 130.486711 
L 222.114878 107.931278 
L 223.331763 118.731662 
L 224.548647 70.39773 
L 226.982417 134.534275 
L 228.199302 135.485766 
L 229.416187 123.017655 
L 230.633072 121.799798 
L 231.849956 125.975307 
L 233.066841 135.417825 
L 234.283726 92.589647 
L 236.717496 125.121918 
L 239.151265 103.500197 
L 242.80192 116.792171 
L 244.018805 101.179411 
L 246.452574 147.630046 
L 250.103229 103.94848 
L 251.320114 137.506214 
L 252.536998 101.965494 
L 253.753883 116.549933 
L 254.970768 99.257381 
L 257.404538 133.980906 
L 259.838307 82.17278 
L 261.055192 114.060882 
L 262.272077 112.384266 
L 263.488962 104.352315 
L 264.705847 120.674328 
L 265.922732 96.219089 
L 267.139616 95.857478 
L 268.356501 90.964779 
L 269.573386 93.817028 
L 272.007156 126.526454 
L 273.224041 104.276438 
L 274.440925 113.730702 
L 275.65781 95.893988 
L 276.874695 114.290739 
L 278.09158 104.819647 
L 280.52535 125.891492 
L 281.742234 110.874009 
L 284.176004 141.425517 
L 285.392889 66.125706 
L 286.609774 101.588009 
L 287.826659 106.988677 
L 289.043543 129.468232 
L 290.260428 120.724807 
L 291.477313 101.801039 
L 292.694198 126.610904 
L 293.911083 99.892978 
L 295.127968 109.512651 
L 297.561737 135.549579 
L 298.778622 97.569335 
L 299.995507 122.456348 
L 301.212392 114.290739 
L 302.429277 143.32818 
L 303.646161 73.927483 
L 306.079931 127.668115 
L 307.296816 100.563815 
L 309.730586 151.195357 
L 309.730586 151.195357 
" clip-path="url(#pcec8968538)" style="fill: none; stroke: #35b779; stroke-width: 1.5; stroke-linecap: round"/>
   </g>
   <g id="line2d_8">
    <path d="M 67.570504 36.165665 
L 70.004274 129.073921 
L 71.221159 124.477432 
L 72.438043 110.586689 
L 73.654928 79.011622 
L 74.871813 114.812677 
L 76.088698 102.545214 
L 77.305583 169.616871 
L 78.522468 97.397578 
L 79.739352 105.146018 
L 80.956237 100.240937 
L 82.173122 109.491062 
L 84.606892 100.03775 
L 85.823777 124.003433 
L 87.040661 104.45137 
L 88.257546 141.474091 
L 89.474431 101.640711 
L 90.691316 106.493089 
L 91.908201 105.796536 
L 93.125086 126.226117 
L 95.558855 111.560403 
L 96.77574 124.413936 
L 97.992625 103.766881 
L 100.426395 123.448159 
L 101.643279 118.955168 
L 104.077049 157.924048 
L 105.293934 102.467431 
L 106.510819 98.047462 
L 108.944588 144.390471 
L 110.161473 102.593471 
L 112.595243 125.909588 
L 113.812128 119.117719 
L 115.029013 105.357778 
L 116.245897 152.852608 
L 117.462782 100.506351 
L 118.679667 98.496062 
L 119.896552 90.965097 
L 122.330322 115.582886 
L 123.547206 127.617001 
L 124.764091 88.195393 
L 125.980976 85.54538 
L 127.197861 124.699034 
L 128.414746 81.355267 
L 130.848515 117.008693 
L 132.0654 80.304405 
L 133.282285 76.883865 
L 134.49917 148.153572 
L 135.716055 86.881657 
L 136.932939 86.640689 
L 140.583594 130.589257 
L 141.800479 107.027727 
L 143.017364 132.570021 
L 144.234248 87.822353 
L 145.451133 125.374633 
L 146.668018 100.693348 
L 147.884903 107.289967 
L 149.101788 87.283906 
L 150.318673 122.077911 
L 151.535557 87.651548 
L 152.752442 104.03166 
L 153.969327 149.282217 
L 156.403097 93.712894 
L 158.836866 154.470491 
L 160.053751 104.533915 
L 161.270636 164.846085 
L 162.487521 95.52698 
L 163.704406 150.488327 
L 164.921291 103.932606 
L 166.138175 140.901355 
L 167.35506 91.460685 
L 168.571945 121.516605 
L 169.78883 82.026421 
L 171.005715 99.777098 
L 172.2226 138.856778 
L 173.439484 97.04073 
L 174.656369 89.911378 
L 175.873254 110.660979 
L 177.090139 110.049511 
L 178.307024 111.173076 
L 179.523909 142.512571 
L 183.174563 100.657155 
L 184.391448 135.916905 
L 185.608333 100.927966 
L 186.825218 105.206022 
L 188.042102 116.955039 
L 190.475872 68.960493 
L 191.692757 124.632045 
L 192.909642 128.591032 
L 194.126527 82.50677 
L 195.343411 116.131811 
L 196.560296 68.804928 
L 197.777181 116.132128 
L 200.210951 134.858423 
L 201.427836 93.37065 
L 205.07849 139.66318 
L 206.295375 173.018362 
L 207.51226 127.078871 
L 208.729145 129.830795 
L 211.162914 105.701292 
L 212.379799 93.788455 
L 213.596684 110.692727 
L 214.813569 142.783065 
L 216.030454 134.964145 
L 217.247338 106.567697 
L 218.464223 144.809863 
L 219.681108 111.470873 
L 220.897993 129.270441 
L 222.114878 105.272058 
L 223.331763 117.366494 
L 224.548647 69.353852 
L 226.982417 133.179584 
L 228.199302 135.674667 
L 230.633072 119.819987 
L 233.066841 134.710477 
L 234.283726 92.068343 
L 236.717496 122.026162 
L 239.151265 101.850566 
L 242.80192 115.55209 
L 244.018805 97.549017 
L 246.452574 144.956222 
L 250.103229 102.716971 
L 251.320114 136.064851 
L 252.536998 98.900215 
L 253.753883 116.771852 
L 254.970768 97.622355 
L 257.404538 134.192348 
L 259.838307 78.949396 
L 261.055192 110.762256 
L 262.272077 112.431888 
L 263.488962 102.823962 
L 264.705847 119.329796 
L 265.922732 94.267534 
L 267.139616 95.231088 
L 268.356501 89.917092 
L 269.573386 95.032345 
L 270.790271 104.692338 
L 272.007156 125.110171 
L 273.224041 103.249387 
L 274.440925 112.363629 
L 275.65781 92.157238 
L 276.874695 113.73102 
L 278.09158 102.563628 
L 280.52535 123.395457 
L 281.742234 107.577287 
L 284.176004 138.735501 
L 285.392889 64.013188 
L 286.609774 99.739318 
L 287.826659 105.746057 
L 289.043543 128.818984 
L 290.260428 121.422313 
L 291.477313 97.998887 
L 292.694198 124.238686 
L 293.911083 97.048349 
L 295.127968 107.814128 
L 296.344852 130.885467 
L 297.561737 134.298387 
L 298.778622 96.317825 
L 299.995507 121.331831 
L 301.212392 112.405537 
L 302.429277 144.126962 
L 303.646161 74.971995 
L 304.863046 117.796363 
L 306.079931 125.405111 
L 307.296816 98.986888 
L 309.730586 148.582489 
L 309.730586 148.582489 
" clip-path="url(#pcec8968538)" style="fill: none; stroke: #6ece58; stroke-width: 1.5; stroke-linecap: round"/>
   </g>
   <g id="line2d_9">
    <path d="M 67.570504 47.353059 
L 70.004274 136.810296 
L 71.221159 135.408935 
L 72.438043 121.76805 
L 73.654928 91.482908 
L 74.871813 124.869203 
L 76.088698 113.60879 
L 77.305583 182.269756 
L 78.522468 109.800606 
L 79.739352 117.850652 
L 80.956237 112.346168 
L 82.173122 120.179375 
L 84.606892 108.265268 
L 85.823777 135.70959 
L 87.040661 115.079361 
L 88.257546 152.781809 
L 89.474431 112.594121 
L 90.691316 117.26871 
L 91.908201 117.874781 
L 93.125086 137.720197 
L 94.34197 132.355404 
L 95.558855 122.031559 
L 96.77574 135.040657 
L 97.992625 113.911031 
L 100.426395 132.723364 
L 101.643279 131.176914 
L 104.077049 168.729194 
L 105.293934 113.93643 
L 106.510819 109.882198 
L 108.944588 156.162664 
L 110.161473 112.320452 
L 112.595243 134.683174 
L 113.812128 131.503285 
L 115.029013 115.694004 
L 116.245897 165.370246 
L 117.462782 109.319622 
L 118.679667 109.844418 
L 119.896552 102.731893 
L 122.330322 127.329681 
L 123.547206 138.244675 
L 124.764091 97.588067 
L 125.980976 95.845096 
L 127.197861 136.047707 
L 128.414746 91.87722 
L 130.848515 129.66888 
L 132.0654 93.481768 
L 133.282285 89.745653 
L 134.49917 157.13733 
L 135.716055 100.367295 
L 136.932939 98.813543 
L 140.583594 141.834749 
L 141.800479 119.576161 
L 143.017364 145.49086 
L 144.234248 97.162007 
L 145.451133 138.144986 
L 146.668018 110.020938 
L 147.884903 118.76595 
L 149.101788 98.071273 
L 150.318673 133.67295 
L 151.535557 100.060926 
L 152.752442 112.818897 
L 153.969327 159.939417 
L 156.403097 103.628459 
L 158.836866 167.654204 
L 160.053751 113.8469 
L 161.270636 176.07983 
L 162.487521 106.180371 
L 163.704406 162.079239 
L 164.921291 112.18076 
L 166.138175 151.141068 
L 167.35506 100.453967 
L 168.571945 134.015829 
L 169.78883 92.914747 
L 171.005715 112.18203 
L 172.2226 150.705167 
L 174.656369 98.7837 
L 175.873254 121.199124 
L 177.090139 118.756108 
L 178.307024 122.242684 
L 179.523909 153.509476 
L 183.174563 111.314672 
L 184.391448 148.098013 
L 185.608333 111.801053 
L 188.042102 129.621258 
L 190.475872 81.0889 
L 191.692757 135.505132 
L 192.909642 138.321823 
L 194.126527 94.621842 
L 195.343411 126.440734 
L 196.560296 78.601754 
L 198.994066 135.681969 
L 200.210951 146.658555 
L 201.427836 105.606365 
L 206.295375 183.825095 
L 207.51226 139.257439 
L 208.729145 143.008159 
L 211.162914 115.193654 
L 212.379799 105.901622 
L 214.813569 153.458044 
L 216.030454 145.415934 
L 217.247338 116.737247 
L 218.464223 155.122279 
L 219.681108 124.230432 
L 220.897993 140.411165 
L 222.114878 118.241471 
L 223.331763 128.817079 
L 224.548647 81.948956 
L 226.982417 144.326975 
L 228.199302 143.960602 
L 229.416187 130.973727 
L 230.633072 129.902864 
L 231.849956 135.229559 
L 233.066841 146.377902 
L 234.283726 104.025945 
L 236.717496 132.870358 
L 239.151265 113.360837 
L 242.80192 127.25031 
L 244.018805 111.882963 
L 246.452574 156.002336 
L 250.103229 112.299816 
L 251.320114 144.922252 
L 252.536998 111.80899 
L 253.753883 127.006485 
L 254.970768 109.068177 
L 257.404538 145.965176 
L 259.838307 91.79277 
L 261.055192 124.763165 
L 262.272077 122.397614 
L 263.488962 115.027929 
L 264.705847 132.468744 
L 265.922732 106.56484 
L 267.139616 107.379814 
L 268.356501 101.161315 
L 270.790271 115.198099 
L 272.007156 136.625205 
L 273.224041 114.93459 
L 274.440925 123.524672 
L 275.65781 106.797554 
L 276.874695 124.293293 
L 278.09158 115.466053 
L 280.52535 134.538403 
L 281.742234 121.109594 
L 284.176004 149.805108 
L 285.392889 78.468095 
L 286.609774 110.747334 
L 287.826659 115.659081 
L 289.043543 139.415545 
L 290.260428 133.103071 
L 291.477313 108.797683 
L 292.694198 136.722036 
L 293.911083 109.52662 
L 295.127968 117.84081 
L 297.561737 147.789422 
L 298.778622 106.062585 
L 299.995507 133.316736 
L 301.212392 122.370946 
L 302.429277 152.459566 
L 303.646161 85.335208 
L 304.863046 130.21463 
L 306.079931 136.389634 
L 307.296816 112.785879 
L 309.730586 160.275312 
L 309.730586 160.275312 
" clip-path="url(#pcec8968538)" style="fill: none; stroke: #b5de2b; stroke-width: 1.5; stroke-linecap: round"/>
   </g>
   <g id="patch_3">
    <path d="M 55.4625 192.009865 
L 55.4625 28.442513 
" style="fill: none"/>
   </g>
   <g id="patch_4">
    <path d="M 321.83859 192.009865 
L 321.83859 28.442513 
" style="fill: none"/>
   </g>
   <g id="patch_5">
    <path d="M 55.4625 192.009865 
L 321.83859 192.009865 
" style="fill: none"/>
   </g>
   <g id="patch_6">
    <path d="M 55.4625 28.442513 
L 321.83859 28.442513 
" style="fill: none"/>
   </g>
  </g>
  <g id="text_12">
   <!-- eval: pytorch -->
   <g style="fill: #262626" transform="translate(137.155906 18.14175) scale(0.144 -0.144)">
    <defs>
     <path id="DejaVuSans-65" d="M 3597 1894 
L 3597 1613 
L 953 1613 
Q 991 1019 1311 708 
Q 1631 397 2203 397 
Q 2534 397 2845 478 
Q 3156 559 3463 722 
L 3463 178 
Q 3153 47 2828 -22 
Q 2503 -91 2169 -91 
Q 1331 -91 842 396 
Q 353 884 353 1716 
Q 353 2575 817 3079 
Q 1281 3584 2069 3584 
Q 2775 3584 3186 3129 
Q 3597 2675 3597 1894 
z
M 3022 2063 
Q 3016 2534 2758 2815 
Q 2500 3097 2075 3097 
Q 1594 3097 1305 2825 
Q 1016 2553 972 2059 
L 3022 2063 
z
" transform="scale(0.015625)"/>
     <path id="DejaVuSans-76" d="M 191 3500 
L 800 3500 
L 1894 563 
L 2988 3500 
L 3597 3500 
L 2284 0 
L 1503 0 
L 191 3500 
z
" transform="scale(0.015625)"/>
     <path id="DejaVuSans-3a" d="M 750 794 
L 1409 794 
L 1409 0 
L 750 0 
L 750 794 
z
M 750 3309 
L 1409 3309 
L 1409 2516 
L 750 2516 
L 750 3309 
z
" transform="scale(0.015625)"/>
     <path id="DejaVuSans-20" transform="scale(0.015625)"/>
     <path id="DejaVuSans-79" d="M 2059 -325 
Q 1816 -950 1584 -1140 
Q 1353 -1331 966 -1331 
L 506 -1331 
L 506 -850 
L 844 -850 
Q 1081 -850 1212 -737 
Q 1344 -625 1503 -206 
L 1606 56 
L 191 3500 
L 800 3500 
L 1894 763 
L 2988 3500 
L 3597 3500 
L 2059 -325 
z
" transform="scale(0.015625)"/>
     <path id="DejaVuSans-74" d="M 1172 4494 
L 1172 3500 
L 2356 3500 
L 2356 3053 
L 1172 3053 
L 1172 1153 
Q 1172 725 1289 603 
Q 1406 481 1766 481 
L 2356 481 
L 2356 0 
L 1766 0 
Q 1100 0 847 248 
Q 594 497 594 1153 
L 594 3053 
L 172 3053 
L 172 3500 
L 594 3500 
L 594 4494 
L 1172 4494 
z
" transform="scale(0.015625)"/>
     <path id="DejaVuSans-63" d="M 3122 3366 
L 3122 2828 
Q 2878 2963 2633 3030 
Q 2388 3097 2138 3097 
Q 1578 3097 1268 2742 
Q 959 2388 959 1747 
Q 959 1106 1268 751 
Q 1578 397 2138 397 
Q 2388 397 2633 464 
Q 2878 531 3122 666 
L 3122 134 
Q 2881 22 2623 -34 
Q 2366 -91 2075 -91 
Q 1284 -91 818 406 
Q 353 903 353 1747 
Q 353 2603 823 3093 
Q 1294 3584 2113 3584 
Q 2378 3584 2631 3529 
Q 2884 3475 3122 3366 
z
" transform="scale(0.015625)"/>
     <path id="DejaVuSans-68" d="M 3513 2113 
L 3513 0 
L 2938 0 
L 2938 2094 
Q 2938 2591 2744 2837 
Q 2550 3084 2163 3084 
Q 1697 3084 1428 2787 
Q 1159 2491 1159 1978 
L 1159 0 
L 581 0 
L 581 4863 
L 1159 4863 
L 1159 2956 
Q 1366 3272 1645 3428 
Q 1925 3584 2291 3584 
Q 2894 3584 3203 3211 
Q 3513 2838 3513 2113 
z
" transform="scale(0.015625)"/>
    </defs>
    <use xlink:href="#DejaVuSans-65"/>
    <use xlink:href="#DejaVuSans-76" x="61.523438"/>
    <use xlink:href="#DejaVuSans-61" x="120.703125"/>
    <use xlink:href="#DejaVuSans-6c" x="181.982422"/>
    <use xlink:href="#DejaVuSans-3a" x="209.765625"/>
    <use xlink:href="#DejaVuSans-20" x="243.457031"/>
    <use xlink:href="#DejaVuSans-70" x="275.244141"/>
    <use xlink:href="#DejaVuSans-79" x="338.720703"/>
    <use xlink:href="#DejaVuSans-74" x="397.900391"/>
    <use xlink:href="#DejaVuSans-6f" x="437.109375"/>
    <use xlink:href="#DejaVuSans-72" x="498.291016"/>
    <use xlink:href="#DejaVuSans-63" x="537.154297"/>
    <use xlink:href="#DejaVuSans-68" x="592.134766"/>
   </g>
  </g>
 </g>
 <defs>
  <clipPath id="pcec8968538">
   <rect x="55.4625" y="28.442513" width="266.37609" height="163.567352"/>
  </clipPath>
 </defs>
</svg>
