<?xml version="1.0" encoding="utf-8" standalone="no"?>
<!DOCTYPE svg PUBLIC "-//W3C//DTD SVG 1.1//EN"
  "http://www.w3.org/Graphics/SVG/1.1/DTD/svg11.dtd">
<svg xmlns:xlink="http://www.w3.org/1999/xlink" width="656.39952pt" height="224.39952pt" viewBox="0 0 656.39952 224.39952" xmlns="http://www.w3.org/2000/svg" version="1.1">
 <metadata>
  <rdf:RDF xmlns:dc="http://purl.org/dc/elements/1.1/" xmlns:cc="http://creativecommons.org/ns#" xmlns:rdf="http://www.w3.org/1999/02/22-rdf-syntax-ns#">
   <cc:Work>
    <dc:type rdf:resource="http://purl.org/dc/dcmitype/StillImage"/>
    <dc:date>2023-12-05T11:40:44.644210</dc:date>
    <dc:format>image/svg+xml</dc:format>
    <dc:creator>
     <cc:Agent>
      <dc:title>Matplotlib v3.8.2, https://matplotlib.org/</dc:title>
     </cc:Agent>
    </dc:creator>
   </cc:Work>
  </rdf:RDF>
 </metadata>
 <defs>
  <style type="text/css">*{stroke-linejoin: round; stroke-linecap: butt}</style>
 </defs>
 <g id="figure_1">
  <g id="patch_1">
   <path d="M 0 224.39952 
L 656.39952 224.39952 
L 656.39952 0 
L 0 0 
L 0 224.39952 
z
" style="fill: none"/>
  </g>
  <g id="axes_1">
   <g id="patch_2">
    <path d="M 45.3 182.67452 
L 599.10909 182.67452 
L 599.10909 7.2 
L 45.3 7.2 
L 45.3 182.67452 
z
" style="fill: none"/>
   </g>
   <g id="matplotlib.axis_1">
    <g id="xtick_1">
     <g id="line2d_1"/>
     <g id="text_1">
      <!-- 0 -->
      <g style="fill: #838383" transform="translate(66.34814 196.34952) scale(0.1375 -0.1375)">
       <defs>
        <path id="IBMPlexSans-Regular-30" d="M 1920 -77 
Q 1120 -77 752 531 
Q 384 1139 384 2234 
Q 384 3328 752 3936 
Q 1120 4544 1920 4544 
Q 2720 4544 3088 3936 
Q 3456 3328 3456 2234 
Q 3456 1139 3088 531 
Q 2720 -77 1920 -77 
z
M 1920 390 
Q 2182 390 2368 499 
Q 2554 608 2669 806 
Q 2784 1005 2838 1273 
Q 2893 1542 2893 1869 
L 2893 2598 
Q 2893 2925 2838 3193 
Q 2784 3462 2669 3660 
Q 2554 3859 2368 3968 
Q 2182 4077 1920 4077 
Q 1658 4077 1472 3968 
Q 1286 3859 1171 3660 
Q 1056 3462 1001 3193 
Q 947 2925 947 2598 
L 947 1869 
Q 947 1542 1001 1273 
Q 1056 1005 1171 806 
Q 1286 608 1472 499 
Q 1658 390 1920 390 
z
" transform="scale(0.015625)"/>
       </defs>
       <use xlink:href="#IBMPlexSans-Regular-30"/>
      </g>
     </g>
    </g>
    <g id="xtick_2">
     <g id="line2d_2"/>
     <g id="text_2">
      <!-- 1000 -->
      <g style="fill: #838383" transform="translate(155.07009 196.34952) scale(0.1375 -0.1375)">
       <defs>
        <path id="IBMPlexSans-Regular-31" d="M 563 0 
L 563 474 
L 1811 474 
L 1811 4070 
L 1766 4070 
L 640 3021 
L 326 3360 
L 1510 4467 
L 2349 4467 
L 2349 474 
L 3501 474 
L 3501 0 
L 563 0 
z
" transform="scale(0.015625)"/>
       </defs>
       <use xlink:href="#IBMPlexSans-Regular-31"/>
       <use xlink:href="#IBMPlexSans-Regular-30" x="59.999985"/>
       <use xlink:href="#IBMPlexSans-Regular-30" x="119.999969"/>
       <use xlink:href="#IBMPlexSans-Regular-30" x="179.999954"/>
      </g>
     </g>
    </g>
    <g id="xtick_3">
     <g id="line2d_3"/>
     <g id="text_3">
      <!-- 2000 -->
      <g style="fill: #838383" transform="translate(256.16704 196.34952) scale(0.1375 -0.1375)">
       <defs>
        <path id="IBMPlexSans-Regular-32" d="M 3411 0 
L 480 0 
L 480 550 
L 1939 1894 
Q 2253 2182 2464 2505 
Q 2675 2829 2675 3155 
L 2675 3232 
Q 2675 3603 2470 3833 
Q 2266 4064 1850 4064 
Q 1645 4064 1491 4006 
Q 1338 3949 1226 3846 
Q 1114 3744 1040 3606 
Q 966 3469 922 3309 
L 442 3494 
Q 506 3693 618 3881 
Q 730 4070 899 4217 
Q 1069 4365 1309 4454 
Q 1549 4544 1875 4544 
Q 2202 4544 2458 4448 
Q 2714 4352 2886 4179 
Q 3059 4006 3152 3769 
Q 3245 3533 3245 3245 
Q 3245 2982 3171 2758 
Q 3098 2534 2970 2332 
Q 2842 2131 2659 1939 
Q 2477 1747 2266 1555 
L 1062 474 
L 3411 474 
L 3411 0 
z
" transform="scale(0.015625)"/>
       </defs>
       <use xlink:href="#IBMPlexSans-Regular-32"/>
       <use xlink:href="#IBMPlexSans-Regular-30" x="59.999985"/>
       <use xlink:href="#IBMPlexSans-Regular-30" x="119.999969"/>
       <use xlink:href="#IBMPlexSans-Regular-30" x="179.999954"/>
      </g>
     </g>
    </g>
    <g id="xtick_4">
     <g id="line2d_4"/>
     <g id="text_4">
      <!-- 3000 -->
      <g style="fill: #838383" transform="translate(357.263989 196.34952) scale(0.1375 -0.1375)">
       <defs>
        <path id="IBMPlexSans-Regular-33" d="M 1670 2573 
Q 2125 2573 2352 2781 
Q 2579 2989 2579 3315 
L 2579 3360 
Q 2579 3712 2358 3888 
Q 2138 4064 1779 4064 
Q 1434 4064 1216 3913 
Q 998 3763 858 3507 
L 461 3814 
Q 544 3949 662 4080 
Q 781 4211 941 4313 
Q 1101 4416 1312 4480 
Q 1523 4544 1792 4544 
Q 2074 4544 2323 4470 
Q 2573 4397 2755 4253 
Q 2938 4109 3043 3897 
Q 3149 3686 3149 3418 
Q 3149 3200 3081 3027 
Q 3014 2854 2899 2726 
Q 2784 2598 2627 2508 
Q 2470 2419 2291 2374 
L 2291 2349 
Q 2470 2310 2640 2224 
Q 2810 2138 2941 2000 
Q 3072 1862 3152 1667 
Q 3232 1472 3232 1222 
Q 3232 934 3123 694 
Q 3014 454 2816 284 
Q 2618 115 2336 19 
Q 2054 -77 1715 -77 
Q 1427 -77 1203 -13 
Q 979 51 806 160 
Q 634 269 502 403 
Q 371 538 269 685 
L 672 992 
Q 755 858 854 749 
Q 954 640 1075 563 
Q 1197 486 1350 444 
Q 1504 403 1709 403 
Q 2182 403 2425 617 
Q 2669 832 2669 1229 
L 2669 1280 
Q 2669 1677 2425 1891 
Q 2182 2106 1709 2106 
L 1184 2106 
L 1184 2573 
L 1670 2573 
z
" transform="scale(0.015625)"/>
       </defs>
       <use xlink:href="#IBMPlexSans-Regular-33"/>
       <use xlink:href="#IBMPlexSans-Regular-30" x="59.999985"/>
       <use xlink:href="#IBMPlexSans-Regular-30" x="119.999969"/>
       <use xlink:href="#IBMPlexSans-Regular-30" x="179.999954"/>
      </g>
     </g>
    </g>
    <g id="xtick_5">
     <g id="line2d_5"/>
     <g id="text_5">
      <!-- 4000 -->
      <g style="fill: #838383" transform="translate(458.360939 196.34952) scale(0.1375 -0.1375)">
       <defs>
        <path id="IBMPlexSans-Regular-34" d="M 2400 0 
L 2400 877 
L 243 877 
L 243 1350 
L 2112 4467 
L 2912 4467 
L 2912 1325 
L 3558 1325 
L 3558 877 
L 2912 877 
L 2912 0 
L 2400 0 
z
M 749 1325 
L 2400 1325 
L 2400 4051 
L 2368 4051 
L 749 1325 
z
" transform="scale(0.015625)"/>
       </defs>
       <use xlink:href="#IBMPlexSans-Regular-34"/>
       <use xlink:href="#IBMPlexSans-Regular-30" x="59.999985"/>
       <use xlink:href="#IBMPlexSans-Regular-30" x="119.999969"/>
       <use xlink:href="#IBMPlexSans-Regular-30" x="179.999954"/>
      </g>
     </g>
    </g>
    <g id="xtick_6">
     <g id="line2d_6"/>
     <g id="text_6">
      <!-- 5000 -->
      <g style="fill: #838383" transform="translate(559.457889 196.34952) scale(0.1375 -0.1375)">
       <defs>
        <path id="IBMPlexSans-Regular-35" d="M 3187 3994 
L 1229 3994 
L 1101 2291 
L 1146 2291 
Q 1306 2515 1507 2649 
Q 1709 2784 2061 2784 
Q 2349 2784 2592 2688 
Q 2835 2592 3014 2416 
Q 3194 2240 3293 1984 
Q 3392 1728 3392 1402 
Q 3392 1075 3289 803 
Q 3187 531 2992 336 
Q 2797 141 2518 32 
Q 2240 -77 1888 -77 
Q 1606 -77 1392 -13 
Q 1178 51 1011 160 
Q 845 269 720 403 
Q 595 538 493 685 
L 896 992 
Q 979 858 1072 749 
Q 1165 640 1277 563 
Q 1389 486 1536 444 
Q 1683 403 1888 403 
Q 2349 403 2585 646 
Q 2822 890 2822 1331 
L 2822 1395 
Q 2822 1837 2585 2080 
Q 2349 2323 1888 2323 
Q 1581 2323 1405 2211 
Q 1229 2099 1088 1946 
L 634 2010 
L 794 4467 
L 3187 4467 
L 3187 3994 
z
" transform="scale(0.015625)"/>
       </defs>
       <use xlink:href="#IBMPlexSans-Regular-35"/>
       <use xlink:href="#IBMPlexSans-Regular-30" x="59.999985"/>
       <use xlink:href="#IBMPlexSans-Regular-30" x="119.999969"/>
       <use xlink:href="#IBMPlexSans-Regular-30" x="179.999954"/>
      </g>
     </g>
    </g>
    <g id="text_7">
     <!-- Step -->
     <g style="fill: #838383" transform="translate(306.747514 214.19952) scale(0.15 -0.15)">
      <defs>
       <path id="IBMPlexSans-Regular-53" d="M 1850 -77 
Q 1306 -77 922 131 
Q 538 339 269 704 
L 666 1037 
Q 902 723 1190 560 
Q 1478 397 1869 397 
Q 2349 397 2601 627 
Q 2854 858 2854 1242 
Q 2854 1562 2662 1734 
Q 2470 1907 2029 2010 
L 1664 2093 
Q 1050 2234 726 2518 
Q 403 2803 403 3322 
Q 403 3616 512 3846 
Q 621 4077 816 4230 
Q 1011 4384 1283 4464 
Q 1555 4544 1882 4544 
Q 2387 4544 2748 4358 
Q 3110 4173 3360 3814 
L 2957 3520 
Q 2771 3776 2508 3923 
Q 2246 4070 1856 4070 
Q 1427 4070 1180 3888 
Q 934 3706 934 3341 
Q 934 3021 1142 2857 
Q 1350 2694 1773 2598 
L 2138 2515 
Q 2797 2368 3091 2067 
Q 3386 1766 3386 1267 
Q 3386 960 3280 710 
Q 3174 461 2976 288 
Q 2778 115 2493 19 
Q 2208 -77 1850 -77 
z
" transform="scale(0.015625)"/>
       <path id="IBMPlexSans-Regular-74" d="M 1274 0 
Q 1005 0 867 150 
Q 730 301 730 544 
L 730 2854 
L 186 2854 
L 186 3302 
L 493 3302 
Q 659 3302 720 3369 
Q 781 3437 781 3603 
L 781 4218 
L 1242 4218 
L 1242 3302 
L 1965 3302 
L 1965 2854 
L 1242 2854 
L 1242 448 
L 1914 448 
L 1914 0 
L 1274 0 
z
" transform="scale(0.015625)"/>
       <path id="IBMPlexSans-Regular-65" d="M 1786 -77 
Q 1446 -77 1174 44 
Q 902 166 707 393 
Q 512 621 406 937 
Q 301 1254 301 1651 
Q 301 2042 406 2362 
Q 512 2682 707 2909 
Q 902 3136 1174 3257 
Q 1446 3379 1786 3379 
Q 2118 3379 2380 3257 
Q 2643 3136 2828 2921 
Q 3014 2707 3113 2412 
Q 3213 2118 3213 1766 
L 3213 1523 
L 838 1523 
L 838 1370 
Q 838 1158 905 976 
Q 973 794 1097 659 
Q 1222 525 1404 448 
Q 1587 371 1818 371 
Q 2131 371 2364 518 
Q 2598 666 2726 941 
L 3091 678 
Q 2931 339 2592 131 
Q 2253 -77 1786 -77 
z
M 1786 2950 
Q 1574 2950 1401 2876 
Q 1229 2803 1104 2668 
Q 979 2534 908 2352 
Q 838 2170 838 1952 
L 838 1907 
L 2662 1907 
L 2662 1978 
Q 2662 2419 2422 2684 
Q 2182 2950 1786 2950 
z
" transform="scale(0.015625)"/>
       <path id="IBMPlexSans-Regular-70" d="M 544 3302 
L 1056 3302 
L 1056 2765 
L 1082 2765 
Q 1210 3078 1456 3228 
Q 1702 3379 2048 3379 
Q 2355 3379 2604 3257 
Q 2854 3136 3030 2912 
Q 3206 2688 3299 2368 
Q 3392 2048 3392 1651 
Q 3392 1254 3299 934 
Q 3206 614 3030 390 
Q 2854 166 2604 44 
Q 2355 -77 2048 -77 
Q 1376 -77 1082 538 
L 1056 538 
L 1056 -1280 
L 544 -1280 
L 544 3302 
z
M 1907 384 
Q 2342 384 2592 656 
Q 2842 928 2842 1370 
L 2842 1933 
Q 2842 2374 2592 2646 
Q 2342 2918 1907 2918 
Q 1734 2918 1577 2870 
Q 1421 2822 1305 2739 
Q 1190 2656 1123 2537 
Q 1056 2419 1056 2285 
L 1056 1056 
Q 1056 896 1123 771 
Q 1190 646 1305 560 
Q 1421 474 1577 429 
Q 1734 384 1907 384 
z
" transform="scale(0.015625)"/>
      </defs>
      <use xlink:href="#IBMPlexSans-Regular-53"/>
      <use xlink:href="#IBMPlexSans-Regular-74" x="58.099991"/>
      <use xlink:href="#IBMPlexSans-Regular-65" x="93.199982"/>
      <use xlink:href="#IBMPlexSans-Regular-70" x="148.099976"/>
     </g>
    </g>
   </g>
   <g id="matplotlib.axis_2">
    <g id="ytick_1">
     <g id="line2d_7"/>
     <g id="text_8">
      <!-- 0 -->
      <g style="fill: #2196f3" transform="translate(33.55 163.533962) scale(0.1375 -0.1375)">
       <use xlink:href="#IBMPlexSans-Regular-30"/>
      </g>
     </g>
    </g>
    <g id="ytick_2">
     <g id="line2d_8"/>
     <g id="text_9">
      <!-- 20 -->
      <g style="fill: #2196f3" transform="translate(25.3 128.526255) scale(0.1375 -0.1375)">
       <use xlink:href="#IBMPlexSans-Regular-32"/>
       <use xlink:href="#IBMPlexSans-Regular-30" x="59.999985"/>
      </g>
     </g>
    </g>
    <g id="ytick_3">
     <g id="line2d_9"/>
     <g id="text_10">
      <!-- 40 -->
      <g style="fill: #2196f3" transform="translate(25.3 93.518548) scale(0.1375 -0.1375)">
       <use xlink:href="#IBMPlexSans-Regular-34"/>
       <use xlink:href="#IBMPlexSans-Regular-30" x="59.999985"/>
      </g>
     </g>
    </g>
    <g id="ytick_4">
     <g id="line2d_10"/>
     <g id="text_11">
      <!-- 60 -->
      <g style="fill: #2196f3" transform="translate(25.3 58.510841) scale(0.1375 -0.1375)">
       <defs>
        <path id="IBMPlexSans-Regular-36" d="M 1926 -77 
Q 1581 -77 1302 41 
Q 1024 160 829 381 
Q 634 602 531 922 
Q 429 1242 429 1638 
Q 429 2138 576 2576 
Q 723 3014 956 3376 
Q 1190 3738 1472 4016 
Q 1754 4294 2022 4467 
L 2714 4467 
Q 2355 4205 2073 3955 
Q 1792 3706 1581 3434 
Q 1370 3162 1222 2851 
Q 1075 2541 986 2150 
L 1018 2138 
Q 1178 2413 1430 2595 
Q 1683 2778 2093 2778 
Q 2381 2778 2624 2682 
Q 2867 2586 3040 2406 
Q 3213 2227 3312 1971 
Q 3411 1715 3411 1402 
Q 3411 1075 3305 803 
Q 3200 531 3005 336 
Q 2810 141 2534 32 
Q 2259 -77 1926 -77 
z
M 1920 390 
Q 2362 390 2608 633 
Q 2854 877 2854 1331 
L 2854 1382 
Q 2854 1837 2608 2080 
Q 2362 2323 1920 2323 
Q 1478 2323 1232 2080 
Q 986 1837 986 1382 
L 986 1331 
Q 986 877 1232 633 
Q 1478 390 1920 390 
z
" transform="scale(0.015625)"/>
       </defs>
       <use xlink:href="#IBMPlexSans-Regular-36"/>
       <use xlink:href="#IBMPlexSans-Regular-30" x="59.999985"/>
      </g>
     </g>
    </g>
    <g id="ytick_5">
     <g id="line2d_11"/>
     <g id="text_12">
      <!-- 80 -->
      <g style="fill: #2196f3" transform="translate(25.3 23.503134) scale(0.1375 -0.1375)">
       <defs>
        <path id="IBMPlexSans-Regular-38" d="M 1920 -77 
Q 1536 -77 1248 22 
Q 960 122 765 294 
Q 570 467 470 704 
Q 371 941 371 1216 
Q 371 1677 620 1945 
Q 870 2214 1274 2323 
L 1274 2374 
Q 922 2496 714 2768 
Q 506 3040 506 3424 
Q 506 3936 877 4240 
Q 1248 4544 1920 4544 
Q 2592 4544 2963 4240 
Q 3334 3936 3334 3424 
Q 3334 3040 3126 2768 
Q 2918 2496 2566 2374 
L 2566 2323 
Q 2970 2214 3219 1945 
Q 3469 1677 3469 1216 
Q 3469 941 3369 704 
Q 3270 467 3075 294 
Q 2880 122 2592 22 
Q 2304 -77 1920 -77 
z
M 1920 390 
Q 2387 390 2643 598 
Q 2899 806 2899 1190 
L 2899 1325 
Q 2899 1709 2643 1917 
Q 2387 2125 1920 2125 
Q 1453 2125 1197 1917 
Q 941 1709 941 1325 
L 941 1190 
Q 941 806 1197 598 
Q 1453 390 1920 390 
z
M 1920 2573 
Q 2342 2573 2560 2752 
Q 2778 2931 2778 3277 
L 2778 3373 
Q 2778 3718 2560 3897 
Q 2342 4077 1920 4077 
Q 1498 4077 1280 3897 
Q 1062 3718 1062 3373 
L 1062 3277 
Q 1062 2931 1280 2752 
Q 1498 2573 1920 2573 
z
" transform="scale(0.015625)"/>
       </defs>
       <use xlink:href="#IBMPlexSans-Regular-38"/>
       <use xlink:href="#IBMPlexSans-Regular-30" x="59.999985"/>
      </g>
     </g>
    </g>
    <g id="text_13">
     <!-- loss -->
     <g style="fill: #2196f3" transform="translate(18.3 108.482963) rotate(-90) scale(0.15 -0.15)">
      <defs>
       <path id="IBMPlexSans-Regular-6c" d="M 1088 0 
Q 819 0 681 150 
Q 544 301 544 531 
L 544 4736 
L 1056 4736 
L 1056 448 
L 1542 448 
L 1542 0 
L 1088 0 
z
" transform="scale(0.015625)"/>
       <path id="IBMPlexSans-Regular-6f" d="M 1792 -77 
Q 1459 -77 1184 44 
Q 909 166 713 393 
Q 518 621 409 937 
Q 301 1254 301 1651 
Q 301 2042 409 2362 
Q 518 2682 713 2909 
Q 909 3136 1184 3257 
Q 1459 3379 1792 3379 
Q 2125 3379 2397 3257 
Q 2669 3136 2867 2909 
Q 3066 2682 3174 2362 
Q 3283 2042 3283 1651 
Q 3283 1254 3174 937 
Q 3066 621 2867 393 
Q 2669 166 2397 44 
Q 2125 -77 1792 -77 
z
M 1792 378 
Q 2208 378 2470 634 
Q 2733 890 2733 1414 
L 2733 1888 
Q 2733 2413 2470 2669 
Q 2208 2925 1792 2925 
Q 1376 2925 1113 2669 
Q 851 2413 851 1888 
L 851 1414 
Q 851 890 1113 634 
Q 1376 378 1792 378 
z
" transform="scale(0.015625)"/>
       <path id="IBMPlexSans-Regular-73" d="M 1536 -77 
Q 1075 -77 764 99 
Q 454 275 230 570 
L 595 864 
Q 787 621 1024 489 
Q 1261 358 1574 358 
Q 1901 358 2083 499 
Q 2266 640 2266 896 
Q 2266 1088 2141 1225 
Q 2016 1363 1690 1414 
L 1427 1453 
Q 1197 1485 1005 1552 
Q 813 1619 669 1731 
Q 525 1843 445 2009 
Q 365 2176 365 2406 
Q 365 2650 454 2832 
Q 544 3014 701 3136 
Q 858 3258 1075 3318 
Q 1293 3379 1542 3379 
Q 1946 3379 2218 3238 
Q 2490 3098 2694 2848 
L 2355 2541 
Q 2246 2694 2035 2819 
Q 1824 2944 1504 2944 
Q 1184 2944 1021 2806 
Q 858 2669 858 2432 
Q 858 2189 1021 2080 
Q 1184 1971 1491 1920 
L 1747 1882 
Q 2298 1798 2528 1564 
Q 2758 1331 2758 954 
Q 2758 474 2432 198 
Q 2106 -77 1536 -77 
z
" transform="scale(0.015625)"/>
      </defs>
      <use xlink:href="#IBMPlexSans-Regular-6c"/>
      <use xlink:href="#IBMPlexSans-Regular-6f" x="27.199997"/>
      <use xlink:href="#IBMPlexSans-Regular-73" x="83.199982"/>
      <use xlink:href="#IBMPlexSans-Regular-73" x="131.899979"/>
     </g>
    </g>
   </g>
   <g id="line2d_12">
    <path d="M 70.47314 15.176115 
L 72.495079 98.50411 
L 74.517018 132.952192 
L 78.560896 135.693597 
L 86.648652 137.987307 
L 88.670591 137.827954 
L 92.714469 141.29925 
L 98.780286 143.487941 
L 102.824164 143.380414 
L 104.846103 145.002861 
L 106.868042 144.555462 
L 108.889981 146.545497 
L 110.91192 146.140423 
L 112.933859 147.211442 
L 114.955798 149.600645 
L 116.977737 150.090951 
L 118.999676 151.853665 
L 121.021615 150.633597 
L 123.043554 150.774087 
L 125.065493 152.422746 
L 127.087432 150.512983 
L 129.109371 151.156063 
L 133.153249 154.372397 
L 135.175188 154.363171 
L 137.197127 155.8553 
L 139.219066 154.804034 
L 143.262944 156.183698 
L 145.284883 153.41782 
L 147.306822 156.258435 
L 149.328761 154.580865 
L 151.3507 157.390421 
L 161.460395 157.342074 
L 163.482334 158.884873 
L 167.526212 158.202637 
L 171.57009 158.595456 
L 175.613968 158.12485 
L 177.635907 161.185867 
L 181.679785 159.141069 
L 191.78948 161.508269 
L 195.833358 160.565559 
L 199.877236 162.310266 
L 201.899175 160.605103 
L 205.943053 162.969574 
L 207.964992 160.534754 
L 209.986931 162.521512 
L 214.030809 162.423412 
L 216.052748 162.484835 
L 218.074687 163.715387 
L 224.140504 162.411881 
L 226.162443 164.428065 
L 228.184382 162.865511 
L 236.272138 165.467553 
L 238.294077 164.653126 
L 242.337955 165.68264 
L 248.403772 164.366293 
L 252.44765 166.140937 
L 256.491528 165.641538 
L 260.535406 165.286097 
L 264.579284 166.095519 
L 266.601223 165.611528 
L 268.623162 167.738559 
L 270.645101 164.362529 
L 272.66704 166.978447 
L 280.754796 167.070176 
L 282.776735 165.112101 
L 286.820613 168.438429 
L 288.842552 166.795295 
L 290.864491 168.758708 
L 292.88643 167.467133 
L 296.930308 168.76959 
L 298.952247 167.537727 
L 300.974186 168.85667 
L 302.996125 168.516025 
L 305.018064 169.511678 
L 309.061942 169.508895 
L 313.10582 170.7339 
L 317.149698 168.682732 
L 319.171637 171.170727 
L 321.193576 170.810516 
L 325.237454 172.267162 
L 327.259393 168.735236 
L 333.32521 171.121797 
L 335.347149 171.221541 
L 337.369088 172.798581 
L 341.412966 170.157649 
L 345.456844 171.823593 
L 347.478783 171.091411 
L 349.500722 171.933374 
L 353.5446 170.278863 
L 355.566539 172.642911 
L 357.588478 171.527996 
L 359.610417 173.176241 
L 363.654295 170.814234 
L 369.720112 172.057376 
L 371.74205 169.639876 
L 373.763989 171.267583 
L 375.785928 171.32566 
L 377.807867 169.714532 
L 379.829806 172.732477 
L 381.851745 172.277245 
L 383.873684 169.871436 
L 385.895623 172.073493 
L 389.939501 172.471222 
L 391.96144 170.254001 
L 398.027257 173.615071 
L 400.049196 172.338435 
L 402.071135 173.249984 
L 404.093074 170.443187 
L 406.115013 172.47633 
L 410.158891 170.952111 
L 412.18083 171.088597 
L 414.202769 169.467677 
L 416.224708 172.591879 
L 420.268586 170.619056 
L 428.356342 174.52133 
L 432.40022 171.595748 
L 434.422159 172.247505 
L 438.466037 170.95117 
L 440.487976 174.051659 
L 446.553793 172.055665 
L 448.575732 173.479922 
L 450.597671 171.881324 
L 458.685427 173.155975 
L 460.707366 171.274996 
L 462.729305 172.888675 
L 468.795122 171.984155 
L 470.817061 169.845327 
L 472.839 172.360581 
L 474.860939 172.162589 
L 476.882878 173.732001 
L 478.904817 172.527908 
L 480.926756 174.111025 
L 484.970634 172.543402 
L 486.992573 171.806918 
L 491.036451 173.239503 
L 495.080329 172.11973 
L 497.102268 172.772824 
L 499.124207 171.16398 
L 501.146146 174.698405 
L 503.168085 172.778036 
L 505.190024 172.439469 
L 507.211963 173.125547 
L 509.233902 171.405838 
L 517.321658 173.693198 
L 521.365536 173.188993 
L 525.409414 173.188172 
L 531.475231 171.911087 
L 533.49717 170.416148 
L 535.519109 173.550742 
L 537.541048 174.061058 
L 539.562987 171.443751 
L 541.584926 173.398749 
L 543.606865 173.650671 
L 545.628804 170.69386 
L 547.650743 173.11639 
L 551.694621 173.282569 
L 553.71656 172.602279 
L 555.738499 173.390564 
L 559.782377 170.995164 
L 561.804316 174.033003 
L 563.826255 171.626186 
L 565.848194 173.549546 
L 567.870133 171.237759 
L 571.914011 173.012822 
L 573.93595 172.858845 
L 573.93595 172.858845 
" clip-path="url(#p2ae651be54)" style="fill: none; stroke: #2196f3; stroke-opacity: 0.9; stroke-width: 1.5; stroke-linecap: round"/>
   </g>
  </g>
  <g id="axes_2">
   <g id="matplotlib.axis_3">
    <g id="ytick_6">
     <g id="line2d_13"/>
     <g id="text_14">
      <!-- 0.00 -->
      <g style="fill: #ef5350" transform="translate(602.60909 182.795765) scale(0.1375 -0.1375)">
       <defs>
        <path id="IBMPlexSans-Regular-2e" d="M 870 -77 
Q 666 -77 573 25 
Q 480 128 480 294 
L 480 378 
Q 480 544 573 646 
Q 666 749 870 749 
Q 1075 749 1168 646 
Q 1261 544 1261 378 
L 1261 294 
Q 1261 128 1168 25 
Q 1075 -77 870 -77 
z
" transform="scale(0.015625)"/>
       </defs>
       <use xlink:href="#IBMPlexSans-Regular-30"/>
       <use xlink:href="#IBMPlexSans-Regular-2e" x="59.999985"/>
       <use xlink:href="#IBMPlexSans-Regular-30" x="87.199982"/>
       <use xlink:href="#IBMPlexSans-Regular-30" x="147.199966"/>
      </g>
     </g>
    </g>
    <g id="ytick_7">
     <g id="line2d_14"/>
     <g id="text_15">
      <!-- 0.02 -->
      <g style="fill: #ef5350" transform="translate(602.60909 151.974954) scale(0.1375 -0.1375)">
       <use xlink:href="#IBMPlexSans-Regular-30"/>
       <use xlink:href="#IBMPlexSans-Regular-2e" x="59.999985"/>
       <use xlink:href="#IBMPlexSans-Regular-30" x="87.199982"/>
       <use xlink:href="#IBMPlexSans-Regular-32" x="147.199966"/>
      </g>
     </g>
    </g>
    <g id="ytick_8">
     <g id="line2d_15"/>
     <g id="text_16">
      <!-- 0.04 -->
      <g style="fill: #ef5350" transform="translate(602.60909 121.154143) scale(0.1375 -0.1375)">
       <use xlink:href="#IBMPlexSans-Regular-30"/>
       <use xlink:href="#IBMPlexSans-Regular-2e" x="59.999985"/>
       <use xlink:href="#IBMPlexSans-Regular-30" x="87.199982"/>
       <use xlink:href="#IBMPlexSans-Regular-34" x="147.199966"/>
      </g>
     </g>
    </g>
    <g id="ytick_9">
     <g id="line2d_16"/>
     <g id="text_17">
      <!-- 0.06 -->
      <g style="fill: #ef5350" transform="translate(602.60909 90.333331) scale(0.1375 -0.1375)">
       <use xlink:href="#IBMPlexSans-Regular-30"/>
       <use xlink:href="#IBMPlexSans-Regular-2e" x="59.999985"/>
       <use xlink:href="#IBMPlexSans-Regular-30" x="87.199982"/>
       <use xlink:href="#IBMPlexSans-Regular-36" x="147.199966"/>
      </g>
     </g>
    </g>
    <g id="ytick_10">
     <g id="line2d_17"/>
     <g id="text_18">
      <!-- 0.08 -->
      <g style="fill: #ef5350" transform="translate(602.60909 59.51252) scale(0.1375 -0.1375)">
       <use xlink:href="#IBMPlexSans-Regular-30"/>
       <use xlink:href="#IBMPlexSans-Regular-2e" x="59.999985"/>
       <use xlink:href="#IBMPlexSans-Regular-30" x="87.199982"/>
       <use xlink:href="#IBMPlexSans-Regular-38" x="147.199966"/>
      </g>
     </g>
    </g>
    <g id="ytick_11">
     <g id="line2d_18"/>
     <g id="text_19">
      <!-- 0.10 -->
      <g style="fill: #ef5350" transform="translate(602.60909 28.691708) scale(0.1375 -0.1375)">
       <use xlink:href="#IBMPlexSans-Regular-30"/>
       <use xlink:href="#IBMPlexSans-Regular-2e" x="59.999985"/>
       <use xlink:href="#IBMPlexSans-Regular-31" x="87.199982"/>
       <use xlink:href="#IBMPlexSans-Regular-30" x="147.199966"/>
      </g>
     </g>
    </g>
    <g id="text_20">
     <!-- dQint -->
     <g style="fill: #ef5350" transform="translate(646.19952 113.363823) rotate(-90) scale(0.15 -0.15)">
      <defs>
       <path id="IBMPlexSans-Regular-64" d="M 2656 538 
L 2630 538 
Q 2330 -77 1664 -77 
Q 1357 -77 1107 44 
Q 858 166 682 390 
Q 506 614 413 934 
Q 320 1254 320 1651 
Q 320 2048 413 2368 
Q 506 2688 682 2912 
Q 858 3136 1107 3257 
Q 1357 3379 1664 3379 
Q 2010 3379 2256 3228 
Q 2502 3078 2630 2765 
L 2656 2765 
L 2656 4736 
L 3168 4736 
L 3168 0 
L 2656 0 
L 2656 538 
z
M 1805 384 
Q 1978 384 2134 429 
Q 2291 474 2406 560 
Q 2522 646 2589 771 
Q 2656 896 2656 1056 
L 2656 2285 
Q 2656 2419 2589 2537 
Q 2522 2656 2406 2739 
Q 2291 2822 2134 2870 
Q 1978 2918 1805 2918 
Q 1370 2918 1120 2646 
Q 870 2374 870 1933 
L 870 1370 
Q 870 928 1120 656 
Q 1370 384 1805 384 
z
" transform="scale(0.015625)"/>
       <path id="IBMPlexSans-Regular-51" d="M 3251 -1050 
L 2592 -1050 
Q 2323 -1050 2188 -899 
Q 2054 -749 2054 -525 
L 2054 -70 
Q 1670 -32 1356 134 
Q 1043 301 825 592 
Q 608 883 489 1296 
Q 371 1709 371 2234 
Q 371 2797 505 3225 
Q 640 3654 886 3948 
Q 1133 4243 1481 4393 
Q 1830 4544 2266 4544 
Q 2694 4544 3046 4393 
Q 3398 4243 3644 3948 
Q 3891 3654 4025 3225 
Q 4160 2797 4160 2234 
Q 4160 1203 3731 624 
Q 3302 45 2566 -58 
L 2566 -602 
L 3251 -602 
L 3251 -1050 
z
M 2266 403 
Q 2554 403 2797 505 
Q 3040 608 3216 800 
Q 3392 992 3488 1261 
Q 3584 1530 3584 1862 
L 3584 2605 
Q 3584 2938 3488 3206 
Q 3392 3475 3216 3667 
Q 3040 3859 2797 3961 
Q 2554 4064 2266 4064 
Q 1978 4064 1734 3961 
Q 1491 3859 1315 3667 
Q 1139 3475 1043 3206 
Q 947 2938 947 2605 
L 947 1862 
Q 947 1530 1043 1261 
Q 1139 992 1315 800 
Q 1491 608 1734 505 
Q 1978 403 2266 403 
z
" transform="scale(0.015625)"/>
       <path id="IBMPlexSans-Regular-69" d="M 800 4077 
Q 634 4077 560 4157 
Q 486 4237 486 4365 
L 486 4448 
Q 486 4576 560 4656 
Q 634 4736 800 4736 
Q 966 4736 1040 4656 
Q 1114 4576 1114 4448 
L 1114 4365 
Q 1114 4237 1040 4157 
Q 966 4077 800 4077 
z
M 544 3302 
L 1056 3302 
L 1056 0 
L 544 0 
L 544 3302 
z
" transform="scale(0.015625)"/>
       <path id="IBMPlexSans-Regular-6e" d="M 544 0 
L 544 3302 
L 1056 3302 
L 1056 2765 
L 1082 2765 
Q 1203 3046 1424 3212 
Q 1645 3379 2016 3379 
Q 2528 3379 2825 3049 
Q 3123 2720 3123 2118 
L 3123 0 
L 2611 0 
L 2611 2029 
Q 2611 2918 1862 2918 
Q 1709 2918 1565 2880 
Q 1421 2842 1305 2765 
Q 1190 2688 1123 2569 
Q 1056 2451 1056 2291 
L 1056 0 
L 544 0 
z
" transform="scale(0.015625)"/>
      </defs>
      <use xlink:href="#IBMPlexSans-Regular-64"/>
      <use xlink:href="#IBMPlexSans-Regular-51" x="57.999985"/>
      <use xlink:href="#IBMPlexSans-Regular-69" x="128.799973"/>
      <use xlink:href="#IBMPlexSans-Regular-6e" x="153.799957"/>
      <use xlink:href="#IBMPlexSans-Regular-74" x="210.599945"/>
     </g>
    </g>
   </g>
   <g id="line2d_19">
    <path d="M 70.47314 174.698405 
L 74.517018 158.143952 
L 76.538957 166.420965 
L 78.560896 162.658671 
L 80.582835 164.1636 
L 82.604774 167.173428 
L 84.626713 162.658656 
L 88.670591 163.4111 
L 92.714469 156.638975 
L 94.736408 157.391431 
L 96.758347 153.629128 
L 100.802225 158.896342 
L 102.824164 152.124174 
L 104.846103 157.391411 
L 106.868042 154.381563 
L 108.889981 159.64879 
L 110.91192 155.886483 
L 112.933859 155.886474 
L 114.955798 158.143855 
L 116.977737 145.352017 
L 118.999676 150.619237 
L 121.021615 146.104481 
L 123.043554 145.352003 
L 125.065493 140.084768 
L 127.087432 143.847066 
L 129.109371 143.847074 
L 133.153249 138.579814 
L 135.175188 143.84704 
L 137.197127 142.342129 
L 139.219066 133.312594 
L 141.241005 139.332273 
L 143.262944 136.322408 
L 145.284883 140.084748 
L 147.306822 124.283031 
L 149.328761 133.312577 
L 151.3507 133.31256 
L 153.372639 125.787959 
L 155.394578 143.094544 
L 157.416517 122.778114 
L 159.438456 131.055153 
L 161.460395 133.312534 
L 163.482334 112.996096 
L 165.504273 121.273192 
L 167.526212 124.283025 
L 169.548151 123.530524 
L 171.57009 138.579745 
L 173.592029 128.045291 
L 177.635907 123.530535 
L 185.723663 121.273146 
L 187.745602 113.748545 
L 189.767541 125.035464 
L 191.78948 108.481317 
L 193.811419 115.253468 
L 195.833358 105.47146 
L 197.855297 108.481305 
L 199.877236 109.233767 
L 201.899175 116.005918 
L 203.921114 100.956682 
L 205.943053 106.223916 
L 207.964992 102.461616 
L 209.986931 100.956705 
L 212.00887 113.748522 
L 214.030809 91.174674 
L 216.052748 101.70916 
L 218.074687 100.956687 
L 220.096626 103.214088 
L 222.118565 103.214077 
L 224.140504 100.20422 
L 226.162443 90.422242 
L 228.184382 93.432087 
L 230.206321 102.461644 
L 232.22826 79.887802 
L 234.250199 99.451805 
L 236.272138 99.451771 
L 238.294077 85.90748 
L 240.316016 111.491185 
L 242.337955 94.184554 
L 244.359894 91.174726 
L 246.381833 92.679649 
L 248.403772 103.214134 
L 250.425711 94.184565 
L 252.44765 94.184542 
L 254.469589 82.89763 
L 256.491528 97.194387 
L 258.513467 89.669798 
L 260.535406 99.451782 
L 262.557345 97.946877 
L 264.579284 82.897624 
L 266.601223 95.689459 
L 268.623162 96.441937 
L 270.645101 87.41242 
L 274.688979 82.89763 
L 276.710918 79.135318 
L 278.732857 88.164864 
L 282.776735 92.67966 
L 286.820613 69.353322 
L 288.842552 88.164858 
L 290.864491 67.848434 
L 292.88643 76.125485 
L 294.908369 91.17472 
L 296.930308 72.36319 
L 298.952247 85.155002 
L 300.974186 67.848388 
L 302.996125 77.630395 
L 307.040003 63.333644 
L 309.061942 70.858256 
L 313.10582 69.353322 
L 315.127759 73.115628 
L 317.149698 73.115628 
L 319.171637 69.353311 
L 321.193576 79.135306 
L 323.215515 58.818854 
L 325.237454 67.095927 
L 327.259393 66.343466 
L 329.281332 79.887756 
L 333.32521 36.997524 
L 335.347149 46.779486 
L 337.369088 64.086071 
L 339.391027 57.31392 
L 341.412966 54.304098 
L 343.434905 75.373012 
L 345.456844 55.056582 
L 347.478783 63.333632 
L 349.500722 41.512269 
L 351.522661 55.056582 
L 353.5446 44.522125 
L 355.566539 41.512257 
L 357.588478 52.046703 
L 359.610417 49.78933 
L 361.632356 37.749963 
L 363.654295 63.333621 
L 365.676234 43.769641 
L 367.698173 55.056559 
L 369.720112 37.749928 
L 371.74205 64.086094 
L 373.763989 49.78933 
L 375.785928 48.284397 
L 377.807867 38.502412 
L 379.829806 42.264695 
L 381.851745 49.036858 
L 383.873684 51.29423 
L 385.895623 56.56147 
L 387.917562 36.997513 
L 389.939501 33.987668 
L 391.96144 36.245017 
L 393.983379 51.294241 
L 396.005318 53.551614 
L 398.027257 43.017157 
L 400.049196 48.284408 
L 402.071135 36.245006 
L 404.093074 58.818865 
L 406.115013 46.027024 
L 408.136952 51.294241 
L 410.158891 52.799152 
L 412.18083 61.828687 
L 414.202769 48.284408 
L 416.224708 46.779486 
L 418.246647 36.997467 
L 420.268586 57.313897 
L 424.312464 43.01718 
L 426.334403 39.25485 
L 428.356342 22.700704 
L 430.378281 46.027001 
L 432.40022 30.977766 
L 436.444098 43.769618 
L 438.466037 50.541792 
L 440.487976 34.740106 
L 442.509915 32.482734 
L 444.531854 49.789285 
L 446.553793 49.78933 
L 448.575732 36.997467 
L 450.597671 38.502412 
L 452.61961 38.502389 
L 456.663488 35.492567 
L 458.685427 54.304086 
L 460.707366 52.799152 
L 462.729305 43.769652 
L 464.751244 52.046703 
L 468.795122 38.502378 
L 470.817061 40.759761 
L 472.839 41.512234 
L 474.860939 46.779463 
L 476.882878 43.769618 
L 478.904817 34.740106 
L 480.926756 32.482711 
L 482.948695 38.502401 
L 484.970634 34.740106 
L 489.014512 43.017168 
L 491.036451 26.463021 
L 493.05839 46.779463 
L 495.080329 47.531947 
L 497.102268 40.007335 
L 499.124207 59.571326 
L 501.146146 18.185959 
L 503.168085 46.779474 
L 505.190024 30.9778 
L 507.211963 26.463033 
L 509.233902 40.759819 
L 511.255841 42.264707 
L 513.27778 67.848342 
L 515.299719 42.264695 
L 517.321658 43.769629 
L 519.343597 40.007335 
L 521.365536 26.46301 
L 523.387475 40.0073 
L 525.409414 36.997455 
L 529.453292 52.046691 
L 531.475231 30.225339 
L 533.49717 40.759773 
L 535.519109 41.512257 
L 537.541048 29.472843 
L 539.562987 35.492567 
L 541.584926 15.176115 
L 543.606865 46.027001 
L 545.628804 33.235195 
L 547.650743 34.740083 
L 549.672682 30.225327 
L 551.694621 16.681003 
L 553.71656 16.681025 
L 555.738499 31.73025 
L 557.760438 27.967955 
L 559.782377 45.27454 
L 561.804316 24.958087 
L 563.826255 29.472866 
L 565.848194 24.205649 
L 567.870133 33.987633 
L 569.892072 38.502389 
L 571.914011 40.007335 
L 573.93595 26.46301 
L 573.93595 26.46301 
" clip-path="url(#p2ae651be54)" style="fill: none; stroke: #ef5350; stroke-opacity: 0.9; stroke-width: 1.5; stroke-linecap: round"/>
   </g>
  </g>
 </g>
 <defs>
  <clipPath id="p2ae651be54">
   <rect x="45.3" y="7.2" width="553.80909" height="175.47452"/>
  </clipPath>
 </defs>
</svg>
