<?xml version="1.0" encoding="utf-8" standalone="no"?>
<!DOCTYPE svg PUBLIC "-//W3C//DTD SVG 1.1//EN"
  "http://www.w3.org/Graphics/SVG/1.1/DTD/svg11.dtd">
<svg xmlns:xlink="http://www.w3.org/1999/xlink" width="227.457016pt" height="174.899688pt" viewBox="0 0 227.457016 174.899688" xmlns="http://www.w3.org/2000/svg" version="1.1">
 <metadata>
  <rdf:RDF xmlns:dc="http://purl.org/dc/elements/1.1/" xmlns:cc="http://creativecommons.org/ns#" xmlns:rdf="http://www.w3.org/1999/02/22-rdf-syntax-ns#">
   <cc:Work>
    <dc:type rdf:resource="http://purl.org/dc/dcmitype/StillImage"/>
    <dc:date>2023-12-05T11:41:47.871421</dc:date>
    <dc:format>image/svg+xml</dc:format>
    <dc:creator>
     <cc:Agent>
      <dc:title>Matplotlib v3.8.2, https://matplotlib.org/</dc:title>
     </cc:Agent>
    </dc:creator>
   </cc:Work>
  </rdf:RDF>
 </metadata>
 <defs>
  <style type="text/css">*{stroke-linejoin: round; stroke-linecap: butt}</style>
 </defs>
 <g id="figure_1">
  <g id="patch_1">
   <path d="M 0 174.899688 
L 227.457016 174.899688 
L 227.457016 0 
L 0 0 
L 0 174.899688 
z
" style="fill: none"/>
  </g>
  <g id="axes_1">
   <g id="patch_2">
    <path d="M 7.2 48.78 
L 216.45 48.78 
L 216.45 7.2 
L 7.2 7.2 
L 7.2 48.78 
z
" style="fill: none"/>
   </g>
   <g id="matplotlib.axis_1">
    <g id="xtick_1"/>
    <g id="xtick_2"/>
    <g id="xtick_3"/>
    <g id="xtick_4"/>
    <g id="xtick_5"/>
   </g>
   <g id="matplotlib.axis_2"/>
   <g id="line2d_1">
    <path d="M 7.2 48.78 
L 216.45 48.78 
" style="fill: none; stroke: #21918c; stroke-opacity: 0.9; stroke-linecap: round"/>
   </g>
   <g id="text_1">
    <!-- 0 -->
    <g style="fill: #21918c" transform="translate(7.2 47.93325) scale(0.12 -0.12)">
     <defs>
      <path id="DejaVuSans-Bold-30" d="M 2944 2338 
Q 2944 3213 2780 3570 
Q 2616 3928 2228 3928 
Q 1841 3928 1675 3570 
Q 1509 3213 1509 2338 
Q 1509 1453 1675 1090 
Q 1841 728 2228 728 
Q 2613 728 2778 1090 
Q 2944 1453 2944 2338 
z
M 4147 2328 
Q 4147 1169 3647 539 
Q 3147 -91 2228 -91 
Q 1306 -91 806 539 
Q 306 1169 306 2328 
Q 306 3491 806 4120 
Q 1306 4750 2228 4750 
Q 3147 4750 3647 4120 
Q 4147 3491 4147 2328 
z
" transform="scale(0.015625)"/>
     </defs>
     <use xlink:href="#DejaVuSans-Bold-30"/>
    </g>
   </g>
  </g>
  <g id="axes_2">
   <g id="patch_3">
    <path d="M 7.2 59.175 
L 216.45 59.175 
L 216.45 17.595 
L 7.2 17.595 
L 7.2 59.175 
z
" style="fill: none"/>
   </g>
   <g id="matplotlib.axis_3">
    <g id="xtick_6"/>
    <g id="xtick_7"/>
    <g id="xtick_8"/>
    <g id="xtick_9"/>
    <g id="xtick_10"/>
   </g>
   <g id="matplotlib.axis_4"/>
   <g id="line2d_2">
    <path d="M 7.2 59.175 
L 216.45 59.175 
" style="fill: none; stroke: #21918c; stroke-opacity: 0.9; stroke-linecap: round"/>
   </g>
   <g id="text_2">
    <!-- 1 -->
    <g style="fill: #21918c" transform="translate(7.2 58.32825) scale(0.12 -0.12)">
     <defs>
      <path id="DejaVuSans-Bold-31" d="M 750 831 
L 1813 831 
L 1813 3847 
L 722 3622 
L 722 4441 
L 1806 4666 
L 2950 4666 
L 2950 831 
L 4013 831 
L 4013 0 
L 750 0 
L 750 831 
z
" transform="scale(0.015625)"/>
     </defs>
     <use xlink:href="#DejaVuSans-Bold-31"/>
    </g>
   </g>
  </g>
  <g id="axes_3">
   <g id="patch_4">
    <path d="M 7.2 69.57 
L 216.45 69.57 
L 216.45 27.99 
L 7.2 27.99 
L 7.2 69.57 
z
" style="fill: none"/>
   </g>
   <g id="matplotlib.axis_5">
    <g id="xtick_11"/>
    <g id="xtick_12"/>
    <g id="xtick_13"/>
    <g id="xtick_14"/>
    <g id="xtick_15"/>
   </g>
   <g id="matplotlib.axis_6"/>
   <g id="line2d_3">
    <path d="M 7.2 69.57 
L 216.45 69.57 
" style="fill: none; stroke: #21918c; stroke-opacity: 0.9; stroke-linecap: round"/>
   </g>
   <g id="text_3">
    <!-- 2 -->
    <g style="fill: #21918c" transform="translate(7.2 68.72325) scale(0.12 -0.12)">
     <defs>
      <path id="DejaVuSans-Bold-32" d="M 1844 884 
L 3897 884 
L 3897 0 
L 506 0 
L 506 884 
L 2209 2388 
Q 2438 2594 2547 2791 
Q 2656 2988 2656 3200 
Q 2656 3528 2436 3728 
Q 2216 3928 1850 3928 
Q 1569 3928 1234 3808 
Q 900 3688 519 3450 
L 519 4475 
Q 925 4609 1322 4679 
Q 1719 4750 2100 4750 
Q 2938 4750 3402 4381 
Q 3866 4013 3866 3353 
Q 3866 2972 3669 2642 
Q 3472 2313 2841 1759 
L 1844 884 
z
" transform="scale(0.015625)"/>
     </defs>
     <use xlink:href="#DejaVuSans-Bold-32"/>
    </g>
   </g>
  </g>
  <g id="axes_4">
   <g id="patch_5">
    <path d="M 7.2 79.965 
L 216.45 79.965 
L 216.45 38.385 
L 7.2 38.385 
L 7.2 79.965 
z
" style="fill: none"/>
   </g>
   <g id="matplotlib.axis_7">
    <g id="xtick_16"/>
    <g id="xtick_17"/>
    <g id="xtick_18"/>
    <g id="xtick_19"/>
    <g id="xtick_20"/>
   </g>
   <g id="matplotlib.axis_8"/>
   <g id="line2d_4">
    <path d="M 7.2 79.965 
L 216.45 79.965 
" style="fill: none; stroke: #21918c; stroke-opacity: 0.9; stroke-linecap: round"/>
   </g>
   <g id="text_4">
    <!-- 3 -->
    <g style="fill: #21918c" transform="translate(7.2 79.11825) scale(0.12 -0.12)">
     <defs>
      <path id="DejaVuSans-Bold-33" d="M 2981 2516 
Q 3453 2394 3698 2092 
Q 3944 1791 3944 1325 
Q 3944 631 3412 270 
Q 2881 -91 1863 -91 
Q 1503 -91 1142 -33 
Q 781 25 428 141 
L 428 1069 
Q 766 900 1098 814 
Q 1431 728 1753 728 
Q 2231 728 2486 893 
Q 2741 1059 2741 1369 
Q 2741 1688 2480 1852 
Q 2219 2016 1709 2016 
L 1228 2016 
L 1228 2791 
L 1734 2791 
Q 2188 2791 2409 2933 
Q 2631 3075 2631 3366 
Q 2631 3634 2415 3781 
Q 2200 3928 1806 3928 
Q 1516 3928 1219 3862 
Q 922 3797 628 3669 
L 628 4550 
Q 984 4650 1334 4700 
Q 1684 4750 2022 4750 
Q 2931 4750 3382 4451 
Q 3834 4153 3834 3553 
Q 3834 3144 3618 2883 
Q 3403 2622 2981 2516 
z
" transform="scale(0.015625)"/>
     </defs>
     <use xlink:href="#DejaVuSans-Bold-33"/>
    </g>
   </g>
  </g>
  <g id="axes_5">
   <g id="patch_6">
    <path d="M 7.2 90.36 
L 216.45 90.36 
L 216.45 48.78 
L 7.2 48.78 
L 7.2 90.36 
z
" style="fill: none"/>
   </g>
   <g id="matplotlib.axis_9">
    <g id="xtick_21"/>
    <g id="xtick_22"/>
    <g id="xtick_23"/>
    <g id="xtick_24"/>
    <g id="xtick_25"/>
   </g>
   <g id="matplotlib.axis_10"/>
   <g id="line2d_5">
    <path d="M 7.2 90.36 
L 216.45 90.36 
" style="fill: none; stroke: #21918c; stroke-opacity: 0.9; stroke-linecap: round"/>
   </g>
   <g id="text_5">
    <!-- 4 -->
    <g style="fill: #21918c" transform="translate(7.2 89.51325) scale(0.12 -0.12)">
     <defs>
      <path id="DejaVuSans-Bold-34" d="M 2356 3675 
L 1038 1722 
L 2356 1722 
L 2356 3675 
z
M 2156 4666 
L 3494 4666 
L 3494 1722 
L 4159 1722 
L 4159 850 
L 3494 850 
L 3494 0 
L 2356 0 
L 2356 850 
L 288 850 
L 288 1881 
L 2156 4666 
z
" transform="scale(0.015625)"/>
     </defs>
     <use xlink:href="#DejaVuSans-Bold-34"/>
    </g>
   </g>
  </g>
  <g id="axes_6">
   <g id="patch_7">
    <path d="M 7.2 100.755 
L 216.45 100.755 
L 216.45 59.175 
L 7.2 59.175 
L 7.2 100.755 
z
" style="fill: none"/>
   </g>
   <g id="matplotlib.axis_11">
    <g id="xtick_26"/>
    <g id="xtick_27"/>
    <g id="xtick_28"/>
    <g id="xtick_29"/>
    <g id="xtick_30"/>
   </g>
   <g id="matplotlib.axis_12"/>
   <g id="PolyCollection_1">
    <defs>
     <path id="m3a4c98ac69" d="M 130.893967 -74.165455 
L 130.893967 -74.144688 
L 131.158273 -74.144688 
L 131.422578 -74.144688 
L 131.686884 -74.144688 
L 131.95119 -74.144688 
L 132.215496 -74.144688 
L 132.479801 -74.144688 
L 132.744107 -74.144688 
L 133.008413 -74.144688 
L 133.272719 -74.144688 
L 133.537024 -74.144688 
L 133.80133 -74.144688 
L 134.065636 -74.144688 
L 134.329941 -74.144688 
L 134.594247 -74.144688 
L 134.858553 -74.144688 
L 135.122859 -74.144688 
L 135.387164 -74.144688 
L 135.65147 -74.144688 
L 135.915776 -74.144688 
L 136.180081 -74.144688 
L 136.444387 -74.144688 
L 136.708693 -74.144688 
L 136.972999 -74.144688 
L 137.237304 -74.144688 
L 137.50161 -74.144688 
L 137.765916 -74.144688 
L 138.030222 -74.144688 
L 138.294527 -74.144688 
L 138.558833 -74.144688 
L 138.823139 -74.144688 
L 139.087444 -74.144688 
L 139.35175 -74.144688 
L 139.616056 -74.144688 
L 139.880362 -74.144688 
L 140.144667 -74.144688 
L 140.408973 -74.144688 
L 140.673279 -74.144688 
L 140.937584 -74.144688 
L 141.20189 -74.144688 
L 141.466196 -74.144688 
L 141.730502 -74.144688 
L 141.994807 -74.144688 
L 142.259113 -74.144688 
L 142.523419 -74.144688 
L 142.787725 -74.144688 
L 143.05203 -74.144688 
L 143.316336 -74.144688 
L 143.580642 -74.144688 
L 143.844947 -74.144688 
L 144.109253 -74.144688 
L 144.373559 -74.144688 
L 144.637865 -74.144688 
L 144.90217 -74.144688 
L 145.166476 -74.144688 
L 145.430782 -74.144688 
L 145.695087 -74.144688 
L 145.959393 -74.144688 
L 146.223699 -74.144688 
L 146.488005 -74.144688 
L 146.75231 -74.144688 
L 147.016616 -74.144688 
L 147.280922 -74.144688 
L 147.545227 -74.144688 
L 147.809533 -74.144688 
L 148.073839 -74.144688 
L 148.338145 -74.144688 
L 148.60245 -74.144688 
L 148.866756 -74.144688 
L 149.131062 -74.144688 
L 149.395368 -74.144688 
L 149.659673 -74.144688 
L 149.923979 -74.144688 
L 150.188285 -74.144688 
L 150.45259 -74.144688 
L 150.716896 -74.144688 
L 150.981202 -74.144688 
L 151.245508 -74.144688 
L 151.509813 -74.144688 
L 151.774119 -74.144688 
L 152.038425 -74.144688 
L 152.30273 -74.144688 
L 152.567036 -74.144688 
L 152.831342 -74.144688 
L 153.095648 -74.144688 
L 153.359953 -74.144688 
L 153.624259 -74.144688 
L 153.888565 -74.144688 
L 154.152871 -74.144688 
L 154.417176 -74.144688 
L 154.681482 -74.144688 
L 154.945788 -74.144688 
L 155.210093 -74.144688 
L 155.474399 -74.144688 
L 155.738705 -74.144688 
L 156.003011 -74.144688 
L 156.267316 -74.144688 
L 156.531622 -74.144688 
L 156.795928 -74.144688 
L 157.060233 -74.144688 
L 157.324539 -74.144688 
L 157.588845 -74.144688 
L 157.853151 -74.144688 
L 158.117456 -74.144688 
L 158.381762 -74.144688 
L 158.646068 -74.144688 
L 158.910374 -74.144688 
L 159.174679 -74.144688 
L 159.438985 -74.144688 
L 159.703291 -74.144688 
L 159.967596 -74.144688 
L 160.231902 -74.144688 
L 160.496208 -74.144688 
L 160.760514 -74.144688 
L 161.024819 -74.144688 
L 161.289125 -74.144688 
L 161.553431 -74.144688 
L 161.817736 -74.144688 
L 162.082042 -74.144688 
L 162.346348 -74.144688 
L 162.610654 -74.144688 
L 162.874959 -74.144688 
L 163.139265 -74.144688 
L 163.403571 -74.144688 
L 163.667877 -74.144688 
L 163.932182 -74.144688 
L 164.196488 -74.144688 
L 164.460794 -74.144688 
L 164.725099 -74.144688 
L 164.989405 -74.144688 
L 165.253711 -74.144688 
L 165.518017 -74.144688 
L 165.782322 -74.144688 
L 166.046628 -74.144688 
L 166.310934 -74.144688 
L 166.575239 -74.144688 
L 166.839545 -74.144688 
L 167.103851 -74.144688 
L 167.368157 -74.144688 
L 167.632462 -74.144688 
L 167.896768 -74.144688 
L 168.161074 -74.144688 
L 168.42538 -74.144688 
L 168.689685 -74.144688 
L 168.953991 -74.144688 
L 169.218297 -74.144688 
L 169.482602 -74.144688 
L 169.746908 -74.144688 
L 170.011214 -74.144688 
L 170.27552 -74.144688 
L 170.539825 -74.144688 
L 170.804131 -74.144688 
L 171.068437 -74.144688 
L 171.332742 -74.144688 
L 171.597048 -74.144688 
L 171.861354 -74.144688 
L 172.12566 -74.144688 
L 172.389965 -74.144688 
L 172.654271 -74.144688 
L 172.918577 -74.144688 
L 173.182883 -74.144688 
L 173.447188 -74.144688 
L 173.711494 -74.144688 
L 173.9758 -74.144688 
L 174.240105 -74.144688 
L 174.504411 -74.144688 
L 174.768717 -74.144688 
L 175.033023 -74.144688 
L 175.297328 -74.144688 
L 175.561634 -74.144688 
L 175.82594 -74.144688 
L 176.090245 -74.144688 
L 176.354551 -74.144688 
L 176.618857 -74.144688 
L 176.883163 -74.144688 
L 177.147468 -74.144688 
L 177.411774 -74.144688 
L 177.67608 -74.144688 
L 177.940386 -74.144688 
L 178.204691 -74.144688 
L 178.468997 -74.144688 
L 178.733303 -74.144688 
L 178.997608 -74.144688 
L 179.261914 -74.144688 
L 179.52622 -74.144688 
L 179.790526 -74.144688 
L 180.054831 -74.144688 
L 180.319137 -74.144688 
L 180.583443 -74.144688 
L 180.847748 -74.144688 
L 181.112054 -74.144688 
L 181.37636 -74.144688 
L 181.640666 -74.144688 
L 181.904971 -74.144688 
L 182.169277 -74.144688 
L 182.433583 -74.144688 
L 182.697888 -74.144688 
L 182.962194 -74.144688 
L 183.2265 -74.144688 
L 183.490806 -74.144688 
L 183.490806 -74.169901 
L 183.490806 -74.169901 
L 183.2265 -74.178117 
L 182.962194 -74.187486 
L 182.697888 -74.19778 
L 182.433583 -74.208692 
L 182.169277 -74.219815 
L 181.904971 -74.230608 
L 181.640666 -74.240389 
L 181.37636 -74.248392 
L 181.112054 -74.253931 
L 180.847748 -74.256651 
L 180.583443 -74.256816 
L 180.319137 -74.255534 
L 180.054831 -74.254831 
L 179.790526 -74.257499 
L 179.52622 -74.266731 
L 179.261914 -74.285583 
L 178.997608 -74.316381 
L 178.733303 -74.360205 
L 178.468997 -74.41659 
L 178.204691 -74.483549 
L 177.940386 -74.55796 
L 177.67608 -74.636281 
L 177.411774 -74.715418 
L 177.147468 -74.793548 
L 176.883163 -74.87063 
L 176.618857 -74.948443 
L 176.354551 -75.030125 
L 176.090245 -75.119363 
L 175.82594 -75.219558 
L 175.561634 -75.333282 
L 175.297328 -75.462258 
L 175.033023 -75.607862 
L 174.768717 -75.771909 
L 174.504411 -75.95738 
L 174.240105 -76.168759 
L 173.9758 -76.41186 
L 173.711494 -76.693229 
L 173.447188 -77.019374 
L 173.182883 -77.396102 
L 172.918577 -77.828153 
L 172.654271 -78.319226 
L 172.389965 -78.872394 
L 172.12566 -79.490897 
L 171.861354 -80.179201 
L 171.597048 -80.944086 
L 171.332742 -81.795292 
L 171.068437 -82.745173 
L 170.804131 -83.806921 
L 170.539825 -84.991404 
L 170.27552 -86.303326 
L 170.011214 -87.737936 
L 169.746908 -89.279624 
L 169.482602 -90.90321 
L 169.218297 -92.577762 
L 168.953991 -94.271785 
L 168.689685 -95.958011 
L 168.42538 -97.616148 
L 168.161074 -99.232719 
L 167.896768 -100.798214 
L 167.632462 -102.302789 
L 167.368157 -103.732251 
L 167.103851 -105.066061 
L 166.839545 -106.278436 
L 166.575239 -107.342665 
L 166.310934 -108.237594 
L 166.046628 -108.95427 
L 165.782322 -109.500341 
L 165.518017 -109.90028 
L 165.253711 -110.190778 
L 164.989405 -110.412425 
L 164.725099 -110.60022 
L 164.460794 -110.775992 
L 164.196488 -110.945167 
L 163.932182 -111.098741 
L 163.667877 -111.219602 
L 163.403571 -111.29101 
L 163.139265 -111.304581 
L 162.874959 -111.265522 
L 162.610654 -111.193748 
L 162.346348 -111.120733 
L 162.082042 -111.083013 
L 161.817736 -111.114105 
L 161.553431 -111.236965 
L 161.289125 -111.45886 
L 161.024819 -111.76978 
L 160.760514 -112.14448 
L 160.496208 -112.547296 
L 160.231902 -112.938313 
L 159.967596 -113.279479 
L 159.703291 -113.539596 
L 159.438985 -113.697693 
L 159.174679 -113.744688 
L 158.910374 -113.683414 
L 158.646068 -113.527135 
L 158.381762 -113.296644 
L 158.117456 -113.016261 
L 157.853151 -112.709354 
L 157.588845 -112.394374 
L 157.324539 -112.082401 
L 157.060233 -111.776839 
L 156.795928 -111.475077 
L 156.531622 -111.171134 
L 156.267316 -110.857913 
L 156.003011 -110.527963 
L 155.738705 -110.172551 
L 155.474399 -109.779822 
L 155.210093 -109.333511 
L 154.945788 -108.813501 
L 154.681482 -108.198764 
L 154.417176 -107.472018 
L 154.152871 -106.624661 
L 153.888565 -105.660251 
L 153.624259 -104.595389 
L 153.359953 -103.457819 
L 153.095648 -102.28244 
L 152.831342 -101.106408 
L 152.567036 -99.964394 
L 152.30273 -98.884635 
L 152.038425 -97.886019 
L 151.774119 -96.976269 
L 151.509813 -96.151384 
L 151.245508 -95.396537 
L 150.981202 -94.688579 
L 150.716896 -93.99995 
L 150.45259 -93.303442 
L 150.188285 -92.576974 
L 149.923979 -91.807443 
L 149.659673 -90.992842 
L 149.395368 -90.142153 
L 149.131062 -89.272934 
L 148.866756 -88.407098 
L 148.60245 -87.56591 
L 148.338145 -86.765546 
L 148.073839 -86.014491 
L 147.809533 -85.313484 
L 147.545227 -84.657794 
L 147.280922 -84.040799 
L 147.016616 -83.457345 
L 146.75231 -82.905545 
L 146.488005 -82.386457 
L 146.223699 -81.902046 
L 145.959393 -81.452589 
L 145.695087 -81.034928 
L 145.430782 -80.642446 
L 145.166476 -80.266825 
L 144.90217 -79.900711 
L 144.637865 -79.540007 
L 144.373559 -79.184704 
L 144.109253 -78.837894 
L 143.844947 -78.503507 
L 143.580642 -78.183901 
L 143.316336 -77.87848 
L 143.05203 -77.583922 
L 142.787725 -77.29584 
L 142.523419 -77.011021 
L 142.259113 -76.729173 
L 141.994807 -76.453453 
L 141.730502 -76.189643 
L 141.466196 -75.944405 
L 141.20189 -75.723382 
L 140.937584 -75.52983 
L 140.673279 -75.364112 
L 140.408973 -75.224038 
L 140.144667 -75.105732 
L 139.880362 -75.004646 
L 139.616056 -74.91641 
L 139.35175 -74.837412 
L 139.087444 -74.765088 
L 138.823139 -74.697983 
L 138.558833 -74.635637 
L 138.294527 -74.578305 
L 138.030222 -74.526554 
L 137.765916 -74.480811 
L 137.50161 -74.440994 
L 137.237304 -74.406371 
L 136.972999 -74.375699 
L 136.708693 -74.347613 
L 136.444387 -74.321067 
L 136.180081 -74.295668 
L 135.915776 -74.271732 
L 135.65147 -74.250071 
L 135.387164 -74.231602 
L 135.122859 -74.216963 
L 134.858553 -74.206277 
L 134.594247 -74.19913 
L 134.329941 -74.194743 
L 134.065636 -74.192231 
L 133.80133 -74.190826 
L 133.537024 -74.190001 
L 133.272719 -74.189451 
L 133.008413 -74.188988 
L 132.744107 -74.188426 
L 132.479801 -74.187517 
L 132.215496 -74.185965 
L 131.95119 -74.183514 
L 131.686884 -74.180052 
L 131.422578 -74.175673 
L 131.158273 -74.170667 
L 130.893967 -74.165455 
z
" style="stroke: #2a788e; stroke-width: 1.25"/>
    </defs>
    <g>
     <use xlink:href="#m3a4c98ac69" x="0" y="174.899688" style="fill: #2a788e; fill-opacity: 0.7; stroke: #2a788e; stroke-width: 1.25"/>
    </g>
   </g>
   <g id="line2d_6">
    <path d="M 7.2 100.755 
L 216.45 100.755 
" style="fill: none; stroke: #2a788e; stroke-opacity: 0.9; stroke-linecap: round"/>
   </g>
   <g id="text_6">
    <!-- 5 -->
    <g style="fill: #2a788e" transform="translate(7.2 99.90825) scale(0.12 -0.12)">
     <defs>
      <path id="DejaVuSans-Bold-35" d="M 678 4666 
L 3669 4666 
L 3669 3781 
L 1638 3781 
L 1638 3059 
Q 1775 3097 1914 3117 
Q 2053 3138 2203 3138 
Q 3056 3138 3531 2711 
Q 4006 2284 4006 1522 
Q 4006 766 3489 337 
Q 2972 -91 2053 -91 
Q 1656 -91 1267 -14 
Q 878 63 494 219 
L 494 1166 
Q 875 947 1217 837 
Q 1559 728 1863 728 
Q 2300 728 2551 942 
Q 2803 1156 2803 1522 
Q 2803 1891 2551 2103 
Q 2300 2316 1863 2316 
Q 1603 2316 1309 2248 
Q 1016 2181 678 2041 
L 678 4666 
z
" transform="scale(0.015625)"/>
     </defs>
     <use xlink:href="#DejaVuSans-Bold-35"/>
    </g>
   </g>
  </g>
  <g id="axes_7">
   <g id="patch_8">
    <path d="M 7.2 111.15 
L 216.45 111.15 
L 216.45 69.57 
L 7.2 69.57 
L 7.2 111.15 
z
" style="fill: none"/>
   </g>
   <g id="matplotlib.axis_13">
    <g id="xtick_31"/>
    <g id="xtick_32"/>
    <g id="xtick_33"/>
    <g id="xtick_34"/>
    <g id="xtick_35"/>
   </g>
   <g id="matplotlib.axis_14"/>
   <g id="PolyCollection_2">
    <defs>
     <path id="m8e30e3aeef" d="M 100.018464 -63.819066 
L 100.018464 -63.749688 
L 100.448674 -63.749688 
L 100.878884 -63.749688 
L 101.309094 -63.749688 
L 101.739304 -63.749688 
L 102.169514 -63.749688 
L 102.599724 -63.749688 
L 103.029934 -63.749688 
L 103.460144 -63.749688 
L 103.890354 -63.749688 
L 104.320564 -63.749688 
L 104.750774 -63.749688 
L 105.180984 -63.749688 
L 105.611194 -63.749688 
L 106.041404 -63.749688 
L 106.471614 -63.749688 
L 106.901824 -63.749688 
L 107.332034 -63.749688 
L 107.762244 -63.749688 
L 108.192454 -63.749688 
L 108.622664 -63.749688 
L 109.052873 -63.749688 
L 109.483083 -63.749688 
L 109.913293 -63.749688 
L 110.343503 -63.749688 
L 110.773713 -63.749688 
L 111.203923 -63.749688 
L 111.634133 -63.749688 
L 112.064343 -63.749688 
L 112.494553 -63.749688 
L 112.924763 -63.749688 
L 113.354973 -63.749688 
L 113.785183 -63.749688 
L 114.215393 -63.749688 
L 114.645603 -63.749688 
L 115.075813 -63.749688 
L 115.506023 -63.749688 
L 115.936233 -63.749688 
L 116.366443 -63.749688 
L 116.796653 -63.749688 
L 117.226863 -63.749688 
L 117.657073 -63.749688 
L 118.087283 -63.749688 
L 118.517493 -63.749688 
L 118.947702 -63.749688 
L 119.377912 -63.749688 
L 119.808122 -63.749688 
L 120.238332 -63.749688 
L 120.668542 -63.749688 
L 121.098752 -63.749688 
L 121.528962 -63.749688 
L 121.959172 -63.749688 
L 122.389382 -63.749688 
L 122.819592 -63.749688 
L 123.249802 -63.749688 
L 123.680012 -63.749688 
L 124.110222 -63.749688 
L 124.540432 -63.749688 
L 124.970642 -63.749688 
L 125.400852 -63.749688 
L 125.831062 -63.749688 
L 126.261272 -63.749688 
L 126.691482 -63.749688 
L 127.121692 -63.749688 
L 127.551902 -63.749688 
L 127.982112 -63.749688 
L 128.412322 -63.749688 
L 128.842532 -63.749688 
L 129.272741 -63.749688 
L 129.702951 -63.749688 
L 130.133161 -63.749688 
L 130.563371 -63.749688 
L 130.993581 -63.749688 
L 131.423791 -63.749688 
L 131.854001 -63.749688 
L 132.284211 -63.749688 
L 132.714421 -63.749688 
L 133.144631 -63.749688 
L 133.574841 -63.749688 
L 134.005051 -63.749688 
L 134.435261 -63.749688 
L 134.865471 -63.749688 
L 135.295681 -63.749688 
L 135.725891 -63.749688 
L 136.156101 -63.749688 
L 136.586311 -63.749688 
L 137.016521 -63.749688 
L 137.446731 -63.749688 
L 137.876941 -63.749688 
L 138.307151 -63.749688 
L 138.737361 -63.749688 
L 139.16757 -63.749688 
L 139.59778 -63.749688 
L 140.02799 -63.749688 
L 140.4582 -63.749688 
L 140.88841 -63.749688 
L 141.31862 -63.749688 
L 141.74883 -63.749688 
L 142.17904 -63.749688 
L 142.60925 -63.749688 
L 143.03946 -63.749688 
L 143.46967 -63.749688 
L 143.89988 -63.749688 
L 144.33009 -63.749688 
L 144.7603 -63.749688 
L 145.19051 -63.749688 
L 145.62072 -63.749688 
L 146.05093 -63.749688 
L 146.48114 -63.749688 
L 146.91135 -63.749688 
L 147.34156 -63.749688 
L 147.77177 -63.749688 
L 148.20198 -63.749688 
L 148.63219 -63.749688 
L 149.062399 -63.749688 
L 149.492609 -63.749688 
L 149.922819 -63.749688 
L 150.353029 -63.749688 
L 150.783239 -63.749688 
L 151.213449 -63.749688 
L 151.643659 -63.749688 
L 152.073869 -63.749688 
L 152.504079 -63.749688 
L 152.934289 -63.749688 
L 153.364499 -63.749688 
L 153.794709 -63.749688 
L 154.224919 -63.749688 
L 154.655129 -63.749688 
L 155.085339 -63.749688 
L 155.515549 -63.749688 
L 155.945759 -63.749688 
L 156.375969 -63.749688 
L 156.806179 -63.749688 
L 157.236389 -63.749688 
L 157.666599 -63.749688 
L 158.096809 -63.749688 
L 158.527019 -63.749688 
L 158.957228 -63.749688 
L 159.387438 -63.749688 
L 159.817648 -63.749688 
L 160.247858 -63.749688 
L 160.678068 -63.749688 
L 161.108278 -63.749688 
L 161.538488 -63.749688 
L 161.968698 -63.749688 
L 162.398908 -63.749688 
L 162.829118 -63.749688 
L 163.259328 -63.749688 
L 163.689538 -63.749688 
L 164.119748 -63.749688 
L 164.549958 -63.749688 
L 164.980168 -63.749688 
L 165.410378 -63.749688 
L 165.840588 -63.749688 
L 166.270798 -63.749688 
L 166.701008 -63.749688 
L 167.131218 -63.749688 
L 167.561428 -63.749688 
L 167.991638 -63.749688 
L 168.421848 -63.749688 
L 168.852058 -63.749688 
L 169.282267 -63.749688 
L 169.712477 -63.749688 
L 170.142687 -63.749688 
L 170.572897 -63.749688 
L 171.003107 -63.749688 
L 171.433317 -63.749688 
L 171.863527 -63.749688 
L 172.293737 -63.749688 
L 172.723947 -63.749688 
L 173.154157 -63.749688 
L 173.584367 -63.749688 
L 174.014577 -63.749688 
L 174.444787 -63.749688 
L 174.874997 -63.749688 
L 175.305207 -63.749688 
L 175.735417 -63.749688 
L 176.165627 -63.749688 
L 176.595837 -63.749688 
L 177.026047 -63.749688 
L 177.456257 -63.749688 
L 177.886467 -63.749688 
L 178.316677 -63.749688 
L 178.746887 -63.749688 
L 179.177096 -63.749688 
L 179.607306 -63.749688 
L 180.037516 -63.749688 
L 180.467726 -63.749688 
L 180.897936 -63.749688 
L 181.328146 -63.749688 
L 181.758356 -63.749688 
L 182.188566 -63.749688 
L 182.618776 -63.749688 
L 183.048986 -63.749688 
L 183.479196 -63.749688 
L 183.909406 -63.749688 
L 184.339616 -63.749688 
L 184.769826 -63.749688 
L 185.200036 -63.749688 
L 185.630246 -63.749688 
L 185.630246 -63.774729 
L 185.630246 -63.774729 
L 185.200036 -63.780578 
L 184.769826 -63.786979 
L 184.339616 -63.793808 
L 183.909406 -63.800927 
L 183.479196 -63.808198 
L 183.048986 -63.815497 
L 182.618776 -63.822719 
L 182.188566 -63.829777 
L 181.758356 -63.836592 
L 181.328146 -63.843082 
L 180.897936 -63.849152 
L 180.467726 -63.854689 
L 180.037516 -63.85957 
L 179.607306 -63.863687 
L 179.177096 -63.866975 
L 178.746887 -63.869462 
L 178.316677 -63.871308 
L 177.886467 -63.872848 
L 177.456257 -63.874613 
L 177.026047 -63.877347 
L 176.595837 -63.881992 
L 176.165627 -63.889666 
L 175.735417 -63.901619 
L 175.305207 -63.919187 
L 174.874997 -63.943748 
L 174.444787 -63.976675 
L 174.014577 -64.019316 
L 173.584367 -64.07297 
L 173.154157 -64.138889 
L 172.723947 -64.218274 
L 172.293737 -64.312267 
L 171.863527 -64.421918 
L 171.433317 -64.548134 
L 171.003107 -64.691578 
L 170.572897 -64.852561 
L 170.142687 -65.030906 
L 169.712477 -65.22583 
L 169.282267 -65.435862 
L 168.852058 -65.658811 
L 168.421848 -65.89182 
L 167.991638 -66.131481 
L 167.561428 -66.374024 
L 167.131218 -66.615546 
L 166.701008 -66.852247 
L 166.270798 -67.080656 
L 165.840588 -67.297806 
L 165.410378 -67.501359 
L 164.980168 -67.689648 
L 164.549958 -67.861661 
L 164.119748 -68.016974 
L 163.689538 -68.15563 
L 163.259328 -68.278014 
L 162.829118 -68.384723 
L 162.398908 -68.476458 
L 161.968698 -68.55396 
L 161.538488 -68.617989 
L 161.108278 -68.669347 
L 160.678068 -68.70893 
L 160.247858 -68.7378 
L 159.817648 -68.757237 
L 159.387438 -68.768766 
L 158.957228 -68.774148 
L 158.527019 -68.775319 
L 158.096809 -68.774305 
L 157.666599 -68.7731 
L 157.236389 -68.773544 
L 156.806179 -68.777193 
L 156.375969 -68.785206 
L 155.945759 -68.798244 
L 155.515549 -68.816401 
L 155.085339 -68.839179 
L 154.655129 -68.865504 
L 154.224919 -68.893806 
L 153.794709 -68.922157 
L 153.364499 -68.948463 
L 152.934289 -68.970686 
L 152.504079 -68.987084 
L 152.073869 -68.996425 
L 151.643659 -68.99815 
L 151.213449 -68.992462 
L 150.783239 -68.980317 
L 150.353029 -68.963322 
L 149.922819 -68.943541 
L 149.492609 -68.923235 
L 149.062399 -68.904566 
L 148.63219 -68.88931 
L 148.20198 -68.878611 
L 147.77177 -68.87282 
L 147.34156 -68.871443 
L 146.91135 -68.873209 
L 146.48114 -68.876257 
L 146.05093 -68.878409 
L 145.62072 -68.877515 
L 145.19051 -68.871796 
L 144.7603 -68.860163 
L 144.33009 -68.842448 
L 143.89988 -68.819525 
L 143.46967 -68.793301 
L 143.03946 -68.766559 
L 142.60925 -68.742697 
L 142.17904 -68.72537 
L 141.74883 -68.718107 
L 141.31862 -68.72393 
L 140.88841 -68.745059 
L 140.4582 -68.782711 
L 140.02799 -68.837044 
L 139.59778 -68.907229 
L 139.16757 -68.991636 
L 138.737361 -69.088086 
L 138.307151 -69.194141 
L 137.876941 -69.307366 
L 137.446731 -69.425559 
L 137.016521 -69.54691 
L 136.586311 -69.670133 
L 136.156101 -69.794553 
L 135.725891 -69.920191 
L 135.295681 -70.04785 
L 134.865471 -70.179197 
L 134.435261 -70.316824 
L 134.005051 -70.464252 
L 133.574841 -70.625861 
L 133.144631 -70.806711 
L 132.714421 -71.012274 
L 132.284211 -71.248095 
L 131.854001 -71.519426 
L 131.423791 -71.830888 
L 130.993581 -72.186218 
L 130.563371 -72.588127 
L 130.133161 -73.038304 
L 129.702951 -73.537536 
L 129.272741 -74.085943 
L 128.842532 -74.683272 
L 128.412322 -75.329218 
L 127.982112 -76.023728 
L 127.551902 -76.76726 
L 127.121692 -77.560952 
L 126.691482 -78.406699 
L 126.261272 -79.307099 
L 125.831062 -80.265276 
L 125.400852 -81.284561 
L 124.970642 -82.368039 
L 124.540432 -83.517992 
L 124.110222 -84.735248 
L 123.680012 -86.018483 
L 123.249802 -87.363528 
L 122.819592 -88.762724 
L 122.389382 -90.204398 
L 121.959172 -91.67252 
L 121.528962 -93.146613 
L 121.098752 -94.601975 
L 120.668542 -96.01025 
L 120.238332 -97.340359 
L 119.808122 -98.559758 
L 119.377912 -99.635945 
L 118.947702 -100.538091 
L 118.517493 -101.238662 
L 118.087283 -101.714874 
L 117.657073 -101.949837 
L 117.226863 -101.933312 
L 116.796653 -101.662014 
L 116.366443 -101.139463 
L 115.936233 -100.375461 
L 115.506023 -99.385265 
L 115.075813 -98.188583 
L 114.645603 -96.808494 
L 114.215393 -95.270412 
L 113.785183 -93.60113 
L 113.354973 -91.828015 
L 112.924763 -89.978348 
L 112.494553 -88.078797 
L 112.064343 -86.155013 
L 111.634133 -84.231302 
L 111.203923 -82.330366 
L 110.773713 -80.473084 
L 110.343503 -78.678319 
L 109.913293 -76.962749 
L 109.483083 -75.340713 
L 109.052873 -73.824072 
L 108.622664 -72.422088 
L 108.192454 -71.141322 
L 107.762244 -69.985575 
L 107.332034 -68.955881 
L 106.901824 -68.050576 
L 106.471614 -67.265459 
L 106.041404 -66.594059 
L 105.611194 -66.028007 
L 105.180984 -65.557489 
L 104.750774 -65.17177 
L 104.320564 -64.859726 
L 103.890354 -64.610356 
L 103.460144 -64.413223 
L 103.029934 -64.258802 
L 102.599724 -64.138698 
L 102.169514 -64.04576 
L 101.739304 -63.97408 
L 101.309094 -63.918902 
L 100.878884 -63.876489 
L 100.448674 -63.843949 
L 100.018464 -63.819066 
z
" style="stroke: #355f8d; stroke-width: 1.25"/>
    </defs>
    <g>
     <use xlink:href="#m8e30e3aeef" x="0" y="174.899688" style="fill: #355f8d; fill-opacity: 0.7; stroke: #355f8d; stroke-width: 1.25"/>
    </g>
   </g>
   <g id="line2d_7">
    <path d="M 7.2 111.15 
L 216.45 111.15 
" style="fill: none; stroke: #355f8d; stroke-opacity: 0.9; stroke-linecap: round"/>
   </g>
   <g id="text_7">
    <!-- 6 -->
    <g style="fill: #355f8d" transform="translate(7.2 110.30325) scale(0.12 -0.12)">
     <defs>
      <path id="DejaVuSans-Bold-36" d="M 2316 2303 
Q 2000 2303 1842 2098 
Q 1684 1894 1684 1484 
Q 1684 1075 1842 870 
Q 2000 666 2316 666 
Q 2634 666 2792 870 
Q 2950 1075 2950 1484 
Q 2950 1894 2792 2098 
Q 2634 2303 2316 2303 
z
M 3803 4544 
L 3803 3681 
Q 3506 3822 3243 3889 
Q 2981 3956 2731 3956 
Q 2194 3956 1894 3657 
Q 1594 3359 1544 2772 
Q 1750 2925 1990 3001 
Q 2231 3078 2516 3078 
Q 3231 3078 3670 2659 
Q 4109 2241 4109 1563 
Q 4109 813 3618 361 
Q 3128 -91 2303 -91 
Q 1394 -91 895 523 
Q 397 1138 397 2266 
Q 397 3422 980 4083 
Q 1563 4744 2578 4744 
Q 2900 4744 3203 4694 
Q 3506 4644 3803 4544 
z
" transform="scale(0.015625)"/>
     </defs>
     <use xlink:href="#DejaVuSans-Bold-36"/>
    </g>
   </g>
  </g>
  <g id="axes_8">
   <g id="patch_9">
    <path d="M 7.2 121.545 
L 216.45 121.545 
L 216.45 79.965 
L 7.2 79.965 
L 7.2 121.545 
z
" style="fill: none"/>
   </g>
   <g id="matplotlib.axis_15">
    <g id="xtick_36"/>
    <g id="xtick_37"/>
    <g id="xtick_38"/>
    <g id="xtick_39"/>
    <g id="xtick_40"/>
   </g>
   <g id="matplotlib.axis_16"/>
   <g id="PolyCollection_3">
    <defs>
     <path id="m6a927e3626" d="M 47.28308 -53.488333 
L 47.28308 -53.354688 
L 48.04189 -53.354688 
L 48.800701 -53.354688 
L 49.559512 -53.354688 
L 50.318323 -53.354688 
L 51.077134 -53.354688 
L 51.835944 -53.354688 
L 52.594755 -53.354688 
L 53.353566 -53.354688 
L 54.112377 -53.354688 
L 54.871187 -53.354688 
L 55.629998 -53.354688 
L 56.388809 -53.354688 
L 57.14762 -53.354688 
L 57.90643 -53.354688 
L 58.665241 -53.354688 
L 59.424052 -53.354688 
L 60.182863 -53.354688 
L 60.941673 -53.354688 
L 61.700484 -53.354688 
L 62.459295 -53.354688 
L 63.218106 -53.354688 
L 63.976916 -53.354688 
L 64.735727 -53.354688 
L 65.494538 -53.354688 
L 66.253349 -53.354688 
L 67.01216 -53.354688 
L 67.77097 -53.354688 
L 68.529781 -53.354688 
L 69.288592 -53.354688 
L 70.047403 -53.354688 
L 70.806213 -53.354688 
L 71.565024 -53.354688 
L 72.323835 -53.354688 
L 73.082646 -53.354688 
L 73.841456 -53.354688 
L 74.600267 -53.354688 
L 75.359078 -53.354688 
L 76.117889 -53.354688 
L 76.876699 -53.354688 
L 77.63551 -53.354688 
L 78.394321 -53.354688 
L 79.153132 -53.354688 
L 79.911943 -53.354688 
L 80.670753 -53.354688 
L 81.429564 -53.354688 
L 82.188375 -53.354688 
L 82.947186 -53.354688 
L 83.705996 -53.354688 
L 84.464807 -53.354688 
L 85.223618 -53.354688 
L 85.982429 -53.354688 
L 86.741239 -53.354688 
L 87.50005 -53.354688 
L 88.258861 -53.354688 
L 89.017672 -53.354688 
L 89.776482 -53.354688 
L 90.535293 -53.354688 
L 91.294104 -53.354688 
L 92.052915 -53.354688 
L 92.811725 -53.354688 
L 93.570536 -53.354688 
L 94.329347 -53.354688 
L 95.088158 -53.354688 
L 95.846969 -53.354688 
L 96.605779 -53.354688 
L 97.36459 -53.354688 
L 98.123401 -53.354688 
L 98.882212 -53.354688 
L 99.641022 -53.354688 
L 100.399833 -53.354688 
L 101.158644 -53.354688 
L 101.917455 -53.354688 
L 102.676265 -53.354688 
L 103.435076 -53.354688 
L 104.193887 -53.354688 
L 104.952698 -53.354688 
L 105.711508 -53.354688 
L 106.470319 -53.354688 
L 107.22913 -53.354688 
L 107.987941 -53.354688 
L 108.746751 -53.354688 
L 109.505562 -53.354688 
L 110.264373 -53.354688 
L 111.023184 -53.354688 
L 111.781995 -53.354688 
L 112.540805 -53.354688 
L 113.299616 -53.354688 
L 114.058427 -53.354688 
L 114.817238 -53.354688 
L 115.576048 -53.354688 
L 116.334859 -53.354688 
L 117.09367 -53.354688 
L 117.852481 -53.354688 
L 118.611291 -53.354688 
L 119.370102 -53.354688 
L 120.128913 -53.354688 
L 120.887724 -53.354688 
L 121.646534 -53.354688 
L 122.405345 -53.354688 
L 123.164156 -53.354688 
L 123.922967 -53.354688 
L 124.681777 -53.354688 
L 125.440588 -53.354688 
L 126.199399 -53.354688 
L 126.95821 -53.354688 
L 127.717021 -53.354688 
L 128.475831 -53.354688 
L 129.234642 -53.354688 
L 129.993453 -53.354688 
L 130.752264 -53.354688 
L 131.511074 -53.354688 
L 132.269885 -53.354688 
L 133.028696 -53.354688 
L 133.787507 -53.354688 
L 134.546317 -53.354688 
L 135.305128 -53.354688 
L 136.063939 -53.354688 
L 136.82275 -53.354688 
L 137.58156 -53.354688 
L 138.340371 -53.354688 
L 139.099182 -53.354688 
L 139.857993 -53.354688 
L 140.616803 -53.354688 
L 141.375614 -53.354688 
L 142.134425 -53.354688 
L 142.893236 -53.354688 
L 143.652047 -53.354688 
L 144.410857 -53.354688 
L 145.169668 -53.354688 
L 145.928479 -53.354688 
L 146.68729 -53.354688 
L 147.4461 -53.354688 
L 148.204911 -53.354688 
L 148.963722 -53.354688 
L 149.722533 -53.354688 
L 150.481343 -53.354688 
L 151.240154 -53.354688 
L 151.998965 -53.354688 
L 152.757776 -53.354688 
L 153.516586 -53.354688 
L 154.275397 -53.354688 
L 155.034208 -53.354688 
L 155.793019 -53.354688 
L 156.55183 -53.354688 
L 157.31064 -53.354688 
L 158.069451 -53.354688 
L 158.828262 -53.354688 
L 159.587073 -53.354688 
L 160.345883 -53.354688 
L 161.104694 -53.354688 
L 161.863505 -53.354688 
L 162.622316 -53.354688 
L 163.381126 -53.354688 
L 164.139937 -53.354688 
L 164.898748 -53.354688 
L 165.657559 -53.354688 
L 166.416369 -53.354688 
L 167.17518 -53.354688 
L 167.933991 -53.354688 
L 168.692802 -53.354688 
L 169.451612 -53.354688 
L 170.210423 -53.354688 
L 170.969234 -53.354688 
L 171.728045 -53.354688 
L 172.486856 -53.354688 
L 173.245666 -53.354688 
L 174.004477 -53.354688 
L 174.763288 -53.354688 
L 175.522099 -53.354688 
L 176.280909 -53.354688 
L 177.03972 -53.354688 
L 177.798531 -53.354688 
L 178.557342 -53.354688 
L 179.316152 -53.354688 
L 180.074963 -53.354688 
L 180.833774 -53.354688 
L 181.592585 -53.354688 
L 182.351395 -53.354688 
L 183.110206 -53.354688 
L 183.869017 -53.354688 
L 184.627828 -53.354688 
L 185.386638 -53.354688 
L 186.145449 -53.354688 
L 186.90426 -53.354688 
L 187.663071 -53.354688 
L 188.421882 -53.354688 
L 189.180692 -53.354688 
L 189.939503 -53.354688 
L 190.698314 -53.354688 
L 191.457125 -53.354688 
L 192.215935 -53.354688 
L 192.974746 -53.354688 
L 193.733557 -53.354688 
L 194.492368 -53.354688 
L 195.251178 -53.354688 
L 196.009989 -53.354688 
L 196.7688 -53.354688 
L 197.527611 -53.354688 
L 198.286421 -53.354688 
L 198.286421 -53.359732 
L 198.286421 -53.359732 
L 197.527611 -53.360669 
L 196.7688 -53.36168 
L 196.009989 -53.36276 
L 195.251178 -53.363909 
L 194.492368 -53.365134 
L 193.733557 -53.366452 
L 192.974746 -53.367889 
L 192.215935 -53.369482 
L 191.457125 -53.371274 
L 190.698314 -53.373317 
L 189.939503 -53.375666 
L 189.180692 -53.37838 
L 188.421882 -53.38152 
L 187.663071 -53.385149 
L 186.90426 -53.389341 
L 186.145449 -53.394182 
L 185.386638 -53.399783 
L 184.627828 -53.40629 
L 183.869017 -53.413901 
L 183.110206 -53.422875 
L 182.351395 -53.433554 
L 181.592585 -53.446371 
L 180.833774 -53.461861 
L 180.074963 -53.480675 
L 179.316152 -53.503576 
L 178.557342 -53.531442 
L 177.798531 -53.565256 
L 177.03972 -53.606093 
L 176.280909 -53.655095 
L 175.522099 -53.713436 
L 174.763288 -53.782284 
L 174.004477 -53.86274 
L 173.245666 -53.955779 
L 172.486856 -54.062171 
L 171.728045 -54.182404 
L 170.969234 -54.316602 
L 170.210423 -54.464455 
L 169.451612 -54.625159 
L 168.692802 -54.797383 
L 167.933991 -54.979269 
L 167.17518 -55.168466 
L 166.416369 -55.362208 
L 165.657559 -55.55742 
L 164.898748 -55.750867 
L 164.139937 -55.939307 
L 163.381126 -56.119661 
L 162.622316 -56.28916 
L 161.863505 -56.445477 
L 161.104694 -56.586815 
L 160.345883 -56.711963 
L 159.587073 -56.820297 
L 158.828262 -56.911758 
L 158.069451 -56.986785 
L 157.31064 -57.046244 
L 156.55183 -57.091337 
L 155.793019 -57.123512 
L 155.034208 -57.144383 
L 154.275397 -57.155651 
L 153.516586 -57.159033 
L 152.757776 -57.156208 
L 151.998965 -57.148755 
L 151.240154 -57.138108 
L 150.481343 -57.125516 
L 149.722533 -57.112012 
L 148.963722 -57.0984 
L 148.204911 -57.085252 
L 147.4461 -57.072922 
L 146.68729 -57.061579 
L 145.928479 -57.051247 
L 145.169668 -57.041856 
L 144.410857 -57.033288 
L 143.652047 -57.025424 
L 142.893236 -57.018179 
L 142.134425 -57.011525 
L 141.375614 -57.005495 
L 140.616803 -57.000179 
L 139.857993 -56.995706 
L 139.099182 -56.992209 
L 138.340371 -56.989803 
L 137.58156 -56.988544 
L 136.82275 -56.988412 
L 136.063939 -56.989289 
L 135.305128 -56.990958 
L 134.546317 -56.993117 
L 133.787507 -56.995393 
L 133.028696 -56.997378 
L 132.269885 -56.998666 
L 131.511074 -56.998883 
L 130.752264 -56.997723 
L 129.993453 -56.994968 
L 129.234642 -56.990499 
L 128.475831 -56.984297 
L 127.717021 -56.976435 
L 126.95821 -56.967058 
L 126.199399 -56.956368 
L 125.440588 -56.944602 
L 124.681777 -56.932011 
L 123.922967 -56.918846 
L 123.164156 -56.905344 
L 122.405345 -56.891721 
L 121.646534 -56.878171 
L 120.887724 -56.864866 
L 120.128913 -56.851973 
L 119.370102 -56.839674 
L 118.611291 -56.828197 
L 117.852481 -56.817863 
L 117.09367 -56.809127 
L 116.334859 -56.802636 
L 115.576048 -56.799267 
L 114.817238 -56.800162 
L 114.058427 -56.806728 
L 113.299616 -56.82062 
L 112.540805 -56.843683 
L 111.781995 -56.87787 
L 111.023184 -56.925118 
L 110.264373 -56.98722 
L 109.505562 -57.06568 
L 108.746751 -57.161572 
L 107.987941 -57.275418 
L 107.22913 -57.407105 
L 106.470319 -57.555827 
L 105.711508 -57.720091 
L 104.952698 -57.897765 
L 104.193887 -58.08617 
L 103.435076 -58.282221 
L 102.676265 -58.482588 
L 101.917455 -58.683882 
L 101.158644 -58.882842 
L 100.399833 -59.076508 
L 99.641022 -59.262376 
L 98.882212 -59.438529 
L 98.123401 -59.603731 
L 97.36459 -59.757485 
L 96.605779 -59.900065 
L 95.846969 -60.03251 
L 95.088158 -60.156599 
L 94.329347 -60.274794 
L 93.570536 -60.390171 
L 92.811725 -60.506335 
L 92.052915 -60.627324 
L 91.294104 -60.757506 
L 90.535293 -60.901487 
L 89.776482 -61.064008 
L 89.017672 -61.249857 
L 88.258861 -61.463778 
L 87.50005 -61.710376 
L 86.741239 -61.994001 
L 85.982429 -62.318614 
L 85.223618 -62.687604 
L 84.464807 -63.103567 
L 83.705996 -63.568038 
L 82.947186 -64.081184 
L 82.188375 -64.641492 
L 81.429564 -65.245459 
L 80.670753 -65.887337 
L 79.911943 -66.558969 
L 79.153132 -67.249737 
L 78.394321 -67.946662 
L 77.63551 -68.634674 
L 76.876699 -69.297034 
L 76.117889 -69.915913 
L 75.359078 -70.473085 
L 74.600267 -70.950703 
L 73.841456 -71.332095 
L 73.082646 -71.602539 
L 72.323835 -71.74995 
L 71.565024 -71.765458 
L 70.806213 -71.643806 
L 70.047403 -71.383584 
L 69.288592 -70.987267 
L 68.529781 -70.461068 
L 67.77097 -69.814635 
L 67.01216 -69.060609 
L 66.253349 -68.214088 
L 65.494538 -67.292012 
L 64.735727 -66.312527 
L 63.976916 -65.294345 
L 63.218106 -64.256116 
L 62.459295 -63.215852 
L 61.700484 -62.190413 
L 60.941673 -61.195054 
L 60.182863 -60.243072 
L 59.424052 -59.345535 
L 58.665241 -58.511119 
L 57.90643 -57.746044 
L 57.14762 -57.054107 
L 56.388809 -56.436815 
L 55.629998 -55.893595 
L 54.871187 -55.422067 
L 54.112377 -55.018369 
L 53.353566 -54.677499 
L 52.594755 -54.393668 
L 51.835944 -54.160631 
L 51.077134 -53.971992 
L 50.318323 -53.821458 
L 49.559512 -53.70305 
L 48.800701 -53.611256 
L 48.04189 -53.541126 
L 47.28308 -53.488333 
z
" style="stroke: #414487; stroke-width: 1.25"/>
    </defs>
    <g>
     <use xlink:href="#m6a927e3626" x="0" y="174.899688" style="fill: #414487; fill-opacity: 0.7; stroke: #414487; stroke-width: 1.25"/>
    </g>
   </g>
   <g id="line2d_8">
    <path d="M 7.2 121.545 
L 216.45 121.545 
" style="fill: none; stroke: #414487; stroke-opacity: 0.9; stroke-linecap: round"/>
   </g>
   <g id="text_8">
    <!-- 7 -->
    <g style="fill: #414487" transform="translate(7.2 120.69825) scale(0.12 -0.12)">
     <defs>
      <path id="DejaVuSans-Bold-37" d="M 428 4666 
L 3944 4666 
L 3944 3988 
L 2125 0 
L 953 0 
L 2675 3781 
L 428 3781 
L 428 4666 
z
" transform="scale(0.015625)"/>
     </defs>
     <use xlink:href="#DejaVuSans-Bold-37"/>
    </g>
   </g>
  </g>
  <g id="axes_9">
   <g id="patch_10">
    <path d="M 7.2 131.94 
L 216.45 131.94 
L 216.45 90.36 
L 7.2 90.36 
L 7.2 131.94 
z
" style="fill: none"/>
   </g>
   <g id="matplotlib.axis_17">
    <g id="xtick_41">
     <g id="text_9">
      <!-- −7.5 -->
      <g style="fill: #838383" transform="translate(21.516 149.798281) scale(0.11 -0.11)">
       <defs>
        <path id="DejaVuSans-2212" d="M 678 2272 
L 4684 2272 
L 4684 1741 
L 678 1741 
L 678 2272 
z
" transform="scale(0.015625)"/>
        <path id="DejaVuSans-37" d="M 525 4666 
L 3525 4666 
L 3525 4397 
L 1831 0 
L 1172 0 
L 2766 4134 
L 525 4134 
L 525 4666 
z
" transform="scale(0.015625)"/>
        <path id="DejaVuSans-2e" d="M 684 794 
L 1344 794 
L 1344 0 
L 684 0 
L 684 794 
z
" transform="scale(0.015625)"/>
        <path id="DejaVuSans-35" d="M 691 4666 
L 3169 4666 
L 3169 4134 
L 1269 4134 
L 1269 2991 
Q 1406 3038 1543 3061 
Q 1681 3084 1819 3084 
Q 2600 3084 3056 2656 
Q 3513 2228 3513 1497 
Q 3513 744 3044 326 
Q 2575 -91 1722 -91 
Q 1428 -91 1123 -41 
Q 819 9 494 109 
L 494 744 
Q 775 591 1075 516 
Q 1375 441 1709 441 
Q 2250 441 2565 725 
Q 2881 1009 2881 1497 
Q 2881 1984 2565 2268 
Q 2250 2553 1709 2553 
Q 1456 2553 1204 2497 
Q 953 2441 691 2322 
L 691 4666 
z
" transform="scale(0.015625)"/>
       </defs>
       <use xlink:href="#DejaVuSans-2212"/>
       <use xlink:href="#DejaVuSans-37" x="83.789062"/>
       <use xlink:href="#DejaVuSans-2e" x="147.412109"/>
       <use xlink:href="#DejaVuSans-35" x="179.199219"/>
      </g>
     </g>
    </g>
    <g id="xtick_42">
     <g id="text_10">
      <!-- −5.0 -->
      <g style="fill: #838383" transform="translate(65.675687 149.798281) scale(0.11 -0.11)">
       <defs>
        <path id="DejaVuSans-30" d="M 2034 4250 
Q 1547 4250 1301 3770 
Q 1056 3291 1056 2328 
Q 1056 1369 1301 889 
Q 1547 409 2034 409 
Q 2525 409 2770 889 
Q 3016 1369 3016 2328 
Q 3016 3291 2770 3770 
Q 2525 4250 2034 4250 
z
M 2034 4750 
Q 2819 4750 3233 4129 
Q 3647 3509 3647 2328 
Q 3647 1150 3233 529 
Q 2819 -91 2034 -91 
Q 1250 -91 836 529 
Q 422 1150 422 2328 
Q 422 3509 836 4129 
Q 1250 4750 2034 4750 
z
" transform="scale(0.015625)"/>
       </defs>
       <use xlink:href="#DejaVuSans-2212"/>
       <use xlink:href="#DejaVuSans-35" x="83.789062"/>
       <use xlink:href="#DejaVuSans-2e" x="147.412109"/>
       <use xlink:href="#DejaVuSans-30" x="179.199219"/>
      </g>
     </g>
    </g>
    <g id="xtick_43">
     <g id="text_11">
      <!-- −2.5 -->
      <g style="fill: #838383" transform="translate(109.835375 149.798281) scale(0.11 -0.11)">
       <defs>
        <path id="DejaVuSans-32" d="M 1228 531 
L 3431 531 
L 3431 0 
L 469 0 
L 469 531 
Q 828 903 1448 1529 
Q 2069 2156 2228 2338 
Q 2531 2678 2651 2914 
Q 2772 3150 2772 3378 
Q 2772 3750 2511 3984 
Q 2250 4219 1831 4219 
Q 1534 4219 1204 4116 
Q 875 4013 500 3803 
L 500 4441 
Q 881 4594 1212 4672 
Q 1544 4750 1819 4750 
Q 2544 4750 2975 4387 
Q 3406 4025 3406 3419 
Q 3406 3131 3298 2873 
Q 3191 2616 2906 2266 
Q 2828 2175 2409 1742 
Q 1991 1309 1228 531 
z
" transform="scale(0.015625)"/>
       </defs>
       <use xlink:href="#DejaVuSans-2212"/>
       <use xlink:href="#DejaVuSans-32" x="83.789062"/>
       <use xlink:href="#DejaVuSans-2e" x="147.412109"/>
       <use xlink:href="#DejaVuSans-35" x="179.199219"/>
      </g>
     </g>
    </g>
    <g id="xtick_44">
     <g id="text_12">
      <!-- 0.0 -->
      <g style="fill: #838383" transform="translate(158.603891 149.798281) scale(0.11 -0.11)">
       <use xlink:href="#DejaVuSans-30"/>
       <use xlink:href="#DejaVuSans-2e" x="63.623047"/>
       <use xlink:href="#DejaVuSans-30" x="95.410156"/>
      </g>
     </g>
    </g>
    <g id="xtick_45">
     <g id="text_13">
      <!-- 2.5 -->
      <g style="fill: #838383" transform="translate(202.763578 149.798281) scale(0.11 -0.11)">
       <use xlink:href="#DejaVuSans-32"/>
       <use xlink:href="#DejaVuSans-2e" x="63.623047"/>
       <use xlink:href="#DejaVuSans-35" x="95.410156"/>
      </g>
     </g>
    </g>
    <g id="text_14">
     <!-- sldb -->
     <g style="fill: #262626" transform="translate(99.414375 165.204063) scale(0.12 -0.12)">
      <defs>
       <path id="DejaVuSans-73" d="M 2834 3397 
L 2834 2853 
Q 2591 2978 2328 3040 
Q 2066 3103 1784 3103 
Q 1356 3103 1142 2972 
Q 928 2841 928 2578 
Q 928 2378 1081 2264 
Q 1234 2150 1697 2047 
L 1894 2003 
Q 2506 1872 2764 1633 
Q 3022 1394 3022 966 
Q 3022 478 2636 193 
Q 2250 -91 1575 -91 
Q 1294 -91 989 -36 
Q 684 19 347 128 
L 347 722 
Q 666 556 975 473 
Q 1284 391 1588 391 
Q 1994 391 2212 530 
Q 2431 669 2431 922 
Q 2431 1156 2273 1281 
Q 2116 1406 1581 1522 
L 1381 1569 
Q 847 1681 609 1914 
Q 372 2147 372 2553 
Q 372 3047 722 3315 
Q 1072 3584 1716 3584 
Q 2034 3584 2315 3537 
Q 2597 3491 2834 3397 
z
" transform="scale(0.015625)"/>
       <path id="DejaVuSans-6c" d="M 603 4863 
L 1178 4863 
L 1178 0 
L 603 0 
L 603 4863 
z
" transform="scale(0.015625)"/>
       <path id="DejaVuSans-64" d="M 2906 2969 
L 2906 4863 
L 3481 4863 
L 3481 0 
L 2906 0 
L 2906 525 
Q 2725 213 2448 61 
Q 2172 -91 1784 -91 
Q 1150 -91 751 415 
Q 353 922 353 1747 
Q 353 2572 751 3078 
Q 1150 3584 1784 3584 
Q 2172 3584 2448 3432 
Q 2725 3281 2906 2969 
z
M 947 1747 
Q 947 1113 1208 752 
Q 1469 391 1925 391 
Q 2381 391 2643 752 
Q 2906 1113 2906 1747 
Q 2906 2381 2643 2742 
Q 2381 3103 1925 3103 
Q 1469 3103 1208 2742 
Q 947 2381 947 1747 
z
" transform="scale(0.015625)"/>
       <path id="DejaVuSans-62" d="M 3116 1747 
Q 3116 2381 2855 2742 
Q 2594 3103 2138 3103 
Q 1681 3103 1420 2742 
Q 1159 2381 1159 1747 
Q 1159 1113 1420 752 
Q 1681 391 2138 391 
Q 2594 391 2855 752 
Q 3116 1113 3116 1747 
z
M 1159 2969 
Q 1341 3281 1617 3432 
Q 1894 3584 2278 3584 
Q 2916 3584 3314 3078 
Q 3713 2572 3713 1747 
Q 3713 922 3314 415 
Q 2916 -91 2278 -91 
Q 1894 -91 1617 61 
Q 1341 213 1159 525 
L 1159 0 
L 581 0 
L 581 4863 
L 1159 4863 
L 1159 2969 
z
" transform="scale(0.015625)"/>
      </defs>
      <use xlink:href="#DejaVuSans-73"/>
      <use xlink:href="#DejaVuSans-6c" x="52.099609"/>
      <use xlink:href="#DejaVuSans-64" x="79.882812"/>
      <use xlink:href="#DejaVuSans-62" x="143.359375"/>
     </g>
    </g>
   </g>
   <g id="matplotlib.axis_18"/>
   <g id="PolyCollection_4">
    <defs>
     <path id="mf63082b625" d="M 16.711364 -43.113292 
L 16.711364 -42.959688 
L 17.66728 -42.959688 
L 18.623196 -42.959688 
L 19.579111 -42.959688 
L 20.535027 -42.959688 
L 21.490943 -42.959688 
L 22.446859 -42.959688 
L 23.402775 -42.959688 
L 24.358691 -42.959688 
L 25.314607 -42.959688 
L 26.270523 -42.959688 
L 27.226439 -42.959688 
L 28.182355 -42.959688 
L 29.138271 -42.959688 
L 30.094187 -42.959688 
L 31.050103 -42.959688 
L 32.006019 -42.959688 
L 32.961935 -42.959688 
L 33.917851 -42.959688 
L 34.873767 -42.959688 
L 35.829683 -42.959688 
L 36.785598 -42.959688 
L 37.741514 -42.959688 
L 38.69743 -42.959688 
L 39.653346 -42.959688 
L 40.609262 -42.959688 
L 41.565178 -42.959688 
L 42.521094 -42.959688 
L 43.47701 -42.959688 
L 44.432926 -42.959688 
L 45.388842 -42.959688 
L 46.344758 -42.959688 
L 47.300674 -42.959688 
L 48.25659 -42.959688 
L 49.212506 -42.959688 
L 50.168422 -42.959688 
L 51.124338 -42.959688 
L 52.080254 -42.959688 
L 53.036169 -42.959688 
L 53.992085 -42.959688 
L 54.948001 -42.959688 
L 55.903917 -42.959688 
L 56.859833 -42.959688 
L 57.815749 -42.959688 
L 58.771665 -42.959688 
L 59.727581 -42.959688 
L 60.683497 -42.959688 
L 61.639413 -42.959688 
L 62.595329 -42.959688 
L 63.551245 -42.959688 
L 64.507161 -42.959688 
L 65.463077 -42.959688 
L 66.418993 -42.959688 
L 67.374909 -42.959688 
L 68.330825 -42.959688 
L 69.286741 -42.959688 
L 70.242656 -42.959688 
L 71.198572 -42.959688 
L 72.154488 -42.959688 
L 73.110404 -42.959688 
L 74.06632 -42.959688 
L 75.022236 -42.959688 
L 75.978152 -42.959688 
L 76.934068 -42.959688 
L 77.889984 -42.959688 
L 78.8459 -42.959688 
L 79.801816 -42.959688 
L 80.757732 -42.959688 
L 81.713648 -42.959688 
L 82.669564 -42.959688 
L 83.62548 -42.959688 
L 84.581396 -42.959688 
L 85.537312 -42.959688 
L 86.493228 -42.959688 
L 87.449143 -42.959688 
L 88.405059 -42.959688 
L 89.360975 -42.959688 
L 90.316891 -42.959688 
L 91.272807 -42.959688 
L 92.228723 -42.959688 
L 93.184639 -42.959688 
L 94.140555 -42.959688 
L 95.096471 -42.959688 
L 96.052387 -42.959688 
L 97.008303 -42.959688 
L 97.964219 -42.959688 
L 98.920135 -42.959688 
L 99.876051 -42.959688 
L 100.831967 -42.959688 
L 101.787883 -42.959688 
L 102.743799 -42.959688 
L 103.699714 -42.959688 
L 104.65563 -42.959688 
L 105.611546 -42.959688 
L 106.567462 -42.959688 
L 107.523378 -42.959688 
L 108.479294 -42.959688 
L 109.43521 -42.959688 
L 110.391126 -42.959688 
L 111.347042 -42.959688 
L 112.302958 -42.959688 
L 113.258874 -42.959688 
L 114.21479 -42.959688 
L 115.170706 -42.959688 
L 116.126622 -42.959688 
L 117.082538 -42.959688 
L 118.038454 -42.959688 
L 118.99437 -42.959688 
L 119.950286 -42.959688 
L 120.906201 -42.959688 
L 121.862117 -42.959688 
L 122.818033 -42.959688 
L 123.773949 -42.959688 
L 124.729865 -42.959688 
L 125.685781 -42.959688 
L 126.641697 -42.959688 
L 127.597613 -42.959688 
L 128.553529 -42.959688 
L 129.509445 -42.959688 
L 130.465361 -42.959688 
L 131.421277 -42.959688 
L 132.377193 -42.959688 
L 133.333109 -42.959688 
L 134.289025 -42.959688 
L 135.244941 -42.959688 
L 136.200857 -42.959688 
L 137.156772 -42.959688 
L 138.112688 -42.959688 
L 139.068604 -42.959688 
L 140.02452 -42.959688 
L 140.980436 -42.959688 
L 141.936352 -42.959688 
L 142.892268 -42.959688 
L 143.848184 -42.959688 
L 144.8041 -42.959688 
L 145.760016 -42.959688 
L 146.715932 -42.959688 
L 147.671848 -42.959688 
L 148.627764 -42.959688 
L 149.58368 -42.959688 
L 150.539596 -42.959688 
L 151.495512 -42.959688 
L 152.451428 -42.959688 
L 153.407344 -42.959688 
L 154.363259 -42.959688 
L 155.319175 -42.959688 
L 156.275091 -42.959688 
L 157.231007 -42.959688 
L 158.186923 -42.959688 
L 159.142839 -42.959688 
L 160.098755 -42.959688 
L 161.054671 -42.959688 
L 162.010587 -42.959688 
L 162.966503 -42.959688 
L 163.922419 -42.959688 
L 164.878335 -42.959688 
L 165.834251 -42.959688 
L 166.790167 -42.959688 
L 167.746083 -42.959688 
L 168.701999 -42.959688 
L 169.657915 -42.959688 
L 170.613831 -42.959688 
L 171.569746 -42.959688 
L 172.525662 -42.959688 
L 173.481578 -42.959688 
L 174.437494 -42.959688 
L 175.39341 -42.959688 
L 176.349326 -42.959688 
L 177.305242 -42.959688 
L 178.261158 -42.959688 
L 179.217074 -42.959688 
L 180.17299 -42.959688 
L 181.128906 -42.959688 
L 182.084822 -42.959688 
L 183.040738 -42.959688 
L 183.996654 -42.959688 
L 184.95257 -42.959688 
L 185.908486 -42.959688 
L 186.864402 -42.959688 
L 187.820317 -42.959688 
L 188.776233 -42.959688 
L 189.732149 -42.959688 
L 190.688065 -42.959688 
L 191.643981 -42.959688 
L 192.599897 -42.959688 
L 193.555813 -42.959688 
L 194.511729 -42.959688 
L 195.467645 -42.959688 
L 196.423561 -42.959688 
L 197.379477 -42.959688 
L 198.335393 -42.959688 
L 199.291309 -42.959688 
L 200.247225 -42.959688 
L 201.203141 -42.959688 
L 202.159057 -42.959688 
L 203.114973 -42.959688 
L 204.070889 -42.959688 
L 205.026804 -42.959688 
L 205.98272 -42.959688 
L 206.938636 -42.959688 
L 206.938636 -42.963298 
L 206.938636 -42.963298 
L 205.98272 -42.963865 
L 205.026804 -42.964427 
L 204.070889 -42.964964 
L 203.114973 -42.965461 
L 202.159057 -42.965906 
L 201.203141 -42.966297 
L 200.247225 -42.966641 
L 199.291309 -42.966954 
L 198.335393 -42.967265 
L 197.379477 -42.967611 
L 196.423561 -42.968036 
L 195.467645 -42.968591 
L 194.511729 -42.969326 
L 193.555813 -42.970295 
L 192.599897 -42.97155 
L 191.643981 -42.973143 
L 190.688065 -42.975129 
L 189.732149 -42.977569 
L 188.776233 -42.980535 
L 187.820317 -42.98412 
L 186.864402 -42.988445 
L 185.908486 -42.993674 
L 184.95257 -43.000026 
L 183.996654 -43.007791 
L 183.040738 -43.017343 
L 182.084822 -43.02916 
L 181.128906 -43.043833 
L 180.17299 -43.062077 
L 179.217074 -43.084731 
L 178.261158 -43.112751 
L 177.305242 -43.147192 
L 176.349326 -43.189171 
L 175.39341 -43.239825 
L 174.437494 -43.300246 
L 173.481578 -43.37141 
L 172.525662 -43.454097 
L 171.569746 -43.548814 
L 170.613831 -43.65571 
L 169.657915 -43.774521 
L 168.701999 -43.904519 
L 167.746083 -44.044496 
L 166.790167 -44.192773 
L 165.834251 -44.347248 
L 164.878335 -44.50547 
L 163.922419 -44.664743 
L 162.966503 -44.822251 
L 162.010587 -44.97519 
L 161.054671 -45.120902 
L 160.098755 -45.256998 
L 159.142839 -45.381454 
L 158.186923 -45.492691 
L 157.231007 -45.58961 
L 156.275091 -45.671615 
L 155.319175 -45.738595 
L 154.363259 -45.790894 
L 153.407344 -45.829269 
L 152.451428 -45.85483 
L 151.495512 -45.868981 
L 150.539596 -45.873352 
L 149.58368 -45.869729 
L 148.627764 -45.859978 
L 147.671848 -45.845964 
L 146.715932 -45.829468 
L 145.760016 -45.812105 
L 144.8041 -45.79525 
L 143.848184 -45.779982 
L 142.892268 -45.767046 
L 141.936352 -45.756847 
L 140.980436 -45.749472 
L 140.02452 -45.744745 
L 139.068604 -45.742305 
L 138.112688 -45.7417 
L 137.156772 -45.742481 
L 136.200857 -45.744301 
L 135.244941 -45.746976 
L 134.289025 -45.750533 
L 133.333109 -45.755219 
L 132.377193 -45.761478 
L 131.421277 -45.769893 
L 130.465361 -45.781112 
L 129.509445 -45.795763 
L 128.553529 -45.814357 
L 127.597613 -45.837218 
L 126.641697 -45.864418 
L 125.685781 -45.895751 
L 124.729865 -45.93073 
L 123.773949 -45.968613 
L 122.818033 -46.008461 
L 121.862117 -46.049199 
L 120.906201 -46.089699 
L 119.950286 -46.128846 
L 118.99437 -46.165602 
L 118.038454 -46.199051 
L 117.082538 -46.228424 
L 116.126622 -46.2531 
L 115.170706 -46.272596 
L 114.21479 -46.286547 
L 113.258874 -46.294679 
L 112.302958 -46.296787 
L 111.347042 -46.292717 
L 110.391126 -46.282365 
L 109.43521 -46.265688 
L 108.479294 -46.242723 
L 107.523378 -46.21362 
L 106.567462 -46.178679 
L 105.611546 -46.138394 
L 104.65563 -46.093486 
L 103.699714 -46.044937 
L 102.743799 -45.994001 
L 101.787883 -45.942209 
L 100.831967 -45.891346 
L 99.876051 -45.843412 
L 98.920135 -45.800561 
L 97.964219 -45.765019 
L 97.008303 -45.738997 
L 96.052387 -45.724585 
L 95.096471 -45.723655 
L 94.140555 -45.737763 
L 93.184639 -45.768077 
L 92.228723 -45.815308 
L 91.272807 -45.879675 
L 90.316891 -45.960888 
L 89.360975 -46.058159 
L 88.405059 -46.170223 
L 87.449143 -46.295391 
L 86.493228 -46.431606 
L 85.537312 -46.576525 
L 84.581396 -46.727603 
L 83.62548 -46.882198 
L 82.669564 -47.037682 
L 81.713648 -47.191554 
L 80.757732 -47.341564 
L 79.801816 -47.485826 
L 78.8459 -47.622919 
L 77.889984 -47.751965 
L 76.934068 -47.872678 
L 75.978152 -47.985377 
L 75.022236 -48.090959 
L 74.06632 -48.190838 
L 73.110404 -48.286856 
L 72.154488 -48.381178 
L 71.198572 -48.476192 
L 70.242656 -48.574416 
L 69.286741 -48.678451 
L 68.330825 -48.79096 
L 67.374909 -48.914707 
L 66.418993 -49.052625 
L 65.463077 -49.20791 
L 64.507161 -49.384109 
L 63.551245 -49.585186 
L 62.595329 -49.815501 
L 61.639413 -50.07971 
L 60.683497 -50.382531 
L 59.727581 -50.728388 
L 58.771665 -51.120944 
L 57.815749 -51.562536 
L 56.859833 -52.053594 
L 55.903917 -52.592072 
L 54.948001 -53.172994 
L 53.992085 -53.788162 
L 53.036169 -54.426093 
L 52.080254 -55.072214 
L 51.124338 -55.709319 
L 50.168422 -56.318278 
L 49.212506 -56.878929 
L 48.25659 -57.371103 
L 47.300674 -57.775681 
L 46.344758 -58.075615 
L 45.388842 -58.256824 
L 44.432926 -58.308907 
L 43.47701 -58.225642 
L 42.521094 -58.005231 
L 41.565178 -57.650321 
L 40.609262 -57.167787 
L 39.653346 -56.56834 
L 38.69743 -55.865974 
L 37.741514 -55.077306 
L 36.785598 -54.220838 
L 35.829683 -53.316189 
L 34.873767 -52.383322 
L 33.917851 -51.441798 
L 32.961935 -50.51009 
L 32.006019 -49.60498 
L 31.050103 -48.741056 
L 30.094187 -47.930344 
L 29.138271 -47.182074 
L 28.182355 -46.502596 
L 27.226439 -45.89544 
L 26.270523 -45.361508 
L 25.314607 -44.899376 
L 24.358691 -44.50568 
L 23.402775 -44.175555 
L 22.446859 -43.90308 
L 21.490943 -43.681717 
L 20.535027 -43.504698 
L 19.579111 -43.365362 
L 18.623196 -43.257409 
L 17.66728 -43.175084 
L 16.711364 -43.113292 
z
" style="stroke: #482475; stroke-width: 1.25"/>
    </defs>
    <g>
     <use xlink:href="#mf63082b625" x="0" y="174.899688" style="fill: #482475; fill-opacity: 0.7; stroke: #482475; stroke-width: 1.25"/>
    </g>
   </g>
   <g id="line2d_9">
    <path d="M 7.2 131.94 
L 216.45 131.94 
" style="fill: none; stroke: #482475; stroke-opacity: 0.9; stroke-linecap: round"/>
   </g>
   <g id="text_15">
    <!-- 8 -->
    <g style="fill: #482475" transform="translate(7.2 131.09325) scale(0.12 -0.12)">
     <defs>
      <path id="DejaVuSans-Bold-38" d="M 2228 2088 
Q 1891 2088 1709 1903 
Q 1528 1719 1528 1375 
Q 1528 1031 1709 848 
Q 1891 666 2228 666 
Q 2563 666 2741 848 
Q 2919 1031 2919 1375 
Q 2919 1722 2741 1905 
Q 2563 2088 2228 2088 
z
M 1350 2484 
Q 925 2613 709 2878 
Q 494 3144 494 3541 
Q 494 4131 934 4440 
Q 1375 4750 2228 4750 
Q 3075 4750 3515 4442 
Q 3956 4134 3956 3541 
Q 3956 3144 3739 2878 
Q 3522 2613 3097 2484 
Q 3572 2353 3814 2058 
Q 4056 1763 4056 1313 
Q 4056 619 3595 264 
Q 3134 -91 2228 -91 
Q 1319 -91 855 264 
Q 391 619 391 1313 
Q 391 1763 633 2058 
Q 875 2353 1350 2484 
z
M 1631 3419 
Q 1631 3141 1786 2991 
Q 1941 2841 2228 2841 
Q 2509 2841 2662 2991 
Q 2816 3141 2816 3419 
Q 2816 3697 2662 3845 
Q 2509 3994 2228 3994 
Q 1941 3994 1786 3844 
Q 1631 3694 1631 3419 
z
" transform="scale(0.015625)"/>
     </defs>
     <use xlink:href="#DejaVuSans-Bold-38"/>
    </g>
   </g>
  </g>
 </g>
</svg>
