<?xml version="1.0" encoding="utf-8" standalone="no"?>
<!DOCTYPE svg PUBLIC "-//W3C//DTD SVG 1.1//EN"
  "http://www.w3.org/Graphics/SVG/1.1/DTD/svg11.dtd">
<svg xmlns:xlink="http://www.w3.org/1999/xlink" width="656.39952pt" height="224.39952pt" viewBox="0 0 656.39952 224.39952" xmlns="http://www.w3.org/2000/svg" version="1.1">
 <metadata>
  <rdf:RDF xmlns:dc="http://purl.org/dc/elements/1.1/" xmlns:cc="http://creativecommons.org/ns#" xmlns:rdf="http://www.w3.org/1999/02/22-rdf-syntax-ns#">
   <cc:Work>
    <dc:type rdf:resource="http://purl.org/dc/dcmitype/StillImage"/>
    <dc:date>2023-12-05T11:48:18.576873</dc:date>
    <dc:format>image/svg+xml</dc:format>
    <dc:creator>
     <cc:Agent>
      <dc:title>Matplotlib v3.8.2, https://matplotlib.org/</dc:title>
     </cc:Agent>
    </dc:creator>
   </cc:Work>
  </rdf:RDF>
 </metadata>
 <defs>
  <style type="text/css">*{stroke-linejoin: round; stroke-linecap: butt}</style>
 </defs>
 <g id="figure_1">
  <g id="patch_1">
   <path d="M 0 224.39952 
L 656.39952 224.39952 
L 656.39952 0 
L 0 0 
L 0 224.39952 
z
" style="fill: none"/>
  </g>
  <g id="axes_1">
   <g id="patch_2">
    <path d="M 53.55 182.67452 
L 590.85909 182.67452 
L 590.85909 7.2 
L 53.55 7.2 
L 53.55 182.67452 
z
" style="fill: none"/>
   </g>
   <g id="matplotlib.axis_1">
    <g id="xtick_1">
     <g id="text_1">
      <!-- 0 -->
      <g style="fill: #838383" transform="translate(73.84814 196.34952) scale(0.1375 -0.1375)">
       <defs>
        <path id="IBMPlexSans-Regular-30" d="M 1920 -77 
Q 1120 -77 752 531 
Q 384 1139 384 2234 
Q 384 3328 752 3936 
Q 1120 4544 1920 4544 
Q 2720 4544 3088 3936 
Q 3456 3328 3456 2234 
Q 3456 1139 3088 531 
Q 2720 -77 1920 -77 
z
M 1920 390 
Q 2182 390 2368 499 
Q 2554 608 2669 806 
Q 2784 1005 2838 1273 
Q 2893 1542 2893 1869 
L 2893 2598 
Q 2893 2925 2838 3193 
Q 2784 3462 2669 3660 
Q 2554 3859 2368 3968 
Q 2182 4077 1920 4077 
Q 1658 4077 1472 3968 
Q 1286 3859 1171 3660 
Q 1056 3462 1001 3193 
Q 947 2925 947 2598 
L 947 1869 
Q 947 1542 1001 1273 
Q 1056 1005 1171 806 
Q 1286 608 1472 499 
Q 1658 390 1920 390 
z
" transform="scale(0.015625)"/>
       </defs>
       <use xlink:href="#IBMPlexSans-Regular-30"/>
      </g>
     </g>
    </g>
    <g id="xtick_2">
     <g id="text_2">
      <!-- 250 -->
      <g style="fill: #838383" transform="translate(126.962815 196.34952) scale(0.1375 -0.1375)">
       <defs>
        <path id="IBMPlexSans-Regular-32" d="M 3411 0 
L 480 0 
L 480 550 
L 1939 1894 
Q 2253 2182 2464 2505 
Q 2675 2829 2675 3155 
L 2675 3232 
Q 2675 3603 2470 3833 
Q 2266 4064 1850 4064 
Q 1645 4064 1491 4006 
Q 1338 3949 1226 3846 
Q 1114 3744 1040 3606 
Q 966 3469 922 3309 
L 442 3494 
Q 506 3693 618 3881 
Q 730 4070 899 4217 
Q 1069 4365 1309 4454 
Q 1549 4544 1875 4544 
Q 2202 4544 2458 4448 
Q 2714 4352 2886 4179 
Q 3059 4006 3152 3769 
Q 3245 3533 3245 3245 
Q 3245 2982 3171 2758 
Q 3098 2534 2970 2332 
Q 2842 2131 2659 1939 
Q 2477 1747 2266 1555 
L 1062 474 
L 3411 474 
L 3411 0 
z
" transform="scale(0.015625)"/>
        <path id="IBMPlexSans-Regular-35" d="M 3187 3994 
L 1229 3994 
L 1101 2291 
L 1146 2291 
Q 1306 2515 1507 2649 
Q 1709 2784 2061 2784 
Q 2349 2784 2592 2688 
Q 2835 2592 3014 2416 
Q 3194 2240 3293 1984 
Q 3392 1728 3392 1402 
Q 3392 1075 3289 803 
Q 3187 531 2992 336 
Q 2797 141 2518 32 
Q 2240 -77 1888 -77 
Q 1606 -77 1392 -13 
Q 1178 51 1011 160 
Q 845 269 720 403 
Q 595 538 493 685 
L 896 992 
Q 979 858 1072 749 
Q 1165 640 1277 563 
Q 1389 486 1536 444 
Q 1683 403 1888 403 
Q 2349 403 2585 646 
Q 2822 890 2822 1331 
L 2822 1395 
Q 2822 1837 2585 2080 
Q 2349 2323 1888 2323 
Q 1581 2323 1405 2211 
Q 1229 2099 1088 1946 
L 634 2010 
L 794 4467 
L 3187 4467 
L 3187 3994 
z
" transform="scale(0.015625)"/>
       </defs>
       <use xlink:href="#IBMPlexSans-Regular-32"/>
       <use xlink:href="#IBMPlexSans-Regular-35" x="59.999985"/>
       <use xlink:href="#IBMPlexSans-Regular-30" x="119.999969"/>
      </g>
     </g>
    </g>
    <g id="xtick_3">
     <g id="text_3">
      <!-- 500 -->
      <g style="fill: #838383" transform="translate(188.32749 196.34952) scale(0.1375 -0.1375)">
       <use xlink:href="#IBMPlexSans-Regular-35"/>
       <use xlink:href="#IBMPlexSans-Regular-30" x="59.999985"/>
       <use xlink:href="#IBMPlexSans-Regular-30" x="119.999969"/>
      </g>
     </g>
    </g>
    <g id="xtick_4">
     <g id="text_4">
      <!-- 750 -->
      <g style="fill: #838383" transform="translate(249.692164 196.34952) scale(0.1375 -0.1375)">
       <defs>
        <path id="IBMPlexSans-Regular-37" d="M 1120 0 
L 2829 4006 
L 922 4006 
L 922 3174 
L 442 3174 
L 442 4467 
L 3373 4467 
L 3373 3994 
L 1696 0 
L 1120 0 
z
" transform="scale(0.015625)"/>
       </defs>
       <use xlink:href="#IBMPlexSans-Regular-37"/>
       <use xlink:href="#IBMPlexSans-Regular-35" x="59.999985"/>
       <use xlink:href="#IBMPlexSans-Regular-30" x="119.999969"/>
      </g>
     </g>
    </g>
    <g id="xtick_5">
     <g id="text_5">
      <!-- 1000 -->
      <g style="fill: #838383" transform="translate(306.931839 196.34952) scale(0.1375 -0.1375)">
       <defs>
        <path id="IBMPlexSans-Regular-31" d="M 563 0 
L 563 474 
L 1811 474 
L 1811 4070 
L 1766 4070 
L 640 3021 
L 326 3360 
L 1510 4467 
L 2349 4467 
L 2349 474 
L 3501 474 
L 3501 0 
L 563 0 
z
" transform="scale(0.015625)"/>
       </defs>
       <use xlink:href="#IBMPlexSans-Regular-31"/>
       <use xlink:href="#IBMPlexSans-Regular-30" x="59.999985"/>
       <use xlink:href="#IBMPlexSans-Regular-30" x="119.999969"/>
       <use xlink:href="#IBMPlexSans-Regular-30" x="179.999954"/>
      </g>
     </g>
    </g>
    <g id="xtick_6">
     <g id="text_6">
      <!-- 1250 -->
      <g style="fill: #838383" transform="translate(368.296513 196.34952) scale(0.1375 -0.1375)">
       <use xlink:href="#IBMPlexSans-Regular-31"/>
       <use xlink:href="#IBMPlexSans-Regular-32" x="59.999985"/>
       <use xlink:href="#IBMPlexSans-Regular-35" x="119.999969"/>
       <use xlink:href="#IBMPlexSans-Regular-30" x="179.999954"/>
      </g>
     </g>
    </g>
    <g id="xtick_7">
     <g id="text_7">
      <!-- 1500 -->
      <g style="fill: #838383" transform="translate(429.661188 196.34952) scale(0.1375 -0.1375)">
       <use xlink:href="#IBMPlexSans-Regular-31"/>
       <use xlink:href="#IBMPlexSans-Regular-35" x="59.999985"/>
       <use xlink:href="#IBMPlexSans-Regular-30" x="119.999969"/>
       <use xlink:href="#IBMPlexSans-Regular-30" x="179.999954"/>
      </g>
     </g>
    </g>
    <g id="xtick_8">
     <g id="text_8">
      <!-- 1750 -->
      <g style="fill: #838383" transform="translate(491.025862 196.34952) scale(0.1375 -0.1375)">
       <use xlink:href="#IBMPlexSans-Regular-31"/>
       <use xlink:href="#IBMPlexSans-Regular-37" x="59.999985"/>
       <use xlink:href="#IBMPlexSans-Regular-35" x="119.999969"/>
       <use xlink:href="#IBMPlexSans-Regular-30" x="179.999954"/>
      </g>
     </g>
    </g>
    <g id="xtick_9">
     <g id="text_9">
      <!-- 2000 -->
      <g style="fill: #838383" transform="translate(552.390537 196.34952) scale(0.1375 -0.1375)">
       <use xlink:href="#IBMPlexSans-Regular-32"/>
       <use xlink:href="#IBMPlexSans-Regular-30" x="59.999985"/>
       <use xlink:href="#IBMPlexSans-Regular-30" x="119.999969"/>
       <use xlink:href="#IBMPlexSans-Regular-30" x="179.999954"/>
      </g>
     </g>
    </g>
    <g id="text_10">
     <!-- Step -->
     <g style="fill: #838383" transform="translate(306.747514 214.19952) scale(0.15 -0.15)">
      <defs>
       <path id="IBMPlexSans-Regular-53" d="M 1850 -77 
Q 1306 -77 922 131 
Q 538 339 269 704 
L 666 1037 
Q 902 723 1190 560 
Q 1478 397 1869 397 
Q 2349 397 2601 627 
Q 2854 858 2854 1242 
Q 2854 1562 2662 1734 
Q 2470 1907 2029 2010 
L 1664 2093 
Q 1050 2234 726 2518 
Q 403 2803 403 3322 
Q 403 3616 512 3846 
Q 621 4077 816 4230 
Q 1011 4384 1283 4464 
Q 1555 4544 1882 4544 
Q 2387 4544 2748 4358 
Q 3110 4173 3360 3814 
L 2957 3520 
Q 2771 3776 2508 3923 
Q 2246 4070 1856 4070 
Q 1427 4070 1180 3888 
Q 934 3706 934 3341 
Q 934 3021 1142 2857 
Q 1350 2694 1773 2598 
L 2138 2515 
Q 2797 2368 3091 2067 
Q 3386 1766 3386 1267 
Q 3386 960 3280 710 
Q 3174 461 2976 288 
Q 2778 115 2493 19 
Q 2208 -77 1850 -77 
z
" transform="scale(0.015625)"/>
       <path id="IBMPlexSans-Regular-74" d="M 1274 0 
Q 1005 0 867 150 
Q 730 301 730 544 
L 730 2854 
L 186 2854 
L 186 3302 
L 493 3302 
Q 659 3302 720 3369 
Q 781 3437 781 3603 
L 781 4218 
L 1242 4218 
L 1242 3302 
L 1965 3302 
L 1965 2854 
L 1242 2854 
L 1242 448 
L 1914 448 
L 1914 0 
L 1274 0 
z
" transform="scale(0.015625)"/>
       <path id="IBMPlexSans-Regular-65" d="M 1786 -77 
Q 1446 -77 1174 44 
Q 902 166 707 393 
Q 512 621 406 937 
Q 301 1254 301 1651 
Q 301 2042 406 2362 
Q 512 2682 707 2909 
Q 902 3136 1174 3257 
Q 1446 3379 1786 3379 
Q 2118 3379 2380 3257 
Q 2643 3136 2828 2921 
Q 3014 2707 3113 2412 
Q 3213 2118 3213 1766 
L 3213 1523 
L 838 1523 
L 838 1370 
Q 838 1158 905 976 
Q 973 794 1097 659 
Q 1222 525 1404 448 
Q 1587 371 1818 371 
Q 2131 371 2364 518 
Q 2598 666 2726 941 
L 3091 678 
Q 2931 339 2592 131 
Q 2253 -77 1786 -77 
z
M 1786 2950 
Q 1574 2950 1401 2876 
Q 1229 2803 1104 2668 
Q 979 2534 908 2352 
Q 838 2170 838 1952 
L 838 1907 
L 2662 1907 
L 2662 1978 
Q 2662 2419 2422 2684 
Q 2182 2950 1786 2950 
z
" transform="scale(0.015625)"/>
       <path id="IBMPlexSans-Regular-70" d="M 544 3302 
L 1056 3302 
L 1056 2765 
L 1082 2765 
Q 1210 3078 1456 3228 
Q 1702 3379 2048 3379 
Q 2355 3379 2604 3257 
Q 2854 3136 3030 2912 
Q 3206 2688 3299 2368 
Q 3392 2048 3392 1651 
Q 3392 1254 3299 934 
Q 3206 614 3030 390 
Q 2854 166 2604 44 
Q 2355 -77 2048 -77 
Q 1376 -77 1082 538 
L 1056 538 
L 1056 -1280 
L 544 -1280 
L 544 3302 
z
M 1907 384 
Q 2342 384 2592 656 
Q 2842 928 2842 1370 
L 2842 1933 
Q 2842 2374 2592 2646 
Q 2342 2918 1907 2918 
Q 1734 2918 1577 2870 
Q 1421 2822 1305 2739 
Q 1190 2656 1123 2537 
Q 1056 2419 1056 2285 
L 1056 1056 
Q 1056 896 1123 771 
Q 1190 646 1305 560 
Q 1421 474 1577 429 
Q 1734 384 1907 384 
z
" transform="scale(0.015625)"/>
      </defs>
      <use xlink:href="#IBMPlexSans-Regular-53"/>
      <use xlink:href="#IBMPlexSans-Regular-74" x="58.099991"/>
      <use xlink:href="#IBMPlexSans-Regular-65" x="93.199982"/>
      <use xlink:href="#IBMPlexSans-Regular-70" x="148.099976"/>
     </g>
    </g>
   </g>
   <g id="matplotlib.axis_2">
    <g id="ytick_1">
     <g id="line2d_1"/>
     <g id="text_11">
      <!-- −15 -->
      <g style="fill: #2196f3" transform="translate(25.3 165.640012) scale(0.1375 -0.1375)">
       <defs>
        <path id="IBMPlexSans-Regular-2212" d="M 429 1734 
L 429 2170 
L 3411 2170 
L 3411 1734 
L 429 1734 
z
" transform="scale(0.015625)"/>
       </defs>
       <use xlink:href="#IBMPlexSans-Regular-2212"/>
       <use xlink:href="#IBMPlexSans-Regular-31" x="59.999985"/>
       <use xlink:href="#IBMPlexSans-Regular-35" x="119.999969"/>
      </g>
     </g>
    </g>
    <g id="ytick_2">
     <g id="line2d_2"/>
     <g id="text_12">
      <!-- −10 -->
      <g style="fill: #2196f3" transform="translate(25.3 111.211298) scale(0.1375 -0.1375)">
       <use xlink:href="#IBMPlexSans-Regular-2212"/>
       <use xlink:href="#IBMPlexSans-Regular-31" x="59.999985"/>
       <use xlink:href="#IBMPlexSans-Regular-30" x="119.999969"/>
      </g>
     </g>
    </g>
    <g id="ytick_3">
     <g id="line2d_3"/>
     <g id="text_13">
      <!-- −5 -->
      <g style="fill: #2196f3" transform="translate(33.55 56.782583) scale(0.1375 -0.1375)">
       <use xlink:href="#IBMPlexSans-Regular-2212"/>
       <use xlink:href="#IBMPlexSans-Regular-35" x="59.999985"/>
      </g>
     </g>
    </g>
    <g id="text_14">
     <!-- loss -->
     <g style="fill: #2196f3" transform="translate(18.3 108.482963) rotate(-90) scale(0.15 -0.15)">
      <defs>
       <path id="IBMPlexSans-Regular-6c" d="M 1088 0 
Q 819 0 681 150 
Q 544 301 544 531 
L 544 4736 
L 1056 4736 
L 1056 448 
L 1542 448 
L 1542 0 
L 1088 0 
z
" transform="scale(0.015625)"/>
       <path id="IBMPlexSans-Regular-6f" d="M 1792 -77 
Q 1459 -77 1184 44 
Q 909 166 713 393 
Q 518 621 409 937 
Q 301 1254 301 1651 
Q 301 2042 409 2362 
Q 518 2682 713 2909 
Q 909 3136 1184 3257 
Q 1459 3379 1792 3379 
Q 2125 3379 2397 3257 
Q 2669 3136 2867 2909 
Q 3066 2682 3174 2362 
Q 3283 2042 3283 1651 
Q 3283 1254 3174 937 
Q 3066 621 2867 393 
Q 2669 166 2397 44 
Q 2125 -77 1792 -77 
z
M 1792 378 
Q 2208 378 2470 634 
Q 2733 890 2733 1414 
L 2733 1888 
Q 2733 2413 2470 2669 
Q 2208 2925 1792 2925 
Q 1376 2925 1113 2669 
Q 851 2413 851 1888 
L 851 1414 
Q 851 890 1113 634 
Q 1376 378 1792 378 
z
" transform="scale(0.015625)"/>
       <path id="IBMPlexSans-Regular-73" d="M 1536 -77 
Q 1075 -77 764 99 
Q 454 275 230 570 
L 595 864 
Q 787 621 1024 489 
Q 1261 358 1574 358 
Q 1901 358 2083 499 
Q 2266 640 2266 896 
Q 2266 1088 2141 1225 
Q 2016 1363 1690 1414 
L 1427 1453 
Q 1197 1485 1005 1552 
Q 813 1619 669 1731 
Q 525 1843 445 2009 
Q 365 2176 365 2406 
Q 365 2650 454 2832 
Q 544 3014 701 3136 
Q 858 3258 1075 3318 
Q 1293 3379 1542 3379 
Q 1946 3379 2218 3238 
Q 2490 3098 2694 2848 
L 2355 2541 
Q 2246 2694 2035 2819 
Q 1824 2944 1504 2944 
Q 1184 2944 1021 2806 
Q 858 2669 858 2432 
Q 858 2189 1021 2080 
Q 1184 1971 1491 1920 
L 1747 1882 
Q 2298 1798 2528 1564 
Q 2758 1331 2758 954 
Q 2758 474 2432 198 
Q 2106 -77 1536 -77 
z
" transform="scale(0.015625)"/>
      </defs>
      <use xlink:href="#IBMPlexSans-Regular-6c"/>
      <use xlink:href="#IBMPlexSans-Regular-6f" x="27.199997"/>
      <use xlink:href="#IBMPlexSans-Regular-73" x="83.199982"/>
      <use xlink:href="#IBMPlexSans-Regular-73" x="131.899979"/>
     </g>
    </g>
   </g>
   <g id="line2d_4">
    <path d="M 77.97314 96.73043 
L 80.427727 53.202745 
L 85.336901 164.946027 
L 87.791488 72.646652 
L 90.246075 119.279311 
L 92.700662 79.058409 
L 95.155249 61.65929 
L 97.609836 66.111237 
L 100.064423 79.978917 
L 104.973597 42.418268 
L 107.428184 74.371126 
L 109.882771 82.455148 
L 112.337358 83.414 
L 114.791945 44.818585 
L 119.701119 113.518466 
L 122.155706 95.067872 
L 124.610293 108.153714 
L 127.06488 89.022149 
L 129.519467 137.540713 
L 131.974054 90.033168 
L 134.428641 143.713753 
L 136.883228 87.078004 
L 139.337815 109.475305 
L 141.792402 88.478566 
L 144.246989 96.651178 
L 146.701576 57.355654 
L 149.156163 94.235767 
L 151.61075 106.61239 
L 154.065337 66.009856 
L 156.519924 119.501505 
L 158.974511 122.537935 
L 161.429098 76.57134 
L 163.883685 93.679093 
L 166.338272 76.883957 
L 168.792859 26.618636 
L 171.247446 77.253069 
L 173.702033 69.562026 
L 176.15662 96.241132 
L 178.611207 85.76394 
L 183.520381 122.355117 
L 185.974968 63.432604 
L 188.429555 43.170415 
L 190.884142 53.368563 
L 193.338729 127.191089 
L 195.793316 82.631534 
L 198.247903 57.30997 
L 200.70249 77.231528 
L 205.611664 62.874865 
L 208.066251 94.107618 
L 210.520837 92.108026 
L 212.975424 96.631869 
L 215.430011 82.189014 
L 217.884598 92.567634 
L 220.339185 58.050868 
L 225.248359 105.332357 
L 227.702946 104.058158 
L 230.157533 62.347591 
L 232.61212 105.529107 
L 235.066707 90.291458 
L 237.521294 136.991658 
L 239.975881 122.806524 
L 242.430468 102.693963 
L 244.885055 59.421231 
L 247.339642 70.592412 
L 249.794229 144.934592 
L 252.248816 62.578713 
L 257.15799 83.456927 
L 259.612577 75.522284 
L 262.067164 112.85372 
L 264.521751 63.319472 
L 266.976338 76.177052 
L 269.430925 98.289268 
L 271.885512 41.569387 
L 274.340099 100.903889 
L 276.794686 103.518468 
L 279.249273 151.892522 
L 281.70386 89.444882 
L 284.158447 130.002719 
L 286.613034 78.089643 
L 293.976795 126.493725 
L 296.431382 120.045171 
L 298.885969 109.558118 
L 301.340556 127.755528 
L 303.795143 69.982719 
L 306.24973 123.907767 
L 308.704317 73.918178 
L 311.158904 64.927652 
L 313.613491 110.866804 
L 316.068078 109.085024 
L 318.522665 85.557619 
L 320.977252 102.892197 
L 323.431839 85.163602 
L 325.886426 130.713288 
L 328.341013 55.731138 
L 330.7956 53.238515 
L 333.250187 72.514065 
L 335.704774 109.08191 
L 340.613948 58.592671 
L 343.068535 54.947613 
L 345.523121 108.851649 
L 347.977708 92.694433 
L 350.432295 68.480248 
L 352.886882 120.941122 
L 357.796056 62.44975 
L 360.250643 70.205417 
L 362.70523 40.725032 
L 365.159817 101.772308 
L 367.614404 120.840847 
L 372.523578 48.360306 
L 374.978165 67.575063 
L 377.432752 65.490405 
L 379.887339 92.086256 
L 382.341926 83.468258 
L 384.796513 113.58935 
L 387.2511 69.108243 
L 389.705687 142.289397 
L 392.160274 68.667306 
L 394.614861 104.81262 
L 397.069448 109.438606 
L 399.524035 81.84082 
L 401.978622 102.969393 
L 404.433209 99.632534 
L 406.887796 92.225419 
L 409.342383 56.386503 
L 411.79697 67.058274 
L 414.251557 58.190826 
L 416.706144 62.471364 
L 419.160731 100.398634 
L 424.069905 121.990074 
L 426.524492 59.18075 
L 428.979079 78.857045 
L 431.433666 63.535468 
L 433.888253 62.197434 
L 436.34284 64.647566 
L 438.797427 81.059455 
L 441.252014 65.208714 
L 443.706601 19.211998 
L 446.161188 119.77026 
L 448.615775 81.781864 
L 451.070362 111.617891 
L 453.524949 53.552761 
L 455.979536 101.21228 
L 458.434123 96.714765 
L 460.88871 56.811167 
L 463.343297 98.423562 
L 465.797884 68.972407 
L 468.252471 83.334561 
L 470.707058 56.747742 
L 473.161645 15.176115 
L 475.616232 97.951102 
L 478.070818 74.071408 
L 480.525405 98.025517 
L 482.979992 39.184313 
L 485.434579 85.202003 
L 487.889166 110.977605 
L 490.343753 84.648848 
L 492.79834 90.734684 
L 495.252927 51.949444 
L 497.707514 101.405531 
L 500.162101 72.642209 
L 502.616688 80.498997 
L 505.071275 109.795842 
L 507.525862 78.143642 
L 509.980449 174.698405 
L 514.889623 49.790024 
L 517.34421 84.669133 
L 519.798797 44.057873 
L 522.253384 125.098375 
L 524.707971 104.4384 
L 527.162558 71.062754 
L 532.071732 52.643216 
L 534.526319 60.667213 
L 536.980906 114.875976 
L 539.435493 86.631332 
L 541.89008 70.741219 
L 544.344667 92.173699 
L 549.253841 51.180236 
L 551.708428 88.332779 
L 554.163015 75.15016 
L 556.617602 86.1874 
L 559.072189 107.12919 
L 561.526776 75.082266 
L 563.981363 81.192483 
L 566.43595 114.489536 
L 566.43595 114.489536 
" clip-path="url(#pbf33bfc7dd)" style="fill: none; stroke: #2196f3; stroke-opacity: 0.9; stroke-width: 1.5; stroke-linecap: round"/>
   </g>
  </g>
  <g id="axes_2">
   <g id="matplotlib.axis_3">
    <g id="ytick_4">
     <g id="line2d_5"/>
     <g id="text_15">
      <!-- 0.050 -->
      <g style="fill: #ef5350" transform="translate(594.35909 155.858018) scale(0.1375 -0.1375)">
       <defs>
        <path id="IBMPlexSans-Regular-2e" d="M 870 -77 
Q 666 -77 573 25 
Q 480 128 480 294 
L 480 378 
Q 480 544 573 646 
Q 666 749 870 749 
Q 1075 749 1168 646 
Q 1261 544 1261 378 
L 1261 294 
Q 1261 128 1168 25 
Q 1075 -77 870 -77 
z
" transform="scale(0.015625)"/>
       </defs>
       <use xlink:href="#IBMPlexSans-Regular-30"/>
       <use xlink:href="#IBMPlexSans-Regular-2e" x="59.999985"/>
       <use xlink:href="#IBMPlexSans-Regular-30" x="87.199982"/>
       <use xlink:href="#IBMPlexSans-Regular-35" x="147.199966"/>
       <use xlink:href="#IBMPlexSans-Regular-30" x="207.199951"/>
      </g>
     </g>
    </g>
    <g id="ytick_5">
     <g id="line2d_6"/>
     <g id="text_16">
      <!-- 0.075 -->
      <g style="fill: #ef5350" transform="translate(594.35909 123.95356) scale(0.1375 -0.1375)">
       <use xlink:href="#IBMPlexSans-Regular-30"/>
       <use xlink:href="#IBMPlexSans-Regular-2e" x="59.999985"/>
       <use xlink:href="#IBMPlexSans-Regular-30" x="87.199982"/>
       <use xlink:href="#IBMPlexSans-Regular-37" x="147.199966"/>
       <use xlink:href="#IBMPlexSans-Regular-35" x="207.199951"/>
      </g>
     </g>
    </g>
    <g id="ytick_6">
     <g id="line2d_7"/>
     <g id="text_17">
      <!-- 0.100 -->
      <g style="fill: #ef5350" transform="translate(594.35909 92.049102) scale(0.1375 -0.1375)">
       <use xlink:href="#IBMPlexSans-Regular-30"/>
       <use xlink:href="#IBMPlexSans-Regular-2e" x="59.999985"/>
       <use xlink:href="#IBMPlexSans-Regular-31" x="87.199982"/>
       <use xlink:href="#IBMPlexSans-Regular-30" x="147.199966"/>
       <use xlink:href="#IBMPlexSans-Regular-30" x="207.199951"/>
      </g>
     </g>
    </g>
    <g id="ytick_7">
     <g id="line2d_8"/>
     <g id="text_18">
      <!-- 0.125 -->
      <g style="fill: #ef5350" transform="translate(594.35909 60.144644) scale(0.1375 -0.1375)">
       <use xlink:href="#IBMPlexSans-Regular-30"/>
       <use xlink:href="#IBMPlexSans-Regular-2e" x="59.999985"/>
       <use xlink:href="#IBMPlexSans-Regular-31" x="87.199982"/>
       <use xlink:href="#IBMPlexSans-Regular-32" x="147.199966"/>
       <use xlink:href="#IBMPlexSans-Regular-35" x="207.199951"/>
      </g>
     </g>
    </g>
    <g id="ytick_8">
     <g id="line2d_9"/>
     <g id="text_19">
      <!-- 0.150 -->
      <g style="fill: #ef5350" transform="translate(594.35909 28.240185) scale(0.1375 -0.1375)">
       <use xlink:href="#IBMPlexSans-Regular-30"/>
       <use xlink:href="#IBMPlexSans-Regular-2e" x="59.999985"/>
       <use xlink:href="#IBMPlexSans-Regular-31" x="87.199982"/>
       <use xlink:href="#IBMPlexSans-Regular-35" x="147.199966"/>
       <use xlink:href="#IBMPlexSans-Regular-30" x="207.199951"/>
      </g>
     </g>
    </g>
    <g id="text_20">
     <!-- dQint -->
     <g style="fill: #ef5350" transform="translate(646.19952 113.363823) rotate(-90) scale(0.15 -0.15)">
      <defs>
       <path id="IBMPlexSans-Regular-64" d="M 2656 538 
L 2630 538 
Q 2330 -77 1664 -77 
Q 1357 -77 1107 44 
Q 858 166 682 390 
Q 506 614 413 934 
Q 320 1254 320 1651 
Q 320 2048 413 2368 
Q 506 2688 682 2912 
Q 858 3136 1107 3257 
Q 1357 3379 1664 3379 
Q 2010 3379 2256 3228 
Q 2502 3078 2630 2765 
L 2656 2765 
L 2656 4736 
L 3168 4736 
L 3168 0 
L 2656 0 
L 2656 538 
z
M 1805 384 
Q 1978 384 2134 429 
Q 2291 474 2406 560 
Q 2522 646 2589 771 
Q 2656 896 2656 1056 
L 2656 2285 
Q 2656 2419 2589 2537 
Q 2522 2656 2406 2739 
Q 2291 2822 2134 2870 
Q 1978 2918 1805 2918 
Q 1370 2918 1120 2646 
Q 870 2374 870 1933 
L 870 1370 
Q 870 928 1120 656 
Q 1370 384 1805 384 
z
" transform="scale(0.015625)"/>
       <path id="IBMPlexSans-Regular-51" d="M 3251 -1050 
L 2592 -1050 
Q 2323 -1050 2188 -899 
Q 2054 -749 2054 -525 
L 2054 -70 
Q 1670 -32 1356 134 
Q 1043 301 825 592 
Q 608 883 489 1296 
Q 371 1709 371 2234 
Q 371 2797 505 3225 
Q 640 3654 886 3948 
Q 1133 4243 1481 4393 
Q 1830 4544 2266 4544 
Q 2694 4544 3046 4393 
Q 3398 4243 3644 3948 
Q 3891 3654 4025 3225 
Q 4160 2797 4160 2234 
Q 4160 1203 3731 624 
Q 3302 45 2566 -58 
L 2566 -602 
L 3251 -602 
L 3251 -1050 
z
M 2266 403 
Q 2554 403 2797 505 
Q 3040 608 3216 800 
Q 3392 992 3488 1261 
Q 3584 1530 3584 1862 
L 3584 2605 
Q 3584 2938 3488 3206 
Q 3392 3475 3216 3667 
Q 3040 3859 2797 3961 
Q 2554 4064 2266 4064 
Q 1978 4064 1734 3961 
Q 1491 3859 1315 3667 
Q 1139 3475 1043 3206 
Q 947 2938 947 2605 
L 947 1862 
Q 947 1530 1043 1261 
Q 1139 992 1315 800 
Q 1491 608 1734 505 
Q 1978 403 2266 403 
z
" transform="scale(0.015625)"/>
       <path id="IBMPlexSans-Regular-69" d="M 800 4077 
Q 634 4077 560 4157 
Q 486 4237 486 4365 
L 486 4448 
Q 486 4576 560 4656 
Q 634 4736 800 4736 
Q 966 4736 1040 4656 
Q 1114 4576 1114 4448 
L 1114 4365 
Q 1114 4237 1040 4157 
Q 966 4077 800 4077 
z
M 544 3302 
L 1056 3302 
L 1056 0 
L 544 0 
L 544 3302 
z
" transform="scale(0.015625)"/>
       <path id="IBMPlexSans-Regular-6e" d="M 544 0 
L 544 3302 
L 1056 3302 
L 1056 2765 
L 1082 2765 
Q 1203 3046 1424 3212 
Q 1645 3379 2016 3379 
Q 2528 3379 2825 3049 
Q 3123 2720 3123 2118 
L 3123 0 
L 2611 0 
L 2611 2029 
Q 2611 2918 1862 2918 
Q 1709 2918 1565 2880 
Q 1421 2842 1305 2765 
Q 1190 2688 1123 2569 
Q 1056 2451 1056 2291 
L 1056 0 
L 544 0 
z
" transform="scale(0.015625)"/>
      </defs>
      <use xlink:href="#IBMPlexSans-Regular-64"/>
      <use xlink:href="#IBMPlexSans-Regular-51" x="57.999985"/>
      <use xlink:href="#IBMPlexSans-Regular-69" x="128.799973"/>
      <use xlink:href="#IBMPlexSans-Regular-6e" x="153.799957"/>
      <use xlink:href="#IBMPlexSans-Regular-74" x="210.599945"/>
     </g>
    </g>
   </g>
   <g id="line2d_10">
    <path d="M 77.97314 25.146239 
L 80.427727 104.907384 
L 85.336901 55.056706 
L 87.791488 94.937222 
L 90.246075 74.996993 
L 95.155249 164.7282 
L 100.064423 114.877603 
L 102.51901 114.877546 
L 104.973597 74.996964 
L 107.428184 114.877565 
L 109.882771 124.847671 
L 112.337358 94.937241 
L 117.246532 114.877489 
L 119.701119 114.877489 
L 122.155706 94.93726 
L 124.610293 84.967155 
L 127.06488 25.146277 
L 129.519467 74.996898 
L 131.974054 84.967174 
L 134.428641 55.056706 
L 136.883228 104.90747 
L 139.337815 124.847766 
L 141.792402 65.026916 
L 144.246989 74.997002 
L 146.701576 104.907403 
L 149.156163 84.967126 
L 151.61075 74.99704 
L 154.065337 94.937327 
L 156.519924 55.056744 
L 158.974511 74.996993 
L 161.429098 134.817795 
L 163.883685 55.05663 
L 166.338272 164.728224 
L 168.792859 174.698396 
L 171.247446 84.967174 
L 173.702033 124.84769 
L 176.15662 114.877527 
L 178.611207 45.086487 
L 181.065794 114.877594 
L 183.520381 25.146296 
L 190.884142 154.758081 
L 195.793316 134.817804 
L 198.247903 144.787938 
L 200.70249 55.056706 
L 203.157077 114.877584 
L 205.611664 104.907384 
L 208.066251 65.026773 
L 210.520837 74.996936 
L 212.975424 114.877565 
L 215.430011 104.907384 
L 217.884598 114.877556 
L 222.793772 74.996945 
L 225.248359 104.907384 
L 227.702946 84.967136 
L 230.157533 134.817804 
L 232.61212 84.967174 
L 237.521294 84.96705 
L 239.975881 55.056725 
L 242.430468 144.787995 
L 244.885055 134.817814 
L 247.339642 154.758057 
L 249.794229 124.847718 
L 252.248816 114.877603 
L 254.703403 124.84769 
L 257.15799 84.967117 
L 259.612577 164.728186 
L 262.067164 35.116458 
L 264.521751 104.907479 
L 266.976338 84.96724 
L 269.430925 104.90746 
L 271.885512 94.937279 
L 274.340099 124.847709 
L 276.794686 114.877556 
L 279.249273 94.937231 
L 281.70386 144.787985 
L 284.158447 65.026868 
L 286.613034 114.877556 
L 289.067621 74.997002 
L 291.522208 134.817757 
L 293.976795 114.877499 
L 296.431382 74.996926 
L 298.885969 84.967136 
L 303.795143 124.847766 
L 306.24973 35.116401 
L 308.704317 144.787943 
L 311.158904 104.907441 
L 313.613491 104.907422 
L 316.068078 124.847728 
L 318.522665 114.877613 
L 323.431839 45.086563 
L 325.886426 45.086525 
L 328.341013 174.698405 
L 330.7956 144.787938 
L 333.250187 94.937317 
L 335.704774 94.937317 
L 338.159361 74.996974 
L 340.613948 134.81788 
L 343.068535 94.937336 
L 345.523121 114.877622 
L 347.977708 104.907403 
L 350.432295 134.817728 
L 355.341469 65.026916 
L 357.796056 84.967155 
L 360.250643 124.847652 
L 362.70523 124.847699 
L 365.159817 65.026773 
L 367.614404 55.056687 
L 372.523578 134.817871 
L 374.978165 134.817852 
L 379.887339 65.02683 
L 382.341926 124.847652 
L 384.796513 65.026849 
L 387.2511 134.817814 
L 389.705687 84.967145 
L 392.160274 74.996974 
L 394.614861 55.056725 
L 397.069448 84.967136 
L 399.524035 94.93725 
L 401.978622 84.967155 
L 404.433209 134.817814 
L 406.887796 45.086563 
L 409.342383 154.758124 
L 411.79697 124.847613 
L 414.251557 65.026897 
L 416.706144 144.787933 
L 421.615318 55.056668 
L 424.069905 25.146296 
L 426.524492 104.907318 
L 428.979079 104.907432 
L 431.433666 74.996983 
L 436.34284 144.788014 
L 438.797427 114.87747 
L 441.252014 104.907432 
L 443.706601 114.877584 
L 446.161188 74.997031 
L 448.615775 74.996993 
L 451.070362 55.056744 
L 453.524949 84.96706 
L 455.979536 94.937203 
L 458.434123 114.877603 
L 460.88871 114.877546 
L 463.343297 15.176115 
L 465.797884 94.937289 
L 468.252471 134.817814 
L 470.707058 74.997031 
L 473.161645 144.787938 
L 475.616232 74.997031 
L 478.070818 84.967155 
L 480.525405 104.907308 
L 482.979992 65.026726 
L 485.434579 65.02684 
L 487.889166 45.086639 
L 490.343753 114.877546 
L 492.79834 144.787947 
L 495.252927 134.817823 
L 500.162101 45.086506 
L 502.616688 144.788019 
L 505.071275 94.93725 
L 507.525862 74.996983 
L 509.980449 35.116363 
L 514.889623 134.817899 
L 517.34421 134.81789 
L 519.798797 114.877565 
L 522.253384 124.84769 
L 527.162558 104.907365 
L 529.617145 114.877622 
L 532.071732 45.086582 
L 534.526319 144.787938 
L 536.980906 154.758081 
L 541.89008 55.056763 
L 544.344667 134.817814 
L 546.799254 134.817918 
L 549.253841 104.907346 
L 551.708428 124.847661 
L 554.163015 84.967107 
L 556.617602 74.996974 
L 559.072189 45.086582 
L 563.981363 104.907384 
L 566.43595 94.937355 
L 566.43595 94.937355 
" clip-path="url(#pbf33bfc7dd)" style="fill: none; stroke: #ef5350; stroke-opacity: 0.9; stroke-width: 1.5; stroke-linecap: round"/>
   </g>
  </g>
 </g>
 <defs>
  <clipPath id="pbf33bfc7dd">
   <rect x="53.55" y="7.2" width="537.30909" height="175.47452"/>
  </clipPath>
 </defs>
</svg>
