<?xml version="1.0" encoding="utf-8" standalone="no"?>
<!DOCTYPE svg PUBLIC "-//W3C//DTD SVG 1.1//EN"
  "http://www.w3.org/Graphics/SVG/1.1/DTD/svg11.dtd">
<svg xmlns:xlink="http://www.w3.org/1999/xlink" width="326.647257pt" height="234.534474pt" viewBox="0 0 326.647257 234.534474" xmlns="http://www.w3.org/2000/svg" version="1.1">
 <metadata>
  <rdf:RDF xmlns:dc="http://purl.org/dc/elements/1.1/" xmlns:cc="http://creativecommons.org/ns#" xmlns:rdf="http://www.w3.org/1999/02/22-rdf-syntax-ns#">
   <cc:Work>
    <dc:type rdf:resource="http://purl.org/dc/dcmitype/StillImage"/>
    <dc:date>2023-12-05T12:05:32.207375</dc:date>
    <dc:format>image/svg+xml</dc:format>
    <dc:creator>
     <cc:Agent>
      <dc:title>Matplotlib v3.8.2, https://matplotlib.org/</dc:title>
     </cc:Agent>
    </dc:creator>
   </cc:Work>
  </rdf:RDF>
 </metadata>
 <defs>
  <style type="text/css">*{stroke-linejoin: round; stroke-linecap: butt}</style>
 </defs>
 <g id="figure_1">
  <g id="patch_1">
   <path d="M 0 234.534474 
L 326.647257 234.534474 
L 326.647257 0 
L 0 0 
L 0 234.534474 
z
" style="fill: none"/>
  </g>
  <g id="axes_1">
   <g id="patch_2">
    <path d="M 51.083984 192.009865 
L 317.460074 192.009865 
L 317.460074 28.442513 
L 51.083984 28.442513 
L 51.083984 192.009865 
z
" style="fill: none"/>
   </g>
   <g id="matplotlib.axis_1">
    <g id="xtick_1">
     <g id="text_1">
      <!-- 0 -->
      <g style="fill: #838383" transform="translate(58.81777 205.957716) scale(0.1375 -0.1375)">
       <defs>
        <path id="DejaVuSans-30" d="M 2034 4250 
Q 1547 4250 1301 3770 
Q 1056 3291 1056 2328 
Q 1056 1369 1301 889 
Q 1547 409 2034 409 
Q 2525 409 2770 889 
Q 3016 1369 3016 2328 
Q 3016 3291 2770 3770 
Q 2525 4250 2034 4250 
z
M 2034 4750 
Q 2819 4750 3233 4129 
Q 3647 3509 3647 2328 
Q 3647 1150 3233 529 
Q 2819 -91 2034 -91 
Q 1250 -91 836 529 
Q 422 1150 422 2328 
Q 422 3509 836 4129 
Q 1250 4750 2034 4750 
z
" transform="scale(0.015625)"/>
       </defs>
       <use xlink:href="#DejaVuSans-30"/>
      </g>
     </g>
    </g>
    <g id="xtick_2">
     <g id="text_2">
      <!-- 50 -->
      <g style="fill: #838383" transform="translate(103.070073 205.957716) scale(0.1375 -0.1375)">
       <defs>
        <path id="DejaVuSans-35" d="M 691 4666 
L 3169 4666 
L 3169 4134 
L 1269 4134 
L 1269 2991 
Q 1406 3038 1543 3061 
Q 1681 3084 1819 3084 
Q 2600 3084 3056 2656 
Q 3513 2228 3513 1497 
Q 3513 744 3044 326 
Q 2575 -91 1722 -91 
Q 1428 -91 1123 -41 
Q 819 9 494 109 
L 494 744 
Q 775 591 1075 516 
Q 1375 441 1709 441 
Q 2250 441 2565 725 
Q 2881 1009 2881 1497 
Q 2881 1984 2565 2268 
Q 2250 2553 1709 2553 
Q 1456 2553 1204 2497 
Q 953 2441 691 2322 
L 691 4666 
z
" transform="scale(0.015625)"/>
       </defs>
       <use xlink:href="#DejaVuSans-35"/>
       <use xlink:href="#DejaVuSans-30" x="63.623047"/>
      </g>
     </g>
    </g>
    <g id="xtick_3">
     <g id="text_3">
      <!-- 100 -->
      <g style="fill: #838383" transform="translate(147.322377 205.957716) scale(0.1375 -0.1375)">
       <defs>
        <path id="DejaVuSans-31" d="M 794 531 
L 1825 531 
L 1825 4091 
L 703 3866 
L 703 4441 
L 1819 4666 
L 2450 4666 
L 2450 531 
L 3481 531 
L 3481 0 
L 794 0 
L 794 531 
z
" transform="scale(0.015625)"/>
       </defs>
       <use xlink:href="#DejaVuSans-31"/>
       <use xlink:href="#DejaVuSans-30" x="63.623047"/>
       <use xlink:href="#DejaVuSans-30" x="127.246094"/>
      </g>
     </g>
    </g>
    <g id="xtick_4">
     <g id="text_4">
      <!-- 150 -->
      <g style="fill: #838383" transform="translate(195.948899 205.957716) scale(0.1375 -0.1375)">
       <use xlink:href="#DejaVuSans-31"/>
       <use xlink:href="#DejaVuSans-35" x="63.623047"/>
       <use xlink:href="#DejaVuSans-30" x="127.246094"/>
      </g>
     </g>
    </g>
    <g id="xtick_5">
     <g id="text_5">
      <!-- 200 -->
      <g style="fill: #838383" transform="translate(244.575422 205.957716) scale(0.1375 -0.1375)">
       <defs>
        <path id="DejaVuSans-32" d="M 1228 531 
L 3431 531 
L 3431 0 
L 469 0 
L 469 531 
Q 828 903 1448 1529 
Q 2069 2156 2228 2338 
Q 2531 2678 2651 2914 
Q 2772 3150 2772 3378 
Q 2772 3750 2511 3984 
Q 2250 4219 1831 4219 
Q 1534 4219 1204 4116 
Q 875 4013 500 3803 
L 500 4441 
Q 881 4594 1212 4672 
Q 1544 4750 1819 4750 
Q 2544 4750 2975 4387 
Q 3406 4025 3406 3419 
Q 3406 3131 3298 2873 
Q 3191 2616 2906 2266 
Q 2828 2175 2409 1742 
Q 1991 1309 1228 531 
z
" transform="scale(0.015625)"/>
       </defs>
       <use xlink:href="#DejaVuSans-32"/>
       <use xlink:href="#DejaVuSans-30" x="63.623047"/>
       <use xlink:href="#DejaVuSans-30" x="127.246094"/>
      </g>
     </g>
    </g>
    <g id="xtick_6">
     <g id="text_6">
      <!-- 250 -->
      <g style="fill: #838383" transform="translate(293.201944 205.957716) scale(0.1375 -0.1375)">
       <use xlink:href="#DejaVuSans-32"/>
       <use xlink:href="#DejaVuSans-35" x="63.623047"/>
       <use xlink:href="#DejaVuSans-30" x="127.246094"/>
      </g>
     </g>
    </g>
    <g id="text_7">
     <!-- draw -->
     <g style="fill: #838383" transform="translate(165.69781 224.214943) scale(0.15 -0.15)">
      <defs>
       <path id="DejaVuSans-64" d="M 2906 2969 
L 2906 4863 
L 3481 4863 
L 3481 0 
L 2906 0 
L 2906 525 
Q 2725 213 2448 61 
Q 2172 -91 1784 -91 
Q 1150 -91 751 415 
Q 353 922 353 1747 
Q 353 2572 751 3078 
Q 1150 3584 1784 3584 
Q 2172 3584 2448 3432 
Q 2725 3281 2906 2969 
z
M 947 1747 
Q 947 1113 1208 752 
Q 1469 391 1925 391 
Q 2381 391 2643 752 
Q 2906 1113 2906 1747 
Q 2906 2381 2643 2742 
Q 2381 3103 1925 3103 
Q 1469 3103 1208 2742 
Q 947 2381 947 1747 
z
" transform="scale(0.015625)"/>
       <path id="DejaVuSans-72" d="M 2631 2963 
Q 2534 3019 2420 3045 
Q 2306 3072 2169 3072 
Q 1681 3072 1420 2755 
Q 1159 2438 1159 1844 
L 1159 0 
L 581 0 
L 581 3500 
L 1159 3500 
L 1159 2956 
Q 1341 3275 1631 3429 
Q 1922 3584 2338 3584 
Q 2397 3584 2469 3576 
Q 2541 3569 2628 3553 
L 2631 2963 
z
" transform="scale(0.015625)"/>
       <path id="DejaVuSans-61" d="M 2194 1759 
Q 1497 1759 1228 1600 
Q 959 1441 959 1056 
Q 959 750 1161 570 
Q 1363 391 1709 391 
Q 2188 391 2477 730 
Q 2766 1069 2766 1631 
L 2766 1759 
L 2194 1759 
z
M 3341 1997 
L 3341 0 
L 2766 0 
L 2766 531 
Q 2569 213 2275 61 
Q 1981 -91 1556 -91 
Q 1019 -91 701 211 
Q 384 513 384 1019 
Q 384 1609 779 1909 
Q 1175 2209 1959 2209 
L 2766 2209 
L 2766 2266 
Q 2766 2663 2505 2880 
Q 2244 3097 1772 3097 
Q 1472 3097 1187 3025 
Q 903 2953 641 2809 
L 641 3341 
Q 956 3463 1253 3523 
Q 1550 3584 1831 3584 
Q 2591 3584 2966 3190 
Q 3341 2797 3341 1997 
z
" transform="scale(0.015625)"/>
       <path id="DejaVuSans-77" d="M 269 3500 
L 844 3500 
L 1563 769 
L 2278 3500 
L 2956 3500 
L 3675 769 
L 4391 3500 
L 4966 3500 
L 4050 0 
L 3372 0 
L 2619 2869 
L 1863 0 
L 1184 0 
L 269 3500 
z
" transform="scale(0.015625)"/>
      </defs>
      <use xlink:href="#DejaVuSans-64"/>
      <use xlink:href="#DejaVuSans-72" x="63.476562"/>
      <use xlink:href="#DejaVuSans-61" x="104.589844"/>
      <use xlink:href="#DejaVuSans-77" x="165.869141"/>
     </g>
    </g>
   </g>
   <g id="matplotlib.axis_2">
    <g id="ytick_1">
     <g id="text_8">
      <!-- 0.0 -->
      <g style="fill: #838383" transform="translate(25.717187 183.728012) scale(0.1375 -0.1375)">
       <defs>
        <path id="DejaVuSans-2e" d="M 684 794 
L 1344 794 
L 1344 0 
L 684 0 
L 684 794 
z
" transform="scale(0.015625)"/>
       </defs>
       <use xlink:href="#DejaVuSans-30"/>
       <use xlink:href="#DejaVuSans-2e" x="63.623047"/>
       <use xlink:href="#DejaVuSans-30" x="95.410156"/>
      </g>
     </g>
    </g>
    <g id="ytick_2">
     <g id="text_9">
      <!-- 0.5 -->
      <g style="fill: #838383" transform="translate(25.717187 119.527405) scale(0.1375 -0.1375)">
       <use xlink:href="#DejaVuSans-30"/>
       <use xlink:href="#DejaVuSans-2e" x="63.623047"/>
       <use xlink:href="#DejaVuSans-35" x="95.410156"/>
      </g>
     </g>
    </g>
    <g id="ytick_3">
     <g id="text_10">
      <!-- 1.0 -->
      <g style="fill: #838383" transform="translate(25.717187 55.326799) scale(0.1375 -0.1375)">
       <use xlink:href="#DejaVuSans-31"/>
       <use xlink:href="#DejaVuSans-2e" x="63.623047"/>
       <use xlink:href="#DejaVuSans-30" x="95.410156"/>
      </g>
     </g>
    </g>
    <g id="text_11">
     <!-- sldf -->
     <g style="fill: #838383" transform="translate(18.597656 123.618376) rotate(-90) scale(0.15 -0.15)">
      <defs>
       <path id="DejaVuSans-73" d="M 2834 3397 
L 2834 2853 
Q 2591 2978 2328 3040 
Q 2066 3103 1784 3103 
Q 1356 3103 1142 2972 
Q 928 2841 928 2578 
Q 928 2378 1081 2264 
Q 1234 2150 1697 2047 
L 1894 2003 
Q 2506 1872 2764 1633 
Q 3022 1394 3022 966 
Q 3022 478 2636 193 
Q 2250 -91 1575 -91 
Q 1294 -91 989 -36 
Q 684 19 347 128 
L 347 722 
Q 666 556 975 473 
Q 1284 391 1588 391 
Q 1994 391 2212 530 
Q 2431 669 2431 922 
Q 2431 1156 2273 1281 
Q 2116 1406 1581 1522 
L 1381 1569 
Q 847 1681 609 1914 
Q 372 2147 372 2553 
Q 372 3047 722 3315 
Q 1072 3584 1716 3584 
Q 2034 3584 2315 3537 
Q 2597 3491 2834 3397 
z
" transform="scale(0.015625)"/>
       <path id="DejaVuSans-6c" d="M 603 4863 
L 1178 4863 
L 1178 0 
L 603 0 
L 603 4863 
z
" transform="scale(0.015625)"/>
       <path id="DejaVuSans-66" d="M 2375 4863 
L 2375 4384 
L 1825 4384 
Q 1516 4384 1395 4259 
Q 1275 4134 1275 3809 
L 1275 3500 
L 2222 3500 
L 2222 3053 
L 1275 3053 
L 1275 0 
L 697 0 
L 697 3053 
L 147 3053 
L 147 3500 
L 697 3500 
L 697 3744 
Q 697 4328 969 4595 
Q 1241 4863 1831 4863 
L 2375 4863 
z
" transform="scale(0.015625)"/>
      </defs>
      <use xlink:href="#DejaVuSans-73"/>
      <use xlink:href="#DejaVuSans-6c" x="52.099609"/>
      <use xlink:href="#DejaVuSans-64" x="79.882812"/>
      <use xlink:href="#DejaVuSans-66" x="143.359375"/>
     </g>
    </g>
   </g>
   <g id="line2d_1">
    <path d="M 63.191988 178.504086 
L 305.35207 178.504086 
L 305.35207 178.504086 
" clip-path="url(#pe5510fe8aa)" style="fill: none; stroke: #440154; stroke-width: 1.5; stroke-linecap: round"/>
   </g>
   <g id="line2d_2">
    <path d="M 63.191988 179.988725 
L 64.164519 162.152304 
L 66.10958 173.385521 
L 68.054641 169.806251 
L 76.807415 168.796402 
L 82.642597 168.010983 
L 87.50525 167.647697 
L 137.104302 166.395409 
L 142.939485 165.745303 
L 151.692259 164.550334 
L 171.142868 160.254798 
L 175.03299 157.670408 
L 179.895642 156.375057 
L 183.785764 153.820084 
L 185.730825 153.65504 
L 187.675886 152.552003 
L 195.456129 149.43797 
L 198.373721 148.803105 
L 203.236373 147.662333 
L 205.181434 148.494297 
L 207.126495 147.603642 
L 211.016617 146.805918 
L 211.989147 146.993302 
L 213.934208 145.657126 
L 220.741921 144.003973 
L 234.357347 141.197302 
L 240.19253 140.398032 
L 242.137591 140.436008 
L 250.890365 140.827054 
L 252.835426 140.875036 
L 261.5882 139.146066 
L 267.423382 140.1643 
L 269.368443 140.135734 
L 272.286035 141.622795 
L 278.121217 141.841596 
L 281.038809 142.187066 
L 283.9564 141.665397 
L 285.901461 142.529525 
L 295.626765 146.055144 
L 297.571826 146.053923 
L 298.544357 146.505811 
L 300.489418 145.896116 
L 303.407009 146.492588 
L 305.35207 146.738225 
L 305.35207 146.738225 
" clip-path="url(#pe5510fe8aa)" style="fill: none; stroke: #482878; stroke-width: 1.5; stroke-linecap: round"/>
   </g>
   <g id="line2d_3">
    <path d="M 63.191988 181.469459 
L 64.164519 145.454275 
L 66.10958 170.486013 
L 68.054641 163.09354 
L 70.972232 161.995601 
L 75.834884 159.986161 
L 79.725006 159.461529 
L 87.50525 158.141341 
L 101.120676 157.645384 
L 103.065737 157.962338 
L 112.791041 157.608223 
L 128.351528 157.070421 
L 130.296589 156.350011 
L 133.214181 156.592847 
L 135.159242 156.278277 
L 138.076833 155.791299 
L 149.747198 153.448104 
L 152.66479 152.493111 
L 153.63732 153.148091 
L 155.582381 151.960196 
L 156.554911 152.396676 
L 157.527442 150.464751 
L 158.499972 151.332556 
L 162.390094 149.123891 
L 165.307685 148.352154 
L 167.252746 146.679558 
L 169.197807 146.905719 
L 175.03299 140.486153 
L 177.950581 139.354022 
L 182.813234 134.267969 
L 184.758294 133.362767 
L 191.566008 125.497438 
L 194.483599 122.78007 
L 198.373721 119.629838 
L 204.208903 115.779604 
L 205.181434 115.641125 
L 207.126495 113.086313 
L 209.071556 111.264213 
L 211.016617 109.761815 
L 211.989147 109.89326 
L 213.934208 106.138915 
L 219.769391 98.655923 
L 221.714451 99.325801 
L 224.632043 96.522548 
L 229.494695 92.844429 
L 230.467225 93.754208 
L 232.412286 92.075746 
L 235.329878 90.469967 
L 237.274939 88.664452 
L 239.22 89.138513 
L 241.16506 86.378125 
L 243.110121 87.028373 
L 245.055182 84.899498 
L 246.027713 84.557985 
L 247.000243 85.737092 
L 249.917834 85.075892 
L 252.835426 84.253835 
L 253.807956 83.441528 
L 254.780487 83.993438 
L 259.643139 78.260199 
L 262.56073 79.593015 
L 263.533261 78.069456 
L 265.478322 79.783384 
L 269.368443 76.473144 
L 270.340974 76.678314 
L 272.286035 78.433088 
L 274.231096 78.625224 
L 277.148687 76.660865 
L 278.121217 75.524241 
L 279.093748 77.269157 
L 280.066278 75.383007 
L 281.038809 76.208554 
L 282.011339 74.4589 
L 282.98387 75.328577 
L 284.928931 73.278745 
L 287.846522 75.115937 
L 288.819052 75.868931 
L 289.791583 75.03221 
L 292.709174 76.879887 
L 293.681705 76.45822 
L 295.626765 77.723389 
L 297.571826 76.595475 
L 298.544357 78.391507 
L 299.516887 76.227504 
L 302.434479 77.181045 
L 305.35207 76.81426 
L 305.35207 76.81426 
" clip-path="url(#pe5510fe8aa)" style="fill: none; stroke: #3e4989; stroke-width: 1.5; stroke-linecap: round"/>
   </g>
   <g id="line2d_4">
    <path d="M 63.191988 183.171821 
L 64.164519 129.49558 
L 66.10958 169.474538 
L 68.054641 157.056245 
L 69.999702 156.299513 
L 74.862354 152.299674 
L 80.697537 151.163867 
L 82.642597 150.107791 
L 86.532719 149.875266 
L 90.422841 148.898279 
L 93.340432 149.891137 
L 119.598754 149.519376 
L 121.543815 148.737311 
L 128.351528 148.126053 
L 130.296589 146.976407 
L 132.24165 147.874823 
L 135.159242 146.683354 
L 138.076833 145.781626 
L 148.774668 141.725755 
L 152.66479 139.113157 
L 153.63732 139.8625 
L 155.582381 137.91096 
L 156.554911 138.4571 
L 157.527442 135.642879 
L 158.499972 136.934294 
L 162.390094 133.600306 
L 165.307685 132.275446 
L 167.252746 129.917301 
L 169.197807 130.185396 
L 175.03299 121.932699 
L 176.00552 121.841977 
L 191.566008 103.162964 
L 193.511068 99.859911 
L 196.42866 98.726356 
L 200.318782 92.96232 
L 201.291312 91.393331 
L 202.263842 92.059765 
L 203.236373 90.468321 
L 205.181434 90.498521 
L 207.126495 87.305936 
L 208.099025 86.513351 
L 210.044086 82.449016 
L 211.989147 82.654951 
L 213.934208 77.910237 
L 219.769391 68.099705 
L 221.714451 69.019679 
L 223.659512 66.167658 
L 227.549634 62.425596 
L 229.494695 60.341454 
L 230.467225 61.66426 
L 232.412286 59.300069 
L 233.384817 59.274346 
L 237.274939 55.002208 
L 239.22 55.623526 
L 241.16506 51.586712 
L 242.137591 52.853932 
L 245.055182 50.138813 
L 246.027713 49.364084 
L 247.000243 50.785594 
L 256.725548 46.648751 
L 258.670608 44.120818 
L 259.643139 41.097653 
L 262.56073 42.7626 
L 263.533261 40.609403 
L 265.478322 43.059365 
L 268.395913 39.819214 
L 270.340974 39.771503 
L 272.286035 41.785257 
L 274.231096 41.928068 
L 276.176157 41.654646 
L 278.121217 38.046585 
L 279.093748 40.561708 
L 280.066278 37.932551 
L 281.038809 39.115569 
L 282.011339 36.83623 
L 282.98387 38.153946 
L 284.928931 35.877393 
L 288.819052 39.496398 
L 289.791583 38.495176 
L 292.709174 41.180064 
L 293.681705 40.781296 
L 295.626765 42.325458 
L 297.571826 41.021763 
L 298.544357 43.57728 
L 299.516887 40.627587 
L 300.489418 41.805875 
L 301.461948 41.375668 
L 302.434479 42.408267 
L 304.37954 41.330268 
L 305.35207 42.104492 
L 305.35207 42.104492 
" clip-path="url(#pe5510fe8aa)" style="fill: none; stroke: #31688e; stroke-width: 1.5; stroke-linecap: round"/>
   </g>
   <g id="line2d_5">
    <path d="M 63.191988 184.574985 
L 64.164519 112.340062 
L 66.10958 168.568373 
L 68.054641 151.295246 
L 69.027171 151.296639 
L 75.834884 144.617252 
L 77.779945 144.57579 
L 80.697537 143.54802 
L 81.670067 142.168032 
L 83.615128 142.446402 
L 90.422841 141.327565 
L 93.340432 143.369445 
L 95.285493 143.710182 
L 97.230554 144.597602 
L 98.203085 143.209594 
L 99.175615 144.184905 
L 100.148145 143.464155 
L 104.038267 144.938411 
L 109.87345 143.593871 
L 110.84598 144.607264 
L 112.791041 143.926698 
L 116.681163 144.220344 
L 123.488876 144.38973 
L 125.433937 142.592703 
L 131.26912 141.955565 
L 132.24165 142.420561 
L 135.159242 140.705933 
L 138.076833 139.575765 
L 151.692259 131.735497 
L 152.66479 130.584597 
L 153.63732 131.289485 
L 155.582381 128.783677 
L 156.554911 129.488608 
L 157.527442 125.952845 
L 158.499972 127.478968 
L 162.390094 123.505037 
L 165.307685 122.120883 
L 167.252746 119.820107 
L 169.197807 120.358089 
L 175.03299 112.596654 
L 176.00552 113.028209 
L 178.923112 110.809316 
L 180.868173 108.703309 
L 186.703355 102.604617 
L 187.675886 103.388989 
L 190.593477 100.898709 
L 193.511068 96.526558 
L 197.40119 97.566352 
L 200.318782 93.975435 
L 201.291312 92.567425 
L 202.263842 93.919657 
L 203.236373 93.073109 
L 205.181434 94.936185 
L 206.153964 92.295051 
L 208.099025 92.774309 
L 210.044086 88.961844 
L 211.989147 90.743519 
L 213.934208 86.932148 
L 216.851799 83.766472 
L 217.82433 83.806851 
L 219.769391 79.737671 
L 221.714451 81.969628 
L 223.659512 79.56805 
L 226.577104 77.325845 
L 229.494695 73.407068 
L 230.467225 74.994984 
L 232.412286 72.628818 
L 233.384817 72.962847 
L 235.329878 70.222411 
L 237.274939 67.288439 
L 239.22 68.161605 
L 241.16506 62.975272 
L 242.137591 64.91152 
L 246.027713 60.278406 
L 247.972774 61.458011 
L 249.917834 60.827638 
L 250.890365 61.060261 
L 253.807956 58.175002 
L 254.780487 58.943884 
L 256.725548 56.738728 
L 258.670608 53.828718 
L 259.643139 50.471487 
L 262.56073 51.861206 
L 263.533261 49.000353 
L 265.478322 52.442658 
L 267.423382 49.452771 
L 270.340974 47.847015 
L 272.286035 49.908586 
L 273.258565 50.7482 
L 277.148687 47.437869 
L 278.121217 45.223506 
L 279.093748 48.707063 
L 280.066278 44.71176 
L 281.038809 46.841599 
L 282.011339 43.523171 
L 282.98387 45.619703 
L 284.928931 42.983 
L 286.873991 44.080714 
L 288.819052 46.065707 
L 289.791583 44.667754 
L 292.709174 47.601098 
L 293.681705 46.970129 
L 295.626765 48.457917 
L 297.571826 46.630276 
L 298.544357 50.520629 
L 299.516887 46.305975 
L 300.489418 47.782635 
L 301.461948 46.895448 
L 302.434479 48.315673 
L 304.37954 46.783817 
L 305.35207 47.818605 
L 305.35207 47.818605 
" clip-path="url(#pe5510fe8aa)" style="fill: none; stroke: #26828e; stroke-width: 1.5; stroke-linecap: round"/>
   </g>
   <g id="line2d_6">
    <path d="M 63.191988 178.504086 
L 305.35207 178.504086 
L 305.35207 178.504086 
" clip-path="url(#pe5510fe8aa)" style="fill: none; stroke: #1f9e89; stroke-width: 1.5; stroke-linecap: round"/>
   </g>
   <g id="line2d_7">
    <path d="M 63.191988 178.504086 
L 305.35207 178.504086 
L 305.35207 178.504086 
" clip-path="url(#pe5510fe8aa)" style="fill: none; stroke: #35b779; stroke-width: 1.5; stroke-linecap: round"/>
   </g>
   <g id="line2d_8">
    <path d="M 63.191988 178.504086 
L 305.35207 178.504086 
L 305.35207 178.504086 
" clip-path="url(#pe5510fe8aa)" style="fill: none; stroke: #6ece58; stroke-width: 1.5; stroke-linecap: round"/>
   </g>
   <g id="line2d_9">
    <path d="M 63.191988 178.504086 
L 305.35207 178.504086 
L 305.35207 178.504086 
" clip-path="url(#pe5510fe8aa)" style="fill: none; stroke: #b5de2b; stroke-width: 1.5; stroke-linecap: round"/>
   </g>
   <g id="patch_3">
    <path d="M 51.083984 192.009865 
L 51.083984 28.442513 
" style="fill: none"/>
   </g>
   <g id="patch_4">
    <path d="M 317.460074 192.009865 
L 317.460074 28.442513 
" style="fill: none"/>
   </g>
   <g id="patch_5">
    <path d="M 51.083984 192.009865 
L 317.460074 192.009865 
" style="fill: none"/>
   </g>
   <g id="patch_6">
    <path d="M 51.083984 28.442513 
L 317.460074 28.442513 
" style="fill: none"/>
   </g>
  </g>
  <g id="text_12">
   <!-- train: tensorflow -->
   <g style="fill: #262626" transform="translate(120.743266 18.14175) scale(0.144 -0.144)">
    <defs>
     <path id="DejaVuSans-74" d="M 1172 4494 
L 1172 3500 
L 2356 3500 
L 2356 3053 
L 1172 3053 
L 1172 1153 
Q 1172 725 1289 603 
Q 1406 481 1766 481 
L 2356 481 
L 2356 0 
L 1766 0 
Q 1100 0 847 248 
Q 594 497 594 1153 
L 594 3053 
L 172 3053 
L 172 3500 
L 594 3500 
L 594 4494 
L 1172 4494 
z
" transform="scale(0.015625)"/>
     <path id="DejaVuSans-69" d="M 603 3500 
L 1178 3500 
L 1178 0 
L 603 0 
L 603 3500 
z
M 603 4863 
L 1178 4863 
L 1178 4134 
L 603 4134 
L 603 4863 
z
" transform="scale(0.015625)"/>
     <path id="DejaVuSans-6e" d="M 3513 2113 
L 3513 0 
L 2938 0 
L 2938 2094 
Q 2938 2591 2744 2837 
Q 2550 3084 2163 3084 
Q 1697 3084 1428 2787 
Q 1159 2491 1159 1978 
L 1159 0 
L 581 0 
L 581 3500 
L 1159 3500 
L 1159 2956 
Q 1366 3272 1645 3428 
Q 1925 3584 2291 3584 
Q 2894 3584 3203 3211 
Q 3513 2838 3513 2113 
z
" transform="scale(0.015625)"/>
     <path id="DejaVuSans-3a" d="M 750 794 
L 1409 794 
L 1409 0 
L 750 0 
L 750 794 
z
M 750 3309 
L 1409 3309 
L 1409 2516 
L 750 2516 
L 750 3309 
z
" transform="scale(0.015625)"/>
     <path id="DejaVuSans-20" transform="scale(0.015625)"/>
     <path id="DejaVuSans-65" d="M 3597 1894 
L 3597 1613 
L 953 1613 
Q 991 1019 1311 708 
Q 1631 397 2203 397 
Q 2534 397 2845 478 
Q 3156 559 3463 722 
L 3463 178 
Q 3153 47 2828 -22 
Q 2503 -91 2169 -91 
Q 1331 -91 842 396 
Q 353 884 353 1716 
Q 353 2575 817 3079 
Q 1281 3584 2069 3584 
Q 2775 3584 3186 3129 
Q 3597 2675 3597 1894 
z
M 3022 2063 
Q 3016 2534 2758 2815 
Q 2500 3097 2075 3097 
Q 1594 3097 1305 2825 
Q 1016 2553 972 2059 
L 3022 2063 
z
" transform="scale(0.015625)"/>
     <path id="DejaVuSans-6f" d="M 1959 3097 
Q 1497 3097 1228 2736 
Q 959 2375 959 1747 
Q 959 1119 1226 758 
Q 1494 397 1959 397 
Q 2419 397 2687 759 
Q 2956 1122 2956 1747 
Q 2956 2369 2687 2733 
Q 2419 3097 1959 3097 
z
M 1959 3584 
Q 2709 3584 3137 3096 
Q 3566 2609 3566 1747 
Q 3566 888 3137 398 
Q 2709 -91 1959 -91 
Q 1206 -91 779 398 
Q 353 888 353 1747 
Q 353 2609 779 3096 
Q 1206 3584 1959 3584 
z
" transform="scale(0.015625)"/>
    </defs>
    <use xlink:href="#DejaVuSans-74"/>
    <use xlink:href="#DejaVuSans-72" x="39.208984"/>
    <use xlink:href="#DejaVuSans-61" x="80.322266"/>
    <use xlink:href="#DejaVuSans-69" x="141.601562"/>
    <use xlink:href="#DejaVuSans-6e" x="169.384766"/>
    <use xlink:href="#DejaVuSans-3a" x="232.763672"/>
    <use xlink:href="#DejaVuSans-20" x="266.455078"/>
    <use xlink:href="#DejaVuSans-74" x="298.242188"/>
    <use xlink:href="#DejaVuSans-65" x="337.451172"/>
    <use xlink:href="#DejaVuSans-6e" x="398.974609"/>
    <use xlink:href="#DejaVuSans-73" x="462.353516"/>
    <use xlink:href="#DejaVuSans-6f" x="514.453125"/>
    <use xlink:href="#DejaVuSans-72" x="575.634766"/>
    <use xlink:href="#DejaVuSans-66" x="616.748047"/>
    <use xlink:href="#DejaVuSans-6c" x="651.953125"/>
    <use xlink:href="#DejaVuSans-6f" x="679.736328"/>
    <use xlink:href="#DejaVuSans-77" x="740.917969"/>
   </g>
  </g>
 </g>
 <defs>
  <clipPath id="pe5510fe8aa">
   <rect x="51.083984" y="28.442513" width="266.37609" height="163.567352"/>
  </clipPath>
 </defs>
</svg>
