<?xml version="1.0" encoding="utf-8" standalone="no"?>
<!DOCTYPE svg PUBLIC "-//W3C//DTD SVG 1.1//EN"
  "http://www.w3.org/Graphics/SVG/1.1/DTD/svg11.dtd">
<svg xmlns:xlink="http://www.w3.org/1999/xlink" width="227.243097pt" height="174.899688pt" viewBox="0 0 227.243097 174.899688" xmlns="http://www.w3.org/2000/svg" version="1.1">
 <metadata>
  <rdf:RDF xmlns:dc="http://purl.org/dc/elements/1.1/" xmlns:cc="http://creativecommons.org/ns#" xmlns:rdf="http://www.w3.org/1999/02/22-rdf-syntax-ns#">
   <cc:Work>
    <dc:type rdf:resource="http://purl.org/dc/dcmitype/StillImage"/>
    <dc:date>2023-12-05T12:10:03.405524</dc:date>
    <dc:format>image/svg+xml</dc:format>
    <dc:creator>
     <cc:Agent>
      <dc:title>Matplotlib v3.8.2, https://matplotlib.org/</dc:title>
     </cc:Agent>
    </dc:creator>
   </cc:Work>
  </rdf:RDF>
 </metadata>
 <defs>
  <style type="text/css">*{stroke-linejoin: round; stroke-linecap: butt}</style>
 </defs>
 <g id="figure_1">
  <g id="patch_1">
   <path d="M 0 174.899688 
L 227.243097 174.899688 
L 227.243097 0 
L 0 0 
L 0 174.899688 
z
" style="fill: none"/>
  </g>
  <g id="axes_1">
   <g id="patch_2">
    <path d="M 10.793097 48.78 
L 220.043097 48.78 
L 220.043097 7.2 
L 10.793097 7.2 
L 10.793097 48.78 
z
" style="fill: none"/>
   </g>
   <g id="matplotlib.axis_1">
    <g id="xtick_1"/>
    <g id="xtick_2"/>
    <g id="xtick_3"/>
    <g id="xtick_4"/>
    <g id="xtick_5"/>
   </g>
   <g id="matplotlib.axis_2"/>
   <g id="line2d_1">
    <path d="M 10.793097 48.78 
L 220.043097 48.78 
" style="fill: none; stroke: #482475; stroke-opacity: 0.9; stroke-linecap: round"/>
   </g>
   <g id="text_1">
    <!-- 0 -->
    <g style="fill: #482475" transform="translate(10.793097 47.93325) scale(0.12 -0.12)">
     <defs>
      <path id="DejaVuSans-Bold-30" d="M 2944 2338 
Q 2944 3213 2780 3570 
Q 2616 3928 2228 3928 
Q 1841 3928 1675 3570 
Q 1509 3213 1509 2338 
Q 1509 1453 1675 1090 
Q 1841 728 2228 728 
Q 2613 728 2778 1090 
Q 2944 1453 2944 2338 
z
M 4147 2328 
Q 4147 1169 3647 539 
Q 3147 -91 2228 -91 
Q 1306 -91 806 539 
Q 306 1169 306 2328 
Q 306 3491 806 4120 
Q 1306 4750 2228 4750 
Q 3147 4750 3647 4120 
Q 4147 3491 4147 2328 
z
" transform="scale(0.015625)"/>
     </defs>
     <use xlink:href="#DejaVuSans-Bold-30"/>
    </g>
   </g>
  </g>
  <g id="axes_2">
   <g id="patch_3">
    <path d="M 10.793097 59.175 
L 220.043097 59.175 
L 220.043097 17.595 
L 10.793097 17.595 
L 10.793097 59.175 
z
" style="fill: none"/>
   </g>
   <g id="matplotlib.axis_3">
    <g id="xtick_6"/>
    <g id="xtick_7"/>
    <g id="xtick_8"/>
    <g id="xtick_9"/>
    <g id="xtick_10"/>
   </g>
   <g id="matplotlib.axis_4"/>
   <g id="PolyCollection_1">
    <defs>
     <path id="m108f123bf5" d="M 20.30446 -115.752222 
L 20.30446 -115.724688 
L 20.357611 -115.724688 
L 20.410762 -115.724688 
L 20.463913 -115.724688 
L 20.517064 -115.724688 
L 20.570216 -115.724688 
L 20.623367 -115.724688 
L 20.676518 -115.724688 
L 20.729669 -115.724688 
L 20.78282 -115.724688 
L 20.835971 -115.724688 
L 20.889122 -115.724688 
L 20.942273 -115.724688 
L 20.995424 -115.724688 
L 21.048575 -115.724688 
L 21.101726 -115.724688 
L 21.154877 -115.724688 
L 21.208028 -115.724688 
L 21.261179 -115.724688 
L 21.31433 -115.724688 
L 21.367481 -115.724688 
L 21.420632 -115.724688 
L 21.473783 -115.724688 
L 21.526934 -115.724688 
L 21.580085 -115.724688 
L 21.633236 -115.724688 
L 21.686387 -115.724688 
L 21.739538 -115.724688 
L 21.79269 -115.724688 
L 21.845841 -115.724688 
L 21.898992 -115.724688 
L 21.952143 -115.724688 
L 22.005294 -115.724688 
L 22.058445 -115.724688 
L 22.111596 -115.724688 
L 22.164747 -115.724688 
L 22.217898 -115.724688 
L 22.271049 -115.724688 
L 22.3242 -115.724688 
L 22.377351 -115.724688 
L 22.430502 -115.724688 
L 22.483653 -115.724688 
L 22.536804 -115.724688 
L 22.589955 -115.724688 
L 22.643106 -115.724688 
L 22.696257 -115.724688 
L 22.749408 -115.724688 
L 22.802559 -115.724688 
L 22.85571 -115.724688 
L 22.908861 -115.724688 
L 22.962012 -115.724688 
L 23.015164 -115.724688 
L 23.068315 -115.724688 
L 23.121466 -115.724688 
L 23.174617 -115.724688 
L 23.227768 -115.724688 
L 23.280919 -115.724688 
L 23.33407 -115.724688 
L 23.387221 -115.724688 
L 23.440372 -115.724688 
L 23.493523 -115.724688 
L 23.546674 -115.724688 
L 23.599825 -115.724688 
L 23.652976 -115.724688 
L 23.706127 -115.724688 
L 23.759278 -115.724688 
L 23.812429 -115.724688 
L 23.86558 -115.724688 
L 23.918731 -115.724688 
L 23.971882 -115.724688 
L 24.025033 -115.724688 
L 24.078184 -115.724688 
L 24.131335 -115.724688 
L 24.184486 -115.724688 
L 24.237638 -115.724688 
L 24.290789 -115.724688 
L 24.34394 -115.724688 
L 24.397091 -115.724688 
L 24.450242 -115.724688 
L 24.503393 -115.724688 
L 24.556544 -115.724688 
L 24.609695 -115.724688 
L 24.662846 -115.724688 
L 24.715997 -115.724688 
L 24.769148 -115.724688 
L 24.822299 -115.724688 
L 24.87545 -115.724688 
L 24.928601 -115.724688 
L 24.981752 -115.724688 
L 25.034903 -115.724688 
L 25.088054 -115.724688 
L 25.141205 -115.724688 
L 25.194356 -115.724688 
L 25.247507 -115.724688 
L 25.300658 -115.724688 
L 25.353809 -115.724688 
L 25.40696 -115.724688 
L 25.460111 -115.724688 
L 25.513263 -115.724688 
L 25.566414 -115.724688 
L 25.619565 -115.724688 
L 25.672716 -115.724688 
L 25.725867 -115.724688 
L 25.779018 -115.724688 
L 25.832169 -115.724688 
L 25.88532 -115.724688 
L 25.938471 -115.724688 
L 25.991622 -115.724688 
L 26.044773 -115.724688 
L 26.097924 -115.724688 
L 26.151075 -115.724688 
L 26.204226 -115.724688 
L 26.257377 -115.724688 
L 26.310528 -115.724688 
L 26.363679 -115.724688 
L 26.41683 -115.724688 
L 26.469981 -115.724688 
L 26.523132 -115.724688 
L 26.576283 -115.724688 
L 26.629434 -115.724688 
L 26.682585 -115.724688 
L 26.735737 -115.724688 
L 26.788888 -115.724688 
L 26.842039 -115.724688 
L 26.89519 -115.724688 
L 26.948341 -115.724688 
L 27.001492 -115.724688 
L 27.054643 -115.724688 
L 27.107794 -115.724688 
L 27.160945 -115.724688 
L 27.214096 -115.724688 
L 27.267247 -115.724688 
L 27.320398 -115.724688 
L 27.373549 -115.724688 
L 27.4267 -115.724688 
L 27.479851 -115.724688 
L 27.533002 -115.724688 
L 27.586153 -115.724688 
L 27.639304 -115.724688 
L 27.692455 -115.724688 
L 27.745606 -115.724688 
L 27.798757 -115.724688 
L 27.851908 -115.724688 
L 27.905059 -115.724688 
L 27.958211 -115.724688 
L 28.011362 -115.724688 
L 28.064513 -115.724688 
L 28.117664 -115.724688 
L 28.170815 -115.724688 
L 28.223966 -115.724688 
L 28.277117 -115.724688 
L 28.330268 -115.724688 
L 28.383419 -115.724688 
L 28.43657 -115.724688 
L 28.489721 -115.724688 
L 28.542872 -115.724688 
L 28.596023 -115.724688 
L 28.649174 -115.724688 
L 28.702325 -115.724688 
L 28.755476 -115.724688 
L 28.808627 -115.724688 
L 28.861778 -115.724688 
L 28.914929 -115.724688 
L 28.96808 -115.724688 
L 29.021231 -115.724688 
L 29.074382 -115.724688 
L 29.127533 -115.724688 
L 29.180685 -115.724688 
L 29.233836 -115.724688 
L 29.286987 -115.724688 
L 29.340138 -115.724688 
L 29.393289 -115.724688 
L 29.44644 -115.724688 
L 29.499591 -115.724688 
L 29.552742 -115.724688 
L 29.605893 -115.724688 
L 29.659044 -115.724688 
L 29.712195 -115.724688 
L 29.765346 -115.724688 
L 29.818497 -115.724688 
L 29.871648 -115.724688 
L 29.924799 -115.724688 
L 29.97795 -115.724688 
L 30.031101 -115.724688 
L 30.084252 -115.724688 
L 30.137403 -115.724688 
L 30.190554 -115.724688 
L 30.243705 -115.724688 
L 30.296856 -115.724688 
L 30.350007 -115.724688 
L 30.403159 -115.724688 
L 30.45631 -115.724688 
L 30.509461 -115.724688 
L 30.562612 -115.724688 
L 30.615763 -115.724688 
L 30.668914 -115.724688 
L 30.722065 -115.724688 
L 30.775216 -115.724688 
L 30.828367 -115.724688 
L 30.881518 -115.724688 
L 30.881518 -115.820787 
L 30.881518 -115.820787 
L 30.828367 -115.851081 
L 30.775216 -115.885719 
L 30.722065 -115.92394 
L 30.668914 -115.964891 
L 30.615763 -116.007851 
L 30.562612 -116.052431 
L 30.509461 -116.098681 
L 30.45631 -116.147034 
L 30.403159 -116.19811 
L 30.350007 -116.252437 
L 30.296856 -116.310202 
L 30.243705 -116.371143 
L 30.190554 -116.434673 
L 30.137403 -116.500198 
L 30.084252 -116.567564 
L 30.031101 -116.63746 
L 29.97795 -116.711624 
L 29.924799 -116.792746 
L 29.871648 -116.88407 
L 29.818497 -116.988786 
L 29.765346 -117.109379 
L 29.712195 -117.247124 
L 29.659044 -117.401863 
L 29.605893 -117.572138 
L 29.552742 -117.755643 
L 29.499591 -117.949897 
L 29.44644 -118.152996 
L 29.393289 -118.364248 
L 29.340138 -118.584565 
L 29.286987 -118.816477 
L 29.233836 -119.063736 
L 29.180685 -119.330556 
L 29.127533 -119.620629 
L 29.074382 -119.936138 
L 29.021231 -120.277028 
L 28.96808 -120.640754 
L 28.914929 -121.022618 
L 28.861778 -121.416664 
L 28.808627 -121.816911 
L 28.755476 -122.218634 
L 28.702325 -122.619338 
L 28.649174 -123.019194 
L 28.596023 -123.420856 
L 28.542872 -123.82876 
L 28.489721 -124.248159 
L 28.43657 -124.684209 
L 28.383419 -125.141334 
L 28.330268 -125.622998 
L 28.277117 -126.131807 
L 28.223966 -126.669748 
L 28.170815 -127.238335 
L 28.117664 -127.838512 
L 28.064513 -128.470289 
L 28.011362 -129.132315 
L 27.958211 -129.821638 
L 27.905059 -130.533916 
L 27.851908 -131.264179 
L 27.798757 -132.007987 
L 27.745606 -132.762615 
L 27.692455 -133.527808 
L 27.639304 -134.305728 
L 27.586153 -135.09998 
L 27.533002 -135.913957 
L 27.479851 -136.749002 
L 27.4267 -137.603002 
L 27.373549 -138.469878 
L 27.320398 -139.340172 
L 27.267247 -140.202567 
L 27.214096 -141.045915 
L 27.160945 -141.86127 
L 27.107794 -142.643449 
L 27.054643 -143.39182 
L 27.001492 -144.110193 
L 26.948341 -144.805843 
L 26.89519 -145.487826 
L 26.842039 -146.164894 
L 26.788888 -146.843423 
L 26.735737 -147.525812 
L 26.682585 -148.209798 
L 26.629434 -148.888898 
L 26.576283 -149.553886 
L 26.523132 -150.194887 
L 26.469981 -150.803478 
L 26.41683 -151.374192 
L 26.363679 -151.905059 
L 26.310528 -152.397147 
L 26.257377 -152.853384 
L 26.204226 -153.277095 
L 26.151075 -153.670665 
L 26.097924 -154.03459 
L 26.044773 -154.366966 
L 25.991622 -154.66335 
L 25.938471 -154.916876 
L 25.88532 -155.118607 
L 25.832169 -155.258153 
L 25.779018 -155.324688 
L 25.725867 -155.308372 
L 25.672716 -155.202099 
L 25.619565 -155.003223 
L 25.566414 -154.714816 
L 25.513263 -154.345994 
L 25.460111 -153.911 
L 25.40696 -153.42705 
L 25.353809 -152.911305 
L 25.300658 -152.377593 
L 25.247507 -151.833636 
L 25.194356 -151.279462 
L 25.141205 -150.707418 
L 25.088054 -150.103856 
L 25.034903 -149.45215 
L 24.981752 -148.73642 
L 24.928601 -147.945153 
L 24.87545 -147.073933 
L 24.822299 -146.126724 
L 24.769148 -145.115475 
L 24.715997 -144.05825 
L 24.662846 -142.97639 
L 24.609695 -141.891435 
L 24.556544 -140.822481 
L 24.503393 -139.784468 
L 24.450242 -138.787549 
L 24.397091 -137.837403 
L 24.34394 -136.936107 
L 24.290789 -136.083132 
L 24.237638 -135.276129 
L 24.184486 -134.511351 
L 24.131335 -133.783775 
L 24.078184 -133.087127 
L 24.025033 -132.414035 
L 23.971882 -131.756481 
L 23.918731 -131.106584 
L 23.86558 -130.457607 
L 23.812429 -129.805006 
L 23.759278 -129.147292 
L 23.706127 -128.486505 
L 23.652976 -127.828143 
L 23.599825 -127.180497 
L 23.546674 -126.553441 
L 23.493523 -125.956841 
L 23.440372 -125.398858 
L 23.387221 -124.884497 
L 23.33407 -124.414724 
L 23.280919 -123.986366 
L 23.227768 -123.592839 
L 23.174617 -123.225539 
L 23.121466 -122.875527 
L 23.068315 -122.535112 
L 23.015164 -122.19893 
L 22.962012 -121.864311 
L 22.908861 -121.530926 
L 22.85571 -121.19993 
L 22.802559 -120.87295 
L 22.749408 -120.551269 
L 22.696257 -120.235468 
L 22.643106 -119.925574 
L 22.589955 -119.621581 
L 22.536804 -119.324076 
L 22.483653 -119.034688 
L 22.430502 -118.756151 
L 22.377351 -118.491968 
L 22.3242 -118.245762 
L 22.271049 -118.020552 
L 22.217898 -117.818164 
L 22.164747 -117.638923 
L 22.111596 -117.481687 
L 22.058445 -117.344151 
L 22.005294 -117.223303 
L 21.952143 -117.11591 
L 21.898992 -117.018902 
L 21.845841 -116.929618 
L 21.79269 -116.845909 
L 21.739538 -116.766116 
L 21.686387 -116.689003 
L 21.633236 -116.613682 
L 21.580085 -116.539576 
L 21.526934 -116.46642 
L 21.473783 -116.394304 
L 21.420632 -116.323705 
L 21.367481 -116.255474 
L 21.31433 -116.190755 
L 21.261179 -116.130805 
L 21.208028 -116.07678 
L 21.154877 -116.029494 
L 21.101726 -115.989253 
L 21.048575 -115.955787 
L 20.995424 -115.928319 
L 20.942273 -115.905728 
L 20.889122 -115.886767 
L 20.835971 -115.870281 
L 20.78282 -115.855346 
L 20.729669 -115.841337 
L 20.676518 -115.827917 
L 20.623367 -115.814968 
L 20.570216 -115.80252 
L 20.517064 -115.790681 
L 20.463913 -115.779593 
L 20.410762 -115.769403 
L 20.357611 -115.760244 
L 20.30446 -115.752222 
z
" style="stroke: #414487; stroke-width: 1.25"/>
    </defs>
    <g>
     <use xlink:href="#m108f123bf5" x="0" y="174.899688" style="fill: #414487; fill-opacity: 0.7; stroke: #414487; stroke-width: 1.25"/>
    </g>
   </g>
   <g id="line2d_2">
    <path d="M 10.793097 59.175 
L 220.043097 59.175 
" style="fill: none; stroke: #414487; stroke-opacity: 0.9; stroke-linecap: round"/>
   </g>
   <g id="text_2">
    <!-- 1 -->
    <g style="fill: #414487" transform="translate(10.793097 58.32825) scale(0.12 -0.12)">
     <defs>
      <path id="DejaVuSans-Bold-31" d="M 750 831 
L 1813 831 
L 1813 3847 
L 722 3622 
L 722 4441 
L 1806 4666 
L 2950 4666 
L 2950 831 
L 4013 831 
L 4013 0 
L 750 0 
L 750 831 
z
" transform="scale(0.015625)"/>
     </defs>
     <use xlink:href="#DejaVuSans-Bold-31"/>
    </g>
   </g>
  </g>
  <g id="axes_3">
   <g id="patch_4">
    <path d="M 10.793097 69.57 
L 220.043097 69.57 
L 220.043097 27.99 
L 10.793097 27.99 
L 10.793097 69.57 
z
" style="fill: none"/>
   </g>
   <g id="matplotlib.axis_5">
    <g id="xtick_11"/>
    <g id="xtick_12"/>
    <g id="xtick_13"/>
    <g id="xtick_14"/>
    <g id="xtick_15"/>
   </g>
   <g id="matplotlib.axis_6"/>
   <g id="PolyCollection_2">
    <defs>
     <path id="m04665f799f" d="M 129.711732 -105.341988 
L 129.711732 -105.329688 
L 129.821225 -105.329688 
L 129.930718 -105.329688 
L 130.04021 -105.329688 
L 130.149703 -105.329688 
L 130.259196 -105.329688 
L 130.368689 -105.329688 
L 130.478181 -105.329688 
L 130.587674 -105.329688 
L 130.697167 -105.329688 
L 130.80666 -105.329688 
L 130.916152 -105.329688 
L 131.025645 -105.329688 
L 131.135138 -105.329688 
L 131.244631 -105.329688 
L 131.354123 -105.329688 
L 131.463616 -105.329688 
L 131.573109 -105.329688 
L 131.682602 -105.329688 
L 131.792094 -105.329688 
L 131.901587 -105.329688 
L 132.01108 -105.329688 
L 132.120573 -105.329688 
L 132.230065 -105.329688 
L 132.339558 -105.329688 
L 132.449051 -105.329688 
L 132.558543 -105.329688 
L 132.668036 -105.329688 
L 132.777529 -105.329688 
L 132.887022 -105.329688 
L 132.996514 -105.329688 
L 133.106007 -105.329688 
L 133.2155 -105.329688 
L 133.324993 -105.329688 
L 133.434485 -105.329688 
L 133.543978 -105.329688 
L 133.653471 -105.329688 
L 133.762964 -105.329688 
L 133.872456 -105.329688 
L 133.981949 -105.329688 
L 134.091442 -105.329688 
L 134.200935 -105.329688 
L 134.310427 -105.329688 
L 134.41992 -105.329688 
L 134.529413 -105.329688 
L 134.638906 -105.329688 
L 134.748398 -105.329688 
L 134.857891 -105.329688 
L 134.967384 -105.329688 
L 135.076876 -105.329688 
L 135.186369 -105.329688 
L 135.295862 -105.329688 
L 135.405355 -105.329688 
L 135.514847 -105.329688 
L 135.62434 -105.329688 
L 135.733833 -105.329688 
L 135.843326 -105.329688 
L 135.952818 -105.329688 
L 136.062311 -105.329688 
L 136.171804 -105.329688 
L 136.281297 -105.329688 
L 136.390789 -105.329688 
L 136.500282 -105.329688 
L 136.609775 -105.329688 
L 136.719268 -105.329688 
L 136.82876 -105.329688 
L 136.938253 -105.329688 
L 137.047746 -105.329688 
L 137.157239 -105.329688 
L 137.266731 -105.329688 
L 137.376224 -105.329688 
L 137.485717 -105.329688 
L 137.595209 -105.329688 
L 137.704702 -105.329688 
L 137.814195 -105.329688 
L 137.923688 -105.329688 
L 138.03318 -105.329688 
L 138.142673 -105.329688 
L 138.252166 -105.329688 
L 138.361659 -105.329688 
L 138.471151 -105.329688 
L 138.580644 -105.329688 
L 138.690137 -105.329688 
L 138.79963 -105.329688 
L 138.909122 -105.329688 
L 139.018615 -105.329688 
L 139.128108 -105.329688 
L 139.237601 -105.329688 
L 139.347093 -105.329688 
L 139.456586 -105.329688 
L 139.566079 -105.329688 
L 139.675572 -105.329688 
L 139.785064 -105.329688 
L 139.894557 -105.329688 
L 140.00405 -105.329688 
L 140.113542 -105.329688 
L 140.223035 -105.329688 
L 140.332528 -105.329688 
L 140.442021 -105.329688 
L 140.551513 -105.329688 
L 140.661006 -105.329688 
L 140.770499 -105.329688 
L 140.879992 -105.329688 
L 140.989484 -105.329688 
L 141.098977 -105.329688 
L 141.20847 -105.329688 
L 141.317963 -105.329688 
L 141.427455 -105.329688 
L 141.536948 -105.329688 
L 141.646441 -105.329688 
L 141.755934 -105.329688 
L 141.865426 -105.329688 
L 141.974919 -105.329688 
L 142.084412 -105.329688 
L 142.193904 -105.329688 
L 142.303397 -105.329688 
L 142.41289 -105.329688 
L 142.522383 -105.329688 
L 142.631875 -105.329688 
L 142.741368 -105.329688 
L 142.850861 -105.329688 
L 142.960354 -105.329688 
L 143.069846 -105.329688 
L 143.179339 -105.329688 
L 143.288832 -105.329688 
L 143.398325 -105.329688 
L 143.507817 -105.329688 
L 143.61731 -105.329688 
L 143.726803 -105.329688 
L 143.836296 -105.329688 
L 143.945788 -105.329688 
L 144.055281 -105.329688 
L 144.164774 -105.329688 
L 144.274267 -105.329688 
L 144.383759 -105.329688 
L 144.493252 -105.329688 
L 144.602745 -105.329688 
L 144.712237 -105.329688 
L 144.82173 -105.329688 
L 144.931223 -105.329688 
L 145.040716 -105.329688 
L 145.150208 -105.329688 
L 145.259701 -105.329688 
L 145.369194 -105.329688 
L 145.478687 -105.329688 
L 145.588179 -105.329688 
L 145.697672 -105.329688 
L 145.807165 -105.329688 
L 145.916658 -105.329688 
L 146.02615 -105.329688 
L 146.135643 -105.329688 
L 146.245136 -105.329688 
L 146.354629 -105.329688 
L 146.464121 -105.329688 
L 146.573614 -105.329688 
L 146.683107 -105.329688 
L 146.7926 -105.329688 
L 146.902092 -105.329688 
L 147.011585 -105.329688 
L 147.121078 -105.329688 
L 147.23057 -105.329688 
L 147.340063 -105.329688 
L 147.449556 -105.329688 
L 147.559049 -105.329688 
L 147.668541 -105.329688 
L 147.778034 -105.329688 
L 147.887527 -105.329688 
L 147.99702 -105.329688 
L 148.106512 -105.329688 
L 148.216005 -105.329688 
L 148.325498 -105.329688 
L 148.434991 -105.329688 
L 148.544483 -105.329688 
L 148.653976 -105.329688 
L 148.763469 -105.329688 
L 148.872962 -105.329688 
L 148.982454 -105.329688 
L 149.091947 -105.329688 
L 149.20144 -105.329688 
L 149.310933 -105.329688 
L 149.420425 -105.329688 
L 149.529918 -105.329688 
L 149.639411 -105.329688 
L 149.748903 -105.329688 
L 149.858396 -105.329688 
L 149.967889 -105.329688 
L 150.077382 -105.329688 
L 150.186874 -105.329688 
L 150.296367 -105.329688 
L 150.40586 -105.329688 
L 150.515353 -105.329688 
L 150.624845 -105.329688 
L 150.734338 -105.329688 
L 150.843831 -105.329688 
L 150.953324 -105.329688 
L 151.062816 -105.329688 
L 151.172309 -105.329688 
L 151.281802 -105.329688 
L 151.391295 -105.329688 
L 151.500787 -105.329688 
L 151.500787 -105.377921 
L 151.500787 -105.377921 
L 151.391295 -105.394352 
L 151.281802 -105.41219 
L 151.172309 -105.430218 
L 151.062816 -105.447225 
L 150.953324 -105.462303 
L 150.843831 -105.475066 
L 150.734338 -105.485717 
L 150.624845 -105.494947 
L 150.515353 -105.503775 
L 150.40586 -105.513391 
L 150.296367 -105.525077 
L 150.186874 -105.540176 
L 150.077382 -105.56005 
L 149.967889 -105.585935 
L 149.858396 -105.618725 
L 149.748903 -105.658726 
L 149.639411 -105.705511 
L 149.529918 -105.757931 
L 149.420425 -105.81431 
L 149.310933 -105.872742 
L 149.20144 -105.931402 
L 149.091947 -105.988804 
L 148.982454 -106.044003 
L 148.872962 -106.096729 
L 148.763469 -106.147495 
L 148.653976 -106.197614 
L 148.544483 -106.249088 
L 148.434991 -106.304338 
L 148.325498 -106.365806 
L 148.216005 -106.435547 
L 148.106512 -106.514971 
L 147.99702 -106.604788 
L 147.887527 -106.705166 
L 147.778034 -106.815965 
L 147.668541 -106.9369 
L 147.559049 -107.067586 
L 147.449556 -107.207507 
L 147.340063 -107.356037 
L 147.23057 -107.512666 
L 147.121078 -107.677391 
L 147.011585 -107.851123 
L 146.902092 -108.035815 
L 146.7926 -108.234111 
L 146.683107 -108.448487 
L 146.573614 -108.680211 
L 146.464121 -108.928588 
L 146.354629 -109.190999 
L 146.245136 -109.463881 
L 146.135643 -109.744408 
L 146.02615 -110.032143 
L 145.916658 -110.329876 
L 145.807165 -110.643103 
L 145.697672 -110.978197 
L 145.588179 -111.339956 
L 145.478687 -111.729553 
L 145.369194 -112.143774 
L 145.259701 -112.575897 
L 145.150208 -113.017834 
L 145.040716 -113.462643 
L 144.931223 -113.9064 
L 144.82173 -114.348769 
L 144.712237 -114.792195 
L 144.602745 -115.240222 
L 144.493252 -115.695782 
L 144.383759 -116.160263 
L 144.274267 -116.633802 
L 144.164774 -117.1167 
L 144.055281 -117.611253 
L 143.945788 -118.123001 
L 143.836296 -118.660409 
L 143.726803 -119.232555 
L 143.61731 -119.845257 
L 143.507817 -120.496936 
L 143.398325 -121.176054 
L 143.288832 -121.861706 
L 143.179339 -122.527955 
L 143.069846 -123.150927 
L 142.960354 -123.716291 
L 142.850861 -124.224141 
L 142.741368 -124.68899 
L 142.631875 -125.134413 
L 142.522383 -125.584066 
L 142.41289 -126.052477 
L 142.303397 -126.539133 
L 142.193904 -127.028104 
L 142.084412 -127.49317 
L 141.974919 -127.906247 
L 141.865426 -128.245733 
L 141.755934 -128.501716 
L 141.646441 -128.676409 
L 141.536948 -128.780195 
L 141.427455 -128.825334 
L 141.317963 -128.820085 
L 141.20847 -128.765605 
L 141.098977 -128.656618 
L 140.989484 -128.485196 
L 140.879992 -128.245732 
L 140.770499 -127.938802 
L 140.661006 -127.572302 
L 140.551513 -127.159532 
L 140.442021 -126.715233 
L 140.332528 -126.251314 
L 140.223035 -125.773951 
L 140.113542 -125.282985 
L 140.00405 -124.773595 
L 139.894557 -124.23943 
L 139.785064 -123.676028 
L 139.675572 -123.083389 
L 139.566079 -122.466952 
L 139.456586 -121.836759 
L 139.347093 -121.205123 
L 139.237601 -120.583546 
L 139.128108 -119.979853 
L 139.018615 -119.396381 
L 138.909122 -118.829732 
L 138.79963 -118.2721 
L 138.690137 -117.713746 
L 138.580644 -117.145915 
L 138.471151 -116.563472 
L 138.361659 -115.966614 
L 138.252166 -115.361268 
L 138.142673 -114.758044 
L 138.03318 -114.16997 
L 137.923688 -113.609531 
L 137.814195 -113.085815 
L 137.704702 -112.602552 
L 137.595209 -112.157647 
L 137.485717 -111.744303 
L 137.376224 -111.353311 
L 137.266731 -110.97571 
L 137.157239 -110.60495 
L 137.047746 -110.237962 
L 136.938253 -109.875027 
L 136.82876 -109.518773 
L 136.719268 -109.172842 
L 136.609775 -108.840757 
L 136.500282 -108.525214 
L 136.390789 -108.227829 
L 136.281297 -107.94918 
L 136.171804 -107.688983 
L 136.062311 -107.446349 
L 135.952818 -107.220121 
L 135.843326 -107.00929 
L 135.733833 -106.813421 
L 135.62434 -106.632937 
L 135.514847 -106.469108 
L 135.405355 -106.323684 
L 135.295862 -106.198232 
L 135.186369 -106.093393 
L 135.076876 -106.008311 
L 134.967384 -105.940435 
L 134.857891 -105.885776 
L 134.748398 -105.839575 
L 134.638906 -105.797197 
L 134.529413 -105.755007 
L 134.41992 -105.710981 
L 134.310427 -105.664876 
L 134.200935 -105.617927 
L 134.091442 -105.57219 
L 133.981949 -105.529783 
L 133.872456 -105.49226 
L 133.762964 -105.460312 
L 133.653471 -105.433807 
L 133.543978 -105.412066 
L 133.434485 -105.394216 
L 133.324993 -105.379467 
L 133.2155 -105.367252 
L 133.106007 -105.357223 
L 132.996514 -105.349169 
L 132.887022 -105.34292 
L 132.777529 -105.338281 
L 132.668036 -105.335005 
L 132.558543 -105.332815 
L 132.449051 -105.331433 
L 132.339558 -105.33061 
L 132.230065 -105.330149 
L 132.120573 -105.329907 
L 132.01108 -105.329788 
L 131.901587 -105.329737 
L 131.792094 -105.329725 
L 131.682602 -105.329745 
L 131.573109 -105.329807 
L 131.463616 -105.329941 
L 131.354123 -105.330198 
L 131.244631 -105.330656 
L 131.135138 -105.331417 
L 131.025645 -105.332593 
L 130.916152 -105.334279 
L 130.80666 -105.33651 
L 130.697167 -105.339224 
L 130.587674 -105.342223 
L 130.478181 -105.345187 
L 130.368689 -105.347711 
L 130.259196 -105.349401 
L 130.149703 -105.349966 
L 130.04021 -105.349307 
L 129.930718 -105.347541 
L 129.821225 -105.344968 
L 129.711732 -105.341988 
z
" style="stroke: #355f8d; stroke-width: 1.25"/>
    </defs>
    <g>
     <use xlink:href="#m04665f799f" x="0" y="174.899688" style="fill: #355f8d; fill-opacity: 0.7; stroke: #355f8d; stroke-width: 1.25"/>
    </g>
   </g>
   <g id="line2d_3">
    <path d="M 10.793097 69.57 
L 220.043097 69.57 
" style="fill: none; stroke: #355f8d; stroke-opacity: 0.9; stroke-linecap: round"/>
   </g>
   <g id="text_3">
    <!-- 2 -->
    <g style="fill: #355f8d" transform="translate(10.793097 68.72325) scale(0.12 -0.12)">
     <defs>
      <path id="DejaVuSans-Bold-32" d="M 1844 884 
L 3897 884 
L 3897 0 
L 506 0 
L 506 884 
L 2209 2388 
Q 2438 2594 2547 2791 
Q 2656 2988 2656 3200 
Q 2656 3528 2436 3728 
Q 2216 3928 1850 3928 
Q 1569 3928 1234 3808 
Q 900 3688 519 3450 
L 519 4475 
Q 925 4609 1322 4679 
Q 1719 4750 2100 4750 
Q 2938 4750 3402 4381 
Q 3866 4013 3866 3353 
Q 3866 2972 3669 2642 
Q 3472 2313 2841 1759 
L 1844 884 
z
" transform="scale(0.015625)"/>
     </defs>
     <use xlink:href="#DejaVuSans-Bold-32"/>
    </g>
   </g>
  </g>
  <g id="axes_4">
   <g id="patch_5">
    <path d="M 10.793097 79.965 
L 220.043097 79.965 
L 220.043097 38.385 
L 10.793097 38.385 
L 10.793097 79.965 
z
" style="fill: none"/>
   </g>
   <g id="matplotlib.axis_7">
    <g id="xtick_16"/>
    <g id="xtick_17"/>
    <g id="xtick_18"/>
    <g id="xtick_19"/>
    <g id="xtick_20"/>
   </g>
   <g id="matplotlib.axis_8"/>
   <g id="PolyCollection_3">
    <defs>
     <path id="m4a06ac83bd" d="M 186.90621 -94.953387 
L 186.90621 -94.934688 
L 187.024931 -94.934688 
L 187.143652 -94.934688 
L 187.262374 -94.934688 
L 187.381095 -94.934688 
L 187.499816 -94.934688 
L 187.618537 -94.934688 
L 187.737259 -94.934688 
L 187.85598 -94.934688 
L 187.974701 -94.934688 
L 188.093422 -94.934688 
L 188.212143 -94.934688 
L 188.330865 -94.934688 
L 188.449586 -94.934688 
L 188.568307 -94.934688 
L 188.687028 -94.934688 
L 188.80575 -94.934688 
L 188.924471 -94.934688 
L 189.043192 -94.934688 
L 189.161913 -94.934688 
L 189.280634 -94.934688 
L 189.399356 -94.934688 
L 189.518077 -94.934688 
L 189.636798 -94.934688 
L 189.755519 -94.934688 
L 189.874241 -94.934688 
L 189.992962 -94.934688 
L 190.111683 -94.934688 
L 190.230404 -94.934688 
L 190.349125 -94.934688 
L 190.467847 -94.934688 
L 190.586568 -94.934688 
L 190.705289 -94.934688 
L 190.82401 -94.934688 
L 190.942732 -94.934688 
L 191.061453 -94.934688 
L 191.180174 -94.934688 
L 191.298895 -94.934688 
L 191.417616 -94.934688 
L 191.536338 -94.934688 
L 191.655059 -94.934688 
L 191.77378 -94.934688 
L 191.892501 -94.934688 
L 192.011222 -94.934688 
L 192.129944 -94.934688 
L 192.248665 -94.934688 
L 192.367386 -94.934688 
L 192.486107 -94.934688 
L 192.604829 -94.934688 
L 192.72355 -94.934688 
L 192.842271 -94.934688 
L 192.960992 -94.934688 
L 193.079713 -94.934688 
L 193.198435 -94.934688 
L 193.317156 -94.934688 
L 193.435877 -94.934688 
L 193.554598 -94.934688 
L 193.67332 -94.934688 
L 193.792041 -94.934688 
L 193.910762 -94.934688 
L 194.029483 -94.934688 
L 194.148204 -94.934688 
L 194.266926 -94.934688 
L 194.385647 -94.934688 
L 194.504368 -94.934688 
L 194.623089 -94.934688 
L 194.741811 -94.934688 
L 194.860532 -94.934688 
L 194.979253 -94.934688 
L 195.097974 -94.934688 
L 195.216695 -94.934688 
L 195.335417 -94.934688 
L 195.454138 -94.934688 
L 195.572859 -94.934688 
L 195.69158 -94.934688 
L 195.810302 -94.934688 
L 195.929023 -94.934688 
L 196.047744 -94.934688 
L 196.166465 -94.934688 
L 196.285186 -94.934688 
L 196.403908 -94.934688 
L 196.522629 -94.934688 
L 196.64135 -94.934688 
L 196.760071 -94.934688 
L 196.878793 -94.934688 
L 196.997514 -94.934688 
L 197.116235 -94.934688 
L 197.234956 -94.934688 
L 197.353677 -94.934688 
L 197.472399 -94.934688 
L 197.59112 -94.934688 
L 197.709841 -94.934688 
L 197.828562 -94.934688 
L 197.947284 -94.934688 
L 198.066005 -94.934688 
L 198.184726 -94.934688 
L 198.303447 -94.934688 
L 198.422168 -94.934688 
L 198.54089 -94.934688 
L 198.659611 -94.934688 
L 198.778332 -94.934688 
L 198.897053 -94.934688 
L 199.015775 -94.934688 
L 199.134496 -94.934688 
L 199.253217 -94.934688 
L 199.371938 -94.934688 
L 199.490659 -94.934688 
L 199.609381 -94.934688 
L 199.728102 -94.934688 
L 199.846823 -94.934688 
L 199.965544 -94.934688 
L 200.084266 -94.934688 
L 200.202987 -94.934688 
L 200.321708 -94.934688 
L 200.440429 -94.934688 
L 200.55915 -94.934688 
L 200.677872 -94.934688 
L 200.796593 -94.934688 
L 200.915314 -94.934688 
L 201.034035 -94.934688 
L 201.152757 -94.934688 
L 201.271478 -94.934688 
L 201.390199 -94.934688 
L 201.50892 -94.934688 
L 201.627641 -94.934688 
L 201.746363 -94.934688 
L 201.865084 -94.934688 
L 201.983805 -94.934688 
L 202.102526 -94.934688 
L 202.221248 -94.934688 
L 202.339969 -94.934688 
L 202.45869 -94.934688 
L 202.577411 -94.934688 
L 202.696132 -94.934688 
L 202.814854 -94.934688 
L 202.933575 -94.934688 
L 203.052296 -94.934688 
L 203.171017 -94.934688 
L 203.289739 -94.934688 
L 203.40846 -94.934688 
L 203.527181 -94.934688 
L 203.645902 -94.934688 
L 203.764623 -94.934688 
L 203.883345 -94.934688 
L 204.002066 -94.934688 
L 204.120787 -94.934688 
L 204.239508 -94.934688 
L 204.35823 -94.934688 
L 204.476951 -94.934688 
L 204.595672 -94.934688 
L 204.714393 -94.934688 
L 204.833114 -94.934688 
L 204.951836 -94.934688 
L 205.070557 -94.934688 
L 205.189278 -94.934688 
L 205.307999 -94.934688 
L 205.426721 -94.934688 
L 205.545442 -94.934688 
L 205.664163 -94.934688 
L 205.782884 -94.934688 
L 205.901605 -94.934688 
L 206.020327 -94.934688 
L 206.139048 -94.934688 
L 206.257769 -94.934688 
L 206.37649 -94.934688 
L 206.495212 -94.934688 
L 206.613933 -94.934688 
L 206.732654 -94.934688 
L 206.851375 -94.934688 
L 206.970096 -94.934688 
L 207.088818 -94.934688 
L 207.207539 -94.934688 
L 207.32626 -94.934688 
L 207.444981 -94.934688 
L 207.563703 -94.934688 
L 207.682424 -94.934688 
L 207.801145 -94.934688 
L 207.919866 -94.934688 
L 208.038587 -94.934688 
L 208.157309 -94.934688 
L 208.27603 -94.934688 
L 208.394751 -94.934688 
L 208.513472 -94.934688 
L 208.632193 -94.934688 
L 208.750915 -94.934688 
L 208.869636 -94.934688 
L 208.988357 -94.934688 
L 209.107078 -94.934688 
L 209.2258 -94.934688 
L 209.344521 -94.934688 
L 209.463242 -94.934688 
L 209.581963 -94.934688 
L 209.700684 -94.934688 
L 209.819406 -94.934688 
L 209.938127 -94.934688 
L 210.056848 -94.934688 
L 210.175569 -94.934688 
L 210.294291 -94.934688 
L 210.413012 -94.934688 
L 210.531733 -94.934688 
L 210.531733 -94.955869 
L 210.531733 -94.955869 
L 210.413012 -94.963317 
L 210.294291 -94.972021 
L 210.175569 -94.981729 
L 210.056848 -94.992059 
L 209.938127 -95.002549 
L 209.819406 -95.012724 
L 209.700684 -95.022192 
L 209.581963 -95.030743 
L 209.463242 -95.038433 
L 209.344521 -95.04564 
L 209.2258 -95.053059 
L 209.107078 -95.061629 
L 208.988357 -95.07238 
L 208.869636 -95.086222 
L 208.750915 -95.103728 
L 208.632193 -95.124963 
L 208.513472 -95.149423 
L 208.394751 -95.176149 
L 208.27603 -95.203985 
L 208.157309 -95.231953 
L 208.038587 -95.259607 
L 207.919866 -95.287263 
L 207.801145 -95.315981 
L 207.682424 -95.347291 
L 207.563703 -95.382711 
L 207.444981 -95.423225 
L 207.32626 -95.468885 
L 207.207539 -95.518693 
L 207.088818 -95.570796 
L 206.970096 -95.622949 
L 206.851375 -95.673074 
L 206.732654 -95.71977 
L 206.613933 -95.762622 
L 206.495212 -95.802275 
L 206.37649 -95.840326 
L 206.257769 -95.87911 
L 206.139048 -95.921478 
L 206.020327 -95.970588 
L 205.901605 -96.029672 
L 205.782884 -96.101738 
L 205.664163 -96.189181 
L 205.545442 -96.293357 
L 205.426721 -96.414264 
L 205.307999 -96.550467 
L 205.189278 -96.699369 
L 205.070557 -96.857785 
L 204.951836 -97.022665 
L 204.833114 -97.191754 
L 204.714393 -97.363998 
L 204.595672 -97.539628 
L 204.476951 -97.719955 
L 204.35823 -97.907004 
L 204.239508 -98.10311 
L 204.120787 -98.310552 
L 204.002066 -98.531287 
L 203.883345 -98.766771 
L 203.764623 -99.01791 
L 203.645902 -99.285163 
L 203.527181 -99.568787 
L 203.40846 -99.869192 
L 203.289739 -100.187261 
L 203.171017 -100.5245 
L 203.052296 -100.88287 
L 202.933575 -101.264267 
L 202.814854 -101.669755 
L 202.696132 -102.098733 
L 202.577411 -102.548316 
L 202.45869 -103.013153 
L 202.339969 -103.485792 
L 202.221248 -103.957589 
L 202.102526 -104.419981 
L 201.983805 -104.865864 
L 201.865084 -105.290783 
L 201.746363 -105.693657 
L 201.627641 -106.076872 
L 201.50892 -106.445674 
L 201.390199 -106.806962 
L 201.271478 -107.167727 
L 201.152757 -107.533446 
L 201.034035 -107.90681 
L 200.915314 -108.287063 
L 200.796593 -108.670102 
L 200.677872 -109.049314 
L 200.55915 -109.41693 
L 200.440429 -109.76557 
L 200.321708 -110.089631 
L 200.202987 -110.386195 
L 200.084266 -110.655328 
L 199.965544 -110.899752 
L 199.846823 -111.124073 
L 199.728102 -111.333792 
L 199.609381 -111.534338 
L 199.490659 -111.730257 
L 199.371938 -111.924601 
L 199.253217 -112.118517 
L 199.134496 -112.311032 
L 199.015775 -112.499155 
L 198.897053 -112.678379 
L 198.778332 -112.843641 
L 198.659611 -112.990595 
L 198.54089 -113.11684 
L 198.422168 -113.222631 
L 198.303447 -113.310709 
L 198.184726 -113.38512 
L 198.066005 -113.449283 
L 197.947284 -113.503865 
L 197.828562 -113.545124 
L 197.709841 -113.564309 
L 197.59112 -113.548396 
L 197.472399 -113.482058 
L 197.353677 -113.350426 
L 197.234956 -113.141985 
L 197.116235 -112.850913 
L 196.997514 -112.478333 
L 196.878793 -112.032262 
L 196.760071 -111.526347 
L 196.64135 -110.977748 
L 196.522629 -110.40471 
L 196.403908 -109.824311 
L 196.285186 -109.250808 
L 196.166465 -108.694794 
L 196.047744 -108.163172 
L 195.929023 -107.659755 
L 195.810302 -107.186191 
L 195.69158 -106.742857 
L 195.572859 -106.329448 
L 195.454138 -105.945151 
L 195.335417 -105.58846 
L 195.216695 -105.256862 
L 195.097974 -104.946614 
L 194.979253 -104.652824 
L 194.860532 -104.369842 
L 194.741811 -104.091864 
L 194.623089 -103.813549 
L 194.504368 -103.530455 
L 194.385647 -103.239189 
L 194.266926 -102.937306 
L 194.148204 -102.623067 
L 194.029483 -102.295241 
L 193.910762 -101.95307 
L 193.792041 -101.596451 
L 193.67332 -101.226269 
L 193.554598 -100.844732 
L 193.435877 -100.455561 
L 193.317156 -100.063887 
L 193.198435 -99.675838 
L 193.079713 -99.29786 
L 192.960992 -98.935921 
L 192.842271 -98.59477 
L 192.72355 -98.277404 
L 192.604829 -97.984866 
L 192.486107 -97.716386 
L 192.367386 -97.469821 
L 192.248665 -97.242268 
L 192.129944 -97.030716 
L 192.011222 -96.832595 
L 191.892501 -96.646132 
L 191.77378 -96.470489 
L 191.655059 -96.305686 
L 191.536338 -96.15239 
L 191.417616 -96.011601 
L 191.298895 -95.884334 
L 191.180174 -95.771324 
L 191.061453 -95.672817 
L 190.942732 -95.588462 
L 190.82401 -95.517332 
L 190.705289 -95.458036 
L 190.586568 -95.408901 
L 190.467847 -95.36815 
L 190.349125 -95.334052 
L 190.230404 -95.305006 
L 190.111683 -95.27959 
L 189.992962 -95.256572 
L 189.874241 -95.234943 
L 189.755519 -95.213949 
L 189.636798 -95.193129 
L 189.518077 -95.17234 
L 189.399356 -95.151726 
L 189.280634 -95.131646 
L 189.161913 -95.112566 
L 189.043192 -95.094935 
L 188.924471 -95.079089 
L 188.80575 -95.065183 
L 188.687028 -95.053192 
L 188.568307 -95.042936 
L 188.449586 -95.034143 
L 188.330865 -95.026508 
L 188.212143 -95.019737 
L 188.093422 -95.013568 
L 187.974701 -95.007769 
L 187.85598 -95.002132 
L 187.737259 -94.99647 
L 187.618537 -94.990633 
L 187.499816 -94.984534 
L 187.381095 -94.978175 
L 187.262374 -94.971662 
L 187.143652 -94.965193 
L 187.024931 -94.959018 
L 186.90621 -94.953387 
z
" style="stroke: #21918c; stroke-width: 1.25"/>
    </defs>
    <g>
     <use xlink:href="#m4a06ac83bd" x="0" y="174.899688" style="fill: #21918c; fill-opacity: 0.7; stroke: #21918c; stroke-width: 1.25"/>
    </g>
   </g>
   <g id="line2d_4">
    <path d="M 10.793097 79.965 
L 220.043097 79.965 
" style="fill: none; stroke: #21918c; stroke-opacity: 0.9; stroke-linecap: round"/>
   </g>
   <g id="text_4">
    <!-- 3 -->
    <g style="fill: #21918c" transform="translate(10.793097 79.11825) scale(0.12 -0.12)">
     <defs>
      <path id="DejaVuSans-Bold-33" d="M 2981 2516 
Q 3453 2394 3698 2092 
Q 3944 1791 3944 1325 
Q 3944 631 3412 270 
Q 2881 -91 1863 -91 
Q 1503 -91 1142 -33 
Q 781 25 428 141 
L 428 1069 
Q 766 900 1098 814 
Q 1431 728 1753 728 
Q 2231 728 2486 893 
Q 2741 1059 2741 1369 
Q 2741 1688 2480 1852 
Q 2219 2016 1709 2016 
L 1228 2016 
L 1228 2791 
L 1734 2791 
Q 2188 2791 2409 2933 
Q 2631 3075 2631 3366 
Q 2631 3634 2415 3781 
Q 2200 3928 1806 3928 
Q 1516 3928 1219 3862 
Q 922 3797 628 3669 
L 628 4550 
Q 984 4650 1334 4700 
Q 1684 4750 2022 4750 
Q 2931 4750 3382 4451 
Q 3834 4153 3834 3553 
Q 3834 3144 3618 2883 
Q 3403 2622 2981 2516 
z
" transform="scale(0.015625)"/>
     </defs>
     <use xlink:href="#DejaVuSans-Bold-33"/>
    </g>
   </g>
  </g>
  <g id="axes_5">
   <g id="patch_6">
    <path d="M 10.793097 90.36 
L 220.043097 90.36 
L 220.043097 48.78 
L 10.793097 48.78 
L 10.793097 90.36 
z
" style="fill: none"/>
   </g>
   <g id="matplotlib.axis_9">
    <g id="xtick_21"/>
    <g id="xtick_22"/>
    <g id="xtick_23"/>
    <g id="xtick_24"/>
    <g id="xtick_25"/>
   </g>
   <g id="matplotlib.axis_10"/>
   <g id="PolyCollection_4">
    <defs>
     <path id="mb6b9dffb19" d="M 173.459038 -84.550337 
L 173.459038 -84.539688 
L 173.631587 -84.539688 
L 173.804136 -84.539688 
L 173.976685 -84.539688 
L 174.149234 -84.539688 
L 174.321783 -84.539688 
L 174.494333 -84.539688 
L 174.666882 -84.539688 
L 174.839431 -84.539688 
L 175.01198 -84.539688 
L 175.184529 -84.539688 
L 175.357078 -84.539688 
L 175.529627 -84.539688 
L 175.702176 -84.539688 
L 175.874725 -84.539688 
L 176.047274 -84.539688 
L 176.219823 -84.539688 
L 176.392372 -84.539688 
L 176.564921 -84.539688 
L 176.73747 -84.539688 
L 176.910019 -84.539688 
L 177.082569 -84.539688 
L 177.255118 -84.539688 
L 177.427667 -84.539688 
L 177.600216 -84.539688 
L 177.772765 -84.539688 
L 177.945314 -84.539688 
L 178.117863 -84.539688 
L 178.290412 -84.539688 
L 178.462961 -84.539688 
L 178.63551 -84.539688 
L 178.808059 -84.539688 
L 178.980608 -84.539688 
L 179.153157 -84.539688 
L 179.325706 -84.539688 
L 179.498255 -84.539688 
L 179.670805 -84.539688 
L 179.843354 -84.539688 
L 180.015903 -84.539688 
L 180.188452 -84.539688 
L 180.361001 -84.539688 
L 180.53355 -84.539688 
L 180.706099 -84.539688 
L 180.878648 -84.539688 
L 181.051197 -84.539688 
L 181.223746 -84.539688 
L 181.396295 -84.539688 
L 181.568844 -84.539688 
L 181.741393 -84.539688 
L 181.913942 -84.539688 
L 182.086491 -84.539688 
L 182.259041 -84.539688 
L 182.43159 -84.539688 
L 182.604139 -84.539688 
L 182.776688 -84.539688 
L 182.949237 -84.539688 
L 183.121786 -84.539688 
L 183.294335 -84.539688 
L 183.466884 -84.539688 
L 183.639433 -84.539688 
L 183.811982 -84.539688 
L 183.984531 -84.539688 
L 184.15708 -84.539688 
L 184.329629 -84.539688 
L 184.502178 -84.539688 
L 184.674727 -84.539688 
L 184.847276 -84.539688 
L 185.019826 -84.539688 
L 185.192375 -84.539688 
L 185.364924 -84.539688 
L 185.537473 -84.539688 
L 185.710022 -84.539688 
L 185.882571 -84.539688 
L 186.05512 -84.539688 
L 186.227669 -84.539688 
L 186.400218 -84.539688 
L 186.572767 -84.539688 
L 186.745316 -84.539688 
L 186.917865 -84.539688 
L 187.090414 -84.539688 
L 187.262963 -84.539688 
L 187.435512 -84.539688 
L 187.608062 -84.539688 
L 187.780611 -84.539688 
L 187.95316 -84.539688 
L 188.125709 -84.539688 
L 188.298258 -84.539688 
L 188.470807 -84.539688 
L 188.643356 -84.539688 
L 188.815905 -84.539688 
L 188.988454 -84.539688 
L 189.161003 -84.539688 
L 189.333552 -84.539688 
L 189.506101 -84.539688 
L 189.67865 -84.539688 
L 189.851199 -84.539688 
L 190.023748 -84.539688 
L 190.196298 -84.539688 
L 190.368847 -84.539688 
L 190.541396 -84.539688 
L 190.713945 -84.539688 
L 190.886494 -84.539688 
L 191.059043 -84.539688 
L 191.231592 -84.539688 
L 191.404141 -84.539688 
L 191.57669 -84.539688 
L 191.749239 -84.539688 
L 191.921788 -84.539688 
L 192.094337 -84.539688 
L 192.266886 -84.539688 
L 192.439435 -84.539688 
L 192.611984 -84.539688 
L 192.784534 -84.539688 
L 192.957083 -84.539688 
L 193.129632 -84.539688 
L 193.302181 -84.539688 
L 193.47473 -84.539688 
L 193.647279 -84.539688 
L 193.819828 -84.539688 
L 193.992377 -84.539688 
L 194.164926 -84.539688 
L 194.337475 -84.539688 
L 194.510024 -84.539688 
L 194.682573 -84.539688 
L 194.855122 -84.539688 
L 195.027671 -84.539688 
L 195.20022 -84.539688 
L 195.372769 -84.539688 
L 195.545319 -84.539688 
L 195.717868 -84.539688 
L 195.890417 -84.539688 
L 196.062966 -84.539688 
L 196.235515 -84.539688 
L 196.408064 -84.539688 
L 196.580613 -84.539688 
L 196.753162 -84.539688 
L 196.925711 -84.539688 
L 197.09826 -84.539688 
L 197.270809 -84.539688 
L 197.443358 -84.539688 
L 197.615907 -84.539688 
L 197.788456 -84.539688 
L 197.961005 -84.539688 
L 198.133555 -84.539688 
L 198.306104 -84.539688 
L 198.478653 -84.539688 
L 198.651202 -84.539688 
L 198.823751 -84.539688 
L 198.9963 -84.539688 
L 199.168849 -84.539688 
L 199.341398 -84.539688 
L 199.513947 -84.539688 
L 199.686496 -84.539688 
L 199.859045 -84.539688 
L 200.031594 -84.539688 
L 200.204143 -84.539688 
L 200.376692 -84.539688 
L 200.549241 -84.539688 
L 200.721791 -84.539688 
L 200.89434 -84.539688 
L 201.066889 -84.539688 
L 201.239438 -84.539688 
L 201.411987 -84.539688 
L 201.584536 -84.539688 
L 201.757085 -84.539688 
L 201.929634 -84.539688 
L 202.102183 -84.539688 
L 202.274732 -84.539688 
L 202.447281 -84.539688 
L 202.61983 -84.539688 
L 202.792379 -84.539688 
L 202.964928 -84.539688 
L 203.137477 -84.539688 
L 203.310026 -84.539688 
L 203.482576 -84.539688 
L 203.655125 -84.539688 
L 203.827674 -84.539688 
L 204.000223 -84.539688 
L 204.172772 -84.539688 
L 204.345321 -84.539688 
L 204.51787 -84.539688 
L 204.690419 -84.539688 
L 204.862968 -84.539688 
L 205.035517 -84.539688 
L 205.208066 -84.539688 
L 205.380615 -84.539688 
L 205.553164 -84.539688 
L 205.725713 -84.539688 
L 205.898262 -84.539688 
L 206.070812 -84.539688 
L 206.243361 -84.539688 
L 206.41591 -84.539688 
L 206.588459 -84.539688 
L 206.761008 -84.539688 
L 206.933557 -84.539688 
L 207.106106 -84.539688 
L 207.278655 -84.539688 
L 207.451204 -84.539688 
L 207.623753 -84.539688 
L 207.796302 -84.539688 
L 207.796302 -84.55606 
L 207.796302 -84.55606 
L 207.623753 -84.560502 
L 207.451204 -84.56498 
L 207.278655 -84.569114 
L 207.106106 -84.572548 
L 206.933557 -84.575033 
L 206.761008 -84.576498 
L 206.588459 -84.577078 
L 206.41591 -84.577098 
L 206.243361 -84.577003 
L 206.070812 -84.577261 
L 205.898262 -84.578265 
L 205.725713 -84.580258 
L 205.553164 -84.583302 
L 205.380615 -84.587305 
L 205.208066 -84.592081 
L 205.035517 -84.597444 
L 204.862968 -84.603291 
L 204.690419 -84.609656 
L 204.51787 -84.616725 
L 204.345321 -84.624794 
L 204.172772 -84.634211 
L 204.000223 -84.645298 
L 203.827674 -84.658284 
L 203.655125 -84.673263 
L 203.482576 -84.690184 
L 203.310026 -84.708866 
L 203.137477 -84.729046 
L 202.964928 -84.750459 
L 202.792379 -84.772949 
L 202.61983 -84.796581 
L 202.447281 -84.821727 
L 202.274732 -84.849077 
L 202.102183 -84.879532 
L 201.929634 -84.913983 
L 201.757085 -84.953031 
L 201.584536 -84.996752 
L 201.411987 -85.044618 
L 201.239438 -85.095664 
L 201.066889 -85.148889 
L 200.89434 -85.203787 
L 200.721791 -85.260821 
L 200.549241 -85.321635 
L 200.376692 -85.388865 
L 200.204143 -85.46555 
L 200.031594 -85.554289 
L 199.859045 -85.656399 
L 199.686496 -85.771369 
L 199.513947 -85.896821 
L 199.341398 -86.029024 
L 199.168849 -86.163838 
L 198.9963 -86.297822 
L 198.823751 -86.429172 
L 198.651202 -86.55823 
L 198.478653 -86.687437 
L 198.306104 -86.820758 
L 198.133555 -86.962766 
L 197.961005 -87.117627 
L 197.788456 -87.28826 
L 197.615907 -87.475847 
L 197.443358 -87.679767 
L 197.270809 -87.897925 
L 197.09826 -88.127323 
L 196.925711 -88.364721 
L 196.753162 -88.607214 
L 196.580613 -88.852643 
L 196.408064 -89.099829 
L 196.235515 -89.348663 
L 196.062966 -89.600061 
L 195.890417 -89.855789 
L 195.717868 -90.118109 
L 195.545319 -90.38923 
L 195.372769 -90.670636 
L 195.20022 -90.962454 
L 195.027671 -91.263049 
L 194.855122 -91.569026 
L 194.682573 -91.875666 
L 194.510024 -92.177723 
L 194.337475 -92.470373 
L 194.164926 -92.750125 
L 193.992377 -93.015518 
L 193.819828 -93.267495 
L 193.647279 -93.509377 
L 193.47473 -93.746386 
L 193.302181 -93.984751 
L 193.129632 -94.230465 
L 192.957083 -94.487959 
L 192.784534 -94.75897 
L 192.611984 -95.041926 
L 192.439435 -95.332038 
L 192.266886 -95.622062 
L 192.094337 -95.903555 
L 191.921788 -96.168278 
L 191.749239 -96.409446 
L 191.57669 -96.622564 
L 191.404141 -96.80575 
L 191.231592 -96.95957 
L 191.059043 -97.086482 
L 190.886494 -97.190061 
L 190.713945 -97.274174 
L 190.541396 -97.342241 
L 190.368847 -97.396687 
L 190.196298 -97.438641 
L 190.023748 -97.46789 
L 189.851199 -97.483091 
L 189.67865 -97.48218 
L 189.506101 -97.462891 
L 189.333552 -97.423258 
L 189.161003 -97.361952 
L 188.988454 -97.278373 
L 188.815905 -97.172486 
L 188.643356 -97.044488 
L 188.470807 -96.894495 
L 188.298258 -96.72236 
L 188.125709 -96.527726 
L 187.95316 -96.310259 
L 187.780611 -96.069994 
L 187.608062 -95.807682 
L 187.435512 -95.525063 
L 187.262963 -95.225039 
L 187.090414 -94.911696 
L 186.917865 -94.590139 
L 186.745316 -94.266091 
L 186.572767 -93.945251 
L 186.400218 -93.632519 
L 186.227669 -93.331266 
L 186.05512 -93.042866 
L 185.882571 -92.766654 
L 185.710022 -92.500329 
L 185.537473 -92.240678 
L 185.364924 -91.984376 
L 185.192375 -91.728635 
L 185.019826 -91.471558 
L 184.847276 -91.212196 
L 184.674727 -90.950416 
L 184.502178 -90.686698 
L 184.329629 -90.421976 
L 184.15708 -90.157516 
L 183.984531 -89.894809 
L 183.811982 -89.635437 
L 183.639433 -89.380898 
L 183.466884 -89.132447 
L 183.294335 -88.891002 
L 183.121786 -88.657129 
L 182.949237 -88.431097 
L 182.776688 -88.212944 
L 182.604139 -88.00251 
L 182.43159 -87.799434 
L 182.259041 -87.603159 
L 182.086491 -87.412991 
L 181.913942 -87.228241 
L 181.741393 -87.048422 
L 181.568844 -86.873435 
L 181.396295 -86.703642 
L 181.223746 -86.53978 
L 181.051197 -86.382715 
L 180.878648 -86.233121 
L 180.706099 -86.0912 
L 180.53355 -85.956579 
L 180.361001 -85.828433 
L 180.188452 -85.705816 
L 180.015903 -85.58807 
L 179.843354 -85.475169 
L 179.670805 -85.367846 
L 179.498255 -85.267463 
L 179.325706 -85.175673 
L 179.153157 -85.093986 
L 178.980608 -85.023383 
L 178.808059 -84.964091 
L 178.63551 -84.915534 
L 178.462961 -84.876453 
L 178.290412 -84.845108 
L 178.117863 -84.819527 
L 177.945314 -84.797739 
L 177.772765 -84.777974 
L 177.600216 -84.758823 
L 177.427667 -84.739351 
L 177.255118 -84.719141 
L 177.082569 -84.698272 
L 176.910019 -84.677224 
L 176.73747 -84.656734 
L 176.564921 -84.637631 
L 176.392372 -84.620673 
L 176.219823 -84.606426 
L 176.047274 -84.595188 
L 175.874725 -84.586964 
L 175.702176 -84.581489 
L 175.529627 -84.578274 
L 175.357078 -84.576686 
L 175.184529 -84.576037 
L 175.01198 -84.575671 
L 174.839431 -84.575044 
L 174.666882 -84.573787 
L 174.494333 -84.571725 
L 174.321783 -84.568869 
L 174.149234 -84.56538 
L 173.976685 -84.56151 
L 173.804136 -84.557546 
L 173.631587 -84.553752 
L 173.459038 -84.550337 
z
" style="stroke: #2a788e; stroke-width: 1.25"/>
    </defs>
    <g>
     <use xlink:href="#mb6b9dffb19" x="0" y="174.899688" style="fill: #2a788e; fill-opacity: 0.7; stroke: #2a788e; stroke-width: 1.25"/>
    </g>
   </g>
   <g id="line2d_5">
    <path d="M 10.793097 90.36 
L 220.043097 90.36 
" style="fill: none; stroke: #2a788e; stroke-opacity: 0.9; stroke-linecap: round"/>
   </g>
   <g id="text_5">
    <!-- 4 -->
    <g style="fill: #2a788e" transform="translate(10.793097 89.51325) scale(0.12 -0.12)">
     <defs>
      <path id="DejaVuSans-Bold-34" d="M 2356 3675 
L 1038 1722 
L 2356 1722 
L 2356 3675 
z
M 2156 4666 
L 3494 4666 
L 3494 1722 
L 4159 1722 
L 4159 850 
L 3494 850 
L 3494 0 
L 2356 0 
L 2356 850 
L 288 850 
L 288 1881 
L 2156 4666 
z
" transform="scale(0.015625)"/>
     </defs>
     <use xlink:href="#DejaVuSans-Bold-34"/>
    </g>
   </g>
  </g>
  <g id="axes_6">
   <g id="patch_7">
    <path d="M 10.793097 100.755 
L 220.043097 100.755 
L 220.043097 59.175 
L 10.793097 59.175 
L 10.793097 100.755 
z
" style="fill: none"/>
   </g>
   <g id="matplotlib.axis_11">
    <g id="xtick_26"/>
    <g id="xtick_27"/>
    <g id="xtick_28"/>
    <g id="xtick_29"/>
    <g id="xtick_30"/>
   </g>
   <g id="matplotlib.axis_12"/>
   <g id="line2d_6">
    <path d="M 10.793097 100.755 
L 220.043097 100.755 
" style="fill: none; stroke: #482475; stroke-opacity: 0.9; stroke-linecap: round"/>
   </g>
   <g id="text_6">
    <!-- 5 -->
    <g style="fill: #482475" transform="translate(10.793097 99.90825) scale(0.12 -0.12)">
     <defs>
      <path id="DejaVuSans-Bold-35" d="M 678 4666 
L 3669 4666 
L 3669 3781 
L 1638 3781 
L 1638 3059 
Q 1775 3097 1914 3117 
Q 2053 3138 2203 3138 
Q 3056 3138 3531 2711 
Q 4006 2284 4006 1522 
Q 4006 766 3489 337 
Q 2972 -91 2053 -91 
Q 1656 -91 1267 -14 
Q 878 63 494 219 
L 494 1166 
Q 875 947 1217 837 
Q 1559 728 1863 728 
Q 2300 728 2551 942 
Q 2803 1156 2803 1522 
Q 2803 1891 2551 2103 
Q 2300 2316 1863 2316 
Q 1603 2316 1309 2248 
Q 1016 2181 678 2041 
L 678 4666 
z
" transform="scale(0.015625)"/>
     </defs>
     <use xlink:href="#DejaVuSans-Bold-35"/>
    </g>
   </g>
  </g>
  <g id="axes_7">
   <g id="patch_8">
    <path d="M 10.793097 111.15 
L 220.043097 111.15 
L 220.043097 69.57 
L 10.793097 69.57 
L 10.793097 111.15 
z
" style="fill: none"/>
   </g>
   <g id="matplotlib.axis_13">
    <g id="xtick_31"/>
    <g id="xtick_32"/>
    <g id="xtick_33"/>
    <g id="xtick_34"/>
    <g id="xtick_35"/>
   </g>
   <g id="matplotlib.axis_14"/>
   <g id="line2d_7">
    <path d="M 10.793097 111.15 
L 220.043097 111.15 
" style="fill: none; stroke: #482475; stroke-opacity: 0.9; stroke-linecap: round"/>
   </g>
   <g id="text_7">
    <!-- 6 -->
    <g style="fill: #482475" transform="translate(10.793097 110.30325) scale(0.12 -0.12)">
     <defs>
      <path id="DejaVuSans-Bold-36" d="M 2316 2303 
Q 2000 2303 1842 2098 
Q 1684 1894 1684 1484 
Q 1684 1075 1842 870 
Q 2000 666 2316 666 
Q 2634 666 2792 870 
Q 2950 1075 2950 1484 
Q 2950 1894 2792 2098 
Q 2634 2303 2316 2303 
z
M 3803 4544 
L 3803 3681 
Q 3506 3822 3243 3889 
Q 2981 3956 2731 3956 
Q 2194 3956 1894 3657 
Q 1594 3359 1544 2772 
Q 1750 2925 1990 3001 
Q 2231 3078 2516 3078 
Q 3231 3078 3670 2659 
Q 4109 2241 4109 1563 
Q 4109 813 3618 361 
Q 3128 -91 2303 -91 
Q 1394 -91 895 523 
Q 397 1138 397 2266 
Q 397 3422 980 4083 
Q 1563 4744 2578 4744 
Q 2900 4744 3203 4694 
Q 3506 4644 3803 4544 
z
" transform="scale(0.015625)"/>
     </defs>
     <use xlink:href="#DejaVuSans-Bold-36"/>
    </g>
   </g>
  </g>
  <g id="axes_8">
   <g id="patch_9">
    <path d="M 10.793097 121.545 
L 220.043097 121.545 
L 220.043097 79.965 
L 10.793097 79.965 
L 10.793097 121.545 
z
" style="fill: none"/>
   </g>
   <g id="matplotlib.axis_15">
    <g id="xtick_36"/>
    <g id="xtick_37"/>
    <g id="xtick_38"/>
    <g id="xtick_39"/>
    <g id="xtick_40"/>
   </g>
   <g id="matplotlib.axis_16"/>
   <g id="line2d_8">
    <path d="M 10.793097 121.545 
L 220.043097 121.545 
" style="fill: none; stroke: #482475; stroke-opacity: 0.9; stroke-linecap: round"/>
   </g>
   <g id="text_8">
    <!-- 7 -->
    <g style="fill: #482475" transform="translate(10.793097 120.69825) scale(0.12 -0.12)">
     <defs>
      <path id="DejaVuSans-Bold-37" d="M 428 4666 
L 3944 4666 
L 3944 3988 
L 2125 0 
L 953 0 
L 2675 3781 
L 428 3781 
L 428 4666 
z
" transform="scale(0.015625)"/>
     </defs>
     <use xlink:href="#DejaVuSans-Bold-37"/>
    </g>
   </g>
  </g>
  <g id="axes_9">
   <g id="patch_10">
    <path d="M 10.793097 131.94 
L 220.043097 131.94 
L 220.043097 90.36 
L 10.793097 90.36 
L 10.793097 131.94 
z
" style="fill: none"/>
   </g>
   <g id="matplotlib.axis_17">
    <g id="xtick_41">
     <g id="text_9">
      <!-- 0.2 -->
      <g style="fill: #838383" transform="translate(7.2 149.798281) scale(0.11 -0.11)">
       <defs>
        <path id="DejaVuSans-30" d="M 2034 4250 
Q 1547 4250 1301 3770 
Q 1056 3291 1056 2328 
Q 1056 1369 1301 889 
Q 1547 409 2034 409 
Q 2525 409 2770 889 
Q 3016 1369 3016 2328 
Q 3016 3291 2770 3770 
Q 2525 4250 2034 4250 
z
M 2034 4750 
Q 2819 4750 3233 4129 
Q 3647 3509 3647 2328 
Q 3647 1150 3233 529 
Q 2819 -91 2034 -91 
Q 1250 -91 836 529 
Q 422 1150 422 2328 
Q 422 3509 836 4129 
Q 1250 4750 2034 4750 
z
" transform="scale(0.015625)"/>
        <path id="DejaVuSans-2e" d="M 684 794 
L 1344 794 
L 1344 0 
L 684 0 
L 684 794 
z
" transform="scale(0.015625)"/>
        <path id="DejaVuSans-32" d="M 1228 531 
L 3431 531 
L 3431 0 
L 469 0 
L 469 531 
Q 828 903 1448 1529 
Q 2069 2156 2228 2338 
Q 2531 2678 2651 2914 
Q 2772 3150 2772 3378 
Q 2772 3750 2511 3984 
Q 2250 4219 1831 4219 
Q 1534 4219 1204 4116 
Q 875 4013 500 3803 
L 500 4441 
Q 881 4594 1212 4672 
Q 1544 4750 1819 4750 
Q 2544 4750 2975 4387 
Q 3406 4025 3406 3419 
Q 3406 3131 3298 2873 
Q 3191 2616 2906 2266 
Q 2828 2175 2409 1742 
Q 1991 1309 1228 531 
z
" transform="scale(0.015625)"/>
       </defs>
       <use xlink:href="#DejaVuSans-30"/>
       <use xlink:href="#DejaVuSans-2e" x="63.623047"/>
       <use xlink:href="#DejaVuSans-32" x="95.410156"/>
      </g>
     </g>
    </g>
    <g id="xtick_42">
     <g id="text_10">
      <!-- 0.4 -->
      <g style="fill: #838383" transform="translate(49.20047 149.798281) scale(0.11 -0.11)">
       <defs>
        <path id="DejaVuSans-34" d="M 2419 4116 
L 825 1625 
L 2419 1625 
L 2419 4116 
z
M 2253 4666 
L 3047 4666 
L 3047 1625 
L 3713 1625 
L 3713 1100 
L 3047 1100 
L 3047 0 
L 2419 0 
L 2419 1100 
L 313 1100 
L 313 1709 
L 2253 4666 
z
" transform="scale(0.015625)"/>
       </defs>
       <use xlink:href="#DejaVuSans-30"/>
       <use xlink:href="#DejaVuSans-2e" x="63.623047"/>
       <use xlink:href="#DejaVuSans-34" x="95.410156"/>
      </g>
     </g>
    </g>
    <g id="xtick_43">
     <g id="text_11">
      <!-- 0.6 -->
      <g style="fill: #838383" transform="translate(91.200941 149.798281) scale(0.11 -0.11)">
       <defs>
        <path id="DejaVuSans-36" d="M 2113 2584 
Q 1688 2584 1439 2293 
Q 1191 2003 1191 1497 
Q 1191 994 1439 701 
Q 1688 409 2113 409 
Q 2538 409 2786 701 
Q 3034 994 3034 1497 
Q 3034 2003 2786 2293 
Q 2538 2584 2113 2584 
z
M 3366 4563 
L 3366 3988 
Q 3128 4100 2886 4159 
Q 2644 4219 2406 4219 
Q 1781 4219 1451 3797 
Q 1122 3375 1075 2522 
Q 1259 2794 1537 2939 
Q 1816 3084 2150 3084 
Q 2853 3084 3261 2657 
Q 3669 2231 3669 1497 
Q 3669 778 3244 343 
Q 2819 -91 2113 -91 
Q 1303 -91 875 529 
Q 447 1150 447 2328 
Q 447 3434 972 4092 
Q 1497 4750 2381 4750 
Q 2619 4750 2861 4703 
Q 3103 4656 3366 4563 
z
" transform="scale(0.015625)"/>
       </defs>
       <use xlink:href="#DejaVuSans-30"/>
       <use xlink:href="#DejaVuSans-2e" x="63.623047"/>
       <use xlink:href="#DejaVuSans-36" x="95.410156"/>
      </g>
     </g>
    </g>
    <g id="xtick_44">
     <g id="text_12">
      <!-- 0.8 -->
      <g style="fill: #838383" transform="translate(133.201411 149.798281) scale(0.11 -0.11)">
       <defs>
        <path id="DejaVuSans-38" d="M 2034 2216 
Q 1584 2216 1326 1975 
Q 1069 1734 1069 1313 
Q 1069 891 1326 650 
Q 1584 409 2034 409 
Q 2484 409 2743 651 
Q 3003 894 3003 1313 
Q 3003 1734 2745 1975 
Q 2488 2216 2034 2216 
z
M 1403 2484 
Q 997 2584 770 2862 
Q 544 3141 544 3541 
Q 544 4100 942 4425 
Q 1341 4750 2034 4750 
Q 2731 4750 3128 4425 
Q 3525 4100 3525 3541 
Q 3525 3141 3298 2862 
Q 3072 2584 2669 2484 
Q 3125 2378 3379 2068 
Q 3634 1759 3634 1313 
Q 3634 634 3220 271 
Q 2806 -91 2034 -91 
Q 1263 -91 848 271 
Q 434 634 434 1313 
Q 434 1759 690 2068 
Q 947 2378 1403 2484 
z
M 1172 3481 
Q 1172 3119 1398 2916 
Q 1625 2713 2034 2713 
Q 2441 2713 2670 2916 
Q 2900 3119 2900 3481 
Q 2900 3844 2670 4047 
Q 2441 4250 2034 4250 
Q 1625 4250 1398 4047 
Q 1172 3844 1172 3481 
z
" transform="scale(0.015625)"/>
       </defs>
       <use xlink:href="#DejaVuSans-30"/>
       <use xlink:href="#DejaVuSans-2e" x="63.623047"/>
       <use xlink:href="#DejaVuSans-38" x="95.410156"/>
      </g>
     </g>
    </g>
    <g id="xtick_45">
     <g id="text_13">
      <!-- 1.0 -->
      <g style="fill: #838383" transform="translate(175.201881 149.798281) scale(0.11 -0.11)">
       <defs>
        <path id="DejaVuSans-31" d="M 794 531 
L 1825 531 
L 1825 4091 
L 703 3866 
L 703 4441 
L 1819 4666 
L 2450 4666 
L 2450 531 
L 3481 531 
L 3481 0 
L 794 0 
L 794 531 
z
" transform="scale(0.015625)"/>
       </defs>
       <use xlink:href="#DejaVuSans-31"/>
       <use xlink:href="#DejaVuSans-2e" x="63.623047"/>
       <use xlink:href="#DejaVuSans-30" x="95.410156"/>
      </g>
     </g>
    </g>
    <g id="text_14">
     <!-- sldf -->
     <g style="fill: #262626" transform="translate(104.704347 165.204063) scale(0.12 -0.12)">
      <defs>
       <path id="DejaVuSans-73" d="M 2834 3397 
L 2834 2853 
Q 2591 2978 2328 3040 
Q 2066 3103 1784 3103 
Q 1356 3103 1142 2972 
Q 928 2841 928 2578 
Q 928 2378 1081 2264 
Q 1234 2150 1697 2047 
L 1894 2003 
Q 2506 1872 2764 1633 
Q 3022 1394 3022 966 
Q 3022 478 2636 193 
Q 2250 -91 1575 -91 
Q 1294 -91 989 -36 
Q 684 19 347 128 
L 347 722 
Q 666 556 975 473 
Q 1284 391 1588 391 
Q 1994 391 2212 530 
Q 2431 669 2431 922 
Q 2431 1156 2273 1281 
Q 2116 1406 1581 1522 
L 1381 1569 
Q 847 1681 609 1914 
Q 372 2147 372 2553 
Q 372 3047 722 3315 
Q 1072 3584 1716 3584 
Q 2034 3584 2315 3537 
Q 2597 3491 2834 3397 
z
" transform="scale(0.015625)"/>
       <path id="DejaVuSans-6c" d="M 603 4863 
L 1178 4863 
L 1178 0 
L 603 0 
L 603 4863 
z
" transform="scale(0.015625)"/>
       <path id="DejaVuSans-64" d="M 2906 2969 
L 2906 4863 
L 3481 4863 
L 3481 0 
L 2906 0 
L 2906 525 
Q 2725 213 2448 61 
Q 2172 -91 1784 -91 
Q 1150 -91 751 415 
Q 353 922 353 1747 
Q 353 2572 751 3078 
Q 1150 3584 1784 3584 
Q 2172 3584 2448 3432 
Q 2725 3281 2906 2969 
z
M 947 1747 
Q 947 1113 1208 752 
Q 1469 391 1925 391 
Q 2381 391 2643 752 
Q 2906 1113 2906 1747 
Q 2906 2381 2643 2742 
Q 2381 3103 1925 3103 
Q 1469 3103 1208 2742 
Q 947 2381 947 1747 
z
" transform="scale(0.015625)"/>
       <path id="DejaVuSans-66" d="M 2375 4863 
L 2375 4384 
L 1825 4384 
Q 1516 4384 1395 4259 
Q 1275 4134 1275 3809 
L 1275 3500 
L 2222 3500 
L 2222 3053 
L 1275 3053 
L 1275 0 
L 697 0 
L 697 3053 
L 147 3053 
L 147 3500 
L 697 3500 
L 697 3744 
Q 697 4328 969 4595 
Q 1241 4863 1831 4863 
L 2375 4863 
z
" transform="scale(0.015625)"/>
      </defs>
      <use xlink:href="#DejaVuSans-73"/>
      <use xlink:href="#DejaVuSans-6c" x="52.099609"/>
      <use xlink:href="#DejaVuSans-64" x="79.882812"/>
      <use xlink:href="#DejaVuSans-66" x="143.359375"/>
     </g>
    </g>
   </g>
   <g id="matplotlib.axis_18"/>
   <g id="line2d_9">
    <path d="M 10.793097 131.94 
L 220.043097 131.94 
" style="fill: none; stroke: #482475; stroke-opacity: 0.9; stroke-linecap: round"/>
   </g>
   <g id="text_15">
    <!-- 8 -->
    <g style="fill: #482475" transform="translate(10.793097 131.09325) scale(0.12 -0.12)">
     <defs>
      <path id="DejaVuSans-Bold-38" d="M 2228 2088 
Q 1891 2088 1709 1903 
Q 1528 1719 1528 1375 
Q 1528 1031 1709 848 
Q 1891 666 2228 666 
Q 2563 666 2741 848 
Q 2919 1031 2919 1375 
Q 2919 1722 2741 1905 
Q 2563 2088 2228 2088 
z
M 1350 2484 
Q 925 2613 709 2878 
Q 494 3144 494 3541 
Q 494 4131 934 4440 
Q 1375 4750 2228 4750 
Q 3075 4750 3515 4442 
Q 3956 4134 3956 3541 
Q 3956 3144 3739 2878 
Q 3522 2613 3097 2484 
Q 3572 2353 3814 2058 
Q 4056 1763 4056 1313 
Q 4056 619 3595 264 
Q 3134 -91 2228 -91 
Q 1319 -91 855 264 
Q 391 619 391 1313 
Q 391 1763 633 2058 
Q 875 2353 1350 2484 
z
M 1631 3419 
Q 1631 3141 1786 2991 
Q 1941 2841 2228 2841 
Q 2509 2841 2662 2991 
Q 2816 3141 2816 3419 
Q 2816 3697 2662 3845 
Q 2509 3994 2228 3994 
Q 1941 3994 1786 3844 
Q 1631 3694 1631 3419 
z
" transform="scale(0.015625)"/>
     </defs>
     <use xlink:href="#DejaVuSans-Bold-38"/>
    </g>
   </g>
  </g>
 </g>
</svg>
