<?xml version="1.0" encoding="utf-8" standalone="no"?>
<!DOCTYPE svg PUBLIC "-//W3C//DTD SVG 1.1//EN"
  "http://www.w3.org/Graphics/SVG/1.1/DTD/svg11.dtd">
<svg xmlns:xlink="http://www.w3.org/1999/xlink" width="928.196875pt" height="249.375078pt" viewBox="0 0 928.196875 249.375078" xmlns="http://www.w3.org/2000/svg" version="1.1">
 <metadata>
  <rdf:RDF xmlns:dc="http://purl.org/dc/elements/1.1/" xmlns:cc="http://creativecommons.org/ns#" xmlns:rdf="http://www.w3.org/1999/02/22-rdf-syntax-ns#">
   <cc:Work>
    <dc:type rdf:resource="http://purl.org/dc/dcmitype/StillImage"/>
    <dc:date>2023-12-05T12:32:51.590631</dc:date>
    <dc:format>image/svg+xml</dc:format>
    <dc:creator>
     <cc:Agent>
      <dc:title>Matplotlib v3.8.2, https://matplotlib.org/</dc:title>
     </cc:Agent>
    </dc:creator>
   </cc:Work>
  </rdf:RDF>
 </metadata>
 <defs>
  <style type="text/css">*{stroke-linejoin: round; stroke-linecap: butt}</style>
 </defs>
 <g id="figure_1">
  <g id="patch_1">
   <path d="M 0 249.375078 
L 928.196875 249.375078 
L 928.196875 0 
L 0 0 
L 0 249.375078 
z
" style="fill: none"/>
  </g>
  <g id="axes_1">
   <g id="patch_2">
    <path d="M 28.196875 190.917656 
L 434.015057 190.917656 
L 434.015057 24.597656 
L 28.196875 24.597656 
L 28.196875 190.917656 
z
" style="fill: none"/>
   </g>
   <g id="matplotlib.axis_1">
    <g id="xtick_1">
     <g id="text_1">
      <!-- 0 -->
      <g style="fill: #838383" transform="translate(42.268937 204.865508) scale(0.1375 -0.1375)">
       <defs>
        <path id="DejaVuSans-30" d="M 2034 4250 
Q 1547 4250 1301 3770 
Q 1056 3291 1056 2328 
Q 1056 1369 1301 889 
Q 1547 409 2034 409 
Q 2525 409 2770 889 
Q 3016 1369 3016 2328 
Q 3016 3291 2770 3770 
Q 2525 4250 2034 4250 
z
M 2034 4750 
Q 2819 4750 3233 4129 
Q 3647 3509 3647 2328 
Q 3647 1150 3233 529 
Q 2819 -91 2034 -91 
Q 1250 -91 836 529 
Q 422 1150 422 2328 
Q 422 3509 836 4129 
Q 1250 4750 2034 4750 
z
" transform="scale(0.015625)"/>
       </defs>
       <use xlink:href="#DejaVuSans-30"/>
      </g>
     </g>
    </g>
    <g id="xtick_2">
     <g id="text_2">
      <!-- 2 -->
      <g style="fill: #838383" transform="translate(94.972597 204.865508) scale(0.1375 -0.1375)">
       <defs>
        <path id="DejaVuSans-32" d="M 1228 531 
L 3431 531 
L 3431 0 
L 469 0 
L 469 531 
Q 828 903 1448 1529 
Q 2069 2156 2228 2338 
Q 2531 2678 2651 2914 
Q 2772 3150 2772 3378 
Q 2772 3750 2511 3984 
Q 2250 4219 1831 4219 
Q 1534 4219 1204 4116 
Q 875 4013 500 3803 
L 500 4441 
Q 881 4594 1212 4672 
Q 1544 4750 1819 4750 
Q 2544 4750 2975 4387 
Q 3406 4025 3406 3419 
Q 3406 3131 3298 2873 
Q 3191 2616 2906 2266 
Q 2828 2175 2409 1742 
Q 1991 1309 1228 531 
z
" transform="scale(0.015625)"/>
       </defs>
       <use xlink:href="#DejaVuSans-32"/>
      </g>
     </g>
    </g>
    <g id="xtick_3">
     <g id="text_3">
      <!-- 4 -->
      <g style="fill: #838383" transform="translate(147.676257 204.865508) scale(0.1375 -0.1375)">
       <defs>
        <path id="DejaVuSans-34" d="M 2419 4116 
L 825 1625 
L 2419 1625 
L 2419 4116 
z
M 2253 4666 
L 3047 4666 
L 3047 1625 
L 3713 1625 
L 3713 1100 
L 3047 1100 
L 3047 0 
L 2419 0 
L 2419 1100 
L 313 1100 
L 313 1709 
L 2253 4666 
z
" transform="scale(0.015625)"/>
       </defs>
       <use xlink:href="#DejaVuSans-34"/>
      </g>
     </g>
    </g>
    <g id="xtick_4">
     <g id="text_4">
      <!-- 6 -->
      <g style="fill: #838383" transform="translate(200.379917 204.865508) scale(0.1375 -0.1375)">
       <defs>
        <path id="DejaVuSans-36" d="M 2113 2584 
Q 1688 2584 1439 2293 
Q 1191 2003 1191 1497 
Q 1191 994 1439 701 
Q 1688 409 2113 409 
Q 2538 409 2786 701 
Q 3034 994 3034 1497 
Q 3034 2003 2786 2293 
Q 2538 2584 2113 2584 
z
M 3366 4563 
L 3366 3988 
Q 3128 4100 2886 4159 
Q 2644 4219 2406 4219 
Q 1781 4219 1451 3797 
Q 1122 3375 1075 2522 
Q 1259 2794 1537 2939 
Q 1816 3084 2150 3084 
Q 2853 3084 3261 2657 
Q 3669 2231 3669 1497 
Q 3669 778 3244 343 
Q 2819 -91 2113 -91 
Q 1303 -91 875 529 
Q 447 1150 447 2328 
Q 447 3434 972 4092 
Q 1497 4750 2381 4750 
Q 2619 4750 2861 4703 
Q 3103 4656 3366 4563 
z
" transform="scale(0.015625)"/>
       </defs>
       <use xlink:href="#DejaVuSans-36"/>
      </g>
     </g>
    </g>
    <g id="xtick_5">
     <g id="text_5">
      <!-- 8 -->
      <g style="fill: #838383" transform="translate(253.083577 204.865508) scale(0.1375 -0.1375)">
       <defs>
        <path id="DejaVuSans-38" d="M 2034 2216 
Q 1584 2216 1326 1975 
Q 1069 1734 1069 1313 
Q 1069 891 1326 650 
Q 1584 409 2034 409 
Q 2484 409 2743 651 
Q 3003 894 3003 1313 
Q 3003 1734 2745 1975 
Q 2488 2216 2034 2216 
z
M 1403 2484 
Q 997 2584 770 2862 
Q 544 3141 544 3541 
Q 544 4100 942 4425 
Q 1341 4750 2034 4750 
Q 2731 4750 3128 4425 
Q 3525 4100 3525 3541 
Q 3525 3141 3298 2862 
Q 3072 2584 2669 2484 
Q 3125 2378 3379 2068 
Q 3634 1759 3634 1313 
Q 3634 634 3220 271 
Q 2806 -91 2034 -91 
Q 1263 -91 848 271 
Q 434 634 434 1313 
Q 434 1759 690 2068 
Q 947 2378 1403 2484 
z
M 1172 3481 
Q 1172 3119 1398 2916 
Q 1625 2713 2034 2713 
Q 2441 2713 2670 2916 
Q 2900 3119 2900 3481 
Q 2900 3844 2670 4047 
Q 2441 4250 2034 4250 
Q 1625 4250 1398 4047 
Q 1172 3844 1172 3481 
z
" transform="scale(0.015625)"/>
       </defs>
       <use xlink:href="#DejaVuSans-38"/>
      </g>
     </g>
    </g>
    <g id="xtick_6">
     <g id="text_6">
      <!-- 10 -->
      <g style="fill: #838383" transform="translate(301.413018 204.865508) scale(0.1375 -0.1375)">
       <defs>
        <path id="DejaVuSans-31" d="M 794 531 
L 1825 531 
L 1825 4091 
L 703 3866 
L 703 4441 
L 1819 4666 
L 2450 4666 
L 2450 531 
L 3481 531 
L 3481 0 
L 794 0 
L 794 531 
z
" transform="scale(0.015625)"/>
       </defs>
       <use xlink:href="#DejaVuSans-31"/>
       <use xlink:href="#DejaVuSans-30" x="63.623047"/>
      </g>
     </g>
    </g>
    <g id="xtick_7">
     <g id="text_7">
      <!-- 12 -->
      <g style="fill: #838383" transform="translate(354.116678 204.865508) scale(0.1375 -0.1375)">
       <use xlink:href="#DejaVuSans-31"/>
       <use xlink:href="#DejaVuSans-32" x="63.623047"/>
      </g>
     </g>
    </g>
    <g id="xtick_8">
     <g id="text_8">
      <!-- 14 -->
      <g style="fill: #838383" transform="translate(406.820338 204.865508) scale(0.1375 -0.1375)">
       <use xlink:href="#DejaVuSans-31"/>
       <use xlink:href="#DejaVuSans-34" x="63.623047"/>
      </g>
     </g>
    </g>
    <g id="text_9">
     <!-- # tunneling events / 195 configurations -->
     <g style="fill: #838383" transform="translate(81.639169 223.122734) scale(0.15 -0.15)">
      <defs>
       <path id="DejaVuSans-23" d="M 3272 2816 
L 2363 2816 
L 2100 1772 
L 3016 1772 
L 3272 2816 
z
M 2803 4594 
L 2478 3297 
L 3391 3297 
L 3719 4594 
L 4219 4594 
L 3897 3297 
L 4872 3297 
L 4872 2816 
L 3775 2816 
L 3519 1772 
L 4513 1772 
L 4513 1294 
L 3397 1294 
L 3072 0 
L 2572 0 
L 2894 1294 
L 1978 1294 
L 1656 0 
L 1153 0 
L 1478 1294 
L 494 1294 
L 494 1772 
L 1594 1772 
L 1856 2816 
L 850 2816 
L 850 3297 
L 1978 3297 
L 2297 4594 
L 2803 4594 
z
" transform="scale(0.015625)"/>
       <path id="DejaVuSans-20" transform="scale(0.015625)"/>
       <path id="DejaVuSans-74" d="M 1172 4494 
L 1172 3500 
L 2356 3500 
L 2356 3053 
L 1172 3053 
L 1172 1153 
Q 1172 725 1289 603 
Q 1406 481 1766 481 
L 2356 481 
L 2356 0 
L 1766 0 
Q 1100 0 847 248 
Q 594 497 594 1153 
L 594 3053 
L 172 3053 
L 172 3500 
L 594 3500 
L 594 4494 
L 1172 4494 
z
" transform="scale(0.015625)"/>
       <path id="DejaVuSans-75" d="M 544 1381 
L 544 3500 
L 1119 3500 
L 1119 1403 
Q 1119 906 1312 657 
Q 1506 409 1894 409 
Q 2359 409 2629 706 
Q 2900 1003 2900 1516 
L 2900 3500 
L 3475 3500 
L 3475 0 
L 2900 0 
L 2900 538 
Q 2691 219 2414 64 
Q 2138 -91 1772 -91 
Q 1169 -91 856 284 
Q 544 659 544 1381 
z
M 1991 3584 
L 1991 3584 
z
" transform="scale(0.015625)"/>
       <path id="DejaVuSans-6e" d="M 3513 2113 
L 3513 0 
L 2938 0 
L 2938 2094 
Q 2938 2591 2744 2837 
Q 2550 3084 2163 3084 
Q 1697 3084 1428 2787 
Q 1159 2491 1159 1978 
L 1159 0 
L 581 0 
L 581 3500 
L 1159 3500 
L 1159 2956 
Q 1366 3272 1645 3428 
Q 1925 3584 2291 3584 
Q 2894 3584 3203 3211 
Q 3513 2838 3513 2113 
z
" transform="scale(0.015625)"/>
       <path id="DejaVuSans-65" d="M 3597 1894 
L 3597 1613 
L 953 1613 
Q 991 1019 1311 708 
Q 1631 397 2203 397 
Q 2534 397 2845 478 
Q 3156 559 3463 722 
L 3463 178 
Q 3153 47 2828 -22 
Q 2503 -91 2169 -91 
Q 1331 -91 842 396 
Q 353 884 353 1716 
Q 353 2575 817 3079 
Q 1281 3584 2069 3584 
Q 2775 3584 3186 3129 
Q 3597 2675 3597 1894 
z
M 3022 2063 
Q 3016 2534 2758 2815 
Q 2500 3097 2075 3097 
Q 1594 3097 1305 2825 
Q 1016 2553 972 2059 
L 3022 2063 
z
" transform="scale(0.015625)"/>
       <path id="DejaVuSans-6c" d="M 603 4863 
L 1178 4863 
L 1178 0 
L 603 0 
L 603 4863 
z
" transform="scale(0.015625)"/>
       <path id="DejaVuSans-69" d="M 603 3500 
L 1178 3500 
L 1178 0 
L 603 0 
L 603 3500 
z
M 603 4863 
L 1178 4863 
L 1178 4134 
L 603 4134 
L 603 4863 
z
" transform="scale(0.015625)"/>
       <path id="DejaVuSans-67" d="M 2906 1791 
Q 2906 2416 2648 2759 
Q 2391 3103 1925 3103 
Q 1463 3103 1205 2759 
Q 947 2416 947 1791 
Q 947 1169 1205 825 
Q 1463 481 1925 481 
Q 2391 481 2648 825 
Q 2906 1169 2906 1791 
z
M 3481 434 
Q 3481 -459 3084 -895 
Q 2688 -1331 1869 -1331 
Q 1566 -1331 1297 -1286 
Q 1028 -1241 775 -1147 
L 775 -588 
Q 1028 -725 1275 -790 
Q 1522 -856 1778 -856 
Q 2344 -856 2625 -561 
Q 2906 -266 2906 331 
L 2906 616 
Q 2728 306 2450 153 
Q 2172 0 1784 0 
Q 1141 0 747 490 
Q 353 981 353 1791 
Q 353 2603 747 3093 
Q 1141 3584 1784 3584 
Q 2172 3584 2450 3431 
Q 2728 3278 2906 2969 
L 2906 3500 
L 3481 3500 
L 3481 434 
z
" transform="scale(0.015625)"/>
       <path id="DejaVuSans-76" d="M 191 3500 
L 800 3500 
L 1894 563 
L 2988 3500 
L 3597 3500 
L 2284 0 
L 1503 0 
L 191 3500 
z
" transform="scale(0.015625)"/>
       <path id="DejaVuSans-73" d="M 2834 3397 
L 2834 2853 
Q 2591 2978 2328 3040 
Q 2066 3103 1784 3103 
Q 1356 3103 1142 2972 
Q 928 2841 928 2578 
Q 928 2378 1081 2264 
Q 1234 2150 1697 2047 
L 1894 2003 
Q 2506 1872 2764 1633 
Q 3022 1394 3022 966 
Q 3022 478 2636 193 
Q 2250 -91 1575 -91 
Q 1294 -91 989 -36 
Q 684 19 347 128 
L 347 722 
Q 666 556 975 473 
Q 1284 391 1588 391 
Q 1994 391 2212 530 
Q 2431 669 2431 922 
Q 2431 1156 2273 1281 
Q 2116 1406 1581 1522 
L 1381 1569 
Q 847 1681 609 1914 
Q 372 2147 372 2553 
Q 372 3047 722 3315 
Q 1072 3584 1716 3584 
Q 2034 3584 2315 3537 
Q 2597 3491 2834 3397 
z
" transform="scale(0.015625)"/>
       <path id="DejaVuSans-2f" d="M 1625 4666 
L 2156 4666 
L 531 -594 
L 0 -594 
L 1625 4666 
z
" transform="scale(0.015625)"/>
       <path id="DejaVuSans-39" d="M 703 97 
L 703 672 
Q 941 559 1184 500 
Q 1428 441 1663 441 
Q 2288 441 2617 861 
Q 2947 1281 2994 2138 
Q 2813 1869 2534 1725 
Q 2256 1581 1919 1581 
Q 1219 1581 811 2004 
Q 403 2428 403 3163 
Q 403 3881 828 4315 
Q 1253 4750 1959 4750 
Q 2769 4750 3195 4129 
Q 3622 3509 3622 2328 
Q 3622 1225 3098 567 
Q 2575 -91 1691 -91 
Q 1453 -91 1209 -44 
Q 966 3 703 97 
z
M 1959 2075 
Q 2384 2075 2632 2365 
Q 2881 2656 2881 3163 
Q 2881 3666 2632 3958 
Q 2384 4250 1959 4250 
Q 1534 4250 1286 3958 
Q 1038 3666 1038 3163 
Q 1038 2656 1286 2365 
Q 1534 2075 1959 2075 
z
" transform="scale(0.015625)"/>
       <path id="DejaVuSans-35" d="M 691 4666 
L 3169 4666 
L 3169 4134 
L 1269 4134 
L 1269 2991 
Q 1406 3038 1543 3061 
Q 1681 3084 1819 3084 
Q 2600 3084 3056 2656 
Q 3513 2228 3513 1497 
Q 3513 744 3044 326 
Q 2575 -91 1722 -91 
Q 1428 -91 1123 -41 
Q 819 9 494 109 
L 494 744 
Q 775 591 1075 516 
Q 1375 441 1709 441 
Q 2250 441 2565 725 
Q 2881 1009 2881 1497 
Q 2881 1984 2565 2268 
Q 2250 2553 1709 2553 
Q 1456 2553 1204 2497 
Q 953 2441 691 2322 
L 691 4666 
z
" transform="scale(0.015625)"/>
       <path id="DejaVuSans-63" d="M 3122 3366 
L 3122 2828 
Q 2878 2963 2633 3030 
Q 2388 3097 2138 3097 
Q 1578 3097 1268 2742 
Q 959 2388 959 1747 
Q 959 1106 1268 751 
Q 1578 397 2138 397 
Q 2388 397 2633 464 
Q 2878 531 3122 666 
L 3122 134 
Q 2881 22 2623 -34 
Q 2366 -91 2075 -91 
Q 1284 -91 818 406 
Q 353 903 353 1747 
Q 353 2603 823 3093 
Q 1294 3584 2113 3584 
Q 2378 3584 2631 3529 
Q 2884 3475 3122 3366 
z
" transform="scale(0.015625)"/>
       <path id="DejaVuSans-6f" d="M 1959 3097 
Q 1497 3097 1228 2736 
Q 959 2375 959 1747 
Q 959 1119 1226 758 
Q 1494 397 1959 397 
Q 2419 397 2687 759 
Q 2956 1122 2956 1747 
Q 2956 2369 2687 2733 
Q 2419 3097 1959 3097 
z
M 1959 3584 
Q 2709 3584 3137 3096 
Q 3566 2609 3566 1747 
Q 3566 888 3137 398 
Q 2709 -91 1959 -91 
Q 1206 -91 779 398 
Q 353 888 353 1747 
Q 353 2609 779 3096 
Q 1206 3584 1959 3584 
z
" transform="scale(0.015625)"/>
       <path id="DejaVuSans-66" d="M 2375 4863 
L 2375 4384 
L 1825 4384 
Q 1516 4384 1395 4259 
Q 1275 4134 1275 3809 
L 1275 3500 
L 2222 3500 
L 2222 3053 
L 1275 3053 
L 1275 0 
L 697 0 
L 697 3053 
L 147 3053 
L 147 3500 
L 697 3500 
L 697 3744 
Q 697 4328 969 4595 
Q 1241 4863 1831 4863 
L 2375 4863 
z
" transform="scale(0.015625)"/>
       <path id="DejaVuSans-72" d="M 2631 2963 
Q 2534 3019 2420 3045 
Q 2306 3072 2169 3072 
Q 1681 3072 1420 2755 
Q 1159 2438 1159 1844 
L 1159 0 
L 581 0 
L 581 3500 
L 1159 3500 
L 1159 2956 
Q 1341 3275 1631 3429 
Q 1922 3584 2338 3584 
Q 2397 3584 2469 3576 
Q 2541 3569 2628 3553 
L 2631 2963 
z
" transform="scale(0.015625)"/>
       <path id="DejaVuSans-61" d="M 2194 1759 
Q 1497 1759 1228 1600 
Q 959 1441 959 1056 
Q 959 750 1161 570 
Q 1363 391 1709 391 
Q 2188 391 2477 730 
Q 2766 1069 2766 1631 
L 2766 1759 
L 2194 1759 
z
M 3341 1997 
L 3341 0 
L 2766 0 
L 2766 531 
Q 2569 213 2275 61 
Q 1981 -91 1556 -91 
Q 1019 -91 701 211 
Q 384 513 384 1019 
Q 384 1609 779 1909 
Q 1175 2209 1959 2209 
L 2766 2209 
L 2766 2266 
Q 2766 2663 2505 2880 
Q 2244 3097 1772 3097 
Q 1472 3097 1187 3025 
Q 903 2953 641 2809 
L 641 3341 
Q 956 3463 1253 3523 
Q 1550 3584 1831 3584 
Q 2591 3584 2966 3190 
Q 3341 2797 3341 1997 
z
" transform="scale(0.015625)"/>
      </defs>
      <use xlink:href="#DejaVuSans-23"/>
      <use xlink:href="#DejaVuSans-20" x="83.789062"/>
      <use xlink:href="#DejaVuSans-74" x="115.576172"/>
      <use xlink:href="#DejaVuSans-75" x="154.785156"/>
      <use xlink:href="#DejaVuSans-6e" x="218.164062"/>
      <use xlink:href="#DejaVuSans-6e" x="281.542969"/>
      <use xlink:href="#DejaVuSans-65" x="344.921875"/>
      <use xlink:href="#DejaVuSans-6c" x="406.445312"/>
      <use xlink:href="#DejaVuSans-69" x="434.228516"/>
      <use xlink:href="#DejaVuSans-6e" x="462.011719"/>
      <use xlink:href="#DejaVuSans-67" x="525.390625"/>
      <use xlink:href="#DejaVuSans-20" x="588.867188"/>
      <use xlink:href="#DejaVuSans-65" x="620.654297"/>
      <use xlink:href="#DejaVuSans-76" x="682.177734"/>
      <use xlink:href="#DejaVuSans-65" x="741.357422"/>
      <use xlink:href="#DejaVuSans-6e" x="802.880859"/>
      <use xlink:href="#DejaVuSans-74" x="866.259766"/>
      <use xlink:href="#DejaVuSans-73" x="905.46875"/>
      <use xlink:href="#DejaVuSans-20" x="957.568359"/>
      <use xlink:href="#DejaVuSans-2f" x="989.355469"/>
      <use xlink:href="#DejaVuSans-20" x="1023.046875"/>
      <use xlink:href="#DejaVuSans-31" x="1054.833984"/>
      <use xlink:href="#DejaVuSans-39" x="1118.457031"/>
      <use xlink:href="#DejaVuSans-35" x="1182.080078"/>
      <use xlink:href="#DejaVuSans-20" x="1245.703125"/>
      <use xlink:href="#DejaVuSans-63" x="1277.490234"/>
      <use xlink:href="#DejaVuSans-6f" x="1332.470703"/>
      <use xlink:href="#DejaVuSans-6e" x="1393.652344"/>
      <use xlink:href="#DejaVuSans-66" x="1457.03125"/>
      <use xlink:href="#DejaVuSans-69" x="1492.236328"/>
      <use xlink:href="#DejaVuSans-67" x="1520.019531"/>
      <use xlink:href="#DejaVuSans-75" x="1583.496094"/>
      <use xlink:href="#DejaVuSans-72" x="1646.875"/>
      <use xlink:href="#DejaVuSans-61" x="1687.988281"/>
      <use xlink:href="#DejaVuSans-74" x="1749.267578"/>
      <use xlink:href="#DejaVuSans-69" x="1788.476562"/>
      <use xlink:href="#DejaVuSans-6f" x="1816.259766"/>
      <use xlink:href="#DejaVuSans-6e" x="1877.441406"/>
      <use xlink:href="#DejaVuSans-73" x="1940.820312"/>
     </g>
    </g>
   </g>
   <g id="matplotlib.axis_2">
    <g id="ytick_1">
     <g id="text_10">
      <!-- 0 -->
      <g style="fill: #838383" transform="translate(15.948438 196.141582) scale(0.1375 -0.1375)">
       <use xlink:href="#DejaVuSans-30"/>
      </g>
     </g>
    </g>
    <g id="ytick_2">
     <g id="text_11">
      <!-- 20 -->
      <g style="fill: #838383" transform="translate(7.2 159.727789) scale(0.1375 -0.1375)">
       <use xlink:href="#DejaVuSans-32"/>
       <use xlink:href="#DejaVuSans-30" x="63.623047"/>
      </g>
     </g>
    </g>
    <g id="ytick_3">
     <g id="text_12">
      <!-- 40 -->
      <g style="fill: #838383" transform="translate(7.2 123.313996) scale(0.1375 -0.1375)">
       <use xlink:href="#DejaVuSans-34"/>
       <use xlink:href="#DejaVuSans-30" x="63.623047"/>
      </g>
     </g>
    </g>
    <g id="ytick_4">
     <g id="text_13">
      <!-- 60 -->
      <g style="fill: #838383" transform="translate(7.2 86.900203) scale(0.1375 -0.1375)">
       <use xlink:href="#DejaVuSans-36"/>
       <use xlink:href="#DejaVuSans-30" x="63.623047"/>
      </g>
     </g>
    </g>
    <g id="ytick_5">
     <g id="text_14">
      <!-- 80 -->
      <g style="fill: #838383" transform="translate(7.2 50.48641) scale(0.1375 -0.1375)">
       <use xlink:href="#DejaVuSans-38"/>
       <use xlink:href="#DejaVuSans-30" x="63.623047"/>
      </g>
     </g>
    </g>
   </g>
   <g id="patch_3">
    <path d="M 72.994986 190.917656 
L 99.346816 190.917656 
L 99.346816 189.096967 
L 72.994986 189.096967 
z
" clip-path="url(#p03272c7579)" style="fill: #2196f3; opacity: 0.4"/>
   </g>
   <g id="patch_4">
    <path d="M 99.346816 190.917656 
L 125.698646 190.917656 
L 125.698646 179.993518 
L 99.346816 179.993518 
z
" clip-path="url(#p03272c7579)" style="fill: #2196f3; opacity: 0.4"/>
   </g>
   <g id="patch_5">
    <path d="M 125.698646 190.917656 
L 152.050476 190.917656 
L 152.050476 161.786622 
L 125.698646 161.786622 
z
" clip-path="url(#p03272c7579)" style="fill: #2196f3; opacity: 0.4"/>
   </g>
   <g id="patch_6">
    <path d="M 152.050476 190.917656 
L 178.402306 190.917656 
L 178.402306 161.786622 
L 152.050476 161.786622 
z
" clip-path="url(#p03272c7579)" style="fill: #2196f3; opacity: 0.4"/>
   </g>
   <g id="patch_7">
    <path d="M 178.402306 190.917656 
L 204.754136 190.917656 
L 204.754136 138.117656 
L 178.402306 138.117656 
z
" clip-path="url(#p03272c7579)" style="fill: #2196f3; opacity: 0.4"/>
   </g>
   <g id="patch_8">
    <path d="M 204.754136 190.917656 
L 231.105966 190.917656 
L 231.105966 121.731449 
L 204.754136 121.731449 
z
" clip-path="url(#p03272c7579)" style="fill: #2196f3; opacity: 0.4"/>
   </g>
   <g id="patch_9">
    <path d="M 231.105966 190.917656 
L 257.457796 190.917656 
L 257.457796 143.579725 
L 231.105966 143.579725 
z
" clip-path="url(#p03272c7579)" style="fill: #2196f3; opacity: 0.4"/>
   </g>
   <g id="patch_10">
    <path d="M 257.457796 190.917656 
L 283.809626 190.917656 
L 283.809626 145.400415 
L 257.457796 145.400415 
z
" clip-path="url(#p03272c7579)" style="fill: #2196f3; opacity: 0.4"/>
   </g>
   <g id="patch_11">
    <path d="M 283.809626 190.917656 
L 310.161456 190.917656 
L 310.161456 158.145242 
L 283.809626 158.145242 
z
" clip-path="url(#p03272c7579)" style="fill: #2196f3; opacity: 0.4"/>
   </g>
   <g id="patch_12">
    <path d="M 310.161456 190.917656 
L 336.513286 190.917656 
L 336.513286 170.89007 
L 310.161456 170.89007 
z
" clip-path="url(#p03272c7579)" style="fill: #2196f3; opacity: 0.4"/>
   </g>
   <g id="patch_13">
    <path d="M 336.513286 190.917656 
L 362.865116 190.917656 
L 362.865116 185.455587 
L 336.513286 185.455587 
z
" clip-path="url(#p03272c7579)" style="fill: #2196f3; opacity: 0.4"/>
   </g>
   <g id="patch_14">
    <path d="M 362.865116 190.917656 
L 389.216946 190.917656 
L 389.216946 185.455587 
L 362.865116 185.455587 
z
" clip-path="url(#p03272c7579)" style="fill: #2196f3; opacity: 0.4"/>
   </g>
   <g id="patch_15">
    <path d="M 389.216946 190.917656 
L 415.568776 190.917656 
L 415.568776 185.455587 
L 389.216946 185.455587 
z
" clip-path="url(#p03272c7579)" style="fill: #2196f3; opacity: 0.4"/>
   </g>
   <g id="patch_16">
    <path d="M 46.643156 190.917656 
L 55.427099 190.917656 
L 55.427099 32.517656 
L 46.643156 32.517656 
z
" clip-path="url(#p03272c7579)" style="fill: #ef5350; opacity: 0.4"/>
   </g>
   <g id="patch_17">
    <path d="M 55.427099 190.917656 
L 64.211043 190.917656 
L 64.211043 190.917656 
L 55.427099 190.917656 
z
" clip-path="url(#p03272c7579)" style="fill: #ef5350; opacity: 0.4"/>
   </g>
   <g id="patch_18">
    <path d="M 64.211043 190.917656 
L 72.994986 190.917656 
L 72.994986 190.917656 
L 64.211043 190.917656 
z
" clip-path="url(#p03272c7579)" style="fill: #ef5350; opacity: 0.4"/>
   </g>
   <g id="patch_19">
    <path d="M 72.994986 190.917656 
L 81.778929 190.917656 
L 81.778929 70.752139 
L 72.994986 70.752139 
z
" clip-path="url(#p03272c7579)" style="fill: #ef5350; opacity: 0.4"/>
   </g>
   <g id="patch_20">
    <path d="M 81.778929 190.917656 
L 90.562873 190.917656 
L 90.562873 190.917656 
L 81.778929 190.917656 
z
" clip-path="url(#p03272c7579)" style="fill: #ef5350; opacity: 0.4"/>
   </g>
   <g id="patch_21">
    <path d="M 90.562873 190.917656 
L 99.346816 190.917656 
L 99.346816 190.917656 
L 90.562873 190.917656 
z
" clip-path="url(#p03272c7579)" style="fill: #ef5350; opacity: 0.4"/>
   </g>
   <g id="patch_22">
    <path d="M 99.346816 190.917656 
L 108.130759 190.917656 
L 108.130759 141.759036 
L 99.346816 141.759036 
z
" clip-path="url(#p03272c7579)" style="fill: #ef5350; opacity: 0.4"/>
   </g>
   <g id="patch_23">
    <path d="M 108.130759 190.917656 
L 116.914703 190.917656 
L 116.914703 190.917656 
L 108.130759 190.917656 
z
" clip-path="url(#p03272c7579)" style="fill: #ef5350; opacity: 0.4"/>
   </g>
   <g id="patch_24">
    <path d="M 116.914703 190.917656 
L 125.698646 190.917656 
L 125.698646 190.917656 
L 116.914703 190.917656 
z
" clip-path="url(#p03272c7579)" style="fill: #ef5350; opacity: 0.4"/>
   </g>
   <g id="patch_25">
    <path d="M 125.698646 190.917656 
L 134.482589 190.917656 
L 134.482589 170.89007 
L 125.698646 170.89007 
z
" clip-path="url(#p03272c7579)" style="fill: #ef5350; opacity: 0.4"/>
   </g>
   <g id="patch_26">
    <path d="M 134.482589 190.917656 
L 143.266533 190.917656 
L 143.266533 190.917656 
L 134.482589 190.917656 
z
" clip-path="url(#p03272c7579)" style="fill: #ef5350; opacity: 0.4"/>
   </g>
   <g id="patch_27">
    <path d="M 143.266533 190.917656 
L 152.050476 190.917656 
L 152.050476 190.917656 
L 143.266533 190.917656 
z
" clip-path="url(#p03272c7579)" style="fill: #ef5350; opacity: 0.4"/>
   </g>
   <g id="patch_28">
    <path d="M 152.050476 190.917656 
L 160.834419 190.917656 
L 160.834419 185.455587 
L 152.050476 185.455587 
z
" clip-path="url(#p03272c7579)" style="fill: #ef5350; opacity: 0.4"/>
   </g>
   <g id="patch_29">
    <path d="M 160.834419 190.917656 
L 169.618363 190.917656 
L 169.618363 190.917656 
L 160.834419 190.917656 
z
" clip-path="url(#p03272c7579)" style="fill: #ef5350; opacity: 0.4"/>
   </g>
   <g id="patch_30">
    <path d="M 169.618363 190.917656 
L 178.402306 190.917656 
L 178.402306 189.096967 
L 169.618363 189.096967 
z
" clip-path="url(#p03272c7579)" style="fill: #ef5350; opacity: 0.4"/>
   </g>
   <g id="patch_31">
    <path d="M 28.196875 190.917656 
L 28.196875 24.597656 
" style="fill: none"/>
   </g>
   <g id="patch_32">
    <path d="M 434.015057 190.917656 
L 434.015057 24.597656 
" style="fill: none"/>
   </g>
   <g id="patch_33">
    <path d="M 28.196875 190.917656 
L 434.015057 190.917656 
" style="fill: none"/>
   </g>
   <g id="patch_34">
    <path d="M 28.196875 24.597656 
L 434.015057 24.597656 
" style="fill: none"/>
   </g>
   <g id="text_15">
    <!-- PyTorch -->
    <g style="fill: #838383" transform="translate(202.45831 18.597656) scale(0.15 -0.15)">
     <defs>
      <path id="DejaVuSans-50" d="M 1259 4147 
L 1259 2394 
L 2053 2394 
Q 2494 2394 2734 2622 
Q 2975 2850 2975 3272 
Q 2975 3691 2734 3919 
Q 2494 4147 2053 4147 
L 1259 4147 
z
M 628 4666 
L 2053 4666 
Q 2838 4666 3239 4311 
Q 3641 3956 3641 3272 
Q 3641 2581 3239 2228 
Q 2838 1875 2053 1875 
L 1259 1875 
L 1259 0 
L 628 0 
L 628 4666 
z
" transform="scale(0.015625)"/>
      <path id="DejaVuSans-79" d="M 2059 -325 
Q 1816 -950 1584 -1140 
Q 1353 -1331 966 -1331 
L 506 -1331 
L 506 -850 
L 844 -850 
Q 1081 -850 1212 -737 
Q 1344 -625 1503 -206 
L 1606 56 
L 191 3500 
L 800 3500 
L 1894 763 
L 2988 3500 
L 3597 3500 
L 2059 -325 
z
" transform="scale(0.015625)"/>
      <path id="DejaVuSans-54" d="M -19 4666 
L 3928 4666 
L 3928 4134 
L 2272 4134 
L 2272 0 
L 1638 0 
L 1638 4134 
L -19 4134 
L -19 4666 
z
" transform="scale(0.015625)"/>
      <path id="DejaVuSans-68" d="M 3513 2113 
L 3513 0 
L 2938 0 
L 2938 2094 
Q 2938 2591 2744 2837 
Q 2550 3084 2163 3084 
Q 1697 3084 1428 2787 
Q 1159 2491 1159 1978 
L 1159 0 
L 581 0 
L 581 4863 
L 1159 4863 
L 1159 2956 
Q 1366 3272 1645 3428 
Q 1925 3584 2291 3584 
Q 2894 3584 3203 3211 
Q 3513 2838 3513 2113 
z
" transform="scale(0.015625)"/>
     </defs>
     <use xlink:href="#DejaVuSans-50"/>
     <use xlink:href="#DejaVuSans-79" x="60.302734"/>
     <use xlink:href="#DejaVuSans-54" x="119.482422"/>
     <use xlink:href="#DejaVuSans-6f" x="163.566406"/>
     <use xlink:href="#DejaVuSans-72" x="224.748047"/>
     <use xlink:href="#DejaVuSans-63" x="263.611328"/>
     <use xlink:href="#DejaVuSans-68" x="318.591797"/>
    </g>
   </g>
   <g id="legend_1">
    <g id="patch_35">
     <path d="M 351.334588 47.420508 
L 378.834588 47.420508 
L 378.834588 37.795508 
L 351.334588 37.795508 
z
" style="fill: #2196f3; opacity: 0.4"/>
    </g>
    <g id="text_16">
     <!-- Eval -->
     <g style="fill: #838383" transform="translate(389.834588 47.420508) scale(0.1375 -0.1375)">
      <defs>
       <path id="DejaVuSans-45" d="M 628 4666 
L 3578 4666 
L 3578 4134 
L 1259 4134 
L 1259 2753 
L 3481 2753 
L 3481 2222 
L 1259 2222 
L 1259 531 
L 3634 531 
L 3634 0 
L 628 0 
L 628 4666 
z
" transform="scale(0.015625)"/>
      </defs>
      <use xlink:href="#DejaVuSans-45"/>
      <use xlink:href="#DejaVuSans-76" x="63.183594"/>
      <use xlink:href="#DejaVuSans-61" x="122.363281"/>
      <use xlink:href="#DejaVuSans-6c" x="183.642578"/>
     </g>
    </g>
    <g id="patch_36">
     <path d="M 351.334588 67.60293 
L 378.834588 67.60293 
L 378.834588 57.97793 
L 351.334588 57.97793 
z
" style="fill: #ef5350; opacity: 0.4"/>
    </g>
    <g id="text_17">
     <!-- HMC -->
     <g style="fill: #838383" transform="translate(389.834588 67.60293) scale(0.1375 -0.1375)">
      <defs>
       <path id="DejaVuSans-48" d="M 628 4666 
L 1259 4666 
L 1259 2753 
L 3553 2753 
L 3553 4666 
L 4184 4666 
L 4184 0 
L 3553 0 
L 3553 2222 
L 1259 2222 
L 1259 0 
L 628 0 
L 628 4666 
z
" transform="scale(0.015625)"/>
       <path id="DejaVuSans-4d" d="M 628 4666 
L 1569 4666 
L 2759 1491 
L 3956 4666 
L 4897 4666 
L 4897 0 
L 4281 0 
L 4281 4097 
L 3078 897 
L 2444 897 
L 1241 4097 
L 1241 0 
L 628 0 
L 628 4666 
z
" transform="scale(0.015625)"/>
       <path id="DejaVuSans-43" d="M 4122 4306 
L 4122 3641 
Q 3803 3938 3442 4084 
Q 3081 4231 2675 4231 
Q 1875 4231 1450 3742 
Q 1025 3253 1025 2328 
Q 1025 1406 1450 917 
Q 1875 428 2675 428 
Q 3081 428 3442 575 
Q 3803 722 4122 1019 
L 4122 359 
Q 3791 134 3420 21 
Q 3050 -91 2638 -91 
Q 1578 -91 968 557 
Q 359 1206 359 2328 
Q 359 3453 968 4101 
Q 1578 4750 2638 4750 
Q 3056 4750 3426 4639 
Q 3797 4528 4122 4306 
z
" transform="scale(0.015625)"/>
      </defs>
      <use xlink:href="#DejaVuSans-48"/>
      <use xlink:href="#DejaVuSans-4d" x="75.195312"/>
      <use xlink:href="#DejaVuSans-43" x="161.474609"/>
     </g>
    </g>
   </g>
  </g>
  <g id="axes_2">
   <g id="patch_37">
    <path d="M 515.178693 190.917656 
L 920.996875 190.917656 
L 920.996875 24.597656 
L 515.178693 24.597656 
L 515.178693 190.917656 
z
" style="fill: none"/>
   </g>
   <g id="matplotlib.axis_3">
    <g id="xtick_9">
     <g id="text_18">
      <!-- 0 -->
      <g style="fill: #838383" transform="translate(529.250755 204.865508) scale(0.1375 -0.1375)">
       <use xlink:href="#DejaVuSans-30"/>
      </g>
     </g>
    </g>
    <g id="xtick_10">
     <g id="text_19">
      <!-- 2 -->
      <g style="fill: #838383" transform="translate(581.954415 204.865508) scale(0.1375 -0.1375)">
       <use xlink:href="#DejaVuSans-32"/>
      </g>
     </g>
    </g>
    <g id="xtick_11">
     <g id="text_20">
      <!-- 4 -->
      <g style="fill: #838383" transform="translate(634.658075 204.865508) scale(0.1375 -0.1375)">
       <use xlink:href="#DejaVuSans-34"/>
      </g>
     </g>
    </g>
    <g id="xtick_12">
     <g id="text_21">
      <!-- 6 -->
      <g style="fill: #838383" transform="translate(687.361735 204.865508) scale(0.1375 -0.1375)">
       <use xlink:href="#DejaVuSans-36"/>
      </g>
     </g>
    </g>
    <g id="xtick_13">
     <g id="text_22">
      <!-- 8 -->
      <g style="fill: #838383" transform="translate(740.065395 204.865508) scale(0.1375 -0.1375)">
       <use xlink:href="#DejaVuSans-38"/>
      </g>
     </g>
    </g>
    <g id="xtick_14">
     <g id="text_23">
      <!-- 10 -->
      <g style="fill: #838383" transform="translate(788.394837 204.865508) scale(0.1375 -0.1375)">
       <use xlink:href="#DejaVuSans-31"/>
       <use xlink:href="#DejaVuSans-30" x="63.623047"/>
      </g>
     </g>
    </g>
    <g id="xtick_15">
     <g id="text_24">
      <!-- 12 -->
      <g style="fill: #838383" transform="translate(841.098497 204.865508) scale(0.1375 -0.1375)">
       <use xlink:href="#DejaVuSans-31"/>
       <use xlink:href="#DejaVuSans-32" x="63.623047"/>
      </g>
     </g>
    </g>
    <g id="xtick_16">
     <g id="text_25">
      <!-- 14 -->
      <g style="fill: #838383" transform="translate(893.802157 204.865508) scale(0.1375 -0.1375)">
       <use xlink:href="#DejaVuSans-31"/>
       <use xlink:href="#DejaVuSans-34" x="63.623047"/>
      </g>
     </g>
    </g>
    <g id="text_26">
     <!-- $\sum_{i=0} \left|\delta Q_{i}\right|$ -->
     <g style="fill: #838383" transform="translate(690.037784 227.025078) scale(0.15 -0.15)">
      <defs>
       <path id="DejaVuSansDisplay-2211" d="M 244 6509 
L 5803 6509 
L 5803 5656 
L 1566 5656 
L 4534 2488 
L 1469 -888 
L 5919 -888 
L 5919 -1738 
L 109 -1738 
L 109 -1078 
L 3316 2463 
L 244 5728 
L 244 6509 
z
" transform="scale(0.015625)"/>
       <path id="DejaVuSans-Oblique-69" d="M 1172 4863 
L 1747 4863 
L 1606 4134 
L 1031 4134 
L 1172 4863 
z
M 909 3500 
L 1484 3500 
L 800 0 
L 225 0 
L 909 3500 
z
" transform="scale(0.015625)"/>
       <path id="DejaVuSans-3d" d="M 678 2906 
L 4684 2906 
L 4684 2381 
L 678 2381 
L 678 2906 
z
M 678 1631 
L 4684 1631 
L 4684 1100 
L 678 1100 
L 678 1631 
z
" transform="scale(0.015625)"/>
       <path id="DejaVuSans-7c" d="M 1344 4891 
L 1344 -1509 
L 813 -1509 
L 813 4891 
L 1344 4891 
z
" transform="scale(0.015625)"/>
       <path id="DejaVuSans-Oblique-3b4" d="M 3472 4053 
Q 3197 4272 2450 4272 
Q 1659 4272 1588 3906 
Q 1531 3619 2328 3469 
Q 2953 3353 3253 3003 
Q 3616 2581 3447 1716 
Q 3284 888 2763 400 
Q 2238 -91 1488 -91 
Q 741 -91 406 400 
Q 72 888 241 1747 
Q 363 2384 891 2900 
Q 1097 3100 1353 3213 
Q 913 3459 1000 3900 
Q 1166 4750 2544 4750 
Q 3234 4750 3566 4531 
L 3472 4053 
z
M 1753 3056 
Q 1525 2966 1306 2738 
Q 969 2384 847 1747 
Q 722 1113 919 756 
Q 1119 397 1584 397 
Q 2044 397 2381 759 
Q 2722 1122 2838 1716 
Q 2956 2338 2731 2638 
Q 2491 2959 2103 2994 
Q 1906 3013 1753 3056 
z
" transform="scale(0.015625)"/>
       <path id="DejaVuSans-Oblique-51" d="M 2309 -84 
Q 2275 -88 2237 -89 
Q 2200 -91 2125 -91 
Q 1250 -91 756 411 
Q 263 913 263 1797 
Q 263 2319 452 2844 
Q 641 3369 978 3788 
Q 1369 4269 1858 4509 
Q 2347 4750 2938 4750 
Q 3794 4750 4287 4245 
Q 4781 3741 4781 2869 
Q 4781 1928 4265 1147 
Q 3750 366 2919 44 
L 3553 -825 
L 2847 -825 
L 2309 -84 
z
M 2919 4238 
Q 2400 4238 2003 3986 
Q 1606 3734 1313 3219 
Q 1125 2891 1026 2522 
Q 928 2153 928 1778 
Q 928 1128 1239 775 
Q 1550 422 2119 422 
Q 2631 422 3032 676 
Q 3434 931 3719 1434 
Q 3909 1772 4009 2142 
Q 4109 2513 4109 2881 
Q 4109 3528 3796 3883 
Q 3484 4238 2919 4238 
z
" transform="scale(0.015625)"/>
      </defs>
      <use xlink:href="#DejaVuSansDisplay-2211" transform="translate(30 0.296875)"/>
      <use xlink:href="#DejaVuSans-Oblique-69" transform="translate(0 -98.798438) scale(0.7)"/>
      <use xlink:href="#DejaVuSans-3d" transform="translate(33.085938 -98.798438) scale(0.7)"/>
      <use xlink:href="#DejaVuSans-30" transform="translate(105.375977 -98.798438) scale(0.7)"/>
      <use xlink:href="#DejaVuSans-7c" transform="translate(149.912109 5.359375) scale(0.90625)"/>
      <use xlink:href="#DejaVuSans-Oblique-3b4" transform="translate(180.444946 0.296875)"/>
      <use xlink:href="#DejaVuSans-Oblique-51" transform="translate(241.626587 0.296875)"/>
      <use xlink:href="#DejaVuSans-Oblique-69" transform="translate(320.337524 -16.109375) scale(0.7)"/>
      <use xlink:href="#DejaVuSans-7c" transform="translate(342.520142 5.359375) scale(0.90625)"/>
     </g>
    </g>
   </g>
   <g id="matplotlib.axis_4">
    <g id="ytick_6">
     <g id="text_27">
      <!-- 0 -->
      <g style="fill: #838383" transform="translate(502.930256 196.141582) scale(0.1375 -0.1375)">
       <use xlink:href="#DejaVuSans-30"/>
      </g>
     </g>
    </g>
    <g id="ytick_7">
     <g id="text_28">
      <!-- 20 -->
      <g style="fill: #838383" transform="translate(494.181818 160.141582) scale(0.1375 -0.1375)">
       <use xlink:href="#DejaVuSans-32"/>
       <use xlink:href="#DejaVuSans-30" x="63.623047"/>
      </g>
     </g>
    </g>
    <g id="ytick_8">
     <g id="text_29">
      <!-- 40 -->
      <g style="fill: #838383" transform="translate(494.181818 124.141582) scale(0.1375 -0.1375)">
       <use xlink:href="#DejaVuSans-34"/>
       <use xlink:href="#DejaVuSans-30" x="63.623047"/>
      </g>
     </g>
    </g>
    <g id="ytick_9">
     <g id="text_30">
      <!-- 60 -->
      <g style="fill: #838383" transform="translate(494.181818 88.141582) scale(0.1375 -0.1375)">
       <use xlink:href="#DejaVuSans-36"/>
       <use xlink:href="#DejaVuSans-30" x="63.623047"/>
      </g>
     </g>
    </g>
    <g id="ytick_10">
     <g id="text_31">
      <!-- 80 -->
      <g style="fill: #838383" transform="translate(494.181818 52.141582) scale(0.1375 -0.1375)">
       <use xlink:href="#DejaVuSans-38"/>
       <use xlink:href="#DejaVuSans-30" x="63.623047"/>
      </g>
     </g>
    </g>
   </g>
   <g id="patch_38">
    <path d="M 559.976804 190.917656 
L 586.328634 190.917656 
L 586.328634 189.117656 
L 559.976804 189.117656 
z
" clip-path="url(#p1d3a0c27f9)" style="fill: #2196f3; opacity: 0.4"/>
   </g>
   <g id="patch_39">
    <path d="M 586.328634 190.917656 
L 612.680464 190.917656 
L 612.680464 178.317656 
L 586.328634 178.317656 
z
" clip-path="url(#p1d3a0c27f9)" style="fill: #2196f3; opacity: 0.4"/>
   </g>
   <g id="patch_40">
    <path d="M 612.680464 190.917656 
L 639.032294 190.917656 
L 639.032294 163.917656 
L 612.680464 163.917656 
z
" clip-path="url(#p1d3a0c27f9)" style="fill: #2196f3; opacity: 0.4"/>
   </g>
   <g id="patch_41">
    <path d="M 639.032294 190.917656 
L 665.384124 190.917656 
L 665.384124 147.717656 
L 639.032294 147.717656 
z
" clip-path="url(#p1d3a0c27f9)" style="fill: #2196f3; opacity: 0.4"/>
   </g>
   <g id="patch_42">
    <path d="M 665.384124 190.917656 
L 691.735954 190.917656 
L 691.735954 145.917656 
L 665.384124 145.917656 
z
" clip-path="url(#p1d3a0c27f9)" style="fill: #2196f3; opacity: 0.4"/>
   </g>
   <g id="patch_43">
    <path d="M 691.735954 190.917656 
L 718.087784 190.917656 
L 718.087784 144.117656 
L 691.735954 144.117656 
z
" clip-path="url(#p1d3a0c27f9)" style="fill: #2196f3; opacity: 0.4"/>
   </g>
   <g id="patch_44">
    <path d="M 718.087784 190.917656 
L 744.439614 190.917656 
L 744.439614 111.717656 
L 718.087784 111.717656 
z
" clip-path="url(#p1d3a0c27f9)" style="fill: #2196f3; opacity: 0.4"/>
   </g>
   <g id="patch_45">
    <path d="M 744.439614 190.917656 
L 770.791444 190.917656 
L 770.791444 158.517656 
L 744.439614 158.517656 
z
" clip-path="url(#p1d3a0c27f9)" style="fill: #2196f3; opacity: 0.4"/>
   </g>
   <g id="patch_46">
    <path d="M 770.791444 190.917656 
L 797.143274 190.917656 
L 797.143274 163.917656 
L 770.791444 163.917656 
z
" clip-path="url(#p1d3a0c27f9)" style="fill: #2196f3; opacity: 0.4"/>
   </g>
   <g id="patch_47">
    <path d="M 797.143274 190.917656 
L 823.495104 190.917656 
L 823.495104 165.717656 
L 797.143274 165.717656 
z
" clip-path="url(#p1d3a0c27f9)" style="fill: #2196f3; opacity: 0.4"/>
   </g>
   <g id="patch_48">
    <path d="M 823.495104 190.917656 
L 849.846934 190.917656 
L 849.846934 183.717656 
L 823.495104 183.717656 
z
" clip-path="url(#p1d3a0c27f9)" style="fill: #2196f3; opacity: 0.4"/>
   </g>
   <g id="patch_49">
    <path d="M 849.846934 190.917656 
L 876.198764 190.917656 
L 876.198764 189.117656 
L 849.846934 189.117656 
z
" clip-path="url(#p1d3a0c27f9)" style="fill: #2196f3; opacity: 0.4"/>
   </g>
   <g id="patch_50">
    <path d="M 876.198764 190.917656 
L 902.550594 190.917656 
L 902.550594 189.117656 
L 876.198764 189.117656 
z
" clip-path="url(#p1d3a0c27f9)" style="fill: #2196f3; opacity: 0.4"/>
   </g>
   <g id="patch_51">
    <path d="M 533.624974 190.917656 
L 542.408918 190.917656 
L 542.408918 32.517656 
L 533.624974 32.517656 
z
" clip-path="url(#p1d3a0c27f9)" style="fill: #ef5350; opacity: 0.4"/>
   </g>
   <g id="patch_52">
    <path d="M 542.408918 190.917656 
L 551.192861 190.917656 
L 551.192861 190.917656 
L 542.408918 190.917656 
z
" clip-path="url(#p1d3a0c27f9)" style="fill: #ef5350; opacity: 0.4"/>
   </g>
   <g id="patch_53">
    <path d="M 551.192861 190.917656 
L 559.976804 190.917656 
L 559.976804 190.917656 
L 551.192861 190.917656 
z
" clip-path="url(#p1d3a0c27f9)" style="fill: #ef5350; opacity: 0.4"/>
   </g>
   <g id="patch_54">
    <path d="M 559.976804 190.917656 
L 568.760747 190.917656 
L 568.760747 75.717656 
L 559.976804 75.717656 
z
" clip-path="url(#p1d3a0c27f9)" style="fill: #ef5350; opacity: 0.4"/>
   </g>
   <g id="patch_55">
    <path d="M 568.760747 190.917656 
L 577.544691 190.917656 
L 577.544691 190.917656 
L 568.760747 190.917656 
z
" clip-path="url(#p1d3a0c27f9)" style="fill: #ef5350; opacity: 0.4"/>
   </g>
   <g id="patch_56">
    <path d="M 577.544691 190.917656 
L 586.328634 190.917656 
L 586.328634 190.917656 
L 577.544691 190.917656 
z
" clip-path="url(#p1d3a0c27f9)" style="fill: #ef5350; opacity: 0.4"/>
   </g>
   <g id="patch_57">
    <path d="M 586.328634 190.917656 
L 595.112577 190.917656 
L 595.112577 136.917656 
L 586.328634 136.917656 
z
" clip-path="url(#p1d3a0c27f9)" style="fill: #ef5350; opacity: 0.4"/>
   </g>
   <g id="patch_58">
    <path d="M 595.112577 190.917656 
L 603.896521 190.917656 
L 603.896521 190.917656 
L 595.112577 190.917656 
z
" clip-path="url(#p1d3a0c27f9)" style="fill: #ef5350; opacity: 0.4"/>
   </g>
   <g id="patch_59">
    <path d="M 603.896521 190.917656 
L 612.680464 190.917656 
L 612.680464 190.917656 
L 603.896521 190.917656 
z
" clip-path="url(#p1d3a0c27f9)" style="fill: #ef5350; opacity: 0.4"/>
   </g>
   <g id="patch_60">
    <path d="M 612.680464 190.917656 
L 621.464407 190.917656 
L 621.464407 172.917656 
L 612.680464 172.917656 
z
" clip-path="url(#p1d3a0c27f9)" style="fill: #ef5350; opacity: 0.4"/>
   </g>
   <g id="patch_61">
    <path d="M 621.464407 190.917656 
L 630.248351 190.917656 
L 630.248351 190.917656 
L 621.464407 190.917656 
z
" clip-path="url(#p1d3a0c27f9)" style="fill: #ef5350; opacity: 0.4"/>
   </g>
   <g id="patch_62">
    <path d="M 630.248351 190.917656 
L 639.032294 190.917656 
L 639.032294 190.917656 
L 630.248351 190.917656 
z
" clip-path="url(#p1d3a0c27f9)" style="fill: #ef5350; opacity: 0.4"/>
   </g>
   <g id="patch_63">
    <path d="M 639.032294 190.917656 
L 647.816237 190.917656 
L 647.816237 187.317656 
L 639.032294 187.317656 
z
" clip-path="url(#p1d3a0c27f9)" style="fill: #ef5350; opacity: 0.4"/>
   </g>
   <g id="patch_64">
    <path d="M 647.816237 190.917656 
L 656.600181 190.917656 
L 656.600181 190.917656 
L 647.816237 190.917656 
z
" clip-path="url(#p1d3a0c27f9)" style="fill: #ef5350; opacity: 0.4"/>
   </g>
   <g id="patch_65">
    <path d="M 656.600181 190.917656 
L 665.384124 190.917656 
L 665.384124 189.117656 
L 656.600181 189.117656 
z
" clip-path="url(#p1d3a0c27f9)" style="fill: #ef5350; opacity: 0.4"/>
   </g>
   <g id="patch_66">
    <path d="M 515.178693 190.917656 
L 515.178693 24.597656 
" style="fill: none"/>
   </g>
   <g id="patch_67">
    <path d="M 920.996875 190.917656 
L 920.996875 24.597656 
" style="fill: none"/>
   </g>
   <g id="patch_68">
    <path d="M 515.178693 190.917656 
L 920.996875 190.917656 
" style="fill: none"/>
   </g>
   <g id="patch_69">
    <path d="M 515.178693 24.597656 
L 920.996875 24.597656 
" style="fill: none"/>
   </g>
   <g id="text_32">
    <!-- TensorFlow -->
    <g style="fill: #838383" transform="translate(676.714737 18.597656) scale(0.15 -0.15)">
     <defs>
      <path id="DejaVuSans-46" d="M 628 4666 
L 3309 4666 
L 3309 4134 
L 1259 4134 
L 1259 2759 
L 3109 2759 
L 3109 2228 
L 1259 2228 
L 1259 0 
L 628 0 
L 628 4666 
z
" transform="scale(0.015625)"/>
      <path id="DejaVuSans-77" d="M 269 3500 
L 844 3500 
L 1563 769 
L 2278 3500 
L 2956 3500 
L 3675 769 
L 4391 3500 
L 4966 3500 
L 4050 0 
L 3372 0 
L 2619 2869 
L 1863 0 
L 1184 0 
L 269 3500 
z
" transform="scale(0.015625)"/>
     </defs>
     <use xlink:href="#DejaVuSans-54"/>
     <use xlink:href="#DejaVuSans-65" x="44.083984"/>
     <use xlink:href="#DejaVuSans-6e" x="105.607422"/>
     <use xlink:href="#DejaVuSans-73" x="168.986328"/>
     <use xlink:href="#DejaVuSans-6f" x="221.085938"/>
     <use xlink:href="#DejaVuSans-72" x="282.267578"/>
     <use xlink:href="#DejaVuSans-46" x="323.380859"/>
     <use xlink:href="#DejaVuSans-6c" x="380.900391"/>
     <use xlink:href="#DejaVuSans-6f" x="408.683594"/>
     <use xlink:href="#DejaVuSans-77" x="469.865234"/>
    </g>
   </g>
   <g id="legend_2">
    <g id="patch_70">
     <path d="M 838.316406 47.420508 
L 865.816406 47.420508 
L 865.816406 37.795508 
L 838.316406 37.795508 
z
" style="fill: #2196f3; opacity: 0.4"/>
    </g>
    <g id="text_33">
     <!-- Eval -->
     <g style="fill: #838383" transform="translate(876.816406 47.420508) scale(0.1375 -0.1375)">
      <use xlink:href="#DejaVuSans-45"/>
      <use xlink:href="#DejaVuSans-76" x="63.183594"/>
      <use xlink:href="#DejaVuSans-61" x="122.363281"/>
      <use xlink:href="#DejaVuSans-6c" x="183.642578"/>
     </g>
    </g>
    <g id="patch_71">
     <path d="M 838.316406 67.60293 
L 865.816406 67.60293 
L 865.816406 57.97793 
L 838.316406 57.97793 
z
" style="fill: #ef5350; opacity: 0.4"/>
    </g>
    <g id="text_34">
     <!-- HMC -->
     <g style="fill: #838383" transform="translate(876.816406 67.60293) scale(0.1375 -0.1375)">
      <use xlink:href="#DejaVuSans-48"/>
      <use xlink:href="#DejaVuSans-4d" x="75.195312"/>
      <use xlink:href="#DejaVuSans-43" x="161.474609"/>
     </g>
    </g>
   </g>
  </g>
 </g>
 <defs>
  <clipPath id="p03272c7579">
   <rect x="28.196875" y="24.597656" width="405.818182" height="166.32"/>
  </clipPath>
  <clipPath id="p1d3a0c27f9">
   <rect x="515.178693" y="24.597656" width="405.818182" height="166.32"/>
  </clipPath>
 </defs>
</svg>
