<?xml version="1.0" encoding="utf-8" standalone="no"?>
<!DOCTYPE svg PUBLIC "-//W3C//DTD SVG 1.1//EN"
  "http://www.w3.org/Graphics/SVG/1.1/DTD/svg11.dtd">
<svg xmlns:xlink="http://www.w3.org/1999/xlink" width="313.528897pt" height="234.534474pt" viewBox="0 0 313.528897 234.534474" xmlns="http://www.w3.org/2000/svg" version="1.1">
 <metadata>
  <rdf:RDF xmlns:dc="http://purl.org/dc/elements/1.1/" xmlns:cc="http://creativecommons.org/ns#" xmlns:rdf="http://www.w3.org/1999/02/22-rdf-syntax-ns#">
   <cc:Work>
    <dc:type rdf:resource="http://purl.org/dc/dcmitype/StillImage"/>
    <dc:date>2023-12-05T11:41:53.358294</dc:date>
    <dc:format>image/svg+xml</dc:format>
    <dc:creator>
     <cc:Agent>
      <dc:title>Matplotlib v3.8.2, https://matplotlib.org/</dc:title>
     </cc:Agent>
    </dc:creator>
   </cc:Work>
  </rdf:RDF>
 </metadata>
 <defs>
  <style type="text/css">*{stroke-linejoin: round; stroke-linecap: butt}</style>
 </defs>
 <g id="figure_1">
  <g id="patch_1">
   <path d="M 0 234.534474 
L 313.528897 234.534474 
L 313.528897 0 
L 0 0 
L 0 234.534474 
z
" style="fill: none"/>
  </g>
  <g id="axes_1">
   <g id="patch_2">
    <path d="M 37.965625 192.009865 
L 304.341715 192.009865 
L 304.341715 28.442513 
L 37.965625 28.442513 
L 37.965625 192.009865 
z
" style="fill: none"/>
   </g>
   <g id="matplotlib.axis_1">
    <g id="xtick_1">
     <g id="text_1">
      <!-- 0 -->
      <g style="fill: #838383" transform="translate(45.69941 205.957716) scale(0.1375 -0.1375)">
       <defs>
        <path id="DejaVuSans-30" d="M 2034 4250 
Q 1547 4250 1301 3770 
Q 1056 3291 1056 2328 
Q 1056 1369 1301 889 
Q 1547 409 2034 409 
Q 2525 409 2770 889 
Q 3016 1369 3016 2328 
Q 3016 3291 2770 3770 
Q 2525 4250 2034 4250 
z
M 2034 4750 
Q 2819 4750 3233 4129 
Q 3647 3509 3647 2328 
Q 3647 1150 3233 529 
Q 2819 -91 2034 -91 
Q 1250 -91 836 529 
Q 422 1150 422 2328 
Q 422 3509 836 4129 
Q 1250 4750 2034 4750 
z
" transform="scale(0.015625)"/>
       </defs>
       <use xlink:href="#DejaVuSans-30"/>
      </g>
     </g>
    </g>
    <g id="xtick_2">
     <g id="text_2">
      <!-- 50 -->
      <g style="fill: #838383" transform="translate(89.951714 205.957716) scale(0.1375 -0.1375)">
       <defs>
        <path id="DejaVuSans-35" d="M 691 4666 
L 3169 4666 
L 3169 4134 
L 1269 4134 
L 1269 2991 
Q 1406 3038 1543 3061 
Q 1681 3084 1819 3084 
Q 2600 3084 3056 2656 
Q 3513 2228 3513 1497 
Q 3513 744 3044 326 
Q 2575 -91 1722 -91 
Q 1428 -91 1123 -41 
Q 819 9 494 109 
L 494 744 
Q 775 591 1075 516 
Q 1375 441 1709 441 
Q 2250 441 2565 725 
Q 2881 1009 2881 1497 
Q 2881 1984 2565 2268 
Q 2250 2553 1709 2553 
Q 1456 2553 1204 2497 
Q 953 2441 691 2322 
L 691 4666 
z
" transform="scale(0.015625)"/>
       </defs>
       <use xlink:href="#DejaVuSans-35"/>
       <use xlink:href="#DejaVuSans-30" x="63.623047"/>
      </g>
     </g>
    </g>
    <g id="xtick_3">
     <g id="text_3">
      <!-- 100 -->
      <g style="fill: #838383" transform="translate(134.204018 205.957716) scale(0.1375 -0.1375)">
       <defs>
        <path id="DejaVuSans-31" d="M 794 531 
L 1825 531 
L 1825 4091 
L 703 3866 
L 703 4441 
L 1819 4666 
L 2450 4666 
L 2450 531 
L 3481 531 
L 3481 0 
L 794 0 
L 794 531 
z
" transform="scale(0.015625)"/>
       </defs>
       <use xlink:href="#DejaVuSans-31"/>
       <use xlink:href="#DejaVuSans-30" x="63.623047"/>
       <use xlink:href="#DejaVuSans-30" x="127.246094"/>
      </g>
     </g>
    </g>
    <g id="xtick_4">
     <g id="text_4">
      <!-- 150 -->
      <g style="fill: #838383" transform="translate(182.83054 205.957716) scale(0.1375 -0.1375)">
       <use xlink:href="#DejaVuSans-31"/>
       <use xlink:href="#DejaVuSans-35" x="63.623047"/>
       <use xlink:href="#DejaVuSans-30" x="127.246094"/>
      </g>
     </g>
    </g>
    <g id="xtick_5">
     <g id="text_5">
      <!-- 200 -->
      <g style="fill: #838383" transform="translate(231.457062 205.957716) scale(0.1375 -0.1375)">
       <defs>
        <path id="DejaVuSans-32" d="M 1228 531 
L 3431 531 
L 3431 0 
L 469 0 
L 469 531 
Q 828 903 1448 1529 
Q 2069 2156 2228 2338 
Q 2531 2678 2651 2914 
Q 2772 3150 2772 3378 
Q 2772 3750 2511 3984 
Q 2250 4219 1831 4219 
Q 1534 4219 1204 4116 
Q 875 4013 500 3803 
L 500 4441 
Q 881 4594 1212 4672 
Q 1544 4750 1819 4750 
Q 2544 4750 2975 4387 
Q 3406 4025 3406 3419 
Q 3406 3131 3298 2873 
Q 3191 2616 2906 2266 
Q 2828 2175 2409 1742 
Q 1991 1309 1228 531 
z
" transform="scale(0.015625)"/>
       </defs>
       <use xlink:href="#DejaVuSans-32"/>
       <use xlink:href="#DejaVuSans-30" x="63.623047"/>
       <use xlink:href="#DejaVuSans-30" x="127.246094"/>
      </g>
     </g>
    </g>
    <g id="xtick_6">
     <g id="text_6">
      <!-- 250 -->
      <g style="fill: #838383" transform="translate(280.083585 205.957716) scale(0.1375 -0.1375)">
       <use xlink:href="#DejaVuSans-32"/>
       <use xlink:href="#DejaVuSans-35" x="63.623047"/>
       <use xlink:href="#DejaVuSans-30" x="127.246094"/>
      </g>
     </g>
    </g>
    <g id="text_7">
     <!-- draw -->
     <g style="fill: #838383" transform="translate(152.579451 224.214943) scale(0.15 -0.15)">
      <defs>
       <path id="DejaVuSans-64" d="M 2906 2969 
L 2906 4863 
L 3481 4863 
L 3481 0 
L 2906 0 
L 2906 525 
Q 2725 213 2448 61 
Q 2172 -91 1784 -91 
Q 1150 -91 751 415 
Q 353 922 353 1747 
Q 353 2572 751 3078 
Q 1150 3584 1784 3584 
Q 2172 3584 2448 3432 
Q 2725 3281 2906 2969 
z
M 947 1747 
Q 947 1113 1208 752 
Q 1469 391 1925 391 
Q 2381 391 2643 752 
Q 2906 1113 2906 1747 
Q 2906 2381 2643 2742 
Q 2381 3103 1925 3103 
Q 1469 3103 1208 2742 
Q 947 2381 947 1747 
z
" transform="scale(0.015625)"/>
       <path id="DejaVuSans-72" d="M 2631 2963 
Q 2534 3019 2420 3045 
Q 2306 3072 2169 3072 
Q 1681 3072 1420 2755 
Q 1159 2438 1159 1844 
L 1159 0 
L 581 0 
L 581 3500 
L 1159 3500 
L 1159 2956 
Q 1341 3275 1631 3429 
Q 1922 3584 2338 3584 
Q 2397 3584 2469 3576 
Q 2541 3569 2628 3553 
L 2631 2963 
z
" transform="scale(0.015625)"/>
       <path id="DejaVuSans-61" d="M 2194 1759 
Q 1497 1759 1228 1600 
Q 959 1441 959 1056 
Q 959 750 1161 570 
Q 1363 391 1709 391 
Q 2188 391 2477 730 
Q 2766 1069 2766 1631 
L 2766 1759 
L 2194 1759 
z
M 3341 1997 
L 3341 0 
L 2766 0 
L 2766 531 
Q 2569 213 2275 61 
Q 1981 -91 1556 -91 
Q 1019 -91 701 211 
Q 384 513 384 1019 
Q 384 1609 779 1909 
Q 1175 2209 1959 2209 
L 2766 2209 
L 2766 2266 
Q 2766 2663 2505 2880 
Q 2244 3097 1772 3097 
Q 1472 3097 1187 3025 
Q 903 2953 641 2809 
L 641 3341 
Q 956 3463 1253 3523 
Q 1550 3584 1831 3584 
Q 2591 3584 2966 3190 
Q 3341 2797 3341 1997 
z
" transform="scale(0.015625)"/>
       <path id="DejaVuSans-77" d="M 269 3500 
L 844 3500 
L 1563 769 
L 2278 3500 
L 2956 3500 
L 3675 769 
L 4391 3500 
L 4966 3500 
L 4050 0 
L 3372 0 
L 2619 2869 
L 1863 0 
L 1184 0 
L 269 3500 
z
" transform="scale(0.015625)"/>
      </defs>
      <use xlink:href="#DejaVuSans-64"/>
      <use xlink:href="#DejaVuSans-72" x="63.476562"/>
      <use xlink:href="#DejaVuSans-61" x="104.589844"/>
      <use xlink:href="#DejaVuSans-77" x="165.869141"/>
     </g>
    </g>
   </g>
   <g id="matplotlib.axis_2">
    <g id="ytick_1">
     <g id="text_8">
      <!-- 0 -->
      <g style="fill: #838383" transform="translate(25.717188 189.798911) scale(0.1375 -0.1375)">
       <use xlink:href="#DejaVuSans-30"/>
      </g>
     </g>
    </g>
    <g id="ytick_2">
     <g id="text_9">
      <!-- 2 -->
      <g style="fill: #838383" transform="translate(25.717188 150.639054) scale(0.1375 -0.1375)">
       <use xlink:href="#DejaVuSans-32"/>
      </g>
     </g>
    </g>
    <g id="ytick_3">
     <g id="text_10">
      <!-- 4 -->
      <g style="fill: #838383" transform="translate(25.717188 111.479197) scale(0.1375 -0.1375)">
       <defs>
        <path id="DejaVuSans-34" d="M 2419 4116 
L 825 1625 
L 2419 1625 
L 2419 4116 
z
M 2253 4666 
L 3047 4666 
L 3047 1625 
L 3713 1625 
L 3713 1100 
L 3047 1100 
L 3047 0 
L 2419 0 
L 2419 1100 
L 313 1100 
L 313 1709 
L 2253 4666 
z
" transform="scale(0.015625)"/>
       </defs>
       <use xlink:href="#DejaVuSans-34"/>
      </g>
     </g>
    </g>
    <g id="ytick_4">
     <g id="text_11">
      <!-- 6 -->
      <g style="fill: #838383" transform="translate(25.717188 72.31934) scale(0.1375 -0.1375)">
       <defs>
        <path id="DejaVuSans-36" d="M 2113 2584 
Q 1688 2584 1439 2293 
Q 1191 2003 1191 1497 
Q 1191 994 1439 701 
Q 1688 409 2113 409 
Q 2538 409 2786 701 
Q 3034 994 3034 1497 
Q 3034 2003 2786 2293 
Q 2538 2584 2113 2584 
z
M 3366 4563 
L 3366 3988 
Q 3128 4100 2886 4159 
Q 2644 4219 2406 4219 
Q 1781 4219 1451 3797 
Q 1122 3375 1075 2522 
Q 1259 2794 1537 2939 
Q 1816 3084 2150 3084 
Q 2853 3084 3261 2657 
Q 3669 2231 3669 1497 
Q 3669 778 3244 343 
Q 2819 -91 2113 -91 
Q 1303 -91 875 529 
Q 447 1150 447 2328 
Q 447 3434 972 4092 
Q 1497 4750 2381 4750 
Q 2619 4750 2861 4703 
Q 3103 4656 3366 4563 
z
" transform="scale(0.015625)"/>
       </defs>
       <use xlink:href="#DejaVuSans-36"/>
      </g>
     </g>
    </g>
    <g id="text_12">
     <!-- sldf -->
     <g style="fill: #838383" transform="translate(18.597656 123.618376) rotate(-90) scale(0.15 -0.15)">
      <defs>
       <path id="DejaVuSans-73" d="M 2834 3397 
L 2834 2853 
Q 2591 2978 2328 3040 
Q 2066 3103 1784 3103 
Q 1356 3103 1142 2972 
Q 928 2841 928 2578 
Q 928 2378 1081 2264 
Q 1234 2150 1697 2047 
L 1894 2003 
Q 2506 1872 2764 1633 
Q 3022 1394 3022 966 
Q 3022 478 2636 193 
Q 2250 -91 1575 -91 
Q 1294 -91 989 -36 
Q 684 19 347 128 
L 347 722 
Q 666 556 975 473 
Q 1284 391 1588 391 
Q 1994 391 2212 530 
Q 2431 669 2431 922 
Q 2431 1156 2273 1281 
Q 2116 1406 1581 1522 
L 1381 1569 
Q 847 1681 609 1914 
Q 372 2147 372 2553 
Q 372 3047 722 3315 
Q 1072 3584 1716 3584 
Q 2034 3584 2315 3537 
Q 2597 3491 2834 3397 
z
" transform="scale(0.015625)"/>
       <path id="DejaVuSans-6c" d="M 603 4863 
L 1178 4863 
L 1178 0 
L 603 0 
L 603 4863 
z
" transform="scale(0.015625)"/>
       <path id="DejaVuSans-66" d="M 2375 4863 
L 2375 4384 
L 1825 4384 
Q 1516 4384 1395 4259 
Q 1275 4134 1275 3809 
L 1275 3500 
L 2222 3500 
L 2222 3053 
L 1275 3053 
L 1275 0 
L 697 0 
L 697 3053 
L 147 3053 
L 147 3500 
L 697 3500 
L 697 3744 
Q 697 4328 969 4595 
Q 1241 4863 1831 4863 
L 2375 4863 
z
" transform="scale(0.015625)"/>
      </defs>
      <use xlink:href="#DejaVuSans-73"/>
      <use xlink:href="#DejaVuSans-6c" x="52.099609"/>
      <use xlink:href="#DejaVuSans-64" x="79.882812"/>
      <use xlink:href="#DejaVuSans-66" x="143.359375"/>
     </g>
    </g>
   </g>
   <g id="line2d_1">
    <path d="M 50.073629 184.574985 
L 292.233711 184.574985 
L 292.233711 184.574985 
" clip-path="url(#p730d36a2ea)" style="fill: none; stroke: #440154; stroke-width: 1.5; stroke-linecap: round"/>
   </g>
   <g id="line2d_2">
    <path d="M 50.073629 180.625747 
L 51.04616 180.449917 
L 52.99122 182.231498 
L 58.826403 180.597552 
L 64.661586 179.499332 
L 68.551708 178.434889 
L 72.441829 177.638816 
L 76.331951 175.606713 
L 80.222073 174.373256 
L 86.057256 172.39718 
L 88.002317 172.169592 
L 90.919908 171.190478 
L 95.78256 170.890991 
L 98.700151 170.997025 
L 102.590273 170.107624 
L 104.535334 171.071208 
L 107.452925 170.613298 
L 110.370517 170.824354 
L 119.123291 169.415874 
L 128.848595 164.635758 
L 131.766187 163.908375 
L 134.683778 162.572181 
L 136.628839 162.589024 
L 139.54643 163.523753 
L 142.464022 162.788068 
L 144.409083 161.792582 
L 148.299204 160.614895 
L 150.244265 160.523575 
L 167.749813 159.235656 
L 179.420179 157.881112 
L 181.36524 157.032485 
L 189.145483 155.909844 
L 213.458744 155.197614 
L 215.403805 155.899072 
L 217.348866 155.38825 
L 224.156579 155.747493 
L 232.909353 154.725466 
L 244.579719 154.361741 
L 247.49731 154.463439 
L 259.167675 154.369992 
L 261.112736 154.090779 
L 262.085267 154.732939 
L 264.030328 153.886573 
L 268.89298 154.64851 
L 272.783102 153.471311 
L 292.233711 153.747609 
L 292.233711 153.747609 
" clip-path="url(#p730d36a2ea)" style="fill: none; stroke: #482878; stroke-width: 1.5; stroke-linecap: round"/>
   </g>
   <g id="line2d_3">
    <path d="M 50.073629 179.335819 
L 51.04616 178.133915 
L 52.99122 180.718392 
L 58.826403 177.962312 
L 62.716525 176.553988 
L 73.41436 171.370133 
L 86.057256 163.453027 
L 88.002317 162.823266 
L 90.919908 160.639095 
L 94.81003 160.281916 
L 98.700151 159.017095 
L 119.123291 148.988916 
L 133.711248 134.781654 
L 140.518961 134.623196 
L 145.381613 130.712219 
L 146.354143 130.950709 
L 151.216796 127.449003 
L 153.161857 126.914693 
L 156.079448 124.538163 
L 158.997039 122.984809 
L 161.914631 120.448953 
L 168.722344 118.242342 
L 174.557526 116.460147 
L 176.502587 115.952333 
L 184.282831 111.149675 
L 187.200422 111.4182 
L 189.145483 110.403852 
L 193.035605 109.833863 
L 201.788379 107.200474 
L 204.70597 107.366709 
L 207.623562 106.580609 
L 209.568623 106.586444 
L 210.541153 106.206797 
L 213.458744 107.683966 
L 215.403805 107.89939 
L 217.348866 107.206197 
L 221.238988 108.475215 
L 228.046701 106.406442 
L 229.991762 105.083885 
L 233.881884 104.850016 
L 235.826945 105.337705 
L 237.772006 104.140494 
L 239.717066 103.63402 
L 244.579719 103.421625 
L 246.52478 103.97254 
L 249.442371 102.843382 
L 251.387432 102.433793 
L 258.195145 102.062427 
L 261.112736 101.808802 
L 263.057797 101.517888 
L 265.002858 101.253835 
L 266.947919 102.412954 
L 273.755632 99.386678 
L 276.673223 99.32166 
L 281.535876 97.533806 
L 287.371058 96.839848 
L 289.316119 95.70294 
L 292.233711 97.531472 
L 292.233711 97.531472 
" clip-path="url(#p730d36a2ea)" style="fill: none; stroke: #3e4989; stroke-width: 1.5; stroke-linecap: round"/>
   </g>
   <g id="line2d_4">
    <path d="M 50.073629 177.547492 
L 51.04616 175.327736 
L 52.99122 178.502891 
L 58.826403 173.585191 
L 60.771464 172.330086 
L 66.606647 165.445678 
L 70.496768 162.233432 
L 91.892438 135.42697 
L 92.864969 136.062623 
L 102.590273 125.581898 
L 104.535334 125.631666 
L 106.480395 123.663484 
L 110.370517 119.352832 
L 116.2057 113.591919 
L 117.17823 113.658464 
L 119.123291 110.687694 
L 126.903534 100.231421 
L 135.656308 92.929645 
L 139.54643 95.345495 
L 142.464022 92.860285 
L 144.409083 91.325468 
L 146.354143 90.008731 
L 157.051978 83.781813 
L 158.024509 83.959513 
L 161.914631 79.617174 
L 178.447648 73.198074 
L 181.36524 69.568161 
L 182.33777 69.623768 
L 184.282831 67.560911 
L 186.227892 68.49377 
L 194.008135 65.423324 
L 196.925727 64.519678 
L 199.843318 61.984761 
L 200.815848 61.522066 
L 203.73344 63.888535 
L 207.623562 61.828375 
L 208.596092 62.896193 
L 210.541153 61.687974 
L 212.486214 64.35321 
L 220.266457 65.614973 
L 222.211518 65.970056 
L 225.12911 64.317712 
L 227.074171 63.582421 
L 231.936823 60.103319 
L 233.881884 61.099965 
L 235.826945 62.010473 
L 237.772006 60.115849 
L 238.744536 60.744396 
L 240.689597 59.432702 
L 242.634658 60.177507 
L 244.579719 59.539735 
L 246.52478 60.888812 
L 248.46984 59.635872 
L 253.332493 58.752888 
L 257.222614 59.76337 
L 259.167675 58.34833 
L 265.002858 58.025196 
L 266.947919 59.88634 
L 269.86551 57.264762 
L 270.838041 55.735575 
L 272.783102 55.723512 
L 274.728163 56.070688 
L 278.618284 54.30499 
L 279.590815 52.984995 
L 281.535876 53.57306 
L 286.398528 52.845864 
L 289.316119 51.084769 
L 291.26118 54.041413 
L 292.233711 54.484446 
L 292.233711 54.484446 
" clip-path="url(#p730d36a2ea)" style="fill: none; stroke: #31688e; stroke-width: 1.5; stroke-linecap: round"/>
   </g>
   <g id="line2d_5">
    <path d="M 50.073629 179.638385 
L 51.04616 175.85246 
L 52.99122 178.333783 
L 58.826403 173.113694 
L 61.743994 170.327139 
L 65.634116 165.755087 
L 69.524238 161.636236 
L 72.441829 157.845918 
L 76.331951 151.176789 
L 77.304482 150.796982 
L 81.194603 145.023259 
L 83.139664 142.644456 
L 86.057256 138.785585 
L 88.002317 136.975754 
L 90.919908 132.285156 
L 94.81003 130.526531 
L 97.727621 126.71866 
L 98.700151 126.784295 
L 103.562804 122.055082 
L 105.507865 121.110477 
L 111.343047 113.068649 
L 115.233169 108.952157 
L 121.068352 100.698607 
L 126.903534 92.378814 
L 132.738717 86.299141 
L 134.683778 84.181907 
L 136.628839 84.719443 
L 139.54643 86.869261 
L 141.491491 84.474745 
L 143.436552 83.751096 
L 148.299204 78.890715 
L 155.106917 75.058285 
L 157.051978 73.560095 
L 158.024509 74.235119 
L 161.914631 69.47263 
L 166.777283 67.280173 
L 167.749813 67.628068 
L 172.612466 64.364581 
L 176.502587 63.864858 
L 184.282831 56.415016 
L 186.227892 57.392167 
L 191.090544 54.579257 
L 194.980666 53.823622 
L 196.925727 52.664065 
L 200.815848 49.785155 
L 203.73344 52.007946 
L 207.623562 49.933063 
L 208.596092 50.717464 
L 210.541153 49.53281 
L 213.458744 52.490313 
L 215.403805 52.652207 
L 217.348866 51.367476 
L 221.238988 53.845964 
L 223.184049 53.499825 
L 226.10164 50.868051 
L 227.074171 51.377093 
L 231.936823 47.296407 
L 232.909353 48.722407 
L 234.854414 48.741902 
L 235.826945 48.968124 
L 237.772006 47.449758 
L 238.744536 47.741157 
L 240.689597 46.582804 
L 242.634658 47.248109 
L 243.607188 45.978447 
L 246.52478 47.679555 
L 248.46984 46.249839 
L 249.442371 46.084061 
L 251.387432 44.828179 
L 252.359962 45.640888 
L 254.305023 45.615689 
L 256.250084 46.11306 
L 257.222614 45.995029 
L 259.167675 44.389273 
L 263.057797 43.794841 
L 264.030328 43.185386 
L 266.947919 46.150555 
L 273.755632 41.011714 
L 275.700693 41.340964 
L 277.645754 40.17193 
L 284.453467 37.743485 
L 288.343589 36.920114 
L 289.316119 35.877393 
L 292.233711 39.319009 
L 292.233711 39.319009 
" clip-path="url(#p730d36a2ea)" style="fill: none; stroke: #26828e; stroke-width: 1.5; stroke-linecap: round"/>
   </g>
   <g id="line2d_6">
    <path d="M 50.073629 184.574985 
L 292.233711 184.574985 
L 292.233711 184.574985 
" clip-path="url(#p730d36a2ea)" style="fill: none; stroke: #1f9e89; stroke-width: 1.5; stroke-linecap: round"/>
   </g>
   <g id="line2d_7">
    <path d="M 50.073629 184.574985 
L 292.233711 184.574985 
L 292.233711 184.574985 
" clip-path="url(#p730d36a2ea)" style="fill: none; stroke: #35b779; stroke-width: 1.5; stroke-linecap: round"/>
   </g>
   <g id="line2d_8">
    <path d="M 50.073629 184.574985 
L 292.233711 184.574985 
L 292.233711 184.574985 
" clip-path="url(#p730d36a2ea)" style="fill: none; stroke: #6ece58; stroke-width: 1.5; stroke-linecap: round"/>
   </g>
   <g id="line2d_9">
    <path d="M 50.073629 184.574985 
L 292.233711 184.574985 
L 292.233711 184.574985 
" clip-path="url(#p730d36a2ea)" style="fill: none; stroke: #b5de2b; stroke-width: 1.5; stroke-linecap: round"/>
   </g>
   <g id="patch_3">
    <path d="M 37.965625 192.009865 
L 37.965625 28.442513 
" style="fill: none"/>
   </g>
   <g id="patch_4">
    <path d="M 304.341715 192.009865 
L 304.341715 28.442513 
" style="fill: none"/>
   </g>
   <g id="patch_5">
    <path d="M 37.965625 192.009865 
L 304.341715 192.009865 
" style="fill: none"/>
   </g>
   <g id="patch_6">
    <path d="M 37.965625 28.442513 
L 304.341715 28.442513 
" style="fill: none"/>
   </g>
  </g>
  <g id="text_13">
   <!-- train: pytorch -->
   <g style="fill: #262626" transform="translate(118.005281 18.14175) scale(0.144 -0.144)">
    <defs>
     <path id="DejaVuSans-74" d="M 1172 4494 
L 1172 3500 
L 2356 3500 
L 2356 3053 
L 1172 3053 
L 1172 1153 
Q 1172 725 1289 603 
Q 1406 481 1766 481 
L 2356 481 
L 2356 0 
L 1766 0 
Q 1100 0 847 248 
Q 594 497 594 1153 
L 594 3053 
L 172 3053 
L 172 3500 
L 594 3500 
L 594 4494 
L 1172 4494 
z
" transform="scale(0.015625)"/>
     <path id="DejaVuSans-69" d="M 603 3500 
L 1178 3500 
L 1178 0 
L 603 0 
L 603 3500 
z
M 603 4863 
L 1178 4863 
L 1178 4134 
L 603 4134 
L 603 4863 
z
" transform="scale(0.015625)"/>
     <path id="DejaVuSans-6e" d="M 3513 2113 
L 3513 0 
L 2938 0 
L 2938 2094 
Q 2938 2591 2744 2837 
Q 2550 3084 2163 3084 
Q 1697 3084 1428 2787 
Q 1159 2491 1159 1978 
L 1159 0 
L 581 0 
L 581 3500 
L 1159 3500 
L 1159 2956 
Q 1366 3272 1645 3428 
Q 1925 3584 2291 3584 
Q 2894 3584 3203 3211 
Q 3513 2838 3513 2113 
z
" transform="scale(0.015625)"/>
     <path id="DejaVuSans-3a" d="M 750 794 
L 1409 794 
L 1409 0 
L 750 0 
L 750 794 
z
M 750 3309 
L 1409 3309 
L 1409 2516 
L 750 2516 
L 750 3309 
z
" transform="scale(0.015625)"/>
     <path id="DejaVuSans-20" transform="scale(0.015625)"/>
     <path id="DejaVuSans-70" d="M 1159 525 
L 1159 -1331 
L 581 -1331 
L 581 3500 
L 1159 3500 
L 1159 2969 
Q 1341 3281 1617 3432 
Q 1894 3584 2278 3584 
Q 2916 3584 3314 3078 
Q 3713 2572 3713 1747 
Q 3713 922 3314 415 
Q 2916 -91 2278 -91 
Q 1894 -91 1617 61 
Q 1341 213 1159 525 
z
M 3116 1747 
Q 3116 2381 2855 2742 
Q 2594 3103 2138 3103 
Q 1681 3103 1420 2742 
Q 1159 2381 1159 1747 
Q 1159 1113 1420 752 
Q 1681 391 2138 391 
Q 2594 391 2855 752 
Q 3116 1113 3116 1747 
z
" transform="scale(0.015625)"/>
     <path id="DejaVuSans-79" d="M 2059 -325 
Q 1816 -950 1584 -1140 
Q 1353 -1331 966 -1331 
L 506 -1331 
L 506 -850 
L 844 -850 
Q 1081 -850 1212 -737 
Q 1344 -625 1503 -206 
L 1606 56 
L 191 3500 
L 800 3500 
L 1894 763 
L 2988 3500 
L 3597 3500 
L 2059 -325 
z
" transform="scale(0.015625)"/>
     <path id="DejaVuSans-6f" d="M 1959 3097 
Q 1497 3097 1228 2736 
Q 959 2375 959 1747 
Q 959 1119 1226 758 
Q 1494 397 1959 397 
Q 2419 397 2687 759 
Q 2956 1122 2956 1747 
Q 2956 2369 2687 2733 
Q 2419 3097 1959 3097 
z
M 1959 3584 
Q 2709 3584 3137 3096 
Q 3566 2609 3566 1747 
Q 3566 888 3137 398 
Q 2709 -91 1959 -91 
Q 1206 -91 779 398 
Q 353 888 353 1747 
Q 353 2609 779 3096 
Q 1206 3584 1959 3584 
z
" transform="scale(0.015625)"/>
     <path id="DejaVuSans-63" d="M 3122 3366 
L 3122 2828 
Q 2878 2963 2633 3030 
Q 2388 3097 2138 3097 
Q 1578 3097 1268 2742 
Q 959 2388 959 1747 
Q 959 1106 1268 751 
Q 1578 397 2138 397 
Q 2388 397 2633 464 
Q 2878 531 3122 666 
L 3122 134 
Q 2881 22 2623 -34 
Q 2366 -91 2075 -91 
Q 1284 -91 818 406 
Q 353 903 353 1747 
Q 353 2603 823 3093 
Q 1294 3584 2113 3584 
Q 2378 3584 2631 3529 
Q 2884 3475 3122 3366 
z
" transform="scale(0.015625)"/>
     <path id="DejaVuSans-68" d="M 3513 2113 
L 3513 0 
L 2938 0 
L 2938 2094 
Q 2938 2591 2744 2837 
Q 2550 3084 2163 3084 
Q 1697 3084 1428 2787 
Q 1159 2491 1159 1978 
L 1159 0 
L 581 0 
L 581 4863 
L 1159 4863 
L 1159 2956 
Q 1366 3272 1645 3428 
Q 1925 3584 2291 3584 
Q 2894 3584 3203 3211 
Q 3513 2838 3513 2113 
z
" transform="scale(0.015625)"/>
    </defs>
    <use xlink:href="#DejaVuSans-74"/>
    <use xlink:href="#DejaVuSans-72" x="39.208984"/>
    <use xlink:href="#DejaVuSans-61" x="80.322266"/>
    <use xlink:href="#DejaVuSans-69" x="141.601562"/>
    <use xlink:href="#DejaVuSans-6e" x="169.384766"/>
    <use xlink:href="#DejaVuSans-3a" x="232.763672"/>
    <use xlink:href="#DejaVuSans-20" x="266.455078"/>
    <use xlink:href="#DejaVuSans-70" x="298.242188"/>
    <use xlink:href="#DejaVuSans-79" x="361.71875"/>
    <use xlink:href="#DejaVuSans-74" x="420.898438"/>
    <use xlink:href="#DejaVuSans-6f" x="460.107422"/>
    <use xlink:href="#DejaVuSans-72" x="521.289062"/>
    <use xlink:href="#DejaVuSans-63" x="560.152344"/>
    <use xlink:href="#DejaVuSans-68" x="615.132812"/>
   </g>
  </g>
 </g>
 <defs>
  <clipPath id="p730d36a2ea">
   <rect x="37.965625" y="28.442513" width="266.37609" height="163.567352"/>
  </clipPath>
 </defs>
</svg>
