<?xml version="1.0" encoding="utf-8" standalone="no"?>
<!DOCTYPE svg PUBLIC "-//W3C//DTD SVG 1.1//EN"
  "http://www.w3.org/Graphics/SVG/1.1/DTD/svg11.dtd">
<svg xmlns:xlink="http://www.w3.org/1999/xlink" width="656.39952pt" height="224.39952pt" viewBox="0 0 656.39952 224.39952" xmlns="http://www.w3.org/2000/svg" version="1.1">
 <metadata>
  <rdf:RDF xmlns:dc="http://purl.org/dc/elements/1.1/" xmlns:cc="http://creativecommons.org/ns#" xmlns:rdf="http://www.w3.org/1999/02/22-rdf-syntax-ns#">
   <cc:Work>
    <dc:type rdf:resource="http://purl.org/dc/dcmitype/StillImage"/>
    <dc:date>2023-12-05T12:04:34.837843</dc:date>
    <dc:format>image/svg+xml</dc:format>
    <dc:creator>
     <cc:Agent>
      <dc:title>Matplotlib v3.8.2, https://matplotlib.org/</dc:title>
     </cc:Agent>
    </dc:creator>
   </cc:Work>
  </rdf:RDF>
 </metadata>
 <defs>
  <style type="text/css">*{stroke-linejoin: round; stroke-linecap: butt}</style>
 </defs>
 <g id="figure_1">
  <g id="patch_1">
   <path d="M 0 224.39952 
L 656.39952 224.39952 
L 656.39952 0 
L 0 0 
L 0 224.39952 
z
" style="fill: none"/>
  </g>
  <g id="axes_1">
   <g id="patch_2">
    <path d="M 53.55 182.67452 
L 599.10909 182.67452 
L 599.10909 7.2 
L 53.55 7.2 
L 53.55 182.67452 
z
" style="fill: none"/>
   </g>
   <g id="matplotlib.axis_1">
    <g id="xtick_1">
     <g id="text_1">
      <!-- 0 -->
      <g style="fill: #838383" transform="translate(74.22314 196.34952) scale(0.1375 -0.1375)">
       <defs>
        <path id="IBMPlexSans-Regular-30" d="M 1920 -77 
Q 1120 -77 752 531 
Q 384 1139 384 2234 
Q 384 3328 752 3936 
Q 1120 4544 1920 4544 
Q 2720 4544 3088 3936 
Q 3456 3328 3456 2234 
Q 3456 1139 3088 531 
Q 2720 -77 1920 -77 
z
M 1920 390 
Q 2182 390 2368 499 
Q 2554 608 2669 806 
Q 2784 1005 2838 1273 
Q 2893 1542 2893 1869 
L 2893 2598 
Q 2893 2925 2838 3193 
Q 2784 3462 2669 3660 
Q 2554 3859 2368 3968 
Q 2182 4077 1920 4077 
Q 1658 4077 1472 3968 
Q 1286 3859 1171 3660 
Q 1056 3462 1001 3193 
Q 947 2925 947 2598 
L 947 1869 
Q 947 1542 1001 1273 
Q 1056 1005 1171 806 
Q 1286 608 1472 499 
Q 1658 390 1920 390 
z
" transform="scale(0.015625)"/>
       </defs>
       <use xlink:href="#IBMPlexSans-Regular-30"/>
      </g>
     </g>
    </g>
    <g id="xtick_2">
     <g id="text_2">
      <!-- 50 -->
      <g style="fill: #838383" transform="translate(169.689066 196.34952) scale(0.1375 -0.1375)">
       <defs>
        <path id="IBMPlexSans-Regular-35" d="M 3187 3994 
L 1229 3994 
L 1101 2291 
L 1146 2291 
Q 1306 2515 1507 2649 
Q 1709 2784 2061 2784 
Q 2349 2784 2592 2688 
Q 2835 2592 3014 2416 
Q 3194 2240 3293 1984 
Q 3392 1728 3392 1402 
Q 3392 1075 3289 803 
Q 3187 531 2992 336 
Q 2797 141 2518 32 
Q 2240 -77 1888 -77 
Q 1606 -77 1392 -13 
Q 1178 51 1011 160 
Q 845 269 720 403 
Q 595 538 493 685 
L 896 992 
Q 979 858 1072 749 
Q 1165 640 1277 563 
Q 1389 486 1536 444 
Q 1683 403 1888 403 
Q 2349 403 2585 646 
Q 2822 890 2822 1331 
L 2822 1395 
Q 2822 1837 2585 2080 
Q 2349 2323 1888 2323 
Q 1581 2323 1405 2211 
Q 1229 2099 1088 1946 
L 634 2010 
L 794 4467 
L 3187 4467 
L 3187 3994 
z
" transform="scale(0.015625)"/>
       </defs>
       <use xlink:href="#IBMPlexSans-Regular-35"/>
       <use xlink:href="#IBMPlexSans-Regular-30" x="59.999985"/>
      </g>
     </g>
    </g>
    <g id="xtick_3">
     <g id="text_3">
      <!-- 100 -->
      <g style="fill: #838383" transform="translate(265.154992 196.34952) scale(0.1375 -0.1375)">
       <defs>
        <path id="IBMPlexSans-Regular-31" d="M 563 0 
L 563 474 
L 1811 474 
L 1811 4070 
L 1766 4070 
L 640 3021 
L 326 3360 
L 1510 4467 
L 2349 4467 
L 2349 474 
L 3501 474 
L 3501 0 
L 563 0 
z
" transform="scale(0.015625)"/>
       </defs>
       <use xlink:href="#IBMPlexSans-Regular-31"/>
       <use xlink:href="#IBMPlexSans-Regular-30" x="59.999985"/>
       <use xlink:href="#IBMPlexSans-Regular-30" x="119.999969"/>
      </g>
     </g>
    </g>
    <g id="xtick_4">
     <g id="text_4">
      <!-- 150 -->
      <g style="fill: #838383" transform="translate(364.745917 196.34952) scale(0.1375 -0.1375)">
       <use xlink:href="#IBMPlexSans-Regular-31"/>
       <use xlink:href="#IBMPlexSans-Regular-35" x="59.999985"/>
       <use xlink:href="#IBMPlexSans-Regular-30" x="119.999969"/>
      </g>
     </g>
    </g>
    <g id="xtick_5">
     <g id="text_5">
      <!-- 200 -->
      <g style="fill: #838383" transform="translate(464.336843 196.34952) scale(0.1375 -0.1375)">
       <defs>
        <path id="IBMPlexSans-Regular-32" d="M 3411 0 
L 480 0 
L 480 550 
L 1939 1894 
Q 2253 2182 2464 2505 
Q 2675 2829 2675 3155 
L 2675 3232 
Q 2675 3603 2470 3833 
Q 2266 4064 1850 4064 
Q 1645 4064 1491 4006 
Q 1338 3949 1226 3846 
Q 1114 3744 1040 3606 
Q 966 3469 922 3309 
L 442 3494 
Q 506 3693 618 3881 
Q 730 4070 899 4217 
Q 1069 4365 1309 4454 
Q 1549 4544 1875 4544 
Q 2202 4544 2458 4448 
Q 2714 4352 2886 4179 
Q 3059 4006 3152 3769 
Q 3245 3533 3245 3245 
Q 3245 2982 3171 2758 
Q 3098 2534 2970 2332 
Q 2842 2131 2659 1939 
Q 2477 1747 2266 1555 
L 1062 474 
L 3411 474 
L 3411 0 
z
" transform="scale(0.015625)"/>
       </defs>
       <use xlink:href="#IBMPlexSans-Regular-32"/>
       <use xlink:href="#IBMPlexSans-Regular-30" x="59.999985"/>
       <use xlink:href="#IBMPlexSans-Regular-30" x="119.999969"/>
      </g>
     </g>
    </g>
    <g id="xtick_6">
     <g id="text_6">
      <!-- 250 -->
      <g style="fill: #838383" transform="translate(563.927768 196.34952) scale(0.1375 -0.1375)">
       <use xlink:href="#IBMPlexSans-Regular-32"/>
       <use xlink:href="#IBMPlexSans-Regular-35" x="59.999985"/>
       <use xlink:href="#IBMPlexSans-Regular-30" x="119.999969"/>
      </g>
     </g>
    </g>
    <g id="text_7">
     <!-- Step -->
     <g style="fill: #838383" transform="translate(310.872514 214.19952) scale(0.15 -0.15)">
      <defs>
       <path id="IBMPlexSans-Regular-53" d="M 1850 -77 
Q 1306 -77 922 131 
Q 538 339 269 704 
L 666 1037 
Q 902 723 1190 560 
Q 1478 397 1869 397 
Q 2349 397 2601 627 
Q 2854 858 2854 1242 
Q 2854 1562 2662 1734 
Q 2470 1907 2029 2010 
L 1664 2093 
Q 1050 2234 726 2518 
Q 403 2803 403 3322 
Q 403 3616 512 3846 
Q 621 4077 816 4230 
Q 1011 4384 1283 4464 
Q 1555 4544 1882 4544 
Q 2387 4544 2748 4358 
Q 3110 4173 3360 3814 
L 2957 3520 
Q 2771 3776 2508 3923 
Q 2246 4070 1856 4070 
Q 1427 4070 1180 3888 
Q 934 3706 934 3341 
Q 934 3021 1142 2857 
Q 1350 2694 1773 2598 
L 2138 2515 
Q 2797 2368 3091 2067 
Q 3386 1766 3386 1267 
Q 3386 960 3280 710 
Q 3174 461 2976 288 
Q 2778 115 2493 19 
Q 2208 -77 1850 -77 
z
" transform="scale(0.015625)"/>
       <path id="IBMPlexSans-Regular-74" d="M 1274 0 
Q 1005 0 867 150 
Q 730 301 730 544 
L 730 2854 
L 186 2854 
L 186 3302 
L 493 3302 
Q 659 3302 720 3369 
Q 781 3437 781 3603 
L 781 4218 
L 1242 4218 
L 1242 3302 
L 1965 3302 
L 1965 2854 
L 1242 2854 
L 1242 448 
L 1914 448 
L 1914 0 
L 1274 0 
z
" transform="scale(0.015625)"/>
       <path id="IBMPlexSans-Regular-65" d="M 1786 -77 
Q 1446 -77 1174 44 
Q 902 166 707 393 
Q 512 621 406 937 
Q 301 1254 301 1651 
Q 301 2042 406 2362 
Q 512 2682 707 2909 
Q 902 3136 1174 3257 
Q 1446 3379 1786 3379 
Q 2118 3379 2380 3257 
Q 2643 3136 2828 2921 
Q 3014 2707 3113 2412 
Q 3213 2118 3213 1766 
L 3213 1523 
L 838 1523 
L 838 1370 
Q 838 1158 905 976 
Q 973 794 1097 659 
Q 1222 525 1404 448 
Q 1587 371 1818 371 
Q 2131 371 2364 518 
Q 2598 666 2726 941 
L 3091 678 
Q 2931 339 2592 131 
Q 2253 -77 1786 -77 
z
M 1786 2950 
Q 1574 2950 1401 2876 
Q 1229 2803 1104 2668 
Q 979 2534 908 2352 
Q 838 2170 838 1952 
L 838 1907 
L 2662 1907 
L 2662 1978 
Q 2662 2419 2422 2684 
Q 2182 2950 1786 2950 
z
" transform="scale(0.015625)"/>
       <path id="IBMPlexSans-Regular-70" d="M 544 3302 
L 1056 3302 
L 1056 2765 
L 1082 2765 
Q 1210 3078 1456 3228 
Q 1702 3379 2048 3379 
Q 2355 3379 2604 3257 
Q 2854 3136 3030 2912 
Q 3206 2688 3299 2368 
Q 3392 2048 3392 1651 
Q 3392 1254 3299 934 
Q 3206 614 3030 390 
Q 2854 166 2604 44 
Q 2355 -77 2048 -77 
Q 1376 -77 1082 538 
L 1056 538 
L 1056 -1280 
L 544 -1280 
L 544 3302 
z
M 1907 384 
Q 2342 384 2592 656 
Q 2842 928 2842 1370 
L 2842 1933 
Q 2842 2374 2592 2646 
Q 2342 2918 1907 2918 
Q 1734 2918 1577 2870 
Q 1421 2822 1305 2739 
Q 1190 2656 1123 2537 
Q 1056 2419 1056 2285 
L 1056 1056 
Q 1056 896 1123 771 
Q 1190 646 1305 560 
Q 1421 474 1577 429 
Q 1734 384 1907 384 
z
" transform="scale(0.015625)"/>
      </defs>
      <use xlink:href="#IBMPlexSans-Regular-53"/>
      <use xlink:href="#IBMPlexSans-Regular-74" x="58.099991"/>
      <use xlink:href="#IBMPlexSans-Regular-65" x="93.199982"/>
      <use xlink:href="#IBMPlexSans-Regular-70" x="148.099976"/>
     </g>
    </g>
   </g>
   <g id="matplotlib.axis_2">
    <g id="ytick_1">
     <g id="line2d_1"/>
     <g id="text_8">
      <!-- 0 -->
      <g style="fill: #2196f3" transform="translate(41.8 165.467904) scale(0.1375 -0.1375)">
       <use xlink:href="#IBMPlexSans-Regular-30"/>
      </g>
     </g>
    </g>
    <g id="ytick_2">
     <g id="line2d_2"/>
     <g id="text_9">
      <!-- 20 -->
      <g style="fill: #2196f3" transform="translate(33.55 136.167169) scale(0.1375 -0.1375)">
       <use xlink:href="#IBMPlexSans-Regular-32"/>
       <use xlink:href="#IBMPlexSans-Regular-30" x="59.999985"/>
      </g>
     </g>
    </g>
    <g id="ytick_3">
     <g id="line2d_3"/>
     <g id="text_10">
      <!-- 40 -->
      <g style="fill: #2196f3" transform="translate(33.55 106.866433) scale(0.1375 -0.1375)">
       <defs>
        <path id="IBMPlexSans-Regular-34" d="M 2400 0 
L 2400 877 
L 243 877 
L 243 1350 
L 2112 4467 
L 2912 4467 
L 2912 1325 
L 3558 1325 
L 3558 877 
L 2912 877 
L 2912 0 
L 2400 0 
z
M 749 1325 
L 2400 1325 
L 2400 4051 
L 2368 4051 
L 749 1325 
z
" transform="scale(0.015625)"/>
       </defs>
       <use xlink:href="#IBMPlexSans-Regular-34"/>
       <use xlink:href="#IBMPlexSans-Regular-30" x="59.999985"/>
      </g>
     </g>
    </g>
    <g id="ytick_4">
     <g id="line2d_4"/>
     <g id="text_11">
      <!-- 60 -->
      <g style="fill: #2196f3" transform="translate(33.55 77.565697) scale(0.1375 -0.1375)">
       <defs>
        <path id="IBMPlexSans-Regular-36" d="M 1926 -77 
Q 1581 -77 1302 41 
Q 1024 160 829 381 
Q 634 602 531 922 
Q 429 1242 429 1638 
Q 429 2138 576 2576 
Q 723 3014 956 3376 
Q 1190 3738 1472 4016 
Q 1754 4294 2022 4467 
L 2714 4467 
Q 2355 4205 2073 3955 
Q 1792 3706 1581 3434 
Q 1370 3162 1222 2851 
Q 1075 2541 986 2150 
L 1018 2138 
Q 1178 2413 1430 2595 
Q 1683 2778 2093 2778 
Q 2381 2778 2624 2682 
Q 2867 2586 3040 2406 
Q 3213 2227 3312 1971 
Q 3411 1715 3411 1402 
Q 3411 1075 3305 803 
Q 3200 531 3005 336 
Q 2810 141 2534 32 
Q 2259 -77 1926 -77 
z
M 1920 390 
Q 2362 390 2608 633 
Q 2854 877 2854 1331 
L 2854 1382 
Q 2854 1837 2608 2080 
Q 2362 2323 1920 2323 
Q 1478 2323 1232 2080 
Q 986 1837 986 1382 
L 986 1331 
Q 986 877 1232 633 
Q 1478 390 1920 390 
z
" transform="scale(0.015625)"/>
       </defs>
       <use xlink:href="#IBMPlexSans-Regular-36"/>
       <use xlink:href="#IBMPlexSans-Regular-30" x="59.999985"/>
      </g>
     </g>
    </g>
    <g id="ytick_5">
     <g id="line2d_5"/>
     <g id="text_12">
      <!-- 80 -->
      <g style="fill: #2196f3" transform="translate(33.55 48.264962) scale(0.1375 -0.1375)">
       <defs>
        <path id="IBMPlexSans-Regular-38" d="M 1920 -77 
Q 1536 -77 1248 22 
Q 960 122 765 294 
Q 570 467 470 704 
Q 371 941 371 1216 
Q 371 1677 620 1945 
Q 870 2214 1274 2323 
L 1274 2374 
Q 922 2496 714 2768 
Q 506 3040 506 3424 
Q 506 3936 877 4240 
Q 1248 4544 1920 4544 
Q 2592 4544 2963 4240 
Q 3334 3936 3334 3424 
Q 3334 3040 3126 2768 
Q 2918 2496 2566 2374 
L 2566 2323 
Q 2970 2214 3219 1945 
Q 3469 1677 3469 1216 
Q 3469 941 3369 704 
Q 3270 467 3075 294 
Q 2880 122 2592 22 
Q 2304 -77 1920 -77 
z
M 1920 390 
Q 2387 390 2643 598 
Q 2899 806 2899 1190 
L 2899 1325 
Q 2899 1709 2643 1917 
Q 2387 2125 1920 2125 
Q 1453 2125 1197 1917 
Q 941 1709 941 1325 
L 941 1190 
Q 941 806 1197 598 
Q 1453 390 1920 390 
z
M 1920 2573 
Q 2342 2573 2560 2752 
Q 2778 2931 2778 3277 
L 2778 3373 
Q 2778 3718 2560 3897 
Q 2342 4077 1920 4077 
Q 1498 4077 1280 3897 
Q 1062 3718 1062 3373 
L 1062 3277 
Q 1062 2931 1280 2752 
Q 1498 2573 1920 2573 
z
" transform="scale(0.015625)"/>
       </defs>
       <use xlink:href="#IBMPlexSans-Regular-38"/>
       <use xlink:href="#IBMPlexSans-Regular-30" x="59.999985"/>
      </g>
     </g>
    </g>
    <g id="ytick_6">
     <g id="line2d_6"/>
     <g id="text_13">
      <!-- 100 -->
      <g style="fill: #2196f3" transform="translate(25.3 18.964226) scale(0.1375 -0.1375)">
       <use xlink:href="#IBMPlexSans-Regular-31"/>
       <use xlink:href="#IBMPlexSans-Regular-30" x="59.999985"/>
       <use xlink:href="#IBMPlexSans-Regular-30" x="119.999969"/>
      </g>
     </g>
    </g>
    <g id="text_14">
     <!-- loss -->
     <g style="fill: #2196f3" transform="translate(18.3 108.482963) rotate(-90) scale(0.15 -0.15)">
      <defs>
       <path id="IBMPlexSans-Regular-6c" d="M 1088 0 
Q 819 0 681 150 
Q 544 301 544 531 
L 544 4736 
L 1056 4736 
L 1056 448 
L 1542 448 
L 1542 0 
L 1088 0 
z
" transform="scale(0.015625)"/>
       <path id="IBMPlexSans-Regular-6f" d="M 1792 -77 
Q 1459 -77 1184 44 
Q 909 166 713 393 
Q 518 621 409 937 
Q 301 1254 301 1651 
Q 301 2042 409 2362 
Q 518 2682 713 2909 
Q 909 3136 1184 3257 
Q 1459 3379 1792 3379 
Q 2125 3379 2397 3257 
Q 2669 3136 2867 2909 
Q 3066 2682 3174 2362 
Q 3283 2042 3283 1651 
Q 3283 1254 3174 937 
Q 3066 621 2867 393 
Q 2669 166 2397 44 
Q 2125 -77 1792 -77 
z
M 1792 378 
Q 2208 378 2470 634 
Q 2733 890 2733 1414 
L 2733 1888 
Q 2733 2413 2470 2669 
Q 2208 2925 1792 2925 
Q 1376 2925 1113 2669 
Q 851 2413 851 1888 
L 851 1414 
Q 851 890 1113 634 
Q 1376 378 1792 378 
z
" transform="scale(0.015625)"/>
       <path id="IBMPlexSans-Regular-73" d="M 1536 -77 
Q 1075 -77 764 99 
Q 454 275 230 570 
L 595 864 
Q 787 621 1024 489 
Q 1261 358 1574 358 
Q 1901 358 2083 499 
Q 2266 640 2266 896 
Q 2266 1088 2141 1225 
Q 2016 1363 1690 1414 
L 1427 1453 
Q 1197 1485 1005 1552 
Q 813 1619 669 1731 
Q 525 1843 445 2009 
Q 365 2176 365 2406 
Q 365 2650 454 2832 
Q 544 3014 701 3136 
Q 858 3258 1075 3318 
Q 1293 3379 1542 3379 
Q 1946 3379 2218 3238 
Q 2490 3098 2694 2848 
L 2355 2541 
Q 2246 2694 2035 2819 
Q 1824 2944 1504 2944 
Q 1184 2944 1021 2806 
Q 858 2669 858 2432 
Q 858 2189 1021 2080 
Q 1184 1971 1491 1920 
L 1747 1882 
Q 2298 1798 2528 1564 
Q 2758 1331 2758 954 
Q 2758 474 2432 198 
Q 2106 -77 1536 -77 
z
" transform="scale(0.015625)"/>
      </defs>
      <use xlink:href="#IBMPlexSans-Regular-6c"/>
      <use xlink:href="#IBMPlexSans-Regular-6f" x="27.199997"/>
      <use xlink:href="#IBMPlexSans-Regular-73" x="83.199982"/>
      <use xlink:href="#IBMPlexSans-Regular-73" x="131.899979"/>
     </g>
    </g>
   </g>
   <g id="line2d_7">
    <path d="M 78.34814 15.176115 
L 80.339959 102.826664 
L 82.331777 131.696563 
L 84.323596 142.909737 
L 86.315415 147.574135 
L 88.307233 148.792773 
L 90.299052 152.113757 
L 98.266326 156.331332 
L 100.258144 155.255403 
L 102.249963 155.963801 
L 106.2336 158.587754 
L 108.225418 157.167171 
L 110.217237 157.412593 
L 112.209055 158.968081 
L 114.200874 157.28295 
L 128.143603 160.420597 
L 130.135422 159.149839 
L 132.12724 160.178682 
L 134.119059 159.454262 
L 142.086333 161.183466 
L 144.078151 160.474349 
L 146.06997 161.695238 
L 148.061788 161.055344 
L 150.053607 162.529652 
L 152.045425 161.471519 
L 156.029062 161.565365 
L 163.996336 161.38298 
L 165.988155 162.13627 
L 171.963611 161.862973 
L 173.955429 162.549832 
L 177.939066 161.426126 
L 181.922703 162.141322 
L 189.889977 162.98206 
L 191.881796 161.246924 
L 193.873614 162.771585 
L 195.865433 162.488849 
L 197.857251 163.373705 
L 199.84907 162.243107 
L 203.832707 164.004302 
L 205.824525 162.070577 
L 209.808162 162.839831 
L 213.791799 162.697086 
L 215.783618 163.223616 
L 217.775436 162.229201 
L 219.767255 163.146939 
L 221.759073 162.568743 
L 223.750892 163.632971 
L 227.734529 163.207545 
L 229.726347 165.030707 
L 231.718166 163.831494 
L 235.701803 164.30538 
L 239.68544 163.886792 
L 241.677258 164.954351 
L 243.669077 164.446202 
L 245.660895 165.142043 
L 247.652714 163.880626 
L 249.644532 165.172895 
L 255.619988 164.669853 
L 257.611807 165.752415 
L 259.603625 164.635164 
L 261.595444 164.879174 
L 263.587262 164.007599 
L 267.570899 165.2293 
L 269.562718 165.141399 
L 271.554536 166.371741 
L 275.538173 164.160081 
L 279.52181 166.155774 
L 281.513629 164.063576 
L 283.505447 165.862727 
L 285.497266 165.140159 
L 287.489084 166.565373 
L 289.480903 164.557599 
L 291.472721 166.935893 
L 293.46454 166.189392 
L 295.456358 166.653517 
L 297.448177 166.035107 
L 301.431814 167.454846 
L 303.423632 166.103984 
L 315.374543 168.825993 
L 319.35818 167.408732 
L 323.341817 168.589909 
L 329.317273 169.116885 
L 333.30091 168.181412 
L 337.284547 170.044197 
L 341.268184 168.624248 
L 343.260003 170.088541 
L 345.251821 169.948136 
L 347.24364 168.62784 
L 349.235458 169.536496 
L 351.227277 168.619644 
L 353.219095 170.298142 
L 355.210914 168.652114 
L 357.202732 169.347526 
L 359.194551 168.830895 
L 363.178188 170.302143 
L 367.161825 170.080485 
L 369.153643 170.229372 
L 371.145462 171.66604 
L 375.129099 170.831032 
L 377.120917 171.23547 
L 379.112736 168.393897 
L 381.104554 172.33644 
L 391.063647 170.32944 
L 395.047284 172.838579 
L 397.039102 170.789889 
L 399.030921 171.313906 
L 401.022739 170.281575 
L 403.014558 172.083369 
L 405.006376 170.600459 
L 406.998195 171.765639 
L 410.981832 171.535991 
L 412.97365 172.206021 
L 416.957287 171.218846 
L 418.949106 172.444553 
L 422.932743 170.860633 
L 424.924561 171.166818 
L 426.91638 172.503038 
L 428.908199 170.678513 
L 430.900017 171.473759 
L 432.891836 169.240615 
L 434.883654 172.91795 
L 436.875473 171.470479 
L 442.850928 171.330636 
L 444.842747 172.409435 
L 446.834565 171.142953 
L 450.818202 172.392267 
L 458.785476 171.354795 
L 464.760932 173.120677 
L 466.75275 171.107462 
L 468.744569 172.748936 
L 470.736387 171.573845 
L 472.728206 171.775431 
L 474.720024 173.472523 
L 476.711843 173.310055 
L 478.703661 171.171089 
L 480.69548 172.447879 
L 482.687298 171.003421 
L 484.679117 173.316411 
L 488.662754 172.493373 
L 498.621846 171.654978 
L 502.605483 174.332638 
L 504.597302 172.129043 
L 508.580939 171.245137 
L 510.572757 173.344817 
L 512.564576 172.900604 
L 514.556394 174.212092 
L 516.548213 172.062302 
L 518.540032 172.52482 
L 520.53185 174.094041 
L 522.523669 171.534825 
L 530.490943 173.258347 
L 532.482761 174.698405 
L 534.47458 172.639801 
L 538.458217 174.108887 
L 542.441854 171.878181 
L 544.433672 172.405158 
L 548.417309 171.343886 
L 550.409128 173.539432 
L 552.400946 171.744547 
L 554.392765 171.609732 
L 556.384583 173.183934 
L 558.376402 172.590325 
L 560.36822 173.611839 
L 562.360039 172.664271 
L 564.351857 174.423911 
L 568.335494 173.002066 
L 570.327313 174.157263 
L 572.319131 171.848123 
L 574.31095 173.124088 
L 574.31095 173.124088 
" clip-path="url(#p01d23e0b1d)" style="fill: none; stroke: #2196f3; stroke-opacity: 0.9; stroke-width: 1.5; stroke-linecap: round"/>
   </g>
  </g>
  <g id="axes_2">
   <g id="matplotlib.axis_3">
    <g id="ytick_7">
     <g id="line2d_8"/>
     <g id="text_15">
      <!-- 0.00 -->
      <g style="fill: #ef5350" transform="translate(602.60909 179.785905) scale(0.1375 -0.1375)">
       <defs>
        <path id="IBMPlexSans-Regular-2e" d="M 870 -77 
Q 666 -77 573 25 
Q 480 128 480 294 
L 480 378 
Q 480 544 573 646 
Q 666 749 870 749 
Q 1075 749 1168 646 
Q 1261 544 1261 378 
L 1261 294 
Q 1261 128 1168 25 
Q 1075 -77 870 -77 
z
" transform="scale(0.015625)"/>
       </defs>
       <use xlink:href="#IBMPlexSans-Regular-30"/>
       <use xlink:href="#IBMPlexSans-Regular-2e" x="59.999985"/>
       <use xlink:href="#IBMPlexSans-Regular-30" x="87.199982"/>
       <use xlink:href="#IBMPlexSans-Regular-30" x="147.199966"/>
      </g>
     </g>
    </g>
    <g id="ytick_8">
     <g id="line2d_9"/>
     <g id="text_16">
      <!-- 0.02 -->
      <g style="fill: #ef5350" transform="translate(602.60909 148.965106) scale(0.1375 -0.1375)">
       <use xlink:href="#IBMPlexSans-Regular-30"/>
       <use xlink:href="#IBMPlexSans-Regular-2e" x="59.999985"/>
       <use xlink:href="#IBMPlexSans-Regular-30" x="87.199982"/>
       <use xlink:href="#IBMPlexSans-Regular-32" x="147.199966"/>
      </g>
     </g>
    </g>
    <g id="ytick_9">
     <g id="line2d_10"/>
     <g id="text_17">
      <!-- 0.04 -->
      <g style="fill: #ef5350" transform="translate(602.60909 118.144306) scale(0.1375 -0.1375)">
       <use xlink:href="#IBMPlexSans-Regular-30"/>
       <use xlink:href="#IBMPlexSans-Regular-2e" x="59.999985"/>
       <use xlink:href="#IBMPlexSans-Regular-30" x="87.199982"/>
       <use xlink:href="#IBMPlexSans-Regular-34" x="147.199966"/>
      </g>
     </g>
    </g>
    <g id="ytick_10">
     <g id="line2d_11"/>
     <g id="text_18">
      <!-- 0.06 -->
      <g style="fill: #ef5350" transform="translate(602.60909 87.323507) scale(0.1375 -0.1375)">
       <use xlink:href="#IBMPlexSans-Regular-30"/>
       <use xlink:href="#IBMPlexSans-Regular-2e" x="59.999985"/>
       <use xlink:href="#IBMPlexSans-Regular-30" x="87.199982"/>
       <use xlink:href="#IBMPlexSans-Regular-36" x="147.199966"/>
      </g>
     </g>
    </g>
    <g id="ytick_11">
     <g id="line2d_12"/>
     <g id="text_19">
      <!-- 0.08 -->
      <g style="fill: #ef5350" transform="translate(602.60909 56.502707) scale(0.1375 -0.1375)">
       <use xlink:href="#IBMPlexSans-Regular-30"/>
       <use xlink:href="#IBMPlexSans-Regular-2e" x="59.999985"/>
       <use xlink:href="#IBMPlexSans-Regular-30" x="87.199982"/>
       <use xlink:href="#IBMPlexSans-Regular-38" x="147.199966"/>
      </g>
     </g>
    </g>
    <g id="ytick_12">
     <g id="line2d_13"/>
     <g id="text_20">
      <!-- 0.10 -->
      <g style="fill: #ef5350" transform="translate(602.60909 25.681907) scale(0.1375 -0.1375)">
       <use xlink:href="#IBMPlexSans-Regular-30"/>
       <use xlink:href="#IBMPlexSans-Regular-2e" x="59.999985"/>
       <use xlink:href="#IBMPlexSans-Regular-31" x="87.199982"/>
       <use xlink:href="#IBMPlexSans-Regular-30" x="147.199966"/>
      </g>
     </g>
    </g>
    <g id="text_21">
     <!-- dQint -->
     <g style="fill: #ef5350" transform="translate(646.19952 113.363823) rotate(-90) scale(0.15 -0.15)">
      <defs>
       <path id="IBMPlexSans-Regular-64" d="M 2656 538 
L 2630 538 
Q 2330 -77 1664 -77 
Q 1357 -77 1107 44 
Q 858 166 682 390 
Q 506 614 413 934 
Q 320 1254 320 1651 
Q 320 2048 413 2368 
Q 506 2688 682 2912 
Q 858 3136 1107 3257 
Q 1357 3379 1664 3379 
Q 2010 3379 2256 3228 
Q 2502 3078 2630 2765 
L 2656 2765 
L 2656 4736 
L 3168 4736 
L 3168 0 
L 2656 0 
L 2656 538 
z
M 1805 384 
Q 1978 384 2134 429 
Q 2291 474 2406 560 
Q 2522 646 2589 771 
Q 2656 896 2656 1056 
L 2656 2285 
Q 2656 2419 2589 2537 
Q 2522 2656 2406 2739 
Q 2291 2822 2134 2870 
Q 1978 2918 1805 2918 
Q 1370 2918 1120 2646 
Q 870 2374 870 1933 
L 870 1370 
Q 870 928 1120 656 
Q 1370 384 1805 384 
z
" transform="scale(0.015625)"/>
       <path id="IBMPlexSans-Regular-51" d="M 3251 -1050 
L 2592 -1050 
Q 2323 -1050 2188 -899 
Q 2054 -749 2054 -525 
L 2054 -70 
Q 1670 -32 1356 134 
Q 1043 301 825 592 
Q 608 883 489 1296 
Q 371 1709 371 2234 
Q 371 2797 505 3225 
Q 640 3654 886 3948 
Q 1133 4243 1481 4393 
Q 1830 4544 2266 4544 
Q 2694 4544 3046 4393 
Q 3398 4243 3644 3948 
Q 3891 3654 4025 3225 
Q 4160 2797 4160 2234 
Q 4160 1203 3731 624 
Q 3302 45 2566 -58 
L 2566 -602 
L 3251 -602 
L 3251 -1050 
z
M 2266 403 
Q 2554 403 2797 505 
Q 3040 608 3216 800 
Q 3392 992 3488 1261 
Q 3584 1530 3584 1862 
L 3584 2605 
Q 3584 2938 3488 3206 
Q 3392 3475 3216 3667 
Q 3040 3859 2797 3961 
Q 2554 4064 2266 4064 
Q 1978 4064 1734 3961 
Q 1491 3859 1315 3667 
Q 1139 3475 1043 3206 
Q 947 2938 947 2605 
L 947 1862 
Q 947 1530 1043 1261 
Q 1139 992 1315 800 
Q 1491 608 1734 505 
Q 1978 403 2266 403 
z
" transform="scale(0.015625)"/>
       <path id="IBMPlexSans-Regular-69" d="M 800 4077 
Q 634 4077 560 4157 
Q 486 4237 486 4365 
L 486 4448 
Q 486 4576 560 4656 
Q 634 4736 800 4736 
Q 966 4736 1040 4656 
Q 1114 4576 1114 4448 
L 1114 4365 
Q 1114 4237 1040 4157 
Q 966 4077 800 4077 
z
M 544 3302 
L 1056 3302 
L 1056 0 
L 544 0 
L 544 3302 
z
" transform="scale(0.015625)"/>
       <path id="IBMPlexSans-Regular-6e" d="M 544 0 
L 544 3302 
L 1056 3302 
L 1056 2765 
L 1082 2765 
Q 1203 3046 1424 3212 
Q 1645 3379 2016 3379 
Q 2528 3379 2825 3049 
Q 3123 2720 3123 2118 
L 3123 0 
L 2611 0 
L 2611 2029 
Q 2611 2918 1862 2918 
Q 1709 2918 1565 2880 
Q 1421 2842 1305 2765 
Q 1190 2688 1123 2569 
Q 1056 2451 1056 2291 
L 1056 0 
L 544 0 
z
" transform="scale(0.015625)"/>
      </defs>
      <use xlink:href="#IBMPlexSans-Regular-64"/>
      <use xlink:href="#IBMPlexSans-Regular-51" x="57.999985"/>
      <use xlink:href="#IBMPlexSans-Regular-69" x="128.799973"/>
      <use xlink:href="#IBMPlexSans-Regular-6e" x="153.799957"/>
      <use xlink:href="#IBMPlexSans-Regular-74" x="210.599945"/>
     </g>
    </g>
   </g>
   <g id="line2d_14">
    <path d="M 78.34814 174.698405 
L 80.339959 107.729245 
L 84.323596 145.352116 
L 86.315415 135.57009 
L 88.307233 148.361877 
L 90.299052 143.094639 
L 92.29087 142.342143 
L 94.282689 138.579827 
L 96.274507 138.579816 
L 100.258144 125.787969 
L 102.249963 141.589619 
L 104.241781 124.283012 
L 106.2336 139.332219 
L 108.225418 138.579758 
L 110.217237 126.540372 
L 114.200874 127.292827 
L 116.192692 137.827275 
L 118.184511 131.807587 
L 120.176329 131.807561 
L 122.168148 118.263279 
L 124.159966 121.273123 
L 126.151785 142.342003 
L 128.143603 125.787871 
L 130.135422 120.520645 
L 132.12724 134.064935 
L 134.119059 130.302628 
L 136.110877 122.025566 
L 138.102696 122.778016 
L 140.094514 131.055109 
L 142.086333 133.312452 
L 146.06997 126.540298 
L 148.061788 117.510801 
L 150.053607 118.263233 
L 152.045425 114.500934 
L 156.029062 128.797666 
L 160.012699 112.996001 
L 162.004518 119.015705 
L 163.996336 121.273071 
L 165.988155 116.758323 
L 167.979973 116.758317 
L 169.971792 118.263239 
L 171.963611 127.29277 
L 173.955429 122.777981 
L 175.947248 129.550153 
L 177.939066 116.758311 
L 179.930885 112.995989 
L 181.922703 117.510766 
L 183.914522 114.5009 
L 187.898159 122.777987 
L 189.889977 109.233696 
L 191.881796 118.263233 
L 195.865433 98.699255 
L 197.857251 102.461559 
L 199.84907 112.996024 
L 201.840888 103.966464 
L 203.832707 106.976331 
L 205.824525 114.500905 
L 207.816344 94.936927 
L 209.808162 106.223852 
L 211.799981 101.709098 
L 213.791799 120.52061 
L 215.783618 121.273031 
L 217.775436 106.223852 
L 219.767255 123.530437 
L 221.759073 109.986157 
L 223.750892 120.520627 
L 225.74271 107.728769 
L 227.734529 103.966447 
L 229.726347 111.491079 
L 231.718166 106.223852 
L 233.709984 97.194321 
L 235.701803 105.471374 
L 237.693621 97.194333 
L 239.68544 97.194333 
L 241.677258 103.966458 
L 243.669077 104.718919 
L 245.660895 103.214009 
L 247.652714 105.471369 
L 249.644532 97.19431 
L 251.636351 101.709081 
L 253.628169 99.451704 
L 255.619988 91.174634 
L 257.611807 88.917228 
L 259.603625 119.015671 
L 261.595444 88.164767 
L 267.570899 103.966481 
L 269.562718 87.412329 
L 271.554536 98.699226 
L 273.546355 88.164802 
L 275.538173 90.422167 
L 277.529992 97.194333 
L 279.52181 87.412318 
L 281.513629 98.699232 
L 283.505447 88.917251 
L 285.497266 97.946771 
L 289.480903 80.640181 
L 291.472721 96.441849 
L 293.46454 80.640158 
L 295.456358 98.699209 
L 297.448177 94.936927 
L 299.439995 87.412318 
L 303.423632 94.936939 
L 305.415451 85.907407 
L 307.407269 87.412364 
L 311.390906 73.11556 
L 313.382725 83.650025 
L 315.374543 66.343412 
L 317.366362 77.630314 
L 319.35818 72.363111 
L 321.349999 72.363122 
L 323.341817 81.39263 
L 325.333636 79.13527 
L 327.325454 70.105739 
L 329.317273 68.600818 
L 331.309091 88.917234 
L 333.30091 83.650007 
L 335.292728 64.838501 
L 337.284547 71.610638 
L 339.276365 64.83849 
L 341.268184 76.877888 
L 343.260003 61.076208 
L 345.251821 66.343435 
L 347.24364 78.382787 
L 349.235458 63.333591 
L 351.227277 79.887731 
L 353.219095 86.659868 
L 355.210914 83.65003 
L 357.202732 64.838513 
L 359.194551 86.659891 
L 361.186369 61.076208 
L 365.170006 84.40248 
L 367.161825 71.61065 
L 369.153643 67.848357 
L 371.145462 76.125415 
L 373.13728 53.551576 
L 375.129099 64.838513 
L 377.120917 54.304083 
L 379.112736 75.372966 
L 381.104554 51.294216 
L 383.096373 66.343435 
L 385.088191 46.779439 
L 387.08001 64.838524 
L 389.071828 72.363122 
L 391.063647 71.610661 
L 393.055465 63.333591 
L 395.047284 62.58113 
L 397.039102 76.877911 
L 399.030921 49.789294 
L 401.022739 52.046666 
L 403.014558 43.017123 
L 405.006376 64.838513 
L 406.998195 73.868055 
L 408.990013 38.50238 
L 410.981832 65.590962 
L 412.97365 55.056521 
L 414.965469 30.977771 
L 416.957287 49.036833 
L 418.949106 52.799149 
L 422.932743 53.551599 
L 424.924561 38.502392 
L 428.908199 60.323747 
L 430.900017 55.808982 
L 432.891836 67.095896 
L 434.883654 40.007325 
L 436.875473 62.58113 
L 438.867291 51.294239 
L 440.85911 53.551587 
L 442.850928 49.789306 
L 444.842747 49.036833 
L 446.834565 37.749931 
L 448.826384 57.313904 
L 450.818202 34.740076 
L 452.810021 55.809005 
L 454.801839 52.046689 
L 456.793658 28.7204 
L 458.785476 50.541767 
L 460.777295 56.561431 
L 462.769113 55.809005 
L 464.760932 49.036822 
L 466.75275 56.561443 
L 468.744569 28.7204 
L 470.736387 51.294239 
L 472.728206 43.76963 
L 474.720024 49.789294 
L 476.711843 40.007314 
L 478.703661 44.522079 
L 480.69548 37.749942 
L 482.687298 47.531889 
L 484.679117 45.274552 
L 486.670935 47.5319 
L 488.662754 23.453185 
L 490.654572 46.026978 
L 492.646391 47.531934 
L 494.638209 35.492548 
L 496.630028 61.076197 
L 498.621846 58.818825 
L 502.605483 15.176115 
L 504.597302 32.482727 
L 506.58912 36.997481 
L 508.580939 46.779474 
L 510.572757 24.205646 
L 512.564576 28.720411 
L 514.556394 18.938419 
L 516.548213 27.215478 
L 518.540032 46.779462 
L 520.53185 27.967927 
L 522.523669 42.264696 
L 524.515487 47.531912 
L 526.507306 22.700701 
L 528.499124 39.254841 
L 530.490943 39.254853 
L 532.482761 26.463051 
L 534.47458 46.779451 
L 536.466398 29.472861 
L 538.458217 44.522091 
L 540.450035 32.482716 
L 542.441854 28.720411 
L 544.433672 27.96795 
L 546.425491 46.779451 
L 548.417309 36.245021 
L 550.409128 42.264696 
L 552.400946 33.987615 
L 554.392765 43.017169 
L 558.376402 36.997481 
L 560.36822 27.215489 
L 562.360039 31.730266 
L 564.351857 20.443341 
L 566.343676 26.463028 
L 568.335494 28.720411 
L 570.327313 24.205634 
L 574.31095 38.50238 
L 574.31095 38.50238 
" clip-path="url(#p01d23e0b1d)" style="fill: none; stroke: #ef5350; stroke-opacity: 0.9; stroke-width: 1.5; stroke-linecap: round"/>
   </g>
  </g>
 </g>
 <defs>
  <clipPath id="p01d23e0b1d">
   <rect x="53.55" y="7.2" width="545.55909" height="175.47452"/>
  </clipPath>
 </defs>
</svg>
