<?xml version="1.0" encoding="utf-8" standalone="no"?>
<!DOCTYPE svg PUBLIC "-//W3C//DTD SVG 1.1//EN"
  "http://www.w3.org/Graphics/SVG/1.1/DTD/svg11.dtd">
<svg xmlns:xlink="http://www.w3.org/1999/xlink" width="344.388486pt" height="234.534474pt" viewBox="0 0 344.388486 234.534474" xmlns="http://www.w3.org/2000/svg" version="1.1">
 <metadata>
  <rdf:RDF xmlns:dc="http://purl.org/dc/elements/1.1/" xmlns:cc="http://creativecommons.org/ns#" xmlns:rdf="http://www.w3.org/1999/02/22-rdf-syntax-ns#">
   <cc:Work>
    <dc:type rdf:resource="http://purl.org/dc/dcmitype/StillImage"/>
    <dc:date>2023-12-05T11:52:19.698399</dc:date>
    <dc:format>image/svg+xml</dc:format>
    <dc:creator>
     <cc:Agent>
      <dc:title>Matplotlib v3.8.2, https://matplotlib.org/</dc:title>
     </cc:Agent>
    </dc:creator>
   </cc:Work>
  </rdf:RDF>
 </metadata>
 <defs>
  <style type="text/css">*{stroke-linejoin: round; stroke-linecap: butt}</style>
 </defs>
 <g id="figure_1">
  <g id="patch_1">
   <path d="M 0 234.534474 
L 344.388486 234.534474 
L 344.388486 0 
L 0 0 
L 0 234.534474 
z
" style="fill: none"/>
  </g>
  <g id="axes_1">
   <g id="patch_2">
    <path d="M 68.580859 192.009865 
L 334.956949 192.009865 
L 334.956949 28.442513 
L 68.580859 28.442513 
L 68.580859 192.009865 
z
" style="fill: none"/>
   </g>
   <g id="matplotlib.axis_1">
    <g id="xtick_1">
     <g id="line2d_1">
      <path d="M 80.688863 192.009865 
L 80.688863 28.442513 
" clip-path="url(#pda068fcd1c)" style="fill: none; stroke: #cccccc; stroke-opacity: 0.2; stroke-width: 0.4; stroke-linecap: round"/>
     </g>
     <g id="text_1">
      <!-- 0 -->
      <g style="fill: #838383" transform="translate(76.314645 205.957716) scale(0.1375 -0.1375)">
       <defs>
        <path id="DejaVuSans-30" d="M 2034 4250 
Q 1547 4250 1301 3770 
Q 1056 3291 1056 2328 
Q 1056 1369 1301 889 
Q 1547 409 2034 409 
Q 2525 409 2770 889 
Q 3016 1369 3016 2328 
Q 3016 3291 2770 3770 
Q 2525 4250 2034 4250 
z
M 2034 4750 
Q 2819 4750 3233 4129 
Q 3647 3509 3647 2328 
Q 3647 1150 3233 529 
Q 2819 -91 2034 -91 
Q 1250 -91 836 529 
Q 422 1150 422 2328 
Q 422 3509 836 4129 
Q 1250 4750 2034 4750 
z
" transform="scale(0.015625)"/>
       </defs>
       <use xlink:href="#DejaVuSans-30"/>
      </g>
     </g>
    </g>
    <g id="xtick_2">
     <g id="line2d_2">
      <path d="M 141.533105 192.009865 
L 141.533105 28.442513 
" clip-path="url(#pda068fcd1c)" style="fill: none; stroke: #cccccc; stroke-opacity: 0.2; stroke-width: 0.4; stroke-linecap: round"/>
     </g>
     <g id="text_2">
      <!-- 50 -->
      <g style="fill: #838383" transform="translate(132.784668 205.957716) scale(0.1375 -0.1375)">
       <defs>
        <path id="DejaVuSans-35" d="M 691 4666 
L 3169 4666 
L 3169 4134 
L 1269 4134 
L 1269 2991 
Q 1406 3038 1543 3061 
Q 1681 3084 1819 3084 
Q 2600 3084 3056 2656 
Q 3513 2228 3513 1497 
Q 3513 744 3044 326 
Q 2575 -91 1722 -91 
Q 1428 -91 1123 -41 
Q 819 9 494 109 
L 494 744 
Q 775 591 1075 516 
Q 1375 441 1709 441 
Q 2250 441 2565 725 
Q 2881 1009 2881 1497 
Q 2881 1984 2565 2268 
Q 2250 2553 1709 2553 
Q 1456 2553 1204 2497 
Q 953 2441 691 2322 
L 691 4666 
z
" transform="scale(0.015625)"/>
       </defs>
       <use xlink:href="#DejaVuSans-35"/>
       <use xlink:href="#DejaVuSans-30" x="63.623047"/>
      </g>
     </g>
    </g>
    <g id="xtick_3">
     <g id="line2d_3">
      <path d="M 202.377347 192.009865 
L 202.377347 28.442513 
" clip-path="url(#pda068fcd1c)" style="fill: none; stroke: #cccccc; stroke-opacity: 0.2; stroke-width: 0.4; stroke-linecap: round"/>
     </g>
     <g id="text_3">
      <!-- 100 -->
      <g style="fill: #838383" transform="translate(189.25469 205.957716) scale(0.1375 -0.1375)">
       <defs>
        <path id="DejaVuSans-31" d="M 794 531 
L 1825 531 
L 1825 4091 
L 703 3866 
L 703 4441 
L 1819 4666 
L 2450 4666 
L 2450 531 
L 3481 531 
L 3481 0 
L 794 0 
L 794 531 
z
" transform="scale(0.015625)"/>
       </defs>
       <use xlink:href="#DejaVuSans-31"/>
       <use xlink:href="#DejaVuSans-30" x="63.623047"/>
       <use xlink:href="#DejaVuSans-30" x="127.246094"/>
      </g>
     </g>
    </g>
    <g id="xtick_4">
     <g id="line2d_4">
      <path d="M 263.221588 192.009865 
L 263.221588 28.442513 
" clip-path="url(#pda068fcd1c)" style="fill: none; stroke: #cccccc; stroke-opacity: 0.2; stroke-width: 0.4; stroke-linecap: round"/>
     </g>
     <g id="text_4">
      <!-- 150 -->
      <g style="fill: #838383" transform="translate(250.098932 205.957716) scale(0.1375 -0.1375)">
       <use xlink:href="#DejaVuSans-31"/>
       <use xlink:href="#DejaVuSans-35" x="63.623047"/>
       <use xlink:href="#DejaVuSans-30" x="127.246094"/>
      </g>
     </g>
    </g>
    <g id="xtick_5">
     <g id="line2d_5">
      <path d="M 324.06583 192.009865 
L 324.06583 28.442513 
" clip-path="url(#pda068fcd1c)" style="fill: none; stroke: #cccccc; stroke-opacity: 0.2; stroke-width: 0.4; stroke-linecap: round"/>
     </g>
     <g id="text_5">
      <!-- 200 -->
      <g style="fill: #838383" transform="translate(310.943174 205.957716) scale(0.1375 -0.1375)">
       <defs>
        <path id="DejaVuSans-32" d="M 1228 531 
L 3431 531 
L 3431 0 
L 469 0 
L 469 531 
Q 828 903 1448 1529 
Q 2069 2156 2228 2338 
Q 2531 2678 2651 2914 
Q 2772 3150 2772 3378 
Q 2772 3750 2511 3984 
Q 2250 4219 1831 4219 
Q 1534 4219 1204 4116 
Q 875 4013 500 3803 
L 500 4441 
Q 881 4594 1212 4672 
Q 1544 4750 1819 4750 
Q 2544 4750 2975 4387 
Q 3406 4025 3406 3419 
Q 3406 3131 3298 2873 
Q 3191 2616 2906 2266 
Q 2828 2175 2409 1742 
Q 1991 1309 1228 531 
z
" transform="scale(0.015625)"/>
       </defs>
       <use xlink:href="#DejaVuSans-32"/>
       <use xlink:href="#DejaVuSans-30" x="63.623047"/>
       <use xlink:href="#DejaVuSans-30" x="127.246094"/>
      </g>
     </g>
    </g>
    <g id="text_6">
     <!-- draw -->
     <g style="fill: #838383" transform="translate(183.194685 224.214943) scale(0.15 -0.15)">
      <defs>
       <path id="DejaVuSans-64" d="M 2906 2969 
L 2906 4863 
L 3481 4863 
L 3481 0 
L 2906 0 
L 2906 525 
Q 2725 213 2448 61 
Q 2172 -91 1784 -91 
Q 1150 -91 751 415 
Q 353 922 353 1747 
Q 353 2572 751 3078 
Q 1150 3584 1784 3584 
Q 2172 3584 2448 3432 
Q 2725 3281 2906 2969 
z
M 947 1747 
Q 947 1113 1208 752 
Q 1469 391 1925 391 
Q 2381 391 2643 752 
Q 2906 1113 2906 1747 
Q 2906 2381 2643 2742 
Q 2381 3103 1925 3103 
Q 1469 3103 1208 2742 
Q 947 2381 947 1747 
z
" transform="scale(0.015625)"/>
       <path id="DejaVuSans-72" d="M 2631 2963 
Q 2534 3019 2420 3045 
Q 2306 3072 2169 3072 
Q 1681 3072 1420 2755 
Q 1159 2438 1159 1844 
L 1159 0 
L 581 0 
L 581 3500 
L 1159 3500 
L 1159 2956 
Q 1341 3275 1631 3429 
Q 1922 3584 2338 3584 
Q 2397 3584 2469 3576 
Q 2541 3569 2628 3553 
L 2631 2963 
z
" transform="scale(0.015625)"/>
       <path id="DejaVuSans-61" d="M 2194 1759 
Q 1497 1759 1228 1600 
Q 959 1441 959 1056 
Q 959 750 1161 570 
Q 1363 391 1709 391 
Q 2188 391 2477 730 
Q 2766 1069 2766 1631 
L 2766 1759 
L 2194 1759 
z
M 3341 1997 
L 3341 0 
L 2766 0 
L 2766 531 
Q 2569 213 2275 61 
Q 1981 -91 1556 -91 
Q 1019 -91 701 211 
Q 384 513 384 1019 
Q 384 1609 779 1909 
Q 1175 2209 1959 2209 
L 2766 2209 
L 2766 2266 
Q 2766 2663 2505 2880 
Q 2244 3097 1772 3097 
Q 1472 3097 1187 3025 
Q 903 2953 641 2809 
L 641 3341 
Q 956 3463 1253 3523 
Q 1550 3584 1831 3584 
Q 2591 3584 2966 3190 
Q 3341 2797 3341 1997 
z
" transform="scale(0.015625)"/>
       <path id="DejaVuSans-77" d="M 269 3500 
L 844 3500 
L 1563 769 
L 2278 3500 
L 2956 3500 
L 3675 769 
L 4391 3500 
L 4966 3500 
L 4050 0 
L 3372 0 
L 2619 2869 
L 1863 0 
L 1184 0 
L 269 3500 
z
" transform="scale(0.015625)"/>
      </defs>
      <use xlink:href="#DejaVuSans-64"/>
      <use xlink:href="#DejaVuSans-72" x="63.476562"/>
      <use xlink:href="#DejaVuSans-61" x="104.589844"/>
      <use xlink:href="#DejaVuSans-77" x="165.869141"/>
     </g>
    </g>
   </g>
   <g id="matplotlib.axis_2">
    <g id="ytick_1">
     <g id="line2d_6">
      <path d="M 68.580859 169.999275 
L 334.956949 169.999275 
" clip-path="url(#pda068fcd1c)" style="fill: none; stroke: #cccccc; stroke-opacity: 0.2; stroke-width: 0.4; stroke-linecap: round"/>
     </g>
     <g id="text_7">
      <!-- 0.018 -->
      <g style="fill: #838383" transform="translate(25.717188 175.223201) scale(0.1375 -0.1375)">
       <defs>
        <path id="DejaVuSans-2e" d="M 684 794 
L 1344 794 
L 1344 0 
L 684 0 
L 684 794 
z
" transform="scale(0.015625)"/>
        <path id="DejaVuSans-38" d="M 2034 2216 
Q 1584 2216 1326 1975 
Q 1069 1734 1069 1313 
Q 1069 891 1326 650 
Q 1584 409 2034 409 
Q 2484 409 2743 651 
Q 3003 894 3003 1313 
Q 3003 1734 2745 1975 
Q 2488 2216 2034 2216 
z
M 1403 2484 
Q 997 2584 770 2862 
Q 544 3141 544 3541 
Q 544 4100 942 4425 
Q 1341 4750 2034 4750 
Q 2731 4750 3128 4425 
Q 3525 4100 3525 3541 
Q 3525 3141 3298 2862 
Q 3072 2584 2669 2484 
Q 3125 2378 3379 2068 
Q 3634 1759 3634 1313 
Q 3634 634 3220 271 
Q 2806 -91 2034 -91 
Q 1263 -91 848 271 
Q 434 634 434 1313 
Q 434 1759 690 2068 
Q 947 2378 1403 2484 
z
M 1172 3481 
Q 1172 3119 1398 2916 
Q 1625 2713 2034 2713 
Q 2441 2713 2670 2916 
Q 2900 3119 2900 3481 
Q 2900 3844 2670 4047 
Q 2441 4250 2034 4250 
Q 1625 4250 1398 4047 
Q 1172 3844 1172 3481 
z
" transform="scale(0.015625)"/>
       </defs>
       <use xlink:href="#DejaVuSans-30"/>
       <use xlink:href="#DejaVuSans-2e" x="63.623047"/>
       <use xlink:href="#DejaVuSans-30" x="95.410156"/>
       <use xlink:href="#DejaVuSans-31" x="159.033203"/>
       <use xlink:href="#DejaVuSans-38" x="222.65625"/>
      </g>
     </g>
    </g>
    <g id="ytick_2">
     <g id="line2d_7">
      <path d="M 68.580859 134.470897 
L 334.956949 134.470897 
" clip-path="url(#pda068fcd1c)" style="fill: none; stroke: #cccccc; stroke-opacity: 0.2; stroke-width: 0.4; stroke-linecap: round"/>
     </g>
     <g id="text_8">
      <!-- 0.020 -->
      <g style="fill: #838383" transform="translate(25.717188 139.694823) scale(0.1375 -0.1375)">
       <use xlink:href="#DejaVuSans-30"/>
       <use xlink:href="#DejaVuSans-2e" x="63.623047"/>
       <use xlink:href="#DejaVuSans-30" x="95.410156"/>
       <use xlink:href="#DejaVuSans-32" x="159.033203"/>
       <use xlink:href="#DejaVuSans-30" x="222.65625"/>
      </g>
     </g>
    </g>
    <g id="ytick_3">
     <g id="line2d_8">
      <path d="M 68.580859 98.94252 
L 334.956949 98.94252 
" clip-path="url(#pda068fcd1c)" style="fill: none; stroke: #cccccc; stroke-opacity: 0.2; stroke-width: 0.4; stroke-linecap: round"/>
     </g>
     <g id="text_9">
      <!-- 0.022 -->
      <g style="fill: #838383" transform="translate(25.717188 104.166446) scale(0.1375 -0.1375)">
       <use xlink:href="#DejaVuSans-30"/>
       <use xlink:href="#DejaVuSans-2e" x="63.623047"/>
       <use xlink:href="#DejaVuSans-30" x="95.410156"/>
       <use xlink:href="#DejaVuSans-32" x="159.033203"/>
       <use xlink:href="#DejaVuSans-32" x="222.65625"/>
      </g>
     </g>
    </g>
    <g id="ytick_4">
     <g id="line2d_9">
      <path d="M 68.580859 63.414142 
L 334.956949 63.414142 
" clip-path="url(#pda068fcd1c)" style="fill: none; stroke: #cccccc; stroke-opacity: 0.2; stroke-width: 0.4; stroke-linecap: round"/>
     </g>
     <g id="text_10">
      <!-- 0.024 -->
      <g style="fill: #838383" transform="translate(25.717188 68.638068) scale(0.1375 -0.1375)">
       <defs>
        <path id="DejaVuSans-34" d="M 2419 4116 
L 825 1625 
L 2419 1625 
L 2419 4116 
z
M 2253 4666 
L 3047 4666 
L 3047 1625 
L 3713 1625 
L 3713 1100 
L 3047 1100 
L 3047 0 
L 2419 0 
L 2419 1100 
L 313 1100 
L 313 1709 
L 2253 4666 
z
" transform="scale(0.015625)"/>
       </defs>
       <use xlink:href="#DejaVuSans-30"/>
       <use xlink:href="#DejaVuSans-2e" x="63.623047"/>
       <use xlink:href="#DejaVuSans-30" x="95.410156"/>
       <use xlink:href="#DejaVuSans-32" x="159.033203"/>
       <use xlink:href="#DejaVuSans-34" x="222.65625"/>
      </g>
     </g>
    </g>
    <g id="text_11">
     <!-- dt -->
     <g style="fill: #838383" transform="translate(18.597656 117.927751) rotate(-90) scale(0.15 -0.15)">
      <defs>
       <path id="DejaVuSans-74" d="M 1172 4494 
L 1172 3500 
L 2356 3500 
L 2356 3053 
L 1172 3053 
L 1172 1153 
Q 1172 725 1289 603 
Q 1406 481 1766 481 
L 2356 481 
L 2356 0 
L 1766 0 
Q 1100 0 847 248 
Q 594 497 594 1153 
L 594 3053 
L 172 3053 
L 172 3500 
L 594 3500 
L 594 4494 
L 1172 4494 
z
" transform="scale(0.015625)"/>
      </defs>
      <use xlink:href="#DejaVuSans-64"/>
      <use xlink:href="#DejaVuSans-74" x="63.476562"/>
     </g>
    </g>
   </g>
   <g id="line2d_10">
    <path d="M 80.688863 165.494902 
L 81.905748 162.110887 
L 84.339518 163.123126 
L 85.556403 159.476522 
L 86.773288 164.601251 
L 89.207057 162.733478 
L 90.423942 164.478427 
L 92.857712 164.207367 
L 94.074597 164.414897 
L 95.291481 159.078403 
L 97.725251 164.673251 
L 98.942136 163.10195 
L 100.159021 164.317485 
L 101.375906 163.601717 
L 102.59279 164.063366 
L 103.809675 156.986158 
L 106.243445 163.43654 
L 107.46033 162.000769 
L 108.677215 165.660079 
L 112.327869 162.077004 
L 113.544754 164.52925 
L 114.761639 162.826655 
L 115.978524 155.173445 
L 117.195408 156.376273 
L 118.412293 162.754654 
L 119.629178 160.060995 
L 120.846063 163.673717 
L 122.062948 152.382374 
L 123.279833 162.119357 
L 124.496717 161.861003 
L 125.713602 159.340992 
L 126.930487 165.122194 
L 128.147372 160.717469 
L 129.364257 161.666179 
L 130.581142 160.459115 
L 131.798026 162.991832 
L 133.014911 162.199828 
L 135.448681 164.694427 
L 136.665566 164.770663 
L 137.882451 159.908524 
L 139.099335 169.586214 
L 140.31622 164.580074 
L 141.533105 170.331629 
L 142.74999 160.755587 
L 143.966875 168.599386 
L 146.400644 156.702392 
L 147.617529 162.792772 
L 148.834414 157.629926 
L 150.051299 161.41206 
L 151.268184 156.244979 
L 152.485069 159.086874 
L 153.701953 169.205035 
L 154.918838 147.482117 
L 156.135723 182.461564 
L 158.569493 170.628101 
L 159.786378 181.432383 
L 161.003262 181.436618 
L 163.437032 177.925544 
L 167.087687 180.860616 
L 168.304571 183.456863 
L 169.521456 182.245563 
L 170.738341 171.500575 
L 171.955226 181.614502 
L 173.172111 153.284495 
L 174.388995 175.214944 
L 175.60588 172.271402 
L 180.47342 179.484139 
L 181.690304 176.887893 
L 182.907189 164.567368 
L 184.124074 181.131676 
L 185.340959 177.518954 
L 186.557844 182.033798 
L 188.991613 177.616366 
L 190.208498 177.362248 
L 191.425383 180.71238 
L 192.642268 178.5439 
L 193.859153 163.224774 
L 195.076038 164.105719 
L 196.292922 35.877393 
L 197.509807 163.351833 
L 198.726692 161.420531 
L 199.943577 162.877478 
L 201.160462 183.033331 
L 202.377347 183.617804 
L 203.594231 180.526026 
L 204.811116 173.605525 
L 206.028001 182.148151 
L 207.244886 177.226718 
L 209.678656 184.015924 
L 210.89554 177.518954 
L 212.112425 182.571682 
L 213.32931 182.906272 
L 214.546195 178.522723 
L 218.196849 177.701073 
L 219.413734 174.287411 
L 221.847504 182.440388 
L 223.064389 177.472366 
L 224.281274 177.684131 
L 225.498158 179.945788 
L 226.715043 177.315659 
L 227.931928 180.64885 
L 229.148813 180.199907 
L 230.365698 177.582484 
L 231.582583 184.574985 
L 232.799467 183.812629 
L 235.233237 177.273306 
L 236.450122 183.278979 
L 237.667007 183.994747 
L 238.883892 174.863413 
L 240.100776 179.759435 
L 241.317661 180.271907 
L 242.534546 183.249332 
L 244.968316 175.142944 
L 246.185201 172.949052 
L 247.402085 181.305324 
L 248.61897 176.947187 
L 251.05274 178.433782 
L 252.269625 169.217741 
L 254.703394 175.8333 
L 255.920279 177.45966 
L 257.137164 176.98954 
L 259.570934 179.166491 
L 260.787819 182.26674 
L 262.004703 177.408836 
L 263.221588 183.554275 
L 266.872243 177.688367 
L 268.089128 182.465799 
L 269.306012 176.049301 
L 270.522897 181.944856 
L 271.739782 177.442719 
L 272.956667 177.823897 
L 274.173552 182.26674 
L 275.390437 179.662022 
L 276.607321 181.910973 
L 277.824206 176.934481 
L 280.257976 181.716149 
L 281.474861 180.729321 
L 282.691746 178.378723 
L 283.90863 182.783448 
L 285.125515 177.52319 
L 286.3424 179.217315 
L 287.559285 178.903901 
L 288.77617 41.980478 
L 289.993055 177.887426 
L 291.209939 179.302021 
L 292.426824 176.023889 
L 294.860594 183.211214 
L 296.077479 181.2545 
L 297.294363 176.714245 
L 298.511248 177.175894 
L 299.728133 153.631791 
L 300.945018 163.690658 
L 302.161903 164.652074 
L 304.595672 163.821953 
L 305.812557 160.967352 
L 307.029442 164.262426 
L 308.246327 163.830424 
L 309.463212 161.420531 
L 310.680097 163.677952 
L 311.896981 162.729242 
L 313.113866 160.454879 
L 314.330751 164.067601 
L 316.764521 164.292073 
L 317.981406 164.414897 
L 319.19829 159.019109 
L 320.415175 162.030416 
L 321.63206 161.615355 
L 322.848945 165.054429 
L 322.848945 165.054429 
" clip-path="url(#pda068fcd1c)" style="fill: none; stroke: #023eff; stroke-width: 1.5; stroke-linecap: round"/>
   </g>
   <g id="patch_3">
    <path d="M 68.580859 192.009865 
L 68.580859 28.442513 
" style="fill: none"/>
   </g>
   <g id="patch_4">
    <path d="M 334.956949 192.009865 
L 334.956949 28.442513 
" style="fill: none"/>
   </g>
   <g id="patch_5">
    <path d="M 68.580859 192.009865 
L 334.956949 192.009865 
" style="fill: none"/>
   </g>
   <g id="patch_6">
    <path d="M 68.580859 28.442513 
L 334.956949 28.442513 
" style="fill: none"/>
   </g>
  </g>
  <g id="text_12">
   <!-- hmc: pytorch -->
   <g style="fill: #262626" transform="translate(149.843391 18.14175) scale(0.144 -0.144)">
    <defs>
     <path id="DejaVuSans-68" d="M 3513 2113 
L 3513 0 
L 2938 0 
L 2938 2094 
Q 2938 2591 2744 2837 
Q 2550 3084 2163 3084 
Q 1697 3084 1428 2787 
Q 1159 2491 1159 1978 
L 1159 0 
L 581 0 
L 581 4863 
L 1159 4863 
L 1159 2956 
Q 1366 3272 1645 3428 
Q 1925 3584 2291 3584 
Q 2894 3584 3203 3211 
Q 3513 2838 3513 2113 
z
" transform="scale(0.015625)"/>
     <path id="DejaVuSans-6d" d="M 3328 2828 
Q 3544 3216 3844 3400 
Q 4144 3584 4550 3584 
Q 5097 3584 5394 3201 
Q 5691 2819 5691 2113 
L 5691 0 
L 5113 0 
L 5113 2094 
Q 5113 2597 4934 2840 
Q 4756 3084 4391 3084 
Q 3944 3084 3684 2787 
Q 3425 2491 3425 1978 
L 3425 0 
L 2847 0 
L 2847 2094 
Q 2847 2600 2669 2842 
Q 2491 3084 2119 3084 
Q 1678 3084 1418 2786 
Q 1159 2488 1159 1978 
L 1159 0 
L 581 0 
L 581 3500 
L 1159 3500 
L 1159 2956 
Q 1356 3278 1631 3431 
Q 1906 3584 2284 3584 
Q 2666 3584 2933 3390 
Q 3200 3197 3328 2828 
z
" transform="scale(0.015625)"/>
     <path id="DejaVuSans-63" d="M 3122 3366 
L 3122 2828 
Q 2878 2963 2633 3030 
Q 2388 3097 2138 3097 
Q 1578 3097 1268 2742 
Q 959 2388 959 1747 
Q 959 1106 1268 751 
Q 1578 397 2138 397 
Q 2388 397 2633 464 
Q 2878 531 3122 666 
L 3122 134 
Q 2881 22 2623 -34 
Q 2366 -91 2075 -91 
Q 1284 -91 818 406 
Q 353 903 353 1747 
Q 353 2603 823 3093 
Q 1294 3584 2113 3584 
Q 2378 3584 2631 3529 
Q 2884 3475 3122 3366 
z
" transform="scale(0.015625)"/>
     <path id="DejaVuSans-3a" d="M 750 794 
L 1409 794 
L 1409 0 
L 750 0 
L 750 794 
z
M 750 3309 
L 1409 3309 
L 1409 2516 
L 750 2516 
L 750 3309 
z
" transform="scale(0.015625)"/>
     <path id="DejaVuSans-20" transform="scale(0.015625)"/>
     <path id="DejaVuSans-70" d="M 1159 525 
L 1159 -1331 
L 581 -1331 
L 581 3500 
L 1159 3500 
L 1159 2969 
Q 1341 3281 1617 3432 
Q 1894 3584 2278 3584 
Q 2916 3584 3314 3078 
Q 3713 2572 3713 1747 
Q 3713 922 3314 415 
Q 2916 -91 2278 -91 
Q 1894 -91 1617 61 
Q 1341 213 1159 525 
z
M 3116 1747 
Q 3116 2381 2855 2742 
Q 2594 3103 2138 3103 
Q 1681 3103 1420 2742 
Q 1159 2381 1159 1747 
Q 1159 1113 1420 752 
Q 1681 391 2138 391 
Q 2594 391 2855 752 
Q 3116 1113 3116 1747 
z
" transform="scale(0.015625)"/>
     <path id="DejaVuSans-79" d="M 2059 -325 
Q 1816 -950 1584 -1140 
Q 1353 -1331 966 -1331 
L 506 -1331 
L 506 -850 
L 844 -850 
Q 1081 -850 1212 -737 
Q 1344 -625 1503 -206 
L 1606 56 
L 191 3500 
L 800 3500 
L 1894 763 
L 2988 3500 
L 3597 3500 
L 2059 -325 
z
" transform="scale(0.015625)"/>
     <path id="DejaVuSans-6f" d="M 1959 3097 
Q 1497 3097 1228 2736 
Q 959 2375 959 1747 
Q 959 1119 1226 758 
Q 1494 397 1959 397 
Q 2419 397 2687 759 
Q 2956 1122 2956 1747 
Q 2956 2369 2687 2733 
Q 2419 3097 1959 3097 
z
M 1959 3584 
Q 2709 3584 3137 3096 
Q 3566 2609 3566 1747 
Q 3566 888 3137 398 
Q 2709 -91 1959 -91 
Q 1206 -91 779 398 
Q 353 888 353 1747 
Q 353 2609 779 3096 
Q 1206 3584 1959 3584 
z
" transform="scale(0.015625)"/>
    </defs>
    <use xlink:href="#DejaVuSans-68"/>
    <use xlink:href="#DejaVuSans-6d" x="63.378906"/>
    <use xlink:href="#DejaVuSans-63" x="160.791016"/>
    <use xlink:href="#DejaVuSans-3a" x="215.771484"/>
    <use xlink:href="#DejaVuSans-20" x="249.462891"/>
    <use xlink:href="#DejaVuSans-70" x="281.25"/>
    <use xlink:href="#DejaVuSans-79" x="344.726562"/>
    <use xlink:href="#DejaVuSans-74" x="403.90625"/>
    <use xlink:href="#DejaVuSans-6f" x="443.115234"/>
    <use xlink:href="#DejaVuSans-72" x="504.296875"/>
    <use xlink:href="#DejaVuSans-63" x="543.160156"/>
    <use xlink:href="#DejaVuSans-68" x="598.140625"/>
   </g>
  </g>
 </g>
 <defs>
  <clipPath id="pda068fcd1c">
   <rect x="68.580859" y="28.442513" width="266.37609" height="163.567352"/>
  </clipPath>
 </defs>
</svg>
