<?xml version="1.0" encoding="utf-8" standalone="no"?>
<!DOCTYPE svg PUBLIC "-//W3C//DTD SVG 1.1//EN"
  "http://www.w3.org/Graphics/SVG/1.1/DTD/svg11.dtd">
<svg xmlns:xlink="http://www.w3.org/1999/xlink" width="326.647257pt" height="234.534474pt" viewBox="0 0 326.647257 234.534474" xmlns="http://www.w3.org/2000/svg" version="1.1">
 <metadata>
  <rdf:RDF xmlns:dc="http://purl.org/dc/elements/1.1/" xmlns:cc="http://creativecommons.org/ns#" xmlns:rdf="http://www.w3.org/1999/02/22-rdf-syntax-ns#">
   <cc:Work>
    <dc:type rdf:resource="http://purl.org/dc/dcmitype/StillImage"/>
    <dc:date>2023-12-05T12:05:32.635572</dc:date>
    <dc:format>image/svg+xml</dc:format>
    <dc:creator>
     <cc:Agent>
      <dc:title>Matplotlib v3.8.2, https://matplotlib.org/</dc:title>
     </cc:Agent>
    </dc:creator>
   </cc:Work>
  </rdf:RDF>
 </metadata>
 <defs>
  <style type="text/css">*{stroke-linejoin: round; stroke-linecap: butt}</style>
 </defs>
 <g id="figure_1">
  <g id="patch_1">
   <path d="M 0 234.534474 
L 326.647257 234.534474 
L 326.647257 0 
L 0 0 
L 0 234.534474 
z
" style="fill: none"/>
  </g>
  <g id="axes_1">
   <g id="patch_2">
    <path d="M 51.083984 192.009865 
L 317.460074 192.009865 
L 317.460074 28.442513 
L 51.083984 28.442513 
L 51.083984 192.009865 
z
" style="fill: none"/>
   </g>
   <g id="matplotlib.axis_1">
    <g id="xtick_1">
     <g id="text_1">
      <!-- 0 -->
      <g style="fill: #838383" transform="translate(58.81777 205.957716) scale(0.1375 -0.1375)">
       <defs>
        <path id="DejaVuSans-30" d="M 2034 4250 
Q 1547 4250 1301 3770 
Q 1056 3291 1056 2328 
Q 1056 1369 1301 889 
Q 1547 409 2034 409 
Q 2525 409 2770 889 
Q 3016 1369 3016 2328 
Q 3016 3291 2770 3770 
Q 2525 4250 2034 4250 
z
M 2034 4750 
Q 2819 4750 3233 4129 
Q 3647 3509 3647 2328 
Q 3647 1150 3233 529 
Q 2819 -91 2034 -91 
Q 1250 -91 836 529 
Q 422 1150 422 2328 
Q 422 3509 836 4129 
Q 1250 4750 2034 4750 
z
" transform="scale(0.015625)"/>
       </defs>
       <use xlink:href="#DejaVuSans-30"/>
      </g>
     </g>
    </g>
    <g id="xtick_2">
     <g id="text_2">
      <!-- 50 -->
      <g style="fill: #838383" transform="translate(103.070073 205.957716) scale(0.1375 -0.1375)">
       <defs>
        <path id="DejaVuSans-35" d="M 691 4666 
L 3169 4666 
L 3169 4134 
L 1269 4134 
L 1269 2991 
Q 1406 3038 1543 3061 
Q 1681 3084 1819 3084 
Q 2600 3084 3056 2656 
Q 3513 2228 3513 1497 
Q 3513 744 3044 326 
Q 2575 -91 1722 -91 
Q 1428 -91 1123 -41 
Q 819 9 494 109 
L 494 744 
Q 775 591 1075 516 
Q 1375 441 1709 441 
Q 2250 441 2565 725 
Q 2881 1009 2881 1497 
Q 2881 1984 2565 2268 
Q 2250 2553 1709 2553 
Q 1456 2553 1204 2497 
Q 953 2441 691 2322 
L 691 4666 
z
" transform="scale(0.015625)"/>
       </defs>
       <use xlink:href="#DejaVuSans-35"/>
       <use xlink:href="#DejaVuSans-30" x="63.623047"/>
      </g>
     </g>
    </g>
    <g id="xtick_3">
     <g id="text_3">
      <!-- 100 -->
      <g style="fill: #838383" transform="translate(147.322377 205.957716) scale(0.1375 -0.1375)">
       <defs>
        <path id="DejaVuSans-31" d="M 794 531 
L 1825 531 
L 1825 4091 
L 703 3866 
L 703 4441 
L 1819 4666 
L 2450 4666 
L 2450 531 
L 3481 531 
L 3481 0 
L 794 0 
L 794 531 
z
" transform="scale(0.015625)"/>
       </defs>
       <use xlink:href="#DejaVuSans-31"/>
       <use xlink:href="#DejaVuSans-30" x="63.623047"/>
       <use xlink:href="#DejaVuSans-30" x="127.246094"/>
      </g>
     </g>
    </g>
    <g id="xtick_4">
     <g id="text_4">
      <!-- 150 -->
      <g style="fill: #838383" transform="translate(195.948899 205.957716) scale(0.1375 -0.1375)">
       <use xlink:href="#DejaVuSans-31"/>
       <use xlink:href="#DejaVuSans-35" x="63.623047"/>
       <use xlink:href="#DejaVuSans-30" x="127.246094"/>
      </g>
     </g>
    </g>
    <g id="xtick_5">
     <g id="text_5">
      <!-- 200 -->
      <g style="fill: #838383" transform="translate(244.575422 205.957716) scale(0.1375 -0.1375)">
       <defs>
        <path id="DejaVuSans-32" d="M 1228 531 
L 3431 531 
L 3431 0 
L 469 0 
L 469 531 
Q 828 903 1448 1529 
Q 2069 2156 2228 2338 
Q 2531 2678 2651 2914 
Q 2772 3150 2772 3378 
Q 2772 3750 2511 3984 
Q 2250 4219 1831 4219 
Q 1534 4219 1204 4116 
Q 875 4013 500 3803 
L 500 4441 
Q 881 4594 1212 4672 
Q 1544 4750 1819 4750 
Q 2544 4750 2975 4387 
Q 3406 4025 3406 3419 
Q 3406 3131 3298 2873 
Q 3191 2616 2906 2266 
Q 2828 2175 2409 1742 
Q 1991 1309 1228 531 
z
" transform="scale(0.015625)"/>
       </defs>
       <use xlink:href="#DejaVuSans-32"/>
       <use xlink:href="#DejaVuSans-30" x="63.623047"/>
       <use xlink:href="#DejaVuSans-30" x="127.246094"/>
      </g>
     </g>
    </g>
    <g id="xtick_6">
     <g id="text_6">
      <!-- 250 -->
      <g style="fill: #838383" transform="translate(293.201944 205.957716) scale(0.1375 -0.1375)">
       <use xlink:href="#DejaVuSans-32"/>
       <use xlink:href="#DejaVuSans-35" x="63.623047"/>
       <use xlink:href="#DejaVuSans-30" x="127.246094"/>
      </g>
     </g>
    </g>
    <g id="text_7">
     <!-- draw -->
     <g style="fill: #838383" transform="translate(165.69781 224.214943) scale(0.15 -0.15)">
      <defs>
       <path id="DejaVuSans-64" d="M 2906 2969 
L 2906 4863 
L 3481 4863 
L 3481 0 
L 2906 0 
L 2906 525 
Q 2725 213 2448 61 
Q 2172 -91 1784 -91 
Q 1150 -91 751 415 
Q 353 922 353 1747 
Q 353 2572 751 3078 
Q 1150 3584 1784 3584 
Q 2172 3584 2448 3432 
Q 2725 3281 2906 2969 
z
M 947 1747 
Q 947 1113 1208 752 
Q 1469 391 1925 391 
Q 2381 391 2643 752 
Q 2906 1113 2906 1747 
Q 2906 2381 2643 2742 
Q 2381 3103 1925 3103 
Q 1469 3103 1208 2742 
Q 947 2381 947 1747 
z
" transform="scale(0.015625)"/>
       <path id="DejaVuSans-72" d="M 2631 2963 
Q 2534 3019 2420 3045 
Q 2306 3072 2169 3072 
Q 1681 3072 1420 2755 
Q 1159 2438 1159 1844 
L 1159 0 
L 581 0 
L 581 3500 
L 1159 3500 
L 1159 2956 
Q 1341 3275 1631 3429 
Q 1922 3584 2338 3584 
Q 2397 3584 2469 3576 
Q 2541 3569 2628 3553 
L 2631 2963 
z
" transform="scale(0.015625)"/>
       <path id="DejaVuSans-61" d="M 2194 1759 
Q 1497 1759 1228 1600 
Q 959 1441 959 1056 
Q 959 750 1161 570 
Q 1363 391 1709 391 
Q 2188 391 2477 730 
Q 2766 1069 2766 1631 
L 2766 1759 
L 2194 1759 
z
M 3341 1997 
L 3341 0 
L 2766 0 
L 2766 531 
Q 2569 213 2275 61 
Q 1981 -91 1556 -91 
Q 1019 -91 701 211 
Q 384 513 384 1019 
Q 384 1609 779 1909 
Q 1175 2209 1959 2209 
L 2766 2209 
L 2766 2266 
Q 2766 2663 2505 2880 
Q 2244 3097 1772 3097 
Q 1472 3097 1187 3025 
Q 903 2953 641 2809 
L 641 3341 
Q 956 3463 1253 3523 
Q 1550 3584 1831 3584 
Q 2591 3584 2966 3190 
Q 3341 2797 3341 1997 
z
" transform="scale(0.015625)"/>
       <path id="DejaVuSans-77" d="M 269 3500 
L 844 3500 
L 1563 769 
L 2278 3500 
L 2956 3500 
L 3675 769 
L 4391 3500 
L 4966 3500 
L 4050 0 
L 3372 0 
L 2619 2869 
L 1863 0 
L 1184 0 
L 269 3500 
z
" transform="scale(0.015625)"/>
      </defs>
      <use xlink:href="#DejaVuSans-64"/>
      <use xlink:href="#DejaVuSans-72" x="63.476562"/>
      <use xlink:href="#DejaVuSans-61" x="104.589844"/>
      <use xlink:href="#DejaVuSans-77" x="165.869141"/>
     </g>
    </g>
   </g>
   <g id="matplotlib.axis_2">
    <g id="ytick_1">
     <g id="text_8">
      <!-- 0.0 -->
      <g style="fill: #838383" transform="translate(25.717187 171.698425) scale(0.1375 -0.1375)">
       <defs>
        <path id="DejaVuSans-2e" d="M 684 794 
L 1344 794 
L 1344 0 
L 684 0 
L 684 794 
z
" transform="scale(0.015625)"/>
       </defs>
       <use xlink:href="#DejaVuSans-30"/>
       <use xlink:href="#DejaVuSans-2e" x="63.623047"/>
       <use xlink:href="#DejaVuSans-30" x="95.410156"/>
      </g>
     </g>
    </g>
    <g id="ytick_2">
     <g id="text_9">
      <!-- 0.5 -->
      <g style="fill: #838383" transform="translate(25.717187 112.912701) scale(0.1375 -0.1375)">
       <use xlink:href="#DejaVuSans-30"/>
       <use xlink:href="#DejaVuSans-2e" x="63.623047"/>
       <use xlink:href="#DejaVuSans-35" x="95.410156"/>
      </g>
     </g>
    </g>
    <g id="ytick_3">
     <g id="text_10">
      <!-- 1.0 -->
      <g style="fill: #838383" transform="translate(25.717187 54.126977) scale(0.1375 -0.1375)">
       <use xlink:href="#DejaVuSans-31"/>
       <use xlink:href="#DejaVuSans-2e" x="63.623047"/>
       <use xlink:href="#DejaVuSans-30" x="95.410156"/>
      </g>
     </g>
    </g>
    <g id="text_11">
     <!-- sld -->
     <g style="fill: #838383" transform="translate(18.597656 120.978142) rotate(-90) scale(0.15 -0.15)">
      <defs>
       <path id="DejaVuSans-73" d="M 2834 3397 
L 2834 2853 
Q 2591 2978 2328 3040 
Q 2066 3103 1784 3103 
Q 1356 3103 1142 2972 
Q 928 2841 928 2578 
Q 928 2378 1081 2264 
Q 1234 2150 1697 2047 
L 1894 2003 
Q 2506 1872 2764 1633 
Q 3022 1394 3022 966 
Q 3022 478 2636 193 
Q 2250 -91 1575 -91 
Q 1294 -91 989 -36 
Q 684 19 347 128 
L 347 722 
Q 666 556 975 473 
Q 1284 391 1588 391 
Q 1994 391 2212 530 
Q 2431 669 2431 922 
Q 2431 1156 2273 1281 
Q 2116 1406 1581 1522 
L 1381 1569 
Q 847 1681 609 1914 
Q 372 2147 372 2553 
Q 372 3047 722 3315 
Q 1072 3584 1716 3584 
Q 2034 3584 2315 3537 
Q 2597 3491 2834 3397 
z
" transform="scale(0.015625)"/>
       <path id="DejaVuSans-6c" d="M 603 4863 
L 1178 4863 
L 1178 0 
L 603 0 
L 603 4863 
z
" transform="scale(0.015625)"/>
      </defs>
      <use xlink:href="#DejaVuSans-73"/>
      <use xlink:href="#DejaVuSans-6c" x="52.099609"/>
      <use xlink:href="#DejaVuSans-64" x="79.882812"/>
     </g>
    </g>
   </g>
   <g id="line2d_1">
    <path d="M 63.191988 166.474499 
L 305.35207 166.474499 
L 305.35207 166.474499 
" clip-path="url(#pd63183f448)" style="fill: none; stroke: #440154; stroke-width: 1.5; stroke-linecap: round"/>
   </g>
   <g id="line2d_2">
    <path d="M 63.191988 167.833919 
L 64.164519 151.501878 
L 66.10958 161.78765 
L 68.054641 158.510267 
L 77.779945 157.344018 
L 82.642597 156.866417 
L 88.47778 156.524772 
L 94.312963 156.393534 
L 116.681163 156.060122 
L 143.912016 154.758487 
L 150.719729 153.699459 
L 156.554911 153.49881 
L 158.499972 152.831195 
L 179.895642 146.211902 
L 183.785764 143.872424 
L 185.730825 143.721301 
L 187.675886 142.711297 
L 195.456129 139.859911 
L 198.373721 139.278593 
L 203.236373 138.234037 
L 205.181434 138.995831 
L 207.126495 138.180296 
L 211.016617 137.449855 
L 211.989147 137.621434 
L 213.934208 136.397956 
L 220.741921 134.884235 
L 236.302408 131.882582 
L 243.110121 131.587673 
L 246.027713 130.679619 
L 247.972774 131.347025 
L 252.835426 132.019203 
L 261.5882 130.436059 
L 267.423382 131.368412 
L 269.368443 131.342256 
L 272.286035 132.703893 
L 278.121217 132.904239 
L 281.038809 133.220572 
L 283.9564 132.742902 
L 285.901461 133.534146 
L 295.626765 136.762404 
L 297.571826 136.761286 
L 298.544357 137.17506 
L 300.489418 136.616788 
L 303.407009 137.162952 
L 305.35207 137.387871 
L 305.35207 137.387871 
" clip-path="url(#pd63183f448)" style="fill: none; stroke: #482878; stroke-width: 1.5; stroke-linecap: round"/>
   </g>
   <g id="line2d_3">
    <path d="M 63.191988 169.189763 
L 64.164519 136.212214 
L 66.10958 159.132696 
L 68.054641 152.363727 
L 70.972232 151.358392 
L 75.834884 149.518435 
L 79.725006 149.038052 
L 90.422841 147.213847 
L 93.340432 147.572902 
L 128.351528 146.848617 
L 130.296589 146.188969 
L 133.214181 146.411323 
L 135.159242 146.123285 
L 140.021894 145.730788 
L 165.307685 138.865677 
L 167.252746 137.334153 
L 169.197807 137.541239 
L 175.03299 131.663119 
L 177.950581 130.626475 
L 182.813234 125.969397 
L 184.758294 125.140542 
L 191.566008 117.9386 
L 194.483599 115.450423 
L 199.346251 111.780863 
L 203.236373 108.660481 
L 205.181434 108.913599 
L 207.126495 106.574268 
L 209.071556 104.90585 
L 211.016617 103.530169 
L 211.989147 103.650528 
L 213.934208 100.212835 
L 219.769391 93.360983 
L 221.714451 93.974362 
L 224.632043 91.407543 
L 229.494695 88.039648 
L 230.467225 88.872694 
L 232.412286 87.335799 
L 235.329878 85.865456 
L 237.274939 84.212224 
L 239.22 84.646301 
L 241.16506 82.118733 
L 243.110121 82.714138 
L 245.055182 80.764819 
L 246.027713 80.452109 
L 247.000243 81.531767 
L 249.917834 80.926335 
L 252.835426 80.173612 
L 255.753017 78.851261 
L 257.698078 78.049827 
L 260.615669 74.981117 
L 262.56073 75.905901 
L 263.533261 74.510844 
L 265.478322 76.080214 
L 269.368443 73.04917 
L 270.340974 73.237035 
L 272.286035 74.843806 
L 274.231096 75.019737 
L 277.148687 73.221057 
L 278.121217 72.1803 
L 279.093748 73.778045 
L 280.066278 72.050978 
L 281.038809 72.806896 
L 282.011339 71.204814 
L 282.98387 72.001139 
L 284.928931 70.124197 
L 287.846522 71.806434 
L 288.819052 72.495918 
L 289.791583 71.729769 
L 292.709174 73.421607 
L 293.681705 73.035505 
L 295.626765 74.193965 
L 297.571826 73.161183 
L 298.544357 74.805732 
L 299.516887 72.824247 
L 302.434479 73.697364 
L 305.35207 73.361515 
L 305.35207 73.361515 
" clip-path="url(#pd63183f448)" style="fill: none; stroke: #3e4989; stroke-width: 1.5; stroke-linecap: round"/>
   </g>
   <g id="line2d_4">
    <path d="M 63.191988 170.748542 
L 64.164519 121.599526 
L 66.10958 158.206532 
L 68.054641 146.835637 
L 69.999702 146.14273 
L 74.862354 142.48025 
L 80.697537 141.440241 
L 82.642597 140.473237 
L 86.532719 140.260325 
L 90.422841 139.36574 
L 93.340432 140.274857 
L 119.598754 139.934451 
L 121.543815 139.218348 
L 128.351528 138.658645 
L 130.296589 137.605965 
L 132.24165 138.428605 
L 135.159242 137.337629 
L 138.076833 136.511955 
L 148.774668 132.798169 
L 152.66479 130.405926 
L 153.63732 131.092067 
L 155.582381 129.305126 
L 156.554911 129.805203 
L 157.527442 127.228342 
L 158.499972 128.410835 
L 162.390094 125.358046 
L 165.307685 124.144929 
L 167.252746 121.985677 
L 169.197807 122.231161 
L 175.03299 114.674522 
L 176.978051 113.573817 
L 178.923112 112.459376 
L 180.868173 109.931167 
L 189.620947 100.176339 
L 190.593477 99.522588 
L 193.511068 94.463422 
L 196.42866 93.425475 
L 200.318782 88.147597 
L 201.291312 86.710941 
L 202.263842 87.321166 
L 204.208903 86.163512 
L 205.181434 85.891602 
L 207.126495 82.96829 
L 208.099025 82.242554 
L 210.044086 78.521018 
L 211.989147 78.709584 
L 213.934208 74.365053 
L 219.769391 65.381973 
L 221.714451 66.224353 
L 223.659512 63.612881 
L 227.549634 60.186436 
L 229.494695 58.278078 
L 230.467225 59.489314 
L 232.412286 57.324526 
L 233.384817 57.300973 
L 237.274939 53.38916 
L 239.22 53.958075 
L 241.16506 50.261738 
L 242.137591 51.422076 
L 245.055182 48.93596 
L 246.027713 48.226574 
L 247.972774 49.2 
L 256.725548 45.740261 
L 258.670608 43.425541 
L 259.643139 40.65736 
L 262.56073 42.18188 
L 263.533261 40.21029 
L 265.478322 42.453615 
L 268.395913 39.486748 
L 270.340974 39.443062 
L 272.286035 41.286969 
L 274.231096 41.417735 
L 276.176157 41.167374 
L 278.121217 37.863629 
L 279.093748 40.166618 
L 280.066278 37.759213 
L 281.038809 38.842451 
L 282.011339 36.755359 
L 282.98387 37.961934 
L 284.928931 35.877393 
L 288.819052 39.191159 
L 289.791583 38.274384 
L 292.709174 40.73282 
L 293.681705 40.367686 
L 295.626765 41.781608 
L 297.571826 40.587871 
L 298.544357 42.927847 
L 299.516887 40.226941 
L 301.461948 40.911926 
L 302.434479 41.857433 
L 304.37954 40.870355 
L 305.35207 41.579279 
L 305.35207 41.579279 
" clip-path="url(#pd63183f448)" style="fill: none; stroke: #31688e; stroke-width: 1.5; stroke-linecap: round"/>
   </g>
   <g id="line2d_5">
    <path d="M 63.191988 172.033359 
L 64.164519 105.890958 
L 66.10958 157.376796 
L 68.054641 141.560539 
L 69.027171 141.561814 
L 75.834884 135.445788 
L 77.779945 135.407823 
L 80.697537 134.466738 
L 81.670067 133.203143 
L 83.615128 133.458035 
L 90.422841 132.433564 
L 93.340432 134.303225 
L 95.285493 134.615223 
L 97.230554 135.427795 
L 98.203085 134.156856 
L 99.175615 135.049906 
L 101.120676 134.879175 
L 102.093206 135.959197 
L 105.983328 135.224989 
L 119.598754 135.256977 
L 120.571285 134.048666 
L 123.488876 135.237456 
L 125.433937 133.591996 
L 138.076833 130.829516 
L 151.692259 123.650521 
L 152.66479 122.596691 
L 153.63732 123.242127 
L 155.582381 120.947667 
L 156.554911 121.593142 
L 157.527442 118.355596 
L 158.499972 119.753001 
L 162.390094 116.114244 
L 171.142868 111.110949 
L 173.087929 107.960131 
L 174.06046 107.827505 
L 175.03299 106.125909 
L 176.00552 106.521065 
L 178.923112 104.48932 
L 180.868173 102.56094 
L 187.675886 97.694847 
L 190.593477 95.414606 
L 193.511068 91.411215 
L 197.40119 92.36331 
L 200.318782 89.075262 
L 201.291312 87.786008 
L 202.263842 89.024189 
L 203.236373 88.249042 
L 205.181434 89.954979 
L 206.153964 87.536607 
L 208.099025 87.975443 
L 210.044086 84.484533 
L 211.989147 86.115936 
L 213.934208 82.626028 
L 216.851799 79.727355 
L 217.82433 79.764328 
L 219.769391 76.038356 
L 221.714451 78.082063 
L 223.659512 75.883042 
L 226.577104 73.829951 
L 229.494695 70.241696 
L 230.467225 71.695683 
L 232.412286 69.529087 
L 233.384817 69.834942 
L 235.329878 67.325644 
L 237.274939 64.639132 
L 239.22 65.438652 
L 241.16506 60.689751 
L 242.137591 62.46269 
L 246.027713 58.220348 
L 247.972774 59.30046 
L 249.917834 58.723256 
L 250.890365 58.936258 
L 253.807956 56.294351 
L 254.780487 56.998383 
L 256.725548 54.979217 
L 258.670608 52.314647 
L 259.643139 49.240575 
L 262.56073 50.51308 
L 263.533261 47.893521 
L 265.478322 51.045491 
L 267.423382 48.30778 
L 270.340974 46.837459 
L 272.286035 48.725151 
L 273.258565 49.493949 
L 277.148687 46.462821 
L 278.121217 44.435225 
L 279.093748 47.624968 
L 280.066278 43.966642 
L 281.038809 45.916843 
L 282.011339 42.878302 
L 282.98387 44.798005 
L 284.928931 42.383691 
L 286.873991 43.38882 
L 288.819052 45.206392 
L 289.791583 43.926347 
L 292.709174 46.612284 
L 293.681705 46.034533 
L 295.626765 47.396836 
L 297.571826 45.723344 
L 298.544357 49.285572 
L 299.516887 45.426395 
L 300.489418 46.778509 
L 301.461948 45.96615 
L 302.434479 47.266589 
L 304.37954 45.863935 
L 305.35207 46.811446 
L 305.35207 46.811446 
" clip-path="url(#pd63183f448)" style="fill: none; stroke: #26828e; stroke-width: 1.5; stroke-linecap: round"/>
   </g>
   <g id="line2d_6">
    <path d="M 63.191988 175.172218 
L 64.164519 125.514331 
L 66.10958 160.693338 
L 68.054641 147.588069 
L 69.999702 146.903933 
L 75.834884 142.683963 
L 78.752476 142.630511 
L 84.587658 140.454125 
L 86.532719 140.586857 
L 90.422841 139.256525 
L 93.340432 140.254471 
L 97.230554 140.732474 
L 98.203085 139.784265 
L 99.175615 140.414803 
L 101.120676 140.071247 
L 103.065737 140.374282 
L 106.955859 140.1404 
L 119.598754 139.86822 
L 121.543815 139.273288 
L 129.324059 137.788982 
L 131.26912 138.063168 
L 133.214181 137.811626 
L 135.159242 137.322099 
L 138.076833 136.523364 
L 148.774668 132.840665 
L 152.66479 130.436522 
L 153.63732 131.139944 
L 155.582381 129.329418 
L 156.554911 129.786804 
L 157.527442 127.225328 
L 158.499972 128.402748 
L 162.390094 125.391022 
L 171.142868 120.04729 
L 173.087929 116.892797 
L 174.06046 116.466968 
L 176.00552 114.623124 
L 203.236373 85.881455 
L 205.181434 85.898491 
L 207.126495 82.977799 
L 208.099025 82.244208 
L 210.044086 78.529539 
L 211.989147 78.7369 
L 213.934208 74.345796 
L 219.769391 65.411014 
L 221.714451 66.254585 
L 223.659512 63.606882 
L 227.549634 60.220389 
L 229.494695 58.29627 
L 230.467225 59.482285 
L 232.412286 57.339102 
L 233.384817 57.30995 
L 237.274939 53.431466 
L 239.22 54.004144 
L 241.16506 50.236398 
L 242.137591 51.458314 
L 245.055182 48.951573 
L 246.027713 48.200182 
L 247.972774 49.204247 
L 254.780487 47.484882 
L 256.725548 45.736505 
L 258.670608 43.40826 
L 259.643139 40.665377 
L 262.56073 42.182062 
L 263.533261 40.176961 
L 265.478322 42.465542 
L 268.395913 39.479839 
L 270.340974 39.429747 
L 272.286035 41.266829 
L 274.231096 41.435198 
L 276.176157 41.146126 
L 278.121217 37.914239 
L 279.093748 40.163044 
L 280.066278 37.790972 
L 281.038809 38.844077 
L 282.011339 36.763684 
L 282.98387 37.989153 
L 284.928931 35.881009 
L 288.819052 39.198728 
L 289.791583 38.28149 
L 292.709174 40.736548 
L 293.681705 40.387055 
L 295.626765 41.779898 
L 297.571826 40.622826 
L 298.544357 42.924161 
L 299.516887 40.207515 
L 301.461948 40.905633 
L 302.434479 41.839002 
L 304.37954 40.865408 
L 305.35207 41.595453 
L 305.35207 41.595453 
" clip-path="url(#pd63183f448)" style="fill: none; stroke: #1f9e89; stroke-width: 1.5; stroke-linecap: round"/>
   </g>
   <g id="line2d_7">
    <path d="M 63.191988 178.743251 
L 64.164519 145.325037 
L 66.10958 164.300622 
L 68.054641 153.694141 
L 69.999702 153.494787 
L 75.834884 149.944644 
L 79.725006 149.918533 
L 82.642597 148.846159 
L 91.395371 147.574237 
L 93.340432 147.481688 
L 97.230554 147.876995 
L 100.148145 147.164188 
L 104.038267 147.757729 
L 112.791041 147.314824 
L 119.598754 147.495473 
L 122.516346 147.093424 
L 123.488876 147.665671 
L 125.433937 146.836969 
L 133.214181 146.504371 
L 135.159242 146.119028 
L 138.076833 145.697435 
L 149.747198 143.568865 
L 152.66479 142.711304 
L 153.63732 143.288712 
L 155.582381 142.224847 
L 156.554911 142.553629 
L 157.527442 140.784025 
L 158.499972 141.52524 
L 163.362625 139.377443 
L 165.307685 138.854727 
L 167.252746 137.364104 
L 169.197807 137.545014 
L 175.03299 131.714763 
L 177.950581 130.612158 
L 181.840703 126.829086 
L 195.456129 114.960609 
L 197.40119 113.775088 
L 201.291312 109.69471 
L 202.263842 110.254767 
L 203.236373 108.684255 
L 205.181434 108.913543 
L 207.126495 106.570421 
L 209.071556 104.953307 
L 211.016617 103.519937 
L 211.989147 103.700276 
L 213.934208 100.203221 
L 219.769391 93.408664 
L 221.714451 93.99631 
L 224.632043 91.419863 
L 229.494695 88.048548 
L 230.467225 88.911637 
L 232.412286 87.400326 
L 235.329878 85.923116 
L 237.274939 84.280914 
L 239.22 84.737809 
L 241.16506 82.111817 
L 243.110121 82.745953 
L 245.055182 80.779059 
L 246.027713 80.438984 
L 247.000243 81.549973 
L 249.917834 80.896692 
L 252.835426 80.167866 
L 253.807956 79.41726 
L 254.780487 79.948136 
L 259.643139 74.694918 
L 262.56073 75.907121 
L 263.533261 74.475889 
L 265.478322 76.080788 
L 269.368443 73.049541 
L 270.340974 73.221394 
L 272.286035 74.83431 
L 274.231096 75.036233 
L 277.148687 73.219411 
L 278.121217 72.243076 
L 279.093748 73.801177 
L 280.066278 72.090846 
L 281.038809 72.831508 
L 282.011339 71.194358 
L 282.98387 72.039535 
L 284.928931 70.140784 
L 287.846522 71.863814 
L 288.819052 72.472302 
L 289.791583 71.710707 
L 292.709174 73.445763 
L 293.681705 73.049373 
L 295.626765 74.189816 
L 297.571826 73.186418 
L 298.544357 74.812277 
L 299.516887 72.814857 
L 302.434479 73.672206 
L 305.35207 73.376785 
L 305.35207 73.376785 
" clip-path="url(#pd63183f448)" style="fill: none; stroke: #35b779; stroke-width: 1.5; stroke-linecap: round"/>
   </g>
   <g id="line2d_8">
    <path d="M 63.191988 180.815703 
L 64.164519 164.427398 
L 66.10958 169.477402 
L 69.027171 161.014376 
L 70.972232 160.643593 
L 71.944762 159.680239 
L 72.917293 160.337921 
L 75.834884 158.376033 
L 79.725006 158.323354 
L 81.670067 157.49855 
L 84.587658 157.505704 
L 103.065737 156.265213 
L 108.900919 156.269817 
L 114.736102 156.093483 
L 124.461407 155.766838 
L 137.104302 155.354385 
L 152.66479 153.571166 
L 154.609851 153.407824 
L 165.307685 151.444435 
L 167.252746 150.671262 
L 170.170338 150.065315 
L 174.06046 148.185353 
L 176.978051 146.877115 
L 179.895642 146.193943 
L 183.785764 143.928623 
L 185.730825 143.767599 
L 187.675886 142.739458 
L 194.483599 139.932736 
L 198.373721 139.343816 
L 203.236373 138.22238 
L 205.181434 138.997904 
L 208.099025 137.793991 
L 211.989147 137.655184 
L 213.934208 136.419859 
L 221.714451 134.704674 
L 229.494695 132.89151 
L 231.439756 132.910515 
L 246.027713 130.665025 
L 247.972774 131.369239 
L 251.862895 132.265173 
L 261.5882 130.399163 
L 267.423382 131.457121 
L 269.368443 131.382484 
L 272.286035 132.719973 
L 278.121217 132.948175 
L 281.038809 133.242128 
L 283.9564 132.798418 
L 285.901461 133.588113 
L 295.626765 136.743444 
L 300.489418 136.606659 
L 303.407009 137.160913 
L 305.35207 137.408719 
L 305.35207 137.408719 
" clip-path="url(#pd63183f448)" style="fill: none; stroke: #6ece58; stroke-width: 1.5; stroke-linecap: round"/>
   </g>
   <g id="line2d_9">
    <path d="M 63.191988 183.70505 
L 64.164519 184.574985 
L 68.054641 171.222218 
L 69.999702 169.827832 
L 70.972232 169.883268 
L 71.944762 168.856679 
L 73.889823 168.81295 
L 75.834884 168.257015 
L 82.642597 167.716803 
L 94.312963 166.932066 
L 99.175615 166.990455 
L 102.093206 166.51385 
L 116.681163 166.481676 
L 128.351528 166.449533 
L 170.170338 166.494865 
L 226.577104 166.448538 
L 232.412286 166.555292 
L 246.027713 166.466188 
L 262.56073 166.501894 
L 285.901461 166.530242 
L 305.35207 166.4763 
L 305.35207 166.4763 
" clip-path="url(#pd63183f448)" style="fill: none; stroke: #b5de2b; stroke-width: 1.5; stroke-linecap: round"/>
   </g>
   <g id="patch_3">
    <path d="M 51.083984 192.009865 
L 51.083984 28.442513 
" style="fill: none"/>
   </g>
   <g id="patch_4">
    <path d="M 317.460074 192.009865 
L 317.460074 28.442513 
" style="fill: none"/>
   </g>
   <g id="patch_5">
    <path d="M 51.083984 192.009865 
L 317.460074 192.009865 
" style="fill: none"/>
   </g>
   <g id="patch_6">
    <path d="M 51.083984 28.442513 
L 317.460074 28.442513 
" style="fill: none"/>
   </g>
  </g>
  <g id="text_12">
   <!-- train: tensorflow -->
   <g style="fill: #262626" transform="translate(120.743266 18.14175) scale(0.144 -0.144)">
    <defs>
     <path id="DejaVuSans-74" d="M 1172 4494 
L 1172 3500 
L 2356 3500 
L 2356 3053 
L 1172 3053 
L 1172 1153 
Q 1172 725 1289 603 
Q 1406 481 1766 481 
L 2356 481 
L 2356 0 
L 1766 0 
Q 1100 0 847 248 
Q 594 497 594 1153 
L 594 3053 
L 172 3053 
L 172 3500 
L 594 3500 
L 594 4494 
L 1172 4494 
z
" transform="scale(0.015625)"/>
     <path id="DejaVuSans-69" d="M 603 3500 
L 1178 3500 
L 1178 0 
L 603 0 
L 603 3500 
z
M 603 4863 
L 1178 4863 
L 1178 4134 
L 603 4134 
L 603 4863 
z
" transform="scale(0.015625)"/>
     <path id="DejaVuSans-6e" d="M 3513 2113 
L 3513 0 
L 2938 0 
L 2938 2094 
Q 2938 2591 2744 2837 
Q 2550 3084 2163 3084 
Q 1697 3084 1428 2787 
Q 1159 2491 1159 1978 
L 1159 0 
L 581 0 
L 581 3500 
L 1159 3500 
L 1159 2956 
Q 1366 3272 1645 3428 
Q 1925 3584 2291 3584 
Q 2894 3584 3203 3211 
Q 3513 2838 3513 2113 
z
" transform="scale(0.015625)"/>
     <path id="DejaVuSans-3a" d="M 750 794 
L 1409 794 
L 1409 0 
L 750 0 
L 750 794 
z
M 750 3309 
L 1409 3309 
L 1409 2516 
L 750 2516 
L 750 3309 
z
" transform="scale(0.015625)"/>
     <path id="DejaVuSans-20" transform="scale(0.015625)"/>
     <path id="DejaVuSans-65" d="M 3597 1894 
L 3597 1613 
L 953 1613 
Q 991 1019 1311 708 
Q 1631 397 2203 397 
Q 2534 397 2845 478 
Q 3156 559 3463 722 
L 3463 178 
Q 3153 47 2828 -22 
Q 2503 -91 2169 -91 
Q 1331 -91 842 396 
Q 353 884 353 1716 
Q 353 2575 817 3079 
Q 1281 3584 2069 3584 
Q 2775 3584 3186 3129 
Q 3597 2675 3597 1894 
z
M 3022 2063 
Q 3016 2534 2758 2815 
Q 2500 3097 2075 3097 
Q 1594 3097 1305 2825 
Q 1016 2553 972 2059 
L 3022 2063 
z
" transform="scale(0.015625)"/>
     <path id="DejaVuSans-6f" d="M 1959 3097 
Q 1497 3097 1228 2736 
Q 959 2375 959 1747 
Q 959 1119 1226 758 
Q 1494 397 1959 397 
Q 2419 397 2687 759 
Q 2956 1122 2956 1747 
Q 2956 2369 2687 2733 
Q 2419 3097 1959 3097 
z
M 1959 3584 
Q 2709 3584 3137 3096 
Q 3566 2609 3566 1747 
Q 3566 888 3137 398 
Q 2709 -91 1959 -91 
Q 1206 -91 779 398 
Q 353 888 353 1747 
Q 353 2609 779 3096 
Q 1206 3584 1959 3584 
z
" transform="scale(0.015625)"/>
     <path id="DejaVuSans-66" d="M 2375 4863 
L 2375 4384 
L 1825 4384 
Q 1516 4384 1395 4259 
Q 1275 4134 1275 3809 
L 1275 3500 
L 2222 3500 
L 2222 3053 
L 1275 3053 
L 1275 0 
L 697 0 
L 697 3053 
L 147 3053 
L 147 3500 
L 697 3500 
L 697 3744 
Q 697 4328 969 4595 
Q 1241 4863 1831 4863 
L 2375 4863 
z
" transform="scale(0.015625)"/>
    </defs>
    <use xlink:href="#DejaVuSans-74"/>
    <use xlink:href="#DejaVuSans-72" x="39.208984"/>
    <use xlink:href="#DejaVuSans-61" x="80.322266"/>
    <use xlink:href="#DejaVuSans-69" x="141.601562"/>
    <use xlink:href="#DejaVuSans-6e" x="169.384766"/>
    <use xlink:href="#DejaVuSans-3a" x="232.763672"/>
    <use xlink:href="#DejaVuSans-20" x="266.455078"/>
    <use xlink:href="#DejaVuSans-74" x="298.242188"/>
    <use xlink:href="#DejaVuSans-65" x="337.451172"/>
    <use xlink:href="#DejaVuSans-6e" x="398.974609"/>
    <use xlink:href="#DejaVuSans-73" x="462.353516"/>
    <use xlink:href="#DejaVuSans-6f" x="514.453125"/>
    <use xlink:href="#DejaVuSans-72" x="575.634766"/>
    <use xlink:href="#DejaVuSans-66" x="616.748047"/>
    <use xlink:href="#DejaVuSans-6c" x="651.953125"/>
    <use xlink:href="#DejaVuSans-6f" x="679.736328"/>
    <use xlink:href="#DejaVuSans-77" x="740.917969"/>
   </g>
  </g>
 </g>
 <defs>
  <clipPath id="pd63183f448">
   <rect x="51.083984" y="28.442513" width="266.37609" height="163.567352"/>
  </clipPath>
 </defs>
</svg>
