<?xml version="1.0" encoding="utf-8" standalone="no"?>
<!DOCTYPE svg PUBLIC "-//W3C//DTD SVG 1.1//EN"
  "http://www.w3.org/Graphics/SVG/1.1/DTD/svg11.dtd">
<svg xmlns:xlink="http://www.w3.org/1999/xlink" width="334.043759pt" height="234.534474pt" viewBox="0 0 334.043759 234.534474" xmlns="http://www.w3.org/2000/svg" version="1.1">
 <metadata>
  <rdf:RDF xmlns:dc="http://purl.org/dc/elements/1.1/" xmlns:cc="http://creativecommons.org/ns#" xmlns:rdf="http://www.w3.org/1999/02/22-rdf-syntax-ns#">
   <cc:Work>
    <dc:type rdf:resource="http://purl.org/dc/dcmitype/StillImage"/>
    <dc:date>2023-12-05T11:48:53.999140</dc:date>
    <dc:format>image/svg+xml</dc:format>
    <dc:creator>
     <cc:Agent>
      <dc:title>Matplotlib v3.8.2, https://matplotlib.org/</dc:title>
     </cc:Agent>
    </dc:creator>
   </cc:Work>
  </rdf:RDF>
 </metadata>
 <defs>
  <style type="text/css">*{stroke-linejoin: round; stroke-linecap: butt}</style>
 </defs>
 <g id="figure_1">
  <g id="patch_1">
   <path d="M 0 234.534474 
L 334.043759 234.534474 
L 334.043759 0 
L 0 0 
L 0 234.534474 
z
" style="fill: none"/>
  </g>
  <g id="axes_1">
   <g id="patch_2">
    <path d="M 58.236133 192.009865 
L 324.612222 192.009865 
L 324.612222 28.442513 
L 58.236133 28.442513 
L 58.236133 192.009865 
z
" style="fill: none"/>
   </g>
   <g id="matplotlib.axis_1">
    <g id="xtick_1">
     <g id="line2d_1">
      <path d="M 70.344137 192.009865 
L 70.344137 28.442513 
" clip-path="url(#p6be06bc7d7)" style="fill: none; stroke: #cccccc; stroke-opacity: 0.2; stroke-width: 0.4; stroke-linecap: round"/>
     </g>
     <g id="text_1">
      <!-- 0 -->
      <g style="fill: #838383" transform="translate(65.969918 205.957716) scale(0.1375 -0.1375)">
       <defs>
        <path id="DejaVuSans-30" d="M 2034 4250 
Q 1547 4250 1301 3770 
Q 1056 3291 1056 2328 
Q 1056 1369 1301 889 
Q 1547 409 2034 409 
Q 2525 409 2770 889 
Q 3016 1369 3016 2328 
Q 3016 3291 2770 3770 
Q 2525 4250 2034 4250 
z
M 2034 4750 
Q 2819 4750 3233 4129 
Q 3647 3509 3647 2328 
Q 3647 1150 3233 529 
Q 2819 -91 2034 -91 
Q 1250 -91 836 529 
Q 422 1150 422 2328 
Q 422 3509 836 4129 
Q 1250 4750 2034 4750 
z
" transform="scale(0.015625)"/>
       </defs>
       <use xlink:href="#DejaVuSans-30"/>
      </g>
     </g>
    </g>
    <g id="xtick_2">
     <g id="line2d_2">
      <path d="M 131.188378 192.009865 
L 131.188378 28.442513 
" clip-path="url(#p6be06bc7d7)" style="fill: none; stroke: #cccccc; stroke-opacity: 0.2; stroke-width: 0.4; stroke-linecap: round"/>
     </g>
     <g id="text_2">
      <!-- 50 -->
      <g style="fill: #838383" transform="translate(122.439941 205.957716) scale(0.1375 -0.1375)">
       <defs>
        <path id="DejaVuSans-35" d="M 691 4666 
L 3169 4666 
L 3169 4134 
L 1269 4134 
L 1269 2991 
Q 1406 3038 1543 3061 
Q 1681 3084 1819 3084 
Q 2600 3084 3056 2656 
Q 3513 2228 3513 1497 
Q 3513 744 3044 326 
Q 2575 -91 1722 -91 
Q 1428 -91 1123 -41 
Q 819 9 494 109 
L 494 744 
Q 775 591 1075 516 
Q 1375 441 1709 441 
Q 2250 441 2565 725 
Q 2881 1009 2881 1497 
Q 2881 1984 2565 2268 
Q 2250 2553 1709 2553 
Q 1456 2553 1204 2497 
Q 953 2441 691 2322 
L 691 4666 
z
" transform="scale(0.015625)"/>
       </defs>
       <use xlink:href="#DejaVuSans-35"/>
       <use xlink:href="#DejaVuSans-30" x="63.623047"/>
      </g>
     </g>
    </g>
    <g id="xtick_3">
     <g id="line2d_3">
      <path d="M 192.03262 192.009865 
L 192.03262 28.442513 
" clip-path="url(#p6be06bc7d7)" style="fill: none; stroke: #cccccc; stroke-opacity: 0.2; stroke-width: 0.4; stroke-linecap: round"/>
     </g>
     <g id="text_3">
      <!-- 100 -->
      <g style="fill: #838383" transform="translate(178.909964 205.957716) scale(0.1375 -0.1375)">
       <defs>
        <path id="DejaVuSans-31" d="M 794 531 
L 1825 531 
L 1825 4091 
L 703 3866 
L 703 4441 
L 1819 4666 
L 2450 4666 
L 2450 531 
L 3481 531 
L 3481 0 
L 794 0 
L 794 531 
z
" transform="scale(0.015625)"/>
       </defs>
       <use xlink:href="#DejaVuSans-31"/>
       <use xlink:href="#DejaVuSans-30" x="63.623047"/>
       <use xlink:href="#DejaVuSans-30" x="127.246094"/>
      </g>
     </g>
    </g>
    <g id="xtick_4">
     <g id="line2d_4">
      <path d="M 252.876862 192.009865 
L 252.876862 28.442513 
" clip-path="url(#p6be06bc7d7)" style="fill: none; stroke: #cccccc; stroke-opacity: 0.2; stroke-width: 0.4; stroke-linecap: round"/>
     </g>
     <g id="text_4">
      <!-- 150 -->
      <g style="fill: #838383" transform="translate(239.754205 205.957716) scale(0.1375 -0.1375)">
       <use xlink:href="#DejaVuSans-31"/>
       <use xlink:href="#DejaVuSans-35" x="63.623047"/>
       <use xlink:href="#DejaVuSans-30" x="127.246094"/>
      </g>
     </g>
    </g>
    <g id="xtick_5">
     <g id="line2d_5">
      <path d="M 313.721103 192.009865 
L 313.721103 28.442513 
" clip-path="url(#p6be06bc7d7)" style="fill: none; stroke: #cccccc; stroke-opacity: 0.2; stroke-width: 0.4; stroke-linecap: round"/>
     </g>
     <g id="text_5">
      <!-- 200 -->
      <g style="fill: #838383" transform="translate(300.598447 205.957716) scale(0.1375 -0.1375)">
       <defs>
        <path id="DejaVuSans-32" d="M 1228 531 
L 3431 531 
L 3431 0 
L 469 0 
L 469 531 
Q 828 903 1448 1529 
Q 2069 2156 2228 2338 
Q 2531 2678 2651 2914 
Q 2772 3150 2772 3378 
Q 2772 3750 2511 3984 
Q 2250 4219 1831 4219 
Q 1534 4219 1204 4116 
Q 875 4013 500 3803 
L 500 4441 
Q 881 4594 1212 4672 
Q 1544 4750 1819 4750 
Q 2544 4750 2975 4387 
Q 3406 4025 3406 3419 
Q 3406 3131 3298 2873 
Q 3191 2616 2906 2266 
Q 2828 2175 2409 1742 
Q 1991 1309 1228 531 
z
" transform="scale(0.015625)"/>
       </defs>
       <use xlink:href="#DejaVuSans-32"/>
       <use xlink:href="#DejaVuSans-30" x="63.623047"/>
       <use xlink:href="#DejaVuSans-30" x="127.246094"/>
      </g>
     </g>
    </g>
    <g id="text_6">
     <!-- draw -->
     <g style="fill: #838383" transform="translate(172.849959 224.214943) scale(0.15 -0.15)">
      <defs>
       <path id="DejaVuSans-64" d="M 2906 2969 
L 2906 4863 
L 3481 4863 
L 3481 0 
L 2906 0 
L 2906 525 
Q 2725 213 2448 61 
Q 2172 -91 1784 -91 
Q 1150 -91 751 415 
Q 353 922 353 1747 
Q 353 2572 751 3078 
Q 1150 3584 1784 3584 
Q 2172 3584 2448 3432 
Q 2725 3281 2906 2969 
z
M 947 1747 
Q 947 1113 1208 752 
Q 1469 391 1925 391 
Q 2381 391 2643 752 
Q 2906 1113 2906 1747 
Q 2906 2381 2643 2742 
Q 2381 3103 1925 3103 
Q 1469 3103 1208 2742 
Q 947 2381 947 1747 
z
" transform="scale(0.015625)"/>
       <path id="DejaVuSans-72" d="M 2631 2963 
Q 2534 3019 2420 3045 
Q 2306 3072 2169 3072 
Q 1681 3072 1420 2755 
Q 1159 2438 1159 1844 
L 1159 0 
L 581 0 
L 581 3500 
L 1159 3500 
L 1159 2956 
Q 1341 3275 1631 3429 
Q 1922 3584 2338 3584 
Q 2397 3584 2469 3576 
Q 2541 3569 2628 3553 
L 2631 2963 
z
" transform="scale(0.015625)"/>
       <path id="DejaVuSans-61" d="M 2194 1759 
Q 1497 1759 1228 1600 
Q 959 1441 959 1056 
Q 959 750 1161 570 
Q 1363 391 1709 391 
Q 2188 391 2477 730 
Q 2766 1069 2766 1631 
L 2766 1759 
L 2194 1759 
z
M 3341 1997 
L 3341 0 
L 2766 0 
L 2766 531 
Q 2569 213 2275 61 
Q 1981 -91 1556 -91 
Q 1019 -91 701 211 
Q 384 513 384 1019 
Q 384 1609 779 1909 
Q 1175 2209 1959 2209 
L 2766 2209 
L 2766 2266 
Q 2766 2663 2505 2880 
Q 2244 3097 1772 3097 
Q 1472 3097 1187 3025 
Q 903 2953 641 2809 
L 641 3341 
Q 956 3463 1253 3523 
Q 1550 3584 1831 3584 
Q 2591 3584 2966 3190 
Q 3341 2797 3341 1997 
z
" transform="scale(0.015625)"/>
       <path id="DejaVuSans-77" d="M 269 3500 
L 844 3500 
L 1563 769 
L 2278 3500 
L 2956 3500 
L 3675 769 
L 4391 3500 
L 4966 3500 
L 4050 0 
L 3372 0 
L 2619 2869 
L 1863 0 
L 1184 0 
L 269 3500 
z
" transform="scale(0.015625)"/>
      </defs>
      <use xlink:href="#DejaVuSans-64"/>
      <use xlink:href="#DejaVuSans-72" x="63.476562"/>
      <use xlink:href="#DejaVuSans-61" x="104.589844"/>
      <use xlink:href="#DejaVuSans-77" x="165.869141"/>
     </g>
    </g>
   </g>
   <g id="matplotlib.axis_2">
    <g id="ytick_1">
     <g id="line2d_6">
      <path d="M 58.236133 171.388989 
L 324.612222 171.388989 
" clip-path="url(#p6be06bc7d7)" style="fill: none; stroke: #cccccc; stroke-opacity: 0.2; stroke-width: 0.4; stroke-linecap: round"/>
     </g>
     <g id="text_7">
      <!-- −15 -->
      <g style="fill: #838383" transform="translate(25.717188 176.612915) scale(0.1375 -0.1375)">
       <defs>
        <path id="DejaVuSans-2212" d="M 678 2272 
L 4684 2272 
L 4684 1741 
L 678 1741 
L 678 2272 
z
" transform="scale(0.015625)"/>
       </defs>
       <use xlink:href="#DejaVuSans-2212"/>
       <use xlink:href="#DejaVuSans-31" x="83.789062"/>
       <use xlink:href="#DejaVuSans-35" x="147.412109"/>
      </g>
     </g>
    </g>
    <g id="ytick_2">
     <g id="line2d_7">
      <path d="M 58.236133 120.653642 
L 324.612222 120.653642 
" clip-path="url(#p6be06bc7d7)" style="fill: none; stroke: #cccccc; stroke-opacity: 0.2; stroke-width: 0.4; stroke-linecap: round"/>
     </g>
     <g id="text_8">
      <!-- −10 -->
      <g style="fill: #838383" transform="translate(25.717188 125.877568) scale(0.1375 -0.1375)">
       <use xlink:href="#DejaVuSans-2212"/>
       <use xlink:href="#DejaVuSans-31" x="83.789062"/>
       <use xlink:href="#DejaVuSans-30" x="147.412109"/>
      </g>
     </g>
    </g>
    <g id="ytick_3">
     <g id="line2d_8">
      <path d="M 58.236133 69.918295 
L 324.612222 69.918295 
" clip-path="url(#p6be06bc7d7)" style="fill: none; stroke: #cccccc; stroke-opacity: 0.2; stroke-width: 0.4; stroke-linecap: round"/>
     </g>
     <g id="text_9">
      <!-- −5 -->
      <g style="fill: #838383" transform="translate(34.465625 75.142221) scale(0.1375 -0.1375)">
       <use xlink:href="#DejaVuSans-2212"/>
       <use xlink:href="#DejaVuSans-35" x="83.789062"/>
      </g>
     </g>
    </g>
    <g id="text_10">
     <!-- loss -->
     <g style="fill: #838383" transform="translate(18.597656 124.712908) rotate(-90) scale(0.15 -0.15)">
      <defs>
       <path id="DejaVuSans-6c" d="M 603 4863 
L 1178 4863 
L 1178 0 
L 603 0 
L 603 4863 
z
" transform="scale(0.015625)"/>
       <path id="DejaVuSans-6f" d="M 1959 3097 
Q 1497 3097 1228 2736 
Q 959 2375 959 1747 
Q 959 1119 1226 758 
Q 1494 397 1959 397 
Q 2419 397 2687 759 
Q 2956 1122 2956 1747 
Q 2956 2369 2687 2733 
Q 2419 3097 1959 3097 
z
M 1959 3584 
Q 2709 3584 3137 3096 
Q 3566 2609 3566 1747 
Q 3566 888 3137 398 
Q 2709 -91 1959 -91 
Q 1206 -91 779 398 
Q 353 888 353 1747 
Q 353 2609 779 3096 
Q 1206 3584 1959 3584 
z
" transform="scale(0.015625)"/>
       <path id="DejaVuSans-73" d="M 2834 3397 
L 2834 2853 
Q 2591 2978 2328 3040 
Q 2066 3103 1784 3103 
Q 1356 3103 1142 2972 
Q 928 2841 928 2578 
Q 928 2378 1081 2264 
Q 1234 2150 1697 2047 
L 1894 2003 
Q 2506 1872 2764 1633 
Q 3022 1394 3022 966 
Q 3022 478 2636 193 
Q 2250 -91 1575 -91 
Q 1294 -91 989 -36 
Q 684 19 347 128 
L 347 722 
Q 666 556 975 473 
Q 1284 391 1588 391 
Q 1994 391 2212 530 
Q 2431 669 2431 922 
Q 2431 1156 2273 1281 
Q 2116 1406 1581 1522 
L 1381 1569 
Q 847 1681 609 1914 
Q 372 2147 372 2553 
Q 372 3047 722 3315 
Q 1072 3584 1716 3584 
Q 2034 3584 2315 3537 
Q 2597 3491 2834 3397 
z
" transform="scale(0.015625)"/>
      </defs>
      <use xlink:href="#DejaVuSans-6c"/>
      <use xlink:href="#DejaVuSans-6f" x="27.783203"/>
      <use xlink:href="#DejaVuSans-73" x="88.964844"/>
      <use xlink:href="#DejaVuSans-73" x="141.064453"/>
     </g>
    </g>
   </g>
   <g id="line2d_9">
    <path d="M 70.344137 111.89768 
L 71.561022 71.323652 
L 73.994791 175.484373 
L 75.211676 89.448154 
L 76.428561 132.916462 
L 78.862331 79.206361 
L 80.079216 83.356212 
L 81.2961 96.282874 
L 83.72987 61.270977 
L 86.16364 98.591075 
L 87.380525 99.484862 
L 88.597409 63.508415 
L 91.031179 127.54653 
L 92.248064 110.347938 
L 93.464949 122.545815 
L 94.681834 104.71246 
L 95.898718 149.938701 
L 97.115603 105.654874 
L 98.332488 155.692858 
L 99.549373 102.900238 
L 100.766258 123.777726 
L 101.983143 104.205762 
L 103.200027 111.823806 
L 104.416912 75.194756 
L 106.850682 121.109081 
L 108.067567 83.261711 
L 109.284452 133.123579 
L 110.501336 135.953966 
L 111.718221 93.106524 
L 112.935106 109.053397 
L 114.151991 93.397928 
L 115.368876 46.543459 
L 116.58576 93.741994 
L 117.802645 86.572842 
L 119.01953 111.441584 
L 120.236415 101.675343 
L 122.670185 135.783554 
L 125.103954 61.972085 
L 126.320839 71.478218 
L 127.537724 140.291371 
L 129.971494 75.152173 
L 131.188378 93.721914 
L 133.622148 80.339451 
L 134.839033 109.452844 
L 136.055918 107.588938 
L 137.272803 111.805807 
L 138.489687 98.343 
L 139.706572 108.017358 
L 140.923457 75.842796 
L 143.357227 119.915906 
L 144.574112 118.728171 
L 145.790996 79.847956 
L 147.007881 120.099305 
L 148.224766 105.895637 
L 149.441651 149.426904 
L 151.875421 117.456545 
L 153.092305 77.12017 
L 154.30919 87.533308 
L 155.526075 156.830853 
L 156.74296 80.063395 
L 159.17673 99.524877 
L 160.393614 92.128654 
L 161.610499 126.926893 
L 162.827384 80.753888 
L 165.261154 113.35074 
L 166.478039 60.479698 
L 167.694923 115.78794 
L 168.911808 118.225102 
L 170.128693 163.31664 
L 171.345578 105.106507 
L 172.562463 142.912212 
L 173.779348 94.5218 
L 177.430002 139.641328 
L 179.863772 123.854919 
L 181.080657 140.817509 
L 182.297541 86.964988 
L 183.514426 137.230846 
L 185.948196 82.252942 
L 187.165081 125.074802 
L 188.381966 123.413929 
L 189.59885 101.483022 
L 190.815735 117.641328 
L 192.03262 101.115741 
L 193.249505 143.574564 
L 194.46639 73.680475 
L 195.683275 71.356994 
L 196.900159 89.324564 
L 198.117044 123.411026 
L 200.550814 76.347834 
L 201.767699 72.950118 
L 202.984584 123.19639 
L 205.418353 85.564469 
L 206.635238 134.465507 
L 209.069008 79.943183 
L 210.285893 87.172574 
L 211.502777 59.692639 
L 213.936547 134.372037 
L 216.370317 66.809806 
L 217.587202 84.720708 
L 218.804086 82.777508 
L 220.020971 107.568645 
L 221.237856 99.535439 
L 222.454741 127.612605 
L 223.671626 86.14985 
L 224.888511 154.365154 
L 226.105395 85.738834 
L 227.32228 119.431437 
L 228.539165 123.743518 
L 229.75605 98.018434 
L 230.972935 117.713286 
L 232.18982 114.602856 
L 233.406704 107.698366 
L 234.623589 74.29137 
L 235.840474 84.238987 
L 237.057359 75.973256 
L 238.274244 79.96333 
L 240.708013 126.758058 
L 241.924898 135.443281 
L 243.141783 76.896007 
L 244.358668 95.237129 
L 245.575553 80.955227 
L 246.792437 79.707988 
L 248.009322 81.991861 
L 249.226207 97.29009 
L 250.443092 82.514932 
L 251.659977 39.639413 
L 252.876862 133.374097 
L 254.093746 97.963478 
L 255.310631 125.774923 
L 256.527516 71.649917 
L 257.744401 116.075405 
L 258.961286 111.883078 
L 260.178171 74.687217 
L 261.395055 113.475921 
L 262.61194 86.023232 
L 263.828825 99.410814 
L 266.262595 35.877393 
L 267.47948 113.035521 
L 268.696364 90.77623 
L 269.913249 113.104886 
L 271.130134 58.256468 
L 273.563904 125.178085 
L 274.780789 100.635917 
L 275.997673 106.308787 
L 277.214558 70.155396 
L 278.431443 116.255543 
L 279.648328 89.444012 
L 280.865213 96.767662 
L 282.082098 124.076513 
L 283.298982 94.572135 
L 284.515867 184.574985 
L 286.949637 68.142507 
L 288.166522 100.654826 
L 289.383407 62.799323 
L 290.600291 138.340662 
L 295.467831 70.802091 
L 296.684716 78.281603 
L 297.9016 128.811924 
L 300.33537 87.672018 
L 301.552255 107.650155 
L 303.986025 69.438384 
L 305.202909 104.069868 
L 306.419794 91.781782 
L 307.636679 102.070068 
L 308.853564 121.590811 
L 310.070449 91.718494 
L 311.287334 97.414091 
L 312.504218 128.451707 
L 312.504218 128.451707 
" clip-path="url(#p6be06bc7d7)" style="fill: none; stroke: #023eff; stroke-width: 1.5; stroke-linecap: round"/>
   </g>
   <g id="patch_3">
    <path d="M 58.236133 192.009865 
L 58.236133 28.442513 
" style="fill: none"/>
   </g>
   <g id="patch_4">
    <path d="M 324.612222 192.009865 
L 324.612222 28.442513 
" style="fill: none"/>
   </g>
   <g id="patch_5">
    <path d="M 58.236133 192.009865 
L 324.612222 192.009865 
" style="fill: none"/>
   </g>
   <g id="patch_6">
    <path d="M 58.236133 28.442513 
L 324.612222 28.442513 
" style="fill: none"/>
   </g>
  </g>
  <g id="text_11">
   <!-- eval: pytorch -->
   <g style="fill: #262626" transform="translate(139.929539 18.14175) scale(0.144 -0.144)">
    <defs>
     <path id="DejaVuSans-65" d="M 3597 1894 
L 3597 1613 
L 953 1613 
Q 991 1019 1311 708 
Q 1631 397 2203 397 
Q 2534 397 2845 478 
Q 3156 559 3463 722 
L 3463 178 
Q 3153 47 2828 -22 
Q 2503 -91 2169 -91 
Q 1331 -91 842 396 
Q 353 884 353 1716 
Q 353 2575 817 3079 
Q 1281 3584 2069 3584 
Q 2775 3584 3186 3129 
Q 3597 2675 3597 1894 
z
M 3022 2063 
Q 3016 2534 2758 2815 
Q 2500 3097 2075 3097 
Q 1594 3097 1305 2825 
Q 1016 2553 972 2059 
L 3022 2063 
z
" transform="scale(0.015625)"/>
     <path id="DejaVuSans-76" d="M 191 3500 
L 800 3500 
L 1894 563 
L 2988 3500 
L 3597 3500 
L 2284 0 
L 1503 0 
L 191 3500 
z
" transform="scale(0.015625)"/>
     <path id="DejaVuSans-3a" d="M 750 794 
L 1409 794 
L 1409 0 
L 750 0 
L 750 794 
z
M 750 3309 
L 1409 3309 
L 1409 2516 
L 750 2516 
L 750 3309 
z
" transform="scale(0.015625)"/>
     <path id="DejaVuSans-20" transform="scale(0.015625)"/>
     <path id="DejaVuSans-70" d="M 1159 525 
L 1159 -1331 
L 581 -1331 
L 581 3500 
L 1159 3500 
L 1159 2969 
Q 1341 3281 1617 3432 
Q 1894 3584 2278 3584 
Q 2916 3584 3314 3078 
Q 3713 2572 3713 1747 
Q 3713 922 3314 415 
Q 2916 -91 2278 -91 
Q 1894 -91 1617 61 
Q 1341 213 1159 525 
z
M 3116 1747 
Q 3116 2381 2855 2742 
Q 2594 3103 2138 3103 
Q 1681 3103 1420 2742 
Q 1159 2381 1159 1747 
Q 1159 1113 1420 752 
Q 1681 391 2138 391 
Q 2594 391 2855 752 
Q 3116 1113 3116 1747 
z
" transform="scale(0.015625)"/>
     <path id="DejaVuSans-79" d="M 2059 -325 
Q 1816 -950 1584 -1140 
Q 1353 -1331 966 -1331 
L 506 -1331 
L 506 -850 
L 844 -850 
Q 1081 -850 1212 -737 
Q 1344 -625 1503 -206 
L 1606 56 
L 191 3500 
L 800 3500 
L 1894 763 
L 2988 3500 
L 3597 3500 
L 2059 -325 
z
" transform="scale(0.015625)"/>
     <path id="DejaVuSans-74" d="M 1172 4494 
L 1172 3500 
L 2356 3500 
L 2356 3053 
L 1172 3053 
L 1172 1153 
Q 1172 725 1289 603 
Q 1406 481 1766 481 
L 2356 481 
L 2356 0 
L 1766 0 
Q 1100 0 847 248 
Q 594 497 594 1153 
L 594 3053 
L 172 3053 
L 172 3500 
L 594 3500 
L 594 4494 
L 1172 4494 
z
" transform="scale(0.015625)"/>
     <path id="DejaVuSans-63" d="M 3122 3366 
L 3122 2828 
Q 2878 2963 2633 3030 
Q 2388 3097 2138 3097 
Q 1578 3097 1268 2742 
Q 959 2388 959 1747 
Q 959 1106 1268 751 
Q 1578 397 2138 397 
Q 2388 397 2633 464 
Q 2878 531 3122 666 
L 3122 134 
Q 2881 22 2623 -34 
Q 2366 -91 2075 -91 
Q 1284 -91 818 406 
Q 353 903 353 1747 
Q 353 2603 823 3093 
Q 1294 3584 2113 3584 
Q 2378 3584 2631 3529 
Q 2884 3475 3122 3366 
z
" transform="scale(0.015625)"/>
     <path id="DejaVuSans-68" d="M 3513 2113 
L 3513 0 
L 2938 0 
L 2938 2094 
Q 2938 2591 2744 2837 
Q 2550 3084 2163 3084 
Q 1697 3084 1428 2787 
Q 1159 2491 1159 1978 
L 1159 0 
L 581 0 
L 581 4863 
L 1159 4863 
L 1159 2956 
Q 1366 3272 1645 3428 
Q 1925 3584 2291 3584 
Q 2894 3584 3203 3211 
Q 3513 2838 3513 2113 
z
" transform="scale(0.015625)"/>
    </defs>
    <use xlink:href="#DejaVuSans-65"/>
    <use xlink:href="#DejaVuSans-76" x="61.523438"/>
    <use xlink:href="#DejaVuSans-61" x="120.703125"/>
    <use xlink:href="#DejaVuSans-6c" x="181.982422"/>
    <use xlink:href="#DejaVuSans-3a" x="209.765625"/>
    <use xlink:href="#DejaVuSans-20" x="243.457031"/>
    <use xlink:href="#DejaVuSans-70" x="275.244141"/>
    <use xlink:href="#DejaVuSans-79" x="338.720703"/>
    <use xlink:href="#DejaVuSans-74" x="397.900391"/>
    <use xlink:href="#DejaVuSans-6f" x="437.109375"/>
    <use xlink:href="#DejaVuSans-72" x="498.291016"/>
    <use xlink:href="#DejaVuSans-63" x="537.154297"/>
    <use xlink:href="#DejaVuSans-68" x="592.134766"/>
   </g>
  </g>
 </g>
 <defs>
  <clipPath id="p6be06bc7d7">
   <rect x="58.236133" y="28.442513" width="266.37609" height="163.567352"/>
  </clipPath>
 </defs>
</svg>
