<?xml version="1.0" encoding="utf-8" standalone="no"?>
<!DOCTYPE svg PUBLIC "-//W3C//DTD SVG 1.1//EN"
  "http://www.w3.org/Graphics/SVG/1.1/DTD/svg11.dtd">
<svg xmlns:xlink="http://www.w3.org/1999/xlink" width="331.270127pt" height="234.534474pt" viewBox="0 0 331.270127 234.534474" xmlns="http://www.w3.org/2000/svg" version="1.1">
 <metadata>
  <rdf:RDF xmlns:dc="http://purl.org/dc/elements/1.1/" xmlns:cc="http://creativecommons.org/ns#" xmlns:rdf="http://www.w3.org/1999/02/22-rdf-syntax-ns#">
   <cc:Work>
    <dc:type rdf:resource="http://purl.org/dc/dcmitype/StillImage"/>
    <dc:date>2023-12-05T11:52:22.823204</dc:date>
    <dc:format>image/svg+xml</dc:format>
    <dc:creator>
     <cc:Agent>
      <dc:title>Matplotlib v3.8.2, https://matplotlib.org/</dc:title>
     </cc:Agent>
    </dc:creator>
   </cc:Work>
  </rdf:RDF>
 </metadata>
 <defs>
  <style type="text/css">*{stroke-linejoin: round; stroke-linecap: butt}</style>
 </defs>
 <g id="figure_1">
  <g id="patch_1">
   <path d="M 0 234.534474 
L 331.270127 234.534474 
L 331.270127 0 
L 0 0 
L 0 234.534474 
z
" style="fill: none"/>
  </g>
  <g id="axes_1">
   <g id="patch_2">
    <path d="M 55.4625 192.009865 
L 321.83859 192.009865 
L 321.83859 28.442513 
L 55.4625 28.442513 
L 55.4625 192.009865 
z
" style="fill: none"/>
   </g>
   <g id="matplotlib.axis_1">
    <g id="xtick_1">
     <g id="text_1">
      <!-- 0 -->
      <g style="fill: #838383" transform="translate(63.196285 205.957716) scale(0.1375 -0.1375)">
       <defs>
        <path id="DejaVuSans-30" d="M 2034 4250 
Q 1547 4250 1301 3770 
Q 1056 3291 1056 2328 
Q 1056 1369 1301 889 
Q 1547 409 2034 409 
Q 2525 409 2770 889 
Q 3016 1369 3016 2328 
Q 3016 3291 2770 3770 
Q 2525 4250 2034 4250 
z
M 2034 4750 
Q 2819 4750 3233 4129 
Q 3647 3509 3647 2328 
Q 3647 1150 3233 529 
Q 2819 -91 2034 -91 
Q 1250 -91 836 529 
Q 422 1150 422 2328 
Q 422 3509 836 4129 
Q 1250 4750 2034 4750 
z
" transform="scale(0.015625)"/>
       </defs>
       <use xlink:href="#DejaVuSans-30"/>
      </g>
     </g>
    </g>
    <g id="xtick_2">
     <g id="text_2">
      <!-- 50 -->
      <g style="fill: #838383" transform="translate(119.666308 205.957716) scale(0.1375 -0.1375)">
       <defs>
        <path id="DejaVuSans-35" d="M 691 4666 
L 3169 4666 
L 3169 4134 
L 1269 4134 
L 1269 2991 
Q 1406 3038 1543 3061 
Q 1681 3084 1819 3084 
Q 2600 3084 3056 2656 
Q 3513 2228 3513 1497 
Q 3513 744 3044 326 
Q 2575 -91 1722 -91 
Q 1428 -91 1123 -41 
Q 819 9 494 109 
L 494 744 
Q 775 591 1075 516 
Q 1375 441 1709 441 
Q 2250 441 2565 725 
Q 2881 1009 2881 1497 
Q 2881 1984 2565 2268 
Q 2250 2553 1709 2553 
Q 1456 2553 1204 2497 
Q 953 2441 691 2322 
L 691 4666 
z
" transform="scale(0.015625)"/>
       </defs>
       <use xlink:href="#DejaVuSans-35"/>
       <use xlink:href="#DejaVuSans-30" x="63.623047"/>
      </g>
     </g>
    </g>
    <g id="xtick_3">
     <g id="text_3">
      <!-- 100 -->
      <g style="fill: #838383" transform="translate(176.136331 205.957716) scale(0.1375 -0.1375)">
       <defs>
        <path id="DejaVuSans-31" d="M 794 531 
L 1825 531 
L 1825 4091 
L 703 3866 
L 703 4441 
L 1819 4666 
L 2450 4666 
L 2450 531 
L 3481 531 
L 3481 0 
L 794 0 
L 794 531 
z
" transform="scale(0.015625)"/>
       </defs>
       <use xlink:href="#DejaVuSans-31"/>
       <use xlink:href="#DejaVuSans-30" x="63.623047"/>
       <use xlink:href="#DejaVuSans-30" x="127.246094"/>
      </g>
     </g>
    </g>
    <g id="xtick_4">
     <g id="text_4">
      <!-- 150 -->
      <g style="fill: #838383" transform="translate(236.980573 205.957716) scale(0.1375 -0.1375)">
       <use xlink:href="#DejaVuSans-31"/>
       <use xlink:href="#DejaVuSans-35" x="63.623047"/>
       <use xlink:href="#DejaVuSans-30" x="127.246094"/>
      </g>
     </g>
    </g>
    <g id="xtick_5">
     <g id="text_5">
      <!-- 200 -->
      <g style="fill: #838383" transform="translate(297.824814 205.957716) scale(0.1375 -0.1375)">
       <defs>
        <path id="DejaVuSans-32" d="M 1228 531 
L 3431 531 
L 3431 0 
L 469 0 
L 469 531 
Q 828 903 1448 1529 
Q 2069 2156 2228 2338 
Q 2531 2678 2651 2914 
Q 2772 3150 2772 3378 
Q 2772 3750 2511 3984 
Q 2250 4219 1831 4219 
Q 1534 4219 1204 4116 
Q 875 4013 500 3803 
L 500 4441 
Q 881 4594 1212 4672 
Q 1544 4750 1819 4750 
Q 2544 4750 2975 4387 
Q 3406 4025 3406 3419 
Q 3406 3131 3298 2873 
Q 3191 2616 2906 2266 
Q 2828 2175 2409 1742 
Q 1991 1309 1228 531 
z
" transform="scale(0.015625)"/>
       </defs>
       <use xlink:href="#DejaVuSans-32"/>
       <use xlink:href="#DejaVuSans-30" x="63.623047"/>
       <use xlink:href="#DejaVuSans-30" x="127.246094"/>
      </g>
     </g>
    </g>
    <g id="text_6">
     <!-- draw -->
     <g style="fill: #838383" transform="translate(170.076326 224.214943) scale(0.15 -0.15)">
      <defs>
       <path id="DejaVuSans-64" d="M 2906 2969 
L 2906 4863 
L 3481 4863 
L 3481 0 
L 2906 0 
L 2906 525 
Q 2725 213 2448 61 
Q 2172 -91 1784 -91 
Q 1150 -91 751 415 
Q 353 922 353 1747 
Q 353 2572 751 3078 
Q 1150 3584 1784 3584 
Q 2172 3584 2448 3432 
Q 2725 3281 2906 2969 
z
M 947 1747 
Q 947 1113 1208 752 
Q 1469 391 1925 391 
Q 2381 391 2643 752 
Q 2906 1113 2906 1747 
Q 2906 2381 2643 2742 
Q 2381 3103 1925 3103 
Q 1469 3103 1208 2742 
Q 947 2381 947 1747 
z
" transform="scale(0.015625)"/>
       <path id="DejaVuSans-72" d="M 2631 2963 
Q 2534 3019 2420 3045 
Q 2306 3072 2169 3072 
Q 1681 3072 1420 2755 
Q 1159 2438 1159 1844 
L 1159 0 
L 581 0 
L 581 3500 
L 1159 3500 
L 1159 2956 
Q 1341 3275 1631 3429 
Q 1922 3584 2338 3584 
Q 2397 3584 2469 3576 
Q 2541 3569 2628 3553 
L 2631 2963 
z
" transform="scale(0.015625)"/>
       <path id="DejaVuSans-61" d="M 2194 1759 
Q 1497 1759 1228 1600 
Q 959 1441 959 1056 
Q 959 750 1161 570 
Q 1363 391 1709 391 
Q 2188 391 2477 730 
Q 2766 1069 2766 1631 
L 2766 1759 
L 2194 1759 
z
M 3341 1997 
L 3341 0 
L 2766 0 
L 2766 531 
Q 2569 213 2275 61 
Q 1981 -91 1556 -91 
Q 1019 -91 701 211 
Q 384 513 384 1019 
Q 384 1609 779 1909 
Q 1175 2209 1959 2209 
L 2766 2209 
L 2766 2266 
Q 2766 2663 2505 2880 
Q 2244 3097 1772 3097 
Q 1472 3097 1187 3025 
Q 903 2953 641 2809 
L 641 3341 
Q 956 3463 1253 3523 
Q 1550 3584 1831 3584 
Q 2591 3584 2966 3190 
Q 3341 2797 3341 1997 
z
" transform="scale(0.015625)"/>
       <path id="DejaVuSans-77" d="M 269 3500 
L 844 3500 
L 1563 769 
L 2278 3500 
L 2956 3500 
L 3675 769 
L 4391 3500 
L 4966 3500 
L 4050 0 
L 3372 0 
L 2619 2869 
L 1863 0 
L 1184 0 
L 269 3500 
z
" transform="scale(0.015625)"/>
      </defs>
      <use xlink:href="#DejaVuSans-64"/>
      <use xlink:href="#DejaVuSans-72" x="63.476562"/>
      <use xlink:href="#DejaVuSans-61" x="104.589844"/>
      <use xlink:href="#DejaVuSans-77" x="165.869141"/>
     </g>
    </g>
   </g>
   <g id="matplotlib.axis_2">
    <g id="ytick_1">
     <g id="text_7">
      <!-- 390 -->
      <g style="fill: #838383" transform="translate(25.717188 191.304079) scale(0.1375 -0.1375)">
       <defs>
        <path id="DejaVuSans-33" d="M 2597 2516 
Q 3050 2419 3304 2112 
Q 3559 1806 3559 1356 
Q 3559 666 3084 287 
Q 2609 -91 1734 -91 
Q 1441 -91 1130 -33 
Q 819 25 488 141 
L 488 750 
Q 750 597 1062 519 
Q 1375 441 1716 441 
Q 2309 441 2620 675 
Q 2931 909 2931 1356 
Q 2931 1769 2642 2001 
Q 2353 2234 1838 2234 
L 1294 2234 
L 1294 2753 
L 1863 2753 
Q 2328 2753 2575 2939 
Q 2822 3125 2822 3475 
Q 2822 3834 2567 4026 
Q 2313 4219 1838 4219 
Q 1578 4219 1281 4162 
Q 984 4106 628 3988 
L 628 4550 
Q 988 4650 1302 4700 
Q 1616 4750 1894 4750 
Q 2613 4750 3031 4423 
Q 3450 4097 3450 3541 
Q 3450 3153 3228 2886 
Q 3006 2619 2597 2516 
z
" transform="scale(0.015625)"/>
        <path id="DejaVuSans-39" d="M 703 97 
L 703 672 
Q 941 559 1184 500 
Q 1428 441 1663 441 
Q 2288 441 2617 861 
Q 2947 1281 2994 2138 
Q 2813 1869 2534 1725 
Q 2256 1581 1919 1581 
Q 1219 1581 811 2004 
Q 403 2428 403 3163 
Q 403 3881 828 4315 
Q 1253 4750 1959 4750 
Q 2769 4750 3195 4129 
Q 3622 3509 3622 2328 
Q 3622 1225 3098 567 
Q 2575 -91 1691 -91 
Q 1453 -91 1209 -44 
Q 966 3 703 97 
z
M 1959 2075 
Q 2384 2075 2632 2365 
Q 2881 2656 2881 3163 
Q 2881 3666 2632 3958 
Q 2384 4250 1959 4250 
Q 1534 4250 1286 3958 
Q 1038 3666 1038 3163 
Q 1038 2656 1286 2365 
Q 1534 2075 1959 2075 
z
" transform="scale(0.015625)"/>
       </defs>
       <use xlink:href="#DejaVuSans-33"/>
       <use xlink:href="#DejaVuSans-39" x="63.623047"/>
       <use xlink:href="#DejaVuSans-30" x="127.246094"/>
      </g>
     </g>
    </g>
    <g id="ytick_2">
     <g id="text_8">
      <!-- 400 -->
      <g style="fill: #838383" transform="translate(25.717188 133.496604) scale(0.1375 -0.1375)">
       <defs>
        <path id="DejaVuSans-34" d="M 2419 4116 
L 825 1625 
L 2419 1625 
L 2419 4116 
z
M 2253 4666 
L 3047 4666 
L 3047 1625 
L 3713 1625 
L 3713 1100 
L 3047 1100 
L 3047 0 
L 2419 0 
L 2419 1100 
L 313 1100 
L 313 1709 
L 2253 4666 
z
" transform="scale(0.015625)"/>
       </defs>
       <use xlink:href="#DejaVuSans-34"/>
       <use xlink:href="#DejaVuSans-30" x="63.623047"/>
       <use xlink:href="#DejaVuSans-30" x="127.246094"/>
      </g>
     </g>
    </g>
    <g id="ytick_3">
     <g id="text_9">
      <!-- 410 -->
      <g style="fill: #838383" transform="translate(25.717188 75.689129) scale(0.1375 -0.1375)">
       <use xlink:href="#DejaVuSans-34"/>
       <use xlink:href="#DejaVuSans-31" x="63.623047"/>
       <use xlink:href="#DejaVuSans-30" x="127.246094"/>
      </g>
     </g>
    </g>
    <g id="text_10">
     <!-- logprob -->
     <g style="fill: #838383" transform="translate(18.597656 138.686345) rotate(-90) scale(0.15 -0.15)">
      <defs>
       <path id="DejaVuSans-6c" d="M 603 4863 
L 1178 4863 
L 1178 0 
L 603 0 
L 603 4863 
z
" transform="scale(0.015625)"/>
       <path id="DejaVuSans-6f" d="M 1959 3097 
Q 1497 3097 1228 2736 
Q 959 2375 959 1747 
Q 959 1119 1226 758 
Q 1494 397 1959 397 
Q 2419 397 2687 759 
Q 2956 1122 2956 1747 
Q 2956 2369 2687 2733 
Q 2419 3097 1959 3097 
z
M 1959 3584 
Q 2709 3584 3137 3096 
Q 3566 2609 3566 1747 
Q 3566 888 3137 398 
Q 2709 -91 1959 -91 
Q 1206 -91 779 398 
Q 353 888 353 1747 
Q 353 2609 779 3096 
Q 1206 3584 1959 3584 
z
" transform="scale(0.015625)"/>
       <path id="DejaVuSans-67" d="M 2906 1791 
Q 2906 2416 2648 2759 
Q 2391 3103 1925 3103 
Q 1463 3103 1205 2759 
Q 947 2416 947 1791 
Q 947 1169 1205 825 
Q 1463 481 1925 481 
Q 2391 481 2648 825 
Q 2906 1169 2906 1791 
z
M 3481 434 
Q 3481 -459 3084 -895 
Q 2688 -1331 1869 -1331 
Q 1566 -1331 1297 -1286 
Q 1028 -1241 775 -1147 
L 775 -588 
Q 1028 -725 1275 -790 
Q 1522 -856 1778 -856 
Q 2344 -856 2625 -561 
Q 2906 -266 2906 331 
L 2906 616 
Q 2728 306 2450 153 
Q 2172 0 1784 0 
Q 1141 0 747 490 
Q 353 981 353 1791 
Q 353 2603 747 3093 
Q 1141 3584 1784 3584 
Q 2172 3584 2450 3431 
Q 2728 3278 2906 2969 
L 2906 3500 
L 3481 3500 
L 3481 434 
z
" transform="scale(0.015625)"/>
       <path id="DejaVuSans-70" d="M 1159 525 
L 1159 -1331 
L 581 -1331 
L 581 3500 
L 1159 3500 
L 1159 2969 
Q 1341 3281 1617 3432 
Q 1894 3584 2278 3584 
Q 2916 3584 3314 3078 
Q 3713 2572 3713 1747 
Q 3713 922 3314 415 
Q 2916 -91 2278 -91 
Q 1894 -91 1617 61 
Q 1341 213 1159 525 
z
M 3116 1747 
Q 3116 2381 2855 2742 
Q 2594 3103 2138 3103 
Q 1681 3103 1420 2742 
Q 1159 2381 1159 1747 
Q 1159 1113 1420 752 
Q 1681 391 2138 391 
Q 2594 391 2855 752 
Q 3116 1113 3116 1747 
z
" transform="scale(0.015625)"/>
       <path id="DejaVuSans-62" d="M 3116 1747 
Q 3116 2381 2855 2742 
Q 2594 3103 2138 3103 
Q 1681 3103 1420 2742 
Q 1159 2381 1159 1747 
Q 1159 1113 1420 752 
Q 1681 391 2138 391 
Q 2594 391 2855 752 
Q 3116 1113 3116 1747 
z
M 1159 2969 
Q 1341 3281 1617 3432 
Q 1894 3584 2278 3584 
Q 2916 3584 3314 3078 
Q 3713 2572 3713 1747 
Q 3713 922 3314 415 
Q 2916 -91 2278 -91 
Q 1894 -91 1617 61 
Q 1341 213 1159 525 
L 1159 0 
L 581 0 
L 581 4863 
L 1159 4863 
L 1159 2969 
z
" transform="scale(0.015625)"/>
      </defs>
      <use xlink:href="#DejaVuSans-6c"/>
      <use xlink:href="#DejaVuSans-6f" x="27.783203"/>
      <use xlink:href="#DejaVuSans-67" x="88.964844"/>
      <use xlink:href="#DejaVuSans-70" x="152.441406"/>
      <use xlink:href="#DejaVuSans-72" x="215.917969"/>
      <use xlink:href="#DejaVuSans-6f" x="254.78125"/>
      <use xlink:href="#DejaVuSans-62" x="315.962891"/>
     </g>
    </g>
   </g>
   <g id="line2d_1">
    <path d="M 67.570504 84.879319 
L 70.004274 97.450434 
L 71.221159 100.265655 
L 72.438043 106.739182 
L 73.654928 119.663654 
L 76.088698 104.043569 
L 78.522468 100.626422 
L 80.956237 124.855001 
L 82.173122 111.819564 
L 83.390007 119.881703 
L 84.606892 138.454259 
L 85.823777 141.162926 
L 87.040661 133.955692 
L 88.257546 136.026268 
L 89.474431 159.897784 
L 91.908201 153.617255 
L 93.125086 137.455048 
L 94.34197 149.259642 
L 95.558855 114.931161 
L 97.992625 140.081153 
L 99.20951 141.306704 
L 100.426395 123.556768 
L 101.643279 133.905943 
L 102.860164 127.85387 
L 104.077049 142.423407 
L 105.293934 132.115513 
L 107.727704 148.774502 
L 110.161473 132.564311 
L 112.595243 155.187872 
L 113.812128 145.105436 
L 115.029013 148.157758 
L 116.245897 164.024294 
L 117.462782 152.222346 
L 118.679667 160.000457 
L 119.896552 154.604999 
L 121.113437 162.928937 
L 123.547206 148.186513 
L 124.764091 147.211824 
L 128.414746 155.220332 
L 129.63163 153.053258 
L 130.848515 146.468766 
L 132.0654 154.687032 
L 133.282285 152.791635 
L 134.49917 159.283156 
L 135.716055 134.515455 
L 138.149824 151.304638 
L 139.366709 165.426965 
L 140.583594 143.795206 
L 143.017364 153.173749 
L 144.234248 151.292642 
L 145.451133 141.035202 
L 146.668018 153.354221 
L 147.884903 133.073973 
L 149.101788 159.55801 
L 150.318673 129.478823 
L 152.752442 158.704693 
L 153.969327 149.746899 
L 155.186212 162.430037 
L 156.403097 153.460775 
L 157.619982 157.011644 
L 158.836866 148.899404 
L 160.053751 148.04203 
L 161.270636 164.395293 
L 162.487521 129.608135 
L 163.704406 139.523154 
L 164.921291 137.957476 
L 166.138175 143.773507 
L 167.35506 142.744129 
L 168.571945 140.297437 
L 169.78883 149.138093 
L 171.005715 141.891871 
L 173.439484 158.821833 
L 174.656369 133.39046 
L 175.873254 143.259435 
L 177.090139 162.407279 
L 179.523909 131.049088 
L 180.740793 159.168134 
L 181.957678 159.511789 
L 183.174563 143.499712 
L 185.608333 156.076471 
L 186.825218 139.131338 
L 188.042102 150.614152 
L 189.258987 141.189036 
L 190.475872 158.801192 
L 191.692757 134.767198 
L 194.126527 143.025862 
L 195.343411 165.506175 
L 196.560296 136.547396 
L 197.777181 165.444606 
L 198.994066 142.295154 
L 201.427836 149.93725 
L 202.64472 147.910778 
L 203.861605 167.14136 
L 205.07849 142.118739 
L 206.295375 145.543296 
L 207.51226 140.093149 
L 211.162914 159.248226 
L 213.596684 150.236272 
L 214.813569 157.338187 
L 216.030454 131.359577 
L 217.247338 152.3663 
L 218.464223 146.838884 
L 220.897993 153.300061 
L 222.114878 149.111101 
L 223.331763 152.429103 
L 224.548647 138.533117 
L 225.765532 160.003633 
L 226.982417 136.237083 
L 228.199302 153.463598 
L 229.416187 144.238182 
L 231.849956 157.533655 
L 233.066841 142.772531 
L 234.283726 165.801669 
L 235.500611 158.341103 
L 236.717496 141.649124 
L 239.151265 159.631222 
L 240.36815 156.486811 
L 241.585035 161.303278 
L 242.80192 184.574985 
L 244.018805 152.922535 
L 245.23569 155.851896 
L 246.452574 167.699712 
L 247.669459 167.236624 
L 248.886344 159.011655 
L 250.103229 162.690777 
L 251.320114 153.847475 
L 252.536998 168.289112 
L 253.753883 151.313106 
L 254.970768 162.382758 
L 256.187653 164.052696 
L 257.404538 161.297809 
L 258.621423 162.075091 
L 259.838307 157.854905 
L 261.055192 160.617555 
L 262.272077 142.983347 
L 263.488962 147.099448 
L 264.705847 167.679777 
L 265.922732 149.540141 
L 267.139616 152.851792 
L 268.356501 159.068989 
L 270.790271 135.695138 
L 273.224041 144.482693 
L 275.65781 169.506019 
L 276.874695 138.457082 
L 278.09158 138.758045 
L 280.52535 158.841415 
L 281.742234 140.539125 
L 282.959119 150.147359 
L 284.176004 141.195386 
L 285.392889 175.235253 
L 286.609774 140.56841 
L 287.826659 141.567974 
L 289.043543 155.358112 
L 290.260428 148.116477 
L 291.477313 147.203179 
L 293.911083 154.064642 
L 295.127968 140.850673 
L 296.344852 147.125557 
L 297.561737 162.99421 
L 298.778622 146.417077 
L 299.995507 162.481197 
L 301.212392 155.679892 
L 302.429277 142.615699 
L 303.646161 150.791625 
L 306.079931 144.569841 
L 308.513701 153.147816 
L 309.730586 155.657487 
L 309.730586 155.657487 
" clip-path="url(#p867c0c1a69)" style="fill: none; stroke: #440154; stroke-width: 1.5; stroke-linecap: round"/>
   </g>
   <g id="line2d_2">
    <path d="M 67.570504 35.877393 
L 70.004274 49.5608 
L 72.438043 55.682204 
L 73.654928 70.643734 
L 76.088698 51.955802 
L 77.305583 46.420271 
L 78.522468 47.08059 
L 79.739352 54.889045 
L 80.956237 73.547339 
L 82.173122 55.233935 
L 83.390007 65.00306 
L 85.823777 89.52678 
L 87.040661 79.403768 
L 88.257546 79.647397 
L 89.474431 105.675226 
L 90.691316 105.81477 
L 91.908201 100.394261 
L 93.125086 79.206537 
L 94.34197 96.599587 
L 95.558855 56.644192 
L 97.992625 84.101331 
L 99.20951 84.433167 
L 100.426395 67.857092 
L 101.643279 74.607766 
L 102.860164 70.06827 
L 104.077049 86.157794 
L 105.293934 74.405242 
L 106.510819 91.998346 
L 107.727704 91.322855 
L 108.944588 78.173454 
L 110.161473 76.081179 
L 112.595243 99.200994 
L 113.812128 87.51054 
L 115.029013 90.289243 
L 116.245897 107.408498 
L 117.462782 95.200797 
L 118.679667 102.701409 
L 119.896552 96.696615 
L 121.113437 104.818558 
L 123.547206 90.162401 
L 127.197861 97.340527 
L 128.414746 101.843858 
L 129.63163 97.335588 
L 130.848515 88.350449 
L 132.0654 97.31336 
L 133.282285 96.429876 
L 134.49917 101.806282 
L 135.716055 73.613847 
L 139.366709 109.675423 
L 140.583594 83.45442 
L 143.017364 96.452457 
L 144.234248 95.731275 
L 145.451133 86.698504 
L 146.668018 99.521892 
L 147.884903 75.302486 
L 149.101788 103.494568 
L 150.318673 72.72613 
L 152.752442 100.42725 
L 153.969327 89.033878 
L 155.186212 104.64479 
L 156.403097 92.940399 
L 157.619982 101.225526 
L 160.053751 87.665255 
L 161.270636 104.902355 
L 162.487521 70.83091 
L 163.704406 85.371162 
L 164.921291 81.216779 
L 167.35506 89.278389 
L 168.571945 83.086596 
L 169.78883 92.362465 
L 171.005715 85.587623 
L 173.439484 104.785039 
L 174.656369 70.650085 
L 177.090139 103.634994 
L 179.523909 75.689363 
L 181.957678 102.103893 
L 183.174563 86.077526 
L 185.608333 99.015229 
L 186.825218 80.049798 
L 188.042102 94.877429 
L 189.258987 84.797639 
L 190.475872 103.389954 
L 191.692757 72.267805 
L 192.909642 82.441801 
L 194.126527 83.61037 
L 195.343411 110.330626 
L 196.560296 76.535976 
L 197.777181 108.734252 
L 198.994066 81.552849 
L 201.427836 90.143525 
L 202.64472 90.097657 
L 203.861605 110.535091 
L 205.07849 83.583202 
L 206.295375 84.53143 
L 207.51226 81.715503 
L 209.946029 98.878332 
L 211.162914 102.000691 
L 213.596684 94.04246 
L 214.813569 102.001749 
L 216.030454 76.067066 
L 217.247338 94.789399 
L 218.464223 90.186923 
L 219.681108 95.908748 
L 222.114878 90.188334 
L 223.331763 93.407192 
L 224.548647 78.31882 
L 225.765532 102.356518 
L 226.982417 78.88017 
L 228.199302 97.138533 
L 229.416187 86.02513 
L 231.849956 99.457324 
L 233.066841 84.633044 
L 234.283726 112.473709 
L 236.717496 81.71021 
L 239.151265 103.111748 
L 240.36815 102.196687 
L 241.585035 104.279788 
L 242.80192 128.124137 
L 244.018805 94.372708 
L 245.23569 97.985146 
L 246.452574 111.508193 
L 247.669459 109.456846 
L 248.886344 100.937264 
L 250.103229 101.920246 
L 251.320114 97.823903 
L 252.536998 110.641821 
L 253.753883 90.692174 
L 256.187653 109.351526 
L 259.838307 99.864841 
L 261.055192 102.806552 
L 262.272077 81.996002 
L 263.488962 86.451877 
L 264.705847 113.455984 
L 265.922732 94.563764 
L 268.356501 106.492907 
L 270.790271 78.715223 
L 275.65781 113.620049 
L 276.874695 78.994487 
L 278.09158 82.74788 
L 279.308465 101.235934 
L 280.52535 102.976968 
L 281.742234 82.152481 
L 282.959119 92.914113 
L 284.176004 85.691002 
L 285.392889 124.000274 
L 286.609774 81.742494 
L 287.826659 81.635763 
L 289.043543 98.809707 
L 291.477313 88.878281 
L 293.911083 97.269256 
L 295.127968 78.415495 
L 296.344852 87.429566 
L 297.561737 107.549629 
L 298.778622 87.338536 
L 299.995507 106.944704 
L 302.429277 81.093642 
L 303.646161 91.630169 
L 306.079931 86.753898 
L 308.513701 98.107224 
L 309.730586 97.414974 
L 309.730586 97.414974 
" clip-path="url(#p867c0c1a69)" style="fill: none; stroke: #482878; stroke-width: 1.5; stroke-linecap: round"/>
   </g>
   <g id="line2d_3">
    <path d="M 67.570504 52.939842 
L 70.004274 62.199482 
L 72.438043 69.104695 
L 73.654928 84.975641 
L 77.305583 65.903655 
L 78.522468 66.041435 
L 80.956237 90.455426 
L 82.173122 73.849713 
L 83.390007 80.037449 
L 84.606892 102.46466 
L 85.823777 105.987303 
L 87.040661 96.762594 
L 88.257546 98.877803 
L 89.474431 122.709979 
L 90.691316 120.649458 
L 91.908201 116.518891 
L 93.125086 100.328282 
L 94.34197 112.786491 
L 95.558855 73.835424 
L 97.992625 102.300595 
L 99.20951 105.51663 
L 100.426395 86.395424 
L 101.643279 94.428631 
L 102.860164 90.451897 
L 104.077049 104.553054 
L 105.293934 92.188874 
L 106.510819 110.593837 
L 107.727704 110.854754 
L 110.161473 88.627949 
L 112.595243 120.913374 
L 113.812128 104.960219 
L 115.029013 108.801819 
L 116.245897 125.01889 
L 117.462782 115.504155 
L 118.679667 121.277141 
L 119.896552 115.722556 
L 121.113437 127.229716 
L 122.330322 110.857753 
L 124.764091 109.892766 
L 125.980976 115.010019 
L 127.197861 115.540497 
L 128.414746 120.036947 
L 130.848515 109.029746 
L 132.0654 116.042219 
L 133.282285 111.254861 
L 134.49917 121.433973 
L 135.716055 92.255558 
L 138.149824 111.541006 
L 139.366709 126.448906 
L 140.583594 101.317085 
L 143.017364 113.432697 
L 144.234248 113.385242 
L 145.451133 102.069492 
L 146.668018 113.888023 
L 147.884903 92.910938 
L 149.101788 120.686152 
L 150.318673 92.725526 
L 152.752442 120.682801 
L 153.969327 108.876972 
L 155.186212 122.833469 
L 156.403097 113.56589 
L 157.619982 119.13053 
L 160.053751 109.118659 
L 161.270636 126.16876 
L 162.487521 90.118474 
L 163.704406 100.421429 
L 164.921291 100.42284 
L 166.138175 106.077628 
L 168.571945 103.941955 
L 169.78883 113.004363 
L 171.005715 102.929865 
L 173.439484 120.989585 
L 174.656369 92.87883 
L 175.873254 102.807081 
L 177.090139 123.345776 
L 179.523909 92.208632 
L 180.740793 118.462978 
L 181.957678 119.377334 
L 183.174563 100.131933 
L 185.608333 119.422672 
L 186.825218 99.265914 
L 188.042102 113.018476 
L 189.258987 103.072584 
L 190.475872 122.537622 
L 191.692757 96.147437 
L 194.126527 103.382368 
L 195.343411 130.136496 
L 196.560296 98.642113 
L 197.777181 126.344468 
L 198.994066 99.652967 
L 201.427836 112.435603 
L 202.64472 107.493177 
L 203.861605 129.401201 
L 205.07849 103.854806 
L 206.295375 105.570613 
L 207.51226 101.160252 
L 211.162914 121.173056 
L 213.596684 110.801653 
L 214.813569 121.687128 
L 216.030454 96.159962 
L 217.247338 112.963435 
L 218.464223 108.845041 
L 219.681108 112.550272 
L 220.897993 112.182978 
L 222.114878 110.086469 
L 223.331763 112.856881 
L 224.548647 93.726149 
L 225.765532 122.38467 
L 226.982417 96.087456 
L 228.199302 113.47045 
L 229.416187 102.733869 
L 231.849956 118.226935 
L 233.066841 103.576424 
L 234.283726 128.35524 
L 235.500611 119.515643 
L 236.717496 101.333138 
L 237.934381 118.779113 
L 240.36815 116.624387 
L 241.585035 123.014117 
L 242.80192 149.688329 
L 244.018805 113.973408 
L 245.23569 115.768777 
L 246.452574 129.206616 
L 247.669459 127.84205 
L 248.886344 118.888137 
L 250.103229 123.004591 
L 251.320114 114.008161 
L 252.536998 127.546556 
L 253.753883 110.488694 
L 256.187653 125.912959 
L 259.838307 120.03977 
L 261.055192 120.814582 
L 262.272077 101.605522 
L 263.488962 106.163718 
L 264.705847 131.03127 
L 265.922732 112.266245 
L 268.356501 122.976364 
L 270.790271 94.853966 
L 275.65781 132.800177 
L 276.874695 98.574899 
L 278.09158 100.04743 
L 280.52535 120.049296 
L 281.742234 101.468095 
L 282.959119 110.249476 
L 284.176004 103.388366 
L 285.392889 140.184532 
L 286.609774 99.740645 
L 287.826659 100.576497 
L 289.043543 115.303749 
L 291.477313 107.495647 
L 293.911083 114.352522 
L 295.127968 98.909557 
L 297.561737 121.483016 
L 298.778622 103.778242 
L 299.995507 121.329359 
L 301.212392 115.950307 
L 302.429277 101.193242 
L 303.646161 109.092903 
L 304.863046 107.130292 
L 306.079931 101.436341 
L 308.513701 115.419476 
L 309.730586 116.528065 
L 309.730586 116.528065 
" clip-path="url(#p867c0c1a69)" style="fill: none; stroke: #3e4989; stroke-width: 1.5; stroke-linecap: round"/>
   </g>
   <g id="line2d_4">
    <path d="M 67.570504 58.9464 
L 70.004274 74.739018 
L 71.221159 77.20194 
L 72.438043 83.336751 
L 73.654928 96.480684 
L 76.088698 77.965638 
L 77.305583 76.489755 
L 78.522468 73.063963 
L 80.956237 99.894302 
L 82.173122 82.62192 
L 83.390007 92.365994 
L 85.823777 115.666457 
L 87.040661 105.844055 
L 88.257546 107.949032 
L 89.474431 132.272345 
L 90.691316 130.727308 
L 91.908201 127.334859 
L 93.125086 108.987054 
L 94.34197 123.023643 
L 95.558855 87.369055 
L 97.992625 112.858645 
L 99.20951 112.057371 
L 100.426395 92.907939 
L 101.643279 103.112454 
L 102.860164 99.985156 
L 104.077049 113.545073 
L 105.293934 104.317188 
L 106.510819 118.633394 
L 107.727704 120.115452 
L 110.161473 105.059893 
L 112.595243 127.846108 
L 113.812128 116.983214 
L 115.029013 118.75318 
L 116.245897 136.963557 
L 117.462782 122.408663 
L 118.679667 132.976768 
L 119.896552 123.879253 
L 121.113437 133.726 
L 123.547206 118.526311 
L 127.197861 126.026217 
L 128.414746 125.445108 
L 129.63163 127.083645 
L 130.848515 119.394622 
L 133.282285 126.642256 
L 134.49917 130.178306 
L 135.716055 105.048426 
L 139.366709 139.41219 
L 140.583594 115.574368 
L 141.800479 116.681369 
L 143.017364 126.443437 
L 144.234248 124.801371 
L 145.451133 114.252672 
L 146.668018 127.671634 
L 147.884903 104.598216 
L 149.101788 131.234323 
L 150.318673 101.898017 
L 152.752442 129.089477 
L 153.969327 120.925017 
L 155.186212 133.601628 
L 156.403097 125.663861 
L 157.619982 129.887575 
L 158.836866 119.788556 
L 160.053751 118.769939 
L 161.270636 135.625631 
L 162.487521 100.749912 
L 163.704406 113.260517 
L 164.921291 108.371368 
L 166.138175 117.78096 
L 167.35506 116.607451 
L 168.571945 112.021382 
L 169.78883 121.008462 
L 171.005715 111.814272 
L 173.439484 131.894466 
L 174.656369 102.380864 
L 177.090139 132.745136 
L 179.523909 102.588503 
L 181.957678 135.243517 
L 183.174563 115.051476 
L 185.608333 128.992449 
L 186.825218 111.635034 
L 188.042102 121.927404 
L 189.258987 112.472827 
L 190.475872 131.020332 
L 191.692757 102.848538 
L 194.126527 111.25786 
L 195.343411 137.265226 
L 196.560296 107.632897 
L 197.777181 135.978459 
L 198.994066 113.281863 
L 201.427836 118.757414 
L 202.64472 120.133975 
L 203.861605 139.869632 
L 205.07849 113.973937 
L 206.295375 115.389133 
L 207.51226 107.736805 
L 209.946029 127.798123 
L 211.162914 129.478294 
L 213.596684 121.487427 
L 214.813569 129.067778 
L 216.030454 102.552868 
L 217.247338 124.826246 
L 218.464223 118.450805 
L 219.681108 123.77905 
L 220.897993 124.033969 
L 222.114878 119.395505 
L 223.331763 123.243456 
L 224.548647 107.494235 
L 225.765532 132.61212 
L 226.982417 105.629006 
L 228.199302 125.829162 
L 229.416187 117.040725 
L 231.849956 128.12202 
L 233.066841 112.903631 
L 234.283726 139.002555 
L 235.500611 129.950732 
L 236.717496 110.877687 
L 239.151265 130.600995 
L 240.36815 130.032941 
L 241.585035 132.233887 
L 242.80192 155.701591 
L 244.018805 123.844147 
L 245.23569 127.416715 
L 246.452574 139.090057 
L 247.669459 140.032286 
L 248.886344 129.696695 
L 250.103229 131.144528 
L 251.320114 125.291627 
L 252.536998 139.828528 
L 253.753883 120.944776 
L 256.187653 134.474527 
L 257.404538 132.536967 
L 258.621423 132.950482 
L 259.838307 128.604513 
L 261.055192 130.939358 
L 262.272077 113.349959 
L 263.488962 116.042219 
L 264.705847 139.654054 
L 265.922732 122.464057 
L 267.139616 126.278136 
L 268.356501 136.023621 
L 270.790271 108.512147 
L 272.007156 111.479613 
L 273.224041 117.549504 
L 275.65781 141.498466 
L 276.874695 108.211536 
L 278.09158 111.758877 
L 280.52535 131.510235 
L 281.742234 112.523105 
L 282.959119 121.360585 
L 284.176004 113.074223 
L 285.392889 148.658951 
L 286.609774 112.641479 
L 287.826659 111.235456 
L 289.043543 128.116022 
L 291.477313 117.698045 
L 293.911083 128.216931 
L 295.127968 110.862339 
L 296.344852 115.959305 
L 297.561737 135.361185 
L 298.778622 117.975721 
L 299.995507 135.020882 
L 302.429277 112.262364 
L 303.646161 121.750108 
L 306.079931 116.156889 
L 308.513701 127.072178 
L 309.730586 128.440448 
L 309.730586 128.440448 
" clip-path="url(#p867c0c1a69)" style="fill: none; stroke: #31688e; stroke-width: 1.5; stroke-linecap: round"/>
   </g>
   <g id="line2d_5">
    <path d="M 67.570504 49.362158 
L 68.787389 59.826708 
L 72.438043 65.422044 
L 73.654928 80.85707 
L 76.088698 65.68349 
L 77.305583 59.817711 
L 78.522468 62.057821 
L 79.739352 68.143589 
L 80.956237 86.990823 
L 82.173122 70.647262 
L 83.390007 79.110391 
L 84.606892 98.51139 
L 85.823777 100.270947 
L 87.040661 93.517627 
L 88.257546 93.557497 
L 89.474431 118.09092 
L 90.691316 117.447007 
L 91.908201 114.05103 
L 93.125086 94.614219 
L 94.34197 110.890213 
L 95.558855 70.490783 
L 99.20951 101.918129 
L 100.426395 83.917684 
L 101.643279 90.560569 
L 102.860164 83.026438 
L 104.077049 100.497463 
L 105.293934 89.866554 
L 106.510819 107.371098 
L 107.727704 105.898391 
L 108.944588 88.31446 
L 110.161473 87.226336 
L 112.595243 113.024122 
L 113.812128 103.076995 
L 115.029013 104.488839 
L 116.245897 120.274225 
L 117.462782 110.56808 
L 118.679667 115.52656 
L 119.896552 113.420701 
L 121.113437 120.185135 
L 123.547206 103.669924 
L 124.764091 104.885595 
L 128.414746 119.879233 
L 130.848515 102.676358 
L 132.0654 112.048903 
L 133.282285 109.852543 
L 134.49917 118.979343 
L 135.716055 89.717661 
L 138.149824 107.363512 
L 139.366709 121.869364 
L 140.583594 96.230704 
L 143.017364 110.137276 
L 144.234248 108.299744 
L 145.451133 99.157596 
L 146.668018 111.485788 
L 147.884903 89.166542 
L 149.101788 114.313711 
L 150.318673 86.702738 
L 152.752442 114.666187 
L 153.969327 103.778419 
L 155.186212 119.00951 
L 156.403097 106.314376 
L 157.619982 113.731896 
L 158.836866 105.95943 
L 160.053751 104.665607 
L 161.270636 119.971674 
L 162.487521 85.059967 
L 163.704406 97.370341 
L 164.921291 95.202561 
L 166.138175 101.893783 
L 167.35506 101.876318 
L 168.571945 97.956566 
L 169.78883 105.351859 
L 171.005715 100.815186 
L 173.439484 119.02574 
L 174.656369 87.369938 
L 175.873254 97.73499 
L 177.090139 119.417203 
L 179.523909 87.658199 
L 180.740793 113.177955 
L 181.957678 115.407127 
L 183.174563 99.325013 
L 185.608333 112.502288 
L 186.825218 93.332745 
L 188.042102 109.720232 
L 189.258987 96.974291 
L 190.475872 117.605251 
L 191.692757 89.588878 
L 194.126527 100.66982 
L 195.343411 124.417317 
L 196.560296 93.458881 
L 197.777181 123.773405 
L 198.994066 98.023957 
L 201.427836 106.704428 
L 202.64472 103.396129 
L 203.861605 126.009281 
L 205.07849 97.447611 
L 206.295375 99.988508 
L 207.51226 97.954802 
L 211.162914 118.027058 
L 213.596684 106.137079 
L 214.813569 115.611945 
L 216.030454 91.442111 
L 217.247338 109.231388 
L 218.464223 103.982706 
L 219.681108 108.808346 
L 222.114878 104.158768 
L 223.331763 106.697019 
L 224.548647 93.249654 
L 225.765532 116.686485 
L 226.982417 93.845934 
L 228.199302 112.385325 
L 229.416187 98.44347 
L 231.849956 114.469485 
L 233.066841 103.088815 
L 234.283726 125.217004 
L 235.500611 115.982591 
L 236.717496 98.428651 
L 239.151265 117.422839 
L 240.36815 112.916685 
L 241.585035 116.728295 
L 242.80192 141.490704 
L 244.018805 109.110897 
L 245.23569 113.033648 
L 246.452574 124.093244 
L 247.669459 122.278116 
L 248.886344 115.593068 
L 250.103229 117.765259 
L 251.320114 112.75456 
L 252.536998 126.183755 
L 253.753883 105.482582 
L 256.187653 123.64621 
L 257.404538 118.817924 
L 258.621423 118.919715 
L 259.838307 114.040974 
L 261.055192 118.455216 
L 262.272077 96.995814 
L 263.488962 101.465096 
L 264.705847 128.489668 
L 265.922732 107.367217 
L 268.356501 119.198802 
L 270.790271 94.095208 
L 274.440925 118.463154 
L 275.65781 128.410634 
L 276.874695 95.644832 
L 278.09158 96.566421 
L 279.308465 115.468343 
L 280.52535 117.406961 
L 281.742234 96.882379 
L 282.959119 108.666686 
L 284.176004 100.077773 
L 285.392889 136.959676 
L 286.609774 94.611396 
L 287.826659 95.442485 
L 289.043543 113.159608 
L 291.477313 104.588337 
L 293.911083 111.306374 
L 295.127968 95.512874 
L 296.344852 103.651577 
L 297.561737 121.297605 
L 298.778622 100.545272 
L 299.995507 121.785567 
L 302.429277 97.28972 
L 303.646161 106.8849 
L 306.079931 101.510611 
L 308.513701 110.933434 
L 309.730586 112.759853 
L 309.730586 112.759853 
" clip-path="url(#p867c0c1a69)" style="fill: none; stroke: #26828e; stroke-width: 1.5; stroke-linecap: round"/>
   </g>
   <g id="line2d_6">
    <path d="M 67.570504 55.148021 
L 70.004274 67.458395 
L 72.438043 75.879714 
L 73.654928 90.884289 
L 76.088698 73.801199 
L 78.522468 68.004222 
L 80.956237 93.46435 
L 82.173122 77.160835 
L 83.390007 86.697446 
L 84.606892 108.003015 
L 85.823777 110.272057 
L 87.040661 101.069575 
L 88.257546 102.050439 
L 89.474431 127.918791 
L 90.691316 125.635635 
L 91.908201 120.907729 
L 93.125086 104.244858 
L 94.34197 116.513775 
L 95.558855 79.15326 
L 97.992625 108.405769 
L 99.20951 105.687752 
L 100.426395 88.808597 
L 101.643279 97.363638 
L 102.860164 97.402272 
L 104.077049 109.544524 
L 105.293934 96.668212 
L 106.510819 112.268715 
L 107.727704 114.834133 
L 110.161473 95.496997 
L 111.378358 117.896335 
L 112.595243 121.6619 
L 113.812128 108.401888 
L 115.029013 112.517812 
L 116.245897 130.899136 
L 117.462782 116.652613 
L 118.679667 127.755431 
L 119.896552 119.193334 
L 121.113437 131.459781 
L 122.330322 116.41957 
L 123.547206 117.067187 
L 124.764091 115.334268 
L 128.414746 120.920078 
L 129.63163 121.514242 
L 130.848515 113.136321 
L 132.0654 121.360232 
L 133.282285 115.789241 
L 134.49917 123.075156 
L 135.716055 95.707988 
L 138.149824 116.309311 
L 139.366709 131.197629 
L 140.583594 105.995595 
L 143.017364 116.94158 
L 144.234248 117.432894 
L 145.451133 107.229261 
L 146.668018 121.19599 
L 147.884903 98.786243 
L 149.101788 127.520623 
L 150.318673 96.426701 
L 152.752442 125.445108 
L 153.969327 116.031458 
L 155.186212 128.642442 
L 156.403097 117.15857 
L 157.619982 124.648244 
L 160.053751 111.545063 
L 161.270636 129.721746 
L 162.487521 95.664414 
L 163.704406 106.711661 
L 164.921291 104.283317 
L 167.35506 111.868607 
L 168.571945 106.515841 
L 169.78883 116.723179 
L 171.005715 106.261628 
L 173.439484 125.652747 
L 174.656369 97.43879 
L 177.090139 126.484188 
L 179.523909 100.019204 
L 181.957678 125.821929 
L 183.174563 105.443594 
L 185.608333 123.75541 
L 186.825218 105.512396 
L 188.042102 116.67837 
L 189.258987 108.50015 
L 190.475872 126.011045 
L 191.692757 97.669187 
L 194.126527 107.686351 
L 195.343411 132.570486 
L 196.560296 101.665856 
L 197.777181 131.114714 
L 198.994066 105.029373 
L 201.427836 116.120724 
L 202.64472 114.233266 
L 203.861605 133.550821 
L 205.07849 108.37913 
L 206.295375 110.494868 
L 207.51226 104.682895 
L 211.162914 124.871232 
L 213.596684 115.45864 
L 214.813569 124.899987 
L 216.030454 100.60243 
L 217.247338 119.628372 
L 218.464223 113.526373 
L 219.681108 119.69682 
L 222.114878 113.945887 
L 223.331763 119.333936 
L 224.548647 100.550917 
L 225.765532 124.250429 
L 226.982417 102.115713 
L 228.199302 117.59202 
L 229.416187 109.747929 
L 231.849956 121.149064 
L 233.066841 104.892476 
L 234.283726 133.144185 
L 236.717496 104.4278 
L 237.934381 123.026642 
L 240.36815 123.736005 
L 241.585035 128.454032 
L 242.80192 152.534776 
L 244.018805 118.796048 
L 245.23569 120.305097 
L 246.452574 135.987986 
L 247.669459 132.406068 
L 248.886344 121.41298 
L 250.103229 125.565069 
L 251.320114 119.260724 
L 252.536998 131.733576 
L 253.753883 115.258763 
L 256.187653 129.669527 
L 258.621423 124.729747 
L 259.838307 123.180652 
L 261.055192 124.037497 
L 262.272077 105.307755 
L 263.488962 112.009915 
L 264.705847 133.025282 
L 265.922732 115.076703 
L 267.139616 118.980931 
L 268.356501 127.152623 
L 270.790271 100.5301 
L 274.440925 124.531105 
L 275.65781 135.053166 
L 276.874695 101.183892 
L 278.09158 104.772867 
L 280.52535 123.735652 
L 281.742234 106.007238 
L 282.959119 114.700764 
L 284.176004 107.977611 
L 285.392889 145.523538 
L 286.609774 104.615152 
L 287.826659 104.611271 
L 289.043543 121.135127 
L 291.477313 111.733121 
L 293.911083 117.588315 
L 295.127968 102.713934 
L 296.344852 111.083916 
L 297.561737 128.89154 
L 298.778622 110.189848 
L 299.995507 125.717844 
L 301.212392 120.842456 
L 302.429277 105.515571 
L 303.646161 114.845424 
L 306.079931 107.317821 
L 308.513701 120.656162 
L 309.730586 122.416778 
L 309.730586 122.416778 
" clip-path="url(#p867c0c1a69)" style="fill: none; stroke: #1f9e89; stroke-width: 1.5; stroke-linecap: round"/>
   </g>
   <g id="line2d_7">
    <path d="M 67.570504 50.195539 
L 70.004274 62.385246 
L 71.221159 63.934694 
L 72.438043 70.223515 
L 73.654928 84.191655 
L 77.305583 62.634167 
L 78.522468 62.507149 
L 80.956237 88.316224 
L 82.173122 72.909601 
L 83.390007 78.648009 
L 85.823777 103.680156 
L 87.040661 93.893919 
L 88.257546 96.658862 
L 89.474431 118.993985 
L 90.691316 120.721082 
L 91.908201 115.001374 
L 93.125086 96.936186 
L 94.34197 111.807391 
L 95.558855 71.419252 
L 97.992625 99.976512 
L 99.20951 103.02654 
L 100.426395 82.027051 
L 101.643279 93.694923 
L 102.860164 86.185315 
L 104.077049 102.421086 
L 105.293934 91.655926 
L 106.510819 108.569481 
L 107.727704 107.557392 
L 110.161473 90.730279 
L 112.595243 118.323611 
L 113.812128 105.95696 
L 115.029013 105.115463 
L 116.245897 122.497223 
L 117.462782 112.965199 
L 118.679667 119.52464 
L 119.896552 111.034873 
L 121.113437 120.434233 
L 123.547206 103.925725 
L 128.414746 115.612121 
L 130.848515 105.45118 
L 132.0654 112.832888 
L 133.282285 113.261223 
L 134.49917 119.061023 
L 135.716055 91.73196 
L 139.366709 126.12148 
L 140.583594 102.939215 
L 141.800479 104.731762 
L 143.017364 114.634785 
L 144.234248 113.103684 
L 145.451133 101.251635 
L 146.668018 115.03948 
L 147.884903 89.600521 
L 149.101788 116.81809 
L 150.318673 91.070406 
L 152.752442 117.43607 
L 153.969327 104.400279 
L 155.186212 120.370018 
L 156.403097 113.399355 
L 157.619982 117.189972 
L 158.836866 106.91489 
L 160.053751 107.708226 
L 161.270636 122.053011 
L 162.487521 87.692776 
L 163.704406 100.11041 
L 164.921291 95.714516 
L 166.138175 104.569814 
L 167.35506 103.513973 
L 168.571945 100.724861 
L 169.78883 108.787706 
L 171.005715 100.659059 
L 173.439484 120.408829 
L 174.656369 89.826685 
L 175.873254 99.96575 
L 177.090139 120.840868 
L 179.523909 87.338007 
L 180.740793 115.059767 
L 181.957678 119.759624 
L 183.174563 102.316296 
L 185.608333 116.455382 
L 186.825218 95.872407 
L 188.042102 109.430207 
L 189.258987 101.498086 
L 190.475872 120.382896 
L 191.692757 92.60874 
L 192.909642 98.125395 
L 194.126527 98.607359 
L 195.343411 126.858011 
L 196.560296 93.780132 
L 197.777181 124.831362 
L 198.994066 99.335598 
L 201.427836 106.730361 
L 202.64472 106.314729 
L 203.861605 127.7235 
L 205.07849 100.110939 
L 206.295375 101.302442 
L 207.51226 96.689205 
L 211.162914 117.746912 
L 213.596684 109.024101 
L 214.813569 117.761554 
L 216.030454 91.003016 
L 217.247338 109.667837 
L 218.464223 103.090226 
L 219.681108 110.399075 
L 220.897993 110.179439 
L 222.114878 107.599731 
L 223.331763 109.290487 
L 224.548647 93.005143 
L 225.765532 121.720294 
L 226.982417 91.808701 
L 228.199302 112.028791 
L 229.416187 102.325999 
L 231.849956 118.330667 
L 233.066841 102.810433 
L 234.283726 125.480743 
L 235.500611 118.789874 
L 236.717496 97.280194 
L 239.151265 117.227019 
L 240.36815 116.447973 
L 241.585035 119.530991 
L 242.80192 142.654686 
L 244.018805 110.736379 
L 245.23569 113.849388 
L 246.452574 126.387513 
L 247.669459 126.832783 
L 248.886344 117.550563 
L 250.103229 120.763422 
L 251.320114 113.850094 
L 252.536998 126.97709 
L 253.753883 106.281563 
L 256.187653 124.641187 
L 259.838307 117.654294 
L 261.055192 117.949965 
L 262.272077 100.393732 
L 263.488962 102.080253 
L 264.705847 129.919859 
L 265.922732 109.408685 
L 267.139616 112.672351 
L 268.356501 123.619748 
L 270.790271 95.407555 
L 273.224041 105.279352 
L 275.65781 129.919154 
L 276.874695 97.792677 
L 278.09158 98.746374 
L 280.52535 120.128154 
L 281.742234 99.354298 
L 282.959119 110.089644 
L 284.176004 102.543341 
L 285.392889 136.580033 
L 286.609774 97.956566 
L 287.826659 99.878072 
L 289.043543 113.420878 
L 291.477313 105.894862 
L 293.911083 113.507497 
L 295.127968 95.435605 
L 296.344852 103.044711 
L 297.561737 118.586115 
L 298.778622 102.015509 
L 299.995507 121.176584 
L 301.212392 113.141084 
L 302.429277 97.429793 
L 303.646161 107.152344 
L 304.863046 105.881984 
L 306.079931 102.574743 
L 308.513701 114.096898 
L 309.730586 113.937948 
L 309.730586 113.937948 
" clip-path="url(#p867c0c1a69)" style="fill: none; stroke: #35b779; stroke-width: 1.5; stroke-linecap: round"/>
   </g>
   <g id="line2d_8">
    <path d="M 67.570504 55.67797 
L 70.004274 70.942933 
L 71.221159 72.482678 
L 72.438043 76.754906 
L 73.654928 91.717142 
L 76.088698 74.904319 
L 78.522468 69.751077 
L 79.739352 78.807488 
L 80.956237 96.536078 
L 82.173122 77.60787 
L 83.390007 87.114137 
L 85.823777 110.84064 
L 87.040661 103.462813 
L 88.257546 102.9685 
L 89.474431 127.384078 
L 91.908201 122.204375 
L 93.125086 102.967441 
L 94.34197 118.276331 
L 95.558855 80.807674 
L 99.20951 109.511181 
L 100.426395 91.313329 
L 101.643279 96.856093 
L 102.860164 93.057185 
L 104.077049 108.451989 
L 105.293934 98.793829 
L 106.510819 116.165357 
L 107.727704 116.658258 
L 108.944588 99.4201 
L 110.161473 98.382431 
L 111.378358 120.540787 
L 112.595243 122.15198 
L 113.812128 110.811179 
L 115.029013 114.908933 
L 116.245897 129.248426 
L 117.462782 120.58983 
L 118.679667 127.117869 
L 119.896552 122.271412 
L 121.113437 129.671997 
L 123.547206 115.579308 
L 124.764091 115.788183 
L 127.197861 120.112629 
L 128.414746 127.073413 
L 129.63163 123.289147 
L 130.848515 114.269784 
L 132.0654 121.896708 
L 133.282285 117.767552 
L 134.49917 126.154294 
L 135.716055 99.734824 
L 138.149824 117.589021 
L 139.366709 133.554525 
L 140.583594 108.500856 
L 143.017364 118.769586 
L 144.234248 117.725389 
L 145.451133 109.081612 
L 146.668018 120.886206 
L 147.884903 99.281262 
L 149.101788 124.973375 
L 150.318673 94.264566 
L 152.752442 125.853683 
L 153.969327 117.068422 
L 155.186212 127.053301 
L 156.403097 116.577814 
L 157.619982 125.605645 
L 158.836866 116.380582 
L 160.053751 114.846835 
L 161.270636 129.257247 
L 162.487521 97.042563 
L 163.704406 107.380095 
L 164.921291 104.332889 
L 166.138175 110.549557 
L 167.35506 110.291109 
L 168.571945 109.007871 
L 169.78883 115.469755 
L 171.005715 108.809052 
L 173.439484 127.33627 
L 174.656369 97.106602 
L 177.090139 129.776081 
L 179.523909 97.304186 
L 180.740793 124.817425 
L 181.957678 126.395276 
L 183.174563 106.247691 
L 184.391448 119.468893 
L 185.608333 120.520676 
L 186.825218 104.291961 
L 188.042102 118.334195 
L 189.258987 106.264627 
L 190.475872 126.436909 
L 191.692757 98.415597 
L 194.126527 110.070591 
L 195.343411 134.562028 
L 196.560296 103.275108 
L 197.777181 130.916424 
L 198.994066 108.997286 
L 201.427836 116.022285 
L 202.64472 113.461629 
L 203.861605 134.146572 
L 205.07849 108.33044 
L 206.295375 111.270562 
L 207.51226 106.065984 
L 209.946029 121.506127 
L 211.162914 125.52026 
L 213.596684 115.875684 
L 214.813569 125.053468 
L 216.030454 102.099306 
L 217.247338 120.994701 
L 218.464223 115.118161 
L 219.681108 117.789781 
L 220.897993 117.758379 
L 222.114878 114.198159 
L 223.331763 117.276062 
L 224.548647 102.851184 
L 225.765532 124.217969 
L 226.982417 104.840433 
L 228.199302 122.492636 
L 229.416187 108.527318 
L 231.849956 121.377344 
L 233.066841 108.467337 
L 234.283726 134.282411 
L 236.717496 110.129161 
L 237.934381 123.278033 
L 239.151265 125.156317 
L 240.36815 122.568671 
L 241.585035 127.484458 
L 242.80192 152.32449 
L 244.018805 118.478502 
L 245.23569 122.413249 
L 246.452574 133.585045 
L 247.669459 132.35279 
L 248.886344 124.291181 
L 250.103229 125.282806 
L 251.320114 122.927674 
L 252.536998 133.669195 
L 253.753883 117.649002 
L 256.187653 131.180869 
L 259.838307 122.225545 
L 261.055192 127.536677 
L 262.272077 107.431079 
L 263.488962 112.751208 
L 264.705847 135.494202 
L 265.922732 118.373007 
L 268.356501 128.573641 
L 270.790271 101.424874 
L 275.65781 136.914161 
L 276.874695 104.697008 
L 278.09158 105.234367 
L 280.52535 125.831984 
L 281.742234 107.905634 
L 282.959119 114.429086 
L 284.176004 107.181629 
L 285.392889 146.974723 
L 286.609774 105.694808 
L 287.826659 106.903423 
L 289.043543 123.058926 
L 291.477313 112.167982 
L 293.911083 122.06536 
L 295.127968 106.049754 
L 296.344852 113.185364 
L 297.561737 131.973323 
L 298.778622 110.647819 
L 299.995507 129.900806 
L 302.429277 107.718458 
L 303.646161 116.263443 
L 306.079931 109.775627 
L 308.513701 121.169704 
L 309.730586 121.360408 
L 309.730586 121.360408 
" clip-path="url(#p867c0c1a69)" style="fill: none; stroke: #6ece58; stroke-width: 1.5; stroke-linecap: round"/>
   </g>
   <g id="line2d_9">
    <path d="M 67.570504 50.046646 
L 70.004274 61.233436 
L 72.438043 67.219001 
L 73.654928 82.79463 
L 76.088698 66.609136 
L 78.522468 61.953913 
L 79.739352 69.975124 
L 80.956237 85.874825 
L 82.173122 71.376736 
L 83.390007 80.910877 
L 84.606892 100.310817 
L 85.823777 103.193781 
L 87.040661 93.978774 
L 88.257546 95.478297 
L 89.474431 119.904637 
L 90.691316 119.921749 
L 91.908201 114.045561 
L 93.125086 95.514638 
L 94.34197 108.135325 
L 95.558855 72.626632 
L 97.992625 100.14975 
L 99.20951 98.840932 
L 100.426395 81.999883 
L 101.643279 89.856499 
L 102.860164 88.007146 
L 104.077049 102.915752 
L 105.293934 87.883303 
L 106.510819 103.937368 
L 107.727704 106.168481 
L 110.161473 88.376205 
L 112.595243 115.830522 
L 113.812128 102.852419 
L 115.029013 104.47455 
L 116.245897 124.937563 
L 117.462782 108.853861 
L 118.679667 118.584527 
L 119.896552 110.665284 
L 121.113437 122.644 
L 123.547206 107.219382 
L 124.764091 108.622582 
L 127.197861 114.454313 
L 128.414746 114.817903 
L 129.63163 111.5403 
L 130.848515 105.338628 
L 132.0654 113.710903 
L 133.282285 110.509158 
L 134.49917 117.555855 
L 135.716055 89.028586 
L 138.149824 109.439381 
L 139.366709 124.747565 
L 140.583594 96.772826 
L 143.017364 111.038401 
L 144.234248 110.71715 
L 145.451133 101.880199 
L 146.668018 113.122561 
L 147.884903 91.283868 
L 149.101788 118.005535 
L 150.318673 90.693938 
L 152.752442 116.48502 
L 153.969327 105.648588 
L 155.186212 122.521568 
L 156.403097 109.464255 
L 157.619982 116.215105 
L 160.053751 102.369749 
L 161.270636 123.607575 
L 162.487521 86.140682 
L 163.704406 100.183093 
L 164.921291 97.018747 
L 167.35506 105.687399 
L 168.571945 99.105554 
L 169.78883 107.92451 
L 171.005715 100.436424 
L 173.439484 119.005981 
L 174.656369 89.37277 
L 175.873254 99.256741 
L 177.090139 118.071338 
L 179.523909 94.001003 
L 181.957678 120.763951 
L 183.174563 101.690378 
L 185.608333 118.458568 
L 186.825218 96.52955 
L 188.042102 109.892942 
L 189.258987 99.592987 
L 190.475872 118.918833 
L 191.692757 92.787624 
L 194.126527 99.001645 
L 195.343411 124.879523 
L 196.560296 94.939527 
L 197.777181 124.344811 
L 198.994066 95.802017 
L 201.427836 108.265519 
L 202.64472 106.146076 
L 203.861605 125.755597 
L 205.07849 99.952166 
L 206.295375 102.394095 
L 207.51226 97.542169 
L 211.162914 117.864933 
L 213.596684 109.464784 
L 214.813569 117.358624 
L 216.030454 88.923443 
L 217.247338 109.917464 
L 218.464223 105.186029 
L 219.681108 111.997037 
L 222.114878 106.920183 
L 223.331763 111.020407 
L 224.548647 93.66705 
L 225.765532 119.689058 
L 226.982417 93.443709 
L 228.199302 110.510569 
L 229.416187 101.90331 
L 231.849956 116.050511 
L 233.066841 101.601641 
L 234.283726 126.223448 
L 235.500611 117.025377 
L 236.717496 94.936175 
L 239.151265 117.911859 
L 240.36815 116.208578 
L 241.585035 120.126919 
L 242.80192 143.92734 
L 244.018805 111.904243 
L 245.23569 113.259635 
L 246.452574 129.175743 
L 247.669459 125.073579 
L 248.886344 114.558045 
L 250.103229 120.182666 
L 251.320114 111.021112 
L 252.536998 125.858976 
L 253.753883 105.669405 
L 254.970768 119.723283 
L 256.187653 121.854016 
L 259.838307 116.893066 
L 261.055192 118.989575 
L 262.272077 96.850095 
L 263.488962 102.64178 
L 264.705847 127.924612 
L 265.922732 107.879877 
L 267.139616 111.420162 
L 268.356501 120.783533 
L 270.790271 95.394676 
L 273.224041 103.926783 
L 275.65781 129.329047 
L 276.874695 92.935107 
L 278.09158 99.388699 
L 279.308465 116.869074 
L 280.52535 118.817042 
L 281.742234 98.343973 
L 282.959119 110.763194 
L 284.176004 100.533628 
L 285.392889 137.052294 
L 286.609774 100.878342 
L 287.826659 96.556189 
L 289.043543 112.799017 
L 291.477313 104.709534 
L 293.911083 112.945617 
L 295.127968 97.129536 
L 296.344852 103.842281 
L 297.561737 120.869271 
L 298.778622 105.773489 
L 299.995507 121.907293 
L 301.212392 113.972702 
L 302.429277 97.371223 
L 303.646161 108.265166 
L 306.079931 100.754499 
L 308.513701 114.186693 
L 309.730586 116.09973 
L 309.730586 116.09973 
" clip-path="url(#p867c0c1a69)" style="fill: none; stroke: #b5de2b; stroke-width: 1.5; stroke-linecap: round"/>
   </g>
   <g id="patch_3">
    <path d="M 55.4625 192.009865 
L 55.4625 28.442513 
" style="fill: none"/>
   </g>
   <g id="patch_4">
    <path d="M 321.83859 192.009865 
L 321.83859 28.442513 
" style="fill: none"/>
   </g>
   <g id="patch_5">
    <path d="M 55.4625 192.009865 
L 321.83859 192.009865 
" style="fill: none"/>
   </g>
   <g id="patch_6">
    <path d="M 55.4625 28.442513 
L 321.83859 28.442513 
" style="fill: none"/>
   </g>
  </g>
  <g id="text_11">
   <!-- hmc: pytorch -->
   <g style="fill: #262626" transform="translate(136.725031 18.14175) scale(0.144 -0.144)">
    <defs>
     <path id="DejaVuSans-68" d="M 3513 2113 
L 3513 0 
L 2938 0 
L 2938 2094 
Q 2938 2591 2744 2837 
Q 2550 3084 2163 3084 
Q 1697 3084 1428 2787 
Q 1159 2491 1159 1978 
L 1159 0 
L 581 0 
L 581 4863 
L 1159 4863 
L 1159 2956 
Q 1366 3272 1645 3428 
Q 1925 3584 2291 3584 
Q 2894 3584 3203 3211 
Q 3513 2838 3513 2113 
z
" transform="scale(0.015625)"/>
     <path id="DejaVuSans-6d" d="M 3328 2828 
Q 3544 3216 3844 3400 
Q 4144 3584 4550 3584 
Q 5097 3584 5394 3201 
Q 5691 2819 5691 2113 
L 5691 0 
L 5113 0 
L 5113 2094 
Q 5113 2597 4934 2840 
Q 4756 3084 4391 3084 
Q 3944 3084 3684 2787 
Q 3425 2491 3425 1978 
L 3425 0 
L 2847 0 
L 2847 2094 
Q 2847 2600 2669 2842 
Q 2491 3084 2119 3084 
Q 1678 3084 1418 2786 
Q 1159 2488 1159 1978 
L 1159 0 
L 581 0 
L 581 3500 
L 1159 3500 
L 1159 2956 
Q 1356 3278 1631 3431 
Q 1906 3584 2284 3584 
Q 2666 3584 2933 3390 
Q 3200 3197 3328 2828 
z
" transform="scale(0.015625)"/>
     <path id="DejaVuSans-63" d="M 3122 3366 
L 3122 2828 
Q 2878 2963 2633 3030 
Q 2388 3097 2138 3097 
Q 1578 3097 1268 2742 
Q 959 2388 959 1747 
Q 959 1106 1268 751 
Q 1578 397 2138 397 
Q 2388 397 2633 464 
Q 2878 531 3122 666 
L 3122 134 
Q 2881 22 2623 -34 
Q 2366 -91 2075 -91 
Q 1284 -91 818 406 
Q 353 903 353 1747 
Q 353 2603 823 3093 
Q 1294 3584 2113 3584 
Q 2378 3584 2631 3529 
Q 2884 3475 3122 3366 
z
" transform="scale(0.015625)"/>
     <path id="DejaVuSans-3a" d="M 750 794 
L 1409 794 
L 1409 0 
L 750 0 
L 750 794 
z
M 750 3309 
L 1409 3309 
L 1409 2516 
L 750 2516 
L 750 3309 
z
" transform="scale(0.015625)"/>
     <path id="DejaVuSans-20" transform="scale(0.015625)"/>
     <path id="DejaVuSans-79" d="M 2059 -325 
Q 1816 -950 1584 -1140 
Q 1353 -1331 966 -1331 
L 506 -1331 
L 506 -850 
L 844 -850 
Q 1081 -850 1212 -737 
Q 1344 -625 1503 -206 
L 1606 56 
L 191 3500 
L 800 3500 
L 1894 763 
L 2988 3500 
L 3597 3500 
L 2059 -325 
z
" transform="scale(0.015625)"/>
     <path id="DejaVuSans-74" d="M 1172 4494 
L 1172 3500 
L 2356 3500 
L 2356 3053 
L 1172 3053 
L 1172 1153 
Q 1172 725 1289 603 
Q 1406 481 1766 481 
L 2356 481 
L 2356 0 
L 1766 0 
Q 1100 0 847 248 
Q 594 497 594 1153 
L 594 3053 
L 172 3053 
L 172 3500 
L 594 3500 
L 594 4494 
L 1172 4494 
z
" transform="scale(0.015625)"/>
    </defs>
    <use xlink:href="#DejaVuSans-68"/>
    <use xlink:href="#DejaVuSans-6d" x="63.378906"/>
    <use xlink:href="#DejaVuSans-63" x="160.791016"/>
    <use xlink:href="#DejaVuSans-3a" x="215.771484"/>
    <use xlink:href="#DejaVuSans-20" x="249.462891"/>
    <use xlink:href="#DejaVuSans-70" x="281.25"/>
    <use xlink:href="#DejaVuSans-79" x="344.726562"/>
    <use xlink:href="#DejaVuSans-74" x="403.90625"/>
    <use xlink:href="#DejaVuSans-6f" x="443.115234"/>
    <use xlink:href="#DejaVuSans-72" x="504.296875"/>
    <use xlink:href="#DejaVuSans-63" x="543.160156"/>
    <use xlink:href="#DejaVuSans-68" x="598.140625"/>
   </g>
  </g>
 </g>
 <defs>
  <clipPath id="p867c0c1a69">
   <rect x="55.4625" y="28.442513" width="266.37609" height="163.567352"/>
  </clipPath>
 </defs>
</svg>
