<?xml version="1.0" encoding="utf-8" standalone="no"?>
<!DOCTYPE svg PUBLIC "-//W3C//DTD SVG 1.1//EN"
  "http://www.w3.org/Graphics/SVG/1.1/DTD/svg11.dtd">
<svg xmlns:xlink="http://www.w3.org/1999/xlink" width="656.39952pt" height="224.39952pt" viewBox="0 0 656.39952 224.39952" xmlns="http://www.w3.org/2000/svg" version="1.1">
 <metadata>
  <rdf:RDF xmlns:dc="http://purl.org/dc/elements/1.1/" xmlns:cc="http://creativecommons.org/ns#" xmlns:rdf="http://www.w3.org/1999/02/22-rdf-syntax-ns#">
   <cc:Work>
    <dc:type rdf:resource="http://purl.org/dc/dcmitype/StillImage"/>
    <dc:date>2023-12-05T12:16:19.729967</dc:date>
    <dc:format>image/svg+xml</dc:format>
    <dc:creator>
     <cc:Agent>
      <dc:title>Matplotlib v3.8.2, https://matplotlib.org/</dc:title>
     </cc:Agent>
    </dc:creator>
   </cc:Work>
  </rdf:RDF>
 </metadata>
 <defs>
  <style type="text/css">*{stroke-linejoin: round; stroke-linecap: butt}</style>
 </defs>
 <g id="figure_1">
  <g id="patch_1">
   <path d="M 0 224.39952 
L 656.39952 224.39952 
L 656.39952 0 
L 0 0 
L 0 224.39952 
z
" style="fill: none"/>
  </g>
  <g id="axes_1">
   <g id="patch_2">
    <path d="M 46.714063 181.874911 
L 596.567098 181.874911 
L 596.567098 7.2 
L 46.714063 7.2 
L 46.714063 181.874911 
z
" style="fill: none"/>
   </g>
   <g id="matplotlib.axis_1">
    <g id="xtick_1">
     <g id="text_1">
      <!-- 0 -->
      <g style="fill: #838383" transform="translate(67.333164 195.822762) scale(0.1375 -0.1375)">
       <defs>
        <path id="DejaVuSans-30" d="M 2034 4250 
Q 1547 4250 1301 3770 
Q 1056 3291 1056 2328 
Q 1056 1369 1301 889 
Q 1547 409 2034 409 
Q 2525 409 2770 889 
Q 3016 1369 3016 2328 
Q 3016 3291 2770 3770 
Q 2525 4250 2034 4250 
z
M 2034 4750 
Q 2819 4750 3233 4129 
Q 3647 3509 3647 2328 
Q 3647 1150 3233 529 
Q 2819 -91 2034 -91 
Q 1250 -91 836 529 
Q 422 1150 422 2328 
Q 422 3509 836 4129 
Q 1250 4750 2034 4750 
z
" transform="scale(0.015625)"/>
       </defs>
       <use xlink:href="#DejaVuSans-30"/>
      </g>
     </g>
    </g>
    <g id="xtick_2">
     <g id="text_2">
      <!-- 250 -->
      <g style="fill: #838383" transform="translate(121.382012 195.822762) scale(0.1375 -0.1375)">
       <defs>
        <path id="DejaVuSans-32" d="M 1228 531 
L 3431 531 
L 3431 0 
L 469 0 
L 469 531 
Q 828 903 1448 1529 
Q 2069 2156 2228 2338 
Q 2531 2678 2651 2914 
Q 2772 3150 2772 3378 
Q 2772 3750 2511 3984 
Q 2250 4219 1831 4219 
Q 1534 4219 1204 4116 
Q 875 4013 500 3803 
L 500 4441 
Q 881 4594 1212 4672 
Q 1544 4750 1819 4750 
Q 2544 4750 2975 4387 
Q 3406 4025 3406 3419 
Q 3406 3131 3298 2873 
Q 3191 2616 2906 2266 
Q 2828 2175 2409 1742 
Q 1991 1309 1228 531 
z
" transform="scale(0.015625)"/>
        <path id="DejaVuSans-35" d="M 691 4666 
L 3169 4666 
L 3169 4134 
L 1269 4134 
L 1269 2991 
Q 1406 3038 1543 3061 
Q 1681 3084 1819 3084 
Q 2600 3084 3056 2656 
Q 3513 2228 3513 1497 
Q 3513 744 3044 326 
Q 2575 -91 1722 -91 
Q 1428 -91 1123 -41 
Q 819 9 494 109 
L 494 744 
Q 775 591 1075 516 
Q 1375 441 1709 441 
Q 2250 441 2565 725 
Q 2881 1009 2881 1497 
Q 2881 1984 2565 2268 
Q 2250 2553 1709 2553 
Q 1456 2553 1204 2497 
Q 953 2441 691 2322 
L 691 4666 
z
" transform="scale(0.015625)"/>
       </defs>
       <use xlink:href="#DejaVuSans-32"/>
       <use xlink:href="#DejaVuSans-35" x="63.623047"/>
       <use xlink:href="#DejaVuSans-30" x="127.246094"/>
      </g>
     </g>
    </g>
    <g id="xtick_3">
     <g id="text_3">
      <!-- 500 -->
      <g style="fill: #838383" transform="translate(184.179298 195.822762) scale(0.1375 -0.1375)">
       <use xlink:href="#DejaVuSans-35"/>
       <use xlink:href="#DejaVuSans-30" x="63.623047"/>
       <use xlink:href="#DejaVuSans-30" x="127.246094"/>
      </g>
     </g>
    </g>
    <g id="xtick_4">
     <g id="text_4">
      <!-- 750 -->
      <g style="fill: #838383" transform="translate(246.976584 195.822762) scale(0.1375 -0.1375)">
       <defs>
        <path id="DejaVuSans-37" d="M 525 4666 
L 3525 4666 
L 3525 4397 
L 1831 0 
L 1172 0 
L 2766 4134 
L 525 4134 
L 525 4666 
z
" transform="scale(0.015625)"/>
       </defs>
       <use xlink:href="#DejaVuSans-37"/>
       <use xlink:href="#DejaVuSans-35" x="63.623047"/>
       <use xlink:href="#DejaVuSans-30" x="127.246094"/>
      </g>
     </g>
    </g>
    <g id="xtick_5">
     <g id="text_5">
      <!-- 1000 -->
      <g style="fill: #838383" transform="translate(305.399651 195.822762) scale(0.1375 -0.1375)">
       <defs>
        <path id="DejaVuSans-31" d="M 794 531 
L 1825 531 
L 1825 4091 
L 703 3866 
L 703 4441 
L 1819 4666 
L 2450 4666 
L 2450 531 
L 3481 531 
L 3481 0 
L 794 0 
L 794 531 
z
" transform="scale(0.015625)"/>
       </defs>
       <use xlink:href="#DejaVuSans-31"/>
       <use xlink:href="#DejaVuSans-30" x="63.623047"/>
       <use xlink:href="#DejaVuSans-30" x="127.246094"/>
       <use xlink:href="#DejaVuSans-30" x="190.869141"/>
      </g>
     </g>
    </g>
    <g id="xtick_6">
     <g id="text_6">
      <!-- 1250 -->
      <g style="fill: #838383" transform="translate(368.196937 195.822762) scale(0.1375 -0.1375)">
       <use xlink:href="#DejaVuSans-31"/>
       <use xlink:href="#DejaVuSans-32" x="63.623047"/>
       <use xlink:href="#DejaVuSans-35" x="127.246094"/>
       <use xlink:href="#DejaVuSans-30" x="190.869141"/>
      </g>
     </g>
    </g>
    <g id="xtick_7">
     <g id="text_7">
      <!-- 1500 -->
      <g style="fill: #838383" transform="translate(430.994223 195.822762) scale(0.1375 -0.1375)">
       <use xlink:href="#DejaVuSans-31"/>
       <use xlink:href="#DejaVuSans-35" x="63.623047"/>
       <use xlink:href="#DejaVuSans-30" x="127.246094"/>
       <use xlink:href="#DejaVuSans-30" x="190.869141"/>
      </g>
     </g>
    </g>
    <g id="xtick_8">
     <g id="text_8">
      <!-- 1750 -->
      <g style="fill: #838383" transform="translate(493.791509 195.822762) scale(0.1375 -0.1375)">
       <use xlink:href="#DejaVuSans-31"/>
       <use xlink:href="#DejaVuSans-37" x="63.623047"/>
       <use xlink:href="#DejaVuSans-35" x="127.246094"/>
       <use xlink:href="#DejaVuSans-30" x="190.869141"/>
      </g>
     </g>
    </g>
    <g id="xtick_9">
     <g id="text_9">
      <!-- 2000 -->
      <g style="fill: #838383" transform="translate(556.588795 195.822762) scale(0.1375 -0.1375)">
       <use xlink:href="#DejaVuSans-32"/>
       <use xlink:href="#DejaVuSans-30" x="63.623047"/>
       <use xlink:href="#DejaVuSans-30" x="127.246094"/>
       <use xlink:href="#DejaVuSans-30" x="190.869141"/>
      </g>
     </g>
    </g>
    <g id="text_10">
     <!-- Step -->
     <g style="fill: #838383" transform="translate(304.562846 214.079989) scale(0.15 -0.15)">
      <defs>
       <path id="DejaVuSans-53" d="M 3425 4513 
L 3425 3897 
Q 3066 4069 2747 4153 
Q 2428 4238 2131 4238 
Q 1616 4238 1336 4038 
Q 1056 3838 1056 3469 
Q 1056 3159 1242 3001 
Q 1428 2844 1947 2747 
L 2328 2669 
Q 3034 2534 3370 2195 
Q 3706 1856 3706 1288 
Q 3706 609 3251 259 
Q 2797 -91 1919 -91 
Q 1588 -91 1214 -16 
Q 841 59 441 206 
L 441 856 
Q 825 641 1194 531 
Q 1563 422 1919 422 
Q 2459 422 2753 634 
Q 3047 847 3047 1241 
Q 3047 1584 2836 1778 
Q 2625 1972 2144 2069 
L 1759 2144 
Q 1053 2284 737 2584 
Q 422 2884 422 3419 
Q 422 4038 858 4394 
Q 1294 4750 2059 4750 
Q 2388 4750 2728 4690 
Q 3069 4631 3425 4513 
z
" transform="scale(0.015625)"/>
       <path id="DejaVuSans-74" d="M 1172 4494 
L 1172 3500 
L 2356 3500 
L 2356 3053 
L 1172 3053 
L 1172 1153 
Q 1172 725 1289 603 
Q 1406 481 1766 481 
L 2356 481 
L 2356 0 
L 1766 0 
Q 1100 0 847 248 
Q 594 497 594 1153 
L 594 3053 
L 172 3053 
L 172 3500 
L 594 3500 
L 594 4494 
L 1172 4494 
z
" transform="scale(0.015625)"/>
       <path id="DejaVuSans-65" d="M 3597 1894 
L 3597 1613 
L 953 1613 
Q 991 1019 1311 708 
Q 1631 397 2203 397 
Q 2534 397 2845 478 
Q 3156 559 3463 722 
L 3463 178 
Q 3153 47 2828 -22 
Q 2503 -91 2169 -91 
Q 1331 -91 842 396 
Q 353 884 353 1716 
Q 353 2575 817 3079 
Q 1281 3584 2069 3584 
Q 2775 3584 3186 3129 
Q 3597 2675 3597 1894 
z
M 3022 2063 
Q 3016 2534 2758 2815 
Q 2500 3097 2075 3097 
Q 1594 3097 1305 2825 
Q 1016 2553 972 2059 
L 3022 2063 
z
" transform="scale(0.015625)"/>
       <path id="DejaVuSans-70" d="M 1159 525 
L 1159 -1331 
L 581 -1331 
L 581 3500 
L 1159 3500 
L 1159 2969 
Q 1341 3281 1617 3432 
Q 1894 3584 2278 3584 
Q 2916 3584 3314 3078 
Q 3713 2572 3713 1747 
Q 3713 922 3314 415 
Q 2916 -91 2278 -91 
Q 1894 -91 1617 61 
Q 1341 213 1159 525 
z
M 3116 1747 
Q 3116 2381 2855 2742 
Q 2594 3103 2138 3103 
Q 1681 3103 1420 2742 
Q 1159 2381 1159 1747 
Q 1159 1113 1420 752 
Q 1681 391 2138 391 
Q 2594 391 2855 752 
Q 3116 1113 3116 1747 
z
" transform="scale(0.015625)"/>
      </defs>
      <use xlink:href="#DejaVuSans-53"/>
      <use xlink:href="#DejaVuSans-74" x="63.476562"/>
      <use xlink:href="#DejaVuSans-65" x="102.685547"/>
      <use xlink:href="#DejaVuSans-70" x="164.208984"/>
     </g>
    </g>
   </g>
   <g id="matplotlib.axis_2">
    <g id="ytick_1">
     <g id="line2d_1"/>
     <g id="text_11">
      <!-- 50 -->
      <g style="fill: #023eff" transform="translate(25.717188 155.608998) scale(0.1375 -0.1375)">
       <use xlink:href="#DejaVuSans-35"/>
       <use xlink:href="#DejaVuSans-30" x="63.623047"/>
      </g>
     </g>
    </g>
    <g id="ytick_2">
     <g id="line2d_2"/>
     <g id="text_12">
      <!-- 55 -->
      <g style="fill: #023eff" transform="translate(25.717188 116.400212) scale(0.1375 -0.1375)">
       <use xlink:href="#DejaVuSans-35"/>
       <use xlink:href="#DejaVuSans-35" x="63.623047"/>
      </g>
     </g>
    </g>
    <g id="ytick_3">
     <g id="line2d_3"/>
     <g id="text_13">
      <!-- 60 -->
      <g style="fill: #023eff" transform="translate(25.717188 77.191426) scale(0.1375 -0.1375)">
       <defs>
        <path id="DejaVuSans-36" d="M 2113 2584 
Q 1688 2584 1439 2293 
Q 1191 2003 1191 1497 
Q 1191 994 1439 701 
Q 1688 409 2113 409 
Q 2538 409 2786 701 
Q 3034 994 3034 1497 
Q 3034 2003 2786 2293 
Q 2538 2584 2113 2584 
z
M 3366 4563 
L 3366 3988 
Q 3128 4100 2886 4159 
Q 2644 4219 2406 4219 
Q 1781 4219 1451 3797 
Q 1122 3375 1075 2522 
Q 1259 2794 1537 2939 
Q 1816 3084 2150 3084 
Q 2853 3084 3261 2657 
Q 3669 2231 3669 1497 
Q 3669 778 3244 343 
Q 2819 -91 2113 -91 
Q 1303 -91 875 529 
Q 447 1150 447 2328 
Q 447 3434 972 4092 
Q 1497 4750 2381 4750 
Q 2619 4750 2861 4703 
Q 3103 4656 3366 4563 
z
" transform="scale(0.015625)"/>
       </defs>
       <use xlink:href="#DejaVuSans-36"/>
       <use xlink:href="#DejaVuSans-30" x="63.623047"/>
      </g>
     </g>
    </g>
    <g id="ytick_4">
     <g id="line2d_4"/>
     <g id="text_14">
      <!-- 65 -->
      <g style="fill: #023eff" transform="translate(25.717188 37.98264) scale(0.1375 -0.1375)">
       <use xlink:href="#DejaVuSans-36"/>
       <use xlink:href="#DejaVuSans-35" x="63.623047"/>
      </g>
     </g>
    </g>
    <g id="text_15">
     <!-- loss -->
     <g style="fill: #023eff" transform="translate(18.597656 109.024174) rotate(-90) scale(0.15 -0.15)">
      <defs>
       <path id="DejaVuSans-6c" d="M 603 4863 
L 1178 4863 
L 1178 0 
L 603 0 
L 603 4863 
z
" transform="scale(0.015625)"/>
       <path id="DejaVuSans-6f" d="M 1959 3097 
Q 1497 3097 1228 2736 
Q 959 2375 959 1747 
Q 959 1119 1226 758 
Q 1494 397 1959 397 
Q 2419 397 2687 759 
Q 2956 1122 2956 1747 
Q 2956 2369 2687 2733 
Q 2419 3097 1959 3097 
z
M 1959 3584 
Q 2709 3584 3137 3096 
Q 3566 2609 3566 1747 
Q 3566 888 3137 398 
Q 2709 -91 1959 -91 
Q 1206 -91 779 398 
Q 353 888 353 1747 
Q 353 2609 779 3096 
Q 1206 3584 1959 3584 
z
" transform="scale(0.015625)"/>
       <path id="DejaVuSans-73" d="M 2834 3397 
L 2834 2853 
Q 2591 2978 2328 3040 
Q 2066 3103 1784 3103 
Q 1356 3103 1142 2972 
Q 928 2841 928 2578 
Q 928 2378 1081 2264 
Q 1234 2150 1697 2047 
L 1894 2003 
Q 2506 1872 2764 1633 
Q 3022 1394 3022 966 
Q 3022 478 2636 193 
Q 2250 -91 1575 -91 
Q 1294 -91 989 -36 
Q 684 19 347 128 
L 347 722 
Q 666 556 975 473 
Q 1284 391 1588 391 
Q 1994 391 2212 530 
Q 2431 669 2431 922 
Q 2431 1156 2273 1281 
Q 2116 1406 1581 1522 
L 1381 1569 
Q 847 1681 609 1914 
Q 372 2147 372 2553 
Q 372 3047 722 3315 
Q 1072 3584 1716 3584 
Q 2034 3584 2315 3537 
Q 2597 3491 2834 3397 
z
" transform="scale(0.015625)"/>
      </defs>
      <use xlink:href="#DejaVuSans-6c"/>
      <use xlink:href="#DejaVuSans-6f" x="27.783203"/>
      <use xlink:href="#DejaVuSans-73" x="88.964844"/>
      <use xlink:href="#DejaVuSans-73" x="141.064453"/>
     </g>
    </g>
   </g>
   <g id="line2d_5">
    <path d="M 71.707382 77.374413 
L 74.219274 114.062591 
L 76.731165 79.247264 
L 79.243057 114.471604 
L 81.754948 124.758825 
L 84.266839 56.414052 
L 86.778731 131.633046 
L 89.290622 105.264037 
L 91.802514 101.534907 
L 94.314405 136.383408 
L 96.826297 121.82047 
L 101.85008 74.984948 
L 104.361971 74.637019 
L 106.873862 114.933356 
L 109.385754 100.28606 
L 111.897645 146.052727 
L 114.409537 28.420357 
L 116.921428 71.332248 
L 119.43332 46.196769 
L 121.945211 32.973736 
L 124.457102 87.940851 
L 126.968994 51.608319 
L 129.480885 121.741198 
L 131.992777 96.057606 
L 134.504668 102.129895 
L 137.01656 95.081036 
L 139.528451 68.978979 
L 144.552234 138.59318 
L 147.064125 70.466539 
L 149.576017 126.746995 
L 152.087908 83.04738 
L 154.5998 84.601229 
L 157.111691 80.53826 
L 159.623583 86.933319 
L 162.135474 120.682753 
L 164.647365 55.838178 
L 167.159257 112.933759 
L 169.671148 62.374701 
L 172.18304 61.626823 
L 174.694931 62.338445 
L 177.206823 58.092043 
L 179.718714 32.195136 
L 182.230606 99.769297 
L 184.742497 62.871841 
L 187.254388 100.973392 
L 189.76628 82.25846 
L 192.278171 93.962644 
L 194.790063 114.487967 
L 197.301954 106.738794 
L 199.813846 82.219004 
L 202.325737 121.094548 
L 204.837628 45.165876 
L 207.34952 108.204158 
L 212.373303 67.889454 
L 214.885194 96.675359 
L 217.397086 80.0238 
L 219.908977 105.814513 
L 222.420869 71.713471 
L 224.93276 173.935142 
L 227.444651 110.255745 
L 229.956543 142.513281 
L 232.468434 98.582402 
L 234.980326 173.534894 
L 237.492217 152.284876 
L 240.004109 96.300448 
L 242.516 81.588239 
L 245.027891 46.768215 
L 247.539783 60.188322 
L 250.051674 81.420422 
L 252.563566 125.433384 
L 255.075457 38.457378 
L 257.587349 99.062012 
L 260.09924 95.019832 
L 262.611132 116.307303 
L 265.123023 120.525586 
L 267.634914 84.958192 
L 270.146806 103.086901 
L 272.658697 96.418967 
L 275.170589 44.346952 
L 277.68248 95.759664 
L 282.706263 118.184761 
L 287.730046 75.257494 
L 292.753829 120.718411 
L 295.26572 101.479028 
L 297.777612 35.117308 
L 300.289503 91.977616 
L 302.801395 88.480019 
L 305.313286 68.248421 
L 307.825177 117.653908 
L 310.337069 120.362255 
L 312.84896 84.560517 
L 315.360852 83.994246 
L 317.872743 67.143879 
L 320.384635 88.24325 
L 322.896526 47.046564 
L 325.408417 51.989901 
L 327.920309 20.852133 
L 330.4322 43.417735 
L 332.944092 85.423384 
L 335.455983 68.966056 
L 337.967875 61.190289 
L 340.479766 58.544432 
L 342.991658 86.442821 
L 345.503549 78.295283 
L 348.01544 95.594988 
L 350.527332 134.692105 
L 353.039223 61.779743 
L 355.551115 105.946793 
L 360.574898 143.906492 
L 363.086789 89.990104 
L 365.59868 59.133288 
L 368.110572 162.90785 
L 370.622463 56.524733 
L 373.134355 124.330607 
L 375.646246 113.742662 
L 378.158138 87.354358 
L 380.670029 41.571268 
L 383.181921 149.43683 
L 385.693812 94.519881 
L 388.205703 125.295272 
L 390.717595 81.609328 
L 393.229486 103.606536 
L 395.741378 79.898281 
L 398.253269 65.969817 
L 400.765161 131.119843 
L 403.277052 70.893321 
L 408.300835 35.161042 
L 413.324618 97.464758 
L 415.836509 78.087471 
L 418.348401 114.756146 
L 420.860292 110.817678 
L 423.372184 25.778239 
L 428.395966 103.012954 
L 430.907858 90.212215 
L 433.419749 69.477495 
L 435.931641 153.024378 
L 438.443532 46.946532 
L 440.955424 83.93379 
L 443.467315 60.022928 
L 445.979206 102.537532 
L 448.491098 58.783833 
L 451.002989 88.531411 
L 453.514881 15.139769 
L 456.026772 104.245019 
L 458.538664 128.17024 
L 461.050555 76.881611 
L 466.074338 102.519643 
L 468.586229 127.23519 
L 471.098121 101.734911 
L 473.610012 62.641204 
L 476.121904 85.449289 
L 478.633795 92.550019 
L 481.145687 95.936425 
L 483.657578 70.782579 
L 486.169469 105.569668 
L 488.681361 99.17027 
L 491.193252 127.623323 
L 493.705144 42.586158 
L 496.217035 84.955859 
L 498.728927 61.887493 
L 501.240818 138.236666 
L 506.264601 88.7613 
L 508.776492 107.504202 
L 511.288384 80.132358 
L 513.800275 86.634659 
L 516.312167 84.398114 
L 518.824058 90.497504 
L 521.33595 136.624305 
L 523.847841 106.286854 
L 526.359732 96.17798 
L 528.871624 39.042075 
L 531.383515 128.752036 
L 533.895407 138.100617 
L 536.407298 125.589356 
L 538.91919 92.339365 
L 541.431081 81.043207 
L 543.942973 99.690534 
L 548.966755 77.229899 
L 551.478647 112.755053 
L 556.50243 33.413829 
L 559.014321 106.38892 
L 561.526213 103.699898 
L 564.038104 59.138373 
L 566.549995 33.458521 
L 569.061887 137.868814 
L 571.573778 153.962897 
L 571.573778 153.962897 
" clip-path="url(#pc718534d28)" style="fill: none; stroke: #023eff; stroke-opacity: 0.9; stroke-width: 1.5; stroke-linecap: round"/>
   </g>
  </g>
  <g id="axes_2">
   <g id="matplotlib.axis_3">
    <g id="ytick_5">
     <g id="line2d_6"/>
     <g id="text_16">
      <!-- 0.00 -->
      <g style="fill: #ff7c00" transform="translate(600.067098 179.159101) scale(0.1375 -0.1375)">
       <defs>
        <path id="DejaVuSans-2e" d="M 684 794 
L 1344 794 
L 1344 0 
L 684 0 
L 684 794 
z
" transform="scale(0.015625)"/>
       </defs>
       <use xlink:href="#DejaVuSans-30"/>
       <use xlink:href="#DejaVuSans-2e" x="63.623047"/>
       <use xlink:href="#DejaVuSans-30" x="95.410156"/>
       <use xlink:href="#DejaVuSans-30" x="159.033203"/>
      </g>
     </g>
    </g>
    <g id="ytick_6">
     <g id="line2d_7"/>
     <g id="text_17">
      <!-- 0.01 -->
      <g style="fill: #ff7c00" transform="translate(600.067098 145.282737) scale(0.1375 -0.1375)">
       <use xlink:href="#DejaVuSans-30"/>
       <use xlink:href="#DejaVuSans-2e" x="63.623047"/>
       <use xlink:href="#DejaVuSans-30" x="95.410156"/>
       <use xlink:href="#DejaVuSans-31" x="159.033203"/>
      </g>
     </g>
    </g>
    <g id="ytick_7">
     <g id="line2d_8"/>
     <g id="text_18">
      <!-- 0.02 -->
      <g style="fill: #ff7c00" transform="translate(600.067098 111.406373) scale(0.1375 -0.1375)">
       <use xlink:href="#DejaVuSans-30"/>
       <use xlink:href="#DejaVuSans-2e" x="63.623047"/>
       <use xlink:href="#DejaVuSans-30" x="95.410156"/>
       <use xlink:href="#DejaVuSans-32" x="159.033203"/>
      </g>
     </g>
    </g>
    <g id="ytick_8">
     <g id="line2d_9"/>
     <g id="text_19">
      <!-- 0.03 -->
      <g style="fill: #ff7c00" transform="translate(600.067098 77.530008) scale(0.1375 -0.1375)">
       <defs>
        <path id="DejaVuSans-33" d="M 2597 2516 
Q 3050 2419 3304 2112 
Q 3559 1806 3559 1356 
Q 3559 666 3084 287 
Q 2609 -91 1734 -91 
Q 1441 -91 1130 -33 
Q 819 25 488 141 
L 488 750 
Q 750 597 1062 519 
Q 1375 441 1716 441 
Q 2309 441 2620 675 
Q 2931 909 2931 1356 
Q 2931 1769 2642 2001 
Q 2353 2234 1838 2234 
L 1294 2234 
L 1294 2753 
L 1863 2753 
Q 2328 2753 2575 2939 
Q 2822 3125 2822 3475 
Q 2822 3834 2567 4026 
Q 2313 4219 1838 4219 
Q 1578 4219 1281 4162 
Q 984 4106 628 3988 
L 628 4550 
Q 988 4650 1302 4700 
Q 1616 4750 1894 4750 
Q 2613 4750 3031 4423 
Q 3450 4097 3450 3541 
Q 3450 3153 3228 2886 
Q 3006 2619 2597 2516 
z
" transform="scale(0.015625)"/>
       </defs>
       <use xlink:href="#DejaVuSans-30"/>
       <use xlink:href="#DejaVuSans-2e" x="63.623047"/>
       <use xlink:href="#DejaVuSans-30" x="95.410156"/>
       <use xlink:href="#DejaVuSans-33" x="159.033203"/>
      </g>
     </g>
    </g>
    <g id="ytick_9">
     <g id="line2d_10"/>
     <g id="text_20">
      <!-- 0.04 -->
      <g style="fill: #ff7c00" transform="translate(600.067098 43.653644) scale(0.1375 -0.1375)">
       <defs>
        <path id="DejaVuSans-34" d="M 2419 4116 
L 825 1625 
L 2419 1625 
L 2419 4116 
z
M 2253 4666 
L 3047 4666 
L 3047 1625 
L 3713 1625 
L 3713 1100 
L 3047 1100 
L 3047 0 
L 2419 0 
L 2419 1100 
L 313 1100 
L 313 1709 
L 2253 4666 
z
" transform="scale(0.015625)"/>
       </defs>
       <use xlink:href="#DejaVuSans-30"/>
       <use xlink:href="#DejaVuSans-2e" x="63.623047"/>
       <use xlink:href="#DejaVuSans-30" x="95.410156"/>
       <use xlink:href="#DejaVuSans-34" x="159.033203"/>
      </g>
     </g>
    </g>
    <g id="text_21">
     <!-- dQint -->
     <g style="fill: #ff7c00" transform="translate(646.079989 114.979643) rotate(-90) scale(0.15 -0.15)">
      <defs>
       <path id="DejaVuSans-64" d="M 2906 2969 
L 2906 4863 
L 3481 4863 
L 3481 0 
L 2906 0 
L 2906 525 
Q 2725 213 2448 61 
Q 2172 -91 1784 -91 
Q 1150 -91 751 415 
Q 353 922 353 1747 
Q 353 2572 751 3078 
Q 1150 3584 1784 3584 
Q 2172 3584 2448 3432 
Q 2725 3281 2906 2969 
z
M 947 1747 
Q 947 1113 1208 752 
Q 1469 391 1925 391 
Q 2381 391 2643 752 
Q 2906 1113 2906 1747 
Q 2906 2381 2643 2742 
Q 2381 3103 1925 3103 
Q 1469 3103 1208 2742 
Q 947 2381 947 1747 
z
" transform="scale(0.015625)"/>
       <path id="DejaVuSans-51" d="M 2522 4238 
Q 1834 4238 1429 3725 
Q 1025 3213 1025 2328 
Q 1025 1447 1429 934 
Q 1834 422 2522 422 
Q 3209 422 3611 934 
Q 4013 1447 4013 2328 
Q 4013 3213 3611 3725 
Q 3209 4238 2522 4238 
z
M 3406 84 
L 4238 -825 
L 3475 -825 
L 2784 -78 
Q 2681 -84 2626 -87 
Q 2572 -91 2522 -91 
Q 1538 -91 948 567 
Q 359 1225 359 2328 
Q 359 3434 948 4092 
Q 1538 4750 2522 4750 
Q 3503 4750 4090 4092 
Q 4678 3434 4678 2328 
Q 4678 1516 4351 937 
Q 4025 359 3406 84 
z
" transform="scale(0.015625)"/>
       <path id="DejaVuSans-69" d="M 603 3500 
L 1178 3500 
L 1178 0 
L 603 0 
L 603 3500 
z
M 603 4863 
L 1178 4863 
L 1178 4134 
L 603 4134 
L 603 4863 
z
" transform="scale(0.015625)"/>
       <path id="DejaVuSans-6e" d="M 3513 2113 
L 3513 0 
L 2938 0 
L 2938 2094 
Q 2938 2591 2744 2837 
Q 2550 3084 2163 3084 
Q 1697 3084 1428 2787 
Q 1159 2491 1159 1978 
L 1159 0 
L 581 0 
L 581 3500 
L 1159 3500 
L 1159 2956 
Q 1366 3272 1645 3428 
Q 1925 3584 2291 3584 
Q 2894 3584 3203 3211 
Q 3513 2838 3513 2113 
z
" transform="scale(0.015625)"/>
      </defs>
      <use xlink:href="#DejaVuSans-64"/>
      <use xlink:href="#DejaVuSans-51" x="63.476562"/>
      <use xlink:href="#DejaVuSans-69" x="142.1875"/>
      <use xlink:href="#DejaVuSans-6e" x="169.970703"/>
      <use xlink:href="#DejaVuSans-74" x="233.349609"/>
     </g>
    </g>
   </g>
   <g id="line2d_11">
    <path d="M 71.707382 41.605602 
L 74.219274 147.469228 
L 76.731165 94.537384 
L 79.243057 94.537371 
L 81.754948 121.003192 
L 84.266839 173.935108 
L 86.778731 121.003205 
L 89.290622 121.003224 
L 91.802514 94.537289 
L 94.314405 173.9349 
L 96.826297 121.00335 
L 99.338188 94.537409 
L 101.85008 173.935115 
L 104.361971 173.935072 
L 106.873862 147.469171 
L 109.385754 173.935018 
L 114.409537 121.003198 
L 116.921428 147.469108 
L 119.43332 121.003299 
L 121.945211 147.469318 
L 124.457102 94.537409 
L 126.968994 173.935067 
L 134.504668 94.537207 
L 137.01656 147.469215 
L 139.528451 173.935101 
L 142.040343 121.003148 
L 144.552234 147.469092 
L 147.064125 94.537415 
L 149.576017 147.469228 
L 152.087908 147.469057 
L 154.5998 121.003192 
L 157.111691 68.07131 
L 159.623583 121.003116 
L 162.135474 41.605514 
L 164.647365 147.469152 
L 167.159257 121.003375 
L 169.671148 68.071461 
L 172.18304 173.935071 
L 174.694931 173.935026 
L 177.206823 147.469171 
L 179.718714 173.935129 
L 182.230606 121.003173 
L 184.742497 121.003249 
L 187.254388 94.537434 
L 189.76628 173.935107 
L 192.278171 121.003161 
L 194.790063 147.469026 
L 197.301954 121.003312 
L 199.813846 41.605666 
L 202.325737 121.003243 
L 204.837628 121.003186 
L 207.34952 94.537302 
L 212.373303 147.468997 
L 214.885194 147.469057 
L 219.908977 94.537238 
L 222.420869 147.469199 
L 224.93276 94.537049 
L 227.444651 121.003041 
L 232.468434 121.003142 
L 237.492217 173.934848 
L 240.004109 147.469086 
L 242.516 173.934923 
L 245.027891 121.003091 
L 250.051674 121.003173 
L 252.563566 68.071373 
L 255.075457 147.469057 
L 257.587349 121.00328 
L 260.09924 147.469001 
L 265.123023 94.537194 
L 267.634914 15.139769 
L 270.146806 147.468843 
L 272.658697 121.00323 
L 275.170589 147.469158 
L 277.68248 147.469013 
L 280.194372 121.002965 
L 282.706263 147.469089 
L 285.218154 94.537358 
L 287.730046 147.468953 
L 290.241937 147.469108 
L 292.753829 121.003104 
L 295.26572 173.935099 
L 300.289503 121.002914 
L 302.801395 173.93506 
L 305.313286 147.46925 
L 310.337069 147.468966 
L 312.84896 121.003104 
L 315.360852 173.934872 
L 317.872743 68.071209 
L 320.384635 121.003041 
L 322.896526 121.003366 
L 325.408417 94.537409 
L 327.920309 147.469057 
L 330.4322 94.537226 
L 332.944092 147.468862 
L 335.455983 173.935142 
L 337.967875 121.003211 
L 340.479766 173.934911 
L 342.991658 121.003306 
L 345.503549 147.469187 
L 350.527332 147.468729 
L 353.039223 121.003053 
L 355.551115 147.469143 
L 358.063006 94.537283 
L 360.574898 173.935087 
L 363.086789 121.002813 
L 365.59868 173.935043 
L 368.110572 68.071234 
L 370.622463 173.934883 
L 375.646246 121.00294 
L 378.158138 173.934981 
L 380.670029 121.00323 
L 383.181921 147.469013 
L 385.693812 68.07131 
L 390.717595 173.934908 
L 393.229486 41.605451 
L 398.253269 173.935119 
L 403.277052 173.935058 
L 408.300835 121.003028 
L 410.812726 121.003261 
L 413.324618 68.071525 
L 415.836509 173.934856 
L 418.348401 121.003381 
L 420.860292 173.9349 
L 423.372184 147.468773 
L 425.884075 147.469196 
L 428.395966 94.537295 
L 430.907858 121.00299 
L 433.419749 173.934742 
L 438.443532 121.003318 
L 445.979206 121.003078 
L 448.491098 147.469001 
L 453.514881 147.468925 
L 456.026772 121.003148 
L 458.538664 121.003072 
L 461.050555 147.469023 
L 463.562447 147.468988 
L 466.074338 94.537346 
L 473.610012 94.537018 
L 476.121904 147.468676 
L 481.145687 94.537081 
L 483.657578 121.002996 
L 486.169469 173.935055 
L 488.681361 121.003249 
L 491.193252 173.934795 
L 493.705144 147.469102 
L 496.217035 147.468963 
L 498.728927 173.935044 
L 501.240818 41.605224 
L 503.75271 147.469152 
L 506.264601 173.935131 
L 508.776492 41.605426 
L 511.288384 147.469001 
L 513.800275 173.935048 
L 516.312167 147.469038 
L 528.871624 147.469048 
L 531.383515 68.07126 
L 533.895407 94.537188 
L 536.407298 68.071398 
L 543.942973 147.468975 
L 546.454864 94.53732 
L 548.966755 147.469013 
L 551.478647 121.002574 
L 553.990538 173.93453 
L 556.50243 147.468887 
L 559.014321 94.537068 
L 561.526213 68.071196 
L 564.038104 147.469171 
L 566.549995 173.935073 
L 569.061887 121.00299 
L 571.573778 121.003041 
L 571.573778 121.003041 
" clip-path="url(#pc718534d28)" style="fill: none; stroke: #ff7c00; stroke-opacity: 0.9; stroke-width: 1.5; stroke-linecap: round"/>
   </g>
  </g>
 </g>
 <defs>
  <clipPath id="pc718534d28">
   <rect x="46.714063" y="7.2" width="549.853036" height="174.674911"/>
  </clipPath>
 </defs>
</svg>
