<?xml version="1.0" encoding="utf-8" standalone="no"?>
<!DOCTYPE svg PUBLIC "-//W3C//DTD SVG 1.1//EN"
  "http://www.w3.org/Graphics/SVG/1.1/DTD/svg11.dtd">
<svg xmlns:xlink="http://www.w3.org/1999/xlink" width="223.65pt" height="174.899688pt" viewBox="0 0 223.65 174.899688" xmlns="http://www.w3.org/2000/svg" version="1.1">
 <metadata>
  <rdf:RDF xmlns:dc="http://purl.org/dc/elements/1.1/" xmlns:cc="http://creativecommons.org/ns#" xmlns:rdf="http://www.w3.org/1999/02/22-rdf-syntax-ns#">
   <cc:Work>
    <dc:type rdf:resource="http://purl.org/dc/dcmitype/StillImage"/>
    <dc:date>2023-12-05T12:10:04.122446</dc:date>
    <dc:format>image/svg+xml</dc:format>
    <dc:creator>
     <cc:Agent>
      <dc:title>Matplotlib v3.8.2, https://matplotlib.org/</dc:title>
     </cc:Agent>
    </dc:creator>
   </cc:Work>
  </rdf:RDF>
 </metadata>
 <defs>
  <style type="text/css">*{stroke-linejoin: round; stroke-linecap: butt}</style>
 </defs>
 <g id="figure_1">
  <g id="patch_1">
   <path d="M 0 174.899688 
L 223.65 174.899688 
L 223.65 0 
L 0 0 
L 0 174.899688 
z
" style="fill: none"/>
  </g>
  <g id="axes_1">
   <g id="patch_2">
    <path d="M 7.2 48.78 
L 216.45 48.78 
L 216.45 7.2 
L 7.2 7.2 
L 7.2 48.78 
z
" style="fill: none"/>
   </g>
   <g id="matplotlib.axis_1">
    <g id="xtick_1"/>
    <g id="xtick_2"/>
    <g id="xtick_3"/>
   </g>
   <g id="matplotlib.axis_2"/>
   <g id="line2d_1">
    <path d="M 7.2 48.78 
L 216.45 48.78 
" style="fill: none; stroke: #2a788e; stroke-opacity: 0.9; stroke-linecap: round"/>
   </g>
   <g id="text_1">
    <!-- 0 -->
    <g style="fill: #2a788e" transform="translate(7.2 47.93325) scale(0.12 -0.12)">
     <defs>
      <path id="DejaVuSans-Bold-30" d="M 2944 2338 
Q 2944 3213 2780 3570 
Q 2616 3928 2228 3928 
Q 1841 3928 1675 3570 
Q 1509 3213 1509 2338 
Q 1509 1453 1675 1090 
Q 1841 728 2228 728 
Q 2613 728 2778 1090 
Q 2944 1453 2944 2338 
z
M 4147 2328 
Q 4147 1169 3647 539 
Q 3147 -91 2228 -91 
Q 1306 -91 806 539 
Q 306 1169 306 2328 
Q 306 3491 806 4120 
Q 1306 4750 2228 4750 
Q 3147 4750 3647 4120 
Q 4147 3491 4147 2328 
z
" transform="scale(0.015625)"/>
     </defs>
     <use xlink:href="#DejaVuSans-Bold-30"/>
    </g>
   </g>
  </g>
  <g id="axes_2">
   <g id="patch_3">
    <path d="M 7.2 59.175 
L 216.45 59.175 
L 216.45 17.595 
L 7.2 17.595 
L 7.2 59.175 
z
" style="fill: none"/>
   </g>
   <g id="matplotlib.axis_3">
    <g id="xtick_4"/>
    <g id="xtick_5"/>
    <g id="xtick_6"/>
   </g>
   <g id="matplotlib.axis_4"/>
   <g id="line2d_2">
    <path d="M 7.2 59.175 
L 216.45 59.175 
" style="fill: none; stroke: #2a788e; stroke-opacity: 0.9; stroke-linecap: round"/>
   </g>
   <g id="text_2">
    <!-- 1 -->
    <g style="fill: #2a788e" transform="translate(7.2 58.32825) scale(0.12 -0.12)">
     <defs>
      <path id="DejaVuSans-Bold-31" d="M 750 831 
L 1813 831 
L 1813 3847 
L 722 3622 
L 722 4441 
L 1806 4666 
L 2950 4666 
L 2950 831 
L 4013 831 
L 4013 0 
L 750 0 
L 750 831 
z
" transform="scale(0.015625)"/>
     </defs>
     <use xlink:href="#DejaVuSans-Bold-31"/>
    </g>
   </g>
  </g>
  <g id="axes_3">
   <g id="patch_4">
    <path d="M 7.2 69.57 
L 216.45 69.57 
L 216.45 27.99 
L 7.2 27.99 
L 7.2 69.57 
z
" style="fill: none"/>
   </g>
   <g id="matplotlib.axis_5">
    <g id="xtick_7"/>
    <g id="xtick_8"/>
    <g id="xtick_9"/>
   </g>
   <g id="matplotlib.axis_6"/>
   <g id="line2d_3">
    <path d="M 7.2 69.57 
L 216.45 69.57 
" style="fill: none; stroke: #2a788e; stroke-opacity: 0.9; stroke-linecap: round"/>
   </g>
   <g id="text_3">
    <!-- 2 -->
    <g style="fill: #2a788e" transform="translate(7.2 68.72325) scale(0.12 -0.12)">
     <defs>
      <path id="DejaVuSans-Bold-32" d="M 1844 884 
L 3897 884 
L 3897 0 
L 506 0 
L 506 884 
L 2209 2388 
Q 2438 2594 2547 2791 
Q 2656 2988 2656 3200 
Q 2656 3528 2436 3728 
Q 2216 3928 1850 3928 
Q 1569 3928 1234 3808 
Q 900 3688 519 3450 
L 519 4475 
Q 925 4609 1322 4679 
Q 1719 4750 2100 4750 
Q 2938 4750 3402 4381 
Q 3866 4013 3866 3353 
Q 3866 2972 3669 2642 
Q 3472 2313 2841 1759 
L 1844 884 
z
" transform="scale(0.015625)"/>
     </defs>
     <use xlink:href="#DejaVuSans-Bold-32"/>
    </g>
   </g>
  </g>
  <g id="axes_4">
   <g id="patch_5">
    <path d="M 7.2 79.965 
L 216.45 79.965 
L 216.45 38.385 
L 7.2 38.385 
L 7.2 79.965 
z
" style="fill: none"/>
   </g>
   <g id="matplotlib.axis_7">
    <g id="xtick_10"/>
    <g id="xtick_11"/>
    <g id="xtick_12"/>
   </g>
   <g id="matplotlib.axis_8"/>
   <g id="line2d_4">
    <path d="M 7.2 79.965 
L 216.45 79.965 
" style="fill: none; stroke: #2a788e; stroke-opacity: 0.9; stroke-linecap: round"/>
   </g>
   <g id="text_4">
    <!-- 3 -->
    <g style="fill: #2a788e" transform="translate(7.2 79.11825) scale(0.12 -0.12)">
     <defs>
      <path id="DejaVuSans-Bold-33" d="M 2981 2516 
Q 3453 2394 3698 2092 
Q 3944 1791 3944 1325 
Q 3944 631 3412 270 
Q 2881 -91 1863 -91 
Q 1503 -91 1142 -33 
Q 781 25 428 141 
L 428 1069 
Q 766 900 1098 814 
Q 1431 728 1753 728 
Q 2231 728 2486 893 
Q 2741 1059 2741 1369 
Q 2741 1688 2480 1852 
Q 2219 2016 1709 2016 
L 1228 2016 
L 1228 2791 
L 1734 2791 
Q 2188 2791 2409 2933 
Q 2631 3075 2631 3366 
Q 2631 3634 2415 3781 
Q 2200 3928 1806 3928 
Q 1516 3928 1219 3862 
Q 922 3797 628 3669 
L 628 4550 
Q 984 4650 1334 4700 
Q 1684 4750 2022 4750 
Q 2931 4750 3382 4451 
Q 3834 4153 3834 3553 
Q 3834 3144 3618 2883 
Q 3403 2622 2981 2516 
z
" transform="scale(0.015625)"/>
     </defs>
     <use xlink:href="#DejaVuSans-Bold-33"/>
    </g>
   </g>
  </g>
  <g id="axes_5">
   <g id="patch_6">
    <path d="M 7.2 90.36 
L 216.45 90.36 
L 216.45 48.78 
L 7.2 48.78 
L 7.2 90.36 
z
" style="fill: none"/>
   </g>
   <g id="matplotlib.axis_9">
    <g id="xtick_13"/>
    <g id="xtick_14"/>
    <g id="xtick_15"/>
   </g>
   <g id="matplotlib.axis_10"/>
   <g id="line2d_5">
    <path d="M 7.2 90.36 
L 216.45 90.36 
" style="fill: none; stroke: #2a788e; stroke-opacity: 0.9; stroke-linecap: round"/>
   </g>
   <g id="text_5">
    <!-- 4 -->
    <g style="fill: #2a788e" transform="translate(7.2 89.51325) scale(0.12 -0.12)">
     <defs>
      <path id="DejaVuSans-Bold-34" d="M 2356 3675 
L 1038 1722 
L 2356 1722 
L 2356 3675 
z
M 2156 4666 
L 3494 4666 
L 3494 1722 
L 4159 1722 
L 4159 850 
L 3494 850 
L 3494 0 
L 2356 0 
L 2356 850 
L 288 850 
L 288 1881 
L 2156 4666 
z
" transform="scale(0.015625)"/>
     </defs>
     <use xlink:href="#DejaVuSans-Bold-34"/>
    </g>
   </g>
  </g>
  <g id="axes_6">
   <g id="patch_7">
    <path d="M 7.2 100.755 
L 216.45 100.755 
L 216.45 59.175 
L 7.2 59.175 
L 7.2 100.755 
z
" style="fill: none"/>
   </g>
   <g id="matplotlib.axis_11">
    <g id="xtick_16"/>
    <g id="xtick_17"/>
    <g id="xtick_18"/>
   </g>
   <g id="matplotlib.axis_12"/>
   <g id="PolyCollection_1">
    <defs>
     <path id="m2a484c7e65" d="M 187.175905 -74.179589 
L 187.175905 -74.144688 
L 187.275215 -74.144688 
L 187.374525 -74.144688 
L 187.473835 -74.144688 
L 187.573145 -74.144688 
L 187.672456 -74.144688 
L 187.771766 -74.144688 
L 187.871076 -74.144688 
L 187.970386 -74.144688 
L 188.069696 -74.144688 
L 188.169007 -74.144688 
L 188.268317 -74.144688 
L 188.367627 -74.144688 
L 188.466937 -74.144688 
L 188.566247 -74.144688 
L 188.665558 -74.144688 
L 188.764868 -74.144688 
L 188.864178 -74.144688 
L 188.963488 -74.144688 
L 189.062799 -74.144688 
L 189.162109 -74.144688 
L 189.261419 -74.144688 
L 189.360729 -74.144688 
L 189.460039 -74.144688 
L 189.55935 -74.144688 
L 189.65866 -74.144688 
L 189.75797 -74.144688 
L 189.85728 -74.144688 
L 189.95659 -74.144688 
L 190.055901 -74.144688 
L 190.155211 -74.144688 
L 190.254521 -74.144688 
L 190.353831 -74.144688 
L 190.453141 -74.144688 
L 190.552452 -74.144688 
L 190.651762 -74.144688 
L 190.751072 -74.144688 
L 190.850382 -74.144688 
L 190.949693 -74.144688 
L 191.049003 -74.144688 
L 191.148313 -74.144688 
L 191.247623 -74.144688 
L 191.346933 -74.144688 
L 191.446244 -74.144688 
L 191.545554 -74.144688 
L 191.644864 -74.144688 
L 191.744174 -74.144688 
L 191.843484 -74.144688 
L 191.942795 -74.144688 
L 192.042105 -74.144688 
L 192.141415 -74.144688 
L 192.240725 -74.144688 
L 192.340035 -74.144688 
L 192.439346 -74.144688 
L 192.538656 -74.144688 
L 192.637966 -74.144688 
L 192.737276 -74.144688 
L 192.836587 -74.144688 
L 192.935897 -74.144688 
L 193.035207 -74.144688 
L 193.134517 -74.144688 
L 193.233827 -74.144688 
L 193.333138 -74.144688 
L 193.432448 -74.144688 
L 193.531758 -74.144688 
L 193.631068 -74.144688 
L 193.730378 -74.144688 
L 193.829689 -74.144688 
L 193.928999 -74.144688 
L 194.028309 -74.144688 
L 194.127619 -74.144688 
L 194.226929 -74.144688 
L 194.32624 -74.144688 
L 194.42555 -74.144688 
L 194.52486 -74.144688 
L 194.62417 -74.144688 
L 194.723481 -74.144688 
L 194.822791 -74.144688 
L 194.922101 -74.144688 
L 195.021411 -74.144688 
L 195.120721 -74.144688 
L 195.220032 -74.144688 
L 195.319342 -74.144688 
L 195.418652 -74.144688 
L 195.517962 -74.144688 
L 195.617272 -74.144688 
L 195.716583 -74.144688 
L 195.815893 -74.144688 
L 195.915203 -74.144688 
L 196.014513 -74.144688 
L 196.113823 -74.144688 
L 196.213134 -74.144688 
L 196.312444 -74.144688 
L 196.411754 -74.144688 
L 196.511064 -74.144688 
L 196.610375 -74.144688 
L 196.709685 -74.144688 
L 196.808995 -74.144688 
L 196.908305 -74.144688 
L 197.007615 -74.144688 
L 197.106926 -74.144688 
L 197.206236 -74.144688 
L 197.305546 -74.144688 
L 197.404856 -74.144688 
L 197.504166 -74.144688 
L 197.603477 -74.144688 
L 197.702787 -74.144688 
L 197.802097 -74.144688 
L 197.901407 -74.144688 
L 198.000717 -74.144688 
L 198.100028 -74.144688 
L 198.199338 -74.144688 
L 198.298648 -74.144688 
L 198.397958 -74.144688 
L 198.497268 -74.144688 
L 198.596579 -74.144688 
L 198.695889 -74.144688 
L 198.795199 -74.144688 
L 198.894509 -74.144688 
L 198.99382 -74.144688 
L 199.09313 -74.144688 
L 199.19244 -74.144688 
L 199.29175 -74.144688 
L 199.39106 -74.144688 
L 199.490371 -74.144688 
L 199.589681 -74.144688 
L 199.688991 -74.144688 
L 199.788301 -74.144688 
L 199.887611 -74.144688 
L 199.986922 -74.144688 
L 200.086232 -74.144688 
L 200.185542 -74.144688 
L 200.284852 -74.144688 
L 200.384162 -74.144688 
L 200.483473 -74.144688 
L 200.582783 -74.144688 
L 200.682093 -74.144688 
L 200.781403 -74.144688 
L 200.880714 -74.144688 
L 200.980024 -74.144688 
L 201.079334 -74.144688 
L 201.178644 -74.144688 
L 201.277954 -74.144688 
L 201.377265 -74.144688 
L 201.476575 -74.144688 
L 201.575885 -74.144688 
L 201.675195 -74.144688 
L 201.774505 -74.144688 
L 201.873816 -74.144688 
L 201.973126 -74.144688 
L 202.072436 -74.144688 
L 202.171746 -74.144688 
L 202.271056 -74.144688 
L 202.370367 -74.144688 
L 202.469677 -74.144688 
L 202.568987 -74.144688 
L 202.668297 -74.144688 
L 202.767608 -74.144688 
L 202.866918 -74.144688 
L 202.966228 -74.144688 
L 203.065538 -74.144688 
L 203.164848 -74.144688 
L 203.264159 -74.144688 
L 203.363469 -74.144688 
L 203.462779 -74.144688 
L 203.562089 -74.144688 
L 203.661399 -74.144688 
L 203.76071 -74.144688 
L 203.86002 -74.144688 
L 203.95933 -74.144688 
L 204.05864 -74.144688 
L 204.15795 -74.144688 
L 204.257261 -74.144688 
L 204.356571 -74.144688 
L 204.455881 -74.144688 
L 204.555191 -74.144688 
L 204.654502 -74.144688 
L 204.753812 -74.144688 
L 204.853122 -74.144688 
L 204.952432 -74.144688 
L 205.051742 -74.144688 
L 205.151053 -74.144688 
L 205.250363 -74.144688 
L 205.349673 -74.144688 
L 205.448983 -74.144688 
L 205.548293 -74.144688 
L 205.647604 -74.144688 
L 205.746914 -74.144688 
L 205.846224 -74.144688 
L 205.945534 -74.144688 
L 206.044844 -74.144688 
L 206.144155 -74.144688 
L 206.243465 -74.144688 
L 206.342775 -74.144688 
L 206.442085 -74.144688 
L 206.541396 -74.144688 
L 206.640706 -74.144688 
L 206.740016 -74.144688 
L 206.839326 -74.144688 
L 206.938636 -74.144688 
L 206.938636 -74.195277 
L 206.938636 -74.195277 
L 206.839326 -74.20831 
L 206.740016 -74.221547 
L 206.640706 -74.234113 
L 206.541396 -74.245275 
L 206.442085 -74.254669 
L 206.342775 -74.262488 
L 206.243465 -74.269571 
L 206.144155 -74.277383 
L 206.044844 -74.28786 
L 205.945534 -74.303177 
L 205.846224 -74.325464 
L 205.746914 -74.356529 
L 205.647604 -74.397622 
L 205.548293 -74.449255 
L 205.448983 -74.511079 
L 205.349673 -74.581838 
L 205.250363 -74.659409 
L 205.151053 -74.740981 
L 205.051742 -74.823391 
L 204.952432 -74.903612 
L 204.853122 -74.979327 
L 204.753812 -75.049442 
L 204.654502 -75.114397 
L 204.555191 -75.176153 
L 204.455881 -75.237858 
L 204.356571 -75.303268 
L 204.257261 -75.376138 
L 204.15795 -75.459751 
L 204.05864 -75.556738 
L 203.95933 -75.669168 
L 203.86002 -75.798845 
L 203.76071 -75.947637 
L 203.661399 -76.117711 
L 203.562089 -76.311589 
L 203.462779 -76.532032 
L 203.363469 -76.781793 
L 203.264159 -77.063304 
L 203.164848 -77.37836 
L 203.065538 -77.727833 
L 202.966228 -78.111463 
L 202.866918 -78.52774 
L 202.767608 -78.973938 
L 202.668297 -79.446317 
L 202.568987 -79.940489 
L 202.469677 -80.451921 
L 202.370367 -80.976486 
L 202.271056 -81.510992 
L 202.171746 -82.05358 
L 202.072436 -82.603949 
L 201.973126 -83.163378 
L 201.873816 -83.734588 
L 201.774505 -84.32148 
L 201.675195 -84.928811 
L 201.575885 -85.561843 
L 201.476575 -86.225925 
L 201.377265 -86.925993 
L 201.277954 -87.665952 
L 201.178644 -88.447965 
L 201.079334 -89.271768 
L 200.980024 -90.134166 
L 200.880714 -91.028884 
L 200.781403 -91.946873 
L 200.682093 -92.877074 
L 200.582783 -93.807546 
L 200.483473 -94.726791 
L 200.384162 -95.62516 
L 200.284852 -96.496181 
L 200.185542 -97.33768 
L 200.086232 -98.152464 
L 199.986922 -98.948282 
L 199.887611 -99.736782 
L 199.788301 -100.531373 
L 199.688991 -101.344209 
L 199.589681 -102.182891 
L 199.490371 -103.047761 
L 199.39106 -103.930605 
L 199.29175 -104.815304 
L 199.19244 -105.680448 
L 199.09313 -106.503332 
L 198.99382 -107.264378 
L 198.894509 -107.950875 
L 198.795199 -108.55911 
L 198.695889 -109.094438 
L 198.596579 -109.56935 
L 198.497268 -110.000171 
L 198.397958 -110.403304 
L 198.298648 -110.792 
L 198.199338 -111.174367 
L 198.100028 -111.552892 
L 198.000717 -111.925206 
L 197.901407 -112.285514 
L 197.802097 -112.626031 
L 197.702787 -112.937978 
L 197.603477 -113.212077 
L 197.504166 -113.4388 
L 197.404856 -113.608704 
L 197.305546 -113.71306 
L 197.206236 -113.744688 
L 197.106926 -113.69872 
L 197.007615 -113.573021 
L 196.908305 -113.368179 
L 196.808995 -113.08723 
L 196.709685 -112.735376 
L 196.610375 -112.319851 
L 196.511064 -111.849798 
L 196.411754 -111.335871 
L 196.312444 -110.789226 
L 196.213134 -110.219876 
L 196.113823 -109.63474 
L 196.014513 -109.036017 
L 195.915203 -108.420544 
L 195.815893 -107.780524 
L 195.716583 -107.105568 
L 195.617272 -106.385551 
L 195.517962 -105.613531 
L 195.418652 -104.787955 
L 195.319342 -103.91361 
L 195.220032 -103.00112 
L 195.120721 -102.065199 
L 195.021411 -101.122162 
L 194.922101 -100.187326 
L 194.822791 -99.272889 
L 194.723481 -98.38666 
L 194.62417 -97.531698 
L 194.52486 -96.706723 
L 194.42555 -95.907004 
L 194.32624 -95.125488 
L 194.226929 -94.354018 
L 194.127619 -93.584583 
L 194.028309 -92.810562 
L 193.928999 -92.027804 
L 193.829689 -91.235375 
L 193.730378 -90.4357 
L 193.631068 -89.63403 
L 193.531758 -88.837284 
L 193.432448 -88.052597 
L 193.333138 -87.28599 
L 193.233827 -86.541531 
L 193.134517 -85.821207 
L 193.035207 -85.125433 
L 192.935897 -84.453932 
L 192.836587 -83.806591 
L 192.737276 -83.183973 
L 192.637966 -82.587338 
L 192.538656 -82.01824 
L 192.439346 -81.477954 
L 192.340035 -80.967007 
L 192.240725 -80.485006 
L 192.141415 -80.030781 
L 192.042105 -79.602737 
L 191.942795 -79.199221 
L 191.843484 -78.818793 
L 191.744174 -78.460373 
L 191.644864 -78.12331 
L 191.545554 -77.807434 
L 191.446244 -77.513088 
L 191.346933 -77.241062 
L 191.247623 -76.992346 
L 191.148313 -76.767655 
L 191.049003 -76.566821 
L 190.949693 -76.388247 
L 190.850382 -76.228652 
L 190.751072 -76.083277 
L 190.651762 -75.946576 
L 190.552452 -75.81324 
L 190.453141 -75.67924 
L 190.353831 -75.542606 
L 190.254521 -75.403686 
L 190.155211 -75.264837 
L 190.055901 -75.129662 
L 189.95659 -75.002022 
L 189.85728 -74.885125 
L 189.75797 -74.780902 
L 189.65866 -74.689802 
L 189.55935 -74.610991 
L 189.460039 -74.542846 
L 189.360729 -74.483559 
L 189.261419 -74.431659 
L 189.162109 -74.386328 
L 189.062799 -74.347447 
L 188.963488 -74.315383 
L 188.864178 -74.290642 
L 188.764868 -74.273479 
L 188.665558 -74.263608 
L 188.566247 -74.26007 
L 188.466937 -74.261291 
L 188.367627 -74.265295 
L 188.268317 -74.270002 
L 188.169007 -74.273542 
L 188.069696 -74.274502 
L 187.970386 -74.272066 
L 187.871076 -74.266032 
L 187.771766 -74.256737 
L 187.672456 -74.244902 
L 187.573145 -74.23146 
L 187.473835 -74.217395 
L 187.374525 -74.203611 
L 187.275215 -74.190838 
L 187.175905 -74.179589 
z
" style="stroke: #21918c; stroke-width: 1.25"/>
    </defs>
    <g>
     <use xlink:href="#m2a484c7e65" x="0" y="174.899688" style="fill: #21918c; fill-opacity: 0.7; stroke: #21918c; stroke-width: 1.25"/>
    </g>
   </g>
   <g id="line2d_6">
    <path d="M 7.2 100.755 
L 216.45 100.755 
" style="fill: none; stroke: #21918c; stroke-opacity: 0.9; stroke-linecap: round"/>
   </g>
   <g id="text_6">
    <!-- 5 -->
    <g style="fill: #21918c" transform="translate(7.2 99.90825) scale(0.12 -0.12)">
     <defs>
      <path id="DejaVuSans-Bold-35" d="M 678 4666 
L 3669 4666 
L 3669 3781 
L 1638 3781 
L 1638 3059 
Q 1775 3097 1914 3117 
Q 2053 3138 2203 3138 
Q 3056 3138 3531 2711 
Q 4006 2284 4006 1522 
Q 4006 766 3489 337 
Q 2972 -91 2053 -91 
Q 1656 -91 1267 -14 
Q 878 63 494 219 
L 494 1166 
Q 875 947 1217 837 
Q 1559 728 1863 728 
Q 2300 728 2551 942 
Q 2803 1156 2803 1522 
Q 2803 1891 2551 2103 
Q 2300 2316 1863 2316 
Q 1603 2316 1309 2248 
Q 1016 2181 678 2041 
L 678 4666 
z
" transform="scale(0.015625)"/>
     </defs>
     <use xlink:href="#DejaVuSans-Bold-35"/>
    </g>
   </g>
  </g>
  <g id="axes_7">
   <g id="patch_8">
    <path d="M 7.2 111.15 
L 216.45 111.15 
L 216.45 69.57 
L 7.2 69.57 
L 7.2 111.15 
z
" style="fill: none"/>
   </g>
   <g id="matplotlib.axis_13">
    <g id="xtick_19"/>
    <g id="xtick_20"/>
    <g id="xtick_21"/>
   </g>
   <g id="matplotlib.axis_14"/>
   <g id="PolyCollection_2">
    <defs>
     <path id="m9bd0595d0a" d="M 144.34826 -63.773384 
L 144.34826 -63.749688 
L 144.453736 -63.749688 
L 144.559212 -63.749688 
L 144.664687 -63.749688 
L 144.770163 -63.749688 
L 144.875638 -63.749688 
L 144.981114 -63.749688 
L 145.086589 -63.749688 
L 145.192065 -63.749688 
L 145.29754 -63.749688 
L 145.403016 -63.749688 
L 145.508491 -63.749688 
L 145.613967 -63.749688 
L 145.719442 -63.749688 
L 145.824918 -63.749688 
L 145.930393 -63.749688 
L 146.035869 -63.749688 
L 146.141344 -63.749688 
L 146.24682 -63.749688 
L 146.352296 -63.749688 
L 146.457771 -63.749688 
L 146.563247 -63.749688 
L 146.668722 -63.749688 
L 146.774198 -63.749688 
L 146.879673 -63.749688 
L 146.985149 -63.749688 
L 147.090624 -63.749688 
L 147.1961 -63.749688 
L 147.301575 -63.749688 
L 147.407051 -63.749688 
L 147.512526 -63.749688 
L 147.618002 -63.749688 
L 147.723477 -63.749688 
L 147.828953 -63.749688 
L 147.934428 -63.749688 
L 148.039904 -63.749688 
L 148.145379 -63.749688 
L 148.250855 -63.749688 
L 148.356331 -63.749688 
L 148.461806 -63.749688 
L 148.567282 -63.749688 
L 148.672757 -63.749688 
L 148.778233 -63.749688 
L 148.883708 -63.749688 
L 148.989184 -63.749688 
L 149.094659 -63.749688 
L 149.200135 -63.749688 
L 149.30561 -63.749688 
L 149.411086 -63.749688 
L 149.516561 -63.749688 
L 149.622037 -63.749688 
L 149.727512 -63.749688 
L 149.832988 -63.749688 
L 149.938463 -63.749688 
L 150.043939 -63.749688 
L 150.149414 -63.749688 
L 150.25489 -63.749688 
L 150.360366 -63.749688 
L 150.465841 -63.749688 
L 150.571317 -63.749688 
L 150.676792 -63.749688 
L 150.782268 -63.749688 
L 150.887743 -63.749688 
L 150.993219 -63.749688 
L 151.098694 -63.749688 
L 151.20417 -63.749688 
L 151.309645 -63.749688 
L 151.415121 -63.749688 
L 151.520596 -63.749688 
L 151.626072 -63.749688 
L 151.731547 -63.749688 
L 151.837023 -63.749688 
L 151.942498 -63.749688 
L 152.047974 -63.749688 
L 152.15345 -63.749688 
L 152.258925 -63.749688 
L 152.364401 -63.749688 
L 152.469876 -63.749688 
L 152.575352 -63.749688 
L 152.680827 -63.749688 
L 152.786303 -63.749688 
L 152.891778 -63.749688 
L 152.997254 -63.749688 
L 153.102729 -63.749688 
L 153.208205 -63.749688 
L 153.31368 -63.749688 
L 153.419156 -63.749688 
L 153.524631 -63.749688 
L 153.630107 -63.749688 
L 153.735582 -63.749688 
L 153.841058 -63.749688 
L 153.946533 -63.749688 
L 154.052009 -63.749688 
L 154.157485 -63.749688 
L 154.26296 -63.749688 
L 154.368436 -63.749688 
L 154.473911 -63.749688 
L 154.579387 -63.749688 
L 154.684862 -63.749688 
L 154.790338 -63.749688 
L 154.895813 -63.749688 
L 155.001289 -63.749688 
L 155.106764 -63.749688 
L 155.21224 -63.749688 
L 155.317715 -63.749688 
L 155.423191 -63.749688 
L 155.528666 -63.749688 
L 155.634142 -63.749688 
L 155.739617 -63.749688 
L 155.845093 -63.749688 
L 155.950569 -63.749688 
L 156.056044 -63.749688 
L 156.16152 -63.749688 
L 156.266995 -63.749688 
L 156.372471 -63.749688 
L 156.477946 -63.749688 
L 156.583422 -63.749688 
L 156.688897 -63.749688 
L 156.794373 -63.749688 
L 156.899848 -63.749688 
L 157.005324 -63.749688 
L 157.110799 -63.749688 
L 157.216275 -63.749688 
L 157.32175 -63.749688 
L 157.427226 -63.749688 
L 157.532701 -63.749688 
L 157.638177 -63.749688 
L 157.743652 -63.749688 
L 157.849128 -63.749688 
L 157.954604 -63.749688 
L 158.060079 -63.749688 
L 158.165555 -63.749688 
L 158.27103 -63.749688 
L 158.376506 -63.749688 
L 158.481981 -63.749688 
L 158.587457 -63.749688 
L 158.692932 -63.749688 
L 158.798408 -63.749688 
L 158.903883 -63.749688 
L 159.009359 -63.749688 
L 159.114834 -63.749688 
L 159.22031 -63.749688 
L 159.325785 -63.749688 
L 159.431261 -63.749688 
L 159.536736 -63.749688 
L 159.642212 -63.749688 
L 159.747688 -63.749688 
L 159.853163 -63.749688 
L 159.958639 -63.749688 
L 160.064114 -63.749688 
L 160.16959 -63.749688 
L 160.275065 -63.749688 
L 160.380541 -63.749688 
L 160.486016 -63.749688 
L 160.591492 -63.749688 
L 160.696967 -63.749688 
L 160.802443 -63.749688 
L 160.907918 -63.749688 
L 161.013394 -63.749688 
L 161.118869 -63.749688 
L 161.224345 -63.749688 
L 161.32982 -63.749688 
L 161.435296 -63.749688 
L 161.540771 -63.749688 
L 161.646247 -63.749688 
L 161.751723 -63.749688 
L 161.857198 -63.749688 
L 161.962674 -63.749688 
L 162.068149 -63.749688 
L 162.173625 -63.749688 
L 162.2791 -63.749688 
L 162.384576 -63.749688 
L 162.490051 -63.749688 
L 162.595527 -63.749688 
L 162.701002 -63.749688 
L 162.806478 -63.749688 
L 162.911953 -63.749688 
L 163.017429 -63.749688 
L 163.122904 -63.749688 
L 163.22838 -63.749688 
L 163.333855 -63.749688 
L 163.439331 -63.749688 
L 163.544807 -63.749688 
L 163.650282 -63.749688 
L 163.755758 -63.749688 
L 163.861233 -63.749688 
L 163.966709 -63.749688 
L 164.072184 -63.749688 
L 164.17766 -63.749688 
L 164.283135 -63.749688 
L 164.388611 -63.749688 
L 164.494086 -63.749688 
L 164.599562 -63.749688 
L 164.705037 -63.749688 
L 164.810513 -63.749688 
L 164.915988 -63.749688 
L 165.021464 -63.749688 
L 165.126939 -63.749688 
L 165.232415 -63.749688 
L 165.33789 -63.749688 
L 165.33789 -63.792878 
L 165.33789 -63.792878 
L 165.232415 -63.803298 
L 165.126939 -63.813821 
L 165.021464 -63.823856 
L 164.915988 -63.832919 
L 164.810513 -63.840734 
L 164.705037 -63.847281 
L 164.599562 -63.852785 
L 164.494086 -63.857652 
L 164.388611 -63.862403 
L 164.283135 -63.867627 
L 164.17766 -63.873985 
L 164.072184 -63.882243 
L 163.966709 -63.893322 
L 163.861233 -63.908307 
L 163.755758 -63.928399 
L 163.650282 -63.954801 
L 163.544807 -63.988576 
L 163.439331 -64.030514 
L 163.333855 -64.081085 
L 163.22838 -64.140469 
L 163.122904 -64.208697 
L 163.017429 -64.285823 
L 162.911953 -64.372087 
L 162.806478 -64.467988 
L 162.701002 -64.574235 
L 162.595527 -64.691565 
L 162.490051 -64.820492 
L 162.384576 -64.961045 
L 162.2791 -65.11259 
L 162.173625 -65.273793 
L 162.068149 -65.442747 
L 161.962674 -65.617235 
L 161.857198 -65.795085 
L 161.751723 -65.97455 
L 161.646247 -66.154685 
L 161.540771 -66.33567 
L 161.435296 -66.519061 
L 161.32982 -66.707916 
L 161.224345 -66.906727 
L 161.118869 -67.121096 
L 161.013394 -67.357121 
L 160.907918 -67.620567 
L 160.802443 -67.915968 
L 160.696967 -68.245912 
L 160.591492 -68.610749 
L 160.486016 -69.008882 
L 160.380541 -69.437632 
L 160.275065 -69.894481 
L 160.16959 -70.378339 
L 160.064114 -70.89041 
L 159.958639 -71.434337 
L 159.853163 -72.015459 
L 159.747688 -72.639295 
L 159.642212 -73.309631 
L 159.536736 -74.026721 
L 159.431261 -74.786174 
L 159.325785 -75.578879 
L 159.22031 -76.3921 
L 159.114834 -77.211505 
L 159.009359 -78.023639 
L 158.903883 -78.81825 
L 158.798408 -79.589897 
L 158.692932 -80.338481 
L 158.587457 -81.068595 
L 158.481981 -81.787854 
L 158.376506 -82.50459 
L 158.27103 -83.225451 
L 158.165555 -83.953452 
L 158.060079 -84.686974 
L 157.954604 -85.419982 
L 157.849128 -86.143432 
L 157.743652 -86.847524 
L 157.638177 -87.524222 
L 157.532701 -88.169381 
L 157.427226 -88.783986 
L 157.32175 -89.374244 
L 157.216275 -89.950619 
L 157.110799 -90.526128 
L 157.005324 -91.114264 
L 156.899848 -91.726934 
L 156.794373 -92.372624 
L 156.688897 -93.05496 
L 156.583422 -93.77175 
L 156.477946 -94.514644 
L 156.372471 -95.269544 
L 156.266995 -96.017907 
L 156.16152 -96.738973 
L 156.056044 -97.412747 
L 155.950569 -98.02327 
L 155.845093 -98.561458 
L 155.739617 -99.026675 
L 155.634142 -99.42633 
L 155.528666 -99.773277 
L 155.423191 -100.08146 
L 155.317715 -100.3609 
L 155.21224 -100.613511 
L 155.106764 -100.831109 
L 155.001289 -100.996376 
L 154.895813 -101.086618 
L 154.790338 -101.079243 
L 154.684862 -100.957371 
L 154.579387 -100.713989 
L 154.473911 -100.353545 
L 154.368436 -99.890753 
L 154.26296 -99.347158 
L 154.157485 -98.746595 
L 154.052009 -98.110842 
L 153.946533 -97.456529 
L 153.841058 -96.79389 
L 153.735582 -96.127383 
L 153.630107 -95.457678 
L 153.524631 -94.784254 
L 153.419156 -94.107733 
L 153.31368 -93.431276 
L 153.208205 -92.760677 
L 153.102729 -92.103209 
L 152.997254 -91.46568 
L 152.891778 -90.852379 
L 152.786303 -90.263641 
L 152.680827 -89.695509 
L 152.575352 -89.140625 
L 152.469876 -88.590019 
L 152.364401 -88.0352 
L 152.258925 -87.469837 
L 152.15345 -86.890534 
L 152.047974 -86.296555 
L 151.942498 -85.688747 
L 151.837023 -85.068196 
L 151.731547 -84.435183 
L 151.626072 -83.788836 
L 151.520596 -83.127529 
L 151.415121 -82.449803 
L 151.309645 -81.755388 
L 151.20417 -81.045954 
L 151.098694 -80.32535 
L 150.993219 -79.59934 
L 150.887743 -78.87494 
L 150.782268 -78.159564 
L 150.676792 -77.460108 
L 150.571317 -76.782101 
L 150.465841 -76.128974 
L 150.360366 -75.501563 
L 150.25489 -74.897937 
L 150.149414 -74.313655 
L 150.043939 -73.742498 
L 149.938463 -73.177602 
L 149.832988 -72.612843 
L 149.727512 -72.044183 
L 149.622037 -71.470719 
L 149.516561 -70.895169 
L 149.411086 -70.323665 
L 149.30561 -69.764876 
L 149.200135 -69.228625 
L 149.094659 -68.7243 
L 148.989184 -68.259395 
L 148.883708 -67.838493 
L 148.778233 -67.462885 
L 148.672757 -67.130831 
L 148.567282 -66.838349 
L 148.461806 -66.580264 
L 148.356331 -66.351221 
L 148.250855 -66.14642 
L 148.145379 -65.961948 
L 148.039904 -65.794716 
L 147.934428 -65.642137 
L 147.828953 -65.501754 
L 147.723477 -65.370995 
L 147.618002 -65.24718 
L 147.512526 -65.127758 
L 147.407051 -65.010694 
L 147.301575 -64.89485 
L 147.1961 -64.780212 
L 147.090624 -64.667886 
L 146.985149 -64.559854 
L 146.879673 -64.458552 
L 146.774198 -64.366391 
L 146.668722 -64.285306 
L 146.563247 -64.216429 
L 146.457771 -64.159915 
L 146.352296 -64.114938 
L 146.24682 -64.079827 
L 146.141344 -64.052324 
L 146.035869 -64.029913 
L 145.930393 -64.010186 
L 145.824918 -63.991165 
L 145.719442 -63.971548 
L 145.613967 -63.950797 
L 145.508491 -63.929075 
L 145.403016 -63.90705 
L 145.29754 -63.885612 
L 145.192065 -63.865602 
L 145.086589 -63.847605 
L 144.981114 -63.831869 
L 144.875638 -63.818324 
L 144.770163 -63.806697 
L 144.664687 -63.796641 
L 144.559212 -63.787852 
L 144.453736 -63.78013 
L 144.34826 -63.773384 
z
" style="stroke: #355f8d; stroke-width: 1.25"/>
    </defs>
    <g>
     <use xlink:href="#m9bd0595d0a" x="0" y="174.899688" style="fill: #355f8d; fill-opacity: 0.7; stroke: #355f8d; stroke-width: 1.25"/>
    </g>
   </g>
   <g id="line2d_7">
    <path d="M 7.2 111.15 
L 216.45 111.15 
" style="fill: none; stroke: #355f8d; stroke-opacity: 0.9; stroke-linecap: round"/>
   </g>
   <g id="text_7">
    <!-- 6 -->
    <g style="fill: #355f8d" transform="translate(7.2 110.30325) scale(0.12 -0.12)">
     <defs>
      <path id="DejaVuSans-Bold-36" d="M 2316 2303 
Q 2000 2303 1842 2098 
Q 1684 1894 1684 1484 
Q 1684 1075 1842 870 
Q 2000 666 2316 666 
Q 2634 666 2792 870 
Q 2950 1075 2950 1484 
Q 2950 1894 2792 2098 
Q 2634 2303 2316 2303 
z
M 3803 4544 
L 3803 3681 
Q 3506 3822 3243 3889 
Q 2981 3956 2731 3956 
Q 2194 3956 1894 3657 
Q 1594 3359 1544 2772 
Q 1750 2925 1990 3001 
Q 2231 3078 2516 3078 
Q 3231 3078 3670 2659 
Q 4109 2241 4109 1563 
Q 4109 813 3618 361 
Q 3128 -91 2303 -91 
Q 1394 -91 895 523 
Q 397 1138 397 2266 
Q 397 3422 980 4083 
Q 1563 4744 2578 4744 
Q 2900 4744 3203 4694 
Q 3506 4644 3803 4544 
z
" transform="scale(0.015625)"/>
     </defs>
     <use xlink:href="#DejaVuSans-Bold-36"/>
    </g>
   </g>
  </g>
  <g id="axes_8">
   <g id="patch_9">
    <path d="M 7.2 121.545 
L 216.45 121.545 
L 216.45 79.965 
L 7.2 79.965 
L 7.2 121.545 
z
" style="fill: none"/>
   </g>
   <g id="matplotlib.axis_15">
    <g id="xtick_22"/>
    <g id="xtick_23"/>
    <g id="xtick_24"/>
   </g>
   <g id="matplotlib.axis_16"/>
   <g id="PolyCollection_3">
    <defs>
     <path id="mbade408035" d="M 55.286468 -53.378452 
L 55.286468 -53.354688 
L 55.410925 -53.354688 
L 55.535382 -53.354688 
L 55.659839 -53.354688 
L 55.784296 -53.354688 
L 55.908753 -53.354688 
L 56.03321 -53.354688 
L 56.157667 -53.354688 
L 56.282124 -53.354688 
L 56.406581 -53.354688 
L 56.531038 -53.354688 
L 56.655495 -53.354688 
L 56.779953 -53.354688 
L 56.90441 -53.354688 
L 57.028867 -53.354688 
L 57.153324 -53.354688 
L 57.277781 -53.354688 
L 57.402238 -53.354688 
L 57.526695 -53.354688 
L 57.651152 -53.354688 
L 57.775609 -53.354688 
L 57.900066 -53.354688 
L 58.024523 -53.354688 
L 58.14898 -53.354688 
L 58.273437 -53.354688 
L 58.397894 -53.354688 
L 58.522351 -53.354688 
L 58.646808 -53.354688 
L 58.771266 -53.354688 
L 58.895723 -53.354688 
L 59.02018 -53.354688 
L 59.144637 -53.354688 
L 59.269094 -53.354688 
L 59.393551 -53.354688 
L 59.518008 -53.354688 
L 59.642465 -53.354688 
L 59.766922 -53.354688 
L 59.891379 -53.354688 
L 60.015836 -53.354688 
L 60.140293 -53.354688 
L 60.26475 -53.354688 
L 60.389207 -53.354688 
L 60.513664 -53.354688 
L 60.638121 -53.354688 
L 60.762578 -53.354688 
L 60.887036 -53.354688 
L 61.011493 -53.354688 
L 61.13595 -53.354688 
L 61.260407 -53.354688 
L 61.384864 -53.354688 
L 61.509321 -53.354688 
L 61.633778 -53.354688 
L 61.758235 -53.354688 
L 61.882692 -53.354688 
L 62.007149 -53.354688 
L 62.131606 -53.354688 
L 62.256063 -53.354688 
L 62.38052 -53.354688 
L 62.504977 -53.354688 
L 62.629434 -53.354688 
L 62.753891 -53.354688 
L 62.878348 -53.354688 
L 63.002806 -53.354688 
L 63.127263 -53.354688 
L 63.25172 -53.354688 
L 63.376177 -53.354688 
L 63.500634 -53.354688 
L 63.625091 -53.354688 
L 63.749548 -53.354688 
L 63.874005 -53.354688 
L 63.998462 -53.354688 
L 64.122919 -53.354688 
L 64.247376 -53.354688 
L 64.371833 -53.354688 
L 64.49629 -53.354688 
L 64.620747 -53.354688 
L 64.745204 -53.354688 
L 64.869661 -53.354688 
L 64.994119 -53.354688 
L 65.118576 -53.354688 
L 65.243033 -53.354688 
L 65.36749 -53.354688 
L 65.491947 -53.354688 
L 65.616404 -53.354688 
L 65.740861 -53.354688 
L 65.865318 -53.354688 
L 65.989775 -53.354688 
L 66.114232 -53.354688 
L 66.238689 -53.354688 
L 66.363146 -53.354688 
L 66.487603 -53.354688 
L 66.61206 -53.354688 
L 66.736517 -53.354688 
L 66.860974 -53.354688 
L 66.985431 -53.354688 
L 67.109889 -53.354688 
L 67.234346 -53.354688 
L 67.358803 -53.354688 
L 67.48326 -53.354688 
L 67.607717 -53.354688 
L 67.732174 -53.354688 
L 67.856631 -53.354688 
L 67.981088 -53.354688 
L 68.105545 -53.354688 
L 68.230002 -53.354688 
L 68.354459 -53.354688 
L 68.478916 -53.354688 
L 68.603373 -53.354688 
L 68.72783 -53.354688 
L 68.852287 -53.354688 
L 68.976744 -53.354688 
L 69.101202 -53.354688 
L 69.225659 -53.354688 
L 69.350116 -53.354688 
L 69.474573 -53.354688 
L 69.59903 -53.354688 
L 69.723487 -53.354688 
L 69.847944 -53.354688 
L 69.972401 -53.354688 
L 70.096858 -53.354688 
L 70.221315 -53.354688 
L 70.345772 -53.354688 
L 70.470229 -53.354688 
L 70.594686 -53.354688 
L 70.719143 -53.354688 
L 70.8436 -53.354688 
L 70.968057 -53.354688 
L 71.092514 -53.354688 
L 71.216972 -53.354688 
L 71.341429 -53.354688 
L 71.465886 -53.354688 
L 71.590343 -53.354688 
L 71.7148 -53.354688 
L 71.839257 -53.354688 
L 71.963714 -53.354688 
L 72.088171 -53.354688 
L 72.212628 -53.354688 
L 72.337085 -53.354688 
L 72.461542 -53.354688 
L 72.585999 -53.354688 
L 72.710456 -53.354688 
L 72.834913 -53.354688 
L 72.95937 -53.354688 
L 73.083827 -53.354688 
L 73.208284 -53.354688 
L 73.332742 -53.354688 
L 73.457199 -53.354688 
L 73.581656 -53.354688 
L 73.706113 -53.354688 
L 73.83057 -53.354688 
L 73.955027 -53.354688 
L 74.079484 -53.354688 
L 74.203941 -53.354688 
L 74.328398 -53.354688 
L 74.452855 -53.354688 
L 74.577312 -53.354688 
L 74.701769 -53.354688 
L 74.826226 -53.354688 
L 74.950683 -53.354688 
L 75.07514 -53.354688 
L 75.199597 -53.354688 
L 75.324055 -53.354688 
L 75.448512 -53.354688 
L 75.572969 -53.354688 
L 75.697426 -53.354688 
L 75.821883 -53.354688 
L 75.94634 -53.354688 
L 76.070797 -53.354688 
L 76.195254 -53.354688 
L 76.319711 -53.354688 
L 76.444168 -53.354688 
L 76.568625 -53.354688 
L 76.693082 -53.354688 
L 76.817539 -53.354688 
L 76.941996 -53.354688 
L 77.066453 -53.354688 
L 77.19091 -53.354688 
L 77.315367 -53.354688 
L 77.439825 -53.354688 
L 77.564282 -53.354688 
L 77.688739 -53.354688 
L 77.813196 -53.354688 
L 77.937653 -53.354688 
L 78.06211 -53.354688 
L 78.186567 -53.354688 
L 78.311024 -53.354688 
L 78.435481 -53.354688 
L 78.559938 -53.354688 
L 78.684395 -53.354688 
L 78.808852 -53.354688 
L 78.933309 -53.354688 
L 79.057766 -53.354688 
L 79.182223 -53.354688 
L 79.30668 -53.354688 
L 79.431137 -53.354688 
L 79.555595 -53.354688 
L 79.680052 -53.354688 
L 79.804509 -53.354688 
L 79.928966 -53.354688 
L 80.053423 -53.354688 
L 80.053423 -53.398065 
L 80.053423 -53.398065 
L 79.928966 -53.413314 
L 79.804509 -53.430859 
L 79.680052 -53.449969 
L 79.555595 -53.469646 
L 79.431137 -53.488791 
L 79.30668 -53.506437 
L 79.182223 -53.521994 
L 79.057766 -53.53545 
L 78.933309 -53.547454 
L 78.808852 -53.559234 
L 78.684395 -53.572354 
L 78.559938 -53.58837 
L 78.435481 -53.608487 
L 78.311024 -53.633338 
L 78.186567 -53.662975 
L 78.06211 -53.697082 
L 77.937653 -53.735336 
L 77.813196 -53.777747 
L 77.688739 -53.824857 
L 77.564282 -53.877675 
L 77.439825 -53.937412 
L 77.315367 -54.005114 
L 77.19091 -54.081401 
L 77.066453 -54.166462 
L 76.941996 -54.260366 
L 76.817539 -54.363627 
L 76.693082 -54.47783 
L 76.568625 -54.606083 
L 76.444168 -54.753082 
L 76.319711 -54.924631 
L 76.195254 -55.126643 
L 76.070797 -55.363783 
L 75.94634 -55.638057 
L 75.821883 -55.947757 
L 75.697426 -56.287117 
L 75.572969 -56.646869 
L 75.448512 -57.015705 
L 75.324055 -57.382336 
L 75.199597 -57.737719 
L 75.07514 -58.076954 
L 74.950683 -58.400439 
L 74.826226 -58.71406 
L 74.701769 -59.028407 
L 74.577312 -59.357176 
L 74.452855 -59.71506 
L 74.328398 -60.115508 
L 74.203941 -60.568726 
L 74.079484 -61.080261 
L 73.955027 -61.650389 
L 73.83057 -62.274379 
L 73.706113 -62.943535 
L 73.581656 -63.646797 
L 73.457199 -64.372585 
L 73.332742 -65.110557 
L 73.208284 -65.852994 
L 73.083827 -66.595582 
L 72.95937 -67.337455 
L 72.834913 -68.080529 
L 72.710456 -68.828269 
L 72.585999 -69.584233 
L 72.461542 -70.350755 
L 72.337085 -71.128129 
L 72.212628 -71.914382 
L 72.088171 -72.705546 
L 71.963714 -73.496105 
L 71.839257 -74.279327 
L 71.7148 -75.04739 
L 71.590343 -75.791465 
L 71.465886 -76.502102 
L 71.341429 -77.170202 
L 71.216972 -77.788553 
L 71.092514 -78.353602 
L 70.968057 -78.866849 
L 70.8436 -79.335337 
L 70.719143 -79.770971 
L 70.594686 -80.188817 
L 70.470229 -80.604855 
L 70.345772 -81.033742 
L 70.221315 -81.487023 
L 70.096858 -81.971932 
L 69.972401 -82.490657 
L 69.847944 -83.039873 
L 69.723487 -83.610411 
L 69.59903 -84.187187 
L 69.474573 -84.749713 
L 69.350116 -85.273559 
L 69.225659 -85.732925 
L 69.101202 -86.104045 
L 68.976744 -86.368719 
L 68.852287 -86.517006 
L 68.72783 -86.548238 
L 68.603373 -86.470012 
L 68.478916 -86.295492 
L 68.354459 -86.039946 
L 68.230002 -85.717696 
L 68.105545 -85.340404 
L 67.981088 -84.917038 
L 67.856631 -84.455159 
L 67.732174 -83.962646 
L 67.607717 -83.448845 
L 67.48326 -82.924452 
L 67.358803 -82.400043 
L 67.234346 -81.883797 
L 67.109889 -81.379377 
L 66.985431 -80.884931 
L 66.860974 -80.39379 
L 66.736517 -79.896745 
L 66.61206 -79.385183 
L 66.487603 -78.853974 
L 66.363146 -78.303053 
L 66.238689 -77.737133 
L 66.114232 -77.163677 
L 65.989775 -76.589901 
L 65.865318 -76.019906 
L 65.740861 -75.45293 
L 65.616404 -74.883233 
L 65.491947 -74.301526 
L 65.36749 -73.697385 
L 65.243033 -73.061881 
L 65.118576 -72.38976 
L 64.994119 -71.680709 
L 64.869661 -70.939548 
L 64.745204 -70.17537 
L 64.620747 -69.39981 
L 64.49629 -68.62477 
L 64.371833 -67.860127 
L 64.247376 -67.111974 
L 64.122919 -66.381954 
L 63.998462 -65.667913 
L 63.874005 -64.965716 
L 63.749548 -64.271626 
L 63.625091 -63.584451 
L 63.500634 -62.906748 
L 63.376177 -62.244701 
L 63.25172 -61.606796 
L 63.127263 -61.001793 
L 63.002806 -60.436721 
L 62.878348 -59.915521 
L 62.753891 -59.438692 
L 62.629434 -59.003886 
L 62.504977 -58.607104 
L 62.38052 -58.243961 
L 62.256063 -57.910594 
L 62.131606 -57.60398 
L 62.007149 -57.321715 
L 61.882692 -57.061522 
L 61.758235 -56.820776 
L 61.633778 -56.596295 
L 61.509321 -56.384446 
L 61.384864 -56.181507 
L 61.260407 -55.984142 
L 61.13595 -55.789855 
L 61.011493 -55.597318 
L 60.887036 -55.406542 
L 60.762578 -55.21885 
L 60.638121 -55.036636 
L 60.513664 -54.862901 
L 60.389207 -54.700619 
L 60.26475 -54.552064 
L 60.140293 -54.41827 
L 60.015836 -54.298812 
L 59.891379 -54.191996 
L 59.766922 -54.095394 
L 59.642465 -54.006564 
L 59.518008 -53.92369 
L 59.393551 -53.845948 
L 59.269094 -53.773503 
L 59.144637 -53.707185 
L 59.02018 -53.648002 
L 58.895723 -53.596685 
L 58.771266 -53.55339 
L 58.646808 -53.517644 
L 58.522351 -53.488487 
L 58.397894 -53.464722 
L 58.273437 -53.445188 
L 58.14898 -53.428968 
L 58.024523 -53.415491 
L 57.900066 -53.404528 
L 57.775609 -53.396104 
L 57.651152 -53.390373 
L 57.526695 -53.387475 
L 57.402238 -53.387417 
L 57.277781 -53.389993 
L 57.153324 -53.39476 
L 57.028867 -53.401058 
L 56.90441 -53.40808 
L 56.779953 -53.414972 
L 56.655495 -53.420938 
L 56.531038 -53.425332 
L 56.406581 -53.427715 
L 56.282124 -53.427882 
L 56.157667 -53.425842 
L 56.03321 -53.421787 
L 55.908753 -53.416051 
L 55.784296 -53.409067 
L 55.659839 -53.401326 
L 55.535382 -53.393337 
L 55.410925 -53.385577 
L 55.286468 -53.378452 
z
" style="stroke: #414487; stroke-width: 1.25"/>
    </defs>
    <g>
     <use xlink:href="#mbade408035" x="0" y="174.899688" style="fill: #414487; fill-opacity: 0.7; stroke: #414487; stroke-width: 1.25"/>
    </g>
   </g>
   <g id="line2d_8">
    <path d="M 7.2 121.545 
L 216.45 121.545 
" style="fill: none; stroke: #414487; stroke-opacity: 0.9; stroke-linecap: round"/>
   </g>
   <g id="text_8">
    <!-- 7 -->
    <g style="fill: #414487" transform="translate(7.2 120.69825) scale(0.12 -0.12)">
     <defs>
      <path id="DejaVuSans-Bold-37" d="M 428 4666 
L 3944 4666 
L 3944 3988 
L 2125 0 
L 953 0 
L 2675 3781 
L 428 3781 
L 428 4666 
z
" transform="scale(0.015625)"/>
     </defs>
     <use xlink:href="#DejaVuSans-Bold-37"/>
    </g>
   </g>
  </g>
  <g id="axes_9">
   <g id="patch_10">
    <path d="M 7.2 131.94 
L 216.45 131.94 
L 216.45 90.36 
L 7.2 90.36 
L 7.2 131.94 
z
" style="fill: none"/>
   </g>
   <g id="matplotlib.axis_17">
    <g id="xtick_25">
     <g id="text_9">
      <!-- −1.0 -->
      <g style="fill: #838383" transform="translate(21.067614 149.798281) scale(0.11 -0.11)">
       <defs>
        <path id="DejaVuSans-2212" d="M 678 2272 
L 4684 2272 
L 4684 1741 
L 678 1741 
L 678 2272 
z
" transform="scale(0.015625)"/>
        <path id="DejaVuSans-31" d="M 794 531 
L 1825 531 
L 1825 4091 
L 703 3866 
L 703 4441 
L 1819 4666 
L 2450 4666 
L 2450 531 
L 3481 531 
L 3481 0 
L 794 0 
L 794 531 
z
" transform="scale(0.015625)"/>
        <path id="DejaVuSans-2e" d="M 684 794 
L 1344 794 
L 1344 0 
L 684 0 
L 684 794 
z
" transform="scale(0.015625)"/>
        <path id="DejaVuSans-30" d="M 2034 4250 
Q 1547 4250 1301 3770 
Q 1056 3291 1056 2328 
Q 1056 1369 1301 889 
Q 1547 409 2034 409 
Q 2525 409 2770 889 
Q 3016 1369 3016 2328 
Q 3016 3291 2770 3770 
Q 2525 4250 2034 4250 
z
M 2034 4750 
Q 2819 4750 3233 4129 
Q 3647 3509 3647 2328 
Q 3647 1150 3233 529 
Q 2819 -91 2034 -91 
Q 1250 -91 836 529 
Q 422 1150 422 2328 
Q 422 3509 836 4129 
Q 1250 4750 2034 4750 
z
" transform="scale(0.015625)"/>
       </defs>
       <use xlink:href="#DejaVuSans-2212"/>
       <use xlink:href="#DejaVuSans-31" x="83.789062"/>
       <use xlink:href="#DejaVuSans-2e" x="147.412109"/>
       <use xlink:href="#DejaVuSans-30" x="179.199219"/>
      </g>
     </g>
    </g>
    <g id="xtick_26">
     <g id="text_10">
      <!-- −0.5 -->
      <g style="fill: #838383" transform="translate(99.358684 149.798281) scale(0.11 -0.11)">
       <defs>
        <path id="DejaVuSans-35" d="M 691 4666 
L 3169 4666 
L 3169 4134 
L 1269 4134 
L 1269 2991 
Q 1406 3038 1543 3061 
Q 1681 3084 1819 3084 
Q 2600 3084 3056 2656 
Q 3513 2228 3513 1497 
Q 3513 744 3044 326 
Q 2575 -91 1722 -91 
Q 1428 -91 1123 -41 
Q 819 9 494 109 
L 494 744 
Q 775 591 1075 516 
Q 1375 441 1709 441 
Q 2250 441 2565 725 
Q 2881 1009 2881 1497 
Q 2881 1984 2565 2268 
Q 2250 2553 1709 2553 
Q 1456 2553 1204 2497 
Q 953 2441 691 2322 
L 691 4666 
z
" transform="scale(0.015625)"/>
       </defs>
       <use xlink:href="#DejaVuSans-2212"/>
       <use xlink:href="#DejaVuSans-30" x="83.789062"/>
       <use xlink:href="#DejaVuSans-2e" x="147.412109"/>
       <use xlink:href="#DejaVuSans-35" x="179.199219"/>
      </g>
     </g>
    </g>
    <g id="xtick_27">
     <g id="text_11">
      <!-- 0.0 -->
      <g style="fill: #838383" transform="translate(182.258582 149.798281) scale(0.11 -0.11)">
       <use xlink:href="#DejaVuSans-30"/>
       <use xlink:href="#DejaVuSans-2e" x="63.623047"/>
       <use xlink:href="#DejaVuSans-30" x="95.410156"/>
      </g>
     </g>
    </g>
    <g id="text_12">
     <!-- sldb -->
     <g style="fill: #262626" transform="translate(99.414375 165.204063) scale(0.12 -0.12)">
      <defs>
       <path id="DejaVuSans-73" d="M 2834 3397 
L 2834 2853 
Q 2591 2978 2328 3040 
Q 2066 3103 1784 3103 
Q 1356 3103 1142 2972 
Q 928 2841 928 2578 
Q 928 2378 1081 2264 
Q 1234 2150 1697 2047 
L 1894 2003 
Q 2506 1872 2764 1633 
Q 3022 1394 3022 966 
Q 3022 478 2636 193 
Q 2250 -91 1575 -91 
Q 1294 -91 989 -36 
Q 684 19 347 128 
L 347 722 
Q 666 556 975 473 
Q 1284 391 1588 391 
Q 1994 391 2212 530 
Q 2431 669 2431 922 
Q 2431 1156 2273 1281 
Q 2116 1406 1581 1522 
L 1381 1569 
Q 847 1681 609 1914 
Q 372 2147 372 2553 
Q 372 3047 722 3315 
Q 1072 3584 1716 3584 
Q 2034 3584 2315 3537 
Q 2597 3491 2834 3397 
z
" transform="scale(0.015625)"/>
       <path id="DejaVuSans-6c" d="M 603 4863 
L 1178 4863 
L 1178 0 
L 603 0 
L 603 4863 
z
" transform="scale(0.015625)"/>
       <path id="DejaVuSans-64" d="M 2906 2969 
L 2906 4863 
L 3481 4863 
L 3481 0 
L 2906 0 
L 2906 525 
Q 2725 213 2448 61 
Q 2172 -91 1784 -91 
Q 1150 -91 751 415 
Q 353 922 353 1747 
Q 353 2572 751 3078 
Q 1150 3584 1784 3584 
Q 2172 3584 2448 3432 
Q 2725 3281 2906 2969 
z
M 947 1747 
Q 947 1113 1208 752 
Q 1469 391 1925 391 
Q 2381 391 2643 752 
Q 2906 1113 2906 1747 
Q 2906 2381 2643 2742 
Q 2381 3103 1925 3103 
Q 1469 3103 1208 2742 
Q 947 2381 947 1747 
z
" transform="scale(0.015625)"/>
       <path id="DejaVuSans-62" d="M 3116 1747 
Q 3116 2381 2855 2742 
Q 2594 3103 2138 3103 
Q 1681 3103 1420 2742 
Q 1159 2381 1159 1747 
Q 1159 1113 1420 752 
Q 1681 391 2138 391 
Q 2594 391 2855 752 
Q 3116 1113 3116 1747 
z
M 1159 2969 
Q 1341 3281 1617 3432 
Q 1894 3584 2278 3584 
Q 2916 3584 3314 3078 
Q 3713 2572 3713 1747 
Q 3713 922 3314 415 
Q 2916 -91 2278 -91 
Q 1894 -91 1617 61 
Q 1341 213 1159 525 
L 1159 0 
L 581 0 
L 581 4863 
L 1159 4863 
L 1159 2969 
z
" transform="scale(0.015625)"/>
      </defs>
      <use xlink:href="#DejaVuSans-73"/>
      <use xlink:href="#DejaVuSans-6c" x="52.099609"/>
      <use xlink:href="#DejaVuSans-64" x="79.882812"/>
      <use xlink:href="#DejaVuSans-62" x="143.359375"/>
     </g>
    </g>
   </g>
   <g id="matplotlib.axis_18"/>
   <g id="PolyCollection_4">
    <defs>
     <path id="mc3a06027b0" d="M 16.711364 -42.980287 
L 16.711364 -42.959688 
L 16.837996 -42.959688 
L 16.964628 -42.959688 
L 17.091261 -42.959688 
L 17.217893 -42.959688 
L 17.344525 -42.959688 
L 17.471157 -42.959688 
L 17.59779 -42.959688 
L 17.724422 -42.959688 
L 17.851054 -42.959688 
L 17.977687 -42.959688 
L 18.104319 -42.959688 
L 18.230951 -42.959688 
L 18.357584 -42.959688 
L 18.484216 -42.959688 
L 18.610848 -42.959688 
L 18.73748 -42.959688 
L 18.864113 -42.959688 
L 18.990745 -42.959688 
L 19.117377 -42.959688 
L 19.24401 -42.959688 
L 19.370642 -42.959688 
L 19.497274 -42.959688 
L 19.623907 -42.959688 
L 19.750539 -42.959688 
L 19.877171 -42.959688 
L 20.003803 -42.959688 
L 20.130436 -42.959688 
L 20.257068 -42.959688 
L 20.3837 -42.959688 
L 20.510333 -42.959688 
L 20.636965 -42.959688 
L 20.763597 -42.959688 
L 20.89023 -42.959688 
L 21.016862 -42.959688 
L 21.143494 -42.959688 
L 21.270126 -42.959688 
L 21.396759 -42.959688 
L 21.523391 -42.959688 
L 21.650023 -42.959688 
L 21.776656 -42.959688 
L 21.903288 -42.959688 
L 22.02992 -42.959688 
L 22.156553 -42.959688 
L 22.283185 -42.959688 
L 22.409817 -42.959688 
L 22.536449 -42.959688 
L 22.663082 -42.959688 
L 22.789714 -42.959688 
L 22.916346 -42.959688 
L 23.042979 -42.959688 
L 23.169611 -42.959688 
L 23.296243 -42.959688 
L 23.422876 -42.959688 
L 23.549508 -42.959688 
L 23.67614 -42.959688 
L 23.802773 -42.959688 
L 23.929405 -42.959688 
L 24.056037 -42.959688 
L 24.182669 -42.959688 
L 24.309302 -42.959688 
L 24.435934 -42.959688 
L 24.562566 -42.959688 
L 24.689199 -42.959688 
L 24.815831 -42.959688 
L 24.942463 -42.959688 
L 25.069096 -42.959688 
L 25.195728 -42.959688 
L 25.32236 -42.959688 
L 25.448992 -42.959688 
L 25.575625 -42.959688 
L 25.702257 -42.959688 
L 25.828889 -42.959688 
L 25.955522 -42.959688 
L 26.082154 -42.959688 
L 26.208786 -42.959688 
L 26.335419 -42.959688 
L 26.462051 -42.959688 
L 26.588683 -42.959688 
L 26.715315 -42.959688 
L 26.841948 -42.959688 
L 26.96858 -42.959688 
L 27.095212 -42.959688 
L 27.221845 -42.959688 
L 27.348477 -42.959688 
L 27.475109 -42.959688 
L 27.601742 -42.959688 
L 27.728374 -42.959688 
L 27.855006 -42.959688 
L 27.981638 -42.959688 
L 28.108271 -42.959688 
L 28.234903 -42.959688 
L 28.361535 -42.959688 
L 28.488168 -42.959688 
L 28.6148 -42.959688 
L 28.741432 -42.959688 
L 28.868065 -42.959688 
L 28.994697 -42.959688 
L 29.121329 -42.959688 
L 29.247961 -42.959688 
L 29.374594 -42.959688 
L 29.501226 -42.959688 
L 29.627858 -42.959688 
L 29.754491 -42.959688 
L 29.881123 -42.959688 
L 30.007755 -42.959688 
L 30.134388 -42.959688 
L 30.26102 -42.959688 
L 30.387652 -42.959688 
L 30.514284 -42.959688 
L 30.640917 -42.959688 
L 30.767549 -42.959688 
L 30.894181 -42.959688 
L 31.020814 -42.959688 
L 31.147446 -42.959688 
L 31.274078 -42.959688 
L 31.400711 -42.959688 
L 31.527343 -42.959688 
L 31.653975 -42.959688 
L 31.780607 -42.959688 
L 31.90724 -42.959688 
L 32.033872 -42.959688 
L 32.160504 -42.959688 
L 32.287137 -42.959688 
L 32.413769 -42.959688 
L 32.540401 -42.959688 
L 32.667034 -42.959688 
L 32.793666 -42.959688 
L 32.920298 -42.959688 
L 33.046931 -42.959688 
L 33.173563 -42.959688 
L 33.300195 -42.959688 
L 33.426827 -42.959688 
L 33.55346 -42.959688 
L 33.680092 -42.959688 
L 33.806724 -42.959688 
L 33.933357 -42.959688 
L 34.059989 -42.959688 
L 34.186621 -42.959688 
L 34.313254 -42.959688 
L 34.439886 -42.959688 
L 34.566518 -42.959688 
L 34.69315 -42.959688 
L 34.819783 -42.959688 
L 34.946415 -42.959688 
L 35.073047 -42.959688 
L 35.19968 -42.959688 
L 35.326312 -42.959688 
L 35.452944 -42.959688 
L 35.579577 -42.959688 
L 35.706209 -42.959688 
L 35.832841 -42.959688 
L 35.959473 -42.959688 
L 36.086106 -42.959688 
L 36.212738 -42.959688 
L 36.33937 -42.959688 
L 36.466003 -42.959688 
L 36.592635 -42.959688 
L 36.719267 -42.959688 
L 36.8459 -42.959688 
L 36.972532 -42.959688 
L 37.099164 -42.959688 
L 37.225796 -42.959688 
L 37.352429 -42.959688 
L 37.479061 -42.959688 
L 37.605693 -42.959688 
L 37.732326 -42.959688 
L 37.858958 -42.959688 
L 37.98559 -42.959688 
L 38.112223 -42.959688 
L 38.238855 -42.959688 
L 38.365487 -42.959688 
L 38.492119 -42.959688 
L 38.618752 -42.959688 
L 38.745384 -42.959688 
L 38.872016 -42.959688 
L 38.998649 -42.959688 
L 39.125281 -42.959688 
L 39.251913 -42.959688 
L 39.378546 -42.959688 
L 39.505178 -42.959688 
L 39.63181 -42.959688 
L 39.758442 -42.959688 
L 39.885075 -42.959688 
L 40.011707 -42.959688 
L 40.138339 -42.959688 
L 40.264972 -42.959688 
L 40.391604 -42.959688 
L 40.518236 -42.959688 
L 40.644869 -42.959688 
L 40.771501 -42.959688 
L 40.898133 -42.959688 
L 41.024765 -42.959688 
L 41.151398 -42.959688 
L 41.27803 -42.959688 
L 41.404662 -42.959688 
L 41.531295 -42.959688 
L 41.657927 -42.959688 
L 41.784559 -42.959688 
L 41.911192 -42.959688 
L 41.911192 -42.991242 
L 41.911192 -42.991242 
L 41.784559 -43.001915 
L 41.657927 -43.014317 
L 41.531295 -43.028173 
L 41.404662 -43.043099 
L 41.27803 -43.058662 
L 41.151398 -43.074449 
L 41.024765 -43.090132 
L 40.898133 -43.105523 
L 40.771501 -43.120591 
L 40.644869 -43.135443 
L 40.518236 -43.150256 
L 40.391604 -43.165182 
L 40.264972 -43.180268 
L 40.138339 -43.195421 
L 40.011707 -43.210476 
L 39.885075 -43.225369 
L 39.758442 -43.240381 
L 39.63181 -43.25639 
L 39.505178 -43.275028 
L 39.378546 -43.298698 
L 39.251913 -43.330404 
L 39.125281 -43.373444 
L 38.998649 -43.431026 
L 38.872016 -43.505913 
L 38.745384 -43.600137 
L 38.618752 -43.71484 
L 38.492119 -43.850214 
L 38.365487 -44.005533 
L 38.238855 -44.179251 
L 38.112223 -44.369179 
L 37.98559 -44.572755 
L 37.858958 -44.787403 
L 37.732326 -45.010957 
L 37.605693 -45.242051 
L 37.479061 -45.480339 
L 37.352429 -45.726456 
L 37.225796 -45.981696 
L 37.099164 -46.247498 
L 36.972532 -46.524935 
L 36.8459 -46.814398 
L 36.719267 -47.115607 
L 36.592635 -47.42794 
L 36.466003 -47.750922 
L 36.33937 -48.084683 
L 36.212738 -48.430173 
L 36.086106 -48.789074 
L 35.959473 -49.163463 
L 35.832841 -49.555411 
L 35.706209 -49.966728 
L 35.579577 -50.399025 
L 35.452944 -50.854105 
L 35.326312 -51.334529 
L 35.19968 -51.844087 
L 35.073047 -52.387806 
L 34.946415 -52.971303 
L 34.819783 -53.59946 
L 34.69315 -54.274717 
L 34.566518 -54.995499 
L 34.439886 -55.755332 
L 34.313254 -56.543017 
L 34.186621 -57.343911 
L 34.059989 -58.141984 
L 33.933357 -58.922117 
L 33.806724 -59.672085 
L 33.680092 -60.383899 
L 33.55346 -61.054423 
L 33.426827 -61.685371 
L 33.300195 -62.282855 
L 33.173563 -62.856539 
L 33.046931 -63.418398 
L 32.920298 -63.981096 
L 32.793666 -64.556121 
L 32.667034 -65.152024 
L 32.540401 -65.773163 
L 32.413769 -66.419254 
L 32.287137 -67.08578 
L 32.160504 -67.764994 
L 32.033872 -68.447089 
L 31.90724 -69.12121 
L 31.780607 -69.776194 
L 31.653975 -70.401215 
L 31.527343 -70.98661 
L 31.400711 -71.525033 
L 31.274078 -72.012725 
L 31.147446 -72.450439 
L 31.020814 -72.843406 
L 30.894181 -73.199978 
L 30.767549 -73.529062 
L 30.640917 -73.836991 
L 30.514284 -74.12484 
L 30.387652 -74.387183 
L 30.26102 -74.612888 
L 30.134388 -74.78782 
L 30.007755 -74.898651 
L 29.881123 -74.936496 
L 29.754491 -74.899166 
L 29.627858 -74.791285 
L 29.501226 -74.622364 
L 29.374594 -74.403663 
L 29.247961 -74.145068 
L 29.121329 -73.853098 
L 28.994697 -73.530583 
L 28.868065 -73.177757 
L 28.741432 -72.794 
L 28.6148 -72.379223 
L 28.488168 -71.934261 
L 28.361535 -71.460171 
L 28.234903 -70.956977 
L 28.108271 -70.422662 
L 27.981638 -69.853163 
L 27.855006 -69.243626 
L 27.728374 -68.590606 
L 27.601742 -67.894409 
L 27.475109 -67.160606 
L 27.348477 -66.400023 
L 27.221845 -65.62705 
L 27.095212 -64.856736 
L 26.96858 -64.101603 
L 26.841948 -63.369202 
L 26.715315 -62.661171 
L 26.588683 -61.973984 
L 26.462051 -61.301046 
L 26.335419 -60.635358 
L 26.208786 -59.971886 
L 26.082154 -59.308946 
L 25.955522 -58.648276 
L 25.828889 -57.993891 
L 25.702257 -57.350177 
L 25.575625 -56.71988 
L 25.448992 -56.102686 
L 25.32236 -55.494946 
L 25.195728 -54.890713 
L 25.069096 -54.28387 
L 24.942463 -53.670656 
L 24.815831 -53.051734 
L 24.689199 -52.433006 
L 24.562566 -51.824837 
L 24.435934 -51.239861 
L 24.309302 -50.690083 
L 24.182669 -50.184195 
L 24.056037 -49.725877 
L 23.929405 -49.313477 
L 23.802773 -48.940955 
L 23.67614 -48.599631 
L 23.549508 -48.280132 
L 23.422876 -47.974035 
L 23.296243 -47.674911 
L 23.169611 -47.37876 
L 23.042979 -47.083926 
L 22.916346 -46.790715 
L 22.789714 -46.500877 
L 22.663082 -46.217083 
L 22.536449 -45.942465 
L 22.409817 -45.680239 
L 22.283185 -45.433402 
L 22.156553 -45.204473 
L 22.02992 -44.995266 
L 21.903288 -44.806694 
L 21.776656 -44.638636 
L 21.650023 -44.489897 
L 21.523391 -44.358311 
L 21.396759 -44.240971 
L 21.270126 -44.134594 
L 21.143494 -44.035935 
L 21.016862 -43.942187 
L 20.89023 -43.85128 
L 20.763597 -43.762046 
L 20.636965 -43.674204 
L 20.510333 -43.588217 
L 20.3837 -43.505065 
L 20.257068 -43.425991 
L 20.130436 -43.352283 
L 20.003803 -43.285116 
L 19.877171 -43.225445 
L 19.750539 -43.173954 
L 19.623907 -43.131032 
L 19.497274 -43.096761 
L 19.370642 -43.07091 
L 19.24401 -43.05293 
L 19.117377 -43.041956 
L 18.990745 -43.036826 
L 18.864113 -43.036136 
L 18.73748 -43.038344 
L 18.610848 -43.041905 
L 18.484216 -43.045439 
L 18.357584 -43.047876 
L 18.230951 -43.048547 
L 18.104319 -43.047213 
L 17.977687 -43.043993 
L 17.851054 -43.039243 
L 17.724422 -43.033415 
L 17.59779 -43.026929 
L 17.471157 -43.020099 
L 17.344525 -43.013127 
L 17.217893 -43.006132 
L 17.091261 -42.999213 
L 16.964628 -42.99249 
L 16.837996 -42.986121 
L 16.711364 -42.980287 
z
" style="stroke: #482475; stroke-width: 1.25"/>
    </defs>
    <g>
     <use xlink:href="#mc3a06027b0" x="0" y="174.899688" style="fill: #482475; fill-opacity: 0.7; stroke: #482475; stroke-width: 1.25"/>
    </g>
   </g>
   <g id="line2d_9">
    <path d="M 7.2 131.94 
L 216.45 131.94 
" style="fill: none; stroke: #482475; stroke-opacity: 0.9; stroke-linecap: round"/>
   </g>
   <g id="text_13">
    <!-- 8 -->
    <g style="fill: #482475" transform="translate(7.2 131.09325) scale(0.12 -0.12)">
     <defs>
      <path id="DejaVuSans-Bold-38" d="M 2228 2088 
Q 1891 2088 1709 1903 
Q 1528 1719 1528 1375 
Q 1528 1031 1709 848 
Q 1891 666 2228 666 
Q 2563 666 2741 848 
Q 2919 1031 2919 1375 
Q 2919 1722 2741 1905 
Q 2563 2088 2228 2088 
z
M 1350 2484 
Q 925 2613 709 2878 
Q 494 3144 494 3541 
Q 494 4131 934 4440 
Q 1375 4750 2228 4750 
Q 3075 4750 3515 4442 
Q 3956 4134 3956 3541 
Q 3956 3144 3739 2878 
Q 3522 2613 3097 2484 
Q 3572 2353 3814 2058 
Q 4056 1763 4056 1313 
Q 4056 619 3595 264 
Q 3134 -91 2228 -91 
Q 1319 -91 855 264 
Q 391 619 391 1313 
Q 391 1763 633 2058 
Q 875 2353 1350 2484 
z
M 1631 3419 
Q 1631 3141 1786 2991 
Q 1941 2841 2228 2841 
Q 2509 2841 2662 2991 
Q 2816 3141 2816 3419 
Q 2816 3697 2662 3845 
Q 2509 3994 2228 3994 
Q 1941 3994 1786 3844 
Q 1631 3694 1631 3419 
z
" transform="scale(0.015625)"/>
     </defs>
     <use xlink:href="#DejaVuSans-Bold-38"/>
    </g>
   </g>
  </g>
 </g>
</svg>
