<?xml version="1.0" encoding="utf-8" standalone="no"?>
<!DOCTYPE svg PUBLIC "-//W3C//DTD SVG 1.1//EN"
  "http://www.w3.org/Graphics/SVG/1.1/DTD/svg11.dtd">
<svg xmlns:xlink="http://www.w3.org/1999/xlink" width="1141.85043pt" height="338.137pt" viewBox="0 0 1141.85043 338.137" xmlns="http://www.w3.org/2000/svg" version="1.1">
 <metadata>
  <rdf:RDF xmlns:dc="http://purl.org/dc/elements/1.1/" xmlns:cc="http://creativecommons.org/ns#" xmlns:rdf="http://www.w3.org/1999/02/22-rdf-syntax-ns#">
   <cc:Work>
    <dc:type rdf:resource="http://purl.org/dc/dcmitype/StillImage"/>
    <dc:date>2023-12-05T12:36:10.678201</dc:date>
    <dc:format>image/svg+xml</dc:format>
    <dc:creator>
     <cc:Agent>
      <dc:title>Matplotlib v3.8.2, https://matplotlib.org/</dc:title>
     </cc:Agent>
    </dc:creator>
   </cc:Work>
  </rdf:RDF>
 </metadata>
 <defs>
  <style type="text/css">*{stroke-linejoin: round; stroke-linecap: butt}</style>
 </defs>
 <g id="figure_1">
  <g id="patch_1">
   <path d="M 0 338.137 
L 1141.85043 338.137 
L 1141.85043 0 
L 0 0 
L 0 338.137 
z
" style="fill: none"/>
  </g>
  <g id="axes_1">
   <g id="patch_2">
    <path d="M 63.29043 290.412 
L 550.272248 290.412 
L 550.272248 24.3 
L 63.29043 24.3 
L 63.29043 290.412 
z
" style="fill: none"/>
   </g>
   <g id="matplotlib.axis_1">
    <g id="xtick_1">
     <g id="line2d_1">
      <path d="M 85.425967 290.412 
L 85.425967 24.3 
" clip-path="url(#pba5b6cec64)" style="fill: none; stroke-dasharray: 3.7,1.6; stroke-dashoffset: 0; stroke: #838383; stroke-opacity: 0.2"/>
     </g>
     <g id="text_1">
      <!-- 0 -->
      <g style="fill: #838383" transform="translate(81.300967 310.087) scale(0.1375 -0.1375)">
       <defs>
        <path id="IBMPlexSans-Regular-30" d="M 1920 -77 
Q 1120 -77 752 531 
Q 384 1139 384 2234 
Q 384 3328 752 3936 
Q 1120 4544 1920 4544 
Q 2720 4544 3088 3936 
Q 3456 3328 3456 2234 
Q 3456 1139 3088 531 
Q 2720 -77 1920 -77 
z
M 1920 390 
Q 2182 390 2368 499 
Q 2554 608 2669 806 
Q 2784 1005 2838 1273 
Q 2893 1542 2893 1869 
L 2893 2598 
Q 2893 2925 2838 3193 
Q 2784 3462 2669 3660 
Q 2554 3859 2368 3968 
Q 2182 4077 1920 4077 
Q 1658 4077 1472 3968 
Q 1286 3859 1171 3660 
Q 1056 3462 1001 3193 
Q 947 2925 947 2598 
L 947 1869 
Q 947 1542 1001 1273 
Q 1056 1005 1171 806 
Q 1286 608 1472 499 
Q 1658 390 1920 390 
z
" transform="scale(0.015625)"/>
       </defs>
       <use xlink:href="#IBMPlexSans-Regular-30"/>
      </g>
     </g>
    </g>
    <g id="xtick_2">
     <g id="line2d_2">
      <path d="M 141.042894 290.412 
L 141.042894 24.3 
" clip-path="url(#pba5b6cec64)" style="fill: none; stroke-dasharray: 3.7,1.6; stroke-dashoffset: 0; stroke: #838383; stroke-opacity: 0.2"/>
     </g>
     <g id="text_2">
      <!-- 25 -->
      <g style="fill: #838383" transform="translate(132.792894 310.087) scale(0.1375 -0.1375)">
       <defs>
        <path id="IBMPlexSans-Regular-32" d="M 3411 0 
L 480 0 
L 480 550 
L 1939 1894 
Q 2253 2182 2464 2505 
Q 2675 2829 2675 3155 
L 2675 3232 
Q 2675 3603 2470 3833 
Q 2266 4064 1850 4064 
Q 1645 4064 1491 4006 
Q 1338 3949 1226 3846 
Q 1114 3744 1040 3606 
Q 966 3469 922 3309 
L 442 3494 
Q 506 3693 618 3881 
Q 730 4070 899 4217 
Q 1069 4365 1309 4454 
Q 1549 4544 1875 4544 
Q 2202 4544 2458 4448 
Q 2714 4352 2886 4179 
Q 3059 4006 3152 3769 
Q 3245 3533 3245 3245 
Q 3245 2982 3171 2758 
Q 3098 2534 2970 2332 
Q 2842 2131 2659 1939 
Q 2477 1747 2266 1555 
L 1062 474 
L 3411 474 
L 3411 0 
z
" transform="scale(0.015625)"/>
        <path id="IBMPlexSans-Regular-35" d="M 3187 3994 
L 1229 3994 
L 1101 2291 
L 1146 2291 
Q 1306 2515 1507 2649 
Q 1709 2784 2061 2784 
Q 2349 2784 2592 2688 
Q 2835 2592 3014 2416 
Q 3194 2240 3293 1984 
Q 3392 1728 3392 1402 
Q 3392 1075 3289 803 
Q 3187 531 2992 336 
Q 2797 141 2518 32 
Q 2240 -77 1888 -77 
Q 1606 -77 1392 -13 
Q 1178 51 1011 160 
Q 845 269 720 403 
Q 595 538 493 685 
L 896 992 
Q 979 858 1072 749 
Q 1165 640 1277 563 
Q 1389 486 1536 444 
Q 1683 403 1888 403 
Q 2349 403 2585 646 
Q 2822 890 2822 1331 
L 2822 1395 
Q 2822 1837 2585 2080 
Q 2349 2323 1888 2323 
Q 1581 2323 1405 2211 
Q 1229 2099 1088 1946 
L 634 2010 
L 794 4467 
L 3187 4467 
L 3187 3994 
z
" transform="scale(0.015625)"/>
       </defs>
       <use xlink:href="#IBMPlexSans-Regular-32"/>
       <use xlink:href="#IBMPlexSans-Regular-35" x="59.999985"/>
      </g>
     </g>
    </g>
    <g id="xtick_3">
     <g id="line2d_3">
      <path d="M 196.659822 290.412 
L 196.659822 24.3 
" clip-path="url(#pba5b6cec64)" style="fill: none; stroke-dasharray: 3.7,1.6; stroke-dashoffset: 0; stroke: #838383; stroke-opacity: 0.2"/>
     </g>
     <g id="text_3">
      <!-- 50 -->
      <g style="fill: #838383" transform="translate(188.409822 310.087) scale(0.1375 -0.1375)">
       <use xlink:href="#IBMPlexSans-Regular-35"/>
       <use xlink:href="#IBMPlexSans-Regular-30" x="59.999985"/>
      </g>
     </g>
    </g>
    <g id="xtick_4">
     <g id="line2d_4">
      <path d="M 252.27675 290.412 
L 252.27675 24.3 
" clip-path="url(#pba5b6cec64)" style="fill: none; stroke-dasharray: 3.7,1.6; stroke-dashoffset: 0; stroke: #838383; stroke-opacity: 0.2"/>
     </g>
     <g id="text_4">
      <!-- 75 -->
      <g style="fill: #838383" transform="translate(244.02675 310.087) scale(0.1375 -0.1375)">
       <defs>
        <path id="IBMPlexSans-Regular-37" d="M 1120 0 
L 2829 4006 
L 922 4006 
L 922 3174 
L 442 3174 
L 442 4467 
L 3373 4467 
L 3373 3994 
L 1696 0 
L 1120 0 
z
" transform="scale(0.015625)"/>
       </defs>
       <use xlink:href="#IBMPlexSans-Regular-37"/>
       <use xlink:href="#IBMPlexSans-Regular-35" x="59.999985"/>
      </g>
     </g>
    </g>
    <g id="xtick_5">
     <g id="line2d_5">
      <path d="M 307.893677 290.412 
L 307.893677 24.3 
" clip-path="url(#pba5b6cec64)" style="fill: none; stroke-dasharray: 3.7,1.6; stroke-dashoffset: 0; stroke: #838383; stroke-opacity: 0.2"/>
     </g>
     <g id="text_5">
      <!-- 100 -->
      <g style="fill: #838383" transform="translate(295.518677 310.087) scale(0.1375 -0.1375)">
       <defs>
        <path id="IBMPlexSans-Regular-31" d="M 563 0 
L 563 474 
L 1811 474 
L 1811 4070 
L 1766 4070 
L 640 3021 
L 326 3360 
L 1510 4467 
L 2349 4467 
L 2349 474 
L 3501 474 
L 3501 0 
L 563 0 
z
" transform="scale(0.015625)"/>
       </defs>
       <use xlink:href="#IBMPlexSans-Regular-31"/>
       <use xlink:href="#IBMPlexSans-Regular-30" x="59.999985"/>
       <use xlink:href="#IBMPlexSans-Regular-30" x="119.999969"/>
      </g>
     </g>
    </g>
    <g id="xtick_6">
     <g id="line2d_6">
      <path d="M 363.510605 290.412 
L 363.510605 24.3 
" clip-path="url(#pba5b6cec64)" style="fill: none; stroke-dasharray: 3.7,1.6; stroke-dashoffset: 0; stroke: #838383; stroke-opacity: 0.2"/>
     </g>
     <g id="text_6">
      <!-- 125 -->
      <g style="fill: #838383" transform="translate(351.135605 310.087) scale(0.1375 -0.1375)">
       <use xlink:href="#IBMPlexSans-Regular-31"/>
       <use xlink:href="#IBMPlexSans-Regular-32" x="59.999985"/>
       <use xlink:href="#IBMPlexSans-Regular-35" x="119.999969"/>
      </g>
     </g>
    </g>
    <g id="xtick_7">
     <g id="line2d_7">
      <path d="M 419.127533 290.412 
L 419.127533 24.3 
" clip-path="url(#pba5b6cec64)" style="fill: none; stroke-dasharray: 3.7,1.6; stroke-dashoffset: 0; stroke: #838383; stroke-opacity: 0.2"/>
     </g>
     <g id="text_7">
      <!-- 150 -->
      <g style="fill: #838383" transform="translate(406.752533 310.087) scale(0.1375 -0.1375)">
       <use xlink:href="#IBMPlexSans-Regular-31"/>
       <use xlink:href="#IBMPlexSans-Regular-35" x="59.999985"/>
       <use xlink:href="#IBMPlexSans-Regular-30" x="119.999969"/>
      </g>
     </g>
    </g>
    <g id="xtick_8">
     <g id="line2d_8">
      <path d="M 474.74446 290.412 
L 474.74446 24.3 
" clip-path="url(#pba5b6cec64)" style="fill: none; stroke-dasharray: 3.7,1.6; stroke-dashoffset: 0; stroke: #838383; stroke-opacity: 0.2"/>
     </g>
     <g id="text_8">
      <!-- 175 -->
      <g style="fill: #838383" transform="translate(462.36946 310.087) scale(0.1375 -0.1375)">
       <use xlink:href="#IBMPlexSans-Regular-31"/>
       <use xlink:href="#IBMPlexSans-Regular-37" x="59.999985"/>
       <use xlink:href="#IBMPlexSans-Regular-35" x="119.999969"/>
      </g>
     </g>
    </g>
    <g id="xtick_9">
     <g id="line2d_9">
      <path d="M 530.361388 290.412 
L 530.361388 24.3 
" clip-path="url(#pba5b6cec64)" style="fill: none; stroke-dasharray: 3.7,1.6; stroke-dashoffset: 0; stroke: #838383; stroke-opacity: 0.2"/>
     </g>
     <g id="text_9">
      <!-- 200 -->
      <g style="fill: #838383" transform="translate(517.986388 310.087) scale(0.1375 -0.1375)">
       <use xlink:href="#IBMPlexSans-Regular-32"/>
       <use xlink:href="#IBMPlexSans-Regular-30" x="59.999985"/>
       <use xlink:href="#IBMPlexSans-Regular-30" x="119.999969"/>
      </g>
     </g>
    </g>
    <g id="text_10">
     <!-- MD Step -->
     <g style="fill: #838383" transform="translate(278.432511 327.937) scale(0.15 -0.15)">
      <defs>
       <path id="IBMPlexSans-Regular-4d" d="M 4077 3763 
L 4045 3763 
L 3667 3014 
L 2598 1069 
L 1530 3014 
L 1152 3763 
L 1120 3763 
L 1120 0 
L 595 0 
L 595 4467 
L 1312 4467 
L 2592 2061 
L 2624 2061 
L 3910 4467 
L 4602 4467 
L 4602 0 
L 4077 0 
L 4077 3763 
z
" transform="scale(0.015625)"/>
       <path id="IBMPlexSans-Regular-44" d="M 595 4467 
L 2093 4467 
Q 2509 4467 2848 4326 
Q 3187 4186 3427 3907 
Q 3667 3629 3795 3209 
Q 3923 2790 3923 2234 
Q 3923 1677 3795 1257 
Q 3667 838 3427 560 
Q 3187 282 2848 141 
Q 2509 0 2093 0 
L 595 0 
L 595 4467 
z
M 2093 474 
Q 2368 474 2598 566 
Q 2829 659 2995 838 
Q 3162 1018 3254 1277 
Q 3347 1536 3347 1869 
L 3347 2598 
Q 3347 2931 3254 3190 
Q 3162 3450 2995 3629 
Q 2829 3808 2598 3901 
Q 2368 3994 2093 3994 
L 1133 3994 
L 1133 474 
L 2093 474 
z
" transform="scale(0.015625)"/>
       <path id="IBMPlexSans-Regular-20" transform="scale(0.015625)"/>
       <path id="IBMPlexSans-Regular-53" d="M 1850 -77 
Q 1306 -77 922 131 
Q 538 339 269 704 
L 666 1037 
Q 902 723 1190 560 
Q 1478 397 1869 397 
Q 2349 397 2601 627 
Q 2854 858 2854 1242 
Q 2854 1562 2662 1734 
Q 2470 1907 2029 2010 
L 1664 2093 
Q 1050 2234 726 2518 
Q 403 2803 403 3322 
Q 403 3616 512 3846 
Q 621 4077 816 4230 
Q 1011 4384 1283 4464 
Q 1555 4544 1882 4544 
Q 2387 4544 2748 4358 
Q 3110 4173 3360 3814 
L 2957 3520 
Q 2771 3776 2508 3923 
Q 2246 4070 1856 4070 
Q 1427 4070 1180 3888 
Q 934 3706 934 3341 
Q 934 3021 1142 2857 
Q 1350 2694 1773 2598 
L 2138 2515 
Q 2797 2368 3091 2067 
Q 3386 1766 3386 1267 
Q 3386 960 3280 710 
Q 3174 461 2976 288 
Q 2778 115 2493 19 
Q 2208 -77 1850 -77 
z
" transform="scale(0.015625)"/>
       <path id="IBMPlexSans-Regular-74" d="M 1274 0 
Q 1005 0 867 150 
Q 730 301 730 544 
L 730 2854 
L 186 2854 
L 186 3302 
L 493 3302 
Q 659 3302 720 3369 
Q 781 3437 781 3603 
L 781 4218 
L 1242 4218 
L 1242 3302 
L 1965 3302 
L 1965 2854 
L 1242 2854 
L 1242 448 
L 1914 448 
L 1914 0 
L 1274 0 
z
" transform="scale(0.015625)"/>
       <path id="IBMPlexSans-Regular-65" d="M 1786 -77 
Q 1446 -77 1174 44 
Q 902 166 707 393 
Q 512 621 406 937 
Q 301 1254 301 1651 
Q 301 2042 406 2362 
Q 512 2682 707 2909 
Q 902 3136 1174 3257 
Q 1446 3379 1786 3379 
Q 2118 3379 2380 3257 
Q 2643 3136 2828 2921 
Q 3014 2707 3113 2412 
Q 3213 2118 3213 1766 
L 3213 1523 
L 838 1523 
L 838 1370 
Q 838 1158 905 976 
Q 973 794 1097 659 
Q 1222 525 1404 448 
Q 1587 371 1818 371 
Q 2131 371 2364 518 
Q 2598 666 2726 941 
L 3091 678 
Q 2931 339 2592 131 
Q 2253 -77 1786 -77 
z
M 1786 2950 
Q 1574 2950 1401 2876 
Q 1229 2803 1104 2668 
Q 979 2534 908 2352 
Q 838 2170 838 1952 
L 838 1907 
L 2662 1907 
L 2662 1978 
Q 2662 2419 2422 2684 
Q 2182 2950 1786 2950 
z
" transform="scale(0.015625)"/>
       <path id="IBMPlexSans-Regular-70" d="M 544 3302 
L 1056 3302 
L 1056 2765 
L 1082 2765 
Q 1210 3078 1456 3228 
Q 1702 3379 2048 3379 
Q 2355 3379 2604 3257 
Q 2854 3136 3030 2912 
Q 3206 2688 3299 2368 
Q 3392 2048 3392 1651 
Q 3392 1254 3299 934 
Q 3206 614 3030 390 
Q 2854 166 2604 44 
Q 2355 -77 2048 -77 
Q 1376 -77 1082 538 
L 1056 538 
L 1056 -1280 
L 544 -1280 
L 544 3302 
z
M 1907 384 
Q 2342 384 2592 656 
Q 2842 928 2842 1370 
L 2842 1933 
Q 2842 2374 2592 2646 
Q 2342 2918 1907 2918 
Q 1734 2918 1577 2870 
Q 1421 2822 1305 2739 
Q 1190 2656 1123 2537 
Q 1056 2419 1056 2285 
L 1056 1056 
Q 1056 896 1123 771 
Q 1190 646 1305 560 
Q 1421 474 1577 429 
Q 1734 384 1907 384 
z
" transform="scale(0.015625)"/>
      </defs>
      <use xlink:href="#IBMPlexSans-Regular-4d"/>
      <use xlink:href="#IBMPlexSans-Regular-44" x="81.199982"/>
      <use xlink:href="#IBMPlexSans-Regular-20" x="148.299973"/>
      <use xlink:href="#IBMPlexSans-Regular-53" x="171.899963"/>
      <use xlink:href="#IBMPlexSans-Regular-74" x="229.999954"/>
      <use xlink:href="#IBMPlexSans-Regular-65" x="265.099945"/>
      <use xlink:href="#IBMPlexSans-Regular-70" x="319.999939"/>
     </g>
    </g>
   </g>
   <g id="matplotlib.axis_2">
    <g id="ytick_1">
     <g id="line2d_10">
      <path d="M 63.29043 256.970119 
L 550.272248 256.970119 
" clip-path="url(#pba5b6cec64)" style="fill: none; stroke-dasharray: 3.7,1.6; stroke-dashoffset: 0; stroke: #838383; stroke-opacity: 0.2"/>
     </g>
     <g id="text_11">
      <!-- −7.5 -->
      <g style="fill: #838383" transform="translate(25.3 262.057619) scale(0.1375 -0.1375)">
       <defs>
        <path id="IBMPlexSans-Regular-2212" d="M 429 1734 
L 429 2170 
L 3411 2170 
L 3411 1734 
L 429 1734 
z
" transform="scale(0.015625)"/>
        <path id="IBMPlexSans-Regular-2e" d="M 870 -77 
Q 666 -77 573 25 
Q 480 128 480 294 
L 480 378 
Q 480 544 573 646 
Q 666 749 870 749 
Q 1075 749 1168 646 
Q 1261 544 1261 378 
L 1261 294 
Q 1261 128 1168 25 
Q 1075 -77 870 -77 
z
" transform="scale(0.015625)"/>
       </defs>
       <use xlink:href="#IBMPlexSans-Regular-2212"/>
       <use xlink:href="#IBMPlexSans-Regular-37" x="59.999985"/>
       <use xlink:href="#IBMPlexSans-Regular-2e" x="119.999969"/>
       <use xlink:href="#IBMPlexSans-Regular-35" x="147.199966"/>
      </g>
     </g>
    </g>
    <g id="ytick_2">
     <g id="line2d_11">
      <path d="M 63.29043 221.39365 
L 550.272248 221.39365 
" clip-path="url(#pba5b6cec64)" style="fill: none; stroke-dasharray: 3.7,1.6; stroke-dashoffset: 0; stroke: #838383; stroke-opacity: 0.2"/>
     </g>
     <g id="text_12">
      <!-- −5.0 -->
      <g style="fill: #838383" transform="translate(25.3 226.48115) scale(0.1375 -0.1375)">
       <use xlink:href="#IBMPlexSans-Regular-2212"/>
       <use xlink:href="#IBMPlexSans-Regular-35" x="59.999985"/>
       <use xlink:href="#IBMPlexSans-Regular-2e" x="119.999969"/>
       <use xlink:href="#IBMPlexSans-Regular-30" x="147.199966"/>
      </g>
     </g>
    </g>
    <g id="ytick_3">
     <g id="line2d_12">
      <path d="M 63.29043 185.817182 
L 550.272248 185.817182 
" clip-path="url(#pba5b6cec64)" style="fill: none; stroke-dasharray: 3.7,1.6; stroke-dashoffset: 0; stroke: #838383; stroke-opacity: 0.2"/>
     </g>
     <g id="text_13">
      <!-- −2.5 -->
      <g style="fill: #838383" transform="translate(25.3 190.904682) scale(0.1375 -0.1375)">
       <use xlink:href="#IBMPlexSans-Regular-2212"/>
       <use xlink:href="#IBMPlexSans-Regular-32" x="59.999985"/>
       <use xlink:href="#IBMPlexSans-Regular-2e" x="119.999969"/>
       <use xlink:href="#IBMPlexSans-Regular-35" x="147.199966"/>
      </g>
     </g>
    </g>
    <g id="ytick_4">
     <g id="line2d_13">
      <path d="M 63.29043 150.240713 
L 550.272248 150.240713 
" clip-path="url(#pba5b6cec64)" style="fill: none; stroke-dasharray: 3.7,1.6; stroke-dashoffset: 0; stroke: #838383; stroke-opacity: 0.2"/>
     </g>
     <g id="text_14">
      <!-- 0.0 -->
      <g style="fill: #838383" transform="translate(33.55 155.328213) scale(0.1375 -0.1375)">
       <use xlink:href="#IBMPlexSans-Regular-30"/>
       <use xlink:href="#IBMPlexSans-Regular-2e" x="59.999985"/>
       <use xlink:href="#IBMPlexSans-Regular-30" x="87.199982"/>
      </g>
     </g>
    </g>
    <g id="ytick_5">
     <g id="line2d_14">
      <path d="M 63.29043 114.664244 
L 550.272248 114.664244 
" clip-path="url(#pba5b6cec64)" style="fill: none; stroke-dasharray: 3.7,1.6; stroke-dashoffset: 0; stroke: #838383; stroke-opacity: 0.2"/>
     </g>
     <g id="text_15">
      <!-- 2.5 -->
      <g style="fill: #838383" transform="translate(33.55 119.751744) scale(0.1375 -0.1375)">
       <use xlink:href="#IBMPlexSans-Regular-32"/>
       <use xlink:href="#IBMPlexSans-Regular-2e" x="59.999985"/>
       <use xlink:href="#IBMPlexSans-Regular-35" x="87.199982"/>
      </g>
     </g>
    </g>
    <g id="ytick_6">
     <g id="line2d_15">
      <path d="M 63.29043 79.087776 
L 550.272248 79.087776 
" clip-path="url(#pba5b6cec64)" style="fill: none; stroke-dasharray: 3.7,1.6; stroke-dashoffset: 0; stroke: #838383; stroke-opacity: 0.2"/>
     </g>
     <g id="text_16">
      <!-- 5.0 -->
      <g style="fill: #838383" transform="translate(33.55 84.175276) scale(0.1375 -0.1375)">
       <use xlink:href="#IBMPlexSans-Regular-35"/>
       <use xlink:href="#IBMPlexSans-Regular-2e" x="59.999985"/>
       <use xlink:href="#IBMPlexSans-Regular-30" x="87.199982"/>
      </g>
     </g>
    </g>
    <g id="ytick_7">
     <g id="line2d_16">
      <path d="M 63.29043 43.511307 
L 550.272248 43.511307 
" clip-path="url(#pba5b6cec64)" style="fill: none; stroke-dasharray: 3.7,1.6; stroke-dashoffset: 0; stroke: #838383; stroke-opacity: 0.2"/>
     </g>
     <g id="text_17">
      <!-- 7.5 -->
      <g style="fill: #838383" transform="translate(33.55 48.598807) scale(0.1375 -0.1375)">
       <use xlink:href="#IBMPlexSans-Regular-37"/>
       <use xlink:href="#IBMPlexSans-Regular-2e" x="59.999985"/>
       <use xlink:href="#IBMPlexSans-Regular-35" x="87.199982"/>
      </g>
     </g>
    </g>
    <g id="text_18">
     <!-- dQint -->
     <g style="fill: #838383" transform="translate(18.3 175.782562) rotate(-90) scale(0.15 -0.15)">
      <defs>
       <path id="IBMPlexSans-Regular-64" d="M 2656 538 
L 2630 538 
Q 2330 -77 1664 -77 
Q 1357 -77 1107 44 
Q 858 166 682 390 
Q 506 614 413 934 
Q 320 1254 320 1651 
Q 320 2048 413 2368 
Q 506 2688 682 2912 
Q 858 3136 1107 3257 
Q 1357 3379 1664 3379 
Q 2010 3379 2256 3228 
Q 2502 3078 2630 2765 
L 2656 2765 
L 2656 4736 
L 3168 4736 
L 3168 0 
L 2656 0 
L 2656 538 
z
M 1805 384 
Q 1978 384 2134 429 
Q 2291 474 2406 560 
Q 2522 646 2589 771 
Q 2656 896 2656 1056 
L 2656 2285 
Q 2656 2419 2589 2537 
Q 2522 2656 2406 2739 
Q 2291 2822 2134 2870 
Q 1978 2918 1805 2918 
Q 1370 2918 1120 2646 
Q 870 2374 870 1933 
L 870 1370 
Q 870 928 1120 656 
Q 1370 384 1805 384 
z
" transform="scale(0.015625)"/>
       <path id="IBMPlexSans-Regular-51" d="M 3251 -1050 
L 2592 -1050 
Q 2323 -1050 2188 -899 
Q 2054 -749 2054 -525 
L 2054 -70 
Q 1670 -32 1356 134 
Q 1043 301 825 592 
Q 608 883 489 1296 
Q 371 1709 371 2234 
Q 371 2797 505 3225 
Q 640 3654 886 3948 
Q 1133 4243 1481 4393 
Q 1830 4544 2266 4544 
Q 2694 4544 3046 4393 
Q 3398 4243 3644 3948 
Q 3891 3654 4025 3225 
Q 4160 2797 4160 2234 
Q 4160 1203 3731 624 
Q 3302 45 2566 -58 
L 2566 -602 
L 3251 -602 
L 3251 -1050 
z
M 2266 403 
Q 2554 403 2797 505 
Q 3040 608 3216 800 
Q 3392 992 3488 1261 
Q 3584 1530 3584 1862 
L 3584 2605 
Q 3584 2938 3488 3206 
Q 3392 3475 3216 3667 
Q 3040 3859 2797 3961 
Q 2554 4064 2266 4064 
Q 1978 4064 1734 3961 
Q 1491 3859 1315 3667 
Q 1139 3475 1043 3206 
Q 947 2938 947 2605 
L 947 1862 
Q 947 1530 1043 1261 
Q 1139 992 1315 800 
Q 1491 608 1734 505 
Q 1978 403 2266 403 
z
" transform="scale(0.015625)"/>
       <path id="IBMPlexSans-Regular-69" d="M 800 4077 
Q 634 4077 560 4157 
Q 486 4237 486 4365 
L 486 4448 
Q 486 4576 560 4656 
Q 634 4736 800 4736 
Q 966 4736 1040 4656 
Q 1114 4576 1114 4448 
L 1114 4365 
Q 1114 4237 1040 4157 
Q 966 4077 800 4077 
z
M 544 3302 
L 1056 3302 
L 1056 0 
L 544 0 
L 544 3302 
z
" transform="scale(0.015625)"/>
       <path id="IBMPlexSans-Regular-6e" d="M 544 0 
L 544 3302 
L 1056 3302 
L 1056 2765 
L 1082 2765 
Q 1203 3046 1424 3212 
Q 1645 3379 2016 3379 
Q 2528 3379 2825 3049 
Q 3123 2720 3123 2118 
L 3123 0 
L 2611 0 
L 2611 2029 
Q 2611 2918 1862 2918 
Q 1709 2918 1565 2880 
Q 1421 2842 1305 2765 
Q 1190 2688 1123 2569 
Q 1056 2451 1056 2291 
L 1056 0 
L 544 0 
z
" transform="scale(0.015625)"/>
      </defs>
      <use xlink:href="#IBMPlexSans-Regular-64"/>
      <use xlink:href="#IBMPlexSans-Regular-51" x="57.999985"/>
      <use xlink:href="#IBMPlexSans-Regular-69" x="128.799973"/>
      <use xlink:href="#IBMPlexSans-Regular-6e" x="153.799957"/>
      <use xlink:href="#IBMPlexSans-Regular-74" x="210.599945"/>
     </g>
    </g>
   </g>
   <g id="line2d_17">
    <path d="M 85.425967 79.087776 
L 87.650644 79.087789 
L 89.875321 107.548958 
L 92.099998 93.318367 
L 94.324675 107.548954 
L 105.448061 107.548954 
L 107.672738 121.779538 
L 109.897415 107.548937 
L 112.122092 107.548951 
L 114.346769 121.779528 
L 116.571446 121.779525 
L 118.796123 93.318357 
L 121.020801 93.31837 
L 123.245478 79.087769 
L 125.470155 79.087776 
L 127.694832 64.857182 
L 129.919509 64.857188 
L 132.144186 79.087776 
L 134.368863 79.087783 
L 138.818217 50.626601 
L 141.042894 64.857182 
L 143.267572 64.857188 
L 147.716926 93.31835 
L 152.16628 93.318357 
L 154.390957 79.087776 
L 161.064988 79.087776 
L 163.289666 64.857182 
L 169.963697 64.857188 
L 174.413051 93.318357 
L 176.637728 93.318357 
L 178.862405 107.548944 
L 183.311759 107.548954 
L 185.536437 79.087769 
L 187.761114 64.857188 
L 192.210468 64.857188 
L 194.435145 79.087769 
L 201.109176 79.087776 
L 203.333853 93.318363 
L 205.558531 79.087776 
L 207.783208 79.087769 
L 210.007885 50.626608 
L 212.232562 64.857195 
L 214.457239 50.626601 
L 218.906593 50.626601 
L 221.13127 64.857182 
L 223.355947 64.857195 
L 225.580624 50.626594 
L 227.805302 64.857195 
L 234.479333 64.857175 
L 236.70401 79.087776 
L 238.928687 50.626601 
L 245.602718 50.626594 
L 247.827396 79.087762 
L 265.624812 79.087769 
L 267.849489 93.318363 
L 274.523521 93.318367 
L 276.748198 64.857188 
L 278.972875 64.857195 
L 281.197552 50.626594 
L 287.871583 50.626601 
L 290.09626 79.087776 
L 292.320938 50.626601 
L 296.770292 50.626601 
L 298.994969 36.396 
L 303.444323 64.857188 
L 305.669 64.857188 
L 307.893677 50.626601 
L 316.792386 50.626608 
L 321.24174 79.087769 
L 343.488511 79.087783 
L 345.713188 64.857188 
L 347.937865 64.857188 
L 350.162542 79.087783 
L 352.387219 64.857188 
L 359.061251 64.857188 
L 361.285928 79.087776 
L 363.510605 79.087769 
L 365.735282 64.857188 
L 367.959959 64.857188 
L 370.184636 79.087776 
L 372.409313 79.087783 
L 374.63399 64.857195 
L 376.858668 79.087769 
L 383.532699 36.396014 
L 385.757376 36.396014 
L 387.982053 50.626587 
L 390.20673 50.626594 
L 392.431407 64.857182 
L 394.656084 64.857195 
L 396.880762 79.087776 
L 399.105439 79.087776 
L 401.330116 50.626601 
L 405.77947 50.626594 
L 408.004147 79.087762 
L 419.127533 79.087769 
L 421.35221 93.318357 
L 425.801564 93.318357 
L 430.250918 64.857182 
L 432.475595 64.857188 
L 436.924949 93.31835 
L 465.845752 93.318363 
L 468.070429 64.857195 
L 470.295106 79.087776 
L 474.74446 79.087769 
L 476.969137 107.548944 
L 481.418491 79.087776 
L 483.643169 79.087776 
L 485.867846 64.857188 
L 488.092523 64.857175 
L 490.3172 79.087776 
L 494.766554 79.087776 
L 496.991231 50.626594 
L 503.665263 50.626594 
L 505.88994 64.857188 
L 510.339294 64.857175 
L 512.563971 79.087769 
L 514.788648 79.087776 
L 517.013325 93.318363 
L 519.238002 93.318357 
L 521.462679 107.548951 
L 525.912034 107.548944 
L 528.136711 93.318363 
L 528.136711 93.318363 
" clip-path="url(#pba5b6cec64)" style="fill: none; stroke-dasharray: 1.5,2.475; stroke-dashoffset: 0; stroke: #ef5350; stroke-width: 1.5"/>
   </g>
   <g id="text_19">
    <!-- PyTorch -->
    <g style="fill: #838383" transform="translate(279.218839 18.3) scale(0.15 -0.15)">
     <defs>
      <path id="IBMPlexSans-Regular-50" d="M 595 0 
L 595 4467 
L 2374 4467 
Q 2976 4467 3299 4124 
Q 3622 3782 3622 3187 
Q 3622 2592 3299 2249 
Q 2976 1907 2374 1907 
L 1133 1907 
L 1133 0 
L 595 0 
z
M 1133 2381 
L 2374 2381 
Q 2694 2381 2870 2547 
Q 3046 2714 3046 3021 
L 3046 3354 
Q 3046 3661 2870 3827 
Q 2694 3994 2374 3994 
L 1133 3994 
L 1133 2381 
z
" transform="scale(0.015625)"/>
      <path id="IBMPlexSans-Regular-79" d="M 2579 3302 
L 3085 3302 
L 1606 -768 
Q 1549 -915 1491 -1014 
Q 1434 -1114 1350 -1171 
Q 1267 -1229 1142 -1254 
Q 1018 -1280 838 -1280 
L 576 -1280 
L 576 -832 
L 1094 -832 
L 1344 -128 
L 109 3302 
L 621 3302 
L 1414 1056 
L 1568 518 
L 1600 518 
L 1779 1056 
L 2579 3302 
z
" transform="scale(0.015625)"/>
      <path id="IBMPlexSans-Regular-54" d="M 2099 3994 
L 2099 0 
L 1562 0 
L 1562 3994 
L 141 3994 
L 141 4467 
L 3520 4467 
L 3520 3994 
L 2099 3994 
z
" transform="scale(0.015625)"/>
      <path id="IBMPlexSans-Regular-6f" d="M 1792 -77 
Q 1459 -77 1184 44 
Q 909 166 713 393 
Q 518 621 409 937 
Q 301 1254 301 1651 
Q 301 2042 409 2362 
Q 518 2682 713 2909 
Q 909 3136 1184 3257 
Q 1459 3379 1792 3379 
Q 2125 3379 2397 3257 
Q 2669 3136 2867 2909 
Q 3066 2682 3174 2362 
Q 3283 2042 3283 1651 
Q 3283 1254 3174 937 
Q 3066 621 2867 393 
Q 2669 166 2397 44 
Q 2125 -77 1792 -77 
z
M 1792 378 
Q 2208 378 2470 634 
Q 2733 890 2733 1414 
L 2733 1888 
Q 2733 2413 2470 2669 
Q 2208 2925 1792 2925 
Q 1376 2925 1113 2669 
Q 851 2413 851 1888 
L 851 1414 
Q 851 890 1113 634 
Q 1376 378 1792 378 
z
" transform="scale(0.015625)"/>
      <path id="IBMPlexSans-Regular-72" d="M 544 0 
L 544 3302 
L 1056 3302 
L 1056 2694 
L 1088 2694 
Q 1178 2931 1408 3116 
Q 1638 3302 2042 3302 
L 2240 3302 
L 2240 2790 
L 1939 2790 
Q 1523 2790 1289 2633 
Q 1056 2477 1056 2240 
L 1056 0 
L 544 0 
z
" transform="scale(0.015625)"/>
      <path id="IBMPlexSans-Regular-63" d="M 1773 -77 
Q 1427 -77 1152 44 
Q 877 166 688 390 
Q 499 614 400 934 
Q 301 1254 301 1651 
Q 301 2048 400 2368 
Q 499 2688 688 2912 
Q 877 3136 1152 3257 
Q 1427 3379 1773 3379 
Q 2266 3379 2563 3164 
Q 2861 2950 3008 2605 
L 2579 2387 
Q 2490 2643 2285 2784 
Q 2080 2925 1773 2925 
Q 1542 2925 1369 2851 
Q 1197 2778 1081 2646 
Q 966 2515 908 2332 
Q 851 2150 851 1933 
L 851 1370 
Q 851 934 1084 656 
Q 1318 378 1773 378 
Q 2394 378 2669 954 
L 3040 704 
Q 2880 346 2563 134 
Q 2246 -77 1773 -77 
z
" transform="scale(0.015625)"/>
      <path id="IBMPlexSans-Regular-68" d="M 544 4736 
L 1056 4736 
L 1056 2765 
L 1082 2765 
Q 1203 3046 1424 3212 
Q 1645 3379 2016 3379 
Q 2528 3379 2825 3049 
Q 3123 2720 3123 2118 
L 3123 0 
L 2611 0 
L 2611 2029 
Q 2611 2918 1862 2918 
Q 1709 2918 1565 2880 
Q 1421 2842 1305 2765 
Q 1190 2688 1123 2569 
Q 1056 2451 1056 2291 
L 1056 0 
L 544 0 
L 544 4736 
z
" transform="scale(0.015625)"/>
     </defs>
     <use xlink:href="#IBMPlexSans-Regular-50"/>
     <use xlink:href="#IBMPlexSans-Regular-79" x="60.599991"/>
     <use xlink:href="#IBMPlexSans-Regular-54" x="110.499985"/>
     <use xlink:href="#IBMPlexSans-Regular-6f" x="167.699982"/>
     <use xlink:href="#IBMPlexSans-Regular-72" x="223.699966"/>
     <use xlink:href="#IBMPlexSans-Regular-63" x="260.399963"/>
     <use xlink:href="#IBMPlexSans-Regular-68" x="310.699951"/>
    </g>
   </g>
   <g id="line2d_18">
    <path d="M 85.425967 207.163056 
L 89.875321 207.163056 
L 92.099998 192.932472 
L 109.897415 192.932472 
L 114.346769 221.393657 
L 118.796123 221.393657 
L 121.020801 207.163063 
L 138.818217 207.163056 
L 141.042894 221.39365 
L 147.716926 221.39365 
L 149.941603 235.624238 
L 152.16628 207.163053 
L 154.390957 207.163053 
L 156.615634 235.624224 
L 183.311759 235.624238 
L 185.536437 221.39363 
L 187.761114 221.39363 
L 189.985791 235.624231 
L 192.210468 278.316 
L 194.435145 235.624238 
L 196.659822 221.39365 
L 205.558531 221.39365 
L 207.783208 207.163063 
L 225.580624 207.163063 
L 227.805302 221.39365 
L 232.254656 221.39365 
L 234.479333 235.624231 
L 274.523521 235.624231 
L 276.748198 249.854825 
L 283.422229 249.854818 
L 285.646906 235.624231 
L 301.219646 235.624224 
L 303.444323 221.39365 
L 305.669 249.854812 
L 307.893677 249.854812 
L 310.118354 235.624244 
L 528.136711 235.624238 
L 528.136711 235.624238 
" clip-path="url(#pba5b6cec64)" style="fill: none; stroke: #666666; stroke-width: 2; stroke-linecap: round"/>
   </g>
   <g id="legend_1">
    <g id="line2d_19">
     <path d="M 356.945099 270.4745 
L 370.695099 270.4745 
L 384.445099 270.4745 
" style="fill: none; stroke-dasharray: 1.5,2.475; stroke-dashoffset: 0; stroke: #ef5350; stroke-width: 1.5"/>
    </g>
    <g id="text_20">
     <!-- Trained -->
     <g style="fill: #939393" transform="translate(395.445099 275.287) scale(0.1375 -0.1375)">
      <defs>
       <path id="IBMPlexSans-Regular-61" d="M 2944 0 
Q 2656 0 2531 153 
Q 2406 307 2374 538 
L 2342 538 
Q 2234 230 1984 76 
Q 1734 -77 1389 -77 
Q 864 -77 573 192 
Q 282 461 282 922 
Q 282 1389 624 1638 
Q 966 1888 1690 1888 
L 2342 1888 
L 2342 2214 
Q 2342 2566 2150 2752 
Q 1958 2938 1562 2938 
Q 1261 2938 1059 2803 
Q 858 2669 723 2445 
L 416 2733 
Q 550 3002 844 3190 
Q 1139 3379 1587 3379 
Q 2189 3379 2521 3084 
Q 2854 2790 2854 2266 
L 2854 448 
L 3232 448 
L 3232 0 
L 2944 0 
z
M 1472 358 
Q 1664 358 1824 403 
Q 1984 448 2099 531 
Q 2214 614 2278 723 
Q 2342 832 2342 960 
L 2342 1504 
L 1664 1504 
Q 1222 1504 1020 1376 
Q 819 1248 819 1005 
L 819 870 
Q 819 627 995 492 
Q 1171 358 1472 358 
z
" transform="scale(0.015625)"/>
      </defs>
      <use xlink:href="#IBMPlexSans-Regular-54"/>
      <use xlink:href="#IBMPlexSans-Regular-72" x="57.199997"/>
      <use xlink:href="#IBMPlexSans-Regular-61" x="93.899994"/>
      <use xlink:href="#IBMPlexSans-Regular-69" x="147.299988"/>
      <use xlink:href="#IBMPlexSans-Regular-6e" x="172.299973"/>
      <use xlink:href="#IBMPlexSans-Regular-65" x="229.09996"/>
      <use xlink:href="#IBMPlexSans-Regular-64" x="283.999954"/>
     </g>
    </g>
    <g id="line2d_20">
     <path d="M 469.972248 270.4745 
L 483.722248 270.4745 
L 497.472248 270.4745 
" style="fill: none; stroke: #666666; stroke-width: 2; stroke-linecap: round"/>
    </g>
    <g id="text_21">
     <!-- HMC -->
     <g style="fill: #939393" transform="translate(508.472248 275.287) scale(0.1375 -0.1375)">
      <defs>
       <path id="IBMPlexSans-Regular-48" d="M 3392 2022 
L 1133 2022 
L 1133 0 
L 595 0 
L 595 4467 
L 1133 4467 
L 1133 2496 
L 3392 2496 
L 3392 4467 
L 3930 4467 
L 3930 0 
L 3392 0 
L 3392 2022 
z
" transform="scale(0.015625)"/>
       <path id="IBMPlexSans-Regular-43" d="M 2170 -77 
Q 1318 -77 844 502 
Q 371 1082 371 2208 
Q 371 3334 844 3939 
Q 1318 4544 2170 4544 
Q 2733 4544 3113 4288 
Q 3494 4032 3706 3565 
L 3270 3302 
Q 3136 3648 2861 3856 
Q 2586 4064 2170 4064 
Q 1882 4064 1654 3955 
Q 1427 3846 1270 3644 
Q 1114 3443 1030 3164 
Q 947 2886 947 2541 
L 947 1875 
Q 947 1184 1267 793 
Q 1587 403 2170 403 
Q 2598 403 2886 624 
Q 3174 845 3309 1210 
L 3738 941 
Q 3526 467 3129 195 
Q 2733 -77 2170 -77 
z
" transform="scale(0.015625)"/>
      </defs>
      <use xlink:href="#IBMPlexSans-Regular-48"/>
      <use xlink:href="#IBMPlexSans-Regular-4d" x="70.699982"/>
      <use xlink:href="#IBMPlexSans-Regular-43" x="151.899963"/>
     </g>
    </g>
   </g>
  </g>
  <g id="axes_2">
   <g id="patch_3">
    <path d="M 647.668612 290.412 
L 1134.65043 290.412 
L 1134.65043 24.3 
L 647.668612 24.3 
L 647.668612 290.412 
z
" style="fill: none"/>
   </g>
   <g id="matplotlib.axis_3">
    <g id="xtick_10">
     <g id="line2d_21">
      <path d="M 669.804149 290.412 
L 669.804149 24.3 
" clip-path="url(#p27309bb977)" style="fill: none; stroke-dasharray: 3.7,1.6; stroke-dashoffset: 0; stroke: #838383; stroke-opacity: 0.2"/>
     </g>
     <g id="text_22">
      <!-- 0 -->
      <g style="fill: #838383" transform="translate(665.679149 310.087) scale(0.1375 -0.1375)">
       <use xlink:href="#IBMPlexSans-Regular-30"/>
      </g>
     </g>
    </g>
    <g id="xtick_11">
     <g id="line2d_22">
      <path d="M 725.421076 290.412 
L 725.421076 24.3 
" clip-path="url(#p27309bb977)" style="fill: none; stroke-dasharray: 3.7,1.6; stroke-dashoffset: 0; stroke: #838383; stroke-opacity: 0.2"/>
     </g>
     <g id="text_23">
      <!-- 25 -->
      <g style="fill: #838383" transform="translate(717.171076 310.087) scale(0.1375 -0.1375)">
       <use xlink:href="#IBMPlexSans-Regular-32"/>
       <use xlink:href="#IBMPlexSans-Regular-35" x="59.999985"/>
      </g>
     </g>
    </g>
    <g id="xtick_12">
     <g id="line2d_23">
      <path d="M 781.038004 290.412 
L 781.038004 24.3 
" clip-path="url(#p27309bb977)" style="fill: none; stroke-dasharray: 3.7,1.6; stroke-dashoffset: 0; stroke: #838383; stroke-opacity: 0.2"/>
     </g>
     <g id="text_24">
      <!-- 50 -->
      <g style="fill: #838383" transform="translate(772.788004 310.087) scale(0.1375 -0.1375)">
       <use xlink:href="#IBMPlexSans-Regular-35"/>
       <use xlink:href="#IBMPlexSans-Regular-30" x="59.999985"/>
      </g>
     </g>
    </g>
    <g id="xtick_13">
     <g id="line2d_24">
      <path d="M 836.654932 290.412 
L 836.654932 24.3 
" clip-path="url(#p27309bb977)" style="fill: none; stroke-dasharray: 3.7,1.6; stroke-dashoffset: 0; stroke: #838383; stroke-opacity: 0.2"/>
     </g>
     <g id="text_25">
      <!-- 75 -->
      <g style="fill: #838383" transform="translate(828.404932 310.087) scale(0.1375 -0.1375)">
       <use xlink:href="#IBMPlexSans-Regular-37"/>
       <use xlink:href="#IBMPlexSans-Regular-35" x="59.999985"/>
      </g>
     </g>
    </g>
    <g id="xtick_14">
     <g id="line2d_25">
      <path d="M 892.271859 290.412 
L 892.271859 24.3 
" clip-path="url(#p27309bb977)" style="fill: none; stroke-dasharray: 3.7,1.6; stroke-dashoffset: 0; stroke: #838383; stroke-opacity: 0.2"/>
     </g>
     <g id="text_26">
      <!-- 100 -->
      <g style="fill: #838383" transform="translate(879.896859 310.087) scale(0.1375 -0.1375)">
       <use xlink:href="#IBMPlexSans-Regular-31"/>
       <use xlink:href="#IBMPlexSans-Regular-30" x="59.999985"/>
       <use xlink:href="#IBMPlexSans-Regular-30" x="119.999969"/>
      </g>
     </g>
    </g>
    <g id="xtick_15">
     <g id="line2d_26">
      <path d="M 947.888787 290.412 
L 947.888787 24.3 
" clip-path="url(#p27309bb977)" style="fill: none; stroke-dasharray: 3.7,1.6; stroke-dashoffset: 0; stroke: #838383; stroke-opacity: 0.2"/>
     </g>
     <g id="text_27">
      <!-- 125 -->
      <g style="fill: #838383" transform="translate(935.513787 310.087) scale(0.1375 -0.1375)">
       <use xlink:href="#IBMPlexSans-Regular-31"/>
       <use xlink:href="#IBMPlexSans-Regular-32" x="59.999985"/>
       <use xlink:href="#IBMPlexSans-Regular-35" x="119.999969"/>
      </g>
     </g>
    </g>
    <g id="xtick_16">
     <g id="line2d_27">
      <path d="M 1003.505714 290.412 
L 1003.505714 24.3 
" clip-path="url(#p27309bb977)" style="fill: none; stroke-dasharray: 3.7,1.6; stroke-dashoffset: 0; stroke: #838383; stroke-opacity: 0.2"/>
     </g>
     <g id="text_28">
      <!-- 150 -->
      <g style="fill: #838383" transform="translate(991.130714 310.087) scale(0.1375 -0.1375)">
       <use xlink:href="#IBMPlexSans-Regular-31"/>
       <use xlink:href="#IBMPlexSans-Regular-35" x="59.999985"/>
       <use xlink:href="#IBMPlexSans-Regular-30" x="119.999969"/>
      </g>
     </g>
    </g>
    <g id="xtick_17">
     <g id="line2d_28">
      <path d="M 1059.122642 290.412 
L 1059.122642 24.3 
" clip-path="url(#p27309bb977)" style="fill: none; stroke-dasharray: 3.7,1.6; stroke-dashoffset: 0; stroke: #838383; stroke-opacity: 0.2"/>
     </g>
     <g id="text_29">
      <!-- 175 -->
      <g style="fill: #838383" transform="translate(1046.747642 310.087) scale(0.1375 -0.1375)">
       <use xlink:href="#IBMPlexSans-Regular-31"/>
       <use xlink:href="#IBMPlexSans-Regular-37" x="59.999985"/>
       <use xlink:href="#IBMPlexSans-Regular-35" x="119.999969"/>
      </g>
     </g>
    </g>
    <g id="xtick_18">
     <g id="line2d_29">
      <path d="M 1114.73957 290.412 
L 1114.73957 24.3 
" clip-path="url(#p27309bb977)" style="fill: none; stroke-dasharray: 3.7,1.6; stroke-dashoffset: 0; stroke: #838383; stroke-opacity: 0.2"/>
     </g>
     <g id="text_30">
      <!-- 200 -->
      <g style="fill: #838383" transform="translate(1102.36457 310.087) scale(0.1375 -0.1375)">
       <use xlink:href="#IBMPlexSans-Regular-32"/>
       <use xlink:href="#IBMPlexSans-Regular-30" x="59.999985"/>
       <use xlink:href="#IBMPlexSans-Regular-30" x="119.999969"/>
      </g>
     </g>
    </g>
    <g id="text_31">
     <!-- MD Step -->
     <g style="fill: #838383" transform="translate(862.810692 327.937) scale(0.15 -0.15)">
      <use xlink:href="#IBMPlexSans-Regular-4d"/>
      <use xlink:href="#IBMPlexSans-Regular-44" x="81.199982"/>
      <use xlink:href="#IBMPlexSans-Regular-20" x="148.299973"/>
      <use xlink:href="#IBMPlexSans-Regular-53" x="171.899963"/>
      <use xlink:href="#IBMPlexSans-Regular-74" x="229.999954"/>
      <use xlink:href="#IBMPlexSans-Regular-65" x="265.099945"/>
      <use xlink:href="#IBMPlexSans-Regular-70" x="319.999939"/>
     </g>
    </g>
   </g>
   <g id="matplotlib.axis_4">
    <g id="ytick_8">
     <g id="line2d_30">
      <path d="M 647.668612 262.188 
L 1134.65043 262.188 
" clip-path="url(#p27309bb977)" style="fill: none; stroke-dasharray: 3.7,1.6; stroke-dashoffset: 0; stroke: #838383; stroke-opacity: 0.2"/>
     </g>
     <g id="text_32">
      <!-- −6 -->
      <g style="fill: #838383" transform="translate(621.668612 267.2755) scale(0.1375 -0.1375)">
       <defs>
        <path id="IBMPlexSans-Regular-36" d="M 1926 -77 
Q 1581 -77 1302 41 
Q 1024 160 829 381 
Q 634 602 531 922 
Q 429 1242 429 1638 
Q 429 2138 576 2576 
Q 723 3014 956 3376 
Q 1190 3738 1472 4016 
Q 1754 4294 2022 4467 
L 2714 4467 
Q 2355 4205 2073 3955 
Q 1792 3706 1581 3434 
Q 1370 3162 1222 2851 
Q 1075 2541 986 2150 
L 1018 2138 
Q 1178 2413 1430 2595 
Q 1683 2778 2093 2778 
Q 2381 2778 2624 2682 
Q 2867 2586 3040 2406 
Q 3213 2227 3312 1971 
Q 3411 1715 3411 1402 
Q 3411 1075 3305 803 
Q 3200 531 3005 336 
Q 2810 141 2534 32 
Q 2259 -77 1926 -77 
z
M 1920 390 
Q 2362 390 2608 633 
Q 2854 877 2854 1331 
L 2854 1382 
Q 2854 1837 2608 2080 
Q 2362 2323 1920 2323 
Q 1478 2323 1232 2080 
Q 986 1837 986 1382 
L 986 1331 
Q 986 877 1232 633 
Q 1478 390 1920 390 
z
" transform="scale(0.015625)"/>
       </defs>
       <use xlink:href="#IBMPlexSans-Regular-2212"/>
       <use xlink:href="#IBMPlexSans-Regular-36" x="59.999985"/>
      </g>
     </g>
    </g>
    <g id="ytick_9">
     <g id="line2d_31">
      <path d="M 647.668612 229.932 
L 1134.65043 229.932 
" clip-path="url(#p27309bb977)" style="fill: none; stroke-dasharray: 3.7,1.6; stroke-dashoffset: 0; stroke: #838383; stroke-opacity: 0.2"/>
     </g>
     <g id="text_33">
      <!-- −4 -->
      <g style="fill: #838383" transform="translate(621.668612 235.0195) scale(0.1375 -0.1375)">
       <defs>
        <path id="IBMPlexSans-Regular-34" d="M 2400 0 
L 2400 877 
L 243 877 
L 243 1350 
L 2112 4467 
L 2912 4467 
L 2912 1325 
L 3558 1325 
L 3558 877 
L 2912 877 
L 2912 0 
L 2400 0 
z
M 749 1325 
L 2400 1325 
L 2400 4051 
L 2368 4051 
L 749 1325 
z
" transform="scale(0.015625)"/>
       </defs>
       <use xlink:href="#IBMPlexSans-Regular-2212"/>
       <use xlink:href="#IBMPlexSans-Regular-34" x="59.999985"/>
      </g>
     </g>
    </g>
    <g id="ytick_10">
     <g id="line2d_32">
      <path d="M 647.668612 197.676 
L 1134.65043 197.676 
" clip-path="url(#p27309bb977)" style="fill: none; stroke-dasharray: 3.7,1.6; stroke-dashoffset: 0; stroke: #838383; stroke-opacity: 0.2"/>
     </g>
     <g id="text_34">
      <!-- −2 -->
      <g style="fill: #838383" transform="translate(621.668612 202.7635) scale(0.1375 -0.1375)">
       <use xlink:href="#IBMPlexSans-Regular-2212"/>
       <use xlink:href="#IBMPlexSans-Regular-32" x="59.999985"/>
      </g>
     </g>
    </g>
    <g id="ytick_11">
     <g id="line2d_33">
      <path d="M 647.668612 165.42 
L 1134.65043 165.42 
" clip-path="url(#p27309bb977)" style="fill: none; stroke-dasharray: 3.7,1.6; stroke-dashoffset: 0; stroke: #838383; stroke-opacity: 0.2"/>
     </g>
     <g id="text_35">
      <!-- 0 -->
      <g style="fill: #838383" transform="translate(629.918612 170.5075) scale(0.1375 -0.1375)">
       <use xlink:href="#IBMPlexSans-Regular-30"/>
      </g>
     </g>
    </g>
    <g id="ytick_12">
     <g id="line2d_34">
      <path d="M 647.668612 133.164 
L 1134.65043 133.164 
" clip-path="url(#p27309bb977)" style="fill: none; stroke-dasharray: 3.7,1.6; stroke-dashoffset: 0; stroke: #838383; stroke-opacity: 0.2"/>
     </g>
     <g id="text_36">
      <!-- 2 -->
      <g style="fill: #838383" transform="translate(629.918612 138.2515) scale(0.1375 -0.1375)">
       <use xlink:href="#IBMPlexSans-Regular-32"/>
      </g>
     </g>
    </g>
    <g id="ytick_13">
     <g id="line2d_35">
      <path d="M 647.668612 100.908 
L 1134.65043 100.908 
" clip-path="url(#p27309bb977)" style="fill: none; stroke-dasharray: 3.7,1.6; stroke-dashoffset: 0; stroke: #838383; stroke-opacity: 0.2"/>
     </g>
     <g id="text_37">
      <!-- 4 -->
      <g style="fill: #838383" transform="translate(629.918612 105.9955) scale(0.1375 -0.1375)">
       <use xlink:href="#IBMPlexSans-Regular-34"/>
      </g>
     </g>
    </g>
    <g id="ytick_14">
     <g id="line2d_36">
      <path d="M 647.668612 68.652 
L 1134.65043 68.652 
" clip-path="url(#p27309bb977)" style="fill: none; stroke-dasharray: 3.7,1.6; stroke-dashoffset: 0; stroke: #838383; stroke-opacity: 0.2"/>
     </g>
     <g id="text_38">
      <!-- 6 -->
      <g style="fill: #838383" transform="translate(629.918612 73.7395) scale(0.1375 -0.1375)">
       <use xlink:href="#IBMPlexSans-Regular-36"/>
      </g>
     </g>
    </g>
    <g id="ytick_15">
     <g id="line2d_37">
      <path d="M 647.668612 36.396 
L 1134.65043 36.396 
" clip-path="url(#p27309bb977)" style="fill: none; stroke-dasharray: 3.7,1.6; stroke-dashoffset: 0; stroke: #838383; stroke-opacity: 0.2"/>
     </g>
     <g id="text_39">
      <!-- 8 -->
      <g style="fill: #838383" transform="translate(629.918612 41.4835) scale(0.1375 -0.1375)">
       <defs>
        <path id="IBMPlexSans-Regular-38" d="M 1920 -77 
Q 1536 -77 1248 22 
Q 960 122 765 294 
Q 570 467 470 704 
Q 371 941 371 1216 
Q 371 1677 620 1945 
Q 870 2214 1274 2323 
L 1274 2374 
Q 922 2496 714 2768 
Q 506 3040 506 3424 
Q 506 3936 877 4240 
Q 1248 4544 1920 4544 
Q 2592 4544 2963 4240 
Q 3334 3936 3334 3424 
Q 3334 3040 3126 2768 
Q 2918 2496 2566 2374 
L 2566 2323 
Q 2970 2214 3219 1945 
Q 3469 1677 3469 1216 
Q 3469 941 3369 704 
Q 3270 467 3075 294 
Q 2880 122 2592 22 
Q 2304 -77 1920 -77 
z
M 1920 390 
Q 2387 390 2643 598 
Q 2899 806 2899 1190 
L 2899 1325 
Q 2899 1709 2643 1917 
Q 2387 2125 1920 2125 
Q 1453 2125 1197 1917 
Q 941 1709 941 1325 
L 941 1190 
Q 941 806 1197 598 
Q 1453 390 1920 390 
z
M 1920 2573 
Q 2342 2573 2560 2752 
Q 2778 2931 2778 3277 
L 2778 3373 
Q 2778 3718 2560 3897 
Q 2342 4077 1920 4077 
Q 1498 4077 1280 3897 
Q 1062 3718 1062 3373 
L 1062 3277 
Q 1062 2931 1280 2752 
Q 1498 2573 1920 2573 
z
" transform="scale(0.015625)"/>
       </defs>
       <use xlink:href="#IBMPlexSans-Regular-38"/>
      </g>
     </g>
    </g>
   </g>
   <g id="line2d_38">
    <path d="M 669.804149 68.651992 
L 672.028826 100.907992 
L 674.253503 100.908 
L 676.47818 117.036004 
L 678.702857 100.907992 
L 685.376888 100.908008 
L 687.601566 117.035992 
L 689.826243 100.907992 
L 692.05092 117.035992 
L 696.500274 117.035992 
L 703.174305 68.652 
L 705.398982 68.651985 
L 712.073014 117.035992 
L 716.522368 117.035992 
L 720.971722 84.78 
L 727.645753 84.78 
L 729.870431 100.907992 
L 732.095108 100.908 
L 734.319785 117.036004 
L 736.544462 100.907992 
L 738.769139 117.035992 
L 743.218493 84.78 
L 747.667847 84.78 
L 749.892524 100.908 
L 752.117202 100.908 
L 754.341879 84.779992 
L 756.566556 100.908 
L 758.791233 100.908004 
L 761.01591 84.78 
L 763.240587 100.908 
L 765.465264 133.164008 
L 767.689941 117.035988 
L 769.914618 117.035992 
L 772.139296 100.908 
L 781.038004 100.908 
L 783.262681 84.78 
L 787.712035 84.780008 
L 789.936712 100.907985 
L 792.161389 68.651992 
L 796.610744 68.652 
L 798.835421 52.524008 
L 801.060098 68.651985 
L 803.284775 52.524 
L 809.958806 52.524 
L 812.183483 36.396 
L 814.40816 36.396 
L 816.632838 52.524 
L 827.756223 52.524008 
L 829.9809 68.652 
L 836.654932 68.652 
L 838.879609 84.78 
L 841.104286 68.652 
L 845.55364 68.652 
L 847.778317 52.524 
L 852.227671 84.780008 
L 854.452348 68.651992 
L 856.677025 68.652 
L 861.12638 100.907992 
L 865.575734 100.908 
L 867.800411 84.78 
L 870.025088 100.907992 
L 872.249765 84.779992 
L 878.923797 84.78 
L 883.373151 117.036 
L 885.597828 117.035992 
L 887.822505 84.779985 
L 890.047182 117.036008 
L 892.271859 100.907992 
L 894.496536 117.036 
L 896.721213 84.779992 
L 898.94589 84.78 
L 901.170568 52.524 
L 903.395245 68.651992 
L 905.619922 52.524 
L 907.844599 84.78 
L 916.743307 84.78 
L 918.967984 100.908004 
L 921.192662 52.524 
L 923.417339 68.651992 
L 925.642016 68.652 
L 927.866693 52.524 
L 930.09137 68.651985 
L 938.990078 68.651985 
L 941.214755 52.523985 
L 943.439433 52.524 
L 945.66411 68.652 
L 947.888787 68.652008 
L 950.113464 84.780008 
L 952.338141 84.78 
L 954.562818 100.908 
L 959.012172 68.652008 
L 961.236849 84.78 
L 963.461526 68.652008 
L 965.686204 84.779985 
L 967.910881 84.78 
L 972.360235 52.524 
L 979.034266 52.523992 
L 981.258943 68.652 
L 983.48362 52.524 
L 987.932975 84.779992 
L 994.607006 84.78 
L 996.831683 100.908 
L 1001.281037 100.907985 
L 1003.505714 117.035992 
L 1005.730391 117.036004 
L 1012.404423 68.652 
L 1019.078454 68.652008 
L 1021.303131 84.78 
L 1025.752485 84.779992 
L 1027.977163 100.908 
L 1041.325225 100.908 
L 1043.549902 84.78 
L 1050.223934 84.779992 
L 1052.448611 68.651992 
L 1054.673288 68.652 
L 1056.897965 52.524 
L 1059.122642 52.524 
L 1061.347319 68.652 
L 1063.571996 52.523992 
L 1065.796673 68.652 
L 1068.02135 52.523992 
L 1070.246028 84.779992 
L 1072.470705 100.908 
L 1074.695382 100.908 
L 1076.920059 68.652 
L 1079.144736 52.524 
L 1081.369413 52.523985 
L 1083.59409 36.396008 
L 1085.818767 52.524 
L 1088.043444 52.523992 
L 1090.268121 100.907992 
L 1094.717476 68.651992 
L 1096.942153 100.908 
L 1103.616184 52.524 
L 1105.840861 84.779992 
L 1108.065538 52.523985 
L 1110.290215 52.523985 
L 1112.514892 68.651992 
L 1112.514892 68.651992 
" clip-path="url(#p27309bb977)" style="fill: none; stroke-dasharray: 1.5,2.475; stroke-dashoffset: 0; stroke: #2196f3; stroke-width: 1.5"/>
   </g>
   <g id="text_40">
    <!-- TensorFlow -->
    <g style="fill: #838383" transform="translate(851.693114 18.3) scale(0.15 -0.15)">
     <defs>
      <path id="IBMPlexSans-Regular-73" d="M 1536 -77 
Q 1075 -77 764 99 
Q 454 275 230 570 
L 595 864 
Q 787 621 1024 489 
Q 1261 358 1574 358 
Q 1901 358 2083 499 
Q 2266 640 2266 896 
Q 2266 1088 2141 1225 
Q 2016 1363 1690 1414 
L 1427 1453 
Q 1197 1485 1005 1552 
Q 813 1619 669 1731 
Q 525 1843 445 2009 
Q 365 2176 365 2406 
Q 365 2650 454 2832 
Q 544 3014 701 3136 
Q 858 3258 1075 3318 
Q 1293 3379 1542 3379 
Q 1946 3379 2218 3238 
Q 2490 3098 2694 2848 
L 2355 2541 
Q 2246 2694 2035 2819 
Q 1824 2944 1504 2944 
Q 1184 2944 1021 2806 
Q 858 2669 858 2432 
Q 858 2189 1021 2080 
Q 1184 1971 1491 1920 
L 1747 1882 
Q 2298 1798 2528 1564 
Q 2758 1331 2758 954 
Q 2758 474 2432 198 
Q 2106 -77 1536 -77 
z
" transform="scale(0.015625)"/>
      <path id="IBMPlexSans-Regular-46" d="M 595 0 
L 595 4467 
L 3258 4467 
L 3258 3994 
L 1133 3994 
L 1133 2496 
L 3072 2496 
L 3072 2022 
L 1133 2022 
L 1133 0 
L 595 0 
z
" transform="scale(0.015625)"/>
      <path id="IBMPlexSans-Regular-6c" d="M 1088 0 
Q 819 0 681 150 
Q 544 301 544 531 
L 544 4736 
L 1056 4736 
L 1056 448 
L 1542 448 
L 1542 0 
L 1088 0 
z
" transform="scale(0.015625)"/>
      <path id="IBMPlexSans-Regular-77" d="M 198 3302 
L 698 3302 
L 1050 1875 
L 1402 429 
L 1414 429 
L 1818 1875 
L 2234 3302 
L 2688 3302 
L 3117 1875 
L 3526 429 
L 3539 429 
L 3878 1875 
L 4237 3302 
L 4717 3302 
L 3840 0 
L 3206 0 
L 2746 1587 
L 2458 2592 
L 2445 2592 
L 2163 1587 
L 1702 0 
L 1082 0 
L 198 3302 
z
" transform="scale(0.015625)"/>
     </defs>
     <use xlink:href="#IBMPlexSans-Regular-54"/>
     <use xlink:href="#IBMPlexSans-Regular-65" x="57.199997"/>
     <use xlink:href="#IBMPlexSans-Regular-6e" x="112.099991"/>
     <use xlink:href="#IBMPlexSans-Regular-73" x="168.899979"/>
     <use xlink:href="#IBMPlexSans-Regular-6f" x="217.599976"/>
     <use xlink:href="#IBMPlexSans-Regular-72" x="273.59996"/>
     <use xlink:href="#IBMPlexSans-Regular-46" x="310.299957"/>
     <use xlink:href="#IBMPlexSans-Regular-6c" x="366.199951"/>
     <use xlink:href="#IBMPlexSans-Regular-6f" x="393.399948"/>
     <use xlink:href="#IBMPlexSans-Regular-77" x="449.399933"/>
    </g>
   </g>
   <g id="line2d_39">
    <path d="M 669.804149 278.315992 
L 672.028826 262.188 
L 674.253503 278.316 
L 678.702857 278.316 
L 680.927534 246.059992 
L 683.152211 246.059992 
L 685.376888 229.931992 
L 703.174305 229.932 
L 705.398982 262.188008 
L 714.297691 262.188023 
L 718.747045 229.932008 
L 720.971722 229.932015 
L 723.196399 246.060031 
L 727.645753 213.804031 
L 734.319785 213.804019 
L 736.544462 229.932 
L 738.769139 197.676 
L 776.58865 197.675981 
L 778.813327 213.803992 
L 789.936712 213.803996 
L 792.161389 197.676 
L 852.227671 197.676008 
L 854.452348 213.804046 
L 856.677025 246.060023 
L 858.901703 246.060015 
L 861.12638 229.931988 
L 870.025088 229.932023 
L 872.249765 246.059992 
L 881.148474 246.06 
L 883.373151 229.931992 
L 885.597828 262.188008 
L 974.584912 262.188015 
L 976.809589 278.315985 
L 979.034266 278.316 
L 981.258943 262.188008 
L 1050.223934 262.187969 
L 1052.448611 246.060031 
L 1059.122642 246.059954 
L 1061.347319 229.931962 
L 1072.470705 229.931985 
L 1074.695382 262.188008 
L 1085.818767 262.188062 
L 1090.268121 229.931985 
L 1112.514892 229.931985 
L 1112.514892 229.931985 
" clip-path="url(#p27309bb977)" style="fill: none; stroke: #666666; stroke-width: 2; stroke-linecap: round"/>
   </g>
   <g id="legend_2">
    <g id="line2d_40">
     <path d="M 941.323281 156.256 
L 955.073281 156.256 
L 968.823281 156.256 
" style="fill: none; stroke-dasharray: 1.5,2.475; stroke-dashoffset: 0; stroke: #2196f3; stroke-width: 1.5"/>
    </g>
    <g id="text_41">
     <!-- Trained -->
     <g style="fill: #939393" transform="translate(979.823281 161.0685) scale(0.1375 -0.1375)">
      <use xlink:href="#IBMPlexSans-Regular-54"/>
      <use xlink:href="#IBMPlexSans-Regular-72" x="57.199997"/>
      <use xlink:href="#IBMPlexSans-Regular-61" x="93.899994"/>
      <use xlink:href="#IBMPlexSans-Regular-69" x="147.299988"/>
      <use xlink:href="#IBMPlexSans-Regular-6e" x="172.299973"/>
      <use xlink:href="#IBMPlexSans-Regular-65" x="229.09996"/>
      <use xlink:href="#IBMPlexSans-Regular-64" x="283.999954"/>
     </g>
    </g>
    <g id="line2d_41">
     <path d="M 1054.35043 156.256 
L 1068.10043 156.256 
L 1081.85043 156.256 
" style="fill: none; stroke: #666666; stroke-width: 2; stroke-linecap: round"/>
    </g>
    <g id="text_42">
     <!-- HMC -->
     <g style="fill: #939393" transform="translate(1092.85043 161.0685) scale(0.1375 -0.1375)">
      <use xlink:href="#IBMPlexSans-Regular-48"/>
      <use xlink:href="#IBMPlexSans-Regular-4d" x="70.699982"/>
      <use xlink:href="#IBMPlexSans-Regular-43" x="151.899963"/>
     </g>
    </g>
   </g>
  </g>
 </g>
 <defs>
  <clipPath id="pba5b6cec64">
   <rect x="63.29043" y="24.3" width="486.981818" height="266.112"/>
  </clipPath>
  <clipPath id="p27309bb977">
   <rect x="647.668612" y="24.3" width="486.981818" height="266.112"/>
  </clipPath>
 </defs>
</svg>
