<?xml version="1.0" encoding="utf-8" standalone="no"?>
<!DOCTYPE svg PUBLIC "-//W3C//DTD SVG 1.1//EN"
  "http://www.w3.org/Graphics/SVG/1.1/DTD/svg11.dtd">
<svg xmlns:xlink="http://www.w3.org/1999/xlink" width="322.277335pt" height="234.534474pt" viewBox="0 0 322.277335 234.534474" xmlns="http://www.w3.org/2000/svg" version="1.1">
 <metadata>
  <rdf:RDF xmlns:dc="http://purl.org/dc/elements/1.1/" xmlns:cc="http://creativecommons.org/ns#" xmlns:rdf="http://www.w3.org/1999/02/22-rdf-syntax-ns#">
   <cc:Work>
    <dc:type rdf:resource="http://purl.org/dc/dcmitype/StillImage"/>
    <dc:date>2023-12-05T11:41:50.161001</dc:date>
    <dc:format>image/svg+xml</dc:format>
    <dc:creator>
     <cc:Agent>
      <dc:title>Matplotlib v3.8.2, https://matplotlib.org/</dc:title>
     </cc:Agent>
    </dc:creator>
   </cc:Work>
  </rdf:RDF>
 </metadata>
 <defs>
  <style type="text/css">*{stroke-linejoin: round; stroke-linecap: butt}</style>
 </defs>
 <g id="figure_1">
  <g id="patch_1">
   <path d="M 0 234.534474 
L 322.277335 234.534474 
L 322.277335 0 
L 0 0 
L 0 234.534474 
z
" style="fill: none"/>
  </g>
  <g id="axes_1">
   <g id="patch_2">
    <path d="M 46.714063 192.009865 
L 313.090152 192.009865 
L 313.090152 28.442513 
L 46.714063 28.442513 
L 46.714063 192.009865 
z
" style="fill: none"/>
   </g>
   <g id="matplotlib.axis_1">
    <g id="xtick_1">
     <g id="line2d_1">
      <path d="M 58.822067 192.009865 
L 58.822067 28.442513 
" clip-path="url(#p4cf03dfbb1)" style="fill: none; stroke: #cccccc; stroke-opacity: 0.2; stroke-width: 0.4; stroke-linecap: round"/>
     </g>
     <g id="text_1">
      <!-- 0 -->
      <g style="fill: #838383" transform="translate(54.447848 205.957716) scale(0.1375 -0.1375)">
       <defs>
        <path id="DejaVuSans-30" d="M 2034 4250 
Q 1547 4250 1301 3770 
Q 1056 3291 1056 2328 
Q 1056 1369 1301 889 
Q 1547 409 2034 409 
Q 2525 409 2770 889 
Q 3016 1369 3016 2328 
Q 3016 3291 2770 3770 
Q 2525 4250 2034 4250 
z
M 2034 4750 
Q 2819 4750 3233 4129 
Q 3647 3509 3647 2328 
Q 3647 1150 3233 529 
Q 2819 -91 2034 -91 
Q 1250 -91 836 529 
Q 422 1150 422 2328 
Q 422 3509 836 4129 
Q 1250 4750 2034 4750 
z
" transform="scale(0.015625)"/>
       </defs>
       <use xlink:href="#DejaVuSans-30"/>
      </g>
     </g>
    </g>
    <g id="xtick_2">
     <g id="line2d_2">
      <path d="M 107.448589 192.009865 
L 107.448589 28.442513 
" clip-path="url(#p4cf03dfbb1)" style="fill: none; stroke: #cccccc; stroke-opacity: 0.2; stroke-width: 0.4; stroke-linecap: round"/>
     </g>
     <g id="text_2">
      <!-- 50 -->
      <g style="fill: #838383" transform="translate(98.700151 205.957716) scale(0.1375 -0.1375)">
       <defs>
        <path id="DejaVuSans-35" d="M 691 4666 
L 3169 4666 
L 3169 4134 
L 1269 4134 
L 1269 2991 
Q 1406 3038 1543 3061 
Q 1681 3084 1819 3084 
Q 2600 3084 3056 2656 
Q 3513 2228 3513 1497 
Q 3513 744 3044 326 
Q 2575 -91 1722 -91 
Q 1428 -91 1123 -41 
Q 819 9 494 109 
L 494 744 
Q 775 591 1075 516 
Q 1375 441 1709 441 
Q 2250 441 2565 725 
Q 2881 1009 2881 1497 
Q 2881 1984 2565 2268 
Q 2250 2553 1709 2553 
Q 1456 2553 1204 2497 
Q 953 2441 691 2322 
L 691 4666 
z
" transform="scale(0.015625)"/>
       </defs>
       <use xlink:href="#DejaVuSans-35"/>
       <use xlink:href="#DejaVuSans-30" x="63.623047"/>
      </g>
     </g>
    </g>
    <g id="xtick_3">
     <g id="line2d_3">
      <path d="M 156.075111 192.009865 
L 156.075111 28.442513 
" clip-path="url(#p4cf03dfbb1)" style="fill: none; stroke: #cccccc; stroke-opacity: 0.2; stroke-width: 0.4; stroke-linecap: round"/>
     </g>
     <g id="text_3">
      <!-- 100 -->
      <g style="fill: #838383" transform="translate(142.952455 205.957716) scale(0.1375 -0.1375)">
       <defs>
        <path id="DejaVuSans-31" d="M 794 531 
L 1825 531 
L 1825 4091 
L 703 3866 
L 703 4441 
L 1819 4666 
L 2450 4666 
L 2450 531 
L 3481 531 
L 3481 0 
L 794 0 
L 794 531 
z
" transform="scale(0.015625)"/>
       </defs>
       <use xlink:href="#DejaVuSans-31"/>
       <use xlink:href="#DejaVuSans-30" x="63.623047"/>
       <use xlink:href="#DejaVuSans-30" x="127.246094"/>
      </g>
     </g>
    </g>
    <g id="xtick_4">
     <g id="line2d_4">
      <path d="M 204.701634 192.009865 
L 204.701634 28.442513 
" clip-path="url(#p4cf03dfbb1)" style="fill: none; stroke: #cccccc; stroke-opacity: 0.2; stroke-width: 0.4; stroke-linecap: round"/>
     </g>
     <g id="text_4">
      <!-- 150 -->
      <g style="fill: #838383" transform="translate(191.578978 205.957716) scale(0.1375 -0.1375)">
       <use xlink:href="#DejaVuSans-31"/>
       <use xlink:href="#DejaVuSans-35" x="63.623047"/>
       <use xlink:href="#DejaVuSans-30" x="127.246094"/>
      </g>
     </g>
    </g>
    <g id="xtick_5">
     <g id="line2d_5">
      <path d="M 253.328156 192.009865 
L 253.328156 28.442513 
" clip-path="url(#p4cf03dfbb1)" style="fill: none; stroke: #cccccc; stroke-opacity: 0.2; stroke-width: 0.4; stroke-linecap: round"/>
     </g>
     <g id="text_5">
      <!-- 200 -->
      <g style="fill: #838383" transform="translate(240.2055 205.957716) scale(0.1375 -0.1375)">
       <defs>
        <path id="DejaVuSans-32" d="M 1228 531 
L 3431 531 
L 3431 0 
L 469 0 
L 469 531 
Q 828 903 1448 1529 
Q 2069 2156 2228 2338 
Q 2531 2678 2651 2914 
Q 2772 3150 2772 3378 
Q 2772 3750 2511 3984 
Q 2250 4219 1831 4219 
Q 1534 4219 1204 4116 
Q 875 4013 500 3803 
L 500 4441 
Q 881 4594 1212 4672 
Q 1544 4750 1819 4750 
Q 2544 4750 2975 4387 
Q 3406 4025 3406 3419 
Q 3406 3131 3298 2873 
Q 3191 2616 2906 2266 
Q 2828 2175 2409 1742 
Q 1991 1309 1228 531 
z
" transform="scale(0.015625)"/>
       </defs>
       <use xlink:href="#DejaVuSans-32"/>
       <use xlink:href="#DejaVuSans-30" x="63.623047"/>
       <use xlink:href="#DejaVuSans-30" x="127.246094"/>
      </g>
     </g>
    </g>
    <g id="xtick_6">
     <g id="line2d_6">
      <path d="M 301.954679 192.009865 
L 301.954679 28.442513 
" clip-path="url(#p4cf03dfbb1)" style="fill: none; stroke: #cccccc; stroke-opacity: 0.2; stroke-width: 0.4; stroke-linecap: round"/>
     </g>
     <g id="text_6">
      <!-- 250 -->
      <g style="fill: #838383" transform="translate(288.832022 205.957716) scale(0.1375 -0.1375)">
       <use xlink:href="#DejaVuSans-32"/>
       <use xlink:href="#DejaVuSans-35" x="63.623047"/>
       <use xlink:href="#DejaVuSans-30" x="127.246094"/>
      </g>
     </g>
    </g>
    <g id="text_7">
     <!-- draw -->
     <g style="fill: #838383" transform="translate(161.327889 224.214943) scale(0.15 -0.15)">
      <defs>
       <path id="DejaVuSans-64" d="M 2906 2969 
L 2906 4863 
L 3481 4863 
L 3481 0 
L 2906 0 
L 2906 525 
Q 2725 213 2448 61 
Q 2172 -91 1784 -91 
Q 1150 -91 751 415 
Q 353 922 353 1747 
Q 353 2572 751 3078 
Q 1150 3584 1784 3584 
Q 2172 3584 2448 3432 
Q 2725 3281 2906 2969 
z
M 947 1747 
Q 947 1113 1208 752 
Q 1469 391 1925 391 
Q 2381 391 2643 752 
Q 2906 1113 2906 1747 
Q 2906 2381 2643 2742 
Q 2381 3103 1925 3103 
Q 1469 3103 1208 2742 
Q 947 2381 947 1747 
z
" transform="scale(0.015625)"/>
       <path id="DejaVuSans-72" d="M 2631 2963 
Q 2534 3019 2420 3045 
Q 2306 3072 2169 3072 
Q 1681 3072 1420 2755 
Q 1159 2438 1159 1844 
L 1159 0 
L 581 0 
L 581 3500 
L 1159 3500 
L 1159 2956 
Q 1341 3275 1631 3429 
Q 1922 3584 2338 3584 
Q 2397 3584 2469 3576 
Q 2541 3569 2628 3553 
L 2631 2963 
z
" transform="scale(0.015625)"/>
       <path id="DejaVuSans-61" d="M 2194 1759 
Q 1497 1759 1228 1600 
Q 959 1441 959 1056 
Q 959 750 1161 570 
Q 1363 391 1709 391 
Q 2188 391 2477 730 
Q 2766 1069 2766 1631 
L 2766 1759 
L 2194 1759 
z
M 3341 1997 
L 3341 0 
L 2766 0 
L 2766 531 
Q 2569 213 2275 61 
Q 1981 -91 1556 -91 
Q 1019 -91 701 211 
Q 384 513 384 1019 
Q 384 1609 779 1909 
Q 1175 2209 1959 2209 
L 2766 2209 
L 2766 2266 
Q 2766 2663 2505 2880 
Q 2244 3097 1772 3097 
Q 1472 3097 1187 3025 
Q 903 2953 641 2809 
L 641 3341 
Q 956 3463 1253 3523 
Q 1550 3584 1831 3584 
Q 2591 3584 2966 3190 
Q 3341 2797 3341 1997 
z
" transform="scale(0.015625)"/>
       <path id="DejaVuSans-77" d="M 269 3500 
L 844 3500 
L 1563 769 
L 2278 3500 
L 2956 3500 
L 3675 769 
L 4391 3500 
L 4966 3500 
L 4050 0 
L 3372 0 
L 2619 2869 
L 1863 0 
L 1184 0 
L 269 3500 
z
" transform="scale(0.015625)"/>
      </defs>
      <use xlink:href="#DejaVuSans-64"/>
      <use xlink:href="#DejaVuSans-72" x="63.476562"/>
      <use xlink:href="#DejaVuSans-61" x="104.589844"/>
      <use xlink:href="#DejaVuSans-77" x="165.869141"/>
     </g>
    </g>
   </g>
   <g id="matplotlib.axis_2">
    <g id="ytick_1">
     <g id="line2d_7">
      <path d="M 46.714063 169.425849 
L 313.090152 169.425849 
" clip-path="url(#p4cf03dfbb1)" style="fill: none; stroke: #cccccc; stroke-opacity: 0.2; stroke-width: 0.4; stroke-linecap: round"/>
     </g>
     <g id="text_8">
      <!-- 0 -->
      <g style="fill: #838383" transform="translate(34.465625 174.649775) scale(0.1375 -0.1375)">
       <use xlink:href="#DejaVuSans-30"/>
      </g>
     </g>
    </g>
    <g id="ytick_2">
     <g id="line2d_8">
      <path d="M 46.714063 128.635611 
L 313.090152 128.635611 
" clip-path="url(#p4cf03dfbb1)" style="fill: none; stroke: #cccccc; stroke-opacity: 0.2; stroke-width: 0.4; stroke-linecap: round"/>
     </g>
     <g id="text_9">
      <!-- 25 -->
      <g style="fill: #838383" transform="translate(25.717188 133.859537) scale(0.1375 -0.1375)">
       <use xlink:href="#DejaVuSans-32"/>
       <use xlink:href="#DejaVuSans-35" x="63.623047"/>
      </g>
     </g>
    </g>
    <g id="ytick_3">
     <g id="line2d_9">
      <path d="M 46.714063 87.845373 
L 313.090152 87.845373 
" clip-path="url(#p4cf03dfbb1)" style="fill: none; stroke: #cccccc; stroke-opacity: 0.2; stroke-width: 0.4; stroke-linecap: round"/>
     </g>
     <g id="text_10">
      <!-- 50 -->
      <g style="fill: #838383" transform="translate(25.717188 93.069299) scale(0.1375 -0.1375)">
       <use xlink:href="#DejaVuSans-35"/>
       <use xlink:href="#DejaVuSans-30" x="63.623047"/>
      </g>
     </g>
    </g>
    <g id="ytick_4">
     <g id="line2d_10">
      <path d="M 46.714063 47.055135 
L 313.090152 47.055135 
" clip-path="url(#p4cf03dfbb1)" style="fill: none; stroke: #cccccc; stroke-opacity: 0.2; stroke-width: 0.4; stroke-linecap: round"/>
     </g>
     <g id="text_11">
      <!-- 75 -->
      <g style="fill: #838383" transform="translate(25.717188 52.279061) scale(0.1375 -0.1375)">
       <defs>
        <path id="DejaVuSans-37" d="M 525 4666 
L 3525 4666 
L 3525 4397 
L 1831 0 
L 1172 0 
L 2766 4134 
L 525 4134 
L 525 4666 
z
" transform="scale(0.015625)"/>
       </defs>
       <use xlink:href="#DejaVuSans-37"/>
       <use xlink:href="#DejaVuSans-35" x="63.623047"/>
      </g>
     </g>
    </g>
    <g id="text_12">
     <!-- loss -->
     <g style="fill: #838383" transform="translate(18.597656 124.712908) rotate(-90) scale(0.15 -0.15)">
      <defs>
       <path id="DejaVuSans-6c" d="M 603 4863 
L 1178 4863 
L 1178 0 
L 603 0 
L 603 4863 
z
" transform="scale(0.015625)"/>
       <path id="DejaVuSans-6f" d="M 1959 3097 
Q 1497 3097 1228 2736 
Q 959 2375 959 1747 
Q 959 1119 1226 758 
Q 1494 397 1959 397 
Q 2419 397 2687 759 
Q 2956 1122 2956 1747 
Q 2956 2369 2687 2733 
Q 2419 3097 1959 3097 
z
M 1959 3584 
Q 2709 3584 3137 3096 
Q 3566 2609 3566 1747 
Q 3566 888 3137 398 
Q 2709 -91 1959 -91 
Q 1206 -91 779 398 
Q 353 888 353 1747 
Q 353 2609 779 3096 
Q 1206 3584 1959 3584 
z
" transform="scale(0.015625)"/>
       <path id="DejaVuSans-73" d="M 2834 3397 
L 2834 2853 
Q 2591 2978 2328 3040 
Q 2066 3103 1784 3103 
Q 1356 3103 1142 2972 
Q 928 2841 928 2578 
Q 928 2378 1081 2264 
Q 1234 2150 1697 2047 
L 1894 2003 
Q 2506 1872 2764 1633 
Q 3022 1394 3022 966 
Q 3022 478 2636 193 
Q 2250 -91 1575 -91 
Q 1294 -91 989 -36 
Q 684 19 347 128 
L 347 722 
Q 666 556 975 473 
Q 1284 391 1588 391 
Q 1994 391 2212 530 
Q 2431 669 2431 922 
Q 2431 1156 2273 1281 
Q 2116 1406 1581 1522 
L 1381 1569 
Q 847 1681 609 1914 
Q 372 2147 372 2553 
Q 372 3047 722 3315 
Q 1072 3584 1716 3584 
Q 2034 3584 2315 3537 
Q 2597 3491 2834 3397 
z
" transform="scale(0.015625)"/>
      </defs>
      <use xlink:href="#DejaVuSans-6c"/>
      <use xlink:href="#DejaVuSans-6f" x="27.783203"/>
      <use xlink:href="#DejaVuSans-73" x="88.964844"/>
      <use xlink:href="#DejaVuSans-73" x="141.064453"/>
     </g>
    </g>
   </g>
   <g id="line2d_11">
    <path d="M 58.822067 35.877393 
L 60.767127 145.661543 
L 62.712188 148.216925 
L 66.60231 150.354991 
L 67.574841 150.206451 
L 70.492432 154.300949 
L 72.437493 155.482368 
L 74.382554 155.382137 
L 75.355084 156.89449 
L 76.327615 156.47745 
L 77.300145 158.332447 
L 78.272676 157.954861 
L 82.162797 163.28042 
L 83.135328 162.143141 
L 84.107858 162.274098 
L 85.080389 163.810885 
L 86.052919 162.030712 
L 87.02545 162.630155 
L 88.97051 165.628238 
L 89.943041 165.619638 
L 90.915571 167.010516 
L 92.860632 166.279057 
L 93.833163 167.31663 
L 94.805693 164.738435 
L 95.778224 167.386295 
L 96.750754 165.82256 
L 98.695815 168.298312 
L 101.613406 167.186399 
L 103.558467 169.834511 
L 105.503528 169.19857 
L 107.448589 169.564733 
L 109.39365 169.126061 
L 110.36618 171.979367 
L 112.311241 170.073322 
L 117.173893 172.279892 
L 119.118954 171.401151 
L 121.064015 173.027467 
L 122.036546 171.438011 
L 123.981607 173.642037 
L 124.954137 171.372436 
L 125.926667 173.224379 
L 128.844259 173.190191 
L 130.78932 174.201075 
L 132.734381 173.122187 
L 133.706911 175.001559 
L 134.679442 173.545035 
L 138.569563 175.97051 
L 139.542094 175.211348 
L 141.487155 176.171002 
L 144.404746 174.943978 
L 146.349807 176.5982 
L 149.267398 175.612352 
L 153.15752 176.104716 
L 154.13005 178.087413 
L 155.102581 174.94047 
L 157.047642 177.585312 
L 159.965233 177.464384 
L 160.937764 175.639178 
L 162.882824 178.739792 
L 163.855355 177.208156 
L 164.827885 179.038338 
L 166.772946 178.207503 
L 167.745477 179.048481 
L 168.718007 177.900208 
L 170.663068 178.812122 
L 172.608129 179.604253 
L 176.498251 179.357997 
L 177.470781 178.967517 
L 178.443312 181.286685 
L 179.415842 180.950916 
L 181.360903 182.308719 
L 182.333433 179.016458 
L 185.251025 181.241074 
L 186.223555 181.33405 
L 187.196086 182.804077 
L 189.141147 180.342351 
L 191.086207 181.895249 
L 192.058738 181.21275 
L 193.031268 181.997581 
L 194.976329 180.45534 
L 195.94886 182.65897 
L 196.92139 181.61971 
L 197.893921 183.156111 
L 199.838982 180.954382 
L 202.756573 182.113168 
L 203.729103 179.859712 
L 205.674164 181.431104 
L 206.646695 179.929302 
L 207.619225 182.742459 
L 208.591756 182.318117 
L 209.564286 180.075559 
L 211.509347 182.632793 
L 212.481877 182.498932 
L 213.454408 180.432164 
L 216.371999 183.565163 
L 217.34453 182.375155 
L 218.31706 183.224849 
L 219.28959 180.608513 
L 220.262121 182.503693 
L 222.207182 181.082903 
L 223.179712 181.210127 
L 224.152243 179.699198 
L 225.124773 182.611401 
L 228.042365 181.468837 
L 229.987425 182.53997 
L 230.959956 184.409925 
L 232.905017 181.682865 
L 234.850078 181.741492 
L 235.822608 181.082025 
L 236.795139 183.972125 
L 239.71273 182.111573 
L 240.68526 183.439184 
L 241.657791 181.949062 
L 245.547913 183.137219 
L 246.520443 181.383878 
L 247.492973 182.888057 
L 250.410565 182.044916 
L 251.383095 180.051222 
L 253.328156 182.211241 
L 254.300687 183.674158 
L 255.273217 182.551771 
L 256.245747 184.027462 
L 259.163339 181.879706 
L 261.1084 183.215079 
L 263.053461 182.17129 
L 264.025991 182.780068 
L 264.998522 181.280395 
L 265.971052 184.574985 
L 267.916113 182.469333 
L 268.888643 183.108856 
L 269.861174 181.505841 
L 273.751296 183.637988 
L 275.696356 183.167997 
L 277.641417 183.167231 
L 280.559009 181.976805 
L 281.531539 180.583309 
L 283.4766 183.980886 
L 284.44913 181.541182 
L 286.394191 183.598347 
L 287.366722 180.842176 
L 289.311783 183.453375 
L 293.201905 182.702449 
L 294.174435 181.123034 
L 295.146965 183.954735 
L 296.119496 181.711237 
L 297.092026 183.504084 
L 298.064557 181.349167 
L 300.009618 183.00378 
L 300.982148 182.860251 
L 300.982148 182.860251 
" clip-path="url(#p4cf03dfbb1)" style="fill: none; stroke: #023eff; stroke-width: 1.5; stroke-linecap: round"/>
   </g>
   <g id="patch_3">
    <path d="M 46.714063 192.009865 
L 46.714063 28.442513 
" style="fill: none"/>
   </g>
   <g id="patch_4">
    <path d="M 313.090152 192.009865 
L 313.090152 28.442513 
" style="fill: none"/>
   </g>
   <g id="patch_5">
    <path d="M 46.714063 192.009865 
L 313.090152 192.009865 
" style="fill: none"/>
   </g>
   <g id="patch_6">
    <path d="M 46.714063 28.442513 
L 313.090152 28.442513 
" style="fill: none"/>
   </g>
  </g>
  <g id="text_13">
   <!-- train: pytorch -->
   <g style="fill: #262626" transform="translate(126.753719 18.14175) scale(0.144 -0.144)">
    <defs>
     <path id="DejaVuSans-74" d="M 1172 4494 
L 1172 3500 
L 2356 3500 
L 2356 3053 
L 1172 3053 
L 1172 1153 
Q 1172 725 1289 603 
Q 1406 481 1766 481 
L 2356 481 
L 2356 0 
L 1766 0 
Q 1100 0 847 248 
Q 594 497 594 1153 
L 594 3053 
L 172 3053 
L 172 3500 
L 594 3500 
L 594 4494 
L 1172 4494 
z
" transform="scale(0.015625)"/>
     <path id="DejaVuSans-69" d="M 603 3500 
L 1178 3500 
L 1178 0 
L 603 0 
L 603 3500 
z
M 603 4863 
L 1178 4863 
L 1178 4134 
L 603 4134 
L 603 4863 
z
" transform="scale(0.015625)"/>
     <path id="DejaVuSans-6e" d="M 3513 2113 
L 3513 0 
L 2938 0 
L 2938 2094 
Q 2938 2591 2744 2837 
Q 2550 3084 2163 3084 
Q 1697 3084 1428 2787 
Q 1159 2491 1159 1978 
L 1159 0 
L 581 0 
L 581 3500 
L 1159 3500 
L 1159 2956 
Q 1366 3272 1645 3428 
Q 1925 3584 2291 3584 
Q 2894 3584 3203 3211 
Q 3513 2838 3513 2113 
z
" transform="scale(0.015625)"/>
     <path id="DejaVuSans-3a" d="M 750 794 
L 1409 794 
L 1409 0 
L 750 0 
L 750 794 
z
M 750 3309 
L 1409 3309 
L 1409 2516 
L 750 2516 
L 750 3309 
z
" transform="scale(0.015625)"/>
     <path id="DejaVuSans-20" transform="scale(0.015625)"/>
     <path id="DejaVuSans-70" d="M 1159 525 
L 1159 -1331 
L 581 -1331 
L 581 3500 
L 1159 3500 
L 1159 2969 
Q 1341 3281 1617 3432 
Q 1894 3584 2278 3584 
Q 2916 3584 3314 3078 
Q 3713 2572 3713 1747 
Q 3713 922 3314 415 
Q 2916 -91 2278 -91 
Q 1894 -91 1617 61 
Q 1341 213 1159 525 
z
M 3116 1747 
Q 3116 2381 2855 2742 
Q 2594 3103 2138 3103 
Q 1681 3103 1420 2742 
Q 1159 2381 1159 1747 
Q 1159 1113 1420 752 
Q 1681 391 2138 391 
Q 2594 391 2855 752 
Q 3116 1113 3116 1747 
z
" transform="scale(0.015625)"/>
     <path id="DejaVuSans-79" d="M 2059 -325 
Q 1816 -950 1584 -1140 
Q 1353 -1331 966 -1331 
L 506 -1331 
L 506 -850 
L 844 -850 
Q 1081 -850 1212 -737 
Q 1344 -625 1503 -206 
L 1606 56 
L 191 3500 
L 800 3500 
L 1894 763 
L 2988 3500 
L 3597 3500 
L 2059 -325 
z
" transform="scale(0.015625)"/>
     <path id="DejaVuSans-63" d="M 3122 3366 
L 3122 2828 
Q 2878 2963 2633 3030 
Q 2388 3097 2138 3097 
Q 1578 3097 1268 2742 
Q 959 2388 959 1747 
Q 959 1106 1268 751 
Q 1578 397 2138 397 
Q 2388 397 2633 464 
Q 2878 531 3122 666 
L 3122 134 
Q 2881 22 2623 -34 
Q 2366 -91 2075 -91 
Q 1284 -91 818 406 
Q 353 903 353 1747 
Q 353 2603 823 3093 
Q 1294 3584 2113 3584 
Q 2378 3584 2631 3529 
Q 2884 3475 3122 3366 
z
" transform="scale(0.015625)"/>
     <path id="DejaVuSans-68" d="M 3513 2113 
L 3513 0 
L 2938 0 
L 2938 2094 
Q 2938 2591 2744 2837 
Q 2550 3084 2163 3084 
Q 1697 3084 1428 2787 
Q 1159 2491 1159 1978 
L 1159 0 
L 581 0 
L 581 4863 
L 1159 4863 
L 1159 2956 
Q 1366 3272 1645 3428 
Q 1925 3584 2291 3584 
Q 2894 3584 3203 3211 
Q 3513 2838 3513 2113 
z
" transform="scale(0.015625)"/>
    </defs>
    <use xlink:href="#DejaVuSans-74"/>
    <use xlink:href="#DejaVuSans-72" x="39.208984"/>
    <use xlink:href="#DejaVuSans-61" x="80.322266"/>
    <use xlink:href="#DejaVuSans-69" x="141.601562"/>
    <use xlink:href="#DejaVuSans-6e" x="169.384766"/>
    <use xlink:href="#DejaVuSans-3a" x="232.763672"/>
    <use xlink:href="#DejaVuSans-20" x="266.455078"/>
    <use xlink:href="#DejaVuSans-70" x="298.242188"/>
    <use xlink:href="#DejaVuSans-79" x="361.71875"/>
    <use xlink:href="#DejaVuSans-74" x="420.898438"/>
    <use xlink:href="#DejaVuSans-6f" x="460.107422"/>
    <use xlink:href="#DejaVuSans-72" x="521.289062"/>
    <use xlink:href="#DejaVuSans-63" x="560.152344"/>
    <use xlink:href="#DejaVuSans-68" x="615.132812"/>
   </g>
  </g>
 </g>
 <defs>
  <clipPath id="p4cf03dfbb1">
   <rect x="46.714063" y="28.442513" width="266.37609" height="163.567352"/>
  </clipPath>
 </defs>
</svg>
