<?xml version="1.0" encoding="utf-8" standalone="no"?>
<!DOCTYPE svg PUBLIC "-//W3C//DTD SVG 1.1//EN"
  "http://www.w3.org/Graphics/SVG/1.1/DTD/svg11.dtd">
<svg xmlns:xlink="http://www.w3.org/1999/xlink" width="656.39952pt" height="224.39952pt" viewBox="0 0 656.39952 224.39952" xmlns="http://www.w3.org/2000/svg" version="1.1">
 <metadata>
  <rdf:RDF xmlns:dc="http://purl.org/dc/elements/1.1/" xmlns:cc="http://creativecommons.org/ns#" xmlns:rdf="http://www.w3.org/1999/02/22-rdf-syntax-ns#">
   <cc:Work>
    <dc:type rdf:resource="http://purl.org/dc/dcmitype/StillImage"/>
    <dc:date>2023-12-05T11:48:48.559950</dc:date>
    <dc:format>image/svg+xml</dc:format>
    <dc:creator>
     <cc:Agent>
      <dc:title>Matplotlib v3.8.2, https://matplotlib.org/</dc:title>
     </cc:Agent>
    </dc:creator>
   </cc:Work>
  </rdf:RDF>
 </metadata>
 <defs>
  <style type="text/css">*{stroke-linejoin: round; stroke-linecap: butt}</style>
 </defs>
 <g id="figure_1">
  <g id="patch_1">
   <path d="M 0 224.39952 
L 656.39952 224.39952 
L 656.39952 0 
L 0 0 
L 0 224.39952 
z
" style="fill: none"/>
  </g>
  <g id="axes_1">
   <g id="patch_2">
    <path d="M 58.236133 181.874911 
L 587.818661 181.874911 
L 587.818661 7.2 
L 58.236133 7.2 
L 58.236133 181.874911 
z
" style="fill: none"/>
   </g>
   <g id="matplotlib.axis_1">
    <g id="xtick_1">
     <g id="text_1">
      <!-- 0 -->
      <g style="fill: #838383" transform="translate(77.933847 195.822762) scale(0.1375 -0.1375)">
       <defs>
        <path id="DejaVuSans-30" d="M 2034 4250 
Q 1547 4250 1301 3770 
Q 1056 3291 1056 2328 
Q 1056 1369 1301 889 
Q 1547 409 2034 409 
Q 2525 409 2770 889 
Q 3016 1369 3016 2328 
Q 3016 3291 2770 3770 
Q 2525 4250 2034 4250 
z
M 2034 4750 
Q 2819 4750 3233 4129 
Q 3647 3509 3647 2328 
Q 3647 1150 3233 529 
Q 2819 -91 2034 -91 
Q 1250 -91 836 529 
Q 422 1150 422 2328 
Q 422 3509 836 4129 
Q 1250 4750 2034 4750 
z
" transform="scale(0.015625)"/>
       </defs>
       <use xlink:href="#DejaVuSans-30"/>
      </g>
     </g>
    </g>
    <g id="xtick_2">
     <g id="text_2">
      <!-- 250 -->
      <g style="fill: #838383" transform="translate(129.667654 195.822762) scale(0.1375 -0.1375)">
       <defs>
        <path id="DejaVuSans-32" d="M 1228 531 
L 3431 531 
L 3431 0 
L 469 0 
L 469 531 
Q 828 903 1448 1529 
Q 2069 2156 2228 2338 
Q 2531 2678 2651 2914 
Q 2772 3150 2772 3378 
Q 2772 3750 2511 3984 
Q 2250 4219 1831 4219 
Q 1534 4219 1204 4116 
Q 875 4013 500 3803 
L 500 4441 
Q 881 4594 1212 4672 
Q 1544 4750 1819 4750 
Q 2544 4750 2975 4387 
Q 3406 4025 3406 3419 
Q 3406 3131 3298 2873 
Q 3191 2616 2906 2266 
Q 2828 2175 2409 1742 
Q 1991 1309 1228 531 
z
" transform="scale(0.015625)"/>
        <path id="DejaVuSans-35" d="M 691 4666 
L 3169 4666 
L 3169 4134 
L 1269 4134 
L 1269 2991 
Q 1406 3038 1543 3061 
Q 1681 3084 1819 3084 
Q 2600 3084 3056 2656 
Q 3513 2228 3513 1497 
Q 3513 744 3044 326 
Q 2575 -91 1722 -91 
Q 1428 -91 1123 -41 
Q 819 9 494 109 
L 494 744 
Q 775 591 1075 516 
Q 1375 441 1709 441 
Q 2250 441 2565 725 
Q 2881 1009 2881 1497 
Q 2881 1984 2565 2268 
Q 2250 2553 1709 2553 
Q 1456 2553 1204 2497 
Q 953 2441 691 2322 
L 691 4666 
z
" transform="scale(0.015625)"/>
       </defs>
       <use xlink:href="#DejaVuSans-32"/>
       <use xlink:href="#DejaVuSans-35" x="63.623047"/>
       <use xlink:href="#DejaVuSans-30" x="127.246094"/>
      </g>
     </g>
    </g>
    <g id="xtick_3">
     <g id="text_3">
      <!-- 500 -->
      <g style="fill: #838383" transform="translate(190.149897 195.822762) scale(0.1375 -0.1375)">
       <use xlink:href="#DejaVuSans-35"/>
       <use xlink:href="#DejaVuSans-30" x="63.623047"/>
       <use xlink:href="#DejaVuSans-30" x="127.246094"/>
      </g>
     </g>
    </g>
    <g id="xtick_4">
     <g id="text_4">
      <!-- 750 -->
      <g style="fill: #838383" transform="translate(250.632141 195.822762) scale(0.1375 -0.1375)">
       <defs>
        <path id="DejaVuSans-37" d="M 525 4666 
L 3525 4666 
L 3525 4397 
L 1831 0 
L 1172 0 
L 2766 4134 
L 525 4134 
L 525 4666 
z
" transform="scale(0.015625)"/>
       </defs>
       <use xlink:href="#DejaVuSans-37"/>
       <use xlink:href="#DejaVuSans-35" x="63.623047"/>
       <use xlink:href="#DejaVuSans-30" x="127.246094"/>
      </g>
     </g>
    </g>
    <g id="xtick_5">
     <g id="text_5">
      <!-- 1000 -->
      <g style="fill: #838383" transform="translate(306.740167 195.822762) scale(0.1375 -0.1375)">
       <defs>
        <path id="DejaVuSans-31" d="M 794 531 
L 1825 531 
L 1825 4091 
L 703 3866 
L 703 4441 
L 1819 4666 
L 2450 4666 
L 2450 531 
L 3481 531 
L 3481 0 
L 794 0 
L 794 531 
z
" transform="scale(0.015625)"/>
       </defs>
       <use xlink:href="#DejaVuSans-31"/>
       <use xlink:href="#DejaVuSans-30" x="63.623047"/>
       <use xlink:href="#DejaVuSans-30" x="127.246094"/>
       <use xlink:href="#DejaVuSans-30" x="190.869141"/>
      </g>
     </g>
    </g>
    <g id="xtick_6">
     <g id="text_6">
      <!-- 1250 -->
      <g style="fill: #838383" transform="translate(367.222411 195.822762) scale(0.1375 -0.1375)">
       <use xlink:href="#DejaVuSans-31"/>
       <use xlink:href="#DejaVuSans-32" x="63.623047"/>
       <use xlink:href="#DejaVuSans-35" x="127.246094"/>
       <use xlink:href="#DejaVuSans-30" x="190.869141"/>
      </g>
     </g>
    </g>
    <g id="xtick_7">
     <g id="text_7">
      <!-- 1500 -->
      <g style="fill: #838383" transform="translate(427.704654 195.822762) scale(0.1375 -0.1375)">
       <use xlink:href="#DejaVuSans-31"/>
       <use xlink:href="#DejaVuSans-35" x="63.623047"/>
       <use xlink:href="#DejaVuSans-30" x="127.246094"/>
       <use xlink:href="#DejaVuSans-30" x="190.869141"/>
      </g>
     </g>
    </g>
    <g id="xtick_8">
     <g id="text_8">
      <!-- 1750 -->
      <g style="fill: #838383" transform="translate(488.186898 195.822762) scale(0.1375 -0.1375)">
       <use xlink:href="#DejaVuSans-31"/>
       <use xlink:href="#DejaVuSans-37" x="63.623047"/>
       <use xlink:href="#DejaVuSans-35" x="127.246094"/>
       <use xlink:href="#DejaVuSans-30" x="190.869141"/>
      </g>
     </g>
    </g>
    <g id="xtick_9">
     <g id="text_9">
      <!-- 2000 -->
      <g style="fill: #838383" transform="translate(548.669142 195.822762) scale(0.1375 -0.1375)">
       <use xlink:href="#DejaVuSans-32"/>
       <use xlink:href="#DejaVuSans-30" x="63.623047"/>
       <use xlink:href="#DejaVuSans-30" x="127.246094"/>
       <use xlink:href="#DejaVuSans-30" x="190.869141"/>
      </g>
     </g>
    </g>
    <g id="text_10">
     <!-- Step -->
     <g style="fill: #838383" transform="translate(305.949662 214.079989) scale(0.15 -0.15)">
      <defs>
       <path id="DejaVuSans-53" d="M 3425 4513 
L 3425 3897 
Q 3066 4069 2747 4153 
Q 2428 4238 2131 4238 
Q 1616 4238 1336 4038 
Q 1056 3838 1056 3469 
Q 1056 3159 1242 3001 
Q 1428 2844 1947 2747 
L 2328 2669 
Q 3034 2534 3370 2195 
Q 3706 1856 3706 1288 
Q 3706 609 3251 259 
Q 2797 -91 1919 -91 
Q 1588 -91 1214 -16 
Q 841 59 441 206 
L 441 856 
Q 825 641 1194 531 
Q 1563 422 1919 422 
Q 2459 422 2753 634 
Q 3047 847 3047 1241 
Q 3047 1584 2836 1778 
Q 2625 1972 2144 2069 
L 1759 2144 
Q 1053 2284 737 2584 
Q 422 2884 422 3419 
Q 422 4038 858 4394 
Q 1294 4750 2059 4750 
Q 2388 4750 2728 4690 
Q 3069 4631 3425 4513 
z
" transform="scale(0.015625)"/>
       <path id="DejaVuSans-74" d="M 1172 4494 
L 1172 3500 
L 2356 3500 
L 2356 3053 
L 1172 3053 
L 1172 1153 
Q 1172 725 1289 603 
Q 1406 481 1766 481 
L 2356 481 
L 2356 0 
L 1766 0 
Q 1100 0 847 248 
Q 594 497 594 1153 
L 594 3053 
L 172 3053 
L 172 3500 
L 594 3500 
L 594 4494 
L 1172 4494 
z
" transform="scale(0.015625)"/>
       <path id="DejaVuSans-65" d="M 3597 1894 
L 3597 1613 
L 953 1613 
Q 991 1019 1311 708 
Q 1631 397 2203 397 
Q 2534 397 2845 478 
Q 3156 559 3463 722 
L 3463 178 
Q 3153 47 2828 -22 
Q 2503 -91 2169 -91 
Q 1331 -91 842 396 
Q 353 884 353 1716 
Q 353 2575 817 3079 
Q 1281 3584 2069 3584 
Q 2775 3584 3186 3129 
Q 3597 2675 3597 1894 
z
M 3022 2063 
Q 3016 2534 2758 2815 
Q 2500 3097 2075 3097 
Q 1594 3097 1305 2825 
Q 1016 2553 972 2059 
L 3022 2063 
z
" transform="scale(0.015625)"/>
       <path id="DejaVuSans-70" d="M 1159 525 
L 1159 -1331 
L 581 -1331 
L 581 3500 
L 1159 3500 
L 1159 2969 
Q 1341 3281 1617 3432 
Q 1894 3584 2278 3584 
Q 2916 3584 3314 3078 
Q 3713 2572 3713 1747 
Q 3713 922 3314 415 
Q 2916 -91 2278 -91 
Q 1894 -91 1617 61 
Q 1341 213 1159 525 
z
M 3116 1747 
Q 3116 2381 2855 2742 
Q 2594 3103 2138 3103 
Q 1681 3103 1420 2742 
Q 1159 2381 1159 1747 
Q 1159 1113 1420 752 
Q 1681 391 2138 391 
Q 2594 391 2855 752 
Q 3116 1113 3116 1747 
z
" transform="scale(0.015625)"/>
      </defs>
      <use xlink:href="#DejaVuSans-53"/>
      <use xlink:href="#DejaVuSans-74" x="63.476562"/>
      <use xlink:href="#DejaVuSans-65" x="102.685547"/>
      <use xlink:href="#DejaVuSans-70" x="164.208984"/>
     </g>
    </g>
   </g>
   <g id="matplotlib.axis_2">
    <g id="ytick_1">
     <g id="line2d_1"/>
     <g id="text_11">
      <!-- −15 -->
      <g style="fill: #023eff" transform="translate(25.717188 165.077635) scale(0.1375 -0.1375)">
       <defs>
        <path id="DejaVuSans-2212" d="M 678 2272 
L 4684 2272 
L 4684 1741 
L 678 1741 
L 678 2272 
z
" transform="scale(0.015625)"/>
       </defs>
       <use xlink:href="#DejaVuSans-2212"/>
       <use xlink:href="#DejaVuSans-31" x="83.789062"/>
       <use xlink:href="#DejaVuSans-35" x="147.412109"/>
      </g>
     </g>
    </g>
    <g id="ytick_2">
     <g id="line2d_2"/>
     <g id="text_12">
      <!-- −10 -->
      <g style="fill: #023eff" transform="translate(25.717188 110.896944) scale(0.1375 -0.1375)">
       <use xlink:href="#DejaVuSans-2212"/>
       <use xlink:href="#DejaVuSans-31" x="83.789062"/>
       <use xlink:href="#DejaVuSans-30" x="147.412109"/>
      </g>
     </g>
    </g>
    <g id="ytick_3">
     <g id="line2d_3"/>
     <g id="text_13">
      <!-- −5 -->
      <g style="fill: #023eff" transform="translate(34.465625 56.716252) scale(0.1375 -0.1375)">
       <use xlink:href="#DejaVuSans-2212"/>
       <use xlink:href="#DejaVuSans-35" x="83.789062"/>
      </g>
     </g>
    </g>
    <g id="text_14">
     <!-- loss -->
     <g style="fill: #023eff" transform="translate(18.597656 109.024174) rotate(-90) scale(0.15 -0.15)">
      <defs>
       <path id="DejaVuSans-6c" d="M 603 4863 
L 1178 4863 
L 1178 0 
L 603 0 
L 603 4863 
z
" transform="scale(0.015625)"/>
       <path id="DejaVuSans-6f" d="M 1959 3097 
Q 1497 3097 1228 2736 
Q 959 2375 959 1747 
Q 959 1119 1226 758 
Q 1494 397 1959 397 
Q 2419 397 2687 759 
Q 2956 1122 2956 1747 
Q 2956 2369 2687 2733 
Q 2419 3097 1959 3097 
z
M 1959 3584 
Q 2709 3584 3137 3096 
Q 3566 2609 3566 1747 
Q 3566 888 3137 398 
Q 2709 -91 1959 -91 
Q 1206 -91 779 398 
Q 353 888 353 1747 
Q 353 2609 779 3096 
Q 1206 3584 1959 3584 
z
" transform="scale(0.015625)"/>
       <path id="DejaVuSans-73" d="M 2834 3397 
L 2834 2853 
Q 2591 2978 2328 3040 
Q 2066 3103 1784 3103 
Q 1356 3103 1142 2972 
Q 928 2841 928 2578 
Q 928 2378 1081 2264 
Q 1234 2150 1697 2047 
L 1894 2003 
Q 2506 1872 2764 1633 
Q 3022 1394 3022 966 
Q 3022 478 2636 193 
Q 2250 -91 1575 -91 
Q 1294 -91 989 -36 
Q 684 19 347 128 
L 347 722 
Q 666 556 975 473 
Q 1284 391 1588 391 
Q 1994 391 2212 530 
Q 2431 669 2431 922 
Q 2431 1156 2273 1281 
Q 2116 1406 1581 1522 
L 1381 1569 
Q 847 1681 609 1914 
Q 372 2147 372 2553 
Q 372 3047 722 3315 
Q 1072 3584 1716 3584 
Q 2034 3584 2315 3537 
Q 2597 3491 2834 3397 
z
" transform="scale(0.015625)"/>
      </defs>
      <use xlink:href="#DejaVuSans-6c"/>
      <use xlink:href="#DejaVuSans-6f" x="27.783203"/>
      <use xlink:href="#DejaVuSans-73" x="88.964844"/>
      <use xlink:href="#DejaVuSans-73" x="141.064453"/>
     </g>
    </g>
   </g>
   <g id="line2d_4">
    <path d="M 82.308066 96.322454 
L 84.727356 52.993118 
L 89.565935 164.227203 
L 91.985225 72.348422 
L 94.404515 118.768583 
L 96.823804 78.730962 
L 99.243094 61.411128 
L 101.662384 65.842787 
L 104.081674 79.647275 
L 108.920253 42.257784 
L 111.339543 74.065038 
L 113.758833 82.112222 
L 116.178122 83.066705 
L 118.597412 44.647163 
L 123.435992 113.033989 
L 125.855282 94.667472 
L 128.274571 107.693685 
L 130.693861 88.649299 
L 133.113151 136.946771 
L 135.532441 89.65571 
L 137.95173 143.091682 
L 140.37102 86.714013 
L 142.79031 109.009252 
L 145.2096 88.108192 
L 147.628889 96.243564 
L 150.048179 57.127102 
L 152.467469 93.839159 
L 154.886759 106.159384 
L 157.306048 65.741869 
L 159.725338 118.989765 
L 162.144628 122.012358 
L 164.563918 76.255226 
L 166.983207 93.285021 
L 169.402497 76.566418 
L 171.821787 26.530148 
L 174.241077 76.933849 
L 176.660366 69.277853 
L 179.079656 95.835385 
L 181.498946 85.405937 
L 186.337525 121.830374 
L 188.756815 63.176361 
L 191.176105 43.006503 
L 193.595395 53.15818 
L 196.014684 126.644309 
L 198.433974 82.287805 
L 200.853264 57.081627 
L 203.272554 76.912405 
L 208.111133 62.621164 
L 210.530423 93.711594 
L 212.949713 91.721114 
L 215.369003 96.224342 
L 217.788292 81.847301 
L 220.207582 92.178627 
L 222.626872 57.819149 
L 227.465451 104.885184 
L 229.884741 103.616791 
L 232.304031 62.096292 
L 234.723321 105.081037 
L 237.14261 89.912824 
L 239.5619 136.400219 
L 244.40048 102.258812 
L 246.819769 59.183267 
L 249.239059 70.303543 
L 251.658349 144.306957 
L 254.077639 62.326361 
L 258.916218 83.109436 
L 261.335508 75.21095 
L 263.754798 112.372273 
L 266.174087 63.063744 
L 268.593377 75.862735 
L 271.012667 97.874189 
L 273.431957 41.412771 
L 275.851246 100.476895 
L 278.270536 103.07956 
L 280.689826 151.233181 
L 283.109116 89.070105 
L 285.528405 129.443126 
L 287.947695 77.76661 
L 295.205565 125.950123 
L 297.624854 119.530954 
L 300.044144 109.091688 
L 302.463434 127.206176 
L 304.882724 69.696628 
L 307.302013 123.375949 
L 309.721303 73.614154 
L 312.140593 64.664597 
L 314.559883 110.39441 
L 316.979172 108.620751 
L 319.398462 85.200556 
L 321.817752 102.456143 
L 324.237042 84.808334 
L 326.656331 130.150457 
L 329.075621 55.509989 
L 331.494911 53.028724 
L 333.914201 72.21644 
L 336.33349 108.61765 
L 341.17207 58.358483 
L 343.59136 54.730035 
L 346.010649 108.388439 
L 348.429939 92.304848 
L 350.849229 68.201004 
L 353.268519 120.422822 
L 358.107098 62.197986 
L 360.526388 69.918311 
L 362.945678 40.572264 
L 365.364967 101.341357 
L 367.784257 120.323004 
L 372.622837 48.172745 
L 375.042126 67.299943 
L 377.461416 65.224785 
L 379.880706 91.699443 
L 382.299996 83.120716 
L 384.719286 113.104551 
L 387.138575 68.826137 
L 389.557865 141.673816 
L 391.977155 68.387209 
L 394.396445 104.367815 
L 396.815734 108.972721 
L 399.235024 81.500694 
L 401.654314 102.532987 
L 404.073604 99.211334 
L 406.492893 91.837972 
L 408.912183 56.162368 
L 411.331473 66.78551 
L 413.750763 57.958469 
L 416.170052 62.219501 
L 418.589342 99.973943 
L 423.427922 121.466994 
L 425.847211 58.943882 
L 428.266501 78.530516 
L 430.685791 63.278756 
L 433.105081 61.946819 
L 435.52437 64.385786 
L 437.94366 80.722889 
L 440.36295 64.944378 
L 442.78224 19.157261 
L 445.201529 119.257295 
L 447.620819 81.442006 
L 450.040109 111.142076 
L 452.459399 53.341539 
L 454.878688 100.783881 
L 457.297978 96.30686 
L 459.717268 56.585097 
L 462.136558 98.007871 
L 464.555848 68.69092 
L 466.975137 82.987628 
L 469.394427 56.521961 
L 471.813717 15.139769 
L 474.233007 97.537564 
L 476.652296 73.766686 
L 479.071586 97.611639 
L 481.490876 39.038566 
L 483.910166 84.84656 
L 486.329455 110.504707 
L 488.748745 84.295926 
L 491.168035 90.35403 
L 493.587325 51.745528 
L 496.006614 100.976251 
L 498.425904 72.343999 
L 500.845194 80.164985 
L 503.264484 109.32833 
L 505.683773 77.820363 
L 508.103063 173.935142 
L 512.941643 49.595948 
L 515.360932 84.316119 
L 517.780222 43.889918 
L 520.199512 124.561131 
L 522.618802 103.9953 
L 525.038091 70.771741 
L 529.876671 52.436139 
L 532.295961 60.423571 
L 534.71525 114.385313 
L 537.13454 86.269376 
L 539.55383 70.451672 
L 541.97312 91.786487 
L 546.811699 50.979825 
L 549.230989 87.96307 
L 551.650279 74.840522 
L 554.069569 85.827467 
L 556.488858 106.673828 
L 558.908148 74.772937 
L 561.327438 80.855311 
L 563.746728 114.000635 
L 563.746728 114.000635 
" clip-path="url(#p6518c35ddd)" style="fill: none; stroke: #023eff; stroke-opacity: 0.9; stroke-width: 1.5; stroke-linecap: round"/>
   </g>
  </g>
  <g id="axes_2">
   <g id="matplotlib.axis_3">
    <g id="ytick_4">
     <g id="line2d_5"/>
     <g id="text_15">
      <!-- 0.050 -->
      <g style="fill: #ff7c00" transform="translate(591.318661 155.340216) scale(0.1375 -0.1375)">
       <defs>
        <path id="DejaVuSans-2e" d="M 684 794 
L 1344 794 
L 1344 0 
L 684 0 
L 684 794 
z
" transform="scale(0.015625)"/>
       </defs>
       <use xlink:href="#DejaVuSans-30"/>
       <use xlink:href="#DejaVuSans-2e" x="63.623047"/>
       <use xlink:href="#DejaVuSans-30" x="95.410156"/>
       <use xlink:href="#DejaVuSans-35" x="159.033203"/>
       <use xlink:href="#DejaVuSans-30" x="222.65625"/>
      </g>
     </g>
    </g>
    <g id="ytick_5">
     <g id="line2d_6"/>
     <g id="text_16">
      <!-- 0.075 -->
      <g style="fill: #ff7c00" transform="translate(591.318661 123.581141) scale(0.1375 -0.1375)">
       <use xlink:href="#DejaVuSans-30"/>
       <use xlink:href="#DejaVuSans-2e" x="63.623047"/>
       <use xlink:href="#DejaVuSans-30" x="95.410156"/>
       <use xlink:href="#DejaVuSans-37" x="159.033203"/>
       <use xlink:href="#DejaVuSans-35" x="222.65625"/>
      </g>
     </g>
    </g>
    <g id="ytick_6">
     <g id="line2d_7"/>
     <g id="text_17">
      <!-- 0.100 -->
      <g style="fill: #ff7c00" transform="translate(591.318661 91.822067) scale(0.1375 -0.1375)">
       <use xlink:href="#DejaVuSans-30"/>
       <use xlink:href="#DejaVuSans-2e" x="63.623047"/>
       <use xlink:href="#DejaVuSans-31" x="95.410156"/>
       <use xlink:href="#DejaVuSans-30" x="159.033203"/>
       <use xlink:href="#DejaVuSans-30" x="222.65625"/>
      </g>
     </g>
    </g>
    <g id="ytick_7">
     <g id="line2d_8"/>
     <g id="text_18">
      <!-- 0.125 -->
      <g style="fill: #ff7c00" transform="translate(591.318661 60.062992) scale(0.1375 -0.1375)">
       <use xlink:href="#DejaVuSans-30"/>
       <use xlink:href="#DejaVuSans-2e" x="63.623047"/>
       <use xlink:href="#DejaVuSans-31" x="95.410156"/>
       <use xlink:href="#DejaVuSans-32" x="159.033203"/>
       <use xlink:href="#DejaVuSans-35" x="222.65625"/>
      </g>
     </g>
    </g>
    <g id="ytick_8">
     <g id="line2d_9"/>
     <g id="text_19">
      <!-- 0.150 -->
      <g style="fill: #ff7c00" transform="translate(591.318661 28.303917) scale(0.1375 -0.1375)">
       <use xlink:href="#DejaVuSans-30"/>
       <use xlink:href="#DejaVuSans-2e" x="63.623047"/>
       <use xlink:href="#DejaVuSans-31" x="95.410156"/>
       <use xlink:href="#DejaVuSans-35" x="159.033203"/>
       <use xlink:href="#DejaVuSans-30" x="222.65625"/>
      </g>
     </g>
    </g>
    <g id="text_20">
     <!-- dQint -->
     <g style="fill: #ff7c00" transform="translate(646.079989 114.979643) rotate(-90) scale(0.15 -0.15)">
      <defs>
       <path id="DejaVuSans-64" d="M 2906 2969 
L 2906 4863 
L 3481 4863 
L 3481 0 
L 2906 0 
L 2906 525 
Q 2725 213 2448 61 
Q 2172 -91 1784 -91 
Q 1150 -91 751 415 
Q 353 922 353 1747 
Q 353 2572 751 3078 
Q 1150 3584 1784 3584 
Q 2172 3584 2448 3432 
Q 2725 3281 2906 2969 
z
M 947 1747 
Q 947 1113 1208 752 
Q 1469 391 1925 391 
Q 2381 391 2643 752 
Q 2906 1113 2906 1747 
Q 2906 2381 2643 2742 
Q 2381 3103 1925 3103 
Q 1469 3103 1208 2742 
Q 947 2381 947 1747 
z
" transform="scale(0.015625)"/>
       <path id="DejaVuSans-51" d="M 2522 4238 
Q 1834 4238 1429 3725 
Q 1025 3213 1025 2328 
Q 1025 1447 1429 934 
Q 1834 422 2522 422 
Q 3209 422 3611 934 
Q 4013 1447 4013 2328 
Q 4013 3213 3611 3725 
Q 3209 4238 2522 4238 
z
M 3406 84 
L 4238 -825 
L 3475 -825 
L 2784 -78 
Q 2681 -84 2626 -87 
Q 2572 -91 2522 -91 
Q 1538 -91 948 567 
Q 359 1225 359 2328 
Q 359 3434 948 4092 
Q 1538 4750 2522 4750 
Q 3503 4750 4090 4092 
Q 4678 3434 4678 2328 
Q 4678 1516 4351 937 
Q 4025 359 3406 84 
z
" transform="scale(0.015625)"/>
       <path id="DejaVuSans-69" d="M 603 3500 
L 1178 3500 
L 1178 0 
L 603 0 
L 603 3500 
z
M 603 4863 
L 1178 4863 
L 1178 4134 
L 603 4134 
L 603 4863 
z
" transform="scale(0.015625)"/>
       <path id="DejaVuSans-6e" d="M 3513 2113 
L 3513 0 
L 2938 0 
L 2938 2094 
Q 2938 2591 2744 2837 
Q 2550 3084 2163 3084 
Q 1697 3084 1428 2787 
Q 1159 2491 1159 1978 
L 1159 0 
L 581 0 
L 581 3500 
L 1159 3500 
L 1159 2956 
Q 1366 3272 1645 3428 
Q 1925 3584 2291 3584 
Q 2894 3584 3203 3211 
Q 3513 2838 3513 2113 
z
" transform="scale(0.015625)"/>
      </defs>
      <use xlink:href="#DejaVuSans-64"/>
      <use xlink:href="#DejaVuSans-51" x="63.476562"/>
      <use xlink:href="#DejaVuSans-69" x="142.1875"/>
      <use xlink:href="#DejaVuSans-6e" x="169.970703"/>
      <use xlink:href="#DejaVuSans-74" x="233.349609"/>
     </g>
    </g>
   </g>
   <g id="line2d_10">
    <path d="M 82.308066 25.064461 
L 84.727356 104.462147 
L 89.565935 54.838631 
L 91.985225 94.537417 
L 94.404515 74.688053 
L 99.243094 164.01037 
L 104.081674 114.386934 
L 106.500963 114.386877 
L 108.920253 74.688024 
L 111.339543 114.386896 
L 113.758833 124.311569 
L 116.178122 94.537436 
L 121.016702 114.38682 
L 123.435992 114.38682 
L 125.855282 94.537455 
L 128.274571 84.612782 
L 130.693861 25.064498 
L 133.113151 74.687958 
L 135.532441 84.612801 
L 137.95173 54.838631 
L 140.37102 104.462232 
L 142.79031 124.311664 
L 145.2096 64.763408 
L 147.628889 74.688062 
L 150.048179 104.462166 
L 152.467469 84.612754 
L 154.886759 74.6881 
L 157.306048 94.537522 
L 159.725338 54.838669 
L 162.144628 74.688053 
L 164.563918 134.236261 
L 166.983207 54.838555 
L 169.402497 164.010393 
L 171.821787 173.935132 
L 174.241077 84.612801 
L 176.660366 124.311588 
L 179.079656 114.386858 
L 181.498946 44.913844 
L 183.918236 114.386924 
L 186.337525 25.064517 
L 193.595395 154.085682 
L 198.433974 134.23627 
L 200.853264 144.160972 
L 203.272554 54.838631 
L 205.691844 114.386915 
L 208.111133 104.462147 
L 210.530423 64.763266 
L 212.949713 74.687996 
L 215.369003 114.386896 
L 217.788292 104.462147 
L 220.207582 114.386886 
L 225.046162 74.688005 
L 227.465451 104.462147 
L 229.884741 84.612763 
L 232.304031 134.23627 
L 234.723321 84.612801 
L 239.5619 84.612678 
L 241.98119 54.83865 
L 244.40048 144.161028 
L 246.819769 134.23628 
L 249.239059 154.085659 
L 251.658349 124.311616 
L 254.077639 114.386934 
L 256.496928 124.311588 
L 258.916218 84.612744 
L 261.335508 164.010355 
L 263.754798 34.989247 
L 266.174087 104.462242 
L 268.593377 84.612868 
L 271.012667 104.462223 
L 273.431957 94.537474 
L 275.851246 124.311607 
L 278.270536 114.386886 
L 280.689826 94.537427 
L 283.109116 144.161019 
L 285.528405 64.763361 
L 287.947695 114.386886 
L 290.366985 74.688062 
L 292.786275 134.236223 
L 295.205565 114.38683 
L 297.624854 74.687986 
L 300.044144 84.612763 
L 304.882724 124.311664 
L 307.302013 34.98919 
L 309.721303 144.160976 
L 312.140593 104.462204 
L 314.559883 104.462185 
L 316.979172 124.311626 
L 319.398462 114.386943 
L 324.237042 44.91392 
L 326.656331 44.913882 
L 329.075621 173.935142 
L 331.494911 144.160972 
L 333.914201 94.537512 
L 336.33349 94.537512 
L 338.75278 74.688034 
L 341.17207 134.236346 
L 343.59136 94.537531 
L 346.010649 114.386953 
L 348.429939 104.462166 
L 350.849229 134.236195 
L 355.687808 64.763408 
L 358.107098 84.612782 
L 360.526388 124.31155 
L 362.945678 124.311597 
L 365.364967 64.763266 
L 367.784257 54.838612 
L 372.622837 134.236336 
L 375.042126 134.236318 
L 379.880706 64.763323 
L 382.299996 124.31155 
L 384.719286 64.763342 
L 387.138575 134.23628 
L 389.557865 84.612773 
L 391.977155 74.688034 
L 394.396445 54.83865 
L 396.815734 84.612763 
L 399.235024 94.537446 
L 401.654314 84.612782 
L 404.073604 134.23628 
L 406.492893 44.91392 
L 408.912183 154.085725 
L 411.331473 124.311512 
L 413.750763 64.763389 
L 416.170052 144.160967 
L 421.008632 54.838593 
L 423.427922 25.064517 
L 425.847211 104.462081 
L 428.266501 104.462195 
L 430.685791 74.688043 
L 435.52437 144.161047 
L 437.94366 114.386801 
L 440.36295 104.462195 
L 442.78224 114.386915 
L 445.201529 74.68809 
L 447.620819 74.688053 
L 450.040109 54.838669 
L 452.459399 84.612688 
L 454.878688 94.537399 
L 457.297978 114.386934 
L 459.717268 114.386877 
L 462.136558 15.139769 
L 464.555848 94.537484 
L 466.975137 134.23628 
L 469.394427 74.68809 
L 471.813717 144.160972 
L 474.233007 74.68809 
L 476.652296 84.612782 
L 479.071586 104.462071 
L 481.490876 64.763219 
L 483.910166 64.763332 
L 486.329455 44.913996 
L 488.748745 114.386877 
L 491.168035 144.160981 
L 493.587325 134.236289 
L 498.425904 44.913863 
L 500.845194 144.161052 
L 503.264484 94.537446 
L 505.683773 74.688043 
L 508.103063 34.989152 
L 512.941643 134.236365 
L 515.360932 134.236355 
L 517.780222 114.386896 
L 520.199512 124.311588 
L 525.038091 104.462128 
L 527.457381 114.386953 
L 529.876671 44.913939 
L 532.295961 144.160972 
L 534.71525 154.085682 
L 539.55383 54.838688 
L 541.97312 134.23628 
L 544.392409 134.236384 
L 546.811699 104.462109 
L 549.230989 124.311559 
L 551.650279 84.612735 
L 554.069569 74.688034 
L 556.488858 44.913939 
L 561.327438 104.462147 
L 563.746728 94.53755 
L 563.746728 94.53755 
" clip-path="url(#p6518c35ddd)" style="fill: none; stroke: #ff7c00; stroke-opacity: 0.9; stroke-width: 1.5; stroke-linecap: round"/>
   </g>
  </g>
 </g>
 <defs>
  <clipPath id="p6518c35ddd">
   <rect x="58.236133" y="7.2" width="529.582528" height="174.674911"/>
  </clipPath>
 </defs>
</svg>
