<?xml version="1.0" encoding="utf-8" standalone="no"?>
<!DOCTYPE svg PUBLIC "-//W3C//DTD SVG 1.1//EN"
  "http://www.w3.org/Graphics/SVG/1.1/DTD/svg11.dtd">
<svg xmlns:xlink="http://www.w3.org/1999/xlink" width="656.39952pt" height="224.398837pt" viewBox="0 0 656.39952 224.398837" xmlns="http://www.w3.org/2000/svg" version="1.1">
 <metadata>
  <rdf:RDF xmlns:dc="http://purl.org/dc/elements/1.1/" xmlns:cc="http://creativecommons.org/ns#" xmlns:rdf="http://www.w3.org/1999/02/22-rdf-syntax-ns#">
   <cc:Work>
    <dc:type rdf:resource="http://purl.org/dc/dcmitype/StillImage"/>
    <dc:date>2023-12-05T11:52:16.851793</dc:date>
    <dc:format>image/svg+xml</dc:format>
    <dc:creator>
     <cc:Agent>
      <dc:title>Matplotlib v3.8.2, https://matplotlib.org/</dc:title>
     </cc:Agent>
    </dc:creator>
   </cc:Work>
  </rdf:RDF>
 </metadata>
 <defs>
  <style type="text/css">*{stroke-linejoin: round; stroke-linecap: butt}</style>
 </defs>
 <g id="figure_1">
  <g id="patch_1">
   <path d="M 0 224.398837 
L 656.39952 224.398837 
L 656.39952 0 
L 0 0 
L 0 224.398837 
z
" style="fill: none"/>
  </g>
  <g id="axes_1">
   <g id="patch_2">
    <path d="M 46.714063 181.874228 
L 596.567098 181.874228 
L 596.567098 8.321572 
L 46.714063 8.321572 
L 46.714063 181.874228 
z
" style="fill: none"/>
   </g>
   <g id="matplotlib.axis_1">
    <g id="xtick_1">
     <g id="text_1">
      <!-- 0 -->
      <g style="fill: #838383" transform="translate(67.333164 195.822079) scale(0.1375 -0.1375)">
       <defs>
        <path id="DejaVuSans-30" d="M 2034 4250 
Q 1547 4250 1301 3770 
Q 1056 3291 1056 2328 
Q 1056 1369 1301 889 
Q 1547 409 2034 409 
Q 2525 409 2770 889 
Q 3016 1369 3016 2328 
Q 3016 3291 2770 3770 
Q 2525 4250 2034 4250 
z
M 2034 4750 
Q 2819 4750 3233 4129 
Q 3647 3509 3647 2328 
Q 3647 1150 3233 529 
Q 2819 -91 2034 -91 
Q 1250 -91 836 529 
Q 422 1150 422 2328 
Q 422 3509 836 4129 
Q 1250 4750 2034 4750 
z
" transform="scale(0.015625)"/>
       </defs>
       <use xlink:href="#DejaVuSans-30"/>
      </g>
     </g>
    </g>
    <g id="xtick_2">
     <g id="text_2">
      <!-- 250 -->
      <g style="fill: #838383" transform="translate(121.382012 195.822079) scale(0.1375 -0.1375)">
       <defs>
        <path id="DejaVuSans-32" d="M 1228 531 
L 3431 531 
L 3431 0 
L 469 0 
L 469 531 
Q 828 903 1448 1529 
Q 2069 2156 2228 2338 
Q 2531 2678 2651 2914 
Q 2772 3150 2772 3378 
Q 2772 3750 2511 3984 
Q 2250 4219 1831 4219 
Q 1534 4219 1204 4116 
Q 875 4013 500 3803 
L 500 4441 
Q 881 4594 1212 4672 
Q 1544 4750 1819 4750 
Q 2544 4750 2975 4387 
Q 3406 4025 3406 3419 
Q 3406 3131 3298 2873 
Q 3191 2616 2906 2266 
Q 2828 2175 2409 1742 
Q 1991 1309 1228 531 
z
" transform="scale(0.015625)"/>
        <path id="DejaVuSans-35" d="M 691 4666 
L 3169 4666 
L 3169 4134 
L 1269 4134 
L 1269 2991 
Q 1406 3038 1543 3061 
Q 1681 3084 1819 3084 
Q 2600 3084 3056 2656 
Q 3513 2228 3513 1497 
Q 3513 744 3044 326 
Q 2575 -91 1722 -91 
Q 1428 -91 1123 -41 
Q 819 9 494 109 
L 494 744 
Q 775 591 1075 516 
Q 1375 441 1709 441 
Q 2250 441 2565 725 
Q 2881 1009 2881 1497 
Q 2881 1984 2565 2268 
Q 2250 2553 1709 2553 
Q 1456 2553 1204 2497 
Q 953 2441 691 2322 
L 691 4666 
z
" transform="scale(0.015625)"/>
       </defs>
       <use xlink:href="#DejaVuSans-32"/>
       <use xlink:href="#DejaVuSans-35" x="63.623047"/>
       <use xlink:href="#DejaVuSans-30" x="127.246094"/>
      </g>
     </g>
    </g>
    <g id="xtick_3">
     <g id="text_3">
      <!-- 500 -->
      <g style="fill: #838383" transform="translate(184.179298 195.822079) scale(0.1375 -0.1375)">
       <use xlink:href="#DejaVuSans-35"/>
       <use xlink:href="#DejaVuSans-30" x="63.623047"/>
       <use xlink:href="#DejaVuSans-30" x="127.246094"/>
      </g>
     </g>
    </g>
    <g id="xtick_4">
     <g id="text_4">
      <!-- 750 -->
      <g style="fill: #838383" transform="translate(246.976584 195.822079) scale(0.1375 -0.1375)">
       <defs>
        <path id="DejaVuSans-37" d="M 525 4666 
L 3525 4666 
L 3525 4397 
L 1831 0 
L 1172 0 
L 2766 4134 
L 525 4134 
L 525 4666 
z
" transform="scale(0.015625)"/>
       </defs>
       <use xlink:href="#DejaVuSans-37"/>
       <use xlink:href="#DejaVuSans-35" x="63.623047"/>
       <use xlink:href="#DejaVuSans-30" x="127.246094"/>
      </g>
     </g>
    </g>
    <g id="xtick_5">
     <g id="text_5">
      <!-- 1000 -->
      <g style="fill: #838383" transform="translate(305.399651 195.822079) scale(0.1375 -0.1375)">
       <defs>
        <path id="DejaVuSans-31" d="M 794 531 
L 1825 531 
L 1825 4091 
L 703 3866 
L 703 4441 
L 1819 4666 
L 2450 4666 
L 2450 531 
L 3481 531 
L 3481 0 
L 794 0 
L 794 531 
z
" transform="scale(0.015625)"/>
       </defs>
       <use xlink:href="#DejaVuSans-31"/>
       <use xlink:href="#DejaVuSans-30" x="63.623047"/>
       <use xlink:href="#DejaVuSans-30" x="127.246094"/>
       <use xlink:href="#DejaVuSans-30" x="190.869141"/>
      </g>
     </g>
    </g>
    <g id="xtick_6">
     <g id="text_6">
      <!-- 1250 -->
      <g style="fill: #838383" transform="translate(368.196937 195.822079) scale(0.1375 -0.1375)">
       <use xlink:href="#DejaVuSans-31"/>
       <use xlink:href="#DejaVuSans-32" x="63.623047"/>
       <use xlink:href="#DejaVuSans-35" x="127.246094"/>
       <use xlink:href="#DejaVuSans-30" x="190.869141"/>
      </g>
     </g>
    </g>
    <g id="xtick_7">
     <g id="text_7">
      <!-- 1500 -->
      <g style="fill: #838383" transform="translate(430.994223 195.822079) scale(0.1375 -0.1375)">
       <use xlink:href="#DejaVuSans-31"/>
       <use xlink:href="#DejaVuSans-35" x="63.623047"/>
       <use xlink:href="#DejaVuSans-30" x="127.246094"/>
       <use xlink:href="#DejaVuSans-30" x="190.869141"/>
      </g>
     </g>
    </g>
    <g id="xtick_8">
     <g id="text_8">
      <!-- 1750 -->
      <g style="fill: #838383" transform="translate(493.791509 195.822079) scale(0.1375 -0.1375)">
       <use xlink:href="#DejaVuSans-31"/>
       <use xlink:href="#DejaVuSans-37" x="63.623047"/>
       <use xlink:href="#DejaVuSans-35" x="127.246094"/>
       <use xlink:href="#DejaVuSans-30" x="190.869141"/>
      </g>
     </g>
    </g>
    <g id="xtick_9">
     <g id="text_9">
      <!-- 2000 -->
      <g style="fill: #838383" transform="translate(556.588795 195.822079) scale(0.1375 -0.1375)">
       <use xlink:href="#DejaVuSans-32"/>
       <use xlink:href="#DejaVuSans-30" x="63.623047"/>
       <use xlink:href="#DejaVuSans-30" x="127.246094"/>
       <use xlink:href="#DejaVuSans-30" x="190.869141"/>
      </g>
     </g>
    </g>
    <g id="text_10">
     <!-- Step -->
     <g style="fill: #838383" transform="translate(304.562846 214.079306) scale(0.15 -0.15)">
      <defs>
       <path id="DejaVuSans-53" d="M 3425 4513 
L 3425 3897 
Q 3066 4069 2747 4153 
Q 2428 4238 2131 4238 
Q 1616 4238 1336 4038 
Q 1056 3838 1056 3469 
Q 1056 3159 1242 3001 
Q 1428 2844 1947 2747 
L 2328 2669 
Q 3034 2534 3370 2195 
Q 3706 1856 3706 1288 
Q 3706 609 3251 259 
Q 2797 -91 1919 -91 
Q 1588 -91 1214 -16 
Q 841 59 441 206 
L 441 856 
Q 825 641 1194 531 
Q 1563 422 1919 422 
Q 2459 422 2753 634 
Q 3047 847 3047 1241 
Q 3047 1584 2836 1778 
Q 2625 1972 2144 2069 
L 1759 2144 
Q 1053 2284 737 2584 
Q 422 2884 422 3419 
Q 422 4038 858 4394 
Q 1294 4750 2059 4750 
Q 2388 4750 2728 4690 
Q 3069 4631 3425 4513 
z
" transform="scale(0.015625)"/>
       <path id="DejaVuSans-74" d="M 1172 4494 
L 1172 3500 
L 2356 3500 
L 2356 3053 
L 1172 3053 
L 1172 1153 
Q 1172 725 1289 603 
Q 1406 481 1766 481 
L 2356 481 
L 2356 0 
L 1766 0 
Q 1100 0 847 248 
Q 594 497 594 1153 
L 594 3053 
L 172 3053 
L 172 3500 
L 594 3500 
L 594 4494 
L 1172 4494 
z
" transform="scale(0.015625)"/>
       <path id="DejaVuSans-65" d="M 3597 1894 
L 3597 1613 
L 953 1613 
Q 991 1019 1311 708 
Q 1631 397 2203 397 
Q 2534 397 2845 478 
Q 3156 559 3463 722 
L 3463 178 
Q 3153 47 2828 -22 
Q 2503 -91 2169 -91 
Q 1331 -91 842 396 
Q 353 884 353 1716 
Q 353 2575 817 3079 
Q 1281 3584 2069 3584 
Q 2775 3584 3186 3129 
Q 3597 2675 3597 1894 
z
M 3022 2063 
Q 3016 2534 2758 2815 
Q 2500 3097 2075 3097 
Q 1594 3097 1305 2825 
Q 1016 2553 972 2059 
L 3022 2063 
z
" transform="scale(0.015625)"/>
       <path id="DejaVuSans-70" d="M 1159 525 
L 1159 -1331 
L 581 -1331 
L 581 3500 
L 1159 3500 
L 1159 2969 
Q 1341 3281 1617 3432 
Q 1894 3584 2278 3584 
Q 2916 3584 3314 3078 
Q 3713 2572 3713 1747 
Q 3713 922 3314 415 
Q 2916 -91 2278 -91 
Q 1894 -91 1617 61 
Q 1341 213 1159 525 
z
M 3116 1747 
Q 3116 2381 2855 2742 
Q 2594 3103 2138 3103 
Q 1681 3103 1420 2742 
Q 1159 2381 1159 1747 
Q 1159 1113 1420 752 
Q 1681 391 2138 391 
Q 2594 391 2855 752 
Q 3116 1113 3116 1747 
z
" transform="scale(0.015625)"/>
      </defs>
      <use xlink:href="#DejaVuSans-53"/>
      <use xlink:href="#DejaVuSans-74" x="63.476562"/>
      <use xlink:href="#DejaVuSans-65" x="102.685547"/>
      <use xlink:href="#DejaVuSans-70" x="164.208984"/>
     </g>
    </g>
   </g>
   <g id="matplotlib.axis_2">
    <g id="ytick_1">
     <g id="line2d_1"/>
     <g id="text_11">
      <!-- 45 -->
      <g style="fill: #023eff" transform="translate(25.717188 180.80218) scale(0.1375 -0.1375)">
       <defs>
        <path id="DejaVuSans-34" d="M 2419 4116 
L 825 1625 
L 2419 1625 
L 2419 4116 
z
M 2253 4666 
L 3047 4666 
L 3047 1625 
L 3713 1625 
L 3713 1100 
L 3047 1100 
L 3047 0 
L 2419 0 
L 2419 1100 
L 313 1100 
L 313 1709 
L 2253 4666 
z
" transform="scale(0.015625)"/>
       </defs>
       <use xlink:href="#DejaVuSans-34"/>
       <use xlink:href="#DejaVuSans-35" x="63.623047"/>
      </g>
     </g>
    </g>
    <g id="ytick_2">
     <g id="line2d_2"/>
     <g id="text_12">
      <!-- 50 -->
      <g style="fill: #023eff" transform="translate(25.717188 141.668693) scale(0.1375 -0.1375)">
       <use xlink:href="#DejaVuSans-35"/>
       <use xlink:href="#DejaVuSans-30" x="63.623047"/>
      </g>
     </g>
    </g>
    <g id="ytick_3">
     <g id="line2d_3"/>
     <g id="text_13">
      <!-- 55 -->
      <g style="fill: #023eff" transform="translate(25.717188 102.535206) scale(0.1375 -0.1375)">
       <use xlink:href="#DejaVuSans-35"/>
       <use xlink:href="#DejaVuSans-35" x="63.623047"/>
      </g>
     </g>
    </g>
    <g id="ytick_4">
     <g id="line2d_4"/>
     <g id="text_14">
      <!-- 60 -->
      <g style="fill: #023eff" transform="translate(25.717188 63.401719) scale(0.1375 -0.1375)">
       <defs>
        <path id="DejaVuSans-36" d="M 2113 2584 
Q 1688 2584 1439 2293 
Q 1191 2003 1191 1497 
Q 1191 994 1439 701 
Q 1688 409 2113 409 
Q 2538 409 2786 701 
Q 3034 994 3034 1497 
Q 3034 2003 2786 2293 
Q 2538 2584 2113 2584 
z
M 3366 4563 
L 3366 3988 
Q 3128 4100 2886 4159 
Q 2644 4219 2406 4219 
Q 1781 4219 1451 3797 
Q 1122 3375 1075 2522 
Q 1259 2794 1537 2939 
Q 1816 3084 2150 3084 
Q 2853 3084 3261 2657 
Q 3669 2231 3669 1497 
Q 3669 778 3244 343 
Q 2819 -91 2113 -91 
Q 1303 -91 875 529 
Q 447 1150 447 2328 
Q 447 3434 972 4092 
Q 1497 4750 2381 4750 
Q 2619 4750 2861 4703 
Q 3103 4656 3366 4563 
z
" transform="scale(0.015625)"/>
       </defs>
       <use xlink:href="#DejaVuSans-36"/>
       <use xlink:href="#DejaVuSans-30" x="63.623047"/>
      </g>
     </g>
    </g>
    <g id="ytick_5">
     <g id="line2d_5"/>
     <g id="text_15">
      <!-- 65 -->
      <g style="fill: #023eff" transform="translate(25.717188 24.268232) scale(0.1375 -0.1375)">
       <use xlink:href="#DejaVuSans-36"/>
       <use xlink:href="#DejaVuSans-35" x="63.623047"/>
      </g>
     </g>
    </g>
    <g id="text_16">
     <!-- loss -->
     <g style="fill: #023eff" transform="translate(18.597656 109.584619) rotate(-90) scale(0.15 -0.15)">
      <defs>
       <path id="DejaVuSans-6c" d="M 603 4863 
L 1178 4863 
L 1178 0 
L 603 0 
L 603 4863 
z
" transform="scale(0.015625)"/>
       <path id="DejaVuSans-6f" d="M 1959 3097 
Q 1497 3097 1228 2736 
Q 959 2375 959 1747 
Q 959 1119 1226 758 
Q 1494 397 1959 397 
Q 2419 397 2687 759 
Q 2956 1122 2956 1747 
Q 2956 2369 2687 2733 
Q 2419 3097 1959 3097 
z
M 1959 3584 
Q 2709 3584 3137 3096 
Q 3566 2609 3566 1747 
Q 3566 888 3137 398 
Q 2709 -91 1959 -91 
Q 1206 -91 779 398 
Q 353 888 353 1747 
Q 353 2609 779 3096 
Q 1206 3584 1959 3584 
z
" transform="scale(0.015625)"/>
       <path id="DejaVuSans-73" d="M 2834 3397 
L 2834 2853 
Q 2591 2978 2328 3040 
Q 2066 3103 1784 3103 
Q 1356 3103 1142 2972 
Q 928 2841 928 2578 
Q 928 2378 1081 2264 
Q 1234 2150 1697 2047 
L 1894 2003 
Q 2506 1872 2764 1633 
Q 3022 1394 3022 966 
Q 3022 478 2636 193 
Q 2250 -91 1575 -91 
Q 1294 -91 989 -36 
Q 684 19 347 128 
L 347 722 
Q 666 556 975 473 
Q 1284 391 1588 391 
Q 1994 391 2212 530 
Q 2431 669 2431 922 
Q 2431 1156 2273 1281 
Q 2116 1406 1581 1522 
L 1381 1569 
Q 847 1681 609 1914 
Q 372 2147 372 2553 
Q 372 3047 722 3315 
Q 1072 3584 1716 3584 
Q 2034 3584 2315 3537 
Q 2597 3491 2834 3397 
z
" transform="scale(0.015625)"/>
      </defs>
      <use xlink:href="#DejaVuSans-6c"/>
      <use xlink:href="#DejaVuSans-6f" x="27.783203"/>
      <use xlink:href="#DejaVuSans-73" x="88.964844"/>
      <use xlink:href="#DejaVuSans-73" x="141.064453"/>
     </g>
    </g>
   </g>
   <g id="line2d_6">
    <path d="M 71.707382 162.707215 
L 74.219274 156.501874 
L 76.731165 145.367227 
L 79.243057 173.985471 
L 81.754948 147.19955 
L 84.266839 158.644972 
L 86.778731 137.010697 
L 89.290622 133.242719 
L 91.802514 153.647594 
L 94.314405 107.298632 
L 96.826297 166.003997 
L 99.338188 110.535612 
L 101.85008 120.371979 
L 104.361971 95.501799 
L 106.873862 136.752349 
L 109.385754 139.009678 
L 111.897645 123.603435 
L 114.409537 73.089374 
L 116.921428 133.178707 
L 119.43332 137.046614 
L 124.457102 33.195204 
L 126.968994 74.412703 
L 129.480885 66.811989 
L 131.992777 89.366113 
L 134.504668 74.290262 
L 137.01656 72.178841 
L 139.528451 65.499528 
L 142.040343 65.87996 
L 144.552234 130.553068 
L 147.064125 99.998752 
L 149.576017 37.364363 
L 152.087908 48.820862 
L 154.5998 90.269749 
L 159.623583 43.808108 
L 164.647365 120.366395 
L 167.159257 106.676273 
L 169.671148 45.340641 
L 172.18304 102.963769 
L 174.694931 62.101592 
L 177.206823 71.878724 
L 179.718714 75.321385 
L 182.230606 73.076118 
L 184.742497 57.353516 
L 187.254388 106.044988 
L 189.76628 109.19613 
L 192.278171 125.915461 
L 194.790063 67.171342 
L 197.301954 121.119734 
L 199.813846 98.393906 
L 202.325737 113.446977 
L 204.837628 94.497844 
L 207.34952 112.089582 
L 209.861411 59.108898 
L 212.373303 61.872026 
L 214.885194 54.070139 
L 217.397086 79.74925 
L 219.908977 94.257589 
L 222.420869 24.361985 
L 224.93276 86.520073 
L 229.956543 97.871298 
L 232.468434 130.161769 
L 234.980326 113.301874 
L 237.492217 69.993287 
L 240.004109 102.419665 
L 242.516 109.369985 
L 245.027891 56.437937 
L 247.539783 81.531951 
L 250.051674 90.672961 
L 252.563566 122.798594 
L 255.075457 70.858826 
L 257.587349 88.942091 
L 260.09924 98.16434 
L 262.611132 36.913709 
L 265.123023 89.284246 
L 267.634914 90.150203 
L 270.146806 104.613459 
L 272.658697 97.81066 
L 275.170589 110.781987 
L 277.68248 165.643928 
L 280.194372 109.011617 
L 282.706263 116.071063 
L 285.218154 99.012264 
L 287.730046 47.869276 
L 290.241937 111.297131 
L 292.753829 22.676646 
L 295.26572 57.624195 
L 297.777612 39.222869 
L 300.289503 116.761494 
L 302.801395 106.266404 
L 305.313286 43.535936 
L 307.825177 160.094265 
L 310.337069 77.637263 
L 312.84896 101.86517 
L 315.360852 159.973705 
L 317.872743 86.364999 
L 320.384635 103.38791 
L 322.896526 70.151676 
L 325.408417 149.73535 
L 327.920309 59.624639 
L 330.4322 97.262525 
L 332.944092 71.08478 
L 335.455983 98.293678 
L 337.967875 94.677372 
L 340.479766 72.332901 
L 342.991658 16.210329 
L 345.503549 114.325593 
L 348.01544 88.677264 
L 350.527332 88.635883 
L 353.039223 52.58257 
L 355.551115 67.928383 
L 358.063006 63.140359 
L 363.086789 90.173103 
L 365.59868 85.938589 
L 368.110572 112.826619 
L 370.622463 104.117483 
L 373.134355 124.999942 
L 378.158138 81.160775 
L 383.181921 107.000425 
L 385.693812 118.390255 
L 388.205703 35.622386 
L 390.717595 88.801377 
L 393.229486 97.817079 
L 395.741378 46.023459 
L 398.253269 113.763485 
L 403.277052 71.602283 
L 405.788943 79.669981 
L 408.300835 76.060213 
L 410.812726 98.544473 
L 413.324618 94.418128 
L 415.836509 124.879859 
L 418.348401 110.929747 
L 420.860292 28.028958 
L 428.395966 117.783332 
L 430.907858 82.473356 
L 433.419749 91.754332 
L 435.931641 86.688225 
L 438.443532 91.947623 
L 440.955424 121.963568 
L 445.979206 40.580593 
L 448.491098 97.77525 
L 451.002989 63.150988 
L 453.514881 55.015156 
L 456.026772 30.890224 
L 458.538664 55.067763 
L 461.050555 32.780796 
L 463.562447 89.644435 
L 466.074338 29.610933 
L 468.586229 100.933588 
L 471.098121 87.60452 
L 473.610012 35.384341 
L 476.121904 61.357509 
L 478.633795 124.281058 
L 481.145687 104.737573 
L 483.657578 66.826261 
L 486.169469 142.859313 
L 488.681361 128.032644 
L 491.193252 88.234791 
L 496.217035 130.734357 
L 498.728927 116.254441 
L 501.240818 128.505571 
L 503.75271 59.618339 
L 506.264601 118.610894 
L 508.776492 150.56948 
L 511.288384 96.408331 
L 513.800275 103.47324 
L 516.312167 93.571637 
L 521.33595 121.921799 
L 523.847841 92.448406 
L 526.359732 19.707061 
L 528.871624 82.154518 
L 531.383515 96.859104 
L 533.895407 86.964397 
L 536.407298 101.386511 
L 538.91919 94.34077 
L 541.431081 55.262905 
L 543.942973 94.335007 
L 546.454864 68.773769 
L 548.966755 93.676732 
L 551.478647 102.524998 
L 553.990538 92.942262 
L 556.50243 49.119039 
L 559.014321 83.788862 
L 561.526213 42.774656 
L 564.038104 80.609983 
L 566.549995 69.644235 
L 569.061887 114.681602 
L 571.573778 72.245331 
L 571.573778 72.245331 
" clip-path="url(#pdf3d09338e)" style="fill: none; stroke: #023eff; stroke-opacity: 0.9; stroke-width: 1.5; stroke-linecap: round"/>
   </g>
  </g>
  <g id="axes_2">
   <g id="matplotlib.axis_3">
    <g id="ytick_6">
     <g id="line2d_7"/>
     <g id="text_17">
      <!-- 0.00 -->
      <g style="fill: #ff7c00" transform="translate(600.067098 179.209421) scale(0.1375 -0.1375)">
       <defs>
        <path id="DejaVuSans-2e" d="M 684 794 
L 1344 794 
L 1344 0 
L 684 0 
L 684 794 
z
" transform="scale(0.015625)"/>
       </defs>
       <use xlink:href="#DejaVuSans-30"/>
       <use xlink:href="#DejaVuSans-2e" x="63.623047"/>
       <use xlink:href="#DejaVuSans-30" x="95.410156"/>
       <use xlink:href="#DejaVuSans-30" x="159.033203"/>
      </g>
     </g>
    </g>
    <g id="ytick_7">
     <g id="line2d_8"/>
     <g id="text_18">
      <!-- 0.01 -->
      <g style="fill: #ff7c00" transform="translate(600.067098 138.819029) scale(0.1375 -0.1375)">
       <use xlink:href="#DejaVuSans-30"/>
       <use xlink:href="#DejaVuSans-2e" x="63.623047"/>
       <use xlink:href="#DejaVuSans-30" x="95.410156"/>
       <use xlink:href="#DejaVuSans-31" x="159.033203"/>
      </g>
     </g>
    </g>
    <g id="ytick_8">
     <g id="line2d_9"/>
     <g id="text_19">
      <!-- 0.02 -->
      <g style="fill: #ff7c00" transform="translate(600.067098 98.428636) scale(0.1375 -0.1375)">
       <use xlink:href="#DejaVuSans-30"/>
       <use xlink:href="#DejaVuSans-2e" x="63.623047"/>
       <use xlink:href="#DejaVuSans-30" x="95.410156"/>
       <use xlink:href="#DejaVuSans-32" x="159.033203"/>
      </g>
     </g>
    </g>
    <g id="ytick_9">
     <g id="line2d_10"/>
     <g id="text_20">
      <!-- 0.03 -->
      <g style="fill: #ff7c00" transform="translate(600.067098 58.038244) scale(0.1375 -0.1375)">
       <defs>
        <path id="DejaVuSans-33" d="M 2597 2516 
Q 3050 2419 3304 2112 
Q 3559 1806 3559 1356 
Q 3559 666 3084 287 
Q 2609 -91 1734 -91 
Q 1441 -91 1130 -33 
Q 819 25 488 141 
L 488 750 
Q 750 597 1062 519 
Q 1375 441 1716 441 
Q 2309 441 2620 675 
Q 2931 909 2931 1356 
Q 2931 1769 2642 2001 
Q 2353 2234 1838 2234 
L 1294 2234 
L 1294 2753 
L 1863 2753 
Q 2328 2753 2575 2939 
Q 2822 3125 2822 3475 
Q 2822 3834 2567 4026 
Q 2313 4219 1838 4219 
Q 1578 4219 1281 4162 
Q 984 4106 628 3988 
L 628 4550 
Q 988 4650 1302 4700 
Q 1616 4750 1894 4750 
Q 2613 4750 3031 4423 
Q 3450 4097 3450 3541 
Q 3450 3153 3228 2886 
Q 3006 2619 2597 2516 
z
" transform="scale(0.015625)"/>
       </defs>
       <use xlink:href="#DejaVuSans-30"/>
       <use xlink:href="#DejaVuSans-2e" x="63.623047"/>
       <use xlink:href="#DejaVuSans-30" x="95.410156"/>
       <use xlink:href="#DejaVuSans-33" x="159.033203"/>
      </g>
     </g>
    </g>
    <g id="ytick_10">
     <g id="line2d_11"/>
     <g id="text_21">
      <!-- 0.04 -->
      <g style="fill: #ff7c00" transform="translate(600.067098 17.647852) scale(0.1375 -0.1375)">
       <use xlink:href="#DejaVuSans-30"/>
       <use xlink:href="#DejaVuSans-2e" x="63.623047"/>
       <use xlink:href="#DejaVuSans-30" x="95.410156"/>
       <use xlink:href="#DejaVuSans-34" x="159.033203"/>
      </g>
     </g>
    </g>
    <g id="text_22">
     <!-- dQint -->
     <g style="fill: #ff7c00" transform="translate(646.079989 115.540088) rotate(-90) scale(0.15 -0.15)">
      <defs>
       <path id="DejaVuSans-64" d="M 2906 2969 
L 2906 4863 
L 3481 4863 
L 3481 0 
L 2906 0 
L 2906 525 
Q 2725 213 2448 61 
Q 2172 -91 1784 -91 
Q 1150 -91 751 415 
Q 353 922 353 1747 
Q 353 2572 751 3078 
Q 1150 3584 1784 3584 
Q 2172 3584 2448 3432 
Q 2725 3281 2906 2969 
z
M 947 1747 
Q 947 1113 1208 752 
Q 1469 391 1925 391 
Q 2381 391 2643 752 
Q 2906 1113 2906 1747 
Q 2906 2381 2643 2742 
Q 2381 3103 1925 3103 
Q 1469 3103 1208 2742 
Q 947 2381 947 1747 
z
" transform="scale(0.015625)"/>
       <path id="DejaVuSans-51" d="M 2522 4238 
Q 1834 4238 1429 3725 
Q 1025 3213 1025 2328 
Q 1025 1447 1429 934 
Q 1834 422 2522 422 
Q 3209 422 3611 934 
Q 4013 1447 4013 2328 
Q 4013 3213 3611 3725 
Q 3209 4238 2522 4238 
z
M 3406 84 
L 4238 -825 
L 3475 -825 
L 2784 -78 
Q 2681 -84 2626 -87 
Q 2572 -91 2522 -91 
Q 1538 -91 948 567 
Q 359 1225 359 2328 
Q 359 3434 948 4092 
Q 1538 4750 2522 4750 
Q 3503 4750 4090 4092 
Q 4678 3434 4678 2328 
Q 4678 1516 4351 937 
Q 4025 359 3406 84 
z
" transform="scale(0.015625)"/>
       <path id="DejaVuSans-69" d="M 603 3500 
L 1178 3500 
L 1178 0 
L 603 0 
L 603 3500 
z
M 603 4863 
L 1178 4863 
L 1178 4134 
L 603 4134 
L 603 4863 
z
" transform="scale(0.015625)"/>
       <path id="DejaVuSans-6e" d="M 3513 2113 
L 3513 0 
L 2938 0 
L 2938 2094 
Q 2938 2591 2744 2837 
Q 2550 3084 2163 3084 
Q 1697 3084 1428 2787 
Q 1159 2491 1159 1978 
L 1159 0 
L 581 0 
L 581 3500 
L 1159 3500 
L 1159 2956 
Q 1366 3272 1645 3428 
Q 1925 3584 2291 3584 
Q 2894 3584 3203 3211 
Q 3513 2838 3513 2113 
z
" transform="scale(0.015625)"/>
      </defs>
      <use xlink:href="#DejaVuSans-64"/>
      <use xlink:href="#DejaVuSans-51" x="63.476562"/>
      <use xlink:href="#DejaVuSans-69" x="142.1875"/>
      <use xlink:href="#DejaVuSans-6e" x="169.970703"/>
      <use xlink:href="#DejaVuSans-74" x="233.349609"/>
     </g>
    </g>
   </g>
   <g id="line2d_12">
    <path d="M 71.707382 47.765354 
L 74.219274 110.875477 
L 76.731165 110.875342 
L 79.243057 47.765293 
L 81.754948 47.765474 
L 84.266839 16.210405 
L 86.778731 110.875409 
L 89.290622 142.43049 
L 91.802514 110.875349 
L 94.314405 173.985334 
L 96.826297 79.320438 
L 99.338188 173.985395 
L 101.85008 110.875492 
L 106.873862 173.985236 
L 109.385754 16.21042 
L 111.897645 142.430366 
L 114.409537 110.875349 
L 119.43332 110.875417 
L 121.945211 142.43037 
L 124.457102 142.430373 
L 126.968994 110.875409 
L 129.480885 110.875447 
L 131.992777 79.320498 
L 134.504668 173.985448 
L 137.01656 142.430479 
L 139.528451 173.985336 
L 142.040343 173.985441 
L 144.552234 110.875409 
L 149.576017 173.985386 
L 152.087908 173.985374 
L 154.5998 47.765429 
L 157.111691 173.985415 
L 162.135474 47.765429 
L 164.647365 110.875372 
L 167.159257 79.320348 
L 169.671148 142.430366 
L 172.18304 173.985403 
L 174.694931 142.430479 
L 177.206823 173.985318 
L 179.718714 173.985335 
L 184.742497 110.87547 
L 187.254388 173.985387 
L 189.76628 173.985318 
L 192.278171 110.875327 
L 197.301954 173.985387 
L 199.813846 110.875394 
L 202.325737 79.320476 
L 204.837628 142.430486 
L 207.34952 142.4304 
L 209.861411 110.875447 
L 212.373303 110.875432 
L 214.885194 79.320468 
L 219.908977 142.43043 
L 222.420869 142.4304 
L 224.93276 173.985436 
L 227.444651 142.430422 
L 229.956543 173.98535 
L 232.468434 110.875327 
L 234.980326 173.985396 
L 237.492217 142.430403 
L 240.004109 79.320415 
L 242.516 79.32031 
L 245.027891 173.98533 
L 247.539783 79.320483 
L 250.051674 47.765504 
L 255.075457 173.985362 
L 257.587349 110.875455 
L 260.09924 173.985396 
L 265.123023 110.875447 
L 267.634914 142.430411 
L 270.146806 110.875357 
L 272.658697 110.875334 
L 277.68248 173.985345 
L 280.194372 47.765474 
L 282.706263 142.430343 
L 285.218154 142.430392 
L 287.730046 47.765384 
L 290.241937 110.875432 
L 292.753829 110.875455 
L 295.26572 142.430467 
L 300.289503 142.430475 
L 302.801395 79.320385 
L 305.313286 142.430434 
L 307.825177 142.430445 
L 310.337069 110.875417 
L 312.84896 142.430388 
L 315.360852 110.875447 
L 317.872743 142.430482 
L 320.384635 110.875394 
L 322.896526 110.875447 
L 325.408417 79.320348 
L 327.920309 173.985435 
L 332.944092 47.765459 
L 335.455983 47.765444 
L 337.967875 142.430403 
L 340.479766 79.320393 
L 342.991658 173.985454 
L 345.503549 110.87547 
L 348.01544 110.875312 
L 350.527332 47.765339 
L 353.039223 173.985396 
L 355.551115 79.320483 
L 358.063006 142.430449 
L 360.574898 173.985403 
L 365.59868 110.875485 
L 368.110572 173.98532 
L 370.622463 173.985414 
L 373.134355 142.430396 
L 375.646246 173.985367 
L 378.158138 110.875417 
L 380.670029 142.43043 
L 383.181921 47.765278 
L 385.693812 173.985356 
L 388.205703 173.985424 
L 390.717595 16.210329 
L 393.229486 47.765354 
L 395.741378 173.985395 
L 400.765161 173.985426 
L 403.277052 142.43046 
L 410.812726 142.430434 
L 413.324618 173.985436 
L 415.836509 173.985417 
L 418.348401 110.875447 
L 420.860292 173.985415 
L 423.372184 142.430411 
L 425.884075 173.985462 
L 428.395966 142.430388 
L 430.907858 16.21048 
L 433.419749 16.210405 
L 435.931641 142.430351 
L 438.443532 142.430411 
L 440.955424 173.985414 
L 443.467315 142.430452 
L 445.979206 142.430411 
L 448.491098 173.985424 
L 453.514881 173.985385 
L 456.026772 142.430411 
L 461.050555 142.43043 
L 463.562447 110.875439 
L 466.074338 173.985379 
L 468.586229 142.430441 
L 471.098121 142.43046 
L 473.610012 173.985429 
L 478.633795 173.985423 
L 483.657578 110.875334 
L 488.681361 110.875417 
L 491.193252 79.320438 
L 493.705144 173.985333 
L 496.217035 142.430449 
L 498.728927 79.320468 
L 501.240818 47.765444 
L 503.75271 142.430471 
L 506.264601 110.875402 
L 508.776492 16.210435 
L 511.288384 110.875447 
L 513.800275 142.430392 
L 516.312167 79.320445 
L 518.824058 173.985425 
L 521.33595 110.875372 
L 523.847841 173.985306 
L 526.359732 142.430464 
L 528.871624 173.985365 
L 531.383515 110.875379 
L 533.895407 173.985398 
L 536.407298 110.875274 
L 538.91919 110.875387 
L 543.942973 173.985471 
L 546.454864 173.985439 
L 548.966755 142.430392 
L 551.478647 173.985333 
L 553.990538 142.43037 
L 556.50243 142.430385 
L 559.014321 110.875424 
L 564.038104 173.985446 
L 566.549995 110.875432 
L 569.061887 142.430415 
L 571.573778 142.430445 
L 571.573778 142.430445 
" clip-path="url(#pdf3d09338e)" style="fill: none; stroke: #ff7c00; stroke-opacity: 0.9; stroke-width: 1.5; stroke-linecap: round"/>
   </g>
  </g>
 </g>
 <defs>
  <clipPath id="pdf3d09338e">
   <rect x="46.714063" y="8.321572" width="549.853036" height="173.552655"/>
  </clipPath>
 </defs>
</svg>
