<?xml version="1.0" encoding="utf-8" standalone="no"?>
<!DOCTYPE svg PUBLIC "-//W3C//DTD SVG 1.1//EN"
  "http://www.w3.org/Graphics/SVG/1.1/DTD/svg11.dtd">
<svg xmlns:xlink="http://www.w3.org/1999/xlink" width="313.528897pt" height="234.534474pt" viewBox="0 0 313.528897 234.534474" xmlns="http://www.w3.org/2000/svg" version="1.1">
 <metadata>
  <rdf:RDF xmlns:dc="http://purl.org/dc/elements/1.1/" xmlns:cc="http://creativecommons.org/ns#" xmlns:rdf="http://www.w3.org/1999/02/22-rdf-syntax-ns#">
   <cc:Work>
    <dc:type rdf:resource="http://purl.org/dc/dcmitype/StillImage"/>
    <dc:date>2023-12-05T11:41:53.137676</dc:date>
    <dc:format>image/svg+xml</dc:format>
    <dc:creator>
     <cc:Agent>
      <dc:title>Matplotlib v3.8.2, https://matplotlib.org/</dc:title>
     </cc:Agent>
    </dc:creator>
   </cc:Work>
  </rdf:RDF>
 </metadata>
 <defs>
  <style type="text/css">*{stroke-linejoin: round; stroke-linecap: butt}</style>
 </defs>
 <g id="figure_1">
  <g id="patch_1">
   <path d="M 0 234.534474 
L 313.528897 234.534474 
L 313.528897 0 
L 0 0 
L 0 234.534474 
z
" style="fill: none"/>
  </g>
  <g id="axes_1">
   <g id="patch_2">
    <path d="M 37.965625 192.009865 
L 304.341715 192.009865 
L 304.341715 28.442513 
L 37.965625 28.442513 
L 37.965625 192.009865 
z
" style="fill: none"/>
   </g>
   <g id="matplotlib.axis_1">
    <g id="xtick_1">
     <g id="text_1">
      <!-- 0 -->
      <g style="fill: #838383" transform="translate(45.69941 205.957716) scale(0.1375 -0.1375)">
       <defs>
        <path id="DejaVuSans-30" d="M 2034 4250 
Q 1547 4250 1301 3770 
Q 1056 3291 1056 2328 
Q 1056 1369 1301 889 
Q 1547 409 2034 409 
Q 2525 409 2770 889 
Q 3016 1369 3016 2328 
Q 3016 3291 2770 3770 
Q 2525 4250 2034 4250 
z
M 2034 4750 
Q 2819 4750 3233 4129 
Q 3647 3509 3647 2328 
Q 3647 1150 3233 529 
Q 2819 -91 2034 -91 
Q 1250 -91 836 529 
Q 422 1150 422 2328 
Q 422 3509 836 4129 
Q 1250 4750 2034 4750 
z
" transform="scale(0.015625)"/>
       </defs>
       <use xlink:href="#DejaVuSans-30"/>
      </g>
     </g>
    </g>
    <g id="xtick_2">
     <g id="text_2">
      <!-- 50 -->
      <g style="fill: #838383" transform="translate(89.951714 205.957716) scale(0.1375 -0.1375)">
       <defs>
        <path id="DejaVuSans-35" d="M 691 4666 
L 3169 4666 
L 3169 4134 
L 1269 4134 
L 1269 2991 
Q 1406 3038 1543 3061 
Q 1681 3084 1819 3084 
Q 2600 3084 3056 2656 
Q 3513 2228 3513 1497 
Q 3513 744 3044 326 
Q 2575 -91 1722 -91 
Q 1428 -91 1123 -41 
Q 819 9 494 109 
L 494 744 
Q 775 591 1075 516 
Q 1375 441 1709 441 
Q 2250 441 2565 725 
Q 2881 1009 2881 1497 
Q 2881 1984 2565 2268 
Q 2250 2553 1709 2553 
Q 1456 2553 1204 2497 
Q 953 2441 691 2322 
L 691 4666 
z
" transform="scale(0.015625)"/>
       </defs>
       <use xlink:href="#DejaVuSans-35"/>
       <use xlink:href="#DejaVuSans-30" x="63.623047"/>
      </g>
     </g>
    </g>
    <g id="xtick_3">
     <g id="text_3">
      <!-- 100 -->
      <g style="fill: #838383" transform="translate(134.204018 205.957716) scale(0.1375 -0.1375)">
       <defs>
        <path id="DejaVuSans-31" d="M 794 531 
L 1825 531 
L 1825 4091 
L 703 3866 
L 703 4441 
L 1819 4666 
L 2450 4666 
L 2450 531 
L 3481 531 
L 3481 0 
L 794 0 
L 794 531 
z
" transform="scale(0.015625)"/>
       </defs>
       <use xlink:href="#DejaVuSans-31"/>
       <use xlink:href="#DejaVuSans-30" x="63.623047"/>
       <use xlink:href="#DejaVuSans-30" x="127.246094"/>
      </g>
     </g>
    </g>
    <g id="xtick_4">
     <g id="text_4">
      <!-- 150 -->
      <g style="fill: #838383" transform="translate(182.83054 205.957716) scale(0.1375 -0.1375)">
       <use xlink:href="#DejaVuSans-31"/>
       <use xlink:href="#DejaVuSans-35" x="63.623047"/>
       <use xlink:href="#DejaVuSans-30" x="127.246094"/>
      </g>
     </g>
    </g>
    <g id="xtick_5">
     <g id="text_5">
      <!-- 200 -->
      <g style="fill: #838383" transform="translate(231.457062 205.957716) scale(0.1375 -0.1375)">
       <defs>
        <path id="DejaVuSans-32" d="M 1228 531 
L 3431 531 
L 3431 0 
L 469 0 
L 469 531 
Q 828 903 1448 1529 
Q 2069 2156 2228 2338 
Q 2531 2678 2651 2914 
Q 2772 3150 2772 3378 
Q 2772 3750 2511 3984 
Q 2250 4219 1831 4219 
Q 1534 4219 1204 4116 
Q 875 4013 500 3803 
L 500 4441 
Q 881 4594 1212 4672 
Q 1544 4750 1819 4750 
Q 2544 4750 2975 4387 
Q 3406 4025 3406 3419 
Q 3406 3131 3298 2873 
Q 3191 2616 2906 2266 
Q 2828 2175 2409 1742 
Q 1991 1309 1228 531 
z
" transform="scale(0.015625)"/>
       </defs>
       <use xlink:href="#DejaVuSans-32"/>
       <use xlink:href="#DejaVuSans-30" x="63.623047"/>
       <use xlink:href="#DejaVuSans-30" x="127.246094"/>
      </g>
     </g>
    </g>
    <g id="xtick_6">
     <g id="text_6">
      <!-- 250 -->
      <g style="fill: #838383" transform="translate(280.083585 205.957716) scale(0.1375 -0.1375)">
       <use xlink:href="#DejaVuSans-32"/>
       <use xlink:href="#DejaVuSans-35" x="63.623047"/>
       <use xlink:href="#DejaVuSans-30" x="127.246094"/>
      </g>
     </g>
    </g>
    <g id="text_7">
     <!-- draw -->
     <g style="fill: #838383" transform="translate(152.579451 224.214943) scale(0.15 -0.15)">
      <defs>
       <path id="DejaVuSans-64" d="M 2906 2969 
L 2906 4863 
L 3481 4863 
L 3481 0 
L 2906 0 
L 2906 525 
Q 2725 213 2448 61 
Q 2172 -91 1784 -91 
Q 1150 -91 751 415 
Q 353 922 353 1747 
Q 353 2572 751 3078 
Q 1150 3584 1784 3584 
Q 2172 3584 2448 3432 
Q 2725 3281 2906 2969 
z
M 947 1747 
Q 947 1113 1208 752 
Q 1469 391 1925 391 
Q 2381 391 2643 752 
Q 2906 1113 2906 1747 
Q 2906 2381 2643 2742 
Q 2381 3103 1925 3103 
Q 1469 3103 1208 2742 
Q 947 2381 947 1747 
z
" transform="scale(0.015625)"/>
       <path id="DejaVuSans-72" d="M 2631 2963 
Q 2534 3019 2420 3045 
Q 2306 3072 2169 3072 
Q 1681 3072 1420 2755 
Q 1159 2438 1159 1844 
L 1159 0 
L 581 0 
L 581 3500 
L 1159 3500 
L 1159 2956 
Q 1341 3275 1631 3429 
Q 1922 3584 2338 3584 
Q 2397 3584 2469 3576 
Q 2541 3569 2628 3553 
L 2631 2963 
z
" transform="scale(0.015625)"/>
       <path id="DejaVuSans-61" d="M 2194 1759 
Q 1497 1759 1228 1600 
Q 959 1441 959 1056 
Q 959 750 1161 570 
Q 1363 391 1709 391 
Q 2188 391 2477 730 
Q 2766 1069 2766 1631 
L 2766 1759 
L 2194 1759 
z
M 3341 1997 
L 3341 0 
L 2766 0 
L 2766 531 
Q 2569 213 2275 61 
Q 1981 -91 1556 -91 
Q 1019 -91 701 211 
Q 384 513 384 1019 
Q 384 1609 779 1909 
Q 1175 2209 1959 2209 
L 2766 2209 
L 2766 2266 
Q 2766 2663 2505 2880 
Q 2244 3097 1772 3097 
Q 1472 3097 1187 3025 
Q 903 2953 641 2809 
L 641 3341 
Q 956 3463 1253 3523 
Q 1550 3584 1831 3584 
Q 2591 3584 2966 3190 
Q 3341 2797 3341 1997 
z
" transform="scale(0.015625)"/>
       <path id="DejaVuSans-77" d="M 269 3500 
L 844 3500 
L 1563 769 
L 2278 3500 
L 2956 3500 
L 3675 769 
L 4391 3500 
L 4966 3500 
L 4050 0 
L 3372 0 
L 2619 2869 
L 1863 0 
L 1184 0 
L 269 3500 
z
" transform="scale(0.015625)"/>
      </defs>
      <use xlink:href="#DejaVuSans-64"/>
      <use xlink:href="#DejaVuSans-72" x="63.476562"/>
      <use xlink:href="#DejaVuSans-61" x="104.589844"/>
      <use xlink:href="#DejaVuSans-77" x="165.869141"/>
     </g>
    </g>
   </g>
   <g id="matplotlib.axis_2">
    <g id="ytick_1">
     <g id="text_8">
      <!-- 0 -->
      <g style="fill: #838383" transform="translate(25.717188 184.076438) scale(0.1375 -0.1375)">
       <use xlink:href="#DejaVuSans-30"/>
      </g>
     </g>
    </g>
    <g id="ytick_2">
     <g id="text_9">
      <!-- 2 -->
      <g style="fill: #838383" transform="translate(25.717188 146.423608) scale(0.1375 -0.1375)">
       <use xlink:href="#DejaVuSans-32"/>
      </g>
     </g>
    </g>
    <g id="ytick_3">
     <g id="text_10">
      <!-- 4 -->
      <g style="fill: #838383" transform="translate(25.717188 108.770777) scale(0.1375 -0.1375)">
       <defs>
        <path id="DejaVuSans-34" d="M 2419 4116 
L 825 1625 
L 2419 1625 
L 2419 4116 
z
M 2253 4666 
L 3047 4666 
L 3047 1625 
L 3713 1625 
L 3713 1100 
L 3047 1100 
L 3047 0 
L 2419 0 
L 2419 1100 
L 313 1100 
L 313 1709 
L 2253 4666 
z
" transform="scale(0.015625)"/>
       </defs>
       <use xlink:href="#DejaVuSans-34"/>
      </g>
     </g>
    </g>
    <g id="ytick_4">
     <g id="text_11">
      <!-- 6 -->
      <g style="fill: #838383" transform="translate(25.717188 71.117947) scale(0.1375 -0.1375)">
       <defs>
        <path id="DejaVuSans-36" d="M 2113 2584 
Q 1688 2584 1439 2293 
Q 1191 2003 1191 1497 
Q 1191 994 1439 701 
Q 1688 409 2113 409 
Q 2538 409 2786 701 
Q 3034 994 3034 1497 
Q 3034 2003 2786 2293 
Q 2538 2584 2113 2584 
z
M 3366 4563 
L 3366 3988 
Q 3128 4100 2886 4159 
Q 2644 4219 2406 4219 
Q 1781 4219 1451 3797 
Q 1122 3375 1075 2522 
Q 1259 2794 1537 2939 
Q 1816 3084 2150 3084 
Q 2853 3084 3261 2657 
Q 3669 2231 3669 1497 
Q 3669 778 3244 343 
Q 2819 -91 2113 -91 
Q 1303 -91 875 529 
Q 447 1150 447 2328 
Q 447 3434 972 4092 
Q 1497 4750 2381 4750 
Q 2619 4750 2861 4703 
Q 3103 4656 3366 4563 
z
" transform="scale(0.015625)"/>
       </defs>
       <use xlink:href="#DejaVuSans-36"/>
      </g>
     </g>
    </g>
    <g id="text_12">
     <!-- logdet -->
     <g style="fill: #838383" transform="translate(18.597656 133.97658) rotate(-90) scale(0.15 -0.15)">
      <defs>
       <path id="DejaVuSans-6c" d="M 603 4863 
L 1178 4863 
L 1178 0 
L 603 0 
L 603 4863 
z
" transform="scale(0.015625)"/>
       <path id="DejaVuSans-6f" d="M 1959 3097 
Q 1497 3097 1228 2736 
Q 959 2375 959 1747 
Q 959 1119 1226 758 
Q 1494 397 1959 397 
Q 2419 397 2687 759 
Q 2956 1122 2956 1747 
Q 2956 2369 2687 2733 
Q 2419 3097 1959 3097 
z
M 1959 3584 
Q 2709 3584 3137 3096 
Q 3566 2609 3566 1747 
Q 3566 888 3137 398 
Q 2709 -91 1959 -91 
Q 1206 -91 779 398 
Q 353 888 353 1747 
Q 353 2609 779 3096 
Q 1206 3584 1959 3584 
z
" transform="scale(0.015625)"/>
       <path id="DejaVuSans-67" d="M 2906 1791 
Q 2906 2416 2648 2759 
Q 2391 3103 1925 3103 
Q 1463 3103 1205 2759 
Q 947 2416 947 1791 
Q 947 1169 1205 825 
Q 1463 481 1925 481 
Q 2391 481 2648 825 
Q 2906 1169 2906 1791 
z
M 3481 434 
Q 3481 -459 3084 -895 
Q 2688 -1331 1869 -1331 
Q 1566 -1331 1297 -1286 
Q 1028 -1241 775 -1147 
L 775 -588 
Q 1028 -725 1275 -790 
Q 1522 -856 1778 -856 
Q 2344 -856 2625 -561 
Q 2906 -266 2906 331 
L 2906 616 
Q 2728 306 2450 153 
Q 2172 0 1784 0 
Q 1141 0 747 490 
Q 353 981 353 1791 
Q 353 2603 747 3093 
Q 1141 3584 1784 3584 
Q 2172 3584 2450 3431 
Q 2728 3278 2906 2969 
L 2906 3500 
L 3481 3500 
L 3481 434 
z
" transform="scale(0.015625)"/>
       <path id="DejaVuSans-65" d="M 3597 1894 
L 3597 1613 
L 953 1613 
Q 991 1019 1311 708 
Q 1631 397 2203 397 
Q 2534 397 2845 478 
Q 3156 559 3463 722 
L 3463 178 
Q 3153 47 2828 -22 
Q 2503 -91 2169 -91 
Q 1331 -91 842 396 
Q 353 884 353 1716 
Q 353 2575 817 3079 
Q 1281 3584 2069 3584 
Q 2775 3584 3186 3129 
Q 3597 2675 3597 1894 
z
M 3022 2063 
Q 3016 2534 2758 2815 
Q 2500 3097 2075 3097 
Q 1594 3097 1305 2825 
Q 1016 2553 972 2059 
L 3022 2063 
z
" transform="scale(0.015625)"/>
       <path id="DejaVuSans-74" d="M 1172 4494 
L 1172 3500 
L 2356 3500 
L 2356 3053 
L 1172 3053 
L 1172 1153 
Q 1172 725 1289 603 
Q 1406 481 1766 481 
L 2356 481 
L 2356 0 
L 1766 0 
Q 1100 0 847 248 
Q 594 497 594 1153 
L 594 3053 
L 172 3053 
L 172 3500 
L 594 3500 
L 594 4494 
L 1172 4494 
z
" transform="scale(0.015625)"/>
      </defs>
      <use xlink:href="#DejaVuSans-6c"/>
      <use xlink:href="#DejaVuSans-6f" x="27.783203"/>
      <use xlink:href="#DejaVuSans-67" x="88.964844"/>
      <use xlink:href="#DejaVuSans-64" x="152.441406"/>
      <use xlink:href="#DejaVuSans-65" x="215.917969"/>
      <use xlink:href="#DejaVuSans-74" x="277.441406"/>
     </g>
    </g>
   </g>
   <g id="line2d_1">
    <path d="M 50.073629 178.852512 
L 292.233711 178.852512 
L 292.233711 178.852512 
" clip-path="url(#pb38ecd3a0d)" style="fill: none; stroke: #440154; stroke-width: 1.5; stroke-linecap: round"/>
   </g>
   <g id="line2d_2">
    <path d="M 50.073629 175.055257 
L 51.04616 174.886192 
L 52.99122 176.599212 
L 58.826403 175.028147 
L 65.634116 173.555308 
L 86.057256 167.143357 
L 88.002317 166.924527 
L 90.919908 165.983094 
L 95.78256 165.695132 
L 101.617743 164.845285 
L 115.233169 165.222673 
L 119.123291 164.276783 
L 128.848595 159.680625 
L 132.738717 158.308762 
L 134.683778 157.696463 
L 136.628839 157.712658 
L 139.54643 158.611415 
L 142.464022 157.904041 
L 144.409083 156.946866 
L 148.299204 155.814501 
L 150.244265 155.726696 
L 172.612466 153.768913 
L 175.530057 154.182947 
L 188.172953 151.401661 
L 207.623562 149.778321 
L 209.568623 150.045885 
L 213.458744 150.605699 
L 215.403805 151.280162 
L 217.348866 150.788998 
L 224.156579 151.134416 
L 232.909353 150.15172 
L 244.579719 149.801994 
L 247.49731 149.899777 
L 259.167675 149.809927 
L 261.112736 149.541459 
L 262.085267 150.158907 
L 264.030328 149.345111 
L 268.89298 150.077726 
L 272.783102 148.945831 
L 292.233711 149.211496 
L 292.233711 149.211496 
" clip-path="url(#pb38ecd3a0d)" style="fill: none; stroke: #482878; stroke-width: 1.5; stroke-linecap: round"/>
   </g>
   <g id="line2d_3">
    <path d="M 50.073629 173.81497 
L 51.04616 172.65932 
L 52.99122 175.144336 
L 58.826403 172.494321 
L 62.716525 171.140194 
L 73.41436 166.155835 
L 86.057256 158.543411 
L 88.002317 157.937885 
L 90.919908 155.83777 
L 94.81003 155.494336 
L 98.700151 154.27819 
L 120.095821 143.69581 
L 123.013413 141.108007 
L 129.821126 134.730157 
L 131.766187 133.756255 
L 134.683778 130.997573 
L 137.601369 131.419265 
L 139.54643 131.948116 
L 142.464022 129.830635 
L 144.409083 128.342908 
L 146.354143 127.29191 
L 151.216796 123.924964 
L 153.161857 123.411216 
L 156.079448 121.126145 
L 158.997039 119.63257 
L 161.914631 117.194304 
L 168.722344 115.072612 
L 174.557526 113.359003 
L 176.502587 112.870732 
L 184.282831 108.252899 
L 187.200422 108.51109 
L 189.145483 107.535778 
L 193.035605 106.987724 
L 201.788379 104.455679 
L 204.70597 104.615517 
L 207.623562 103.859669 
L 209.568623 103.865279 
L 210.541153 103.500242 
L 213.458744 104.920564 
L 215.403805 105.127698 
L 217.348866 104.461182 
L 221.238988 105.681363 
L 228.046701 103.692205 
L 229.991762 102.420544 
L 234.854414 102.392078 
L 235.826945 102.664597 
L 237.772006 101.513459 
L 239.717066 101.026476 
L 244.579719 100.822255 
L 246.52478 101.351969 
L 250.414901 99.716901 
L 257.222614 100.033479 
L 260.140206 99.007985 
L 263.057797 98.991782 
L 265.002858 98.73789 
L 266.947919 99.852402 
L 273.755632 96.942589 
L 276.673223 96.880072 
L 281.535876 95.161023 
L 287.371058 94.493771 
L 289.316119 93.400616 
L 292.233711 95.158779 
L 292.233711 95.158779 
" clip-path="url(#pb38ecd3a0d)" style="fill: none; stroke: #3e4989; stroke-width: 1.5; stroke-linecap: round"/>
   </g>
   <g id="line2d_4">
    <path d="M 50.073629 172.095465 
L 51.04616 169.961133 
L 52.99122 173.014096 
L 58.826403 168.285648 
L 61.743994 165.745642 
L 67.579177 159.840991 
L 76.331951 148.902422 
L 77.304482 148.44301 
L 81.194603 143.299413 
L 83.139664 141.1251 
L 86.057256 137.641478 
L 88.002317 136.074878 
L 90.919908 131.938825 
L 94.81003 130.129071 
L 97.727621 126.62525 
L 99.672682 125.852472 
L 102.590273 122.129712 
L 104.535334 122.177565 
L 106.480395 120.285127 
L 110.370517 116.140366 
L 116.2057 110.601155 
L 117.17823 110.66514 
L 119.123291 107.808697 
L 126.903534 97.754822 
L 135.656308 90.734048 
L 139.54643 93.056926 
L 142.464022 90.667357 
L 144.409083 89.191606 
L 146.354143 87.925543 
L 157.051978 81.938261 
L 158.024509 82.109123 
L 161.914631 77.933893 
L 178.447648 71.761826 
L 181.36524 68.271606 
L 182.33777 68.325074 
L 184.282831 66.341603 
L 186.227892 67.238563 
L 194.008135 64.286279 
L 196.925727 63.417409 
L 199.843318 60.980046 
L 200.815848 60.535157 
L 203.73344 62.810555 
L 207.623562 60.829679 
L 208.596092 61.856403 
L 210.541153 60.694681 
L 212.486214 63.257347 
L 220.266457 64.470553 
L 222.211518 64.811971 
L 225.12911 63.223216 
L 227.074171 62.516222 
L 231.936823 59.171009 
L 233.881884 60.129301 
L 235.826945 61.004769 
L 237.772006 59.183057 
L 238.744536 59.787415 
L 240.689597 58.5262 
L 242.634658 59.242342 
L 244.579719 58.629114 
L 246.52478 59.926274 
L 248.46984 58.721551 
L 253.332493 57.872548 
L 257.222614 58.844143 
L 259.167675 57.48356 
L 265.002858 57.172861 
L 266.947919 58.962381 
L 269.86551 56.441691 
L 270.838041 54.971353 
L 272.783102 54.959755 
L 275.700693 54.976821 
L 277.645754 54.038638 
L 283.480937 52.062888 
L 286.398528 52.19285 
L 289.316119 50.499529 
L 291.26118 53.34239 
L 292.233711 53.768373 
L 292.233711 53.768373 
" clip-path="url(#pb38ecd3a0d)" style="fill: none; stroke: #31688e; stroke-width: 1.5; stroke-linecap: round"/>
   </g>
   <g id="line2d_5">
    <path d="M 50.073629 174.105892 
L 51.04616 170.465664 
L 52.99122 172.851496 
L 59.798934 167.266533 
L 62.716525 164.335982 
L 72.441829 153.152085 
L 76.331951 146.73961 
L 77.304482 146.374421 
L 81.194603 140.822893 
L 83.139664 138.535636 
L 86.057256 134.82527 
L 88.002317 133.085088 
L 90.919908 128.575003 
L 94.81003 126.884057 
L 97.727621 123.222728 
L 98.700151 123.285837 
L 103.562804 118.738622 
L 105.507865 117.83037 
L 111.343047 110.098023 
L 115.233169 106.139951 
L 121.068352 98.204029 
L 126.903534 90.204415 
L 132.738717 84.358712 
L 134.683778 82.322958 
L 136.628839 82.839808 
L 139.54643 84.906891 
L 141.491491 82.604526 
L 143.436552 81.908726 
L 148.299204 77.235392 
L 155.106917 73.550449 
L 157.051978 72.109915 
L 158.024509 72.758962 
L 161.914631 68.179752 
L 166.777283 66.07167 
L 167.749813 66.406176 
L 172.612466 63.268281 
L 176.502587 62.787789 
L 184.282831 55.624646 
L 186.227892 56.564193 
L 191.090544 53.859535 
L 194.980666 53.13298 
L 196.925727 52.018047 
L 200.815848 49.24993 
L 203.73344 51.387179 
L 207.623562 49.392145 
L 209.568623 49.656019 
L 210.541153 49.007296 
L 213.458744 51.850982 
L 215.403805 52.006646 
L 217.348866 50.771356 
L 221.238988 53.154462 
L 223.184049 52.821644 
L 226.10164 50.291151 
L 227.074171 50.780603 
L 231.936823 46.856958 
L 232.909353 48.22808 
L 234.854414 48.246825 
L 235.826945 48.464341 
L 237.772006 47.004407 
L 238.744536 47.284592 
L 240.689597 46.170817 
L 242.634658 46.810519 
L 243.607188 45.589718 
L 246.52478 47.225361 
L 248.46984 45.850666 
L 249.442371 45.691268 
L 251.387432 44.483718 
L 252.359962 45.26515 
L 254.305023 45.240921 
L 256.250084 45.719151 
L 258.195145 44.51994 
L 261.112736 44.229557 
L 262.085267 44.938427 
L 264.030328 42.904146 
L 267.920449 44.889233 
L 268.89298 44.802056 
L 271.810571 41.574192 
L 273.755632 40.814125 
L 275.700693 41.130704 
L 277.645754 40.006659 
L 284.453467 37.671671 
L 288.343589 36.879986 
L 289.316119 35.877393 
L 292.233711 39.186562 
L 292.233711 39.186562 
" clip-path="url(#pb38ecd3a0d)" style="fill: none; stroke: #26828e; stroke-width: 1.5; stroke-linecap: round"/>
   </g>
   <g id="line2d_6">
    <path d="M 50.073629 173.365007 
L 51.04616 170.476264 
L 52.99122 173.146264 
L 58.826403 168.322632 
L 60.771464 167.211186 
L 66.606647 160.51576 
L 70.496768 157.471043 
L 91.892438 131.593771 
L 92.864969 132.258734 
L 102.590273 122.122033 
L 104.535334 122.178418 
L 106.480395 120.291128 
L 110.370517 116.148935 
L 116.2057 110.596712 
L 117.17823 110.646643 
L 119.123291 107.777595 
L 126.903534 97.749275 
L 134.683778 90.872763 
L 136.628839 91.175606 
L 139.54643 93.028756 
L 142.464022 90.663946 
L 144.409083 89.181677 
L 146.354143 87.911323 
L 157.051978 81.911312 
L 158.024509 82.094957 
L 162.887161 77.558775 
L 164.832222 76.279408 
L 168.722344 75.77421 
L 172.612466 73.409894 
L 175.530057 73.489386 
L 179.420179 70.087277 
L 184.282831 66.292301 
L 186.227892 67.188488 
L 194.008135 64.243045 
L 196.925727 63.386762 
L 199.843318 60.894547 
L 200.815848 60.48703 
L 203.73344 62.762779 
L 207.623562 60.758319 
L 208.596092 61.813052 
L 210.541153 60.634085 
L 212.486214 63.184327 
L 216.376336 62.539553 
L 219.293927 62.817701 
L 221.238988 64.835312 
L 224.156579 63.793722 
L 231.936823 59.083931 
L 233.881884 60.062206 
L 235.826945 60.929621 
L 237.772006 59.101078 
L 238.744536 59.71321 
L 240.689597 58.477768 
L 242.634658 59.184332 
L 244.579719 58.586176 
L 246.52478 59.875876 
L 248.46984 58.643001 
L 254.305023 58.142661 
L 256.250084 58.786519 
L 258.195145 57.741616 
L 261.112736 57.549209 
L 262.085267 58.144304 
L 264.030328 56.22545 
L 266.947919 58.881587 
L 269.86551 56.392281 
L 270.838041 54.883413 
L 272.783102 54.878162 
L 275.700693 54.911664 
L 277.645754 53.973123 
L 283.480937 52.00749 
L 286.398528 52.104371 
L 289.316119 50.416858 
L 291.26118 53.257538 
L 292.233711 53.75514 
L 292.233711 53.75514 
" clip-path="url(#pb38ecd3a0d)" style="fill: none; stroke: #1f9e89; stroke-width: 1.5; stroke-linecap: round"/>
   </g>
   <g id="line2d_7">
    <path d="M 50.073629 177.10868 
L 51.04616 173.892103 
L 52.99122 175.348595 
L 58.826403 172.581237 
L 60.771464 172.371151 
L 63.689055 171.129052 
L 72.441829 167.473015 
L 76.331951 164.273179 
L 77.304482 164.261994 
L 81.194603 161.22564 
L 83.139664 160.378761 
L 86.057256 158.608199 
L 88.002317 158.03636 
L 90.919908 155.890838 
L 95.78256 154.931517 
L 97.727621 153.886891 
L 99.672682 153.899043 
L 101.617743 151.939629 
L 106.480395 151.387149 
L 111.343047 148.792169 
L 117.17823 146.457378 
L 119.123291 144.709566 
L 129.821126 134.706233 
L 130.793656 134.723182 
L 135.656308 130.740257 
L 140.518961 130.863979 
L 148.299204 125.390742 
L 149.271735 125.284107 
L 151.216796 123.851379 
L 153.161857 123.431024 
L 156.079448 121.098352 
L 160.9421 117.772853 
L 166.777283 115.073564 
L 168.722344 115.104391 
L 172.612466 113.184182 
L 175.530057 113.293685 
L 179.420179 110.767636 
L 181.36524 109.559969 
L 182.33777 109.605555 
L 184.282831 108.057853 
L 187.200422 108.374274 
L 189.145483 107.469231 
L 194.980666 106.489044 
L 195.953196 105.335788 
L 196.925727 105.818192 
L 200.815848 103.862402 
L 203.73344 105.016408 
L 207.623562 103.758447 
L 208.596092 104.322822 
L 210.541153 103.509938 
L 213.458744 104.757019 
L 215.403805 104.995142 
L 217.348866 104.353115 
L 221.238988 105.614654 
L 228.046701 103.540361 
L 229.991762 102.252995 
L 269.86551 98.286619 
L 271.810571 97.318785 
L 286.398528 94.382203 
L 288.343589 93.920293 
L 289.316119 93.241245 
L 292.233711 95.111308 
L 292.233711 95.111308 
" clip-path="url(#pb38ecd3a0d)" style="fill: none; stroke: #35b779; stroke-width: 1.5; stroke-linecap: round"/>
   </g>
   <g id="line2d_8">
    <path d="M 50.073629 179.531062 
L 52.01869 176.681006 
L 53.963751 176.563435 
L 74.38689 171.383403 
L 79.249543 169.543362 
L 91.892438 166.113054 
L 93.837499 166.342988 
L 102.590273 165.106053 
L 105.507865 165.985 
L 109.397986 165.428425 
L 114.260639 165.217504 
L 117.17823 165.208617 
L 119.123291 164.331738 
L 124.958474 161.334944 
L 129.821126 159.529327 
L 131.766187 158.89191 
L 134.683778 157.597183 
L 136.628839 157.793712 
L 139.54643 158.653365 
L 142.464022 157.778905 
L 162.887161 154.235531 
L 178.447648 153.255513 
L 190.118014 151.043608 
L 193.035605 151.170122 
L 195.953196 150.413503 
L 197.898257 150.383048 
L 200.815848 149.650709 
L 206.651031 149.925721 
L 209.568623 149.73723 
L 215.403805 151.115043 
L 218.321397 150.812117 
L 221.238988 151.363824 
L 224.156579 151.195923 
L 229.019231 149.731779 
L 238.744536 150.086407 
L 240.689597 149.871279 
L 245.552249 150.007619 
L 249.442371 149.592239 
L 253.332493 149.406342 
L 269.86551 149.66972 
L 271.810571 149.035827 
L 281.535876 148.245592 
L 287.371058 148.249915 
L 289.316119 147.587393 
L 291.26118 148.745758 
L 292.233711 149.135491 
L 292.233711 149.135491 
" clip-path="url(#pb38ecd3a0d)" style="fill: none; stroke: #6ece58; stroke-width: 1.5; stroke-linecap: round"/>
   </g>
   <g id="line2d_9">
    <path d="M 50.073629 184.574985 
L 52.01869 179.427552 
L 58.826403 178.987545 
L 63.689055 179.431066 
L 69.524238 179.249262 
L 80.222073 179.06725 
L 84.112195 179.064072 
L 99.672682 179.014841 
L 148.299204 178.807345 
L 154.134387 179.02743 
L 157.051978 178.694663 
L 163.859691 178.865377 
L 167.749813 178.922294 
L 179.420179 178.689113 
L 185.255361 178.602731 
L 189.145483 178.839039 
L 194.008135 178.790838 
L 198.870788 178.747559 
L 204.70597 178.63736 
L 216.376336 178.776392 
L 222.211518 178.878733 
L 261.112736 178.696101 
L 265.002858 178.896867 
L 272.783102 178.798538 
L 281.535876 178.76057 
L 292.233711 178.768154 
L 292.233711 178.768154 
" clip-path="url(#pb38ecd3a0d)" style="fill: none; stroke: #b5de2b; stroke-width: 1.5; stroke-linecap: round"/>
   </g>
   <g id="patch_3">
    <path d="M 37.965625 192.009865 
L 37.965625 28.442513 
" style="fill: none"/>
   </g>
   <g id="patch_4">
    <path d="M 304.341715 192.009865 
L 304.341715 28.442513 
" style="fill: none"/>
   </g>
   <g id="patch_5">
    <path d="M 37.965625 192.009865 
L 304.341715 192.009865 
" style="fill: none"/>
   </g>
   <g id="patch_6">
    <path d="M 37.965625 28.442513 
L 304.341715 28.442513 
" style="fill: none"/>
   </g>
  </g>
  <g id="text_13">
   <!-- train: pytorch -->
   <g style="fill: #262626" transform="translate(118.005281 18.14175) scale(0.144 -0.144)">
    <defs>
     <path id="DejaVuSans-69" d="M 603 3500 
L 1178 3500 
L 1178 0 
L 603 0 
L 603 3500 
z
M 603 4863 
L 1178 4863 
L 1178 4134 
L 603 4134 
L 603 4863 
z
" transform="scale(0.015625)"/>
     <path id="DejaVuSans-6e" d="M 3513 2113 
L 3513 0 
L 2938 0 
L 2938 2094 
Q 2938 2591 2744 2837 
Q 2550 3084 2163 3084 
Q 1697 3084 1428 2787 
Q 1159 2491 1159 1978 
L 1159 0 
L 581 0 
L 581 3500 
L 1159 3500 
L 1159 2956 
Q 1366 3272 1645 3428 
Q 1925 3584 2291 3584 
Q 2894 3584 3203 3211 
Q 3513 2838 3513 2113 
z
" transform="scale(0.015625)"/>
     <path id="DejaVuSans-3a" d="M 750 794 
L 1409 794 
L 1409 0 
L 750 0 
L 750 794 
z
M 750 3309 
L 1409 3309 
L 1409 2516 
L 750 2516 
L 750 3309 
z
" transform="scale(0.015625)"/>
     <path id="DejaVuSans-20" transform="scale(0.015625)"/>
     <path id="DejaVuSans-70" d="M 1159 525 
L 1159 -1331 
L 581 -1331 
L 581 3500 
L 1159 3500 
L 1159 2969 
Q 1341 3281 1617 3432 
Q 1894 3584 2278 3584 
Q 2916 3584 3314 3078 
Q 3713 2572 3713 1747 
Q 3713 922 3314 415 
Q 2916 -91 2278 -91 
Q 1894 -91 1617 61 
Q 1341 213 1159 525 
z
M 3116 1747 
Q 3116 2381 2855 2742 
Q 2594 3103 2138 3103 
Q 1681 3103 1420 2742 
Q 1159 2381 1159 1747 
Q 1159 1113 1420 752 
Q 1681 391 2138 391 
Q 2594 391 2855 752 
Q 3116 1113 3116 1747 
z
" transform="scale(0.015625)"/>
     <path id="DejaVuSans-79" d="M 2059 -325 
Q 1816 -950 1584 -1140 
Q 1353 -1331 966 -1331 
L 506 -1331 
L 506 -850 
L 844 -850 
Q 1081 -850 1212 -737 
Q 1344 -625 1503 -206 
L 1606 56 
L 191 3500 
L 800 3500 
L 1894 763 
L 2988 3500 
L 3597 3500 
L 2059 -325 
z
" transform="scale(0.015625)"/>
     <path id="DejaVuSans-63" d="M 3122 3366 
L 3122 2828 
Q 2878 2963 2633 3030 
Q 2388 3097 2138 3097 
Q 1578 3097 1268 2742 
Q 959 2388 959 1747 
Q 959 1106 1268 751 
Q 1578 397 2138 397 
Q 2388 397 2633 464 
Q 2878 531 3122 666 
L 3122 134 
Q 2881 22 2623 -34 
Q 2366 -91 2075 -91 
Q 1284 -91 818 406 
Q 353 903 353 1747 
Q 353 2603 823 3093 
Q 1294 3584 2113 3584 
Q 2378 3584 2631 3529 
Q 2884 3475 3122 3366 
z
" transform="scale(0.015625)"/>
     <path id="DejaVuSans-68" d="M 3513 2113 
L 3513 0 
L 2938 0 
L 2938 2094 
Q 2938 2591 2744 2837 
Q 2550 3084 2163 3084 
Q 1697 3084 1428 2787 
Q 1159 2491 1159 1978 
L 1159 0 
L 581 0 
L 581 4863 
L 1159 4863 
L 1159 2956 
Q 1366 3272 1645 3428 
Q 1925 3584 2291 3584 
Q 2894 3584 3203 3211 
Q 3513 2838 3513 2113 
z
" transform="scale(0.015625)"/>
    </defs>
    <use xlink:href="#DejaVuSans-74"/>
    <use xlink:href="#DejaVuSans-72" x="39.208984"/>
    <use xlink:href="#DejaVuSans-61" x="80.322266"/>
    <use xlink:href="#DejaVuSans-69" x="141.601562"/>
    <use xlink:href="#DejaVuSans-6e" x="169.384766"/>
    <use xlink:href="#DejaVuSans-3a" x="232.763672"/>
    <use xlink:href="#DejaVuSans-20" x="266.455078"/>
    <use xlink:href="#DejaVuSans-70" x="298.242188"/>
    <use xlink:href="#DejaVuSans-79" x="361.71875"/>
    <use xlink:href="#DejaVuSans-74" x="420.898438"/>
    <use xlink:href="#DejaVuSans-6f" x="460.107422"/>
    <use xlink:href="#DejaVuSans-72" x="521.289062"/>
    <use xlink:href="#DejaVuSans-63" x="560.152344"/>
    <use xlink:href="#DejaVuSans-68" x="615.132812"/>
   </g>
  </g>
 </g>
 <defs>
  <clipPath id="pb38ecd3a0d">
   <rect x="37.965625" y="28.442513" width="266.37609" height="163.567352"/>
  </clipPath>
 </defs>
</svg>
