<?xml version="1.0" encoding="utf-8" standalone="no"?>
<!DOCTYPE svg PUBLIC "-//W3C//DTD SVG 1.1//EN"
  "http://www.w3.org/Graphics/SVG/1.1/DTD/svg11.dtd">
<svg xmlns:xlink="http://www.w3.org/1999/xlink" width="331.025772pt" height="234.534474pt" viewBox="0 0 331.025772 234.534474" xmlns="http://www.w3.org/2000/svg" version="1.1">
 <metadata>
  <rdf:RDF xmlns:dc="http://purl.org/dc/elements/1.1/" xmlns:cc="http://creativecommons.org/ns#" xmlns:rdf="http://www.w3.org/1999/02/22-rdf-syntax-ns#">
   <cc:Work>
    <dc:type rdf:resource="http://purl.org/dc/dcmitype/StillImage"/>
    <dc:date>2023-12-05T11:41:52.642743</dc:date>
    <dc:format>image/svg+xml</dc:format>
    <dc:creator>
     <cc:Agent>
      <dc:title>Matplotlib v3.8.2, https://matplotlib.org/</dc:title>
     </cc:Agent>
    </dc:creator>
   </cc:Work>
  </rdf:RDF>
 </metadata>
 <defs>
  <style type="text/css">*{stroke-linejoin: round; stroke-linecap: butt}</style>
 </defs>
 <g id="figure_1">
  <g id="patch_1">
   <path d="M 0 234.534474 
L 331.025772 234.534474 
L 331.025772 0 
L 0 0 
L 0 234.534474 
z
" style="fill: none"/>
  </g>
  <g id="axes_1">
   <g id="patch_2">
    <path d="M 55.4625 192.009865 
L 321.83859 192.009865 
L 321.83859 28.442513 
L 55.4625 28.442513 
L 55.4625 192.009865 
z
" style="fill: none"/>
   </g>
   <g id="matplotlib.axis_1">
    <g id="xtick_1">
     <g id="text_1">
      <!-- 0 -->
      <g style="fill: #838383" transform="translate(63.196285 205.957716) scale(0.1375 -0.1375)">
       <defs>
        <path id="DejaVuSans-30" d="M 2034 4250 
Q 1547 4250 1301 3770 
Q 1056 3291 1056 2328 
Q 1056 1369 1301 889 
Q 1547 409 2034 409 
Q 2525 409 2770 889 
Q 3016 1369 3016 2328 
Q 3016 3291 2770 3770 
Q 2525 4250 2034 4250 
z
M 2034 4750 
Q 2819 4750 3233 4129 
Q 3647 3509 3647 2328 
Q 3647 1150 3233 529 
Q 2819 -91 2034 -91 
Q 1250 -91 836 529 
Q 422 1150 422 2328 
Q 422 3509 836 4129 
Q 1250 4750 2034 4750 
z
" transform="scale(0.015625)"/>
       </defs>
       <use xlink:href="#DejaVuSans-30"/>
      </g>
     </g>
    </g>
    <g id="xtick_2">
     <g id="text_2">
      <!-- 50 -->
      <g style="fill: #838383" transform="translate(107.448589 205.957716) scale(0.1375 -0.1375)">
       <defs>
        <path id="DejaVuSans-35" d="M 691 4666 
L 3169 4666 
L 3169 4134 
L 1269 4134 
L 1269 2991 
Q 1406 3038 1543 3061 
Q 1681 3084 1819 3084 
Q 2600 3084 3056 2656 
Q 3513 2228 3513 1497 
Q 3513 744 3044 326 
Q 2575 -91 1722 -91 
Q 1428 -91 1123 -41 
Q 819 9 494 109 
L 494 744 
Q 775 591 1075 516 
Q 1375 441 1709 441 
Q 2250 441 2565 725 
Q 2881 1009 2881 1497 
Q 2881 1984 2565 2268 
Q 2250 2553 1709 2553 
Q 1456 2553 1204 2497 
Q 953 2441 691 2322 
L 691 4666 
z
" transform="scale(0.015625)"/>
       </defs>
       <use xlink:href="#DejaVuSans-35"/>
       <use xlink:href="#DejaVuSans-30" x="63.623047"/>
      </g>
     </g>
    </g>
    <g id="xtick_3">
     <g id="text_3">
      <!-- 100 -->
      <g style="fill: #838383" transform="translate(151.700893 205.957716) scale(0.1375 -0.1375)">
       <defs>
        <path id="DejaVuSans-31" d="M 794 531 
L 1825 531 
L 1825 4091 
L 703 3866 
L 703 4441 
L 1819 4666 
L 2450 4666 
L 2450 531 
L 3481 531 
L 3481 0 
L 794 0 
L 794 531 
z
" transform="scale(0.015625)"/>
       </defs>
       <use xlink:href="#DejaVuSans-31"/>
       <use xlink:href="#DejaVuSans-30" x="63.623047"/>
       <use xlink:href="#DejaVuSans-30" x="127.246094"/>
      </g>
     </g>
    </g>
    <g id="xtick_4">
     <g id="text_4">
      <!-- 150 -->
      <g style="fill: #838383" transform="translate(200.327415 205.957716) scale(0.1375 -0.1375)">
       <use xlink:href="#DejaVuSans-31"/>
       <use xlink:href="#DejaVuSans-35" x="63.623047"/>
       <use xlink:href="#DejaVuSans-30" x="127.246094"/>
      </g>
     </g>
    </g>
    <g id="xtick_5">
     <g id="text_5">
      <!-- 200 -->
      <g style="fill: #838383" transform="translate(248.953937 205.957716) scale(0.1375 -0.1375)">
       <defs>
        <path id="DejaVuSans-32" d="M 1228 531 
L 3431 531 
L 3431 0 
L 469 0 
L 469 531 
Q 828 903 1448 1529 
Q 2069 2156 2228 2338 
Q 2531 2678 2651 2914 
Q 2772 3150 2772 3378 
Q 2772 3750 2511 3984 
Q 2250 4219 1831 4219 
Q 1534 4219 1204 4116 
Q 875 4013 500 3803 
L 500 4441 
Q 881 4594 1212 4672 
Q 1544 4750 1819 4750 
Q 2544 4750 2975 4387 
Q 3406 4025 3406 3419 
Q 3406 3131 3298 2873 
Q 3191 2616 2906 2266 
Q 2828 2175 2409 1742 
Q 1991 1309 1228 531 
z
" transform="scale(0.015625)"/>
       </defs>
       <use xlink:href="#DejaVuSans-32"/>
       <use xlink:href="#DejaVuSans-30" x="63.623047"/>
       <use xlink:href="#DejaVuSans-30" x="127.246094"/>
      </g>
     </g>
    </g>
    <g id="xtick_6">
     <g id="text_6">
      <!-- 250 -->
      <g style="fill: #838383" transform="translate(297.58046 205.957716) scale(0.1375 -0.1375)">
       <use xlink:href="#DejaVuSans-32"/>
       <use xlink:href="#DejaVuSans-35" x="63.623047"/>
       <use xlink:href="#DejaVuSans-30" x="127.246094"/>
      </g>
     </g>
    </g>
    <g id="text_7">
     <!-- draw -->
     <g style="fill: #838383" transform="translate(170.076326 224.214943) scale(0.15 -0.15)">
      <defs>
       <path id="DejaVuSans-64" d="M 2906 2969 
L 2906 4863 
L 3481 4863 
L 3481 0 
L 2906 0 
L 2906 525 
Q 2725 213 2448 61 
Q 2172 -91 1784 -91 
Q 1150 -91 751 415 
Q 353 922 353 1747 
Q 353 2572 751 3078 
Q 1150 3584 1784 3584 
Q 2172 3584 2448 3432 
Q 2725 3281 2906 2969 
z
M 947 1747 
Q 947 1113 1208 752 
Q 1469 391 1925 391 
Q 2381 391 2643 752 
Q 2906 1113 2906 1747 
Q 2906 2381 2643 2742 
Q 2381 3103 1925 3103 
Q 1469 3103 1208 2742 
Q 947 2381 947 1747 
z
" transform="scale(0.015625)"/>
       <path id="DejaVuSans-72" d="M 2631 2963 
Q 2534 3019 2420 3045 
Q 2306 3072 2169 3072 
Q 1681 3072 1420 2755 
Q 1159 2438 1159 1844 
L 1159 0 
L 581 0 
L 581 3500 
L 1159 3500 
L 1159 2956 
Q 1341 3275 1631 3429 
Q 1922 3584 2338 3584 
Q 2397 3584 2469 3576 
Q 2541 3569 2628 3553 
L 2631 2963 
z
" transform="scale(0.015625)"/>
       <path id="DejaVuSans-61" d="M 2194 1759 
Q 1497 1759 1228 1600 
Q 959 1441 959 1056 
Q 959 750 1161 570 
Q 1363 391 1709 391 
Q 2188 391 2477 730 
Q 2766 1069 2766 1631 
L 2766 1759 
L 2194 1759 
z
M 3341 1997 
L 3341 0 
L 2766 0 
L 2766 531 
Q 2569 213 2275 61 
Q 1981 -91 1556 -91 
Q 1019 -91 701 211 
Q 384 513 384 1019 
Q 384 1609 779 1909 
Q 1175 2209 1959 2209 
L 2766 2209 
L 2766 2266 
Q 2766 2663 2505 2880 
Q 2244 3097 1772 3097 
Q 1472 3097 1187 3025 
Q 903 2953 641 2809 
L 641 3341 
Q 956 3463 1253 3523 
Q 1550 3584 1831 3584 
Q 2591 3584 2966 3190 
Q 3341 2797 3341 1997 
z
" transform="scale(0.015625)"/>
       <path id="DejaVuSans-77" d="M 269 3500 
L 844 3500 
L 1563 769 
L 2278 3500 
L 2956 3500 
L 3675 769 
L 4391 3500 
L 4966 3500 
L 4050 0 
L 3372 0 
L 2619 2869 
L 1863 0 
L 1184 0 
L 269 3500 
z
" transform="scale(0.015625)"/>
      </defs>
      <use xlink:href="#DejaVuSans-64"/>
      <use xlink:href="#DejaVuSans-72" x="63.476562"/>
      <use xlink:href="#DejaVuSans-61" x="104.589844"/>
      <use xlink:href="#DejaVuSans-77" x="165.869141"/>
     </g>
    </g>
   </g>
   <g id="matplotlib.axis_2">
    <g id="ytick_1">
     <g id="text_8">
      <!-- 395 -->
      <g style="fill: #838383" transform="translate(25.717188 188.125519) scale(0.1375 -0.1375)">
       <defs>
        <path id="DejaVuSans-33" d="M 2597 2516 
Q 3050 2419 3304 2112 
Q 3559 1806 3559 1356 
Q 3559 666 3084 287 
Q 2609 -91 1734 -91 
Q 1441 -91 1130 -33 
Q 819 25 488 141 
L 488 750 
Q 750 597 1062 519 
Q 1375 441 1716 441 
Q 2309 441 2620 675 
Q 2931 909 2931 1356 
Q 2931 1769 2642 2001 
Q 2353 2234 1838 2234 
L 1294 2234 
L 1294 2753 
L 1863 2753 
Q 2328 2753 2575 2939 
Q 2822 3125 2822 3475 
Q 2822 3834 2567 4026 
Q 2313 4219 1838 4219 
Q 1578 4219 1281 4162 
Q 984 4106 628 3988 
L 628 4550 
Q 988 4650 1302 4700 
Q 1616 4750 1894 4750 
Q 2613 4750 3031 4423 
Q 3450 4097 3450 3541 
Q 3450 3153 3228 2886 
Q 3006 2619 2597 2516 
z
" transform="scale(0.015625)"/>
        <path id="DejaVuSans-39" d="M 703 97 
L 703 672 
Q 941 559 1184 500 
Q 1428 441 1663 441 
Q 2288 441 2617 861 
Q 2947 1281 2994 2138 
Q 2813 1869 2534 1725 
Q 2256 1581 1919 1581 
Q 1219 1581 811 2004 
Q 403 2428 403 3163 
Q 403 3881 828 4315 
Q 1253 4750 1959 4750 
Q 2769 4750 3195 4129 
Q 3622 3509 3622 2328 
Q 3622 1225 3098 567 
Q 2575 -91 1691 -91 
Q 1453 -91 1209 -44 
Q 966 3 703 97 
z
M 1959 2075 
Q 2384 2075 2632 2365 
Q 2881 2656 2881 3163 
Q 2881 3666 2632 3958 
Q 2384 4250 1959 4250 
Q 1534 4250 1286 3958 
Q 1038 3666 1038 3163 
Q 1038 2656 1286 2365 
Q 1534 2075 1959 2075 
z
" transform="scale(0.015625)"/>
       </defs>
       <use xlink:href="#DejaVuSans-33"/>
       <use xlink:href="#DejaVuSans-39" x="63.623047"/>
       <use xlink:href="#DejaVuSans-35" x="127.246094"/>
      </g>
     </g>
    </g>
    <g id="ytick_2">
     <g id="text_9">
      <!-- 400 -->
      <g style="fill: #838383" transform="translate(25.717188 154.277555) scale(0.1375 -0.1375)">
       <defs>
        <path id="DejaVuSans-34" d="M 2419 4116 
L 825 1625 
L 2419 1625 
L 2419 4116 
z
M 2253 4666 
L 3047 4666 
L 3047 1625 
L 3713 1625 
L 3713 1100 
L 3047 1100 
L 3047 0 
L 2419 0 
L 2419 1100 
L 313 1100 
L 313 1709 
L 2253 4666 
z
" transform="scale(0.015625)"/>
       </defs>
       <use xlink:href="#DejaVuSans-34"/>
       <use xlink:href="#DejaVuSans-30" x="63.623047"/>
       <use xlink:href="#DejaVuSans-30" x="127.246094"/>
      </g>
     </g>
    </g>
    <g id="ytick_3">
     <g id="text_10">
      <!-- 405 -->
      <g style="fill: #838383" transform="translate(25.717188 120.429591) scale(0.1375 -0.1375)">
       <use xlink:href="#DejaVuSans-34"/>
       <use xlink:href="#DejaVuSans-30" x="63.623047"/>
       <use xlink:href="#DejaVuSans-35" x="127.246094"/>
      </g>
     </g>
    </g>
    <g id="ytick_4">
     <g id="text_11">
      <!-- 410 -->
      <g style="fill: #838383" transform="translate(25.717188 86.581628) scale(0.1375 -0.1375)">
       <use xlink:href="#DejaVuSans-34"/>
       <use xlink:href="#DejaVuSans-31" x="63.623047"/>
       <use xlink:href="#DejaVuSans-30" x="127.246094"/>
      </g>
     </g>
    </g>
    <g id="ytick_5">
     <g id="text_12">
      <!-- 415 -->
      <g style="fill: #838383" transform="translate(25.717188 52.733664) scale(0.1375 -0.1375)">
       <use xlink:href="#DejaVuSans-34"/>
       <use xlink:href="#DejaVuSans-31" x="63.623047"/>
       <use xlink:href="#DejaVuSans-35" x="127.246094"/>
      </g>
     </g>
    </g>
    <g id="text_13">
     <!-- energy -->
     <g style="fill: #838383" transform="translate(18.597656 136.361345) rotate(-90) scale(0.15 -0.15)">
      <defs>
       <path id="DejaVuSans-65" d="M 3597 1894 
L 3597 1613 
L 953 1613 
Q 991 1019 1311 708 
Q 1631 397 2203 397 
Q 2534 397 2845 478 
Q 3156 559 3463 722 
L 3463 178 
Q 3153 47 2828 -22 
Q 2503 -91 2169 -91 
Q 1331 -91 842 396 
Q 353 884 353 1716 
Q 353 2575 817 3079 
Q 1281 3584 2069 3584 
Q 2775 3584 3186 3129 
Q 3597 2675 3597 1894 
z
M 3022 2063 
Q 3016 2534 2758 2815 
Q 2500 3097 2075 3097 
Q 1594 3097 1305 2825 
Q 1016 2553 972 2059 
L 3022 2063 
z
" transform="scale(0.015625)"/>
       <path id="DejaVuSans-6e" d="M 3513 2113 
L 3513 0 
L 2938 0 
L 2938 2094 
Q 2938 2591 2744 2837 
Q 2550 3084 2163 3084 
Q 1697 3084 1428 2787 
Q 1159 2491 1159 1978 
L 1159 0 
L 581 0 
L 581 3500 
L 1159 3500 
L 1159 2956 
Q 1366 3272 1645 3428 
Q 1925 3584 2291 3584 
Q 2894 3584 3203 3211 
Q 3513 2838 3513 2113 
z
" transform="scale(0.015625)"/>
       <path id="DejaVuSans-67" d="M 2906 1791 
Q 2906 2416 2648 2759 
Q 2391 3103 1925 3103 
Q 1463 3103 1205 2759 
Q 947 2416 947 1791 
Q 947 1169 1205 825 
Q 1463 481 1925 481 
Q 2391 481 2648 825 
Q 2906 1169 2906 1791 
z
M 3481 434 
Q 3481 -459 3084 -895 
Q 2688 -1331 1869 -1331 
Q 1566 -1331 1297 -1286 
Q 1028 -1241 775 -1147 
L 775 -588 
Q 1028 -725 1275 -790 
Q 1522 -856 1778 -856 
Q 2344 -856 2625 -561 
Q 2906 -266 2906 331 
L 2906 616 
Q 2728 306 2450 153 
Q 2172 0 1784 0 
Q 1141 0 747 490 
Q 353 981 353 1791 
Q 353 2603 747 3093 
Q 1141 3584 1784 3584 
Q 2172 3584 2450 3431 
Q 2728 3278 2906 2969 
L 2906 3500 
L 3481 3500 
L 3481 434 
z
" transform="scale(0.015625)"/>
       <path id="DejaVuSans-79" d="M 2059 -325 
Q 1816 -950 1584 -1140 
Q 1353 -1331 966 -1331 
L 506 -1331 
L 506 -850 
L 844 -850 
Q 1081 -850 1212 -737 
Q 1344 -625 1503 -206 
L 1606 56 
L 191 3500 
L 800 3500 
L 1894 763 
L 2988 3500 
L 3597 3500 
L 2059 -325 
z
" transform="scale(0.015625)"/>
      </defs>
      <use xlink:href="#DejaVuSans-65"/>
      <use xlink:href="#DejaVuSans-6e" x="61.523438"/>
      <use xlink:href="#DejaVuSans-65" x="124.902344"/>
      <use xlink:href="#DejaVuSans-72" x="186.425781"/>
      <use xlink:href="#DejaVuSans-67" x="225.789062"/>
      <use xlink:href="#DejaVuSans-79" x="289.265625"/>
     </g>
    </g>
   </g>
   <g id="line2d_1">
    <path d="M 67.570504 107.086204 
L 69.515565 166.941981 
L 71.460626 174.129302 
L 72.433156 176.982332 
L 73.405687 173.337643 
L 74.378217 176.472464 
L 76.323278 170.813714 
L 78.268339 181.904169 
L 80.2134 173.787599 
L 81.18593 178.987923 
L 82.158461 178.189859 
L 83.130991 175.530406 
L 84.103522 179.736404 
L 86.048583 172.688945 
L 87.993643 180.88526 
L 89.938704 170.387309 
L 91.883765 178.619363 
L 92.856296 178.960033 
L 93.828826 174.968683 
L 95.773887 177.989465 
L 97.718948 174.548063 
L 98.691478 177.432701 
L 101.60907 175.308113 
L 102.5816 177.977277 
L 103.554131 177.072612 
L 104.526661 181.192255 
L 106.471722 171.202519 
L 107.444252 179.74756 
L 108.416783 178.715841 
L 109.389313 173.475646 
L 110.361844 179.657486 
L 111.334374 176.675543 
L 113.279435 179.37053 
L 114.251966 175.83079 
L 115.224496 178.947637 
L 116.197026 177.634335 
L 117.169557 180.951369 
L 118.142087 176.797639 
L 119.114618 177.220738 
L 120.087148 173.024037 
L 121.059679 179.438705 
L 122.032209 178.825128 
L 123.00474 180.376011 
L 124.9498 174.725732 
L 125.922331 179.506054 
L 127.867392 174.78585 
L 128.839922 177.942156 
L 129.812453 176.870979 
L 130.784983 181.547799 
L 131.757514 178.105777 
L 132.730044 180.286144 
L 133.702575 174.01609 
L 134.675105 175.542801 
L 135.647635 184.216136 
L 136.620166 172.798232 
L 137.592696 177.40729 
L 138.565227 170.86908 
L 140.510288 180.284698 
L 141.482818 179.659345 
L 142.455349 175.036239 
L 143.427879 176.112168 
L 144.400409 171.739864 
L 146.34547 175.034173 
L 148.290531 173.733059 
L 149.263062 179.919237 
L 150.235592 172.32865 
L 151.208123 180.852825 
L 152.180653 180.191112 
L 153.153183 184.574985 
L 155.098244 178.923053 
L 156.070775 179.990718 
L 158.015836 170.144977 
L 158.988366 176.809621 
L 159.960897 175.120941 
L 160.933427 176.244593 
L 161.905958 175.407277 
L 162.878488 171.480385 
L 163.851018 172.712084 
L 165.796079 180.676809 
L 168.713671 174.098726 
L 169.686201 179.80995 
L 170.658732 171.124014 
L 171.631262 176.780698 
L 172.603792 171.352504 
L 174.548853 177.478151 
L 175.521384 173.388051 
L 176.493914 174.389194 
L 177.466445 179.641578 
L 178.438975 178.43591 
L 179.411506 173.770659 
L 180.384036 180.924512 
L 181.356566 179.308759 
L 182.329097 171.351678 
L 184.274158 175.46409 
L 185.246688 176.879449 
L 186.219219 180.378077 
L 190.109341 168.612894 
L 191.081871 179.421765 
L 193.999462 170.397638 
L 194.971993 173.555804 
L 195.944523 171.991492 
L 197.889584 181.468468 
L 198.862115 179.482709 
L 199.834645 168.909146 
L 200.807175 171.688216 
L 201.779706 179.119521 
L 202.752236 172.727165 
L 203.724767 180.792707 
L 204.697297 172.391867 
L 205.669828 175.838641 
L 207.614889 173.84214 
L 208.587419 176.460481 
L 209.559949 175.911154 
L 210.53248 173.775824 
L 211.50501 177.540542 
L 213.450071 173.770039 
L 214.422602 173.431436 
L 215.395132 178.711296 
L 217.340193 175.067228 
L 218.312723 181.225103 
L 219.285254 177.376095 
L 220.257784 180.061372 
L 222.202845 177.17818 
L 223.175376 176.854658 
L 224.147906 175.025909 
L 225.120437 178.096067 
L 226.092967 177.341181 
L 227.065498 171.326681 
L 229.010558 183.346798 
L 230.955619 172.700928 
L 232.90068 177.015386 
L 233.873211 174.507778 
L 234.845741 179.675046 
L 236.790802 174.955255 
L 237.763332 178.961479 
L 238.735863 177.707055 
L 239.708393 180.789814 
L 240.680924 176.877796 
L 241.653454 178.309269 
L 242.625985 182.024612 
L 244.571046 179.141213 
L 245.543576 171.256439 
L 246.516106 178.16073 
L 247.488637 169.808852 
L 248.461167 170.635425 
L 249.433698 173.014947 
L 251.378759 180.218382 
L 252.351289 181.495531 
L 253.32382 175.28952 
L 255.268881 180.331181 
L 256.241411 176.855071 
L 258.186472 180.022533 
L 259.159002 174.162356 
L 260.131533 177.145539 
L 261.104063 174.773868 
L 264.994185 179.244096 
L 266.939246 175.809718 
L 267.911776 175.773977 
L 268.884307 173.50994 
L 269.856837 177.707881 
L 270.829368 173.704136 
L 272.774429 183.274285 
L 274.719489 170.565184 
L 275.69202 178.415664 
L 276.66455 175.00587 
L 279.582142 176.668726 
L 280.554672 182.586748 
L 284.444794 171.92311 
L 285.417324 174.303872 
L 286.389855 182.426846 
L 287.362385 177.512859 
L 288.334916 179.207323 
L 289.307446 175.437853 
L 290.279977 178.559452 
L 291.252507 178.255349 
L 292.225038 175.042643 
L 293.197568 175.826245 
L 295.142629 182.328508 
L 297.08769 180.111987 
L 298.06022 175.690308 
L 299.032751 179.164145 
L 300.005281 177.622765 
L 300.977812 178.587548 
L 301.950342 182.722272 
L 303.895403 175.986354 
L 304.867933 177.58186 
L 305.840464 174.954015 
L 306.812994 175.715305 
L 307.785525 172.563751 
L 308.758055 177.036459 
L 309.730586 174.753415 
L 309.730586 174.753415 
" clip-path="url(#p816a433b94)" style="fill: none; stroke: #440154; stroke-width: 1.5; stroke-linecap: round"/>
   </g>
   <g id="line2d_2">
    <path d="M 67.570504 95.553022 
L 69.515565 165.076666 
L 71.460626 172.539373 
L 72.433156 175.227336 
L 73.405687 171.406838 
L 74.378217 174.34581 
L 76.323278 168.698422 
L 78.268339 179.513078 
L 80.2134 171.049848 
L 81.18593 176.537746 
L 82.158461 175.638247 
L 83.130991 172.6844 
L 84.103522 176.558406 
L 86.048583 169.591518 
L 87.993643 177.781634 
L 89.938704 166.717209 
L 91.883765 174.278461 
L 92.856296 174.098313 
L 93.828826 169.802241 
L 95.773887 171.992319 
L 97.718948 168.00758 
L 98.691478 170.53874 
L 101.60907 167.679513 
L 102.5816 169.188045 
L 103.554131 168.754615 
L 104.526661 171.830351 
L 106.471722 161.048956 
L 107.444252 169.857401 
L 108.416783 167.96151 
L 109.389313 163.182427 
L 110.361844 169.292993 
L 111.334374 165.904891 
L 113.279435 168.407955 
L 114.251966 163.722045 
L 115.224496 167.756365 
L 116.197026 166.624863 
L 117.169557 169.836122 
L 118.142087 164.78971 
L 119.114618 165.115711 
L 120.087148 161.671003 
L 121.059679 169.61321 
L 122.032209 168.954596 
L 123.00474 171.070094 
L 124.9498 165.802215 
L 125.922331 169.688823 
L 127.867392 165.37767 
L 128.839922 169.059131 
L 129.812453 167.874535 
L 130.784983 172.928178 
L 131.757514 169.404759 
L 132.730044 172.062147 
L 133.702575 165.635289 
L 134.675105 166.294936 
L 135.647635 175.019712 
L 136.620166 163.749315 
L 137.592696 168.254251 
L 138.565227 161.603035 
L 140.510288 170.351362 
L 141.482818 169.431823 
L 142.455349 164.893419 
L 143.427879 165.298545 
L 144.400409 160.927894 
L 145.37294 164.68972 
L 148.290531 163.740638 
L 149.263062 169.863186 
L 150.235592 161.685878 
L 151.208123 169.930948 
L 152.180653 169.761336 
L 153.153183 174.368948 
L 155.098244 169.254567 
L 156.070775 170.574274 
L 158.015836 160.300888 
L 158.988366 167.186585 
L 159.960897 165.87101 
L 160.933427 167.00086 
L 161.905958 165.628265 
L 162.878488 161.810246 
L 163.851018 162.86469 
L 164.823549 170.888293 
L 165.796079 170.611047 
L 168.713671 163.723697 
L 169.686201 170.049531 
L 170.658732 161.301824 
L 171.631262 166.383357 
L 172.603792 160.929753 
L 174.548853 166.934957 
L 175.521384 162.557281 
L 176.493914 163.073554 
L 177.466445 168.19971 
L 178.438975 166.470746 
L 179.411506 161.497467 
L 180.384036 168.874852 
L 181.356566 166.513097 
L 182.329097 158.399626 
L 184.274158 162.24099 
L 185.246688 163.133465 
L 186.219219 166.308158 
L 189.13681 159.851758 
L 190.109341 154.48079 
L 191.081871 164.814294 
L 193.999462 155.468505 
L 194.971993 157.634617 
L 195.944523 156.913406 
L 197.889584 165.812545 
L 198.862115 163.830505 
L 199.834645 152.18969 
L 200.807175 155.602376 
L 201.779706 163.454095 
L 202.752236 156.277311 
L 203.724767 165.012209 
L 204.697297 156.141167 
L 205.669828 159.301811 
L 207.614889 157.394971 
L 208.587419 160.03955 
L 209.559949 159.466465 
L 210.53248 157.030337 
L 211.50501 161.562336 
L 212.477541 156.847503 
L 213.450071 157.595365 
L 214.422602 156.494025 
L 215.395132 161.403674 
L 217.340193 158.314304 
L 218.312723 164.358347 
L 219.285254 160.401705 
L 220.257784 162.757675 
L 222.202845 159.656116 
L 223.175376 159.77408 
L 224.147906 157.85753 
L 225.120437 161.124362 
L 226.092967 159.96621 
L 227.065498 154.256432 
L 229.010558 166.562679 
L 230.955619 156.440518 
L 232.90068 159.748875 
L 233.873211 157.628213 
L 234.845741 162.32218 
L 236.790802 158.350664 
L 237.763332 162.291398 
L 238.735863 161.969941 
L 239.708393 164.026561 
L 240.680924 160.238497 
L 241.653454 160.938636 
L 242.625985 165.670203 
L 243.598515 161.864786 
L 244.571046 162.56224 
L 245.543576 153.936215 
L 246.516106 161.099158 
L 247.488637 152.841693 
L 248.461167 153.100965 
L 249.433698 156.026508 
L 251.378759 163.176436 
L 252.351289 164.592002 
L 253.32382 157.666846 
L 255.268881 162.299455 
L 256.241411 158.455406 
L 258.186472 162.092863 
L 259.159002 156.979309 
L 260.131533 159.611699 
L 261.104063 157.143342 
L 262.076594 158.302321 
L 264.021655 160.980574 
L 264.994185 161.611505 
L 266.939246 158.25026 
L 268.884307 156.150877 
L 269.856837 159.633597 
L 270.829368 156.207483 
L 272.774429 165.611531 
L 274.719489 153.037335 
L 275.69202 159.904232 
L 276.66455 156.105426 
L 278.609611 158.107299 
L 279.582142 158.674393 
L 280.554672 165.209091 
L 281.527203 162.132322 
L 282.499733 162.498196 
L 283.472263 159.98253 
L 284.444794 154.458478 
L 285.417324 156.705782 
L 286.389855 164.870281 
L 287.362385 159.209052 
L 288.334916 161.303684 
L 289.307446 157.117312 
L 291.252507 160.687214 
L 293.197568 157.201601 
L 296.115159 163.496447 
L 298.06022 157.205113 
L 299.032751 160.798774 
L 300.005281 158.491972 
L 300.977812 160.08562 
L 301.950342 163.669984 
L 303.895403 157.755267 
L 304.867933 158.013506 
L 307.785525 152.068627 
L 308.758055 158.569031 
L 309.730586 155.536886 
L 309.730586 155.536886 
" clip-path="url(#p816a433b94)" style="fill: none; stroke: #482878; stroke-width: 1.5; stroke-linecap: round"/>
   </g>
   <g id="line2d_3">
    <path d="M 67.570504 86.692723 
L 69.515565 163.616683 
L 71.460626 171.436794 
L 72.433156 173.971053 
L 73.405687 170.159438 
L 74.378217 173.103575 
L 76.323278 167.281204 
L 78.268339 177.966121 
L 80.2134 169.358689 
L 81.18593 174.347256 
L 82.158461 173.167618 
L 83.130991 169.683038 
L 84.103522 173.461185 
L 86.048583 164.78062 
L 87.021113 172.148295 
L 87.993643 171.935712 
L 89.938704 160.422571 
L 91.883765 166.581272 
L 92.856296 166.076982 
L 93.828826 161.271455 
L 95.773887 163.841868 
L 97.718948 158.502302 
L 98.691478 161.038007 
L 101.60907 155.08631 
L 102.5816 158.293851 
L 103.554131 155.05842 
L 104.526661 160.733078 
L 106.471722 148.793944 
L 107.444252 156.159967 
L 108.416783 154.620859 
L 109.389313 148.136983 
L 110.361844 153.599677 
L 111.334374 150.645624 
L 112.306905 153.327596 
L 114.251966 148.700771 
L 115.224496 150.1058 
L 116.197026 148.787953 
L 117.169557 151.824436 
L 118.142087 148.035959 
L 119.114618 148.371877 
L 120.087148 142.964963 
L 122.032209 148.214041 
L 123.00474 149.182336 
L 123.97727 147.927705 
L 124.9498 141.691739 
L 125.922331 148.15289 
L 127.867392 141.417179 
L 130.784983 147.942167 
L 133.702575 136.577771 
L 135.647635 147.084399 
L 136.620166 135.972251 
L 137.592696 138.366234 
L 138.565227 130.018695 
L 140.510288 140.085283 
L 141.482818 139.349197 
L 142.455349 134.503591 
L 143.427879 135.50618 
L 144.400409 131.400793 
L 146.34547 135.087419 
L 148.290531 132.365162 
L 149.263062 138.290002 
L 150.235592 131.985653 
L 151.208123 140.989121 
L 152.180653 140.494541 
L 153.153183 144.62224 
L 155.098244 142.950501 
L 156.070775 144.892255 
L 158.015836 136.488317 
L 158.988366 142.661066 
L 159.960897 141.116794 
L 160.933427 144.33797 
L 161.905958 143.042228 
L 162.878488 139.596694 
L 163.851018 141.415939 
L 165.796079 150.817302 
L 168.713671 144.601168 
L 169.686201 151.171193 
L 170.658732 143.06392 
L 171.631262 148.517318 
L 172.603792 142.374111 
L 174.548853 150.570838 
L 175.521384 146.314019 
L 176.493914 147.344291 
L 177.466445 151.947978 
L 178.438975 150.443784 
L 179.411506 145.649827 
L 180.384036 153.228432 
L 181.356566 150.948074 
L 182.329097 143.086025 
L 184.274158 147.854985 
L 185.246688 148.390264 
L 186.219219 151.607928 
L 190.109341 139.770644 
L 191.081871 150.291113 
L 193.999462 140.585854 
L 194.971993 143.285799 
L 195.944523 141.829329 
L 197.889584 150.845811 
L 198.862115 148.757377 
L 199.834645 137.395873 
L 200.807175 139.997481 
L 201.779706 147.775241 
L 202.752236 140.502391 
L 203.724767 149.528377 
L 204.697297 140.515613 
L 205.669828 143.753109 
L 207.614889 141.861557 
L 208.587419 143.954949 
L 209.559949 143.5961 
L 210.53248 141.141792 
L 211.50501 146.003098 
L 212.477541 140.912682 
L 213.450071 141.341359 
L 214.422602 140.232169 
L 215.395132 145.168055 
L 217.340193 142.249123 
L 218.312723 147.400071 
L 219.285254 144.00949 
L 220.257784 146.33819 
L 222.202845 143.882642 
L 223.175376 143.209154 
L 224.147906 141.098408 
L 225.120437 144.364414 
L 226.092967 143.62461 
L 227.065498 137.620852 
L 229.010558 150.375609 
L 230.955619 140.190438 
L 232.90068 143.931398 
L 233.873211 141.485767 
L 234.845741 145.888027 
L 236.790802 141.921882 
L 237.763332 146.187378 
L 238.735863 145.781632 
L 239.708393 147.991749 
L 240.680924 143.827896 
L 241.653454 145.196771 
L 242.625985 149.351948 
L 245.543576 137.757615 
L 246.516106 144.335285 
L 247.488637 135.563613 
L 248.461167 136.325109 
L 249.433698 138.923412 
L 251.378759 146.453881 
L 252.351289 147.544271 
L 253.32382 141.033745 
L 255.268881 145.196978 
L 256.241411 141.460976 
L 258.186472 145.042034 
L 259.159002 139.300441 
L 260.131533 142.732134 
L 261.104063 139.835927 
L 264.021655 143.727079 
L 264.994185 143.835126 
L 266.939246 140.726336 
L 268.884307 138.623647 
L 269.856837 142.039432 
L 270.829368 138.84594 
L 272.774429 148.214041 
L 274.719489 135.527666 
L 275.69202 142.631937 
L 276.66455 138.409825 
L 278.609611 140.552799 
L 279.582142 141.223189 
L 280.554672 147.081093 
L 281.527203 144.438787 
L 282.499733 144.80714 
L 283.472263 142.381755 
L 284.444794 136.538725 
L 285.417324 138.937253 
L 286.389855 147.185215 
L 287.362385 141.385777 
L 288.334916 143.032311 
L 289.307446 138.803588 
L 291.252507 142.162974 
L 292.225038 138.290208 
L 293.197568 139.029393 
L 295.142629 145.469679 
L 296.115159 144.572658 
L 298.06022 137.86401 
L 299.032751 141.582039 
L 300.005281 139.612395 
L 301.950342 144.507788 
L 303.895403 138.571999 
L 304.867933 139.34052 
L 307.785525 133.404111 
L 308.758055 139.263461 
L 309.730586 136.489969 
L 309.730586 136.489969 
" clip-path="url(#p816a433b94)" style="fill: none; stroke: #3e4989; stroke-width: 1.5; stroke-linecap: round"/>
   </g>
   <g id="line2d_4">
    <path d="M 67.570504 75.408691 
L 69.515565 161.672243 
L 71.460626 169.601228 
L 72.433156 171.693587 
L 73.405687 167.756985 
L 74.378217 170.544525 
L 76.323278 164.751697 
L 78.268339 174.855678 
L 80.2134 165.738792 
L 81.18593 171.116164 
L 82.158461 170.033004 
L 83.130991 166.44864 
L 84.103522 170.169768 
L 86.048583 162.208555 
L 87.993643 170.198691 
L 89.938704 158.584112 
L 91.883765 165.611531 
L 92.856296 165.123149 
L 93.828826 160.189329 
L 94.801357 162.948153 
L 96.746418 160.114956 
L 97.718948 157.794519 
L 98.691478 159.579057 
L 103.554131 156.160793 
L 104.526661 159.016095 
L 106.471722 146.739597 
L 107.444252 154.496491 
L 108.416783 152.343394 
L 109.389313 146.816449 
L 110.361844 152.814009 
L 111.334374 147.752103 
L 112.306905 149.957468 
L 113.279435 148.679699 
L 114.251966 143.179405 
L 115.224496 145.402537 
L 116.197026 143.059168 
L 117.169557 145.294902 
L 120.087148 131.95735 
L 121.059679 137.325839 
L 124.9498 125.709608 
L 125.922331 126.951223 
L 127.867392 118.716483 
L 128.839922 120.46714 
L 129.812453 117.919039 
L 130.784983 119.720931 
L 131.757514 116.319607 
L 132.730044 118.715863 
L 134.675105 110.161526 
L 135.647635 116.4322 
L 136.620166 103.975348 
L 137.592696 108.26109 
L 138.565227 101.116947 
L 140.510288 109.875603 
L 141.482818 110.024142 
L 142.455349 101.397085 
L 143.427879 101.616278 
L 144.400409 97.167329 
L 145.37294 100.559563 
L 146.34547 99.006407 
L 148.290531 100.186252 
L 149.263062 107.91133 
L 150.235592 99.082639 
L 151.208123 109.935515 
L 152.180653 108.941396 
L 153.153183 115.538691 
L 155.098244 111.439501 
L 156.070775 115.122616 
L 158.015836 108.374095 
L 158.988366 114.109491 
L 159.960897 112.994723 
L 161.905958 115.785362 
L 163.851018 112.682769 
L 165.796079 124.357053 
L 168.713671 118.827629 
L 169.686201 126.54837 
L 170.658732 119.719072 
L 171.631262 125.742662 
L 172.603792 121.201366 
L 174.548853 129.209476 
L 175.521384 126.062053 
L 176.493914 127.685243 
L 177.466445 132.179849 
L 178.438975 130.542611 
L 179.411506 126.79504 
L 180.384036 134.31456 
L 181.356566 133.601819 
L 182.329097 125.419966 
L 184.274158 129.733185 
L 186.219219 134.988462 
L 190.109341 122.547104 
L 191.081871 133.22293 
L 193.999462 124.694004 
L 194.971993 126.570062 
L 195.944523 125.185898 
L 197.889584 133.113643 
L 198.862115 130.536 
L 199.834645 120.092589 
L 200.807175 122.432652 
L 201.779706 129.442304 
L 202.752236 123.869497 
L 203.724767 132.191005 
L 204.697297 123.014001 
L 206.642358 125.71188 
L 207.614889 124.290737 
L 208.587419 127.072699 
L 209.559949 126.263273 
L 210.53248 124.037869 
L 211.50501 128.789475 
L 212.477541 123.350745 
L 213.450071 123.542049 
L 214.422602 122.939628 
L 215.395132 127.509847 
L 217.340193 123.831277 
L 218.312723 129.962502 
L 219.285254 126.546304 
L 220.257784 130.175704 
L 222.202845 126.073622 
L 223.175376 125.951733 
L 224.147906 123.449703 
L 226.092967 127.039231 
L 227.065498 120.178738 
L 229.010558 133.695199 
L 230.955619 123.477799 
L 232.90068 127.29871 
L 233.873211 123.919285 
L 234.845741 129.441891 
L 236.790802 125.073512 
L 237.763332 129.758803 
L 238.735863 129.29769 
L 239.708393 131.675146 
L 240.680924 128.341378 
L 241.653454 129.262157 
L 242.625985 132.670711 
L 245.543576 120.145683 
L 246.516106 126.263273 
L 247.488637 118.106211 
L 249.433698 122.056242 
L 251.378759 129.255339 
L 252.351289 130.844028 
L 253.32382 124.237023 
L 255.268881 128.183335 
L 256.241411 126.376692 
L 257.213941 127.048941 
L 258.186472 129.076224 
L 259.159002 122.409721 
L 260.131533 125.511693 
L 261.104063 123.139609 
L 263.049124 127.908982 
L 264.021655 127.05142 
L 264.994185 127.119389 
L 265.966715 123.93416 
L 266.939246 124.310776 
L 268.884307 122.327084 
L 269.856837 125.332578 
L 270.829368 121.617442 
L 272.774429 132.624641 
L 274.719489 118.579719 
L 275.69202 127.152443 
L 276.66455 122.32915 
L 280.554672 130.306064 
L 281.527203 127.815602 
L 282.499733 128.724192 
L 283.472263 126.955975 
L 284.444794 120.941061 
L 285.417324 123.175142 
L 286.389855 130.750029 
L 287.362385 124.934476 
L 288.334916 126.423588 
L 289.307446 122.618998 
L 291.252507 125.576769 
L 292.225038 122.340719 
L 293.197568 123.122875 
L 295.142629 129.044409 
L 296.115159 128.110822 
L 298.06022 121.169138 
L 299.032751 124.948318 
L 300.005281 123.810618 
L 301.950342 128.29944 
L 305.840464 120.027926 
L 306.812994 120.371695 
L 307.785525 118.009733 
L 308.758055 123.658773 
L 309.730586 121.000973 
L 309.730586 121.000973 
" clip-path="url(#p816a433b94)" style="fill: none; stroke: #31688e; stroke-width: 1.5; stroke-linecap: round"/>
   </g>
   <g id="line2d_5">
    <path d="M 67.570504 67.52557 
L 69.515565 160.529792 
L 71.460626 169.012442 
L 72.433156 171.286602 
L 73.405687 167.225011 
L 74.378217 170.169974 
L 76.323278 164.091017 
L 78.268339 174.352421 
L 80.2134 165.424979 
L 81.18593 170.500314 
L 82.158461 169.491321 
L 83.130991 166.108384 
L 84.103522 169.608872 
L 86.048583 161.481972 
L 87.993643 169.406618 
L 89.938704 158.169689 
L 91.883765 165.02729 
L 92.856296 164.745912 
L 93.828826 159.724704 
L 95.773887 162.150296 
L 97.718948 158.118042 
L 98.691478 160.127351 
L 101.60907 156.427296 
L 102.5816 158.550644 
L 103.554131 157.38836 
L 104.526661 161.619769 
L 106.471722 150.036799 
L 107.444252 157.908558 
L 108.416783 156.445889 
L 109.389313 150.85015 
L 110.361844 157.666846 
L 111.334374 153.747803 
L 112.306905 155.922799 
L 113.279435 155.08693 
L 114.251966 150.727228 
L 115.224496 153.745324 
L 116.197026 152.269021 
L 117.169557 155.137338 
L 120.087148 144.431143 
L 121.059679 151.487278 
L 122.032209 150.562161 
L 123.00474 151.271184 
L 124.9498 144.13737 
L 125.922331 147.346977 
L 127.867392 141.407262 
L 128.839922 144.029529 
L 129.812453 142.154917 
L 130.784983 146.436114 
L 131.757514 141.777061 
L 132.730044 144.636288 
L 133.702575 137.020497 
L 134.675105 137.967719 
L 135.647635 144.727602 
L 136.620166 133.634874 
L 137.592696 137.369636 
L 138.565227 130.207933 
L 140.510288 139.053771 
L 141.482818 138.022053 
L 143.427879 130.616984 
L 144.400409 126.064532 
L 145.37294 130.137278 
L 146.34547 128.224447 
L 148.290531 128.434551 
L 149.263062 134.259813 
L 150.235592 125.190443 
L 151.208123 133.448115 
L 152.180653 132.470937 
L 153.153183 137.414054 
L 155.098244 132.962212 
L 156.070775 134.345962 
L 158.015836 124.994388 
L 158.988366 131.161766 
L 159.960897 129.775743 
L 160.933427 130.564923 
L 161.905958 129.258644 
L 163.851018 125.483597 
L 164.823549 133.894146 
L 165.796079 133.712552 
L 166.76861 132.550681 
L 168.713671 126.155432 
L 169.686201 132.744051 
L 170.658732 124.459316 
L 171.631262 130.009605 
L 172.603792 124.512203 
L 174.548853 129.839787 
L 175.521384 126.723766 
L 176.493914 127.041504 
L 177.466445 131.602426 
L 179.411506 125.000999 
L 180.384036 132.149894 
L 181.356566 131.699317 
L 182.329097 122.59524 
L 183.301627 126.847101 
L 184.274158 126.169067 
L 186.219219 131.674526 
L 190.109341 118.014898 
L 191.081871 128.689485 
L 193.026932 125.421826 
L 193.999462 119.434802 
L 194.971993 122.373154 
L 195.944523 120.456191 
L 197.889584 128.394265 
L 198.862115 125.355097 
L 199.834645 114.568744 
L 200.807175 117.19225 
L 201.779706 123.97961 
L 202.752236 118.181204 
L 203.724767 126.409127 
L 204.697297 117.989074 
L 206.642358 120.07379 
L 207.614889 118.594387 
L 208.587419 121.393497 
L 209.559949 120.839005 
L 210.53248 118.328504 
L 211.50501 122.280601 
L 212.477541 117.086475 
L 214.422602 116.911286 
L 215.395132 121.126167 
L 217.340193 117.388925 
L 218.312723 123.773018 
L 219.285254 120.146923 
L 220.257784 123.89656 
L 222.202845 119.612264 
L 223.175376 119.312706 
L 224.147906 116.694778 
L 226.092967 121.027416 
L 227.065498 113.892983 
L 229.010558 127.507987 
L 230.955619 116.91831 
L 232.90068 120.688606 
L 233.873211 117.151345 
L 234.845741 123.342895 
L 236.790802 118.794161 
L 237.763332 123.760623 
L 238.735863 123.223485 
L 239.708393 125.273286 
L 240.680924 121.85213 
L 241.653454 123.062757 
L 242.625985 126.142211 
L 245.543576 114.449954 
L 246.516106 119.626312 
L 247.488637 111.349427 
L 249.433698 115.281278 
L 251.378759 122.6128 
L 252.351289 124.302099 
L 253.32382 118.619798 
L 255.268881 121.574471 
L 256.241411 119.239366 
L 257.213941 120.2465 
L 258.186472 122.820631 
L 259.159002 116.258043 
L 260.131533 118.913985 
L 261.104063 117.124075 
L 264.021655 120.864622 
L 264.994185 120.49441 
L 265.966715 117.959945 
L 266.939246 118.254131 
L 268.884307 115.879361 
L 269.856837 118.948485 
L 270.829368 114.85446 
L 272.774429 126.184562 
L 274.719489 111.917554 
L 275.69202 120.327277 
L 276.66455 116.121693 
L 280.554672 123.627578 
L 281.527203 121.18112 
L 282.499733 122.513636 
L 283.472263 120.416318 
L 284.444794 113.820882 
L 285.417324 116.123552 
L 286.389855 124.284952 
L 287.362385 118.259089 
L 288.334916 119.401541 
L 289.307446 115.566375 
L 290.279977 119.255687 
L 291.252507 118.841264 
L 292.225038 115.560177 
L 294.170098 119.032361 
L 295.142629 122.000256 
L 296.115159 121.074519 
L 298.06022 113.955373 
L 299.032751 118.116541 
L 300.005281 116.655525 
L 301.950342 121.151784 
L 305.840464 113.31494 
L 306.812994 113.546322 
L 307.785525 110.885423 
L 308.758055 116.442116 
L 309.730586 114.363185 
L 309.730586 114.363185 
" clip-path="url(#p816a433b94)" style="fill: none; stroke: #26828e; stroke-width: 1.5; stroke-linecap: round"/>
   </g>
   <g id="line2d_6">
    <path d="M 67.570504 58.988379 
L 69.515565 159.747636 
L 71.460626 168.253424 
L 72.433156 170.492464 
L 73.405687 166.282541 
L 74.378217 169.122762 
L 76.323278 163.094419 
L 78.268339 173.506222 
L 80.2134 164.72484 
L 81.18593 169.765261 
L 82.158461 168.853986 
L 83.130991 165.618762 
L 84.103522 169.162014 
L 86.048583 161.215056 
L 87.993643 169.10954 
L 89.938704 158.153162 
L 91.883765 164.296782 
L 92.856296 164.307525 
L 93.828826 159.483405 
L 95.773887 162.05609 
L 96.746418 157.243126 
L 97.718948 157.780884 
L 98.691478 159.816224 
L 101.60907 154.394848 
L 102.5816 156.68223 
L 103.554131 154.844185 
L 104.526661 158.959489 
L 106.471722 146.51999 
L 107.444252 153.585836 
L 108.416783 151.932277 
L 109.389313 145.340353 
L 110.361844 150.530553 
L 111.334374 147.199677 
L 112.306905 148.453481 
L 114.251966 141.864656 
L 115.224496 144.612324 
L 116.197026 142.239 
L 117.169557 144.015687 
L 119.114618 134.450911 
L 120.087148 130.052576 
L 121.059679 136.473442 
L 123.00474 133.83878 
L 126.894861 119.674035 
L 127.867392 118.622071 
L 128.839922 120.848921 
L 129.812453 115.525883 
L 130.784983 120.710298 
L 131.757514 112.87366 
L 132.730044 114.429295 
L 134.675105 105.859669 
L 135.647635 115.203393 
L 136.620166 103.331402 
L 137.592696 104.854188 
L 138.565227 99.238823 
L 140.510288 108.183411 
L 144.400409 93.745346 
L 145.37294 99.047312 
L 146.34547 98.192436 
L 148.290531 98.945669 
L 149.263062 106.946341 
L 150.235592 97.780079 
L 153.153183 113.208338 
L 155.098244 111.138911 
L 156.070775 113.547355 
L 158.015836 105.361164 
L 158.988366 114.821819 
L 159.960897 112.852588 
L 161.905958 114.087179 
L 163.851018 110.761881 
L 165.796079 123.533372 
L 166.76861 122.849967 
L 168.713671 118.34999 
L 169.686201 125.257585 
L 170.658732 117.765129 
L 171.631262 124.763832 
L 172.603792 120.57746 
L 174.548853 127.266275 
L 175.521384 124.780772 
L 176.493914 126.023007 
L 177.466445 131.428682 
L 178.438975 130.005473 
L 179.411506 125.839554 
L 180.384036 133.800767 
L 181.356566 132.687238 
L 182.329097 125.010502 
L 184.274158 128.856411 
L 186.219219 134.856656 
L 190.109341 121.771972 
L 191.081871 132.51742 
L 193.999462 124.316767 
L 194.971993 126.511596 
L 195.944523 124.767963 
L 197.889584 133.054145 
L 198.862115 130.443034 
L 199.834645 119.620115 
L 200.807175 121.751107 
L 201.779706 128.803936 
L 202.752236 122.970617 
L 203.724767 131.797035 
L 204.697297 123.034247 
L 206.642358 125.023724 
L 207.614889 124.278341 
L 209.559949 126.166175 
L 210.53248 123.484823 
L 211.50501 128.305224 
L 213.450071 122.778073 
L 214.422602 122.592761 
L 215.395132 127.054726 
L 217.340193 123.28257 
L 218.312723 129.384665 
L 219.285254 126.445694 
L 220.257784 129.69228 
L 222.202845 126.315954 
L 223.175376 125.60342 
L 224.147906 123.293933 
L 226.092967 126.802064 
L 227.065498 119.708536 
L 229.010558 133.577441 
L 230.955619 122.96194 
L 232.90068 127.114431 
L 233.873211 123.521183 
L 234.845741 129.150597 
L 235.818272 127.924683 
L 236.790802 124.950177 
L 237.763332 129.749299 
L 238.735863 129.437966 
L 239.708393 131.539209 
L 240.680924 128.083965 
L 241.653454 128.933883 
L 242.625985 132.470111 
L 245.543576 120.28286 
L 246.516106 125.963302 
L 247.488637 117.634769 
L 249.433698 121.726729 
L 250.406228 129.330745 
L 251.378759 128.913017 
L 252.351289 130.569881 
L 253.32382 124.625002 
L 255.268881 128.227546 
L 256.241411 126.306864 
L 257.213941 126.795247 
L 258.186472 128.643002 
L 259.159002 122.329356 
L 260.131533 125.081983 
L 261.104063 123.038172 
L 263.049124 127.553024 
L 264.021655 126.794214 
L 264.994185 126.950397 
L 266.939246 124.090136 
L 268.884307 122.127723 
L 269.856837 125.091899 
L 270.829368 121.269748 
L 272.774429 132.154025 
L 274.719489 118.620211 
L 275.69202 126.826029 
L 276.66455 122.194659 
L 280.554672 130.484559 
L 281.527203 127.674087 
L 282.499733 128.34427 
L 283.472263 126.809295 
L 284.444794 120.741907 
L 285.417324 122.913597 
L 286.389855 130.773374 
L 287.362385 125.006163 
L 288.334916 126.389707 
L 289.307446 122.298987 
L 290.279977 125.643705 
L 291.252507 125.065868 
L 292.225038 121.959351 
L 293.197568 122.886534 
L 295.142629 128.778732 
L 297.08769 125.320802 
L 298.06022 121.024524 
L 299.032751 124.903901 
L 300.005281 123.341242 
L 301.950342 128.574413 
L 303.895403 121.537284 
L 304.867933 123.604853 
L 305.840464 119.819269 
L 306.812994 120.370868 
L 307.785525 117.909743 
L 308.758055 123.586879 
L 309.730586 121.323255 
L 309.730586 121.323255 
" clip-path="url(#p816a433b94)" style="fill: none; stroke: #1f9e89; stroke-width: 1.5; stroke-linecap: round"/>
   </g>
   <g id="line2d_7">
    <path d="M 67.570504 50.277032 
L 69.515565 159.73524 
L 71.460626 169.114291 
L 72.433156 171.384939 
L 73.405687 167.469409 
L 74.378217 170.53089 
L 76.323278 164.969858 
L 78.268339 175.582467 
L 80.2134 167.030815 
L 81.18593 171.889849 
L 82.158461 170.813094 
L 83.130991 167.466517 
L 84.103522 170.729837 
L 86.048583 161.701579 
L 87.021113 170.014411 
L 87.993643 169.357036 
L 89.938704 157.002447 
L 91.883765 164.615553 
L 92.856296 163.62412 
L 93.828826 158.536596 
L 94.801357 161.30575 
L 95.773887 159.701773 
L 96.746418 160.169496 
L 97.718948 154.908022 
L 98.691478 156.538442 
L 100.636539 155.145189 
L 101.60907 153.655457 
L 102.5816 154.473353 
L 103.554131 153.148068 
L 104.526661 156.887169 
L 106.471722 145.10959 
L 107.444252 152.281623 
L 108.416783 150.64893 
L 109.389313 145.242428 
L 110.361844 152.212828 
L 111.334374 146.484044 
L 112.306905 150.671448 
L 114.251966 144.19129 
L 115.224496 145.193673 
L 116.197026 143.525032 
L 117.169557 147.31041 
L 118.142087 143.341992 
L 119.114618 144.068162 
L 120.087148 138.325742 
L 122.032209 143.232705 
L 123.97727 140.608372 
L 124.9498 137.312824 
L 125.922331 141.970431 
L 127.867392 133.957363 
L 129.812453 136.441627 
L 130.784983 139.592355 
L 131.757514 135.610716 
L 132.730044 136.389359 
L 133.702575 128.477522 
L 135.647635 137.853474 
L 136.620166 128.512229 
L 137.592696 129.310912 
L 138.565227 121.560423 
L 140.510288 131.717291 
L 141.482818 131.835461 
L 142.455349 124.482041 
L 143.427879 125.025377 
L 144.400409 120.636545 
L 146.34547 123.848218 
L 148.290531 123.266869 
L 149.263062 129.208649 
L 150.235592 122.692544 
L 151.208123 130.803536 
L 152.180653 130.571121 
L 154.125714 134.482726 
L 155.098244 133.605331 
L 156.070775 134.200522 
L 157.043305 132.487051 
L 158.015836 125.453847 
L 158.988366 133.681977 
L 159.960897 133.325813 
L 160.933427 135.465482 
L 162.878488 130.456049 
L 163.851018 130.476502 
L 165.796079 140.070821 
L 166.76861 140.567261 
L 168.713671 133.027081 
L 169.686201 140.049336 
L 170.658732 133.00353 
L 171.631262 138.164394 
L 172.603792 133.777215 
L 174.548853 140.019793 
L 175.521384 136.747383 
L 176.493914 137.630355 
L 177.466445 140.650104 
L 179.411506 134.425293 
L 180.384036 143.904541 
L 181.356566 141.601871 
L 182.329097 133.218385 
L 183.301627 138.072461 
L 184.274158 136.783949 
L 186.219219 141.786358 
L 187.191749 139.948932 
L 188.16428 133.668342 
L 189.13681 135.959855 
L 190.109341 129.074571 
L 191.081871 138.318305 
L 193.026932 136.858529 
L 193.999462 131.170443 
L 194.971993 133.528273 
L 195.944523 131.927188 
L 197.889584 139.677264 
L 198.862115 136.825474 
L 199.834645 127.150377 
L 200.807175 128.670478 
L 201.779706 135.966466 
L 202.752236 131.46215 
L 203.724767 139.282261 
L 205.669828 131.744768 
L 207.614889 133.174588 
L 208.587419 133.839193 
L 210.53248 131.635481 
L 211.50501 137.052518 
L 212.477541 130.240574 
L 213.450071 130.980379 
L 214.422602 129.663357 
L 215.395132 133.775769 
L 216.367663 131.472893 
L 217.340193 132.333967 
L 218.312723 137.532017 
L 219.285254 133.189462 
L 220.257784 138.160469 
L 224.147906 129.584439 
L 225.120437 134.99342 
L 226.092967 134.722165 
L 227.065498 127.420599 
L 229.010558 141.698763 
L 230.955619 131.195234 
L 232.90068 134.128215 
L 233.873211 132.258561 
L 234.845741 136.803782 
L 235.818272 135.448541 
L 236.790802 132.09494 
L 237.763332 137.395667 
L 238.735863 136.764323 
L 239.708393 138.366854 
L 241.653454 135.202491 
L 242.625985 140.39579 
L 245.543576 128.005667 
L 246.516106 132.824622 
L 247.488637 125.149331 
L 249.433698 129.898872 
L 251.378759 136.483772 
L 252.351289 138.396396 
L 253.32382 131.692087 
L 255.268881 135.677858 
L 257.213941 133.872248 
L 258.186472 136.996532 
L 259.159002 129.252653 
L 263.049124 135.025235 
L 268.884307 130.004233 
L 269.856837 132.049903 
L 270.829368 127.934599 
L 272.774429 140.008017 
L 274.719489 125.221639 
L 275.69202 133.720816 
L 276.66455 129.154936 
L 277.637081 132.491183 
L 278.609611 131.68403 
L 279.582142 133.43448 
L 280.554672 137.428722 
L 281.527203 135.170469 
L 282.499733 136.370146 
L 283.472263 134.733115 
L 284.444794 128.168048 
L 285.417324 129.974071 
L 286.389855 137.457025 
L 287.362385 131.310719 
L 288.334916 133.916252 
L 289.307446 130.290983 
L 290.279977 133.328912 
L 291.252507 132.28707 
L 292.225038 129.017552 
L 294.170098 131.925535 
L 295.142629 137.167177 
L 296.115159 136.39535 
L 298.06022 126.795453 
L 299.032751 131.827198 
L 300.977812 132.082751 
L 301.950342 135.325413 
L 303.895403 129.947421 
L 304.867933 129.932753 
L 307.785525 124.408494 
L 308.758055 131.361127 
L 309.730586 127.911461 
L 309.730586 127.911461 
" clip-path="url(#p816a433b94)" style="fill: none; stroke: #35b779; stroke-width: 1.5; stroke-linecap: round"/>
   </g>
   <g id="line2d_8">
    <path d="M 67.570504 43.790263 
L 69.515565 159.730282 
L 71.460626 169.097971 
L 72.433156 171.421299 
L 73.405687 167.572705 
L 74.378217 170.629227 
L 76.323278 164.676498 
L 78.268339 175.624405 
L 80.2134 167.549773 
L 81.18593 172.753815 
L 82.158461 172.138585 
L 83.130991 169.297125 
L 84.103522 172.724479 
L 86.048583 165.285943 
L 87.021113 173.79483 
L 87.993643 173.66695 
L 89.938704 163.076653 
L 91.883765 170.296408 
L 92.856296 170.391234 
L 93.828826 165.761517 
L 95.773887 168.087738 
L 97.718948 164.537668 
L 98.691478 166.729192 
L 101.60907 163.688577 
L 102.5816 164.854373 
L 103.554131 164.240589 
L 104.526661 167.96213 
L 106.471722 156.807425 
L 107.444252 164.328597 
L 108.416783 163.172511 
L 109.389313 158.505194 
L 110.361844 165.028943 
L 111.334374 160.457278 
L 112.306905 163.62536 
L 114.251966 158.045941 
L 115.224496 161.50511 
L 116.197026 159.757552 
L 117.169557 163.771007 
L 118.142087 158.42483 
L 119.114618 158.817974 
L 120.087148 155.059247 
L 122.032209 163.107435 
L 124.9498 159.400975 
L 125.922331 162.194507 
L 127.867392 156.257478 
L 130.784983 163.314439 
L 131.757514 160.235812 
L 132.730044 162.769864 
L 133.702575 155.541431 
L 134.675105 158.055238 
L 135.647635 164.058169 
L 136.620166 154.738617 
L 137.592696 157.216063 
L 138.565227 150.538403 
L 140.510288 159.700946 
L 141.482818 160.758282 
L 142.455349 152.81339 
L 143.427879 153.540385 
L 144.400409 148.275192 
L 145.37294 152.27088 
L 146.34547 151.169954 
L 148.290531 152.056438 
L 149.263062 158.003796 
L 150.235592 149.782278 
L 151.208123 158.226089 
L 152.180653 157.087356 
L 153.153183 161.196669 
L 157.043305 155.223694 
L 158.015836 148.625778 
L 158.988366 155.063792 
L 159.960897 154.66569 
L 160.933427 156.277104 
L 163.851018 149.770089 
L 165.796079 158.346532 
L 166.76861 158.39694 
L 168.713671 149.789509 
L 169.686201 156.627896 
L 170.658732 149.442641 
L 171.631262 154.129998 
L 172.603792 149.625888 
L 174.548853 154.965867 
L 175.521384 151.082359 
L 177.466445 154.291966 
L 179.411506 147.947538 
L 180.384036 156.850602 
L 181.356566 155.074121 
L 182.329097 146.131598 
L 183.301627 150.840647 
L 184.274158 150.235333 
L 186.219219 154.145286 
L 187.191749 152.94127 
L 188.16428 145.990496 
L 189.13681 147.855812 
L 190.109341 141.661163 
L 191.081871 150.295658 
L 193.026932 148.839601 
L 193.999462 143.33848 
L 194.971993 146.220639 
L 195.944523 144.33921 
L 197.889584 152.908628 
L 198.862115 149.633325 
L 199.834645 139.859478 
L 200.807175 141.172161 
L 201.779706 148.937525 
L 202.752236 144.220626 
L 203.724767 151.682714 
L 204.697297 144.893702 
L 209.559949 145.944013 
L 210.53248 144.269382 
L 211.50501 150.696859 
L 212.477541 142.921372 
L 213.450071 144.598069 
L 214.422602 142.707136 
L 215.395132 147.105264 
L 216.367663 145.138719 
L 217.340193 146.404712 
L 218.312723 152.054579 
L 219.285254 147.947125 
L 220.257784 151.618051 
L 224.147906 143.130236 
L 226.092967 149.017269 
L 227.065498 141.525639 
L 229.010558 155.457142 
L 230.955619 144.698679 
L 232.90068 147.744252 
L 233.873211 146.121682 
L 234.845741 150.589018 
L 236.790802 146.598495 
L 238.735863 150.646864 
L 239.708393 152.051686 
L 241.653454 149.17965 
L 242.625985 154.660318 
L 245.543576 142.163594 
L 246.516106 146.294806 
L 247.488637 139.28474 
L 249.433698 144.37433 
L 251.378759 150.617941 
L 252.351289 152.33637 
L 253.32382 145.858897 
L 255.268881 149.727944 
L 257.213941 148.222512 
L 258.186472 151.798199 
L 259.159002 143.918176 
L 261.104063 148.197514 
L 262.076594 148.170451 
L 263.049124 150.02523 
L 265.966715 146.88731 
L 267.911776 146.416695 
L 268.884307 144.939152 
L 269.856837 147.039568 
L 270.829368 142.380515 
L 272.774429 154.120495 
L 274.719489 140.007811 
L 275.69202 148.767294 
L 276.66455 143.634939 
L 277.637081 147.923367 
L 278.609611 147.180877 
L 279.582142 148.486122 
L 280.554672 152.276045 
L 281.527203 151.067897 
L 282.499733 151.843442 
L 283.472263 149.966145 
L 284.444794 143.596306 
L 285.417324 145.223628 
L 286.389855 152.964821 
L 287.362385 146.498505 
L 288.334916 150.275825 
L 289.307446 146.296252 
L 290.279977 148.955912 
L 291.252507 148.13595 
L 292.225038 144.052461 
L 295.142629 153.2995 
L 296.115159 152.483463 
L 298.06022 142.863733 
L 299.032751 147.802511 
L 300.005281 146.93276 
L 300.977812 147.983072 
L 301.950342 151.233997 
L 303.895403 145.525252 
L 304.867933 146.029955 
L 307.785525 140.854836 
L 308.758055 147.840524 
L 309.730586 143.927679 
L 309.730586 143.927679 
" clip-path="url(#p816a433b94)" style="fill: none; stroke: #6ece58; stroke-width: 1.5; stroke-linecap: round"/>
   </g>
   <g id="line2d_9">
    <path d="M 67.570504 35.877393 
L 69.515565 160.021163 
L 71.460626 169.808232 
L 72.433156 172.272457 
L 73.405687 168.626735 
L 74.378217 171.848531 
L 76.323278 166.318074 
L 78.268339 177.330438 
L 80.2134 169.464877 
L 81.18593 174.511496 
L 82.158461 173.957831 
L 83.130991 171.349819 
L 84.103522 175.081276 
L 86.048583 167.695627 
L 87.993643 176.236123 
L 89.938704 165.90861 
L 91.883765 174.403242 
L 92.856296 174.486292 
L 93.828826 170.334215 
L 95.773887 173.274013 
L 97.718948 170.241248 
L 98.691478 172.880662 
L 101.60907 170.918456 
L 102.5816 173.100476 
L 103.554131 172.459216 
L 104.526661 176.763758 
L 106.471722 166.424262 
L 107.444252 174.095421 
L 108.416783 173.428956 
L 109.389313 168.636445 
L 110.361844 175.484543 
L 111.334374 170.794294 
L 112.306905 174.50034 
L 114.251966 169.551852 
L 115.224496 172.380711 
L 116.197026 170.689552 
L 117.169557 174.636071 
L 118.142087 169.574784 
L 119.114618 170.182163 
L 120.087148 165.885472 
L 122.032209 172.471611 
L 124.9498 168.156326 
L 125.922331 171.299824 
L 127.867392 165.383454 
L 130.784983 171.673341 
L 131.757514 168.18153 
L 132.730044 170.359625 
L 133.702575 163.098551 
L 134.675105 165.913155 
L 135.647635 172.822817 
L 136.620166 163.466078 
L 137.592696 165.146287 
L 138.565227 159.051835 
L 140.510288 168.956249 
L 141.482818 169.527268 
L 142.455349 162.016838 
L 143.427879 162.842791 
L 144.400409 157.71994 
L 145.37294 161.45966 
L 147.318001 161.372685 
L 148.290531 161.073541 
L 149.263062 167.038666 
L 150.235592 159.138191 
L 151.208123 167.105395 
L 152.180653 165.95468 
L 153.153183 169.580982 
L 157.043305 162.920469 
L 158.015836 156.394448 
L 158.988366 163.170032 
L 159.960897 162.401924 
L 160.933427 163.652423 
L 163.851018 157.557765 
L 165.796079 166.252172 
L 166.76861 166.20982 
L 168.713671 157.519752 
L 169.686201 164.735789 
L 170.658732 157.882527 
L 171.631262 162.536209 
L 172.603792 158.333103 
L 174.548853 163.822035 
L 175.521384 160.240977 
L 177.466445 163.742291 
L 179.411506 158.348598 
L 180.384036 167.427058 
L 181.356566 166.455664 
L 182.329097 156.938197 
L 183.301627 162.265161 
L 184.274158 161.750541 
L 186.219219 165.516086 
L 187.191749 164.596547 
L 188.16428 157.817038 
L 189.13681 160.285187 
L 190.109341 154.319649 
L 191.081871 163.245644 
L 193.026932 162.11972 
L 193.999462 156.926421 
L 194.971993 159.498073 
L 195.944523 157.235276 
L 197.889584 165.717306 
L 198.862115 162.571123 
L 199.834645 154.175035 
L 200.807175 154.988799 
L 201.779706 162.6895 
L 202.752236 158.787398 
L 203.724767 165.98257 
L 204.697297 158.151716 
L 205.669828 158.732651 
L 206.642358 160.928927 
L 207.614889 160.223623 
L 208.587419 161.840202 
L 210.53248 158.908048 
L 211.50501 164.888667 
L 212.477541 157.535866 
L 213.450071 159.153065 
L 214.422602 157.302831 
L 215.395132 161.036354 
L 216.367663 159.425353 
L 217.340193 161.517919 
L 218.312723 166.765965 
L 219.285254 161.859828 
L 220.257784 165.799736 
L 224.147906 157.713535 
L 226.092967 163.694568 
L 227.065498 156.781601 
L 229.010558 169.404553 
L 230.955619 159.39829 
L 232.90068 162.736809 
L 233.873211 161.245012 
L 234.845741 165.66855 
L 236.790802 161.292941 
L 238.735863 165.389652 
L 239.708393 166.138753 
L 241.653454 163.738985 
L 242.625985 168.895511 
L 245.543576 157.162349 
L 246.516106 161.016521 
L 247.488637 153.879196 
L 249.433698 158.897925 
L 251.378759 164.971717 
L 252.351289 166.783319 
L 253.32382 160.331877 
L 255.268881 164.124485 
L 257.213941 163.213416 
L 258.186472 167.268809 
L 259.159002 159.252642 
L 261.104063 162.713258 
L 263.049124 165.236981 
L 264.021655 163.295226 
L 264.994185 163.728242 
L 265.966715 161.551594 
L 267.911776 162.132116 
L 268.884307 160.146564 
L 269.856837 162.400685 
L 270.829368 157.84658 
L 272.774429 169.702871 
L 274.719489 154.694819 
L 275.69202 165.119843 
L 276.66455 159.49704 
L 277.637081 163.934627 
L 278.609611 162.91799 
L 282.499733 168.06212 
L 284.444794 158.829543 
L 285.417324 160.466575 
L 286.389855 167.967915 
L 287.362385 162.349863 
L 288.334916 165.588806 
L 289.307446 162.56038 
L 291.252507 164.242862 
L 292.225038 160.069919 
L 296.115159 168.930631 
L 298.06022 159.401595 
L 300.005281 164.677737 
L 300.977812 164.69633 
L 301.950342 167.678686 
L 305.840464 160.497357 
L 306.812994 160.283121 
L 307.785525 158.05875 
L 308.758055 163.980697 
L 309.730586 159.819943 
L 309.730586 159.819943 
" clip-path="url(#p816a433b94)" style="fill: none; stroke: #b5de2b; stroke-width: 1.5; stroke-linecap: round"/>
   </g>
   <g id="patch_3">
    <path d="M 55.4625 192.009865 
L 55.4625 28.442513 
" style="fill: none"/>
   </g>
   <g id="patch_4">
    <path d="M 321.83859 192.009865 
L 321.83859 28.442513 
" style="fill: none"/>
   </g>
   <g id="patch_5">
    <path d="M 55.4625 192.009865 
L 321.83859 192.009865 
" style="fill: none"/>
   </g>
   <g id="patch_6">
    <path d="M 55.4625 28.442513 
L 321.83859 28.442513 
" style="fill: none"/>
   </g>
  </g>
  <g id="text_14">
   <!-- train: pytorch -->
   <g style="fill: #262626" transform="translate(135.502156 18.14175) scale(0.144 -0.144)">
    <defs>
     <path id="DejaVuSans-74" d="M 1172 4494 
L 1172 3500 
L 2356 3500 
L 2356 3053 
L 1172 3053 
L 1172 1153 
Q 1172 725 1289 603 
Q 1406 481 1766 481 
L 2356 481 
L 2356 0 
L 1766 0 
Q 1100 0 847 248 
Q 594 497 594 1153 
L 594 3053 
L 172 3053 
L 172 3500 
L 594 3500 
L 594 4494 
L 1172 4494 
z
" transform="scale(0.015625)"/>
     <path id="DejaVuSans-69" d="M 603 3500 
L 1178 3500 
L 1178 0 
L 603 0 
L 603 3500 
z
M 603 4863 
L 1178 4863 
L 1178 4134 
L 603 4134 
L 603 4863 
z
" transform="scale(0.015625)"/>
     <path id="DejaVuSans-3a" d="M 750 794 
L 1409 794 
L 1409 0 
L 750 0 
L 750 794 
z
M 750 3309 
L 1409 3309 
L 1409 2516 
L 750 2516 
L 750 3309 
z
" transform="scale(0.015625)"/>
     <path id="DejaVuSans-20" transform="scale(0.015625)"/>
     <path id="DejaVuSans-70" d="M 1159 525 
L 1159 -1331 
L 581 -1331 
L 581 3500 
L 1159 3500 
L 1159 2969 
Q 1341 3281 1617 3432 
Q 1894 3584 2278 3584 
Q 2916 3584 3314 3078 
Q 3713 2572 3713 1747 
Q 3713 922 3314 415 
Q 2916 -91 2278 -91 
Q 1894 -91 1617 61 
Q 1341 213 1159 525 
z
M 3116 1747 
Q 3116 2381 2855 2742 
Q 2594 3103 2138 3103 
Q 1681 3103 1420 2742 
Q 1159 2381 1159 1747 
Q 1159 1113 1420 752 
Q 1681 391 2138 391 
Q 2594 391 2855 752 
Q 3116 1113 3116 1747 
z
" transform="scale(0.015625)"/>
     <path id="DejaVuSans-6f" d="M 1959 3097 
Q 1497 3097 1228 2736 
Q 959 2375 959 1747 
Q 959 1119 1226 758 
Q 1494 397 1959 397 
Q 2419 397 2687 759 
Q 2956 1122 2956 1747 
Q 2956 2369 2687 2733 
Q 2419 3097 1959 3097 
z
M 1959 3584 
Q 2709 3584 3137 3096 
Q 3566 2609 3566 1747 
Q 3566 888 3137 398 
Q 2709 -91 1959 -91 
Q 1206 -91 779 398 
Q 353 888 353 1747 
Q 353 2609 779 3096 
Q 1206 3584 1959 3584 
z
" transform="scale(0.015625)"/>
     <path id="DejaVuSans-63" d="M 3122 3366 
L 3122 2828 
Q 2878 2963 2633 3030 
Q 2388 3097 2138 3097 
Q 1578 3097 1268 2742 
Q 959 2388 959 1747 
Q 959 1106 1268 751 
Q 1578 397 2138 397 
Q 2388 397 2633 464 
Q 2878 531 3122 666 
L 3122 134 
Q 2881 22 2623 -34 
Q 2366 -91 2075 -91 
Q 1284 -91 818 406 
Q 353 903 353 1747 
Q 353 2603 823 3093 
Q 1294 3584 2113 3584 
Q 2378 3584 2631 3529 
Q 2884 3475 3122 3366 
z
" transform="scale(0.015625)"/>
     <path id="DejaVuSans-68" d="M 3513 2113 
L 3513 0 
L 2938 0 
L 2938 2094 
Q 2938 2591 2744 2837 
Q 2550 3084 2163 3084 
Q 1697 3084 1428 2787 
Q 1159 2491 1159 1978 
L 1159 0 
L 581 0 
L 581 4863 
L 1159 4863 
L 1159 2956 
Q 1366 3272 1645 3428 
Q 1925 3584 2291 3584 
Q 2894 3584 3203 3211 
Q 3513 2838 3513 2113 
z
" transform="scale(0.015625)"/>
    </defs>
    <use xlink:href="#DejaVuSans-74"/>
    <use xlink:href="#DejaVuSans-72" x="39.208984"/>
    <use xlink:href="#DejaVuSans-61" x="80.322266"/>
    <use xlink:href="#DejaVuSans-69" x="141.601562"/>
    <use xlink:href="#DejaVuSans-6e" x="169.384766"/>
    <use xlink:href="#DejaVuSans-3a" x="232.763672"/>
    <use xlink:href="#DejaVuSans-20" x="266.455078"/>
    <use xlink:href="#DejaVuSans-70" x="298.242188"/>
    <use xlink:href="#DejaVuSans-79" x="361.71875"/>
    <use xlink:href="#DejaVuSans-74" x="420.898438"/>
    <use xlink:href="#DejaVuSans-6f" x="460.107422"/>
    <use xlink:href="#DejaVuSans-72" x="521.289062"/>
    <use xlink:href="#DejaVuSans-63" x="560.152344"/>
    <use xlink:href="#DejaVuSans-68" x="615.132812"/>
   </g>
  </g>
 </g>
 <defs>
  <clipPath id="p816a433b94">
   <rect x="55.4625" y="28.442513" width="266.37609" height="163.567352"/>
  </clipPath>
 </defs>
</svg>
