<?xml version="1.0" encoding="utf-8" standalone="no"?>
<!DOCTYPE svg PUBLIC "-//W3C//DTD SVG 1.1//EN"
  "http://www.w3.org/Graphics/SVG/1.1/DTD/svg11.dtd">
<svg xmlns:xlink="http://www.w3.org/1999/xlink" width="1129.86pt" height="338.137pt" viewBox="0 0 1129.86 338.137" xmlns="http://www.w3.org/2000/svg" version="1.1">
 <metadata>
  <rdf:RDF xmlns:dc="http://purl.org/dc/elements/1.1/" xmlns:cc="http://creativecommons.org/ns#" xmlns:rdf="http://www.w3.org/1999/02/22-rdf-syntax-ns#">
   <cc:Work>
    <dc:type rdf:resource="http://purl.org/dc/dcmitype/StillImage"/>
    <dc:date>2023-12-05T12:36:12.024523</dc:date>
    <dc:format>image/svg+xml</dc:format>
    <dc:creator>
     <cc:Agent>
      <dc:title>Matplotlib v3.8.2, https://matplotlib.org/</dc:title>
     </cc:Agent>
    </dc:creator>
   </cc:Work>
  </rdf:RDF>
 </metadata>
 <defs>
  <style type="text/css">*{stroke-linejoin: round; stroke-linecap: butt}</style>
 </defs>
 <g id="figure_1">
  <g id="patch_1">
   <path d="M 0 338.137 
L 1129.86 338.137 
L 1129.86 0 
L 0 0 
L 0 338.137 
z
" style="fill: none"/>
  </g>
  <g id="axes_1">
   <g id="patch_2">
    <path d="M 51.3 290.412 
L 538.281818 290.412 
L 538.281818 24.3 
L 51.3 24.3 
L 51.3 290.412 
z
" style="fill: none"/>
   </g>
   <g id="matplotlib.axis_1">
    <g id="xtick_1">
     <g id="line2d_1">
      <path d="M 73.435537 290.412 
L 73.435537 24.3 
" clip-path="url(#p09f353cd9c)" style="fill: none; stroke-dasharray: 3.7,1.6; stroke-dashoffset: 0; stroke: #838383; stroke-opacity: 0.2"/>
     </g>
     <g id="text_1">
      <!-- 0 -->
      <g style="fill: #838383" transform="translate(69.310537 310.087) scale(0.1375 -0.1375)">
       <defs>
        <path id="IBMPlexSans-Regular-30" d="M 1920 -77 
Q 1120 -77 752 531 
Q 384 1139 384 2234 
Q 384 3328 752 3936 
Q 1120 4544 1920 4544 
Q 2720 4544 3088 3936 
Q 3456 3328 3456 2234 
Q 3456 1139 3088 531 
Q 2720 -77 1920 -77 
z
M 1920 390 
Q 2182 390 2368 499 
Q 2554 608 2669 806 
Q 2784 1005 2838 1273 
Q 2893 1542 2893 1869 
L 2893 2598 
Q 2893 2925 2838 3193 
Q 2784 3462 2669 3660 
Q 2554 3859 2368 3968 
Q 2182 4077 1920 4077 
Q 1658 4077 1472 3968 
Q 1286 3859 1171 3660 
Q 1056 3462 1001 3193 
Q 947 2925 947 2598 
L 947 1869 
Q 947 1542 1001 1273 
Q 1056 1005 1171 806 
Q 1286 608 1472 499 
Q 1658 390 1920 390 
z
" transform="scale(0.015625)"/>
       </defs>
       <use xlink:href="#IBMPlexSans-Regular-30"/>
      </g>
     </g>
    </g>
    <g id="xtick_2">
     <g id="line2d_2">
      <path d="M 129.052465 290.412 
L 129.052465 24.3 
" clip-path="url(#p09f353cd9c)" style="fill: none; stroke-dasharray: 3.7,1.6; stroke-dashoffset: 0; stroke: #838383; stroke-opacity: 0.2"/>
     </g>
     <g id="text_2">
      <!-- 25 -->
      <g style="fill: #838383" transform="translate(120.802465 310.087) scale(0.1375 -0.1375)">
       <defs>
        <path id="IBMPlexSans-Regular-32" d="M 3411 0 
L 480 0 
L 480 550 
L 1939 1894 
Q 2253 2182 2464 2505 
Q 2675 2829 2675 3155 
L 2675 3232 
Q 2675 3603 2470 3833 
Q 2266 4064 1850 4064 
Q 1645 4064 1491 4006 
Q 1338 3949 1226 3846 
Q 1114 3744 1040 3606 
Q 966 3469 922 3309 
L 442 3494 
Q 506 3693 618 3881 
Q 730 4070 899 4217 
Q 1069 4365 1309 4454 
Q 1549 4544 1875 4544 
Q 2202 4544 2458 4448 
Q 2714 4352 2886 4179 
Q 3059 4006 3152 3769 
Q 3245 3533 3245 3245 
Q 3245 2982 3171 2758 
Q 3098 2534 2970 2332 
Q 2842 2131 2659 1939 
Q 2477 1747 2266 1555 
L 1062 474 
L 3411 474 
L 3411 0 
z
" transform="scale(0.015625)"/>
        <path id="IBMPlexSans-Regular-35" d="M 3187 3994 
L 1229 3994 
L 1101 2291 
L 1146 2291 
Q 1306 2515 1507 2649 
Q 1709 2784 2061 2784 
Q 2349 2784 2592 2688 
Q 2835 2592 3014 2416 
Q 3194 2240 3293 1984 
Q 3392 1728 3392 1402 
Q 3392 1075 3289 803 
Q 3187 531 2992 336 
Q 2797 141 2518 32 
Q 2240 -77 1888 -77 
Q 1606 -77 1392 -13 
Q 1178 51 1011 160 
Q 845 269 720 403 
Q 595 538 493 685 
L 896 992 
Q 979 858 1072 749 
Q 1165 640 1277 563 
Q 1389 486 1536 444 
Q 1683 403 1888 403 
Q 2349 403 2585 646 
Q 2822 890 2822 1331 
L 2822 1395 
Q 2822 1837 2585 2080 
Q 2349 2323 1888 2323 
Q 1581 2323 1405 2211 
Q 1229 2099 1088 1946 
L 634 2010 
L 794 4467 
L 3187 4467 
L 3187 3994 
z
" transform="scale(0.015625)"/>
       </defs>
       <use xlink:href="#IBMPlexSans-Regular-32"/>
       <use xlink:href="#IBMPlexSans-Regular-35" x="59.999985"/>
      </g>
     </g>
    </g>
    <g id="xtick_3">
     <g id="line2d_3">
      <path d="M 184.669392 290.412 
L 184.669392 24.3 
" clip-path="url(#p09f353cd9c)" style="fill: none; stroke-dasharray: 3.7,1.6; stroke-dashoffset: 0; stroke: #838383; stroke-opacity: 0.2"/>
     </g>
     <g id="text_3">
      <!-- 50 -->
      <g style="fill: #838383" transform="translate(176.419392 310.087) scale(0.1375 -0.1375)">
       <use xlink:href="#IBMPlexSans-Regular-35"/>
       <use xlink:href="#IBMPlexSans-Regular-30" x="59.999985"/>
      </g>
     </g>
    </g>
    <g id="xtick_4">
     <g id="line2d_4">
      <path d="M 240.28632 290.412 
L 240.28632 24.3 
" clip-path="url(#p09f353cd9c)" style="fill: none; stroke-dasharray: 3.7,1.6; stroke-dashoffset: 0; stroke: #838383; stroke-opacity: 0.2"/>
     </g>
     <g id="text_4">
      <!-- 75 -->
      <g style="fill: #838383" transform="translate(232.03632 310.087) scale(0.1375 -0.1375)">
       <defs>
        <path id="IBMPlexSans-Regular-37" d="M 1120 0 
L 2829 4006 
L 922 4006 
L 922 3174 
L 442 3174 
L 442 4467 
L 3373 4467 
L 3373 3994 
L 1696 0 
L 1120 0 
z
" transform="scale(0.015625)"/>
       </defs>
       <use xlink:href="#IBMPlexSans-Regular-37"/>
       <use xlink:href="#IBMPlexSans-Regular-35" x="59.999985"/>
      </g>
     </g>
    </g>
    <g id="xtick_5">
     <g id="line2d_5">
      <path d="M 295.903248 290.412 
L 295.903248 24.3 
" clip-path="url(#p09f353cd9c)" style="fill: none; stroke-dasharray: 3.7,1.6; stroke-dashoffset: 0; stroke: #838383; stroke-opacity: 0.2"/>
     </g>
     <g id="text_5">
      <!-- 100 -->
      <g style="fill: #838383" transform="translate(283.528248 310.087) scale(0.1375 -0.1375)">
       <defs>
        <path id="IBMPlexSans-Regular-31" d="M 563 0 
L 563 474 
L 1811 474 
L 1811 4070 
L 1766 4070 
L 640 3021 
L 326 3360 
L 1510 4467 
L 2349 4467 
L 2349 474 
L 3501 474 
L 3501 0 
L 563 0 
z
" transform="scale(0.015625)"/>
       </defs>
       <use xlink:href="#IBMPlexSans-Regular-31"/>
       <use xlink:href="#IBMPlexSans-Regular-30" x="59.999985"/>
       <use xlink:href="#IBMPlexSans-Regular-30" x="119.999969"/>
      </g>
     </g>
    </g>
    <g id="xtick_6">
     <g id="line2d_6">
      <path d="M 351.520175 290.412 
L 351.520175 24.3 
" clip-path="url(#p09f353cd9c)" style="fill: none; stroke-dasharray: 3.7,1.6; stroke-dashoffset: 0; stroke: #838383; stroke-opacity: 0.2"/>
     </g>
     <g id="text_6">
      <!-- 125 -->
      <g style="fill: #838383" transform="translate(339.145175 310.087) scale(0.1375 -0.1375)">
       <use xlink:href="#IBMPlexSans-Regular-31"/>
       <use xlink:href="#IBMPlexSans-Regular-32" x="59.999985"/>
       <use xlink:href="#IBMPlexSans-Regular-35" x="119.999969"/>
      </g>
     </g>
    </g>
    <g id="xtick_7">
     <g id="line2d_7">
      <path d="M 407.137103 290.412 
L 407.137103 24.3 
" clip-path="url(#p09f353cd9c)" style="fill: none; stroke-dasharray: 3.7,1.6; stroke-dashoffset: 0; stroke: #838383; stroke-opacity: 0.2"/>
     </g>
     <g id="text_7">
      <!-- 150 -->
      <g style="fill: #838383" transform="translate(394.762103 310.087) scale(0.1375 -0.1375)">
       <use xlink:href="#IBMPlexSans-Regular-31"/>
       <use xlink:href="#IBMPlexSans-Regular-35" x="59.999985"/>
       <use xlink:href="#IBMPlexSans-Regular-30" x="119.999969"/>
      </g>
     </g>
    </g>
    <g id="xtick_8">
     <g id="line2d_8">
      <path d="M 462.75403 290.412 
L 462.75403 24.3 
" clip-path="url(#p09f353cd9c)" style="fill: none; stroke-dasharray: 3.7,1.6; stroke-dashoffset: 0; stroke: #838383; stroke-opacity: 0.2"/>
     </g>
     <g id="text_8">
      <!-- 175 -->
      <g style="fill: #838383" transform="translate(450.37903 310.087) scale(0.1375 -0.1375)">
       <use xlink:href="#IBMPlexSans-Regular-31"/>
       <use xlink:href="#IBMPlexSans-Regular-37" x="59.999985"/>
       <use xlink:href="#IBMPlexSans-Regular-35" x="119.999969"/>
      </g>
     </g>
    </g>
    <g id="xtick_9">
     <g id="line2d_9">
      <path d="M 518.370958 290.412 
L 518.370958 24.3 
" clip-path="url(#p09f353cd9c)" style="fill: none; stroke-dasharray: 3.7,1.6; stroke-dashoffset: 0; stroke: #838383; stroke-opacity: 0.2"/>
     </g>
     <g id="text_9">
      <!-- 200 -->
      <g style="fill: #838383" transform="translate(505.995958 310.087) scale(0.1375 -0.1375)">
       <use xlink:href="#IBMPlexSans-Regular-32"/>
       <use xlink:href="#IBMPlexSans-Regular-30" x="59.999985"/>
       <use xlink:href="#IBMPlexSans-Regular-30" x="119.999969"/>
      </g>
     </g>
    </g>
    <g id="text_10">
     <!-- MD Step -->
     <g style="fill: #838383" transform="translate(266.442081 327.937) scale(0.15 -0.15)">
      <defs>
       <path id="IBMPlexSans-Regular-4d" d="M 4077 3763 
L 4045 3763 
L 3667 3014 
L 2598 1069 
L 1530 3014 
L 1152 3763 
L 1120 3763 
L 1120 0 
L 595 0 
L 595 4467 
L 1312 4467 
L 2592 2061 
L 2624 2061 
L 3910 4467 
L 4602 4467 
L 4602 0 
L 4077 0 
L 4077 3763 
z
" transform="scale(0.015625)"/>
       <path id="IBMPlexSans-Regular-44" d="M 595 4467 
L 2093 4467 
Q 2509 4467 2848 4326 
Q 3187 4186 3427 3907 
Q 3667 3629 3795 3209 
Q 3923 2790 3923 2234 
Q 3923 1677 3795 1257 
Q 3667 838 3427 560 
Q 3187 282 2848 141 
Q 2509 0 2093 0 
L 595 0 
L 595 4467 
z
M 2093 474 
Q 2368 474 2598 566 
Q 2829 659 2995 838 
Q 3162 1018 3254 1277 
Q 3347 1536 3347 1869 
L 3347 2598 
Q 3347 2931 3254 3190 
Q 3162 3450 2995 3629 
Q 2829 3808 2598 3901 
Q 2368 3994 2093 3994 
L 1133 3994 
L 1133 474 
L 2093 474 
z
" transform="scale(0.015625)"/>
       <path id="IBMPlexSans-Regular-20" transform="scale(0.015625)"/>
       <path id="IBMPlexSans-Regular-53" d="M 1850 -77 
Q 1306 -77 922 131 
Q 538 339 269 704 
L 666 1037 
Q 902 723 1190 560 
Q 1478 397 1869 397 
Q 2349 397 2601 627 
Q 2854 858 2854 1242 
Q 2854 1562 2662 1734 
Q 2470 1907 2029 2010 
L 1664 2093 
Q 1050 2234 726 2518 
Q 403 2803 403 3322 
Q 403 3616 512 3846 
Q 621 4077 816 4230 
Q 1011 4384 1283 4464 
Q 1555 4544 1882 4544 
Q 2387 4544 2748 4358 
Q 3110 4173 3360 3814 
L 2957 3520 
Q 2771 3776 2508 3923 
Q 2246 4070 1856 4070 
Q 1427 4070 1180 3888 
Q 934 3706 934 3341 
Q 934 3021 1142 2857 
Q 1350 2694 1773 2598 
L 2138 2515 
Q 2797 2368 3091 2067 
Q 3386 1766 3386 1267 
Q 3386 960 3280 710 
Q 3174 461 2976 288 
Q 2778 115 2493 19 
Q 2208 -77 1850 -77 
z
" transform="scale(0.015625)"/>
       <path id="IBMPlexSans-Regular-74" d="M 1274 0 
Q 1005 0 867 150 
Q 730 301 730 544 
L 730 2854 
L 186 2854 
L 186 3302 
L 493 3302 
Q 659 3302 720 3369 
Q 781 3437 781 3603 
L 781 4218 
L 1242 4218 
L 1242 3302 
L 1965 3302 
L 1965 2854 
L 1242 2854 
L 1242 448 
L 1914 448 
L 1914 0 
L 1274 0 
z
" transform="scale(0.015625)"/>
       <path id="IBMPlexSans-Regular-65" d="M 1786 -77 
Q 1446 -77 1174 44 
Q 902 166 707 393 
Q 512 621 406 937 
Q 301 1254 301 1651 
Q 301 2042 406 2362 
Q 512 2682 707 2909 
Q 902 3136 1174 3257 
Q 1446 3379 1786 3379 
Q 2118 3379 2380 3257 
Q 2643 3136 2828 2921 
Q 3014 2707 3113 2412 
Q 3213 2118 3213 1766 
L 3213 1523 
L 838 1523 
L 838 1370 
Q 838 1158 905 976 
Q 973 794 1097 659 
Q 1222 525 1404 448 
Q 1587 371 1818 371 
Q 2131 371 2364 518 
Q 2598 666 2726 941 
L 3091 678 
Q 2931 339 2592 131 
Q 2253 -77 1786 -77 
z
M 1786 2950 
Q 1574 2950 1401 2876 
Q 1229 2803 1104 2668 
Q 979 2534 908 2352 
Q 838 2170 838 1952 
L 838 1907 
L 2662 1907 
L 2662 1978 
Q 2662 2419 2422 2684 
Q 2182 2950 1786 2950 
z
" transform="scale(0.015625)"/>
       <path id="IBMPlexSans-Regular-70" d="M 544 3302 
L 1056 3302 
L 1056 2765 
L 1082 2765 
Q 1210 3078 1456 3228 
Q 1702 3379 2048 3379 
Q 2355 3379 2604 3257 
Q 2854 3136 3030 2912 
Q 3206 2688 3299 2368 
Q 3392 2048 3392 1651 
Q 3392 1254 3299 934 
Q 3206 614 3030 390 
Q 2854 166 2604 44 
Q 2355 -77 2048 -77 
Q 1376 -77 1082 538 
L 1056 538 
L 1056 -1280 
L 544 -1280 
L 544 3302 
z
M 1907 384 
Q 2342 384 2592 656 
Q 2842 928 2842 1370 
L 2842 1933 
Q 2842 2374 2592 2646 
Q 2342 2918 1907 2918 
Q 1734 2918 1577 2870 
Q 1421 2822 1305 2739 
Q 1190 2656 1123 2537 
Q 1056 2419 1056 2285 
L 1056 1056 
Q 1056 896 1123 771 
Q 1190 646 1305 560 
Q 1421 474 1577 429 
Q 1734 384 1907 384 
z
" transform="scale(0.015625)"/>
      </defs>
      <use xlink:href="#IBMPlexSans-Regular-4d"/>
      <use xlink:href="#IBMPlexSans-Regular-44" x="81.199982"/>
      <use xlink:href="#IBMPlexSans-Regular-20" x="148.299973"/>
      <use xlink:href="#IBMPlexSans-Regular-53" x="171.899963"/>
      <use xlink:href="#IBMPlexSans-Regular-74" x="229.999954"/>
      <use xlink:href="#IBMPlexSans-Regular-65" x="265.099945"/>
      <use xlink:href="#IBMPlexSans-Regular-70" x="319.999939"/>
     </g>
    </g>
   </g>
   <g id="matplotlib.axis_2">
    <g id="ytick_1">
     <g id="line2d_10">
      <path d="M 51.3 261.035986 
L 538.281818 261.035986 
" clip-path="url(#p09f353cd9c)" style="fill: none; stroke-dasharray: 3.7,1.6; stroke-dashoffset: 0; stroke: #838383; stroke-opacity: 0.2"/>
     </g>
     <g id="text_11">
      <!-- −6 -->
      <g style="fill: #838383" transform="translate(25.3 266.123486) scale(0.1375 -0.1375)">
       <defs>
        <path id="IBMPlexSans-Regular-2212" d="M 429 1734 
L 429 2170 
L 3411 2170 
L 3411 1734 
L 429 1734 
z
" transform="scale(0.015625)"/>
        <path id="IBMPlexSans-Regular-36" d="M 1926 -77 
Q 1581 -77 1302 41 
Q 1024 160 829 381 
Q 634 602 531 922 
Q 429 1242 429 1638 
Q 429 2138 576 2576 
Q 723 3014 956 3376 
Q 1190 3738 1472 4016 
Q 1754 4294 2022 4467 
L 2714 4467 
Q 2355 4205 2073 3955 
Q 1792 3706 1581 3434 
Q 1370 3162 1222 2851 
Q 1075 2541 986 2150 
L 1018 2138 
Q 1178 2413 1430 2595 
Q 1683 2778 2093 2778 
Q 2381 2778 2624 2682 
Q 2867 2586 3040 2406 
Q 3213 2227 3312 1971 
Q 3411 1715 3411 1402 
Q 3411 1075 3305 803 
Q 3200 531 3005 336 
Q 2810 141 2534 32 
Q 2259 -77 1926 -77 
z
M 1920 390 
Q 2362 390 2608 633 
Q 2854 877 2854 1331 
L 2854 1382 
Q 2854 1837 2608 2080 
Q 2362 2323 1920 2323 
Q 1478 2323 1232 2080 
Q 986 1837 986 1382 
L 986 1331 
Q 986 877 1232 633 
Q 1478 390 1920 390 
z
" transform="scale(0.015625)"/>
       </defs>
       <use xlink:href="#IBMPlexSans-Regular-2212"/>
       <use xlink:href="#IBMPlexSans-Regular-36" x="59.999985"/>
      </g>
     </g>
    </g>
    <g id="ytick_2">
     <g id="line2d_11">
      <path d="M 51.3 226.475991 
L 538.281818 226.475991 
" clip-path="url(#p09f353cd9c)" style="fill: none; stroke-dasharray: 3.7,1.6; stroke-dashoffset: 0; stroke: #838383; stroke-opacity: 0.2"/>
     </g>
     <g id="text_12">
      <!-- −4 -->
      <g style="fill: #838383" transform="translate(25.3 231.563491) scale(0.1375 -0.1375)">
       <defs>
        <path id="IBMPlexSans-Regular-34" d="M 2400 0 
L 2400 877 
L 243 877 
L 243 1350 
L 2112 4467 
L 2912 4467 
L 2912 1325 
L 3558 1325 
L 3558 877 
L 2912 877 
L 2912 0 
L 2400 0 
z
M 749 1325 
L 2400 1325 
L 2400 4051 
L 2368 4051 
L 749 1325 
z
" transform="scale(0.015625)"/>
       </defs>
       <use xlink:href="#IBMPlexSans-Regular-2212"/>
       <use xlink:href="#IBMPlexSans-Regular-34" x="59.999985"/>
      </g>
     </g>
    </g>
    <g id="ytick_3">
     <g id="line2d_12">
      <path d="M 51.3 191.915995 
L 538.281818 191.915995 
" clip-path="url(#p09f353cd9c)" style="fill: none; stroke-dasharray: 3.7,1.6; stroke-dashoffset: 0; stroke: #838383; stroke-opacity: 0.2"/>
     </g>
     <g id="text_13">
      <!-- −2 -->
      <g style="fill: #838383" transform="translate(25.3 197.003495) scale(0.1375 -0.1375)">
       <use xlink:href="#IBMPlexSans-Regular-2212"/>
       <use xlink:href="#IBMPlexSans-Regular-32" x="59.999985"/>
      </g>
     </g>
    </g>
    <g id="ytick_4">
     <g id="line2d_13">
      <path d="M 51.3 157.356 
L 538.281818 157.356 
" clip-path="url(#p09f353cd9c)" style="fill: none; stroke-dasharray: 3.7,1.6; stroke-dashoffset: 0; stroke: #838383; stroke-opacity: 0.2"/>
     </g>
     <g id="text_14">
      <!-- 0 -->
      <g style="fill: #838383" transform="translate(33.55 162.4435) scale(0.1375 -0.1375)">
       <use xlink:href="#IBMPlexSans-Regular-30"/>
      </g>
     </g>
    </g>
    <g id="ytick_5">
     <g id="line2d_14">
      <path d="M 51.3 122.796005 
L 538.281818 122.796005 
" clip-path="url(#p09f353cd9c)" style="fill: none; stroke-dasharray: 3.7,1.6; stroke-dashoffset: 0; stroke: #838383; stroke-opacity: 0.2"/>
     </g>
     <g id="text_15">
      <!-- 2 -->
      <g style="fill: #838383" transform="translate(33.55 127.883505) scale(0.1375 -0.1375)">
       <use xlink:href="#IBMPlexSans-Regular-32"/>
      </g>
     </g>
    </g>
    <g id="ytick_6">
     <g id="line2d_15">
      <path d="M 51.3 88.236009 
L 538.281818 88.236009 
" clip-path="url(#p09f353cd9c)" style="fill: none; stroke-dasharray: 3.7,1.6; stroke-dashoffset: 0; stroke: #838383; stroke-opacity: 0.2"/>
     </g>
     <g id="text_16">
      <!-- 4 -->
      <g style="fill: #838383" transform="translate(33.55 93.323509) scale(0.1375 -0.1375)">
       <use xlink:href="#IBMPlexSans-Regular-34"/>
      </g>
     </g>
    </g>
    <g id="ytick_7">
     <g id="line2d_16">
      <path d="M 51.3 53.676014 
L 538.281818 53.676014 
" clip-path="url(#p09f353cd9c)" style="fill: none; stroke-dasharray: 3.7,1.6; stroke-dashoffset: 0; stroke: #838383; stroke-opacity: 0.2"/>
     </g>
     <g id="text_17">
      <!-- 6 -->
      <g style="fill: #838383" transform="translate(33.55 58.763514) scale(0.1375 -0.1375)">
       <use xlink:href="#IBMPlexSans-Regular-36"/>
      </g>
     </g>
    </g>
    <g id="text_18">
     <!-- dQint -->
     <g style="fill: #838383" transform="translate(18.3 175.782562) rotate(-90) scale(0.15 -0.15)">
      <defs>
       <path id="IBMPlexSans-Regular-64" d="M 2656 538 
L 2630 538 
Q 2330 -77 1664 -77 
Q 1357 -77 1107 44 
Q 858 166 682 390 
Q 506 614 413 934 
Q 320 1254 320 1651 
Q 320 2048 413 2368 
Q 506 2688 682 2912 
Q 858 3136 1107 3257 
Q 1357 3379 1664 3379 
Q 2010 3379 2256 3228 
Q 2502 3078 2630 2765 
L 2656 2765 
L 2656 4736 
L 3168 4736 
L 3168 0 
L 2656 0 
L 2656 538 
z
M 1805 384 
Q 1978 384 2134 429 
Q 2291 474 2406 560 
Q 2522 646 2589 771 
Q 2656 896 2656 1056 
L 2656 2285 
Q 2656 2419 2589 2537 
Q 2522 2656 2406 2739 
Q 2291 2822 2134 2870 
Q 1978 2918 1805 2918 
Q 1370 2918 1120 2646 
Q 870 2374 870 1933 
L 870 1370 
Q 870 928 1120 656 
Q 1370 384 1805 384 
z
" transform="scale(0.015625)"/>
       <path id="IBMPlexSans-Regular-51" d="M 3251 -1050 
L 2592 -1050 
Q 2323 -1050 2188 -899 
Q 2054 -749 2054 -525 
L 2054 -70 
Q 1670 -32 1356 134 
Q 1043 301 825 592 
Q 608 883 489 1296 
Q 371 1709 371 2234 
Q 371 2797 505 3225 
Q 640 3654 886 3948 
Q 1133 4243 1481 4393 
Q 1830 4544 2266 4544 
Q 2694 4544 3046 4393 
Q 3398 4243 3644 3948 
Q 3891 3654 4025 3225 
Q 4160 2797 4160 2234 
Q 4160 1203 3731 624 
Q 3302 45 2566 -58 
L 2566 -602 
L 3251 -602 
L 3251 -1050 
z
M 2266 403 
Q 2554 403 2797 505 
Q 3040 608 3216 800 
Q 3392 992 3488 1261 
Q 3584 1530 3584 1862 
L 3584 2605 
Q 3584 2938 3488 3206 
Q 3392 3475 3216 3667 
Q 3040 3859 2797 3961 
Q 2554 4064 2266 4064 
Q 1978 4064 1734 3961 
Q 1491 3859 1315 3667 
Q 1139 3475 1043 3206 
Q 947 2938 947 2605 
L 947 1862 
Q 947 1530 1043 1261 
Q 1139 992 1315 800 
Q 1491 608 1734 505 
Q 1978 403 2266 403 
z
" transform="scale(0.015625)"/>
       <path id="IBMPlexSans-Regular-69" d="M 800 4077 
Q 634 4077 560 4157 
Q 486 4237 486 4365 
L 486 4448 
Q 486 4576 560 4656 
Q 634 4736 800 4736 
Q 966 4736 1040 4656 
Q 1114 4576 1114 4448 
L 1114 4365 
Q 1114 4237 1040 4157 
Q 966 4077 800 4077 
z
M 544 3302 
L 1056 3302 
L 1056 0 
L 544 0 
L 544 3302 
z
" transform="scale(0.015625)"/>
       <path id="IBMPlexSans-Regular-6e" d="M 544 0 
L 544 3302 
L 1056 3302 
L 1056 2765 
L 1082 2765 
Q 1203 3046 1424 3212 
Q 1645 3379 2016 3379 
Q 2528 3379 2825 3049 
Q 3123 2720 3123 2118 
L 3123 0 
L 2611 0 
L 2611 2029 
Q 2611 2918 1862 2918 
Q 1709 2918 1565 2880 
Q 1421 2842 1305 2765 
Q 1190 2688 1123 2569 
Q 1056 2451 1056 2291 
L 1056 0 
L 544 0 
z
" transform="scale(0.015625)"/>
      </defs>
      <use xlink:href="#IBMPlexSans-Regular-64"/>
      <use xlink:href="#IBMPlexSans-Regular-51" x="57.999985"/>
      <use xlink:href="#IBMPlexSans-Regular-69" x="128.799973"/>
      <use xlink:href="#IBMPlexSans-Regular-6e" x="153.799957"/>
      <use xlink:href="#IBMPlexSans-Regular-74" x="210.599945"/>
     </g>
    </g>
   </g>
   <g id="line2d_17">
    <path d="M 73.435537 70.956012 
L 75.660214 70.956004 
L 77.884891 53.676014 
L 80.109569 88.236018 
L 82.334246 105.515999 
L 84.558923 105.516007 
L 89.008277 70.956012 
L 95.682308 70.956012 
L 97.906985 53.676014 
L 100.131662 70.956012 
L 104.581017 70.956004 
L 106.805694 53.676014 
L 111.255048 53.676006 
L 113.479725 88.236009 
L 122.378433 88.236018 
L 124.603111 53.675998 
L 126.827788 88.236001 
L 129.052465 88.236001 
L 131.277142 70.956004 
L 135.726496 70.956004 
L 137.951173 105.515991 
L 142.400527 105.516011 
L 144.625205 70.956012 
L 146.849882 70.956012 
L 149.074559 88.236009 
L 155.74859 88.236018 
L 157.973267 70.956012 
L 173.546007 70.956028 
L 175.770684 53.676014 
L 182.444715 53.676006 
L 184.669392 70.956012 
L 186.89407 53.676014 
L 189.118747 53.676014 
L 191.343424 36.396 
L 193.568101 36.396016 
L 195.792778 53.676014 
L 200.242132 53.676014 
L 204.691486 88.236014 
L 206.916163 70.956012 
L 209.140841 88.236001 
L 213.590195 88.236001 
L 215.814872 105.515999 
L 218.039549 88.236009 
L 220.264226 88.236001 
L 224.71358 53.675998 
L 238.061643 53.676014 
L 240.28632 70.956004 
L 242.510997 70.956004 
L 244.735674 88.236009 
L 249.185028 88.236014 
L 251.409706 105.516007 
L 253.634383 88.236009 
L 266.982445 88.236014 
L 269.207122 70.956004 
L 271.431799 105.516011 
L 273.656477 88.235993 
L 275.881154 140.076011 
L 278.105831 105.516007 
L 280.330508 105.516007 
L 282.555185 122.796013 
L 284.779862 88.236001 
L 289.229216 88.236009 
L 293.678571 53.676006 
L 300.352602 53.676022 
L 302.577279 70.955995 
L 307.026633 70.956012 
L 309.25131 53.676014 
L 311.475987 53.675998 
L 313.700664 70.956012 
L 315.925342 70.95602 
L 318.150019 105.515999 
L 320.374696 105.515999 
L 322.599373 88.236014 
L 327.048727 88.236001 
L 329.273404 70.956012 
L 338.172113 70.95602 
L 340.39679 36.396025 
L 344.846144 70.95602 
L 351.520175 70.956012 
L 353.744852 105.515999 
L 358.194207 70.956012 
L 360.418884 70.956004 
L 362.643561 88.236009 
L 364.868238 53.676014 
L 367.092915 70.95602 
L 369.317592 70.956004 
L 371.542269 53.676014 
L 373.766946 105.515999 
L 380.440978 105.515999 
L 382.665655 122.796005 
L 387.115009 122.796005 
L 389.339686 70.956012 
L 391.564363 88.236009 
L 396.013717 88.236009 
L 400.463072 53.676014 
L 402.687749 70.956012 
L 404.912426 70.956012 
L 407.137103 88.236009 
L 409.36178 70.95602 
L 411.586457 88.236009 
L 416.035811 88.236009 
L 418.260488 105.516015 
L 420.485165 70.956012 
L 422.709843 70.956004 
L 424.93452 88.236009 
L 427.159197 70.956004 
L 431.608551 70.95602 
L 433.833228 88.236001 
L 442.731937 88.236001 
L 444.956614 122.795996 
L 447.181291 105.516007 
L 449.405968 105.516015 
L 451.630645 70.956012 
L 464.978708 70.956004 
L 469.428062 105.516015 
L 473.877416 70.956012 
L 478.32677 70.956004 
L 480.551447 53.676014 
L 485.000802 53.676006 
L 487.225479 36.396016 
L 491.674833 36.396016 
L 493.89951 53.676022 
L 496.124187 88.236009 
L 498.348864 88.235993 
L 500.573541 105.515999 
L 502.798218 70.956012 
L 505.022895 53.676014 
L 511.696927 53.676014 
L 513.921604 36.396016 
L 516.146281 70.956012 
L 516.146281 70.956012 
" clip-path="url(#p09f353cd9c)" style="fill: none; stroke-dasharray: 1.5,2.475; stroke-dashoffset: 0; stroke: #ef5350; stroke-width: 1.5"/>
   </g>
   <g id="text_19">
    <!-- PyTorch -->
    <g style="fill: #838383" transform="translate(267.228409 18.3) scale(0.15 -0.15)">
     <defs>
      <path id="IBMPlexSans-Regular-50" d="M 595 0 
L 595 4467 
L 2374 4467 
Q 2976 4467 3299 4124 
Q 3622 3782 3622 3187 
Q 3622 2592 3299 2249 
Q 2976 1907 2374 1907 
L 1133 1907 
L 1133 0 
L 595 0 
z
M 1133 2381 
L 2374 2381 
Q 2694 2381 2870 2547 
Q 3046 2714 3046 3021 
L 3046 3354 
Q 3046 3661 2870 3827 
Q 2694 3994 2374 3994 
L 1133 3994 
L 1133 2381 
z
" transform="scale(0.015625)"/>
      <path id="IBMPlexSans-Regular-79" d="M 2579 3302 
L 3085 3302 
L 1606 -768 
Q 1549 -915 1491 -1014 
Q 1434 -1114 1350 -1171 
Q 1267 -1229 1142 -1254 
Q 1018 -1280 838 -1280 
L 576 -1280 
L 576 -832 
L 1094 -832 
L 1344 -128 
L 109 3302 
L 621 3302 
L 1414 1056 
L 1568 518 
L 1600 518 
L 1779 1056 
L 2579 3302 
z
" transform="scale(0.015625)"/>
      <path id="IBMPlexSans-Regular-54" d="M 2099 3994 
L 2099 0 
L 1562 0 
L 1562 3994 
L 141 3994 
L 141 4467 
L 3520 4467 
L 3520 3994 
L 2099 3994 
z
" transform="scale(0.015625)"/>
      <path id="IBMPlexSans-Regular-6f" d="M 1792 -77 
Q 1459 -77 1184 44 
Q 909 166 713 393 
Q 518 621 409 937 
Q 301 1254 301 1651 
Q 301 2042 409 2362 
Q 518 2682 713 2909 
Q 909 3136 1184 3257 
Q 1459 3379 1792 3379 
Q 2125 3379 2397 3257 
Q 2669 3136 2867 2909 
Q 3066 2682 3174 2362 
Q 3283 2042 3283 1651 
Q 3283 1254 3174 937 
Q 3066 621 2867 393 
Q 2669 166 2397 44 
Q 2125 -77 1792 -77 
z
M 1792 378 
Q 2208 378 2470 634 
Q 2733 890 2733 1414 
L 2733 1888 
Q 2733 2413 2470 2669 
Q 2208 2925 1792 2925 
Q 1376 2925 1113 2669 
Q 851 2413 851 1888 
L 851 1414 
Q 851 890 1113 634 
Q 1376 378 1792 378 
z
" transform="scale(0.015625)"/>
      <path id="IBMPlexSans-Regular-72" d="M 544 0 
L 544 3302 
L 1056 3302 
L 1056 2694 
L 1088 2694 
Q 1178 2931 1408 3116 
Q 1638 3302 2042 3302 
L 2240 3302 
L 2240 2790 
L 1939 2790 
Q 1523 2790 1289 2633 
Q 1056 2477 1056 2240 
L 1056 0 
L 544 0 
z
" transform="scale(0.015625)"/>
      <path id="IBMPlexSans-Regular-63" d="M 1773 -77 
Q 1427 -77 1152 44 
Q 877 166 688 390 
Q 499 614 400 934 
Q 301 1254 301 1651 
Q 301 2048 400 2368 
Q 499 2688 688 2912 
Q 877 3136 1152 3257 
Q 1427 3379 1773 3379 
Q 2266 3379 2563 3164 
Q 2861 2950 3008 2605 
L 2579 2387 
Q 2490 2643 2285 2784 
Q 2080 2925 1773 2925 
Q 1542 2925 1369 2851 
Q 1197 2778 1081 2646 
Q 966 2515 908 2332 
Q 851 2150 851 1933 
L 851 1370 
Q 851 934 1084 656 
Q 1318 378 1773 378 
Q 2394 378 2669 954 
L 3040 704 
Q 2880 346 2563 134 
Q 2246 -77 1773 -77 
z
" transform="scale(0.015625)"/>
      <path id="IBMPlexSans-Regular-68" d="M 544 4736 
L 1056 4736 
L 1056 2765 
L 1082 2765 
Q 1203 3046 1424 3212 
Q 1645 3379 2016 3379 
Q 2528 3379 2825 3049 
Q 3123 2720 3123 2118 
L 3123 0 
L 2611 0 
L 2611 2029 
Q 2611 2918 1862 2918 
Q 1709 2918 1565 2880 
Q 1421 2842 1305 2765 
Q 1190 2688 1123 2569 
Q 1056 2451 1056 2291 
L 1056 0 
L 544 0 
L 544 4736 
z
" transform="scale(0.015625)"/>
     </defs>
     <use xlink:href="#IBMPlexSans-Regular-50"/>
     <use xlink:href="#IBMPlexSans-Regular-79" x="60.599991"/>
     <use xlink:href="#IBMPlexSans-Regular-54" x="110.499985"/>
     <use xlink:href="#IBMPlexSans-Regular-6f" x="167.699982"/>
     <use xlink:href="#IBMPlexSans-Regular-72" x="223.699966"/>
     <use xlink:href="#IBMPlexSans-Regular-63" x="260.399963"/>
     <use xlink:href="#IBMPlexSans-Regular-68" x="310.699951"/>
    </g>
   </g>
   <g id="line2d_18">
    <path d="M 73.435537 209.195993 
L 75.660214 209.195989 
L 77.884891 226.475982 
L 131.277142 226.475991 
L 133.501819 209.195989 
L 162.422621 209.195993 
L 166.871976 243.755972 
L 177.995361 243.75598 
L 180.220038 261.035969 
L 191.343424 261.035978 
L 193.568101 243.755988 
L 202.466809 243.755988 
L 204.691486 226.475999 
L 206.916163 226.475978 
L 209.140841 243.755972 
L 238.061643 243.75598 
L 240.28632 226.475991 
L 246.960351 226.475982 
L 249.185028 261.035978 
L 251.409706 261.035986 
L 253.634383 243.755988 
L 255.85906 261.035994 
L 264.757768 261.035978 
L 266.982445 278.315975 
L 273.656477 278.315967 
L 275.881154 243.75598 
L 278.105831 243.75598 
L 280.330508 261.035986 
L 340.39679 261.035969 
L 342.621467 243.755988 
L 353.744852 243.75598 
L 355.969529 226.475982 
L 358.194207 261.035986 
L 360.418884 278.315975 
L 516.146281 278.315967 
L 516.146281 278.315967 
" clip-path="url(#p09f353cd9c)" style="fill: none; stroke: #666666; stroke-width: 2; stroke-linecap: round"/>
   </g>
   <g id="legend_1">
    <g id="line2d_19">
     <path d="M 344.95467 156.256 
L 358.70467 156.256 
L 372.45467 156.256 
" style="fill: none; stroke-dasharray: 1.5,2.475; stroke-dashoffset: 0; stroke: #ef5350; stroke-width: 1.5"/>
    </g>
    <g id="text_20">
     <!-- Trained -->
     <g style="fill: #939393" transform="translate(383.45467 161.0685) scale(0.1375 -0.1375)">
      <defs>
       <path id="IBMPlexSans-Regular-61" d="M 2944 0 
Q 2656 0 2531 153 
Q 2406 307 2374 538 
L 2342 538 
Q 2234 230 1984 76 
Q 1734 -77 1389 -77 
Q 864 -77 573 192 
Q 282 461 282 922 
Q 282 1389 624 1638 
Q 966 1888 1690 1888 
L 2342 1888 
L 2342 2214 
Q 2342 2566 2150 2752 
Q 1958 2938 1562 2938 
Q 1261 2938 1059 2803 
Q 858 2669 723 2445 
L 416 2733 
Q 550 3002 844 3190 
Q 1139 3379 1587 3379 
Q 2189 3379 2521 3084 
Q 2854 2790 2854 2266 
L 2854 448 
L 3232 448 
L 3232 0 
L 2944 0 
z
M 1472 358 
Q 1664 358 1824 403 
Q 1984 448 2099 531 
Q 2214 614 2278 723 
Q 2342 832 2342 960 
L 2342 1504 
L 1664 1504 
Q 1222 1504 1020 1376 
Q 819 1248 819 1005 
L 819 870 
Q 819 627 995 492 
Q 1171 358 1472 358 
z
" transform="scale(0.015625)"/>
      </defs>
      <use xlink:href="#IBMPlexSans-Regular-54"/>
      <use xlink:href="#IBMPlexSans-Regular-72" x="57.199997"/>
      <use xlink:href="#IBMPlexSans-Regular-61" x="93.899994"/>
      <use xlink:href="#IBMPlexSans-Regular-69" x="147.299988"/>
      <use xlink:href="#IBMPlexSans-Regular-6e" x="172.299973"/>
      <use xlink:href="#IBMPlexSans-Regular-65" x="229.09996"/>
      <use xlink:href="#IBMPlexSans-Regular-64" x="283.999954"/>
     </g>
    </g>
    <g id="line2d_20">
     <path d="M 457.981818 156.256 
L 471.731818 156.256 
L 485.481818 156.256 
" style="fill: none; stroke: #666666; stroke-width: 2; stroke-linecap: round"/>
    </g>
    <g id="text_21">
     <!-- HMC -->
     <g style="fill: #939393" transform="translate(496.481818 161.0685) scale(0.1375 -0.1375)">
      <defs>
       <path id="IBMPlexSans-Regular-48" d="M 3392 2022 
L 1133 2022 
L 1133 0 
L 595 0 
L 595 4467 
L 1133 4467 
L 1133 2496 
L 3392 2496 
L 3392 4467 
L 3930 4467 
L 3930 0 
L 3392 0 
L 3392 2022 
z
" transform="scale(0.015625)"/>
       <path id="IBMPlexSans-Regular-43" d="M 2170 -77 
Q 1318 -77 844 502 
Q 371 1082 371 2208 
Q 371 3334 844 3939 
Q 1318 4544 2170 4544 
Q 2733 4544 3113 4288 
Q 3494 4032 3706 3565 
L 3270 3302 
Q 3136 3648 2861 3856 
Q 2586 4064 2170 4064 
Q 1882 4064 1654 3955 
Q 1427 3846 1270 3644 
Q 1114 3443 1030 3164 
Q 947 2886 947 2541 
L 947 1875 
Q 947 1184 1267 793 
Q 1587 403 2170 403 
Q 2598 403 2886 624 
Q 3174 845 3309 1210 
L 3738 941 
Q 3526 467 3129 195 
Q 2733 -77 2170 -77 
z
" transform="scale(0.015625)"/>
      </defs>
      <use xlink:href="#IBMPlexSans-Regular-48"/>
      <use xlink:href="#IBMPlexSans-Regular-4d" x="70.699982"/>
      <use xlink:href="#IBMPlexSans-Regular-43" x="151.899963"/>
     </g>
    </g>
   </g>
  </g>
  <g id="axes_2">
   <g id="patch_3">
    <path d="M 635.678182 290.412 
L 1122.66 290.412 
L 1122.66 24.3 
L 635.678182 24.3 
L 635.678182 290.412 
z
" style="fill: none"/>
   </g>
   <g id="matplotlib.axis_3">
    <g id="xtick_10">
     <g id="line2d_21">
      <path d="M 657.813719 290.412 
L 657.813719 24.3 
" clip-path="url(#p3eb0f3b8dc)" style="fill: none; stroke-dasharray: 3.7,1.6; stroke-dashoffset: 0; stroke: #838383; stroke-opacity: 0.2"/>
     </g>
     <g id="text_22">
      <!-- 0 -->
      <g style="fill: #838383" transform="translate(653.688719 310.087) scale(0.1375 -0.1375)">
       <use xlink:href="#IBMPlexSans-Regular-30"/>
      </g>
     </g>
    </g>
    <g id="xtick_11">
     <g id="line2d_22">
      <path d="M 713.430647 290.412 
L 713.430647 24.3 
" clip-path="url(#p3eb0f3b8dc)" style="fill: none; stroke-dasharray: 3.7,1.6; stroke-dashoffset: 0; stroke: #838383; stroke-opacity: 0.2"/>
     </g>
     <g id="text_23">
      <!-- 25 -->
      <g style="fill: #838383" transform="translate(705.180647 310.087) scale(0.1375 -0.1375)">
       <use xlink:href="#IBMPlexSans-Regular-32"/>
       <use xlink:href="#IBMPlexSans-Regular-35" x="59.999985"/>
      </g>
     </g>
    </g>
    <g id="xtick_12">
     <g id="line2d_23">
      <path d="M 769.047574 290.412 
L 769.047574 24.3 
" clip-path="url(#p3eb0f3b8dc)" style="fill: none; stroke-dasharray: 3.7,1.6; stroke-dashoffset: 0; stroke: #838383; stroke-opacity: 0.2"/>
     </g>
     <g id="text_24">
      <!-- 50 -->
      <g style="fill: #838383" transform="translate(760.797574 310.087) scale(0.1375 -0.1375)">
       <use xlink:href="#IBMPlexSans-Regular-35"/>
       <use xlink:href="#IBMPlexSans-Regular-30" x="59.999985"/>
      </g>
     </g>
    </g>
    <g id="xtick_13">
     <g id="line2d_24">
      <path d="M 824.664502 290.412 
L 824.664502 24.3 
" clip-path="url(#p3eb0f3b8dc)" style="fill: none; stroke-dasharray: 3.7,1.6; stroke-dashoffset: 0; stroke: #838383; stroke-opacity: 0.2"/>
     </g>
     <g id="text_25">
      <!-- 75 -->
      <g style="fill: #838383" transform="translate(816.414502 310.087) scale(0.1375 -0.1375)">
       <use xlink:href="#IBMPlexSans-Regular-37"/>
       <use xlink:href="#IBMPlexSans-Regular-35" x="59.999985"/>
      </g>
     </g>
    </g>
    <g id="xtick_14">
     <g id="line2d_25">
      <path d="M 880.281429 290.412 
L 880.281429 24.3 
" clip-path="url(#p3eb0f3b8dc)" style="fill: none; stroke-dasharray: 3.7,1.6; stroke-dashoffset: 0; stroke: #838383; stroke-opacity: 0.2"/>
     </g>
     <g id="text_26">
      <!-- 100 -->
      <g style="fill: #838383" transform="translate(867.906429 310.087) scale(0.1375 -0.1375)">
       <use xlink:href="#IBMPlexSans-Regular-31"/>
       <use xlink:href="#IBMPlexSans-Regular-30" x="59.999985"/>
       <use xlink:href="#IBMPlexSans-Regular-30" x="119.999969"/>
      </g>
     </g>
    </g>
    <g id="xtick_15">
     <g id="line2d_26">
      <path d="M 935.898357 290.412 
L 935.898357 24.3 
" clip-path="url(#p3eb0f3b8dc)" style="fill: none; stroke-dasharray: 3.7,1.6; stroke-dashoffset: 0; stroke: #838383; stroke-opacity: 0.2"/>
     </g>
     <g id="text_27">
      <!-- 125 -->
      <g style="fill: #838383" transform="translate(923.523357 310.087) scale(0.1375 -0.1375)">
       <use xlink:href="#IBMPlexSans-Regular-31"/>
       <use xlink:href="#IBMPlexSans-Regular-32" x="59.999985"/>
       <use xlink:href="#IBMPlexSans-Regular-35" x="119.999969"/>
      </g>
     </g>
    </g>
    <g id="xtick_16">
     <g id="line2d_27">
      <path d="M 991.515285 290.412 
L 991.515285 24.3 
" clip-path="url(#p3eb0f3b8dc)" style="fill: none; stroke-dasharray: 3.7,1.6; stroke-dashoffset: 0; stroke: #838383; stroke-opacity: 0.2"/>
     </g>
     <g id="text_28">
      <!-- 150 -->
      <g style="fill: #838383" transform="translate(979.140285 310.087) scale(0.1375 -0.1375)">
       <use xlink:href="#IBMPlexSans-Regular-31"/>
       <use xlink:href="#IBMPlexSans-Regular-35" x="59.999985"/>
       <use xlink:href="#IBMPlexSans-Regular-30" x="119.999969"/>
      </g>
     </g>
    </g>
    <g id="xtick_17">
     <g id="line2d_28">
      <path d="M 1047.132212 290.412 
L 1047.132212 24.3 
" clip-path="url(#p3eb0f3b8dc)" style="fill: none; stroke-dasharray: 3.7,1.6; stroke-dashoffset: 0; stroke: #838383; stroke-opacity: 0.2"/>
     </g>
     <g id="text_29">
      <!-- 175 -->
      <g style="fill: #838383" transform="translate(1034.757212 310.087) scale(0.1375 -0.1375)">
       <use xlink:href="#IBMPlexSans-Regular-31"/>
       <use xlink:href="#IBMPlexSans-Regular-37" x="59.999985"/>
       <use xlink:href="#IBMPlexSans-Regular-35" x="119.999969"/>
      </g>
     </g>
    </g>
    <g id="xtick_18">
     <g id="line2d_29">
      <path d="M 1102.74914 290.412 
L 1102.74914 24.3 
" clip-path="url(#p3eb0f3b8dc)" style="fill: none; stroke-dasharray: 3.7,1.6; stroke-dashoffset: 0; stroke: #838383; stroke-opacity: 0.2"/>
     </g>
     <g id="text_30">
      <!-- 200 -->
      <g style="fill: #838383" transform="translate(1090.37414 310.087) scale(0.1375 -0.1375)">
       <use xlink:href="#IBMPlexSans-Regular-32"/>
       <use xlink:href="#IBMPlexSans-Regular-30" x="59.999985"/>
       <use xlink:href="#IBMPlexSans-Regular-30" x="119.999969"/>
      </g>
     </g>
    </g>
    <g id="text_31">
     <!-- MD Step -->
     <g style="fill: #838383" transform="translate(850.820263 327.937) scale(0.15 -0.15)">
      <use xlink:href="#IBMPlexSans-Regular-4d"/>
      <use xlink:href="#IBMPlexSans-Regular-44" x="81.199982"/>
      <use xlink:href="#IBMPlexSans-Regular-20" x="148.299973"/>
      <use xlink:href="#IBMPlexSans-Regular-53" x="171.899963"/>
      <use xlink:href="#IBMPlexSans-Regular-74" x="229.999954"/>
      <use xlink:href="#IBMPlexSans-Regular-65" x="265.099945"/>
      <use xlink:href="#IBMPlexSans-Regular-70" x="319.999939"/>
     </g>
    </g>
   </g>
   <g id="matplotlib.axis_4">
    <g id="ytick_8">
     <g id="line2d_30">
      <path d="M 635.678182 278.316 
L 1122.66 278.316 
" clip-path="url(#p3eb0f3b8dc)" style="fill: none; stroke-dasharray: 3.7,1.6; stroke-dashoffset: 0; stroke: #838383; stroke-opacity: 0.2"/>
     </g>
     <g id="text_32">
      <!-- −8 -->
      <g style="fill: #838383" transform="translate(609.678182 283.4035) scale(0.1375 -0.1375)">
       <defs>
        <path id="IBMPlexSans-Regular-38" d="M 1920 -77 
Q 1536 -77 1248 22 
Q 960 122 765 294 
Q 570 467 470 704 
Q 371 941 371 1216 
Q 371 1677 620 1945 
Q 870 2214 1274 2323 
L 1274 2374 
Q 922 2496 714 2768 
Q 506 3040 506 3424 
Q 506 3936 877 4240 
Q 1248 4544 1920 4544 
Q 2592 4544 2963 4240 
Q 3334 3936 3334 3424 
Q 3334 3040 3126 2768 
Q 2918 2496 2566 2374 
L 2566 2323 
Q 2970 2214 3219 1945 
Q 3469 1677 3469 1216 
Q 3469 941 3369 704 
Q 3270 467 3075 294 
Q 2880 122 2592 22 
Q 2304 -77 1920 -77 
z
M 1920 390 
Q 2387 390 2643 598 
Q 2899 806 2899 1190 
L 2899 1325 
Q 2899 1709 2643 1917 
Q 2387 2125 1920 2125 
Q 1453 2125 1197 1917 
Q 941 1709 941 1325 
L 941 1190 
Q 941 806 1197 598 
Q 1453 390 1920 390 
z
M 1920 2573 
Q 2342 2573 2560 2752 
Q 2778 2931 2778 3277 
L 2778 3373 
Q 2778 3718 2560 3897 
Q 2342 4077 1920 4077 
Q 1498 4077 1280 3897 
Q 1062 3718 1062 3373 
L 1062 3277 
Q 1062 2931 1280 2752 
Q 1498 2573 1920 2573 
z
" transform="scale(0.015625)"/>
       </defs>
       <use xlink:href="#IBMPlexSans-Regular-2212"/>
       <use xlink:href="#IBMPlexSans-Regular-38" x="59.999985"/>
      </g>
     </g>
    </g>
    <g id="ytick_9">
     <g id="line2d_31">
      <path d="M 635.678182 248.076 
L 1122.66 248.076 
" clip-path="url(#p3eb0f3b8dc)" style="fill: none; stroke-dasharray: 3.7,1.6; stroke-dashoffset: 0; stroke: #838383; stroke-opacity: 0.2"/>
     </g>
     <g id="text_33">
      <!-- −6 -->
      <g style="fill: #838383" transform="translate(609.678182 253.1635) scale(0.1375 -0.1375)">
       <use xlink:href="#IBMPlexSans-Regular-2212"/>
       <use xlink:href="#IBMPlexSans-Regular-36" x="59.999985"/>
      </g>
     </g>
    </g>
    <g id="ytick_10">
     <g id="line2d_32">
      <path d="M 635.678182 217.836 
L 1122.66 217.836 
" clip-path="url(#p3eb0f3b8dc)" style="fill: none; stroke-dasharray: 3.7,1.6; stroke-dashoffset: 0; stroke: #838383; stroke-opacity: 0.2"/>
     </g>
     <g id="text_34">
      <!-- −4 -->
      <g style="fill: #838383" transform="translate(609.678182 222.9235) scale(0.1375 -0.1375)">
       <use xlink:href="#IBMPlexSans-Regular-2212"/>
       <use xlink:href="#IBMPlexSans-Regular-34" x="59.999985"/>
      </g>
     </g>
    </g>
    <g id="ytick_11">
     <g id="line2d_33">
      <path d="M 635.678182 187.596 
L 1122.66 187.596 
" clip-path="url(#p3eb0f3b8dc)" style="fill: none; stroke-dasharray: 3.7,1.6; stroke-dashoffset: 0; stroke: #838383; stroke-opacity: 0.2"/>
     </g>
     <g id="text_35">
      <!-- −2 -->
      <g style="fill: #838383" transform="translate(609.678182 192.6835) scale(0.1375 -0.1375)">
       <use xlink:href="#IBMPlexSans-Regular-2212"/>
       <use xlink:href="#IBMPlexSans-Regular-32" x="59.999985"/>
      </g>
     </g>
    </g>
    <g id="ytick_12">
     <g id="line2d_34">
      <path d="M 635.678182 157.356 
L 1122.66 157.356 
" clip-path="url(#p3eb0f3b8dc)" style="fill: none; stroke-dasharray: 3.7,1.6; stroke-dashoffset: 0; stroke: #838383; stroke-opacity: 0.2"/>
     </g>
     <g id="text_36">
      <!-- 0 -->
      <g style="fill: #838383" transform="translate(617.928182 162.4435) scale(0.1375 -0.1375)">
       <use xlink:href="#IBMPlexSans-Regular-30"/>
      </g>
     </g>
    </g>
    <g id="ytick_13">
     <g id="line2d_35">
      <path d="M 635.678182 127.116 
L 1122.66 127.116 
" clip-path="url(#p3eb0f3b8dc)" style="fill: none; stroke-dasharray: 3.7,1.6; stroke-dashoffset: 0; stroke: #838383; stroke-opacity: 0.2"/>
     </g>
     <g id="text_37">
      <!-- 2 -->
      <g style="fill: #838383" transform="translate(617.928182 132.2035) scale(0.1375 -0.1375)">
       <use xlink:href="#IBMPlexSans-Regular-32"/>
      </g>
     </g>
    </g>
    <g id="ytick_14">
     <g id="line2d_36">
      <path d="M 635.678182 96.876 
L 1122.66 96.876 
" clip-path="url(#p3eb0f3b8dc)" style="fill: none; stroke-dasharray: 3.7,1.6; stroke-dashoffset: 0; stroke: #838383; stroke-opacity: 0.2"/>
     </g>
     <g id="text_38">
      <!-- 4 -->
      <g style="fill: #838383" transform="translate(617.928182 101.9635) scale(0.1375 -0.1375)">
       <use xlink:href="#IBMPlexSans-Regular-34"/>
      </g>
     </g>
    </g>
    <g id="ytick_15">
     <g id="line2d_37">
      <path d="M 635.678182 66.636 
L 1122.66 66.636 
" clip-path="url(#p3eb0f3b8dc)" style="fill: none; stroke-dasharray: 3.7,1.6; stroke-dashoffset: 0; stroke: #838383; stroke-opacity: 0.2"/>
     </g>
     <g id="text_39">
      <!-- 6 -->
      <g style="fill: #838383" transform="translate(617.928182 71.7235) scale(0.1375 -0.1375)">
       <use xlink:href="#IBMPlexSans-Regular-36"/>
      </g>
     </g>
    </g>
    <g id="ytick_16">
     <g id="line2d_38">
      <path d="M 635.678182 36.396 
L 1122.66 36.396 
" clip-path="url(#p3eb0f3b8dc)" style="fill: none; stroke-dasharray: 3.7,1.6; stroke-dashoffset: 0; stroke: #838383; stroke-opacity: 0.2"/>
     </g>
     <g id="text_40">
      <!-- 8 -->
      <g style="fill: #838383" transform="translate(617.928182 41.4835) scale(0.1375 -0.1375)">
       <use xlink:href="#IBMPlexSans-Regular-38"/>
      </g>
     </g>
    </g>
   </g>
   <g id="line2d_39">
    <path d="M 657.813719 111.996 
L 660.038396 96.876 
L 684.509844 96.875993 
L 688.959198 127.115986 
L 693.408553 96.876 
L 697.857907 96.875993 
L 700.082584 66.635986 
L 711.20597 66.635993 
L 713.430647 51.516 
L 715.655324 66.636 
L 724.554032 66.636 
L 726.778709 81.756 
L 735.677418 81.756 
L 737.902095 96.876 
L 740.126772 66.635986 
L 742.351449 81.756007 
L 744.576126 81.755986 
L 746.800803 127.116004 
L 749.02548 127.115989 
L 751.250157 111.996004 
L 757.924189 111.995993 
L 760.148866 96.876 
L 762.373543 111.995993 
L 766.822897 81.755993 
L 769.047574 81.756007 
L 771.272251 66.635993 
L 773.496928 96.876 
L 775.721606 96.875986 
L 777.946283 81.755993 
L 780.17096 81.756 
L 782.395637 66.635986 
L 786.844991 96.875986 
L 791.294345 96.875986 
L 795.743699 66.636 
L 800.193054 66.635993 
L 802.417731 81.755993 
L 811.316439 81.756007 
L 813.541116 96.876 
L 815.765793 96.875993 
L 817.990471 111.995993 
L 820.215148 111.995993 
L 822.439825 96.875993 
L 826.889179 96.876004 
L 831.338533 66.636 
L 833.56321 66.635993 
L 835.787887 81.756007 
L 838.012564 51.516007 
L 842.461919 81.755993 
L 853.585304 81.756 
L 855.809981 66.635986 
L 858.034658 66.636 
L 860.259336 81.756007 
L 878.056752 81.755993 
L 880.281429 66.636007 
L 882.506107 81.755993 
L 884.730784 66.635986 
L 886.955461 81.755986 
L 889.180138 81.755993 
L 891.404815 66.635993 
L 893.629492 81.755993 
L 895.854169 66.636014 
L 898.078846 96.875993 
L 900.303523 81.756 
L 902.528201 81.756 
L 904.752878 96.875986 
L 926.999649 96.876004 
L 929.224326 111.995993 
L 931.449003 81.756 
L 933.67368 81.756007 
L 935.898357 66.636 
L 942.572388 66.636 
L 944.797065 81.756 
L 947.021743 66.635993 
L 951.471097 66.636 
L 953.695774 51.515993 
L 962.594482 51.515993 
L 964.819159 96.876014 
L 969.268514 66.635993 
L 971.493191 66.636 
L 973.717868 51.516 
L 975.942545 66.636 
L 978.167222 66.636 
L 980.391899 81.755993 
L 982.616576 66.635993 
L 989.290608 111.995978 
L 993.739962 81.755986 
L 998.189316 81.755986 
L 1000.413993 66.636 
L 1002.63867 66.636 
L 1004.863347 81.755993 
L 1007.088024 81.756 
L 1009.312702 66.636 
L 1011.537379 81.755993 
L 1015.986733 81.755993 
L 1018.21141 66.635993 
L 1020.436087 66.636 
L 1022.660764 51.515993 
L 1024.885441 51.515986 
L 1029.334795 81.756 
L 1031.559473 66.636007 
L 1033.78415 66.636 
L 1036.008827 81.756 
L 1044.907535 81.755993 
L 1047.132212 66.635993 
L 1056.030921 66.635993 
L 1060.480275 96.875986 
L 1062.704952 96.876 
L 1064.929629 81.755993 
L 1069.378983 81.756 
L 1073.828338 51.516007 
L 1076.053015 51.516 
L 1078.277692 81.755993 
L 1080.502369 96.875993 
L 1087.1764 51.515986 
L 1089.401077 51.516 
L 1091.625754 36.396 
L 1093.850431 66.636 
L 1096.075109 81.755986 
L 1100.524463 51.515986 
L 1100.524463 51.515986 
" clip-path="url(#p3eb0f3b8dc)" style="fill: none; stroke-dasharray: 1.5,2.475; stroke-dashoffset: 0; stroke: #2196f3; stroke-width: 1.5"/>
   </g>
   <g id="text_41">
    <!-- TensorFlow -->
    <g style="fill: #838383" transform="translate(839.702685 18.3) scale(0.15 -0.15)">
     <defs>
      <path id="IBMPlexSans-Regular-73" d="M 1536 -77 
Q 1075 -77 764 99 
Q 454 275 230 570 
L 595 864 
Q 787 621 1024 489 
Q 1261 358 1574 358 
Q 1901 358 2083 499 
Q 2266 640 2266 896 
Q 2266 1088 2141 1225 
Q 2016 1363 1690 1414 
L 1427 1453 
Q 1197 1485 1005 1552 
Q 813 1619 669 1731 
Q 525 1843 445 2009 
Q 365 2176 365 2406 
Q 365 2650 454 2832 
Q 544 3014 701 3136 
Q 858 3258 1075 3318 
Q 1293 3379 1542 3379 
Q 1946 3379 2218 3238 
Q 2490 3098 2694 2848 
L 2355 2541 
Q 2246 2694 2035 2819 
Q 1824 2944 1504 2944 
Q 1184 2944 1021 2806 
Q 858 2669 858 2432 
Q 858 2189 1021 2080 
Q 1184 1971 1491 1920 
L 1747 1882 
Q 2298 1798 2528 1564 
Q 2758 1331 2758 954 
Q 2758 474 2432 198 
Q 2106 -77 1536 -77 
z
" transform="scale(0.015625)"/>
      <path id="IBMPlexSans-Regular-46" d="M 595 0 
L 595 4467 
L 3258 4467 
L 3258 3994 
L 1133 3994 
L 1133 2496 
L 3072 2496 
L 3072 2022 
L 1133 2022 
L 1133 0 
L 595 0 
z
" transform="scale(0.015625)"/>
      <path id="IBMPlexSans-Regular-6c" d="M 1088 0 
Q 819 0 681 150 
Q 544 301 544 531 
L 544 4736 
L 1056 4736 
L 1056 448 
L 1542 448 
L 1542 0 
L 1088 0 
z
" transform="scale(0.015625)"/>
      <path id="IBMPlexSans-Regular-77" d="M 198 3302 
L 698 3302 
L 1050 1875 
L 1402 429 
L 1414 429 
L 1818 1875 
L 2234 3302 
L 2688 3302 
L 3117 1875 
L 3526 429 
L 3539 429 
L 3878 1875 
L 4237 3302 
L 4717 3302 
L 3840 0 
L 3206 0 
L 2746 1587 
L 2458 2592 
L 2445 2592 
L 2163 1587 
L 1702 0 
L 1082 0 
L 198 3302 
z
" transform="scale(0.015625)"/>
     </defs>
     <use xlink:href="#IBMPlexSans-Regular-54"/>
     <use xlink:href="#IBMPlexSans-Regular-65" x="57.199997"/>
     <use xlink:href="#IBMPlexSans-Regular-6e" x="112.099991"/>
     <use xlink:href="#IBMPlexSans-Regular-73" x="168.899979"/>
     <use xlink:href="#IBMPlexSans-Regular-6f" x="217.599976"/>
     <use xlink:href="#IBMPlexSans-Regular-72" x="273.59996"/>
     <use xlink:href="#IBMPlexSans-Regular-46" x="310.299957"/>
     <use xlink:href="#IBMPlexSans-Regular-6c" x="366.199951"/>
     <use xlink:href="#IBMPlexSans-Regular-6f" x="393.399948"/>
     <use xlink:href="#IBMPlexSans-Regular-77" x="449.399933"/>
    </g>
   </g>
   <g id="line2d_40">
    <path d="M 657.813719 232.955986 
L 671.161782 232.956 
L 673.386459 248.076007 
L 677.835813 248.076007 
L 680.06049 232.956007 
L 708.981292 232.956007 
L 711.20597 248.075993 
L 902.528201 248.076 
L 904.752878 263.196 
L 922.550294 263.196 
L 924.774972 278.315993 
L 942.572388 278.315993 
L 944.797065 263.196007 
L 953.695774 263.196029 
L 955.920451 278.316 
L 980.391899 278.315993 
L 982.616576 263.196 
L 987.06593 263.195986 
L 989.290608 248.076 
L 991.515285 248.075993 
L 993.739962 232.956 
L 1000.413993 232.956 
L 1002.63867 217.835993 
L 1053.806244 217.836 
L 1056.030921 232.956007 
L 1060.480275 232.955993 
L 1062.704952 217.836022 
L 1071.60366 217.835971 
L 1073.828338 232.956014 
L 1084.951723 232.956022 
L 1087.1764 248.075993 
L 1093.850431 248.076029 
L 1096.075109 263.195986 
L 1098.299786 248.076014 
L 1100.524463 248.076058 
L 1100.524463 248.076058 
" clip-path="url(#p3eb0f3b8dc)" style="fill: none; stroke: #666666; stroke-width: 2; stroke-linecap: round"/>
   </g>
   <g id="legend_2">
    <g id="line2d_41">
     <path d="M 648.053182 270.4745 
L 661.803182 270.4745 
L 675.553182 270.4745 
" style="fill: none; stroke-dasharray: 1.5,2.475; stroke-dashoffset: 0; stroke: #2196f3; stroke-width: 1.5"/>
    </g>
    <g id="text_42">
     <!-- Trained -->
     <g style="fill: #939393" transform="translate(686.553182 275.287) scale(0.1375 -0.1375)">
      <use xlink:href="#IBMPlexSans-Regular-54"/>
      <use xlink:href="#IBMPlexSans-Regular-72" x="57.199997"/>
      <use xlink:href="#IBMPlexSans-Regular-61" x="93.899994"/>
      <use xlink:href="#IBMPlexSans-Regular-69" x="147.299988"/>
      <use xlink:href="#IBMPlexSans-Regular-6e" x="172.299973"/>
      <use xlink:href="#IBMPlexSans-Regular-65" x="229.09996"/>
      <use xlink:href="#IBMPlexSans-Regular-64" x="283.999954"/>
     </g>
    </g>
    <g id="line2d_42">
     <path d="M 761.08033 270.4745 
L 774.83033 270.4745 
L 788.58033 270.4745 
" style="fill: none; stroke: #666666; stroke-width: 2; stroke-linecap: round"/>
    </g>
    <g id="text_43">
     <!-- HMC -->
     <g style="fill: #939393" transform="translate(799.58033 275.287) scale(0.1375 -0.1375)">
      <use xlink:href="#IBMPlexSans-Regular-48"/>
      <use xlink:href="#IBMPlexSans-Regular-4d" x="70.699982"/>
      <use xlink:href="#IBMPlexSans-Regular-43" x="151.899963"/>
     </g>
    </g>
   </g>
  </g>
 </g>
 <defs>
  <clipPath id="p09f353cd9c">
   <rect x="51.3" y="24.3" width="486.981818" height="266.112"/>
  </clipPath>
  <clipPath id="p3eb0f3b8dc">
   <rect x="635.678182" y="24.3" width="486.981818" height="266.112"/>
  </clipPath>
 </defs>
</svg>
