<?xml version="1.0" encoding="utf-8" standalone="no"?>
<!DOCTYPE svg PUBLIC "-//W3C//DTD SVG 1.1//EN"
  "http://www.w3.org/Graphics/SVG/1.1/DTD/svg11.dtd">
<svg xmlns:xlink="http://www.w3.org/1999/xlink" width="396.620234pt" height="304.008641pt" viewBox="0 0 396.620234 304.008641" xmlns="http://www.w3.org/2000/svg" version="1.1">
 <metadata>
  <rdf:RDF xmlns:dc="http://purl.org/dc/elements/1.1/" xmlns:cc="http://creativecommons.org/ns#" xmlns:rdf="http://www.w3.org/1999/02/22-rdf-syntax-ns#">
   <cc:Work>
    <dc:type rdf:resource="http://purl.org/dc/dcmitype/StillImage"/>
    <dc:date>2023-09-21T12:28:41.000970</dc:date>
    <dc:format>image/svg+xml</dc:format>
    <dc:creator>
     <cc:Agent>
      <dc:title>Matplotlib v3.8.0, https://matplotlib.org/</dc:title>
     </cc:Agent>
    </dc:creator>
   </cc:Work>
  </rdf:RDF>
 </metadata>
 <defs>
  <style type="text/css">*{stroke-linejoin: round; stroke-linecap: butt}</style>
 </defs>
 <g id="figure_1">
  <g id="patch_1">
   <path d="M 0 304.008641 
L 396.620234 304.008641 
L 396.620234 0 
L 0 0 
L 0 304.008641 
z
" style="fill: none"/>
  </g>
  <g id="axes_1">
   <g id="patch_2">
    <path d="M 29.241719 277.248797 
L 386.361719 277.248797 
L 386.361719 11.136797 
L 29.241719 11.136797 
L 29.241719 277.248797 
z
" style="fill: none"/>
   </g>
   <g id="matplotlib.axis_1">
    <g id="xtick_1">
     <g id="line2d_1">
      <path d="M 29.241719 277.248797 
L 29.241719 11.136797 
" clip-path="url(#p11c72ab158)" style="fill: none; stroke-dasharray: 1.85,0.8; stroke-dashoffset: 0; stroke: #838383; stroke-opacity: 0.33; stroke-width: 0.5"/>
     </g>
     <g id="text_1">
      <!-- −4 -->
      <g style="fill: #838383" transform="translate(22.970859 294.622391) scale(0.11 -0.11)">
       <defs>
        <path id="ArialMT-2212" d="M 3381 1997 
L 356 1997 
L 356 2522 
L 3381 2522 
L 3381 1997 
z
" transform="scale(0.015625)"/>
        <path id="ArialMT-34" d="M 2069 0 
L 2069 1097 
L 81 1097 
L 81 1613 
L 2172 4581 
L 2631 4581 
L 2631 1613 
L 3250 1613 
L 3250 1097 
L 2631 1097 
L 2631 0 
L 2069 0 
z
M 2069 1613 
L 2069 3678 
L 634 1613 
L 2069 1613 
z
" transform="scale(0.015625)"/>
       </defs>
       <use xlink:href="#ArialMT-2212"/>
       <use xlink:href="#ArialMT-34" x="58.398438"/>
      </g>
     </g>
    </g>
    <g id="xtick_2">
     <g id="line2d_2">
      <path d="M 73.881719 277.248797 
L 73.881719 11.136797 
" clip-path="url(#p11c72ab158)" style="fill: none; stroke-dasharray: 1.85,0.8; stroke-dashoffset: 0; stroke: #838383; stroke-opacity: 0.33; stroke-width: 0.5"/>
     </g>
     <g id="text_2">
      <!-- −3 -->
      <g style="fill: #838383" transform="translate(67.610859 294.622391) scale(0.11 -0.11)">
       <defs>
        <path id="ArialMT-33" d="M 269 1209 
L 831 1284 
Q 928 806 1161 595 
Q 1394 384 1728 384 
Q 2125 384 2398 659 
Q 2672 934 2672 1341 
Q 2672 1728 2419 1979 
Q 2166 2231 1775 2231 
Q 1616 2231 1378 2169 
L 1441 2663 
Q 1497 2656 1531 2656 
Q 1891 2656 2178 2843 
Q 2466 3031 2466 3422 
Q 2466 3731 2256 3934 
Q 2047 4138 1716 4138 
Q 1388 4138 1169 3931 
Q 950 3725 888 3313 
L 325 3413 
Q 428 3978 793 4289 
Q 1159 4600 1703 4600 
Q 2078 4600 2393 4439 
Q 2709 4278 2876 4000 
Q 3044 3722 3044 3409 
Q 3044 3113 2884 2869 
Q 2725 2625 2413 2481 
Q 2819 2388 3044 2092 
Q 3269 1797 3269 1353 
Q 3269 753 2831 336 
Q 2394 -81 1725 -81 
Q 1122 -81 723 278 
Q 325 638 269 1209 
z
" transform="scale(0.015625)"/>
       </defs>
       <use xlink:href="#ArialMT-2212"/>
       <use xlink:href="#ArialMT-33" x="58.398438"/>
      </g>
     </g>
    </g>
    <g id="xtick_3">
     <g id="line2d_3">
      <path d="M 118.521719 277.248797 
L 118.521719 11.136797 
" clip-path="url(#p11c72ab158)" style="fill: none; stroke-dasharray: 1.85,0.8; stroke-dashoffset: 0; stroke: #838383; stroke-opacity: 0.33; stroke-width: 0.5"/>
     </g>
     <g id="text_3">
      <!-- −2 -->
      <g style="fill: #838383" transform="translate(112.250859 294.622391) scale(0.11 -0.11)">
       <defs>
        <path id="ArialMT-32" d="M 3222 541 
L 3222 0 
L 194 0 
Q 188 203 259 391 
Q 375 700 629 1000 
Q 884 1300 1366 1694 
Q 2113 2306 2375 2664 
Q 2638 3022 2638 3341 
Q 2638 3675 2398 3904 
Q 2159 4134 1775 4134 
Q 1369 4134 1125 3890 
Q 881 3647 878 3216 
L 300 3275 
Q 359 3922 746 4261 
Q 1134 4600 1788 4600 
Q 2447 4600 2831 4234 
Q 3216 3869 3216 3328 
Q 3216 3053 3103 2787 
Q 2991 2522 2730 2228 
Q 2469 1934 1863 1422 
Q 1356 997 1212 845 
Q 1069 694 975 541 
L 3222 541 
z
" transform="scale(0.015625)"/>
       </defs>
       <use xlink:href="#ArialMT-2212"/>
       <use xlink:href="#ArialMT-32" x="58.398438"/>
      </g>
     </g>
    </g>
    <g id="xtick_4">
     <g id="line2d_4">
      <path d="M 163.161719 277.248797 
L 163.161719 11.136797 
" clip-path="url(#p11c72ab158)" style="fill: none; stroke-dasharray: 1.85,0.8; stroke-dashoffset: 0; stroke: #838383; stroke-opacity: 0.33; stroke-width: 0.5"/>
     </g>
     <g id="text_4">
      <!-- −1 -->
      <g style="fill: #838383" transform="translate(156.890859 294.622391) scale(0.11 -0.11)">
       <defs>
        <path id="ArialMT-31" d="M 2384 0 
L 1822 0 
L 1822 3584 
Q 1619 3391 1289 3197 
Q 959 3003 697 2906 
L 697 3450 
Q 1169 3672 1522 3987 
Q 1875 4303 2022 4600 
L 2384 4600 
L 2384 0 
z
" transform="scale(0.015625)"/>
       </defs>
       <use xlink:href="#ArialMT-2212"/>
       <use xlink:href="#ArialMT-31" x="58.398438"/>
      </g>
     </g>
    </g>
    <g id="xtick_5">
     <g id="line2d_5">
      <path d="M 207.801719 277.248797 
L 207.801719 11.136797 
" clip-path="url(#p11c72ab158)" style="fill: none; stroke-dasharray: 1.85,0.8; stroke-dashoffset: 0; stroke: #838383; stroke-opacity: 0.33; stroke-width: 0.5"/>
     </g>
     <g id="text_5">
      <!-- 0 -->
      <g style="fill: #838383" transform="translate(204.743203 294.622391) scale(0.11 -0.11)">
       <defs>
        <path id="ArialMT-30" d="M 266 2259 
Q 266 3072 433 3567 
Q 600 4063 929 4331 
Q 1259 4600 1759 4600 
Q 2128 4600 2406 4451 
Q 2684 4303 2865 4023 
Q 3047 3744 3150 3342 
Q 3253 2941 3253 2259 
Q 3253 1453 3087 958 
Q 2922 463 2592 192 
Q 2263 -78 1759 -78 
Q 1097 -78 719 397 
Q 266 969 266 2259 
z
M 844 2259 
Q 844 1131 1108 757 
Q 1372 384 1759 384 
Q 2147 384 2411 759 
Q 2675 1134 2675 2259 
Q 2675 3391 2411 3762 
Q 2147 4134 1753 4134 
Q 1366 4134 1134 3806 
Q 844 3388 844 2259 
z
" transform="scale(0.015625)"/>
       </defs>
       <use xlink:href="#ArialMT-30"/>
      </g>
     </g>
    </g>
    <g id="xtick_6">
     <g id="line2d_6">
      <path d="M 252.441719 277.248797 
L 252.441719 11.136797 
" clip-path="url(#p11c72ab158)" style="fill: none; stroke-dasharray: 1.85,0.8; stroke-dashoffset: 0; stroke: #838383; stroke-opacity: 0.33; stroke-width: 0.5"/>
     </g>
     <g id="text_6">
      <!-- 1 -->
      <g style="fill: #838383" transform="translate(249.383203 294.622391) scale(0.11 -0.11)">
       <use xlink:href="#ArialMT-31"/>
      </g>
     </g>
    </g>
    <g id="xtick_7">
     <g id="line2d_7">
      <path d="M 297.081719 277.248797 
L 297.081719 11.136797 
" clip-path="url(#p11c72ab158)" style="fill: none; stroke-dasharray: 1.85,0.8; stroke-dashoffset: 0; stroke: #838383; stroke-opacity: 0.33; stroke-width: 0.5"/>
     </g>
     <g id="text_7">
      <!-- 2 -->
      <g style="fill: #838383" transform="translate(294.023203 294.622391) scale(0.11 -0.11)">
       <use xlink:href="#ArialMT-32"/>
      </g>
     </g>
    </g>
    <g id="xtick_8">
     <g id="line2d_8">
      <path d="M 341.721719 277.248797 
L 341.721719 11.136797 
" clip-path="url(#p11c72ab158)" style="fill: none; stroke-dasharray: 1.85,0.8; stroke-dashoffset: 0; stroke: #838383; stroke-opacity: 0.33; stroke-width: 0.5"/>
     </g>
     <g id="text_8">
      <!-- 3 -->
      <g style="fill: #838383" transform="translate(338.663203 294.622391) scale(0.11 -0.11)">
       <use xlink:href="#ArialMT-33"/>
      </g>
     </g>
    </g>
    <g id="xtick_9">
     <g id="line2d_9">
      <path d="M 386.361719 277.248797 
L 386.361719 11.136797 
" clip-path="url(#p11c72ab158)" style="fill: none; stroke-dasharray: 1.85,0.8; stroke-dashoffset: 0; stroke: #838383; stroke-opacity: 0.33; stroke-width: 0.5"/>
     </g>
     <g id="text_9">
      <!-- 4 -->
      <g style="fill: #838383" transform="translate(383.303203 294.622391) scale(0.11 -0.11)">
       <use xlink:href="#ArialMT-34"/>
      </g>
     </g>
    </g>
   </g>
   <g id="matplotlib.axis_2">
    <g id="ytick_1">
     <g id="line2d_10">
      <path d="M 29.241719 277.248797 
L 386.361719 277.248797 
" clip-path="url(#p11c72ab158)" style="fill: none; stroke-dasharray: 1.85,0.8; stroke-dashoffset: 0; stroke: #838383; stroke-opacity: 0.33; stroke-width: 0.5"/>
     </g>
     <g id="text_10">
      <!-- −4 -->
      <g style="fill: #838383" transform="translate(7.2 281.185594) scale(0.11 -0.11)">
       <use xlink:href="#ArialMT-2212"/>
       <use xlink:href="#ArialMT-34" x="58.398438"/>
      </g>
     </g>
    </g>
    <g id="ytick_2">
     <g id="line2d_11">
      <path d="M 29.241719 243.984797 
L 386.361719 243.984797 
" clip-path="url(#p11c72ab158)" style="fill: none; stroke-dasharray: 1.85,0.8; stroke-dashoffset: 0; stroke: #838383; stroke-opacity: 0.33; stroke-width: 0.5"/>
     </g>
     <g id="text_11">
      <!-- −3 -->
      <g style="fill: #838383" transform="translate(7.2 247.921594) scale(0.11 -0.11)">
       <use xlink:href="#ArialMT-2212"/>
       <use xlink:href="#ArialMT-33" x="58.398438"/>
      </g>
     </g>
    </g>
    <g id="ytick_3">
     <g id="line2d_12">
      <path d="M 29.241719 210.720797 
L 386.361719 210.720797 
" clip-path="url(#p11c72ab158)" style="fill: none; stroke-dasharray: 1.85,0.8; stroke-dashoffset: 0; stroke: #838383; stroke-opacity: 0.33; stroke-width: 0.5"/>
     </g>
     <g id="text_12">
      <!-- −2 -->
      <g style="fill: #838383" transform="translate(7.2 214.657594) scale(0.11 -0.11)">
       <use xlink:href="#ArialMT-2212"/>
       <use xlink:href="#ArialMT-32" x="58.398438"/>
      </g>
     </g>
    </g>
    <g id="ytick_4">
     <g id="line2d_13">
      <path d="M 29.241719 177.456797 
L 386.361719 177.456797 
" clip-path="url(#p11c72ab158)" style="fill: none; stroke-dasharray: 1.85,0.8; stroke-dashoffset: 0; stroke: #838383; stroke-opacity: 0.33; stroke-width: 0.5"/>
     </g>
     <g id="text_13">
      <!-- −1 -->
      <g style="fill: #838383" transform="translate(7.2 181.393594) scale(0.11 -0.11)">
       <use xlink:href="#ArialMT-2212"/>
       <use xlink:href="#ArialMT-31" x="58.398438"/>
      </g>
     </g>
    </g>
    <g id="ytick_5">
     <g id="line2d_14">
      <path d="M 29.241719 144.192797 
L 386.361719 144.192797 
" clip-path="url(#p11c72ab158)" style="fill: none; stroke-dasharray: 1.85,0.8; stroke-dashoffset: 0; stroke: #838383; stroke-opacity: 0.33; stroke-width: 0.5"/>
     </g>
     <g id="text_14">
      <!-- 0 -->
      <g style="fill: #838383" transform="translate(13.624688 148.129594) scale(0.11 -0.11)">
       <use xlink:href="#ArialMT-30"/>
      </g>
     </g>
    </g>
    <g id="ytick_6">
     <g id="line2d_15">
      <path d="M 29.241719 110.928797 
L 386.361719 110.928797 
" clip-path="url(#p11c72ab158)" style="fill: none; stroke-dasharray: 1.85,0.8; stroke-dashoffset: 0; stroke: #838383; stroke-opacity: 0.33; stroke-width: 0.5"/>
     </g>
     <g id="text_15">
      <!-- 1 -->
      <g style="fill: #838383" transform="translate(13.624688 114.865594) scale(0.11 -0.11)">
       <use xlink:href="#ArialMT-31"/>
      </g>
     </g>
    </g>
    <g id="ytick_7">
     <g id="line2d_16">
      <path d="M 29.241719 77.664797 
L 386.361719 77.664797 
" clip-path="url(#p11c72ab158)" style="fill: none; stroke-dasharray: 1.85,0.8; stroke-dashoffset: 0; stroke: #838383; stroke-opacity: 0.33; stroke-width: 0.5"/>
     </g>
     <g id="text_16">
      <!-- 2 -->
      <g style="fill: #838383" transform="translate(13.624688 81.601594) scale(0.11 -0.11)">
       <use xlink:href="#ArialMT-32"/>
      </g>
     </g>
    </g>
    <g id="ytick_8">
     <g id="line2d_17">
      <path d="M 29.241719 44.400797 
L 386.361719 44.400797 
" clip-path="url(#p11c72ab158)" style="fill: none; stroke-dasharray: 1.85,0.8; stroke-dashoffset: 0; stroke: #838383; stroke-opacity: 0.33; stroke-width: 0.5"/>
     </g>
     <g id="text_17">
      <!-- 3 -->
      <g style="fill: #838383" transform="translate(13.624688 48.337594) scale(0.11 -0.11)">
       <use xlink:href="#ArialMT-33"/>
      </g>
     </g>
    </g>
    <g id="ytick_9">
     <g id="line2d_18">
      <path d="M 29.241719 11.136797 
L 386.361719 11.136797 
" clip-path="url(#p11c72ab158)" style="fill: none; stroke-dasharray: 1.85,0.8; stroke-dashoffset: 0; stroke: #838383; stroke-opacity: 0.33; stroke-width: 0.5"/>
     </g>
     <g id="text_18">
      <!-- 4 -->
      <g style="fill: #838383" transform="translate(13.624688 15.073594) scale(0.11 -0.11)">
       <use xlink:href="#ArialMT-34"/>
      </g>
     </g>
    </g>
   </g>
   <g id="PathCollection_1">
    <path d="M 0 0 
" clip-path="url(#p11c72ab158)" style="fill: none; stroke: #440154; stroke-width: 1.5"/>
   </g>
   <g id="PathCollection_2">
    <path d="M 145.53745 257.553837 
L 149.463141 257.788748 
L 153.388832 258.00045 
L 157.314523 258.163768 
L 161.240215 258.269647 
L 165.165906 258.319227 
L 169.091597 258.315702 
L 173.017288 258.259884 
L 176.94298 258.151781 
L 180.868671 257.996461 
L 184.794362 257.81011 
L 188.720053 257.62208 
L 192.645745 257.470203 
L 196.571436 257.389795 
L 196.571436 257.389795 
L 196.571436 257.389795 
L 200.497127 257.40088 
L 204.422818 257.500428 
L 208.34851 257.663976 
L 212.274201 257.855723 
L 216.199892 258.04199 
L 220.125583 258.202169 
L 224.051275 258.333188 
L 227.976966 258.446318 
L 231.902657 258.557662 
L 235.828348 258.676104 
L 239.75404 258.794913 
L 243.679731 258.892562 
L 247.605422 258.942339 
L 251.531113 258.923663 
L 255.456805 258.828355 
L 259.382496 258.660957 
L 263.308187 258.4364 
L 267.233878 258.177436 
L 271.15957 257.910982 
L 275.085261 257.660835 
L 279.010952 257.436957 
L 279.911462 257.389795 
L 282.936643 257.262327 
L 286.862334 257.087939 
L 290.788026 256.884081 
L 294.713717 256.647699 
L 298.639408 256.399449 
L 302.565099 256.178541 
L 306.490791 256.026895 
L 310.416482 255.968073 
L 314.342173 255.990837 
L 318.267864 256.04732 
L 322.193556 256.066077 
L 326.119247 255.967987 
L 330.044938 255.671695 
L 333.970629 255.084077 
L 337.468165 254.19542 
L 337.896321 254.092232 
L 341.822012 252.682411 
L 344.944781 251.001046 
L 345.747703 250.518858 
L 349.200267 247.806672 
L 349.673394 247.337722 
L 352.082525 244.612298 
L 353.599086 242.178583 
L 354.069847 241.417923 
L 355.470819 238.223549 
L 356.340212 235.029175 
L 356.854359 231.834801 
L 357.18239 228.640426 
L 357.486739 225.446052 
L 357.524777 225.151732 
L 357.963945 222.251678 
L 358.614182 219.057304 
L 359.374327 215.862929 
L 360.135641 212.668555 
L 360.785309 209.474181 
L 361.236172 206.279807 
L 361.440894 203.085432 
L 361.400649 199.891058 
L 361.173223 196.696684 
L 360.876052 193.50231 
L 360.665046 190.307935 
L 360.669637 187.113561 
L 360.912563 183.919187 
L 361.29497 180.724813 
L 361.450468 179.410458 
L 361.726594 177.530438 
L 362.050315 174.336064 
L 362.18718 171.14169 
L 362.178742 167.947315 
L 362.103561 164.752941 
L 362.02435 161.558567 
L 361.949451 158.364193 
L 361.836089 155.169818 
L 361.626964 151.975444 
L 361.450468 150.287807 
L 361.321944 148.78107 
L 360.965072 145.586696 
L 360.575681 142.392321 
L 360.231443 139.197947 
L 359.994235 136.003573 
L 359.880576 132.809199 
L 359.867932 129.614824 
L 359.927054 126.42045 
L 360.04705 123.226076 
L 360.233912 120.031702 
L 360.487446 116.837327 
L 360.777627 113.642953 
L 361.042571 110.448579 
L 361.211846 107.254205 
L 361.238137 104.05983 
L 361.118463 100.865456 
L 360.895007 97.671082 
L 360.632583 94.476708 
L 360.381346 91.282333 
L 360.148472 88.087959 
L 359.898881 84.893585 
L 359.581333 81.69921 
L 359.16247 78.504836 
L 358.656859 75.310462 
L 358.143949 72.116088 
L 357.751025 68.921713 
L 357.583711 65.727339 
L 357.640643 62.532965 
L 357.796033 59.338591 
L 357.865224 56.144216 
L 357.673961 52.949842 
L 357.524777 52.136304 
L 357.14131 49.755468 
L 356.12965 46.561094 
L 354.387311 43.366719 
L 353.599086 42.362466 
L 351.613376 40.172345 
L 349.673394 38.608983 
L 346.929353 36.977971 
L 345.747703 36.368415 
L 341.822012 34.894776 
L 337.896321 33.932302 
L 337.050949 33.783597 
L 333.970629 33.181927 
L 330.044938 32.6215 
L 326.119247 32.200564 
L 322.193556 31.874504 
L 318.267864 31.613806 
L 314.342173 31.391485 
L 310.416482 31.18008 
L 306.490791 30.958872 
L 302.565099 30.724704 
L 300.293404 30.589222 
L 298.639408 30.46737 
L 294.713717 30.210078 
L 290.788026 30.018867 
L 286.862334 29.897654 
L 282.936643 29.821033 
L 279.010952 29.736446 
L 275.085261 29.577504 
L 271.15957 29.292476 
L 267.233878 28.878471 
L 263.308187 28.392598 
L 259.382496 27.923242 
L 255.456805 27.546088 
L 253.073338 27.394848 
L 251.531113 27.265092 
L 247.605422 27.118504 
L 243.679731 27.145722 
L 239.75404 27.317165 
L 238.625943 27.394848 
L 235.828348 27.541152 
L 231.902657 27.789515 
L 227.976966 28.046177 
L 224.051275 28.277266 
L 220.125583 28.465661 
L 216.199892 28.618273 
L 212.274201 28.759583 
L 208.34851 28.917422 
L 204.422818 29.111539 
L 200.497127 29.34851 
L 196.571436 29.621187 
L 192.645745 29.911637 
L 188.720053 30.198331 
L 184.794362 30.466089 
L 182.820809 30.589222 
L 180.868671 30.682876 
L 176.94298 30.856595 
L 173.017288 31.01869 
L 169.091597 31.16157 
L 165.165906 31.26664 
L 161.240215 31.311156 
L 157.314523 31.27852 
L 153.388832 31.167337 
L 149.463141 30.996668 
L 145.53745 30.805893 
L 141.611758 30.647163 
L 138.621344 30.589222 
L 137.686067 30.566087 
L 136.053391 30.589222 
L 133.760376 30.614135 
L 129.834685 30.78956 
L 125.908993 31.090917 
L 121.983302 31.494414 
L 118.057611 31.961921 
L 114.13192 32.444833 
L 110.206228 32.894445 
L 106.280537 33.280219 
L 102.354846 33.606549 
L 100.088904 33.783597 
L 98.429155 33.890909 
L 94.503463 34.181873 
L 90.577772 34.570833 
L 86.652081 35.119359 
L 82.72639 35.900348 
L 78.924592 36.977971 
L 78.800698 37.014363 
L 74.875007 38.534937 
L 71.905718 40.172345 
L 70.949316 40.84916 
L 68.109544 43.366719 
L 67.023625 44.863565 
L 65.89423 46.561094 
L 64.636727 49.755468 
L 63.988326 52.949842 
L 63.655532 56.144216 
L 63.401048 59.338591 
L 63.097933 62.054313 
L 63.036334 62.532965 
L 62.417855 65.727339 
L 61.626101 68.921713 
L 60.782085 72.116088 
L 60.00609 75.310462 
L 59.362782 78.504836 
L 59.172242 79.673927 
L 58.793568 81.69921 
L 58.3147 84.893585 
L 57.925326 88.087959 
L 57.592857 91.282333 
L 57.294058 94.476708 
L 57.01368 97.671082 
L 56.743417 100.865456 
L 56.483153 104.05983 
L 56.243302 107.254205 
L 56.044817 110.448579 
L 55.913342 113.642953 
L 55.866853 116.837327 
L 55.900098 120.031702 
L 55.973102 123.226076 
L 56.015245 126.42045 
L 55.954287 129.614824 
L 55.758663 132.809199 
L 55.457416 136.003573 
L 55.246551 137.959898 
L 55.079621 139.197947 
L 54.680344 142.392321 
L 54.385777 145.586696 
L 54.221271 148.78107 
L 54.180658 151.975444 
L 54.225354 155.169818 
L 54.281077 158.364193 
L 54.250805 161.558567 
L 54.059506 164.752941 
L 53.708171 167.947315 
L 53.283998 171.14169 
L 52.914051 174.336064 
L 52.709383 177.530438 
L 52.737773 180.724813 
L 53.019866 183.919187 
L 53.528349 187.113561 
L 54.182891 190.307935 
L 54.854725 193.50231 
L 55.246551 195.812577 
L 55.370438 196.696684 
L 55.629942 199.891058 
L 55.710336 203.085432 
L 55.666142 206.279807 
L 55.573466 209.474181 
L 55.501267 212.668555 
L 55.492931 215.862929 
L 55.558493 219.057304 
L 55.68126 222.251678 
L 55.837542 225.446052 
L 56.019228 228.640426 
L 56.249613 231.834801 
L 56.592307 235.029175 
L 57.160315 238.223549 
L 58.134541 241.417923 
L 59.172242 243.504924 
L 59.714523 244.612298 
L 62.188197 247.806672 
L 63.097933 248.63727 
L 66.344213 251.001046 
L 67.023625 251.404852 
L 70.949316 253.164038 
L 74.681492 254.19542 
L 74.875007 254.25102 
L 78.800698 255.002196 
L 82.72639 255.411566 
L 86.652081 255.595633 
L 90.577772 255.650934 
L 94.503463 255.665083 
L 98.429155 255.712166 
L 102.354846 255.837351 
L 106.280537 256.045053 
L 110.206228 256.303637 
L 114.13192 256.564883 
L 118.057611 256.785524 
L 121.983302 256.941448 
L 125.908993 257.033202 
L 129.834685 257.084329 
L 133.760376 257.132553 
L 137.686067 257.214007 
L 141.611758 257.345935 
L 142.588501 257.389795 
L 145.53745 257.553837 
z
" clip-path="url(#p11c72ab158)" style="fill: none; stroke: #3e4a89; stroke-width: 1.5"/>
   </g>
   <g id="PathCollection_3">
    <path d="M 161.240215 244.671769 
L 165.165906 244.991623 
L 169.091597 245.13899 
L 173.017288 245.102464 
L 176.94298 244.88066 
L 179.646131 244.612298 
L 180.868671 244.469594 
L 184.794362 243.869714 
L 188.720053 243.193517 
L 192.645745 242.522741 
L 196.571436 241.941497 
L 200.497127 241.531766 
L 203.25734 241.417923 
L 204.422818 241.354222 
L 205.898372 241.417923 
L 208.34851 241.501066 
L 212.274201 241.920816 
L 216.199892 242.543836 
L 220.125583 243.240893 
L 224.051275 243.898644 
L 227.976966 244.461501 
L 229.203632 244.612298 
L 231.902657 244.893417 
L 235.828348 245.253136 
L 239.75404 245.576717 
L 243.679731 245.864297 
L 247.605422 246.095618 
L 251.531113 246.237126 
L 255.456805 246.254224 
L 259.382496 246.123093 
L 263.308187 245.838392 
L 267.233878 245.41622 
L 271.15957 244.894239 
L 273.150319 244.612298 
L 275.085261 244.28553 
L 279.010952 243.67156 
L 282.936643 243.170794 
L 286.862334 242.81878 
L 290.788026 242.593442 
L 294.713717 242.425914 
L 298.639408 242.242119 
L 302.565099 241.997594 
L 306.490791 241.683283 
L 309.317729 241.417923 
L 310.416482 241.29175 
L 314.342173 240.79789 
L 318.267864 240.237912 
L 322.193556 239.543189 
L 326.119247 238.560417 
L 327.04563 238.223549 
L 330.044938 236.61453 
L 331.956198 235.029175 
L 333.970629 232.621867 
L 334.436953 231.834801 
L 336.107005 228.640426 
L 337.777869 225.446052 
L 337.896321 225.24265 
L 339.255564 222.251678 
L 340.753645 219.057304 
L 341.822012 216.743784 
L 342.162431 215.862929 
L 343.272526 212.668555 
L 344.155665 209.474181 
L 344.708552 206.279807 
L 344.833316 203.085432 
L 344.508847 199.891058 
L 343.854797 196.696684 
L 343.114979 193.50231 
L 342.554717 190.307935 
L 342.341363 187.113561 
L 342.477812 183.919187 
L 342.815044 180.724813 
L 343.134145 177.530438 
L 343.264731 174.336064 
L 343.180985 171.14169 
L 343.004649 167.947315 
L 342.89633 164.752941 
L 342.92135 161.558567 
L 343.006053 158.364193 
L 343.00482 155.169818 
L 342.807866 151.975444 
L 342.417416 148.78107 
L 341.95384 145.586696 
L 341.822012 144.447168 
L 341.555399 142.392321 
L 341.398939 139.197947 
L 341.517029 136.003573 
L 341.819596 132.809199 
L 341.822012 132.787564 
L 342.128903 129.614824 
L 342.377559 126.42045 
L 342.519284 123.226076 
L 342.562917 120.031702 
L 342.542613 116.837327 
L 342.477251 113.642953 
L 342.347891 110.448579 
L 342.115465 107.254205 
L 341.822012 104.526898 
L 341.760053 104.05983 
L 341.279776 100.865456 
L 340.86103 97.671082 
L 340.604837 94.476708 
L 340.518424 91.282333 
L 340.50434 88.087959 
L 340.413524 84.893585 
L 340.129985 81.69921 
L 339.634565 78.504836 
L 339.011262 75.310462 
L 338.399913 72.116088 
L 337.9263 68.921713 
L 337.896321 68.585289 
L 337.618432 65.727339 
L 337.438565 62.532965 
L 337.172399 59.338591 
L 336.446565 56.144216 
L 334.701906 52.949842 
L 333.970629 52.208671 
L 330.382717 49.755468 
L 330.044938 49.601247 
L 326.119247 48.375805 
L 322.193556 47.624883 
L 318.267864 47.166537 
L 314.342173 46.856831 
L 310.416482 46.561094 
L 310.416482 46.561094 
L 306.490791 46.193591 
L 302.565099 45.657369 
L 298.639408 44.953124 
L 294.713717 44.164296 
L 290.788026 43.423721 
L 290.405059 43.366719 
L 286.862334 42.924184 
L 282.936643 42.619311 
L 279.010952 42.454931 
L 275.085261 42.329552 
L 271.15957 42.118904 
L 267.233878 41.724342 
L 263.308187 41.123843 
L 259.382496 40.393659 
L 258.179387 40.172345 
L 255.456805 39.718457 
L 251.531113 39.224453 
L 247.605422 38.98549 
L 243.679731 39.03458 
L 239.75404 39.354038 
L 235.828348 39.88131 
L 233.990744 40.172345 
L 231.902657 40.538091 
L 227.976966 41.186893 
L 224.051275 41.698273 
L 220.125583 42.028052 
L 216.199892 42.203469 
L 212.274201 42.3008 
L 208.34851 42.406175 
L 204.422818 42.57973 
L 200.497127 42.834716 
L 196.571436 43.13538 
L 193.324421 43.366719 
L 192.645745 43.42397 
L 188.720053 43.650161 
L 184.794362 43.738819 
L 180.868671 43.723232 
L 176.94298 43.670827 
L 173.017288 43.645412 
L 169.091597 43.681965 
L 165.165906 43.782512 
L 161.240215 43.925149 
L 157.314523 44.07432 
L 153.388832 44.187211 
L 149.463141 44.220764 
L 145.53745 44.147774 
L 141.611758 43.981546 
L 137.686067 43.79022 
L 133.760376 43.677809 
L 129.834685 43.73741 
L 125.908993 44.011948 
L 121.983302 44.486847 
L 118.057611 45.106773 
L 114.13192 45.798149 
L 110.206228 46.49037 
L 109.766369 46.561094 
L 106.280537 47.276096 
L 102.354846 48.056221 
L 98.429155 48.918758 
L 95.47733 49.755468 
L 94.503463 50.207331 
L 90.577772 52.914673 
L 90.541993 52.949842 
L 89.009512 56.144216 
L 88.413046 59.338591 
L 87.964998 62.532965 
L 87.248702 65.727339 
L 86.652081 67.403789 
L 86.159525 68.921713 
L 84.756092 72.116088 
L 83.114691 75.310462 
L 82.72639 76.033085 
L 81.521591 78.504836 
L 80.070364 81.69921 
L 78.809906 84.893585 
L 78.800698 84.922547 
L 77.924354 88.087959 
L 77.268439 91.282333 
L 76.805395 94.476708 
L 76.481472 97.671082 
L 76.23313 100.865456 
L 76.007212 104.05983 
L 75.786718 107.254205 
L 75.603642 110.448579 
L 75.522805 113.642953 
L 75.597395 116.837327 
L 75.81573 120.031702 
L 76.069129 123.226076 
L 76.170479 126.42045 
L 75.934445 129.614824 
L 75.282726 132.809199 
L 74.875007 134.140903 
L 74.404808 136.003573 
L 73.534525 139.197947 
L 72.795489 142.392321 
L 72.321774 145.586696 
L 72.170402 148.78107 
L 72.314168 151.975444 
L 72.636161 155.169818 
L 72.945268 158.364193 
L 73.038795 161.558567 
L 72.79826 164.752941 
L 72.257136 167.947315 
L 71.592588 171.14169 
L 71.054728 174.336064 
L 70.949316 176.270984 
L 70.888516 177.530438 
L 70.949316 178.217662 
L 71.210265 180.724813 
L 72.030238 183.919187 
L 73.131224 187.113561 
L 74.185691 190.307935 
L 74.875007 193.287653 
L 74.93033 193.50231 
L 75.315915 196.696684 
L 75.357147 199.891058 
L 75.226531 203.085432 
L 75.033898 206.279807 
L 74.875007 208.514349 
L 74.81333 209.474181 
L 74.558894 212.668555 
L 74.244805 215.862929 
L 73.896163 219.057304 
L 73.579019 222.251678 
L 73.388388 225.446052 
L 73.445174 228.640426 
L 73.913329 231.834801 
L 74.875007 234.594891 
L 75.085654 235.029175 
L 77.979319 238.223549 
L 78.800698 238.793112 
L 82.72639 240.271289 
L 86.652081 240.804548 
L 90.577772 240.821241 
L 94.503463 240.630431 
L 98.429155 240.45582 
L 102.354846 240.435249 
L 106.280537 240.612895 
L 110.206228 240.946894 
L 114.13192 241.338592 
L 115.072147 241.417923 
L 118.057611 241.634283 
L 121.983302 241.792794 
L 125.908993 241.808663 
L 129.834685 241.719353 
L 133.760376 241.609106 
L 137.686067 241.588761 
L 141.611758 241.759242 
L 145.53745 242.165601 
L 149.463141 242.769136 
L 153.388832 243.464889 
L 157.314523 244.133112 
L 160.727606 244.612298 
L 161.240215 244.671769 
z
" clip-path="url(#p11c72ab158)" style="fill: none; stroke: #1f9e89; stroke-width: 1.5"/>
   </g>
   <g id="PathCollection_4">
    <path d="M 235.828348 238.760541 
L 239.75404 239.318527 
L 243.679731 239.722689 
L 247.605422 239.982576 
L 251.531113 240.081592 
L 255.456805 239.988674 
L 259.382496 239.677441 
L 263.308187 239.144619 
L 267.233878 238.417013 
L 268.105396 238.223549 
L 271.15957 237.261834 
L 275.085261 236.001884 
L 278.375891 235.029175 
L 279.010952 234.756122 
L 282.936643 233.414419 
L 286.862334 232.556615 
L 290.788026 232.195101 
L 294.713717 232.201027 
L 298.639408 232.296786 
L 302.565099 232.197405 
L 305.660503 231.834801 
L 306.490791 231.694426 
L 310.416482 230.493108 
L 314.342173 228.915262 
L 314.887188 228.640426 
L 318.267864 226.567789 
L 319.923386 225.446052 
L 322.193556 223.75476 
L 324.012298 222.251678 
L 326.119247 220.411732 
L 327.404762 219.057304 
L 330.044938 216.076208 
L 330.187369 215.862929 
L 331.773992 212.668555 
L 332.907491 209.474181 
L 333.294905 206.279807 
L 332.728333 203.085432 
L 331.621733 199.891058 
L 330.653571 196.696684 
L 330.068407 193.50231 
L 330.044938 193.252362 
L 329.707662 190.307935 
L 329.611617 187.113561 
L 329.624701 183.919187 
L 329.591517 180.724813 
L 329.363448 177.530438 
L 328.975367 174.336064 
L 328.735891 171.14169 
L 328.895185 167.947315 
L 329.421776 164.752941 
L 330.044938 161.935377 
L 330.107518 161.558567 
L 330.593069 158.364193 
L 330.81033 155.169818 
L 330.68263 151.975444 
L 330.34816 148.78107 
L 330.077749 145.586696 
L 330.073293 142.392321 
L 330.373197 139.197947 
L 330.896026 136.003573 
L 331.500627 132.809199 
L 332.015923 129.614824 
L 332.273628 126.42045 
L 332.169467 123.226076 
L 331.716952 120.031702 
L 331.030541 116.837327 
L 330.240225 113.642953 
L 330.044938 112.884622 
L 329.211088 110.448579 
L 328.143367 107.254205 
L 327.005577 104.05983 
L 326.119247 101.842387 
L 325.638033 100.865456 
L 323.857338 97.671082 
L 322.193556 94.868706 
L 321.880759 94.476708 
L 320.16692 91.282333 
L 320.342136 88.087959 
L 322.193556 85.672869 
L 322.671777 84.893585 
L 325.202162 81.69921 
L 326.119247 80.169394 
L 326.721344 78.504836 
L 327.412381 75.310462 
L 327.664294 72.116088 
L 327.614782 68.921713 
L 327.280217 65.727339 
L 326.513609 62.532965 
L 326.119247 61.666307 
L 324.619307 59.338591 
L 322.193556 57.333248 
L 319.703353 56.144216 
L 318.267864 55.676615 
L 314.342173 54.937621 
L 310.416482 54.526032 
L 306.490791 54.216512 
L 302.565099 53.81494 
L 298.639408 53.137607 
L 297.887648 52.949842 
L 294.713717 52.243797 
L 290.788026 51.170142 
L 286.862334 50.08119 
L 285.318918 49.755468 
L 282.936643 49.421956 
L 279.010952 49.114812 
L 275.085261 48.920679 
L 271.15957 48.633719 
L 267.233878 48.056248 
L 263.308187 47.084799 
L 261.715532 46.561094 
L 259.382496 46.018718 
L 255.456805 45.072984 
L 251.531113 44.314206 
L 247.605422 43.926085 
L 243.679731 43.996226 
L 239.75404 44.496978 
L 235.828348 45.302523 
L 231.902657 46.233583 
L 230.435646 46.561094 
L 227.976966 47.30335 
L 224.051275 48.238429 
L 220.125583 48.913273 
L 216.199892 49.397909 
L 212.642445 49.755468 
L 212.274201 49.813808 
L 208.34851 50.427968 
L 204.422818 51.114546 
L 200.497127 51.791437 
L 196.571436 52.292504 
L 192.645745 52.476639 
L 188.720053 52.301718 
L 184.794362 51.832313 
L 180.868671 51.211399 
L 176.94298 50.613113 
L 173.017288 50.18538 
L 169.091597 50.007933 
L 165.165906 50.087196 
L 161.240215 50.378616 
L 157.314523 50.809702 
L 153.388832 51.289467 
L 149.463141 51.711335 
L 145.53745 51.967132 
L 141.611758 51.985702 
L 137.686067 51.789899 
L 133.760376 51.528549 
L 129.834685 51.422867 
L 125.908993 51.643347 
L 121.983302 52.232861 
L 118.892592 52.949842 
L 118.057611 53.232779 
L 114.13192 54.879159 
L 111.462667 56.144216 
L 110.206228 56.997725 
L 107.206906 59.338591 
L 106.280537 60.298692 
L 104.493896 62.532965 
L 102.354846 65.641401 
L 102.306225 65.727339 
L 100.543539 68.921713 
L 98.624885 72.116088 
L 98.429155 72.421434 
L 96.8287 75.310462 
L 94.88123 78.504836 
L 94.503463 79.137316 
L 93.149733 81.69921 
L 91.623688 84.893585 
L 90.577772 87.649406 
L 90.431262 88.087959 
L 89.708134 91.282333 
L 89.235105 94.476708 
L 88.891157 97.671082 
L 88.55104 100.865456 
L 88.144622 104.05983 
L 87.687884 107.254205 
L 87.286696 110.448579 
L 87.108655 113.642953 
L 87.31255 116.837327 
L 87.960561 120.031702 
L 88.965968 123.226076 
L 90.102597 126.42045 
L 90.577772 128.128906 
L 91.205746 129.614824 
L 91.89739 132.809199 
L 91.590705 136.003573 
L 90.577772 137.867362 
L 89.914895 139.197947 
L 87.608435 142.392321 
L 86.652081 144.144616 
L 86.350567 145.586696 
L 86.622561 148.78107 
L 86.652081 148.891432 
L 88.835031 151.975444 
L 89.330706 155.169818 
L 88.428609 158.364193 
L 86.77054 161.558567 
L 86.652081 161.710573 
L 85.218135 164.752941 
L 83.504984 167.947315 
L 82.72639 169.537408 
L 82.141326 171.14169 
L 81.378958 174.336064 
L 81.342899 177.530438 
L 82.150195 180.724813 
L 82.72639 182.004321 
L 83.769584 183.919187 
L 85.629778 187.113561 
L 86.652081 189.651779 
L 86.953425 190.307935 
L 87.397847 193.50231 
L 86.950075 196.696684 
L 86.652081 197.756081 
L 86.194021 199.891058 
L 85.504758 203.085432 
L 84.967885 206.279807 
L 84.55899 209.474181 
L 84.177548 212.668555 
L 83.747775 215.862929 
L 83.290201 219.057304 
L 82.960695 222.251678 
L 83.103402 225.446052 
L 84.394011 228.640426 
L 86.652081 230.71682 
L 90.351791 231.834801 
L 90.577772 231.875732 
L 94.503463 231.963547 
L 98.429155 231.835017 
L 98.436947 231.834801 
L 102.354846 231.707028 
L 106.280537 231.697244 
L 110.206228 231.777819 
L 112.89513 231.834801 
L 114.13192 231.859079 
L 117.892504 231.834801 
L 118.057611 231.833382 
L 121.983302 231.553839 
L 125.908993 230.94437 
L 129.834685 230.083757 
L 133.760376 229.244971 
L 137.686067 228.764958 
L 141.611758 228.881594 
L 145.53745 229.70172 
L 149.463141 231.273259 
L 150.467395 231.834801 
L 153.388832 233.044063 
L 157.314523 235.029175 
L 157.314523 235.029175 
L 161.240215 236.305507 
L 165.165906 237.331941 
L 169.091597 237.926105 
L 173.017288 237.954692 
L 176.94298 237.390454 
L 180.868671 236.334865 
L 184.611959 235.029175 
L 184.794362 234.899977 
L 188.720053 231.982547 
L 188.929187 231.834801 
L 190.294233 228.640426 
L 189.666653 225.446052 
L 188.720053 222.862175 
L 188.493655 222.251678 
L 188.497793 219.057304 
L 188.720053 218.691438 
L 190.831252 215.862929 
L 192.645745 214.783924 
L 196.571436 213.653627 
L 200.497127 213.470825 
L 204.422818 213.700226 
L 208.34851 214.050159 
L 212.274201 214.481422 
L 216.199892 215.204396 
L 217.977797 215.862929 
L 220.125583 218.456284 
L 220.376178 219.057304 
L 220.385602 222.251678 
L 220.125583 225.113059 
L 220.091124 225.446052 
L 220.125583 226.181025 
L 220.217486 228.640426 
L 221.43825 231.834801 
L 224.051275 234.358562 
L 224.809699 235.029175 
L 227.976966 236.506018 
L 231.902657 237.926564 
L 232.982171 238.223549 
L 235.828348 238.760541 
z
" clip-path="url(#p11c72ab158)" style="fill: none; stroke: #46c06f; stroke-width: 1.5"/>
   </g>
   <g id="PathCollection_5">
    <path d="M 235.828348 235.327343 
L 239.75404 236.151062 
L 243.679731 236.662056 
L 247.605422 236.903916 
L 251.531113 236.881648 
L 255.456805 236.58271 
L 259.382496 236.00833 
L 263.308187 235.195574 
L 263.955286 235.029175 
L 267.233878 233.60975 
L 271.15957 231.904286 
L 271.317854 231.834801 
L 275.085261 228.927414 
L 275.525995 228.640426 
L 277.017754 225.446052 
L 275.085261 222.88103 
L 274.347741 222.251678 
L 271.15957 220.948871 
L 267.233878 219.560839 
L 266.11158 219.057304 
L 263.308187 217.577465 
L 260.940388 215.862929 
L 259.382496 213.878801 
L 258.481201 212.668555 
L 258.090884 209.474181 
L 259.382496 207.627126 
L 261.056324 206.279807 
L 263.308187 205.477794 
L 267.233878 204.981303 
L 271.15957 204.962958 
L 275.085261 205.035396 
L 279.010952 204.972754 
L 282.936643 204.658559 
L 286.862334 204.045526 
L 290.788026 203.117572 
L 290.896884 203.085432 
L 294.713717 202.107347 
L 298.639408 200.922987 
L 301.728842 199.891058 
L 302.565099 199.600391 
L 306.490791 198.272974 
L 310.416482 196.850589 
L 310.822593 196.696684 
L 314.342173 194.985167 
L 316.632944 193.50231 
L 318.267864 191.50654 
L 318.989205 190.307935 
L 319.495172 187.113561 
L 318.826191 183.919187 
L 318.267864 182.690763 
L 317.152037 180.724813 
L 315.465327 177.530438 
L 315.07204 174.336064 
L 316.163593 171.14169 
L 318.079162 167.947315 
L 318.267864 167.660627 
L 319.796365 164.752941 
L 321.128937 161.558567 
L 321.900821 158.364193 
L 321.95434 155.169818 
L 321.433743 151.975444 
L 320.963784 148.78107 
L 321.100295 145.586696 
L 321.869231 142.392321 
L 322.193556 141.50076 
L 322.762677 139.197947 
L 323.617991 136.003573 
L 324.363422 132.809199 
L 324.752685 129.614824 
L 324.455161 126.42045 
L 323.352878 123.226076 
L 322.193556 120.664878 
L 321.661011 120.031702 
L 319.956217 116.837327 
L 319.360727 113.642953 
L 319.049695 110.448579 
L 318.47309 107.254205 
L 318.267864 106.732617 
L 317.029013 104.05983 
L 314.595631 100.865456 
L 314.342173 100.615639 
L 310.915257 97.671082 
L 310.416482 97.181355 
L 308.105811 94.476708 
L 307.338552 91.282333 
L 308.219389 88.087959 
L 310.363186 84.893585 
L 310.416482 84.840851 
L 314.065927 81.69921 
L 314.342173 81.48795 
L 318.267864 78.532437 
L 318.299121 78.504836 
L 321.122882 75.310462 
L 322.193556 73.028928 
L 322.506481 72.116088 
L 322.86889 68.921713 
L 322.487171 65.727339 
L 322.193556 64.966765 
L 320.865191 62.532965 
L 318.267864 60.279339 
L 316.282643 59.338591 
L 314.342173 58.733215 
L 310.416482 58.114124 
L 306.490791 57.836347 
L 302.565099 57.679667 
L 298.639408 57.478067 
L 294.713717 57.086976 
L 290.788026 56.36055 
L 289.853883 56.144216 
L 286.862334 55.508933 
L 282.936643 54.727186 
L 279.010952 54.181059 
L 275.085261 53.766019 
L 271.420788 52.949842 
L 271.15957 52.924175 
L 267.233878 52.078758 
L 263.308187 50.520643 
L 261.950718 49.755468 
L 259.382496 48.940738 
L 255.456805 47.588664 
L 251.903154 46.561094 
L 251.531113 46.488621 
L 247.605422 46.090463 
L 243.679731 46.153673 
L 240.479053 46.561094 
L 239.75404 46.695558 
L 235.828348 47.8392 
L 231.902657 49.096147 
L 229.66605 49.755468 
L 227.976966 50.510454 
L 224.051275 51.895642 
L 220.168112 52.949842 
L 220.125583 52.969199 
L 216.199892 54.435848 
L 212.274201 55.822739 
L 211.339648 56.144216 
L 208.34851 57.731145 
L 204.619988 59.338591 
L 204.422818 59.422725 
L 200.497127 60.502094 
L 196.571436 60.912356 
L 192.645745 60.703638 
L 188.720053 59.806563 
L 187.604831 59.338591 
L 184.794362 58.25359 
L 180.868671 56.302462 
L 180.563784 56.144216 
L 176.94298 54.97752 
L 173.017288 54.028633 
L 169.091597 53.546314 
L 165.165906 53.54815 
L 161.240215 53.964063 
L 157.314523 54.684667 
L 153.388832 55.581655 
L 150.948099 56.144216 
L 149.463141 56.827403 
L 145.53745 58.504522 
L 143.016771 59.338591 
L 142.801615 62.532965 
L 145.510542 65.727339 
L 145.53745 65.753552 
L 147.508013 68.921713 
L 148.863025 72.116088 
L 149.364584 75.310462 
L 148.815198 78.504836 
L 146.657892 81.69921 
L 145.53745 82.520843 
L 141.611758 83.925789 
L 137.686067 84.083695 
L 133.760376 83.465169 
L 129.834685 82.376444 
L 127.904045 81.69921 
L 125.908993 80.680959 
L 122.202998 78.504836 
L 121.983302 78.229272 
L 119.471817 75.310462 
L 118.855283 72.116088 
L 119.798992 68.921713 
L 121.983302 66.53605 
L 122.878897 65.727339 
L 125.908993 63.477887 
L 127.906519 62.532965 
L 129.834685 60.112018 
L 130.779916 59.338591 
L 129.834685 59.092236 
L 125.908993 58.619527 
L 121.983302 59.132138 
L 121.425308 59.338591 
L 118.057611 61.424802 
L 116.545652 62.532965 
L 114.13192 64.620955 
L 113.157715 65.727339 
L 110.206228 68.668063 
L 110.030057 68.921713 
L 107.645748 72.116088 
L 106.280537 73.407301 
L 105.022738 75.310462 
L 102.379323 78.504836 
L 102.354846 78.531946 
L 100.348042 81.69921 
L 98.429155 84.852915 
L 98.40916 84.893585 
L 97.149993 88.087959 
L 96.241605 91.282333 
L 95.621725 94.476708 
L 95.142918 97.671082 
L 94.677681 100.865456 
L 94.503463 101.944735 
L 94.17784 104.05983 
L 93.664408 107.254205 
L 93.249003 110.448579 
L 93.130533 113.642953 
L 93.535864 116.837327 
L 94.503463 119.685986 
L 94.646024 120.031702 
L 96.734199 123.226076 
L 98.429155 125.253414 
L 99.563691 126.42045 
L 102.354846 129.388686 
L 102.553598 129.614824 
L 104.70719 132.809199 
L 106.280537 135.904193 
L 106.322897 136.003573 
L 107.428612 139.197947 
L 108.364451 142.392321 
L 108.963672 145.586696 
L 108.942834 148.78107 
L 108.163734 151.975444 
L 106.657013 155.169818 
L 106.280537 155.716255 
L 104.060483 158.364193 
L 102.354846 159.86889 
L 99.996261 161.558567 
L 98.429155 162.491222 
L 94.718962 164.752941 
L 94.503463 164.882034 
L 90.577772 167.941733 
L 90.572734 167.947315 
L 88.113933 171.14169 
L 86.765126 174.336064 
L 86.712695 177.530438 
L 87.914094 180.724813 
L 89.961658 183.919187 
L 90.577772 184.846629 
L 92.316266 187.113561 
L 93.961466 190.307935 
L 94.313996 193.50231 
L 93.499943 196.696684 
L 92.087066 199.891058 
L 90.68576 203.085432 
L 90.577772 203.405746 
L 89.85535 206.279807 
L 89.31607 209.474181 
L 88.930649 212.668555 
L 88.628656 215.862929 
L 88.485378 219.057304 
L 88.831793 222.251678 
L 90.534945 225.446052 
L 90.577772 225.481733 
L 94.503463 226.893483 
L 98.429155 227.295031 
L 102.354846 227.385812 
L 106.280537 227.354804 
L 110.206228 227.194159 
L 114.13192 226.806872 
L 118.057611 226.049496 
L 120.071213 225.446052 
L 121.983302 224.671597 
L 125.908993 222.504536 
L 126.332763 222.251678 
L 129.834685 219.346818 
L 130.241858 219.057304 
L 133.696251 215.862929 
L 133.760376 215.792311 
L 137.686067 213.975905 
L 141.611758 214.531041 
L 144.514639 215.862929 
L 145.53745 216.321779 
L 149.463141 218.643765 
L 150.206166 219.057304 
L 153.388832 221.056832 
L 155.753581 222.251678 
L 157.314523 223.252584 
L 161.240215 225.283133 
L 161.876778 225.446052 
L 165.165906 227.276808 
L 169.091597 228.640426 
L 169.451698 225.446052 
L 170.910666 222.251678 
L 173.017288 220.468857 
L 173.989488 219.057304 
L 176.94298 216.500157 
L 177.493267 215.862929 
L 180.868671 212.849841 
L 181.059315 212.668555 
L 184.794362 209.697901 
L 185.165733 209.474181 
L 188.720053 207.688087 
L 192.645745 207.004769 
L 196.571436 207.257157 
L 200.497127 207.920455 
L 204.422818 208.597156 
L 208.34851 209.071049 
L 212.274201 209.266424 
L 216.199892 209.202006 
L 220.125583 208.96823 
L 224.051275 208.73623 
L 227.976966 208.824241 
L 230.679699 209.474181 
L 231.902657 211.1207 
L 232.412569 212.668555 
L 231.902657 213.860707 
L 231.328506 215.862929 
L 229.845683 219.057304 
L 228.497771 222.251678 
L 227.976966 224.200798 
L 227.676747 225.446052 
L 227.779594 228.640426 
L 227.976966 229.055171 
L 229.532984 231.834801 
L 231.902657 233.527897 
L 234.835467 235.029175 
L 235.828348 235.327343 
z
" clip-path="url(#p11c72ab158)" style="fill: none; stroke: #60ca60; stroke-width: 1.5"/>
   </g>
   <g id="PathCollection_6">
    <path d="M 239.75404 232.951502 
L 243.679731 233.668844 
L 247.605422 233.835859 
L 251.531113 233.477946 
L 255.456805 232.609813 
L 257.910208 231.834801 
L 259.382496 230.370269 
L 261.00597 228.640426 
L 259.571615 225.446052 
L 259.382496 225.304881 
L 256.074766 222.251678 
L 255.456805 221.781253 
L 251.98915 219.057304 
L 251.531113 218.690604 
L 247.605422 216.507521 
L 243.679731 215.91488 
L 239.75404 217.040903 
L 237.17426 219.057304 
L 235.828348 220.265672 
L 234.467601 222.251678 
L 233.238966 225.446052 
L 233.557965 228.640426 
L 235.828348 231.302188 
L 236.557168 231.834801 
L 239.75404 232.951502 
z
M 98.429155 223.01125 
L 102.354846 223.64191 
L 106.280537 223.750106 
L 110.206228 223.446672 
L 114.13192 222.654087 
L 115.317627 222.251678 
L 118.057611 220.962326 
L 120.895656 219.057304 
L 121.983302 217.941775 
L 123.793989 215.862929 
L 125.5316 212.668555 
L 125.908993 211.557643 
L 126.783967 209.474181 
L 128.001278 206.279807 
L 129.834685 203.266595 
L 130.136825 203.085432 
L 133.760376 201.646107 
L 137.686067 202.549864 
L 138.361481 203.085432 
L 141.611758 205.14934 
L 142.825399 206.279807 
L 145.53745 208.26079 
L 147.091263 209.474181 
L 149.463141 211.076194 
L 152.213299 212.668555 
L 153.388832 213.343942 
L 157.314523 214.971442 
L 161.240215 215.747534 
L 165.165906 215.687248 
L 169.091597 214.750743 
L 173.017288 212.814926 
L 173.222063 212.668555 
L 176.94298 210.045719 
L 177.635719 209.474181 
L 180.868671 206.684928 
L 181.415628 206.279807 
L 184.794362 203.815825 
L 186.886099 203.085432 
L 188.720053 202.505075 
L 192.645745 202.609244 
L 194.49816 203.085432 
L 196.571436 203.518488 
L 200.497127 204.650627 
L 204.422818 205.645312 
L 208.32549 206.279807 
L 208.34851 206.283358 
L 212.274201 206.476868 
L 215.272148 206.279807 
L 216.199892 206.217294 
L 220.125583 205.579762 
L 224.051275 204.661617 
L 227.976966 203.565883 
L 229.810031 203.085432 
L 231.902657 202.490275 
L 235.828348 201.563839 
L 239.75404 200.585827 
L 242.00451 199.891058 
L 243.679731 199.402624 
L 247.605422 197.965172 
L 250.426889 196.696684 
L 251.531113 196.230445 
L 255.456805 194.792813 
L 259.382496 193.988774 
L 263.308187 194.370259 
L 267.233878 195.969554 
L 268.461936 196.696684 
L 271.15957 197.780009 
L 275.085261 199.064164 
L 279.010952 199.772518 
L 282.936643 199.891058 
L 286.862334 199.482104 
L 290.788026 198.634511 
L 294.713717 197.44394 
L 296.790423 196.696684 
L 298.639408 195.822605 
L 302.565099 193.900696 
L 303.383693 193.50231 
L 306.490791 190.901515 
L 307.197962 190.307935 
L 308.087427 187.113561 
L 306.577124 183.919187 
L 306.490791 183.814892 
L 303.459759 180.724813 
L 302.565099 179.771048 
L 299.347612 177.530438 
L 298.639408 176.821126 
L 294.713717 174.840085 
L 293.478014 174.336064 
L 290.822756 171.14169 
L 291.974941 167.947315 
L 293.498345 164.752941 
L 293.774814 161.558567 
L 293.370869 158.364193 
L 292.988495 155.169818 
L 292.910123 151.975444 
L 293.152 148.78107 
L 293.567594 145.586696 
L 293.776348 142.392321 
L 292.932284 139.197947 
L 290.788026 136.662091 
L 290.176376 136.003573 
L 286.862334 132.921604 
L 286.695115 132.809199 
L 284.293761 129.614824 
L 284.236466 126.42045 
L 284.765039 123.226076 
L 285.241643 120.031702 
L 285.68141 116.837327 
L 286.282721 113.642953 
L 286.862334 111.917083 
L 287.620698 110.448579 
L 290.39035 107.254205 
L 290.788026 106.916281 
L 294.713717 104.569222 
L 295.822522 104.05983 
L 298.639408 101.122255 
L 298.764304 100.865456 
L 299.651564 97.671082 
L 300.401695 94.476708 
L 301.44271 91.282333 
L 302.565099 88.951072 
L 302.958503 88.087959 
L 305.166847 84.893585 
L 306.490791 83.414013 
L 308.231406 81.69921 
L 310.416482 79.82204 
L 312.134217 78.504836 
L 314.342173 76.647149 
L 315.837508 75.310462 
L 318.138182 72.116088 
L 318.267864 71.633001 
L 318.844182 68.921713 
L 318.267864 65.780346 
L 318.254121 65.727339 
L 315.053197 62.532965 
L 314.342173 62.164218 
L 310.416482 61.11397 
L 306.490791 60.74348 
L 302.565099 60.739831 
L 298.639408 60.943203 
L 294.713717 61.31422 
L 290.788026 61.955709 
L 288.656955 62.532965 
L 286.862334 63.068244 
L 282.936643 64.788365 
L 281.371558 65.727339 
L 279.010952 66.759355 
L 275.085261 68.583421 
L 274.26816 68.921713 
L 271.15957 69.835563 
L 267.233878 70.682804 
L 263.308187 71.067853 
L 259.382496 70.693519 
L 255.456805 68.99049 
L 255.363736 68.921713 
L 255.235898 65.727339 
L 255.456805 65.49675 
L 257.915456 62.532965 
L 259.382496 61.067314 
L 261.044411 59.338591 
L 262.38733 56.144216 
L 260.606464 52.949842 
L 259.382496 52.281602 
L 255.456805 49.7911 
L 255.392945 49.755468 
L 251.531113 48.6611 
L 247.605422 48.059051 
L 243.679731 48.131263 
L 239.75404 48.823198 
L 236.396382 49.755468 
L 235.828348 50.019922 
L 231.902657 51.951485 
L 229.544198 52.949842 
L 227.976966 54.092579 
L 224.279301 56.144216 
L 224.051275 56.376995 
L 220.328335 59.338591 
L 220.125583 59.609713 
L 217.322087 62.532965 
L 216.199892 63.765947 
L 213.084703 65.727339 
L 212.274201 66.093065 
L 208.34851 66.847852 
L 204.422818 66.983104 
L 200.497127 66.917299 
L 196.571436 66.762539 
L 192.645745 66.497396 
L 188.720053 66.009972 
L 187.410334 65.727339 
L 184.794362 64.994275 
L 180.868671 63.193015 
L 179.762302 62.532965 
L 176.94298 60.672699 
L 174.774994 59.338591 
L 173.017288 58.564176 
L 169.091597 57.539755 
L 165.165906 57.379719 
L 161.240215 58.030391 
L 157.430411 59.338591 
L 157.314523 59.421149 
L 154.478181 62.532965 
L 154.093036 65.727339 
L 154.503114 68.921713 
L 154.899177 72.116088 
L 155.009683 75.310462 
L 154.692107 78.504836 
L 153.670286 81.69921 
L 153.388832 82.141583 
L 151.168399 84.893585 
L 149.463141 86.029041 
L 145.53745 87.541908 
L 141.611758 88.039012 
L 137.686067 87.808462 
L 133.760376 87.090991 
L 129.834685 86.105439 
L 125.908993 85.015169 
L 125.435841 84.893585 
L 121.983302 83.764839 
L 118.057611 82.588605 
L 114.13192 81.750344 
L 110.206228 81.866097 
L 106.280537 83.954799 
L 105.433064 84.893585 
L 102.983502 88.087959 
L 102.354846 89.215241 
L 101.493339 91.282333 
L 100.504266 94.476708 
L 99.761631 97.671082 
L 99.143453 100.865456 
L 98.583894 104.05983 
L 98.429155 105.066846 
L 98.096076 107.254205 
L 97.78052 110.448579 
L 97.842279 113.642953 
L 98.429155 116.271301 
L 98.580348 116.837327 
L 100.415603 120.031702 
L 102.354846 122.269726 
L 103.292973 123.226076 
L 106.280537 126.193067 
L 106.49325 126.42045 
L 108.862286 129.614824 
L 110.206228 132.213807 
L 110.484915 132.809199 
L 111.741457 136.003573 
L 112.944902 139.197947 
L 114.067687 142.392321 
L 114.13192 142.684564 
L 114.943274 145.586696 
L 114.872076 148.78107 
L 114.13192 151.051935 
L 113.888779 151.975444 
L 112.432649 155.169818 
L 110.476791 158.364193 
L 110.206228 158.717864 
L 107.718051 161.558567 
L 106.280537 162.759456 
L 103.31911 164.752941 
L 102.354846 165.296971 
L 98.429155 167.428322 
L 97.584952 167.947315 
L 94.503463 170.171211 
L 93.479188 171.14169 
L 91.510495 174.336064 
L 91.2981 177.530438 
L 92.657661 180.724813 
L 94.503463 183.216575 
L 95.130017 183.919187 
L 98.098752 187.113561 
L 98.429155 187.63148 
L 100.660909 190.307935 
L 101.463181 193.50231 
L 100.33155 196.696684 
L 98.429155 199.066585 
L 97.939699 199.891058 
L 95.889835 203.085432 
L 94.503463 205.821954 
L 94.33894 206.279807 
L 93.597107 209.474181 
L 93.205309 212.668555 
L 93.15165 215.862929 
L 93.694904 219.057304 
L 94.503463 220.520834 
L 96.494388 222.251678 
L 98.429155 223.01125 
z
M 231.902657 101.75565 
L 230.201163 100.865456 
L 231.102953 97.671082 
L 231.902657 97.315265 
L 235.828348 96.968793 
L 237.362177 97.671082 
L 237.187989 100.865456 
L 235.828348 101.700496 
L 231.902657 101.75565 
z
" clip-path="url(#p11c72ab158)" style="fill: none; stroke: #75d054; stroke-width: 1.5"/>
   </g>
   <g id="PathCollection_7">
    <path d="M 106.280537 219.195177 
L 107.836303 219.057304 
L 110.206228 218.738417 
L 114.13192 216.908714 
L 115.486305 215.862929 
L 117.684531 212.668555 
L 118.057611 210.910136 
L 118.314452 209.474181 
L 118.057611 207.291148 
L 117.866946 206.279807 
L 116.02273 203.085432 
L 114.13192 201.268659 
L 110.206228 200.844065 
L 106.280537 202.09903 
L 104.843415 203.085432 
L 102.354846 204.87573 
L 101.239208 206.279807 
L 99.588662 209.474181 
L 99.005892 212.668555 
L 99.81183 215.862929 
L 102.354846 218.230309 
L 105.331194 219.057304 
L 106.280537 219.195177 
z
M 157.314523 209.948644 
L 161.240215 210.885195 
L 165.165906 210.869323 
L 169.091597 209.84427 
L 169.817268 209.474181 
L 173.017288 207.591423 
L 174.65376 206.279807 
L 176.94298 204.016248 
L 177.905734 203.085432 
L 180.868671 199.96953 
L 180.985597 199.891058 
L 184.794362 197.640583 
L 188.720053 197.327156 
L 192.645745 198.27444 
L 196.554317 199.891058 
L 196.571436 199.896803 
L 200.497127 201.534555 
L 204.422818 202.90736 
L 205.198139 203.085432 
L 208.34851 203.714273 
L 212.274201 203.931336 
L 216.199892 203.56598 
L 218.363174 203.085432 
L 220.125583 202.64044 
L 224.051275 201.279329 
L 227.474397 199.891058 
L 227.976966 199.653941 
L 231.902657 197.971393 
L 235.016679 196.696684 
L 235.828348 196.331357 
L 239.75404 194.718507 
L 242.469118 193.50231 
L 243.679731 192.917081 
L 247.605422 190.905788 
L 248.757449 190.307935 
L 251.531113 188.79266 
L 255.045876 187.113561 
L 255.456805 186.90965 
L 259.382496 185.512335 
L 263.308187 184.494682 
L 266.15433 183.919187 
L 267.233878 183.663979 
L 271.15957 182.743059 
L 273.864753 180.724813 
L 275.085261 179.090591 
L 275.74005 177.530438 
L 277.35583 174.336064 
L 278.961751 171.14169 
L 279.010952 171.053744 
L 280.689201 167.947315 
L 282.16417 164.752941 
L 282.936643 162.578795 
L 283.33382 161.558567 
L 284.09737 158.364193 
L 284.391964 155.169818 
L 284.267981 151.975444 
L 283.591202 148.78107 
L 282.936643 147.368891 
L 281.783538 145.586696 
L 279.010952 143.377652 
L 276.053276 142.392321 
L 275.085261 142.13082 
L 271.15957 141.875914 
L 267.233878 142.135063 
L 264.96895 142.392321 
L 263.308187 142.570225 
L 259.382496 142.83257 
L 256.370326 142.392321 
L 255.456805 142.1194 
L 253.536745 139.197947 
L 253.42225 136.003573 
L 254.115681 132.809199 
L 255.428156 129.614824 
L 255.456805 129.568819 
L 258.512822 126.42045 
L 259.382496 125.82823 
L 263.308187 124.205579 
L 266.321618 123.226076 
L 267.233878 122.943559 
L 271.15957 121.387805 
L 273.219172 120.031702 
L 275.085261 118.18459 
L 276.071164 116.837327 
L 277.644254 113.642953 
L 278.882863 110.448579 
L 279.010952 110.188543 
L 280.630823 107.254205 
L 282.936643 104.364338 
L 283.229454 104.05983 
L 286.862334 101.110042 
L 287.18286 100.865456 
L 290.788026 98.139507 
L 291.318446 97.671082 
L 294.381183 94.476708 
L 294.713717 94.081588 
L 296.674553 91.282333 
L 298.639408 88.221043 
L 298.717338 88.087959 
L 300.932175 84.893585 
L 302.565099 82.862153 
L 303.591079 81.69921 
L 306.490791 78.805657 
L 306.839801 78.504836 
L 310.396683 75.310462 
L 310.416482 75.286385 
L 313.004802 72.116088 
L 313.907783 68.921713 
L 311.903276 65.727339 
L 310.416482 64.947614 
L 306.490791 64.130462 
L 302.565099 64.107326 
L 298.639408 64.559652 
L 294.713717 65.409976 
L 293.691508 65.727339 
L 290.788026 66.654256 
L 286.862334 68.174812 
L 285.219953 68.921713 
L 282.936643 69.811989 
L 279.010952 71.375874 
L 277.123974 72.116088 
L 275.085261 72.827715 
L 271.15957 74.064551 
L 267.233878 75.157507 
L 266.490924 75.310462 
L 263.308187 76.014086 
L 259.382496 76.613331 
L 255.456805 76.878652 
L 251.531113 76.66287 
L 247.605422 75.787549 
L 246.109075 75.310462 
L 243.679731 74.30906 
L 239.75404 72.966848 
L 235.828348 72.926003 
L 231.98491 75.310462 
L 231.902657 75.371807 
L 229.423227 78.504836 
L 227.976966 81.683197 
L 227.969318 81.69921 
L 227.976966 81.763983 
L 228.511876 84.893585 
L 231.902657 86.497708 
L 235.828348 87.185564 
L 239.75404 87.704661 
L 241.058105 88.087959 
L 243.679731 88.785812 
L 246.770423 91.282333 
L 247.605422 92.711632 
L 248.163227 94.476708 
L 248.064315 97.671082 
L 247.605422 99.013564 
L 246.900396 100.865456 
L 244.819099 104.05983 
L 243.679731 105.340043 
L 241.050448 107.254205 
L 239.75404 107.94786 
L 235.828348 108.836917 
L 231.902657 108.829772 
L 227.976966 108.157304 
L 225.165001 107.254205 
L 224.051275 106.749976 
L 220.125583 104.456601 
L 219.503171 104.05983 
L 216.199892 101.028024 
L 216.012088 100.865456 
L 214.03815 97.671082 
L 213.450852 94.476708 
L 213.710671 91.282333 
L 213.862562 88.087959 
L 213.22948 84.893585 
L 212.274201 82.902223 
L 211.94389 81.69921 
L 210.445715 78.504836 
L 208.34851 76.11289 
L 207.619048 75.310462 
L 204.422818 73.355786 
L 201.110478 72.116088 
L 200.497127 71.952251 
L 196.571436 71.21643 
L 192.645745 70.784155 
L 188.720053 70.472275 
L 184.794362 70.094311 
L 180.868671 69.432563 
L 178.916624 68.921713 
L 176.94298 68.241654 
L 173.017288 66.607865 
L 170.328357 65.727339 
L 169.091597 65.255643 
L 165.165906 65.479907 
L 164.809698 65.727339 
L 162.265861 68.921713 
L 161.240215 71.917237 
L 161.204426 72.116088 
L 160.810174 75.310462 
L 160.477312 78.504836 
L 159.970376 81.69921 
L 158.809027 84.893585 
L 157.314523 86.682811 
L 155.826509 88.087959 
L 153.388832 89.336188 
L 149.463141 90.634522 
L 145.53745 91.282333 
L 145.53745 91.282333 
L 141.611758 91.375694 
L 140.776493 91.282333 
L 137.686067 90.965509 
L 133.760376 90.182467 
L 129.834685 89.213005 
L 125.908993 88.256831 
L 124.98912 88.087959 
L 121.983302 87.478279 
L 118.057611 87.045052 
L 114.13192 87.248948 
L 111.636558 88.087959 
L 110.206228 88.704737 
L 107.410671 91.282333 
L 106.280537 92.84765 
L 105.43696 94.476708 
L 104.235418 97.671082 
L 103.393408 100.865456 
L 102.792176 104.05983 
L 102.403144 107.254205 
L 102.354846 109.081688 
L 102.319028 110.448579 
L 102.354846 110.742 
L 102.789082 113.642953 
L 104.203646 116.837327 
L 106.280537 119.504945 
L 106.76987 120.031702 
L 110.01644 123.226076 
L 110.206228 123.437062 
L 112.57336 126.42045 
L 114.13192 129.409238 
L 114.233405 129.614824 
L 115.607907 132.809199 
L 117.071032 136.003573 
L 118.057611 137.85793 
L 119.255726 139.197947 
L 121.983302 142.124954 
L 122.79663 142.392321 
L 125.908993 144.614114 
L 129.834685 144.557154 
L 133.760376 144.318339 
L 134.550064 145.586696 
L 133.760376 145.94442 
L 129.834685 146.258308 
L 125.908993 146.847795 
L 124.514339 148.78107 
L 121.983302 150.369485 
L 120.901242 151.975444 
L 118.285451 155.169818 
L 118.057611 155.45763 
L 116.281179 158.364193 
L 114.13192 161.500408 
L 114.091341 161.558567 
L 111.228715 164.752941 
L 110.206228 165.551161 
L 106.280537 167.90032 
L 106.192262 167.947315 
L 102.354846 169.944795 
L 100.291627 171.14169 
L 98.429155 172.740987 
L 97.058045 174.336064 
L 96.536631 177.530438 
L 98.074944 180.724813 
L 98.429155 181.123933 
L 101.675099 183.919187 
L 102.354846 184.483498 
L 106.280537 186.794366 
L 107.094916 187.113561 
L 110.206228 188.848417 
L 114.13192 190.237328 
L 114.52177 190.307935 
L 118.057611 191.33019 
L 121.983302 191.321544 
L 125.908993 190.687094 
L 127.320871 190.307935 
L 129.834685 189.578187 
L 133.760376 187.598666 
L 134.474277 187.113561 
L 137.178629 183.919187 
L 137.686067 183.21786 
L 139.725451 180.724813 
L 141.611758 179.13296 
L 145.53745 177.693627 
L 149.463141 178.904363 
L 150.793383 180.724813 
L 150.628632 183.919187 
L 149.463141 185.890559 
L 148.438017 187.113561 
L 145.769548 190.307935 
L 145.53745 190.779601 
L 144.148528 193.50231 
L 144.309706 196.696684 
L 145.53745 199.694682 
L 145.594722 199.891058 
L 147.631317 203.085432 
L 149.463141 204.936676 
L 150.904521 206.279807 
L 153.388832 208.02371 
L 156.267743 209.474181 
L 157.314523 209.948644 
z
M 282.936643 194.466359 
L 286.862334 194.366936 
L 290.484514 193.50231 
L 290.788026 193.350071 
L 294.713717 190.346707 
L 294.758171 190.307935 
L 294.713717 189.543694 
L 294.48672 187.113561 
L 290.788026 185.026603 
L 286.862334 184.119234 
L 282.936643 183.990513 
L 279.010952 184.572914 
L 276.033146 187.113561 
L 276.280381 190.307935 
L 279.010952 193.45466 
L 279.079071 193.50231 
L 282.936643 194.466359 
z
M 235.828348 64.868358 
L 239.75404 65.213494 
L 243.679731 64.156907 
L 246.799284 62.532965 
L 247.605422 62.240715 
L 251.531113 59.916265 
L 252.245741 59.338591 
L 254.785183 56.144216 
L 253.794267 52.949842 
L 251.531113 51.711129 
L 247.605422 50.4723 
L 243.679731 50.535624 
L 239.75404 51.684113 
L 236.802426 52.949842 
L 235.828348 53.889243 
L 233.32942 56.144216 
L 232.091191 59.338591 
L 233.220319 62.532965 
L 235.828348 64.868358 
z
" clip-path="url(#p11c72ab158)" style="fill: none; stroke: #89d548; stroke-width: 1.5"/>
   </g>
   <g id="PathCollection_8">
    <path d="M 157.314523 204.463312 
L 161.240215 205.868907 
L 165.165906 205.760132 
L 169.091597 204.031419 
L 170.284012 203.085432 
L 173.017288 199.894451 
L 173.019866 199.891058 
L 174.861879 196.696684 
L 176.94298 193.956787 
L 177.491605 193.50231 
L 180.868671 191.820084 
L 184.794362 191.411465 
L 188.720053 192.089161 
L 192.288234 193.50231 
L 192.645745 193.635793 
L 196.571436 195.822164 
L 197.970242 196.696684 
L 200.497127 198.05543 
L 204.422818 199.889054 
L 204.429257 199.891058 
L 208.34851 200.90628 
L 212.274201 201.180927 
L 216.199892 200.706957 
L 219.05041 199.891058 
L 220.125583 199.521078 
L 224.051275 197.717498 
L 226.102739 196.696684 
L 227.976966 195.592159 
L 231.85798 193.50231 
L 231.902657 193.474452 
L 235.828348 191.368716 
L 237.928898 190.307935 
L 239.75404 189.234578 
L 243.346516 187.113561 
L 243.679731 186.870238 
L 247.605422 184.137696 
L 247.961518 183.919187 
L 251.531113 181.370261 
L 252.810069 180.724813 
L 255.456805 179.217737 
L 259.382496 177.829858 
L 260.227233 177.530438 
L 263.308187 176.338876 
L 267.140151 174.336064 
L 267.233878 174.282053 
L 270.790474 171.14169 
L 271.15957 170.782621 
L 273.283527 167.947315 
L 275.085261 165.182377 
L 275.321055 164.752941 
L 276.645195 161.558567 
L 277.402572 158.364193 
L 277.443003 155.169818 
L 276.45105 151.975444 
L 275.085261 150.249449 
L 272.568638 148.78107 
L 271.15957 148.287368 
L 267.233878 148.119785 
L 263.785452 148.78107 
L 263.308187 148.899669 
L 259.382496 150.97494 
L 258.134173 151.975444 
L 255.976125 155.169818 
L 255.456805 156.361404 
L 254.535038 158.364193 
L 252.936657 161.558567 
L 251.531113 163.494176 
L 249.229398 164.752941 
L 247.605422 165.381188 
L 243.679731 164.98702 
L 243.000372 164.752941 
L 239.75404 163.733274 
L 235.828348 162.618661 
L 231.902657 162.175062 
L 227.976966 162.357235 
L 224.051275 162.690365 
L 220.125583 162.531516 
L 217.177818 161.558567 
L 216.199892 161.061222 
L 214.062515 158.364193 
L 213.328061 155.169818 
L 213.78051 151.975444 
L 215.037438 148.78107 
L 216.199892 146.957863 
L 217.888267 145.586696 
L 220.125583 144.363498 
L 224.051275 143.849522 
L 227.976966 144.176113 
L 231.902657 144.685327 
L 235.828348 144.81425 
L 239.75404 144.016243 
L 242.389701 142.392321 
L 243.679731 141.425944 
L 245.356762 139.197947 
L 247.073738 136.003573 
L 247.605422 134.801422 
L 248.401693 132.809199 
L 249.563136 129.614824 
L 250.748305 126.42045 
L 251.531113 124.67603 
L 252.599048 123.226076 
L 255.456805 120.949143 
L 257.946055 120.031702 
L 259.382496 119.609286 
L 263.308187 118.486878 
L 267.172275 116.837327 
L 267.233878 116.80407 
L 270.738851 113.642953 
L 271.15957 113.083966 
L 272.694697 110.448579 
L 274.360493 107.254205 
L 275.085261 106.182109 
L 276.557664 104.05983 
L 279.010952 101.703648 
L 279.956653 100.865456 
L 282.936643 98.769375 
L 284.460417 97.671082 
L 286.862334 95.982674 
L 288.697545 94.476708 
L 290.788026 92.544646 
L 291.926121 91.282333 
L 294.454687 88.087959 
L 294.713717 87.732028 
L 296.667829 84.893585 
L 298.639408 82.151708 
L 298.983085 81.69921 
L 301.398229 78.504836 
L 302.565099 76.877482 
L 303.913289 75.310462 
L 305.65061 72.116088 
L 302.68888 68.921713 
L 302.565099 68.894538 
L 301.554237 68.921713 
L 298.639408 69.021136 
L 294.713717 69.863916 
L 290.788026 70.944918 
L 287.213292 72.116088 
L 286.862334 72.225586 
L 282.936643 73.60983 
L 279.010952 74.999741 
L 278.145408 75.310462 
L 275.085261 76.427313 
L 271.15957 77.813968 
L 269.096206 78.504836 
L 267.233878 79.260481 
L 263.308187 80.811063 
L 261.089869 81.69921 
L 259.382496 82.856534 
L 256.8134 84.893585 
L 255.577322 88.087959 
L 255.456805 89.1012 
L 255.223908 91.282333 
L 254.854804 94.476708 
L 254.089997 97.671082 
L 252.815111 100.865456 
L 251.531113 103.240292 
L 251.08218 104.05983 
L 249.122923 107.254205 
L 247.605422 109.435167 
L 246.544091 110.448579 
L 243.679731 112.452139 
L 239.75404 113.287934 
L 235.828348 113.372773 
L 231.902657 113.10248 
L 227.976966 112.551507 
L 224.051275 111.651392 
L 220.599878 110.448579 
L 220.125583 110.25068 
L 216.199892 108.269626 
L 214.375413 107.254205 
L 212.274201 105.90183 
L 209.329906 104.05983 
L 208.34851 103.229274 
L 205.690353 100.865456 
L 204.422818 98.283008 
L 204.165732 97.671082 
L 204.153312 94.476708 
L 204.422818 92.800379 
L 204.669622 91.282333 
L 205.02496 88.087959 
L 204.793424 84.893585 
L 204.422818 83.736405 
L 203.761389 81.69921 
L 201.413443 78.504836 
L 200.497127 77.793924 
L 196.571436 75.856266 
L 194.224297 75.310462 
L 192.645745 75.01741 
L 188.720053 74.771318 
L 184.794362 74.843691 
L 180.868671 75.103172 
L 178.608368 75.310462 
L 176.94298 75.555186 
L 173.017288 76.701696 
L 170.798193 78.504836 
L 169.590059 81.69921 
L 169.371743 84.893585 
L 169.33429 88.087959 
L 169.10525 91.282333 
L 169.091597 91.367664 
L 167.188908 94.476708 
L 165.165906 95.37213 
L 161.240215 94.850885 
L 157.314523 94.606231 
L 153.388832 94.711407 
L 149.463141 94.947972 
L 145.53745 95.090233 
L 141.611758 94.935992 
L 138.604547 94.476708 
L 137.686067 94.358521 
L 133.760376 93.505487 
L 129.834685 92.489416 
L 125.908993 91.579461 
L 123.582543 91.282333 
L 121.983302 91.084709 
L 118.057611 91.227353 
L 117.830789 91.282333 
L 114.13192 92.494743 
L 111.511538 94.476708 
L 110.206228 96.023726 
L 109.232094 97.671082 
L 108.035879 100.865456 
L 107.394421 104.05983 
L 107.239541 107.254205 
L 107.671899 110.448579 
L 108.955711 113.642953 
L 110.206228 115.419188 
L 111.526167 116.837327 
L 114.13192 119.339253 
L 114.884851 120.031702 
L 117.482078 123.226076 
L 118.057611 124.314368 
L 119.144564 126.42045 
L 120.530381 129.614824 
L 121.983302 132.285752 
L 122.47874 132.809199 
L 125.908993 134.986947 
L 129.834685 135.449464 
L 133.760376 135.216518 
L 137.686067 135.062879 
L 141.611758 135.644497 
L 142.318188 136.003573 
L 145.53745 138.625234 
L 145.88158 139.197947 
L 146.717585 142.392321 
L 146.268155 145.586696 
L 145.53745 146.955475 
L 144.259967 148.78107 
L 141.611758 151.100138 
L 140.066777 151.975444 
L 137.686067 153.255919 
L 133.760376 154.558112 
L 131.455163 155.169818 
L 129.834685 155.766307 
L 125.908993 157.660508 
L 125.043413 158.364193 
L 122.50347 161.558567 
L 121.983302 162.656307 
L 121.092776 164.752941 
L 119.508357 167.947315 
L 118.057611 169.422728 
L 115.196684 171.14169 
L 114.13192 171.622993 
L 110.206228 173.214105 
L 107.509841 174.336064 
L 106.280537 175.923692 
L 105.600213 177.530438 
L 106.280537 178.265021 
L 110.206228 180.322486 
L 114.13192 180.724813 
L 118.057611 179.892423 
L 121.983302 178.051363 
L 122.704368 177.530438 
L 125.848297 174.336064 
L 125.908993 174.285631 
L 129.834685 171.454593 
L 130.375924 171.14169 
L 133.760376 169.883598 
L 137.686067 168.959156 
L 141.611758 168.522408 
L 145.53745 168.448309 
L 149.463141 168.667194 
L 153.388832 169.29117 
L 157.314523 170.864756 
L 157.669613 171.14169 
L 159.984869 174.336064 
L 161.040845 177.530438 
L 161.240215 179.061458 
L 161.441362 180.724813 
L 161.240215 182.886622 
L 161.135918 183.919187 
L 159.714619 187.113561 
L 157.314523 189.788033 
L 156.862805 190.307935 
L 154.0561 193.50231 
L 153.388832 194.784204 
L 152.592271 196.696684 
L 152.907147 199.891058 
L 153.388832 200.658454 
L 155.329969 203.085432 
L 157.314523 204.463312 
z
M 161.240215 123.957011 
L 159.578906 123.226076 
L 157.314523 120.175989 
L 157.252975 120.031702 
L 157.314523 119.774591 
L 158.00829 116.837327 
L 160.005785 113.642953 
L 161.240215 111.976889 
L 162.673561 110.448579 
L 165.165906 107.294046 
L 165.229883 107.254205 
L 168.690993 104.05983 
L 169.091597 103.370483 
L 170.328537 104.05983 
L 173.017288 105.012994 
L 174.187877 107.254205 
L 175.378445 110.448579 
L 175.947189 113.642953 
L 176.002664 116.837327 
L 175.433068 120.031702 
L 173.54323 123.226076 
L 173.017288 123.640152 
L 169.091597 124.862331 
L 165.165906 124.813693 
L 161.240215 123.957011 
z
" clip-path="url(#p11c72ab158)" style="fill: none; stroke: #9dd93b; stroke-width: 1.5"/>
   </g>
   <g id="PathCollection_9">
    <path d="M 208.34851 197.284385 
L 212.274201 197.63998 
L 216.199892 197.020806 
L 217.102023 196.696684 
L 220.125583 195.333156 
L 223.270479 193.50231 
L 224.051275 192.92996 
L 227.746463 190.307935 
L 227.976966 190.104552 
L 231.902657 187.206887 
L 232.050973 187.113561 
L 235.828348 184.080118 
L 236.044763 183.919187 
L 238.861876 180.724813 
L 239.75404 178.259606 
L 240.039272 177.530438 
L 239.75404 176.489354 
L 239.088949 174.336064 
L 235.828348 171.420313 
L 235.380434 171.14169 
L 231.902657 169.834461 
L 227.976966 169.153888 
L 224.051275 168.799438 
L 220.125583 168.231249 
L 219.201148 167.947315 
L 216.199892 167.073801 
L 212.274201 164.927099 
L 212.065901 164.752941 
L 209.463626 161.558567 
L 208.349549 158.364193 
L 208.34851 158.332732 
L 208.264002 155.169818 
L 208.34851 154.559699 
L 208.746184 151.975444 
L 209.574752 148.78107 
L 210.684479 145.586696 
L 212.274201 142.411137 
L 212.28953 142.392321 
L 216.192744 139.197947 
L 216.199892 139.193844 
L 220.125583 138.334529 
L 224.051275 138.378384 
L 227.976966 138.686424 
L 231.902657 138.802771 
L 235.828348 138.221636 
L 239.75404 136.185709 
L 239.945821 136.003573 
L 242.455486 132.809199 
L 243.679731 130.030756 
L 243.83696 129.614824 
L 244.310147 126.42045 
L 243.831236 123.226076 
L 243.679731 122.945844 
L 241.052676 120.031702 
L 239.75404 119.412828 
L 235.828348 118.249173 
L 231.902657 117.561867 
L 227.976966 117.055413 
L 226.267636 116.837327 
L 224.051275 116.549699 
L 220.125583 115.824702 
L 216.199892 114.5738 
L 214.228994 113.642953 
L 212.274201 112.710044 
L 208.34851 110.553668 
L 208.150518 110.448579 
L 204.422818 108.578093 
L 201.568784 107.254205 
L 200.497127 106.653243 
L 196.571436 104.69874 
L 194.701389 104.05983 
L 192.645745 101.67056 
L 190.240484 100.865456 
L 192.645745 99.678379 
L 193.160421 97.671082 
L 195.092272 94.476708 
L 196.571436 92.047643 
L 196.866258 91.282333 
L 197.540281 88.087959 
L 197.107379 84.893585 
L 196.571436 84.002153 
L 194.022129 81.69921 
L 192.645745 81.056734 
L 188.720053 80.685795 
L 184.794362 81.585395 
L 184.561707 81.69921 
L 181.398296 84.893585 
L 180.868671 87.063317 
L 180.673762 88.087959 
L 180.868671 89.480754 
L 181.175226 91.282333 
L 182.716245 94.476708 
L 184.794362 97.525019 
L 185.038039 97.671082 
L 188.357579 100.865456 
L 188.262436 104.05983 
L 186.897111 107.254205 
L 185.729985 110.448579 
L 185.080616 113.642953 
L 184.91085 116.837327 
L 185.066743 120.031702 
L 185.213895 123.226076 
L 184.794362 125.795146 
L 184.678718 126.42045 
L 182.19377 129.614824 
L 180.868671 130.408241 
L 176.94298 131.869955 
L 173.017288 132.421822 
L 169.091597 132.447805 
L 165.165906 132.343816 
L 161.240215 132.488962 
L 159.672597 132.809199 
L 157.314523 133.644304 
L 155.181133 136.003573 
L 154.376611 139.197947 
L 154.003828 142.392321 
L 153.453404 145.586696 
L 153.388832 145.825037 
L 152.540799 148.78107 
L 151.199719 151.975444 
L 149.756578 155.169818 
L 150.215902 158.364193 
L 153.388832 159.716482 
L 157.314523 160.54899 
L 161.240215 161.244267 
L 162.331032 161.558567 
L 165.165906 162.612753 
L 167.731523 164.752941 
L 169.091597 167.947315 
L 169.091597 167.947315 
L 169.315937 171.14169 
L 169.533951 174.336064 
L 170.233292 177.530438 
L 171.907015 180.724813 
L 173.017288 181.926973 
L 176.94298 183.881709 
L 177.067352 183.919187 
L 180.868671 184.775664 
L 184.794362 185.623387 
L 188.720053 186.817406 
L 189.370545 187.113561 
L 192.645745 188.596104 
L 195.507501 190.307935 
L 196.571436 190.948363 
L 200.333082 193.50231 
L 200.497127 193.606425 
L 204.422818 195.869177 
L 206.549661 196.696684 
L 208.34851 197.284385 
z
M 133.760376 125.211668 
L 137.686067 124.48379 
L 139.694029 123.226076 
L 141.611758 121.750409 
L 142.950994 120.031702 
L 145.53745 117.392412 
L 145.934 116.837327 
L 148.937232 113.642953 
L 149.463141 113.11868 
L 151.62089 110.448579 
L 153.388832 107.577467 
L 153.568158 107.254205 
L 153.653401 104.05983 
L 153.388832 103.723948 
L 149.463141 101.223342 
L 148.009436 100.865456 
L 145.53745 100.551974 
L 141.611758 100.166736 
L 137.686067 99.515624 
L 133.760376 98.355319 
L 131.9682 97.671082 
L 129.834685 97.086968 
L 125.908993 96.228673 
L 121.983302 96.057511 
L 118.057611 97.102259 
L 117.190941 97.671082 
L 114.504218 100.865456 
L 114.13192 102.153688 
L 113.735919 104.05983 
L 114.128508 107.254205 
L 114.13192 107.262253 
L 116.292887 110.448579 
L 118.057611 112.088872 
L 120.546471 113.642953 
L 121.983302 114.640111 
L 125.262022 116.837327 
L 125.908993 117.592003 
L 128.139243 120.031702 
L 129.834685 123.125495 
L 129.952026 123.226076 
L 133.760376 125.211668 
z
M 259.382496 110.491979 
L 259.709089 110.448579 
L 263.308187 109.724381 
L 265.389374 107.254205 
L 267.233878 105.051135 
L 267.763547 104.05983 
L 270.697123 100.865456 
L 271.15957 100.60897 
L 275.085261 98.020323 
L 275.600819 97.671082 
L 279.010952 95.793938 
L 281.191949 94.476708 
L 282.936643 93.393431 
L 285.726274 91.282333 
L 286.862334 90.25206 
L 288.836894 88.087959 
L 290.788026 85.45776 
L 291.165573 84.893585 
L 292.57945 81.69921 
L 292.789641 78.504836 
L 290.788026 77.219446 
L 286.862334 77.266225 
L 282.936643 78.057112 
L 281.455073 78.504836 
L 279.010952 79.340176 
L 275.085261 80.853727 
L 273.067241 81.69921 
L 271.15957 82.771145 
L 267.665952 84.893585 
L 267.233878 85.321259 
L 264.737253 88.087959 
L 263.308187 91.205678 
L 263.277412 91.282333 
L 262.629389 94.476708 
L 262.097882 97.671082 
L 261.187478 100.865456 
L 259.382496 103.893643 
L 259.313733 104.05983 
L 258.44012 107.254205 
L 259.317083 110.448579 
L 259.382496 110.491979 
z
" clip-path="url(#p11c72ab158)" style="fill: none; stroke: #b8de29; stroke-width: 1.5"/>
   </g>
   <g id="PathCollection_10"/>
   <g id="patch_3">
    <path d="M 29.241719 277.248797 
L 29.241719 11.136797 
" style="fill: none"/>
   </g>
   <g id="patch_4">
    <path d="M 386.361719 277.248797 
L 386.361719 11.136797 
" style="fill: none"/>
   </g>
   <g id="patch_5">
    <path d="M 29.241719 277.248797 
L 386.361719 277.248797 
" style="fill: none"/>
   </g>
   <g id="patch_6">
    <path d="M 29.241719 11.136797 
L 386.361719 11.136797 
" style="fill: none"/>
   </g>
  </g>
 </g>
 <defs>
  <clipPath id="p11c72ab158">
   <rect x="29.241719" y="11.136797" width="357.12" height="266.112"/>
  </clipPath>
 </defs>
</svg>
