<?xml version="1.0" encoding="utf-8" standalone="no"?>
<!DOCTYPE svg PUBLIC "-//W3C//DTD SVG 1.1//EN"
  "http://www.w3.org/Graphics/SVG/1.1/DTD/svg11.dtd">
<svg xmlns:xlink="http://www.w3.org/1999/xlink" width="656.39952pt" height="224.399713pt" viewBox="0 0 656.39952 224.399713" xmlns="http://www.w3.org/2000/svg" version="1.1">
 <metadata>
  <rdf:RDF xmlns:dc="http://purl.org/dc/elements/1.1/" xmlns:cc="http://creativecommons.org/ns#" xmlns:rdf="http://www.w3.org/1999/02/22-rdf-syntax-ns#">
   <cc:Work>
    <dc:type rdf:resource="http://purl.org/dc/dcmitype/StillImage"/>
    <dc:date>2023-09-21T12:25:01.070613</dc:date>
    <dc:format>image/svg+xml</dc:format>
    <dc:creator>
     <cc:Agent>
      <dc:title>Matplotlib v3.8.0, https://matplotlib.org/</dc:title>
     </cc:Agent>
    </dc:creator>
   </cc:Work>
  </rdf:RDF>
 </metadata>
 <defs>
  <style type="text/css">*{stroke-linejoin: round; stroke-linecap: butt}</style>
 </defs>
 <g id="figure_1">
  <g id="patch_1">
   <path d="M 0 224.399713 
L 656.39952 224.399713 
L 656.39952 0 
L 0 0 
L 0 224.399713 
z
" style="fill: none"/>
  </g>
  <g id="axes_1">
   <g id="patch_2">
    <path d="M 47.061875 177.777838 
L 601.079051 177.777838 
L 601.079051 8.523481 
L 47.061875 8.523481 
L 47.061875 177.777838 
z
" style="fill: none"/>
   </g>
   <g id="matplotlib.axis_1">
    <g id="xtick_1">
     <g id="line2d_1">
      <defs>
       <path id="m9518ef4041" d="M 0 0 
L 0 6 
" style="stroke: #000000; stroke-opacity: 0; stroke-width: 1.25"/>
      </defs>
      <g>
       <use xlink:href="#m9518ef4041" x="72.244474" y="177.777838" style="fill-opacity: 0; stroke: #000000; stroke-opacity: 0; stroke-width: 1.25"/>
      </g>
     </g>
     <g id="text_1">
      <!-- 0 -->
      <g style="fill: #838383" transform="translate(69.529708 195.527838) scale(0.11 -0.11)">
       <defs>
        <path id="RobotoCondensed-Regular-30" d="M 2797 1941 
Q 2797 934 2503 435 
Q 2209 -63 1581 -63 
Q 972 -63 672 415 
Q 372 894 359 1853 
L 359 2634 
Q 359 3631 654 4122 
Q 950 4613 1575 4613 
Q 2191 4613 2486 4147 
Q 2781 3681 2797 2738 
L 2797 1941 
z
M 2244 2731 
Q 2244 3453 2084 3795 
Q 1925 4138 1575 4138 
Q 1234 4138 1075 3802 
Q 916 3466 909 2788 
L 909 1850 
Q 909 1131 1075 770 
Q 1241 409 1581 409 
Q 1919 409 2078 750 
Q 2238 1091 2244 1791 
L 2244 2731 
z
" transform="scale(0.015625)"/>
       </defs>
       <use xlink:href="#RobotoCondensed-Regular-30"/>
      </g>
     </g>
    </g>
    <g id="xtick_2">
     <g id="line2d_2">
      <g>
       <use xlink:href="#m9518ef4041" x="173.992348" y="177.777838" style="fill-opacity: 0; stroke: #000000; stroke-opacity: 0; stroke-width: 1.25"/>
      </g>
     </g>
     <g id="text_2">
      <!-- 200 -->
      <g style="fill: #838383" transform="translate(165.848051 195.527838) scale(0.11 -0.11)">
       <defs>
        <path id="RobotoCondensed-Regular-32" d="M 2909 0 
L 366 0 
L 366 416 
L 1663 2134 
Q 1956 2531 2070 2786 
Q 2184 3041 2184 3325 
Q 2184 3688 2015 3913 
Q 1847 4138 1572 4138 
Q 1225 4138 1036 3898 
Q 847 3659 847 3209 
L 294 3209 
Q 294 3838 637 4225 
Q 981 4613 1572 4613 
Q 2116 4613 2428 4280 
Q 2741 3947 2741 3394 
Q 2741 2719 2038 1797 
L 1025 472 
L 2909 472 
L 2909 0 
z
" transform="scale(0.015625)"/>
       </defs>
       <use xlink:href="#RobotoCondensed-Regular-32"/>
       <use xlink:href="#RobotoCondensed-Regular-30" x="49.365234"/>
       <use xlink:href="#RobotoCondensed-Regular-30" x="98.730469"/>
      </g>
     </g>
    </g>
    <g id="xtick_3">
     <g id="line2d_3">
      <g>
       <use xlink:href="#m9518ef4041" x="275.740223" y="177.777838" style="fill-opacity: 0; stroke: #000000; stroke-opacity: 0; stroke-width: 1.25"/>
      </g>
     </g>
     <g id="text_3">
      <!-- 400 -->
      <g style="fill: #838383" transform="translate(267.595926 195.527838) scale(0.11 -0.11)">
       <defs>
        <path id="RobotoCondensed-Regular-34" d="M 2459 1528 
L 2966 1528 
L 2966 1056 
L 2459 1056 
L 2459 0 
L 1906 0 
L 1906 1056 
L 188 1056 
L 188 1397 
L 1878 4550 
L 2459 4550 
L 2459 1528 
z
M 800 1528 
L 1906 1528 
L 1906 3691 
L 800 1528 
z
" transform="scale(0.015625)"/>
       </defs>
       <use xlink:href="#RobotoCondensed-Regular-34"/>
       <use xlink:href="#RobotoCondensed-Regular-30" x="49.365234"/>
       <use xlink:href="#RobotoCondensed-Regular-30" x="98.730469"/>
      </g>
     </g>
    </g>
    <g id="xtick_4">
     <g id="line2d_4">
      <g>
       <use xlink:href="#m9518ef4041" x="377.488097" y="177.777838" style="fill-opacity: 0; stroke: #000000; stroke-opacity: 0; stroke-width: 1.25"/>
      </g>
     </g>
     <g id="text_4">
      <!-- 600 -->
      <g style="fill: #838383" transform="translate(369.3438 195.527838) scale(0.11 -0.11)">
       <defs>
        <path id="RobotoCondensed-Regular-36" d="M 2291 4553 
L 2291 4063 
L 2200 4063 
Q 1647 4050 1334 3689 
Q 1022 3328 975 2603 
Q 1278 2984 1750 2984 
Q 2253 2984 2548 2570 
Q 2844 2156 2844 1484 
Q 2844 769 2517 353 
Q 2191 -63 1641 -63 
Q 1088 -63 750 428 
Q 413 919 413 1731 
L 413 1953 
Q 413 2891 616 3447 
Q 819 4003 1214 4273 
Q 1609 4544 2197 4553 
L 2291 4553 
z
M 1656 2503 
Q 1431 2503 1240 2331 
Q 1050 2159 966 1894 
L 966 1666 
Q 966 1113 1161 764 
Q 1356 416 1641 416 
Q 1950 416 2125 702 
Q 2300 988 2300 1456 
Q 2300 1919 2125 2211 
Q 1950 2503 1656 2503 
z
" transform="scale(0.015625)"/>
       </defs>
       <use xlink:href="#RobotoCondensed-Regular-36"/>
       <use xlink:href="#RobotoCondensed-Regular-30" x="49.365234"/>
       <use xlink:href="#RobotoCondensed-Regular-30" x="98.730469"/>
      </g>
     </g>
    </g>
    <g id="xtick_5">
     <g id="line2d_5">
      <g>
       <use xlink:href="#m9518ef4041" x="479.235972" y="177.777838" style="fill-opacity: 0; stroke: #000000; stroke-opacity: 0; stroke-width: 1.25"/>
      </g>
     </g>
     <g id="text_5">
      <!-- 800 -->
      <g style="fill: #838383" transform="translate(471.091675 195.527838) scale(0.11 -0.11)">
       <defs>
        <path id="RobotoCondensed-Regular-38" d="M 2706 3363 
Q 2706 3022 2554 2756 
Q 2403 2491 2147 2341 
Q 2450 2184 2622 1892 
Q 2794 1600 2794 1228 
Q 2794 641 2461 289 
Q 2128 -63 1578 -63 
Q 1028 -63 695 289 
Q 363 641 363 1228 
Q 363 1603 533 1898 
Q 703 2194 997 2344 
Q 741 2494 594 2758 
Q 447 3022 447 3363 
Q 447 3938 758 4275 
Q 1069 4613 1578 4613 
Q 2084 4613 2395 4278 
Q 2706 3944 2706 3363 
z
M 2241 1241 
Q 2241 1631 2056 1867 
Q 1872 2103 1572 2103 
Q 1266 2103 1089 1865 
Q 913 1628 913 1241 
Q 913 847 1086 628 
Q 1259 409 1578 409 
Q 1897 409 2069 628 
Q 2241 847 2241 1241 
z
M 2156 3353 
Q 2156 3700 1993 3919 
Q 1831 4138 1578 4138 
Q 1313 4138 1156 3922 
Q 1000 3706 1000 3353 
Q 1000 2997 1159 2787 
Q 1319 2578 1578 2578 
Q 1844 2578 2000 2790 
Q 2156 3003 2156 3353 
z
" transform="scale(0.015625)"/>
       </defs>
       <use xlink:href="#RobotoCondensed-Regular-38"/>
       <use xlink:href="#RobotoCondensed-Regular-30" x="49.365234"/>
       <use xlink:href="#RobotoCondensed-Regular-30" x="98.730469"/>
      </g>
     </g>
    </g>
    <g id="xtick_6">
     <g id="line2d_6">
      <g>
       <use xlink:href="#m9518ef4041" x="580.983846" y="177.777838" style="fill-opacity: 0; stroke: #000000; stroke-opacity: 0; stroke-width: 1.25"/>
      </g>
     </g>
     <g id="text_6">
      <!-- 1000 -->
      <g style="fill: #838383" transform="translate(570.124784 195.527838) scale(0.11 -0.11)">
       <defs>
        <path id="RobotoCondensed-Regular-31" d="M 2013 0 
L 1456 0 
L 1456 3853 
L 500 3425 
L 500 3950 
L 1925 4572 
L 2013 4572 
L 2013 0 
z
" transform="scale(0.015625)"/>
       </defs>
       <use xlink:href="#RobotoCondensed-Regular-31"/>
       <use xlink:href="#RobotoCondensed-Regular-30" x="49.365234"/>
       <use xlink:href="#RobotoCondensed-Regular-30" x="98.730469"/>
       <use xlink:href="#RobotoCondensed-Regular-30" x="148.095703"/>
      </g>
     </g>
    </g>
    <g id="text_7">
     <!-- Step -->
     <g style="fill: #838383" transform="translate(579.227801 214.762213) scale(0.12 -0.12)">
      <defs>
       <path id="RobotoCondensed-Bold-53" d="M 2288 1194 
Q 2288 1472 2145 1614 
Q 2003 1756 1628 1909 
Q 944 2169 644 2517 
Q 344 2866 344 3341 
Q 344 3916 751 4264 
Q 1159 4613 1788 4613 
Q 2206 4613 2534 4436 
Q 2863 4259 3039 3937 
Q 3216 3616 3216 3206 
L 2300 3206 
Q 2300 3525 2164 3692 
Q 2028 3859 1772 3859 
Q 1531 3859 1397 3717 
Q 1263 3575 1263 3334 
Q 1263 3147 1413 2995 
Q 1563 2844 1944 2681 
Q 2609 2441 2911 2091 
Q 3213 1741 3213 1200 
Q 3213 606 2834 271 
Q 2456 -63 1806 -63 
Q 1366 -63 1003 118 
Q 641 300 436 637 
Q 231 975 231 1434 
L 1153 1434 
Q 1153 1041 1306 862 
Q 1459 684 1806 684 
Q 2288 684 2288 1194 
z
" transform="scale(0.015625)"/>
       <path id="RobotoCondensed-Bold-74" d="M 1350 4213 
L 1350 3381 
L 1803 3381 
L 1803 2716 
L 1350 2716 
L 1350 1038 
Q 1350 838 1404 763 
Q 1459 688 1616 688 
Q 1744 688 1825 709 
L 1819 22 
Q 1594 -63 1331 -63 
Q 475 -63 466 919 
L 466 2716 
L 75 2716 
L 75 3381 
L 466 3381 
L 466 4213 
L 1350 4213 
z
" transform="scale(0.015625)"/>
       <path id="RobotoCondensed-Bold-65" d="M 1688 -63 
Q 1006 -63 625 343 
Q 244 750 244 1506 
L 244 1775 
Q 244 2575 594 3009 
Q 944 3444 1597 3444 
Q 2234 3444 2556 3036 
Q 2878 2628 2884 1828 
L 2884 1394 
L 1125 1394 
Q 1144 1019 1291 845 
Q 1438 672 1744 672 
Q 2188 672 2484 975 
L 2831 441 
Q 2669 216 2359 76 
Q 2050 -63 1688 -63 
z
M 1131 2013 
L 2016 2013 
L 2016 2094 
Q 2009 2397 1915 2553 
Q 1822 2709 1590 2709 
Q 1359 2709 1254 2543 
Q 1150 2378 1131 2013 
z
" transform="scale(0.015625)"/>
       <path id="RobotoCondensed-Bold-70" d="M 2956 1584 
Q 2956 788 2682 362 
Q 2409 -63 1869 -63 
Q 1456 -63 1206 272 
L 1206 -1300 
L 322 -1300 
L 322 3381 
L 1141 3381 
L 1172 3072 
Q 1425 3444 1863 3444 
Q 2403 3444 2676 3050 
Q 2950 2656 2956 1844 
L 2956 1584 
z
M 2075 1806 
Q 2075 2297 1967 2500 
Q 1859 2703 1603 2703 
Q 1331 2703 1206 2475 
L 1206 891 
Q 1325 672 1609 672 
Q 1872 672 1973 894 
Q 2075 1116 2075 1584 
L 2075 1806 
z
" transform="scale(0.015625)"/>
      </defs>
      <use xlink:href="#RobotoCondensed-Bold-53"/>
      <use xlink:href="#RobotoCondensed-Bold-74" x="54.003906"/>
      <use xlink:href="#RobotoCondensed-Bold-65" x="84.716797"/>
      <use xlink:href="#RobotoCondensed-Bold-70" x="132.568359"/>
     </g>
    </g>
   </g>
   <g id="matplotlib.axis_2">
    <g id="ytick_1">
     <g id="line2d_7">
      <defs>
       <path id="m213a0f0b91" d="M 0 0 
L -6 0 
" style="stroke: #000000; stroke-opacity: 0; stroke-width: 1.25"/>
      </defs>
      <g>
       <use xlink:href="#m213a0f0b91" x="47.061875" y="158.049489" style="fill-opacity: 0; stroke: #000000; stroke-opacity: 0; stroke-width: 1.25"/>
      </g>
     </g>
     <g id="text_8">
      <!-- −5 -->
      <g style="fill: #2196f3" transform="translate(26.6375 162.174489) scale(0.11 -0.11)">
       <defs>
        <path id="RobotoCondensed-Regular-2212" d="M 2697 2034 
L 506 2034 
L 506 2506 
L 2697 2506 
L 2697 2034 
z
" transform="scale(0.015625)"/>
        <path id="RobotoCondensed-Regular-35" d="M 591 2281 
L 788 4550 
L 2766 4550 
L 2766 4016 
L 1253 4016 
L 1147 2775 
Q 1428 2972 1753 2972 
Q 2284 2972 2587 2559 
Q 2891 2147 2891 1450 
Q 2891 744 2561 340 
Q 2231 -63 1656 -63 
Q 1144 -63 822 271 
Q 500 606 453 1197 
L 972 1197 
Q 1019 806 1195 607 
Q 1372 409 1656 409 
Q 1978 409 2159 689 
Q 2341 969 2341 1444 
Q 2341 1891 2145 2172 
Q 1950 2453 1619 2453 
Q 1344 2453 1178 2309 
L 1031 2163 
L 591 2281 
z
" transform="scale(0.015625)"/>
       </defs>
       <use xlink:href="#RobotoCondensed-Regular-2212"/>
       <use xlink:href="#RobotoCondensed-Regular-35" x="49.951172"/>
      </g>
     </g>
    </g>
    <g id="ytick_2">
     <g id="line2d_8">
      <g>
       <use xlink:href="#m213a0f0b91" x="47.061875" y="128.704591" style="fill-opacity: 0; stroke: #000000; stroke-opacity: 0; stroke-width: 1.25"/>
      </g>
     </g>
     <g id="text_9">
      <!-- 0 -->
      <g style="fill: #2196f3" transform="translate(32.132344 132.829591) scale(0.11 -0.11)">
       <use xlink:href="#RobotoCondensed-Regular-30"/>
      </g>
     </g>
    </g>
    <g id="ytick_3">
     <g id="line2d_9">
      <g>
       <use xlink:href="#m213a0f0b91" x="47.061875" y="99.359693" style="fill-opacity: 0; stroke: #000000; stroke-opacity: 0; stroke-width: 1.25"/>
      </g>
     </g>
     <g id="text_10">
      <!-- 5 -->
      <g style="fill: #2196f3" transform="translate(32.132344 103.484693) scale(0.11 -0.11)">
       <use xlink:href="#RobotoCondensed-Regular-35"/>
      </g>
     </g>
    </g>
    <g id="ytick_4">
     <g id="line2d_10">
      <g>
       <use xlink:href="#m213a0f0b91" x="47.061875" y="70.014795" style="fill-opacity: 0; stroke: #000000; stroke-opacity: 0; stroke-width: 1.25"/>
      </g>
     </g>
     <g id="text_11">
      <!-- 10 -->
      <g style="fill: #2196f3" transform="translate(26.702813 74.139795) scale(0.11 -0.11)">
       <use xlink:href="#RobotoCondensed-Regular-31"/>
       <use xlink:href="#RobotoCondensed-Regular-30" x="49.365234"/>
      </g>
     </g>
    </g>
    <g id="ytick_5">
     <g id="line2d_11">
      <g>
       <use xlink:href="#m213a0f0b91" x="47.061875" y="40.669898" style="fill-opacity: 0; stroke: #000000; stroke-opacity: 0; stroke-width: 1.25"/>
      </g>
     </g>
     <g id="text_12">
      <!-- 15 -->
      <g style="fill: #2196f3" transform="translate(26.702813 44.794898) scale(0.11 -0.11)">
       <use xlink:href="#RobotoCondensed-Regular-31"/>
       <use xlink:href="#RobotoCondensed-Regular-35" x="49.365234"/>
      </g>
     </g>
    </g>
    <g id="ytick_6">
     <g id="line2d_12">
      <g>
       <use xlink:href="#m213a0f0b91" x="47.061875" y="11.325" style="fill-opacity: 0; stroke: #000000; stroke-opacity: 0; stroke-width: 1.25"/>
      </g>
     </g>
     <g id="text_13">
      <!-- 20 -->
      <g style="fill: #2196f3" transform="translate(26.702813 15.45) scale(0.11 -0.11)">
       <use xlink:href="#RobotoCondensed-Regular-32"/>
       <use xlink:href="#RobotoCondensed-Regular-30" x="49.365234"/>
      </g>
     </g>
    </g>
    <g id="text_14">
     <!-- loss -->
     <g style="fill: #2196f3" transform="translate(16.2 28.415356) rotate(-90) scale(0.12 -0.12)">
      <defs>
       <path id="RobotoCondensed-Bold-6c" d="M 1250 0 
L 363 0 
L 363 4800 
L 1250 4800 
L 1250 0 
z
" transform="scale(0.015625)"/>
       <path id="RobotoCondensed-Bold-6f" d="M 219 1800 
Q 219 2569 581 3006 
Q 944 3444 1584 3444 
Q 2231 3444 2593 3006 
Q 2956 2569 2956 1794 
L 2956 1578 
Q 2956 806 2597 371 
Q 2238 -63 1591 -63 
Q 941 -63 580 373 
Q 219 809 219 1584 
L 219 1800 
z
M 1106 1578 
Q 1106 672 1591 672 
Q 2038 672 2072 1428 
L 2075 1800 
Q 2075 2263 1947 2486 
Q 1819 2709 1584 2709 
Q 1359 2709 1232 2486 
Q 1106 2263 1106 1800 
L 1106 1578 
z
" transform="scale(0.015625)"/>
       <path id="RobotoCondensed-Bold-73" d="M 1819 906 
Q 1819 1019 1711 1114 
Q 1603 1209 1231 1372 
Q 684 1594 479 1831 
Q 275 2069 275 2422 
Q 275 2866 595 3155 
Q 916 3444 1444 3444 
Q 2000 3444 2334 3156 
Q 2669 2869 2669 2384 
L 1784 2384 
Q 1784 2797 1441 2797 
Q 1300 2797 1209 2709 
Q 1119 2622 1119 2466 
Q 1119 2353 1219 2267 
Q 1319 2181 1691 2022 
Q 2231 1822 2454 1576 
Q 2678 1331 2678 941 
Q 2678 488 2337 212 
Q 1997 -63 1444 -63 
Q 1072 -63 787 82 
Q 503 228 342 487 
Q 181 747 181 1047 
L 1022 1047 
Q 1028 816 1129 700 
Q 1231 584 1463 584 
Q 1819 584 1819 906 
z
" transform="scale(0.015625)"/>
      </defs>
      <use xlink:href="#RobotoCondensed-Bold-6c"/>
      <use xlink:href="#RobotoCondensed-Bold-6f" x="25.195312"/>
      <use xlink:href="#RobotoCondensed-Bold-73" x="74.951172"/>
      <use xlink:href="#RobotoCondensed-Bold-73" x="120.361328"/>
     </g>
    </g>
   </g>
   <g id="line2d_13">
    <path d="M 72.244474 108.691391 
L 77.331868 144.493596 
L 82.419261 129.325603 
L 87.506655 101.321299 
L 92.594049 107.410642 
L 97.681443 154.710441 
L 102.768836 93.111007 
L 107.85623 124.5049 
L 112.943624 88.387341 
L 118.031017 94.811597 
L 123.118411 111.82249 
L 128.205805 117.335755 
L 133.293199 122.038562 
L 138.380592 92.488719 
L 143.467986 90.286713 
L 148.55538 112.589559 
L 153.642773 22.715615 
L 158.730167 117.839754 
L 163.817561 68.568467 
L 168.904955 36.984625 
L 173.992348 101.252289 
L 179.079742 96.563978 
L 184.167136 90.17992 
L 189.25453 131.048378 
L 194.341923 114.983823 
L 199.429317 99.818672 
L 204.516711 105.991082 
L 209.604104 33.636577 
L 214.691498 124.74471 
L 219.778892 62.355171 
L 224.866286 46.301124 
L 229.953679 93.310048 
L 235.041073 127.985921 
L 240.128467 77.986721 
L 245.21586 57.366575 
L 250.303254 81.104398 
L 255.390648 75.537858 
L 260.478042 133.18167 
L 265.565435 127.516375 
L 270.652829 118.694598 
L 275.740223 133.039585 
L 280.827616 170.084458 
L 285.91501 145.835585 
L 291.002404 98.850456 
L 296.089798 90.576099 
L 301.177191 70.132486 
L 306.264585 57.281477 
L 311.351979 107.895869 
L 316.439373 93.075921 
L 321.526766 128.622664 
L 326.61416 119.636849 
L 331.701554 125.812621 
L 336.788947 69.48465 
L 341.876341 95.814292 
L 346.963735 45.157201 
L 352.051129 114.314765 
L 357.138522 82.222653 
L 362.225916 69.889202 
L 367.31331 89.78701 
L 372.400703 120.367053 
L 377.488097 106.521494 
L 382.575491 88.428054 
L 387.662885 67.897302 
L 392.750278 102.124462 
L 397.837672 124.408639 
L 402.925066 101.959866 
L 408.01246 126.246166 
L 413.099853 32.022677 
L 418.187247 16.216861 
L 423.274641 94.249739 
L 428.362034 134.000025 
L 433.449428 114.493264 
L 438.536822 166.617259 
L 443.624216 39.634071 
L 448.711609 111.953202 
L 453.799003 97.165265 
L 458.886397 99.79105 
L 463.97379 75.523042 
L 469.061184 79.350028 
L 474.148578 51.023544 
L 479.235972 61.703037 
L 484.323365 124.842897 
L 489.410759 80.614658 
L 494.498153 115.14245 
L 499.585547 101.923202 
L 504.67294 117.532147 
L 509.760334 68.522845 
L 514.847728 109.14823 
L 519.935121 83.487084 
L 525.022515 129.803648 
L 530.109909 122.167481 
L 535.197303 78.553203 
L 540.284696 94.993559 
L 545.37209 105.751132 
L 550.459484 119.662936 
L 555.546877 167.046752 
L 560.634271 131.945147 
L 565.721665 141.197969 
L 570.809059 112.257454 
L 575.896452 57.702709 
" clip-path="url(#pb7b7b79d69)" style="fill: none; stroke: #2196f3; stroke-opacity: 0.9; stroke-width: 1.5; stroke-linecap: round"/>
   </g>
   <g id="patch_3">
    <path d="M 47.061875 177.777838 
L 47.061875 8.523481 
" style="fill: none"/>
   </g>
   <g id="patch_4">
    <path d="M 601.079051 177.777838 
L 601.079051 8.523481 
" style="fill: none"/>
   </g>
   <g id="patch_5">
    <path d="M 47.061875 177.777838 
L 601.079051 177.777838 
" style="fill: none"/>
   </g>
   <g id="patch_6">
    <path d="M 47.061875 8.523481 
L 601.079051 8.523481 
" style="fill: none"/>
   </g>
  </g>
  <g id="axes_2">
   <g id="matplotlib.axis_3">
    <g id="ytick_7">
     <g id="line2d_14">
      <defs>
       <path id="m45151e9013" d="M 0 0 
L 6 0 
" style="stroke: #000000; stroke-opacity: 0; stroke-width: 1.25"/>
      </defs>
      <g>
       <use xlink:href="#m45151e9013" x="601.079051" y="170.084586" style="fill-opacity: 0; stroke: #000000; stroke-opacity: 0; stroke-width: 1.25"/>
      </g>
     </g>
     <g id="text_15">
      <!-- 0.00 -->
      <g style="fill: #ef5350" transform="translate(610.579051 174.209586) scale(0.11 -0.11)">
       <defs>
        <path id="RobotoCondensed-Regular-2e" d="M 450 303 
Q 450 453 539 553 
Q 628 653 806 653 
Q 984 653 1076 553 
Q 1169 453 1169 303 
Q 1169 159 1076 62 
Q 984 -34 806 -34 
Q 628 -34 539 62 
Q 450 159 450 303 
z
" transform="scale(0.015625)"/>
       </defs>
       <use xlink:href="#RobotoCondensed-Regular-30"/>
       <use xlink:href="#RobotoCondensed-Regular-2e" x="49.365234"/>
       <use xlink:href="#RobotoCondensed-Regular-30" x="75.683594"/>
       <use xlink:href="#RobotoCondensed-Regular-30" x="125.048828"/>
      </g>
     </g>
    </g>
    <g id="ytick_8">
     <g id="line2d_15">
      <g>
       <use xlink:href="#m45151e9013" x="601.079051" y="145.465762" style="fill-opacity: 0; stroke: #000000; stroke-opacity: 0; stroke-width: 1.25"/>
      </g>
     </g>
     <g id="text_16">
      <!-- 0.02 -->
      <g style="fill: #ef5350" transform="translate(610.579051 149.590762) scale(0.11 -0.11)">
       <use xlink:href="#RobotoCondensed-Regular-30"/>
       <use xlink:href="#RobotoCondensed-Regular-2e" x="49.365234"/>
       <use xlink:href="#RobotoCondensed-Regular-30" x="75.683594"/>
       <use xlink:href="#RobotoCondensed-Regular-32" x="125.048828"/>
      </g>
     </g>
    </g>
    <g id="ytick_9">
     <g id="line2d_16">
      <g>
       <use xlink:href="#m45151e9013" x="601.079051" y="120.846938" style="fill-opacity: 0; stroke: #000000; stroke-opacity: 0; stroke-width: 1.25"/>
      </g>
     </g>
     <g id="text_17">
      <!-- 0.04 -->
      <g style="fill: #ef5350" transform="translate(610.579051 124.971938) scale(0.11 -0.11)">
       <use xlink:href="#RobotoCondensed-Regular-30"/>
       <use xlink:href="#RobotoCondensed-Regular-2e" x="49.365234"/>
       <use xlink:href="#RobotoCondensed-Regular-30" x="75.683594"/>
       <use xlink:href="#RobotoCondensed-Regular-34" x="125.048828"/>
      </g>
     </g>
    </g>
    <g id="ytick_10">
     <g id="line2d_17">
      <g>
       <use xlink:href="#m45151e9013" x="601.079051" y="96.228113" style="fill-opacity: 0; stroke: #000000; stroke-opacity: 0; stroke-width: 1.25"/>
      </g>
     </g>
     <g id="text_18">
      <!-- 0.06 -->
      <g style="fill: #ef5350" transform="translate(610.579051 100.353113) scale(0.11 -0.11)">
       <use xlink:href="#RobotoCondensed-Regular-30"/>
       <use xlink:href="#RobotoCondensed-Regular-2e" x="49.365234"/>
       <use xlink:href="#RobotoCondensed-Regular-30" x="75.683594"/>
       <use xlink:href="#RobotoCondensed-Regular-36" x="125.048828"/>
      </g>
     </g>
    </g>
    <g id="ytick_11">
     <g id="line2d_18">
      <g>
       <use xlink:href="#m45151e9013" x="601.079051" y="71.609289" style="fill-opacity: 0; stroke: #000000; stroke-opacity: 0; stroke-width: 1.25"/>
      </g>
     </g>
     <g id="text_19">
      <!-- 0.08 -->
      <g style="fill: #ef5350" transform="translate(610.579051 75.734289) scale(0.11 -0.11)">
       <use xlink:href="#RobotoCondensed-Regular-30"/>
       <use xlink:href="#RobotoCondensed-Regular-2e" x="49.365234"/>
       <use xlink:href="#RobotoCondensed-Regular-30" x="75.683594"/>
       <use xlink:href="#RobotoCondensed-Regular-38" x="125.048828"/>
      </g>
     </g>
    </g>
    <g id="ytick_12">
     <g id="line2d_19">
      <g>
       <use xlink:href="#m45151e9013" x="601.079051" y="46.990465" style="fill-opacity: 0; stroke: #000000; stroke-opacity: 0; stroke-width: 1.25"/>
      </g>
     </g>
     <g id="text_20">
      <!-- 0.10 -->
      <g style="fill: #ef5350" transform="translate(610.579051 51.115465) scale(0.11 -0.11)">
       <use xlink:href="#RobotoCondensed-Regular-30"/>
       <use xlink:href="#RobotoCondensed-Regular-2e" x="49.365234"/>
       <use xlink:href="#RobotoCondensed-Regular-31" x="75.683594"/>
       <use xlink:href="#RobotoCondensed-Regular-30" x="125.048828"/>
      </g>
     </g>
    </g>
    <g id="ytick_13">
     <g id="line2d_20">
      <g>
       <use xlink:href="#m45151e9013" x="601.079051" y="22.371641" style="fill-opacity: 0; stroke: #000000; stroke-opacity: 0; stroke-width: 1.25"/>
      </g>
     </g>
     <g id="text_21">
      <!-- 0.12 -->
      <g style="fill: #ef5350" transform="translate(610.579051 26.496641) scale(0.11 -0.11)">
       <use xlink:href="#RobotoCondensed-Regular-30"/>
       <use xlink:href="#RobotoCondensed-Regular-2e" x="49.365234"/>
       <use xlink:href="#RobotoCondensed-Regular-31" x="75.683594"/>
       <use xlink:href="#RobotoCondensed-Regular-32" x="125.048828"/>
      </g>
     </g>
    </g>
    <g id="text_22">
     <!-- dQint -->
     <g style="fill: #ef5350" transform="translate(646.76202 34.330981) rotate(-90) scale(0.12 -0.12)">
      <defs>
       <path id="RobotoCondensed-Bold-64" d="M 203 1794 
Q 203 2625 484 3034 
Q 766 3444 1303 3444 
Q 1694 3444 1953 3106 
L 1953 4800 
L 2844 4800 
L 2844 0 
L 2041 0 
L 2000 344 
Q 1728 -63 1300 -63 
Q 769 -63 489 343 
Q 209 750 203 1538 
L 203 1794 
z
M 1091 1572 
Q 1091 1072 1197 873 
Q 1303 675 1556 675 
Q 1819 675 1953 909 
L 1953 2453 
Q 1822 2703 1559 2703 
Q 1316 2703 1203 2506 
Q 1091 2309 1091 1806 
L 1091 1572 
z
" transform="scale(0.015625)"/>
       <path id="RobotoCondensed-Bold-51" d="M 3566 1922 
Q 3566 794 2956 281 
L 3584 -281 
L 3006 -813 
L 2169 -47 
L 1928 -63 
Q 1156 -63 720 460 
Q 284 984 281 1909 
L 281 2622 
Q 281 3559 715 4086 
Q 1150 4613 1922 4613 
Q 2675 4613 3112 4106 
Q 3550 3600 3566 2684 
L 3566 1922 
z
M 2644 2628 
Q 2644 3250 2466 3547 
Q 2288 3844 1922 3844 
Q 1556 3844 1381 3555 
Q 1206 3266 1200 2675 
L 1200 1922 
Q 1200 1297 1379 1000 
Q 1559 703 1928 703 
Q 2288 703 2464 998 
Q 2641 1294 2644 1900 
L 2644 2628 
z
" transform="scale(0.015625)"/>
       <path id="RobotoCondensed-Bold-69" d="M 1250 0 
L 363 0 
L 363 3381 
L 1250 3381 
L 1250 0 
z
M 322 4256 
Q 322 4463 453 4594 
Q 584 4725 803 4725 
Q 1022 4725 1153 4594 
Q 1284 4463 1284 4256 
Q 1284 4053 1154 3918 
Q 1025 3784 803 3784 
Q 581 3784 451 3918 
Q 322 4053 322 4256 
z
" transform="scale(0.015625)"/>
       <path id="RobotoCondensed-Bold-6e" d="M 1131 3381 
L 1156 3047 
Q 1456 3444 1941 3444 
Q 2813 3444 2838 2222 
L 2838 0 
L 1950 0 
L 1950 2156 
Q 1950 2444 1864 2573 
Q 1778 2703 1563 2703 
Q 1322 2703 1188 2456 
L 1188 0 
L 300 0 
L 300 3381 
L 1131 3381 
z
" transform="scale(0.015625)"/>
      </defs>
      <use xlink:href="#RobotoCondensed-Bold-64"/>
      <use xlink:href="#RobotoCondensed-Bold-51" x="49.560547"/>
      <use xlink:href="#RobotoCondensed-Bold-69" x="109.912109"/>
      <use xlink:href="#RobotoCondensed-Bold-6e" x="135.107422"/>
      <use xlink:href="#RobotoCondensed-Bold-74" x="184.326172"/>
     </g>
    </g>
   </g>
   <g id="line2d_21">
    <path d="M 72.244474 170.08388 
L 77.331868 170.083999 
L 82.419261 93.1501 
L 87.506655 170.08399 
L 92.594049 170.083977 
L 97.681443 170.083973 
L 102.768836 170.083867 
L 107.85623 170.083907 
L 112.943624 170.084049 
L 118.031017 170.08443 
L 123.118411 170.083718 
L 128.205805 170.084198 
L 133.293199 93.149907 
L 138.380592 170.083784 
L 143.467986 170.083703 
L 148.55538 170.083869 
L 153.642773 170.083915 
L 158.730167 170.083993 
L 163.817561 170.083591 
L 168.904955 170.084282 
L 173.992348 93.150586 
L 179.079742 170.083888 
L 184.167136 170.083674 
L 189.25453 170.084022 
L 194.341923 170.083881 
L 199.429317 170.083843 
L 204.516711 170.083747 
L 209.604104 170.083992 
L 214.691498 170.084011 
L 219.778892 170.08415 
L 224.866286 170.084117 
L 229.953679 93.149715 
L 235.041073 93.150503 
L 240.128467 170.083953 
L 245.21586 170.08404 
L 250.303254 170.084017 
L 255.390648 170.084458 
L 260.478042 170.083818 
L 265.565435 170.084283 
L 270.652829 170.084051 
L 275.740223 170.083635 
L 280.827616 93.150045 
L 285.91501 93.150146 
L 291.002404 170.083791 
L 296.089798 170.083863 
L 301.177191 170.083797 
L 306.264585 93.150403 
L 311.351979 170.083746 
L 316.439373 170.083542 
L 321.526766 170.083771 
L 326.61416 170.083504 
L 331.701554 170.08385 
L 336.788947 170.083676 
L 341.876341 170.084283 
L 346.963735 170.083862 
L 352.051129 170.0836 
L 357.138522 170.083802 
L 362.225916 170.084022 
L 367.31331 93.150366 
L 372.400703 170.08419 
L 377.488097 170.08381 
L 382.575491 170.084123 
L 387.662885 170.084069 
L 392.750278 93.150082 
L 397.837672 170.083768 
L 402.925066 170.084193 
L 408.01246 170.083947 
L 413.099853 170.084239 
L 418.187247 170.08385 
L 423.274641 170.083879 
L 428.362034 170.084067 
L 433.449428 170.084415 
L 438.536822 93.149788 
L 443.624216 170.084323 
L 448.711609 170.083586 
L 453.799003 170.083939 
L 458.886397 16.216861 
L 463.97379 170.083905 
L 469.061184 170.084306 
L 474.148578 170.083938 
L 479.235972 170.084155 
L 484.323365 170.083881 
L 489.410759 170.084114 
L 494.498153 170.083733 
L 499.585547 170.083813 
L 504.67294 93.150412 
L 509.760334 170.084353 
L 514.847728 170.084162 
L 519.935121 93.149898 
L 525.022515 170.084054 
L 530.109909 170.083779 
L 535.197303 170.083256 
L 540.284696 170.083996 
L 545.37209 170.083665 
L 550.459484 170.084141 
L 555.546877 93.150412 
L 560.634271 170.083766 
L 565.721665 170.083829 
L 570.809059 170.083609 
L 575.896452 170.084151 
" clip-path="url(#pb7b7b79d69)" style="fill: none; stroke: #ef5350; stroke-opacity: 0.9; stroke-width: 1.5; stroke-linecap: round"/>
   </g>
   <g id="patch_7">
    <path d="M 47.061875 177.777838 
L 47.061875 8.523481 
" style="fill: none"/>
   </g>
   <g id="patch_8">
    <path d="M 601.079051 177.777838 
L 601.079051 8.523481 
" style="fill: none"/>
   </g>
   <g id="patch_9">
    <path d="M 47.061875 177.777838 
L 601.079051 177.777838 
" style="fill: none"/>
   </g>
   <g id="patch_10">
    <path d="M 47.061875 8.523481 
L 601.079051 8.523481 
" style="fill: none"/>
   </g>
  </g>
 </g>
 <defs>
  <clipPath id="pb7b7b79d69">
   <rect x="47.061875" y="8.523481" width="554.017176" height="169.254356"/>
  </clipPath>
 </defs>
</svg>
