<svg version="1.1" xmlns="http://www.w3.org/2000/svg" viewBox="0 0 462.88163676005865 184.91974574681075" width="462.88163676005865" height="184.91974574681075">
  <!-- svg-source:excalidraw -->
  
  <defs>
    <style class="style-fonts">
      @font-face {
        font-family: "Virgil";
        src: url("https://excalidraw.com/Virgil.woff2");
      }
      @font-face {
        font-family: "Cascadia";
        src: url("https://excalidraw.com/Cascadia.woff2");
      }
    </style>
    
  </defs>
  <g stroke-linecap="round"><g transform="translate(11.739705324965371 51.558543195948005) rotate(0 50 40)"><path d="M0.75 0.18 C28.52 -0.88, 59.41 -1.1, 79.76 1.62 M0.38 0 C23.94 -0.52, 45.4 0.51, 79.68 -0.03 M80.35 -0.36 C78.25 -10.66, 82.21 -19.84, 78.7 -40.27 M80.44 0.25 C79.79 -13.1, 79.73 -26.93, 79.76 -40.23 M79.75 -40.6 C68.57 -38.87, 57.87 -41.12, 40.72 -40.95 M80.21 -40.17 C71.94 -40.28, 62.4 -39.79, 40.48 -39.61 M40.95 -39.02 C40.86 -1.91, 38.96 37.06, 41.74 79.31 M40.28 -40.04 C39.55 -3.82, 41.11 31.13, 39.6 79.58 M41.12 80.62 C41.91 94.58, 38.58 110.35, 38.94 121.91 M39.43 80.51 C40.85 88.6, 40.77 99.7, 39.5 120.76 M40.17 118.74 C26.04 119.28, 11.48 120.85, 0.28 121.38 M40.3 119.75 C23.66 119.87, 9.5 121.2, -0.1 119.82 M-1.72 119.38 C-1.96 105.5, 0.31 93.19, 0.05 78.79 M0.11 119.19 C-0.17 109.83, -0.65 101.52, -0.43 80.86 M-0.51 79.64 C13.82 79.16, 24.56 79.57, 40.48 81.2 M0.4 79.31 C15.91 79.28, 30.56 79.11, 39.07 79.02 M41.27 81.09 C47.36 95.38, 53.71 112.4, 59.28 119.12 M39.73 80.36 C45.73 92.48, 52.17 103.6, 60.45 120.25 M58.05 119.24 C74.18 120.83, 83.07 121.05, 99.2 121.9 M59.4 120.15 C73.41 120.17, 87.94 120.57, 99.97 120.06" stroke="#838383" stroke-width="4" fill="none"/></g></g><mask/><g stroke-linecap="round"><g transform="translate(114.61852832590307 53.53530238196254) rotate(0 39.73333725333214 40.83882516156882)"><path d="M-0.91 -1.68 C-1.9 -8.87, -0.91 -16.76, 0.01 -41.51 M0.9 -0.61 C0.37 -8.65, 0.34 -15.9, 0.92 -40.41 M0.43 -41.48 C10.12 -41.54, 21.69 -41.69, 41.96 -41.98 M-0.11 -40.28 C10.8 -39.95, 23.07 -40.66, 39.95 -40.78 M40.28 -38.56 C40.94 11.79, 40.48 63.9, 40.1 120.59 M40.99 -39.74 C37.78 -3.78, 38.03 32.64, 40.57 119.44 M38.3 120.46 C26.25 121.31, 14.83 120.19, -1.22 121.17 M39.72 119.78 C30.3 120.27, 19.19 119.39, -0.43 120.83 M-0.64 120.29 C-0.63 109.9, -1.18 96.72, -2.88 76.19 M0.98 119.6 C-1.07 104.11, 0.16 88.71, -1.26 78 M-2.41 76.57 C7.1 80.05, 20.14 76.99, 39.6 80.95 M-0.56 78.35 C14.24 78.94, 28.79 79.47, 40.84 79.21 M40 80 C40 80, 40 80, 40 80 M40 80 C40 80, 40 80, 40 80 M40.48 80.87 C55 93.46, 67.61 108.47, 79.72 121.33 M40.5 80.58 C54.57 94.29, 68.24 108.87, 80.65 121.02" stroke="#838383" stroke-width="4" fill="none"/></g></g><mask/><g stroke-linecap="round"><g transform="translate(193.0407233153012 12.200661927461624) rotate(0 0 79.841796875)"><path d="M1.65 -0.64 C-0.32 61.02, 0.28 122.02, -1.3 158.24 M-0.02 0.98 C0.81 32.45, 1.06 67.5, 0.21 159.87" stroke="#838383" stroke-width="4" fill="none"/></g></g><mask/><g stroke-linecap="round"><g transform="translate(191.73970532496537 131.558543195948) rotate(0 30 0)"><path d="M-1.19 -0.35 C13.06 1.32, 24.2 0.69, 41.17 1.18 M-0.25 -0.65 C12.78 -0.99, 26.67 -0.53, 39.42 -0.97 M38.33 1.27 C47.69 -0.81, 55.26 0.57, 60.32 1.63 M39.93 -0.88 C48.61 0.86, 55.94 0.67, 60.08 0.77" stroke="#838383" stroke-width="4" fill="none"/></g></g><mask/><g stroke-linecap="round"><g transform="translate(253.8143877377949 13.006878336891532) rotate(0 0 80)"><path d="M-0.4 -0.81 C-1.66 61.2, 0.65 119.65, 0.81 161.02 M0.93 -0.7 C1.42 41.53, 1.44 84.41, -0.08 159.95" stroke="#838383" stroke-width="4" fill="none"/></g></g><mask/><g stroke-linecap="round"><g transform="translate(273.37046639141704 173.66420167106838) rotate(0 47.99038105676658 -81.1602540378444)"><path d="M-0.8 1.26 C-2.24 -40.26, -1.17 -84.11, -1.63 -140.98 M-0.97 0.47 C-1.36 -51.97, -1.72 -102.88, 0.95 -139.79 M-0.82 -138.62 C-1.22 -144.7, 1.69 -152.03, -1.63 -158.47 M-0.36 -140.68 C-0.04 -145.09, 0.67 -148.45, -0.04 -159.94 M0.37 -158.98 C16.19 -123.53, 35.28 -84.11, 56.54 -41.3 M-1 -159.96 C17.25 -124.23, 35.19 -87.61, 58.42 -42.73 M58.53 -43.44 C69.5 -74.66, 79.57 -110.76, 96.62 -162.11 M58.93 -43.09 C67.39 -71.51, 75.86 -101.14, 95.56 -161.61 M95.91 -160.9 C96.25 -111.27, 95.2 -61.77, 95.54 -0.22 M95.79 -161.76 C96.13 -114.3, 94.75 -67.42, 95.94 0.04" stroke="#838383" stroke-width="4" fill="none"/></g></g><mask/><g stroke-linecap="round"><g transform="translate(451.73970532496537 51.558543195948005) rotate(0 -28.933228991460055 41.10033096373081)"><path d="M-0.63 -1.04 C0.67 -9.12, -0.96 -16.98, -1.31 -38.87 M-0.32 0.89 C-0.67 -7.36, -0.1 -16.2, -0.94 -40.03 M-0.69 -41.56 C-21.91 -39.4, -43.11 -39.19, -57.7 -38.17 M-0.57 -39.94 C-20.64 -38.83, -41.24 -37.51, -58.67 -38.56 M-57.37 -36.38 C-57.33 -1.64, -57.91 35.51, -58.49 122.27 M-58.22 -36.82 C-58.28 5.1, -59.46 47.07, -56.93 121.95 M-58.03 120.39 C-38.28 120.1, -16.16 120.64, 1.14 118.17 M-58.7 121.43 C-42.74 122.58, -27.49 121, -0.68 120.46 M-0.81 121.71 C-0.78 108.17, 0.79 99.44, 0.17 78.41 M0.87 120.82 C-0.48 104.03, -0.4 88.28, -0.57 79.25" stroke="#838383" stroke-width="4" fill="none"/></g></g><mask/><g stroke-linecap="round" transform="translate(51.73970532496537 11.558543195948005) rotate(0 20 20)"><path d="M1.42 -0.83 L39.85 1.83 L41.62 39.45 L1.04 40.54" stroke="none" stroke-width="0" fill="#ff8787"/><path d="M1.12 -0.61 C14.6 -1.62, 28.94 -1.72, 41.77 -0.04 M0.74 0.34 C14.23 -0.76, 28.21 0.54, 39.27 -0.25 M41.3 0.26 C41.43 10.4, 38.32 23.38, 41.17 40.27 M40.48 0.7 C41.07 14.96, 40.7 31.27, 40.72 40.57 M41.06 38.7 C29.64 40.48, 18.9 39.42, -0.1 41.55 M40.83 40.09 C24.12 40.7, 9.15 39.19, -0.41 39.82 M0.32 38.53 C-1.28 29.17, 0.15 13.48, -1.04 1.67 M0.42 40.85 C0.58 29.17, -0.36 19.56, 0.54 -0.02" stroke="#838383" stroke-width="4" fill="none"/></g><g stroke-linecap="round" transform="translate(11.739705324965371 131.558543195948) rotate(0 20 20)"><path d="M0.54 -1.15 L38.31 1.48 L40.35 38.38 L0.33 41.34" stroke="none" stroke-width="0" fill="#a5d8ff"/><path d="M-0.04 0.93 C16.26 1.43, 31.13 0.33, 40.71 -0.8 M-0.25 -0.17 C13.69 1.11, 28.45 0.42, 40.75 -0.46 M40.27 1.73 C40.57 9.16, 41.1 19, 41.98 38.99 M40.57 -0.22 C41.1 13.56, 40.66 28.31, 40.38 40.42 M41.55 41.95 C26 39.18, 13.06 40.16, 0.04 41.72 M39.82 40.2 C24.42 39.94, 8.49 39.1, -0.59 40.99 M1.67 39.11 C0.34 27.89, 1.02 16.68, 1.22 -1.2 M-0.02 40.71 C-0.42 29.23, 0.91 19.42, -0.27 0.52" stroke="#838383" stroke-width="4" fill="none"/></g><g stroke-linecap="round" transform="translate(111.73970532496537 131.558543195948) rotate(0 20 20)"><path d="M1.35 -1.66 L40.11 0.31 L40.89 40.81 L1.45 40.48" stroke="none" stroke-width="0" fill="#b2f2bb"/><path d="M-1.06 -1.45 C10.46 0.17, 19.47 -1.86, 38.42 -1.99 M-0.21 0.55 C15.61 0.51, 30.66 0.05, 40.76 0.44 M38.64 -1.29 C39.07 11.55, 38.27 25.22, 41.58 40.45 M40.31 0.15 C40.56 13.25, 39.87 24.55, 40.96 39.67 M40.22 38.53 C26.55 38.5, 15.47 38.94, -1.69 39.82 M39.89 39.94 C25.34 39.95, 10.57 40.36, -0.49 40.59 M-1.75 40.46 C-0.26 32.94, 1.05 23.16, -0.58 -0.52 M-0.47 40.73 C0.69 29.75, -1.16 21, 0.9 -0.29" stroke="#838383" stroke-width="4" fill="none"/></g></svg>