<svg version="1.1" xmlns="http://www.w3.org/2000/svg" viewBox="0 0 158.61925353844245 158.22013214352967" width="158.61925353844245" height="158.22013214352967">
  <!-- svg-source:excalidraw -->
  
  <defs>
    <style class="style-fonts">
      @font-face {
        font-family: "Virgil";
        src: url("https://excalidraw.com/Virgil.woff2");
      }
      @font-face {
        font-family: "Cascadia";
        src: url("https://excalidraw.com/Cascadia.woff2");
      }
    </style>
    
  </defs>
  <g stroke-linecap="round"><g transform="translate(18.377940823613613 58.79275928698348) rotate(89.99999999999994 37.78852912674395 2.842170943040401e-14)"><path d="M0 0 C22.02 0, 44.04 0, 75.58 0 M0 0 C19.92 0, 39.84 0, 75.58 0" stroke="#69db7c" stroke-width="4" fill="none"/></g></g><mask/><g stroke-linecap="round"><g stroke-opacity="0.2" fill-opacity="0.2" transform="translate(56.631642078125736 102.32685773715195) rotate(0 -20.39827255173101 -23.36883827349928)" fill-rule="evenodd"><path d="M0 0 L0 -87.13 L-40.8 -46.33 L-40.8 40.39 L0 0" stroke="none" stroke-width="0" fill="#b2f2bb" fill-rule="evenodd"/><path d="M0 0 C0 -30.82, 0 -61.63, 0 -87.13 M0 0 C0 -23.87, 0 -47.73, 0 -87.13 M0 -87.13 C-9.03 -78.09, -18.07 -69.06, -40.8 -46.33 M0 -87.13 C-10.27 -76.86, -20.54 -66.59, -40.8 -46.33 M-40.8 -46.33 C-40.8 -23.36, -40.8 -0.4, -40.8 40.39 M-40.8 -46.33 C-40.8 -28.08, -40.8 -9.83, -40.8 40.39 M-40.8 40.39 C-29.27 28.98, -17.74 17.57, 0 0 M-40.8 40.39 C-30.57 30.27, -20.34 20.14, 0 0 M0 0 C0 0, 0 0, 0 0 M0 0 C0 0, 0 0, 0 0" stroke="transparent" stroke-width="4" fill="none"/></g></g><mask/><g stroke-opacity="0.2" fill-opacity="0.2" stroke-linecap="round" transform="translate(56.795291399331944 15.582179842625294) rotate(0 42.893609761627914 43.16676762707175)"><path d="M0 0 L85.79 0 L85.79 86.33 L0 86.33" stroke="none" stroke-width="0" fill="#d0bfff"/><path d="M0 0 C27.69 0, 55.38 0, 85.79 0 M0 0 C18.54 0, 37.08 0, 85.79 0 M85.79 0 C85.79 21.67, 85.79 43.34, 85.79 86.33 M85.79 0 C85.79 34.26, 85.79 68.52, 85.79 86.33 M85.79 86.33 C53.29 86.33, 20.78 86.33, 0 86.33 M85.79 86.33 C64.94 86.33, 44.08 86.33, 0 86.33 M0 86.33 C0 59.12, 0 31.91, 0 0 M0 86.33 C0 53.31, 0 20.28, 0 0" stroke="transparent" stroke-width="0.5" fill="none"/></g><g stroke-linecap="round"><g transform="translate(56.33360167600179 15.0776061520707) rotate(0 23.027322023702283 20.510714548533457)" fill-rule="evenodd"><path d="M0 0 L-41.02 41.02 L46.31 41.02 L87.08 0.26 L0 0" stroke="none" stroke-width="0" fill="#d0bfffcc" fill-rule="evenodd"/><path d="M0 0 C-13.8 13.8, -27.61 27.61, -41.02 41.02 M0 0 C-15.08 15.08, -30.15 30.15, -41.02 41.02 M-41.02 41.02 C-19.16 41.02, 2.71 41.02, 46.31 41.02 M-41.02 41.02 C-20.95 41.02, -0.88 41.02, 46.31 41.02 M46.31 41.02 C54.91 32.42, 63.51 23.82, 87.08 0.26 M46.31 41.02 C55.86 31.47, 65.41 21.93, 87.08 0.26 M87.08 0.26 C68.93 0.2, 50.77 0.15, 0 0 M87.08 0.26 C62.91 0.19, 38.74 0.11, 0 0 M0 0 C0 0, 0 0, 0 0 M0 0 C0 0, 0 0, 0 0" stroke="transparent" stroke-width="4" fill="none"/></g></g><mask/><g stroke-linecap="round"><g transform="translate(61.90170755438194 102.23535493969666) rotate(0 37.23778494699522 0)"><path d="M0 0 C26.57 0, 53.15 0, 74.48 0 M0 0 C28.83 0, 57.66 0, 74.48 0" stroke="#69db7c" stroke-width="4" fill="none"/></g></g><mask/><g stroke-linecap="round"><g transform="translate(143.04457900192497 15.144640019573785) rotate(0 -20.11154816644182 64.09351501998188)" fill-rule="evenodd"><path d="M0 0 L-40.47 40.47 L-40.47 128.19 L0.25 87.46 L0 0" stroke="none" stroke-width="0" fill="#ffc9c9" fill-rule="evenodd"/><path d="M0 0 C-12.77 12.77, -25.55 25.55, -40.47 40.47 M0 0 C-12.23 12.23, -24.46 24.46, -40.47 40.47 M-40.47 40.47 C-40.47 63.11, -40.47 85.74, -40.47 128.19 M-40.47 40.47 C-40.47 66.39, -40.47 92.31, -40.47 128.19 M-40.47 128.19 C-25.87 113.59, -11.27 98.98, 0.25 87.46 M-40.47 128.19 C-26.89 114.6, -13.3 101.02, 0.25 87.46 M0.25 87.46 C0.15 53.39, 0.06 19.33, 0 0 M0.25 87.46 C0.18 63.18, 0.11 38.9, 0 0 M0 0 C0 0, 0 0, 0 0 M0 0 C0 0, 0 0, 0 0" stroke="transparent" stroke-width="4" fill="none"/></g></g><mask/><g stroke-linecap="round"><g transform="translate(12.97631597514652 122.6902984801215) rotate(315 23.013977000390113 2.842170943040401e-14)"><path d="M0 0 C13.15 0, 26.31 0, 46.03 0 M0 0 C14.95 0, 29.91 0, 46.03 0" stroke="#69db7c" stroke-width="4" fill="none"/></g></g><mask/><g stroke-opacity="0.9" fill-opacity="0.9" stroke-linecap="round" transform="translate(50.84146417848339 97.03989634253202) rotate(0 5.325005771874174 5.195458597164617)"><path d="M10.65 5.2 C10.65 5.5, 10.62 5.8, 10.57 6.1 C10.52 6.39, 10.43 6.69, 10.33 6.97 C10.22 7.26, 10.09 7.53, 9.94 7.79 C9.78 8.05, 9.6 8.3, 9.4 8.54 C9.21 8.77, 8.98 8.98, 8.75 9.18 C8.51 9.37, 8.25 9.54, 7.99 9.69 C7.72 9.85, 7.44 9.97, 7.15 10.08 C6.86 10.18, 6.55 10.26, 6.25 10.31 C5.95 10.36, 5.63 10.39, 5.33 10.39 C5.02 10.39, 4.7 10.36, 4.4 10.31 C4.1 10.26, 3.79 10.18, 3.5 10.08 C3.21 9.97, 2.93 9.85, 2.66 9.69 C2.4 9.54, 2.14 9.37, 1.9 9.18 C1.67 8.98, 1.44 8.77, 1.25 8.54 C1.05 8.3, 0.87 8.05, 0.71 7.79 C0.56 7.53, 0.43 7.26, 0.32 6.97 C0.22 6.69, 0.13 6.39, 0.08 6.1 C0.03 5.8, 0 5.5, 0 5.2 C0 4.89, 0.03 4.59, 0.08 4.29 C0.13 4, 0.22 3.7, 0.32 3.42 C0.43 3.14, 0.56 2.86, 0.71 2.6 C0.87 2.34, 1.05 2.09, 1.25 1.86 C1.44 1.63, 1.67 1.41, 1.9 1.22 C2.14 1.02, 2.4 0.85, 2.66 0.7 C2.93 0.55, 3.21 0.42, 3.5 0.31 C3.79 0.21, 4.1 0.13, 4.4 0.08 C4.7 0.03, 5.02 0, 5.33 0 C5.63 0, 5.95 0.03, 6.25 0.08 C6.55 0.13, 6.86 0.21, 7.15 0.31 C7.44 0.42, 7.72 0.55, 7.99 0.7 C8.25 0.85, 8.51 1.02, 8.75 1.22 C8.98 1.41, 9.21 1.63, 9.4 1.86 C9.6 2.09, 9.78 2.34, 9.94 2.6 C10.09 2.86, 10.22 3.14, 10.33 3.42 C10.43 3.7, 10.52 4, 10.57 4.29 C10.62 4.59, 10.64 5.05, 10.65 5.2 C10.66 5.35, 10.66 5.05, 10.65 5.2" stroke="none" stroke-width="0" fill="#b2f2bb"/><path d="M10.65 5.2 C10.65 5.5, 10.62 5.8, 10.57 6.1 C10.52 6.39, 10.43 6.69, 10.33 6.97 C10.22 7.26, 10.09 7.53, 9.94 7.79 C9.78 8.05, 9.6 8.3, 9.4 8.54 C9.21 8.77, 8.98 8.98, 8.75 9.18 C8.51 9.37, 8.25 9.54, 7.99 9.69 C7.72 9.85, 7.44 9.97, 7.15 10.08 C6.86 10.18, 6.55 10.26, 6.25 10.31 C5.95 10.36, 5.63 10.39, 5.33 10.39 C5.02 10.39, 4.7 10.36, 4.4 10.31 C4.1 10.26, 3.79 10.18, 3.5 10.08 C3.21 9.97, 2.93 9.85, 2.66 9.69 C2.4 9.54, 2.14 9.37, 1.9 9.18 C1.67 8.98, 1.44 8.77, 1.25 8.54 C1.05 8.3, 0.87 8.05, 0.71 7.79 C0.56 7.53, 0.43 7.26, 0.32 6.97 C0.22 6.69, 0.13 6.39, 0.08 6.1 C0.03 5.8, 0 5.5, 0 5.2 C0 4.89, 0.03 4.59, 0.08 4.29 C0.13 4, 0.22 3.7, 0.32 3.42 C0.43 3.14, 0.56 2.86, 0.71 2.6 C0.87 2.34, 1.05 2.09, 1.25 1.86 C1.44 1.63, 1.67 1.41, 1.9 1.22 C2.14 1.02, 2.4 0.85, 2.66 0.7 C2.93 0.55, 3.21 0.42, 3.5 0.31 C3.79 0.21, 4.1 0.13, 4.4 0.08 C4.7 0.03, 5.02 0, 5.33 0 C5.63 0, 5.95 0.03, 6.25 0.08 C6.55 0.13, 6.86 0.21, 7.15 0.31 C7.44 0.42, 7.72 0.55, 7.99 0.7 C8.25 0.85, 8.51 1.02, 8.75 1.22 C8.98 1.41, 9.21 1.63, 9.4 1.86 C9.6 2.09, 9.78 2.34, 9.94 2.6 C10.09 2.86, 10.22 3.14, 10.33 3.42 C10.43 3.7, 10.52 4, 10.57 4.29 C10.62 4.59, 10.64 5.05, 10.65 5.2 C10.66 5.35, 10.66 5.05, 10.65 5.2" stroke="#40c057" stroke-width="4" fill="none"/></g><g stroke-linecap="round" transform="translate(15.883326152715853 55.549136873034) rotate(0 42.851613683279226 43.477125318633085)"><path d="M0 0 L85.7 0 L85.7 86.95 L0 86.95" stroke="none" stroke-width="0" fill="#a5d8ffcc"/><path d="M0 0 C22.5 0, 45.01 0, 85.7 0 M0 0 C17.67 0, 35.35 0, 85.7 0 M85.7 0 C85.7 31.64, 85.7 63.28, 85.7 86.95 M85.7 0 C85.7 32.65, 85.7 65.29, 85.7 86.95 M85.7 86.95 C54.87 86.95, 24.04 86.95, 0 86.95 M85.7 86.95 C66.75 86.95, 47.79 86.95, 0 86.95 M0 86.95 C0 53.25, 0 19.54, 0 0 M0 86.95 C0 59.86, 0 32.78, 0 0" stroke="transparent" stroke-width="0.5" fill="none"/></g><g stroke-linecap="round"><g transform="translate(21.62902820002799 143.02467354636508) rotate(0 37.59228500265064 0)"><path d="M0 0 C24.98 0, 49.96 0, 75.18 0 M0 0 C27.78 0, 55.56 0, 75.18 0" stroke="#fa5252" stroke-width="4" fill="none"/></g></g><mask/><g stroke-linecap="round"><g transform="translate(-22.953146408083 99.62710697493037) rotate(89.99999999999994 38.27815217995719 2.842170943040401e-14)"><path d="M0 0 C29.9 0, 59.8 0, 76.56 0 M0 0 C26.2 0, 52.4 0, 76.56 0" stroke="#228be6" stroke-width="4" fill="none"/></g></g><mask/><g stroke-linecap="round"><g transform="translate(62.24873184502857 15.195458597164588) rotate(0 37.697228698916234 0)"><path d="M0 0 C25.31 0, 50.62 0, 75.39 0 M0 0 C27.08 0, 54.17 0, 75.39 0" stroke="#7950f2" stroke-width="4" fill="none"/></g></g><mask/><g stroke-linecap="round"><g transform="translate(21.24871191988521 55.75783297951432) rotate(0 37.92704753413733 0)"><path d="M0 0 C30.28 0, 60.57 0, 75.85 0 M0 0 C24.31 0, 48.63 0, 75.85 0" stroke="#228be6" stroke-width="4" fill="none"/></g></g><mask/><g stroke-linecap="round"><g transform="translate(105.23816941542682 58.7528741077881) rotate(89.99999999999994 38.05607835114145 2.842170943040401e-14)"><path d="M0 0 C20 0, 40 0, 76.11 0 M0 0 C29.32 0, 58.64 0, 76.11 0" stroke="#7950f2" stroke-width="4" fill="none"/></g></g><mask/><g stroke-linecap="round"><g transform="translate(99.69680179505829 35.743034295021175) rotate(315 23.159423199522905 2.842170943040401e-14)"><path d="M0 0 C14.23 0, 28.46 0, 46.32 0 M0 0 C18.31 0, 36.62 0, 46.32 0" stroke="#7950f2" stroke-width="4" fill="none"/></g></g><mask/><g stroke-linecap="round"><g transform="translate(100.25809186843222 122.89440685495197) rotate(315 22.50424236308774 0)"><path d="M0 0 C16.53 0, 33.07 0, 45.01 0 M0 0 C13.06 0, 26.11 0, 45.01 0" stroke="#fa5252" stroke-width="4" fill="none"/></g></g><mask/><g stroke-linecap="round"><g transform="translate(64.31759787554242 99.05789568699282) rotate(89.99999999999994 38.16373507703719 2.842170943040401e-14)"><path d="M0 0 C27.12 0, 54.23 0, 76.33 0 M0 0 C30.02 0, 60.04 0, 76.33 0" stroke="#fa5252" stroke-width="4" fill="none"/></g></g><mask/><g stroke-linecap="round"><g transform="translate(13.068976199442062 35.641849038215184) rotate(315 22.42918441181962 0)"><path d="M0 0 C10.03 0, 20.06 0, 44.86 0 M0 0 C14.53 0, 29.05 0, 44.86 0" stroke="#228be6" stroke-width="4" fill="none"/></g></g><mask/><g stroke-opacity="0.9" fill-opacity="0.9" stroke-linecap="round" transform="translate(137.96924199469404 9.999999999999943) rotate(0 5.325005771874174 5.195458597164617)"><path d="M10.65 5.2 C10.65 5.5, 10.62 5.8, 10.57 6.1 C10.52 6.39, 10.43 6.69, 10.33 6.97 C10.22 7.26, 10.09 7.53, 9.94 7.79 C9.78 8.05, 9.6 8.3, 9.4 8.54 C9.21 8.77, 8.98 8.98, 8.75 9.18 C8.51 9.37, 8.25 9.54, 7.99 9.69 C7.72 9.85, 7.44 9.97, 7.15 10.08 C6.86 10.18, 6.55 10.26, 6.25 10.31 C5.95 10.36, 5.63 10.39, 5.33 10.39 C5.02 10.39, 4.7 10.36, 4.4 10.31 C4.1 10.26, 3.79 10.18, 3.5 10.08 C3.21 9.97, 2.93 9.85, 2.66 9.69 C2.4 9.54, 2.14 9.37, 1.9 9.18 C1.67 8.98, 1.44 8.77, 1.25 8.54 C1.05 8.3, 0.87 8.05, 0.71 7.79 C0.56 7.53, 0.43 7.26, 0.32 6.97 C0.22 6.69, 0.13 6.39, 0.08 6.1 C0.03 5.8, 0 5.5, 0 5.2 C0 4.89, 0.03 4.59, 0.08 4.29 C0.13 4, 0.22 3.7, 0.32 3.42 C0.43 3.14, 0.56 2.86, 0.71 2.6 C0.87 2.34, 1.05 2.09, 1.25 1.86 C1.44 1.63, 1.67 1.41, 1.9 1.22 C2.14 1.02, 2.4 0.85, 2.66 0.7 C2.93 0.55, 3.21 0.42, 3.5 0.31 C3.79 0.21, 4.1 0.13, 4.4 0.08 C4.7 0.03, 5.02 0, 5.33 0 C5.63 0, 5.95 0.03, 6.25 0.08 C6.55 0.13, 6.86 0.21, 7.15 0.31 C7.44 0.42, 7.72 0.55, 7.99 0.7 C8.25 0.85, 8.51 1.02, 8.75 1.22 C8.98 1.41, 9.21 1.63, 9.4 1.86 C9.6 2.09, 9.78 2.34, 9.94 2.6 C10.09 2.86, 10.22 3.14, 10.33 3.42 C10.43 3.7, 10.52 4, 10.57 4.29 C10.62 4.59, 10.64 5.05, 10.65 5.2 C10.66 5.35, 10.66 5.05, 10.65 5.2" stroke="none" stroke-width="0" fill="#d0bfff"/><path d="M10.65 5.2 C10.65 5.5, 10.62 5.8, 10.57 6.1 C10.52 6.39, 10.43 6.69, 10.33 6.97 C10.22 7.26, 10.09 7.53, 9.94 7.79 C9.78 8.05, 9.6 8.3, 9.4 8.54 C9.21 8.77, 8.98 8.98, 8.75 9.18 C8.51 9.37, 8.25 9.54, 7.99 9.69 C7.72 9.85, 7.44 9.97, 7.15 10.08 C6.86 10.18, 6.55 10.26, 6.25 10.31 C5.95 10.36, 5.63 10.39, 5.33 10.39 C5.02 10.39, 4.7 10.36, 4.4 10.31 C4.1 10.26, 3.79 10.18, 3.5 10.08 C3.21 9.97, 2.93 9.85, 2.66 9.69 C2.4 9.54, 2.14 9.37, 1.9 9.18 C1.67 8.98, 1.44 8.77, 1.25 8.54 C1.05 8.3, 0.87 8.05, 0.71 7.79 C0.56 7.53, 0.43 7.26, 0.32 6.97 C0.22 6.69, 0.13 6.39, 0.08 6.1 C0.03 5.8, 0 5.5, 0 5.2 C0 4.89, 0.03 4.59, 0.08 4.29 C0.13 4, 0.22 3.7, 0.32 3.42 C0.43 3.14, 0.56 2.86, 0.71 2.6 C0.87 2.34, 1.05 2.09, 1.25 1.86 C1.44 1.63, 1.67 1.41, 1.9 1.22 C2.14 1.02, 2.4 0.85, 2.66 0.7 C2.93 0.55, 3.21 0.42, 3.5 0.31 C3.79 0.21, 4.1 0.13, 4.4 0.08 C4.7 0.03, 5.02 0, 5.33 0 C5.63 0, 5.95 0.03, 6.25 0.08 C6.55 0.13, 6.86 0.21, 7.15 0.31 C7.44 0.42, 7.72 0.55, 7.99 0.7 C8.25 0.85, 8.51 1.02, 8.75 1.22 C8.98 1.41, 9.21 1.63, 9.4 1.86 C9.6 2.09, 9.78 2.34, 9.94 2.6 C10.09 2.86, 10.22 3.14, 10.33 3.42 C10.43 3.7, 10.52 4, 10.57 4.29 C10.62 4.59, 10.64 5.05, 10.65 5.2 C10.66 5.35, 10.66 5.05, 10.65 5.2" stroke="#7950f2" stroke-width="4" fill="none"/></g><g stroke-opacity="0.9" fill-opacity="0.9" stroke-linecap="round" transform="translate(137.96924199469404 97.03989634253202) rotate(0 5.325005771874174 5.195458597164617)"><path d="M10.65 5.2 C10.65 5.5, 10.62 5.8, 10.57 6.1 C10.52 6.39, 10.43 6.69, 10.33 6.97 C10.22 7.26, 10.09 7.53, 9.94 7.79 C9.78 8.05, 9.6 8.3, 9.4 8.54 C9.21 8.77, 8.98 8.98, 8.75 9.18 C8.51 9.37, 8.25 9.54, 7.99 9.69 C7.72 9.85, 7.44 9.97, 7.15 10.08 C6.86 10.18, 6.55 10.26, 6.25 10.31 C5.95 10.36, 5.63 10.39, 5.33 10.39 C5.02 10.39, 4.7 10.36, 4.4 10.31 C4.1 10.26, 3.79 10.18, 3.5 10.08 C3.21 9.97, 2.93 9.85, 2.66 9.69 C2.4 9.54, 2.14 9.37, 1.9 9.18 C1.67 8.98, 1.44 8.77, 1.25 8.54 C1.05 8.3, 0.87 8.05, 0.71 7.79 C0.56 7.53, 0.43 7.26, 0.32 6.97 C0.22 6.69, 0.13 6.39, 0.08 6.1 C0.03 5.8, 0 5.5, 0 5.2 C0 4.89, 0.03 4.59, 0.08 4.29 C0.13 4, 0.22 3.7, 0.32 3.42 C0.43 3.14, 0.56 2.86, 0.71 2.6 C0.87 2.34, 1.05 2.09, 1.25 1.86 C1.44 1.63, 1.67 1.41, 1.9 1.22 C2.14 1.02, 2.4 0.85, 2.66 0.7 C2.93 0.55, 3.21 0.42, 3.5 0.31 C3.79 0.21, 4.1 0.13, 4.4 0.08 C4.7 0.03, 5.02 0, 5.33 0 C5.63 0, 5.95 0.03, 6.25 0.08 C6.55 0.13, 6.86 0.21, 7.15 0.31 C7.44 0.42, 7.72 0.55, 7.99 0.7 C8.25 0.85, 8.51 1.02, 8.75 1.22 C8.98 1.41, 9.21 1.63, 9.4 1.86 C9.6 2.09, 9.78 2.34, 9.94 2.6 C10.09 2.86, 10.22 3.14, 10.33 3.42 C10.43 3.7, 10.52 4, 10.57 4.29 C10.62 4.59, 10.64 5.05, 10.65 5.2 C10.66 5.35, 10.66 5.05, 10.65 5.2" stroke="none" stroke-width="0" fill="#ffc9c9"/><path d="M10.65 5.2 C10.65 5.5, 10.62 5.8, 10.57 6.1 C10.52 6.39, 10.43 6.69, 10.33 6.97 C10.22 7.26, 10.09 7.53, 9.94 7.79 C9.78 8.05, 9.6 8.3, 9.4 8.54 C9.21 8.77, 8.98 8.98, 8.75 9.18 C8.51 9.37, 8.25 9.54, 7.99 9.69 C7.72 9.85, 7.44 9.97, 7.15 10.08 C6.86 10.18, 6.55 10.26, 6.25 10.31 C5.95 10.36, 5.63 10.39, 5.33 10.39 C5.02 10.39, 4.7 10.36, 4.4 10.31 C4.1 10.26, 3.79 10.18, 3.5 10.08 C3.21 9.97, 2.93 9.85, 2.66 9.69 C2.4 9.54, 2.14 9.37, 1.9 9.18 C1.67 8.98, 1.44 8.77, 1.25 8.54 C1.05 8.3, 0.87 8.05, 0.71 7.79 C0.56 7.53, 0.43 7.26, 0.32 6.97 C0.22 6.69, 0.13 6.39, 0.08 6.1 C0.03 5.8, 0 5.5, 0 5.2 C0 4.89, 0.03 4.59, 0.08 4.29 C0.13 4, 0.22 3.7, 0.32 3.42 C0.43 3.14, 0.56 2.86, 0.71 2.6 C0.87 2.34, 1.05 2.09, 1.25 1.86 C1.44 1.63, 1.67 1.41, 1.9 1.22 C2.14 1.02, 2.4 0.85, 2.66 0.7 C2.93 0.55, 3.21 0.42, 3.5 0.31 C3.79 0.21, 4.1 0.13, 4.4 0.08 C4.7 0.03, 5.02 0, 5.33 0 C5.63 0, 5.95 0.03, 6.25 0.08 C6.55 0.13, 6.86 0.21, 7.15 0.31 C7.44 0.42, 7.72 0.55, 7.99 0.7 C8.25 0.85, 8.51 1.02, 8.75 1.22 C8.98 1.41, 9.21 1.63, 9.4 1.86 C9.6 2.09, 9.78 2.34, 9.94 2.6 C10.09 2.86, 10.22 3.14, 10.33 3.42 C10.43 3.7, 10.52 4, 10.57 4.29 C10.62 4.59, 10.64 5.05, 10.65 5.2 C10.66 5.35, 10.66 5.05, 10.65 5.2" stroke="#fa5252" stroke-width="4" fill="none"/></g><g stroke-opacity="0.9" fill-opacity="0.9" stroke-linecap="round" transform="translate(50.84146417848339 9.999999999999943) rotate(0 5.325005771874174 5.195458597164617)"><path d="M10.65 5.2 C10.65 5.5, 10.62 5.8, 10.57 6.1 C10.52 6.39, 10.43 6.69, 10.33 6.97 C10.22 7.26, 10.09 7.53, 9.94 7.79 C9.78 8.05, 9.6 8.3, 9.4 8.54 C9.21 8.77, 8.98 8.98, 8.75 9.18 C8.51 9.37, 8.25 9.54, 7.99 9.69 C7.72 9.85, 7.44 9.97, 7.15 10.08 C6.86 10.18, 6.55 10.26, 6.25 10.31 C5.95 10.36, 5.63 10.39, 5.33 10.39 C5.02 10.39, 4.7 10.36, 4.4 10.31 C4.1 10.26, 3.79 10.18, 3.5 10.08 C3.21 9.97, 2.93 9.85, 2.66 9.69 C2.4 9.54, 2.14 9.37, 1.9 9.18 C1.67 8.98, 1.44 8.77, 1.25 8.54 C1.05 8.3, 0.87 8.05, 0.71 7.79 C0.56 7.53, 0.43 7.26, 0.32 6.97 C0.22 6.69, 0.13 6.39, 0.08 6.1 C0.03 5.8, 0 5.5, 0 5.2 C0 4.89, 0.03 4.59, 0.08 4.29 C0.13 4, 0.22 3.7, 0.32 3.42 C0.43 3.14, 0.56 2.86, 0.71 2.6 C0.87 2.34, 1.05 2.09, 1.25 1.86 C1.44 1.63, 1.67 1.41, 1.9 1.22 C2.14 1.02, 2.4 0.85, 2.66 0.7 C2.93 0.55, 3.21 0.42, 3.5 0.31 C3.79 0.21, 4.1 0.13, 4.4 0.08 C4.7 0.03, 5.02 0, 5.33 0 C5.63 0, 5.95 0.03, 6.25 0.08 C6.55 0.13, 6.86 0.21, 7.15 0.31 C7.44 0.42, 7.72 0.55, 7.99 0.7 C8.25 0.85, 8.51 1.02, 8.75 1.22 C8.98 1.41, 9.21 1.63, 9.4 1.86 C9.6 2.09, 9.78 2.34, 9.94 2.6 C10.09 2.86, 10.22 3.14, 10.33 3.42 C10.43 3.7, 10.52 4, 10.57 4.29 C10.62 4.59, 10.64 5.05, 10.65 5.2 C10.66 5.35, 10.66 5.05, 10.65 5.2" stroke="none" stroke-width="0" fill="#a5d8ff"/><path d="M10.65 5.2 C10.65 5.5, 10.62 5.8, 10.57 6.1 C10.52 6.39, 10.43 6.69, 10.33 6.97 C10.22 7.26, 10.09 7.53, 9.94 7.79 C9.78 8.05, 9.6 8.3, 9.4 8.54 C9.21 8.77, 8.98 8.98, 8.75 9.18 C8.51 9.37, 8.25 9.54, 7.99 9.69 C7.72 9.85, 7.44 9.97, 7.15 10.08 C6.86 10.18, 6.55 10.26, 6.25 10.31 C5.95 10.36, 5.63 10.39, 5.33 10.39 C5.02 10.39, 4.7 10.36, 4.4 10.31 C4.1 10.26, 3.79 10.18, 3.5 10.08 C3.21 9.97, 2.93 9.85, 2.66 9.69 C2.4 9.54, 2.14 9.37, 1.9 9.18 C1.67 8.98, 1.44 8.77, 1.25 8.54 C1.05 8.3, 0.87 8.05, 0.71 7.79 C0.56 7.53, 0.43 7.26, 0.32 6.97 C0.22 6.69, 0.13 6.39, 0.08 6.1 C0.03 5.8, 0 5.5, 0 5.2 C0 4.89, 0.03 4.59, 0.08 4.29 C0.13 4, 0.22 3.7, 0.32 3.42 C0.43 3.14, 0.56 2.86, 0.71 2.6 C0.87 2.34, 1.05 2.09, 1.25 1.86 C1.44 1.63, 1.67 1.41, 1.9 1.22 C2.14 1.02, 2.4 0.85, 2.66 0.7 C2.93 0.55, 3.21 0.42, 3.5 0.31 C3.79 0.21, 4.1 0.13, 4.4 0.08 C4.7 0.03, 5.02 0, 5.33 0 C5.63 0, 5.95 0.03, 6.25 0.08 C6.55 0.13, 6.86 0.21, 7.15 0.31 C7.44 0.42, 7.72 0.55, 7.99 0.7 C8.25 0.85, 8.51 1.02, 8.75 1.22 C8.98 1.41, 9.21 1.63, 9.4 1.86 C9.6 2.09, 9.78 2.34, 9.94 2.6 C10.09 2.86, 10.22 3.14, 10.33 3.42 C10.43 3.7, 10.52 4, 10.57 4.29 C10.62 4.59, 10.64 5.05, 10.65 5.2 C10.66 5.35, 10.66 5.05, 10.65 5.2" stroke="#228be6" stroke-width="4" fill="none"/></g><g stroke-opacity="0.9" fill-opacity="0.9" stroke-linecap="round" transform="translate(97.15632718070546 50.562374382349674) rotate(0 5.325005771874174 5.195458597164617)"><path d="M10.65 5.2 C10.65 5.5, 10.62 5.8, 10.57 6.1 C10.52 6.39, 10.43 6.69, 10.33 6.97 C10.22 7.26, 10.09 7.53, 9.94 7.79 C9.78 8.05, 9.6 8.3, 9.4 8.54 C9.21 8.77, 8.98 8.98, 8.75 9.18 C8.51 9.37, 8.25 9.54, 7.99 9.69 C7.72 9.85, 7.44 9.97, 7.15 10.08 C6.86 10.18, 6.55 10.26, 6.25 10.31 C5.95 10.36, 5.63 10.39, 5.33 10.39 C5.02 10.39, 4.7 10.36, 4.4 10.31 C4.1 10.26, 3.79 10.18, 3.5 10.08 C3.21 9.97, 2.93 9.85, 2.66 9.69 C2.4 9.54, 2.14 9.37, 1.9 9.18 C1.67 8.98, 1.44 8.77, 1.25 8.54 C1.05 8.3, 0.87 8.05, 0.71 7.79 C0.56 7.53, 0.43 7.26, 0.32 6.97 C0.22 6.69, 0.13 6.39, 0.08 6.1 C0.03 5.8, 0 5.5, 0 5.2 C0 4.89, 0.03 4.59, 0.08 4.29 C0.13 4, 0.22 3.7, 0.32 3.42 C0.43 3.14, 0.56 2.86, 0.71 2.6 C0.87 2.34, 1.05 2.09, 1.25 1.86 C1.44 1.63, 1.67 1.41, 1.9 1.22 C2.14 1.02, 2.4 0.85, 2.66 0.7 C2.93 0.55, 3.21 0.42, 3.5 0.31 C3.79 0.21, 4.1 0.13, 4.4 0.08 C4.7 0.03, 5.02 0, 5.33 0 C5.63 0, 5.95 0.03, 6.25 0.08 C6.55 0.13, 6.86 0.21, 7.15 0.31 C7.44 0.42, 7.72 0.55, 7.99 0.7 C8.25 0.85, 8.51 1.02, 8.75 1.22 C8.98 1.41, 9.21 1.63, 9.4 1.86 C9.6 2.09, 9.78 2.34, 9.94 2.6 C10.09 2.86, 10.22 3.14, 10.33 3.42 C10.43 3.7, 10.52 4, 10.57 4.29 C10.62 4.59, 10.64 5.05, 10.65 5.2 C10.66 5.35, 10.66 5.05, 10.65 5.2" stroke="none" stroke-width="0" fill="#d0bfff"/><path d="M10.65 5.2 C10.65 5.5, 10.62 5.8, 10.57 6.1 C10.52 6.39, 10.43 6.69, 10.33 6.97 C10.22 7.26, 10.09 7.53, 9.94 7.79 C9.78 8.05, 9.6 8.3, 9.4 8.54 C9.21 8.77, 8.98 8.98, 8.75 9.18 C8.51 9.37, 8.25 9.54, 7.99 9.69 C7.72 9.85, 7.44 9.97, 7.15 10.08 C6.86 10.18, 6.55 10.26, 6.25 10.31 C5.95 10.36, 5.63 10.39, 5.33 10.39 C5.02 10.39, 4.7 10.36, 4.4 10.31 C4.1 10.26, 3.79 10.18, 3.5 10.08 C3.21 9.97, 2.93 9.85, 2.66 9.69 C2.4 9.54, 2.14 9.37, 1.9 9.18 C1.67 8.98, 1.44 8.77, 1.25 8.54 C1.05 8.3, 0.87 8.05, 0.71 7.79 C0.56 7.53, 0.43 7.26, 0.32 6.97 C0.22 6.69, 0.13 6.39, 0.08 6.1 C0.03 5.8, 0 5.5, 0 5.2 C0 4.89, 0.03 4.59, 0.08 4.29 C0.13 4, 0.22 3.7, 0.32 3.42 C0.43 3.14, 0.56 2.86, 0.71 2.6 C0.87 2.34, 1.05 2.09, 1.25 1.86 C1.44 1.63, 1.67 1.41, 1.9 1.22 C2.14 1.02, 2.4 0.85, 2.66 0.7 C2.93 0.55, 3.21 0.42, 3.5 0.31 C3.79 0.21, 4.1 0.13, 4.4 0.08 C4.7 0.03, 5.02 0, 5.33 0 C5.63 0, 5.95 0.03, 6.25 0.08 C6.55 0.13, 6.86 0.21, 7.15 0.31 C7.44 0.42, 7.72 0.55, 7.99 0.7 C8.25 0.85, 8.51 1.02, 8.75 1.22 C8.98 1.41, 9.21 1.63, 9.4 1.86 C9.6 2.09, 9.78 2.34, 9.94 2.6 C10.09 2.86, 10.22 3.14, 10.33 3.42 C10.43 3.7, 10.52 4, 10.57 4.29 C10.62 4.59, 10.64 5.05, 10.65 5.2 C10.66 5.35, 10.66 5.05, 10.65 5.2" stroke="#7950f2" stroke-width="4" fill="none"/></g><g stroke-opacity="0.9" fill-opacity="0.9" stroke-linecap="round" transform="translate(10 137.82921494920043) rotate(0 5.325005771874174 5.195458597164617)"><path d="M10.65 5.2 C10.65 5.5, 10.62 5.8, 10.57 6.1 C10.52 6.39, 10.43 6.69, 10.33 6.97 C10.22 7.26, 10.09 7.53, 9.94 7.79 C9.78 8.05, 9.6 8.3, 9.4 8.54 C9.21 8.77, 8.98 8.98, 8.75 9.18 C8.51 9.37, 8.25 9.54, 7.99 9.69 C7.72 9.85, 7.44 9.97, 7.15 10.08 C6.86 10.18, 6.55 10.26, 6.25 10.31 C5.95 10.36, 5.63 10.39, 5.33 10.39 C5.02 10.39, 4.7 10.36, 4.4 10.31 C4.1 10.26, 3.79 10.18, 3.5 10.08 C3.21 9.97, 2.93 9.85, 2.66 9.69 C2.4 9.54, 2.14 9.37, 1.9 9.18 C1.67 8.98, 1.44 8.77, 1.25 8.54 C1.05 8.3, 0.87 8.05, 0.71 7.79 C0.56 7.53, 0.43 7.26, 0.32 6.97 C0.22 6.69, 0.13 6.39, 0.08 6.1 C0.03 5.8, 0 5.5, 0 5.2 C0 4.89, 0.03 4.59, 0.08 4.29 C0.13 4, 0.22 3.7, 0.32 3.42 C0.43 3.14, 0.56 2.86, 0.71 2.6 C0.87 2.34, 1.05 2.09, 1.25 1.86 C1.44 1.63, 1.67 1.41, 1.9 1.22 C2.14 1.02, 2.4 0.85, 2.66 0.7 C2.93 0.55, 3.21 0.42, 3.5 0.31 C3.79 0.21, 4.1 0.13, 4.4 0.08 C4.7 0.03, 5.02 0, 5.33 0 C5.63 0, 5.95 0.03, 6.25 0.08 C6.55 0.13, 6.86 0.21, 7.15 0.31 C7.44 0.42, 7.72 0.55, 7.99 0.7 C8.25 0.85, 8.51 1.02, 8.75 1.22 C8.98 1.41, 9.21 1.63, 9.4 1.86 C9.6 2.09, 9.78 2.34, 9.94 2.6 C10.09 2.86, 10.22 3.14, 10.33 3.42 C10.43 3.7, 10.52 4, 10.57 4.29 C10.62 4.59, 10.64 5.05, 10.65 5.2 C10.66 5.35, 10.66 5.05, 10.65 5.2" stroke="none" stroke-width="0" fill="#b2f2bb"/><path d="M10.65 5.2 C10.65 5.5, 10.62 5.8, 10.57 6.1 C10.52 6.39, 10.43 6.69, 10.33 6.97 C10.22 7.26, 10.09 7.53, 9.94 7.79 C9.78 8.05, 9.6 8.3, 9.4 8.54 C9.21 8.77, 8.98 8.98, 8.75 9.18 C8.51 9.37, 8.25 9.54, 7.99 9.69 C7.72 9.85, 7.44 9.97, 7.15 10.08 C6.86 10.18, 6.55 10.26, 6.25 10.31 C5.95 10.36, 5.63 10.39, 5.33 10.39 C5.02 10.39, 4.7 10.36, 4.4 10.31 C4.1 10.26, 3.79 10.18, 3.5 10.08 C3.21 9.97, 2.93 9.85, 2.66 9.69 C2.4 9.54, 2.14 9.37, 1.9 9.18 C1.67 8.98, 1.44 8.77, 1.25 8.54 C1.05 8.3, 0.87 8.05, 0.71 7.79 C0.56 7.53, 0.43 7.26, 0.32 6.97 C0.22 6.69, 0.13 6.39, 0.08 6.1 C0.03 5.8, 0 5.5, 0 5.2 C0 4.89, 0.03 4.59, 0.08 4.29 C0.13 4, 0.22 3.7, 0.32 3.42 C0.43 3.14, 0.56 2.86, 0.71 2.6 C0.87 2.34, 1.05 2.09, 1.25 1.86 C1.44 1.63, 1.67 1.41, 1.9 1.22 C2.14 1.02, 2.4 0.85, 2.66 0.7 C2.93 0.55, 3.21 0.42, 3.5 0.31 C3.79 0.21, 4.1 0.13, 4.4 0.08 C4.7 0.03, 5.02 0, 5.33 0 C5.63 0, 5.95 0.03, 6.25 0.08 C6.55 0.13, 6.86 0.21, 7.15 0.31 C7.44 0.42, 7.72 0.55, 7.99 0.7 C8.25 0.85, 8.51 1.02, 8.75 1.22 C8.98 1.41, 9.21 1.63, 9.4 1.86 C9.6 2.09, 9.78 2.34, 9.94 2.6 C10.09 2.86, 10.22 3.14, 10.33 3.42 C10.43 3.7, 10.52 4, 10.57 4.29 C10.62 4.59, 10.64 5.05, 10.65 5.2 C10.66 5.35, 10.66 5.05, 10.65 5.2" stroke="#40c057" stroke-width="4" fill="none"/></g><g stroke-opacity="0.9" fill-opacity="0.9" stroke-linecap="round" transform="translate(97.15632718070546 135.82921494920043) rotate(0 5.325005771874174 5.195458597164617)"><path d="M10.65 5.2 C10.65 5.5, 10.62 5.8, 10.57 6.1 C10.52 6.39, 10.43 6.69, 10.33 6.97 C10.22 7.26, 10.09 7.53, 9.94 7.79 C9.78 8.05, 9.6 8.3, 9.4 8.54 C9.21 8.77, 8.98 8.98, 8.75 9.18 C8.51 9.37, 8.25 9.54, 7.99 9.69 C7.72 9.85, 7.44 9.97, 7.15 10.08 C6.86 10.18, 6.55 10.26, 6.25 10.31 C5.95 10.36, 5.63 10.39, 5.33 10.39 C5.02 10.39, 4.7 10.36, 4.4 10.31 C4.1 10.26, 3.79 10.18, 3.5 10.08 C3.21 9.97, 2.93 9.85, 2.66 9.69 C2.4 9.54, 2.14 9.37, 1.9 9.18 C1.67 8.98, 1.44 8.77, 1.25 8.54 C1.05 8.3, 0.87 8.05, 0.71 7.79 C0.56 7.53, 0.43 7.26, 0.32 6.97 C0.22 6.69, 0.13 6.39, 0.08 6.1 C0.03 5.8, 0 5.5, 0 5.2 C0 4.89, 0.03 4.59, 0.08 4.29 C0.13 4, 0.22 3.7, 0.32 3.42 C0.43 3.14, 0.56 2.86, 0.71 2.6 C0.87 2.34, 1.05 2.09, 1.25 1.86 C1.44 1.63, 1.67 1.41, 1.9 1.22 C2.14 1.02, 2.4 0.85, 2.66 0.7 C2.93 0.55, 3.21 0.42, 3.5 0.31 C3.79 0.21, 4.1 0.13, 4.4 0.08 C4.7 0.03, 5.02 0, 5.33 0 C5.63 0, 5.95 0.03, 6.25 0.08 C6.55 0.13, 6.86 0.21, 7.15 0.31 C7.44 0.42, 7.72 0.55, 7.99 0.7 C8.25 0.85, 8.51 1.02, 8.75 1.22 C8.98 1.41, 9.21 1.63, 9.4 1.86 C9.6 2.09, 9.78 2.34, 9.94 2.6 C10.09 2.86, 10.22 3.14, 10.33 3.42 C10.43 3.7, 10.52 4, 10.57 4.29 C10.62 4.59, 10.64 5.05, 10.65 5.2 C10.66 5.35, 10.66 5.05, 10.65 5.2" stroke="none" stroke-width="0" fill="#ffc9c9"/><path d="M10.65 5.2 C10.65 5.5, 10.62 5.8, 10.57 6.1 C10.52 6.39, 10.43 6.69, 10.33 6.97 C10.22 7.26, 10.09 7.53, 9.94 7.79 C9.78 8.05, 9.6 8.3, 9.4 8.54 C9.21 8.77, 8.98 8.98, 8.75 9.18 C8.51 9.37, 8.25 9.54, 7.99 9.69 C7.72 9.85, 7.44 9.97, 7.15 10.08 C6.86 10.18, 6.55 10.26, 6.25 10.31 C5.95 10.36, 5.63 10.39, 5.33 10.39 C5.02 10.39, 4.7 10.36, 4.4 10.31 C4.1 10.26, 3.79 10.18, 3.5 10.08 C3.21 9.97, 2.93 9.85, 2.66 9.69 C2.4 9.54, 2.14 9.37, 1.9 9.18 C1.67 8.98, 1.44 8.77, 1.25 8.54 C1.05 8.3, 0.87 8.05, 0.71 7.79 C0.56 7.53, 0.43 7.26, 0.32 6.97 C0.22 6.69, 0.13 6.39, 0.08 6.1 C0.03 5.8, 0 5.5, 0 5.2 C0 4.89, 0.03 4.59, 0.08 4.29 C0.13 4, 0.22 3.7, 0.32 3.42 C0.43 3.14, 0.56 2.86, 0.71 2.6 C0.87 2.34, 1.05 2.09, 1.25 1.86 C1.44 1.63, 1.67 1.41, 1.9 1.22 C2.14 1.02, 2.4 0.85, 2.66 0.7 C2.93 0.55, 3.21 0.42, 3.5 0.31 C3.79 0.21, 4.1 0.13, 4.4 0.08 C4.7 0.03, 5.02 0, 5.33 0 C5.63 0, 5.95 0.03, 6.25 0.08 C6.55 0.13, 6.86 0.21, 7.15 0.31 C7.44 0.42, 7.72 0.55, 7.99 0.7 C8.25 0.85, 8.51 1.02, 8.75 1.22 C8.98 1.41, 9.21 1.63, 9.4 1.86 C9.6 2.09, 9.78 2.34, 9.94 2.6 C10.09 2.86, 10.22 3.14, 10.33 3.42 C10.43 3.7, 10.52 4, 10.57 4.29 C10.62 4.59, 10.64 5.05, 10.65 5.2 C10.66 5.35, 10.66 5.05, 10.65 5.2" stroke="#fa5252" stroke-width="4" fill="none"/></g><g stroke-opacity="0.9" fill-opacity="0.9" stroke-linecap="round" transform="translate(10 50.562374382349674) rotate(0 5.325005771874174 5.195458597164617)"><path d="M10.65 5.2 C10.65 5.5, 10.62 5.8, 10.57 6.1 C10.52 6.39, 10.43 6.69, 10.33 6.97 C10.22 7.26, 10.09 7.53, 9.94 7.79 C9.78 8.05, 9.6 8.3, 9.4 8.54 C9.21 8.77, 8.98 8.98, 8.75 9.18 C8.51 9.37, 8.25 9.54, 7.99 9.69 C7.72 9.85, 7.44 9.97, 7.15 10.08 C6.86 10.18, 6.55 10.26, 6.25 10.31 C5.95 10.36, 5.63 10.39, 5.33 10.39 C5.02 10.39, 4.7 10.36, 4.4 10.31 C4.1 10.26, 3.79 10.18, 3.5 10.08 C3.21 9.97, 2.93 9.85, 2.66 9.69 C2.4 9.54, 2.14 9.37, 1.9 9.18 C1.67 8.98, 1.44 8.77, 1.25 8.54 C1.05 8.3, 0.87 8.05, 0.71 7.79 C0.56 7.53, 0.43 7.26, 0.32 6.97 C0.22 6.69, 0.13 6.39, 0.08 6.1 C0.03 5.8, 0 5.5, 0 5.2 C0 4.89, 0.03 4.59, 0.08 4.29 C0.13 4, 0.22 3.7, 0.32 3.42 C0.43 3.14, 0.56 2.86, 0.71 2.6 C0.87 2.34, 1.05 2.09, 1.25 1.86 C1.44 1.63, 1.67 1.41, 1.9 1.22 C2.14 1.02, 2.4 0.85, 2.66 0.7 C2.93 0.55, 3.21 0.42, 3.5 0.31 C3.79 0.21, 4.1 0.13, 4.4 0.08 C4.7 0.03, 5.02 0, 5.33 0 C5.63 0, 5.95 0.03, 6.25 0.08 C6.55 0.13, 6.86 0.21, 7.15 0.31 C7.44 0.42, 7.72 0.55, 7.99 0.7 C8.25 0.85, 8.51 1.02, 8.75 1.22 C8.98 1.41, 9.21 1.63, 9.4 1.86 C9.6 2.09, 9.78 2.34, 9.94 2.6 C10.09 2.86, 10.22 3.14, 10.33 3.42 C10.43 3.7, 10.52 4, 10.57 4.29 C10.62 4.59, 10.64 5.05, 10.65 5.2 C10.66 5.35, 10.66 5.05, 10.65 5.2" stroke="none" stroke-width="0" fill="#a5d8ff"/><path d="M10.65 5.2 C10.65 5.5, 10.62 5.8, 10.57 6.1 C10.52 6.39, 10.43 6.69, 10.33 6.97 C10.22 7.26, 10.09 7.53, 9.94 7.79 C9.78 8.05, 9.6 8.3, 9.4 8.54 C9.21 8.77, 8.98 8.98, 8.75 9.18 C8.51 9.37, 8.25 9.54, 7.99 9.69 C7.72 9.85, 7.44 9.97, 7.15 10.08 C6.86 10.18, 6.55 10.26, 6.25 10.31 C5.95 10.36, 5.63 10.39, 5.33 10.39 C5.02 10.39, 4.7 10.36, 4.4 10.31 C4.1 10.26, 3.79 10.18, 3.5 10.08 C3.21 9.97, 2.93 9.85, 2.66 9.69 C2.4 9.54, 2.14 9.37, 1.9 9.18 C1.67 8.98, 1.44 8.77, 1.25 8.54 C1.05 8.3, 0.87 8.05, 0.71 7.79 C0.56 7.53, 0.43 7.26, 0.32 6.97 C0.22 6.69, 0.13 6.39, 0.08 6.1 C0.03 5.8, 0 5.5, 0 5.2 C0 4.89, 0.03 4.59, 0.08 4.29 C0.13 4, 0.22 3.7, 0.32 3.42 C0.43 3.14, 0.56 2.86, 0.71 2.6 C0.87 2.34, 1.05 2.09, 1.25 1.86 C1.44 1.63, 1.67 1.41, 1.9 1.22 C2.14 1.02, 2.4 0.85, 2.66 0.7 C2.93 0.55, 3.21 0.42, 3.5 0.31 C3.79 0.21, 4.1 0.13, 4.4 0.08 C4.7 0.03, 5.02 0, 5.33 0 C5.63 0, 5.95 0.03, 6.25 0.08 C6.55 0.13, 6.86 0.21, 7.15 0.31 C7.44 0.42, 7.72 0.55, 7.99 0.7 C8.25 0.85, 8.51 1.02, 8.75 1.22 C8.98 1.41, 9.21 1.63, 9.4 1.86 C9.6 2.09, 9.78 2.34, 9.94 2.6 C10.09 2.86, 10.22 3.14, 10.33 3.42 C10.43 3.7, 10.52 4, 10.57 4.29 C10.62 4.59, 10.64 5.05, 10.65 5.2 C10.66 5.35, 10.66 5.05, 10.65 5.2" stroke="#228be6" stroke-width="4" fill="none"/></g></svg>