<svg version="1.1" xmlns="http://www.w3.org/2000/svg" viewBox="0 0 159.80178462174302 159.34944095532035" width="159.80178462174302" height="159.34944095532035">
  <!-- svg-source:excalidraw -->
  
  <defs>
    <style class="style-fonts">
      @font-face {
        font-family: "Virgil";
        src: url("https://excalidraw.com/Virgil.woff2");
      }
      @font-face {
        font-family: "Cascadia";
        src: url("https://excalidraw.com/Cascadia.woff2");
      }
    </style>
    
  </defs>
  <g stroke-linecap="round"><g transform="translate(19.88280394637013 60.475407347430746) rotate(89.99999999999994 37.78852912674395 2.842170943040401e-14)"><path d="M0 0 C22.02 0, 44.04 0, 75.58 0 M0 0 C19.92 0, 39.84 0, 75.58 0" stroke="#69db7c" stroke-width="4" fill="none"/></g></g><mask/><g stroke-linecap="round"><g stroke-opacity="0.2" fill-opacity="0.2" transform="translate(57.814173161426424 104.00950579759922) rotate(0 -20.39827255173101 -23.36883827349928)" fill-rule="evenodd"><path d="M0 0 L0 -87.13 L-40.8 -46.33 L-40.8 40.39 L0 0" stroke="none" stroke-width="0" fill="#b2f2bb" fill-rule="evenodd"/><path d="M0 0 C0 -30.82, 0 -61.63, 0 -87.13 M0 0 C0 -23.87, 0 -47.73, 0 -87.13 M0 -87.13 C-9.03 -78.09, -18.07 -69.06, -40.8 -46.33 M0 -87.13 C-10.27 -76.86, -20.54 -66.59, -40.8 -46.33 M-40.8 -46.33 C-40.8 -23.36, -40.8 -0.4, -40.8 40.39 M-40.8 -46.33 C-40.8 -28.08, -40.8 -9.83, -40.8 40.39 M-40.8 40.39 C-29.27 28.98, -17.74 17.57, 0 0 M-40.8 40.39 C-30.57 30.27, -20.34 20.14, 0 0 M0 0 C0 0, 0 0, 0 0 M0 0 C0 0, 0 0, 0 0" stroke="transparent" stroke-width="4" fill="none"/></g></g><mask/><g stroke-opacity="0.2" fill-opacity="0.2" stroke-linecap="round" transform="translate(57.97782248263263 17.264827903072558) rotate(0 42.893609761627914 43.16676762707175)"><path d="M0 0 L85.79 0 L85.79 86.33 L0 86.33" stroke="none" stroke-width="0" fill="#d0bfff"/><path d="M0 0 C27.69 0, 55.38 0, 85.79 0 M0 0 C18.54 0, 37.08 0, 85.79 0 M85.79 0 C85.79 21.67, 85.79 43.34, 85.79 86.33 M85.79 0 C85.79 34.26, 85.79 68.52, 85.79 86.33 M85.79 86.33 C53.29 86.33, 20.78 86.33, 0 86.33 M85.79 86.33 C64.94 86.33, 44.08 86.33, 0 86.33 M0 86.33 C0 59.12, 0 31.91, 0 0 M0 86.33 C0 53.31, 0 20.28, 0 0" stroke="transparent" stroke-width="0.5" fill="none"/></g><g stroke-linecap="round"><g transform="translate(63.08423863768263 104.34046748764825) rotate(0 37.23778494699522 0)"><path d="M0 0 C26.57 0, 53.15 0, 74.48 0 M0 0 C28.83 0, 57.66 0, 74.48 0" stroke="#69db7c" stroke-width="4" fill="none"/></g></g><mask/><g stroke-linecap="round"><g transform="translate(14.158847058447208 124.37294654056876) rotate(315 23.013977000390113 2.842170943040401e-14)"><path d="M0 0 C13.15 0, 26.31 0, 46.03 0 M0 0 C14.95 0, 29.91 0, 46.03 0" stroke="#69db7c" stroke-width="4" fill="none"/></g></g><mask/><g stroke-opacity="0.9" fill-opacity="0.9" stroke-linecap="round" transform="translate(49.71809626980291 96.58071767793007) rotate(0 7.953236803311114 7.759749809718187)"><path d="M15.91 7.76 C15.91 8.21, 15.87 8.66, 15.79 9.11 C15.71 9.55, 15.58 9.99, 15.43 10.41 C15.27 10.84, 15.07 11.25, 14.84 11.64 C14.61 12.03, 14.34 12.4, 14.05 12.75 C13.75 13.09, 13.42 13.42, 13.07 13.7 C12.71 13.99, 12.33 14.26, 11.93 14.48 C11.53 14.7, 11.11 14.9, 10.67 15.05 C10.24 15.21, 9.79 15.32, 9.33 15.4 C8.88 15.48, 8.41 15.52, 7.95 15.52 C7.49 15.52, 7.03 15.48, 6.57 15.4 C6.12 15.32, 5.67 15.21, 5.23 15.05 C4.8 14.9, 4.38 14.7, 3.98 14.48 C3.58 14.26, 3.19 13.99, 2.84 13.7 C2.49 13.42, 2.16 13.09, 1.86 12.75 C1.56 12.4, 1.3 12.03, 1.07 11.64 C0.84 11.25, 0.64 10.84, 0.48 10.41 C0.32 9.99, 0.2 9.55, 0.12 9.11 C0.04 8.66, 0 8.21, 0 7.76 C0 7.31, 0.04 6.85, 0.12 6.41 C0.2 5.97, 0.32 5.53, 0.48 5.11 C0.64 4.68, 0.84 4.27, 1.07 3.88 C1.3 3.49, 1.56 3.12, 1.86 2.77 C2.16 2.43, 2.49 2.1, 2.84 1.82 C3.19 1.53, 3.58 1.26, 3.98 1.04 C4.38 0.82, 4.8 0.62, 5.23 0.47 C5.67 0.31, 6.12 0.2, 6.57 0.12 C7.03 0.04, 7.49 0, 7.95 0 C8.41 0, 8.88 0.04, 9.33 0.12 C9.79 0.2, 10.24 0.31, 10.67 0.47 C11.11 0.62, 11.53 0.82, 11.93 1.04 C12.33 1.26, 12.71 1.53, 13.07 1.82 C13.42 2.1, 13.75 2.43, 14.05 2.77 C14.34 3.12, 14.61 3.49, 14.84 3.88 C15.07 4.27, 15.27 4.68, 15.43 5.11 C15.58 5.53, 15.71 5.97, 15.79 6.41 C15.87 6.85, 15.89 7.54, 15.91 7.76 C15.93 7.98, 15.93 7.54, 15.91 7.76" stroke="none" stroke-width="0" fill="#b2f2bb"/><path d="M15.91 7.76 C15.91 8.21, 15.87 8.66, 15.79 9.11 C15.71 9.55, 15.58 9.99, 15.43 10.41 C15.27 10.84, 15.07 11.25, 14.84 11.64 C14.61 12.03, 14.34 12.4, 14.05 12.75 C13.75 13.09, 13.42 13.42, 13.07 13.7 C12.71 13.99, 12.33 14.26, 11.93 14.48 C11.53 14.7, 11.11 14.9, 10.67 15.05 C10.24 15.21, 9.79 15.32, 9.33 15.4 C8.88 15.48, 8.41 15.52, 7.95 15.52 C7.49 15.52, 7.03 15.48, 6.57 15.4 C6.12 15.32, 5.67 15.21, 5.23 15.05 C4.8 14.9, 4.38 14.7, 3.98 14.48 C3.58 14.26, 3.19 13.99, 2.84 13.7 C2.49 13.42, 2.16 13.09, 1.86 12.75 C1.56 12.4, 1.3 12.03, 1.07 11.64 C0.84 11.25, 0.64 10.84, 0.48 10.41 C0.32 9.99, 0.2 9.55, 0.12 9.11 C0.04 8.66, 0 8.21, 0 7.76 C0 7.31, 0.04 6.85, 0.12 6.41 C0.2 5.97, 0.32 5.53, 0.48 5.11 C0.64 4.68, 0.84 4.27, 1.07 3.88 C1.3 3.49, 1.56 3.12, 1.86 2.77 C2.16 2.43, 2.49 2.1, 2.84 1.82 C3.19 1.53, 3.58 1.26, 3.98 1.04 C4.38 0.82, 4.8 0.62, 5.23 0.47 C5.67 0.31, 6.12 0.2, 6.57 0.12 C7.03 0.04, 7.49 0, 7.95 0 C8.41 0, 8.88 0.04, 9.33 0.12 C9.79 0.2, 10.24 0.31, 10.67 0.47 C11.11 0.62, 11.53 0.82, 11.93 1.04 C12.33 1.26, 12.71 1.53, 13.07 1.82 C13.42 2.1, 13.75 2.43, 14.05 2.77 C14.34 3.12, 14.61 3.49, 14.84 3.88 C15.07 4.27, 15.27 4.68, 15.43 5.11 C15.58 5.53, 15.71 5.97, 15.79 6.41 C15.87 6.85, 15.89 7.54, 15.91 7.76 C15.93 7.98, 15.93 7.54, 15.91 7.76" stroke="#40c057" stroke-width="4" fill="none"/></g><g stroke-linecap="round" transform="translate(19.207269360543137 57.231784933481265) rotate(0 40.878909946186496 41.475625719854094)"><path d="M0 0 L81.76 0 L81.76 82.95 L0 82.95" stroke="none" stroke-width="0" fill="#a5d8ffe4"/><path d="M0 0 C21.47 0, 42.94 0, 81.76 0 M0 0 C16.86 0, 33.72 0, 81.76 0 M81.76 0 C81.76 30.18, 81.76 60.37, 81.76 82.95 M81.76 0 C81.76 31.14, 81.76 62.28, 81.76 82.95 M81.76 82.95 C52.34 82.95, 22.93 82.95, 0 82.95 M81.76 82.95 C63.67 82.95, 45.59 82.95, 0 82.95 M0 82.95 C0 50.79, 0 18.64, 0 0 M0 82.95 C0 57.11, 0 31.27, 0 0" stroke="transparent" stroke-width="0.5" fill="none"/></g><g stroke-linecap="round"><g transform="translate(22.811559283328677 141.58969114560216) rotate(0 37.59228500265064 0)"><path d="M0 0 C24.98 0, 49.96 0, 75.18 0 M0 0 C27.78 0, 55.56 0, 75.18 0" stroke="#fa5252" stroke-width="4" fill="none"/></g></g><mask/><g stroke-linecap="round"><g transform="translate(-20.324915376646032 101.30975503537763) rotate(89.99999999999994 38.27815217995719 2.842170943040401e-14)"><path d="M0 0 C29.9 0, 59.8 0, 76.56 0 M0 0 C26.2 0, 52.4 0, 76.56 0" stroke="#228be6" stroke-width="4" fill="none"/></g></g><mask/><g stroke-linecap="round" transform="translate(10 133.82994133588397) rotate(0 7.953236803311114 7.759749809718187)"><path d="M15.91 7.76 C15.91 8.21, 15.87 8.66, 15.79 9.11 C15.71 9.55, 15.58 9.99, 15.43 10.41 C15.27 10.84, 15.07 11.25, 14.84 11.64 C14.61 12.03, 14.34 12.4, 14.05 12.75 C13.75 13.09, 13.42 13.42, 13.07 13.7 C12.71 13.99, 12.33 14.26, 11.93 14.48 C11.53 14.7, 11.11 14.9, 10.67 15.05 C10.24 15.21, 9.79 15.32, 9.33 15.4 C8.88 15.48, 8.41 15.52, 7.95 15.52 C7.49 15.52, 7.03 15.48, 6.57 15.4 C6.12 15.32, 5.67 15.21, 5.23 15.05 C4.8 14.9, 4.38 14.7, 3.98 14.48 C3.58 14.26, 3.19 13.99, 2.84 13.7 C2.49 13.42, 2.16 13.09, 1.86 12.75 C1.56 12.4, 1.3 12.03, 1.07 11.64 C0.84 11.25, 0.64 10.84, 0.48 10.41 C0.32 9.99, 0.2 9.55, 0.12 9.11 C0.04 8.66, 0 8.21, 0 7.76 C0 7.31, 0.04 6.85, 0.12 6.41 C0.2 5.97, 0.32 5.53, 0.48 5.11 C0.64 4.68, 0.84 4.27, 1.07 3.88 C1.3 3.49, 1.56 3.12, 1.86 2.77 C2.16 2.43, 2.49 2.1, 2.84 1.82 C3.19 1.53, 3.58 1.26, 3.98 1.04 C4.38 0.82, 4.8 0.62, 5.23 0.47 C5.67 0.31, 6.12 0.2, 6.57 0.12 C7.03 0.04, 7.49 0, 7.95 0 C8.41 0, 8.88 0.04, 9.33 0.12 C9.79 0.2, 10.24 0.31, 10.67 0.47 C11.11 0.62, 11.53 0.82, 11.93 1.04 C12.33 1.26, 12.71 1.53, 13.07 1.82 C13.42 2.1, 13.75 2.43, 14.05 2.77 C14.34 3.12, 14.61 3.49, 14.84 3.88 C15.07 4.27, 15.27 4.68, 15.43 5.11 C15.58 5.53, 15.71 5.97, 15.79 6.41 C15.87 6.85, 15.89 7.54, 15.91 7.76 C15.93 7.98, 15.93 7.54, 15.91 7.76" stroke="none" stroke-width="0" fill="#b2f2bb"/><path d="M15.91 7.76 C15.91 8.21, 15.87 8.66, 15.79 9.11 C15.71 9.55, 15.58 9.99, 15.43 10.41 C15.27 10.84, 15.07 11.25, 14.84 11.64 C14.61 12.03, 14.34 12.4, 14.05 12.75 C13.75 13.09, 13.42 13.42, 13.07 13.7 C12.71 13.99, 12.33 14.26, 11.93 14.48 C11.53 14.7, 11.11 14.9, 10.67 15.05 C10.24 15.21, 9.79 15.32, 9.33 15.4 C8.88 15.48, 8.41 15.52, 7.95 15.52 C7.49 15.52, 7.03 15.48, 6.57 15.4 C6.12 15.32, 5.67 15.21, 5.23 15.05 C4.8 14.9, 4.38 14.7, 3.98 14.48 C3.58 14.26, 3.19 13.99, 2.84 13.7 C2.49 13.42, 2.16 13.09, 1.86 12.75 C1.56 12.4, 1.3 12.03, 1.07 11.64 C0.84 11.25, 0.64 10.84, 0.48 10.41 C0.32 9.99, 0.2 9.55, 0.12 9.11 C0.04 8.66, 0 8.21, 0 7.76 C0 7.31, 0.04 6.85, 0.12 6.41 C0.2 5.97, 0.32 5.53, 0.48 5.11 C0.64 4.68, 0.84 4.27, 1.07 3.88 C1.3 3.49, 1.56 3.12, 1.86 2.77 C2.16 2.43, 2.49 2.1, 2.84 1.82 C3.19 1.53, 3.58 1.26, 3.98 1.04 C4.38 0.82, 4.8 0.62, 5.23 0.47 C5.67 0.31, 6.12 0.2, 6.57 0.12 C7.03 0.04, 7.49 0, 7.95 0 C8.41 0, 8.88 0.04, 9.33 0.12 C9.79 0.2, 10.24 0.31, 10.67 0.47 C11.11 0.62, 11.53 0.82, 11.93 1.04 C12.33 1.26, 12.71 1.53, 13.07 1.82 C13.42 2.1, 13.75 2.43, 14.05 2.77 C14.34 3.12, 14.61 3.49, 14.84 3.88 C15.07 4.27, 15.27 4.68, 15.43 5.11 C15.58 5.53, 15.71 5.97, 15.79 6.41 C15.87 6.85, 15.89 7.54, 15.91 7.76 C15.93 7.98, 15.93 7.54, 15.91 7.76" stroke="#40c057" stroke-width="4" fill="none"/></g><g stroke-linecap="round"><g transform="translate(140.3943107161678 18.6600874490789) rotate(0 -19.32095811022151 63.17711533545295)" fill-rule="evenodd"><path d="M0 0 L-38.64 38.64 L-38.64 126.35 L-0.04 87.76 L0 0" stroke="none" stroke-width="0" fill="#ffc9c9e4" fill-rule="evenodd"/><path d="M0 0 C-12.2 12.2, -24.39 24.39, -38.64 38.64 M0 0 C-11.68 11.68, -23.36 23.36, -38.64 38.64 M-38.64 38.64 C-38.64 61.27, -38.64 83.9, -38.64 126.35 M-38.64 38.64 C-38.64 64.56, -38.64 90.48, -38.64 126.35 M-38.64 126.35 C-24.8 112.52, -10.96 98.68, -0.04 87.76 M-38.64 126.35 C-25.77 113.48, -12.89 100.6, -0.04 87.76 M-0.04 87.76 C-0.03 53.57, -0.01 19.39, 0 0 M-0.04 87.76 C-0.03 63.4, -0.02 39.03, 0 0 M0 0 C0 0, 0 0, 0 0 M0 0 C0 0, 0 0, 0 0" stroke="transparent" stroke-width="0.5" fill="none"/></g></g><mask/><g stroke-linecap="round"><g transform="translate(103.79246946729052 60.435522168235366) rotate(89.99999999999994 38.05607835114145 2.842170943040401e-14)"><path d="M0 0 C20 0, 40 0, 76.11 0 M0 0 C29.32 0, 58.64 0, 76.11 0" stroke="#7950f2" stroke-width="4" fill="none"/></g></g><mask/><g stroke-linecap="round"><g transform="translate(99.81295623618183 43.537476149274084) rotate(315 17.62987224600775 0)"><path d="M0 0 C12.95 0, 25.9 0, 35.26 0 M0 0 C10.23 0, 20.46 0, 35.26 0" stroke="#fa5252" stroke-width="4" fill="none"/></g></g><mask/><g stroke-linecap="round"><g transform="translate(64.63291802650298 102.62647080965735) rotate(89.99999999999994 38.16373507703719 2.842170943040401e-14)"><path d="M0 0 C27.12 0, 54.23 0, 76.33 0 M0 0 C30.02 0, 60.04 0, 76.33 0" stroke="#fa5252" stroke-width="4" fill="none"/></g></g><mask/><g stroke-linecap="round"><g transform="translate(57.51613275930248 16.760254212517964) rotate(0 23.027322023702283 20.510714548533457)" fill-rule="evenodd"><path d="M0 0 L-41.02 41.02 L46.31 41.02 L87.08 0.26 L0 0" stroke="none" stroke-width="0" fill="#d0bfffe4" fill-rule="evenodd"/><path d="M0 0 C-13.8 13.8, -27.61 27.61, -41.02 41.02 M0 0 C-15.08 15.08, -30.15 30.15, -41.02 41.02 M-41.02 41.02 C-19.16 41.02, 2.71 41.02, 46.31 41.02 M-41.02 41.02 C-20.95 41.02, -0.88 41.02, 46.31 41.02 M46.31 41.02 C54.91 32.42, 63.51 23.82, 87.08 0.26 M46.31 41.02 C55.86 31.47, 65.41 21.93, 87.08 0.26 M87.08 0.26 C68.93 0.2, 50.77 0.15, 0 0 M87.08 0.26 C62.91 0.19, 38.74 0.11, 0 0 M0 0 C0 0, 0 0, 0 0 M0 0 C0 0, 0 0, 0 0" stroke="transparent" stroke-width="4" fill="none"/></g></g><mask/><g stroke-linecap="round"><g transform="translate(63.43126292832926 17.759749809718187) rotate(0 37.697228698916234 0)"><path d="M0 0 C25.31 0, 50.62 0, 75.39 0 M0 0 C27.08 0, 54.17 0, 75.39 0" stroke="#7950f2" stroke-width="4" fill="none"/></g></g><mask/><g stroke-linecap="round"><g transform="translate(22.53981253724828 57.74255973778452) rotate(0 37.92704753413733 0)"><path d="M0 0 C30.28 0, 60.57 0, 75.85 0 M0 0 C24.31 0, 48.63 0, 75.85 0" stroke="#228be6" stroke-width="4" fill="none"/></g></g><mask/><g stroke-linecap="round"><g transform="translate(100.87933287835898 37.42568235546844) rotate(315 23.159423199522905 2.842170943040401e-14)"><path d="M0 0 C14.23 0, 28.46 0, 46.32 0 M0 0 C18.31 0, 36.62 0, 46.32 0" stroke="#7950f2" stroke-width="4" fill="none"/></g></g><mask/><g stroke-linecap="round"><g transform="translate(14.25150728274275 37.32449709866245) rotate(315 22.42918441181962 0)"><path d="M0 0 C10.03 0, 20.06 0, 44.86 0 M0 0 C14.53 0, 29.05 0, 44.86 0" stroke="#228be6" stroke-width="4" fill="none"/></g></g><mask/><g stroke-linecap="round" transform="translate(49.71809626980291 10) rotate(0 7.953236803311114 7.759749809718187)"><path d="M15.91 7.76 C15.91 8.21, 15.87 8.66, 15.79 9.11 C15.71 9.55, 15.58 9.99, 15.43 10.41 C15.27 10.84, 15.07 11.25, 14.84 11.64 C14.61 12.03, 14.34 12.4, 14.05 12.75 C13.75 13.09, 13.42 13.42, 13.07 13.7 C12.71 13.99, 12.33 14.26, 11.93 14.48 C11.53 14.7, 11.11 14.9, 10.67 15.05 C10.24 15.21, 9.79 15.32, 9.33 15.4 C8.88 15.48, 8.41 15.52, 7.95 15.52 C7.49 15.52, 7.03 15.48, 6.57 15.4 C6.12 15.32, 5.67 15.21, 5.23 15.05 C4.8 14.9, 4.38 14.7, 3.98 14.48 C3.58 14.26, 3.19 13.99, 2.84 13.7 C2.49 13.42, 2.16 13.09, 1.86 12.75 C1.56 12.4, 1.3 12.03, 1.07 11.64 C0.84 11.25, 0.64 10.84, 0.48 10.41 C0.32 9.99, 0.2 9.55, 0.12 9.11 C0.04 8.66, 0 8.21, 0 7.76 C0 7.31, 0.04 6.85, 0.12 6.41 C0.2 5.97, 0.32 5.53, 0.48 5.11 C0.64 4.68, 0.84 4.27, 1.07 3.88 C1.3 3.49, 1.56 3.12, 1.86 2.77 C2.16 2.43, 2.49 2.1, 2.84 1.82 C3.19 1.53, 3.58 1.26, 3.98 1.04 C4.38 0.82, 4.8 0.62, 5.23 0.47 C5.67 0.31, 6.12 0.2, 6.57 0.12 C7.03 0.04, 7.49 0, 7.95 0 C8.41 0, 8.88 0.04, 9.33 0.12 C9.79 0.2, 10.24 0.31, 10.67 0.47 C11.11 0.62, 11.53 0.82, 11.93 1.04 C12.33 1.26, 12.71 1.53, 13.07 1.82 C13.42 2.1, 13.75 2.43, 14.05 2.77 C14.34 3.12, 14.61 3.49, 14.84 3.88 C15.07 4.27, 15.27 4.68, 15.43 5.11 C15.58 5.53, 15.71 5.97, 15.79 6.41 C15.87 6.85, 15.89 7.54, 15.91 7.76 C15.93 7.98, 15.93 7.54, 15.91 7.76" stroke="none" stroke-width="0" fill="#d0bfff"/><path d="M15.91 7.76 C15.91 8.21, 15.87 8.66, 15.79 9.11 C15.71 9.55, 15.58 9.99, 15.43 10.41 C15.27 10.84, 15.07 11.25, 14.84 11.64 C14.61 12.03, 14.34 12.4, 14.05 12.75 C13.75 13.09, 13.42 13.42, 13.07 13.7 C12.71 13.99, 12.33 14.26, 11.93 14.48 C11.53 14.7, 11.11 14.9, 10.67 15.05 C10.24 15.21, 9.79 15.32, 9.33 15.4 C8.88 15.48, 8.41 15.52, 7.95 15.52 C7.49 15.52, 7.03 15.48, 6.57 15.4 C6.12 15.32, 5.67 15.21, 5.23 15.05 C4.8 14.9, 4.38 14.7, 3.98 14.48 C3.58 14.26, 3.19 13.99, 2.84 13.7 C2.49 13.42, 2.16 13.09, 1.86 12.75 C1.56 12.4, 1.3 12.03, 1.07 11.64 C0.84 11.25, 0.64 10.84, 0.48 10.41 C0.32 9.99, 0.2 9.55, 0.12 9.11 C0.04 8.66, 0 8.21, 0 7.76 C0 7.31, 0.04 6.85, 0.12 6.41 C0.2 5.97, 0.32 5.53, 0.48 5.11 C0.64 4.68, 0.84 4.27, 1.07 3.88 C1.3 3.49, 1.56 3.12, 1.86 2.77 C2.16 2.43, 2.49 2.1, 2.84 1.82 C3.19 1.53, 3.58 1.26, 3.98 1.04 C4.38 0.82, 4.8 0.62, 5.23 0.47 C5.67 0.31, 6.12 0.2, 6.57 0.12 C7.03 0.04, 7.49 0, 7.95 0 C8.41 0, 8.88 0.04, 9.33 0.12 C9.79 0.2, 10.24 0.31, 10.67 0.47 C11.11 0.62, 11.53 0.82, 11.93 1.04 C12.33 1.26, 12.71 1.53, 13.07 1.82 C13.42 2.1, 13.75 2.43, 14.05 2.77 C14.34 3.12, 14.61 3.49, 14.84 3.88 C15.07 4.27, 15.27 4.68, 15.43 5.11 C15.58 5.53, 15.71 5.97, 15.79 6.41 C15.87 6.85, 15.89 7.54, 15.91 7.76 C15.93 7.98, 15.93 7.54, 15.91 7.76" stroke="#7950f2" stroke-width="4" fill="none"/></g><g stroke-linecap="round" transform="translate(10 49.98280992806633) rotate(0 7.953236803311114 7.759749809718187)"><path d="M15.91 7.76 C15.91 8.21, 15.87 8.66, 15.79 9.11 C15.71 9.55, 15.58 9.99, 15.43 10.41 C15.27 10.84, 15.07 11.25, 14.84 11.64 C14.61 12.03, 14.34 12.4, 14.05 12.75 C13.75 13.09, 13.42 13.42, 13.07 13.7 C12.71 13.99, 12.33 14.26, 11.93 14.48 C11.53 14.7, 11.11 14.9, 10.67 15.05 C10.24 15.21, 9.79 15.32, 9.33 15.4 C8.88 15.48, 8.41 15.52, 7.95 15.52 C7.49 15.52, 7.03 15.48, 6.57 15.4 C6.12 15.32, 5.67 15.21, 5.23 15.05 C4.8 14.9, 4.38 14.7, 3.98 14.48 C3.58 14.26, 3.19 13.99, 2.84 13.7 C2.49 13.42, 2.16 13.09, 1.86 12.75 C1.56 12.4, 1.3 12.03, 1.07 11.64 C0.84 11.25, 0.64 10.84, 0.48 10.41 C0.32 9.99, 0.2 9.55, 0.12 9.11 C0.04 8.66, 0 8.21, 0 7.76 C0 7.31, 0.04 6.85, 0.12 6.41 C0.2 5.97, 0.32 5.53, 0.48 5.11 C0.64 4.68, 0.84 4.27, 1.07 3.88 C1.3 3.49, 1.56 3.12, 1.86 2.77 C2.16 2.43, 2.49 2.1, 2.84 1.82 C3.19 1.53, 3.58 1.26, 3.98 1.04 C4.38 0.82, 4.8 0.62, 5.23 0.47 C5.67 0.31, 6.12 0.2, 6.57 0.12 C7.03 0.04, 7.49 0, 7.95 0 C8.41 0, 8.88 0.04, 9.33 0.12 C9.79 0.2, 10.24 0.31, 10.67 0.47 C11.11 0.62, 11.53 0.82, 11.93 1.04 C12.33 1.26, 12.71 1.53, 13.07 1.82 C13.42 2.1, 13.75 2.43, 14.05 2.77 C14.34 3.12, 14.61 3.49, 14.84 3.88 C15.07 4.27, 15.27 4.68, 15.43 5.11 C15.58 5.53, 15.71 5.97, 15.79 6.41 C15.87 6.85, 15.89 7.54, 15.91 7.76 C15.93 7.98, 15.93 7.54, 15.91 7.76" stroke="none" stroke-width="0" fill="#a5d8ff"/><path d="M15.91 7.76 C15.91 8.21, 15.87 8.66, 15.79 9.11 C15.71 9.55, 15.58 9.99, 15.43 10.41 C15.27 10.84, 15.07 11.25, 14.84 11.64 C14.61 12.03, 14.34 12.4, 14.05 12.75 C13.75 13.09, 13.42 13.42, 13.07 13.7 C12.71 13.99, 12.33 14.26, 11.93 14.48 C11.53 14.7, 11.11 14.9, 10.67 15.05 C10.24 15.21, 9.79 15.32, 9.33 15.4 C8.88 15.48, 8.41 15.52, 7.95 15.52 C7.49 15.52, 7.03 15.48, 6.57 15.4 C6.12 15.32, 5.67 15.21, 5.23 15.05 C4.8 14.9, 4.38 14.7, 3.98 14.48 C3.58 14.26, 3.19 13.99, 2.84 13.7 C2.49 13.42, 2.16 13.09, 1.86 12.75 C1.56 12.4, 1.3 12.03, 1.07 11.64 C0.84 11.25, 0.64 10.84, 0.48 10.41 C0.32 9.99, 0.2 9.55, 0.12 9.11 C0.04 8.66, 0 8.21, 0 7.76 C0 7.31, 0.04 6.85, 0.12 6.41 C0.2 5.97, 0.32 5.53, 0.48 5.11 C0.64 4.68, 0.84 4.27, 1.07 3.88 C1.3 3.49, 1.56 3.12, 1.86 2.77 C2.16 2.43, 2.49 2.1, 2.84 1.82 C3.19 1.53, 3.58 1.26, 3.98 1.04 C4.38 0.82, 4.8 0.62, 5.23 0.47 C5.67 0.31, 6.12 0.2, 6.57 0.12 C7.03 0.04, 7.49 0, 7.95 0 C8.41 0, 8.88 0.04, 9.33 0.12 C9.79 0.2, 10.24 0.31, 10.67 0.47 C11.11 0.62, 11.53 0.82, 11.93 1.04 C12.33 1.26, 12.71 1.53, 13.07 1.82 C13.42 2.1, 13.75 2.43, 14.05 2.77 C14.34 3.12, 14.61 3.49, 14.84 3.88 C15.07 4.27, 15.27 4.68, 15.43 5.11 C15.58 5.53, 15.71 5.97, 15.79 6.41 C15.87 6.85, 15.89 7.54, 15.91 7.76 C15.93 7.98, 15.93 7.54, 15.91 7.76" stroke="#228be6" stroke-width="4" fill="none"/></g><g stroke-linecap="round"><g transform="translate(101.28505914915854 37.42568235546844) rotate(315 23.159423199522905 2.842170943040401e-14)"><path d="M0 0 C13.63 0, 27.25 0, 46.32 0 M0 0 C14.52 0, 29.04 0, 46.32 0" stroke="#7950f2" stroke-width="4" fill="none"/></g></g><mask/><g stroke-linecap="round"><g transform="translate(96.01341509676882 124.41402069394292) rotate(315 23.159423199522905 2.842170943040401e-14)"><path d="M0 0 C13.76 0, 27.51 0, 46.32 0 M0 0 C9.41 0, 18.83 0, 46.32 0" stroke="#fa5252" stroke-width="4" fill="none"/></g></g><mask/><g stroke-linecap="round" transform="translate(133.8953110151208 96.58071767793007) rotate(0 7.953236803311114 7.759749809718187)"><path d="M15.91 7.76 C15.91 8.21, 15.87 8.66, 15.79 9.11 C15.71 9.55, 15.58 9.99, 15.43 10.41 C15.27 10.84, 15.07 11.25, 14.84 11.64 C14.61 12.03, 14.34 12.4, 14.05 12.75 C13.75 13.09, 13.42 13.42, 13.07 13.7 C12.71 13.99, 12.33 14.26, 11.93 14.48 C11.53 14.7, 11.11 14.9, 10.67 15.05 C10.24 15.21, 9.79 15.32, 9.33 15.4 C8.88 15.48, 8.41 15.52, 7.95 15.52 C7.49 15.52, 7.03 15.48, 6.57 15.4 C6.12 15.32, 5.67 15.21, 5.23 15.05 C4.8 14.9, 4.38 14.7, 3.98 14.48 C3.58 14.26, 3.19 13.99, 2.84 13.7 C2.49 13.42, 2.16 13.09, 1.86 12.75 C1.56 12.4, 1.3 12.03, 1.07 11.64 C0.84 11.25, 0.64 10.84, 0.48 10.41 C0.32 9.99, 0.2 9.55, 0.12 9.11 C0.04 8.66, 0 8.21, 0 7.76 C0 7.31, 0.04 6.85, 0.12 6.41 C0.2 5.97, 0.32 5.53, 0.48 5.11 C0.64 4.68, 0.84 4.27, 1.07 3.88 C1.3 3.49, 1.56 3.12, 1.86 2.77 C2.16 2.43, 2.49 2.1, 2.84 1.82 C3.19 1.53, 3.58 1.26, 3.98 1.04 C4.38 0.82, 4.8 0.62, 5.23 0.47 C5.67 0.31, 6.12 0.2, 6.57 0.12 C7.03 0.04, 7.49 0, 7.95 0 C8.41 0, 8.88 0.04, 9.33 0.12 C9.79 0.2, 10.24 0.31, 10.67 0.47 C11.11 0.62, 11.53 0.82, 11.93 1.04 C12.33 1.26, 12.71 1.53, 13.07 1.82 C13.42 2.1, 13.75 2.43, 14.05 2.77 C14.34 3.12, 14.61 3.49, 14.84 3.88 C15.07 4.27, 15.27 4.68, 15.43 5.11 C15.58 5.53, 15.71 5.97, 15.79 6.41 C15.87 6.85, 15.89 7.54, 15.91 7.76 C15.93 7.98, 15.93 7.54, 15.91 7.76" stroke="none" stroke-width="0" fill="#ffc9c9"/><path d="M15.91 7.76 C15.91 8.21, 15.87 8.66, 15.79 9.11 C15.71 9.55, 15.58 9.99, 15.43 10.41 C15.27 10.84, 15.07 11.25, 14.84 11.64 C14.61 12.03, 14.34 12.4, 14.05 12.75 C13.75 13.09, 13.42 13.42, 13.07 13.7 C12.71 13.99, 12.33 14.26, 11.93 14.48 C11.53 14.7, 11.11 14.9, 10.67 15.05 C10.24 15.21, 9.79 15.32, 9.33 15.4 C8.88 15.48, 8.41 15.52, 7.95 15.52 C7.49 15.52, 7.03 15.48, 6.57 15.4 C6.12 15.32, 5.67 15.21, 5.23 15.05 C4.8 14.9, 4.38 14.7, 3.98 14.48 C3.58 14.26, 3.19 13.99, 2.84 13.7 C2.49 13.42, 2.16 13.09, 1.86 12.75 C1.56 12.4, 1.3 12.03, 1.07 11.64 C0.84 11.25, 0.64 10.84, 0.48 10.41 C0.32 9.99, 0.2 9.55, 0.12 9.11 C0.04 8.66, 0 8.21, 0 7.76 C0 7.31, 0.04 6.85, 0.12 6.41 C0.2 5.97, 0.32 5.53, 0.48 5.11 C0.64 4.68, 0.84 4.27, 1.07 3.88 C1.3 3.49, 1.56 3.12, 1.86 2.77 C2.16 2.43, 2.49 2.1, 2.84 1.82 C3.19 1.53, 3.58 1.26, 3.98 1.04 C4.38 0.82, 4.8 0.62, 5.23 0.47 C5.67 0.31, 6.12 0.2, 6.57 0.12 C7.03 0.04, 7.49 0, 7.95 0 C8.41 0, 8.88 0.04, 9.33 0.12 C9.79 0.2, 10.24 0.31, 10.67 0.47 C11.11 0.62, 11.53 0.82, 11.93 1.04 C12.33 1.26, 12.71 1.53, 13.07 1.82 C13.42 2.1, 13.75 2.43, 14.05 2.77 C14.34 3.12, 14.61 3.49, 14.84 3.88 C15.07 4.27, 15.27 4.68, 15.43 5.11 C15.58 5.53, 15.71 5.97, 15.79 6.41 C15.87 6.85, 15.89 7.54, 15.91 7.76 C15.93 7.98, 15.93 7.54, 15.91 7.76" stroke="#fa5252" stroke-width="4" fill="none"/></g><g stroke-linecap="round" transform="translate(94.84341630022897 133.82994133588397) rotate(0 7.953236803311114 7.759749809718187)"><path d="M15.91 7.76 C15.91 8.21, 15.87 8.66, 15.79 9.11 C15.71 9.55, 15.58 9.99, 15.43 10.41 C15.27 10.84, 15.07 11.25, 14.84 11.64 C14.61 12.03, 14.34 12.4, 14.05 12.75 C13.75 13.09, 13.42 13.42, 13.07 13.7 C12.71 13.99, 12.33 14.26, 11.93 14.48 C11.53 14.7, 11.11 14.9, 10.67 15.05 C10.24 15.21, 9.79 15.32, 9.33 15.4 C8.88 15.48, 8.41 15.52, 7.95 15.52 C7.49 15.52, 7.03 15.48, 6.57 15.4 C6.12 15.32, 5.67 15.21, 5.23 15.05 C4.8 14.9, 4.38 14.7, 3.98 14.48 C3.58 14.26, 3.19 13.99, 2.84 13.7 C2.49 13.42, 2.16 13.09, 1.86 12.75 C1.56 12.4, 1.3 12.03, 1.07 11.64 C0.84 11.25, 0.64 10.84, 0.48 10.41 C0.32 9.99, 0.2 9.55, 0.12 9.11 C0.04 8.66, 0 8.21, 0 7.76 C0 7.31, 0.04 6.85, 0.12 6.41 C0.2 5.97, 0.32 5.53, 0.48 5.11 C0.64 4.68, 0.84 4.27, 1.07 3.88 C1.3 3.49, 1.56 3.12, 1.86 2.77 C2.16 2.43, 2.49 2.1, 2.84 1.82 C3.19 1.53, 3.58 1.26, 3.98 1.04 C4.38 0.82, 4.8 0.62, 5.23 0.47 C5.67 0.31, 6.12 0.2, 6.57 0.12 C7.03 0.04, 7.49 0, 7.95 0 C8.41 0, 8.88 0.04, 9.33 0.12 C9.79 0.2, 10.24 0.31, 10.67 0.47 C11.11 0.62, 11.53 0.82, 11.93 1.04 C12.33 1.26, 12.71 1.53, 13.07 1.82 C13.42 2.1, 13.75 2.43, 14.05 2.77 C14.34 3.12, 14.61 3.49, 14.84 3.88 C15.07 4.27, 15.27 4.68, 15.43 5.11 C15.58 5.53, 15.71 5.97, 15.79 6.41 C15.87 6.85, 15.89 7.54, 15.91 7.76 C15.93 7.98, 15.93 7.54, 15.91 7.76" stroke="none" stroke-width="0" fill="#ffc9c9"/><path d="M15.91 7.76 C15.91 8.21, 15.87 8.66, 15.79 9.11 C15.71 9.55, 15.58 9.99, 15.43 10.41 C15.27 10.84, 15.07 11.25, 14.84 11.64 C14.61 12.03, 14.34 12.4, 14.05 12.75 C13.75 13.09, 13.42 13.42, 13.07 13.7 C12.71 13.99, 12.33 14.26, 11.93 14.48 C11.53 14.7, 11.11 14.9, 10.67 15.05 C10.24 15.21, 9.79 15.32, 9.33 15.4 C8.88 15.48, 8.41 15.52, 7.95 15.52 C7.49 15.52, 7.03 15.48, 6.57 15.4 C6.12 15.32, 5.67 15.21, 5.23 15.05 C4.8 14.9, 4.38 14.7, 3.98 14.48 C3.58 14.26, 3.19 13.99, 2.84 13.7 C2.49 13.42, 2.16 13.09, 1.86 12.75 C1.56 12.4, 1.3 12.03, 1.07 11.64 C0.84 11.25, 0.64 10.84, 0.48 10.41 C0.32 9.99, 0.2 9.55, 0.12 9.11 C0.04 8.66, 0 8.21, 0 7.76 C0 7.31, 0.04 6.85, 0.12 6.41 C0.2 5.97, 0.32 5.53, 0.48 5.11 C0.64 4.68, 0.84 4.27, 1.07 3.88 C1.3 3.49, 1.56 3.12, 1.86 2.77 C2.16 2.43, 2.49 2.1, 2.84 1.82 C3.19 1.53, 3.58 1.26, 3.98 1.04 C4.38 0.82, 4.8 0.62, 5.23 0.47 C5.67 0.31, 6.12 0.2, 6.57 0.12 C7.03 0.04, 7.49 0, 7.95 0 C8.41 0, 8.88 0.04, 9.33 0.12 C9.79 0.2, 10.24 0.31, 10.67 0.47 C11.11 0.62, 11.53 0.82, 11.93 1.04 C12.33 1.26, 12.71 1.53, 13.07 1.82 C13.42 2.1, 13.75 2.43, 14.05 2.77 C14.34 3.12, 14.61 3.49, 14.84 3.88 C15.07 4.27, 15.27 4.68, 15.43 5.11 C15.58 5.53, 15.71 5.97, 15.79 6.41 C15.87 6.85, 15.89 7.54, 15.91 7.76 C15.93 7.98, 15.93 7.54, 15.91 7.76" stroke="#fa5252" stroke-width="4" fill="none"/></g><g stroke-linecap="round" transform="translate(94.84341630022897 49.98280992806633) rotate(0 7.953236803311114 7.759749809718187)"><path d="M15.91 7.76 C15.91 8.21, 15.87 8.66, 15.79 9.11 C15.71 9.55, 15.58 9.99, 15.43 10.41 C15.27 10.84, 15.07 11.25, 14.84 11.64 C14.61 12.03, 14.34 12.4, 14.05 12.75 C13.75 13.09, 13.42 13.42, 13.07 13.7 C12.71 13.99, 12.33 14.26, 11.93 14.48 C11.53 14.7, 11.11 14.9, 10.67 15.05 C10.24 15.21, 9.79 15.32, 9.33 15.4 C8.88 15.48, 8.41 15.52, 7.95 15.52 C7.49 15.52, 7.03 15.48, 6.57 15.4 C6.12 15.32, 5.67 15.21, 5.23 15.05 C4.8 14.9, 4.38 14.7, 3.98 14.48 C3.58 14.26, 3.19 13.99, 2.84 13.7 C2.49 13.42, 2.16 13.09, 1.86 12.75 C1.56 12.4, 1.3 12.03, 1.07 11.64 C0.84 11.25, 0.64 10.84, 0.48 10.41 C0.32 9.99, 0.2 9.55, 0.12 9.11 C0.04 8.66, 0 8.21, 0 7.76 C0 7.31, 0.04 6.85, 0.12 6.41 C0.2 5.97, 0.32 5.53, 0.48 5.11 C0.64 4.68, 0.84 4.27, 1.07 3.88 C1.3 3.49, 1.56 3.12, 1.86 2.77 C2.16 2.43, 2.49 2.1, 2.84 1.82 C3.19 1.53, 3.58 1.26, 3.98 1.04 C4.38 0.82, 4.8 0.62, 5.23 0.47 C5.67 0.31, 6.12 0.2, 6.57 0.12 C7.03 0.04, 7.49 0, 7.95 0 C8.41 0, 8.88 0.04, 9.33 0.12 C9.79 0.2, 10.24 0.31, 10.67 0.47 C11.11 0.62, 11.53 0.82, 11.93 1.04 C12.33 1.26, 12.71 1.53, 13.07 1.82 C13.42 2.1, 13.75 2.43, 14.05 2.77 C14.34 3.12, 14.61 3.49, 14.84 3.88 C15.07 4.27, 15.27 4.68, 15.43 5.11 C15.58 5.53, 15.71 5.97, 15.79 6.41 C15.87 6.85, 15.89 7.54, 15.91 7.76 C15.93 7.98, 15.93 7.54, 15.91 7.76" stroke="none" stroke-width="0" fill="#a5d8ff"/><path d="M15.91 7.76 C15.91 8.21, 15.87 8.66, 15.79 9.11 C15.71 9.55, 15.58 9.99, 15.43 10.41 C15.27 10.84, 15.07 11.25, 14.84 11.64 C14.61 12.03, 14.34 12.4, 14.05 12.75 C13.75 13.09, 13.42 13.42, 13.07 13.7 C12.71 13.99, 12.33 14.26, 11.93 14.48 C11.53 14.7, 11.11 14.9, 10.67 15.05 C10.24 15.21, 9.79 15.32, 9.33 15.4 C8.88 15.48, 8.41 15.52, 7.95 15.52 C7.49 15.52, 7.03 15.48, 6.57 15.4 C6.12 15.32, 5.67 15.21, 5.23 15.05 C4.8 14.9, 4.38 14.7, 3.98 14.48 C3.58 14.26, 3.19 13.99, 2.84 13.7 C2.49 13.42, 2.16 13.09, 1.86 12.75 C1.56 12.4, 1.3 12.03, 1.07 11.64 C0.84 11.25, 0.64 10.84, 0.48 10.41 C0.32 9.99, 0.2 9.55, 0.12 9.11 C0.04 8.66, 0 8.21, 0 7.76 C0 7.31, 0.04 6.85, 0.12 6.41 C0.2 5.97, 0.32 5.53, 0.48 5.11 C0.64 4.68, 0.84 4.27, 1.07 3.88 C1.3 3.49, 1.56 3.12, 1.86 2.77 C2.16 2.43, 2.49 2.1, 2.84 1.82 C3.19 1.53, 3.58 1.26, 3.98 1.04 C4.38 0.82, 4.8 0.62, 5.23 0.47 C5.67 0.31, 6.12 0.2, 6.57 0.12 C7.03 0.04, 7.49 0, 7.95 0 C8.41 0, 8.88 0.04, 9.33 0.12 C9.79 0.2, 10.24 0.31, 10.67 0.47 C11.11 0.62, 11.53 0.82, 11.93 1.04 C12.33 1.26, 12.71 1.53, 13.07 1.82 C13.42 2.1, 13.75 2.43, 14.05 2.77 C14.34 3.12, 14.61 3.49, 14.84 3.88 C15.07 4.27, 15.27 4.68, 15.43 5.11 C15.58 5.53, 15.71 5.97, 15.79 6.41 C15.87 6.85, 15.89 7.54, 15.91 7.76 C15.93 7.98, 15.93 7.54, 15.91 7.76" stroke="#228be6" stroke-width="4" fill="none"/></g><g stroke-linecap="round" transform="translate(133.8953110151208 10) rotate(0 7.953236803311114 7.759749809718187)"><path d="M15.91 7.76 C15.91 8.21, 15.87 8.66, 15.79 9.11 C15.71 9.55, 15.58 9.99, 15.43 10.41 C15.27 10.84, 15.07 11.25, 14.84 11.64 C14.61 12.03, 14.34 12.4, 14.05 12.75 C13.75 13.09, 13.42 13.42, 13.07 13.7 C12.71 13.99, 12.33 14.26, 11.93 14.48 C11.53 14.7, 11.11 14.9, 10.67 15.05 C10.24 15.21, 9.79 15.32, 9.33 15.4 C8.88 15.48, 8.41 15.52, 7.95 15.52 C7.49 15.52, 7.03 15.48, 6.57 15.4 C6.12 15.32, 5.67 15.21, 5.23 15.05 C4.8 14.9, 4.38 14.7, 3.98 14.48 C3.58 14.26, 3.19 13.99, 2.84 13.7 C2.49 13.42, 2.16 13.09, 1.86 12.75 C1.56 12.4, 1.3 12.03, 1.07 11.64 C0.84 11.25, 0.64 10.84, 0.48 10.41 C0.32 9.99, 0.2 9.55, 0.12 9.11 C0.04 8.66, 0 8.21, 0 7.76 C0 7.31, 0.04 6.85, 0.12 6.41 C0.2 5.97, 0.32 5.53, 0.48 5.11 C0.64 4.68, 0.84 4.27, 1.07 3.88 C1.3 3.49, 1.56 3.12, 1.86 2.77 C2.16 2.43, 2.49 2.1, 2.84 1.82 C3.19 1.53, 3.58 1.26, 3.98 1.04 C4.38 0.82, 4.8 0.62, 5.23 0.47 C5.67 0.31, 6.12 0.2, 6.57 0.12 C7.03 0.04, 7.49 0, 7.95 0 C8.41 0, 8.88 0.04, 9.33 0.12 C9.79 0.2, 10.24 0.31, 10.67 0.47 C11.11 0.62, 11.53 0.82, 11.93 1.04 C12.33 1.26, 12.71 1.53, 13.07 1.82 C13.42 2.1, 13.75 2.43, 14.05 2.77 C14.34 3.12, 14.61 3.49, 14.84 3.88 C15.07 4.27, 15.27 4.68, 15.43 5.11 C15.58 5.53, 15.71 5.97, 15.79 6.41 C15.87 6.85, 15.89 7.54, 15.91 7.76 C15.93 7.98, 15.93 7.54, 15.91 7.76" stroke="none" stroke-width="0" fill="#d0bfff"/><path d="M15.91 7.76 C15.91 8.21, 15.87 8.66, 15.79 9.11 C15.71 9.55, 15.58 9.99, 15.43 10.41 C15.27 10.84, 15.07 11.25, 14.84 11.64 C14.61 12.03, 14.34 12.4, 14.05 12.75 C13.75 13.09, 13.42 13.42, 13.07 13.7 C12.71 13.99, 12.33 14.26, 11.93 14.48 C11.53 14.7, 11.11 14.9, 10.67 15.05 C10.24 15.21, 9.79 15.32, 9.33 15.4 C8.88 15.48, 8.41 15.52, 7.95 15.52 C7.49 15.52, 7.03 15.48, 6.57 15.4 C6.12 15.32, 5.67 15.21, 5.23 15.05 C4.8 14.9, 4.38 14.7, 3.98 14.48 C3.58 14.26, 3.19 13.99, 2.84 13.7 C2.49 13.42, 2.16 13.09, 1.86 12.75 C1.56 12.4, 1.3 12.03, 1.07 11.64 C0.84 11.25, 0.64 10.84, 0.48 10.41 C0.32 9.99, 0.2 9.55, 0.12 9.11 C0.04 8.66, 0 8.21, 0 7.76 C0 7.31, 0.04 6.85, 0.12 6.41 C0.2 5.97, 0.32 5.53, 0.48 5.11 C0.64 4.68, 0.84 4.27, 1.07 3.88 C1.3 3.49, 1.56 3.12, 1.86 2.77 C2.16 2.43, 2.49 2.1, 2.84 1.82 C3.19 1.53, 3.58 1.26, 3.98 1.04 C4.38 0.82, 4.8 0.62, 5.23 0.47 C5.67 0.31, 6.12 0.2, 6.57 0.12 C7.03 0.04, 7.49 0, 7.95 0 C8.41 0, 8.88 0.04, 9.33 0.12 C9.79 0.2, 10.24 0.31, 10.67 0.47 C11.11 0.62, 11.53 0.82, 11.93 1.04 C12.33 1.26, 12.71 1.53, 13.07 1.82 C13.42 2.1, 13.75 2.43, 14.05 2.77 C14.34 3.12, 14.61 3.49, 14.84 3.88 C15.07 4.27, 15.27 4.68, 15.43 5.11 C15.58 5.53, 15.71 5.97, 15.79 6.41 C15.87 6.85, 15.89 7.54, 15.91 7.76 C15.93 7.98, 15.93 7.54, 15.91 7.76" stroke="#7950f2" stroke-width="4" fill="none"/></g></svg>