<svg data-v-423bf9ae="" xmlns="http://www.w3.org/2000/svg" viewBox="0 0 400 90" class="iconLeft"><!----><!----><!----><g data-v-423bf9ae="" id="796c62a7-494e-42b1-ac75-11620215dbc0" fill="#bdbdbd" transform="matrix(4.622496128082275,0,0,4.622496128082275,105.70108032226562,0.02311478927731514)"><path d="M0.93 13.15L2.35 13.15L2.35 3.24L0.93 3.24ZM5.66 11.94C6.10 10.24 10.24 9.06 10.24 6.31C10.25 4.75 9.09 3.62 7.18 3.59C5.53 3.57 4.58 4.59 4.16 5.31L5.24 6.02C5.57 5.50 6.13 4.80 7.15 4.80C8.08 4.80 8.78 5.50 8.78 6.36C8.76 8.69 3.95 9.71 3.95 12.66L3.95 13.15L10.44 13.15L10.44 11.94ZM15.46 6.36C14.51 6.36 13.81 6.75 13.40 7.32L13.40 3.24L11.99 3.24L11.99 13.15L13.40 13.15L13.40 9.42C13.40 8.02 14.26 7.57 15.06 7.57C16.09 7.57 16.52 8.30 16.52 9.38L16.52 13.15L17.94 13.15L17.94 9.06C17.94 7 16.61 6.36 15.46 6.36ZM26.92 6.36C25.75 6.36 25.17 6.80 24.75 7.41C24.33 6.66 23.60 6.36 22.84 6.36C22.08 6.36 21.39 6.72 21.01 7.38L20.85 6.53L19.61 6.53L19.61 13.15L21.03 13.15L21.03 9.26C21.12 8.15 21.64 7.57 22.49 7.57C23.39 7.57 23.76 8.31 23.76 9.39L23.76 13.15L25.17 13.15L25.17 9.60C25.17 8.30 25.70 7.57 26.61 7.57C27.53 7.57 27.90 8.31 27.90 9.38L27.90 13.15L29.31 13.15L29.31 9.28C29.31 7.12 28.18 6.36 26.92 6.36ZM34.11 13.34C35.03 13.34 35.77 13.07 36.39 12.60L35.57 11.58C35.20 11.93 34.69 12.13 34.14 12.13C32.84 12.13 32.07 11.14 32.07 9.84C32.07 8.55 32.84 7.57 34.14 7.57C34.69 7.57 35.20 7.77 35.57 8.12L36.39 7.10C35.77 6.64 35.03 6.36 34.11 6.36C32.05 6.36 30.63 7.89 30.63 9.84C30.63 11.81 32.05 13.34 34.11 13.34ZM37.38 10.03L41.02 10.03L41.02 8.87L37.38 8.87ZM47.78 6.53L47.66 7.42C47.13 6.77 46.38 6.36 45.38 6.36C43.66 6.36 42.29 7.69 42.29 9.84C42.29 12.00 43.66 13.31 45.38 13.31C46.35 13.31 47.09 12.94 47.60 12.32L47.60 16.22L49.01 16.22L49.01 6.53ZM45.72 12.12C44.52 12.12 43.74 11.14 43.74 9.84C43.74 8.55 44.52 7.55 45.72 7.55C46.96 7.55 47.76 8.55 47.76 9.84C47.76 11.14 46.96 12.12 45.72 12.12ZM53.89 13.34C54.80 13.34 55.55 13.07 56.16 12.60L55.34 11.58C54.98 11.93 54.47 12.13 53.91 12.13C52.62 12.13 51.84 11.14 51.84 9.84C51.84 8.55 52.62 7.57 53.91 7.57C54.47 7.57 54.98 7.77 55.34 8.12L56.16 7.10C55.55 6.64 54.80 6.36 53.89 6.36C51.83 6.36 50.40 7.89 50.40 9.84C50.40 11.81 51.83 13.34 53.89 13.34ZM62.18 3.24L62.18 7.32C61.67 6.72 60.94 6.36 60.00 6.36C58.28 6.36 56.90 7.69 56.90 9.84C56.90 12.00 58.28 13.31 60.00 13.31C60.99 13.31 61.76 12.91 62.27 12.25L62.45 13.15L63.60 13.15L63.60 3.24ZM60.33 12.12C59.14 12.12 58.35 11.14 58.35 9.84C58.35 8.55 59.14 7.55 60.33 7.55C61.57 7.55 62.37 8.55 62.37 9.84C62.37 11.14 61.57 12.12 60.33 12.12Z"></path></g><defs data-v-423bf9ae=""><linearGradient data-v-423bf9ae="" gradientTransform="rotate(25)" id="afb08170-762b-40f3-aab4-4bb3c98ae365" x1="0%" y1="0%" x2="100%" y2="0%"><stop data-v-423bf9ae="" offset="0%" style="stop-color: rgb(0, 204, 255); stop-opacity: 1;"></stop><stop data-v-423bf9ae="" offset="100%" style="stop-color: rgb(249, 38, 114); stop-opacity: 1;"></stop></linearGradient></defs><g data-v-423bf9ae="" id="daed6014-ec6c-4d69-8952-6b4f43c1764a" transform="matrix(1.1688311100006104,0,0,1.1688311100006104,-12.94155502319336,-12.94155502319336)" stroke="none" fill="url(#afb08170-762b-40f3-aab4-4bb3c98ae365)"><path d="M31.642 66.944l-4.95 4.95a1 1 0 1 0 1.414 1.414l4.95-4.95a1 1 0 1 0-1.414-1.414zM37.5 53.5a1 1 0 0 0 1-1v-7a1 1 0 0 0-2 0v7a1 1 0 0 0 1 1zM55.5 61.5h-7a1 1 0 0 0 0 2h7a1 1 0 0 0 0-2zM37.5 56.5c-3.309 0-6 2.691-6 6 0 1.654.673 3.154 1.76 4.24s2.586 1.76 4.24 1.76c3.309 0 6-2.691 6-6s-2.691-6-6-6zm3.858 7c-.447 1.72-2 3-3.858 3-1.103 0-2.103-.449-2.827-1.173S33.5 63.603 33.5 62.5c0-2.206 1.794-4 4-4 1.858 0 3.41 1.28 3.858 3 .084.322.142.653.142 1s-.058.678-.142 1z"></path><path d="M88.5 17.5c0-3.309-2.691-6-6-6-2.967 0-5.431 2.167-5.91 5H43.41c-.479-2.833-2.943-5-5.91-5-3.309 0-6 2.691-6 6a5.96 5.96 0 0 0 1.115 3.471L20.97 32.615A5.96 5.96 0 0 0 17.5 31.5c-3.309 0-6 2.691-6 6 0 2.967 2.167 5.431 5 5.91v33.18c-2.833.479-5 2.943-5 5.91 0 3.309 2.691 6 6 6 2.967 0 5.431-2.167 5.91-5h33.18c.479 2.833 2.943 5 5.91 5 3.309 0 6-2.691 6-6a5.98 5.98 0 0 0-1.989-4.45l12.236-10.876A5.968 5.968 0 0 0 82.5 68.5c3.309 0 6-2.691 6-6 0-2.967-2.167-5.431-5-5.91V23.41c2.833-.479 5-2.943 5-5.91zm-51-4c1.858 0 3.41 1.28 3.858 3 .084.322.142.653.142 1s-.058.678-.142 1a3.995 3.995 0 0 1-2.858 2.858c-.322.084-.653.142-1 .142s-.678-.058-1-.142a3.957 3.957 0 0 1-1.02-.425c-.291-.172-.569-.367-.807-.606s-.434-.516-.606-.808A3.955 3.955 0 0 1 33.5 17.5c0-2.206 1.794-4 4-4zm-3.471 8.885A5.96 5.96 0 0 0 36.5 23.41v1.09a1 1 0 0 0 2 0v-1.09a6.005 6.005 0 0 0 4.91-4.91h33.18a5.96 5.96 0 0 0 1.025 2.471L65.97 32.615A5.96 5.96 0 0 0 62.5 31.5c-2.967 0-5.431 2.167-5.91 5H38.5v-5a1 1 0 0 0-2 0v5H23.41a5.96 5.96 0 0 0-1.025-2.471L34.03 22.385zM66.5 37.5c0 1.858-1.28 3.41-3 3.858-.322.084-.653.142-1 .142s-.678-.058-1-.142a3.995 3.995 0 0 1-2.858-2.858c-.084-.322-.142-.653-.142-1s.058-.678.142-1c.447-1.72 2-3 3.858-3 .74 0 1.424.215 2.02.567.291.172.569.367.807.606s.434.516.606.808c.352.595.567 1.28.567 2.019zm-53 0c0-2.206 1.794-4 4-4 .74 0 1.424.215 2.02.567.291.172.569.367.807.606s.434.516.606.808c.187.315.33.656.425 1.019.084.322.142.653.142 1s-.058.678-.142 1a3.995 3.995 0 0 1-2.858 2.858c-.322.084-.653.142-1 .142s-.678-.058-1-.142c-1.72-.447-3-2-3-3.858zm7.858 46c-.447 1.72-2 3-3.858 3-2.206 0-4-1.794-4-4 0-1.858 1.28-3.41 3-3.858.322-.084.653-.142 1-.142s.678.058 1 .142c.363.094.704.238 1.02.425.291.172.569.367.807.606s.434.516.606.808c.187.315.33.656.425 1.019.084.322.142.653.142 1s-.058.678-.142 1zm35.232-2H23.41a5.96 5.96 0 0 0-1.025-2.471l.772-.772a1 1 0 1 0-1.414-1.414l-.772.772A5.96 5.96 0 0 0 18.5 76.59V43.41a6.005 6.005 0 0 0 4.91-4.91H36.5a1 1 0 0 0 2 0h18.09a6.005 6.005 0 0 0 4.91 4.91v33.18a6.005 6.005 0 0 0-4.91 4.91zm5.91 5c-1.858 0-3.41-1.28-3.858-3-.084-.322-.142-.653-.142-1s.058-.678.142-1a3.995 3.995 0 0 1 2.858-2.858 3.954 3.954 0 0 1 1-.142c.152 0 .296.028.444.045a3.974 3.974 0 0 1 1.167.3c.322.143.613.335.884.554.91.733 1.505 1.843 1.505 3.101 0 2.206-1.794 4-4 4zm14-23h.09c.134.789.42 1.525.83 2.178L64.748 76.94a5.951 5.951 0 0 0-1.248-.35V63.5h6a1 1 0 0 0 0-2h-6V43.41c2.833-.479 5-2.943 5-5.91a5.96 5.96 0 0 0-1.115-3.471L79.03 22.385A5.96 5.96 0 0 0 81.5 23.41v33.18a6.005 6.005 0 0 0-4.91 4.91h-.09a1 1 0 0 0 0 2zm10-1c0 2.206-1.794 4-4 4a3.976 3.976 0 0 1-2.229-.68 4.014 4.014 0 0 1-.748-.674 3.997 3.997 0 0 1-.568-.833 3.952 3.952 0 0 1-.313-.813c-.084-.322-.142-.653-.142-1s.058-.678.142-1a3.995 3.995 0 0 1 2.858-2.858c.322-.084.653-.142 1-.142s.678.058 1 .142c1.72.447 3 2 3 3.858zm-4-41c-.347 0-.678-.058-1-.142a3.957 3.957 0 0 1-1.02-.425c-.291-.172-.569-.367-.807-.606s-.434-.516-.606-.808a3.957 3.957 0 0 1-.425-1.019c-.084-.322-.142-.653-.142-1s.058-.678.142-1c.447-1.72 2-3 3.858-3 2.206 0 4 1.794 4 4 0 1.858-1.28 3.41-3 3.858a3.954 3.954 0 0 1-1 .142z"></path></g><!----></svg>