<svg xmlns="http://www.w3.org/2000/svg" xmlns:xlink="http://www.w3.org/1999/xlink" x="0" y="0" width="816.9885864257812" height="277.96875" style="
        width:816.9885864257812px;
        height:277.96875px;
        background: transparent;
        fill: none;
">
        
        
        <svg xmlns="http://www.w3.org/2000/svg" class="role-diagram-draw-area" style="overflow: visible;"><g class="shapes-region" style="stroke: black; fill: none;"><g class="composite-shape"><path class="real" d=" M327.97,62.05 L476.67,62.05 L476.67,210.75 L327.97,210.75 Z" style="stroke-width: 1; stroke: rgb(0, 0, 0); fill: none; fill-opacity: 1;"/></g><g class="composite-shape"><path class="real" d=" M461.7,146.51 C469.96,136.6 474.91,126.68 476.57,116.77 C478.22,126.68 483.17,136.6 491.44,146.51" style="stroke-width: 1; stroke: rgb(0, 0, 0); fill: none; fill-opacity: 1;"/></g><g class="composite-shape"><path class="real" d=" M342.74,126.69 C334.48,136.6 329.52,146.52 327.87,156.43 C326.22,146.52 321.26,136.6 313,126.69" style="stroke-width: 1; stroke: rgb(0, 0, 0); fill: none; fill-opacity: 1;"/></g><g class="composite-shape"><path class="real" d=" M411.64,77.12 C401.72,68.86 391.81,63.9 381.9,62.25 C391.81,60.6 401.72,55.64 411.64,47.38" style="stroke-width: 1; stroke: rgb(0, 0, 0); fill: none; fill-opacity: 1;"/></g><g class="composite-shape"><path class="real" d=" M391.81,196.08 C401.72,204.34 411.64,209.3 421.55,210.95 C411.64,212.6 401.72,217.56 391.81,225.82" style="stroke-width: 1; stroke: rgb(0, 0, 0); fill: none; fill-opacity: 1;"/></g><g class="arrow-line"><path class="connection real" stroke-dasharray="" d="  M314.04,225.21 L314.04,171.76" style="stroke: rgb(208, 2, 27); stroke-opacity: 1; stroke-width: 1; fill: none; fill-opacity: 1;"/><g stroke="rgb(208,2,27)" stroke-opacity="1" transform="matrix(3.061616997868383e-16,1,-1,3.061616997868383e-16,314.03766184310757,169.7633282559025)" style="stroke: rgb(208, 2, 27); stroke-width: 1;"><path d=" M10.93,-3.29 Q4.96,-0.45 0,0 Q4.96,0.45 10.93,3.29"/></g></g><g class="arrow-line"><path class="connection real" stroke-dasharray="" d="  M314.04,225.21 L367.48,225.21" style="stroke: rgb(208, 2, 27); stroke-opacity: 1; stroke-width: 1; fill: none; fill-opacity: 1;"/><g stroke="rgb(208,2,27)" stroke-opacity="1" transform="matrix(-1,1.2246467991473532e-16,-1.2246467991473532e-16,-1,369.4799695354153,225.2056359482102)" style="stroke: rgb(208, 2, 27); stroke-width: 1;"><path d=" M10.93,-3.29 Q4.96,-0.45 0,0 Q4.96,0.45 10.93,3.29"/></g></g><g class="composite-shape"><path class="real" d=" M365.63,152.4 C364.19,148.21 363.48,143.7 363.64,139.01 C364.37,118.46 381.62,102.39 402.17,103.12 C422.71,103.85 438.78,121.1 438.05,141.64 C437.32,162.19 420.08,178.26 399.53,177.53 C395.06,177.37 390.8,176.43 386.88,174.84 L400.85,140.32 Z" style="stroke-width: 1; stroke: none; stroke-opacity: 1; fill: none; fill-opacity: 1;"/><path class="real" d=" M365.63,152.4 C364.19,148.21 363.48,143.7 363.64,139.01 C364.37,118.46 381.62,102.39 402.17,103.12 C422.71,103.85 438.78,121.1 438.05,141.64 C437.32,162.19 420.08,178.26 399.53,177.53 C395.06,177.37 390.8,176.43 386.88,174.84" style="stroke-width: 1; stroke: rgb(74, 144, 226); stroke-opacity: 1; fill: none; fill-opacity: 1;"/></g><g class="arrow-line"><path class="connection real" stroke-dasharray="" d="  M365.31,152.06 L365.31,154.42" style="stroke: rgb(74, 144, 226); stroke-opacity: 1; stroke-width: 1; fill: none; fill-opacity: 1;"/><g stroke="none" fill="rgb(74,144,226)" fill-opacity="1" transform="matrix(-1.8369701987210297e-16,-1,1,-1.8369701987210297e-16,365.3071964793538,157.42479712672372)" style="stroke: none; fill: rgb(74, 144, 226); stroke-width: 1;"><path d=" M8.93,-4.29 L0,0 L8.93,4.29 Z"/></g></g><g/></g><g/><g/><g/></svg>
        <svg xmlns="http://www.w3.org/2000/svg" xmlns:xlink="http://www.w3.org/1999/xlink" width="815" height="275.9801025390625" style="width:815px;height:275.9801025390625px;font-family:ThickerLm-Math, ThickerLm, Asana-Math, Asana;background:transparent;"><g><g><g><g transform="matrix(1,0,0,1,505.1988830566406,138.12346313476561)"><path transform="matrix(0.024480000000000002,0,0,-0.024480000000000002,0,0)" d="M504 283C504 169 422 31 278 15L378 416C450 411 504 367 504 283ZM343 416L243 15C185 19 118 53 118 148C118 264 200 400 343 416ZM578 262C578 342 525 434 387 447C406 526 425 604 444 683C444 684 444 698 428 698C415 698 413 691 409 675L351 447C192 440 44 308 44 169C44 73 114 -7 235 -16L214 -105C202 -152 192 -189 192 -194C192 -208 203 -210 208 -210C228 -210 228 -184 233 -162L271 -16C432 -9 578 125 578 262Z" stroke="rgb(0,0,0)" stroke-opacity="1" stroke-width="8" fill="rgb(0,0,0)" fill-opacity="1"></path></g></g><g><g><g><g><g transform="matrix(1,0,0,1,520.5113830566406,141.53230126953125)"><path transform="matrix(0.017136,0,0,-0.017136,0,0)" d="M528 415C528 435 514 446 495 446C486 446 461 442 452 410C390 190 244 79 132 40L228 430C228 431 229 446 211 446C187 446 115 438 89 436C81 435 66 433 66 412C66 395 80 396 94 396C142 396 140 389 140 383C140 378 128 330 121 303C97 206 73 110 49 13L48 12C48 -3 63 -4 69 -4L83 -4L84 -4C155 8 264 47 368 144C501 268 528 404 528 415Z" stroke="rgb(0,0,0)" stroke-opacity="1" stroke-width="8" fill="rgb(0,0,0)" fill-opacity="1"></path></g></g></g></g></g><g><g transform="matrix(1,0,0,1,530.4403381347656,138.12346313476561)"><path transform="matrix(0.024480000000000002,0,0,-0.024480000000000002,0,0)" d="M336 -238C336 -233 334 -228 331 -226C229 -149 160 49 160 208L160 292C160 451 229 649 331 726C334 728 336 733 336 738C336 746 330 752 322 752C318 752 315 751 313 750C202 666 96 465 96 292L96 208C96 35 202 -166 313 -250C315 -251 318 -252 322 -252C330 -252 336 -246 336 -238Z" stroke="rgb(0,0,0)" stroke-opacity="1" stroke-width="8" fill="rgb(0,0,0)" fill-opacity="1"></path></g></g><g><g transform="matrix(1,0,0,1,539.9715881347656,138.12346313476561)"><path transform="matrix(0.024480000000000002,0,0,-0.024480000000000002,0,0)" d="M298 143C298 157 283 158 281 158C268 158 267 150 262 136C244 73 211 16 164 16C150 16 144 22 144 44C144 68 150 81 173 142L212 247C224 276 224 278 234 305C242 325 248 340 248 360C248 407 214 446 161 446C62 446 24 298 24 288C24 273 41 274 41 274C53 274 56 279 61 295C88 389 127 416 158 416C165 416 178 417 178 388C178 367 171 347 168 337C160 311 115 196 99 153C89 127 76 94 76 71C76 22 112 -16 162 -16C261 -16 298 133 298 143ZM288 625C288 647 272 666 247 666C217 666 188 638 188 608C188 587 205 568 231 568C256 568 288 592 288 625Z" stroke="rgb(0,0,0)" stroke-opacity="1" stroke-width="8" fill="rgb(0,0,0)" fill-opacity="1"></path></g></g><g><g transform="matrix(1,0,0,1,561.4346618652344,138.12346313476561)"><path transform="matrix(0.024480000000000002,0,0,-0.024480000000000002,0,0)" d="M726 250C726 263 715 274 702 274L414 274L414 563C414 576 402 588 389 588C376 588 364 576 364 563L364 274L76 274C63 274 52 263 52 250C52 237 63 226 76 226L364 226L364 -63C364 -76 376 -88 389 -88C402 -88 414 -76 414 -63L414 226L702 226C715 226 726 237 726 250Z" stroke="rgb(0,0,0)" stroke-opacity="1" stroke-width="8" fill="rgb(0,0,0)" fill-opacity="1"></path></g></g><g><g transform="matrix(1,0,0,1,585.3692932128906,138.12346313476561)"><path transform="matrix(0.024480000000000002,0,0,-0.024480000000000002,0,0)" d="" stroke="rgb(0,0,0)" stroke-opacity="1" stroke-width="8" fill="rgb(0,0,0)" fill-opacity="1"></path></g></g><g><g><g><g><g transform="matrix(1,0,0,1,593.4943542480469,138.12346313476561)"><path transform="matrix(0.024480000000000002,0,0,-0.024480000000000002,0,0)" d="M576 143C576 157 562 158 560 158C547 158 545 149 542 136C525 70 506 16 470 16C448 16 444 36 444 57C444 78 456 125 464 160L492 268C496 283 505 321 509 336C515 359 524 397 524 404C524 425 508 436 491 436C485 436 457 434 448 397C424 301 400 204 375 108C373 101 325 16 249 16C202 16 180 45 180 98C180 126 186 154 193 182L235 350C240 371 250 408 250 415C250 435 236 446 217 446C213 446 183 445 173 407L29 -172C26 -184 26 -189 26 -189C26 -206 39 -220 58 -220C82 -220 95 -200 97 -197C104 -187 114 -139 151 12C183 -11 226 -16 245 -16C312 -16 351 23 376 52C388 11 424 -16 468 -16C505 -16 530 9 546 42C564 80 576 142 576 143Z" stroke="rgb(0,0,0)" stroke-opacity="1" stroke-width="8" fill="rgb(0,0,0)" fill-opacity="1"></path></g></g></g></g><svg x="593.4943542480469" overflow="visible" y="111.65484619140625" height="11.988636016845703" width="14.758522033691406"><polyline points="0.00,10.63 7.38,5.71 14.76,10.63" style="fill:none;fill-opacity:1;stroke-width:1px;stroke:rgb(0,0,0);stroke-opacity:1;"></polyline></svg></g><g><g transform="matrix(1,0,0,1,608.2527770996094,138.12346313476561)"><path transform="matrix(0.024480000000000002,0,0,-0.024480000000000002,0,0)" d="M292 208L292 292C292 465 187 666 76 750C74 751 71 752 67 752C59 752 52 746 52 738C52 733 55 728 58 726C160 649 230 451 230 292L230 208C230 49 160 -149 58 -226C55 -228 52 -233 52 -238C52 -246 59 -252 67 -252C71 -252 74 -251 76 -250C187 -166 292 35 292 208Z" stroke="rgb(0,0,0)" stroke-opacity="1" stroke-width="8" fill="rgb(0,0,0)" fill-opacity="1"></path></g></g></g></g><g><g><g><g transform="matrix(1,0,0,1,325.1136169433594,40.140522460937504)"><path transform="matrix(0.024480000000000002,0,0,-0.024480000000000002,0,0)" d="M726 250C726 263 715 274 702 274L76 274C63 274 52 263 52 250C52 237 63 226 76 226L702 226C715 226 726 237 726 250Z" stroke="rgb(0,0,0)" stroke-opacity="1" stroke-width="8" fill="rgb(0,0,0)" fill-opacity="1"></path></g></g><g><g transform="matrix(1,0,0,1,344.1619567871094,40.140522460937504)"><path transform="matrix(0.024480000000000002,0,0,-0.024480000000000002,0,0)" d="M504 283C504 169 422 31 278 15L378 416C450 411 504 367 504 283ZM343 416L243 15C185 19 118 53 118 148C118 264 200 400 343 416ZM578 262C578 342 525 434 387 447C406 526 425 604 444 683C444 684 444 698 428 698C415 698 413 691 409 675L351 447C192 440 44 308 44 169C44 73 114 -7 235 -16L214 -105C202 -152 192 -189 192 -194C192 -208 203 -210 208 -210C228 -210 228 -184 233 -162L271 -16C432 -9 578 125 578 262Z" stroke="rgb(0,0,0)" stroke-opacity="1" stroke-width="8" fill="rgb(0,0,0)" fill-opacity="1"></path></g></g><g><g><g><g><g transform="matrix(1,0,0,1,359.4744567871094,43.54936059570312)"><path transform="matrix(0.017136,0,0,-0.017136,0,0)" d="M528 415C528 435 514 446 495 446C486 446 461 442 452 410C390 190 244 79 132 40L228 430C228 431 229 446 211 446C187 446 115 438 89 436C81 435 66 433 66 412C66 395 80 396 94 396C142 396 140 389 140 383C140 378 128 330 121 303C97 206 73 110 49 13L48 12C48 -3 63 -4 69 -4L83 -4L84 -4C155 8 264 47 368 144C501 268 528 404 528 415Z" stroke="rgb(0,0,0)" stroke-opacity="1" stroke-width="8" fill="rgb(0,0,0)" fill-opacity="1"></path></g></g></g></g></g><g><g transform="matrix(1,0,0,1,369.4034118652344,40.140522460937504)"><path transform="matrix(0.024480000000000002,0,0,-0.024480000000000002,0,0)" d="M336 -238C336 -233 334 -228 331 -226C229 -149 160 49 160 208L160 292C160 451 229 649 331 726C334 728 336 733 336 738C336 746 330 752 322 752C318 752 315 751 313 750C202 666 96 465 96 292L96 208C96 35 202 -166 313 -250C315 -251 318 -252 322 -252C330 -252 336 -246 336 -238Z" stroke="rgb(0,0,0)" stroke-opacity="1" stroke-width="8" fill="rgb(0,0,0)" fill-opacity="1"></path></g></g><g><g transform="matrix(1,0,0,1,378.9346618652344,40.140522460937504)"><path transform="matrix(0.024480000000000002,0,0,-0.024480000000000002,0,0)" d="M298 143C298 157 283 158 281 158C268 158 267 150 262 136C244 73 211 16 164 16C150 16 144 22 144 44C144 68 150 81 173 142L212 247C224 276 224 278 234 305C242 325 248 340 248 360C248 407 214 446 161 446C62 446 24 298 24 288C24 273 41 274 41 274C53 274 56 279 61 295C88 389 127 416 158 416C165 416 178 417 178 388C178 367 171 347 168 337C160 311 115 196 99 153C89 127 76 94 76 71C76 22 112 -16 162 -16C261 -16 298 133 298 143ZM288 625C288 647 272 666 247 666C217 666 188 638 188 608C188 587 205 568 231 568C256 568 288 592 288 625Z" stroke="rgb(0,0,0)" stroke-opacity="1" stroke-width="8" fill="rgb(0,0,0)" fill-opacity="1"></path></g></g><g><g transform="matrix(1,0,0,1,400.3977355957031,40.140522460937504)"><path transform="matrix(0.024480000000000002,0,0,-0.024480000000000002,0,0)" d="M726 250C726 263 715 274 702 274L414 274L414 563C414 576 402 588 389 588C376 588 364 576 364 563L364 274L76 274C63 274 52 263 52 250C52 237 63 226 76 226L364 226L364 -63C364 -76 376 -88 389 -88C402 -88 414 -76 414 -63L414 226L702 226C715 226 726 237 726 250Z" stroke="rgb(0,0,0)" stroke-opacity="1" stroke-width="8" fill="rgb(0,0,0)" fill-opacity="1"></path></g></g><g><g transform="matrix(1,0,0,1,424.3323669433594,40.140522460937504)"><path transform="matrix(0.024480000000000002,0,0,-0.024480000000000002,0,0)" d="" stroke="rgb(0,0,0)" stroke-opacity="1" stroke-width="8" fill="rgb(0,0,0)" fill-opacity="1"></path></g></g><g><g><g><g><g transform="matrix(1,0,0,1,432.4573669433594,40.140522460937504)"><path transform="matrix(0.024480000000000002,0,0,-0.024480000000000002,0,0)" d="M528 415C528 435 514 446 495 446C486 446 461 442 452 410C390 190 244 79 132 40L228 430C228 431 229 446 211 446C187 446 115 438 89 436C81 435 66 433 66 412C66 395 80 396 94 396C142 396 140 389 140 383C140 378 128 330 121 303C97 206 73 110 49 13L48 12C48 -3 63 -4 69 -4L83 -4L84 -4C155 8 264 47 368 144C501 268 528 404 528 415Z" stroke="rgb(0,0,0)" stroke-opacity="1" stroke-width="8" fill="rgb(0,0,0)" fill-opacity="1"></path></g></g></g></g><svg x="432.4573669433594" overflow="visible" y="13.671875" height="11.988636016845703" width="12.102272033691406"><polyline points="0.00,10.63 6.05,6.59 12.10,10.63" style="fill:none;fill-opacity:1;stroke-width:1px;stroke:rgb(0,0,0);stroke-opacity:1;"></polyline></svg></g><g><g transform="matrix(1,0,0,1,444.5596618652344,40.140522460937504)"><path transform="matrix(0.024480000000000002,0,0,-0.024480000000000002,0,0)" d="M292 208L292 292C292 465 187 666 76 750C74 751 71 752 67 752C59 752 52 746 52 738C52 733 55 728 58 726C160 649 230 451 230 292L230 208C230 49 160 -149 58 -226C55 -228 52 -233 52 -238C52 -246 59 -252 67 -252C71 -252 74 -251 76 -250C187 -166 292 35 292 208Z" stroke="rgb(0,0,0)" stroke-opacity="1" stroke-width="8" fill="rgb(0,0,0)" fill-opacity="1"></path></g></g></g></g><g><g><g><g transform="matrix(1,0,0,1,215.09231567382812,146.120625)"><path transform="matrix(0.024480000000000002,0,0,-0.024480000000000002,0,0)" d="M726 250C726 263 715 274 702 274L76 274C63 274 52 263 52 250C52 237 63 226 76 226L702 226C715 226 726 237 726 250Z" stroke="rgb(0,0,0)" stroke-opacity="1" stroke-width="8" fill="rgb(0,0,0)" fill-opacity="1"></path></g></g><g><g transform="matrix(1,0,0,1,234.14065551757812,146.120625)"><path transform="matrix(0.024480000000000002,0,0,-0.024480000000000002,0,0)" d="M504 283C504 169 422 31 278 15L378 416C450 411 504 367 504 283ZM343 416L243 15C185 19 118 53 118 148C118 264 200 400 343 416ZM578 262C578 342 525 434 387 447C406 526 425 604 444 683C444 684 444 698 428 698C415 698 413 691 409 675L351 447C192 440 44 308 44 169C44 73 114 -7 235 -16L214 -105C202 -152 192 -189 192 -194C192 -208 203 -210 208 -210C228 -210 228 -184 233 -162L271 -16C432 -9 578 125 578 262Z" stroke="rgb(0,0,0)" stroke-opacity="1" stroke-width="8" fill="rgb(0,0,0)" fill-opacity="1"></path></g></g><g><g><g><g><g transform="matrix(1,0,0,1,249.45315551757812,149.52946313476562)"><path transform="matrix(0.017136,0,0,-0.017136,0,0)" d="M528 415C528 435 514 446 495 446C486 446 461 442 452 410C390 190 244 79 132 40L228 430C228 431 229 446 211 446C187 446 115 438 89 436C81 435 66 433 66 412C66 395 80 396 94 396C142 396 140 389 140 383C140 378 128 330 121 303C97 206 73 110 49 13L48 12C48 -3 63 -4 69 -4L83 -4L84 -4C155 8 264 47 368 144C501 268 528 404 528 415Z" stroke="rgb(0,0,0)" stroke-opacity="1" stroke-width="8" fill="rgb(0,0,0)" fill-opacity="1"></path></g></g></g></g></g><g><g transform="matrix(1,0,0,1,259.3821105957031,146.120625)"><path transform="matrix(0.024480000000000002,0,0,-0.024480000000000002,0,0)" d="M336 -238C336 -233 334 -228 331 -226C229 -149 160 49 160 208L160 292C160 451 229 649 331 726C334 728 336 733 336 738C336 746 330 752 322 752C318 752 315 751 313 750C202 666 96 465 96 292L96 208C96 35 202 -166 313 -250C315 -251 318 -252 322 -252C330 -252 336 -246 336 -238Z" stroke="rgb(0,0,0)" stroke-opacity="1" stroke-width="8" fill="rgb(0,0,0)" fill-opacity="1"></path></g></g><g><g transform="matrix(1,0,0,1,268.9133605957031,146.120625)"><path transform="matrix(0.024480000000000002,0,0,-0.024480000000000002,0,0)" d="M298 143C298 157 283 158 281 158C268 158 267 150 262 136C244 73 211 16 164 16C150 16 144 22 144 44C144 68 150 81 173 142L212 247C224 276 224 278 234 305C242 325 248 340 248 360C248 407 214 446 161 446C62 446 24 298 24 288C24 273 41 274 41 274C53 274 56 279 61 295C88 389 127 416 158 416C165 416 178 417 178 388C178 367 171 347 168 337C160 311 115 196 99 153C89 127 76 94 76 71C76 22 112 -16 162 -16C261 -16 298 133 298 143ZM288 625C288 647 272 666 247 666C217 666 188 638 188 608C188 587 205 568 231 568C256 568 288 592 288 625Z" stroke="rgb(0,0,0)" stroke-opacity="1" stroke-width="8" fill="rgb(0,0,0)" fill-opacity="1"></path></g></g><g><g transform="matrix(1,0,0,1,277.3650817871094,146.120625)"><path transform="matrix(0.024480000000000002,0,0,-0.024480000000000002,0,0)" d="M292 208L292 292C292 465 187 666 76 750C74 751 71 752 67 752C59 752 52 746 52 738C52 733 55 728 58 726C160 649 230 451 230 292L230 208C230 49 160 -149 58 -226C55 -228 52 -233 52 -238C52 -246 59 -252 67 -252C71 -252 74 -251 76 -250C187 -166 292 35 292 208Z" stroke="rgb(0,0,0)" stroke-opacity="1" stroke-width="8" fill="rgb(0,0,0)" fill-opacity="1"></path></g></g></g></g><g><g><g><g transform="matrix(1,0,0,1,377.1733093261719,252.64049194335936)"><path transform="matrix(0.024480000000000002,0,0,-0.024480000000000002,0,0)" d="M504 283C504 169 422 31 278 15L378 416C450 411 504 367 504 283ZM343 416L243 15C185 19 118 53 118 148C118 264 200 400 343 416ZM578 262C578 342 525 434 387 447C406 526 425 604 444 683C444 684 444 698 428 698C415 698 413 691 409 675L351 447C192 440 44 308 44 169C44 73 114 -7 235 -16L214 -105C202 -152 192 -189 192 -194C192 -208 203 -210 208 -210C228 -210 228 -184 233 -162L271 -16C432 -9 578 125 578 262Z" stroke="rgb(0,0,0)" stroke-opacity="1" stroke-width="8" fill="rgb(0,0,0)" fill-opacity="1"></path></g></g><g><g><g><g><g transform="matrix(1,0,0,1,392.4858093261719,256.04936059570315)"><path transform="matrix(0.017136,0,0,-0.017136,0,0)" d="M576 143C576 157 562 158 560 158C547 158 545 149 542 136C525 70 506 16 470 16C448 16 444 36 444 57C444 78 456 125 464 160L492 268C496 283 505 321 509 336C515 359 524 397 524 404C524 425 508 436 491 436C485 436 457 434 448 397C424 301 400 204 375 108C373 101 325 16 249 16C202 16 180 45 180 98C180 126 186 154 193 182L235 350C240 371 250 408 250 415C250 435 236 446 217 446C213 446 183 445 173 407L29 -172C26 -184 26 -189 26 -189C26 -206 39 -220 58 -220C82 -220 95 -200 97 -197C104 -187 114 -139 151 12C183 -11 226 -16 245 -16C312 -16 351 23 376 52C388 11 424 -16 468 -16C505 -16 530 9 546 42C564 80 576 142 576 143Z" stroke="rgb(0,0,0)" stroke-opacity="1" stroke-width="8" fill="rgb(0,0,0)" fill-opacity="1"></path></g></g></g></g></g><g><g transform="matrix(1,0,0,1,404.2897644042969,252.64049194335936)"><path transform="matrix(0.024480000000000002,0,0,-0.024480000000000002,0,0)" d="M336 -238C336 -233 334 -228 331 -226C229 -149 160 49 160 208L160 292C160 451 229 649 331 726C334 728 336 733 336 738C336 746 330 752 322 752C318 752 315 751 313 750C202 666 96 465 96 292L96 208C96 35 202 -166 313 -250C315 -251 318 -252 322 -252C330 -252 336 -246 336 -238Z" stroke="rgb(0,0,0)" stroke-opacity="1" stroke-width="8" fill="rgb(0,0,0)" fill-opacity="1"></path></g></g><g><g transform="matrix(1,0,0,1,413.8210144042969,252.64049194335936)"><path transform="matrix(0.024480000000000002,0,0,-0.024480000000000002,0,0)" d="M298 143C298 157 283 158 281 158C268 158 267 150 262 136C244 73 211 16 164 16C150 16 144 22 144 44C144 68 150 81 173 142L212 247C224 276 224 278 234 305C242 325 248 340 248 360C248 407 214 446 161 446C62 446 24 298 24 288C24 273 41 274 41 274C53 274 56 279 61 295C88 389 127 416 158 416C165 416 178 417 178 388C178 367 171 347 168 337C160 311 115 196 99 153C89 127 76 94 76 71C76 22 112 -16 162 -16C261 -16 298 133 298 143ZM288 625C288 647 272 666 247 666C217 666 188 638 188 608C188 587 205 568 231 568C256 568 288 592 288 625Z" stroke="rgb(0,0,0)" stroke-opacity="1" stroke-width="8" fill="rgb(0,0,0)" fill-opacity="1"></path></g></g><g><g transform="matrix(1,0,0,1,422.2727355957031,252.64049194335936)"><path transform="matrix(0.024480000000000002,0,0,-0.024480000000000002,0,0)" d="M292 208L292 292C292 465 187 666 76 750C74 751 71 752 67 752C59 752 52 746 52 738C52 733 55 728 58 726C160 649 230 451 230 292L230 208C230 49 160 -149 58 -226C55 -228 52 -233 52 -238C52 -246 59 -252 67 -252C71 -252 74 -251 76 -250C187 -166 292 35 292 208Z" stroke="rgb(0,0,0)" stroke-opacity="1" stroke-width="8" fill="rgb(0,0,0)" fill-opacity="1"></path></g></g></g></g><g><g><g><g><g><g><g transform="matrix(1,0,0,1,341.9886169433594,251.06961059570312)"><path transform="matrix(0.017,0,0,-0.017,0,0)" d="M576 143C576 157 562 158 560 158C547 158 545 149 542 136C525 70 506 16 470 16C448 16 444 36 444 57C444 78 456 125 464 160L492 268C496 283 505 321 509 336C515 359 524 397 524 404C524 425 508 436 491 436C485 436 457 434 448 397C424 301 400 204 375 108C373 101 325 16 249 16C202 16 180 45 180 98C180 126 186 154 193 182L235 350C240 371 250 408 250 415C250 435 236 446 217 446C213 446 183 445 173 407L29 -172C26 -184 26 -189 26 -189C26 -206 39 -220 58 -220C82 -220 95 -200 97 -197C104 -187 114 -139 151 12C183 -11 226 -16 245 -16C312 -16 351 23 376 52C388 11 424 -16 468 -16C505 -16 530 9 546 42C564 80 576 142 576 143Z" stroke="rgb(208,2,27)" stroke-opacity="1" stroke-width="8" fill="rgb(208,2,27)" fill-opacity="1"></path></g></g></g></g><svg x="341.9886169433594" overflow="visible" y="232.97586059570312" height="8.991477012634277" width="10.255681037902832"><polyline points="0.00,8.05 5.13,4.63 10.26,8.05" style="fill:none;fill-opacity:1;stroke-width:1px;stroke:rgb(208,2,27);stroke-opacity:1;"></polyline></svg></g></g></g><g><g><g><g><g><g><g transform="matrix(1,0,0,1,276.2571105957031,199.43606567382812)"><path transform="matrix(0.017,0,0,-0.017,0,0)" d="M528 415C528 435 514 446 495 446C486 446 461 442 452 410C390 190 244 79 132 40L228 430C228 431 229 446 211 446C187 446 115 438 89 436C81 435 66 433 66 412C66 395 80 396 94 396C142 396 140 389 140 383C140 378 128 330 121 303C97 206 73 110 49 13L48 12C48 -3 63 -4 69 -4L83 -4L84 -4C155 8 264 47 368 144C501 268 528 404 528 415Z" stroke="rgb(208,2,27)" stroke-opacity="1" stroke-width="8" fill="rgb(208,2,27)" fill-opacity="1"></path></g></g></g></g><svg x="276.2571105957031" overflow="visible" y="181.34231567382812" height="8.991477012634277" width="8.409090995788574"><polyline points="0.00,8.05 4.20,5.24 8.41,8.05" style="fill:none;fill-opacity:1;stroke-width:1px;stroke:rgb(208,2,27);stroke-opacity:1;"></polyline></svg></g></g></g><g><g><g><g transform="matrix(1,0,0,1,392.3863830566406,144.31023559570312)"><path transform="matrix(0.0136,0,0,-0.0136,0,0)" d="M504 283C504 169 422 31 278 15L378 416C450 411 504 367 504 283ZM343 416L243 15C185 19 118 53 118 148C118 264 200 400 343 416ZM578 262C578 342 525 434 387 447C406 526 425 604 444 683C444 684 444 698 428 698C415 698 413 691 409 675L351 447C192 440 44 308 44 169C44 73 114 -7 235 -16L214 -105C202 -152 192 -189 192 -194C192 -208 203 -210 208 -210C228 -210 228 -184 233 -162L271 -16C432 -9 578 125 578 262Z" stroke="rgb(74,144,226)" stroke-opacity="1" stroke-width="8" fill="rgb(74,144,226)" fill-opacity="1"></path></g></g><g><g><g><g><g transform="matrix(1,0,0,1,400.8948669433594,147.61658813476564)"><path transform="matrix(0.009519999999999999,0,0,-0.009519999999999999,0,0)" d="M656 556C656 518 636 432 599 398C550 354 491 346 448 346L313 346L379 613C388 647 387 648 429 648L525 648C607 648 656 621 656 556ZM758 532C758 612 690 688 557 688L233 688C215 688 198 687 198 664C198 647 214 648 232 648C245 648 263 647 275 646C291 644 292 642 292 634C292 631 292 628 289 616L155 79C145 42 147 36 68 36C52 36 36 35 36 12C36 -4 53 -4 55 -4L182 -2L246 -2C268 -2 290 -4 311 -4C318 -4 336 -4 336 20C336 36 320 36 303 36C263 36 242 37 242 49C242 54 244 58 245 65L307 312L473 312C617 312 758 416 758 532Z" stroke="rgb(74,144,226)" stroke-opacity="1" stroke-width="8" fill="rgb(74,144,226)" fill-opacity="1"></path></g></g></g></g></g></g></g></svg>
</svg>
