<svg xmlns="http://www.w3.org/2000/svg" xmlns:xlink="http://www.w3.org/1999/xlink" x="0" y="0" width="829" height="380.90625" style="
        width:829px;
        height:380.90625px;
        background: #FFF;
        fill: none;
">
        
        
        <svg xmlns="http://www.w3.org/2000/svg" class="role-diagram-draw-area"><g class="shapes-region" style="stroke: black; fill: none;"><g class="arrow-line"><path class="connection real" stroke-dasharray="" d="  M248.5,250.2 C298.17,246.07 295.46,168.07 337.6,167.81" style="stroke: rgb(0, 0, 0); stroke-opacity: 1; stroke-width: 4; fill: none; fill-opacity: 1;"/><g><g stroke="none" fill="rgb(0,0,0)" fill-opacity="1" transform="matrix(-0.48404618606178273,0.8750424502611528,-0.8750424502611528,-0.48404618606178273,294.57108860781267,209.96395412342144)" style="stroke: none; fill: rgb(0, 0, 0); stroke-width: 4;"><path d=" M18.75,-9.01 L0,0 L18.75,9.01 L12.45,0 Z"/></g></g></g><g class="arrow-line"><path class="connection real" stroke-dasharray="" d="  M249.83,78.33 C299.5,74.2 298.5,166.84 340.64,166.58" style="stroke: rgb(0, 0, 0); stroke-opacity: 1; stroke-width: 4; fill: none; fill-opacity: 1;"/><g><g stroke="none" fill="rgb(0,0,0)" fill-opacity="1" transform="matrix(-0.45134483570441597,-0.8923496171809308,0.8923496171809308,-0.45134483570441597,297.3844650703443,119.65069216376685)" style="stroke: none; fill: rgb(0, 0, 0); stroke-width: 4;"><path d=" M18.75,-9.01 L0,0 L18.75,9.01 L12.45,0 Z"/></g></g></g><g class="composite-shape"><path class="real" d=" M174.83,63.81 C174.83,58.39 179.23,54 184.65,54 L238.47,54 C243.89,54 248.28,58.39 248.28,63.81 L248.28,93.25 C248.28,98.67 243.89,103.06 238.47,103.06 L184.65,103.06 C179.23,103.06 174.83,98.67 174.83,93.25 Z" style="stroke-width: 4; stroke: rgb(255, 255, 255); stroke-opacity: 1; fill: rgb(74, 74, 74); fill-opacity: 1;"/></g><g class="composite-shape"><path class="real" d=" M172.89,236.01 C172.89,230.59 177.28,226.2 182.7,226.2 L236.52,226.2 C241.94,226.2 246.33,230.59 246.33,236.01 L246.33,265.45 C246.33,270.87 241.94,275.26 236.52,275.26 L182.7,275.26 C177.28,275.26 172.89,270.87 172.89,265.45 Z" style="stroke-width: 4; stroke: rgb(255, 255, 255); stroke-opacity: 1; fill: rgb(74, 74, 74); fill-opacity: 1;"/></g><g class="composite-shape"><path class="real" d=" M169.83,151.09 C169.83,144.6 175.1,139.33 181.59,139.33 L246.08,139.33 C252.57,139.33 257.83,144.6 257.83,151.09 L257.83,186.36 C257.83,192.85 252.57,198.11 246.08,198.11 L181.59,198.11 C175.1,198.11 169.83,192.85 169.83,186.36 Z" style="stroke-width: 4; stroke: rgb(255, 255, 255); stroke-opacity: 1; fill: rgb(74, 74, 74); fill-opacity: 1;"/></g><g class="composite-shape"><path class="real" d=" M395.55,139.3 C395.55,132.02 401.45,126.11 408.73,126.11 L448.28,126.11 C455.56,126.11 461.46,132.02 461.46,139.3 L461.46,195.93 C461.46,203.21 455.56,209.11 448.28,209.11 L408.73,209.11 C401.45,209.11 395.55,203.21 395.55,195.93 Z" style="stroke-width: 4; stroke: rgb(255, 255, 255); stroke-opacity: 1; fill: rgb(74, 74, 74); fill-opacity: 1;"/></g><g class="composite-shape"><path class="real" d=" M575.55,138.3 C575.55,131.02 581.45,125.11 588.73,125.11 L628.28,125.11 C635.56,125.11 641.46,131.02 641.46,138.3 L641.46,194.93 C641.46,202.21 635.56,208.11 628.28,208.11 L588.73,208.11 C581.45,208.11 575.55,202.21 575.55,194.93 Z" style="stroke-width: 4; stroke: rgb(255, 255, 255); stroke-opacity: 1; fill: rgb(74, 74, 74); fill-opacity: 1;"/></g><g class="composite-shape"><path class="real" d=" M719.64,52.35 C719.64,41.77 728.21,33.2 738.78,33.2 L796.21,33.2 C806.78,33.2 815.35,41.77 815.35,52.35 L815.35,277.06 C815.35,287.63 806.78,296.2 796.21,296.2 L738.78,296.2 C728.21,296.2 719.64,287.63 719.64,277.06 Z" style="stroke-width: 4; stroke: rgb(0, 0, 0); stroke-opacity: 1; fill: rgb(74, 74, 74); fill-opacity: 0.75; stroke-dasharray: 10.5, 6;"/></g><g class="arrow-line"><path class="connection real" stroke-dasharray="" d="  M639.55,164.58 C711.5,167.2 647.5,69.2 716.5,68.2" style="stroke: rgb(0, 0, 0); stroke-opacity: 1; stroke-width: 4; fill: none; fill-opacity: 1;"/></g><g class="arrow-line"><path class="connection real" stroke-dasharray="" d="  M459.5,167.33 L487.5,167.33" style="stroke: rgb(0, 0, 0); stroke-opacity: 1; stroke-width: 4; fill: none; fill-opacity: 1;"/></g><g class="arrow-line"><path class="connection real" stroke-dasharray="" d="  M478.9,167.33 L485.5,167.33" style="stroke: rgb(0, 0, 0); stroke-opacity: 1; stroke-width: 4; fill: none; fill-opacity: 1;"/><g stroke="none" fill="rgb(0,0,0)" fill-opacity="1" transform="matrix(-1,1.2246467991473532e-16,-1.2246467991473532e-16,-1,491.5,167.3333282470703)" style="stroke: none; fill: rgb(0, 0, 0); stroke-width: 4;"><path d=" M18.75,-9.01 L0,0 L18.75,9.01 L12.45,0 Z"/></g></g><g class="arrow-line"><path class="connection real" stroke-dasharray="" d="  M364.3,167.33 L386.5,167.33" style="stroke: rgb(0, 0, 0); stroke-opacity: 1; stroke-width: 4; fill: none; fill-opacity: 1;"/></g><g class="arrow-line"><path class="connection real" stroke-dasharray="" d="  M382.3,167.33 L388.9,167.33" style="stroke: rgb(0, 0, 0); stroke-opacity: 1; stroke-width: 4; fill: none; fill-opacity: 1;"/><g stroke="none" fill="rgb(0,0,0)" fill-opacity="1" transform="matrix(-1,1.2246467991473532e-16,-1.2246467991473532e-16,-1,394.9,167.3333282470703)" style="stroke: none; fill: rgb(0, 0, 0); stroke-width: 4;"><path d=" M18.75,-9.01 L0,0 L18.75,9.01 L12.45,0 Z"/></g></g><g class="arrow-line"><path class="connection real" stroke-dasharray="" d="  M640.3,167.33 L712.5,167.33" style="stroke: rgb(0, 0, 0); stroke-opacity: 1; stroke-width: 4; fill: none; fill-opacity: 1;"/><g stroke="none" fill="rgb(0,0,0)" fill-opacity="1" transform="matrix(-1,1.2246467991473532e-16,-1.2246467991473532e-16,-1,718.5,167.33332824707028)" style="stroke: none; fill: rgb(0, 0, 0); stroke-width: 4;"><path d=" M18.75,-9.01 L0,0 L18.75,9.01 L12.45,0 Z"/></g></g><g class="arrow-line"><path class="connection real" stroke-dasharray="" d="  M639.3,170.33 C712.5,168.2 646.5,261.2 715.5,260.2" style="stroke: rgb(0, 0, 0); stroke-opacity: 1; stroke-width: 4; fill: none; fill-opacity: 1;"/></g><g class="arrow-line"><path class="connection real" stroke-dasharray="" d="  M710.8,68.33 L714.21,67.4" style="stroke: rgb(0, 0, 0); stroke-opacity: 1; stroke-width: 4; fill: none; fill-opacity: 1;"/><g stroke="none" fill="rgb(0,0,0)" fill-opacity="1" transform="matrix(-0.9648790802633,0.26269442413239047,-0.26269442413239047,-0.9648790802633,719.9999999999999,65.828125)" style="stroke: none; fill: rgb(0, 0, 0); stroke-width: 4;"><path d=" M18.75,-9.01 L0,0 L18.75,9.01 L12.45,0 Z"/></g></g><g class="arrow-line"><path class="connection real" stroke-dasharray="" d="  M710.3,259.83 L714.36,261.29" style="stroke: rgb(0, 0, 0); stroke-opacity: 1; stroke-width: 4; fill: none; fill-opacity: 1;"/><g stroke="none" fill="rgb(0,0,0)" fill-opacity="1" transform="matrix(-0.9408216337039957,-0.3389021297580533,0.3389021297580533,-0.9408216337039957,720.0000000000001,263.328125)" style="stroke: none; fill: rgb(0, 0, 0); stroke-width: 4;"><path d=" M18.75,-9.01 L0,0 L18.75,9.01 L12.45,0 Z"/></g></g><g class="composite-shape"><path class="real" d=" M9.09,55.35 C9.09,44.77 17.66,36.2 28.23,36.2 L85.66,36.2 C96.23,36.2 104.81,44.77 104.81,55.35 L104.81,280.06 C104.81,290.63 96.23,299.2 85.66,299.2 L28.23,299.2 C17.66,299.2 9.09,290.63 9.09,280.06 Z" style="stroke-width: 4; stroke: rgb(0, 0, 0); stroke-opacity: 1; fill: rgb(74, 74, 74); fill-opacity: 0.75; stroke-dasharray: 10.5, 6;"/></g><g class="composite-shape"><path class="real" d=" M318.89,346.94 C318.89,344.21 321.1,342 323.83,342 L364.71,342 C367.45,342 369.66,344.21 369.66,346.94 L369.66,361.78 C369.66,364.51 367.45,366.72 364.71,366.72 L323.83,366.72 C321.1,366.72 318.89,364.51 318.89,361.78 Z" style="stroke-width: 4; stroke: rgb(255, 255, 255); stroke-opacity: 1; fill: rgb(74, 74, 74); fill-opacity: 1;"/></g><g class="arrow-line"><path class="connection real" stroke-dasharray="" d="  M260,166.58 L338.64,166.58" style="stroke: rgb(0, 0, 0); stroke-opacity: 1; stroke-width: 4; fill: none; fill-opacity: 1;"/><g><g stroke="none" fill="rgb(0,0,0)" fill-opacity="1" transform="matrix(-1,1.2246467991473532e-16,-1.2246467991473532e-16,-1,299.3203055063883,166.57858129129627)" style="stroke: none; fill: rgb(0, 0, 0); stroke-width: 4;"><path d=" M18.75,-9.01 L0,0 L18.75,9.01 L12.45,0 Z"/></g></g></g><g class="arrow-line"><path class="connection real" stroke-dasharray="" d="  M104.5,77.33 L174.5,77.33" style="stroke: rgb(0, 0, 0); stroke-opacity: 1; stroke-width: 4; fill: none; fill-opacity: 1;"/></g><g class="arrow-line"><path class="connection real" stroke-dasharray="" d="  M139.3,77.33 L145.9,77.33" style="stroke: rgb(0, 0, 0); stroke-opacity: 1; stroke-width: 4; fill: none; fill-opacity: 1;"/><g stroke="none" fill="rgb(0,0,0)" fill-opacity="1" transform="matrix(-1,1.2246467991473532e-16,-1.2246467991473532e-16,-1,151.89999999999998,77.33332824707033)" style="stroke: none; fill: rgb(0, 0, 0); stroke-width: 4;"><path d=" M18.75,-9.01 L0,0 L18.75,9.01 L12.45,0 Z"/></g></g><g class="arrow-line"><path class="connection real" stroke-dasharray="" d="  M103.5,168.33 L170.5,168.33" style="stroke: rgb(0, 0, 0); stroke-opacity: 1; stroke-width: 4; fill: none; fill-opacity: 1;"/></g><g class="arrow-line"><path class="connection real" stroke-dasharray="" d="  M139.3,168.33 L145.9,168.33" style="stroke: rgb(0, 0, 0); stroke-opacity: 1; stroke-width: 4; fill: none; fill-opacity: 1;"/><g stroke="none" fill="rgb(0,0,0)" fill-opacity="1" transform="matrix(-1,1.2246467991473532e-16,-1.2246467991473532e-16,-1,151.89999999999995,168.33332824707034)" style="stroke: none; fill: rgb(0, 0, 0); stroke-width: 4;"><path d=" M18.75,-9.01 L0,0 L18.75,9.01 L12.45,0 Z"/></g></g><g class="arrow-line"><path class="connection real" stroke-dasharray="" d="  M104.5,252.33 L174.5,252.33" style="stroke: rgb(0, 0, 0); stroke-opacity: 1; stroke-width: 4; fill: none; fill-opacity: 1;"/></g><g class="arrow-line"><path class="connection real" stroke-dasharray="" d="  M139.3,252.33 L145.9,252.33" style="stroke: rgb(0, 0, 0); stroke-opacity: 1; stroke-width: 4; fill: none; fill-opacity: 1;"/><g stroke="none" fill="rgb(0,0,0)" fill-opacity="1" transform="matrix(-1,1.2246467991473532e-16,-1.2246467991473532e-16,-1,151.89999999999995,252.33332824707034)" style="stroke: none; fill: rgb(0, 0, 0); stroke-width: 4;"><path d=" M18.75,-9.01 L0,0 L18.75,9.01 L12.45,0 Z"/></g></g><g class="composite-shape"><path class="real" d=" M337.6,167.81 C337.6,159.08 344.68,152 353.41,152 C362.14,152 369.22,159.08 369.22,167.81 C369.22,176.54 362.14,183.62 353.41,183.62 C344.68,183.62 337.6,176.54 337.6,167.81 Z" style="stroke-width: 4; stroke: rgb(0, 0, 0); stroke-opacity: 1; fill: rgb(235, 235, 235); fill-opacity: 1;"/></g><g class="arrow-line"><path class="connection real" stroke-dasharray="" d="  M540.5,167.33 L568.5,167.33" style="stroke: rgb(0, 0, 0); stroke-opacity: 1; stroke-width: 4; fill: none; fill-opacity: 1;"/></g><g class="arrow-line"><path class="connection real" stroke-dasharray="" d="  M559.9,167.33 L566.5,167.33" style="stroke: rgb(0, 0, 0); stroke-opacity: 1; stroke-width: 4; fill: none; fill-opacity: 1;"/><g stroke="none" fill="rgb(0,0,0)" fill-opacity="1" transform="matrix(-1,1.2246467991473532e-16,-1.2246467991473532e-16,-1,572.5,167.3333282470703)" style="stroke: none; fill: rgb(0, 0, 0); stroke-width: 4;"><path d=" M18.75,-9.01 L0,0 L18.75,9.01 L12.45,0 Z"/></g></g><g class="arrow-line"><path class="connection real" stroke-dasharray="" d="  M513,243 C514.95,240.08 505.49,240 503.16,190.88" style="stroke: rgb(0, 0, 0); stroke-width: 3; fill: none; fill-opacity: 1;"/><g stroke="#000" transform="matrix(0.037690182669935166,0.9992894726405892,-0.9992894726405892,0.037690182669935166,503.00000000000006,187)" style="stroke: rgb(0, 0, 0); stroke-width: 3;"><path d=" M17.49,-5.26 Q7.94,-0.72 0,0 Q7.94,0.72 17.49,5.26"/></g></g><g/></g><g/><g/><g/></svg>
        <svg xmlns="http://www.w3.org/2000/svg" xmlns:xlink="http://www.w3.org/1999/xlink" width="827" height="378.90625" style="width:827px;height:378.90625px;font-family:LatinModern-Math, LatinModern, Asana-Math, Asana;background:#FFF;"><g><g><g><g><g><g><g transform="matrix(1,0,0,1,406.9921875,182.35343749999998)"><path transform="matrix(0.04233,0,0,-0.04233,0,0)" d="M546 143C546 153 537 153 534 153C524 153 524 150 519 135C504 82 472 11 417 11C400 11 393 21 393 44C393 69 402 93 411 115C427 158 472 277 472 335C472 400 432 442 357 442C294 442 246 411 209 365L287 683C287 683 287 694 274 694C251 694 178 686 152 684C144 683 133 682 133 664C133 652 142 652 157 652C205 652 207 645 207 635L204 615L59 39C55 25 55 23 55 17C55 -6 75 -11 84 -11C100 -11 116 1 121 15L140 91L162 181C168 203 174 225 179 248C181 254 189 287 190 293C193 302 224 358 258 385C280 401 311 420 354 420C397 420 408 386 408 350C408 296 370 187 346 126C338 103 333 91 333 71C333 24 368 -11 415 -11C509 -11 546 135 546 143Z" stroke="rgb(239,239,239)" stroke-opacity="1" stroke-width="8" fill="rgb(239,239,239)" fill-opacity="1"></path></g></g><g><g><g><g><g transform="matrix(1,0,0,1,432.6484375,189.8263125)"><path transform="matrix(0.029631,0,0,-0.029631,0,0)" d="M419 0L419 31L387 31C297 31 294 42 294 79L294 640C294 664 294 666 271 666C209 602 121 602 89 602L89 571C109 571 168 571 220 597L220 79C220 43 217 31 127 31L95 31L95 0C130 3 217 3 257 3C297 3 384 3 419 0Z" stroke="rgb(239,239,239)" stroke-opacity="1" stroke-width="8" fill="rgb(239,239,239)" fill-opacity="1"></path></g></g></g></g></g></g></g></g></g></g><g><g><g><g><g><g><g transform="matrix(1,0,0,1,749.1484375,82.3221875)"><path transform="matrix(0.04233,0,0,-0.04233,0,0)" d="M645 695C645 698 643 705 634 705C629 705 628 704 616 690L568 633C542 680 490 705 425 705C298 705 178 590 178 469C178 388 231 342 282 327L389 299C426 290 481 275 481 193C481 103 399 9 301 9C237 9 126 31 126 155C126 179 131 203 132 209C133 213 134 216 134 216C134 226 127 227 122 227C117 227 115 226 112 223C108 219 52 -9 52 -12C52 -18 57 -22 63 -22C68 -22 69 -21 81 -7L130 50C173 -8 241 -22 299 -22C435 -22 553 111 553 235C553 304 519 338 504 352C481 375 466 379 377 402L310 420C283 429 249 458 249 511C249 592 329 677 424 677C507 677 568 634 568 522C568 490 564 472 564 466C564 466 564 456 576 456C586 456 587 459 591 476Z" stroke="rgb(255,255,255)" stroke-opacity="1" stroke-width="8" fill="rgb(255,255,255)" fill-opacity="1"></path></g></g><g><g><g><g><g transform="matrix(1,0,0,1,779.5078125,89.7950625)"><path transform="matrix(0.029631,0,0,-0.029631,0,0)" d="M468 372C468 426 442 442 424 442C399 442 375 416 375 394C375 381 380 375 391 364C412 344 425 318 425 282C425 240 364 11 247 11C196 11 173 46 173 98C173 154 200 227 231 310C238 327 243 341 243 360C243 405 211 442 161 442C67 442 29 297 29 288C29 278 41 278 41 278C51 278 52 280 57 296C86 397 129 420 158 420C166 420 183 420 183 388C183 363 173 336 166 318C122 202 109 156 109 113C109 5 197 -11 243 -11C411 -11 468 320 468 372Z" stroke="rgb(255,255,255)" stroke-opacity="1" stroke-width="8" fill="rgb(255,255,255)" fill-opacity="1"></path></g></g></g></g></g></g></g></g></g></g><g><g><g><g><g><g><g transform="matrix(1,0,0,1,741.65625,179.44718749999998)"><path transform="matrix(0.04233,0,0,-0.04233,0,0)" d="M740 436C740 597 634 705 485 705C269 705 49 478 49 245C49 79 161 -22 305 -22C330 -22 364 -18 403 -7C399 -69 399 -71 399 -84C399 -116 399 -194 482 -194C601 -194 649 -11 649 0C649 7 642 10 638 10C630 10 628 5 626 -1C602 -72 544 -97 509 -97C463 -97 448 -70 438 6C593 65 740 243 740 436ZM652 468C652 368 601 134 433 40C428 75 418 148 345 148C292 148 243 98 243 46C243 26 249 14 249 14C171 45 137 123 137 213C137 282 163 424 239 532C312 634 406 680 479 680C579 680 652 602 652 468ZM406 41C406 26 405 25 395 21C369 10 339 3 311 3C297 3 265 3 265 46C265 86 303 126 345 126C387 126 406 102 406 41Z" stroke="rgb(255,255,255)" stroke-opacity="1" stroke-width="8" fill="rgb(255,255,255)" fill-opacity="1"></path></g></g><g><g><g><g><g transform="matrix(1,0,0,1,776.40625,186.9200625)"><path transform="matrix(0.029631,0,0,-0.029631,0,0)" d="M468 372C468 426 442 442 424 442C399 442 375 416 375 394C375 381 380 375 391 364C412 344 425 318 425 282C425 240 364 11 247 11C196 11 173 46 173 98C173 154 200 227 231 310C238 327 243 341 243 360C243 405 211 442 161 442C67 442 29 297 29 288C29 278 41 278 41 278C51 278 52 280 57 296C86 397 129 420 158 420C166 420 183 420 183 388C183 363 173 336 166 318C122 202 109 156 109 113C109 5 197 -11 243 -11C411 -11 468 320 468 372Z" stroke="rgb(255,255,255)" stroke-opacity="1" stroke-width="8" fill="rgb(255,255,255)" fill-opacity="1"></path></g></g></g></g></g></g></g></g></g></g><g><g><g><g><g><g><g transform="matrix(1,0,0,1,748.1171875,275.3221875)"><path transform="matrix(0.04233,0,0,-0.04233,0,0)" d="M704 666C704 677 694 677 677 677L122 677C98 677 97 676 90 657L30 481C29 479 24 463 24 463C24 457 29 452 36 452C46 452 47 457 53 473C107 628 133 646 281 646L320 646C348 646 348 642 348 634C348 628 345 616 344 613L210 79C201 42 198 31 91 31C55 31 49 31 49 12C49 0 60 0 66 0C93 0 121 2 148 2L233 3L316 2C345 2 375 0 403 0C413 0 425 0 425 20C425 31 417 31 391 31C366 31 353 31 327 33C298 36 290 39 290 55C290 55 290 61 294 76L427 607C434 635 438 641 450 644C459 646 492 646 513 646C614 646 659 642 659 564C659 549 655 510 651 484C650 480 648 468 648 465C648 459 651 452 660 452C671 452 673 460 675 475L702 649C703 653 704 663 704 666Z" stroke="rgb(255,255,255)" stroke-opacity="1" stroke-width="8" fill="rgb(255,255,255)" fill-opacity="1"></path></g></g><g><g><g><g><g transform="matrix(1,0,0,1,780.5390625,282.7950625)"><path transform="matrix(0.029631,0,0,-0.029631,0,0)" d="M468 372C468 426 442 442 424 442C399 442 375 416 375 394C375 381 380 375 391 364C412 344 425 318 425 282C425 240 364 11 247 11C196 11 173 46 173 98C173 154 200 227 231 310C238 327 243 341 243 360C243 405 211 442 161 442C67 442 29 297 29 288C29 278 41 278 41 278C51 278 52 280 57 296C86 397 129 420 158 420C166 420 183 420 183 388C183 363 173 336 166 318C122 202 109 156 109 113C109 5 197 -11 243 -11C411 -11 468 320 468 372Z" stroke="rgb(255,255,255)" stroke-opacity="1" stroke-width="8" fill="rgb(255,255,255)" fill-opacity="1"></path></g></g></g></g></g></g></g></g></g></g><g><g><g><g><g><g><g transform="matrix(1,0,0,1,23.984375,180.3853125)"><path transform="matrix(0.03519,0,0,-0.03519,0,0)" d="M515 457C475 616 357 716 234 716C89 716 76 586 83 558C86 544 99 523 129 523C162 523 176 553 170 576C161 611 130 611 114 611C140 685 209 691 238 691C311 691 394 639 427 510C436 471 443 420 441 339C416 401 361 457 283 457C222 457 161 441 102 363C40 280 56 187 64 156C80 94 152 -22 292 -22C530 -22 551 314 515 457ZM432 303C450 231 443 6 289 6C179 6 153 109 150 119C144 146 134 286 160 346C185 403 226 435 288 435C397 435 427 323 432 303Z" stroke="rgb(255,255,255)" stroke-opacity="1" stroke-width="8" fill="rgb(255,255,255)" fill-opacity="1"></path></g></g><g><g><g><g><g transform="matrix(1,0,0,1,45.65625,186.5939375)"><path transform="matrix(0.024633,0,0,-0.024633,0,0)" d="M527 376C527 428 468 442 434 442C376 442 341 389 329 366C304 432 250 442 221 442C117 442 60 313 60 288C60 278 72 278 72 278C80 278 83 280 85 289C119 395 185 420 219 420C238 420 273 411 273 353C273 322 256 255 219 115C203 53 168 11 124 11C118 11 95 11 74 24C99 29 121 50 121 78C121 105 99 113 84 113C54 113 29 87 29 55C29 9 79 -11 123 -11C189 -11 225 59 228 65C240 28 276 -11 336 -11C439 -11 496 118 496 143C496 153 487 153 484 153C475 153 473 149 471 142C438 35 370 11 338 11C299 11 283 43 283 77C283 99 289 121 300 165L334 302C340 328 363 420 433 420C438 420 462 420 483 407C455 402 435 377 435 353C435 337 446 318 473 318C495 318 527 336 527 376Z" stroke="rgb(255,255,255)" stroke-opacity="1" stroke-width="8" fill="rgb(255,255,255)" fill-opacity="1"></path></g></g></g></g></g><g><g transform="matrix(1,0,0,1,61.859375,180.3853125)"><path transform="matrix(0.03519,0,0,-0.03519,0,0)" d="M760 672C760 672 760 683 747 683C714 683 679 680 645 680C611 680 574 683 541 683C535 683 523 683 523 663C523 652 533 652 541 652C598 651 609 630 609 608C609 605 607 590 606 587L516 230C482 96 367 9 267 9C199 9 145 53 145 139C145 139 145 173 156 217L253 606C262 642 264 652 337 652C363 652 371 652 371 672C371 683 360 683 357 683L229 680L100 683C92 683 81 683 81 663C81 652 90 652 109 652C109 652 130 652 147 650C165 648 174 647 174 634C174 628 163 586 157 563L135 475L74 228C67 200 67 185 67 170C67 48 158 -22 263 -22C389 -22 513 91 546 223L635 578C645 619 663 649 743 652C748 652 760 653 760 672Z" stroke="rgb(255,255,255)" stroke-opacity="1" stroke-width="8" fill="rgb(255,255,255)" fill-opacity="1"></path></g></g></g></g></g></g></g><g><g><g><g><g><g><g transform="matrix(1,0,0,1,46.875,88.268125)"><path transform="matrix(0.03519,0,0,-0.03519,0,0)" d="M527 376C527 428 468 442 434 442C376 442 341 389 329 366C304 432 250 442 221 442C117 442 60 313 60 288C60 278 72 278 72 278C80 278 83 280 85 289C119 395 185 420 219 420C238 420 273 411 273 353C273 322 256 255 219 115C203 53 168 11 124 11C118 11 95 11 74 24C99 29 121 50 121 78C121 105 99 113 84 113C54 113 29 87 29 55C29 9 79 -11 123 -11C189 -11 225 59 228 65C240 28 276 -11 336 -11C439 -11 496 118 496 143C496 153 487 153 484 153C475 153 473 149 471 142C438 35 370 11 338 11C299 11 283 43 283 77C283 99 289 121 300 165L334 302C340 328 363 420 433 420C438 420 462 420 483 407C455 402 435 377 435 353C435 337 446 318 473 318C495 318 527 336 527 376Z" stroke="rgb(255,255,255)" stroke-opacity="1" stroke-width="8" fill="rgb(255,255,255)" fill-opacity="1"></path></g></g></g></g></g></g></g><g><g><g><g transform="matrix(1,0,0,1,24.703125,334.621875)"><path transform="matrix(0.02595,0,0,-0.02595,0,0)" d="M75 616C75 589 97 563 128 563C156 563 181 584 181 616C181 648 156 669 128 669C97 669 75 642 75 616ZM33 0C65 1 119 3 143 3C178 3 213 1 247 0L247 31C181 31 177 36 177 75L177 442L37 431L37 400C102 400 111 394 111 345L111 76C111 31 100 31 33 31ZM309 0C344 1 395 3 422 3C448 3 500 1 534 0L534 31C467 31 456 31 456 76L456 260C456 364 527 420 591 420C654 420 665 366 665 309L665 76C665 31 654 31 587 31L587 0C622 1 673 3 700 3C726 3 778 1 812 0L812 31C760 31 735 31 734 61L734 252C734 338 734 369 703 405C689 422 656 442 598 442C525 442 478 399 450 337L450 442L309 431L309 400C379 400 387 393 387 344L387 76C387 31 376 31 309 31ZM860 -163L860 -194C894 -193 946 -191 972 -191C999 -191 1050 -193 1085 -194L1085 -163C1018 -163 1007 -163 1007 -118L1007 50L1007 59C1012 43 1054 -11 1130 -11C1249 -11 1353 87 1353 216C1353 343 1256 442 1144 442C1066 442 1024 398 1004 376L1004 442L860 431L860 400C931 400 938 394 938 350L938 -118C938 -163 927 -163 860 -163ZM1007 114L1007 337C1036 388 1085 417 1136 417C1209 417 1270 329 1270 216C1270 95 1200 11 1126 11C1086 11 1048 31 1021 72C1007 93 1007 94 1007 114ZM1419 400C1497 400 1497 397 1497 308L1497 158C1497 80 1497 -11 1649 -11C1705 -11 1749 17 1778 79L1778 -11L1922 0L1922 31C1852 31 1844 38 1844 87L1844 442L1697 431L1697 400C1767 400 1775 393 1775 344L1775 166C1775 79 1727 11 1654 11C1570 11 1566 58 1566 110L1566 442L1419 431ZM1961 400L2046 400L2046 124C2046 1 2139 -11 2175 -11C2246 -11 2274 60 2274 124L2274 181L2249 181L2249 126C2249 52 2219 14 2182 14C2115 14 2115 105 2115 122L2115 400L2258 400L2258 431L2115 431L2115 615L2090 615C2089 533 2059 426 1961 422Z" stroke="rgb(0,0,0)" stroke-opacity="1" stroke-width="8" fill="rgb(0,0,0)" fill-opacity="1"></path></g></g></g></g><g><g><g><g transform="matrix(1,0,0,1,732.6171875,330.621875)"><path transform="matrix(0.02595,0,0,-0.02595,0,0)" d="M28 214C28 85 132 -11 249 -11C370 -11 471 87 471 214C471 342 371 448 250 448C125 448 28 339 28 214ZM111 222C111 261 111 315 135 359C162 405 209 426 249 426C293 426 336 404 362 361C388 318 388 260 388 222C388 186 388 132 366 88C344 43 300 14 250 14C207 14 163 35 136 81C111 125 111 186 111 222ZM532 400C610 400 610 397 610 308L610 158C610 80 610 -11 762 -11C818 -11 862 17 891 79L891 -11L1035 0L1035 31C965 31 957 38 957 87L957 442L810 431L810 400C880 400 888 393 888 344L888 166C888 79 840 11 767 11C683 11 679 58 679 110L679 442L532 431ZM1074 400L1159 400L1159 124C1159 1 1252 -11 1288 -11C1359 -11 1387 60 1387 124L1387 181L1362 181L1362 126C1362 52 1332 14 1295 14C1228 14 1228 105 1228 122L1228 400L1371 400L1371 431L1228 431L1228 615L1203 615C1202 533 1172 426 1074 422ZM1471 -163L1471 -194C1505 -193 1557 -191 1583 -191C1610 -191 1661 -193 1696 -194L1696 -163C1629 -163 1618 -163 1618 -118L1618 50L1618 59C1623 43 1665 -11 1741 -11C1860 -11 1964 87 1964 216C1964 343 1867 442 1755 442C1677 442 1635 398 1615 376L1615 442L1471 431L1471 400C1542 400 1549 394 1549 350L1549 -118C1549 -163 1538 -163 1471 -163ZM1618 114L1618 337C1647 388 1696 417 1747 417C1820 417 1881 329 1881 216C1881 95 1811 11 1737 11C1697 11 1659 31 1632 72C1618 93 1618 94 1618 114ZM2030 400C2108 400 2108 397 2108 308L2108 158C2108 80 2108 -11 2260 -11C2316 -11 2360 17 2389 79L2389 -11L2533 0L2533 31C2463 31 2455 38 2455 87L2455 442L2308 431L2308 400C2378 400 2386 393 2386 344L2386 166C2386 79 2338 11 2265 11C2181 11 2177 58 2177 110L2177 442L2030 431ZM2572 400L2657 400L2657 124C2657 1 2750 -11 2786 -11C2857 -11 2885 60 2885 124L2885 181L2860 181L2860 126C2860 52 2830 14 2793 14C2726 14 2726 105 2726 122L2726 400L2869 400L2869 431L2726 431L2726 615L2701 615C2700 533 2670 426 2572 422Z" stroke="rgb(0,0,0)" stroke-opacity="1" stroke-width="8" fill="rgb(0,0,0)" fill-opacity="1"></path></g></g></g></g><g><g><g><g><g><g><g><g><g><g transform="matrix(1,0,0,1,201.484375,96.205625)"><path transform="matrix(0.03519,0,0,-0.03519,0,0)" d="M527 376C527 428 468 442 434 442C376 442 341 389 329 366C304 432 250 442 221 442C117 442 60 313 60 288C60 278 72 278 72 278C80 278 83 280 85 289C119 395 185 420 219 420C238 420 273 411 273 353C273 322 256 255 219 115C203 53 168 11 124 11C118 11 95 11 74 24C99 29 121 50 121 78C121 105 99 113 84 113C54 113 29 87 29 55C29 9 79 -11 123 -11C189 -11 225 59 228 65C240 28 276 -11 336 -11C439 -11 496 118 496 143C496 153 487 153 484 153C475 153 473 149 471 142C438 35 370 11 338 11C299 11 283 43 283 77C283 99 289 121 300 165L334 302C340 328 363 420 433 420C438 420 462 420 483 407C455 402 435 377 435 353C435 337 446 318 473 318C495 318 527 336 527 376Z" stroke="rgb(239,239,239)" stroke-opacity="1" stroke-width="8" fill="rgb(239,239,239)" fill-opacity="1"></path></g></g></g></g><svg x="201.484375" overflow="visible" y="54.015625" height="18" width="20.125"><path d="M0.00,16.05 C 1.26 11.01, 5.03 11.01, 10.06 14.79  S 18.87 13.53, 20.13 11.01" style="fill:none;fill-opacity:1;stroke-width:2px;stroke:rgb(239,239,239);stroke-opacity:1;"></path></svg></g></g></g></g></g></g><g><g><g><g><g><g><g transform="matrix(1,0,0,1,48.5859375,261.455625)"><path transform="matrix(0.03519,0,0,-0.03519,0,0)" d="M330 420C330 431 320 431 302 431L214 431C250 573 255 593 255 599C255 616 243 626 226 626C223 626 195 625 186 590L147 431L53 431C33 431 23 431 23 412C23 400 31 400 51 400L139 400C67 116 63 99 63 81C63 27 101 -11 155 -11C257 -11 314 135 314 143C314 153 306 153 302 153C293 153 292 150 287 139C244 35 191 11 157 11C136 11 126 24 126 57C126 81 128 88 132 105L206 400L300 400C320 400 330 400 330 420Z" stroke="rgb(255,255,255)" stroke-opacity="1" stroke-width="8" fill="rgb(255,255,255)" fill-opacity="1"></path></g></g></g></g></g></g></g><g><g><g><g><g><g><g><g><g><g transform="matrix(1,0,0,1,203.2421875,268.40875)"><path transform="matrix(0.03519,0,0,-0.03519,0,0)" d="M330 420C330 431 320 431 302 431L214 431C250 573 255 593 255 599C255 616 243 626 226 626C223 626 195 625 186 590L147 431L53 431C33 431 23 431 23 412C23 400 31 400 51 400L139 400C67 116 63 99 63 81C63 27 101 -11 155 -11C257 -11 314 135 314 143C314 153 306 153 302 153C293 153 292 150 287 139C244 35 191 11 157 11C136 11 126 24 126 57C126 81 128 88 132 105L206 400L300 400C320 400 330 400 330 420Z" stroke="rgb(239,239,239)" stroke-opacity="1" stroke-width="8" fill="rgb(239,239,239)" fill-opacity="1"></path></g></g></g></g><svg x="203.2421875" overflow="visible" y="226.21875" height="18" width="12.703125"><path d="M0.00,16.05 C 0.79 12.14, 3.18 12.14, 6.35 15.07  S 11.91 14.09, 12.70 12.14" style="fill:none;fill-opacity:1;stroke-width:2px;stroke:rgb(239,239,239);stroke-opacity:1;"></path></svg></g></g></g></g></g></g><g><g><g><g><g><g><g><g><g><g transform="matrix(1,0,0,1,180.578125,186.5025)"><path transform="matrix(0.03519,0,0,-0.03519,0,0)" d="M515 457C475 616 357 716 234 716C89 716 76 586 83 558C86 544 99 523 129 523C162 523 176 553 170 576C161 611 130 611 114 611C140 685 209 691 238 691C311 691 394 639 427 510C436 471 443 420 441 339C416 401 361 457 283 457C222 457 161 441 102 363C40 280 56 187 64 156C80 94 152 -22 292 -22C530 -22 551 314 515 457ZM432 303C450 231 443 6 289 6C179 6 153 109 150 119C144 146 134 286 160 346C185 403 226 435 288 435C397 435 427 323 432 303Z" stroke="rgb(239,239,239)" stroke-opacity="1" stroke-width="8" fill="rgb(239,239,239)" fill-opacity="1"></path></g></g><g><g><g><g><g transform="matrix(1,0,0,1,202.25,192.711125)"><path transform="matrix(0.024633,0,0,-0.024633,0,0)" d="M527 376C527 428 468 442 434 442C376 442 341 389 329 366C304 432 250 442 221 442C117 442 60 313 60 288C60 278 72 278 72 278C80 278 83 280 85 289C119 395 185 420 219 420C238 420 273 411 273 353C273 322 256 255 219 115C203 53 168 11 124 11C118 11 95 11 74 24C99 29 121 50 121 78C121 105 99 113 84 113C54 113 29 87 29 55C29 9 79 -11 123 -11C189 -11 225 59 228 65C240 28 276 -11 336 -11C439 -11 496 118 496 143C496 153 487 153 484 153C475 153 473 149 471 142C438 35 370 11 338 11C299 11 283 43 283 77C283 99 289 121 300 165L334 302C340 328 363 420 433 420C438 420 462 420 483 407C455 402 435 377 435 353C435 337 446 318 473 318C495 318 527 336 527 376Z" stroke="rgb(239,239,239)" stroke-opacity="1" stroke-width="8" fill="rgb(239,239,239)" fill-opacity="1"></path></g></g></g></g></g><g><g transform="matrix(1,0,0,1,218.453125,186.5025)"><path transform="matrix(0.03519,0,0,-0.03519,0,0)" d="M760 672C760 672 760 683 747 683C714 683 679 680 645 680C611 680 574 683 541 683C535 683 523 683 523 663C523 652 533 652 541 652C598 651 609 630 609 608C609 605 607 590 606 587L516 230C482 96 367 9 267 9C199 9 145 53 145 139C145 139 145 173 156 217L253 606C262 642 264 652 337 652C363 652 371 652 371 672C371 683 360 683 357 683L229 680L100 683C92 683 81 683 81 663C81 652 90 652 109 652C109 652 130 652 147 650C165 648 174 647 174 634C174 628 163 586 157 563L135 475L74 228C67 200 67 185 67 170C67 48 158 -22 263 -22C389 -22 513 91 546 223L635 578C645 619 663 649 743 652C748 652 760 653 760 672Z" stroke="rgb(239,239,239)" stroke-opacity="1" stroke-width="8" fill="rgb(239,239,239)" fill-opacity="1"></path></g></g></g></g><svg x="180.578125" overflow="visible" y="137.296875" height="18" width="61.90625"><path d="M0.00,16.05 C 3.87 10.04, 15.48 10.04, 30.95 14.55  S 58.04 13.05, 61.91 10.04" style="fill:none;fill-opacity:1;stroke-width:2px;stroke:rgb(239,239,239);stroke-opacity:1;"></path></svg></g></g></g></g></g></g><g><g><g><g><g><g><g transform="matrix(1,0,0,1,342.5625,174.93325)"><path transform="matrix(0.028152,0,0,-0.028152,0,0)" d="M722 250C722 261 713 270 702 270L409 270L409 563C409 574 400 583 389 583C378 583 369 574 369 563L369 270L76 270C65 270 56 261 56 250C56 239 65 230 76 230L369 230L369 -63C369 -74 378 -83 389 -83C400 -83 409 -74 409 -63L409 230L702 230C713 230 722 239 722 250Z" stroke="rgb(0,0,0)" stroke-opacity="1" stroke-width="8" fill="rgb(0,0,0)" fill-opacity="1"></path></g></g></g></g></g></g></g><g><g><g><g><g><g><g transform="matrix(1,0,0,1,585.515625,181.35343749999998)"><path transform="matrix(0.04233,0,0,-0.04233,0,0)" d="M546 143C546 153 537 153 534 153C524 153 524 150 519 135C504 82 472 11 417 11C400 11 393 21 393 44C393 69 402 93 411 115C427 158 472 277 472 335C472 400 432 442 357 442C294 442 246 411 209 365L287 683C287 683 287 694 274 694C251 694 178 686 152 684C144 683 133 682 133 664C133 652 142 652 157 652C205 652 207 645 207 635L204 615L59 39C55 25 55 23 55 17C55 -6 75 -11 84 -11C100 -11 116 1 121 15L140 91L162 181C168 203 174 225 179 248C181 254 189 287 190 293C193 302 224 358 258 385C280 401 311 420 354 420C397 420 408 386 408 350C408 296 370 187 346 126C338 103 333 91 333 71C333 24 368 -11 415 -11C509 -11 546 135 546 143Z" stroke="rgb(239,239,239)" stroke-opacity="1" stroke-width="8" fill="rgb(239,239,239)" fill-opacity="1"></path></g></g><g><g><g><g><g transform="matrix(1,0,0,1,611.171875,188.8263125)"><path transform="matrix(0.029631,0,0,-0.029631,0,0)" d="M571 143C571 153 562 153 559 153C549 153 549 150 544 135C524 67 491 11 442 11C425 11 418 21 418 44C418 69 427 93 436 115C455 168 497 278 497 335C497 402 454 442 382 442C292 442 243 378 226 355C221 411 180 442 134 442C88 442 69 403 59 385C43 351 29 292 29 288C29 278 41 278 41 278C51 278 52 279 58 301C75 372 95 420 131 420C151 420 162 407 162 374C162 353 159 342 146 290L88 59C85 44 79 21 79 16C79 -2 93 -11 108 -11C120 -11 138 -3 145 17C146 19 158 66 164 91L186 181C192 203 198 225 203 248L216 298C231 329 284 420 379 420C424 420 433 383 433 350C433 288 384 160 368 117C359 94 358 82 358 71C358 24 393 -11 440 -11C534 -11 571 135 571 143Z" stroke="rgb(239,239,239)" stroke-opacity="1" stroke-width="8" fill="rgb(239,239,239)" fill-opacity="1"></path></g></g></g></g></g></g></g></g></g></g><g><g><g><g transform="matrix(1,0,0,1,372,356.6)"><path transform="matrix(0.0216,0,0,-0.0216,0,0)" d="M57 152C57 142 72 141 84 141L692 141C703 141 719 142 719 153C719 165 703 164 690 164L77 164C67 164 58 164 57 152ZM57 347C57 337 69 336 77 336L694 336C705 336 719 336 719 347C719 360 702 359 689 359L78 359C60 359 57 352 57 347ZM1146 0L1512 0C1680 0 1818 148 1818 336C1818 526 1683 683 1512 683L1146 683L1146 652L1170 652C1247 652 1249 641 1249 605L1249 78C1249 42 1247 31 1170 31L1146 31ZM1335 71L1335 612C1335 645 1337 652 1384 652L1484 652C1546 652 1615 630 1666 559C1709 500 1718 414 1718 336C1718 225 1699 165 1663 116C1643 89 1586 31 1485 31L1384 31C1337 31 1335 38 1335 71ZM1902 220C1902 86 2007 -11 2122 -11C2244 -11 2289 100 2289 119C2289 129 2281 131 2276 131C2267 131 2265 125 2263 117C2228 14 2138 14 2128 14C2078 14 2038 44 2015 81C1985 129 1985 195 1985 231L2264 231C2286 231 2289 231 2289 252C2289 351 2235 448 2110 448C1994 448 1902 345 1902 220ZM1986 252C1992 401 2076 426 2110 426C2213 426 2223 291 2223 252ZM2350 0C2385 1 2436 3 2463 3C2489 3 2541 1 2575 0L2575 31C2508 31 2497 31 2497 76L2497 260C2497 364 2568 420 2632 420C2695 420 2706 366 2706 309L2706 76C2706 31 2695 31 2628 31L2628 0C2663 1 2714 3 2741 3C2767 3 2819 1 2853 0L2853 31C2801 31 2776 31 2775 61L2775 252C2775 338 2775 369 2744 405C2730 422 2697 442 2639 442C2566 442 2519 399 2491 337L2491 442L2350 431L2350 400C2420 400 2428 393 2428 344L2428 76C2428 31 2417 31 2350 31ZM2906 13C2906 -4 2906 -11 2917 -11C2922 -11 2923 -10 2942 9C2944 11 2944 13 2962 32C3006 -10 3051 -11 3072 -11C3187 -11 3233 56 3233 128C3233 181 3203 211 3191 223C3158 255 3119 263 3077 271C3021 282 2954 295 2954 353C2954 388 2980 429 3066 429C3176 429 3181 339 3183 308C3184 299 3193 299 3195 299C3208 299 3208 304 3208 323L3208 424C3208 441 3208 448 3197 448C3192 448 3190 448 3177 436C3174 432 3164 423 3160 420C3122 448 3081 448 3066 448C2944 448 2906 381 2906 325C2906 290 2922 262 2949 240C2981 214 3009 208 3081 194C3103 190 3185 174 3185 102C3185 51 3150 11 3072 11C2988 11 2952 68 2933 153C2930 166 2929 170 2919 170C2906 170 2906 163 2906 145ZM3295 220C3295 86 3400 -11 3515 -11C3637 -11 3682 100 3682 119C3682 129 3674 131 3669 131C3660 131 3658 125 3656 117C3621 14 3531 14 3521 14C3471 14 3431 44 3408 81C3378 129 3378 195 3378 231L3657 231C3679 231 3682 231 3682 252C3682 351 3628 448 3503 448C3387 448 3295 345 3295 220ZM3379 252C3385 401 3469 426 3503 426C3606 426 3616 291 3616 252ZM4077 0L4598 0L4626 258L4601 258C4590 156 4576 31 4400 31L4318 31C4271 31 4269 38 4269 71L4269 604C4269 638 4269 652 4364 652L4397 652L4397 683C4361 680 4270 680 4229 680C4190 680 4112 680 4077 683L4077 652L4101 652C4178 652 4180 641 4180 605L4180 78C4180 42 4178 31 4101 31L4077 31ZM4711 95C4711 14 4808 -11 4871 -11C4937 -11 4983 29 5002 76C5006 36 5033 -6 5080 -6C5101 -6 5162 8 5162 89L5162 145L5137 145L5137 89C5137 31 5112 25 5101 25C5068 25 5064 70 5064 75L5064 275C5064 317 5064 356 5028 393C4989 432 4939 448 4891 448C4809 448 4740 401 4740 335C4740 305 4760 288 4786 288C4814 288 4832 308 4832 334C4832 346 4827 379 4781 380C4808 415 4857 426 4889 426C4938 426 4995 387 4995 298L4995 261C4944 258 4874 255 4811 225C4736 191 4711 139 4711 95ZM4788 96C4788 151 4830 234 4995 240L4995 140C4995 45 4923 11 4878 11C4829 11 4788 46 4788 96ZM5160 -124C5160 -169 5202 -205 5252 -205C5315 -205 5356 -148 5380 -91L5556 336C5582 399 5633 400 5649 400L5649 431C5626 429 5597 428 5574 428C5556 428 5509 430 5487 431L5487 400C5518 399 5534 382 5534 357C5534 347 5533 345 5528 333L5427 87L5316 356C5312 366 5310 370 5310 374C5310 400 5347 400 5366 400L5366 431C5340 430 5274 428 5257 428C5230 428 5190 429 5160 431L5160 400C5208 400 5227 400 5241 365L5391 0C5386 -13 5372 -46 5366 -59C5344 -114 5316 -183 5252 -183C5247 -183 5224 -183 5205 -165C5236 -161 5244 -139 5244 -123C5244 -97 5225 -81 5202 -81C5182 -81 5160 -94 5160 -124ZM5668 220C5668 86 5773 -11 5888 -11C6010 -11 6055 100 6055 119C6055 129 6047 131 6042 131C6033 131 6031 125 6029 117C5994 14 5904 14 5894 14C5844 14 5804 44 5781 81C5751 129 5751 195 5751 231L6030 231C6052 231 6055 231 6055 252C6055 351 6001 448 5876 448C5760 448 5668 345 5668 220ZM5752 252C5758 401 5842 426 5876 426C5979 426 5989 291 5989 252ZM6112 0C6151 1 6198 3 6226 3C6266 3 6313 3 6353 0L6353 31L6332 31C6258 31 6256 42 6256 78L6256 232C6256 331 6298 420 6374 420C6381 420 6383 420 6385 419C6382 418 6362 406 6362 380C6362 352 6383 337 6405 337C6423 337 6448 349 6448 381C6448 413 6417 442 6374 442C6301 442 6265 375 6251 332L6251 442L6112 431L6112 400C6182 400 6190 393 6190 344L6190 76C6190 31 6179 31 6112 31Z" stroke="rgb(0,0,0)" stroke-opacity="1" stroke-width="8" fill="rgb(0,0,0)" fill-opacity="1"></path></g></g></g></g><g><g><g><g transform="matrix(1,0,0,1,372.4921875,52.35)"><path transform="matrix(0.03735,0,0,-0.03735,0,0)" d="M19 652C84 652 103 652 117 614L349 0C356 -19 361 -22 374 -22C391 -22 393 -17 398 -3L621 585C635 622 662 651 730 652L730 683C699 681 659 680 633 680C603 680 545 682 519 683L519 652C571 651 592 625 592 602C592 594 589 588 587 582L404 100L213 605C207 619 207 621 207 623C207 652 264 652 289 652L289 683C253 680 184 680 146 680C98 680 55 682 19 683ZM783 0C818 1 867 3 900 3C933 3 982 1 1017 0L1017 31C914 31 914 78 914 105L914 625C919 620 920 619 924 613L1332 13C1341 1 1342 0 1349 0C1363 0 1363 7 1363 26L1363 578C1363 605 1363 652 1466 652L1466 683C1431 682 1382 680 1349 680C1316 680 1267 682 1232 683L1232 652C1335 652 1335 605 1335 578L1335 151L982 670C973 682 972 683 953 683L783 683L783 652L812 652C827 652 847 651 862 650C885 647 886 646 886 627L886 105C886 78 886 31 783 31ZM1528 220C1528 86 1633 -11 1748 -11C1870 -11 1915 100 1915 119C1915 129 1907 131 1902 131C1893 131 1891 125 1889 117C1854 14 1764 14 1754 14C1704 14 1664 44 1641 81C1611 129 1611 195 1611 231L1890 231C1912 231 1915 231 1915 252C1915 351 1861 448 1736 448C1620 448 1528 345 1528 220ZM1612 252C1618 401 1702 426 1736 426C1839 426 1849 291 1849 252ZM1963 400L2048 400L2048 124C2048 1 2141 -11 2177 -11C2248 -11 2276 60 2276 124L2276 181L2251 181L2251 126C2251 52 2221 14 2184 14C2117 14 2117 105 2117 122L2117 400L2260 400L2260 431L2117 431L2117 615L2092 615C2091 533 2061 426 1963 422Z" stroke="rgb(0,0,0)" stroke-opacity="1" stroke-width="8" fill="rgb(0,0,0)" fill-opacity="1"></path></g></g></g></g><g><g><g><g><g><g><g transform="matrix(1,0,0,1,501.546875,177.19)"><path transform="matrix(0.03519,0,0,-0.03519,0,0)" d="M162 250C162 279 138 303 109 303C80 303 56 279 56 250C56 221 80 197 109 197C138 197 162 221 162 250ZM441 250C441 279 417 303 388 303C359 303 335 279 335 250C335 221 359 197 388 197C417 197 441 221 441 250ZM720 250C720 279 696 303 667 303C638 303 614 279 614 250C614 221 638 197 667 197C696 197 720 221 720 250Z" stroke="rgb(0,0,0)" stroke-opacity="1" stroke-width="8" fill="rgb(0,0,0)" fill-opacity="1"></path></g></g></g></g></g></g></g><g><g><g><g><g><g><g transform="matrix(1,0,0,1,449,263.48)"><path transform="matrix(0.024480000000000002,0,0,-0.024480000000000002,0,0)" d="M571 143C571 153 562 153 559 153C549 153 549 150 544 135C524 67 491 11 442 11C425 11 418 21 418 44C418 69 427 93 436 115C455 168 497 278 497 335C497 402 454 442 382 442C292 442 243 378 226 355C221 411 180 442 134 442C88 442 69 403 59 385C43 351 29 292 29 288C29 278 41 278 41 278C51 278 52 279 58 301C75 372 95 420 131 420C151 420 162 407 162 374C162 353 159 342 146 290L88 59C85 44 79 21 79 16C79 -2 93 -11 108 -11C120 -11 138 -3 145 17C146 19 158 66 164 91L186 181C192 203 198 225 203 248L216 298C231 329 284 420 379 420C424 420 433 383 433 350C433 288 384 160 368 117C359 94 358 82 358 71C358 24 393 -11 440 -11C534 -11 571 135 571 143Z" stroke="rgb(0,0,0)" stroke-opacity="1" stroke-width="8" fill="rgb(0,0,0)" fill-opacity="1"></path></g></g></g></g></g><g><g transform="matrix(1,0,0,1,463.703125,262.6)"><path transform="matrix(0.0216,0,0,-0.0216,0,0)" d="M365 0C400 1 451 3 478 3C504 3 556 1 590 0L590 31C523 31 512 31 512 76L512 260C512 364 583 420 647 420C710 420 721 366 721 309L721 76C721 31 710 31 643 31L643 0C678 1 729 3 756 3C782 3 834 1 868 0L868 31C816 31 791 31 790 61L790 252C790 338 790 369 759 405C745 422 712 442 654 442C570 442 526 382 510 346L509 346L509 694L365 683L365 652C435 652 443 645 443 596L443 76C443 31 432 31 365 31ZM963 616C963 589 985 563 1016 563C1044 563 1069 584 1069 616C1069 648 1044 669 1016 669C985 669 963 642 963 616ZM921 0C953 1 1007 3 1031 3C1066 3 1101 1 1135 0L1135 31C1069 31 1065 36 1065 75L1065 442L925 431L925 400C990 400 999 394 999 345L999 76C999 31 988 31 921 31ZM1199 215C1199 88 1297 -11 1411 -11C1475 -11 1520 23 1545 55L1545 -11L1692 0L1692 31C1622 31 1614 38 1614 87L1614 694L1470 683L1470 652C1540 652 1548 645 1548 596L1548 380C1519 416 1476 442 1422 442C1304 442 1199 344 1199 215ZM1282 214C1282 251 1284 311 1313 356C1334 387 1372 420 1426 420C1461 420 1503 405 1534 360C1545 343 1545 341 1545 323L1545 118C1545 100 1545 98 1534 81C1504 33 1459 11 1416 11C1371 11 1335 37 1311 75C1285 116 1282 173 1282 214ZM1754 215C1754 88 1852 -11 1966 -11C2030 -11 2075 23 2100 55L2100 -11L2247 0L2247 31C2177 31 2169 38 2169 87L2169 694L2025 683L2025 652C2095 652 2103 645 2103 596L2103 380C2074 416 2031 442 1977 442C1859 442 1754 344 1754 215ZM1837 214C1837 251 1839 311 1868 356C1889 387 1927 420 1981 420C2016 420 2058 405 2089 360C2100 343 2100 341 2100 323L2100 118C2100 100 2100 98 2089 81C2059 33 2014 11 1971 11C1926 11 1890 37 1866 75C1840 116 1837 173 1837 214ZM2303 220C2303 86 2408 -11 2523 -11C2645 -11 2690 100 2690 119C2690 129 2682 131 2677 131C2668 131 2666 125 2664 117C2629 14 2539 14 2529 14C2479 14 2439 44 2416 81C2386 129 2386 195 2386 231L2665 231C2687 231 2690 231 2690 252C2690 351 2636 448 2511 448C2395 448 2303 345 2303 220ZM2387 252C2393 401 2477 426 2511 426C2614 426 2624 291 2624 252ZM2751 0C2786 1 2837 3 2864 3C2890 3 2942 1 2976 0L2976 31C2909 31 2898 31 2898 76L2898 260C2898 364 2969 420 3033 420C3096 420 3107 366 3107 309L3107 76C3107 31 3096 31 3029 31L3029 0C3064 1 3115 3 3142 3C3168 3 3220 1 3254 0L3254 31C3202 31 3177 31 3176 61L3176 252C3176 338 3176 369 3145 405C3131 422 3098 442 3040 442C2967 442 2920 399 2892 337L2892 442L2751 431L2751 400C2821 400 2829 393 2829 344L2829 76C2829 31 2818 31 2751 31ZM3640 0C3673 1 3726 3 3751 3C3776 3 3825 1 3862 0L3862 31C3795 31 3784 31 3784 76L3784 694L3640 683L3640 652C3710 652 3718 645 3718 596L3718 76C3718 31 3707 31 3640 31ZM3926 95C3926 14 4023 -11 4086 -11C4152 -11 4198 29 4217 76C4221 36 4248 -6 4295 -6C4316 -6 4377 8 4377 89L4377 145L4352 145L4352 89C4352 31 4327 25 4316 25C4283 25 4279 70 4279 75L4279 275C4279 317 4279 356 4243 393C4204 432 4154 448 4106 448C4024 448 3955 401 3955 335C3955 305 3975 288 4001 288C4029 288 4047 308 4047 334C4047 346 4042 379 3996 380C4023 415 4072 426 4104 426C4153 426 4210 387 4210 298L4210 261C4159 258 4089 255 4026 225C3951 191 3926 139 3926 95ZM4003 96C4003 151 4045 234 4210 240L4210 140C4210 45 4138 11 4093 11C4044 11 4003 46 4003 96ZM4375 -124C4375 -169 4417 -205 4467 -205C4530 -205 4571 -148 4595 -91L4771 336C4797 399 4848 400 4864 400L4864 431C4841 429 4812 428 4789 428C4771 428 4724 430 4702 431L4702 400C4733 399 4749 382 4749 357C4749 347 4748 345 4743 333L4642 87L4531 356C4527 366 4525 370 4525 374C4525 400 4562 400 4581 400L4581 431C4555 430 4489 428 4472 428C4445 428 4405 429 4375 431L4375 400C4423 400 4442 400 4456 365L4606 0C4601 -13 4587 -46 4581 -59C4559 -114 4531 -183 4467 -183C4462 -183 4439 -183 4420 -165C4451 -161 4459 -139 4459 -123C4459 -97 4440 -81 4417 -81C4397 -81 4375 -94 4375 -124ZM4883 220C4883 86 4988 -11 5103 -11C5225 -11 5270 100 5270 119C5270 129 5262 131 5257 131C5248 131 5246 125 5244 117C5209 14 5119 14 5109 14C5059 14 5019 44 4996 81C4966 129 4966 195 4966 231L5245 231C5267 231 5270 231 5270 252C5270 351 5216 448 5091 448C4975 448 4883 345 4883 220ZM4967 252C4973 401 5057 426 5091 426C5194 426 5204 291 5204 252ZM5327 0C5366 1 5413 3 5441 3C5481 3 5528 3 5568 0L5568 31L5547 31C5473 31 5471 42 5471 78L5471 232C5471 331 5513 420 5589 420C5596 420 5598 420 5600 419C5597 418 5577 406 5577 380C5577 352 5598 337 5620 337C5638 337 5663 349 5663 381C5663 413 5632 442 5589 442C5516 442 5480 375 5466 332L5466 442L5327 431L5327 400C5397 400 5405 393 5405 344L5405 76C5405 31 5394 31 5327 31ZM5723 13C5723 -4 5723 -11 5734 -11C5739 -11 5740 -10 5759 9C5761 11 5761 13 5779 32C5823 -10 5868 -11 5889 -11C6004 -11 6050 56 6050 128C6050 181 6020 211 6008 223C5975 255 5936 263 5894 271C5838 282 5771 295 5771 353C5771 388 5797 429 5883 429C5993 429 5998 339 6000 308C6001 299 6010 299 6012 299C6025 299 6025 304 6025 323L6025 424C6025 441 6025 448 6014 448C6009 448 6007 448 5994 436C5991 432 5981 423 5977 420C5939 448 5898 448 5883 448C5761 448 5723 381 5723 325C5723 290 5739 262 5766 240C5798 214 5826 208 5898 194C5920 190 6002 174 6002 102C6002 51 5967 11 5889 11C5805 11 5769 68 5750 153C5747 166 5746 170 5736 170C5723 170 5723 163 5723 145Z" stroke="rgb(0,0,0)" stroke-opacity="1" stroke-width="8" fill="rgb(0,0,0)" fill-opacity="1"></path></g></g></g></g></svg>
</svg>
