<?xml version="1.0" encoding="utf-8" standalone="no"?>
<!DOCTYPE svg PUBLIC "-//W3C//DTD SVG 1.1//EN"
  "http://www.w3.org/Graphics/SVG/1.1/DTD/svg11.dtd">
<svg xmlns:xlink="http://www.w3.org/1999/xlink" width="226.594798pt" height="174.899688pt" viewBox="0 0 226.594798 174.899688" xmlns="http://www.w3.org/2000/svg" version="1.1">
 <metadata>
  <rdf:RDF xmlns:dc="http://purl.org/dc/elements/1.1/" xmlns:cc="http://creativecommons.org/ns#" xmlns:rdf="http://www.w3.org/1999/02/22-rdf-syntax-ns#">
   <cc:Work>
    <dc:type rdf:resource="http://purl.org/dc/dcmitype/StillImage"/>
    <dc:date>2023-12-05T12:05:25.778421</dc:date>
    <dc:format>image/svg+xml</dc:format>
    <dc:creator>
     <cc:Agent>
      <dc:title>Matplotlib v3.8.2, https://matplotlib.org/</dc:title>
     </cc:Agent>
    </dc:creator>
   </cc:Work>
  </rdf:RDF>
 </metadata>
 <defs>
  <style type="text/css">*{stroke-linejoin: round; stroke-linecap: butt}</style>
 </defs>
 <g id="figure_1">
  <g id="patch_1">
   <path d="M 0 174.899688 
L 226.594798 174.899688 
L 226.594798 0 
L 0 0 
L 0 174.899688 
z
" style="fill: none"/>
  </g>
  <g id="axes_1">
   <g id="patch_2">
    <path d="M 10.144798 48.78 
L 219.394798 48.78 
L 219.394798 7.2 
L 10.144798 7.2 
L 10.144798 48.78 
z
" style="fill: none"/>
   </g>
   <g id="matplotlib.axis_1">
    <g id="xtick_1"/>
    <g id="xtick_2"/>
    <g id="xtick_3"/>
    <g id="xtick_4"/>
    <g id="xtick_5"/>
   </g>
   <g id="matplotlib.axis_2"/>
   <g id="line2d_1">
    <path d="M 10.144798 48.78 
L 219.394798 48.78 
" style="fill: none; stroke: #482475; stroke-opacity: 0.9; stroke-linecap: round"/>
   </g>
   <g id="text_1">
    <!-- 0 -->
    <g style="fill: #482475" transform="translate(10.144798 47.93325) scale(0.12 -0.12)">
     <defs>
      <path id="DejaVuSans-Bold-30" d="M 2944 2338 
Q 2944 3213 2780 3570 
Q 2616 3928 2228 3928 
Q 1841 3928 1675 3570 
Q 1509 3213 1509 2338 
Q 1509 1453 1675 1090 
Q 1841 728 2228 728 
Q 2613 728 2778 1090 
Q 2944 1453 2944 2338 
z
M 4147 2328 
Q 4147 1169 3647 539 
Q 3147 -91 2228 -91 
Q 1306 -91 806 539 
Q 306 1169 306 2328 
Q 306 3491 806 4120 
Q 1306 4750 2228 4750 
Q 3147 4750 3647 4120 
Q 4147 3491 4147 2328 
z
" transform="scale(0.015625)"/>
     </defs>
     <use xlink:href="#DejaVuSans-Bold-30"/>
    </g>
   </g>
  </g>
  <g id="axes_2">
   <g id="patch_3">
    <path d="M 10.144798 59.175 
L 219.394798 59.175 
L 219.394798 17.595 
L 10.144798 17.595 
L 10.144798 59.175 
z
" style="fill: none"/>
   </g>
   <g id="matplotlib.axis_3">
    <g id="xtick_6"/>
    <g id="xtick_7"/>
    <g id="xtick_8"/>
    <g id="xtick_9"/>
    <g id="xtick_10"/>
   </g>
   <g id="matplotlib.axis_4"/>
   <g id="PolyCollection_1">
    <defs>
     <path id="ma01c4cf1bc" d="M 71.066958 -115.735863 
L 71.066958 -115.724688 
L 71.458458 -115.724688 
L 71.849959 -115.724688 
L 72.241459 -115.724688 
L 72.63296 -115.724688 
L 73.024461 -115.724688 
L 73.415961 -115.724688 
L 73.807462 -115.724688 
L 74.198962 -115.724688 
L 74.590463 -115.724688 
L 74.981963 -115.724688 
L 75.373464 -115.724688 
L 75.764964 -115.724688 
L 76.156465 -115.724688 
L 76.547965 -115.724688 
L 76.939466 -115.724688 
L 77.330966 -115.724688 
L 77.722467 -115.724688 
L 78.113967 -115.724688 
L 78.505468 -115.724688 
L 78.896969 -115.724688 
L 79.288469 -115.724688 
L 79.67997 -115.724688 
L 80.07147 -115.724688 
L 80.462971 -115.724688 
L 80.854471 -115.724688 
L 81.245972 -115.724688 
L 81.637472 -115.724688 
L 82.028973 -115.724688 
L 82.420473 -115.724688 
L 82.811974 -115.724688 
L 83.203474 -115.724688 
L 83.594975 -115.724688 
L 83.986475 -115.724688 
L 84.377976 -115.724688 
L 84.769476 -115.724688 
L 85.160977 -115.724688 
L 85.552478 -115.724688 
L 85.943978 -115.724688 
L 86.335479 -115.724688 
L 86.726979 -115.724688 
L 87.11848 -115.724688 
L 87.50998 -115.724688 
L 87.901481 -115.724688 
L 88.292981 -115.724688 
L 88.684482 -115.724688 
L 89.075982 -115.724688 
L 89.467483 -115.724688 
L 89.858983 -115.724688 
L 90.250484 -115.724688 
L 90.641984 -115.724688 
L 91.033485 -115.724688 
L 91.424985 -115.724688 
L 91.816486 -115.724688 
L 92.207987 -115.724688 
L 92.599487 -115.724688 
L 92.990988 -115.724688 
L 93.382488 -115.724688 
L 93.773989 -115.724688 
L 94.165489 -115.724688 
L 94.55699 -115.724688 
L 94.94849 -115.724688 
L 95.339991 -115.724688 
L 95.731491 -115.724688 
L 96.122992 -115.724688 
L 96.514492 -115.724688 
L 96.905993 -115.724688 
L 97.297493 -115.724688 
L 97.688994 -115.724688 
L 98.080494 -115.724688 
L 98.471995 -115.724688 
L 98.863496 -115.724688 
L 99.254996 -115.724688 
L 99.646497 -115.724688 
L 100.037997 -115.724688 
L 100.429498 -115.724688 
L 100.820998 -115.724688 
L 101.212499 -115.724688 
L 101.603999 -115.724688 
L 101.9955 -115.724688 
L 102.387 -115.724688 
L 102.778501 -115.724688 
L 103.170001 -115.724688 
L 103.561502 -115.724688 
L 103.953002 -115.724688 
L 104.344503 -115.724688 
L 104.736003 -115.724688 
L 105.127504 -115.724688 
L 105.519005 -115.724688 
L 105.910505 -115.724688 
L 106.302006 -115.724688 
L 106.693506 -115.724688 
L 107.085007 -115.724688 
L 107.476507 -115.724688 
L 107.868008 -115.724688 
L 108.259508 -115.724688 
L 108.651009 -115.724688 
L 109.042509 -115.724688 
L 109.43401 -115.724688 
L 109.82551 -115.724688 
L 110.217011 -115.724688 
L 110.608511 -115.724688 
L 111.000012 -115.724688 
L 111.391512 -115.724688 
L 111.783013 -115.724688 
L 112.174514 -115.724688 
L 112.566014 -115.724688 
L 112.957515 -115.724688 
L 113.349015 -115.724688 
L 113.740516 -115.724688 
L 114.132016 -115.724688 
L 114.523517 -115.724688 
L 114.915017 -115.724688 
L 115.306518 -115.724688 
L 115.698018 -115.724688 
L 116.089519 -115.724688 
L 116.481019 -115.724688 
L 116.87252 -115.724688 
L 117.26402 -115.724688 
L 117.655521 -115.724688 
L 118.047022 -115.724688 
L 118.438522 -115.724688 
L 118.830023 -115.724688 
L 119.221523 -115.724688 
L 119.613024 -115.724688 
L 120.004524 -115.724688 
L 120.396025 -115.724688 
L 120.787525 -115.724688 
L 121.179026 -115.724688 
L 121.570526 -115.724688 
L 121.962027 -115.724688 
L 122.353527 -115.724688 
L 122.745028 -115.724688 
L 123.136528 -115.724688 
L 123.528029 -115.724688 
L 123.919529 -115.724688 
L 124.31103 -115.724688 
L 124.702531 -115.724688 
L 125.094031 -115.724688 
L 125.485532 -115.724688 
L 125.877032 -115.724688 
L 126.268533 -115.724688 
L 126.660033 -115.724688 
L 127.051534 -115.724688 
L 127.443034 -115.724688 
L 127.834535 -115.724688 
L 128.226035 -115.724688 
L 128.617536 -115.724688 
L 129.009036 -115.724688 
L 129.400537 -115.724688 
L 129.792037 -115.724688 
L 130.183538 -115.724688 
L 130.575038 -115.724688 
L 130.966539 -115.724688 
L 131.35804 -115.724688 
L 131.74954 -115.724688 
L 132.141041 -115.724688 
L 132.532541 -115.724688 
L 132.924042 -115.724688 
L 133.315542 -115.724688 
L 133.707043 -115.724688 
L 134.098543 -115.724688 
L 134.490044 -115.724688 
L 134.881544 -115.724688 
L 135.273045 -115.724688 
L 135.664545 -115.724688 
L 136.056046 -115.724688 
L 136.447546 -115.724688 
L 136.839047 -115.724688 
L 137.230547 -115.724688 
L 137.622048 -115.724688 
L 138.013549 -115.724688 
L 138.405049 -115.724688 
L 138.79655 -115.724688 
L 139.18805 -115.724688 
L 139.579551 -115.724688 
L 139.971051 -115.724688 
L 140.362552 -115.724688 
L 140.754052 -115.724688 
L 141.145553 -115.724688 
L 141.537053 -115.724688 
L 141.928554 -115.724688 
L 142.320054 -115.724688 
L 142.711555 -115.724688 
L 143.103055 -115.724688 
L 143.494556 -115.724688 
L 143.886056 -115.724688 
L 144.277557 -115.724688 
L 144.669058 -115.724688 
L 145.060558 -115.724688 
L 145.452059 -115.724688 
L 145.843559 -115.724688 
L 146.23506 -115.724688 
L 146.62656 -115.724688 
L 147.018061 -115.724688 
L 147.409561 -115.724688 
L 147.801062 -115.724688 
L 148.192562 -115.724688 
L 148.584063 -115.724688 
L 148.975563 -115.724688 
L 148.975563 -115.735909 
L 148.975563 -115.735909 
L 148.584063 -115.740626 
L 148.192562 -115.743632 
L 147.801062 -115.744048 
L 147.409561 -115.742815 
L 147.018061 -115.741951 
L 146.62656 -115.742611 
L 146.23506 -115.743938 
L 145.843559 -115.743962 
L 145.452059 -115.741641 
L 145.060558 -115.738031 
L 144.669058 -115.735734 
L 144.277557 -115.737465 
L 143.886056 -115.744876 
L 143.494556 -115.757897 
L 143.103055 -115.774566 
L 142.711555 -115.791524 
L 142.320054 -115.80525 
L 141.928554 -115.813618 
L 141.537053 -115.817095 
L 141.145553 -115.818611 
L 140.754052 -115.821575 
L 140.362552 -115.827184 
L 139.971051 -115.833364 
L 139.579551 -115.836437 
L 139.18805 -115.834022 
L 138.79655 -115.82657 
L 138.405049 -115.816342 
L 138.013549 -115.805268 
L 137.622048 -115.794061 
L 137.230547 -115.783163 
L 136.839047 -115.773998 
L 136.447546 -115.769076 
L 136.056046 -115.770875 
L 135.664545 -115.780389 
L 135.273045 -115.79667 
L 134.881544 -115.81809 
L 134.490044 -115.844226 
L 134.098543 -115.875987 
L 133.707043 -115.9134 
L 133.315542 -115.953864 
L 132.924042 -115.994324 
L 132.532541 -116.038166 
L 132.141041 -116.107501 
L 131.74954 -116.267489 
L 131.35804 -116.672411 
L 130.966539 -117.626252 
L 130.575038 -119.606571 
L 130.183538 -123.159382 
L 129.792037 -128.607637 
L 129.400537 -135.673263 
L 129.009036 -143.294349 
L 128.617536 -149.900628 
L 128.226035 -154.095956 
L 127.834535 -155.324688 
L 127.443034 -154.045856 
L 127.051534 -151.302107 
L 126.660033 -148.042025 
L 126.268533 -144.712243 
L 125.877032 -141.342254 
L 125.485532 -137.90142 
L 125.094031 -134.548446 
L 124.702531 -131.604556 
L 124.31103 -129.363493 
L 123.919529 -127.938259 
L 123.528029 -127.247435 
L 123.136528 -127.110478 
L 122.745028 -127.3595 
L 122.353527 -127.902695 
L 121.962027 -128.731568 
L 121.570526 -129.888308 
L 121.179026 -131.408272 
L 120.787525 -133.258615 
L 120.396025 -135.302247 
L 120.004524 -137.307026 
L 119.613024 -138.994983 
L 119.221523 -140.10305 
L 118.830023 -140.429652 
L 118.438522 -139.871036 
L 118.047022 -138.458577 
L 117.655521 -136.371695 
L 117.26402 -133.887627 
L 116.87252 -131.285685 
L 116.481019 -128.774754 
L 116.089519 -126.481424 
L 115.698018 -124.471976 
L 115.306518 -122.770656 
L 114.915017 -121.3697 
L 114.523517 -120.241703 
L 114.132016 -119.352877 
L 113.740516 -118.66992 
L 113.349015 -118.16141 
L 112.957515 -117.797651 
L 112.566014 -117.548047 
L 112.174514 -117.376911 
L 111.783013 -117.245674 
L 111.391512 -117.124957 
L 111.000012 -117.005412 
L 110.608511 -116.8938 
L 110.217011 -116.797701 
L 109.82551 -116.715645 
L 109.43401 -116.640705 
L 109.042509 -116.568488 
L 108.651009 -116.498853 
L 108.259508 -116.432069 
L 107.868008 -116.365803 
L 107.476507 -116.295734 
L 107.085007 -116.219344 
L 106.693506 -116.140895 
L 106.302006 -116.072647 
L 105.910505 -116.028267 
L 105.519005 -116.012249 
L 105.127504 -116.015041 
L 104.736003 -116.018827 
L 104.344503 -116.008829 
L 103.953002 -115.98101 
L 103.561502 -115.942261 
L 103.170001 -115.905423 
L 102.778501 -115.882532 
L 102.387 -115.878696 
L 101.9955 -115.889738 
L 101.603999 -115.905591 
L 101.212499 -115.916522 
L 100.820998 -115.916923 
L 100.429498 -115.905511 
L 100.037997 -115.884792 
L 99.646497 -115.860801 
L 99.254996 -115.841197 
L 98.863496 -115.831491 
L 98.471995 -115.832411 
L 98.080494 -115.840647 
L 97.688994 -115.851698 
L 97.297493 -115.862127 
L 96.905993 -115.869889 
L 96.514492 -115.873297 
L 96.122992 -115.870368 
L 95.731491 -115.859947 
L 95.339991 -115.843763 
L 94.94849 -115.826545 
L 94.55699 -115.812917 
L 94.165489 -115.803786 
L 93.773989 -115.796347 
L 93.382488 -115.787986 
L 92.990988 -115.779611 
L 92.599487 -115.774603 
L 92.207987 -115.775072 
L 91.816486 -115.780049 
L 91.424985 -115.787022 
L 91.033485 -115.793913 
L 90.641984 -115.799019 
L 90.250484 -115.800079 
L 89.858983 -115.794917 
L 89.467483 -115.783571 
L 89.075982 -115.769396 
L 88.684482 -115.757458 
L 88.292981 -115.751403 
L 87.901481 -115.751408 
L 87.50998 -115.754606 
L 87.11848 -115.757201 
L 86.726979 -115.756577 
L 86.335479 -115.752357 
L 85.943978 -115.746327 
L 85.552478 -115.741521 
L 85.160977 -115.740767 
L 84.769476 -115.745104 
L 84.377976 -115.752747 
L 83.986475 -115.759549 
L 83.594975 -115.761332 
L 83.203474 -115.756696 
L 82.811974 -115.747841 
L 82.420473 -115.738656 
L 82.028973 -115.732103 
L 81.637472 -115.729224 
L 81.245972 -115.729782 
L 80.854471 -115.733017 
L 80.462971 -115.737637 
L 80.07147 -115.741668 
L 79.67997 -115.743104 
L 79.288469 -115.741161 
L 78.896969 -115.736834 
L 78.505468 -115.732071 
L 78.113967 -115.728387 
L 77.722467 -115.726215 
L 77.330966 -115.725208 
L 76.939466 -115.724834 
L 76.547965 -115.724721 
L 76.156465 -115.724694 
L 75.764964 -115.72469 
L 75.373464 -115.724699 
L 74.981963 -115.724745 
L 74.590463 -115.724921 
L 74.198962 -115.725465 
L 73.807462 -115.72682 
L 73.415961 -115.729511 
L 73.024461 -115.733681 
L 72.63296 -115.738511 
L 72.241459 -115.742201 
L 71.849959 -115.742979 
L 71.458458 -115.740435 
L 71.066958 -115.735863 
z
" style="stroke: #414487; stroke-width: 1.25"/>
    </defs>
    <g>
     <use xlink:href="#ma01c4cf1bc" x="0" y="174.899688" style="fill: #414487; fill-opacity: 0.7; stroke: #414487; stroke-width: 1.25"/>
    </g>
   </g>
   <g id="line2d_2">
    <path d="M 10.144798 59.175 
L 219.394798 59.175 
" style="fill: none; stroke: #414487; stroke-opacity: 0.9; stroke-linecap: round"/>
   </g>
   <g id="text_2">
    <!-- 1 -->
    <g style="fill: #414487" transform="translate(10.144798 58.32825) scale(0.12 -0.12)">
     <defs>
      <path id="DejaVuSans-Bold-31" d="M 750 831 
L 1813 831 
L 1813 3847 
L 722 3622 
L 722 4441 
L 1806 4666 
L 2950 4666 
L 2950 831 
L 4013 831 
L 4013 0 
L 750 0 
L 750 831 
z
" transform="scale(0.015625)"/>
     </defs>
     <use xlink:href="#DejaVuSans-Bold-31"/>
    </g>
   </g>
  </g>
  <g id="axes_3">
   <g id="patch_4">
    <path d="M 10.144798 69.57 
L 219.394798 69.57 
L 219.394798 27.99 
L 10.144798 27.99 
L 10.144798 69.57 
z
" style="fill: none"/>
   </g>
   <g id="matplotlib.axis_5">
    <g id="xtick_11"/>
    <g id="xtick_12"/>
    <g id="xtick_13"/>
    <g id="xtick_14"/>
    <g id="xtick_15"/>
   </g>
   <g id="matplotlib.axis_6"/>
   <g id="PolyCollection_2">
    <defs>
     <path id="mfac14e43a7" d="M 46.46228 -105.334 
L 46.46228 -105.329688 
L 47.104302 -105.329688 
L 47.746325 -105.329688 
L 48.388348 -105.329688 
L 49.03037 -105.329688 
L 49.672393 -105.329688 
L 50.314415 -105.329688 
L 50.956438 -105.329688 
L 51.59846 -105.329688 
L 52.240483 -105.329688 
L 52.882506 -105.329688 
L 53.524528 -105.329688 
L 54.166551 -105.329688 
L 54.808573 -105.329688 
L 55.450596 -105.329688 
L 56.092619 -105.329688 
L 56.734641 -105.329688 
L 57.376664 -105.329688 
L 58.018686 -105.329688 
L 58.660709 -105.329688 
L 59.302731 -105.329688 
L 59.944754 -105.329688 
L 60.586777 -105.329688 
L 61.228799 -105.329688 
L 61.870822 -105.329688 
L 62.512844 -105.329688 
L 63.154867 -105.329688 
L 63.79689 -105.329688 
L 64.438912 -105.329688 
L 65.080935 -105.329688 
L 65.722957 -105.329688 
L 66.36498 -105.329688 
L 67.007002 -105.329688 
L 67.649025 -105.329688 
L 68.291048 -105.329688 
L 68.93307 -105.329688 
L 69.575093 -105.329688 
L 70.217115 -105.329688 
L 70.859138 -105.329688 
L 71.50116 -105.329688 
L 72.143183 -105.329688 
L 72.785206 -105.329688 
L 73.427228 -105.329688 
L 74.069251 -105.329688 
L 74.711273 -105.329688 
L 75.353296 -105.329688 
L 75.995319 -105.329688 
L 76.637341 -105.329688 
L 77.279364 -105.329688 
L 77.921386 -105.329688 
L 78.563409 -105.329688 
L 79.205431 -105.329688 
L 79.847454 -105.329688 
L 80.489477 -105.329688 
L 81.131499 -105.329688 
L 81.773522 -105.329688 
L 82.415544 -105.329688 
L 83.057567 -105.329688 
L 83.699589 -105.329688 
L 84.341612 -105.329688 
L 84.983635 -105.329688 
L 85.625657 -105.329688 
L 86.26768 -105.329688 
L 86.909702 -105.329688 
L 87.551725 -105.329688 
L 88.193748 -105.329688 
L 88.83577 -105.329688 
L 89.477793 -105.329688 
L 90.119815 -105.329688 
L 90.761838 -105.329688 
L 91.40386 -105.329688 
L 92.045883 -105.329688 
L 92.687906 -105.329688 
L 93.329928 -105.329688 
L 93.971951 -105.329688 
L 94.613973 -105.329688 
L 95.255996 -105.329688 
L 95.898019 -105.329688 
L 96.540041 -105.329688 
L 97.182064 -105.329688 
L 97.824086 -105.329688 
L 98.466109 -105.329688 
L 99.108131 -105.329688 
L 99.750154 -105.329688 
L 100.392177 -105.329688 
L 101.034199 -105.329688 
L 101.676222 -105.329688 
L 102.318244 -105.329688 
L 102.960267 -105.329688 
L 103.602289 -105.329688 
L 104.244312 -105.329688 
L 104.886335 -105.329688 
L 105.528357 -105.329688 
L 106.17038 -105.329688 
L 106.812402 -105.329688 
L 107.454425 -105.329688 
L 108.096448 -105.329688 
L 108.73847 -105.329688 
L 109.380493 -105.329688 
L 110.022515 -105.329688 
L 110.664538 -105.329688 
L 111.30656 -105.329688 
L 111.948583 -105.329688 
L 112.590606 -105.329688 
L 113.232628 -105.329688 
L 113.874651 -105.329688 
L 114.516673 -105.329688 
L 115.158696 -105.329688 
L 115.800719 -105.329688 
L 116.442741 -105.329688 
L 117.084764 -105.329688 
L 117.726786 -105.329688 
L 118.368809 -105.329688 
L 119.010831 -105.329688 
L 119.652854 -105.329688 
L 120.294877 -105.329688 
L 120.936899 -105.329688 
L 121.578922 -105.329688 
L 122.220944 -105.329688 
L 122.862967 -105.329688 
L 123.504989 -105.329688 
L 124.147012 -105.329688 
L 124.789035 -105.329688 
L 125.431057 -105.329688 
L 126.07308 -105.329688 
L 126.715102 -105.329688 
L 127.357125 -105.329688 
L 127.999148 -105.329688 
L 128.64117 -105.329688 
L 129.283193 -105.329688 
L 129.925215 -105.329688 
L 130.567238 -105.329688 
L 131.20926 -105.329688 
L 131.851283 -105.329688 
L 132.493306 -105.329688 
L 133.135328 -105.329688 
L 133.777351 -105.329688 
L 134.419373 -105.329688 
L 135.061396 -105.329688 
L 135.703418 -105.329688 
L 136.345441 -105.329688 
L 136.987464 -105.329688 
L 137.629486 -105.329688 
L 138.271509 -105.329688 
L 138.913531 -105.329688 
L 139.555554 -105.329688 
L 140.197577 -105.329688 
L 140.839599 -105.329688 
L 141.481622 -105.329688 
L 142.123644 -105.329688 
L 142.765667 -105.329688 
L 143.407689 -105.329688 
L 144.049712 -105.329688 
L 144.691735 -105.329688 
L 145.333757 -105.329688 
L 145.97578 -105.329688 
L 146.617802 -105.329688 
L 147.259825 -105.329688 
L 147.901848 -105.329688 
L 148.54387 -105.329688 
L 149.185893 -105.329688 
L 149.827915 -105.329688 
L 150.469938 -105.329688 
L 151.11196 -105.329688 
L 151.753983 -105.329688 
L 152.396006 -105.329688 
L 153.038028 -105.329688 
L 153.680051 -105.329688 
L 154.322073 -105.329688 
L 154.964096 -105.329688 
L 155.606118 -105.329688 
L 156.248141 -105.329688 
L 156.890164 -105.329688 
L 157.532186 -105.329688 
L 158.174209 -105.329688 
L 158.816231 -105.329688 
L 159.458254 -105.329688 
L 160.100277 -105.329688 
L 160.742299 -105.329688 
L 161.384322 -105.329688 
L 162.026344 -105.329688 
L 162.668367 -105.329688 
L 163.310389 -105.329688 
L 163.952412 -105.329688 
L 164.594435 -105.329688 
L 165.236457 -105.329688 
L 165.87848 -105.329688 
L 166.520502 -105.329688 
L 167.162525 -105.329688 
L 167.804548 -105.329688 
L 168.44657 -105.329688 
L 169.088593 -105.329688 
L 169.730615 -105.329688 
L 170.372638 -105.329688 
L 171.01466 -105.329688 
L 171.656683 -105.329688 
L 172.298706 -105.329688 
L 172.940728 -105.329688 
L 173.582751 -105.329688 
L 174.224773 -105.329688 
L 174.224773 -105.335348 
L 174.224773 -105.335348 
L 173.582751 -105.337345 
L 172.940728 -105.339408 
L 172.298706 -105.341301 
L 171.656683 -105.34281 
L 171.01466 -105.343812 
L 170.372638 -105.344326 
L 169.730615 -105.344523 
L 169.088593 -105.34468 
L 168.44657 -105.345092 
L 167.804548 -105.345984 
L 167.162525 -105.347442 
L 166.520502 -105.349404 
L 165.87848 -105.351709 
L 165.236457 -105.354177 
L 164.594435 -105.35669 
L 163.952412 -105.359275 
L 163.310389 -105.362244 
L 162.668367 -105.36652 
L 162.026344 -105.37442 
L 161.384322 -105.391201 
L 160.742299 -105.427691 
L 160.100277 -105.504029 
L 159.458254 -105.653904 
L 158.816231 -105.927548 
L 158.174209 -106.390513 
L 157.532186 -107.114771 
L 156.890164 -108.160118 
L 156.248141 -109.547918 
L 155.606118 -111.235007 
L 154.964096 -113.099946 
L 154.322073 -114.952965 
L 153.680051 -116.572852 
L 153.038028 -117.761409 
L 152.396006 -118.395705 
L 151.753983 -118.457218 
L 151.11196 -118.026784 
L 150.469938 -117.24995 
L 149.827915 -116.289533 
L 149.185893 -115.284727 
L 148.54387 -114.328966 
L 147.901848 -113.467959 
L 147.259825 -112.711276 
L 146.617802 -112.048596 
L 145.97578 -111.463998 
L 145.333757 -110.945328 
L 144.691735 -110.488435 
L 144.049712 -110.097303 
L 143.407689 -109.781304 
L 142.765667 -109.550794 
L 142.123644 -109.412236 
L 141.481622 -109.364131 
L 140.839599 -109.394901 
L 140.197577 -109.48347 
L 139.555554 -109.602535 
L 138.913531 -109.723685 
L 138.271509 -109.822902 
L 137.629486 -109.884998 
L 136.987464 -109.905961 
L 136.345441 -109.892919 
L 135.703418 -109.862004 
L 135.061396 -109.834757 
L 134.419373 -109.833926 
L 133.777351 -109.879635 
L 133.135328 -109.986844 
L 132.493306 -110.164637 
L 131.851283 -110.417257 
L 131.20926 -110.746139 
L 130.567238 -111.151963 
L 129.925215 -111.635866 
L 129.283193 -112.199316 
L 128.64117 -112.842488 
L 127.999148 -113.561207 
L 127.357125 -114.342995 
L 126.715102 -115.163288 
L 126.07308 -115.983398 
L 125.431057 -116.751614 
L 124.789035 -117.407983 
L 124.147012 -117.892026 
L 123.504989 -118.151604 
L 122.862967 -118.150874 
L 122.220944 -117.875722 
L 121.578922 -117.335895 
L 120.936899 -116.5638 
L 120.294877 -115.610404 
L 119.652854 -114.538898 
L 119.010831 -113.416886 
L 118.368809 -112.308127 
L 117.726786 -111.26513 
L 117.084764 -110.32406 
L 116.442741 -109.503099 
L 115.800719 -108.80449 
L 115.158696 -108.219329 
L 114.516673 -107.733294 
L 113.874651 -107.331444 
L 113.232628 -107.00097 
L 112.590606 -106.731828 
L 111.948583 -106.51601 
L 111.30656 -106.346397 
L 110.664538 -106.215884 
L 110.022515 -106.117047 
L 109.380493 -106.042303 
L 108.73847 -105.984366 
L 108.096448 -105.936815 
L 107.454425 -105.894607 
L 106.812402 -105.85439 
L 106.17038 -105.814576 
L 105.528357 -105.775129 
L 104.886335 -105.73712 
L 104.244312 -105.702121 
L 103.602289 -105.671578 
L 102.960267 -105.646296 
L 102.318244 -105.62619 
L 101.676222 -105.610356 
L 101.034199 -105.597406 
L 100.392177 -105.58589 
L 99.750154 -105.574637 
L 99.108131 -105.562912 
L 98.466109 -105.550403 
L 97.824086 -105.537155 
L 97.182064 -105.523521 
L 96.540041 -105.510131 
L 95.898019 -105.497803 
L 95.255996 -105.487331 
L 94.613973 -105.479194 
L 93.971951 -105.473311 
L 93.329928 -105.46898 
L 92.687906 -105.465075 
L 92.045883 -105.460404 
L 91.40386 -105.454084 
L 90.761838 -105.445758 
L 90.119815 -105.435598 
L 89.477793 -105.424151 
L 88.83577 -105.412123 
L 88.193748 -105.400232 
L 87.551725 -105.389124 
L 86.909702 -105.37934 
L 86.26768 -105.37127 
L 85.625657 -105.365116 
L 84.983635 -105.360849 
L 84.341612 -105.358237 
L 83.699589 -105.356902 
L 83.057567 -105.356422 
L 82.415544 -105.356418 
L 81.773522 -105.356609 
L 81.131499 -105.356834 
L 80.489477 -105.357029 
L 79.847454 -105.357182 
L 79.205431 -105.357277 
L 78.563409 -105.357255 
L 77.921386 -105.357002 
L 77.279364 -105.356378 
L 76.637341 -105.355265 
L 75.995319 -105.353608 
L 75.353296 -105.351455 
L 74.711273 -105.348953 
L 74.069251 -105.346335 
L 73.427228 -105.34387 
L 72.785206 -105.341801 
L 72.143183 -105.340273 
L 71.50116 -105.339294 
L 70.859138 -105.338732 
L 70.217115 -105.338368 
L 69.575093 -105.337994 
L 68.93307 -105.337491 
L 68.291048 -105.336878 
L 67.649025 -105.336288 
L 67.007002 -105.335905 
L 66.36498 -105.33587 
L 65.722957 -105.336215 
L 65.080935 -105.336856 
L 64.438912 -105.337626 
L 63.79689 -105.338349 
L 63.154867 -105.338905 
L 62.512844 -105.339253 
L 61.870822 -105.339408 
L 61.228799 -105.339394 
L 60.586777 -105.3392 
L 59.944754 -105.338776 
L 59.302731 -105.338069 
L 58.660709 -105.337067 
L 58.018686 -105.335835 
L 57.376664 -105.334501 
L 56.734641 -105.333218 
L 56.092619 -105.332124 
L 55.450596 -105.331306 
L 54.808573 -105.330806 
L 54.166551 -105.330631 
L 53.524528 -105.330782 
L 52.882506 -105.331255 
L 52.240483 -105.332033 
L 51.59846 -105.333063 
L 50.956438 -105.334235 
L 50.314415 -105.335375 
L 49.672393 -105.336276 
L 49.03037 -105.336753 
L 48.388348 -105.336702 
L 47.746325 -105.336132 
L 47.104302 -105.335167 
L 46.46228 -105.334 
z
" style="stroke: #355f8d; stroke-width: 1.25"/>
    </defs>
    <g>
     <use xlink:href="#mfac14e43a7" x="0" y="174.899688" style="fill: #355f8d; fill-opacity: 0.7; stroke: #355f8d; stroke-width: 1.25"/>
    </g>
   </g>
   <g id="line2d_3">
    <path d="M 10.144798 69.57 
L 219.394798 69.57 
" style="fill: none; stroke: #355f8d; stroke-opacity: 0.9; stroke-linecap: round"/>
   </g>
   <g id="text_3">
    <!-- 2 -->
    <g style="fill: #355f8d" transform="translate(10.144798 68.72325) scale(0.12 -0.12)">
     <defs>
      <path id="DejaVuSans-Bold-32" d="M 1844 884 
L 3897 884 
L 3897 0 
L 506 0 
L 506 884 
L 2209 2388 
Q 2438 2594 2547 2791 
Q 2656 2988 2656 3200 
Q 2656 3528 2436 3728 
Q 2216 3928 1850 3928 
Q 1569 3928 1234 3808 
Q 900 3688 519 3450 
L 519 4475 
Q 925 4609 1322 4679 
Q 1719 4750 2100 4750 
Q 2938 4750 3402 4381 
Q 3866 4013 3866 3353 
Q 3866 2972 3669 2642 
Q 3472 2313 2841 1759 
L 1844 884 
z
" transform="scale(0.015625)"/>
     </defs>
     <use xlink:href="#DejaVuSans-Bold-32"/>
    </g>
   </g>
  </g>
  <g id="axes_4">
   <g id="patch_5">
    <path d="M 10.144798 79.965 
L 219.394798 79.965 
L 219.394798 38.385 
L 10.144798 38.385 
L 10.144798 79.965 
z
" style="fill: none"/>
   </g>
   <g id="matplotlib.axis_7">
    <g id="xtick_16"/>
    <g id="xtick_17"/>
    <g id="xtick_18"/>
    <g id="xtick_19"/>
    <g id="xtick_20"/>
   </g>
   <g id="matplotlib.axis_8"/>
   <g id="PolyCollection_3">
    <defs>
     <path id="m94433430d6" d="M 31.339602 -94.93791 
L 31.339602 -94.934688 
L 32.127081 -94.934688 
L 32.914561 -94.934688 
L 33.70204 -94.934688 
L 34.48952 -94.934688 
L 35.276999 -94.934688 
L 36.064479 -94.934688 
L 36.851958 -94.934688 
L 37.639438 -94.934688 
L 38.426917 -94.934688 
L 39.214397 -94.934688 
L 40.001876 -94.934688 
L 40.789356 -94.934688 
L 41.576835 -94.934688 
L 42.364315 -94.934688 
L 43.151794 -94.934688 
L 43.939274 -94.934688 
L 44.726754 -94.934688 
L 45.514233 -94.934688 
L 46.301713 -94.934688 
L 47.089192 -94.934688 
L 47.876672 -94.934688 
L 48.664151 -94.934688 
L 49.451631 -94.934688 
L 50.23911 -94.934688 
L 51.02659 -94.934688 
L 51.814069 -94.934688 
L 52.601549 -94.934688 
L 53.389028 -94.934688 
L 54.176508 -94.934688 
L 54.963987 -94.934688 
L 55.751467 -94.934688 
L 56.538946 -94.934688 
L 57.326426 -94.934688 
L 58.113906 -94.934688 
L 58.901385 -94.934688 
L 59.688865 -94.934688 
L 60.476344 -94.934688 
L 61.263824 -94.934688 
L 62.051303 -94.934688 
L 62.838783 -94.934688 
L 63.626262 -94.934688 
L 64.413742 -94.934688 
L 65.201221 -94.934688 
L 65.988701 -94.934688 
L 66.77618 -94.934688 
L 67.56366 -94.934688 
L 68.351139 -94.934688 
L 69.138619 -94.934688 
L 69.926099 -94.934688 
L 70.713578 -94.934688 
L 71.501058 -94.934688 
L 72.288537 -94.934688 
L 73.076017 -94.934688 
L 73.863496 -94.934688 
L 74.650976 -94.934688 
L 75.438455 -94.934688 
L 76.225935 -94.934688 
L 77.013414 -94.934688 
L 77.800894 -94.934688 
L 78.588373 -94.934688 
L 79.375853 -94.934688 
L 80.163332 -94.934688 
L 80.950812 -94.934688 
L 81.738291 -94.934688 
L 82.525771 -94.934688 
L 83.313251 -94.934688 
L 84.10073 -94.934688 
L 84.88821 -94.934688 
L 85.675689 -94.934688 
L 86.463169 -94.934688 
L 87.250648 -94.934688 
L 88.038128 -94.934688 
L 88.825607 -94.934688 
L 89.613087 -94.934688 
L 90.400566 -94.934688 
L 91.188046 -94.934688 
L 91.975525 -94.934688 
L 92.763005 -94.934688 
L 93.550484 -94.934688 
L 94.337964 -94.934688 
L 95.125444 -94.934688 
L 95.912923 -94.934688 
L 96.700403 -94.934688 
L 97.487882 -94.934688 
L 98.275362 -94.934688 
L 99.062841 -94.934688 
L 99.850321 -94.934688 
L 100.6378 -94.934688 
L 101.42528 -94.934688 
L 102.212759 -94.934688 
L 103.000239 -94.934688 
L 103.787718 -94.934688 
L 104.575198 -94.934688 
L 105.362677 -94.934688 
L 106.150157 -94.934688 
L 106.937636 -94.934688 
L 107.725116 -94.934688 
L 108.512596 -94.934688 
L 109.300075 -94.934688 
L 110.087555 -94.934688 
L 110.875034 -94.934688 
L 111.662514 -94.934688 
L 112.449993 -94.934688 
L 113.237473 -94.934688 
L 114.024952 -94.934688 
L 114.812432 -94.934688 
L 115.599911 -94.934688 
L 116.387391 -94.934688 
L 117.17487 -94.934688 
L 117.96235 -94.934688 
L 118.749829 -94.934688 
L 119.537309 -94.934688 
L 120.324788 -94.934688 
L 121.112268 -94.934688 
L 121.899748 -94.934688 
L 122.687227 -94.934688 
L 123.474707 -94.934688 
L 124.262186 -94.934688 
L 125.049666 -94.934688 
L 125.837145 -94.934688 
L 126.624625 -94.934688 
L 127.412104 -94.934688 
L 128.199584 -94.934688 
L 128.987063 -94.934688 
L 129.774543 -94.934688 
L 130.562022 -94.934688 
L 131.349502 -94.934688 
L 132.136981 -94.934688 
L 132.924461 -94.934688 
L 133.711941 -94.934688 
L 134.49942 -94.934688 
L 135.2869 -94.934688 
L 136.074379 -94.934688 
L 136.861859 -94.934688 
L 137.649338 -94.934688 
L 138.436818 -94.934688 
L 139.224297 -94.934688 
L 140.011777 -94.934688 
L 140.799256 -94.934688 
L 141.586736 -94.934688 
L 142.374215 -94.934688 
L 143.161695 -94.934688 
L 143.949174 -94.934688 
L 144.736654 -94.934688 
L 145.524133 -94.934688 
L 146.311613 -94.934688 
L 147.099093 -94.934688 
L 147.886572 -94.934688 
L 148.674052 -94.934688 
L 149.461531 -94.934688 
L 150.249011 -94.934688 
L 151.03649 -94.934688 
L 151.82397 -94.934688 
L 152.611449 -94.934688 
L 153.398929 -94.934688 
L 154.186408 -94.934688 
L 154.973888 -94.934688 
L 155.761367 -94.934688 
L 156.548847 -94.934688 
L 157.336326 -94.934688 
L 158.123806 -94.934688 
L 158.911286 -94.934688 
L 159.698765 -94.934688 
L 160.486245 -94.934688 
L 161.273724 -94.934688 
L 162.061204 -94.934688 
L 162.848683 -94.934688 
L 163.636163 -94.934688 
L 164.423642 -94.934688 
L 165.211122 -94.934688 
L 165.998601 -94.934688 
L 166.786081 -94.934688 
L 167.57356 -94.934688 
L 168.36104 -94.934688 
L 169.148519 -94.934688 
L 169.935999 -94.934688 
L 170.723478 -94.934688 
L 171.510958 -94.934688 
L 172.298438 -94.934688 
L 173.085917 -94.934688 
L 173.873397 -94.934688 
L 174.660876 -94.934688 
L 175.448356 -94.934688 
L 176.235835 -94.934688 
L 177.023315 -94.934688 
L 177.810794 -94.934688 
L 178.598274 -94.934688 
L 179.385753 -94.934688 
L 180.173233 -94.934688 
L 180.960712 -94.934688 
L 181.748192 -94.934688 
L 182.535671 -94.934688 
L 183.323151 -94.934688 
L 184.11063 -94.934688 
L 184.89811 -94.934688 
L 185.68559 -94.934688 
L 186.473069 -94.934688 
L 187.260549 -94.934688 
L 188.048028 -94.934688 
L 188.048028 -94.940925 
L 188.048028 -94.940925 
L 187.260549 -94.943024 
L 186.473069 -94.945236 
L 185.68559 -94.947357 
L 184.89811 -94.94919 
L 184.11063 -94.950604 
L 183.323151 -94.951576 
L 182.535671 -94.952216 
L 181.748192 -94.952771 
L 180.960712 -94.953631 
L 180.173233 -94.955436 
L 179.385753 -94.959376 
L 178.598274 -94.967839 
L 177.810794 -94.985543 
L 177.023315 -95.021223 
L 176.235835 -95.089747 
L 175.448356 -95.214206 
L 174.660876 -95.427008 
L 173.873397 -95.768628 
L 173.085917 -96.282545 
L 172.298438 -97.005647 
L 171.510958 -97.954996 
L 170.723478 -99.114102 
L 169.935999 -100.423724 
L 169.148519 -101.782439 
L 168.36104 -103.059854 
L 167.57356 -104.120917 
L 166.786081 -104.854853 
L 165.998601 -105.199589 
L 165.211122 -105.153522 
L 164.423642 -104.77115 
L 163.636163 -104.14509 
L 162.848683 -103.381556 
L 162.061204 -102.577517 
L 161.273724 -101.805573 
L 160.486245 -101.108656 
L 159.698765 -100.503071 
L 158.911286 -99.986417 
L 158.123806 -99.546771 
L 157.336326 -99.170469 
L 156.548847 -98.847187 
L 155.761367 -98.572089 
L 154.973888 -98.345516 
L 154.186408 -98.171002 
L 153.398929 -98.052478 
L 152.611449 -97.991485 
L 151.82397 -97.9851 
L 151.03649 -98.025055 
L 150.249011 -98.098265 
L 149.461531 -98.188605 
L 148.674052 -98.279494 
L 147.886572 -98.35666 
L 147.099093 -98.410454 
L 146.311613 -98.437243 
L 145.524133 -98.439658 
L 144.736654 -98.425709 
L 143.949174 -98.407011 
L 143.161695 -98.396557 
L 142.374215 -98.406548 
L 141.586736 -98.446804 
L 140.799256 -98.524064 
L 140.011777 -98.642209 
L 139.224297 -98.803113 
L 138.436818 -99.007688 
L 137.649338 -99.256676 
L 136.861859 -99.550893 
L 136.074379 -99.890803 
L 135.2869 -100.275501 
L 134.49942 -100.701371 
L 133.711941 -101.160809 
L 132.924461 -101.6415 
L 132.136981 -102.126564 
L 131.349502 -102.595609 
L 130.562022 -103.026359 
L 129.774543 -103.396356 
L 128.987063 -103.684349 
L 128.199584 -103.871351 
L 127.412104 -103.941637 
L 126.624625 -103.884014 
L 125.837145 -103.693428 
L 125.049666 -103.372524 
L 124.262186 -102.932501 
L 123.474707 -102.392678 
L 122.687227 -101.778592 
L 121.899748 -101.119014 
L 121.112268 -100.442637 
L 120.324788 -99.775247 
L 119.537309 -99.137899 
L 118.749829 -98.546198 
L 117.96235 -98.010425 
L 117.17487 -97.53611 
L 116.387391 -97.124742 
L 115.599911 -96.774494 
L 114.812432 -96.481002 
L 114.024952 -96.238231 
L 113.237473 -96.039414 
L 112.449993 -95.877904 
L 111.662514 -95.747747 
L 110.875034 -95.643881 
L 110.087555 -95.561995 
L 109.300075 -95.498231 
L 108.512596 -95.448929 
L 107.725116 -95.410549 
L 106.937636 -95.379784 
L 106.150157 -95.353768 
L 105.362677 -95.330276 
L 104.575198 -95.307839 
L 103.787718 -95.285747 
L 103.000239 -95.263952 
L 102.212759 -95.242896 
L 101.42528 -95.22327 
L 100.6378 -95.205752 
L 99.850321 -95.190762 
L 99.062841 -95.178305 
L 98.275362 -95.16794 
L 97.487882 -95.158887 
L 96.700403 -95.150222 
L 95.912923 -95.141097 
L 95.125444 -95.130926 
L 94.337964 -95.119476 
L 93.550484 -95.106875 
L 92.763005 -95.093538 
L 91.975525 -95.080049 
L 91.188046 -95.067034 
L 90.400566 -95.055059 
L 89.613087 -95.04455 
L 88.825607 -95.035755 
L 88.038128 -95.028729 
L 87.250648 -95.023338 
L 86.463169 -95.019287 
L 85.675689 -95.016174 
L 84.88821 -95.013563 
L 84.10073 -95.011059 
L 83.313251 -95.008376 
L 82.525771 -95.005355 
L 81.738291 -95.001953 
L 80.950812 -94.998195 
L 80.163332 -94.994129 
L 79.375853 -94.989793 
L 78.588373 -94.985215 
L 77.800894 -94.980439 
L 77.013414 -94.97556 
L 76.225935 -94.970746 
L 75.438455 -94.966229 
L 74.650976 -94.962263 
L 73.863496 -94.959056 
L 73.076017 -94.956712 
L 72.288537 -94.955198 
L 71.501058 -94.954352 
L 70.713578 -94.953927 
L 69.926099 -94.953648 
L 69.138619 -94.953267 
L 68.351139 -94.952596 
L 67.56366 -94.951536 
L 66.77618 -94.950085 
L 65.988701 -94.948333 
L 65.201221 -94.946446 
L 64.413742 -94.944631 
L 63.626262 -94.943079 
L 62.838783 -94.941925 
L 62.051303 -94.941202 
L 61.263824 -94.940845 
L 60.476344 -94.940713 
L 59.688865 -94.940641 
L 58.901385 -94.940493 
L 58.113906 -94.940205 
L 57.326426 -94.939799 
L 56.538946 -94.939368 
L 55.751467 -94.939041 
L 54.963987 -94.938938 
L 54.176508 -94.939133 
L 53.389028 -94.939641 
L 52.601549 -94.940417 
L 51.814069 -94.941378 
L 51.02659 -94.942433 
L 50.23911 -94.943502 
L 49.451631 -94.944521 
L 48.664151 -94.945428 
L 47.876672 -94.946153 
L 47.089192 -94.94661 
L 46.301713 -94.946704 
L 45.514233 -94.946363 
L 44.726754 -94.945567 
L 43.939274 -94.944375 
L 43.151794 -94.942919 
L 42.364315 -94.941384 
L 41.576835 -94.939964 
L 40.789356 -94.938827 
L 40.001876 -94.938085 
L 39.214397 -94.937778 
L 38.426917 -94.937875 
L 37.639438 -94.938281 
L 36.851958 -94.938855 
L 36.064479 -94.939435 
L 35.276999 -94.939864 
L 34.48952 -94.940025 
L 33.70204 -94.939866 
L 32.914561 -94.939403 
L 32.127081 -94.938714 
L 31.339602 -94.93791 
z
" style="stroke: #21918c; stroke-width: 1.25"/>
    </defs>
    <g>
     <use xlink:href="#m94433430d6" x="0" y="174.899688" style="fill: #21918c; fill-opacity: 0.7; stroke: #21918c; stroke-width: 1.25"/>
    </g>
   </g>
   <g id="line2d_4">
    <path d="M 10.144798 79.965 
L 219.394798 79.965 
" style="fill: none; stroke: #21918c; stroke-opacity: 0.9; stroke-linecap: round"/>
   </g>
   <g id="text_4">
    <!-- 3 -->
    <g style="fill: #21918c" transform="translate(10.144798 79.11825) scale(0.12 -0.12)">
     <defs>
      <path id="DejaVuSans-Bold-33" d="M 2981 2516 
Q 3453 2394 3698 2092 
Q 3944 1791 3944 1325 
Q 3944 631 3412 270 
Q 2881 -91 1863 -91 
Q 1503 -91 1142 -33 
Q 781 25 428 141 
L 428 1069 
Q 766 900 1098 814 
Q 1431 728 1753 728 
Q 2231 728 2486 893 
Q 2741 1059 2741 1369 
Q 2741 1688 2480 1852 
Q 2219 2016 1709 2016 
L 1228 2016 
L 1228 2791 
L 1734 2791 
Q 2188 2791 2409 2933 
Q 2631 3075 2631 3366 
Q 2631 3634 2415 3781 
Q 2200 3928 1806 3928 
Q 1516 3928 1219 3862 
Q 922 3797 628 3669 
L 628 4550 
Q 984 4650 1334 4700 
Q 1684 4750 2022 4750 
Q 2931 4750 3382 4451 
Q 3834 4153 3834 3553 
Q 3834 3144 3618 2883 
Q 3403 2622 2981 2516 
z
" transform="scale(0.015625)"/>
     </defs>
     <use xlink:href="#DejaVuSans-Bold-33"/>
    </g>
   </g>
  </g>
  <g id="axes_5">
   <g id="patch_6">
    <path d="M 10.144798 90.36 
L 219.394798 90.36 
L 219.394798 48.78 
L 10.144798 48.78 
L 10.144798 90.36 
z
" style="fill: none"/>
   </g>
   <g id="matplotlib.axis_9">
    <g id="xtick_21"/>
    <g id="xtick_22"/>
    <g id="xtick_23"/>
    <g id="xtick_24"/>
    <g id="xtick_25"/>
   </g>
   <g id="matplotlib.axis_10"/>
   <g id="PolyCollection_4">
    <defs>
     <path id="m6521d81bf0" d="M 19.656161 -84.543377 
L 19.656161 -84.539688 
L 20.612077 -84.539688 
L 21.567993 -84.539688 
L 22.523909 -84.539688 
L 23.479825 -84.539688 
L 24.435741 -84.539688 
L 25.391657 -84.539688 
L 26.347573 -84.539688 
L 27.303489 -84.539688 
L 28.259405 -84.539688 
L 29.215321 -84.539688 
L 30.171237 -84.539688 
L 31.127153 -84.539688 
L 32.083069 -84.539688 
L 33.038985 -84.539688 
L 33.994901 -84.539688 
L 34.950817 -84.539688 
L 35.906733 -84.539688 
L 36.862648 -84.539688 
L 37.818564 -84.539688 
L 38.77448 -84.539688 
L 39.730396 -84.539688 
L 40.686312 -84.539688 
L 41.642228 -84.539688 
L 42.598144 -84.539688 
L 43.55406 -84.539688 
L 44.509976 -84.539688 
L 45.465892 -84.539688 
L 46.421808 -84.539688 
L 47.377724 -84.539688 
L 48.33364 -84.539688 
L 49.289556 -84.539688 
L 50.245472 -84.539688 
L 51.201388 -84.539688 
L 52.157304 -84.539688 
L 53.113219 -84.539688 
L 54.069135 -84.539688 
L 55.025051 -84.539688 
L 55.980967 -84.539688 
L 56.936883 -84.539688 
L 57.892799 -84.539688 
L 58.848715 -84.539688 
L 59.804631 -84.539688 
L 60.760547 -84.539688 
L 61.716463 -84.539688 
L 62.672379 -84.539688 
L 63.628295 -84.539688 
L 64.584211 -84.539688 
L 65.540127 -84.539688 
L 66.496043 -84.539688 
L 67.451959 -84.539688 
L 68.407875 -84.539688 
L 69.363791 -84.539688 
L 70.319706 -84.539688 
L 71.275622 -84.539688 
L 72.231538 -84.539688 
L 73.187454 -84.539688 
L 74.14337 -84.539688 
L 75.099286 -84.539688 
L 76.055202 -84.539688 
L 77.011118 -84.539688 
L 77.967034 -84.539688 
L 78.92295 -84.539688 
L 79.878866 -84.539688 
L 80.834782 -84.539688 
L 81.790698 -84.539688 
L 82.746614 -84.539688 
L 83.70253 -84.539688 
L 84.658446 -84.539688 
L 85.614362 -84.539688 
L 86.570278 -84.539688 
L 87.526193 -84.539688 
L 88.482109 -84.539688 
L 89.438025 -84.539688 
L 90.393941 -84.539688 
L 91.349857 -84.539688 
L 92.305773 -84.539688 
L 93.261689 -84.539688 
L 94.217605 -84.539688 
L 95.173521 -84.539688 
L 96.129437 -84.539688 
L 97.085353 -84.539688 
L 98.041269 -84.539688 
L 98.997185 -84.539688 
L 99.953101 -84.539688 
L 100.909017 -84.539688 
L 101.864933 -84.539688 
L 102.820849 -84.539688 
L 103.776764 -84.539688 
L 104.73268 -84.539688 
L 105.688596 -84.539688 
L 106.644512 -84.539688 
L 107.600428 -84.539688 
L 108.556344 -84.539688 
L 109.51226 -84.539688 
L 110.468176 -84.539688 
L 111.424092 -84.539688 
L 112.380008 -84.539688 
L 113.335924 -84.539688 
L 114.29184 -84.539688 
L 115.247756 -84.539688 
L 116.203672 -84.539688 
L 117.159588 -84.539688 
L 118.115504 -84.539688 
L 119.07142 -84.539688 
L 120.027336 -84.539688 
L 120.983251 -84.539688 
L 121.939167 -84.539688 
L 122.895083 -84.539688 
L 123.850999 -84.539688 
L 124.806915 -84.539688 
L 125.762831 -84.539688 
L 126.718747 -84.539688 
L 127.674663 -84.539688 
L 128.630579 -84.539688 
L 129.586495 -84.539688 
L 130.542411 -84.539688 
L 131.498327 -84.539688 
L 132.454243 -84.539688 
L 133.410159 -84.539688 
L 134.366075 -84.539688 
L 135.321991 -84.539688 
L 136.277907 -84.539688 
L 137.233823 -84.539688 
L 138.189738 -84.539688 
L 139.145654 -84.539688 
L 140.10157 -84.539688 
L 141.057486 -84.539688 
L 142.013402 -84.539688 
L 142.969318 -84.539688 
L 143.925234 -84.539688 
L 144.88115 -84.539688 
L 145.837066 -84.539688 
L 146.792982 -84.539688 
L 147.748898 -84.539688 
L 148.704814 -84.539688 
L 149.66073 -84.539688 
L 150.616646 -84.539688 
L 151.572562 -84.539688 
L 152.528478 -84.539688 
L 153.484394 -84.539688 
L 154.440309 -84.539688 
L 155.396225 -84.539688 
L 156.352141 -84.539688 
L 157.308057 -84.539688 
L 158.263973 -84.539688 
L 159.219889 -84.539688 
L 160.175805 -84.539688 
L 161.131721 -84.539688 
L 162.087637 -84.539688 
L 163.043553 -84.539688 
L 163.999469 -84.539688 
L 164.955385 -84.539688 
L 165.911301 -84.539688 
L 166.867217 -84.539688 
L 167.823133 -84.539688 
L 168.779049 -84.539688 
L 169.734965 -84.539688 
L 170.690881 -84.539688 
L 171.646796 -84.539688 
L 172.602712 -84.539688 
L 173.558628 -84.539688 
L 174.514544 -84.539688 
L 175.47046 -84.539688 
L 176.426376 -84.539688 
L 177.382292 -84.539688 
L 178.338208 -84.539688 
L 179.294124 -84.539688 
L 180.25004 -84.539688 
L 181.205956 -84.539688 
L 182.161872 -84.539688 
L 183.117788 -84.539688 
L 184.073704 -84.539688 
L 185.02962 -84.539688 
L 185.985536 -84.539688 
L 186.941452 -84.539688 
L 187.897368 -84.539688 
L 188.853283 -84.539688 
L 189.809199 -84.539688 
L 190.765115 -84.539688 
L 191.721031 -84.539688 
L 192.676947 -84.539688 
L 193.632863 -84.539688 
L 194.588779 -84.539688 
L 195.544695 -84.539688 
L 196.500611 -84.539688 
L 197.456527 -84.539688 
L 198.412443 -84.539688 
L 199.368359 -84.539688 
L 200.324275 -84.539688 
L 201.280191 -84.539688 
L 202.236107 -84.539688 
L 203.192023 -84.539688 
L 204.147939 -84.539688 
L 205.103854 -84.539688 
L 206.05977 -84.539688 
L 207.015686 -84.539688 
L 207.971602 -84.539688 
L 208.927518 -84.539688 
L 209.883434 -84.539688 
L 209.883434 -84.543298 
L 209.883434 -84.543298 
L 208.927518 -84.544561 
L 207.971602 -84.545641 
L 207.015686 -84.546358 
L 206.05977 -84.546693 
L 205.103854 -84.54678 
L 204.147939 -84.546798 
L 203.192023 -84.546823 
L 202.236107 -84.546788 
L 201.280191 -84.546575 
L 200.324275 -84.546164 
L 199.368359 -84.545716 
L 198.412443 -84.545501 
L 197.456527 -84.545751 
L 196.500611 -84.546533 
L 195.544695 -84.54775 
L 194.588779 -84.549225 
L 193.632863 -84.550767 
L 192.676947 -84.552168 
L 191.721031 -84.553149 
L 190.765115 -84.553381 
L 189.809199 -84.552633 
L 188.853283 -84.550944 
L 187.897368 -84.548695 
L 186.941452 -84.54651 
L 185.985536 -84.545046 
L 185.02962 -84.544831 
L 184.073704 -84.5462 
L 183.117788 -84.549325 
L 182.161872 -84.55428 
L 181.205956 -84.561083 
L 180.25004 -84.569666 
L 179.294124 -84.579733 
L 178.338208 -84.590608 
L 177.382292 -84.601374 
L 176.426376 -84.611749 
L 175.47046 -84.62414 
L 174.514544 -84.647161 
L 173.558628 -84.700699 
L 172.602712 -84.821803 
L 171.646796 -85.068818 
L 170.690881 -85.51848 
L 169.734965 -86.249487 
L 168.779049 -87.309838 
L 167.823133 -88.675929 
L 166.867217 -90.224113 
L 165.911301 -91.739431 
L 164.955385 -92.971832 
L 163.999469 -93.721385 
L 163.043553 -93.910433 
L 162.087637 -93.60338 
L 161.131721 -92.96572 
L 160.175805 -92.190201 
L 159.219889 -91.432455 
L 158.263973 -90.783157 
L 157.308057 -90.275526 
L 156.352141 -89.908697 
L 155.396225 -89.668204 
L 154.440309 -89.5367 
L 153.484394 -89.497911 
L 152.528478 -89.538315 
L 151.572562 -89.647344 
L 150.616646 -89.814397 
L 149.66073 -90.02283 
L 148.704814 -90.245038 
L 147.748898 -90.444058 
L 146.792982 -90.583536 
L 145.837066 -90.641763 
L 144.88115 -90.621731 
L 143.925234 -90.550911 
L 142.969318 -90.470402 
L 142.013402 -90.419057 
L 141.057486 -90.420582 
L 140.10157 -90.47949 
L 139.145654 -90.586603 
L 138.189738 -90.729419 
L 137.233823 -90.900096 
L 136.277907 -91.09595 
L 135.321991 -91.312768 
L 134.366075 -91.536456 
L 133.410159 -91.739755 
L 132.454243 -91.88731 
L 131.498327 -91.946548 
L 130.542411 -91.897765 
L 129.586495 -91.737595 
L 128.630579 -91.475064 
L 127.674663 -91.124646 
L 126.718747 -90.701742 
L 125.762831 -90.222647 
L 124.806915 -89.706786 
L 123.850999 -89.177605 
L 122.895083 -88.660296 
L 121.939167 -88.177207 
L 120.983251 -87.743214 
L 120.027336 -87.363201 
L 119.07142 -87.032763 
L 118.115504 -86.741888 
L 117.159588 -86.479986 
L 116.203672 -86.239994 
L 115.247756 -86.019804 
L 114.29184 -85.820941 
L 113.335924 -85.645916 
L 112.380008 -85.496159 
L 111.424092 -85.371486 
L 110.468176 -85.27071 
L 109.51226 -85.192182 
L 108.556344 -85.133503 
L 107.600428 -85.090713 
L 106.644512 -85.058052 
L 105.688596 -85.028976 
L 104.73268 -84.998048 
L 103.776764 -84.96255 
L 102.820849 -84.922915 
L 101.864933 -84.881884 
L 100.909017 -84.843026 
L 99.953101 -84.809356 
L 98.997185 -84.782538 
L 98.041269 -84.762783 
L 97.085353 -84.749263 
L 96.129437 -84.740673 
L 95.173521 -84.735548 
L 94.217605 -84.732245 
L 93.261689 -84.728826 
L 92.305773 -84.723242 
L 91.349857 -84.713928 
L 90.393941 -84.700527 
L 89.438025 -84.68421 
L 88.482109 -84.667289 
L 87.526193 -84.652284 
L 86.570278 -84.640924 
L 85.614362 -84.633591 
L 84.658446 -84.629402 
L 83.70253 -84.626765 
L 82.746614 -84.624076 
L 81.790698 -84.620267 
L 80.834782 -84.615032 
L 79.878866 -84.608736 
L 78.92295 -84.602132 
L 77.967034 -84.596045 
L 77.011118 -84.59112 
L 76.055202 -84.587665 
L 75.099286 -84.585566 
L 74.14337 -84.584332 
L 73.187454 -84.583317 
L 72.231538 -84.582071 
L 71.275622 -84.580643 
L 70.319706 -84.579607 
L 69.363791 -84.579717 
L 68.407875 -84.581345 
L 67.451959 -84.584065 
L 66.496043 -84.586703 
L 65.540127 -84.587873 
L 64.584211 -84.586692 
L 63.628295 -84.583204 
L 62.672379 -84.578269 
L 61.716463 -84.57304 
L 60.760547 -84.568406 
L 59.804631 -84.564706 
L 58.848715 -84.561778 
L 57.892799 -84.559198 
L 56.936883 -84.556553 
L 55.980967 -84.553653 
L 55.025051 -84.550606 
L 54.069135 -84.547755 
L 53.113219 -84.545515 
L 52.157304 -84.544178 
L 51.201388 -84.543796 
L 50.245472 -84.54416 
L 49.289556 -84.544864 
L 48.33364 -84.545449 
L 47.377724 -84.545561 
L 46.421808 -84.545071 
L 45.465892 -84.544095 
L 44.509976 -84.542905 
L 43.55406 -84.54178 
L 42.598144 -84.540899 
L 41.642228 -84.540313 
L 40.686312 -84.539975 
L 39.730396 -84.539808 
L 38.77448 -84.539741 
L 37.818564 -84.539737 
L 36.862648 -84.539798 
L 35.906733 -84.539969 
L 34.950817 -84.540348 
L 33.994901 -84.541078 
L 33.038985 -84.542305 
L 32.083069 -84.544096 
L 31.127153 -84.546338 
L 30.171237 -84.548694 
L 29.215321 -84.550675 
L 28.259405 -84.551844 
L 27.303489 -84.55203 
L 26.347573 -84.551408 
L 25.391657 -84.550367 
L 24.435741 -84.549266 
L 23.479825 -84.548244 
L 22.523909 -84.547226 
L 21.567993 -84.546076 
L 20.612077 -84.544757 
L 19.656161 -84.543377 
z
" style="stroke: #2a788e; stroke-width: 1.25"/>
    </defs>
    <g>
     <use xlink:href="#m6521d81bf0" x="0" y="174.899688" style="fill: #2a788e; fill-opacity: 0.7; stroke: #2a788e; stroke-width: 1.25"/>
    </g>
   </g>
   <g id="line2d_5">
    <path d="M 10.144798 90.36 
L 219.394798 90.36 
" style="fill: none; stroke: #2a788e; stroke-opacity: 0.9; stroke-linecap: round"/>
   </g>
   <g id="text_5">
    <!-- 4 -->
    <g style="fill: #2a788e" transform="translate(10.144798 89.51325) scale(0.12 -0.12)">
     <defs>
      <path id="DejaVuSans-Bold-34" d="M 2356 3675 
L 1038 1722 
L 2356 1722 
L 2356 3675 
z
M 2156 4666 
L 3494 4666 
L 3494 1722 
L 4159 1722 
L 4159 850 
L 3494 850 
L 3494 0 
L 2356 0 
L 2356 850 
L 288 850 
L 288 1881 
L 2156 4666 
z
" transform="scale(0.015625)"/>
     </defs>
     <use xlink:href="#DejaVuSans-Bold-34"/>
    </g>
   </g>
  </g>
  <g id="axes_6">
   <g id="patch_7">
    <path d="M 10.144798 100.755 
L 219.394798 100.755 
L 219.394798 59.175 
L 10.144798 59.175 
L 10.144798 100.755 
z
" style="fill: none"/>
   </g>
   <g id="matplotlib.axis_11">
    <g id="xtick_26"/>
    <g id="xtick_27"/>
    <g id="xtick_28"/>
    <g id="xtick_29"/>
    <g id="xtick_30"/>
   </g>
   <g id="matplotlib.axis_12"/>
   <g id="line2d_6">
    <path d="M 10.144798 100.755 
L 219.394798 100.755 
" style="fill: none; stroke: #482475; stroke-opacity: 0.9; stroke-linecap: round"/>
   </g>
   <g id="text_6">
    <!-- 5 -->
    <g style="fill: #482475" transform="translate(10.144798 99.90825) scale(0.12 -0.12)">
     <defs>
      <path id="DejaVuSans-Bold-35" d="M 678 4666 
L 3669 4666 
L 3669 3781 
L 1638 3781 
L 1638 3059 
Q 1775 3097 1914 3117 
Q 2053 3138 2203 3138 
Q 3056 3138 3531 2711 
Q 4006 2284 4006 1522 
Q 4006 766 3489 337 
Q 2972 -91 2053 -91 
Q 1656 -91 1267 -14 
Q 878 63 494 219 
L 494 1166 
Q 875 947 1217 837 
Q 1559 728 1863 728 
Q 2300 728 2551 942 
Q 2803 1156 2803 1522 
Q 2803 1891 2551 2103 
Q 2300 2316 1863 2316 
Q 1603 2316 1309 2248 
Q 1016 2181 678 2041 
L 678 4666 
z
" transform="scale(0.015625)"/>
     </defs>
     <use xlink:href="#DejaVuSans-Bold-35"/>
    </g>
   </g>
  </g>
  <g id="axes_7">
   <g id="patch_8">
    <path d="M 10.144798 111.15 
L 219.394798 111.15 
L 219.394798 69.57 
L 10.144798 69.57 
L 10.144798 111.15 
z
" style="fill: none"/>
   </g>
   <g id="matplotlib.axis_13">
    <g id="xtick_31"/>
    <g id="xtick_32"/>
    <g id="xtick_33"/>
    <g id="xtick_34"/>
    <g id="xtick_35"/>
   </g>
   <g id="matplotlib.axis_14"/>
   <g id="line2d_7">
    <path d="M 10.144798 111.15 
L 219.394798 111.15 
" style="fill: none; stroke: #482475; stroke-opacity: 0.9; stroke-linecap: round"/>
   </g>
   <g id="text_7">
    <!-- 6 -->
    <g style="fill: #482475" transform="translate(10.144798 110.30325) scale(0.12 -0.12)">
     <defs>
      <path id="DejaVuSans-Bold-36" d="M 2316 2303 
Q 2000 2303 1842 2098 
Q 1684 1894 1684 1484 
Q 1684 1075 1842 870 
Q 2000 666 2316 666 
Q 2634 666 2792 870 
Q 2950 1075 2950 1484 
Q 2950 1894 2792 2098 
Q 2634 2303 2316 2303 
z
M 3803 4544 
L 3803 3681 
Q 3506 3822 3243 3889 
Q 2981 3956 2731 3956 
Q 2194 3956 1894 3657 
Q 1594 3359 1544 2772 
Q 1750 2925 1990 3001 
Q 2231 3078 2516 3078 
Q 3231 3078 3670 2659 
Q 4109 2241 4109 1563 
Q 4109 813 3618 361 
Q 3128 -91 2303 -91 
Q 1394 -91 895 523 
Q 397 1138 397 2266 
Q 397 3422 980 4083 
Q 1563 4744 2578 4744 
Q 2900 4744 3203 4694 
Q 3506 4644 3803 4544 
z
" transform="scale(0.015625)"/>
     </defs>
     <use xlink:href="#DejaVuSans-Bold-36"/>
    </g>
   </g>
  </g>
  <g id="axes_8">
   <g id="patch_9">
    <path d="M 10.144798 121.545 
L 219.394798 121.545 
L 219.394798 79.965 
L 10.144798 79.965 
L 10.144798 121.545 
z
" style="fill: none"/>
   </g>
   <g id="matplotlib.axis_15">
    <g id="xtick_36"/>
    <g id="xtick_37"/>
    <g id="xtick_38"/>
    <g id="xtick_39"/>
    <g id="xtick_40"/>
   </g>
   <g id="matplotlib.axis_16"/>
   <g id="line2d_8">
    <path d="M 10.144798 121.545 
L 219.394798 121.545 
" style="fill: none; stroke: #482475; stroke-opacity: 0.9; stroke-linecap: round"/>
   </g>
   <g id="text_8">
    <!-- 7 -->
    <g style="fill: #482475" transform="translate(10.144798 120.69825) scale(0.12 -0.12)">
     <defs>
      <path id="DejaVuSans-Bold-37" d="M 428 4666 
L 3944 4666 
L 3944 3988 
L 2125 0 
L 953 0 
L 2675 3781 
L 428 3781 
L 428 4666 
z
" transform="scale(0.015625)"/>
     </defs>
     <use xlink:href="#DejaVuSans-Bold-37"/>
    </g>
   </g>
  </g>
  <g id="axes_9">
   <g id="patch_10">
    <path d="M 10.144798 131.94 
L 219.394798 131.94 
L 219.394798 90.36 
L 10.144798 90.36 
L 10.144798 131.94 
z
" style="fill: none"/>
   </g>
   <g id="matplotlib.axis_17">
    <g id="xtick_41">
     <g id="text_9">
      <!-- 2 -->
      <g style="fill: #838383" transform="translate(7.2 149.798281) scale(0.11 -0.11)">
       <defs>
        <path id="DejaVuSans-2212" d="M 678 2272 
L 4684 2272 
L 4684 1741 
L 678 1741 
L 678 2272 
z
" transform="scale(0.015625)"/>
        <path id="DejaVuSans-32" d="M 1228 531 
L 3431 531 
L 3431 0 
L 469 0 
L 469 531 
Q 828 903 1448 1529 
Q 2069 2156 2228 2338 
Q 2531 2678 2651 2914 
Q 2772 3150 2772 3378 
Q 2772 3750 2511 3984 
Q 2250 4219 1831 4219 
Q 1534 4219 1204 4116 
Q 875 4013 500 3803 
L 500 4441 
Q 881 4594 1212 4672 
Q 1544 4750 1819 4750 
Q 2544 4750 2975 4387 
Q 3406 4025 3406 3419 
Q 3406 3131 3298 2873 
Q 3191 2616 2906 2266 
Q 2828 2175 2409 1742 
Q 1991 1309 1228 531 
z
" transform="scale(0.015625)"/>
       </defs>
       <use xlink:href="#DejaVuSans-2212"/>
       <use xlink:href="#DejaVuSans-32" x="83.789062"/>
      </g>
     </g>
    </g>
    <g id="xtick_42">
     <g id="text_10">
      <!-- 1 -->
      <g style="fill: #838383" transform="translate(56.493205 149.798281) scale(0.11 -0.11)">
       <defs>
        <path id="DejaVuSans-31" d="M 794 531 
L 1825 531 
L 1825 4091 
L 703 3866 
L 703 4441 
L 1819 4666 
L 2450 4666 
L 2450 531 
L 3481 531 
L 3481 0 
L 794 0 
L 794 531 
z
" transform="scale(0.015625)"/>
       </defs>
       <use xlink:href="#DejaVuSans-2212"/>
       <use xlink:href="#DejaVuSans-31" x="83.789062"/>
      </g>
     </g>
    </g>
    <g id="xtick_43">
     <g id="text_11">
      <!-- 0 -->
      <g style="fill: #838383" transform="translate(110.395238 149.798281) scale(0.11 -0.11)">
       <defs>
        <path id="DejaVuSans-30" d="M 2034 4250 
Q 1547 4250 1301 3770 
Q 1056 3291 1056 2328 
Q 1056 1369 1301 889 
Q 1547 409 2034 409 
Q 2525 409 2770 889 
Q 3016 1369 3016 2328 
Q 3016 3291 2770 3770 
Q 2525 4250 2034 4250 
z
M 2034 4750 
Q 2819 4750 3233 4129 
Q 3647 3509 3647 2328 
Q 3647 1150 3233 529 
Q 2819 -91 2034 -91 
Q 1250 -91 836 529 
Q 422 1150 422 2328 
Q 422 3509 836 4129 
Q 1250 4750 2034 4750 
z
" transform="scale(0.015625)"/>
       </defs>
       <use xlink:href="#DejaVuSans-30"/>
      </g>
     </g>
    </g>
    <g id="xtick_44">
     <g id="text_12">
      <!-- 1 -->
      <g style="fill: #838383" transform="translate(159.688443 149.798281) scale(0.11 -0.11)">
       <use xlink:href="#DejaVuSans-31"/>
      </g>
     </g>
    </g>
    <g id="xtick_45">
     <g id="text_13">
      <!-- 2 -->
      <g style="fill: #838383" transform="translate(208.981648 149.798281) scale(0.11 -0.11)">
       <use xlink:href="#DejaVuSans-32"/>
      </g>
     </g>
    </g>
    <g id="text_14">
     <!-- sldf -->
     <g style="fill: #262626" transform="translate(104.056048 165.204063) scale(0.12 -0.12)">
      <defs>
       <path id="DejaVuSans-73" d="M 2834 3397 
L 2834 2853 
Q 2591 2978 2328 3040 
Q 2066 3103 1784 3103 
Q 1356 3103 1142 2972 
Q 928 2841 928 2578 
Q 928 2378 1081 2264 
Q 1234 2150 1697 2047 
L 1894 2003 
Q 2506 1872 2764 1633 
Q 3022 1394 3022 966 
Q 3022 478 2636 193 
Q 2250 -91 1575 -91 
Q 1294 -91 989 -36 
Q 684 19 347 128 
L 347 722 
Q 666 556 975 473 
Q 1284 391 1588 391 
Q 1994 391 2212 530 
Q 2431 669 2431 922 
Q 2431 1156 2273 1281 
Q 2116 1406 1581 1522 
L 1381 1569 
Q 847 1681 609 1914 
Q 372 2147 372 2553 
Q 372 3047 722 3315 
Q 1072 3584 1716 3584 
Q 2034 3584 2315 3537 
Q 2597 3491 2834 3397 
z
" transform="scale(0.015625)"/>
       <path id="DejaVuSans-6c" d="M 603 4863 
L 1178 4863 
L 1178 0 
L 603 0 
L 603 4863 
z
" transform="scale(0.015625)"/>
       <path id="DejaVuSans-64" d="M 2906 2969 
L 2906 4863 
L 3481 4863 
L 3481 0 
L 2906 0 
L 2906 525 
Q 2725 213 2448 61 
Q 2172 -91 1784 -91 
Q 1150 -91 751 415 
Q 353 922 353 1747 
Q 353 2572 751 3078 
Q 1150 3584 1784 3584 
Q 2172 3584 2448 3432 
Q 2725 3281 2906 2969 
z
M 947 1747 
Q 947 1113 1208 752 
Q 1469 391 1925 391 
Q 2381 391 2643 752 
Q 2906 1113 2906 1747 
Q 2906 2381 2643 2742 
Q 2381 3103 1925 3103 
Q 1469 3103 1208 2742 
Q 947 2381 947 1747 
z
" transform="scale(0.015625)"/>
       <path id="DejaVuSans-66" d="M 2375 4863 
L 2375 4384 
L 1825 4384 
Q 1516 4384 1395 4259 
Q 1275 4134 1275 3809 
L 1275 3500 
L 2222 3500 
L 2222 3053 
L 1275 3053 
L 1275 0 
L 697 0 
L 697 3053 
L 147 3053 
L 147 3500 
L 697 3500 
L 697 3744 
Q 697 4328 969 4595 
Q 1241 4863 1831 4863 
L 2375 4863 
z
" transform="scale(0.015625)"/>
      </defs>
      <use xlink:href="#DejaVuSans-73"/>
      <use xlink:href="#DejaVuSans-6c" x="52.099609"/>
      <use xlink:href="#DejaVuSans-64" x="79.882812"/>
      <use xlink:href="#DejaVuSans-66" x="143.359375"/>
     </g>
    </g>
   </g>
   <g id="matplotlib.axis_18"/>
   <g id="line2d_9">
    <path d="M 10.144798 131.94 
L 219.394798 131.94 
" style="fill: none; stroke: #482475; stroke-opacity: 0.9; stroke-linecap: round"/>
   </g>
   <g id="text_15">
    <!-- 8 -->
    <g style="fill: #482475" transform="translate(10.144798 131.09325) scale(0.12 -0.12)">
     <defs>
      <path id="DejaVuSans-Bold-38" d="M 2228 2088 
Q 1891 2088 1709 1903 
Q 1528 1719 1528 1375 
Q 1528 1031 1709 848 
Q 1891 666 2228 666 
Q 2563 666 2741 848 
Q 2919 1031 2919 1375 
Q 2919 1722 2741 1905 
Q 2563 2088 2228 2088 
z
M 1350 2484 
Q 925 2613 709 2878 
Q 494 3144 494 3541 
Q 494 4131 934 4440 
Q 1375 4750 2228 4750 
Q 3075 4750 3515 4442 
Q 3956 4134 3956 3541 
Q 3956 3144 3739 2878 
Q 3522 2613 3097 2484 
Q 3572 2353 3814 2058 
Q 4056 1763 4056 1313 
Q 4056 619 3595 264 
Q 3134 -91 2228 -91 
Q 1319 -91 855 264 
Q 391 619 391 1313 
Q 391 1763 633 2058 
Q 875 2353 1350 2484 
z
M 1631 3419 
Q 1631 3141 1786 2991 
Q 1941 2841 2228 2841 
Q 2509 2841 2662 2991 
Q 2816 3141 2816 3419 
Q 2816 3697 2662 3845 
Q 2509 3994 2228 3994 
Q 1941 3994 1786 3844 
Q 1631 3694 1631 3419 
z
" transform="scale(0.015625)"/>
     </defs>
     <use xlink:href="#DejaVuSans-Bold-38"/>
    </g>
   </g>
  </g>
 </g>
</svg>
