<?xml version="1.0" encoding="utf-8" standalone="no"?>
<!DOCTYPE svg PUBLIC "-//W3C//DTD SVG 1.1//EN"
  "http://www.w3.org/Graphics/SVG/1.1/DTD/svg11.dtd">
<svg xmlns:xlink="http://www.w3.org/1999/xlink" width="338.169327pt" height="234.534474pt" viewBox="0 0 338.169327 234.534474" xmlns="http://www.w3.org/2000/svg" version="1.1">
 <metadata>
  <rdf:RDF xmlns:dc="http://purl.org/dc/elements/1.1/" xmlns:cc="http://creativecommons.org/ns#" xmlns:rdf="http://www.w3.org/1999/02/22-rdf-syntax-ns#">
   <cc:Work>
    <dc:type rdf:resource="http://purl.org/dc/dcmitype/StillImage"/>
    <dc:date>2023-12-05T12:05:32.420761</dc:date>
    <dc:format>image/svg+xml</dc:format>
    <dc:creator>
     <cc:Agent>
      <dc:title>Matplotlib v3.8.2, https://matplotlib.org/</dc:title>
     </cc:Agent>
    </dc:creator>
   </cc:Work>
  </rdf:RDF>
 </metadata>
 <defs>
  <style type="text/css">*{stroke-linejoin: round; stroke-linecap: butt}</style>
 </defs>
 <g id="figure_1">
  <g id="patch_1">
   <path d="M 0 234.534474 
L 338.169327 234.534474 
L 338.169327 0 
L 0 0 
L 0 234.534474 
z
" style="fill: none"/>
  </g>
  <g id="axes_1">
   <g id="patch_2">
    <path d="M 62.606055 192.009865 
L 328.982144 192.009865 
L 328.982144 28.442513 
L 62.606055 28.442513 
L 62.606055 192.009865 
z
" style="fill: none"/>
   </g>
   <g id="matplotlib.axis_1">
    <g id="xtick_1">
     <g id="text_1">
      <!-- 0 -->
      <g style="fill: #838383" transform="translate(70.33984 205.957716) scale(0.1375 -0.1375)">
       <defs>
        <path id="DejaVuSans-30" d="M 2034 4250 
Q 1547 4250 1301 3770 
Q 1056 3291 1056 2328 
Q 1056 1369 1301 889 
Q 1547 409 2034 409 
Q 2525 409 2770 889 
Q 3016 1369 3016 2328 
Q 3016 3291 2770 3770 
Q 2525 4250 2034 4250 
z
M 2034 4750 
Q 2819 4750 3233 4129 
Q 3647 3509 3647 2328 
Q 3647 1150 3233 529 
Q 2819 -91 2034 -91 
Q 1250 -91 836 529 
Q 422 1150 422 2328 
Q 422 3509 836 4129 
Q 1250 4750 2034 4750 
z
" transform="scale(0.015625)"/>
       </defs>
       <use xlink:href="#DejaVuSans-30"/>
      </g>
     </g>
    </g>
    <g id="xtick_2">
     <g id="text_2">
      <!-- 50 -->
      <g style="fill: #838383" transform="translate(114.592144 205.957716) scale(0.1375 -0.1375)">
       <defs>
        <path id="DejaVuSans-35" d="M 691 4666 
L 3169 4666 
L 3169 4134 
L 1269 4134 
L 1269 2991 
Q 1406 3038 1543 3061 
Q 1681 3084 1819 3084 
Q 2600 3084 3056 2656 
Q 3513 2228 3513 1497 
Q 3513 744 3044 326 
Q 2575 -91 1722 -91 
Q 1428 -91 1123 -41 
Q 819 9 494 109 
L 494 744 
Q 775 591 1075 516 
Q 1375 441 1709 441 
Q 2250 441 2565 725 
Q 2881 1009 2881 1497 
Q 2881 1984 2565 2268 
Q 2250 2553 1709 2553 
Q 1456 2553 1204 2497 
Q 953 2441 691 2322 
L 691 4666 
z
" transform="scale(0.015625)"/>
       </defs>
       <use xlink:href="#DejaVuSans-35"/>
       <use xlink:href="#DejaVuSans-30" x="63.623047"/>
      </g>
     </g>
    </g>
    <g id="xtick_3">
     <g id="text_3">
      <!-- 100 -->
      <g style="fill: #838383" transform="translate(158.844447 205.957716) scale(0.1375 -0.1375)">
       <defs>
        <path id="DejaVuSans-31" d="M 794 531 
L 1825 531 
L 1825 4091 
L 703 3866 
L 703 4441 
L 1819 4666 
L 2450 4666 
L 2450 531 
L 3481 531 
L 3481 0 
L 794 0 
L 794 531 
z
" transform="scale(0.015625)"/>
       </defs>
       <use xlink:href="#DejaVuSans-31"/>
       <use xlink:href="#DejaVuSans-30" x="63.623047"/>
       <use xlink:href="#DejaVuSans-30" x="127.246094"/>
      </g>
     </g>
    </g>
    <g id="xtick_4">
     <g id="text_4">
      <!-- 150 -->
      <g style="fill: #838383" transform="translate(207.47097 205.957716) scale(0.1375 -0.1375)">
       <use xlink:href="#DejaVuSans-31"/>
       <use xlink:href="#DejaVuSans-35" x="63.623047"/>
       <use xlink:href="#DejaVuSans-30" x="127.246094"/>
      </g>
     </g>
    </g>
    <g id="xtick_5">
     <g id="text_5">
      <!-- 200 -->
      <g style="fill: #838383" transform="translate(256.097492 205.957716) scale(0.1375 -0.1375)">
       <defs>
        <path id="DejaVuSans-32" d="M 1228 531 
L 3431 531 
L 3431 0 
L 469 0 
L 469 531 
Q 828 903 1448 1529 
Q 2069 2156 2228 2338 
Q 2531 2678 2651 2914 
Q 2772 3150 2772 3378 
Q 2772 3750 2511 3984 
Q 2250 4219 1831 4219 
Q 1534 4219 1204 4116 
Q 875 4013 500 3803 
L 500 4441 
Q 881 4594 1212 4672 
Q 1544 4750 1819 4750 
Q 2544 4750 2975 4387 
Q 3406 4025 3406 3419 
Q 3406 3131 3298 2873 
Q 3191 2616 2906 2266 
Q 2828 2175 2409 1742 
Q 1991 1309 1228 531 
z
" transform="scale(0.015625)"/>
       </defs>
       <use xlink:href="#DejaVuSans-32"/>
       <use xlink:href="#DejaVuSans-30" x="63.623047"/>
       <use xlink:href="#DejaVuSans-30" x="127.246094"/>
      </g>
     </g>
    </g>
    <g id="xtick_6">
     <g id="text_6">
      <!-- 250 -->
      <g style="fill: #838383" transform="translate(304.724014 205.957716) scale(0.1375 -0.1375)">
       <use xlink:href="#DejaVuSans-32"/>
       <use xlink:href="#DejaVuSans-35" x="63.623047"/>
       <use xlink:href="#DejaVuSans-30" x="127.246094"/>
      </g>
     </g>
    </g>
    <g id="text_7">
     <!-- draw -->
     <g style="fill: #838383" transform="translate(177.219881 224.214943) scale(0.15 -0.15)">
      <defs>
       <path id="DejaVuSans-64" d="M 2906 2969 
L 2906 4863 
L 3481 4863 
L 3481 0 
L 2906 0 
L 2906 525 
Q 2725 213 2448 61 
Q 2172 -91 1784 -91 
Q 1150 -91 751 415 
Q 353 922 353 1747 
Q 353 2572 751 3078 
Q 1150 3584 1784 3584 
Q 2172 3584 2448 3432 
Q 2725 3281 2906 2969 
z
M 947 1747 
Q 947 1113 1208 752 
Q 1469 391 1925 391 
Q 2381 391 2643 752 
Q 2906 1113 2906 1747 
Q 2906 2381 2643 2742 
Q 2381 3103 1925 3103 
Q 1469 3103 1208 2742 
Q 947 2381 947 1747 
z
" transform="scale(0.015625)"/>
       <path id="DejaVuSans-72" d="M 2631 2963 
Q 2534 3019 2420 3045 
Q 2306 3072 2169 3072 
Q 1681 3072 1420 2755 
Q 1159 2438 1159 1844 
L 1159 0 
L 581 0 
L 581 3500 
L 1159 3500 
L 1159 2956 
Q 1341 3275 1631 3429 
Q 1922 3584 2338 3584 
Q 2397 3584 2469 3576 
Q 2541 3569 2628 3553 
L 2631 2963 
z
" transform="scale(0.015625)"/>
       <path id="DejaVuSans-61" d="M 2194 1759 
Q 1497 1759 1228 1600 
Q 959 1441 959 1056 
Q 959 750 1161 570 
Q 1363 391 1709 391 
Q 2188 391 2477 730 
Q 2766 1069 2766 1631 
L 2766 1759 
L 2194 1759 
z
M 3341 1997 
L 3341 0 
L 2766 0 
L 2766 531 
Q 2569 213 2275 61 
Q 1981 -91 1556 -91 
Q 1019 -91 701 211 
Q 384 513 384 1019 
Q 384 1609 779 1909 
Q 1175 2209 1959 2209 
L 2766 2209 
L 2766 2266 
Q 2766 2663 2505 2880 
Q 2244 3097 1772 3097 
Q 1472 3097 1187 3025 
Q 903 2953 641 2809 
L 641 3341 
Q 956 3463 1253 3523 
Q 1550 3584 1831 3584 
Q 2591 3584 2966 3190 
Q 3341 2797 3341 1997 
z
" transform="scale(0.015625)"/>
       <path id="DejaVuSans-77" d="M 269 3500 
L 844 3500 
L 1563 769 
L 2278 3500 
L 2956 3500 
L 3675 769 
L 4391 3500 
L 4966 3500 
L 4050 0 
L 3372 0 
L 2619 2869 
L 1863 0 
L 1184 0 
L 269 3500 
z
" transform="scale(0.015625)"/>
      </defs>
      <use xlink:href="#DejaVuSans-64"/>
      <use xlink:href="#DejaVuSans-72" x="63.476562"/>
      <use xlink:href="#DejaVuSans-61" x="104.589844"/>
      <use xlink:href="#DejaVuSans-77" x="165.869141"/>
     </g>
    </g>
   </g>
   <g id="matplotlib.axis_2">
    <g id="ytick_1">
     <g id="text_8">
      <!-- −1.0 -->
      <g style="fill: #838383" transform="translate(25.717188 182.714992) scale(0.1375 -0.1375)">
       <defs>
        <path id="DejaVuSans-2212" d="M 678 2272 
L 4684 2272 
L 4684 1741 
L 678 1741 
L 678 2272 
z
" transform="scale(0.015625)"/>
        <path id="DejaVuSans-2e" d="M 684 794 
L 1344 794 
L 1344 0 
L 684 0 
L 684 794 
z
" transform="scale(0.015625)"/>
       </defs>
       <use xlink:href="#DejaVuSans-2212"/>
       <use xlink:href="#DejaVuSans-31" x="83.789062"/>
       <use xlink:href="#DejaVuSans-2e" x="147.412109"/>
       <use xlink:href="#DejaVuSans-30" x="179.199219"/>
      </g>
     </g>
    </g>
    <g id="ytick_2">
     <g id="text_9">
      <!-- −0.5 -->
      <g style="fill: #838383" transform="translate(25.717188 118.882643) scale(0.1375 -0.1375)">
       <use xlink:href="#DejaVuSans-2212"/>
       <use xlink:href="#DejaVuSans-30" x="83.789062"/>
       <use xlink:href="#DejaVuSans-2e" x="147.412109"/>
       <use xlink:href="#DejaVuSans-35" x="179.199219"/>
      </g>
     </g>
    </g>
    <g id="ytick_3">
     <g id="text_10">
      <!-- 0.0 -->
      <g style="fill: #838383" transform="translate(37.239258 55.050294) scale(0.1375 -0.1375)">
       <use xlink:href="#DejaVuSans-30"/>
       <use xlink:href="#DejaVuSans-2e" x="63.623047"/>
       <use xlink:href="#DejaVuSans-30" x="95.410156"/>
      </g>
     </g>
    </g>
    <g id="text_11">
     <!-- sldb -->
     <g style="fill: #838383" transform="translate(18.597656 125.73947) rotate(-90) scale(0.15 -0.15)">
      <defs>
       <path id="DejaVuSans-73" d="M 2834 3397 
L 2834 2853 
Q 2591 2978 2328 3040 
Q 2066 3103 1784 3103 
Q 1356 3103 1142 2972 
Q 928 2841 928 2578 
Q 928 2378 1081 2264 
Q 1234 2150 1697 2047 
L 1894 2003 
Q 2506 1872 2764 1633 
Q 3022 1394 3022 966 
Q 3022 478 2636 193 
Q 2250 -91 1575 -91 
Q 1294 -91 989 -36 
Q 684 19 347 128 
L 347 722 
Q 666 556 975 473 
Q 1284 391 1588 391 
Q 1994 391 2212 530 
Q 2431 669 2431 922 
Q 2431 1156 2273 1281 
Q 2116 1406 1581 1522 
L 1381 1569 
Q 847 1681 609 1914 
Q 372 2147 372 2553 
Q 372 3047 722 3315 
Q 1072 3584 1716 3584 
Q 2034 3584 2315 3537 
Q 2597 3491 2834 3397 
z
" transform="scale(0.015625)"/>
       <path id="DejaVuSans-6c" d="M 603 4863 
L 1178 4863 
L 1178 0 
L 603 0 
L 603 4863 
z
" transform="scale(0.015625)"/>
       <path id="DejaVuSans-62" d="M 3116 1747 
Q 3116 2381 2855 2742 
Q 2594 3103 2138 3103 
Q 1681 3103 1420 2742 
Q 1159 2381 1159 1747 
Q 1159 1113 1420 752 
Q 1681 391 2138 391 
Q 2594 391 2855 752 
Q 3116 1113 3116 1747 
z
M 1159 2969 
Q 1341 3281 1617 3432 
Q 1894 3584 2278 3584 
Q 2916 3584 3314 3078 
Q 3713 2572 3713 1747 
Q 3713 922 3314 415 
Q 2916 -91 2278 -91 
Q 1894 -91 1617 61 
Q 1341 213 1159 525 
L 1159 0 
L 581 0 
L 581 4863 
L 1159 4863 
L 1159 2969 
z
" transform="scale(0.015625)"/>
      </defs>
      <use xlink:href="#DejaVuSans-73"/>
      <use xlink:href="#DejaVuSans-6c" x="52.099609"/>
      <use xlink:href="#DejaVuSans-64" x="79.882812"/>
      <use xlink:href="#DejaVuSans-62" x="143.359375"/>
     </g>
    </g>
   </g>
   <g id="line2d_1">
    <path d="M 74.714059 49.826368 
L 316.87414 49.826368 
L 316.87414 49.826368 
" clip-path="url(#pe93b936997)" style="fill: none; stroke: #440154; stroke-width: 1.5; stroke-linecap: round"/>
   </g>
   <g id="line2d_2">
    <path d="M 74.714059 49.826368 
L 316.87414 49.826368 
L 316.87414 49.826368 
" clip-path="url(#pe93b936997)" style="fill: none; stroke: #482878; stroke-width: 1.5; stroke-linecap: round"/>
   </g>
   <g id="line2d_3">
    <path d="M 74.714059 49.826368 
L 316.87414 49.826368 
L 316.87414 49.826368 
" clip-path="url(#pe93b936997)" style="fill: none; stroke: #3e4989; stroke-width: 1.5; stroke-linecap: round"/>
   </g>
   <g id="line2d_4">
    <path d="M 74.714059 49.826368 
L 316.87414 49.826368 
L 316.87414 49.826368 
" clip-path="url(#pe93b936997)" style="fill: none; stroke: #31688e; stroke-width: 1.5; stroke-linecap: round"/>
   </g>
   <g id="line2d_5">
    <path d="M 74.714059 49.826368 
L 316.87414 49.826368 
L 316.87414 49.826368 
" clip-path="url(#pe93b936997)" style="fill: none; stroke: #26828e; stroke-width: 1.5; stroke-linecap: round"/>
   </g>
   <g id="line2d_6">
    <path d="M 74.714059 53.234691 
L 75.686589 71.134366 
L 77.63165 53.427628 
L 80.549241 56.367058 
L 86.384424 57.809552 
L 92.219607 57.718078 
L 95.137198 57.705779 
L 122.368051 55.066809 
L 128.203233 55.042097 
L 158.351677 57.278617 
L 174.884695 59.922675 
L 185.58253 59.20751 
L 193.362773 57.516421 
L 207.95073 51.06014 
L 210.868321 49.078997 
L 214.758443 47.255533 
L 219.621095 43.603119 
L 220.593626 44.554424 
L 223.511217 41.813859 
L 227.401339 40.29764 
L 229.3464 38.818802 
L 241.989296 36.564477 
L 283.808105 41.727778 
L 286.725696 41.456631 
L 289.643288 42.745575 
L 290.615818 41.723856 
L 291.588349 43.120528 
L 292.560879 42.146415 
L 293.53341 43.186808 
L 295.47847 42.273759 
L 299.368592 43.412282 
L 306.176305 43.501255 
L 309.093897 44.287982 
L 310.066427 42.918843 
L 312.011488 43.853177 
L 313.956549 43.932841 
L 316.87414 44.162592 
L 316.87414 44.162592 
" clip-path="url(#pe93b936997)" style="fill: none; stroke: #1f9e89; stroke-width: 1.5; stroke-linecap: round"/>
   </g>
   <g id="line2d_7">
    <path d="M 74.714059 57.112289 
L 75.686589 92.645779 
L 77.63165 57.34459 
L 79.576711 63.001611 
L 81.521772 63.929595 
L 83.466833 64.787917 
L 86.384424 65.669712 
L 90.274546 65.864109 
L 91.247076 66.633717 
L 92.219607 65.808425 
L 94.164668 66.307802 
L 101.944911 65.708644 
L 104.862503 64.136174 
L 106.807564 64.315617 
L 108.752624 63.344302 
L 110.697685 63.614377 
L 112.642746 63.495062 
L 114.587807 62.944286 
L 120.42299 63.291022 
L 123.340581 63.385621 
L 143.763721 64.349049 
L 146.681312 65.304766 
L 160.296738 69.654418 
L 167.104451 72.930147 
L 168.076982 72.586262 
L 169.049512 74.180228 
L 170.022043 73.467706 
L 173.912164 75.345035 
L 178.774817 76.564279 
L 180.719878 76.225816 
L 186.55506 77.611971 
L 188.500121 77.325551 
L 201.143017 76.053657 
L 203.088078 76.085731 
L 204.060608 77.08009 
L 208.923261 73.076301 
L 210.868321 73.270071 
L 213.785913 72.87955 
L 216.703504 70.412488 
L 217.676035 70.986717 
L 219.621095 69.368213 
L 220.593626 71.417218 
L 223.511217 68.920296 
L 227.401339 69.379258 
L 229.3464 68.33242 
L 231.291461 68.687875 
L 233.236522 67.106818 
L 234.209052 68.100615 
L 235.181583 67.121655 
L 237.126644 68.294776 
L 239.071704 67.65988 
L 240.044235 67.811528 
L 241.016765 69.16189 
L 241.989296 68.520272 
L 243.934357 69.231814 
L 244.906887 68.563687 
L 246.851948 70.0204 
L 247.824478 70.011065 
L 249.769539 71.037128 
L 250.74207 70.782319 
L 252.687131 73.087471 
L 253.659661 72.225036 
L 255.604722 73.013162 
L 256.577253 72.787141 
L 258.522313 73.981714 
L 259.494844 73.485803 
L 261.439905 73.903345 
L 262.412435 73.700763 
L 264.357496 75.33999 
L 266.302557 74.746307 
L 269.220148 76.074518 
L 273.11027 77.149364 
L 274.082801 77.400433 
L 275.055331 78.690778 
L 277.000392 77.010892 
L 278.945453 78.099091 
L 287.698227 78.67845 
L 289.643288 80.021469 
L 290.615818 78.249744 
L 291.588349 80.364975 
L 292.560879 79.051601 
L 293.53341 80.573292 
L 295.47847 79.649791 
L 299.368592 79.906388 
L 303.258714 79.096108 
L 308.121366 78.677918 
L 309.093897 79.647086 
L 310.066427 77.544481 
L 311.038958 79.566084 
L 312.984018 79.031078 
L 314.929079 78.737385 
L 316.87414 78.672277 
L 316.87414 78.672277 
" clip-path="url(#pe93b936997)" style="fill: none; stroke: #35b779; stroke-width: 1.5; stroke-linecap: round"/>
   </g>
   <g id="line2d_8">
    <path d="M 74.714059 59.362657 
L 75.686589 113.388035 
L 77.63165 62.965784 
L 79.576711 71.795713 
L 80.549241 70.948887 
L 83.466833 73.718265 
L 87.356955 74.725127 
L 89.302015 74.996756 
L 92.219607 74.890468 
L 94.164668 75.97537 
L 96.109729 76.100386 
L 98.05479 75.49669 
L 99.99985 75.555977 
L 102.917442 74.793583 
L 104.862503 73.685879 
L 106.807564 73.754581 
L 108.752624 72.549399 
L 109.725155 73.580051 
L 113.615277 72.02702 
L 118.477929 72.670856 
L 126.258172 73.054896 
L 128.203233 72.623337 
L 139.873599 73.380673 
L 141.81866 74.693608 
L 143.763721 73.974076 
L 146.681312 75.537724 
L 152.516495 77.05667 
L 154.461555 78.382551 
L 155.434086 77.99524 
L 157.379147 79.489317 
L 161.269269 81.571281 
L 168.076982 84.425107 
L 169.049512 86.881169 
L 170.022043 85.67354 
L 171.967104 87.021798 
L 178.774817 91.013828 
L 180.719878 90.565618 
L 186.55506 94.67083 
L 187.527591 94.075393 
L 190.445182 95.53223 
L 193.362773 96.689187 
L 194.335304 96.853627 
L 195.307834 98.217826 
L 197.252895 98.105785 
L 198.225426 99.272821 
L 200.170487 98.849411 
L 205.033139 102.489539 
L 208.923261 101.168264 
L 210.868321 102.792241 
L 212.813382 104.759213 
L 215.730974 103.605729 
L 216.703504 103.079523 
L 217.676035 104.794456 
L 219.621095 103.921721 
L 221.566156 107.117334 
L 223.511217 105.790155 
L 225.456278 108.238277 
L 228.37387 109.962066 
L 229.3464 110.149167 
L 231.291461 113.185081 
L 233.236522 111.309906 
L 234.209052 113.466831 
L 235.181583 112.873266 
L 237.126644 115.252097 
L 238.099174 114.791697 
L 241.016765 117.854523 
L 241.989296 116.877573 
L 243.934357 118.483828 
L 244.906887 117.91902 
L 246.851948 120.485057 
L 249.769539 122.731096 
L 250.74207 122.640894 
L 252.687131 126.355595 
L 253.659661 124.964351 
L 257.549783 128.490262 
L 259.494844 128.082093 
L 261.439905 129.081026 
L 262.412435 129.11087 
L 265.330027 131.752431 
L 266.302557 131.302502 
L 268.247618 132.617917 
L 270.192679 135.032893 
L 272.13774 137.271847 
L 273.11027 136.311099 
L 274.082801 136.905097 
L 275.055331 139.661559 
L 277.000392 137.215028 
L 278.945453 140.113901 
L 282.835575 140.825928 
L 283.808105 141.031976 
L 284.780635 140.121533 
L 289.643288 145.93796 
L 290.615818 142.850952 
L 291.588349 146.328825 
L 292.560879 144.64834 
L 293.53341 147.406416 
L 294.50594 145.787438 
L 297.423531 148.620839 
L 300.341123 147.152322 
L 301.313653 148.491655 
L 304.231244 146.719301 
L 305.203775 147.473957 
L 307.148836 146.84319 
L 309.093897 148.702009 
L 310.066427 145.282995 
L 311.038958 148.707336 
L 312.011488 147.366071 
L 312.984018 148.689948 
L 314.929079 148.044982 
L 315.90161 148.850781 
L 316.87414 148.201219 
L 316.87414 148.201219 
" clip-path="url(#pe93b936997)" style="fill: none; stroke: #6ece58; stroke-width: 1.5; stroke-linecap: round"/>
   </g>
   <g id="line2d_9">
    <path d="M 74.714059 62.500048 
L 75.686589 135.265246 
L 77.63165 71.309605 
L 79.576711 82.034436 
L 80.549241 80.275055 
L 83.466833 83.682485 
L 91.247076 86.568981 
L 92.219607 85.015562 
L 94.164668 86.798451 
L 101.944911 86.880362 
L 104.862503 84.842083 
L 106.807564 85.050779 
L 108.752624 83.597625 
L 109.725155 84.95557 
L 115.560338 83.327659 
L 121.39552 84.507459 
L 122.368051 83.574447 
L 124.313112 84.275585 
L 131.120825 83.604428 
L 132.093355 85.075022 
L 135.010947 83.913111 
L 136.956007 85.60872 
L 138.901068 85.4958 
L 139.873599 85.130092 
L 141.81866 86.766685 
L 143.763721 85.697035 
L 146.681312 87.435187 
L 149.598903 88.582313 
L 154.461555 91.079942 
L 155.434086 90.720755 
L 157.379147 92.657068 
L 160.296738 94.109278 
L 164.18686 97.561237 
L 165.15939 96.896544 
L 167.104451 99.41393 
L 168.076982 98.524813 
L 169.049512 102.061521 
L 170.022043 100.536775 
L 171.967104 102.223918 
L 178.774817 108.262452 
L 179.747347 107.273662 
L 181.692408 109.162515 
L 182.664938 109.947525 
L 184.609999 113.490899 
L 185.58253 113.630144 
L 186.55506 115.396364 
L 187.527591 115.016099 
L 190.445182 117.181896 
L 191.417713 117.621089 
L 195.307834 122.751801 
L 196.280365 121.979363 
L 197.252895 122.843791 
L 198.225426 125.353778 
L 199.197956 124.540302 
L 202.115547 126.867479 
L 205.033139 131.395999 
L 208.923261 130.231904 
L 211.840852 133.900247 
L 212.813382 135.313612 
L 213.785913 134.065661 
L 214.758443 134.79032 
L 216.703504 132.955342 
L 217.676035 135.628162 
L 219.621095 135.066359 
L 221.566156 138.923454 
L 223.511217 137.126333 
L 225.456278 140.89471 
L 228.37387 144.0857 
L 229.3464 144.009774 
L 231.291461 148.115179 
L 233.236522 145.899152 
L 235.181583 148.144346 
L 237.126644 150.715185 
L 238.099174 150.396054 
L 241.016765 154.350268 
L 241.989296 152.835105 
L 243.934357 155.18206 
L 244.906887 154.772955 
L 246.851948 157.587645 
L 248.797009 160.508631 
L 250.74207 159.668986 
L 252.687131 164.739561 
L 253.659661 162.855837 
L 257.549783 167.364876 
L 259.494844 166.241621 
L 261.439905 166.795654 
L 262.412435 166.60634 
L 265.330027 169.426463 
L 266.302557 168.76242 
L 268.247618 170.88126 
L 270.192679 173.801873 
L 271.165209 177.195274 
L 274.082801 175.772573 
L 275.055331 178.574479 
L 277.000392 175.170121 
L 278.945453 178.274653 
L 281.863044 179.715251 
L 283.808105 177.689703 
L 284.780635 176.840401 
L 289.643288 182.404127 
L 290.615818 178.92334 
L 291.588349 182.972337 
L 292.560879 180.77544 
L 293.53341 184.025753 
L 294.50594 182.030323 
L 296.451001 184.574985 
L 298.396062 183.538979 
L 300.341123 181.448857 
L 301.313653 182.864618 
L 304.231244 179.945284 
L 305.203775 180.629704 
L 307.148836 179.131899 
L 309.093897 180.969936 
L 310.066427 177.082959 
L 311.038958 181.280278 
L 312.011488 179.788225 
L 312.984018 180.653385 
L 313.956549 179.245127 
L 315.90161 180.809956 
L 316.87414 179.76418 
L 316.87414 179.76418 
" clip-path="url(#pe93b936997)" style="fill: none; stroke: #b5de2b; stroke-width: 1.5; stroke-linecap: round"/>
   </g>
   <g id="patch_3">
    <path d="M 62.606055 192.009865 
L 62.606055 28.442513 
" style="fill: none"/>
   </g>
   <g id="patch_4">
    <path d="M 328.982144 192.009865 
L 328.982144 28.442513 
" style="fill: none"/>
   </g>
   <g id="patch_5">
    <path d="M 62.606055 192.009865 
L 328.982144 192.009865 
" style="fill: none"/>
   </g>
   <g id="patch_6">
    <path d="M 62.606055 28.442513 
L 328.982144 28.442513 
" style="fill: none"/>
   </g>
  </g>
  <g id="text_12">
   <!-- train: tensorflow -->
   <g style="fill: #262626" transform="translate(132.265336 18.14175) scale(0.144 -0.144)">
    <defs>
     <path id="DejaVuSans-74" d="M 1172 4494 
L 1172 3500 
L 2356 3500 
L 2356 3053 
L 1172 3053 
L 1172 1153 
Q 1172 725 1289 603 
Q 1406 481 1766 481 
L 2356 481 
L 2356 0 
L 1766 0 
Q 1100 0 847 248 
Q 594 497 594 1153 
L 594 3053 
L 172 3053 
L 172 3500 
L 594 3500 
L 594 4494 
L 1172 4494 
z
" transform="scale(0.015625)"/>
     <path id="DejaVuSans-69" d="M 603 3500 
L 1178 3500 
L 1178 0 
L 603 0 
L 603 3500 
z
M 603 4863 
L 1178 4863 
L 1178 4134 
L 603 4134 
L 603 4863 
z
" transform="scale(0.015625)"/>
     <path id="DejaVuSans-6e" d="M 3513 2113 
L 3513 0 
L 2938 0 
L 2938 2094 
Q 2938 2591 2744 2837 
Q 2550 3084 2163 3084 
Q 1697 3084 1428 2787 
Q 1159 2491 1159 1978 
L 1159 0 
L 581 0 
L 581 3500 
L 1159 3500 
L 1159 2956 
Q 1366 3272 1645 3428 
Q 1925 3584 2291 3584 
Q 2894 3584 3203 3211 
Q 3513 2838 3513 2113 
z
" transform="scale(0.015625)"/>
     <path id="DejaVuSans-3a" d="M 750 794 
L 1409 794 
L 1409 0 
L 750 0 
L 750 794 
z
M 750 3309 
L 1409 3309 
L 1409 2516 
L 750 2516 
L 750 3309 
z
" transform="scale(0.015625)"/>
     <path id="DejaVuSans-20" transform="scale(0.015625)"/>
     <path id="DejaVuSans-65" d="M 3597 1894 
L 3597 1613 
L 953 1613 
Q 991 1019 1311 708 
Q 1631 397 2203 397 
Q 2534 397 2845 478 
Q 3156 559 3463 722 
L 3463 178 
Q 3153 47 2828 -22 
Q 2503 -91 2169 -91 
Q 1331 -91 842 396 
Q 353 884 353 1716 
Q 353 2575 817 3079 
Q 1281 3584 2069 3584 
Q 2775 3584 3186 3129 
Q 3597 2675 3597 1894 
z
M 3022 2063 
Q 3016 2534 2758 2815 
Q 2500 3097 2075 3097 
Q 1594 3097 1305 2825 
Q 1016 2553 972 2059 
L 3022 2063 
z
" transform="scale(0.015625)"/>
     <path id="DejaVuSans-6f" d="M 1959 3097 
Q 1497 3097 1228 2736 
Q 959 2375 959 1747 
Q 959 1119 1226 758 
Q 1494 397 1959 397 
Q 2419 397 2687 759 
Q 2956 1122 2956 1747 
Q 2956 2369 2687 2733 
Q 2419 3097 1959 3097 
z
M 1959 3584 
Q 2709 3584 3137 3096 
Q 3566 2609 3566 1747 
Q 3566 888 3137 398 
Q 2709 -91 1959 -91 
Q 1206 -91 779 398 
Q 353 888 353 1747 
Q 353 2609 779 3096 
Q 1206 3584 1959 3584 
z
" transform="scale(0.015625)"/>
     <path id="DejaVuSans-66" d="M 2375 4863 
L 2375 4384 
L 1825 4384 
Q 1516 4384 1395 4259 
Q 1275 4134 1275 3809 
L 1275 3500 
L 2222 3500 
L 2222 3053 
L 1275 3053 
L 1275 0 
L 697 0 
L 697 3053 
L 147 3053 
L 147 3500 
L 697 3500 
L 697 3744 
Q 697 4328 969 4595 
Q 1241 4863 1831 4863 
L 2375 4863 
z
" transform="scale(0.015625)"/>
    </defs>
    <use xlink:href="#DejaVuSans-74"/>
    <use xlink:href="#DejaVuSans-72" x="39.208984"/>
    <use xlink:href="#DejaVuSans-61" x="80.322266"/>
    <use xlink:href="#DejaVuSans-69" x="141.601562"/>
    <use xlink:href="#DejaVuSans-6e" x="169.384766"/>
    <use xlink:href="#DejaVuSans-3a" x="232.763672"/>
    <use xlink:href="#DejaVuSans-20" x="266.455078"/>
    <use xlink:href="#DejaVuSans-74" x="298.242188"/>
    <use xlink:href="#DejaVuSans-65" x="337.451172"/>
    <use xlink:href="#DejaVuSans-6e" x="398.974609"/>
    <use xlink:href="#DejaVuSans-73" x="462.353516"/>
    <use xlink:href="#DejaVuSans-6f" x="514.453125"/>
    <use xlink:href="#DejaVuSans-72" x="575.634766"/>
    <use xlink:href="#DejaVuSans-66" x="616.748047"/>
    <use xlink:href="#DejaVuSans-6c" x="651.953125"/>
    <use xlink:href="#DejaVuSans-6f" x="679.736328"/>
    <use xlink:href="#DejaVuSans-77" x="740.917969"/>
   </g>
  </g>
 </g>
 <defs>
  <clipPath id="pe93b936997">
   <rect x="62.606055" y="28.442513" width="266.37609" height="163.567352"/>
  </clipPath>
 </defs>
</svg>
