<?xml version="1.0" encoding="utf-8" standalone="no"?>
<!DOCTYPE svg PUBLIC "-//W3C//DTD SVG 1.1//EN"
  "http://www.w3.org/Graphics/SVG/1.1/DTD/svg11.dtd">
<svg xmlns:xlink="http://www.w3.org/1999/xlink" width="223.65pt" height="174.899688pt" viewBox="0 0 223.65 174.899688" xmlns="http://www.w3.org/2000/svg" version="1.1">
 <metadata>
  <rdf:RDF xmlns:dc="http://purl.org/dc/elements/1.1/" xmlns:cc="http://creativecommons.org/ns#" xmlns:rdf="http://www.w3.org/1999/02/22-rdf-syntax-ns#">
   <cc:Work>
    <dc:type rdf:resource="http://purl.org/dc/dcmitype/StillImage"/>
    <dc:date>2023-12-05T12:10:02.694502</dc:date>
    <dc:format>image/svg+xml</dc:format>
    <dc:creator>
     <cc:Agent>
      <dc:title>Matplotlib v3.8.2, https://matplotlib.org/</dc:title>
     </cc:Agent>
    </dc:creator>
   </cc:Work>
  </rdf:RDF>
 </metadata>
 <defs>
  <style type="text/css">*{stroke-linejoin: round; stroke-linecap: butt}</style>
 </defs>
 <g id="figure_1">
  <g id="patch_1">
   <path d="M 0 174.899688 
L 223.65 174.899688 
L 223.65 0 
L 0 0 
L 0 174.899688 
z
" style="fill: none"/>
  </g>
  <g id="axes_1">
   <g id="patch_2">
    <path d="M 7.2 48.78 
L 216.45 48.78 
L 216.45 7.2 
L 7.2 7.2 
L 7.2 48.78 
z
" style="fill: none"/>
   </g>
   <g id="matplotlib.axis_1">
    <g id="xtick_1"/>
    <g id="xtick_2"/>
    <g id="xtick_3"/>
   </g>
   <g id="matplotlib.axis_2"/>
   <g id="line2d_1">
    <path d="M 7.2 48.78 
L 216.45 48.78 
" style="fill: none; stroke: #414487; stroke-opacity: 0.9; stroke-linecap: round"/>
   </g>
   <g id="text_1">
    <!-- 0 -->
    <g style="fill: #414487" transform="translate(7.2 47.93325) scale(0.12 -0.12)">
     <defs>
      <path id="DejaVuSans-Bold-30" d="M 2944 2338 
Q 2944 3213 2780 3570 
Q 2616 3928 2228 3928 
Q 1841 3928 1675 3570 
Q 1509 3213 1509 2338 
Q 1509 1453 1675 1090 
Q 1841 728 2228 728 
Q 2613 728 2778 1090 
Q 2944 1453 2944 2338 
z
M 4147 2328 
Q 4147 1169 3647 539 
Q 3147 -91 2228 -91 
Q 1306 -91 806 539 
Q 306 1169 306 2328 
Q 306 3491 806 4120 
Q 1306 4750 2228 4750 
Q 3147 4750 3647 4120 
Q 4147 3491 4147 2328 
z
" transform="scale(0.015625)"/>
     </defs>
     <use xlink:href="#DejaVuSans-Bold-30"/>
    </g>
   </g>
  </g>
  <g id="axes_2">
   <g id="patch_3">
    <path d="M 7.2 59.175 
L 216.45 59.175 
L 216.45 17.595 
L 7.2 17.595 
L 7.2 59.175 
z
" style="fill: none"/>
   </g>
   <g id="matplotlib.axis_3">
    <g id="xtick_4"/>
    <g id="xtick_5"/>
    <g id="xtick_6"/>
   </g>
   <g id="matplotlib.axis_4"/>
   <g id="PolyCollection_1">
    <defs>
     <path id="m94aa66b9fc" d="M 63.190576 -115.752222 
L 63.190576 -115.724688 
L 63.23074 -115.724688 
L 63.270904 -115.724688 
L 63.311069 -115.724688 
L 63.351233 -115.724688 
L 63.391398 -115.724688 
L 63.431562 -115.724688 
L 63.471726 -115.724688 
L 63.511891 -115.724688 
L 63.552055 -115.724688 
L 63.592219 -115.724688 
L 63.632384 -115.724688 
L 63.672548 -115.724688 
L 63.712713 -115.724688 
L 63.752877 -115.724688 
L 63.793041 -115.724688 
L 63.833206 -115.724688 
L 63.87337 -115.724688 
L 63.913534 -115.724688 
L 63.953699 -115.724688 
L 63.993863 -115.724688 
L 64.034028 -115.724688 
L 64.074192 -115.724688 
L 64.114356 -115.724688 
L 64.154521 -115.724688 
L 64.194685 -115.724688 
L 64.234849 -115.724688 
L 64.275014 -115.724688 
L 64.315178 -115.724688 
L 64.355343 -115.724688 
L 64.395507 -115.724688 
L 64.435671 -115.724688 
L 64.475836 -115.724688 
L 64.516 -115.724688 
L 64.556164 -115.724688 
L 64.596329 -115.724688 
L 64.636493 -115.724688 
L 64.676658 -115.724688 
L 64.716822 -115.724688 
L 64.756986 -115.724688 
L 64.797151 -115.724688 
L 64.837315 -115.724688 
L 64.877479 -115.724688 
L 64.917644 -115.724688 
L 64.957808 -115.724688 
L 64.997973 -115.724688 
L 65.038137 -115.724688 
L 65.078301 -115.724688 
L 65.118466 -115.724688 
L 65.15863 -115.724688 
L 65.198794 -115.724688 
L 65.238959 -115.724688 
L 65.279123 -115.724688 
L 65.319288 -115.724688 
L 65.359452 -115.724688 
L 65.399616 -115.724688 
L 65.439781 -115.724688 
L 65.479945 -115.724688 
L 65.520109 -115.724688 
L 65.560274 -115.724688 
L 65.600438 -115.724688 
L 65.640603 -115.724688 
L 65.680767 -115.724688 
L 65.720931 -115.724688 
L 65.761096 -115.724688 
L 65.80126 -115.724688 
L 65.841424 -115.724688 
L 65.881589 -115.724688 
L 65.921753 -115.724688 
L 65.961918 -115.724688 
L 66.002082 -115.724688 
L 66.042246 -115.724688 
L 66.082411 -115.724688 
L 66.122575 -115.724688 
L 66.162739 -115.724688 
L 66.202904 -115.724688 
L 66.243068 -115.724688 
L 66.283233 -115.724688 
L 66.323397 -115.724688 
L 66.363561 -115.724688 
L 66.403726 -115.724688 
L 66.44389 -115.724688 
L 66.484054 -115.724688 
L 66.524219 -115.724688 
L 66.564383 -115.724688 
L 66.604548 -115.724688 
L 66.644712 -115.724688 
L 66.684876 -115.724688 
L 66.725041 -115.724688 
L 66.765205 -115.724688 
L 66.805369 -115.724688 
L 66.845534 -115.724688 
L 66.885698 -115.724688 
L 66.925863 -115.724688 
L 66.966027 -115.724688 
L 67.006191 -115.724688 
L 67.046356 -115.724688 
L 67.08652 -115.724688 
L 67.126684 -115.724688 
L 67.166849 -115.724688 
L 67.207013 -115.724688 
L 67.247178 -115.724688 
L 67.287342 -115.724688 
L 67.327506 -115.724688 
L 67.367671 -115.724688 
L 67.407835 -115.724688 
L 67.447999 -115.724688 
L 67.488164 -115.724688 
L 67.528328 -115.724688 
L 67.568493 -115.724688 
L 67.608657 -115.724688 
L 67.648821 -115.724688 
L 67.688986 -115.724688 
L 67.72915 -115.724688 
L 67.769314 -115.724688 
L 67.809479 -115.724688 
L 67.849643 -115.724688 
L 67.889808 -115.724688 
L 67.929972 -115.724688 
L 67.970136 -115.724688 
L 68.010301 -115.724688 
L 68.050465 -115.724688 
L 68.090629 -115.724688 
L 68.130794 -115.724688 
L 68.170958 -115.724688 
L 68.211123 -115.724688 
L 68.251287 -115.724688 
L 68.291451 -115.724688 
L 68.331616 -115.724688 
L 68.37178 -115.724688 
L 68.411944 -115.724688 
L 68.452109 -115.724688 
L 68.492273 -115.724688 
L 68.532438 -115.724688 
L 68.572602 -115.724688 
L 68.612766 -115.724688 
L 68.652931 -115.724688 
L 68.693095 -115.724688 
L 68.733259 -115.724688 
L 68.773424 -115.724688 
L 68.813588 -115.724688 
L 68.853753 -115.724688 
L 68.893917 -115.724688 
L 68.934081 -115.724688 
L 68.974246 -115.724688 
L 69.01441 -115.724688 
L 69.054574 -115.724688 
L 69.094739 -115.724688 
L 69.134903 -115.724688 
L 69.175068 -115.724688 
L 69.215232 -115.724688 
L 69.255396 -115.724688 
L 69.295561 -115.724688 
L 69.335725 -115.724688 
L 69.375889 -115.724688 
L 69.416054 -115.724688 
L 69.456218 -115.724688 
L 69.496383 -115.724688 
L 69.536547 -115.724688 
L 69.576711 -115.724688 
L 69.616876 -115.724688 
L 69.65704 -115.724688 
L 69.697204 -115.724688 
L 69.737369 -115.724688 
L 69.777533 -115.724688 
L 69.817697 -115.724688 
L 69.857862 -115.724688 
L 69.898026 -115.724688 
L 69.938191 -115.724688 
L 69.978355 -115.724688 
L 70.018519 -115.724688 
L 70.058684 -115.724688 
L 70.098848 -115.724688 
L 70.139012 -115.724688 
L 70.179177 -115.724688 
L 70.219341 -115.724688 
L 70.259506 -115.724688 
L 70.29967 -115.724688 
L 70.339834 -115.724688 
L 70.379999 -115.724688 
L 70.420163 -115.724688 
L 70.460327 -115.724688 
L 70.500492 -115.724688 
L 70.540656 -115.724688 
L 70.580821 -115.724688 
L 70.620985 -115.724688 
L 70.661149 -115.724688 
L 70.701314 -115.724688 
L 70.741478 -115.724688 
L 70.781642 -115.724688 
L 70.821807 -115.724688 
L 70.861971 -115.724688 
L 70.902136 -115.724688 
L 70.9423 -115.724688 
L 70.982464 -115.724688 
L 71.022629 -115.724688 
L 71.062793 -115.724688 
L 71.102957 -115.724688 
L 71.143122 -115.724688 
L 71.183286 -115.724688 
L 71.183286 -115.820787 
L 71.183286 -115.820787 
L 71.143122 -115.851081 
L 71.102957 -115.885719 
L 71.062793 -115.92394 
L 71.022629 -115.964891 
L 70.982464 -116.007851 
L 70.9423 -116.052431 
L 70.902136 -116.098681 
L 70.861971 -116.147034 
L 70.821807 -116.19811 
L 70.781642 -116.252437 
L 70.741478 -116.310202 
L 70.701314 -116.371143 
L 70.661149 -116.434673 
L 70.620985 -116.500198 
L 70.580821 -116.567564 
L 70.540656 -116.63746 
L 70.500492 -116.711624 
L 70.460327 -116.792746 
L 70.420163 -116.88407 
L 70.379999 -116.988786 
L 70.339834 -117.109379 
L 70.29967 -117.247124 
L 70.259506 -117.401863 
L 70.219341 -117.572138 
L 70.179177 -117.755643 
L 70.139012 -117.949897 
L 70.098848 -118.152996 
L 70.058684 -118.364248 
L 70.018519 -118.584565 
L 69.978355 -118.816477 
L 69.938191 -119.063736 
L 69.898026 -119.330556 
L 69.857862 -119.620629 
L 69.817697 -119.936138 
L 69.777533 -120.277028 
L 69.737369 -120.640754 
L 69.697204 -121.022618 
L 69.65704 -121.416664 
L 69.616876 -121.816911 
L 69.576711 -122.218634 
L 69.536547 -122.619338 
L 69.496383 -123.019194 
L 69.456218 -123.420856 
L 69.416054 -123.82876 
L 69.375889 -124.248159 
L 69.335725 -124.684209 
L 69.295561 -125.141334 
L 69.255396 -125.622998 
L 69.215232 -126.131807 
L 69.175068 -126.669748 
L 69.134903 -127.238335 
L 69.094739 -127.838512 
L 69.054574 -128.470289 
L 69.01441 -129.132315 
L 68.974246 -129.821638 
L 68.934081 -130.533916 
L 68.893917 -131.264179 
L 68.853753 -132.007987 
L 68.813588 -132.762615 
L 68.773424 -133.527808 
L 68.733259 -134.305728 
L 68.693095 -135.09998 
L 68.652931 -135.913957 
L 68.612766 -136.749002 
L 68.572602 -137.603002 
L 68.532438 -138.469878 
L 68.492273 -139.340172 
L 68.452109 -140.202567 
L 68.411944 -141.045915 
L 68.37178 -141.86127 
L 68.331616 -142.643449 
L 68.291451 -143.39182 
L 68.251287 -144.110193 
L 68.211123 -144.805843 
L 68.170958 -145.487826 
L 68.130794 -146.164894 
L 68.090629 -146.843423 
L 68.050465 -147.525812 
L 68.010301 -148.209798 
L 67.970136 -148.888898 
L 67.929972 -149.553886 
L 67.889808 -150.194887 
L 67.849643 -150.803478 
L 67.809479 -151.374192 
L 67.769314 -151.905059 
L 67.72915 -152.397147 
L 67.688986 -152.853384 
L 67.648821 -153.277095 
L 67.608657 -153.670665 
L 67.568493 -154.03459 
L 67.528328 -154.366966 
L 67.488164 -154.66335 
L 67.447999 -154.916876 
L 67.407835 -155.118607 
L 67.367671 -155.258153 
L 67.327506 -155.324688 
L 67.287342 -155.308372 
L 67.247178 -155.202099 
L 67.207013 -155.003223 
L 67.166849 -154.714816 
L 67.126684 -154.345994 
L 67.08652 -153.911 
L 67.046356 -153.42705 
L 67.006191 -152.911305 
L 66.966027 -152.377593 
L 66.925863 -151.833636 
L 66.885698 -151.279462 
L 66.845534 -150.707418 
L 66.805369 -150.103856 
L 66.765205 -149.45215 
L 66.725041 -148.73642 
L 66.684876 -147.945153 
L 66.644712 -147.073933 
L 66.604548 -146.126724 
L 66.564383 -145.115475 
L 66.524219 -144.05825 
L 66.484054 -142.97639 
L 66.44389 -141.891435 
L 66.403726 -140.822481 
L 66.363561 -139.784468 
L 66.323397 -138.787549 
L 66.283233 -137.837403 
L 66.243068 -136.936107 
L 66.202904 -136.083132 
L 66.162739 -135.276129 
L 66.122575 -134.511351 
L 66.082411 -133.783775 
L 66.042246 -133.087127 
L 66.002082 -132.414035 
L 65.961918 -131.756481 
L 65.921753 -131.106584 
L 65.881589 -130.457607 
L 65.841424 -129.805006 
L 65.80126 -129.147292 
L 65.761096 -128.486505 
L 65.720931 -127.828143 
L 65.680767 -127.180497 
L 65.640603 -126.553441 
L 65.600438 -125.956841 
L 65.560274 -125.398858 
L 65.520109 -124.884497 
L 65.479945 -124.414724 
L 65.439781 -123.986366 
L 65.399616 -123.592839 
L 65.359452 -123.225539 
L 65.319288 -122.875527 
L 65.279123 -122.535112 
L 65.238959 -122.19893 
L 65.198794 -121.864311 
L 65.15863 -121.530926 
L 65.118466 -121.19993 
L 65.078301 -120.87295 
L 65.038137 -120.551269 
L 64.997973 -120.235468 
L 64.957808 -119.925574 
L 64.917644 -119.621581 
L 64.877479 -119.324076 
L 64.837315 -119.034688 
L 64.797151 -118.756151 
L 64.756986 -118.491968 
L 64.716822 -118.245762 
L 64.676658 -118.020552 
L 64.636493 -117.818164 
L 64.596329 -117.638923 
L 64.556164 -117.481687 
L 64.516 -117.344151 
L 64.475836 -117.223303 
L 64.435671 -117.11591 
L 64.395507 -117.018902 
L 64.355343 -116.929618 
L 64.315178 -116.845909 
L 64.275014 -116.766116 
L 64.234849 -116.689003 
L 64.194685 -116.613682 
L 64.154521 -116.539576 
L 64.114356 -116.46642 
L 64.074192 -116.394304 
L 64.034028 -116.323705 
L 63.993863 -116.255474 
L 63.953699 -116.190755 
L 63.913534 -116.130805 
L 63.87337 -116.07678 
L 63.833206 -116.029494 
L 63.793041 -115.989253 
L 63.752877 -115.955787 
L 63.712713 -115.928319 
L 63.672548 -115.905728 
L 63.632384 -115.886767 
L 63.592219 -115.870281 
L 63.552055 -115.855346 
L 63.511891 -115.841337 
L 63.471726 -115.827917 
L 63.431562 -115.814968 
L 63.391398 -115.80252 
L 63.351233 -115.790681 
L 63.311069 -115.779593 
L 63.270904 -115.769403 
L 63.23074 -115.760244 
L 63.190576 -115.752222 
z
" style="stroke: #2a788e; stroke-width: 1.25"/>
    </defs>
    <g>
     <use xlink:href="#m94aa66b9fc" x="0" y="174.899688" style="fill: #2a788e; fill-opacity: 0.7; stroke: #2a788e; stroke-width: 1.25"/>
    </g>
   </g>
   <g id="line2d_2">
    <path d="M 7.2 59.175 
L 216.45 59.175 
" style="fill: none; stroke: #2a788e; stroke-opacity: 0.9; stroke-linecap: round"/>
   </g>
   <g id="text_2">
    <!-- 1 -->
    <g style="fill: #2a788e" transform="translate(7.2 58.32825) scale(0.12 -0.12)">
     <defs>
      <path id="DejaVuSans-Bold-31" d="M 750 831 
L 1813 831 
L 1813 3847 
L 722 3622 
L 722 4441 
L 1806 4666 
L 2950 4666 
L 2950 831 
L 4013 831 
L 4013 0 
L 750 0 
L 750 831 
z
" transform="scale(0.015625)"/>
     </defs>
     <use xlink:href="#DejaVuSans-Bold-31"/>
    </g>
   </g>
  </g>
  <g id="axes_3">
   <g id="patch_4">
    <path d="M 7.2 69.57 
L 216.45 69.57 
L 216.45 27.99 
L 7.2 27.99 
L 7.2 69.57 
z
" style="fill: none"/>
   </g>
   <g id="matplotlib.axis_5">
    <g id="xtick_7"/>
    <g id="xtick_8"/>
    <g id="xtick_9"/>
   </g>
   <g id="matplotlib.axis_6"/>
   <g id="PolyCollection_2">
    <defs>
     <path id="me06522ae04" d="M 145.865804 -105.341988 
L 145.865804 -105.329688 
L 145.948544 -105.329688 
L 146.031283 -105.329688 
L 146.114023 -105.329688 
L 146.196763 -105.329688 
L 146.279503 -105.329688 
L 146.362243 -105.329688 
L 146.444983 -105.329688 
L 146.527722 -105.329688 
L 146.610462 -105.329688 
L 146.693202 -105.329688 
L 146.775942 -105.329688 
L 146.858682 -105.329688 
L 146.941421 -105.329688 
L 147.024161 -105.329688 
L 147.106901 -105.329688 
L 147.189641 -105.329688 
L 147.272381 -105.329688 
L 147.35512 -105.329688 
L 147.43786 -105.329688 
L 147.5206 -105.329688 
L 147.60334 -105.329688 
L 147.68608 -105.329688 
L 147.76882 -105.329688 
L 147.851559 -105.329688 
L 147.934299 -105.329688 
L 148.017039 -105.329688 
L 148.099779 -105.329688 
L 148.182519 -105.329688 
L 148.265258 -105.329688 
L 148.347998 -105.329688 
L 148.430738 -105.329688 
L 148.513478 -105.329688 
L 148.596218 -105.329688 
L 148.678957 -105.329688 
L 148.761697 -105.329688 
L 148.844437 -105.329688 
L 148.927177 -105.329688 
L 149.009917 -105.329688 
L 149.092657 -105.329688 
L 149.175396 -105.329688 
L 149.258136 -105.329688 
L 149.340876 -105.329688 
L 149.423616 -105.329688 
L 149.506356 -105.329688 
L 149.589095 -105.329688 
L 149.671835 -105.329688 
L 149.754575 -105.329688 
L 149.837315 -105.329688 
L 149.920055 -105.329688 
L 150.002794 -105.329688 
L 150.085534 -105.329688 
L 150.168274 -105.329688 
L 150.251014 -105.329688 
L 150.333754 -105.329688 
L 150.416494 -105.329688 
L 150.499233 -105.329688 
L 150.581973 -105.329688 
L 150.664713 -105.329688 
L 150.747453 -105.329688 
L 150.830193 -105.329688 
L 150.912932 -105.329688 
L 150.995672 -105.329688 
L 151.078412 -105.329688 
L 151.161152 -105.329688 
L 151.243892 -105.329688 
L 151.326631 -105.329688 
L 151.409371 -105.329688 
L 151.492111 -105.329688 
L 151.574851 -105.329688 
L 151.657591 -105.329688 
L 151.740331 -105.329688 
L 151.82307 -105.329688 
L 151.90581 -105.329688 
L 151.98855 -105.329688 
L 152.07129 -105.329688 
L 152.15403 -105.329688 
L 152.236769 -105.329688 
L 152.319509 -105.329688 
L 152.402249 -105.329688 
L 152.484989 -105.329688 
L 152.567729 -105.329688 
L 152.650468 -105.329688 
L 152.733208 -105.329688 
L 152.815948 -105.329688 
L 152.898688 -105.329688 
L 152.981428 -105.329688 
L 153.064168 -105.329688 
L 153.146907 -105.329688 
L 153.229647 -105.329688 
L 153.312387 -105.329688 
L 153.395127 -105.329688 
L 153.477867 -105.329688 
L 153.560606 -105.329688 
L 153.643346 -105.329688 
L 153.726086 -105.329688 
L 153.808826 -105.329688 
L 153.891566 -105.329688 
L 153.974305 -105.329688 
L 154.057045 -105.329688 
L 154.139785 -105.329688 
L 154.222525 -105.329688 
L 154.305265 -105.329688 
L 154.388005 -105.329688 
L 154.470744 -105.329688 
L 154.553484 -105.329688 
L 154.636224 -105.329688 
L 154.718964 -105.329688 
L 154.801704 -105.329688 
L 154.884443 -105.329688 
L 154.967183 -105.329688 
L 155.049923 -105.329688 
L 155.132663 -105.329688 
L 155.215403 -105.329688 
L 155.298142 -105.329688 
L 155.380882 -105.329688 
L 155.463622 -105.329688 
L 155.546362 -105.329688 
L 155.629102 -105.329688 
L 155.711842 -105.329688 
L 155.794581 -105.329688 
L 155.877321 -105.329688 
L 155.960061 -105.329688 
L 156.042801 -105.329688 
L 156.125541 -105.329688 
L 156.20828 -105.329688 
L 156.29102 -105.329688 
L 156.37376 -105.329688 
L 156.4565 -105.329688 
L 156.53924 -105.329688 
L 156.621979 -105.329688 
L 156.704719 -105.329688 
L 156.787459 -105.329688 
L 156.870199 -105.329688 
L 156.952939 -105.329688 
L 157.035679 -105.329688 
L 157.118418 -105.329688 
L 157.201158 -105.329688 
L 157.283898 -105.329688 
L 157.366638 -105.329688 
L 157.449378 -105.329688 
L 157.532117 -105.329688 
L 157.614857 -105.329688 
L 157.697597 -105.329688 
L 157.780337 -105.329688 
L 157.863077 -105.329688 
L 157.945816 -105.329688 
L 158.028556 -105.329688 
L 158.111296 -105.329688 
L 158.194036 -105.329688 
L 158.276776 -105.329688 
L 158.359516 -105.329688 
L 158.442255 -105.329688 
L 158.524995 -105.329688 
L 158.607735 -105.329688 
L 158.690475 -105.329688 
L 158.773215 -105.329688 
L 158.855954 -105.329688 
L 158.938694 -105.329688 
L 159.021434 -105.329688 
L 159.104174 -105.329688 
L 159.186914 -105.329688 
L 159.269653 -105.329688 
L 159.352393 -105.329688 
L 159.435133 -105.329688 
L 159.517873 -105.329688 
L 159.600613 -105.329688 
L 159.683352 -105.329688 
L 159.766092 -105.329688 
L 159.848832 -105.329688 
L 159.931572 -105.329688 
L 160.014312 -105.329688 
L 160.097052 -105.329688 
L 160.179791 -105.329688 
L 160.262531 -105.329688 
L 160.345271 -105.329688 
L 160.428011 -105.329688 
L 160.510751 -105.329688 
L 160.59349 -105.329688 
L 160.67623 -105.329688 
L 160.75897 -105.329688 
L 160.84171 -105.329688 
L 160.92445 -105.329688 
L 161.007189 -105.329688 
L 161.089929 -105.329688 
L 161.172669 -105.329688 
L 161.255409 -105.329688 
L 161.338149 -105.329688 
L 161.420889 -105.329688 
L 161.503628 -105.329688 
L 161.586368 -105.329688 
L 161.669108 -105.329688 
L 161.751848 -105.329688 
L 161.834588 -105.329688 
L 161.917327 -105.329688 
L 162.000067 -105.329688 
L 162.082807 -105.329688 
L 162.165547 -105.329688 
L 162.248287 -105.329688 
L 162.331026 -105.329688 
L 162.331026 -105.377921 
L 162.331026 -105.377921 
L 162.248287 -105.394352 
L 162.165547 -105.41219 
L 162.082807 -105.430218 
L 162.000067 -105.447225 
L 161.917327 -105.462303 
L 161.834588 -105.475066 
L 161.751848 -105.485717 
L 161.669108 -105.494947 
L 161.586368 -105.503775 
L 161.503628 -105.513391 
L 161.420889 -105.525077 
L 161.338149 -105.540176 
L 161.255409 -105.56005 
L 161.172669 -105.585935 
L 161.089929 -105.618725 
L 161.007189 -105.658726 
L 160.92445 -105.705511 
L 160.84171 -105.757931 
L 160.75897 -105.81431 
L 160.67623 -105.872742 
L 160.59349 -105.931402 
L 160.510751 -105.988804 
L 160.428011 -106.044003 
L 160.345271 -106.096729 
L 160.262531 -106.147495 
L 160.179791 -106.197614 
L 160.097052 -106.249088 
L 160.014312 -106.304338 
L 159.931572 -106.365806 
L 159.848832 -106.435547 
L 159.766092 -106.514971 
L 159.683352 -106.604788 
L 159.600613 -106.705166 
L 159.517873 -106.815965 
L 159.435133 -106.9369 
L 159.352393 -107.067586 
L 159.269653 -107.207507 
L 159.186914 -107.356037 
L 159.104174 -107.512666 
L 159.021434 -107.677391 
L 158.938694 -107.851123 
L 158.855954 -108.035815 
L 158.773215 -108.234111 
L 158.690475 -108.448487 
L 158.607735 -108.680211 
L 158.524995 -108.928588 
L 158.442255 -109.190999 
L 158.359516 -109.463881 
L 158.276776 -109.744408 
L 158.194036 -110.032143 
L 158.111296 -110.329876 
L 158.028556 -110.643103 
L 157.945816 -110.978197 
L 157.863077 -111.339956 
L 157.780337 -111.729553 
L 157.697597 -112.143774 
L 157.614857 -112.575897 
L 157.532117 -113.017834 
L 157.449378 -113.462643 
L 157.366638 -113.9064 
L 157.283898 -114.348769 
L 157.201158 -114.792195 
L 157.118418 -115.240222 
L 157.035679 -115.695782 
L 156.952939 -116.160263 
L 156.870199 -116.633802 
L 156.787459 -117.1167 
L 156.704719 -117.611253 
L 156.621979 -118.123001 
L 156.53924 -118.660409 
L 156.4565 -119.232555 
L 156.37376 -119.845257 
L 156.29102 -120.496936 
L 156.20828 -121.176054 
L 156.125541 -121.861706 
L 156.042801 -122.527955 
L 155.960061 -123.150927 
L 155.877321 -123.716291 
L 155.794581 -124.224141 
L 155.711842 -124.68899 
L 155.629102 -125.134413 
L 155.546362 -125.584066 
L 155.463622 -126.052477 
L 155.380882 -126.539133 
L 155.298142 -127.028104 
L 155.215403 -127.49317 
L 155.132663 -127.906247 
L 155.049923 -128.245733 
L 154.967183 -128.501716 
L 154.884443 -128.676409 
L 154.801704 -128.780195 
L 154.718964 -128.825334 
L 154.636224 -128.820085 
L 154.553484 -128.765605 
L 154.470744 -128.656618 
L 154.388005 -128.485196 
L 154.305265 -128.245732 
L 154.222525 -127.938802 
L 154.139785 -127.572302 
L 154.057045 -127.159532 
L 153.974305 -126.715233 
L 153.891566 -126.251314 
L 153.808826 -125.773951 
L 153.726086 -125.282985 
L 153.643346 -124.773595 
L 153.560606 -124.23943 
L 153.477867 -123.676028 
L 153.395127 -123.083389 
L 153.312387 -122.466952 
L 153.229647 -121.836759 
L 153.146907 -121.205123 
L 153.064168 -120.583546 
L 152.981428 -119.979853 
L 152.898688 -119.396381 
L 152.815948 -118.829732 
L 152.733208 -118.2721 
L 152.650468 -117.713746 
L 152.567729 -117.145915 
L 152.484989 -116.563472 
L 152.402249 -115.966614 
L 152.319509 -115.361268 
L 152.236769 -114.758044 
L 152.15403 -114.16997 
L 152.07129 -113.609531 
L 151.98855 -113.085815 
L 151.90581 -112.602552 
L 151.82307 -112.157647 
L 151.740331 -111.744303 
L 151.657591 -111.353311 
L 151.574851 -110.97571 
L 151.492111 -110.60495 
L 151.409371 -110.237962 
L 151.326631 -109.875027 
L 151.243892 -109.518773 
L 151.161152 -109.172842 
L 151.078412 -108.840757 
L 150.995672 -108.525214 
L 150.912932 -108.227829 
L 150.830193 -107.94918 
L 150.747453 -107.688983 
L 150.664713 -107.446349 
L 150.581973 -107.220121 
L 150.499233 -107.00929 
L 150.416494 -106.813421 
L 150.333754 -106.632937 
L 150.251014 -106.469108 
L 150.168274 -106.323684 
L 150.085534 -106.198232 
L 150.002794 -106.093393 
L 149.920055 -106.008311 
L 149.837315 -105.940435 
L 149.754575 -105.885776 
L 149.671835 -105.839575 
L 149.589095 -105.797197 
L 149.506356 -105.755007 
L 149.423616 -105.710981 
L 149.340876 -105.664876 
L 149.258136 -105.617927 
L 149.175396 -105.57219 
L 149.092657 -105.529783 
L 149.009917 -105.49226 
L 148.927177 -105.460312 
L 148.844437 -105.433807 
L 148.761697 -105.412066 
L 148.678957 -105.394216 
L 148.596218 -105.379467 
L 148.513478 -105.367252 
L 148.430738 -105.357223 
L 148.347998 -105.349169 
L 148.265258 -105.34292 
L 148.182519 -105.338281 
L 148.099779 -105.335005 
L 148.017039 -105.332815 
L 147.934299 -105.331433 
L 147.851559 -105.33061 
L 147.76882 -105.330149 
L 147.68608 -105.329907 
L 147.60334 -105.329788 
L 147.5206 -105.329737 
L 147.43786 -105.329725 
L 147.35512 -105.329745 
L 147.272381 -105.329807 
L 147.189641 -105.329941 
L 147.106901 -105.330198 
L 147.024161 -105.330656 
L 146.941421 -105.331417 
L 146.858682 -105.332593 
L 146.775942 -105.334279 
L 146.693202 -105.33651 
L 146.610462 -105.339224 
L 146.527722 -105.342223 
L 146.444983 -105.345187 
L 146.362243 -105.347711 
L 146.279503 -105.349401 
L 146.196763 -105.349966 
L 146.114023 -105.349307 
L 146.031283 -105.347541 
L 145.948544 -105.344968 
L 145.865804 -105.341988 
z
" style="stroke: #22a884; stroke-width: 1.25"/>
    </defs>
    <g>
     <use xlink:href="#me06522ae04" x="0" y="174.899688" style="fill: #22a884; fill-opacity: 0.7; stroke: #22a884; stroke-width: 1.25"/>
    </g>
   </g>
   <g id="line2d_3">
    <path d="M 7.2 69.57 
L 216.45 69.57 
" style="fill: none; stroke: #22a884; stroke-opacity: 0.9; stroke-linecap: round"/>
   </g>
   <g id="text_3">
    <!-- 2 -->
    <g style="fill: #22a884" transform="translate(7.2 68.72325) scale(0.12 -0.12)">
     <defs>
      <path id="DejaVuSans-Bold-32" d="M 1844 884 
L 3897 884 
L 3897 0 
L 506 0 
L 506 884 
L 2209 2388 
Q 2438 2594 2547 2791 
Q 2656 2988 2656 3200 
Q 2656 3528 2436 3728 
Q 2216 3928 1850 3928 
Q 1569 3928 1234 3808 
Q 900 3688 519 3450 
L 519 4475 
Q 925 4609 1322 4679 
Q 1719 4750 2100 4750 
Q 2938 4750 3402 4381 
Q 3866 4013 3866 3353 
Q 3866 2972 3669 2642 
Q 3472 2313 2841 1759 
L 1844 884 
z
" transform="scale(0.015625)"/>
     </defs>
     <use xlink:href="#DejaVuSans-Bold-32"/>
    </g>
   </g>
  </g>
  <g id="axes_4">
   <g id="patch_5">
    <path d="M 7.2 79.965 
L 216.45 79.965 
L 216.45 38.385 
L 7.2 38.385 
L 7.2 79.965 
z
" style="fill: none"/>
   </g>
   <g id="matplotlib.axis_7">
    <g id="xtick_10"/>
    <g id="xtick_11"/>
    <g id="xtick_12"/>
   </g>
   <g id="matplotlib.axis_8"/>
   <g id="PolyCollection_3">
    <defs>
     <path id="mdb21d1f42e" d="M 189.085659 -94.953387 
L 189.085659 -94.934688 
L 189.175373 -94.934688 
L 189.265086 -94.934688 
L 189.3548 -94.934688 
L 189.444513 -94.934688 
L 189.534227 -94.934688 
L 189.62394 -94.934688 
L 189.713654 -94.934688 
L 189.803367 -94.934688 
L 189.89308 -94.934688 
L 189.982794 -94.934688 
L 190.072507 -94.934688 
L 190.162221 -94.934688 
L 190.251934 -94.934688 
L 190.341648 -94.934688 
L 190.431361 -94.934688 
L 190.521075 -94.934688 
L 190.610788 -94.934688 
L 190.700502 -94.934688 
L 190.790215 -94.934688 
L 190.879928 -94.934688 
L 190.969642 -94.934688 
L 191.059355 -94.934688 
L 191.149069 -94.934688 
L 191.238782 -94.934688 
L 191.328496 -94.934688 
L 191.418209 -94.934688 
L 191.507923 -94.934688 
L 191.597636 -94.934688 
L 191.687349 -94.934688 
L 191.777063 -94.934688 
L 191.866776 -94.934688 
L 191.95649 -94.934688 
L 192.046203 -94.934688 
L 192.135917 -94.934688 
L 192.22563 -94.934688 
L 192.315344 -94.934688 
L 192.405057 -94.934688 
L 192.494771 -94.934688 
L 192.584484 -94.934688 
L 192.674197 -94.934688 
L 192.763911 -94.934688 
L 192.853624 -94.934688 
L 192.943338 -94.934688 
L 193.033051 -94.934688 
L 193.122765 -94.934688 
L 193.212478 -94.934688 
L 193.302192 -94.934688 
L 193.391905 -94.934688 
L 193.481619 -94.934688 
L 193.571332 -94.934688 
L 193.661045 -94.934688 
L 193.750759 -94.934688 
L 193.840472 -94.934688 
L 193.930186 -94.934688 
L 194.019899 -94.934688 
L 194.109613 -94.934688 
L 194.199326 -94.934688 
L 194.28904 -94.934688 
L 194.378753 -94.934688 
L 194.468467 -94.934688 
L 194.55818 -94.934688 
L 194.647893 -94.934688 
L 194.737607 -94.934688 
L 194.82732 -94.934688 
L 194.917034 -94.934688 
L 195.006747 -94.934688 
L 195.096461 -94.934688 
L 195.186174 -94.934688 
L 195.275888 -94.934688 
L 195.365601 -94.934688 
L 195.455314 -94.934688 
L 195.545028 -94.934688 
L 195.634741 -94.934688 
L 195.724455 -94.934688 
L 195.814168 -94.934688 
L 195.903882 -94.934688 
L 195.993595 -94.934688 
L 196.083309 -94.934688 
L 196.173022 -94.934688 
L 196.262736 -94.934688 
L 196.352449 -94.934688 
L 196.442162 -94.934688 
L 196.531876 -94.934688 
L 196.621589 -94.934688 
L 196.711303 -94.934688 
L 196.801016 -94.934688 
L 196.89073 -94.934688 
L 196.980443 -94.934688 
L 197.070157 -94.934688 
L 197.15987 -94.934688 
L 197.249584 -94.934688 
L 197.339297 -94.934688 
L 197.42901 -94.934688 
L 197.518724 -94.934688 
L 197.608437 -94.934688 
L 197.698151 -94.934688 
L 197.787864 -94.934688 
L 197.877578 -94.934688 
L 197.967291 -94.934688 
L 198.057005 -94.934688 
L 198.146718 -94.934688 
L 198.236432 -94.934688 
L 198.326145 -94.934688 
L 198.415858 -94.934688 
L 198.505572 -94.934688 
L 198.595285 -94.934688 
L 198.684999 -94.934688 
L 198.774712 -94.934688 
L 198.864426 -94.934688 
L 198.954139 -94.934688 
L 199.043853 -94.934688 
L 199.133566 -94.934688 
L 199.223279 -94.934688 
L 199.312993 -94.934688 
L 199.402706 -94.934688 
L 199.49242 -94.934688 
L 199.582133 -94.934688 
L 199.671847 -94.934688 
L 199.76156 -94.934688 
L 199.851274 -94.934688 
L 199.940987 -94.934688 
L 200.030701 -94.934688 
L 200.120414 -94.934688 
L 200.210127 -94.934688 
L 200.299841 -94.934688 
L 200.389554 -94.934688 
L 200.479268 -94.934688 
L 200.568981 -94.934688 
L 200.658695 -94.934688 
L 200.748408 -94.934688 
L 200.838122 -94.934688 
L 200.927835 -94.934688 
L 201.017549 -94.934688 
L 201.107262 -94.934688 
L 201.196975 -94.934688 
L 201.286689 -94.934688 
L 201.376402 -94.934688 
L 201.466116 -94.934688 
L 201.555829 -94.934688 
L 201.645543 -94.934688 
L 201.735256 -94.934688 
L 201.82497 -94.934688 
L 201.914683 -94.934688 
L 202.004396 -94.934688 
L 202.09411 -94.934688 
L 202.183823 -94.934688 
L 202.273537 -94.934688 
L 202.36325 -94.934688 
L 202.452964 -94.934688 
L 202.542677 -94.934688 
L 202.632391 -94.934688 
L 202.722104 -94.934688 
L 202.811818 -94.934688 
L 202.901531 -94.934688 
L 202.991244 -94.934688 
L 203.080958 -94.934688 
L 203.170671 -94.934688 
L 203.260385 -94.934688 
L 203.350098 -94.934688 
L 203.439812 -94.934688 
L 203.529525 -94.934688 
L 203.619239 -94.934688 
L 203.708952 -94.934688 
L 203.798666 -94.934688 
L 203.888379 -94.934688 
L 203.978092 -94.934688 
L 204.067806 -94.934688 
L 204.157519 -94.934688 
L 204.247233 -94.934688 
L 204.336946 -94.934688 
L 204.42666 -94.934688 
L 204.516373 -94.934688 
L 204.606087 -94.934688 
L 204.6958 -94.934688 
L 204.785514 -94.934688 
L 204.875227 -94.934688 
L 204.96494 -94.934688 
L 205.054654 -94.934688 
L 205.144367 -94.934688 
L 205.234081 -94.934688 
L 205.323794 -94.934688 
L 205.413508 -94.934688 
L 205.503221 -94.934688 
L 205.592935 -94.934688 
L 205.682648 -94.934688 
L 205.772361 -94.934688 
L 205.862075 -94.934688 
L 205.951788 -94.934688 
L 206.041502 -94.934688 
L 206.131215 -94.934688 
L 206.220929 -94.934688 
L 206.310642 -94.934688 
L 206.400356 -94.934688 
L 206.490069 -94.934688 
L 206.579783 -94.934688 
L 206.669496 -94.934688 
L 206.759209 -94.934688 
L 206.848923 -94.934688 
L 206.938636 -94.934688 
L 206.938636 -94.955869 
L 206.938636 -94.955869 
L 206.848923 -94.963317 
L 206.759209 -94.972021 
L 206.669496 -94.981729 
L 206.579783 -94.992059 
L 206.490069 -95.002549 
L 206.400356 -95.012724 
L 206.310642 -95.022192 
L 206.220929 -95.030743 
L 206.131215 -95.038433 
L 206.041502 -95.04564 
L 205.951788 -95.053059 
L 205.862075 -95.061629 
L 205.772361 -95.07238 
L 205.682648 -95.086222 
L 205.592935 -95.103728 
L 205.503221 -95.124963 
L 205.413508 -95.149423 
L 205.323794 -95.176149 
L 205.234081 -95.203985 
L 205.144367 -95.231953 
L 205.054654 -95.259607 
L 204.96494 -95.287263 
L 204.875227 -95.315981 
L 204.785514 -95.347291 
L 204.6958 -95.382711 
L 204.606087 -95.423225 
L 204.516373 -95.468885 
L 204.42666 -95.518693 
L 204.336946 -95.570796 
L 204.247233 -95.622949 
L 204.157519 -95.673074 
L 204.067806 -95.71977 
L 203.978092 -95.762622 
L 203.888379 -95.802275 
L 203.798666 -95.840326 
L 203.708952 -95.87911 
L 203.619239 -95.921478 
L 203.529525 -95.970588 
L 203.439812 -96.029672 
L 203.350098 -96.101738 
L 203.260385 -96.189181 
L 203.170671 -96.293357 
L 203.080958 -96.414264 
L 202.991244 -96.550467 
L 202.901531 -96.699369 
L 202.811818 -96.857785 
L 202.722104 -97.022665 
L 202.632391 -97.191754 
L 202.542677 -97.363998 
L 202.452964 -97.539628 
L 202.36325 -97.719955 
L 202.273537 -97.907004 
L 202.183823 -98.10311 
L 202.09411 -98.310552 
L 202.004396 -98.531287 
L 201.914683 -98.766771 
L 201.82497 -99.01791 
L 201.735256 -99.285163 
L 201.645543 -99.568787 
L 201.555829 -99.869192 
L 201.466116 -100.187261 
L 201.376402 -100.5245 
L 201.286689 -100.88287 
L 201.196975 -101.264267 
L 201.107262 -101.669755 
L 201.017549 -102.098733 
L 200.927835 -102.548316 
L 200.838122 -103.013153 
L 200.748408 -103.485792 
L 200.658695 -103.957589 
L 200.568981 -104.419981 
L 200.479268 -104.865864 
L 200.389554 -105.290783 
L 200.299841 -105.693657 
L 200.210127 -106.076872 
L 200.120414 -106.445674 
L 200.030701 -106.806962 
L 199.940987 -107.167727 
L 199.851274 -107.533446 
L 199.76156 -107.90681 
L 199.671847 -108.287063 
L 199.582133 -108.670102 
L 199.49242 -109.049314 
L 199.402706 -109.41693 
L 199.312993 -109.76557 
L 199.223279 -110.089631 
L 199.133566 -110.386195 
L 199.043853 -110.655328 
L 198.954139 -110.899752 
L 198.864426 -111.124073 
L 198.774712 -111.333792 
L 198.684999 -111.534338 
L 198.595285 -111.730257 
L 198.505572 -111.924601 
L 198.415858 -112.118517 
L 198.326145 -112.311032 
L 198.236432 -112.499155 
L 198.146718 -112.678379 
L 198.057005 -112.843641 
L 197.967291 -112.990595 
L 197.877578 -113.11684 
L 197.787864 -113.222631 
L 197.698151 -113.310709 
L 197.608437 -113.38512 
L 197.518724 -113.449283 
L 197.42901 -113.503865 
L 197.339297 -113.545124 
L 197.249584 -113.564309 
L 197.15987 -113.548396 
L 197.070157 -113.482058 
L 196.980443 -113.350426 
L 196.89073 -113.141985 
L 196.801016 -112.850913 
L 196.711303 -112.478333 
L 196.621589 -112.032262 
L 196.531876 -111.526347 
L 196.442162 -110.977748 
L 196.352449 -110.40471 
L 196.262736 -109.824311 
L 196.173022 -109.250808 
L 196.083309 -108.694794 
L 195.993595 -108.163172 
L 195.903882 -107.659755 
L 195.814168 -107.186191 
L 195.724455 -106.742857 
L 195.634741 -106.329448 
L 195.545028 -105.945151 
L 195.455314 -105.58846 
L 195.365601 -105.256862 
L 195.275888 -104.946614 
L 195.186174 -104.652824 
L 195.096461 -104.369842 
L 195.006747 -104.091864 
L 194.917034 -103.813549 
L 194.82732 -103.530455 
L 194.737607 -103.239189 
L 194.647893 -102.937306 
L 194.55818 -102.623067 
L 194.468467 -102.295241 
L 194.378753 -101.95307 
L 194.28904 -101.596451 
L 194.199326 -101.226269 
L 194.109613 -100.844732 
L 194.019899 -100.455561 
L 193.930186 -100.063887 
L 193.840472 -99.675838 
L 193.750759 -99.29786 
L 193.661045 -98.935921 
L 193.571332 -98.59477 
L 193.481619 -98.277404 
L 193.391905 -97.984866 
L 193.302192 -97.716386 
L 193.212478 -97.469821 
L 193.122765 -97.242268 
L 193.033051 -97.030716 
L 192.943338 -96.832595 
L 192.853624 -96.646132 
L 192.763911 -96.470489 
L 192.674197 -96.305686 
L 192.584484 -96.15239 
L 192.494771 -96.011601 
L 192.405057 -95.884334 
L 192.315344 -95.771324 
L 192.22563 -95.672817 
L 192.135917 -95.588462 
L 192.046203 -95.517332 
L 191.95649 -95.458036 
L 191.866776 -95.408901 
L 191.777063 -95.36815 
L 191.687349 -95.334052 
L 191.597636 -95.305006 
L 191.507923 -95.27959 
L 191.418209 -95.256572 
L 191.328496 -95.234943 
L 191.238782 -95.213949 
L 191.149069 -95.193129 
L 191.059355 -95.17234 
L 190.969642 -95.151726 
L 190.879928 -95.131646 
L 190.790215 -95.112566 
L 190.700502 -95.094935 
L 190.610788 -95.079089 
L 190.521075 -95.065183 
L 190.431361 -95.053192 
L 190.341648 -95.042936 
L 190.251934 -95.034143 
L 190.162221 -95.026508 
L 190.072507 -95.019737 
L 189.982794 -95.013568 
L 189.89308 -95.007769 
L 189.803367 -95.002132 
L 189.713654 -94.99647 
L 189.62394 -94.990633 
L 189.534227 -94.984534 
L 189.444513 -94.978175 
L 189.3548 -94.971662 
L 189.265086 -94.965193 
L 189.175373 -94.959018 
L 189.085659 -94.953387 
z
" style="stroke: #bddf26; stroke-width: 1.25"/>
    </defs>
    <g>
     <use xlink:href="#mdb21d1f42e" x="0" y="174.899688" style="fill: #bddf26; fill-opacity: 0.7; stroke: #bddf26; stroke-width: 1.25"/>
    </g>
   </g>
   <g id="line2d_4">
    <path d="M 7.2 79.965 
L 216.45 79.965 
" style="fill: none; stroke: #bddf26; stroke-opacity: 0.9; stroke-linecap: round"/>
   </g>
   <g id="text_4">
    <!-- 3 -->
    <g style="fill: #bddf26" transform="translate(7.2 79.11825) scale(0.12 -0.12)">
     <defs>
      <path id="DejaVuSans-Bold-33" d="M 2981 2516 
Q 3453 2394 3698 2092 
Q 3944 1791 3944 1325 
Q 3944 631 3412 270 
Q 2881 -91 1863 -91 
Q 1503 -91 1142 -33 
Q 781 25 428 141 
L 428 1069 
Q 766 900 1098 814 
Q 1431 728 1753 728 
Q 2231 728 2486 893 
Q 2741 1059 2741 1369 
Q 2741 1688 2480 1852 
Q 2219 2016 1709 2016 
L 1228 2016 
L 1228 2791 
L 1734 2791 
Q 2188 2791 2409 2933 
Q 2631 3075 2631 3366 
Q 2631 3634 2415 3781 
Q 2200 3928 1806 3928 
Q 1516 3928 1219 3862 
Q 922 3797 628 3669 
L 628 4550 
Q 984 4650 1334 4700 
Q 1684 4750 2022 4750 
Q 2931 4750 3382 4451 
Q 3834 4153 3834 3553 
Q 3834 3144 3618 2883 
Q 3403 2622 2981 2516 
z
" transform="scale(0.015625)"/>
     </defs>
     <use xlink:href="#DejaVuSans-Bold-33"/>
    </g>
   </g>
  </g>
  <g id="axes_5">
   <g id="patch_6">
    <path d="M 7.2 90.36 
L 216.45 90.36 
L 216.45 48.78 
L 7.2 48.78 
L 7.2 90.36 
z
" style="fill: none"/>
   </g>
   <g id="matplotlib.axis_9">
    <g id="xtick_13"/>
    <g id="xtick_14"/>
    <g id="xtick_15"/>
   </g>
   <g id="matplotlib.axis_10"/>
   <g id="PolyCollection_4">
    <defs>
     <path id="mcb7846ba67" d="M 178.924105 -84.550337 
L 178.924105 -84.539688 
L 179.054494 -84.539688 
L 179.184883 -84.539688 
L 179.315272 -84.539688 
L 179.445662 -84.539688 
L 179.576051 -84.539688 
L 179.70644 -84.539688 
L 179.836829 -84.539688 
L 179.967219 -84.539688 
L 180.097608 -84.539688 
L 180.227997 -84.539688 
L 180.358386 -84.539688 
L 180.488776 -84.539688 
L 180.619165 -84.539688 
L 180.749554 -84.539688 
L 180.879943 -84.539688 
L 181.010333 -84.539688 
L 181.140722 -84.539688 
L 181.271111 -84.539688 
L 181.4015 -84.539688 
L 181.53189 -84.539688 
L 181.662279 -84.539688 
L 181.792668 -84.539688 
L 181.923058 -84.539688 
L 182.053447 -84.539688 
L 182.183836 -84.539688 
L 182.314225 -84.539688 
L 182.444615 -84.539688 
L 182.575004 -84.539688 
L 182.705393 -84.539688 
L 182.835782 -84.539688 
L 182.966172 -84.539688 
L 183.096561 -84.539688 
L 183.22695 -84.539688 
L 183.357339 -84.539688 
L 183.487729 -84.539688 
L 183.618118 -84.539688 
L 183.748507 -84.539688 
L 183.878896 -84.539688 
L 184.009286 -84.539688 
L 184.139675 -84.539688 
L 184.270064 -84.539688 
L 184.400453 -84.539688 
L 184.530843 -84.539688 
L 184.661232 -84.539688 
L 184.791621 -84.539688 
L 184.922011 -84.539688 
L 185.0524 -84.539688 
L 185.182789 -84.539688 
L 185.313178 -84.539688 
L 185.443568 -84.539688 
L 185.573957 -84.539688 
L 185.704346 -84.539688 
L 185.834735 -84.539688 
L 185.965125 -84.539688 
L 186.095514 -84.539688 
L 186.225903 -84.539688 
L 186.356292 -84.539688 
L 186.486682 -84.539688 
L 186.617071 -84.539688 
L 186.74746 -84.539688 
L 186.877849 -84.539688 
L 187.008239 -84.539688 
L 187.138628 -84.539688 
L 187.269017 -84.539688 
L 187.399406 -84.539688 
L 187.529796 -84.539688 
L 187.660185 -84.539688 
L 187.790574 -84.539688 
L 187.920964 -84.539688 
L 188.051353 -84.539688 
L 188.181742 -84.539688 
L 188.312131 -84.539688 
L 188.442521 -84.539688 
L 188.57291 -84.539688 
L 188.703299 -84.539688 
L 188.833688 -84.539688 
L 188.964078 -84.539688 
L 189.094467 -84.539688 
L 189.224856 -84.539688 
L 189.355245 -84.539688 
L 189.485635 -84.539688 
L 189.616024 -84.539688 
L 189.746413 -84.539688 
L 189.876802 -84.539688 
L 190.007192 -84.539688 
L 190.137581 -84.539688 
L 190.26797 -84.539688 
L 190.398359 -84.539688 
L 190.528749 -84.539688 
L 190.659138 -84.539688 
L 190.789527 -84.539688 
L 190.919917 -84.539688 
L 191.050306 -84.539688 
L 191.180695 -84.539688 
L 191.311084 -84.539688 
L 191.441474 -84.539688 
L 191.571863 -84.539688 
L 191.702252 -84.539688 
L 191.832641 -84.539688 
L 191.963031 -84.539688 
L 192.09342 -84.539688 
L 192.223809 -84.539688 
L 192.354198 -84.539688 
L 192.484588 -84.539688 
L 192.614977 -84.539688 
L 192.745366 -84.539688 
L 192.875755 -84.539688 
L 193.006145 -84.539688 
L 193.136534 -84.539688 
L 193.266923 -84.539688 
L 193.397312 -84.539688 
L 193.527702 -84.539688 
L 193.658091 -84.539688 
L 193.78848 -84.539688 
L 193.91887 -84.539688 
L 194.049259 -84.539688 
L 194.179648 -84.539688 
L 194.310037 -84.539688 
L 194.440427 -84.539688 
L 194.570816 -84.539688 
L 194.701205 -84.539688 
L 194.831594 -84.539688 
L 194.961984 -84.539688 
L 195.092373 -84.539688 
L 195.222762 -84.539688 
L 195.353151 -84.539688 
L 195.483541 -84.539688 
L 195.61393 -84.539688 
L 195.744319 -84.539688 
L 195.874708 -84.539688 
L 196.005098 -84.539688 
L 196.135487 -84.539688 
L 196.265876 -84.539688 
L 196.396266 -84.539688 
L 196.526655 -84.539688 
L 196.657044 -84.539688 
L 196.787433 -84.539688 
L 196.917823 -84.539688 
L 197.048212 -84.539688 
L 197.178601 -84.539688 
L 197.30899 -84.539688 
L 197.43938 -84.539688 
L 197.569769 -84.539688 
L 197.700158 -84.539688 
L 197.830547 -84.539688 
L 197.960937 -84.539688 
L 198.091326 -84.539688 
L 198.221715 -84.539688 
L 198.352104 -84.539688 
L 198.482494 -84.539688 
L 198.612883 -84.539688 
L 198.743272 -84.539688 
L 198.873661 -84.539688 
L 199.004051 -84.539688 
L 199.13444 -84.539688 
L 199.264829 -84.539688 
L 199.395219 -84.539688 
L 199.525608 -84.539688 
L 199.655997 -84.539688 
L 199.786386 -84.539688 
L 199.916776 -84.539688 
L 200.047165 -84.539688 
L 200.177554 -84.539688 
L 200.307943 -84.539688 
L 200.438333 -84.539688 
L 200.568722 -84.539688 
L 200.699111 -84.539688 
L 200.8295 -84.539688 
L 200.95989 -84.539688 
L 201.090279 -84.539688 
L 201.220668 -84.539688 
L 201.351057 -84.539688 
L 201.481447 -84.539688 
L 201.611836 -84.539688 
L 201.742225 -84.539688 
L 201.872614 -84.539688 
L 202.003004 -84.539688 
L 202.133393 -84.539688 
L 202.263782 -84.539688 
L 202.394172 -84.539688 
L 202.524561 -84.539688 
L 202.65495 -84.539688 
L 202.785339 -84.539688 
L 202.915729 -84.539688 
L 203.046118 -84.539688 
L 203.176507 -84.539688 
L 203.306896 -84.539688 
L 203.437286 -84.539688 
L 203.567675 -84.539688 
L 203.698064 -84.539688 
L 203.828453 -84.539688 
L 203.958843 -84.539688 
L 204.089232 -84.539688 
L 204.219621 -84.539688 
L 204.35001 -84.539688 
L 204.4804 -84.539688 
L 204.610789 -84.539688 
L 204.741178 -84.539688 
L 204.871567 -84.539688 
L 204.871567 -84.55606 
L 204.871567 -84.55606 
L 204.741178 -84.560502 
L 204.610789 -84.56498 
L 204.4804 -84.569114 
L 204.35001 -84.572548 
L 204.219621 -84.575033 
L 204.089232 -84.576498 
L 203.958843 -84.577078 
L 203.828453 -84.577098 
L 203.698064 -84.577003 
L 203.567675 -84.577261 
L 203.437286 -84.578265 
L 203.306896 -84.580258 
L 203.176507 -84.583302 
L 203.046118 -84.587305 
L 202.915729 -84.592081 
L 202.785339 -84.597444 
L 202.65495 -84.603291 
L 202.524561 -84.609656 
L 202.394172 -84.616725 
L 202.263782 -84.624794 
L 202.133393 -84.634211 
L 202.003004 -84.645298 
L 201.872614 -84.658284 
L 201.742225 -84.673263 
L 201.611836 -84.690184 
L 201.481447 -84.708866 
L 201.351057 -84.729046 
L 201.220668 -84.750459 
L 201.090279 -84.772949 
L 200.95989 -84.796581 
L 200.8295 -84.821727 
L 200.699111 -84.849077 
L 200.568722 -84.879532 
L 200.438333 -84.913983 
L 200.307943 -84.953031 
L 200.177554 -84.996752 
L 200.047165 -85.044618 
L 199.916776 -85.095664 
L 199.786386 -85.148889 
L 199.655997 -85.203787 
L 199.525608 -85.260821 
L 199.395219 -85.321635 
L 199.264829 -85.388865 
L 199.13444 -85.46555 
L 199.004051 -85.554289 
L 198.873661 -85.656399 
L 198.743272 -85.771369 
L 198.612883 -85.896821 
L 198.482494 -86.029024 
L 198.352104 -86.163838 
L 198.221715 -86.297822 
L 198.091326 -86.429172 
L 197.960937 -86.55823 
L 197.830547 -86.687437 
L 197.700158 -86.820758 
L 197.569769 -86.962766 
L 197.43938 -87.117627 
L 197.30899 -87.28826 
L 197.178601 -87.475847 
L 197.048212 -87.679767 
L 196.917823 -87.897925 
L 196.787433 -88.127323 
L 196.657044 -88.364721 
L 196.526655 -88.607214 
L 196.396266 -88.852643 
L 196.265876 -89.099829 
L 196.135487 -89.348663 
L 196.005098 -89.600061 
L 195.874708 -89.855789 
L 195.744319 -90.118109 
L 195.61393 -90.38923 
L 195.483541 -90.670636 
L 195.353151 -90.962454 
L 195.222762 -91.263049 
L 195.092373 -91.569026 
L 194.961984 -91.875666 
L 194.831594 -92.177723 
L 194.701205 -92.470373 
L 194.570816 -92.750125 
L 194.440427 -93.015518 
L 194.310037 -93.267495 
L 194.179648 -93.509377 
L 194.049259 -93.746386 
L 193.91887 -93.984751 
L 193.78848 -94.230465 
L 193.658091 -94.487959 
L 193.527702 -94.75897 
L 193.397312 -95.041926 
L 193.266923 -95.332038 
L 193.136534 -95.622062 
L 193.006145 -95.903555 
L 192.875755 -96.168278 
L 192.745366 -96.409446 
L 192.614977 -96.622564 
L 192.484588 -96.80575 
L 192.354198 -96.95957 
L 192.223809 -97.086482 
L 192.09342 -97.190061 
L 191.963031 -97.274174 
L 191.832641 -97.342241 
L 191.702252 -97.396687 
L 191.571863 -97.438641 
L 191.441474 -97.46789 
L 191.311084 -97.483091 
L 191.180695 -97.48218 
L 191.050306 -97.462891 
L 190.919917 -97.423258 
L 190.789527 -97.361952 
L 190.659138 -97.278373 
L 190.528749 -97.172486 
L 190.398359 -97.044488 
L 190.26797 -96.894495 
L 190.137581 -96.72236 
L 190.007192 -96.527726 
L 189.876802 -96.310259 
L 189.746413 -96.069994 
L 189.616024 -95.807682 
L 189.485635 -95.525063 
L 189.355245 -95.225039 
L 189.224856 -94.911696 
L 189.094467 -94.590139 
L 188.964078 -94.266091 
L 188.833688 -93.945251 
L 188.703299 -93.632519 
L 188.57291 -93.331266 
L 188.442521 -93.042866 
L 188.312131 -92.766654 
L 188.181742 -92.500329 
L 188.051353 -92.240678 
L 187.920964 -91.984376 
L 187.790574 -91.728635 
L 187.660185 -91.471558 
L 187.529796 -91.212196 
L 187.399406 -90.950416 
L 187.269017 -90.686698 
L 187.138628 -90.421976 
L 187.008239 -90.157516 
L 186.877849 -89.894809 
L 186.74746 -89.635437 
L 186.617071 -89.380898 
L 186.486682 -89.132447 
L 186.356292 -88.891002 
L 186.225903 -88.657129 
L 186.095514 -88.431097 
L 185.965125 -88.212944 
L 185.834735 -88.00251 
L 185.704346 -87.799434 
L 185.573957 -87.603159 
L 185.443568 -87.412991 
L 185.313178 -87.228241 
L 185.182789 -87.048422 
L 185.0524 -86.873435 
L 184.922011 -86.703642 
L 184.791621 -86.53978 
L 184.661232 -86.382715 
L 184.530843 -86.233121 
L 184.400453 -86.0912 
L 184.270064 -85.956579 
L 184.139675 -85.828433 
L 184.009286 -85.705816 
L 183.878896 -85.58807 
L 183.748507 -85.475169 
L 183.618118 -85.367846 
L 183.487729 -85.267463 
L 183.357339 -85.175673 
L 183.22695 -85.093986 
L 183.096561 -85.023383 
L 182.966172 -84.964091 
L 182.835782 -84.915534 
L 182.705393 -84.876453 
L 182.575004 -84.845108 
L 182.444615 -84.819527 
L 182.314225 -84.797739 
L 182.183836 -84.777974 
L 182.053447 -84.758823 
L 181.923058 -84.739351 
L 181.792668 -84.719141 
L 181.662279 -84.698272 
L 181.53189 -84.677224 
L 181.4015 -84.656734 
L 181.271111 -84.637631 
L 181.140722 -84.620673 
L 181.010333 -84.606426 
L 180.879943 -84.595188 
L 180.749554 -84.586964 
L 180.619165 -84.581489 
L 180.488776 -84.578274 
L 180.358386 -84.576686 
L 180.227997 -84.576037 
L 180.097608 -84.575671 
L 179.967219 -84.575044 
L 179.836829 -84.573787 
L 179.70644 -84.571725 
L 179.576051 -84.568869 
L 179.445662 -84.56538 
L 179.315272 -84.56151 
L 179.184883 -84.557546 
L 179.054494 -84.553752 
L 178.924105 -84.550337 
z
" style="stroke: #44bf70; stroke-width: 1.25"/>
    </defs>
    <g>
     <use xlink:href="#mcb7846ba67" x="0" y="174.899688" style="fill: #44bf70; fill-opacity: 0.7; stroke: #44bf70; stroke-width: 1.25"/>
    </g>
   </g>
   <g id="line2d_5">
    <path d="M 7.2 90.36 
L 216.45 90.36 
" style="fill: none; stroke: #44bf70; stroke-opacity: 0.9; stroke-linecap: round"/>
   </g>
   <g id="text_5">
    <!-- 4 -->
    <g style="fill: #44bf70" transform="translate(7.2 89.51325) scale(0.12 -0.12)">
     <defs>
      <path id="DejaVuSans-Bold-34" d="M 2356 3675 
L 1038 1722 
L 2356 1722 
L 2356 3675 
z
M 2156 4666 
L 3494 4666 
L 3494 1722 
L 4159 1722 
L 4159 850 
L 3494 850 
L 3494 0 
L 2356 0 
L 2356 850 
L 288 850 
L 288 1881 
L 2156 4666 
z
" transform="scale(0.015625)"/>
     </defs>
     <use xlink:href="#DejaVuSans-Bold-34"/>
    </g>
   </g>
  </g>
  <g id="axes_6">
   <g id="patch_7">
    <path d="M 7.2 100.755 
L 216.45 100.755 
L 216.45 59.175 
L 7.2 59.175 
L 7.2 100.755 
z
" style="fill: none"/>
   </g>
   <g id="matplotlib.axis_11">
    <g id="xtick_16"/>
    <g id="xtick_17"/>
    <g id="xtick_18"/>
   </g>
   <g id="matplotlib.axis_12"/>
   <g id="PolyCollection_5">
    <defs>
     <path id="m95d41c24a8" d="M 189.163981 -74.166766 
L 189.163981 -74.144688 
L 189.253068 -74.144688 
L 189.342155 -74.144688 
L 189.431243 -74.144688 
L 189.52033 -74.144688 
L 189.609417 -74.144688 
L 189.698505 -74.144688 
L 189.787592 -74.144688 
L 189.876679 -74.144688 
L 189.965767 -74.144688 
L 190.054854 -74.144688 
L 190.143941 -74.144688 
L 190.233029 -74.144688 
L 190.322116 -74.144688 
L 190.411203 -74.144688 
L 190.500291 -74.144688 
L 190.589378 -74.144688 
L 190.678465 -74.144688 
L 190.767553 -74.144688 
L 190.85664 -74.144688 
L 190.945727 -74.144688 
L 191.034815 -74.144688 
L 191.123902 -74.144688 
L 191.212989 -74.144688 
L 191.302077 -74.144688 
L 191.391164 -74.144688 
L 191.480251 -74.144688 
L 191.569339 -74.144688 
L 191.658426 -74.144688 
L 191.747513 -74.144688 
L 191.836601 -74.144688 
L 191.925688 -74.144688 
L 192.014776 -74.144688 
L 192.103863 -74.144688 
L 192.19295 -74.144688 
L 192.282038 -74.144688 
L 192.371125 -74.144688 
L 192.460212 -74.144688 
L 192.5493 -74.144688 
L 192.638387 -74.144688 
L 192.727474 -74.144688 
L 192.816562 -74.144688 
L 192.905649 -74.144688 
L 192.994736 -74.144688 
L 193.083824 -74.144688 
L 193.172911 -74.144688 
L 193.261998 -74.144688 
L 193.351086 -74.144688 
L 193.440173 -74.144688 
L 193.52926 -74.144688 
L 193.618348 -74.144688 
L 193.707435 -74.144688 
L 193.796522 -74.144688 
L 193.88561 -74.144688 
L 193.974697 -74.144688 
L 194.063784 -74.144688 
L 194.152872 -74.144688 
L 194.241959 -74.144688 
L 194.331046 -74.144688 
L 194.420134 -74.144688 
L 194.509221 -74.144688 
L 194.598308 -74.144688 
L 194.687396 -74.144688 
L 194.776483 -74.144688 
L 194.86557 -74.144688 
L 194.954658 -74.144688 
L 195.043745 -74.144688 
L 195.132832 -74.144688 
L 195.22192 -74.144688 
L 195.311007 -74.144688 
L 195.400094 -74.144688 
L 195.489182 -74.144688 
L 195.578269 -74.144688 
L 195.667356 -74.144688 
L 195.756444 -74.144688 
L 195.845531 -74.144688 
L 195.934618 -74.144688 
L 196.023706 -74.144688 
L 196.112793 -74.144688 
L 196.201881 -74.144688 
L 196.290968 -74.144688 
L 196.380055 -74.144688 
L 196.469143 -74.144688 
L 196.55823 -74.144688 
L 196.647317 -74.144688 
L 196.736405 -74.144688 
L 196.825492 -74.144688 
L 196.914579 -74.144688 
L 197.003667 -74.144688 
L 197.092754 -74.144688 
L 197.181841 -74.144688 
L 197.270929 -74.144688 
L 197.360016 -74.144688 
L 197.449103 -74.144688 
L 197.538191 -74.144688 
L 197.627278 -74.144688 
L 197.716365 -74.144688 
L 197.805453 -74.144688 
L 197.89454 -74.144688 
L 197.983627 -74.144688 
L 198.072715 -74.144688 
L 198.161802 -74.144688 
L 198.250889 -74.144688 
L 198.339977 -74.144688 
L 198.429064 -74.144688 
L 198.518151 -74.144688 
L 198.607239 -74.144688 
L 198.696326 -74.144688 
L 198.785413 -74.144688 
L 198.874501 -74.144688 
L 198.963588 -74.144688 
L 199.052675 -74.144688 
L 199.141763 -74.144688 
L 199.23085 -74.144688 
L 199.319937 -74.144688 
L 199.409025 -74.144688 
L 199.498112 -74.144688 
L 199.587199 -74.144688 
L 199.676287 -74.144688 
L 199.765374 -74.144688 
L 199.854461 -74.144688 
L 199.943549 -74.144688 
L 200.032636 -74.144688 
L 200.121723 -74.144688 
L 200.210811 -74.144688 
L 200.299898 -74.144688 
L 200.388986 -74.144688 
L 200.478073 -74.144688 
L 200.56716 -74.144688 
L 200.656248 -74.144688 
L 200.745335 -74.144688 
L 200.834422 -74.144688 
L 200.92351 -74.144688 
L 201.012597 -74.144688 
L 201.101684 -74.144688 
L 201.190772 -74.144688 
L 201.279859 -74.144688 
L 201.368946 -74.144688 
L 201.458034 -74.144688 
L 201.547121 -74.144688 
L 201.636208 -74.144688 
L 201.725296 -74.144688 
L 201.814383 -74.144688 
L 201.90347 -74.144688 
L 201.992558 -74.144688 
L 202.081645 -74.144688 
L 202.170732 -74.144688 
L 202.25982 -74.144688 
L 202.348907 -74.144688 
L 202.437994 -74.144688 
L 202.527082 -74.144688 
L 202.616169 -74.144688 
L 202.705256 -74.144688 
L 202.794344 -74.144688 
L 202.883431 -74.144688 
L 202.972518 -74.144688 
L 203.061606 -74.144688 
L 203.150693 -74.144688 
L 203.23978 -74.144688 
L 203.328868 -74.144688 
L 203.417955 -74.144688 
L 203.507042 -74.144688 
L 203.59613 -74.144688 
L 203.685217 -74.144688 
L 203.774304 -74.144688 
L 203.863392 -74.144688 
L 203.952479 -74.144688 
L 204.041566 -74.144688 
L 204.130654 -74.144688 
L 204.219741 -74.144688 
L 204.308828 -74.144688 
L 204.397916 -74.144688 
L 204.487003 -74.144688 
L 204.576091 -74.144688 
L 204.665178 -74.144688 
L 204.754265 -74.144688 
L 204.843353 -74.144688 
L 204.93244 -74.144688 
L 205.021527 -74.144688 
L 205.110615 -74.144688 
L 205.199702 -74.144688 
L 205.288789 -74.144688 
L 205.377877 -74.144688 
L 205.466964 -74.144688 
L 205.556051 -74.144688 
L 205.645139 -74.144688 
L 205.734226 -74.144688 
L 205.823313 -74.144688 
L 205.912401 -74.144688 
L 206.001488 -74.144688 
L 206.090575 -74.144688 
L 206.179663 -74.144688 
L 206.26875 -74.144688 
L 206.357837 -74.144688 
L 206.446925 -74.144688 
L 206.536012 -74.144688 
L 206.625099 -74.144688 
L 206.714187 -74.144688 
L 206.803274 -74.144688 
L 206.892361 -74.144688 
L 206.892361 -74.201347 
L 206.892361 -74.201347 
L 206.803274 -74.216387 
L 206.714187 -74.231898 
L 206.625099 -74.246833 
L 206.536012 -74.260141 
L 206.446925 -74.270948 
L 206.357837 -74.278695 
L 206.26875 -74.283238 
L 206.179663 -74.284851 
L 206.090575 -74.284189 
L 206.001488 -74.28219 
L 205.912401 -74.279976 
L 205.823313 -74.27876 
L 205.734226 -74.279757 
L 205.645139 -74.284124 
L 205.556051 -74.292883 
L 205.466964 -74.306842 
L 205.377877 -74.326506 
L 205.288789 -74.351982 
L 205.199702 -74.382919 
L 205.110615 -74.418515 
L 205.021527 -74.457606 
L 204.93244 -74.498852 
L 204.843353 -74.540966 
L 204.754265 -74.582946 
L 204.665178 -74.624223 
L 204.576091 -74.664696 
L 204.487003 -74.704647 
L 204.397916 -74.744568 
L 204.308828 -74.784974 
L 204.219741 -74.826266 
L 204.130654 -74.868687 
L 204.041566 -74.912377 
L 203.952479 -74.9575 
L 203.863392 -75.004404 
L 203.774304 -75.053756 
L 203.685217 -75.106623 
L 203.59613 -75.164483 
L 203.507042 -75.229134 
L 203.417955 -75.302534 
L 203.328868 -75.386575 
L 203.23978 -75.482831 
L 203.150693 -75.592349 
L 203.061606 -75.715509 
L 202.972518 -75.852007 
L 202.883431 -76.000939 
L 202.794344 -76.16096 
L 202.705256 -76.330447 
L 202.616169 -76.507632 
L 202.527082 -76.690692 
L 202.437994 -76.877829 
L 202.348907 -77.06742 
L 202.25982 -77.258297 
L 202.170732 -77.450166 
L 202.081645 -77.64407 
L 201.992558 -77.842765 
L 201.90347 -78.050799 
L 201.814383 -78.274173 
L 201.725296 -78.519559 
L 201.636208 -78.7932 
L 201.547121 -79.099768 
L 201.458034 -79.441444 
L 201.368946 -79.817493 
L 201.279859 -80.22439 
L 201.190772 -80.656404 
L 201.101684 -81.106412 
L 201.012597 -81.566654 
L 200.92351 -82.029254 
L 200.834422 -82.486481 
L 200.745335 -82.930903 
L 200.656248 -83.355671 
L 200.56716 -83.755133 
L 200.478073 -84.125763 
L 200.388986 -84.467182 
L 200.299898 -84.782875 
L 200.210811 -85.080184 
L 200.121723 -85.369348 
L 200.032636 -85.661685 
L 199.943549 -85.96732 
L 199.854461 -86.293058 
L 199.765374 -86.640982 
L 199.676287 -87.008147 
L 199.587199 -87.387403 
L 199.498112 -87.769094 
L 199.409025 -88.14316 
L 199.319937 -88.501134 
L 199.23085 -88.837606 
L 199.141763 -89.150901 
L 199.052675 -89.442914 
L 198.963588 -89.718221 
L 198.874501 -89.982719 
L 198.785413 -90.242131 
L 198.696326 -90.500693 
L 198.607239 -90.760304 
L 198.518151 -91.020283 
L 198.429064 -91.277753 
L 198.339977 -91.528482 
L 198.250889 -91.767912 
L 198.161802 -91.992048 
L 198.072715 -92.19796 
L 197.983627 -92.383741 
L 197.89454 -92.548007 
L 197.805453 -92.689117 
L 197.716365 -92.804409 
L 197.627278 -92.889722 
L 197.538191 -92.93941 
L 197.449103 -92.94694 
L 197.360016 -92.905989 
L 197.270929 -92.811866 
L 197.181841 -92.662875 
L 197.092754 -92.461226 
L 197.003667 -92.213092 
L 196.914579 -91.927649 
L 196.825492 -91.615212 
L 196.736405 -91.284946 
L 196.647317 -90.942802 
L 196.55823 -90.590355 
L 196.469143 -90.224927 
L 196.380055 -89.840972 
L 196.290968 -89.432262 
L 196.201881 -88.994183 
L 196.112793 -88.525449 
L 196.023706 -88.028813 
L 195.934618 -87.510755 
L 195.845531 -86.980472 
L 195.756444 -86.448622 
L 195.667356 -85.926226 
L 195.578269 -85.423872 
L 195.489182 -84.951123 
L 195.400094 -84.515912 
L 195.311007 -84.123764 
L 195.22192 -83.77687 
L 195.132832 -83.473277 
L 195.043745 -83.206518 
L 194.954658 -82.966001 
L 194.86557 -82.738227 
L 194.776483 -82.508664 
L 194.687396 -82.26391 
L 194.598308 -81.99364 
L 194.509221 -81.691963 
L 194.420134 -81.357933 
L 194.331046 -80.995205 
L 194.241959 -80.611012 
L 194.152872 -80.214731 
L 194.063784 -79.816357 
L 193.974697 -79.425123 
L 193.88561 -79.048463 
L 193.796522 -78.691391 
L 193.707435 -78.356336 
L 193.618348 -78.043378 
L 193.52926 -77.750806 
L 193.440173 -77.475877 
L 193.351086 -77.215608 
L 193.261998 -76.967481 
L 193.172911 -76.729915 
L 193.083824 -76.502473 
L 192.994736 -76.285772 
L 192.905649 -76.081177 
L 192.816562 -75.89035 
L 192.727474 -75.714783 
L 192.638387 -75.5554 
L 192.5493 -75.41234 
L 192.460212 -75.284928 
L 192.371125 -75.171838 
L 192.282038 -75.071382 
L 192.19295 -74.981811 
L 192.103863 -74.901552 
L 192.014776 -74.829324 
L 191.925688 -74.764115 
L 191.836601 -74.705088 
L 191.747513 -74.651473 
L 191.658426 -74.602514 
L 191.569339 -74.557493 
L 191.480251 -74.515823 
L 191.391164 -74.477148 
L 191.302077 -74.441401 
L 191.212989 -74.40877 
L 191.123902 -74.379578 
L 191.034815 -74.354106 
L 190.945727 -74.332424 
L 190.85664 -74.314307 
L 190.767553 -74.299242 
L 190.678465 -74.286564 
L 190.589378 -74.275621 
L 190.500291 -74.265936 
L 190.411203 -74.257277 
L 190.322116 -74.249623 
L 190.233029 -74.243033 
L 190.143941 -74.237501 
L 190.054854 -74.232838 
L 189.965767 -74.228647 
L 189.876679 -74.224397 
L 189.787592 -74.219559 
L 189.698505 -74.213752 
L 189.609417 -74.206846 
L 189.52033 -74.198988 
L 189.431243 -74.190556 
L 189.342155 -74.182051 
L 189.253068 -74.173982 
L 189.163981 -74.166766 
z
" style="stroke: #7ad151; stroke-width: 1.25"/>
    </defs>
    <g>
     <use xlink:href="#m95d41c24a8" x="0" y="174.899688" style="fill: #7ad151; fill-opacity: 0.7; stroke: #7ad151; stroke-width: 1.25"/>
    </g>
   </g>
   <g id="line2d_6">
    <path d="M 7.2 100.755 
L 216.45 100.755 
" style="fill: none; stroke: #7ad151; stroke-opacity: 0.9; stroke-linecap: round"/>
   </g>
   <g id="text_6">
    <!-- 5 -->
    <g style="fill: #7ad151" transform="translate(7.2 99.90825) scale(0.12 -0.12)">
     <defs>
      <path id="DejaVuSans-Bold-35" d="M 678 4666 
L 3669 4666 
L 3669 3781 
L 1638 3781 
L 1638 3059 
Q 1775 3097 1914 3117 
Q 2053 3138 2203 3138 
Q 3056 3138 3531 2711 
Q 4006 2284 4006 1522 
Q 4006 766 3489 337 
Q 2972 -91 2053 -91 
Q 1656 -91 1267 -14 
Q 878 63 494 219 
L 494 1166 
Q 875 947 1217 837 
Q 1559 728 1863 728 
Q 2300 728 2551 942 
Q 2803 1156 2803 1522 
Q 2803 1891 2551 2103 
Q 2300 2316 1863 2316 
Q 1603 2316 1309 2248 
Q 1016 2181 678 2041 
L 678 4666 
z
" transform="scale(0.015625)"/>
     </defs>
     <use xlink:href="#DejaVuSans-Bold-35"/>
    </g>
   </g>
  </g>
  <g id="axes_7">
   <g id="patch_8">
    <path d="M 7.2 111.15 
L 216.45 111.15 
L 216.45 69.57 
L 7.2 69.57 
L 7.2 111.15 
z
" style="fill: none"/>
   </g>
   <g id="matplotlib.axis_13">
    <g id="xtick_19"/>
    <g id="xtick_20"/>
    <g id="xtick_21"/>
   </g>
   <g id="matplotlib.axis_14"/>
   <g id="PolyCollection_6">
    <defs>
     <path id="m30bc63ac0e" d="M 145.523505 -63.761479 
L 145.523505 -63.749688 
L 145.612364 -63.749688 
L 145.701223 -63.749688 
L 145.790081 -63.749688 
L 145.87894 -63.749688 
L 145.967798 -63.749688 
L 146.056657 -63.749688 
L 146.145515 -63.749688 
L 146.234374 -63.749688 
L 146.323233 -63.749688 
L 146.412091 -63.749688 
L 146.50095 -63.749688 
L 146.589808 -63.749688 
L 146.678667 -63.749688 
L 146.767526 -63.749688 
L 146.856384 -63.749688 
L 146.945243 -63.749688 
L 147.034101 -63.749688 
L 147.12296 -63.749688 
L 147.211818 -63.749688 
L 147.300677 -63.749688 
L 147.389536 -63.749688 
L 147.478394 -63.749688 
L 147.567253 -63.749688 
L 147.656111 -63.749688 
L 147.74497 -63.749688 
L 147.833828 -63.749688 
L 147.922687 -63.749688 
L 148.011546 -63.749688 
L 148.100404 -63.749688 
L 148.189263 -63.749688 
L 148.278121 -63.749688 
L 148.36698 -63.749688 
L 148.455839 -63.749688 
L 148.544697 -63.749688 
L 148.633556 -63.749688 
L 148.722414 -63.749688 
L 148.811273 -63.749688 
L 148.900131 -63.749688 
L 148.98899 -63.749688 
L 149.077849 -63.749688 
L 149.166707 -63.749688 
L 149.255566 -63.749688 
L 149.344424 -63.749688 
L 149.433283 -63.749688 
L 149.522142 -63.749688 
L 149.611 -63.749688 
L 149.699859 -63.749688 
L 149.788717 -63.749688 
L 149.877576 -63.749688 
L 149.966434 -63.749688 
L 150.055293 -63.749688 
L 150.144152 -63.749688 
L 150.23301 -63.749688 
L 150.321869 -63.749688 
L 150.410727 -63.749688 
L 150.499586 -63.749688 
L 150.588444 -63.749688 
L 150.677303 -63.749688 
L 150.766162 -63.749688 
L 150.85502 -63.749688 
L 150.943879 -63.749688 
L 151.032737 -63.749688 
L 151.121596 -63.749688 
L 151.210455 -63.749688 
L 151.299313 -63.749688 
L 151.388172 -63.749688 
L 151.47703 -63.749688 
L 151.565889 -63.749688 
L 151.654747 -63.749688 
L 151.743606 -63.749688 
L 151.832465 -63.749688 
L 151.921323 -63.749688 
L 152.010182 -63.749688 
L 152.09904 -63.749688 
L 152.187899 -63.749688 
L 152.276758 -63.749688 
L 152.365616 -63.749688 
L 152.454475 -63.749688 
L 152.543333 -63.749688 
L 152.632192 -63.749688 
L 152.72105 -63.749688 
L 152.809909 -63.749688 
L 152.898768 -63.749688 
L 152.987626 -63.749688 
L 153.076485 -63.749688 
L 153.165343 -63.749688 
L 153.254202 -63.749688 
L 153.343061 -63.749688 
L 153.431919 -63.749688 
L 153.520778 -63.749688 
L 153.609636 -63.749688 
L 153.698495 -63.749688 
L 153.787353 -63.749688 
L 153.876212 -63.749688 
L 153.965071 -63.749688 
L 154.053929 -63.749688 
L 154.142788 -63.749688 
L 154.231646 -63.749688 
L 154.320505 -63.749688 
L 154.409363 -63.749688 
L 154.498222 -63.749688 
L 154.587081 -63.749688 
L 154.675939 -63.749688 
L 154.764798 -63.749688 
L 154.853656 -63.749688 
L 154.942515 -63.749688 
L 155.031374 -63.749688 
L 155.120232 -63.749688 
L 155.209091 -63.749688 
L 155.297949 -63.749688 
L 155.386808 -63.749688 
L 155.475666 -63.749688 
L 155.564525 -63.749688 
L 155.653384 -63.749688 
L 155.742242 -63.749688 
L 155.831101 -63.749688 
L 155.919959 -63.749688 
L 156.008818 -63.749688 
L 156.097677 -63.749688 
L 156.186535 -63.749688 
L 156.275394 -63.749688 
L 156.364252 -63.749688 
L 156.453111 -63.749688 
L 156.541969 -63.749688 
L 156.630828 -63.749688 
L 156.719687 -63.749688 
L 156.808545 -63.749688 
L 156.897404 -63.749688 
L 156.986262 -63.749688 
L 157.075121 -63.749688 
L 157.16398 -63.749688 
L 157.252838 -63.749688 
L 157.341697 -63.749688 
L 157.430555 -63.749688 
L 157.519414 -63.749688 
L 157.608272 -63.749688 
L 157.697131 -63.749688 
L 157.78599 -63.749688 
L 157.874848 -63.749688 
L 157.963707 -63.749688 
L 158.052565 -63.749688 
L 158.141424 -63.749688 
L 158.230282 -63.749688 
L 158.319141 -63.749688 
L 158.408 -63.749688 
L 158.496858 -63.749688 
L 158.585717 -63.749688 
L 158.674575 -63.749688 
L 158.763434 -63.749688 
L 158.852293 -63.749688 
L 158.941151 -63.749688 
L 159.03001 -63.749688 
L 159.118868 -63.749688 
L 159.207727 -63.749688 
L 159.296585 -63.749688 
L 159.385444 -63.749688 
L 159.474303 -63.749688 
L 159.563161 -63.749688 
L 159.65202 -63.749688 
L 159.740878 -63.749688 
L 159.829737 -63.749688 
L 159.918596 -63.749688 
L 160.007454 -63.749688 
L 160.096313 -63.749688 
L 160.185171 -63.749688 
L 160.27403 -63.749688 
L 160.362888 -63.749688 
L 160.451747 -63.749688 
L 160.540606 -63.749688 
L 160.629464 -63.749688 
L 160.718323 -63.749688 
L 160.807181 -63.749688 
L 160.89604 -63.749688 
L 160.984898 -63.749688 
L 161.073757 -63.749688 
L 161.162616 -63.749688 
L 161.251474 -63.749688 
L 161.340333 -63.749688 
L 161.429191 -63.749688 
L 161.51805 -63.749688 
L 161.606909 -63.749688 
L 161.695767 -63.749688 
L 161.784626 -63.749688 
L 161.873484 -63.749688 
L 161.962343 -63.749688 
L 162.051201 -63.749688 
L 162.14006 -63.749688 
L 162.228919 -63.749688 
L 162.317777 -63.749688 
L 162.406636 -63.749688 
L 162.495494 -63.749688 
L 162.584353 -63.749688 
L 162.673212 -63.749688 
L 162.76207 -63.749688 
L 162.850929 -63.749688 
L 162.939787 -63.749688 
L 163.028646 -63.749688 
L 163.117504 -63.749688 
L 163.206363 -63.749688 
L 163.206363 -63.771485 
L 163.206363 -63.771485 
L 163.117504 -63.779377 
L 163.028646 -63.788209 
L 162.939787 -63.797484 
L 162.850929 -63.806662 
L 162.76207 -63.815281 
L 162.673212 -63.823052 
L 162.584353 -63.829893 
L 162.495494 -63.835913 
L 162.406636 -63.841351 
L 162.317777 -63.84651 
L 162.228919 -63.851705 
L 162.14006 -63.857227 
L 162.051201 -63.863335 
L 161.962343 -63.870268 
L 161.873484 -63.878271 
L 161.784626 -63.887625 
L 161.695767 -63.898656 
L 161.606909 -63.911726 
L 161.51805 -63.927201 
L 161.429191 -63.945417 
L 161.340333 -63.966676 
L 161.251474 -63.991251 
L 161.162616 -64.019395 
L 161.073757 -64.051333 
L 160.984898 -64.087253 
L 160.89604 -64.127355 
L 160.807181 -64.171982 
L 160.718323 -64.221845 
L 160.629464 -64.278214 
L 160.540606 -64.342946 
L 160.451747 -64.418213 
L 160.362888 -64.505924 
L 160.27403 -64.606994 
L 160.185171 -64.720749 
L 160.096313 -64.844742 
L 160.007454 -64.97515 
L 159.918596 -65.107661 
L 159.829737 -65.238568 
L 159.740878 -65.365651 
L 159.65202 -65.488519 
L 159.563161 -65.60828 
L 159.474303 -65.726734 
L 159.385444 -65.845452 
L 159.296585 -65.965155 
L 159.207727 -66.085639 
L 159.118868 -66.206187 
L 159.03001 -66.326234 
L 158.941151 -66.445999 
L 158.852293 -66.566953 
L 158.763434 -66.692213 
L 158.674575 -66.826992 
L 158.585717 -66.979066 
L 158.496858 -67.158894 
L 158.408 -67.378883 
L 158.319141 -67.651486 
L 158.230282 -67.986379 
L 158.141424 -68.387591 
L 158.052565 -68.851735 
L 157.963707 -69.368201 
L 157.874848 -69.921389 
L 157.78599 -70.494214 
L 157.697131 -71.071593 
L 157.608272 -71.642724 
L 157.519414 -72.201568 
L 157.430555 -72.745721 
L 157.341697 -73.274505 
L 157.252838 -73.787222 
L 157.16398 -74.28231 
L 157.075121 -74.757671 
L 156.986262 -75.211934 
L 156.897404 -75.646102 
L 156.808545 -76.064886 
L 156.719687 -76.477048 
L 156.630828 -76.894394 
L 156.541969 -77.329489 
L 156.453111 -77.792713 
L 156.364252 -78.289597 
L 156.275394 -78.819422 
L 156.186535 -79.375652 
L 156.097677 -79.948154 
L 156.008818 -80.526515 
L 155.919959 -81.103333 
L 155.831101 -81.676264 
L 155.742242 -82.247903 
L 155.653384 -82.823278 
L 155.564525 -83.405628 
L 155.475666 -83.99193 
L 155.386808 -84.569976 
L 155.297949 -85.118406 
L 155.209091 -85.610081 
L 155.120232 -86.017849 
L 155.031374 -86.320751 
L 154.942515 -86.508391 
L 154.853656 -86.581939 
L 154.764798 -86.551591 
L 154.675939 -86.431804 
L 154.587081 -86.236525 
L 154.498222 -85.976392 
L 154.409363 -85.658806 
L 154.320505 -85.290189 
L 154.231646 -84.878742 
L 154.142788 -84.435917 
L 154.053929 -83.975686 
L 153.965071 -83.512 
L 153.876212 -83.055755 
L 153.787353 -82.612736 
L 153.698495 -82.183328 
L 153.609636 -81.763814 
L 153.520778 -81.348334 
L 153.431919 -80.9305 
L 153.343061 -80.504128 
L 153.254202 -80.063245 
L 153.165343 -79.601939 
L 153.076485 -79.114637 
L 152.987626 -78.59699 
L 152.898768 -78.047056 
L 152.809909 -77.466245 
L 152.72105 -76.859587 
L 152.632192 -76.235216 
L 152.543333 -75.603273 
L 152.454475 -74.974539 
L 152.365616 -74.359017 
L 152.276758 -73.764544 
L 152.187899 -73.195552 
L 152.09904 -72.65232 
L 152.010182 -72.13119 
L 151.921323 -71.626063 
L 151.832465 -71.130975 
L 151.743606 -70.642859 
L 151.654747 -70.163249 
L 151.565889 -69.697982 
L 151.47703 -69.254841 
L 151.388172 -68.840183 
L 151.299313 -68.456163 
L 151.210455 -68.099954 
L 151.121596 -67.765334 
L 151.032737 -67.445839 
L 150.943879 -67.137905 
L 150.85502 -66.84253 
L 150.766162 -66.564758 
L 150.677303 -66.311351 
L 150.588444 -66.087754 
L 150.499586 -65.895642 
L 150.410727 -65.731969 
L 150.321869 -65.589718 
L 150.23301 -65.45989 
L 150.144152 -65.333888 
L 150.055293 -65.20544 
L 149.966434 -65.071545 
L 149.877576 -64.932386 
L 149.788717 -64.790542 
L 149.699859 -64.649941 
L 149.611 -64.514932 
L 149.522142 -64.389588 
L 149.433283 -64.277217 
L 149.344424 -64.179995 
L 149.255566 -64.098707 
L 149.166707 -64.032684 
L 149.077849 -63.979994 
L 148.98899 -63.937921 
L 148.900131 -63.903592 
L 148.811273 -63.87458 
L 148.722414 -63.849272 
L 148.633556 -63.826935 
L 148.544697 -63.807506 
L 148.455839 -63.791241 
L 148.36698 -63.778389 
L 148.278121 -63.768996 
L 148.189263 -63.762852 
L 148.100404 -63.75955 
L 148.011546 -63.75857 
L 147.922687 -63.759347 
L 147.833828 -63.761297 
L 147.74497 -63.763816 
L 147.656111 -63.766303 
L 147.567253 -63.768207 
L 147.478394 -63.769109 
L 147.389536 -63.768802 
L 147.300677 -63.767328 
L 147.211818 -63.764951 
L 147.12296 -63.762079 
L 147.034101 -63.75915 
L 146.945243 -63.756539 
L 146.856384 -63.754504 
L 146.767526 -63.753189 
L 146.678667 -63.752655 
L 146.589808 -63.752916 
L 146.50095 -63.753966 
L 146.412091 -63.755764 
L 146.323233 -63.7582 
L 146.234374 -63.761057 
L 146.145515 -63.763996 
L 146.056657 -63.766592 
L 145.967798 -63.768412 
L 145.87894 -63.769126 
L 145.790081 -63.768599 
L 145.701223 -63.766929 
L 145.612364 -63.764417 
L 145.523505 -63.761479 
z
" style="stroke: #21918c; stroke-width: 1.25"/>
    </defs>
    <g>
     <use xlink:href="#m30bc63ac0e" x="0" y="174.899688" style="fill: #21918c; fill-opacity: 0.7; stroke: #21918c; stroke-width: 1.25"/>
    </g>
   </g>
   <g id="line2d_7">
    <path d="M 7.2 111.15 
L 216.45 111.15 
" style="fill: none; stroke: #21918c; stroke-opacity: 0.9; stroke-linecap: round"/>
   </g>
   <g id="text_7">
    <!-- 6 -->
    <g style="fill: #21918c" transform="translate(7.2 110.30325) scale(0.12 -0.12)">
     <defs>
      <path id="DejaVuSans-Bold-36" d="M 2316 2303 
Q 2000 2303 1842 2098 
Q 1684 1894 1684 1484 
Q 1684 1075 1842 870 
Q 2000 666 2316 666 
Q 2634 666 2792 870 
Q 2950 1075 2950 1484 
Q 2950 1894 2792 2098 
Q 2634 2303 2316 2303 
z
M 3803 4544 
L 3803 3681 
Q 3506 3822 3243 3889 
Q 2981 3956 2731 3956 
Q 2194 3956 1894 3657 
Q 1594 3359 1544 2772 
Q 1750 2925 1990 3001 
Q 2231 3078 2516 3078 
Q 3231 3078 3670 2659 
Q 4109 2241 4109 1563 
Q 4109 813 3618 361 
Q 3128 -91 2303 -91 
Q 1394 -91 895 523 
Q 397 1138 397 2266 
Q 397 3422 980 4083 
Q 1563 4744 2578 4744 
Q 2900 4744 3203 4694 
Q 3506 4644 3803 4544 
z
" transform="scale(0.015625)"/>
     </defs>
     <use xlink:href="#DejaVuSans-Bold-36"/>
    </g>
   </g>
  </g>
  <g id="axes_8">
   <g id="patch_9">
    <path d="M 7.2 121.545 
L 216.45 121.545 
L 216.45 79.965 
L 7.2 79.965 
L 7.2 121.545 
z
" style="fill: none"/>
   </g>
   <g id="matplotlib.axis_15">
    <g id="xtick_22"/>
    <g id="xtick_23"/>
    <g id="xtick_24"/>
   </g>
   <g id="matplotlib.axis_16"/>
   <g id="PolyCollection_7">
    <defs>
     <path id="m2384fa95cb" d="M 54.854586 -53.365726 
L 54.854586 -53.354688 
L 54.964838 -53.354688 
L 55.075091 -53.354688 
L 55.185343 -53.354688 
L 55.295595 -53.354688 
L 55.405848 -53.354688 
L 55.5161 -53.354688 
L 55.626352 -53.354688 
L 55.736605 -53.354688 
L 55.846857 -53.354688 
L 55.957109 -53.354688 
L 56.067362 -53.354688 
L 56.177614 -53.354688 
L 56.287867 -53.354688 
L 56.398119 -53.354688 
L 56.508371 -53.354688 
L 56.618624 -53.354688 
L 56.728876 -53.354688 
L 56.839128 -53.354688 
L 56.949381 -53.354688 
L 57.059633 -53.354688 
L 57.169885 -53.354688 
L 57.280138 -53.354688 
L 57.39039 -53.354688 
L 57.500642 -53.354688 
L 57.610895 -53.354688 
L 57.721147 -53.354688 
L 57.8314 -53.354688 
L 57.941652 -53.354688 
L 58.051904 -53.354688 
L 58.162157 -53.354688 
L 58.272409 -53.354688 
L 58.382661 -53.354688 
L 58.492914 -53.354688 
L 58.603166 -53.354688 
L 58.713418 -53.354688 
L 58.823671 -53.354688 
L 58.933923 -53.354688 
L 59.044176 -53.354688 
L 59.154428 -53.354688 
L 59.26468 -53.354688 
L 59.374933 -53.354688 
L 59.485185 -53.354688 
L 59.595437 -53.354688 
L 59.70569 -53.354688 
L 59.815942 -53.354688 
L 59.926194 -53.354688 
L 60.036447 -53.354688 
L 60.146699 -53.354688 
L 60.256951 -53.354688 
L 60.367204 -53.354688 
L 60.477456 -53.354688 
L 60.587709 -53.354688 
L 60.697961 -53.354688 
L 60.808213 -53.354688 
L 60.918466 -53.354688 
L 61.028718 -53.354688 
L 61.13897 -53.354688 
L 61.249223 -53.354688 
L 61.359475 -53.354688 
L 61.469727 -53.354688 
L 61.57998 -53.354688 
L 61.690232 -53.354688 
L 61.800485 -53.354688 
L 61.910737 -53.354688 
L 62.020989 -53.354688 
L 62.131242 -53.354688 
L 62.241494 -53.354688 
L 62.351746 -53.354688 
L 62.461999 -53.354688 
L 62.572251 -53.354688 
L 62.682503 -53.354688 
L 62.792756 -53.354688 
L 62.903008 -53.354688 
L 63.01326 -53.354688 
L 63.123513 -53.354688 
L 63.233765 -53.354688 
L 63.344018 -53.354688 
L 63.45427 -53.354688 
L 63.564522 -53.354688 
L 63.674775 -53.354688 
L 63.785027 -53.354688 
L 63.895279 -53.354688 
L 64.005532 -53.354688 
L 64.115784 -53.354688 
L 64.226036 -53.354688 
L 64.336289 -53.354688 
L 64.446541 -53.354688 
L 64.556794 -53.354688 
L 64.667046 -53.354688 
L 64.777298 -53.354688 
L 64.887551 -53.354688 
L 64.997803 -53.354688 
L 65.108055 -53.354688 
L 65.218308 -53.354688 
L 65.32856 -53.354688 
L 65.438812 -53.354688 
L 65.549065 -53.354688 
L 65.659317 -53.354688 
L 65.769569 -53.354688 
L 65.879822 -53.354688 
L 65.990074 -53.354688 
L 66.100327 -53.354688 
L 66.210579 -53.354688 
L 66.320831 -53.354688 
L 66.431084 -53.354688 
L 66.541336 -53.354688 
L 66.651588 -53.354688 
L 66.761841 -53.354688 
L 66.872093 -53.354688 
L 66.982345 -53.354688 
L 67.092598 -53.354688 
L 67.20285 -53.354688 
L 67.313103 -53.354688 
L 67.423355 -53.354688 
L 67.533607 -53.354688 
L 67.64386 -53.354688 
L 67.754112 -53.354688 
L 67.864364 -53.354688 
L 67.974617 -53.354688 
L 68.084869 -53.354688 
L 68.195121 -53.354688 
L 68.305374 -53.354688 
L 68.415626 -53.354688 
L 68.525878 -53.354688 
L 68.636131 -53.354688 
L 68.746383 -53.354688 
L 68.856636 -53.354688 
L 68.966888 -53.354688 
L 69.07714 -53.354688 
L 69.187393 -53.354688 
L 69.297645 -53.354688 
L 69.407897 -53.354688 
L 69.51815 -53.354688 
L 69.628402 -53.354688 
L 69.738654 -53.354688 
L 69.848907 -53.354688 
L 69.959159 -53.354688 
L 70.069412 -53.354688 
L 70.179664 -53.354688 
L 70.289916 -53.354688 
L 70.400169 -53.354688 
L 70.510421 -53.354688 
L 70.620673 -53.354688 
L 70.730926 -53.354688 
L 70.841178 -53.354688 
L 70.95143 -53.354688 
L 71.061683 -53.354688 
L 71.171935 -53.354688 
L 71.282188 -53.354688 
L 71.39244 -53.354688 
L 71.502692 -53.354688 
L 71.612945 -53.354688 
L 71.723197 -53.354688 
L 71.833449 -53.354688 
L 71.943702 -53.354688 
L 72.053954 -53.354688 
L 72.164206 -53.354688 
L 72.274459 -53.354688 
L 72.384711 -53.354688 
L 72.494963 -53.354688 
L 72.605216 -53.354688 
L 72.715468 -53.354688 
L 72.825721 -53.354688 
L 72.935973 -53.354688 
L 73.046225 -53.354688 
L 73.156478 -53.354688 
L 73.26673 -53.354688 
L 73.376982 -53.354688 
L 73.487235 -53.354688 
L 73.597487 -53.354688 
L 73.707739 -53.354688 
L 73.817992 -53.354688 
L 73.928244 -53.354688 
L 74.038497 -53.354688 
L 74.148749 -53.354688 
L 74.259001 -53.354688 
L 74.369254 -53.354688 
L 74.479506 -53.354688 
L 74.589758 -53.354688 
L 74.700011 -53.354688 
L 74.810263 -53.354688 
L 74.920515 -53.354688 
L 75.030768 -53.354688 
L 75.14102 -53.354688 
L 75.251272 -53.354688 
L 75.361525 -53.354688 
L 75.471777 -53.354688 
L 75.58203 -53.354688 
L 75.692282 -53.354688 
L 75.802534 -53.354688 
L 75.912787 -53.354688 
L 76.023039 -53.354688 
L 76.133291 -53.354688 
L 76.243544 -53.354688 
L 76.353796 -53.354688 
L 76.464048 -53.354688 
L 76.574301 -53.354688 
L 76.684553 -53.354688 
L 76.794806 -53.354688 
L 76.794806 -53.370661 
L 76.794806 -53.370661 
L 76.684553 -53.378235 
L 76.574301 -53.387728 
L 76.464048 -53.398976 
L 76.353796 -53.411465 
L 76.243544 -53.424204 
L 76.133291 -53.435714 
L 76.023039 -53.444253 
L 75.912787 -53.448306 
L 75.802534 -53.44718 
L 75.692282 -53.441429 
L 75.58203 -53.432854 
L 75.471777 -53.424037 
L 75.361525 -53.417592 
L 75.251272 -53.41545 
L 75.14102 -53.418432 
L 75.030768 -53.426236 
L 74.920515 -53.437751 
L 74.810263 -53.451575 
L 74.700011 -53.466564 
L 74.589758 -53.482284 
L 74.479506 -53.49925 
L 74.369254 -53.518908 
L 74.259001 -53.543358 
L 74.148749 -53.574903 
L 74.038497 -53.615513 
L 73.928244 -53.666275 
L 73.817992 -53.726943 
L 73.707739 -53.795713 
L 73.597487 -53.869415 
L 73.487235 -53.944211 
L 73.376982 -54.016646 
L 73.26673 -54.084692 
L 73.156478 -54.148367 
L 73.046225 -54.209837 
L 72.935973 -54.273129 
L 72.825721 -54.343648 
L 72.715468 -54.427472 
L 72.605216 -54.530216 
L 72.494963 -54.655538 
L 72.384711 -54.803814 
L 72.274459 -54.971808 
L 72.164206 -55.153771 
L 72.053954 -55.343657 
L 71.943702 -55.5374 
L 71.833449 -55.734156 
L 71.723197 -55.935927 
L 71.612945 -56.145825 
L 71.502692 -56.36599 
L 71.39244 -56.596473 
L 71.282188 -56.83604 
L 71.171935 -57.084803 
L 71.061683 -57.347343 
L 70.95143 -57.634238 
L 70.841178 -57.960409 
L 70.730926 -58.340409 
L 70.620673 -58.782708 
L 70.510421 -59.286032 
L 70.400169 -59.840008 
L 70.289916 -60.430041 
L 70.179664 -61.043903 
L 70.069412 -61.67649 
L 69.959159 -62.33037 
L 69.848907 -63.012348 
L 69.738654 -63.728558 
L 69.628402 -64.48094 
L 69.51815 -65.266345 
L 69.407897 -66.077334 
L 69.297645 -66.902786 
L 69.187393 -67.727403 
L 69.07714 -68.531233 
L 68.966888 -69.291524 
L 68.856636 -69.988143 
L 68.746383 -70.610792 
L 68.636131 -71.16358 
L 68.525878 -71.662827 
L 68.415626 -72.127847 
L 68.305374 -72.56949 
L 68.195121 -72.983494 
L 68.084869 -73.353029 
L 67.974617 -73.658853 
L 67.864364 -73.890428 
L 67.754112 -74.05095 
L 67.64386 -74.153579 
L 67.533607 -74.212059 
L 67.423355 -74.232081 
L 67.313103 -74.208458 
L 67.20285 -74.128787 
L 67.092598 -73.980333 
L 66.982345 -73.7558 
L 66.872093 -73.455506 
L 66.761841 -73.086114 
L 66.651588 -72.657645 
L 66.541336 -72.180566 
L 66.431084 -71.664078 
L 66.320831 -71.115973 
L 66.210579 -70.543593 
L 66.100327 -69.954669 
L 65.990074 -69.356771 
L 65.879822 -68.755245 
L 65.769569 -68.151155 
L 65.659317 -67.541276 
L 65.549065 -66.920771 
L 65.438812 -66.286984 
L 65.32856 -65.641779 
L 65.218308 -64.991042 
L 65.108055 -64.342186 
L 64.997803 -63.701791 
L 64.887551 -63.074964 
L 64.777298 -62.466288 
L 64.667046 -61.880982 
L 64.556794 -61.324898 
L 64.446541 -60.803097 
L 64.336289 -60.317972 
L 64.226036 -59.868261 
L 64.115784 -59.449752 
L 64.005532 -59.057233 
L 63.895279 -58.686447 
L 63.785027 -58.334801 
L 63.674775 -58.000508 
L 63.564522 -57.681022 
L 63.45427 -57.37206 
L 63.344018 -57.068074 
L 63.233765 -56.763981 
L 63.123513 -56.457134 
L 63.01326 -56.148503 
L 62.903008 -55.842615 
L 62.792756 -55.546502 
L 62.682503 -55.268209 
L 62.572251 -55.015328 
L 62.461999 -54.793717 
L 62.351746 -54.606501 
L 62.241494 -54.45351 
L 62.131242 -54.331314 
L 62.020989 -54.233947 
L 61.910737 -54.154095 
L 61.800485 -54.084495 
L 61.690232 -54.019208 
L 61.57998 -53.954573 
L 61.469727 -53.889599 
L 61.359475 -53.825624 
L 61.249223 -53.765273 
L 61.13897 -53.711081 
L 61.028718 -53.664413 
L 60.918466 -53.625178 
L 60.808213 -53.592381 
L 60.697961 -53.565023 
L 60.587709 -53.542697 
L 60.477456 -53.525483 
L 60.367204 -53.513259 
L 60.256951 -53.504976 
L 60.146699 -53.498448 
L 60.036447 -53.490892 
L 59.926194 -53.479966 
L 59.815942 -53.46474 
L 59.70569 -53.446063 
L 59.595437 -53.426167 
L 59.485185 -53.407739 
L 59.374933 -53.392947 
L 59.26468 -53.382828 
L 59.154428 -53.377173 
L 59.044176 -53.374844 
L 58.933923 -53.374282 
L 58.823671 -53.374028 
L 58.713418 -53.37309 
L 58.603166 -53.371096 
L 58.492914 -53.368219 
L 58.382661 -53.364951 
L 58.272409 -53.361831 
L 58.162157 -53.359245 
L 58.051904 -53.357352 
L 57.941652 -53.356114 
L 57.8314 -53.355388 
L 57.721147 -53.355002 
L 57.610895 -53.354817 
L 57.500642 -53.354736 
L 57.39039 -53.354704 
L 57.280138 -53.354693 
L 57.169885 -53.354689 
L 57.059633 -53.354688 
L 56.949381 -53.354688 
L 56.839128 -53.354689 
L 56.728876 -53.354693 
L 56.618624 -53.354704 
L 56.508371 -53.354736 
L 56.398119 -53.354817 
L 56.287867 -53.355002 
L 56.177614 -53.355387 
L 56.067362 -53.356113 
L 55.957109 -53.357349 
L 55.846857 -53.359239 
L 55.736605 -53.36182 
L 55.626352 -53.364925 
L 55.5161 -53.368149 
L 55.405848 -53.370903 
L 55.295595 -53.37258 
L 55.185343 -53.372774 
L 55.075091 -53.371435 
L 54.964838 -53.368893 
L 54.854586 -53.365726 
z
" style="stroke: #355f8d; stroke-width: 1.25"/>
    </defs>
    <g>
     <use xlink:href="#m2384fa95cb" x="0" y="174.899688" style="fill: #355f8d; fill-opacity: 0.7; stroke: #355f8d; stroke-width: 1.25"/>
    </g>
   </g>
   <g id="line2d_8">
    <path d="M 7.2 121.545 
L 216.45 121.545 
" style="fill: none; stroke: #355f8d; stroke-opacity: 0.9; stroke-linecap: round"/>
   </g>
   <g id="text_8">
    <!-- 7 -->
    <g style="fill: #355f8d" transform="translate(7.2 120.69825) scale(0.12 -0.12)">
     <defs>
      <path id="DejaVuSans-Bold-37" d="M 428 4666 
L 3944 4666 
L 3944 3988 
L 2125 0 
L 953 0 
L 2675 3781 
L 428 3781 
L 428 4666 
z
" transform="scale(0.015625)"/>
     </defs>
     <use xlink:href="#DejaVuSans-Bold-37"/>
    </g>
   </g>
  </g>
  <g id="axes_9">
   <g id="patch_10">
    <path d="M 7.2 131.94 
L 216.45 131.94 
L 216.45 90.36 
L 7.2 90.36 
L 7.2 131.94 
z
" style="fill: none"/>
   </g>
   <g id="matplotlib.axis_17">
    <g id="xtick_25">
     <g id="text_9">
      <!-- 0.0 -->
      <g style="fill: #838383" transform="translate(19.412586 149.798281) scale(0.11 -0.11)">
       <defs>
        <path id="DejaVuSans-30" d="M 2034 4250 
Q 1547 4250 1301 3770 
Q 1056 3291 1056 2328 
Q 1056 1369 1301 889 
Q 1547 409 2034 409 
Q 2525 409 2770 889 
Q 3016 1369 3016 2328 
Q 3016 3291 2770 3770 
Q 2525 4250 2034 4250 
z
M 2034 4750 
Q 2819 4750 3233 4129 
Q 3647 3509 3647 2328 
Q 3647 1150 3233 529 
Q 2819 -91 2034 -91 
Q 1250 -91 836 529 
Q 422 1150 422 2328 
Q 422 3509 836 4129 
Q 1250 4750 2034 4750 
z
" transform="scale(0.015625)"/>
        <path id="DejaVuSans-2e" d="M 684 794 
L 1344 794 
L 1344 0 
L 684 0 
L 684 794 
z
" transform="scale(0.015625)"/>
       </defs>
       <use xlink:href="#DejaVuSans-30"/>
       <use xlink:href="#DejaVuSans-2e" x="63.623047"/>
       <use xlink:href="#DejaVuSans-30" x="95.410156"/>
      </g>
     </g>
    </g>
    <g id="xtick_26">
     <g id="text_10">
      <!-- 0.5 -->
      <g style="fill: #838383" transform="translate(98.758283 149.798281) scale(0.11 -0.11)">
       <defs>
        <path id="DejaVuSans-35" d="M 691 4666 
L 3169 4666 
L 3169 4134 
L 1269 4134 
L 1269 2991 
Q 1406 3038 1543 3061 
Q 1681 3084 1819 3084 
Q 2600 3084 3056 2656 
Q 3513 2228 3513 1497 
Q 3513 744 3044 326 
Q 2575 -91 1722 -91 
Q 1428 -91 1123 -41 
Q 819 9 494 109 
L 494 744 
Q 775 591 1075 516 
Q 1375 441 1709 441 
Q 2250 441 2565 725 
Q 2881 1009 2881 1497 
Q 2881 1984 2565 2268 
Q 2250 2553 1709 2553 
Q 1456 2553 1204 2497 
Q 953 2441 691 2322 
L 691 4666 
z
" transform="scale(0.015625)"/>
       </defs>
       <use xlink:href="#DejaVuSans-30"/>
       <use xlink:href="#DejaVuSans-2e" x="63.623047"/>
       <use xlink:href="#DejaVuSans-35" x="95.410156"/>
      </g>
     </g>
    </g>
    <g id="xtick_27">
     <g id="text_11">
      <!-- 1.0 -->
      <g style="fill: #838383" transform="translate(178.103979 149.798281) scale(0.11 -0.11)">
       <defs>
        <path id="DejaVuSans-31" d="M 794 531 
L 1825 531 
L 1825 4091 
L 703 3866 
L 703 4441 
L 1819 4666 
L 2450 4666 
L 2450 531 
L 3481 531 
L 3481 0 
L 794 0 
L 794 531 
z
" transform="scale(0.015625)"/>
       </defs>
       <use xlink:href="#DejaVuSans-31"/>
       <use xlink:href="#DejaVuSans-2e" x="63.623047"/>
       <use xlink:href="#DejaVuSans-30" x="95.410156"/>
      </g>
     </g>
    </g>
    <g id="text_12">
     <!-- logdet -->
     <g style="fill: #262626" transform="translate(92.824688 165.204063) scale(0.12 -0.12)">
      <defs>
       <path id="DejaVuSans-6c" d="M 603 4863 
L 1178 4863 
L 1178 0 
L 603 0 
L 603 4863 
z
" transform="scale(0.015625)"/>
       <path id="DejaVuSans-6f" d="M 1959 3097 
Q 1497 3097 1228 2736 
Q 959 2375 959 1747 
Q 959 1119 1226 758 
Q 1494 397 1959 397 
Q 2419 397 2687 759 
Q 2956 1122 2956 1747 
Q 2956 2369 2687 2733 
Q 2419 3097 1959 3097 
z
M 1959 3584 
Q 2709 3584 3137 3096 
Q 3566 2609 3566 1747 
Q 3566 888 3137 398 
Q 2709 -91 1959 -91 
Q 1206 -91 779 398 
Q 353 888 353 1747 
Q 353 2609 779 3096 
Q 1206 3584 1959 3584 
z
" transform="scale(0.015625)"/>
       <path id="DejaVuSans-67" d="M 2906 1791 
Q 2906 2416 2648 2759 
Q 2391 3103 1925 3103 
Q 1463 3103 1205 2759 
Q 947 2416 947 1791 
Q 947 1169 1205 825 
Q 1463 481 1925 481 
Q 2391 481 2648 825 
Q 2906 1169 2906 1791 
z
M 3481 434 
Q 3481 -459 3084 -895 
Q 2688 -1331 1869 -1331 
Q 1566 -1331 1297 -1286 
Q 1028 -1241 775 -1147 
L 775 -588 
Q 1028 -725 1275 -790 
Q 1522 -856 1778 -856 
Q 2344 -856 2625 -561 
Q 2906 -266 2906 331 
L 2906 616 
Q 2728 306 2450 153 
Q 2172 0 1784 0 
Q 1141 0 747 490 
Q 353 981 353 1791 
Q 353 2603 747 3093 
Q 1141 3584 1784 3584 
Q 2172 3584 2450 3431 
Q 2728 3278 2906 2969 
L 2906 3500 
L 3481 3500 
L 3481 434 
z
" transform="scale(0.015625)"/>
       <path id="DejaVuSans-64" d="M 2906 2969 
L 2906 4863 
L 3481 4863 
L 3481 0 
L 2906 0 
L 2906 525 
Q 2725 213 2448 61 
Q 2172 -91 1784 -91 
Q 1150 -91 751 415 
Q 353 922 353 1747 
Q 353 2572 751 3078 
Q 1150 3584 1784 3584 
Q 2172 3584 2448 3432 
Q 2725 3281 2906 2969 
z
M 947 1747 
Q 947 1113 1208 752 
Q 1469 391 1925 391 
Q 2381 391 2643 752 
Q 2906 1113 2906 1747 
Q 2906 2381 2643 2742 
Q 2381 3103 1925 3103 
Q 1469 3103 1208 2742 
Q 947 2381 947 1747 
z
" transform="scale(0.015625)"/>
       <path id="DejaVuSans-65" d="M 3597 1894 
L 3597 1613 
L 953 1613 
Q 991 1019 1311 708 
Q 1631 397 2203 397 
Q 2534 397 2845 478 
Q 3156 559 3463 722 
L 3463 178 
Q 3153 47 2828 -22 
Q 2503 -91 2169 -91 
Q 1331 -91 842 396 
Q 353 884 353 1716 
Q 353 2575 817 3079 
Q 1281 3584 2069 3584 
Q 2775 3584 3186 3129 
Q 3597 2675 3597 1894 
z
M 3022 2063 
Q 3016 2534 2758 2815 
Q 2500 3097 2075 3097 
Q 1594 3097 1305 2825 
Q 1016 2553 972 2059 
L 3022 2063 
z
" transform="scale(0.015625)"/>
       <path id="DejaVuSans-74" d="M 1172 4494 
L 1172 3500 
L 2356 3500 
L 2356 3053 
L 1172 3053 
L 1172 1153 
Q 1172 725 1289 603 
Q 1406 481 1766 481 
L 2356 481 
L 2356 0 
L 1766 0 
Q 1100 0 847 248 
Q 594 497 594 1153 
L 594 3053 
L 172 3053 
L 172 3500 
L 594 3500 
L 594 4494 
L 1172 4494 
z
" transform="scale(0.015625)"/>
      </defs>
      <use xlink:href="#DejaVuSans-6c"/>
      <use xlink:href="#DejaVuSans-6f" x="27.783203"/>
      <use xlink:href="#DejaVuSans-67" x="88.964844"/>
      <use xlink:href="#DejaVuSans-64" x="152.441406"/>
      <use xlink:href="#DejaVuSans-65" x="215.917969"/>
      <use xlink:href="#DejaVuSans-74" x="277.441406"/>
     </g>
    </g>
   </g>
   <g id="matplotlib.axis_18"/>
   <g id="PolyCollection_8">
    <defs>
     <path id="m6954ebe4f4" d="M 16.711364 -42.971443 
L 16.711364 -42.959688 
L 16.814312 -42.959688 
L 16.91726 -42.959688 
L 17.020208 -42.959688 
L 17.123156 -42.959688 
L 17.226104 -42.959688 
L 17.329052 -42.959688 
L 17.432 -42.959688 
L 17.534948 -42.959688 
L 17.637895 -42.959688 
L 17.740843 -42.959688 
L 17.843791 -42.959688 
L 17.946739 -42.959688 
L 18.049687 -42.959688 
L 18.152635 -42.959688 
L 18.255583 -42.959688 
L 18.358531 -42.959688 
L 18.461479 -42.959688 
L 18.564427 -42.959688 
L 18.667375 -42.959688 
L 18.770323 -42.959688 
L 18.873271 -42.959688 
L 18.976219 -42.959688 
L 19.079167 -42.959688 
L 19.182115 -42.959688 
L 19.285063 -42.959688 
L 19.388011 -42.959688 
L 19.490959 -42.959688 
L 19.593907 -42.959688 
L 19.696855 -42.959688 
L 19.799803 -42.959688 
L 19.902751 -42.959688 
L 20.005699 -42.959688 
L 20.108647 -42.959688 
L 20.211595 -42.959688 
L 20.314543 -42.959688 
L 20.417491 -42.959688 
L 20.520439 -42.959688 
L 20.623387 -42.959688 
L 20.726335 -42.959688 
L 20.829283 -42.959688 
L 20.932231 -42.959688 
L 21.035179 -42.959688 
L 21.138127 -42.959688 
L 21.241075 -42.959688 
L 21.344023 -42.959688 
L 21.446971 -42.959688 
L 21.549919 -42.959688 
L 21.652867 -42.959688 
L 21.755815 -42.959688 
L 21.858763 -42.959688 
L 21.961711 -42.959688 
L 22.064659 -42.959688 
L 22.167607 -42.959688 
L 22.270555 -42.959688 
L 22.373503 -42.959688 
L 22.476451 -42.959688 
L 22.579399 -42.959688 
L 22.682347 -42.959688 
L 22.785295 -42.959688 
L 22.888243 -42.959688 
L 22.991191 -42.959688 
L 23.094139 -42.959688 
L 23.197087 -42.959688 
L 23.300035 -42.959688 
L 23.402983 -42.959688 
L 23.505931 -42.959688 
L 23.608879 -42.959688 
L 23.711827 -42.959688 
L 23.814775 -42.959688 
L 23.917723 -42.959688 
L 24.020671 -42.959688 
L 24.123619 -42.959688 
L 24.226566 -42.959688 
L 24.329514 -42.959688 
L 24.432462 -42.959688 
L 24.53541 -42.959688 
L 24.638358 -42.959688 
L 24.741306 -42.959688 
L 24.844254 -42.959688 
L 24.947202 -42.959688 
L 25.05015 -42.959688 
L 25.153098 -42.959688 
L 25.256046 -42.959688 
L 25.358994 -42.959688 
L 25.461942 -42.959688 
L 25.56489 -42.959688 
L 25.667838 -42.959688 
L 25.770786 -42.959688 
L 25.873734 -42.959688 
L 25.976682 -42.959688 
L 26.07963 -42.959688 
L 26.182578 -42.959688 
L 26.285526 -42.959688 
L 26.388474 -42.959688 
L 26.491422 -42.959688 
L 26.59437 -42.959688 
L 26.697318 -42.959688 
L 26.800266 -42.959688 
L 26.903214 -42.959688 
L 27.006162 -42.959688 
L 27.10911 -42.959688 
L 27.212058 -42.959688 
L 27.315006 -42.959688 
L 27.417954 -42.959688 
L 27.520902 -42.959688 
L 27.62385 -42.959688 
L 27.726798 -42.959688 
L 27.829746 -42.959688 
L 27.932694 -42.959688 
L 28.035642 -42.959688 
L 28.13859 -42.959688 
L 28.241538 -42.959688 
L 28.344486 -42.959688 
L 28.447434 -42.959688 
L 28.550382 -42.959688 
L 28.65333 -42.959688 
L 28.756278 -42.959688 
L 28.859226 -42.959688 
L 28.962174 -42.959688 
L 29.065122 -42.959688 
L 29.16807 -42.959688 
L 29.271018 -42.959688 
L 29.373966 -42.959688 
L 29.476914 -42.959688 
L 29.579862 -42.959688 
L 29.68281 -42.959688 
L 29.785758 -42.959688 
L 29.888706 -42.959688 
L 29.991654 -42.959688 
L 30.094602 -42.959688 
L 30.19755 -42.959688 
L 30.300498 -42.959688 
L 30.403446 -42.959688 
L 30.506394 -42.959688 
L 30.609342 -42.959688 
L 30.71229 -42.959688 
L 30.815237 -42.959688 
L 30.918185 -42.959688 
L 31.021133 -42.959688 
L 31.124081 -42.959688 
L 31.227029 -42.959688 
L 31.329977 -42.959688 
L 31.432925 -42.959688 
L 31.535873 -42.959688 
L 31.638821 -42.959688 
L 31.741769 -42.959688 
L 31.844717 -42.959688 
L 31.947665 -42.959688 
L 32.050613 -42.959688 
L 32.153561 -42.959688 
L 32.256509 -42.959688 
L 32.359457 -42.959688 
L 32.462405 -42.959688 
L 32.565353 -42.959688 
L 32.668301 -42.959688 
L 32.771249 -42.959688 
L 32.874197 -42.959688 
L 32.977145 -42.959688 
L 33.080093 -42.959688 
L 33.183041 -42.959688 
L 33.285989 -42.959688 
L 33.388937 -42.959688 
L 33.491885 -42.959688 
L 33.594833 -42.959688 
L 33.697781 -42.959688 
L 33.800729 -42.959688 
L 33.903677 -42.959688 
L 34.006625 -42.959688 
L 34.109573 -42.959688 
L 34.212521 -42.959688 
L 34.315469 -42.959688 
L 34.418417 -42.959688 
L 34.521365 -42.959688 
L 34.624313 -42.959688 
L 34.727261 -42.959688 
L 34.830209 -42.959688 
L 34.933157 -42.959688 
L 35.036105 -42.959688 
L 35.139053 -42.959688 
L 35.242001 -42.959688 
L 35.344949 -42.959688 
L 35.447897 -42.959688 
L 35.550845 -42.959688 
L 35.653793 -42.959688 
L 35.756741 -42.959688 
L 35.859689 -42.959688 
L 35.962637 -42.959688 
L 36.065585 -42.959688 
L 36.168533 -42.959688 
L 36.271481 -42.959688 
L 36.374429 -42.959688 
L 36.477377 -42.959688 
L 36.580325 -42.959688 
L 36.683273 -42.959688 
L 36.786221 -42.959688 
L 36.889169 -42.959688 
L 36.992117 -42.959688 
L 37.095065 -42.959688 
L 37.198013 -42.959688 
L 37.198013 -42.971754 
L 37.198013 -42.971754 
L 37.095065 -42.975556 
L 36.992117 -42.979201 
L 36.889169 -42.982468 
L 36.786221 -42.985523 
L 36.683273 -42.988984 
L 36.580325 -42.993735 
L 36.477377 -43.00053 
L 36.374429 -43.009553 
L 36.271481 -43.020164 
L 36.168533 -43.030956 
L 36.065585 -43.04014 
L 35.962637 -43.046089 
L 35.859689 -43.047837 
L 35.756741 -43.045362 
L 35.653793 -43.039583 
L 35.550845 -43.032114 
L 35.447897 -43.024901 
L 35.344949 -43.019876 
L 35.242001 -43.018728 
L 35.139053 -43.022785 
L 35.036105 -43.032965 
L 34.933157 -43.049715 
L 34.830209 -43.072983 
L 34.727261 -43.10224 
L 34.624313 -43.136601 
L 34.521365 -43.175018 
L 34.418417 -43.216543 
L 34.315469 -43.260628 
L 34.212521 -43.307454 
L 34.109573 -43.358174 
L 34.006625 -43.414881 
L 33.903677 -43.480186 
L 33.800729 -43.556409 
L 33.697781 -43.644631 
L 33.594833 -43.743923 
L 33.491885 -43.851163 
L 33.388937 -43.961697 
L 33.285989 -44.070887 
L 33.183041 -44.176104 
L 33.080093 -44.278339 
L 32.977145 -44.382566 
L 32.874197 -44.496495 
L 32.771249 -44.628146 
L 32.668301 -44.783253 
L 32.565353 -44.963548 
L 32.462405 -45.166417 
L 32.359457 -45.385874 
L 32.256509 -45.614391 
L 32.153561 -45.845144 
L 32.050613 -46.074244 
L 31.947665 -46.302453 
L 31.844717 -46.535785 
L 31.741769 -46.784557 
L 31.638821 -47.061046 
L 31.535873 -47.376645 
L 31.432925 -47.739698 
L 31.329977 -48.154785 
L 31.227029 -48.623283 
L 31.124081 -49.144296 
L 31.021133 -49.715117 
L 30.918185 -50.331 
L 30.815237 -50.984868 
L 30.71229 -51.667812 
L 30.609342 -52.370804 
L 30.506394 -53.087152 
L 30.403446 -53.814252 
L 30.300498 -54.553031 
L 30.19755 -55.304472 
L 30.094602 -56.064645 
L 29.991654 -56.821485 
L 29.888706 -57.556508 
L 29.785758 -58.252086 
L 29.68281 -58.901158 
L 29.579862 -59.51385 
L 29.476914 -60.116249 
L 29.373966 -60.740415 
L 29.271018 -61.409387 
L 29.16807 -62.123945 
L 29.065122 -62.857528 
L 28.962174 -63.562219 
L 28.859226 -64.183659 
L 28.756278 -64.67862 
L 28.65333 -65.027835 
L 28.550382 -65.239213 
L 28.447434 -65.341357 
L 28.344486 -65.371655 
L 28.241538 -65.364616 
L 28.13859 -65.344275 
L 28.035642 -65.321147 
L 27.932694 -65.291948 
L 27.829746 -65.240562 
L 27.726798 -65.140476 
L 27.62385 -64.959987 
L 27.520902 -64.670368 
L 27.417954 -64.254645 
L 27.315006 -63.713005 
L 27.212058 -63.061976 
L 27.10911 -62.327878 
L 27.006162 -61.538355 
L 26.903214 -60.716474 
L 26.800266 -59.879667 
L 26.697318 -59.042289 
L 26.59437 -58.218299 
L 26.491422 -57.421085 
L 26.388474 -56.660256 
L 26.285526 -55.938106 
L 26.182578 -55.249252 
L 26.07963 -54.584829 
L 25.976682 -53.939046 
L 25.873734 -53.313805 
L 25.770786 -52.718093 
L 25.667838 -52.16253 
L 25.56489 -51.65276 
L 25.461942 -51.185928 
L 25.358994 -50.751967 
L 25.256046 -50.338038 
L 25.153098 -49.932884 
L 25.05015 -49.528794 
L 24.947202 -49.121187 
L 24.844254 -48.707472 
L 24.741306 -48.286726 
L 24.638358 -47.860416 
L 24.53541 -47.433167 
L 24.432462 -47.012445 
L 24.329514 -46.60697 
L 24.226566 -46.22469 
L 24.123619 -45.871427 
L 24.020671 -45.550688 
L 23.917723 -45.264282 
L 23.814775 -45.012965 
L 23.711827 -44.796586 
L 23.608879 -44.61374 
L 23.505931 -44.461376 
L 23.402983 -44.334812 
L 23.300035 -44.228343 
L 23.197087 -44.136201 
L 23.094139 -44.053388 
L 22.991191 -43.975984 
L 22.888243 -43.900969 
L 22.785295 -43.825977 
L 22.682347 -43.749413 
L 22.579399 -43.670958 
L 22.476451 -43.591977 
L 22.373503 -43.515293 
L 22.270555 -43.444219 
L 22.167607 -43.38129 
L 22.064659 -43.327381 
L 21.961711 -43.281659 
L 21.858763 -43.242286 
L 21.755815 -43.2074 
L 21.652867 -43.175863 
L 21.549919 -43.147453 
L 21.446971 -43.122531 
L 21.344023 -43.101501 
L 21.241075 -43.084396 
L 21.138127 -43.070805 
L 21.035179 -43.060092 
L 20.932231 -43.051655 
L 20.829283 -43.04502 
L 20.726335 -43.039731 
L 20.623387 -43.035183 
L 20.520439 -43.030587 
L 20.417491 -43.025143 
L 20.314543 -43.018319 
L 20.211595 -43.010066 
L 20.108647 -43.000845 
L 20.005699 -42.991447 
L 19.902751 -42.982724 
L 19.799803 -42.975335 
L 19.696855 -42.96961 
L 19.593907 -42.965545 
L 19.490959 -42.9629 
L 19.388011 -42.96132 
L 19.285063 -42.960455 
L 19.182115 -42.960021 
L 19.079167 -42.959821 
L 18.976219 -42.959737 
L 18.873271 -42.959704 
L 18.770323 -42.959693 
L 18.667375 -42.95969 
L 18.564427 -42.95969 
L 18.461479 -42.959694 
L 18.358531 -42.959707 
L 18.255583 -42.959744 
L 18.152635 -42.959836 
L 18.049687 -42.960043 
L 17.946739 -42.960471 
L 17.843791 -42.961269 
L 17.740843 -42.962615 
L 17.637895 -42.964656 
L 17.534948 -42.967421 
L 17.432 -42.970726 
L 17.329052 -42.974134 
L 17.226104 -42.977025 
L 17.123156 -42.978765 
L 17.020208 -42.978938 
L 16.91726 -42.977499 
L 16.814312 -42.974798 
L 16.711364 -42.971443 
z
" style="stroke: #482475; stroke-width: 1.25"/>
    </defs>
    <g>
     <use xlink:href="#m6954ebe4f4" x="0" y="174.899688" style="fill: #482475; fill-opacity: 0.7; stroke: #482475; stroke-width: 1.25"/>
    </g>
   </g>
   <g id="line2d_9">
    <path d="M 7.2 131.94 
L 216.45 131.94 
" style="fill: none; stroke: #482475; stroke-opacity: 0.9; stroke-linecap: round"/>
   </g>
   <g id="text_13">
    <!-- 8 -->
    <g style="fill: #482475" transform="translate(7.2 131.09325) scale(0.12 -0.12)">
     <defs>
      <path id="DejaVuSans-Bold-38" d="M 2228 2088 
Q 1891 2088 1709 1903 
Q 1528 1719 1528 1375 
Q 1528 1031 1709 848 
Q 1891 666 2228 666 
Q 2563 666 2741 848 
Q 2919 1031 2919 1375 
Q 2919 1722 2741 1905 
Q 2563 2088 2228 2088 
z
M 1350 2484 
Q 925 2613 709 2878 
Q 494 3144 494 3541 
Q 494 4131 934 4440 
Q 1375 4750 2228 4750 
Q 3075 4750 3515 4442 
Q 3956 4134 3956 3541 
Q 3956 3144 3739 2878 
Q 3522 2613 3097 2484 
Q 3572 2353 3814 2058 
Q 4056 1763 4056 1313 
Q 4056 619 3595 264 
Q 3134 -91 2228 -91 
Q 1319 -91 855 264 
Q 391 619 391 1313 
Q 391 1763 633 2058 
Q 875 2353 1350 2484 
z
M 1631 3419 
Q 1631 3141 1786 2991 
Q 1941 2841 2228 2841 
Q 2509 2841 2662 2991 
Q 2816 3141 2816 3419 
Q 2816 3697 2662 3845 
Q 2509 3994 2228 3994 
Q 1941 3994 1786 3844 
Q 1631 3694 1631 3419 
z
" transform="scale(0.015625)"/>
     </defs>
     <use xlink:href="#DejaVuSans-Bold-38"/>
    </g>
   </g>
  </g>
 </g>
</svg>
