<?xml version="1.0" encoding="utf-8" standalone="no"?>
<!DOCTYPE svg PUBLIC "-//W3C//DTD SVG 1.1//EN"
  "http://www.w3.org/Graphics/SVG/1.1/DTD/svg11.dtd">
<svg xmlns:xlink="http://www.w3.org/1999/xlink" width="331.025772pt" height="234.534474pt" viewBox="0 0 331.025772 234.534474" xmlns="http://www.w3.org/2000/svg" version="1.1">
 <metadata>
  <rdf:RDF xmlns:dc="http://purl.org/dc/elements/1.1/" xmlns:cc="http://creativecommons.org/ns#" xmlns:rdf="http://www.w3.org/1999/02/22-rdf-syntax-ns#">
   <cc:Work>
    <dc:type rdf:resource="http://purl.org/dc/dcmitype/StillImage"/>
    <dc:date>2023-12-05T11:41:52.894752</dc:date>
    <dc:format>image/svg+xml</dc:format>
    <dc:creator>
     <cc:Agent>
      <dc:title>Matplotlib v3.8.2, https://matplotlib.org/</dc:title>
     </cc:Agent>
    </dc:creator>
   </cc:Work>
  </rdf:RDF>
 </metadata>
 <defs>
  <style type="text/css">*{stroke-linejoin: round; stroke-linecap: butt}</style>
 </defs>
 <g id="figure_1">
  <g id="patch_1">
   <path d="M 0 234.534474 
L 331.025772 234.534474 
L 331.025772 0 
L 0 0 
L 0 234.534474 
z
" style="fill: none"/>
  </g>
  <g id="axes_1">
   <g id="patch_2">
    <path d="M 55.4625 192.009865 
L 321.83859 192.009865 
L 321.83859 28.442513 
L 55.4625 28.442513 
L 55.4625 192.009865 
z
" style="fill: none"/>
   </g>
   <g id="matplotlib.axis_1">
    <g id="xtick_1">
     <g id="text_1">
      <!-- 0 -->
      <g style="fill: #838383" transform="translate(63.196285 205.957716) scale(0.1375 -0.1375)">
       <defs>
        <path id="DejaVuSans-30" d="M 2034 4250 
Q 1547 4250 1301 3770 
Q 1056 3291 1056 2328 
Q 1056 1369 1301 889 
Q 1547 409 2034 409 
Q 2525 409 2770 889 
Q 3016 1369 3016 2328 
Q 3016 3291 2770 3770 
Q 2525 4250 2034 4250 
z
M 2034 4750 
Q 2819 4750 3233 4129 
Q 3647 3509 3647 2328 
Q 3647 1150 3233 529 
Q 2819 -91 2034 -91 
Q 1250 -91 836 529 
Q 422 1150 422 2328 
Q 422 3509 836 4129 
Q 1250 4750 2034 4750 
z
" transform="scale(0.015625)"/>
       </defs>
       <use xlink:href="#DejaVuSans-30"/>
      </g>
     </g>
    </g>
    <g id="xtick_2">
     <g id="text_2">
      <!-- 50 -->
      <g style="fill: #838383" transform="translate(107.448589 205.957716) scale(0.1375 -0.1375)">
       <defs>
        <path id="DejaVuSans-35" d="M 691 4666 
L 3169 4666 
L 3169 4134 
L 1269 4134 
L 1269 2991 
Q 1406 3038 1543 3061 
Q 1681 3084 1819 3084 
Q 2600 3084 3056 2656 
Q 3513 2228 3513 1497 
Q 3513 744 3044 326 
Q 2575 -91 1722 -91 
Q 1428 -91 1123 -41 
Q 819 9 494 109 
L 494 744 
Q 775 591 1075 516 
Q 1375 441 1709 441 
Q 2250 441 2565 725 
Q 2881 1009 2881 1497 
Q 2881 1984 2565 2268 
Q 2250 2553 1709 2553 
Q 1456 2553 1204 2497 
Q 953 2441 691 2322 
L 691 4666 
z
" transform="scale(0.015625)"/>
       </defs>
       <use xlink:href="#DejaVuSans-35"/>
       <use xlink:href="#DejaVuSans-30" x="63.623047"/>
      </g>
     </g>
    </g>
    <g id="xtick_3">
     <g id="text_3">
      <!-- 100 -->
      <g style="fill: #838383" transform="translate(151.700893 205.957716) scale(0.1375 -0.1375)">
       <defs>
        <path id="DejaVuSans-31" d="M 794 531 
L 1825 531 
L 1825 4091 
L 703 3866 
L 703 4441 
L 1819 4666 
L 2450 4666 
L 2450 531 
L 3481 531 
L 3481 0 
L 794 0 
L 794 531 
z
" transform="scale(0.015625)"/>
       </defs>
       <use xlink:href="#DejaVuSans-31"/>
       <use xlink:href="#DejaVuSans-30" x="63.623047"/>
       <use xlink:href="#DejaVuSans-30" x="127.246094"/>
      </g>
     </g>
    </g>
    <g id="xtick_4">
     <g id="text_4">
      <!-- 150 -->
      <g style="fill: #838383" transform="translate(200.327415 205.957716) scale(0.1375 -0.1375)">
       <use xlink:href="#DejaVuSans-31"/>
       <use xlink:href="#DejaVuSans-35" x="63.623047"/>
       <use xlink:href="#DejaVuSans-30" x="127.246094"/>
      </g>
     </g>
    </g>
    <g id="xtick_5">
     <g id="text_5">
      <!-- 200 -->
      <g style="fill: #838383" transform="translate(248.953937 205.957716) scale(0.1375 -0.1375)">
       <defs>
        <path id="DejaVuSans-32" d="M 1228 531 
L 3431 531 
L 3431 0 
L 469 0 
L 469 531 
Q 828 903 1448 1529 
Q 2069 2156 2228 2338 
Q 2531 2678 2651 2914 
Q 2772 3150 2772 3378 
Q 2772 3750 2511 3984 
Q 2250 4219 1831 4219 
Q 1534 4219 1204 4116 
Q 875 4013 500 3803 
L 500 4441 
Q 881 4594 1212 4672 
Q 1544 4750 1819 4750 
Q 2544 4750 2975 4387 
Q 3406 4025 3406 3419 
Q 3406 3131 3298 2873 
Q 3191 2616 2906 2266 
Q 2828 2175 2409 1742 
Q 1991 1309 1228 531 
z
" transform="scale(0.015625)"/>
       </defs>
       <use xlink:href="#DejaVuSans-32"/>
       <use xlink:href="#DejaVuSans-30" x="63.623047"/>
       <use xlink:href="#DejaVuSans-30" x="127.246094"/>
      </g>
     </g>
    </g>
    <g id="xtick_6">
     <g id="text_6">
      <!-- 250 -->
      <g style="fill: #838383" transform="translate(297.58046 205.957716) scale(0.1375 -0.1375)">
       <use xlink:href="#DejaVuSans-32"/>
       <use xlink:href="#DejaVuSans-35" x="63.623047"/>
       <use xlink:href="#DejaVuSans-30" x="127.246094"/>
      </g>
     </g>
    </g>
    <g id="text_7">
     <!-- draw -->
     <g style="fill: #838383" transform="translate(170.076326 224.214943) scale(0.15 -0.15)">
      <defs>
       <path id="DejaVuSans-64" d="M 2906 2969 
L 2906 4863 
L 3481 4863 
L 3481 0 
L 2906 0 
L 2906 525 
Q 2725 213 2448 61 
Q 2172 -91 1784 -91 
Q 1150 -91 751 415 
Q 353 922 353 1747 
Q 353 2572 751 3078 
Q 1150 3584 1784 3584 
Q 2172 3584 2448 3432 
Q 2725 3281 2906 2969 
z
M 947 1747 
Q 947 1113 1208 752 
Q 1469 391 1925 391 
Q 2381 391 2643 752 
Q 2906 1113 2906 1747 
Q 2906 2381 2643 2742 
Q 2381 3103 1925 3103 
Q 1469 3103 1208 2742 
Q 947 2381 947 1747 
z
" transform="scale(0.015625)"/>
       <path id="DejaVuSans-72" d="M 2631 2963 
Q 2534 3019 2420 3045 
Q 2306 3072 2169 3072 
Q 1681 3072 1420 2755 
Q 1159 2438 1159 1844 
L 1159 0 
L 581 0 
L 581 3500 
L 1159 3500 
L 1159 2956 
Q 1341 3275 1631 3429 
Q 1922 3584 2338 3584 
Q 2397 3584 2469 3576 
Q 2541 3569 2628 3553 
L 2631 2963 
z
" transform="scale(0.015625)"/>
       <path id="DejaVuSans-61" d="M 2194 1759 
Q 1497 1759 1228 1600 
Q 959 1441 959 1056 
Q 959 750 1161 570 
Q 1363 391 1709 391 
Q 2188 391 2477 730 
Q 2766 1069 2766 1631 
L 2766 1759 
L 2194 1759 
z
M 3341 1997 
L 3341 0 
L 2766 0 
L 2766 531 
Q 2569 213 2275 61 
Q 1981 -91 1556 -91 
Q 1019 -91 701 211 
Q 384 513 384 1019 
Q 384 1609 779 1909 
Q 1175 2209 1959 2209 
L 2766 2209 
L 2766 2266 
Q 2766 2663 2505 2880 
Q 2244 3097 1772 3097 
Q 1472 3097 1187 3025 
Q 903 2953 641 2809 
L 641 3341 
Q 956 3463 1253 3523 
Q 1550 3584 1831 3584 
Q 2591 3584 2966 3190 
Q 3341 2797 3341 1997 
z
" transform="scale(0.015625)"/>
       <path id="DejaVuSans-77" d="M 269 3500 
L 844 3500 
L 1563 769 
L 2278 3500 
L 2956 3500 
L 3675 769 
L 4391 3500 
L 4966 3500 
L 4050 0 
L 3372 0 
L 2619 2869 
L 1863 0 
L 1184 0 
L 269 3500 
z
" transform="scale(0.015625)"/>
      </defs>
      <use xlink:href="#DejaVuSans-64"/>
      <use xlink:href="#DejaVuSans-72" x="63.476562"/>
      <use xlink:href="#DejaVuSans-61" x="104.589844"/>
      <use xlink:href="#DejaVuSans-77" x="165.869141"/>
     </g>
    </g>
   </g>
   <g id="matplotlib.axis_2">
    <g id="ytick_1">
     <g id="text_8">
      <!-- 395 -->
      <g style="fill: #838383" transform="translate(25.717188 188.148359) scale(0.1375 -0.1375)">
       <defs>
        <path id="DejaVuSans-33" d="M 2597 2516 
Q 3050 2419 3304 2112 
Q 3559 1806 3559 1356 
Q 3559 666 3084 287 
Q 2609 -91 1734 -91 
Q 1441 -91 1130 -33 
Q 819 25 488 141 
L 488 750 
Q 750 597 1062 519 
Q 1375 441 1716 441 
Q 2309 441 2620 675 
Q 2931 909 2931 1356 
Q 2931 1769 2642 2001 
Q 2353 2234 1838 2234 
L 1294 2234 
L 1294 2753 
L 1863 2753 
Q 2328 2753 2575 2939 
Q 2822 3125 2822 3475 
Q 2822 3834 2567 4026 
Q 2313 4219 1838 4219 
Q 1578 4219 1281 4162 
Q 984 4106 628 3988 
L 628 4550 
Q 988 4650 1302 4700 
Q 1616 4750 1894 4750 
Q 2613 4750 3031 4423 
Q 3450 4097 3450 3541 
Q 3450 3153 3228 2886 
Q 3006 2619 2597 2516 
z
" transform="scale(0.015625)"/>
        <path id="DejaVuSans-39" d="M 703 97 
L 703 672 
Q 941 559 1184 500 
Q 1428 441 1663 441 
Q 2288 441 2617 861 
Q 2947 1281 2994 2138 
Q 2813 1869 2534 1725 
Q 2256 1581 1919 1581 
Q 1219 1581 811 2004 
Q 403 2428 403 3163 
Q 403 3881 828 4315 
Q 1253 4750 1959 4750 
Q 2769 4750 3195 4129 
Q 3622 3509 3622 2328 
Q 3622 1225 3098 567 
Q 2575 -91 1691 -91 
Q 1453 -91 1209 -44 
Q 966 3 703 97 
z
M 1959 2075 
Q 2384 2075 2632 2365 
Q 2881 2656 2881 3163 
Q 2881 3666 2632 3958 
Q 2384 4250 1959 4250 
Q 1534 4250 1286 3958 
Q 1038 3666 1038 3163 
Q 1038 2656 1286 2365 
Q 1534 2075 1959 2075 
z
" transform="scale(0.015625)"/>
       </defs>
       <use xlink:href="#DejaVuSans-33"/>
       <use xlink:href="#DejaVuSans-39" x="63.623047"/>
       <use xlink:href="#DejaVuSans-35" x="127.246094"/>
      </g>
     </g>
    </g>
    <g id="ytick_2">
     <g id="text_9">
      <!-- 400 -->
      <g style="fill: #838383" transform="translate(25.717188 154.762385) scale(0.1375 -0.1375)">
       <defs>
        <path id="DejaVuSans-34" d="M 2419 4116 
L 825 1625 
L 2419 1625 
L 2419 4116 
z
M 2253 4666 
L 3047 4666 
L 3047 1625 
L 3713 1625 
L 3713 1100 
L 3047 1100 
L 3047 0 
L 2419 0 
L 2419 1100 
L 313 1100 
L 313 1709 
L 2253 4666 
z
" transform="scale(0.015625)"/>
       </defs>
       <use xlink:href="#DejaVuSans-34"/>
       <use xlink:href="#DejaVuSans-30" x="63.623047"/>
       <use xlink:href="#DejaVuSans-30" x="127.246094"/>
      </g>
     </g>
    </g>
    <g id="ytick_3">
     <g id="text_10">
      <!-- 405 -->
      <g style="fill: #838383" transform="translate(25.717188 121.37641) scale(0.1375 -0.1375)">
       <use xlink:href="#DejaVuSans-34"/>
       <use xlink:href="#DejaVuSans-30" x="63.623047"/>
       <use xlink:href="#DejaVuSans-35" x="127.246094"/>
      </g>
     </g>
    </g>
    <g id="ytick_4">
     <g id="text_11">
      <!-- 410 -->
      <g style="fill: #838383" transform="translate(25.717188 87.990436) scale(0.1375 -0.1375)">
       <use xlink:href="#DejaVuSans-34"/>
       <use xlink:href="#DejaVuSans-31" x="63.623047"/>
       <use xlink:href="#DejaVuSans-30" x="127.246094"/>
      </g>
     </g>
    </g>
    <g id="ytick_5">
     <g id="text_12">
      <!-- 415 -->
      <g style="fill: #838383" transform="translate(25.717188 54.604462) scale(0.1375 -0.1375)">
       <use xlink:href="#DejaVuSans-34"/>
       <use xlink:href="#DejaVuSans-31" x="63.623047"/>
       <use xlink:href="#DejaVuSans-35" x="127.246094"/>
      </g>
     </g>
    </g>
    <g id="text_13">
     <!-- logprob -->
     <g style="fill: #838383" transform="translate(18.597656 138.686345) rotate(-90) scale(0.15 -0.15)">
      <defs>
       <path id="DejaVuSans-6c" d="M 603 4863 
L 1178 4863 
L 1178 0 
L 603 0 
L 603 4863 
z
" transform="scale(0.015625)"/>
       <path id="DejaVuSans-6f" d="M 1959 3097 
Q 1497 3097 1228 2736 
Q 959 2375 959 1747 
Q 959 1119 1226 758 
Q 1494 397 1959 397 
Q 2419 397 2687 759 
Q 2956 1122 2956 1747 
Q 2956 2369 2687 2733 
Q 2419 3097 1959 3097 
z
M 1959 3584 
Q 2709 3584 3137 3096 
Q 3566 2609 3566 1747 
Q 3566 888 3137 398 
Q 2709 -91 1959 -91 
Q 1206 -91 779 398 
Q 353 888 353 1747 
Q 353 2609 779 3096 
Q 1206 3584 1959 3584 
z
" transform="scale(0.015625)"/>
       <path id="DejaVuSans-67" d="M 2906 1791 
Q 2906 2416 2648 2759 
Q 2391 3103 1925 3103 
Q 1463 3103 1205 2759 
Q 947 2416 947 1791 
Q 947 1169 1205 825 
Q 1463 481 1925 481 
Q 2391 481 2648 825 
Q 2906 1169 2906 1791 
z
M 3481 434 
Q 3481 -459 3084 -895 
Q 2688 -1331 1869 -1331 
Q 1566 -1331 1297 -1286 
Q 1028 -1241 775 -1147 
L 775 -588 
Q 1028 -725 1275 -790 
Q 1522 -856 1778 -856 
Q 2344 -856 2625 -561 
Q 2906 -266 2906 331 
L 2906 616 
Q 2728 306 2450 153 
Q 2172 0 1784 0 
Q 1141 0 747 490 
Q 353 981 353 1791 
Q 353 2603 747 3093 
Q 1141 3584 1784 3584 
Q 2172 3584 2450 3431 
Q 2728 3278 2906 2969 
L 2906 3500 
L 3481 3500 
L 3481 434 
z
" transform="scale(0.015625)"/>
       <path id="DejaVuSans-70" d="M 1159 525 
L 1159 -1331 
L 581 -1331 
L 581 3500 
L 1159 3500 
L 1159 2969 
Q 1341 3281 1617 3432 
Q 1894 3584 2278 3584 
Q 2916 3584 3314 3078 
Q 3713 2572 3713 1747 
Q 3713 922 3314 415 
Q 2916 -91 2278 -91 
Q 1894 -91 1617 61 
Q 1341 213 1159 525 
z
M 3116 1747 
Q 3116 2381 2855 2742 
Q 2594 3103 2138 3103 
Q 1681 3103 1420 2742 
Q 1159 2381 1159 1747 
Q 1159 1113 1420 752 
Q 1681 391 2138 391 
Q 2594 391 2855 752 
Q 3116 1113 3116 1747 
z
" transform="scale(0.015625)"/>
       <path id="DejaVuSans-62" d="M 3116 1747 
Q 3116 2381 2855 2742 
Q 2594 3103 2138 3103 
Q 1681 3103 1420 2742 
Q 1159 2381 1159 1747 
Q 1159 1113 1420 752 
Q 1681 391 2138 391 
Q 2594 391 2855 752 
Q 3116 1113 3116 1747 
z
M 1159 2969 
Q 1341 3281 1617 3432 
Q 1894 3584 2278 3584 
Q 2916 3584 3314 3078 
Q 3713 2572 3713 1747 
Q 3713 922 3314 415 
Q 2916 -91 2278 -91 
Q 1894 -91 1617 61 
Q 1341 213 1159 525 
L 1159 0 
L 581 0 
L 581 4863 
L 1159 4863 
L 1159 2969 
z
" transform="scale(0.015625)"/>
      </defs>
      <use xlink:href="#DejaVuSans-6c"/>
      <use xlink:href="#DejaVuSans-6f" x="27.783203"/>
      <use xlink:href="#DejaVuSans-67" x="88.964844"/>
      <use xlink:href="#DejaVuSans-70" x="152.441406"/>
      <use xlink:href="#DejaVuSans-72" x="215.917969"/>
      <use xlink:href="#DejaVuSans-6f" x="254.78125"/>
      <use xlink:href="#DejaVuSans-62" x="315.962891"/>
     </g>
    </g>
   </g>
   <g id="line2d_1">
    <path d="M 67.570504 108.143845 
L 69.515565 167.182653 
L 71.460626 174.271875 
L 72.433156 177.085963 
L 73.405687 173.491021 
L 74.378217 176.583054 
L 76.323278 171.001541 
L 78.268339 181.940623 
L 80.2134 173.934836 
L 81.18593 179.06418 
L 82.158461 178.27701 
L 83.130991 175.653855 
L 84.103522 179.802445 
L 86.048583 172.851177 
L 87.993643 180.93562 
L 89.938704 170.580956 
L 91.883765 178.700651 
L 92.856296 179.036671 
L 93.828826 175.099799 
L 95.773887 178.079351 
L 97.718948 174.68492 
L 98.691478 177.530186 
L 101.60907 175.434597 
L 102.5816 178.067328 
L 103.554131 177.175012 
L 104.526661 181.238425 
L 106.471722 171.385039 
L 107.444252 179.813449 
L 108.416783 178.795813 
L 109.389313 173.627141 
L 110.361844 179.724605 
L 111.334374 176.783362 
L 113.279435 179.441566 
L 114.251966 175.950139 
L 115.224496 179.024445 
L 116.197026 177.729067 
L 117.169557 181.000827 
L 118.142087 176.903791 
L 119.114618 177.321116 
L 120.087148 173.181695 
L 121.059679 179.50881 
L 122.032209 178.903608 
L 123.00474 180.433323 
L 124.9498 174.860164 
L 125.922331 179.57524 
L 127.867392 174.919461 
L 128.839922 178.032687 
L 129.812453 176.97613 
L 130.784983 181.589117 
L 131.757514 178.194074 
L 132.730044 180.344682 
L 133.702575 174.160208 
L 134.675105 175.666081 
L 135.647635 184.221033 
L 136.620166 172.958973 
L 137.592696 177.505122 
L 138.565227 171.056152 
L 140.510288 180.343256 
L 141.482818 179.726439 
L 142.455349 175.166433 
L 143.427879 176.227676 
L 144.400409 171.91505 
L 146.34547 175.164395 
L 148.290531 173.88104 
L 149.263062 179.982783 
L 150.235592 172.495799 
L 151.208123 180.903628 
L 152.180653 180.250947 
L 153.153183 184.574985 
L 155.098244 179.000196 
L 156.070775 180.053289 
L 158.015836 170.341931 
L 158.988366 176.91561 
L 159.960897 175.249979 
L 160.933427 176.358294 
L 161.905958 175.532407 
L 162.878488 171.659112 
L 163.851018 172.874 
L 165.796079 180.730015 
L 168.713671 174.241716 
L 169.686201 179.874988 
L 170.658732 171.307606 
L 171.631262 176.887082 
L 172.603792 171.532978 
L 174.548853 177.575016 
L 175.521384 173.540741 
L 176.493914 174.528219 
L 177.466445 179.708914 
L 178.438975 178.519702 
L 179.411506 173.918127 
L 180.384036 180.974337 
L 181.356566 179.380638 
L 182.329097 171.532162 
L 184.274158 175.588444 
L 185.246688 176.984485 
L 186.219219 180.435361 
L 190.109341 168.83076 
L 191.081871 179.492101 
L 193.999462 170.591144 
L 194.971993 173.706204 
L 195.944523 172.163244 
L 197.889584 181.510868 
L 198.862115 179.552214 
L 199.834645 169.122968 
L 200.807175 171.864107 
L 201.779706 179.193983 
L 202.752236 172.888875 
L 203.724767 180.844331 
L 204.697297 172.558154 
L 205.669828 175.957883 
L 207.614889 173.988632 
L 208.587419 176.571236 
L 209.559949 176.029406 
L 210.53248 173.923221 
L 211.50501 177.636555 
L 213.450071 173.917515 
L 214.422602 173.583533 
L 215.395132 178.79133 
L 217.340193 175.196999 
L 218.312723 181.270825 
L 219.285254 177.474352 
L 220.257784 180.122978 
L 222.202845 177.279139 
L 223.175376 176.960032 
L 224.147906 175.156244 
L 225.120437 178.184497 
L 226.092967 177.439915 
L 227.065498 171.507506 
L 229.010558 183.363562 
L 230.955619 172.862996 
L 232.90068 177.118567 
L 233.873211 174.645185 
L 234.845741 179.741925 
L 236.790802 175.086554 
L 237.763332 179.038097 
L 238.735863 177.800795 
L 239.708393 180.841478 
L 240.680924 176.982855 
L 241.653454 178.39479 
L 242.625985 182.059422 
L 244.571046 179.215379 
L 245.543576 171.438224 
L 246.516106 178.248278 
L 247.488637 170.010395 
L 248.461167 170.825686 
L 249.433698 173.172729 
L 251.378759 180.277845 
L 252.351289 181.537562 
L 253.32382 175.416257 
L 255.268881 180.389104 
L 256.241411 176.96044 
L 258.186472 180.084669 
L 259.159002 174.304478 
L 260.131533 177.246943 
L 261.104063 174.907643 
L 264.994185 179.316857 
L 266.939246 175.929354 
L 267.911776 175.894102 
L 268.884307 173.660967 
L 269.856837 177.80161 
L 270.829368 173.852512 
L 272.774429 183.292038 
L 274.719489 170.756403 
L 275.69202 178.499732 
L 276.66455 175.136478 
L 279.582142 176.776638 
L 280.554672 182.613885 
L 284.444794 172.095795 
L 285.417324 174.444062 
L 286.389855 182.456166 
L 287.362385 177.609249 
L 288.334916 179.280586 
L 289.307446 175.562565 
L 290.279977 178.641557 
L 291.252507 178.341605 
L 292.225038 175.17275 
L 293.197568 175.945656 
L 295.142629 182.35917 
L 297.08769 180.172903 
L 298.06022 175.811574 
L 299.032751 179.237997 
L 300.005281 177.717656 
L 300.977812 178.66927 
L 301.950342 182.747559 
L 303.895403 176.103579 
L 304.867933 177.677309 
L 305.840464 175.085332 
L 306.812994 175.836231 
L 307.785525 172.727692 
L 308.758055 177.139352 
L 309.730586 174.887469 
L 309.730586 174.887469 
" clip-path="url(#p8dd90ee562)" style="fill: none; stroke: #440154; stroke-width: 1.5; stroke-linecap: round"/>
   </g>
   <g id="line2d_2">
    <path d="M 67.570504 98.115011 
L 69.515565 166.305212 
L 71.460626 173.645888 
L 72.433156 176.405365 
L 73.405687 172.712613 
L 74.378217 175.667711 
L 76.323278 170.27163 
L 78.268339 181.016925 
L 80.2134 172.864015 
L 81.18593 178.330602 
L 82.158461 177.491265 
L 83.130991 174.725471 
L 84.103522 178.667029 
L 86.048583 171.889782 
L 87.993643 180.011312 
L 89.938704 169.326333 
L 91.883765 177.207819 
L 92.856296 177.19926 
L 93.828826 173.062285 
L 95.773887 175.459049 
L 97.718948 171.712501 
L 98.691478 174.363164 
L 101.60907 171.91831 
L 102.5816 173.559896 
L 103.554131 173.123417 
L 104.526661 176.135979 
L 106.471722 165.834499 
L 107.444252 174.480333 
L 108.416783 172.752552 
L 109.389313 167.996314 
L 110.361844 173.844769 
L 111.334374 170.593386 
L 113.279435 173.295196 
L 114.251966 168.780428 
L 115.224496 172.780265 
L 116.197026 171.50017 
L 117.169557 174.76215 
L 118.142087 169.974734 
L 119.114618 170.349267 
L 120.087148 166.917342 
L 121.059679 174.46179 
L 122.032209 173.773041 
L 123.00474 175.820337 
L 124.9498 170.819776 
L 125.922331 174.737901 
L 127.867392 170.32889 
L 128.839922 173.986798 
L 129.812453 172.850159 
L 130.784983 177.76921 
L 131.757514 174.433466 
L 132.730044 177.067013 
L 133.702575 170.740305 
L 134.675105 171.357326 
L 135.647635 180.360984 
L 136.620166 169.203254 
L 137.592696 173.835192 
L 138.565227 167.516635 
L 140.510288 176.318559 
L 141.482818 175.606172 
L 142.455349 171.341228 
L 143.427879 171.98474 
L 144.400409 167.729169 
L 146.34547 171.336949 
L 148.290531 170.862772 
L 149.263062 177.111842 
L 150.235592 169.284763 
L 151.208123 177.676087 
L 152.180653 177.466813 
L 153.153183 182.071037 
L 155.098244 176.768283 
L 156.070775 177.945065 
L 158.015836 168.026268 
L 158.988366 174.930465 
L 159.960897 173.556228 
L 160.933427 174.708354 
L 161.905958 173.656076 
L 162.878488 170.059911 
L 163.851018 170.981775 
L 165.796079 178.972483 
L 168.713671 172.252903 
L 169.686201 178.328971 
L 170.658732 169.787468 
L 171.631262 174.918035 
L 172.603792 169.578602 
L 174.548853 175.623289 
L 175.521384 171.194105 
L 176.493914 171.877148 
L 177.466445 177.105729 
L 178.438975 175.46394 
L 179.411506 170.5131 
L 180.384036 177.762893 
L 181.356566 175.481872 
L 182.329097 167.456319 
L 184.274158 171.285395 
L 185.246688 172.067471 
L 186.219219 175.2133 
L 189.13681 169.029641 
L 190.109341 163.788018 
L 191.081871 173.86861 
L 193.999462 164.716607 
L 194.971993 166.932625 
L 195.944523 166.318253 
L 197.889584 175.448453 
L 198.862115 173.5061 
L 199.834645 162.030486 
L 200.807175 165.570003 
L 201.779706 173.374871 
L 202.752236 166.238171 
L 203.724767 174.868518 
L 204.697297 166.146881 
L 205.669828 169.382777 
L 207.614889 167.561261 
L 208.587419 170.171986 
L 209.559949 169.626285 
L 210.53248 167.170427 
L 211.50501 171.795639 
L 212.477541 167.124782 
L 213.450071 167.96371 
L 214.422602 166.790392 
L 215.395132 171.782598 
L 217.340193 168.91777 
L 218.312723 174.958586 
L 219.285254 170.995835 
L 220.257784 173.13605 
L 222.202845 170.145903 
L 223.175376 170.301992 
L 224.147906 168.488015 
L 225.120437 171.756108 
L 226.092967 170.434444 
L 227.065498 164.887164 
L 229.010558 176.987745 
L 230.955619 166.842762 
L 232.90068 169.867143 
L 233.873211 167.97451 
L 234.845741 172.579142 
L 236.790802 168.648384 
L 237.763332 172.319333 
L 238.735863 171.986777 
L 239.708393 174.002081 
L 240.680924 170.331131 
L 241.653454 171.092015 
L 242.625985 175.833582 
L 243.598515 172.119229 
L 244.571046 172.811034 
L 245.543576 164.331274 
L 246.516106 171.682342 
L 247.488637 163.518632 
L 248.461167 163.74217 
L 249.433698 166.797524 
L 251.378759 173.677268 
L 252.351289 175.056804 
L 253.32382 168.16198 
L 255.268881 172.891524 
L 256.241411 169.036569 
L 258.186472 172.691013 
L 259.159002 167.618317 
L 260.131533 170.204997 
L 261.104063 167.925198 
L 262.076594 168.964638 
L 264.021655 171.463695 
L 264.994185 172.19381 
L 266.939246 168.972992 
L 268.884307 166.973176 
L 269.856837 170.316052 
L 270.829368 167.015356 
L 272.774429 176.112138 
L 274.719489 163.741762 
L 275.69202 170.601537 
L 276.66455 166.794468 
L 278.609611 168.864178 
L 279.582142 169.204681 
L 280.554672 175.914683 
L 281.527203 172.904158 
L 282.499733 173.15439 
L 284.444794 165.043253 
L 285.417324 167.313271 
L 286.389855 175.344937 
L 287.362385 169.929497 
L 288.334916 172.260035 
L 289.307446 168.057853 
L 291.252507 171.621618 
L 293.197568 168.245119 
L 296.115159 174.556136 
L 298.06022 168.397948 
L 299.032751 171.960287 
L 300.005281 169.622617 
L 301.950342 174.77458 
L 303.895403 168.965249 
L 304.867933 169.2165 
L 307.785525 163.213993 
L 308.758055 169.526233 
L 309.730586 166.445814 
L 309.730586 166.445814 
" clip-path="url(#p8dd90ee562)" style="fill: none; stroke: #482878; stroke-width: 1.5; stroke-linecap: round"/>
   </g>
   <g id="line2d_3">
    <path d="M 67.570504 89.815385 
L 69.515565 165.480547 
L 71.460626 173.141552 
L 72.433156 175.79731 
L 73.405687 172.168746 
L 74.378217 175.155225 
L 76.323278 169.772593 
L 78.268339 180.429451 
L 80.2134 172.301809 
L 81.18593 177.351478 
L 82.158461 176.26191 
L 83.130991 173.112209 
L 84.103522 177.020145 
L 86.048583 168.647365 
L 87.993643 175.74922 
L 89.938704 164.820734 
L 91.883765 171.56497 
L 92.856296 171.332262 
L 93.828826 166.789781 
L 95.773887 169.70922 
L 97.718948 164.814417 
L 98.691478 167.599163 
L 101.60907 162.447404 
L 102.5816 165.836129 
L 103.554131 162.664421 
L 104.526661 168.258772 
L 106.471722 157.085963 
L 107.444252 164.432549 
L 108.416783 163.192393 
L 109.389313 156.7638 
L 110.361844 161.90802 
L 111.334374 159.162194 
L 112.306905 162.038434 
L 114.251966 157.950975 
L 115.224496 159.456848 
L 116.197026 157.992137 
L 117.169557 161.140411 
L 118.142087 157.815059 
L 119.114618 158.368911 
L 120.087148 153.113432 
L 122.032209 158.070181 
L 123.00474 159.089244 
L 123.97727 158.169622 
L 124.9498 152.28245 
L 125.922331 158.914815 
L 127.867392 152.428555 
L 130.784983 159.158119 
L 133.702575 148.70218 
L 135.647635 159.685684 
L 136.620166 148.771054 
L 137.592696 151.465733 
L 138.565227 143.716698 
L 140.510288 154.07931 
L 141.482818 153.702944 
L 142.455349 149.378498 
L 143.427879 150.873164 
L 144.400409 146.961561 
L 146.34547 151.177803 
L 148.290531 148.741304 
L 149.263062 154.916201 
L 150.235592 149.140085 
L 151.208123 158.564735 
L 152.180653 158.068959 
L 153.153183 162.189021 
L 155.098244 160.342033 
L 156.070775 162.123406 
L 158.015836 154.179566 
L 158.988366 160.562107 
L 159.960897 159.09658 
L 160.933427 162.408076 
L 161.905958 161.523706 
L 162.878488 158.578999 
L 163.851018 160.291905 
L 165.796079 170.231283 
L 168.713671 164.62817 
L 169.686201 171.035978 
L 170.658732 163.294075 
L 171.631262 169.093421 
L 172.603792 163.165088 
L 174.548853 171.627324 
L 175.521384 167.476492 
L 176.493914 168.856027 
L 177.466445 173.827652 
L 178.438975 172.571195 
L 179.411506 168.049498 
L 180.384036 175.593335 
L 181.356566 173.601873 
L 182.329097 165.975101 
L 184.274158 170.907398 
L 185.246688 171.330632 
L 186.219219 174.678807 
L 190.109341 163.59362 
L 191.081871 173.945228 
L 193.999462 164.58823 
L 194.971993 167.469971 
L 195.944523 166.133228 
L 197.889584 175.733122 
L 198.862115 173.776098 
L 199.834645 162.53849 
L 200.807175 165.595474 
L 201.779706 173.317407 
L 202.752236 166.028897 
L 203.724767 174.951657 
L 204.697297 166.065168 
L 205.669828 169.54335 
L 207.614889 167.725297 
L 208.587419 170.019972 
L 209.559949 169.65196 
L 210.53248 167.223 
L 211.50501 172.142459 
L 212.477541 167.148827 
L 213.450071 167.939869 
L 214.422602 166.688303 
L 215.395132 171.843933 
L 217.340193 169.297397 
L 218.312723 174.47096 
L 219.285254 170.949783 
L 220.257784 173.121175 
L 222.202845 170.767814 
L 223.175376 170.23434 
L 224.147906 168.272017 
L 225.120437 171.511174 
L 226.092967 170.612948 
L 227.065498 164.857413 
L 229.010558 177.294014 
L 230.955619 167.017802 
L 232.90068 170.63414 
L 233.873211 168.417103 
L 234.845741 172.800642 
L 236.790802 168.843393 
L 237.763332 172.698756 
L 238.735863 172.262888 
L 239.708393 174.521699 
L 240.680924 170.500466 
L 241.653454 171.98311 
L 242.625985 176.180401 
L 245.543576 165.054053 
L 246.516106 171.96803 
L 247.488637 163.340739 
L 248.461167 164.1652 
L 249.433698 166.841131 
L 251.378759 174.162245 
L 252.351289 175.168063 
L 253.32382 168.64981 
L 255.268881 173.164375 
L 256.241411 169.432701 
L 258.186472 173.258925 
L 259.159002 167.487496 
L 260.131533 170.852176 
L 261.104063 168.217814 
L 264.994185 172.133493 
L 266.939246 169.197141 
L 268.884307 167.262532 
L 269.856837 170.608057 
L 270.829368 167.512763 
L 272.774429 176.606488 
L 274.719489 164.151751 
L 275.69202 171.342858 
L 276.66455 167.29269 
L 278.609611 169.378702 
L 279.582142 169.911973 
L 280.554672 175.917128 
L 284.444794 165.213402 
L 285.417324 167.772165 
L 286.389855 175.914275 
L 287.362385 170.520028 
L 288.334916 172.531256 
L 289.307446 168.346598 
L 291.252507 171.793194 
L 292.225038 167.890964 
L 293.197568 168.76759 
L 295.142629 175.272802 
L 296.115159 174.50662 
L 298.06022 168.043181 
L 299.032751 171.85188 
L 300.005281 169.910139 
L 301.950342 174.909477 
L 303.895403 169.130712 
L 304.867933 169.877332 
L 307.785525 164.08145 
L 308.758055 169.700458 
L 309.730586 166.829924 
L 309.730586 166.829924 
" clip-path="url(#p8dd90ee562)" style="fill: none; stroke: #3e4989; stroke-width: 1.5; stroke-linecap: round"/>
   </g>
   <g id="line2d_4">
    <path d="M 67.570504 79.295257 
L 69.515565 164.322716 
L 71.460626 172.22519 
L 72.433156 174.567344 
L 73.405687 170.901081 
L 74.378217 173.847214 
L 76.323278 168.770036 
L 78.268339 179.164232 
L 80.2134 170.927979 
L 81.18593 176.549025 
L 82.158461 175.753499 
L 83.130991 172.802272 
L 84.103522 176.889935 
L 86.048583 169.724095 
L 87.993643 178.013736 
L 89.938704 167.505428 
L 91.883765 175.580497 
L 92.856296 175.592316 
L 93.828826 171.144385 
L 94.801357 174.028571 
L 95.773887 173.722098 
L 97.718948 170.302807 
L 98.691478 172.529829 
L 101.60907 170.293841 
L 102.5816 171.554781 
L 103.554131 171.164762 
L 104.526661 174.089295 
L 106.471722 163.113737 
L 107.444252 171.037201 
L 108.416783 169.422309 
L 109.389313 164.09225 
L 110.361844 169.791136 
L 111.334374 165.157569 
L 112.306905 167.71083 
L 113.279435 166.926308 
L 114.251966 161.898442 
L 115.224496 164.460669 
L 116.197026 162.118108 
L 117.169557 164.628577 
L 120.087148 152.793306 
L 121.059679 157.923262 
L 124.9498 147.789078 
L 125.922331 149.513599 
L 127.867392 141.857688 
L 128.839922 143.9869 
L 129.812453 141.730127 
L 130.784983 143.637635 
L 131.757514 140.778716 
L 132.730044 143.53473 
L 134.675105 135.361646 
L 135.647635 142.438234 
L 136.620166 130.272649 
L 137.592696 135.011566 
L 138.565227 128.58012 
L 140.510288 137.764931 
L 141.482818 138.351998 
L 142.455349 130.54122 
L 143.427879 131.348564 
L 144.400409 127.123559 
L 145.37294 130.797361 
L 146.34547 129.692918 
L 148.290531 131.12523 
L 149.263062 139.049509 
L 150.235592 130.836282 
L 151.208123 142.157436 
L 152.180653 141.171385 
L 153.153183 147.733856 
L 155.098244 143.272068 
L 156.070775 146.601292 
L 158.015836 140.248298 
L 158.988366 146.227982 
L 159.960897 145.248655 
L 161.905958 148.524083 
L 163.851018 145.913358 
L 165.796079 158.004363 
L 168.713671 153.044149 
L 169.686201 160.508719 
L 170.658732 153.999024 
L 171.631262 160.323286 
L 172.603792 156.06527 
L 174.548853 164.337999 
L 175.521384 161.173015 
L 176.493914 163.210937 
L 177.466445 168.190508 
L 178.438975 166.861101 
L 179.411506 163.376807 
L 180.384036 170.914326 
L 181.356566 170.530216 
L 182.329097 162.594934 
L 184.274158 166.934051 
L 186.219219 172.223356 
L 190.109341 160.780958 
L 191.081871 171.187177 
L 193.999462 163.085209 
L 194.971993 165.197508 
L 195.944523 163.978545 
L 197.889584 172.721579 
L 198.862115 170.493538 
L 199.834645 160.173514 
L 200.807175 163.119851 
L 201.779706 170.099443 
L 202.752236 164.314361 
L 203.724767 172.492132 
L 204.697297 163.608088 
L 206.642358 166.7584 
L 207.614889 165.340556 
L 208.587419 168.386537 
L 209.559949 167.54659 
L 210.53248 165.373567 
L 211.50501 170.184212 
L 212.477541 164.874733 
L 213.450071 165.435921 
L 214.422602 164.722312 
L 215.395132 169.647069 
L 217.340193 166.466395 
L 218.312723 172.671654 
L 219.285254 168.924902 
L 220.257784 172.261869 
L 222.202845 168.277111 
L 223.175376 168.300138 
L 224.147906 166.023803 
L 226.092967 169.319812 
L 227.065498 162.708435 
L 229.010558 175.756556 
L 230.955619 165.289205 
L 232.90068 168.927755 
L 233.873211 165.969396 
L 234.845741 171.42885 
L 236.790802 167.026971 
L 237.763332 171.074899 
L 238.735863 170.467862 
L 239.708393 172.844045 
L 240.680924 169.670503 
L 241.653454 170.811422 
L 242.625985 174.389858 
L 245.543576 162.486935 
L 246.516106 169.093014 
L 247.488637 161.052382 
L 249.433698 165.357265 
L 251.378759 172.11821 
L 252.351289 173.596982 
L 253.32382 166.857637 
L 255.268881 171.39645 
L 256.241411 169.400098 
L 258.186472 172.510063 
L 259.159002 165.663738 
L 260.131533 168.740285 
L 261.104063 166.753917 
L 263.049124 171.043721 
L 264.021655 170.016304 
L 264.994185 170.547333 
L 265.966715 167.368901 
L 267.911776 167.257234 
L 268.884307 166.183764 
L 269.856837 169.001113 
L 270.829368 165.384978 
L 272.774429 175.877189 
L 274.719489 162.043935 
L 275.69202 170.851361 
L 276.66455 166.224722 
L 278.609611 167.873032 
L 279.582142 169.651552 
L 280.554672 174.381911 
L 281.527203 172.058505 
L 282.499733 172.642923 
L 283.472263 170.365365 
L 284.444794 164.33107 
L 285.417324 166.738023 
L 286.389855 174.221747 
L 287.362385 169.16413 
L 288.334916 171.15437 
L 289.307446 167.274962 
L 291.252507 170.442798 
L 292.225038 167.012911 
L 293.197568 167.89667 
L 295.142629 174.070344 
L 296.115159 173.306404 
L 298.06022 166.647956 
L 299.032751 170.436889 
L 300.005281 169.31105 
L 301.950342 173.944209 
L 305.840464 166.051719 
L 306.812994 166.771034 
L 307.785525 163.755007 
L 308.758055 169.004984 
L 309.730586 166.232261 
L 309.730586 166.232261 
" clip-path="url(#p8dd90ee562)" style="fill: none; stroke: #31688e; stroke-width: 1.5; stroke-linecap: round"/>
   </g>
   <g id="line2d_5">
    <path d="M 67.570504 70.806531 
L 69.515565 163.238853 
L 71.460626 171.708018 
L 72.433156 174.225822 
L 73.405687 170.4807 
L 74.378217 173.577013 
L 76.323278 168.279149 
L 78.268339 178.841661 
L 80.2134 170.834855 
L 81.18593 176.199148 
L 82.158461 175.521403 
L 83.130991 172.778227 
L 84.103522 176.702465 
L 86.048583 169.410083 
L 87.993643 177.72112 
L 89.938704 167.645215 
L 91.883765 175.699907 
L 92.856296 175.940358 
L 93.828826 171.453303 
L 95.773887 174.640702 
L 97.718948 171.465733 
L 98.691478 173.9491 
L 101.60907 171.692123 
L 102.5816 174.251905 
L 103.554131 173.374667 
L 104.526661 177.691573 
L 106.471722 167.446334 
L 107.444252 175.489615 
L 108.416783 174.661894 
L 109.389313 169.224447 
L 110.361844 175.7211 
L 111.334374 172.262073 
L 112.306905 174.745848 
L 113.279435 174.453435 
L 114.251966 170.537145 
L 115.224496 173.896527 
L 116.197026 172.417959 
L 117.169557 175.623697 
L 120.087148 166.491459 
L 121.059679 173.259536 
L 122.032209 172.433241 
L 123.00474 173.368758 
L 124.9498 167.46019 
L 125.922331 171.229561 
L 127.867392 165.94209 
L 128.839922 168.968305 
L 129.812453 167.364418 
L 130.784983 171.704146 
L 131.757514 167.625653 
L 132.730044 170.970567 
L 133.702575 163.846093 
L 134.675105 164.749821 
L 135.647635 172.472162 
L 136.620166 161.655139 
L 137.592696 165.956354 
L 138.565227 159.553844 
L 140.510288 168.862955 
L 141.482818 168.397133 
L 143.427879 162.659734 
L 144.400409 158.303907 
L 145.37294 162.607976 
L 146.34547 161.257376 
L 148.290531 161.73298 
L 149.263062 167.809455 
L 150.235592 159.515127 
L 151.208123 168.398763 
L 152.180653 167.418417 
L 153.153183 172.327891 
L 155.098244 167.460598 
L 156.070775 168.410582 
L 158.015836 159.674477 
L 158.988366 166.027267 
L 159.960897 164.755119 
L 160.933427 165.685338 
L 161.905958 164.831534 
L 163.851018 161.690595 
L 165.796079 170.447485 
L 166.76861 169.447373 
L 168.713671 163.501311 
L 169.686201 169.88752 
L 170.658732 161.881122 
L 171.631262 167.817198 
L 172.603792 162.6795 
L 174.548853 168.445223 
L 175.521384 165.141675 
L 176.493914 166.021561 
L 177.466445 171.099962 
L 178.438975 169.213443 
L 179.411506 165.066687 
L 180.384036 172.296918 
L 181.356566 172.150814 
L 182.329097 163.308747 
L 183.301627 167.497073 
L 184.274158 166.966247 
L 186.219219 172.541037 
L 190.109341 159.91778 
L 191.081871 170.412436 
L 193.026932 167.115816 
L 193.999462 161.488657 
L 194.971993 164.721497 
L 195.944523 162.975988 
L 197.889584 171.830892 
L 198.862115 169.131119 
L 199.834645 158.486079 
L 201.779706 168.51206 
L 202.752236 162.55255 
L 203.724767 170.575454 
L 204.697297 162.516075 
L 206.642358 164.9972 
L 207.614889 163.532896 
L 208.587419 166.587436 
L 209.559949 166.033176 
L 210.53248 163.552254 
L 211.50501 167.594068 
L 212.477541 162.596768 
L 213.450071 163.34889 
L 214.422602 162.819491 
L 215.395132 167.252751 
L 217.340193 164.148898 
L 218.312723 170.569341 
L 219.285254 166.765736 
L 220.257784 170.145699 
L 222.202845 165.98529 
L 223.175376 165.744228 
L 224.147906 163.480527 
L 226.092967 167.543329 
L 227.065498 160.680294 
L 229.010558 173.81889 
L 230.955619 162.885513 
L 232.90068 166.549126 
L 233.873211 163.494383 
L 234.845741 169.6055 
L 236.790802 164.917118 
L 237.763332 169.301065 
L 238.735863 168.642474 
L 239.708393 170.68386 
L 240.680924 167.408025 
L 242.625985 172.214798 
L 245.543576 161.133075 
L 246.516106 166.782649 
L 247.488637 158.791737 
L 249.433698 163.042417 
L 251.378759 169.919512 
L 252.351289 171.446782 
L 253.32382 165.765013 
L 255.268881 169.197141 
L 256.241411 166.794672 
L 258.186472 170.72217 
L 259.159002 164.10468 
L 260.131533 166.641435 
L 261.104063 165.309175 
L 264.021655 168.418733 
L 264.994185 168.589697 
L 265.966715 166.041531 
L 266.939246 166.387943 
L 268.884307 164.473711 
L 269.856837 167.224019 
L 270.829368 163.375788 
L 272.774429 174.171211 
L 274.719489 160.168012 
L 275.69202 168.84808 
L 276.66455 164.862507 
L 279.582142 168.15872 
L 280.554672 172.468494 
L 281.527203 170.263479 
L 282.499733 171.285802 
L 283.472263 168.592346 
L 284.444794 161.992585 
L 285.417324 164.570706 
L 286.389855 172.651685 
L 287.362385 167.268441 
L 288.334916 169.117874 
L 289.307446 165.1971 
L 290.279977 168.999483 
L 291.252507 168.696474 
L 292.225038 165.268421 
L 294.170098 168.808345 
L 295.142629 172.099056 
L 297.08769 169.502391 
L 298.06022 164.58497 
L 299.032751 168.779613 
L 300.005281 167.440832 
L 301.950342 172.09009 
L 305.840464 164.641211 
L 306.812994 165.225221 
L 307.785525 161.964872 
L 308.758055 167.004964 
L 309.730586 164.857005 
L 309.730586 164.857005 
" clip-path="url(#p8dd90ee562)" style="fill: none; stroke: #26828e; stroke-width: 1.5; stroke-linecap: round"/>
   </g>
   <g id="line2d_6">
    <path d="M 67.570504 62.648934 
L 69.515565 162.365487 
L 71.460626 170.848508 
L 72.433156 173.329634 
L 73.405687 169.406007 
L 74.378217 172.368238 
L 76.323278 167.122133 
L 78.268339 177.786123 
L 80.2134 169.909731 
L 81.18593 175.146259 
L 82.158461 174.554506 
L 83.130991 171.94154 
L 84.103522 175.875966 
L 86.048583 168.694844 
L 87.993643 176.904199 
L 89.938704 167.051016 
L 91.883765 174.253331 
L 92.856296 174.734029 
L 93.828826 170.429146 
L 95.773887 173.762445 
L 96.746418 169.279465 
L 97.718948 170.266128 
L 98.691478 172.766001 
L 101.60907 168.737024 
L 102.5816 171.425386 
L 103.554131 169.852471 
L 104.526661 174.037741 
L 106.471722 162.867989 
L 107.444252 170.124914 
L 108.416783 169.00906 
L 109.389313 162.637319 
L 110.361844 167.520711 
L 111.334374 164.601272 
L 112.306905 166.219831 
L 114.251966 160.607548 
L 115.224496 163.675333 
L 116.197026 161.299761 
L 117.169557 163.374973 
L 119.114618 154.992615 
L 120.087148 150.917383 
L 121.059679 157.077405 
L 123.00474 154.798828 
L 124.9498 146.896761 
L 125.922331 148.40671 
L 127.867392 141.761304 
L 128.839922 144.371213 
L 129.812453 139.365355 
L 130.784983 144.617166 
L 131.757514 137.384285 
L 132.730044 139.318691 
L 134.675105 131.124823 
L 135.647635 141.228237 
L 136.620166 129.6487 
L 137.592696 131.658705 
L 138.565227 126.735985 
L 140.510288 136.103376 
L 144.400409 123.750321 
L 145.37294 129.315736 
L 146.34547 128.893521 
L 148.290531 129.914418 
L 149.263062 138.102377 
L 150.235592 129.572285 
L 153.153183 145.452834 
L 155.098244 142.978229 
L 156.070775 145.051811 
L 158.015836 137.282807 
L 158.988366 146.935885 
L 159.960897 145.109479 
L 161.905958 146.852747 
L 163.851018 144.023579 
L 165.796079 157.202317 
L 166.76861 156.58387 
L 168.713671 152.575882 
L 169.686201 159.24085 
L 170.658732 152.07338 
L 171.631262 159.360668 
L 172.603792 155.463736 
L 174.548853 162.430694 
L 175.521384 159.914112 
L 176.493914 161.572407 
L 177.466445 167.459375 
L 178.438975 166.339445 
L 179.411506 162.431713 
L 180.384036 170.419772 
L 181.356566 169.629137 
L 182.329097 162.203285 
L 184.274158 166.073319 
L 186.219219 172.094369 
L 190.109341 160.027002 
L 191.081871 170.500466 
L 193.999462 162.729016 
L 194.971993 165.159403 
L 195.944523 163.580375 
L 197.889584 172.674304 
L 198.862115 170.406935 
L 199.834645 159.717269 
L 200.807175 162.472671 
L 201.779706 169.487312 
L 202.752236 163.451184 
L 203.724767 172.121267 
L 204.697297 163.64762 
L 206.642358 166.087991 
L 207.614889 165.347892 
L 209.559949 167.471601 
L 210.53248 164.853949 
L 211.50501 169.722057 
L 212.477541 164.496533 
L 213.450071 164.704176 
L 214.422602 164.391387 
L 215.395132 169.218334 
L 217.340193 165.955539 
L 218.312723 172.118822 
L 219.285254 168.84482 
L 220.257784 171.810515 
L 222.202845 168.543237 
L 223.175376 167.990405 
L 224.147906 165.899094 
L 225.120437 169.596942 
L 226.092967 169.100961 
L 227.065498 162.27216 
L 229.010558 175.673621 
L 230.955619 164.800561 
L 232.90068 168.780428 
L 233.873211 165.607497 
L 234.845741 171.157019 
L 236.790802 166.918157 
L 237.763332 171.086921 
L 238.735863 170.629046 
L 239.708393 172.737269 
L 240.680924 169.435147 
L 241.653454 170.501485 
L 242.625985 174.211151 
L 245.543576 162.643025 
L 246.516106 168.82485 
L 247.488637 160.61957 
L 249.433698 165.063019 
L 250.406228 172.11984 
L 251.378759 171.804402 
L 252.351289 173.357754 
L 253.32382 167.267015 
L 255.268881 171.468993 
L 256.241411 169.35751 
L 258.186472 172.099871 
L 259.159002 165.611165 
L 260.131533 168.336817 
L 261.104063 166.668741 
L 263.049124 170.703219 
L 264.021655 169.780744 
L 264.994185 170.40347 
L 266.939246 167.639509 
L 268.884307 166.025229 
L 269.856837 168.783484 
L 270.829368 165.074022 
L 272.774429 175.437042 
L 274.719489 162.119127 
L 275.69202 170.568933 
L 276.66455 166.118149 
L 278.609611 167.942926 
L 279.582142 169.577787 
L 280.554672 174.5812 
L 281.527203 171.94317 
L 282.499733 172.298141 
L 283.472263 170.234136 
L 284.444794 164.163366 
L 285.417324 166.497776 
L 286.389855 174.273097 
L 287.362385 169.252567 
L 288.334916 171.152128 
L 289.307446 166.989681 
L 290.279977 170.418346 
L 291.252507 169.960063 
L 292.225038 166.657126 
L 293.197568 167.686785 
L 295.142629 173.83132 
L 297.08769 171.03985 
L 298.06022 166.532621 
L 299.032751 170.422829 
L 300.005281 168.871106 
L 301.950342 174.249867 
L 303.895403 167.351784 
L 304.867933 169.505244 
L 305.840464 165.875253 
L 306.812994 166.799562 
L 307.785525 163.684502 
L 308.758055 168.96423 
L 309.730586 166.555036 
L 309.730586 166.555036 
" clip-path="url(#p8dd90ee562)" style="fill: none; stroke: #1f9e89; stroke-width: 1.5; stroke-linecap: round"/>
   </g>
   <g id="line2d_7">
    <path d="M 67.570504 52.728507 
L 69.515565 161.513721 
L 71.460626 170.787376 
L 72.433156 173.159688 
L 73.405687 169.429441 
L 74.378217 172.50986 
L 76.323278 167.46182 
L 78.268339 178.004159 
L 80.2134 169.939278 
L 81.18593 174.802496 
L 82.158461 173.863516 
L 83.130991 170.867459 
L 84.103522 174.266984 
L 86.048583 165.503166 
L 87.021113 173.701313 
L 87.993643 173.110783 
L 89.938704 161.414688 
L 91.883765 169.532142 
L 92.856296 168.843801 
L 93.828826 164.062703 
L 94.801357 166.798339 
L 95.773887 165.597308 
L 96.746418 166.195786 
L 97.718948 161.232516 
L 98.691478 163.173035 
L 100.636539 162.098954 
L 101.60907 160.997363 
L 102.5816 162.033747 
L 103.554131 160.75732 
L 104.526661 164.46556 
L 106.471722 153.39586 
L 107.444252 160.59308 
L 108.416783 159.255929 
L 109.389313 153.928519 
L 110.361844 160.508515 
L 111.334374 155.062917 
L 112.306905 159.376562 
L 114.251966 153.479406 
L 115.224496 154.585887 
L 116.197026 152.76865 
L 117.169557 156.669454 
L 118.142087 153.169265 
L 119.114618 154.166117 
L 120.087148 148.491887 
L 122.032209 153.194533 
L 123.97727 150.949783 
L 124.9498 147.946594 
L 125.922331 152.815925 
L 127.867392 145.085434 
L 129.812453 147.852043 
L 130.784983 150.924719 
L 131.757514 147.372772 
L 132.730044 148.323979 
L 133.702575 140.691706 
L 135.647635 150.601333 
L 136.620166 141.386771 
L 137.592696 142.544195 
L 138.565227 135.396287 
L 140.510288 145.800265 
L 141.482818 146.320087 
L 142.455349 139.513293 
L 143.427879 140.515035 
L 144.400409 136.391713 
L 146.34547 140.068571 
L 148.290531 139.754967 
L 149.263062 145.984271 
L 150.235592 140.012534 
L 151.208123 148.545071 
L 152.180653 148.313383 
L 154.125714 152.151629 
L 155.098244 151.129509 
L 156.070775 151.594109 
L 157.043305 149.842079 
L 158.015836 143.281034 
L 158.988366 151.667263 
L 159.960897 151.433129 
L 160.933427 153.677268 
L 162.878488 149.544165 
L 163.851018 149.51584 
L 165.796079 159.639428 
L 166.76861 160.167197 
L 168.713671 153.237936 
L 169.686201 160.05553 
L 170.658732 153.363867 
L 171.631262 158.850424 
L 172.603792 154.742384 
L 174.548853 161.272048 
L 175.521384 158.027185 
L 176.493914 159.282216 
L 177.466445 162.694783 
L 179.411506 156.988357 
L 180.384036 166.432365 
L 181.356566 164.384255 
L 182.329097 156.287789 
L 183.301627 161.14897 
L 184.274158 160.056753 
L 186.219219 164.980084 
L 187.191749 163.394739 
L 188.16428 157.402421 
L 189.13681 159.605194 
L 190.109341 153.122805 
L 191.081871 162.167421 
L 193.026932 160.761803 
L 193.999462 155.321096 
L 194.971993 157.894734 
L 195.944523 156.378671 
L 197.889584 164.787723 
L 198.862115 162.053309 
L 199.834645 152.494169 
L 200.807175 154.438356 
L 201.779706 161.738685 
L 202.752236 157.1744 
L 203.724767 164.84376 
L 204.697297 157.562993 
L 205.669828 157.745573 
L 207.614889 159.240035 
L 208.587419 160.053492 
L 210.53248 157.843587 
L 211.50501 163.376603 
L 212.477541 156.64765 
L 213.450071 157.786327 
L 214.422602 156.316113 
L 215.395132 160.640966 
L 216.367663 158.703708 
L 217.340193 159.598062 
L 218.312723 164.771014 
L 219.285254 160.273973 
L 220.257784 165.055683 
L 223.175376 159.378193 
L 224.147906 156.914387 
L 225.120437 162.304152 
L 226.092967 161.836088 
L 227.065498 154.848141 
L 229.010558 168.701161 
L 230.955619 158.203448 
L 232.90068 161.011627 
L 233.873211 159.344366 
L 234.845741 163.878697 
L 236.790802 159.154044 
L 237.763332 164.043956 
L 238.735863 163.39209 
L 239.708393 165.030823 
L 241.653454 162.115256 
L 242.625985 167.419028 
L 245.543576 155.4888 
L 246.516106 160.647283 
L 247.488637 153.128103 
L 248.461167 154.616045 
L 252.351289 166.166035 
L 253.32382 159.417724 
L 255.268881 163.786184 
L 256.241411 161.780662 
L 257.213941 162.178832 
L 258.186472 165.30999 
L 259.159002 157.593559 
L 263.049124 163.244966 
L 266.939246 160.8751 
L 267.911776 160.581669 
L 268.884307 158.783994 
L 269.856837 160.807652 
L 270.829368 156.778268 
L 272.774429 168.495147 
L 274.719489 154.012473 
L 275.69202 162.535229 
L 276.66455 158.153116 
L 277.637081 161.529615 
L 278.609611 160.684574 
L 279.582142 162.222847 
L 280.554672 166.407913 
L 281.527203 164.4191 
L 282.499733 165.46017 
L 283.472263 163.486232 
L 284.444794 156.982243 
L 285.417324 158.958015 
L 286.389855 166.351875 
L 287.362385 160.612235 
L 288.334916 163.541658 
L 289.307446 159.949569 
L 290.279977 163.037119 
L 291.252507 162.073482 
L 292.225038 158.797239 
L 294.170098 161.754172 
L 295.142629 167.148827 
L 296.115159 166.488606 
L 298.06022 157.150151 
L 299.032751 162.253209 
L 300.977812 162.547456 
L 301.950342 165.901132 
L 303.895403 160.652174 
L 304.867933 160.617533 
L 307.785525 155.238976 
L 308.758055 161.947755 
L 309.730586 158.385416 
L 309.730586 158.385416 
" clip-path="url(#p8dd90ee562)" style="fill: none; stroke: #35b779; stroke-width: 1.5; stroke-linecap: round"/>
   </g>
   <g id="line2d_8">
    <path d="M 67.570504 45.47097 
L 69.515565 160.83944 
L 71.460626 170.121043 
L 72.433156 172.485611 
L 73.405687 168.777371 
L 74.378217 171.81459 
L 76.323278 166.260382 
L 78.268339 177.039911 
L 80.2134 169.288635 
L 81.18593 174.427556 
L 82.158461 173.914866 
L 83.130991 171.301289 
L 84.103522 174.792308 
L 86.048583 167.488311 
L 87.993643 175.806888 
L 89.938704 165.685338 
L 91.883765 173.14033 
L 92.856296 173.439059 
L 93.828826 169.034939 
L 95.773887 171.546223 
L 97.718948 168.230244 
L 98.691478 170.597257 
L 101.60907 167.914398 
L 102.5816 169.224243 
L 103.554131 168.599479 
L 104.526661 172.309144 
L 106.471722 161.574038 
L 107.444252 169.022509 
L 108.416783 167.986533 
L 109.389313 163.379456 
L 110.361844 169.592459 
L 111.334374 165.223183 
L 112.306905 168.412008 
L 114.251966 163.169163 
L 115.224496 166.586417 
L 116.197026 164.716607 
L 117.169557 168.757402 
L 118.142087 163.67737 
L 119.114618 164.181298 
L 120.087148 160.33755 
L 122.032209 168.031363 
L 124.9498 164.49959 
L 125.922331 167.347504 
L 127.867392 161.351519 
L 130.784983 168.270591 
L 131.757514 165.403929 
L 132.730044 167.879553 
L 133.702575 160.77566 
L 134.675105 163.256378 
L 135.647635 169.577379 
L 136.620166 160.295777 
L 137.592696 162.986991 
L 138.565227 156.634609 
L 140.510288 165.777443 
L 141.482818 167.084435 
L 142.455349 159.459701 
L 143.427879 160.347331 
L 144.400409 155.276673 
L 145.37294 159.307687 
L 146.34547 158.411091 
L 148.290531 159.303816 
L 149.263062 165.44611 
L 150.235592 157.592336 
L 151.208123 166.171537 
L 152.180653 165.001276 
L 153.153183 169.107685 
L 157.043305 162.788314 
L 158.015836 156.504195 
L 158.988366 162.932788 
L 159.960897 162.548067 
L 160.933427 164.212271 
L 163.851018 158.08954 
L 165.796079 166.886573 
L 166.76861 166.804045 
L 168.713671 158.489544 
L 169.686201 165.075245 
L 170.658732 158.100136 
L 171.631262 162.78648 
L 172.603792 158.513589 
L 174.548853 163.878697 
L 175.521384 159.869283 
L 177.466445 163.371101 
L 179.411506 157.172974 
L 180.384036 165.960022 
L 181.356566 164.21166 
L 182.329097 155.435615 
L 183.301627 160.029447 
L 184.274158 159.490267 
L 186.219219 163.182816 
L 187.191749 162.17761 
L 188.16428 155.461698 
L 189.13681 157.229215 
L 190.109341 151.259516 
L 191.081871 159.591338 
L 193.026932 158.148837 
L 193.999462 152.734009 
L 194.971993 155.688292 
L 195.944523 153.966828 
L 197.889584 162.808895 
L 198.862115 159.516961 
L 199.834645 149.965565 
L 200.807175 151.36996 
L 201.779706 159.16627 
L 202.752236 154.430205 
L 203.724767 161.736648 
L 204.697297 155.129143 
L 208.587419 157.703799 
L 210.53248 154.637645 
L 211.50501 161.121257 
L 212.477541 153.346751 
L 213.450071 155.230213 
L 214.422602 153.225506 
L 215.395132 157.714192 
L 216.367663 155.961958 
L 217.340193 157.270581 
L 218.312723 162.855762 
L 219.285254 158.731421 
L 220.257784 162.149285 
L 222.202845 157.083518 
L 223.175376 156.757891 
L 224.147906 153.955417 
L 226.092967 159.655526 
L 227.065498 152.439355 
L 229.010558 165.973879 
L 230.955619 155.283602 
L 232.90068 158.084445 
L 233.873211 156.619937 
L 234.845741 161.076223 
L 236.790802 157.102061 
L 238.735863 160.859614 
L 239.708393 162.1717 
L 241.653454 159.471724 
L 242.625985 165.033268 
L 245.543576 152.795955 
L 246.516106 157.145668 
L 247.488637 150.203978 
L 248.461167 151.795028 
L 252.351289 162.990659 
L 253.32382 156.481372 
L 255.268881 160.52013 
L 257.213941 159.112067 
L 258.186472 162.524429 
L 259.159002 154.810851 
L 261.104063 159.174217 
L 262.076594 158.966573 
L 263.049124 160.727569 
L 264.021655 159.206617 
L 264.994185 159.56281 
L 266.939246 157.824229 
L 268.884307 155.932411 
L 269.856837 157.974205 
L 270.829368 153.399935 
L 272.774429 164.742689 
L 274.719489 150.92696 
L 275.69202 159.604787 
L 276.66455 154.51905 
L 277.637081 158.850831 
L 278.609611 158.140686 
L 279.582142 159.16464 
L 280.554672 163.218884 
L 281.527203 162.041898 
L 282.499733 162.65036 
L 283.472263 160.681313 
L 284.444794 154.37804 
L 285.417324 156.003324 
L 286.389855 163.623167 
L 287.362385 157.368595 
L 288.334916 161.420597 
L 289.307446 157.393863 
L 290.279977 160.072239 
L 291.252507 159.245945 
L 292.225038 155.23164 
L 295.142629 164.496533 
L 296.115159 163.744615 
L 298.06022 154.296735 
L 299.032751 159.159749 
L 300.005281 158.2495 
L 300.977812 159.335604 
L 301.950342 162.558052 
L 303.895403 156.962885 
L 304.867933 157.409961 
L 307.785525 152.154889 
L 308.758055 159.019962 
L 309.730586 155.022162 
L 309.730586 155.022162 
" clip-path="url(#p8dd90ee562)" style="fill: none; stroke: #6ece58; stroke-width: 1.5; stroke-linecap: round"/>
   </g>
   <g id="line2d_9">
    <path d="M 67.570504 35.877393 
L 69.515565 160.152322 
L 71.460626 169.843913 
L 72.433156 172.243122 
L 73.405687 168.66224 
L 74.378217 171.798288 
L 76.323278 166.519376 
L 78.268339 177.269562 
L 80.2134 169.519101 
L 81.18593 174.443858 
L 82.158461 173.95664 
L 83.130991 171.426405 
L 84.103522 175.095928 
L 86.048583 167.732429 
L 87.993643 176.19059 
L 89.938704 166.07821 
L 91.883765 174.378243 
L 92.856296 174.520476 
L 93.828826 170.480904 
L 95.773887 173.335136 
L 97.718948 170.360475 
L 98.691478 173.055357 
L 101.60907 171.029865 
L 102.5816 173.161318 
L 103.554131 172.535127 
L 104.526661 176.860592 
L 106.471722 166.595383 
L 107.444252 174.218894 
L 108.416783 173.487761 
L 109.389313 168.83076 
L 110.361844 175.525886 
L 111.334374 170.95773 
L 112.306905 174.549412 
L 114.251966 169.72654 
L 115.224496 172.494781 
L 116.197026 170.8481 
L 117.169557 174.714263 
L 118.142087 169.729393 
L 119.114618 170.434851 
L 120.087148 166.060278 
L 122.032209 172.653111 
L 124.9498 168.358416 
L 125.922331 171.483461 
L 127.867392 165.62604 
L 130.784983 171.817851 
L 131.757514 168.428106 
L 132.730044 170.526956 
L 133.702575 163.368248 
L 134.675105 166.186616 
L 135.647635 173.009916 
L 136.620166 163.728721 
L 137.592696 165.426955 
L 138.565227 159.425875 
L 140.510288 169.140085 
L 141.482818 169.751604 
L 142.455349 162.349593 
L 143.427879 163.099473 
L 144.400409 158.110732 
L 145.37294 161.759266 
L 147.318001 161.682037 
L 148.290531 161.348258 
L 149.263062 167.283928 
L 150.235592 159.500863 
L 151.208123 167.346078 
L 152.180653 166.224518 
L 153.153183 169.812532 
L 157.043305 163.18139 
L 158.015836 156.752796 
L 158.988366 163.448127 
L 159.960897 162.735537 
L 160.933427 163.994439 
L 163.851018 157.936711 
L 165.796079 166.518357 
L 166.76861 166.434607 
L 168.713671 157.839919 
L 169.686201 165.005555 
L 170.658732 158.259485 
L 171.631262 162.775069 
L 172.603792 158.790922 
L 174.548853 164.161328 
L 175.521384 160.569035 
L 177.466445 163.985677 
L 179.411506 158.725104 
L 180.384036 167.698807 
L 181.356566 166.698287 
L 182.329097 157.38184 
L 183.301627 162.578633 
L 184.274158 162.071648 
L 186.219219 165.732613 
L 187.191749 164.925676 
L 188.16428 158.246444 
L 189.13681 160.642393 
L 190.109341 154.814926 
L 191.081871 163.570186 
L 193.026932 162.467373 
L 193.999462 157.308278 
L 194.971993 159.852777 
L 195.944523 157.662026 
L 197.889584 166.07821 
L 198.862115 162.874102 
L 199.834645 154.674731 
L 200.807175 155.407495 
L 201.779706 163.096621 
L 202.752236 159.228216 
L 203.724767 166.232669 
L 204.697297 158.567792 
L 205.669828 159.141817 
L 206.642358 161.256765 
L 207.614889 160.631389 
L 208.587419 162.145821 
L 210.53248 159.283642 
L 211.50501 165.179372 
L 212.477541 157.871096 
L 213.450071 159.584206 
L 214.422602 157.694426 
L 215.395132 161.399201 
L 216.367663 159.805706 
L 217.340193 161.927378 
L 218.312723 167.01067 
L 219.285254 162.198394 
L 220.257784 166.032157 
L 224.147906 158.087502 
L 226.092967 163.969172 
L 227.065498 157.288716 
L 229.010558 169.553742 
L 230.955619 159.769231 
L 232.90068 163.082764 
L 233.873211 161.590543 
L 234.845741 166.004444 
L 236.790802 161.670014 
L 238.735863 165.666183 
L 239.708393 166.381219 
L 241.653454 163.982213 
L 242.625985 169.155776 
L 245.543576 157.614547 
L 246.516106 161.395533 
L 247.488637 154.336878 
L 249.433698 159.297499 
L 251.378759 165.267198 
L 252.351289 167.01393 
L 253.32382 160.608974 
L 255.268881 164.425213 
L 257.213941 163.551439 
L 258.186472 167.473843 
L 259.159002 159.658583 
L 261.104063 163.084598 
L 263.049124 165.536992 
L 264.021655 163.606458 
L 264.994185 164.027858 
L 265.966715 161.935733 
L 267.911776 162.490807 
L 268.884307 160.493436 
L 269.856837 162.828253 
L 270.829368 158.25867 
L 272.774429 169.852064 
L 274.719489 155.139739 
L 275.69202 165.364193 
L 276.66455 159.849109 
L 277.637081 164.248339 
L 278.609611 163.269012 
L 282.499733 168.27161 
L 284.444794 159.212322 
L 285.417324 160.827825 
L 286.389855 168.216999 
L 287.362385 162.608383 
L 288.334916 165.855487 
L 289.307446 162.851483 
L 291.252507 164.501831 
L 292.225038 160.445957 
L 296.115159 169.20896 
L 298.06022 159.786755 
L 300.005281 164.963782 
L 300.977812 164.91182 
L 301.950342 167.966359 
L 305.840464 160.876323 
L 306.812994 160.733071 
L 307.785525 158.420057 
L 308.758055 164.339629 
L 309.730586 160.187574 
L 309.730586 160.187574 
" clip-path="url(#p8dd90ee562)" style="fill: none; stroke: #b5de2b; stroke-width: 1.5; stroke-linecap: round"/>
   </g>
   <g id="patch_3">
    <path d="M 55.4625 192.009865 
L 55.4625 28.442513 
" style="fill: none"/>
   </g>
   <g id="patch_4">
    <path d="M 321.83859 192.009865 
L 321.83859 28.442513 
" style="fill: none"/>
   </g>
   <g id="patch_5">
    <path d="M 55.4625 192.009865 
L 321.83859 192.009865 
" style="fill: none"/>
   </g>
   <g id="patch_6">
    <path d="M 55.4625 28.442513 
L 321.83859 28.442513 
" style="fill: none"/>
   </g>
  </g>
  <g id="text_14">
   <!-- train: pytorch -->
   <g style="fill: #262626" transform="translate(135.502156 18.14175) scale(0.144 -0.144)">
    <defs>
     <path id="DejaVuSans-74" d="M 1172 4494 
L 1172 3500 
L 2356 3500 
L 2356 3053 
L 1172 3053 
L 1172 1153 
Q 1172 725 1289 603 
Q 1406 481 1766 481 
L 2356 481 
L 2356 0 
L 1766 0 
Q 1100 0 847 248 
Q 594 497 594 1153 
L 594 3053 
L 172 3053 
L 172 3500 
L 594 3500 
L 594 4494 
L 1172 4494 
z
" transform="scale(0.015625)"/>
     <path id="DejaVuSans-69" d="M 603 3500 
L 1178 3500 
L 1178 0 
L 603 0 
L 603 3500 
z
M 603 4863 
L 1178 4863 
L 1178 4134 
L 603 4134 
L 603 4863 
z
" transform="scale(0.015625)"/>
     <path id="DejaVuSans-6e" d="M 3513 2113 
L 3513 0 
L 2938 0 
L 2938 2094 
Q 2938 2591 2744 2837 
Q 2550 3084 2163 3084 
Q 1697 3084 1428 2787 
Q 1159 2491 1159 1978 
L 1159 0 
L 581 0 
L 581 3500 
L 1159 3500 
L 1159 2956 
Q 1366 3272 1645 3428 
Q 1925 3584 2291 3584 
Q 2894 3584 3203 3211 
Q 3513 2838 3513 2113 
z
" transform="scale(0.015625)"/>
     <path id="DejaVuSans-3a" d="M 750 794 
L 1409 794 
L 1409 0 
L 750 0 
L 750 794 
z
M 750 3309 
L 1409 3309 
L 1409 2516 
L 750 2516 
L 750 3309 
z
" transform="scale(0.015625)"/>
     <path id="DejaVuSans-20" transform="scale(0.015625)"/>
     <path id="DejaVuSans-79" d="M 2059 -325 
Q 1816 -950 1584 -1140 
Q 1353 -1331 966 -1331 
L 506 -1331 
L 506 -850 
L 844 -850 
Q 1081 -850 1212 -737 
Q 1344 -625 1503 -206 
L 1606 56 
L 191 3500 
L 800 3500 
L 1894 763 
L 2988 3500 
L 3597 3500 
L 2059 -325 
z
" transform="scale(0.015625)"/>
     <path id="DejaVuSans-63" d="M 3122 3366 
L 3122 2828 
Q 2878 2963 2633 3030 
Q 2388 3097 2138 3097 
Q 1578 3097 1268 2742 
Q 959 2388 959 1747 
Q 959 1106 1268 751 
Q 1578 397 2138 397 
Q 2388 397 2633 464 
Q 2878 531 3122 666 
L 3122 134 
Q 2881 22 2623 -34 
Q 2366 -91 2075 -91 
Q 1284 -91 818 406 
Q 353 903 353 1747 
Q 353 2603 823 3093 
Q 1294 3584 2113 3584 
Q 2378 3584 2631 3529 
Q 2884 3475 3122 3366 
z
" transform="scale(0.015625)"/>
     <path id="DejaVuSans-68" d="M 3513 2113 
L 3513 0 
L 2938 0 
L 2938 2094 
Q 2938 2591 2744 2837 
Q 2550 3084 2163 3084 
Q 1697 3084 1428 2787 
Q 1159 2491 1159 1978 
L 1159 0 
L 581 0 
L 581 4863 
L 1159 4863 
L 1159 2956 
Q 1366 3272 1645 3428 
Q 1925 3584 2291 3584 
Q 2894 3584 3203 3211 
Q 3513 2838 3513 2113 
z
" transform="scale(0.015625)"/>
    </defs>
    <use xlink:href="#DejaVuSans-74"/>
    <use xlink:href="#DejaVuSans-72" x="39.208984"/>
    <use xlink:href="#DejaVuSans-61" x="80.322266"/>
    <use xlink:href="#DejaVuSans-69" x="141.601562"/>
    <use xlink:href="#DejaVuSans-6e" x="169.384766"/>
    <use xlink:href="#DejaVuSans-3a" x="232.763672"/>
    <use xlink:href="#DejaVuSans-20" x="266.455078"/>
    <use xlink:href="#DejaVuSans-70" x="298.242188"/>
    <use xlink:href="#DejaVuSans-79" x="361.71875"/>
    <use xlink:href="#DejaVuSans-74" x="420.898438"/>
    <use xlink:href="#DejaVuSans-6f" x="460.107422"/>
    <use xlink:href="#DejaVuSans-72" x="521.289062"/>
    <use xlink:href="#DejaVuSans-63" x="560.152344"/>
    <use xlink:href="#DejaVuSans-68" x="615.132812"/>
   </g>
  </g>
 </g>
 <defs>
  <clipPath id="p8dd90ee562">
   <rect x="55.4625" y="28.442513" width="266.37609" height="163.567352"/>
  </clipPath>
 </defs>
</svg>
