<?xml version="1.0" encoding="utf-8" standalone="no"?>
<!DOCTYPE svg PUBLIC "-//W3C//DTD SVG 1.1//EN"
  "http://www.w3.org/Graphics/SVG/1.1/DTD/svg11.dtd">
<svg xmlns:xlink="http://www.w3.org/1999/xlink" width="225.927916pt" height="174.899688pt" viewBox="0 0 225.927916 174.899688" xmlns="http://www.w3.org/2000/svg" version="1.1">
 <metadata>
  <rdf:RDF xmlns:dc="http://purl.org/dc/elements/1.1/" xmlns:cc="http://creativecommons.org/ns#" xmlns:rdf="http://www.w3.org/1999/02/22-rdf-syntax-ns#">
   <cc:Work>
    <dc:type rdf:resource="http://purl.org/dc/dcmitype/StillImage"/>
    <dc:date>2023-12-05T12:05:26.518428</dc:date>
    <dc:format>image/svg+xml</dc:format>
    <dc:creator>
     <cc:Agent>
      <dc:title>Matplotlib v3.8.2, https://matplotlib.org/</dc:title>
     </cc:Agent>
    </dc:creator>
   </cc:Work>
  </rdf:RDF>
 </metadata>
 <defs>
  <style type="text/css">*{stroke-linejoin: round; stroke-linecap: butt}</style>
 </defs>
 <g id="figure_1">
  <g id="patch_1">
   <path d="M 0 174.899688 
L 225.927916 174.899688 
L 225.927916 0 
L 0 0 
L 0 174.899688 
z
" style="fill: none"/>
  </g>
  <g id="axes_1">
   <g id="patch_2">
    <path d="M 7.2 48.78 
L 216.45 48.78 
L 216.45 7.2 
L 7.2 7.2 
L 7.2 48.78 
z
" style="fill: none"/>
   </g>
   <g id="matplotlib.axis_1">
    <g id="xtick_1"/>
    <g id="xtick_2"/>
    <g id="xtick_3"/>
    <g id="xtick_4"/>
    <g id="xtick_5"/>
   </g>
   <g id="matplotlib.axis_2"/>
   <g id="line2d_1">
    <path d="M 7.2 48.78 
L 216.45 48.78 
" style="fill: none; stroke: #21918c; stroke-opacity: 0.9; stroke-linecap: round"/>
   </g>
   <g id="text_1">
    <!-- 0 -->
    <g style="fill: #21918c" transform="translate(7.2 47.93325) scale(0.12 -0.12)">
     <defs>
      <path id="DejaVuSans-Bold-30" d="M 2944 2338 
Q 2944 3213 2780 3570 
Q 2616 3928 2228 3928 
Q 1841 3928 1675 3570 
Q 1509 3213 1509 2338 
Q 1509 1453 1675 1090 
Q 1841 728 2228 728 
Q 2613 728 2778 1090 
Q 2944 1453 2944 2338 
z
M 4147 2328 
Q 4147 1169 3647 539 
Q 3147 -91 2228 -91 
Q 1306 -91 806 539 
Q 306 1169 306 2328 
Q 306 3491 806 4120 
Q 1306 4750 2228 4750 
Q 3147 4750 3647 4120 
Q 4147 3491 4147 2328 
z
" transform="scale(0.015625)"/>
     </defs>
     <use xlink:href="#DejaVuSans-Bold-30"/>
    </g>
   </g>
  </g>
  <g id="axes_2">
   <g id="patch_3">
    <path d="M 7.2 59.175 
L 216.45 59.175 
L 216.45 17.595 
L 7.2 17.595 
L 7.2 59.175 
z
" style="fill: none"/>
   </g>
   <g id="matplotlib.axis_3">
    <g id="xtick_6"/>
    <g id="xtick_7"/>
    <g id="xtick_8"/>
    <g id="xtick_9"/>
    <g id="xtick_10"/>
   </g>
   <g id="matplotlib.axis_4"/>
   <g id="line2d_2">
    <path d="M 7.2 59.175 
L 216.45 59.175 
" style="fill: none; stroke: #21918c; stroke-opacity: 0.9; stroke-linecap: round"/>
   </g>
   <g id="text_2">
    <!-- 1 -->
    <g style="fill: #21918c" transform="translate(7.2 58.32825) scale(0.12 -0.12)">
     <defs>
      <path id="DejaVuSans-Bold-31" d="M 750 831 
L 1813 831 
L 1813 3847 
L 722 3622 
L 722 4441 
L 1806 4666 
L 2950 4666 
L 2950 831 
L 4013 831 
L 4013 0 
L 750 0 
L 750 831 
z
" transform="scale(0.015625)"/>
     </defs>
     <use xlink:href="#DejaVuSans-Bold-31"/>
    </g>
   </g>
  </g>
  <g id="axes_3">
   <g id="patch_4">
    <path d="M 7.2 69.57 
L 216.45 69.57 
L 216.45 27.99 
L 7.2 27.99 
L 7.2 69.57 
z
" style="fill: none"/>
   </g>
   <g id="matplotlib.axis_5">
    <g id="xtick_11"/>
    <g id="xtick_12"/>
    <g id="xtick_13"/>
    <g id="xtick_14"/>
    <g id="xtick_15"/>
   </g>
   <g id="matplotlib.axis_6"/>
   <g id="line2d_3">
    <path d="M 7.2 69.57 
L 216.45 69.57 
" style="fill: none; stroke: #21918c; stroke-opacity: 0.9; stroke-linecap: round"/>
   </g>
   <g id="text_3">
    <!-- 2 -->
    <g style="fill: #21918c" transform="translate(7.2 68.72325) scale(0.12 -0.12)">
     <defs>
      <path id="DejaVuSans-Bold-32" d="M 1844 884 
L 3897 884 
L 3897 0 
L 506 0 
L 506 884 
L 2209 2388 
Q 2438 2594 2547 2791 
Q 2656 2988 2656 3200 
Q 2656 3528 2436 3728 
Q 2216 3928 1850 3928 
Q 1569 3928 1234 3808 
Q 900 3688 519 3450 
L 519 4475 
Q 925 4609 1322 4679 
Q 1719 4750 2100 4750 
Q 2938 4750 3402 4381 
Q 3866 4013 3866 3353 
Q 3866 2972 3669 2642 
Q 3472 2313 2841 1759 
L 1844 884 
z
" transform="scale(0.015625)"/>
     </defs>
     <use xlink:href="#DejaVuSans-Bold-32"/>
    </g>
   </g>
  </g>
  <g id="axes_4">
   <g id="patch_5">
    <path d="M 7.2 79.965 
L 216.45 79.965 
L 216.45 38.385 
L 7.2 38.385 
L 7.2 79.965 
z
" style="fill: none"/>
   </g>
   <g id="matplotlib.axis_7">
    <g id="xtick_16"/>
    <g id="xtick_17"/>
    <g id="xtick_18"/>
    <g id="xtick_19"/>
    <g id="xtick_20"/>
   </g>
   <g id="matplotlib.axis_8"/>
   <g id="line2d_4">
    <path d="M 7.2 79.965 
L 216.45 79.965 
" style="fill: none; stroke: #21918c; stroke-opacity: 0.9; stroke-linecap: round"/>
   </g>
   <g id="text_4">
    <!-- 3 -->
    <g style="fill: #21918c" transform="translate(7.2 79.11825) scale(0.12 -0.12)">
     <defs>
      <path id="DejaVuSans-Bold-33" d="M 2981 2516 
Q 3453 2394 3698 2092 
Q 3944 1791 3944 1325 
Q 3944 631 3412 270 
Q 2881 -91 1863 -91 
Q 1503 -91 1142 -33 
Q 781 25 428 141 
L 428 1069 
Q 766 900 1098 814 
Q 1431 728 1753 728 
Q 2231 728 2486 893 
Q 2741 1059 2741 1369 
Q 2741 1688 2480 1852 
Q 2219 2016 1709 2016 
L 1228 2016 
L 1228 2791 
L 1734 2791 
Q 2188 2791 2409 2933 
Q 2631 3075 2631 3366 
Q 2631 3634 2415 3781 
Q 2200 3928 1806 3928 
Q 1516 3928 1219 3862 
Q 922 3797 628 3669 
L 628 4550 
Q 984 4650 1334 4700 
Q 1684 4750 2022 4750 
Q 2931 4750 3382 4451 
Q 3834 4153 3834 3553 
Q 3834 3144 3618 2883 
Q 3403 2622 2981 2516 
z
" transform="scale(0.015625)"/>
     </defs>
     <use xlink:href="#DejaVuSans-Bold-33"/>
    </g>
   </g>
  </g>
  <g id="axes_5">
   <g id="patch_6">
    <path d="M 7.2 90.36 
L 216.45 90.36 
L 216.45 48.78 
L 7.2 48.78 
L 7.2 90.36 
z
" style="fill: none"/>
   </g>
   <g id="matplotlib.axis_9">
    <g id="xtick_21"/>
    <g id="xtick_22"/>
    <g id="xtick_23"/>
    <g id="xtick_24"/>
    <g id="xtick_25"/>
   </g>
   <g id="matplotlib.axis_10"/>
   <g id="line2d_5">
    <path d="M 7.2 90.36 
L 216.45 90.36 
" style="fill: none; stroke: #21918c; stroke-opacity: 0.9; stroke-linecap: round"/>
   </g>
   <g id="text_5">
    <!-- 4 -->
    <g style="fill: #21918c" transform="translate(7.2 89.51325) scale(0.12 -0.12)">
     <defs>
      <path id="DejaVuSans-Bold-34" d="M 2356 3675 
L 1038 1722 
L 2356 1722 
L 2356 3675 
z
M 2156 4666 
L 3494 4666 
L 3494 1722 
L 4159 1722 
L 4159 850 
L 3494 850 
L 3494 0 
L 2356 0 
L 2356 850 
L 288 850 
L 288 1881 
L 2156 4666 
z
" transform="scale(0.015625)"/>
     </defs>
     <use xlink:href="#DejaVuSans-Bold-34"/>
    </g>
   </g>
  </g>
  <g id="axes_6">
   <g id="patch_7">
    <path d="M 7.2 100.755 
L 216.45 100.755 
L 216.45 59.175 
L 7.2 59.175 
L 7.2 100.755 
z
" style="fill: none"/>
   </g>
   <g id="matplotlib.axis_11">
    <g id="xtick_26"/>
    <g id="xtick_27"/>
    <g id="xtick_28"/>
    <g id="xtick_29"/>
    <g id="xtick_30"/>
   </g>
   <g id="matplotlib.axis_12"/>
   <g id="PolyCollection_1">
    <defs>
     <path id="m24ce9fe7c9" d="M 88.089738 -74.154456 
L 88.089738 -74.144688 
L 88.503282 -74.144688 
L 88.916827 -74.144688 
L 89.330371 -74.144688 
L 89.743916 -74.144688 
L 90.15746 -74.144688 
L 90.571004 -74.144688 
L 90.984549 -74.144688 
L 91.398093 -74.144688 
L 91.811638 -74.144688 
L 92.225182 -74.144688 
L 92.638727 -74.144688 
L 93.052271 -74.144688 
L 93.465816 -74.144688 
L 93.87936 -74.144688 
L 94.292904 -74.144688 
L 94.706449 -74.144688 
L 95.119993 -74.144688 
L 95.533538 -74.144688 
L 95.947082 -74.144688 
L 96.360627 -74.144688 
L 96.774171 -74.144688 
L 97.187716 -74.144688 
L 97.60126 -74.144688 
L 98.014804 -74.144688 
L 98.428349 -74.144688 
L 98.841893 -74.144688 
L 99.255438 -74.144688 
L 99.668982 -74.144688 
L 100.082527 -74.144688 
L 100.496071 -74.144688 
L 100.909615 -74.144688 
L 101.32316 -74.144688 
L 101.736704 -74.144688 
L 102.150249 -74.144688 
L 102.563793 -74.144688 
L 102.977338 -74.144688 
L 103.390882 -74.144688 
L 103.804427 -74.144688 
L 104.217971 -74.144688 
L 104.631515 -74.144688 
L 105.04506 -74.144688 
L 105.458604 -74.144688 
L 105.872149 -74.144688 
L 106.285693 -74.144688 
L 106.699238 -74.144688 
L 107.112782 -74.144688 
L 107.526327 -74.144688 
L 107.939871 -74.144688 
L 108.353415 -74.144688 
L 108.76696 -74.144688 
L 109.180504 -74.144688 
L 109.594049 -74.144688 
L 110.007593 -74.144688 
L 110.421138 -74.144688 
L 110.834682 -74.144688 
L 111.248227 -74.144688 
L 111.661771 -74.144688 
L 112.075315 -74.144688 
L 112.48886 -74.144688 
L 112.902404 -74.144688 
L 113.315949 -74.144688 
L 113.729493 -74.144688 
L 114.143038 -74.144688 
L 114.556582 -74.144688 
L 114.970126 -74.144688 
L 115.383671 -74.144688 
L 115.797215 -74.144688 
L 116.21076 -74.144688 
L 116.624304 -74.144688 
L 117.037849 -74.144688 
L 117.451393 -74.144688 
L 117.864938 -74.144688 
L 118.278482 -74.144688 
L 118.692026 -74.144688 
L 119.105571 -74.144688 
L 119.519115 -74.144688 
L 119.93266 -74.144688 
L 120.346204 -74.144688 
L 120.759749 -74.144688 
L 121.173293 -74.144688 
L 121.586838 -74.144688 
L 122.000382 -74.144688 
L 122.413926 -74.144688 
L 122.827471 -74.144688 
L 123.241015 -74.144688 
L 123.65456 -74.144688 
L 124.068104 -74.144688 
L 124.481649 -74.144688 
L 124.895193 -74.144688 
L 125.308738 -74.144688 
L 125.722282 -74.144688 
L 126.135826 -74.144688 
L 126.549371 -74.144688 
L 126.962915 -74.144688 
L 127.37646 -74.144688 
L 127.790004 -74.144688 
L 128.203549 -74.144688 
L 128.617093 -74.144688 
L 129.030637 -74.144688 
L 129.444182 -74.144688 
L 129.857726 -74.144688 
L 130.271271 -74.144688 
L 130.684815 -74.144688 
L 131.09836 -74.144688 
L 131.511904 -74.144688 
L 131.925449 -74.144688 
L 132.338993 -74.144688 
L 132.752537 -74.144688 
L 133.166082 -74.144688 
L 133.579626 -74.144688 
L 133.993171 -74.144688 
L 134.406715 -74.144688 
L 134.82026 -74.144688 
L 135.233804 -74.144688 
L 135.647349 -74.144688 
L 136.060893 -74.144688 
L 136.474437 -74.144688 
L 136.887982 -74.144688 
L 137.301526 -74.144688 
L 137.715071 -74.144688 
L 138.128615 -74.144688 
L 138.54216 -74.144688 
L 138.955704 -74.144688 
L 139.369248 -74.144688 
L 139.782793 -74.144688 
L 140.196337 -74.144688 
L 140.609882 -74.144688 
L 141.023426 -74.144688 
L 141.436971 -74.144688 
L 141.850515 -74.144688 
L 142.26406 -74.144688 
L 142.677604 -74.144688 
L 143.091148 -74.144688 
L 143.504693 -74.144688 
L 143.918237 -74.144688 
L 144.331782 -74.144688 
L 144.745326 -74.144688 
L 145.158871 -74.144688 
L 145.572415 -74.144688 
L 145.98596 -74.144688 
L 146.399504 -74.144688 
L 146.813048 -74.144688 
L 147.226593 -74.144688 
L 147.640137 -74.144688 
L 148.053682 -74.144688 
L 148.467226 -74.144688 
L 148.880771 -74.144688 
L 149.294315 -74.144688 
L 149.70786 -74.144688 
L 150.121404 -74.144688 
L 150.534948 -74.144688 
L 150.948493 -74.144688 
L 151.362037 -74.144688 
L 151.775582 -74.144688 
L 152.189126 -74.144688 
L 152.602671 -74.144688 
L 153.016215 -74.144688 
L 153.429759 -74.144688 
L 153.843304 -74.144688 
L 154.256848 -74.144688 
L 154.670393 -74.144688 
L 155.083937 -74.144688 
L 155.497482 -74.144688 
L 155.911026 -74.144688 
L 156.324571 -74.144688 
L 156.738115 -74.144688 
L 157.151659 -74.144688 
L 157.565204 -74.144688 
L 157.978748 -74.144688 
L 158.392293 -74.144688 
L 158.805837 -74.144688 
L 159.219382 -74.144688 
L 159.632926 -74.144688 
L 160.046471 -74.144688 
L 160.460015 -74.144688 
L 160.873559 -74.144688 
L 161.287104 -74.144688 
L 161.700648 -74.144688 
L 162.114193 -74.144688 
L 162.527737 -74.144688 
L 162.941282 -74.144688 
L 163.354826 -74.144688 
L 163.768371 -74.144688 
L 164.181915 -74.144688 
L 164.595459 -74.144688 
L 165.009004 -74.144688 
L 165.422548 -74.144688 
L 165.836093 -74.144688 
L 166.249637 -74.144688 
L 166.663182 -74.144688 
L 167.076726 -74.144688 
L 167.49027 -74.144688 
L 167.903815 -74.144688 
L 168.317359 -74.144688 
L 168.730904 -74.144688 
L 169.144448 -74.144688 
L 169.557993 -74.144688 
L 169.971537 -74.144688 
L 170.385082 -74.144688 
L 170.385082 -74.154611 
L 170.385082 -74.154611 
L 169.971537 -74.159443 
L 169.557993 -74.162754 
L 169.144448 -74.164129 
L 168.730904 -74.165275 
L 168.317359 -74.168432 
L 167.903815 -74.17448 
L 167.49027 -74.182839 
L 167.076726 -74.1922 
L 166.663182 -74.200776 
L 166.249637 -74.206792 
L 165.836093 -74.209301 
L 165.422548 -74.207997 
L 165.009004 -74.202464 
L 164.595459 -74.192623 
L 164.181915 -74.179911 
L 163.768371 -74.167294 
L 163.354826 -74.158011 
L 162.941282 -74.154626 
L 162.527737 -74.158965 
L 162.114193 -74.171637 
L 161.700648 -74.190101 
L 161.287104 -74.207522 
L 160.873559 -74.215827 
L 160.460015 -74.211538 
L 160.046471 -74.198407 
L 159.632926 -74.184567 
L 159.219382 -74.177864 
L 158.805837 -74.18247 
L 158.392293 -74.196794 
L 157.978748 -74.213624 
L 157.565204 -74.224227 
L 157.151659 -74.224368 
L 156.738115 -74.217204 
L 156.324571 -74.211215 
L 155.911026 -74.215225 
L 155.497482 -74.232584 
L 155.083937 -74.257262 
L 154.670393 -74.276377 
L 154.256848 -74.279321 
L 153.843304 -74.265562 
L 153.429759 -74.24395 
L 153.016215 -74.225651 
L 152.602671 -74.217781 
L 152.189126 -74.221521 
L 151.775582 -74.234428 
L 151.362037 -74.254102 
L 150.948493 -74.279162 
L 150.534948 -74.307205 
L 150.121404 -74.334332 
L 149.70786 -74.357371 
L 149.294315 -74.374071 
L 148.880771 -74.381466 
L 148.467226 -74.378751 
L 148.053682 -74.373425 
L 147.640137 -74.38011 
L 147.226593 -74.409149 
L 146.813048 -74.456947 
L 146.399504 -74.509215 
L 145.98596 -74.551926 
L 145.572415 -74.577407 
L 145.158871 -74.584326 
L 144.745326 -74.578345 
L 144.331782 -74.571866 
L 143.918237 -74.577759 
L 143.504693 -74.602834 
L 143.091148 -74.648541 
L 142.677604 -74.713238 
L 142.26406 -74.789108 
L 141.850515 -74.86083 
L 141.436971 -74.913191 
L 141.023426 -74.940229 
L 140.609882 -74.947086 
L 140.196337 -74.945981 
L 139.782793 -74.950517 
L 139.369248 -74.974059 
L 138.955704 -75.040724 
L 138.54216 -75.207927 
L 138.128615 -75.587657 
L 137.715071 -76.357394 
L 137.301526 -77.753285 
L 136.887982 -80.025407 
L 136.474437 -83.340401 
L 136.060893 -87.659673 
L 135.647349 -92.662265 
L 135.233804 -97.776968 
L 134.82026 -102.326594 
L 134.406715 -105.695429 
L 133.993171 -107.419029 
L 133.579626 -107.227172 
L 133.166082 -105.152434 
L 132.752537 -101.662069 
L 132.338993 -97.609058 
L 131.925449 -93.93585 
L 131.511904 -91.335055 
L 131.09836 -90.107774 
L 130.684815 -90.241865 
L 130.271271 -91.536426 
L 129.857726 -93.628496 
L 129.444182 -95.96372 
L 129.030637 -97.852933 
L 128.617093 -98.664273 
L 128.203549 -98.058055 
L 127.790004 -96.122054 
L 127.37646 -93.310274 
L 126.962915 -90.212646 
L 126.549371 -87.313906 
L 126.135826 -84.879136 
L 125.722282 -82.963117 
L 125.308738 -81.482646 
L 124.895193 -80.316228 
L 124.481649 -79.383265 
L 124.068104 -78.652203 
L 123.65456 -78.096775 
L 123.241015 -77.668419 
L 122.827471 -77.311269 
L 122.413926 -76.986933 
L 122.000382 -76.681288 
L 121.586838 -76.402182 
L 121.173293 -76.175477 
L 120.759749 -76.026408 
L 120.346204 -75.95037 
L 119.93266 -75.904726 
L 119.519115 -75.834708 
L 119.105571 -75.70797 
L 118.692026 -75.528701 
L 118.278482 -75.327367 
L 117.864938 -75.140197 
L 117.451393 -74.992697 
L 117.037849 -74.892353 
L 116.624304 -74.829419 
L 116.21076 -74.785092 
L 115.797215 -74.743256 
L 115.383671 -74.696237 
L 114.970126 -74.642282 
L 114.556582 -74.583566 
L 114.143038 -74.527351 
L 113.729493 -74.483929 
L 113.315949 -74.460666 
L 112.902404 -74.457119 
L 112.48886 -74.46349 
L 112.075315 -74.464299 
L 111.661771 -74.447996 
L 111.248227 -74.415579 
L 110.834682 -74.379402 
L 110.421138 -74.352934 
L 110.007593 -74.340631 
L 109.594049 -74.336315 
L 109.180504 -74.331166 
L 108.76696 -74.323087 
L 108.353415 -74.316886 
L 107.939871 -74.315156 
L 107.526327 -74.312007 
L 107.112782 -74.298694 
L 106.699238 -74.273755 
L 106.285693 -74.244531 
L 105.872149 -74.220223 
L 105.458604 -74.206305 
L 105.04506 -74.203537 
L 104.631515 -74.208015 
L 104.217971 -74.211951 
L 103.804427 -74.207913 
L 103.390882 -74.1944 
L 102.977338 -74.176579 
L 102.563793 -74.161196 
L 102.150249 -74.151554 
L 101.736704 -74.147041 
L 101.32316 -74.145647 
L 100.909615 -74.146087 
L 100.496071 -74.14832 
L 100.082527 -74.152921 
L 99.668982 -74.159858 
L 99.255438 -74.167488 
L 98.841893 -74.172831 
L 98.428349 -74.17335 
L 98.014804 -74.168782 
L 97.60126 -74.161342 
L 97.187716 -74.154088 
L 96.774171 -74.148986 
L 96.360627 -74.146268 
L 95.947082 -74.145152 
L 95.533538 -74.144796 
L 95.119993 -74.144708 
L 94.706449 -74.14469 
L 94.292904 -74.144688 
L 93.87936 -74.144688 
L 93.465816 -74.144688 
L 93.052271 -74.144688 
L 92.638727 -74.144689 
L 92.225182 -74.144696 
L 91.811638 -74.144736 
L 91.398093 -74.144917 
L 90.984549 -74.145537 
L 90.571004 -74.147157 
L 90.15746 -74.15034 
L 89.743916 -74.154869 
L 89.330371 -74.159121 
L 88.916827 -74.16079 
L 88.503282 -74.158825 
L 88.089738 -74.154456 
z
" style="stroke: #2a788e; stroke-width: 1.25"/>
    </defs>
    <g>
     <use xlink:href="#m24ce9fe7c9" x="0" y="174.899688" style="fill: #2a788e; fill-opacity: 0.7; stroke: #2a788e; stroke-width: 1.25"/>
    </g>
   </g>
   <g id="line2d_6">
    <path d="M 7.2 100.755 
L 216.45 100.755 
" style="fill: none; stroke: #2a788e; stroke-opacity: 0.9; stroke-linecap: round"/>
   </g>
   <g id="text_6">
    <!-- 5 -->
    <g style="fill: #2a788e" transform="translate(7.2 99.90825) scale(0.12 -0.12)">
     <defs>
      <path id="DejaVuSans-Bold-35" d="M 678 4666 
L 3669 4666 
L 3669 3781 
L 1638 3781 
L 1638 3059 
Q 1775 3097 1914 3117 
Q 2053 3138 2203 3138 
Q 3056 3138 3531 2711 
Q 4006 2284 4006 1522 
Q 4006 766 3489 337 
Q 2972 -91 2053 -91 
Q 1656 -91 1267 -14 
Q 878 63 494 219 
L 494 1166 
Q 875 947 1217 837 
Q 1559 728 1863 728 
Q 2300 728 2551 942 
Q 2803 1156 2803 1522 
Q 2803 1891 2551 2103 
Q 2300 2316 1863 2316 
Q 1603 2316 1309 2248 
Q 1016 2181 678 2041 
L 678 4666 
z
" transform="scale(0.015625)"/>
     </defs>
     <use xlink:href="#DejaVuSans-Bold-35"/>
    </g>
   </g>
  </g>
  <g id="axes_7">
   <g id="patch_8">
    <path d="M 7.2 111.15 
L 216.45 111.15 
L 216.45 69.57 
L 7.2 69.57 
L 7.2 111.15 
z
" style="fill: none"/>
   </g>
   <g id="matplotlib.axis_13">
    <g id="xtick_31"/>
    <g id="xtick_32"/>
    <g id="xtick_33"/>
    <g id="xtick_34"/>
    <g id="xtick_35"/>
   </g>
   <g id="matplotlib.axis_14"/>
   <g id="PolyCollection_2">
    <defs>
     <path id="ma312fd4081" d="M 76.308762 -63.763396 
L 76.308762 -63.749688 
L 76.841719 -63.749688 
L 77.374677 -63.749688 
L 77.907634 -63.749688 
L 78.440592 -63.749688 
L 78.97355 -63.749688 
L 79.506507 -63.749688 
L 80.039465 -63.749688 
L 80.572422 -63.749688 
L 81.10538 -63.749688 
L 81.638338 -63.749688 
L 82.171295 -63.749688 
L 82.704253 -63.749688 
L 83.237211 -63.749688 
L 83.770168 -63.749688 
L 84.303126 -63.749688 
L 84.836083 -63.749688 
L 85.369041 -63.749688 
L 85.901999 -63.749688 
L 86.434956 -63.749688 
L 86.967914 -63.749688 
L 87.500872 -63.749688 
L 88.033829 -63.749688 
L 88.566787 -63.749688 
L 89.099744 -63.749688 
L 89.632702 -63.749688 
L 90.16566 -63.749688 
L 90.698617 -63.749688 
L 91.231575 -63.749688 
L 91.764532 -63.749688 
L 92.29749 -63.749688 
L 92.830448 -63.749688 
L 93.363405 -63.749688 
L 93.896363 -63.749688 
L 94.429321 -63.749688 
L 94.962278 -63.749688 
L 95.495236 -63.749688 
L 96.028193 -63.749688 
L 96.561151 -63.749688 
L 97.094109 -63.749688 
L 97.627066 -63.749688 
L 98.160024 -63.749688 
L 98.692982 -63.749688 
L 99.225939 -63.749688 
L 99.758897 -63.749688 
L 100.291854 -63.749688 
L 100.824812 -63.749688 
L 101.35777 -63.749688 
L 101.890727 -63.749688 
L 102.423685 -63.749688 
L 102.956642 -63.749688 
L 103.4896 -63.749688 
L 104.022558 -63.749688 
L 104.555515 -63.749688 
L 105.088473 -63.749688 
L 105.621431 -63.749688 
L 106.154388 -63.749688 
L 106.687346 -63.749688 
L 107.220303 -63.749688 
L 107.753261 -63.749688 
L 108.286219 -63.749688 
L 108.819176 -63.749688 
L 109.352134 -63.749688 
L 109.885091 -63.749688 
L 110.418049 -63.749688 
L 110.951007 -63.749688 
L 111.483964 -63.749688 
L 112.016922 -63.749688 
L 112.54988 -63.749688 
L 113.082837 -63.749688 
L 113.615795 -63.749688 
L 114.148752 -63.749688 
L 114.68171 -63.749688 
L 115.214668 -63.749688 
L 115.747625 -63.749688 
L 116.280583 -63.749688 
L 116.813541 -63.749688 
L 117.346498 -63.749688 
L 117.879456 -63.749688 
L 118.412413 -63.749688 
L 118.945371 -63.749688 
L 119.478329 -63.749688 
L 120.011286 -63.749688 
L 120.544244 -63.749688 
L 121.077201 -63.749688 
L 121.610159 -63.749688 
L 122.143117 -63.749688 
L 122.676074 -63.749688 
L 123.209032 -63.749688 
L 123.74199 -63.749688 
L 124.274947 -63.749688 
L 124.807905 -63.749688 
L 125.340862 -63.749688 
L 125.87382 -63.749688 
L 126.406778 -63.749688 
L 126.939735 -63.749688 
L 127.472693 -63.749688 
L 128.005651 -63.749688 
L 128.538608 -63.749688 
L 129.071566 -63.749688 
L 129.604523 -63.749688 
L 130.137481 -63.749688 
L 130.670439 -63.749688 
L 131.203396 -63.749688 
L 131.736354 -63.749688 
L 132.269311 -63.749688 
L 132.802269 -63.749688 
L 133.335227 -63.749688 
L 133.868184 -63.749688 
L 134.401142 -63.749688 
L 134.9341 -63.749688 
L 135.467057 -63.749688 
L 136.000015 -63.749688 
L 136.532972 -63.749688 
L 137.06593 -63.749688 
L 137.598888 -63.749688 
L 138.131845 -63.749688 
L 138.664803 -63.749688 
L 139.19776 -63.749688 
L 139.730718 -63.749688 
L 140.263676 -63.749688 
L 140.796633 -63.749688 
L 141.329591 -63.749688 
L 141.862549 -63.749688 
L 142.395506 -63.749688 
L 142.928464 -63.749688 
L 143.461421 -63.749688 
L 143.994379 -63.749688 
L 144.527337 -63.749688 
L 145.060294 -63.749688 
L 145.593252 -63.749688 
L 146.12621 -63.749688 
L 146.659167 -63.749688 
L 147.192125 -63.749688 
L 147.725082 -63.749688 
L 148.25804 -63.749688 
L 148.790998 -63.749688 
L 149.323955 -63.749688 
L 149.856913 -63.749688 
L 150.38987 -63.749688 
L 150.922828 -63.749688 
L 151.455786 -63.749688 
L 151.988743 -63.749688 
L 152.521701 -63.749688 
L 153.054659 -63.749688 
L 153.587616 -63.749688 
L 154.120574 -63.749688 
L 154.653531 -63.749688 
L 155.186489 -63.749688 
L 155.719447 -63.749688 
L 156.252404 -63.749688 
L 156.785362 -63.749688 
L 157.31832 -63.749688 
L 157.851277 -63.749688 
L 158.384235 -63.749688 
L 158.917192 -63.749688 
L 159.45015 -63.749688 
L 159.983108 -63.749688 
L 160.516065 -63.749688 
L 161.049023 -63.749688 
L 161.58198 -63.749688 
L 162.114938 -63.749688 
L 162.647896 -63.749688 
L 163.180853 -63.749688 
L 163.713811 -63.749688 
L 164.246769 -63.749688 
L 164.779726 -63.749688 
L 165.312684 -63.749688 
L 165.845641 -63.749688 
L 166.378599 -63.749688 
L 166.911557 -63.749688 
L 167.444514 -63.749688 
L 167.977472 -63.749688 
L 168.510429 -63.749688 
L 169.043387 -63.749688 
L 169.576345 -63.749688 
L 170.109302 -63.749688 
L 170.64226 -63.749688 
L 171.175218 -63.749688 
L 171.708175 -63.749688 
L 172.241133 -63.749688 
L 172.77409 -63.749688 
L 173.307048 -63.749688 
L 173.840006 -63.749688 
L 174.372963 -63.749688 
L 174.905921 -63.749688 
L 175.438879 -63.749688 
L 175.971836 -63.749688 
L 176.504794 -63.749688 
L 177.037751 -63.749688 
L 177.570709 -63.749688 
L 178.103667 -63.749688 
L 178.636624 -63.749688 
L 179.169582 -63.749688 
L 179.702539 -63.749688 
L 180.235497 -63.749688 
L 180.768455 -63.749688 
L 181.301412 -63.749688 
L 181.83437 -63.749688 
L 182.367328 -63.749688 
L 182.367328 -63.758675 
L 182.367328 -63.758675 
L 181.83437 -63.763257 
L 181.301412 -63.764316 
L 180.768455 -63.760948 
L 180.235497 -63.755877 
L 179.702539 -63.752117 
L 179.169582 -63.750368 
L 178.636624 -63.749824 
L 178.103667 -63.749707 
L 177.570709 -63.749689 
L 177.037751 -63.749688 
L 176.504794 -63.749688 
L 175.971836 -63.749688 
L 175.438879 -63.749691 
L 174.905921 -63.749723 
L 174.372963 -63.749911 
L 173.840006 -63.7507 
L 173.307048 -63.75297 
L 172.77409 -63.757285 
L 172.241133 -63.762244 
L 171.708175 -63.764508 
L 171.175218 -63.762193 
L 170.64226 -63.757341 
L 170.109302 -63.753684 
L 169.576345 -63.753718 
L 169.043387 -63.758586 
L 168.510429 -63.767637 
L 167.977472 -63.776501 
L 167.444514 -63.779255 
L 166.911557 -63.775825 
L 166.378599 -63.774881 
L 165.845641 -63.786208 
L 165.312684 -63.809767 
L 164.779726 -63.832856 
L 164.246769 -63.84112 
L 163.713811 -63.833286 
L 163.180853 -63.820521 
L 162.647896 -63.812578 
L 162.114938 -63.810114 
L 161.58198 -63.807859 
L 161.049023 -63.802244 
L 160.516065 -63.796664 
L 159.983108 -63.796969 
L 159.45015 -63.803725 
L 158.917192 -63.812969 
L 158.384235 -63.820171 
L 157.851277 -63.820887 
L 157.31832 -63.813535 
L 156.785362 -63.803926 
L 156.252404 -63.801632 
L 155.719447 -63.808884 
L 155.186489 -63.81768 
L 154.653531 -63.821378 
L 154.120574 -63.824024 
L 153.587616 -63.833319 
L 153.054659 -63.849616 
L 152.521701 -63.869431 
L 151.988743 -63.895323 
L 151.455786 -63.932225 
L 150.922828 -63.976837 
L 150.38987 -64.017664 
L 149.856913 -64.0408 
L 149.323955 -64.036268 
L 148.790998 -64.010077 
L 148.25804 -63.985246 
L 147.725082 -63.977399 
L 147.192125 -63.977605 
L 146.659167 -63.969646 
L 146.12621 -63.951194 
L 145.593252 -63.931146 
L 145.060294 -63.920367 
L 144.527337 -63.929768 
L 143.994379 -63.968045 
L 143.461421 -64.036587 
L 142.928464 -64.126622 
L 142.395506 -64.221605 
L 141.862549 -64.304231 
L 141.329591 -64.365747 
L 140.796633 -64.409087 
L 140.263676 -64.438426 
L 139.730718 -64.453064 
L 139.19776 -64.459151 
L 138.664803 -64.474199 
L 138.131845 -64.511397 
L 137.598888 -64.568092 
L 137.06593 -64.634982 
L 136.532972 -64.712107 
L 136.000015 -64.809404 
L 135.467057 -64.93522 
L 134.9341 -65.094661 
L 134.401142 -65.295441 
L 133.868184 -65.535565 
L 133.335227 -65.780129 
L 132.802269 -65.981935 
L 132.269311 -66.146056 
L 131.736354 -66.34063 
L 131.203396 -66.625283 
L 130.670439 -67.000284 
L 130.137481 -67.431826 
L 129.604523 -67.90754 
L 129.071566 -68.473813 
L 128.538608 -69.240444 
L 128.005651 -70.381198 
L 127.472693 -72.161213 
L 126.939735 -74.909933 
L 126.406778 -78.824773 
L 125.87382 -83.721158 
L 125.340862 -88.997131 
L 124.807905 -93.883218 
L 124.274947 -97.808931 
L 123.74199 -100.633876 
L 123.209032 -102.498811 
L 122.676074 -103.349688 
L 122.143117 -102.65651 
L 121.610159 -99.752892 
L 121.077201 -94.508542 
L 120.544244 -87.668332 
L 120.011286 -80.586901 
L 119.478329 -74.58695 
L 118.945371 -70.364738 
L 118.412413 -67.840314 
L 117.879456 -66.486646 
L 117.346498 -65.763856 
L 116.813541 -65.330553 
L 116.280583 -65.03267 
L 115.747625 -64.823761 
L 115.214668 -64.695467 
L 114.68171 -64.634585 
L 114.148752 -64.613818 
L 113.615795 -64.598008 
L 113.082837 -64.558147 
L 112.54988 -64.492107 
L 112.016922 -64.424581 
L 111.483964 -64.379118 
L 110.951007 -64.355644 
L 110.418049 -64.336123 
L 109.885091 -64.30458 
L 109.352134 -64.257614 
L 108.819176 -64.200725 
L 108.286219 -64.144271 
L 107.753261 -64.10171 
L 107.220303 -64.080005 
L 106.687346 -64.071586 
L 106.154388 -64.063604 
L 105.621431 -64.053801 
L 105.088473 -64.049705 
L 104.555515 -64.050765 
L 104.022558 -64.040241 
L 103.4896 -64.002794 
L 102.956642 -63.944653 
L 102.423685 -63.887798 
L 101.890727 -63.847959 
L 101.35777 -63.824794 
L 100.824812 -63.811863 
L 100.291854 -63.808186 
L 99.758897 -63.815499 
L 99.225939 -63.831518 
L 98.692982 -63.850157 
L 98.160024 -63.86241 
L 97.627066 -63.858951 
L 97.094109 -63.838253 
L 96.561151 -63.809604 
L 96.028193 -63.786072 
L 95.495236 -63.775573 
L 94.962278 -63.776305 
L 94.429321 -63.779316 
L 93.896363 -63.777458 
L 93.363405 -63.77233 
L 92.830448 -63.770978 
L 92.29749 -63.776693 
L 91.764532 -63.785129 
L 91.231575 -63.789297 
L 90.698617 -63.786957 
L 90.16566 -63.782523 
L 89.632702 -63.781367 
L 89.099744 -63.782693 
L 88.566787 -63.781056 
L 88.033829 -63.775242 
L 87.500872 -63.770259 
L 86.967914 -63.769667 
L 86.434956 -63.771566 
L 85.901999 -63.77261 
L 85.369041 -63.771333 
L 84.836083 -63.768194 
L 84.303126 -63.765471 
L 83.770168 -63.765163 
L 83.237211 -63.765738 
L 82.704253 -63.763839 
L 82.171295 -63.75909 
L 81.638338 -63.754214 
L 81.10538 -63.751266 
L 80.572422 -63.750202 
L 80.039465 -63.750466 
L 79.506507 -63.752507 
L 78.97355 -63.757764 
L 78.440592 -63.766562 
L 77.907634 -63.775385 
L 77.374677 -63.778245 
L 76.841719 -63.772853 
L 76.308762 -63.763396 
z
" style="stroke: #355f8d; stroke-width: 1.25"/>
    </defs>
    <g>
     <use xlink:href="#ma312fd4081" x="0" y="174.899688" style="fill: #355f8d; fill-opacity: 0.7; stroke: #355f8d; stroke-width: 1.25"/>
    </g>
   </g>
   <g id="line2d_7">
    <path d="M 7.2 111.15 
L 216.45 111.15 
" style="fill: none; stroke: #355f8d; stroke-opacity: 0.9; stroke-linecap: round"/>
   </g>
   <g id="text_7">
    <!-- 6 -->
    <g style="fill: #355f8d" transform="translate(7.2 110.30325) scale(0.12 -0.12)">
     <defs>
      <path id="DejaVuSans-Bold-36" d="M 2316 2303 
Q 2000 2303 1842 2098 
Q 1684 1894 1684 1484 
Q 1684 1075 1842 870 
Q 2000 666 2316 666 
Q 2634 666 2792 870 
Q 2950 1075 2950 1484 
Q 2950 1894 2792 2098 
Q 2634 2303 2316 2303 
z
M 3803 4544 
L 3803 3681 
Q 3506 3822 3243 3889 
Q 2981 3956 2731 3956 
Q 2194 3956 1894 3657 
Q 1594 3359 1544 2772 
Q 1750 2925 1990 3001 
Q 2231 3078 2516 3078 
Q 3231 3078 3670 2659 
Q 4109 2241 4109 1563 
Q 4109 813 3618 361 
Q 3128 -91 2303 -91 
Q 1394 -91 895 523 
Q 397 1138 397 2266 
Q 397 3422 980 4083 
Q 1563 4744 2578 4744 
Q 2900 4744 3203 4694 
Q 3506 4644 3803 4544 
z
" transform="scale(0.015625)"/>
     </defs>
     <use xlink:href="#DejaVuSans-Bold-36"/>
    </g>
   </g>
  </g>
  <g id="axes_8">
   <g id="patch_9">
    <path d="M 7.2 121.545 
L 216.45 121.545 
L 216.45 79.965 
L 7.2 79.965 
L 7.2 121.545 
z
" style="fill: none"/>
   </g>
   <g id="matplotlib.axis_15">
    <g id="xtick_36"/>
    <g id="xtick_37"/>
    <g id="xtick_38"/>
    <g id="xtick_39"/>
    <g id="xtick_40"/>
   </g>
   <g id="matplotlib.axis_16"/>
   <g id="PolyCollection_3">
    <defs>
     <path id="m89a5e600b6" d="M 43.402663 -53.359249 
L 43.402663 -53.354688 
L 44.197603 -53.354688 
L 44.992542 -53.354688 
L 45.787481 -53.354688 
L 46.58242 -53.354688 
L 47.37736 -53.354688 
L 48.172299 -53.354688 
L 48.967238 -53.354688 
L 49.762177 -53.354688 
L 50.557116 -53.354688 
L 51.352056 -53.354688 
L 52.146995 -53.354688 
L 52.941934 -53.354688 
L 53.736873 -53.354688 
L 54.531812 -53.354688 
L 55.326752 -53.354688 
L 56.121691 -53.354688 
L 56.91663 -53.354688 
L 57.711569 -53.354688 
L 58.506508 -53.354688 
L 59.301448 -53.354688 
L 60.096387 -53.354688 
L 60.891326 -53.354688 
L 61.686265 -53.354688 
L 62.481204 -53.354688 
L 63.276144 -53.354688 
L 64.071083 -53.354688 
L 64.866022 -53.354688 
L 65.660961 -53.354688 
L 66.455901 -53.354688 
L 67.25084 -53.354688 
L 68.045779 -53.354688 
L 68.840718 -53.354688 
L 69.635657 -53.354688 
L 70.430597 -53.354688 
L 71.225536 -53.354688 
L 72.020475 -53.354688 
L 72.815414 -53.354688 
L 73.610353 -53.354688 
L 74.405293 -53.354688 
L 75.200232 -53.354688 
L 75.995171 -53.354688 
L 76.79011 -53.354688 
L 77.585049 -53.354688 
L 78.379989 -53.354688 
L 79.174928 -53.354688 
L 79.969867 -53.354688 
L 80.764806 -53.354688 
L 81.559745 -53.354688 
L 82.354685 -53.354688 
L 83.149624 -53.354688 
L 83.944563 -53.354688 
L 84.739502 -53.354688 
L 85.534442 -53.354688 
L 86.329381 -53.354688 
L 87.12432 -53.354688 
L 87.919259 -53.354688 
L 88.714198 -53.354688 
L 89.509138 -53.354688 
L 90.304077 -53.354688 
L 91.099016 -53.354688 
L 91.893955 -53.354688 
L 92.688894 -53.354688 
L 93.483834 -53.354688 
L 94.278773 -53.354688 
L 95.073712 -53.354688 
L 95.868651 -53.354688 
L 96.66359 -53.354688 
L 97.45853 -53.354688 
L 98.253469 -53.354688 
L 99.048408 -53.354688 
L 99.843347 -53.354688 
L 100.638286 -53.354688 
L 101.433226 -53.354688 
L 102.228165 -53.354688 
L 103.023104 -53.354688 
L 103.818043 -53.354688 
L 104.612983 -53.354688 
L 105.407922 -53.354688 
L 106.202861 -53.354688 
L 106.9978 -53.354688 
L 107.792739 -53.354688 
L 108.587679 -53.354688 
L 109.382618 -53.354688 
L 110.177557 -53.354688 
L 110.972496 -53.354688 
L 111.767435 -53.354688 
L 112.562375 -53.354688 
L 113.357314 -53.354688 
L 114.152253 -53.354688 
L 114.947192 -53.354688 
L 115.742131 -53.354688 
L 116.537071 -53.354688 
L 117.33201 -53.354688 
L 118.126949 -53.354688 
L 118.921888 -53.354688 
L 119.716827 -53.354688 
L 120.511767 -53.354688 
L 121.306706 -53.354688 
L 122.101645 -53.354688 
L 122.896584 -53.354688 
L 123.691524 -53.354688 
L 124.486463 -53.354688 
L 125.281402 -53.354688 
L 126.076341 -53.354688 
L 126.87128 -53.354688 
L 127.66622 -53.354688 
L 128.461159 -53.354688 
L 129.256098 -53.354688 
L 130.051037 -53.354688 
L 130.845976 -53.354688 
L 131.640916 -53.354688 
L 132.435855 -53.354688 
L 133.230794 -53.354688 
L 134.025733 -53.354688 
L 134.820672 -53.354688 
L 135.615612 -53.354688 
L 136.410551 -53.354688 
L 137.20549 -53.354688 
L 138.000429 -53.354688 
L 138.795369 -53.354688 
L 139.590308 -53.354688 
L 140.385247 -53.354688 
L 141.180186 -53.354688 
L 141.975125 -53.354688 
L 142.770065 -53.354688 
L 143.565004 -53.354688 
L 144.359943 -53.354688 
L 145.154882 -53.354688 
L 145.949821 -53.354688 
L 146.744761 -53.354688 
L 147.5397 -53.354688 
L 148.334639 -53.354688 
L 149.129578 -53.354688 
L 149.924517 -53.354688 
L 150.719457 -53.354688 
L 151.514396 -53.354688 
L 152.309335 -53.354688 
L 153.104274 -53.354688 
L 153.899213 -53.354688 
L 154.694153 -53.354688 
L 155.489092 -53.354688 
L 156.284031 -53.354688 
L 157.07897 -53.354688 
L 157.87391 -53.354688 
L 158.668849 -53.354688 
L 159.463788 -53.354688 
L 160.258727 -53.354688 
L 161.053666 -53.354688 
L 161.848606 -53.354688 
L 162.643545 -53.354688 
L 163.438484 -53.354688 
L 164.233423 -53.354688 
L 165.028362 -53.354688 
L 165.823302 -53.354688 
L 166.618241 -53.354688 
L 167.41318 -53.354688 
L 168.208119 -53.354688 
L 169.003058 -53.354688 
L 169.797998 -53.354688 
L 170.592937 -53.354688 
L 171.387876 -53.354688 
L 172.182815 -53.354688 
L 172.977754 -53.354688 
L 173.772694 -53.354688 
L 174.567633 -53.354688 
L 175.362572 -53.354688 
L 176.157511 -53.354688 
L 176.952451 -53.354688 
L 177.74739 -53.354688 
L 178.542329 -53.354688 
L 179.337268 -53.354688 
L 180.132207 -53.354688 
L 180.927147 -53.354688 
L 181.722086 -53.354688 
L 182.517025 -53.354688 
L 183.311964 -53.354688 
L 184.106903 -53.354688 
L 184.901843 -53.354688 
L 185.696782 -53.354688 
L 186.491721 -53.354688 
L 187.28666 -53.354688 
L 188.081599 -53.354688 
L 188.876539 -53.354688 
L 189.671478 -53.354688 
L 190.466417 -53.354688 
L 191.261356 -53.354688 
L 192.056295 -53.354688 
L 192.851235 -53.354688 
L 193.646174 -53.354688 
L 194.441113 -53.354688 
L 195.236052 -53.354688 
L 196.030992 -53.354688 
L 196.825931 -53.354688 
L 197.62087 -53.354688 
L 198.415809 -53.354688 
L 199.210748 -53.354688 
L 200.005688 -53.354688 
L 200.800627 -53.354688 
L 201.595566 -53.354688 
L 201.595566 -53.359249 
L 201.595566 -53.359249 
L 200.800627 -53.361113 
L 200.005688 -53.362152 
L 199.210748 -53.361838 
L 198.415809 -53.360339 
L 197.62087 -53.358391 
L 196.825931 -53.35677 
L 196.030992 -53.355931 
L 195.236052 -53.35605 
L 194.441113 -53.357242 
L 193.646174 -53.359569 
L 192.851235 -53.362775 
L 192.056295 -53.366053 
L 191.261356 -53.368234 
L 190.466417 -53.368404 
L 189.671478 -53.366502 
L 188.876539 -53.363385 
L 188.081599 -53.360322 
L 187.28666 -53.358351 
L 186.491721 -53.357932 
L 185.696782 -53.358918 
L 184.901843 -53.360669 
L 184.106903 -53.362318 
L 183.311964 -53.363292 
L 182.517025 -53.363794 
L 181.722086 -53.364649 
L 180.927147 -53.366487 
L 180.132207 -53.369023 
L 179.337268 -53.371295 
L 178.542329 -53.372628 
L 177.74739 -53.37319 
L 176.952451 -53.373457 
L 176.157511 -53.373338 
L 175.362572 -53.37223 
L 174.567633 -53.369972 
L 173.772694 -53.36738 
L 172.977754 -53.365592 
L 172.182815 -53.365079 
L 171.387876 -53.365509 
L 170.592937 -53.366469 
L 169.797998 -53.368019 
L 169.003058 -53.370519 
L 168.208119 -53.374159 
L 167.41318 -53.378824 
L 166.618241 -53.384354 
L 165.823302 -53.390751 
L 165.028362 -53.397987 
L 164.233423 -53.405669 
L 163.438484 -53.413249 
L 162.643545 -53.420756 
L 161.848606 -53.42892 
L 161.053666 -53.438008 
L 160.258727 -53.446555 
L 159.463788 -53.451812 
L 158.668849 -53.45204 
L 157.87391 -53.448542 
L 157.07897 -53.445336 
L 156.284031 -53.446793 
L 155.489092 -53.455466 
L 154.694153 -53.471496 
L 153.899213 -53.492861 
L 153.104274 -53.515649 
L 152.309335 -53.534962 
L 151.514396 -53.546898 
L 150.719457 -53.550373 
L 149.924517 -53.54729 
L 149.129578 -53.541229 
L 148.334639 -53.53578 
L 147.5397 -53.533374 
L 146.744761 -53.535047 
L 145.949821 -53.540954 
L 145.154882 -53.550904 
L 144.359943 -53.564877 
L 143.565004 -53.583911 
L 142.770065 -53.610532 
L 141.975125 -53.647122 
L 141.180186 -53.693165 
L 140.385247 -53.745056 
L 139.590308 -53.799976 
L 138.795369 -53.859848 
L 138.000429 -53.93003 
L 137.20549 -54.013289 
L 136.410551 -54.105795 
L 135.615612 -54.200234 
L 134.820672 -54.293852 
L 134.025733 -54.395161 
L 133.230794 -54.524559 
L 132.435855 -54.706814 
L 131.640916 -54.957537 
L 130.845976 -55.272878 
L 130.051037 -55.633349 
L 129.256098 -56.021313 
L 128.461159 -56.437411 
L 127.66622 -56.901756 
L 126.87128 -57.440954 
L 126.076341 -58.073044 
L 125.281402 -58.798056 
L 124.486463 -59.593546 
L 123.691524 -60.414935 
L 122.896584 -61.202777 
L 122.101645 -61.894807 
L 121.306706 -62.439572 
L 120.511767 -62.813423 
L 119.716827 -63.036983 
L 118.921888 -63.17442 
L 118.126949 -63.305756 
L 117.33201 -63.486447 
L 116.537071 -63.717942 
L 115.742131 -63.941815 
L 114.947192 -64.058507 
L 114.152253 -63.966177 
L 113.357314 -63.608017 
L 112.562375 -63.006522 
L 111.767435 -62.261447 
L 110.972496 -61.506983 
L 110.177557 -60.85474 
L 109.382618 -60.360602 
L 108.587679 -60.030037 
L 107.792739 -59.842776 
L 106.9978 -59.768966 
L 106.202861 -59.771647 
L 105.407922 -59.81482 
L 104.612983 -59.888676 
L 103.818043 -60.032265 
L 103.023104 -60.321437 
L 102.228165 -60.81231 
L 101.433226 -61.463845 
L 100.638286 -62.086547 
L 99.843347 -62.371319 
L 99.048408 -62.021911 
L 98.253469 -60.933348 
L 97.45853 -59.28755 
L 96.66359 -57.474322 
L 95.868651 -55.88685 
L 95.073712 -54.745242 
L 94.278773 -54.059042 
L 93.483834 -53.709304 
L 92.688894 -53.554269 
L 91.893955 -53.489476 
L 91.099016 -53.4575 
L 90.304077 -53.434451 
L 89.509138 -53.414434 
L 88.714198 -53.398601 
L 87.919259 -53.388905 
L 87.12432 -53.385704 
L 86.329381 -53.387826 
L 85.534442 -53.393282 
L 84.739502 -53.399533 
L 83.944563 -53.403623 
L 83.149624 -53.40295 
L 82.354685 -53.396645 
L 81.559745 -53.386313 
L 80.764806 -53.375164 
L 79.969867 -53.366136 
L 79.174928 -53.360614 
L 78.379989 -53.358488 
L 77.585049 -53.358942 
L 76.79011 -53.361037 
L 75.995171 -53.363875 
L 75.200232 -53.366696 
L 74.405293 -53.368996 
L 73.610353 -53.370507 
L 72.815414 -53.371019 
L 72.020475 -53.370409 
L 71.225536 -53.368972 
L 70.430597 -53.367597 
L 69.635657 -53.367309 
L 68.840718 -53.368386 
L 68.045779 -53.369935 
L 67.25084 -53.370561 
L 66.455901 -53.369596 
L 65.660961 -53.367633 
L 64.866022 -53.365792 
L 64.071083 -53.364581 
L 63.276144 -53.363578 
L 62.481204 -53.362138 
L 61.686265 -53.360147 
L 60.891326 -53.358069 
L 60.096387 -53.356432 
L 59.301448 -53.355432 
L 58.506508 -53.35495 
L 57.711569 -53.354764 
L 56.91663 -53.354706 
L 56.121691 -53.354691 
L 55.326752 -53.354688 
L 54.531812 -53.354688 
L 53.736873 -53.354688 
L 52.941934 -53.354688 
L 52.146995 -53.354692 
L 51.352056 -53.354711 
L 50.557116 -53.354783 
L 49.762177 -53.355006 
L 48.967238 -53.355561 
L 48.172299 -53.356661 
L 47.37736 -53.358364 
L 46.58242 -53.360334 
L 45.787481 -53.361837 
L 44.992542 -53.362152 
L 44.197603 -53.361113 
L 43.402663 -53.359249 
z
" style="stroke: #414487; stroke-width: 1.25"/>
    </defs>
    <g>
     <use xlink:href="#m89a5e600b6" x="0" y="174.899688" style="fill: #414487; fill-opacity: 0.7; stroke: #414487; stroke-width: 1.25"/>
    </g>
   </g>
   <g id="line2d_8">
    <path d="M 7.2 121.545 
L 216.45 121.545 
" style="fill: none; stroke: #414487; stroke-opacity: 0.9; stroke-linecap: round"/>
   </g>
   <g id="text_8">
    <!-- 7 -->
    <g style="fill: #414487" transform="translate(7.2 120.69825) scale(0.12 -0.12)">
     <defs>
      <path id="DejaVuSans-Bold-37" d="M 428 4666 
L 3944 4666 
L 3944 3988 
L 2125 0 
L 953 0 
L 2675 3781 
L 428 3781 
L 428 4666 
z
" transform="scale(0.015625)"/>
     </defs>
     <use xlink:href="#DejaVuSans-Bold-37"/>
    </g>
   </g>
  </g>
  <g id="axes_9">
   <g id="patch_10">
    <path d="M 7.2 131.94 
L 216.45 131.94 
L 216.45 90.36 
L 7.2 90.36 
L 7.2 131.94 
z
" style="fill: none"/>
   </g>
   <g id="matplotlib.axis_17">
    <g id="xtick_41">
     <g id="text_9">
      <!-- −2 -->
      <g style="fill: #838383" transform="translate(38.62216 149.798281) scale(0.11 -0.11)">
       <defs>
        <path id="DejaVuSans-2212" d="M 678 2272 
L 4684 2272 
L 4684 1741 
L 678 1741 
L 678 2272 
z
" transform="scale(0.015625)"/>
        <path id="DejaVuSans-32" d="M 1228 531 
L 3431 531 
L 3431 0 
L 469 0 
L 469 531 
Q 828 903 1448 1529 
Q 2069 2156 2228 2338 
Q 2531 2678 2651 2914 
Q 2772 3150 2772 3378 
Q 2772 3750 2511 3984 
Q 2250 4219 1831 4219 
Q 1534 4219 1204 4116 
Q 875 4013 500 3803 
L 500 4441 
Q 881 4594 1212 4672 
Q 1544 4750 1819 4750 
Q 2544 4750 2975 4387 
Q 3406 4025 3406 3419 
Q 3406 3131 3298 2873 
Q 3191 2616 2906 2266 
Q 2828 2175 2409 1742 
Q 1991 1309 1228 531 
z
" transform="scale(0.015625)"/>
       </defs>
       <use xlink:href="#DejaVuSans-2212"/>
       <use xlink:href="#DejaVuSans-32" x="83.789062"/>
      </g>
     </g>
    </g>
    <g id="xtick_42">
     <g id="text_10">
      <!-- −1 -->
      <g style="fill: #838383" transform="translate(80.746704 149.798281) scale(0.11 -0.11)">
       <defs>
        <path id="DejaVuSans-31" d="M 794 531 
L 1825 531 
L 1825 4091 
L 703 3866 
L 703 4441 
L 1819 4666 
L 2450 4666 
L 2450 531 
L 3481 531 
L 3481 0 
L 794 0 
L 794 531 
z
" transform="scale(0.015625)"/>
       </defs>
       <use xlink:href="#DejaVuSans-2212"/>
       <use xlink:href="#DejaVuSans-31" x="83.789062"/>
      </g>
     </g>
    </g>
    <g id="xtick_43">
     <g id="text_11">
      <!-- 0 -->
      <g style="fill: #838383" transform="translate(127.480077 149.798281) scale(0.11 -0.11)">
       <defs>
        <path id="DejaVuSans-30" d="M 2034 4250 
Q 1547 4250 1301 3770 
Q 1056 3291 1056 2328 
Q 1056 1369 1301 889 
Q 1547 409 2034 409 
Q 2525 409 2770 889 
Q 3016 1369 3016 2328 
Q 3016 3291 2770 3770 
Q 2525 4250 2034 4250 
z
M 2034 4750 
Q 2819 4750 3233 4129 
Q 3647 3509 3647 2328 
Q 3647 1150 3233 529 
Q 2819 -91 2034 -91 
Q 1250 -91 836 529 
Q 422 1150 422 2328 
Q 422 3509 836 4129 
Q 1250 4750 2034 4750 
z
" transform="scale(0.015625)"/>
       </defs>
       <use xlink:href="#DejaVuSans-30"/>
      </g>
     </g>
    </g>
    <g id="xtick_44">
     <g id="text_12">
      <!-- 1 -->
      <g style="fill: #838383" transform="translate(169.604622 149.798281) scale(0.11 -0.11)">
       <use xlink:href="#DejaVuSans-31"/>
      </g>
     </g>
    </g>
    <g id="xtick_45">
     <g id="text_13">
      <!-- 2 -->
      <g style="fill: #838383" transform="translate(211.729166 149.798281) scale(0.11 -0.11)">
       <use xlink:href="#DejaVuSans-32"/>
      </g>
     </g>
    </g>
    <g id="text_14">
     <!-- sldb -->
     <g style="fill: #262626" transform="translate(99.414375 165.204063) scale(0.12 -0.12)">
      <defs>
       <path id="DejaVuSans-73" d="M 2834 3397 
L 2834 2853 
Q 2591 2978 2328 3040 
Q 2066 3103 1784 3103 
Q 1356 3103 1142 2972 
Q 928 2841 928 2578 
Q 928 2378 1081 2264 
Q 1234 2150 1697 2047 
L 1894 2003 
Q 2506 1872 2764 1633 
Q 3022 1394 3022 966 
Q 3022 478 2636 193 
Q 2250 -91 1575 -91 
Q 1294 -91 989 -36 
Q 684 19 347 128 
L 347 722 
Q 666 556 975 473 
Q 1284 391 1588 391 
Q 1994 391 2212 530 
Q 2431 669 2431 922 
Q 2431 1156 2273 1281 
Q 2116 1406 1581 1522 
L 1381 1569 
Q 847 1681 609 1914 
Q 372 2147 372 2553 
Q 372 3047 722 3315 
Q 1072 3584 1716 3584 
Q 2034 3584 2315 3537 
Q 2597 3491 2834 3397 
z
" transform="scale(0.015625)"/>
       <path id="DejaVuSans-6c" d="M 603 4863 
L 1178 4863 
L 1178 0 
L 603 0 
L 603 4863 
z
" transform="scale(0.015625)"/>
       <path id="DejaVuSans-64" d="M 2906 2969 
L 2906 4863 
L 3481 4863 
L 3481 0 
L 2906 0 
L 2906 525 
Q 2725 213 2448 61 
Q 2172 -91 1784 -91 
Q 1150 -91 751 415 
Q 353 922 353 1747 
Q 353 2572 751 3078 
Q 1150 3584 1784 3584 
Q 2172 3584 2448 3432 
Q 2725 3281 2906 2969 
z
M 947 1747 
Q 947 1113 1208 752 
Q 1469 391 1925 391 
Q 2381 391 2643 752 
Q 2906 1113 2906 1747 
Q 2906 2381 2643 2742 
Q 2381 3103 1925 3103 
Q 1469 3103 1208 2742 
Q 947 2381 947 1747 
z
" transform="scale(0.015625)"/>
       <path id="DejaVuSans-62" d="M 3116 1747 
Q 3116 2381 2855 2742 
Q 2594 3103 2138 3103 
Q 1681 3103 1420 2742 
Q 1159 2381 1159 1747 
Q 1159 1113 1420 752 
Q 1681 391 2138 391 
Q 2594 391 2855 752 
Q 3116 1113 3116 1747 
z
M 1159 2969 
Q 1341 3281 1617 3432 
Q 1894 3584 2278 3584 
Q 2916 3584 3314 3078 
Q 3713 2572 3713 1747 
Q 3713 922 3314 415 
Q 2916 -91 2278 -91 
Q 1894 -91 1617 61 
Q 1341 213 1159 525 
L 1159 0 
L 581 0 
L 581 4863 
L 1159 4863 
L 1159 2969 
z
" transform="scale(0.015625)"/>
      </defs>
      <use xlink:href="#DejaVuSans-73"/>
      <use xlink:href="#DejaVuSans-6c" x="52.099609"/>
      <use xlink:href="#DejaVuSans-64" x="79.882812"/>
      <use xlink:href="#DejaVuSans-62" x="143.359375"/>
     </g>
    </g>
   </g>
   <g id="matplotlib.axis_18"/>
   <g id="PolyCollection_4">
    <defs>
     <path id="m82a86648c5" d="M 16.711364 -42.963201 
L 16.711364 -42.959688 
L 17.66728 -42.959688 
L 18.623196 -42.959688 
L 19.579111 -42.959688 
L 20.535027 -42.959688 
L 21.490943 -42.959688 
L 22.446859 -42.959688 
L 23.402775 -42.959688 
L 24.358691 -42.959688 
L 25.314607 -42.959688 
L 26.270523 -42.959688 
L 27.226439 -42.959688 
L 28.182355 -42.959688 
L 29.138271 -42.959688 
L 30.094187 -42.959688 
L 31.050103 -42.959688 
L 32.006019 -42.959688 
L 32.961935 -42.959688 
L 33.917851 -42.959688 
L 34.873767 -42.959688 
L 35.829683 -42.959688 
L 36.785598 -42.959688 
L 37.741514 -42.959688 
L 38.69743 -42.959688 
L 39.653346 -42.959688 
L 40.609262 -42.959688 
L 41.565178 -42.959688 
L 42.521094 -42.959688 
L 43.47701 -42.959688 
L 44.432926 -42.959688 
L 45.388842 -42.959688 
L 46.344758 -42.959688 
L 47.300674 -42.959688 
L 48.25659 -42.959688 
L 49.212506 -42.959688 
L 50.168422 -42.959688 
L 51.124338 -42.959688 
L 52.080254 -42.959688 
L 53.036169 -42.959688 
L 53.992085 -42.959688 
L 54.948001 -42.959688 
L 55.903917 -42.959688 
L 56.859833 -42.959688 
L 57.815749 -42.959688 
L 58.771665 -42.959688 
L 59.727581 -42.959688 
L 60.683497 -42.959688 
L 61.639413 -42.959688 
L 62.595329 -42.959688 
L 63.551245 -42.959688 
L 64.507161 -42.959688 
L 65.463077 -42.959688 
L 66.418993 -42.959688 
L 67.374909 -42.959688 
L 68.330825 -42.959688 
L 69.286741 -42.959688 
L 70.242656 -42.959688 
L 71.198572 -42.959688 
L 72.154488 -42.959688 
L 73.110404 -42.959688 
L 74.06632 -42.959688 
L 75.022236 -42.959688 
L 75.978152 -42.959688 
L 76.934068 -42.959688 
L 77.889984 -42.959688 
L 78.8459 -42.959688 
L 79.801816 -42.959688 
L 80.757732 -42.959688 
L 81.713648 -42.959688 
L 82.669564 -42.959688 
L 83.62548 -42.959688 
L 84.581396 -42.959688 
L 85.537312 -42.959688 
L 86.493228 -42.959688 
L 87.449143 -42.959688 
L 88.405059 -42.959688 
L 89.360975 -42.959688 
L 90.316891 -42.959688 
L 91.272807 -42.959688 
L 92.228723 -42.959688 
L 93.184639 -42.959688 
L 94.140555 -42.959688 
L 95.096471 -42.959688 
L 96.052387 -42.959688 
L 97.008303 -42.959688 
L 97.964219 -42.959688 
L 98.920135 -42.959688 
L 99.876051 -42.959688 
L 100.831967 -42.959688 
L 101.787883 -42.959688 
L 102.743799 -42.959688 
L 103.699714 -42.959688 
L 104.65563 -42.959688 
L 105.611546 -42.959688 
L 106.567462 -42.959688 
L 107.523378 -42.959688 
L 108.479294 -42.959688 
L 109.43521 -42.959688 
L 110.391126 -42.959688 
L 111.347042 -42.959688 
L 112.302958 -42.959688 
L 113.258874 -42.959688 
L 114.21479 -42.959688 
L 115.170706 -42.959688 
L 116.126622 -42.959688 
L 117.082538 -42.959688 
L 118.038454 -42.959688 
L 118.99437 -42.959688 
L 119.950286 -42.959688 
L 120.906201 -42.959688 
L 121.862117 -42.959688 
L 122.818033 -42.959688 
L 123.773949 -42.959688 
L 124.729865 -42.959688 
L 125.685781 -42.959688 
L 126.641697 -42.959688 
L 127.597613 -42.959688 
L 128.553529 -42.959688 
L 129.509445 -42.959688 
L 130.465361 -42.959688 
L 131.421277 -42.959688 
L 132.377193 -42.959688 
L 133.333109 -42.959688 
L 134.289025 -42.959688 
L 135.244941 -42.959688 
L 136.200857 -42.959688 
L 137.156772 -42.959688 
L 138.112688 -42.959688 
L 139.068604 -42.959688 
L 140.02452 -42.959688 
L 140.980436 -42.959688 
L 141.936352 -42.959688 
L 142.892268 -42.959688 
L 143.848184 -42.959688 
L 144.8041 -42.959688 
L 145.760016 -42.959688 
L 146.715932 -42.959688 
L 147.671848 -42.959688 
L 148.627764 -42.959688 
L 149.58368 -42.959688 
L 150.539596 -42.959688 
L 151.495512 -42.959688 
L 152.451428 -42.959688 
L 153.407344 -42.959688 
L 154.363259 -42.959688 
L 155.319175 -42.959688 
L 156.275091 -42.959688 
L 157.231007 -42.959688 
L 158.186923 -42.959688 
L 159.142839 -42.959688 
L 160.098755 -42.959688 
L 161.054671 -42.959688 
L 162.010587 -42.959688 
L 162.966503 -42.959688 
L 163.922419 -42.959688 
L 164.878335 -42.959688 
L 165.834251 -42.959688 
L 166.790167 -42.959688 
L 167.746083 -42.959688 
L 168.701999 -42.959688 
L 169.657915 -42.959688 
L 170.613831 -42.959688 
L 171.569746 -42.959688 
L 172.525662 -42.959688 
L 173.481578 -42.959688 
L 174.437494 -42.959688 
L 175.39341 -42.959688 
L 176.349326 -42.959688 
L 177.305242 -42.959688 
L 178.261158 -42.959688 
L 179.217074 -42.959688 
L 180.17299 -42.959688 
L 181.128906 -42.959688 
L 182.084822 -42.959688 
L 183.040738 -42.959688 
L 183.996654 -42.959688 
L 184.95257 -42.959688 
L 185.908486 -42.959688 
L 186.864402 -42.959688 
L 187.820317 -42.959688 
L 188.776233 -42.959688 
L 189.732149 -42.959688 
L 190.688065 -42.959688 
L 191.643981 -42.959688 
L 192.599897 -42.959688 
L 193.555813 -42.959688 
L 194.511729 -42.959688 
L 195.467645 -42.959688 
L 196.423561 -42.959688 
L 197.379477 -42.959688 
L 198.335393 -42.959688 
L 199.291309 -42.959688 
L 200.247225 -42.959688 
L 201.203141 -42.959688 
L 202.159057 -42.959688 
L 203.114973 -42.959688 
L 204.070889 -42.959688 
L 205.026804 -42.959688 
L 205.98272 -42.959688 
L 206.938636 -42.959688 
L 206.938636 -42.963201 
L 206.938636 -42.963201 
L 205.98272 -42.964546 
L 205.026804 -42.965382 
L 204.070889 -42.965344 
L 203.114973 -42.964458 
L 202.159057 -42.963129 
L 201.203141 -42.961898 
L 200.247225 -42.961178 
L 199.291309 -42.961165 
L 198.335393 -42.961863 
L 197.379477 -42.963082 
L 196.423561 -42.964416 
L 195.467645 -42.965326 
L 194.511729 -42.965396 
L 193.555813 -42.964588 
L 192.599897 -42.963256 
L 191.643981 -42.961906 
L 190.688065 -42.960914 
L 189.732149 -42.960436 
L 188.776233 -42.960498 
L 187.820317 -42.961099 
L 186.864402 -42.962201 
L 185.908486 -42.96362 
L 184.95257 -42.964991 
L 183.996654 -42.965955 
L 183.040738 -42.966499 
L 182.084822 -42.967142 
L 181.128906 -42.968677 
L 180.17299 -42.971584 
L 179.217074 -42.975586 
L 178.261158 -42.979774 
L 177.305242 -42.983261 
L 176.349326 -42.985793 
L 175.39341 -42.987746 
L 174.437494 -42.989575 
L 173.481578 -42.991302 
L 172.525662 -42.992551 
L 171.569746 -42.993035 
L 170.613831 -42.992973 
L 169.657915 -42.993039 
L 168.701999 -42.993978 
L 167.746083 -42.996229 
L 166.790167 -42.999703 
L 165.834251 -43.003651 
L 164.878335 -43.006821 
L 163.922419 -43.008159 
L 162.966503 -43.007757 
L 162.010587 -43.007026 
L 161.054671 -43.007578 
L 160.098755 -43.009804 
L 159.142839 -43.012741 
L 158.186923 -43.015483 
L 157.231007 -43.018603 
L 156.275091 -43.02401 
L 155.319175 -43.033326 
L 154.363259 -43.04632 
L 153.407344 -43.060801 
L 152.451428 -43.074017 
L 151.495512 -43.084426 
L 150.539596 -43.092652 
L 149.58368 -43.101198 
L 148.627764 -43.113104 
L 147.671848 -43.13017 
L 146.715932 -43.151628 
L 145.760016 -43.174309 
L 144.8041 -43.194517 
L 143.848184 -43.210345 
L 142.892268 -43.222507 
L 141.936352 -43.233146 
L 140.980436 -43.244243 
L 140.02452 -43.257711 
L 139.068604 -43.27706 
L 138.112688 -43.308117 
L 137.156772 -43.356812 
L 136.200857 -43.425341 
L 135.244941 -43.510265 
L 134.289025 -43.604717 
L 133.333109 -43.703532 
L 132.377193 -43.808505 
L 131.421277 -43.931277 
L 130.465361 -44.091788 
L 129.509445 -44.310778 
L 128.553529 -44.598447 
L 127.597613 -44.946797 
L 126.641697 -45.333699 
L 125.685781 -45.738345 
L 124.729865 -46.156955 
L 123.773949 -46.60581 
L 122.818033 -47.108391 
L 121.862117 -47.675582 
L 120.906201 -48.291833 
L 119.950286 -48.914397 
L 118.99437 -49.48408 
L 118.038454 -49.941503 
L 117.082538 -50.242777 
L 116.126622 -50.369798 
L 115.170706 -50.332506 
L 114.21479 -50.164105 
L 113.258874 -49.912317 
L 112.302958 -49.628418 
L 111.347042 -49.355702 
L 110.391126 -49.122447 
L 109.43521 -48.944288 
L 108.479294 -48.832256 
L 107.523378 -48.795081 
L 106.567462 -48.829571 
L 105.611546 -48.907069 
L 104.65563 -48.971927 
L 103.699714 -48.96077 
L 102.743799 -48.834529 
L 101.787883 -48.602117 
L 100.831967 -48.317341 
L 99.876051 -48.050351 
L 98.920135 -47.855315 
L 97.964219 -47.756824 
L 97.008303 -47.758769 
L 96.052387 -47.8618 
L 95.096471 -48.075385 
L 94.140555 -48.42175 
L 93.184639 -48.933064 
L 92.228723 -49.633626 
L 91.272807 -50.494437 
L 90.316891 -51.373744 
L 89.360975 -52.000582 
L 88.405059 -52.059517 
L 87.449143 -51.357717 
L 86.493228 -49.960948 
L 85.537312 -48.183534 
L 84.581396 -46.431027 
L 83.62548 -45.012347 
L 82.669564 -44.044659 
L 81.713648 -43.480174 
L 80.757732 -43.19537 
L 79.801816 -43.069366 
L 78.8459 -43.019157 
L 77.889984 -42.999963 
L 76.934068 -42.991911 
L 75.978152 -42.987498 
L 75.022236 -42.984189 
L 74.06632 -42.981169 
L 73.110404 -42.978214 
L 72.154488 -42.975349 
L 71.198572 -42.972687 
L 70.242656 -42.97037 
L 69.286741 -42.968571 
L 68.330825 -42.967432 
L 67.374909 -42.966896 
L 66.418993 -42.966608 
L 65.463077 -42.966089 
L 64.507161 -42.965084 
L 63.551245 -42.963762 
L 62.595329 -42.962592 
L 61.639413 -42.962053 
L 60.683497 -42.962411 
L 59.727581 -42.963639 
L 58.771665 -42.965433 
L 57.815749 -42.967314 
L 56.859833 -42.968801 
L 55.903917 -42.969591 
L 54.948001 -42.969654 
L 53.992085 -42.969205 
L 53.036169 -42.968578 
L 52.080254 -42.96801 
L 51.124338 -42.967476 
L 50.168422 -42.966725 
L 49.212506 -42.965552 
L 48.25659 -42.964032 
L 47.300674 -42.962484 
L 46.344758 -42.961232 
L 45.388842 -42.960415 
L 44.432926 -42.959979 
L 43.47701 -42.959786 
L 42.521094 -42.959716 
L 41.565178 -42.959694 
L 40.609262 -42.959689 
L 39.653346 -42.959688 
L 38.69743 -42.959688 
L 37.741514 -42.959688 
L 36.785598 -42.959688 
L 35.829683 -42.959688 
L 34.873767 -42.959688 
L 33.917851 -42.959688 
L 32.961935 -42.959688 
L 32.006019 -42.959688 
L 31.050103 -42.959688 
L 30.094187 -42.959688 
L 29.138271 -42.959688 
L 28.182355 -42.959691 
L 27.226439 -42.959701 
L 26.270523 -42.95974 
L 25.314607 -42.959855 
L 24.358691 -42.960143 
L 23.402775 -42.960737 
L 22.446859 -42.961737 
L 21.490943 -42.963079 
L 20.535027 -42.964445 
L 19.579111 -42.965341 
L 18.623196 -42.965381 
L 17.66728 -42.964546 
L 16.711364 -42.963201 
z
" style="stroke: #482475; stroke-width: 1.25"/>
    </defs>
    <g>
     <use xlink:href="#m82a86648c5" x="0" y="174.899688" style="fill: #482475; fill-opacity: 0.7; stroke: #482475; stroke-width: 1.25"/>
    </g>
   </g>
   <g id="line2d_9">
    <path d="M 7.2 131.94 
L 216.45 131.94 
" style="fill: none; stroke: #482475; stroke-opacity: 0.9; stroke-linecap: round"/>
   </g>
   <g id="text_15">
    <!-- 8 -->
    <g style="fill: #482475" transform="translate(7.2 131.09325) scale(0.12 -0.12)">
     <defs>
      <path id="DejaVuSans-Bold-38" d="M 2228 2088 
Q 1891 2088 1709 1903 
Q 1528 1719 1528 1375 
Q 1528 1031 1709 848 
Q 1891 666 2228 666 
Q 2563 666 2741 848 
Q 2919 1031 2919 1375 
Q 2919 1722 2741 1905 
Q 2563 2088 2228 2088 
z
M 1350 2484 
Q 925 2613 709 2878 
Q 494 3144 494 3541 
Q 494 4131 934 4440 
Q 1375 4750 2228 4750 
Q 3075 4750 3515 4442 
Q 3956 4134 3956 3541 
Q 3956 3144 3739 2878 
Q 3522 2613 3097 2484 
Q 3572 2353 3814 2058 
Q 4056 1763 4056 1313 
Q 4056 619 3595 264 
Q 3134 -91 2228 -91 
Q 1319 -91 855 264 
Q 391 619 391 1313 
Q 391 1763 633 2058 
Q 875 2353 1350 2484 
z
M 1631 3419 
Q 1631 3141 1786 2991 
Q 1941 2841 2228 2841 
Q 2509 2841 2662 2991 
Q 2816 3141 2816 3419 
Q 2816 3697 2662 3845 
Q 2509 3994 2228 3994 
Q 1941 3994 1786 3844 
Q 1631 3694 1631 3419 
z
" transform="scale(0.015625)"/>
     </defs>
     <use xlink:href="#DejaVuSans-Bold-38"/>
    </g>
   </g>
  </g>
 </g>
</svg>
