<?xml version="1.0" encoding="utf-8" standalone="no"?>
<!DOCTYPE svg PUBLIC "-//W3C//DTD SVG 1.1//EN"
  "http://www.w3.org/Graphics/SVG/1.1/DTD/svg11.dtd">
<svg xmlns:xlink="http://www.w3.org/1999/xlink" width="344.388486pt" height="234.534474pt" viewBox="0 0 344.388486 234.534474" xmlns="http://www.w3.org/2000/svg" version="1.1">
 <metadata>
  <rdf:RDF xmlns:dc="http://purl.org/dc/elements/1.1/" xmlns:cc="http://creativecommons.org/ns#" xmlns:rdf="http://www.w3.org/1999/02/22-rdf-syntax-ns#">
   <cc:Work>
    <dc:type rdf:resource="http://purl.org/dc/dcmitype/StillImage"/>
    <dc:date>2023-12-05T12:10:08.494296</dc:date>
    <dc:format>image/svg+xml</dc:format>
    <dc:creator>
     <cc:Agent>
      <dc:title>Matplotlib v3.8.2, https://matplotlib.org/</dc:title>
     </cc:Agent>
    </dc:creator>
   </cc:Work>
  </rdf:RDF>
 </metadata>
 <defs>
  <style type="text/css">*{stroke-linejoin: round; stroke-linecap: butt}</style>
 </defs>
 <g id="figure_1">
  <g id="patch_1">
   <path d="M 0 234.534474 
L 344.388486 234.534474 
L 344.388486 0 
L 0 0 
L 0 234.534474 
z
" style="fill: none"/>
  </g>
  <g id="axes_1">
   <g id="patch_2">
    <path d="M 68.580859 192.009865 
L 334.956949 192.009865 
L 334.956949 28.442513 
L 68.580859 28.442513 
L 68.580859 192.009865 
z
" style="fill: none"/>
   </g>
   <g id="matplotlib.axis_1">
    <g id="xtick_1">
     <g id="text_1">
      <!-- 0 -->
      <g style="fill: #838383" transform="translate(76.314645 205.957716) scale(0.1375 -0.1375)">
       <defs>
        <path id="DejaVuSans-30" d="M 2034 4250 
Q 1547 4250 1301 3770 
Q 1056 3291 1056 2328 
Q 1056 1369 1301 889 
Q 1547 409 2034 409 
Q 2525 409 2770 889 
Q 3016 1369 3016 2328 
Q 3016 3291 2770 3770 
Q 2525 4250 2034 4250 
z
M 2034 4750 
Q 2819 4750 3233 4129 
Q 3647 3509 3647 2328 
Q 3647 1150 3233 529 
Q 2819 -91 2034 -91 
Q 1250 -91 836 529 
Q 422 1150 422 2328 
Q 422 3509 836 4129 
Q 1250 4750 2034 4750 
z
" transform="scale(0.015625)"/>
       </defs>
       <use xlink:href="#DejaVuSans-30"/>
      </g>
     </g>
    </g>
    <g id="xtick_2">
     <g id="text_2">
      <!-- 50 -->
      <g style="fill: #838383" transform="translate(132.784668 205.957716) scale(0.1375 -0.1375)">
       <defs>
        <path id="DejaVuSans-35" d="M 691 4666 
L 3169 4666 
L 3169 4134 
L 1269 4134 
L 1269 2991 
Q 1406 3038 1543 3061 
Q 1681 3084 1819 3084 
Q 2600 3084 3056 2656 
Q 3513 2228 3513 1497 
Q 3513 744 3044 326 
Q 2575 -91 1722 -91 
Q 1428 -91 1123 -41 
Q 819 9 494 109 
L 494 744 
Q 775 591 1075 516 
Q 1375 441 1709 441 
Q 2250 441 2565 725 
Q 2881 1009 2881 1497 
Q 2881 1984 2565 2268 
Q 2250 2553 1709 2553 
Q 1456 2553 1204 2497 
Q 953 2441 691 2322 
L 691 4666 
z
" transform="scale(0.015625)"/>
       </defs>
       <use xlink:href="#DejaVuSans-35"/>
       <use xlink:href="#DejaVuSans-30" x="63.623047"/>
      </g>
     </g>
    </g>
    <g id="xtick_3">
     <g id="text_3">
      <!-- 100 -->
      <g style="fill: #838383" transform="translate(189.25469 205.957716) scale(0.1375 -0.1375)">
       <defs>
        <path id="DejaVuSans-31" d="M 794 531 
L 1825 531 
L 1825 4091 
L 703 3866 
L 703 4441 
L 1819 4666 
L 2450 4666 
L 2450 531 
L 3481 531 
L 3481 0 
L 794 0 
L 794 531 
z
" transform="scale(0.015625)"/>
       </defs>
       <use xlink:href="#DejaVuSans-31"/>
       <use xlink:href="#DejaVuSans-30" x="63.623047"/>
       <use xlink:href="#DejaVuSans-30" x="127.246094"/>
      </g>
     </g>
    </g>
    <g id="xtick_4">
     <g id="text_4">
      <!-- 150 -->
      <g style="fill: #838383" transform="translate(250.098932 205.957716) scale(0.1375 -0.1375)">
       <use xlink:href="#DejaVuSans-31"/>
       <use xlink:href="#DejaVuSans-35" x="63.623047"/>
       <use xlink:href="#DejaVuSans-30" x="127.246094"/>
      </g>
     </g>
    </g>
    <g id="xtick_5">
     <g id="text_5">
      <!-- 200 -->
      <g style="fill: #838383" transform="translate(310.943174 205.957716) scale(0.1375 -0.1375)">
       <defs>
        <path id="DejaVuSans-32" d="M 1228 531 
L 3431 531 
L 3431 0 
L 469 0 
L 469 531 
Q 828 903 1448 1529 
Q 2069 2156 2228 2338 
Q 2531 2678 2651 2914 
Q 2772 3150 2772 3378 
Q 2772 3750 2511 3984 
Q 2250 4219 1831 4219 
Q 1534 4219 1204 4116 
Q 875 4013 500 3803 
L 500 4441 
Q 881 4594 1212 4672 
Q 1544 4750 1819 4750 
Q 2544 4750 2975 4387 
Q 3406 4025 3406 3419 
Q 3406 3131 3298 2873 
Q 3191 2616 2906 2266 
Q 2828 2175 2409 1742 
Q 1991 1309 1228 531 
z
" transform="scale(0.015625)"/>
       </defs>
       <use xlink:href="#DejaVuSans-32"/>
       <use xlink:href="#DejaVuSans-30" x="63.623047"/>
       <use xlink:href="#DejaVuSans-30" x="127.246094"/>
      </g>
     </g>
    </g>
    <g id="text_6">
     <!-- draw -->
     <g style="fill: #838383" transform="translate(183.194685 224.214943) scale(0.15 -0.15)">
      <defs>
       <path id="DejaVuSans-64" d="M 2906 2969 
L 2906 4863 
L 3481 4863 
L 3481 0 
L 2906 0 
L 2906 525 
Q 2725 213 2448 61 
Q 2172 -91 1784 -91 
Q 1150 -91 751 415 
Q 353 922 353 1747 
Q 353 2572 751 3078 
Q 1150 3584 1784 3584 
Q 2172 3584 2448 3432 
Q 2725 3281 2906 2969 
z
M 947 1747 
Q 947 1113 1208 752 
Q 1469 391 1925 391 
Q 2381 391 2643 752 
Q 2906 1113 2906 1747 
Q 2906 2381 2643 2742 
Q 2381 3103 1925 3103 
Q 1469 3103 1208 2742 
Q 947 2381 947 1747 
z
" transform="scale(0.015625)"/>
       <path id="DejaVuSans-72" d="M 2631 2963 
Q 2534 3019 2420 3045 
Q 2306 3072 2169 3072 
Q 1681 3072 1420 2755 
Q 1159 2438 1159 1844 
L 1159 0 
L 581 0 
L 581 3500 
L 1159 3500 
L 1159 2956 
Q 1341 3275 1631 3429 
Q 1922 3584 2338 3584 
Q 2397 3584 2469 3576 
Q 2541 3569 2628 3553 
L 2631 2963 
z
" transform="scale(0.015625)"/>
       <path id="DejaVuSans-61" d="M 2194 1759 
Q 1497 1759 1228 1600 
Q 959 1441 959 1056 
Q 959 750 1161 570 
Q 1363 391 1709 391 
Q 2188 391 2477 730 
Q 2766 1069 2766 1631 
L 2766 1759 
L 2194 1759 
z
M 3341 1997 
L 3341 0 
L 2766 0 
L 2766 531 
Q 2569 213 2275 61 
Q 1981 -91 1556 -91 
Q 1019 -91 701 211 
Q 384 513 384 1019 
Q 384 1609 779 1909 
Q 1175 2209 1959 2209 
L 2766 2209 
L 2766 2266 
Q 2766 2663 2505 2880 
Q 2244 3097 1772 3097 
Q 1472 3097 1187 3025 
Q 903 2953 641 2809 
L 641 3341 
Q 956 3463 1253 3523 
Q 1550 3584 1831 3584 
Q 2591 3584 2966 3190 
Q 3341 2797 3341 1997 
z
" transform="scale(0.015625)"/>
       <path id="DejaVuSans-77" d="M 269 3500 
L 844 3500 
L 1563 769 
L 2278 3500 
L 2956 3500 
L 3675 769 
L 4391 3500 
L 4966 3500 
L 4050 0 
L 3372 0 
L 2619 2869 
L 1863 0 
L 1184 0 
L 269 3500 
z
" transform="scale(0.015625)"/>
      </defs>
      <use xlink:href="#DejaVuSans-64"/>
      <use xlink:href="#DejaVuSans-72" x="63.476562"/>
      <use xlink:href="#DejaVuSans-61" x="104.589844"/>
      <use xlink:href="#DejaVuSans-77" x="165.869141"/>
     </g>
    </g>
   </g>
   <g id="matplotlib.axis_2">
    <g id="ytick_1">
     <g id="text_7">
      <!-- 392.5 -->
      <g style="fill: #838383" transform="translate(25.717188 175.144934) scale(0.1375 -0.1375)">
       <defs>
        <path id="DejaVuSans-33" d="M 2597 2516 
Q 3050 2419 3304 2112 
Q 3559 1806 3559 1356 
Q 3559 666 3084 287 
Q 2609 -91 1734 -91 
Q 1441 -91 1130 -33 
Q 819 25 488 141 
L 488 750 
Q 750 597 1062 519 
Q 1375 441 1716 441 
Q 2309 441 2620 675 
Q 2931 909 2931 1356 
Q 2931 1769 2642 2001 
Q 2353 2234 1838 2234 
L 1294 2234 
L 1294 2753 
L 1863 2753 
Q 2328 2753 2575 2939 
Q 2822 3125 2822 3475 
Q 2822 3834 2567 4026 
Q 2313 4219 1838 4219 
Q 1578 4219 1281 4162 
Q 984 4106 628 3988 
L 628 4550 
Q 988 4650 1302 4700 
Q 1616 4750 1894 4750 
Q 2613 4750 3031 4423 
Q 3450 4097 3450 3541 
Q 3450 3153 3228 2886 
Q 3006 2619 2597 2516 
z
" transform="scale(0.015625)"/>
        <path id="DejaVuSans-39" d="M 703 97 
L 703 672 
Q 941 559 1184 500 
Q 1428 441 1663 441 
Q 2288 441 2617 861 
Q 2947 1281 2994 2138 
Q 2813 1869 2534 1725 
Q 2256 1581 1919 1581 
Q 1219 1581 811 2004 
Q 403 2428 403 3163 
Q 403 3881 828 4315 
Q 1253 4750 1959 4750 
Q 2769 4750 3195 4129 
Q 3622 3509 3622 2328 
Q 3622 1225 3098 567 
Q 2575 -91 1691 -91 
Q 1453 -91 1209 -44 
Q 966 3 703 97 
z
M 1959 2075 
Q 2384 2075 2632 2365 
Q 2881 2656 2881 3163 
Q 2881 3666 2632 3958 
Q 2384 4250 1959 4250 
Q 1534 4250 1286 3958 
Q 1038 3666 1038 3163 
Q 1038 2656 1286 2365 
Q 1534 2075 1959 2075 
z
" transform="scale(0.015625)"/>
        <path id="DejaVuSans-2e" d="M 684 794 
L 1344 794 
L 1344 0 
L 684 0 
L 684 794 
z
" transform="scale(0.015625)"/>
       </defs>
       <use xlink:href="#DejaVuSans-33"/>
       <use xlink:href="#DejaVuSans-39" x="63.623047"/>
       <use xlink:href="#DejaVuSans-32" x="127.246094"/>
       <use xlink:href="#DejaVuSans-2e" x="190.869141"/>
       <use xlink:href="#DejaVuSans-35" x="222.65625"/>
      </g>
     </g>
    </g>
    <g id="ytick_2">
     <g id="text_8">
      <!-- 395.0 -->
      <g style="fill: #838383" transform="translate(25.717188 138.727818) scale(0.1375 -0.1375)">
       <use xlink:href="#DejaVuSans-33"/>
       <use xlink:href="#DejaVuSans-39" x="63.623047"/>
       <use xlink:href="#DejaVuSans-35" x="127.246094"/>
       <use xlink:href="#DejaVuSans-2e" x="190.869141"/>
       <use xlink:href="#DejaVuSans-30" x="222.65625"/>
      </g>
     </g>
    </g>
    <g id="ytick_3">
     <g id="text_9">
      <!-- 397.5 -->
      <g style="fill: #838383" transform="translate(25.717188 102.310702) scale(0.1375 -0.1375)">
       <defs>
        <path id="DejaVuSans-37" d="M 525 4666 
L 3525 4666 
L 3525 4397 
L 1831 0 
L 1172 0 
L 2766 4134 
L 525 4134 
L 525 4666 
z
" transform="scale(0.015625)"/>
       </defs>
       <use xlink:href="#DejaVuSans-33"/>
       <use xlink:href="#DejaVuSans-39" x="63.623047"/>
       <use xlink:href="#DejaVuSans-37" x="127.246094"/>
       <use xlink:href="#DejaVuSans-2e" x="190.869141"/>
       <use xlink:href="#DejaVuSans-35" x="222.65625"/>
      </g>
     </g>
    </g>
    <g id="ytick_4">
     <g id="text_10">
      <!-- 400.0 -->
      <g style="fill: #838383" transform="translate(25.717188 65.893586) scale(0.1375 -0.1375)">
       <defs>
        <path id="DejaVuSans-34" d="M 2419 4116 
L 825 1625 
L 2419 1625 
L 2419 4116 
z
M 2253 4666 
L 3047 4666 
L 3047 1625 
L 3713 1625 
L 3713 1100 
L 3047 1100 
L 3047 0 
L 2419 0 
L 2419 1100 
L 313 1100 
L 313 1709 
L 2253 4666 
z
" transform="scale(0.015625)"/>
       </defs>
       <use xlink:href="#DejaVuSans-34"/>
       <use xlink:href="#DejaVuSans-30" x="63.623047"/>
       <use xlink:href="#DejaVuSans-30" x="127.246094"/>
       <use xlink:href="#DejaVuSans-2e" x="190.869141"/>
       <use xlink:href="#DejaVuSans-30" x="222.65625"/>
      </g>
     </g>
    </g>
    <g id="text_11">
     <!-- energy -->
     <g style="fill: #838383" transform="translate(18.597656 136.361345) rotate(-90) scale(0.15 -0.15)">
      <defs>
       <path id="DejaVuSans-65" d="M 3597 1894 
L 3597 1613 
L 953 1613 
Q 991 1019 1311 708 
Q 1631 397 2203 397 
Q 2534 397 2845 478 
Q 3156 559 3463 722 
L 3463 178 
Q 3153 47 2828 -22 
Q 2503 -91 2169 -91 
Q 1331 -91 842 396 
Q 353 884 353 1716 
Q 353 2575 817 3079 
Q 1281 3584 2069 3584 
Q 2775 3584 3186 3129 
Q 3597 2675 3597 1894 
z
M 3022 2063 
Q 3016 2534 2758 2815 
Q 2500 3097 2075 3097 
Q 1594 3097 1305 2825 
Q 1016 2553 972 2059 
L 3022 2063 
z
" transform="scale(0.015625)"/>
       <path id="DejaVuSans-6e" d="M 3513 2113 
L 3513 0 
L 2938 0 
L 2938 2094 
Q 2938 2591 2744 2837 
Q 2550 3084 2163 3084 
Q 1697 3084 1428 2787 
Q 1159 2491 1159 1978 
L 1159 0 
L 581 0 
L 581 3500 
L 1159 3500 
L 1159 2956 
Q 1366 3272 1645 3428 
Q 1925 3584 2291 3584 
Q 2894 3584 3203 3211 
Q 3513 2838 3513 2113 
z
" transform="scale(0.015625)"/>
       <path id="DejaVuSans-67" d="M 2906 1791 
Q 2906 2416 2648 2759 
Q 2391 3103 1925 3103 
Q 1463 3103 1205 2759 
Q 947 2416 947 1791 
Q 947 1169 1205 825 
Q 1463 481 1925 481 
Q 2391 481 2648 825 
Q 2906 1169 2906 1791 
z
M 3481 434 
Q 3481 -459 3084 -895 
Q 2688 -1331 1869 -1331 
Q 1566 -1331 1297 -1286 
Q 1028 -1241 775 -1147 
L 775 -588 
Q 1028 -725 1275 -790 
Q 1522 -856 1778 -856 
Q 2344 -856 2625 -561 
Q 2906 -266 2906 331 
L 2906 616 
Q 2728 306 2450 153 
Q 2172 0 1784 0 
Q 1141 0 747 490 
Q 353 981 353 1791 
Q 353 2603 747 3093 
Q 1141 3584 1784 3584 
Q 2172 3584 2450 3431 
Q 2728 3278 2906 2969 
L 2906 3500 
L 3481 3500 
L 3481 434 
z
" transform="scale(0.015625)"/>
       <path id="DejaVuSans-79" d="M 2059 -325 
Q 1816 -950 1584 -1140 
Q 1353 -1331 966 -1331 
L 506 -1331 
L 506 -850 
L 844 -850 
Q 1081 -850 1212 -737 
Q 1344 -625 1503 -206 
L 1606 56 
L 191 3500 
L 800 3500 
L 1894 763 
L 2988 3500 
L 3597 3500 
L 2059 -325 
z
" transform="scale(0.015625)"/>
      </defs>
      <use xlink:href="#DejaVuSans-65"/>
      <use xlink:href="#DejaVuSans-6e" x="61.523438"/>
      <use xlink:href="#DejaVuSans-65" x="124.902344"/>
      <use xlink:href="#DejaVuSans-72" x="186.425781"/>
      <use xlink:href="#DejaVuSans-67" x="225.789062"/>
      <use xlink:href="#DejaVuSans-79" x="289.265625"/>
     </g>
    </g>
   </g>
   <g id="line2d_1">
    <path d="M 80.688863 130.573008 
L 81.905748 141.856001 
L 84.339518 87.713992 
L 86.773288 128.586337 
L 87.990172 84.719538 
L 89.207057 108.147053 
L 90.423942 154.309481 
L 91.640827 109.69318 
L 92.857712 108.919672 
L 94.074597 139.186065 
L 95.291481 123.670115 
L 96.508366 132.693042 
L 97.725251 123.243352 
L 98.942136 104.564021 
L 100.159021 126.44941 
L 101.375906 77.878437 
L 102.59279 151.613761 
L 105.02656 81.458357 
L 106.243445 131.652807 
L 107.46033 81.126282 
L 108.677215 142.390344 
L 109.894099 90.968061 
L 111.110984 97.790935 
L 112.327869 143.365231 
L 113.544754 90.914715 
L 114.761639 163.584465 
L 115.978524 97.988313 
L 117.195408 88.237666 
L 118.412293 118.63031 
L 119.629178 63.830374 
L 120.846063 121.951504 
L 122.062948 123.218902 
L 123.279833 88.91782 
L 124.496717 121.872376 
L 125.713602 125.804819 
L 128.147372 110.12261 
L 129.364257 97.578443 
L 131.798026 121.240677 
L 133.014911 80.876003 
L 134.231796 184.574985 
L 135.448681 93.567759 
L 136.665566 138.294308 
L 137.882451 121.660328 
L 139.099335 136.70017 
L 140.31622 134.890872 
L 141.533105 142.529042 
L 142.74999 134.141369 
L 143.966875 105.495787 
L 145.18376 139.097156 
L 146.400644 137.086924 
L 147.617529 126.290262 
L 148.834414 126.696132 
L 150.051299 141.555489 
L 151.268184 138.854434 
L 152.485069 127.251368 
L 153.701953 95.744695 
L 154.918838 102.047452 
L 157.352608 69.185362 
L 159.786378 147.742664 
L 161.003262 109.238855 
L 162.220147 152.619322 
L 165.870802 101.51222 
L 167.087687 127.74348 
L 168.304571 103.987891 
L 170.738341 148.766007 
L 171.955226 113.126844 
L 173.172111 122.413387 
L 174.388995 122.089758 
L 175.60588 166.753181 
L 179.256535 91.326364 
L 180.47342 126.329827 
L 181.690304 86.563065 
L 184.124074 143.298994 
L 185.340959 160.905638 
L 186.557844 140.024476 
L 187.774729 141.249642 
L 188.991613 111.85678 
L 190.208498 108.724961 
L 191.425383 113.870568 
L 192.642268 135.418991 
L 193.859153 106.668941 
L 196.292922 132.630806 
L 197.509807 145.300335 
L 198.726692 102.462657 
L 199.943577 122.352929 
L 201.160462 102.862748 
L 202.377347 168.277081 
L 204.811116 78.069147 
L 206.028001 134.990006 
L 207.244886 130.115571 
L 208.461771 116.420033 
L 210.89554 138.400998 
L 212.112425 83.300551 
L 213.32931 162.438873 
L 214.546195 101.77628 
L 215.76308 152.204117 
L 218.196849 99.199253 
L 219.413734 125.331379 
L 220.630619 102.223048 
L 221.847504 167.215508 
L 223.064389 108.592042 
L 224.281274 170.953241 
L 226.715043 126.20491 
L 227.931928 176.086845 
L 229.148813 125.892395 
L 230.365698 145.993825 
L 232.799467 124.255581 
L 234.016352 125.491415 
L 236.450122 111.38245 
L 237.667007 114.796555 
L 238.883892 122.455174 
L 240.100776 96.872506 
L 242.534546 145.234098 
L 243.751431 92.116765 
L 247.402085 182.956842 
L 248.61897 98.450195 
L 249.835855 109.569596 
L 251.05274 132.420092 
L 253.48651 118.931267 
L 254.703394 119.249116 
L 255.920279 121.04241 
L 257.137164 121.047745 
L 258.354049 101.989217 
L 259.570934 104.072354 
L 260.787819 114.344897 
L 262.004703 93.419281 
L 263.221588 122.989072 
L 264.438473 124.815263 
L 265.655358 123.869716 
L 266.872243 81.246753 
L 269.306012 129.482984 
L 270.522897 97.98609 
L 272.956667 126.2587 
L 274.173552 95.978526 
L 275.390437 140.525034 
L 276.607321 142.769541 
L 277.824206 110.802764 
L 279.041091 153.100764 
L 280.257976 144.749099 
L 282.691746 77.368544 
L 285.125515 166.537132 
L 287.559285 91.07164 
L 288.77617 165.996566 
L 289.993055 124.958851 
L 291.209939 134.897096 
L 292.426824 78.472793 
L 297.294363 140.047148 
L 298.511248 71.290726 
L 299.728133 120.508956 
L 300.945018 102.935209 
L 302.161903 118.606304 
L 303.378788 85.590846 
L 304.595672 102.66048 
L 305.812557 156.803378 
L 307.029442 100.083898 
L 308.246327 146.810898 
L 309.463212 58.60386 
L 311.896981 165.20172 
L 313.113866 134.805964 
L 314.330751 140.1774 
L 315.547636 93.876273 
L 316.764521 148.988724 
L 319.19829 116.924147 
L 320.415175 145.514605 
L 321.63206 138.615269 
L 322.848945 117.622971 
L 322.848945 117.622971 
" clip-path="url(#p3215fa1f68)" style="fill: none; stroke: #440154; stroke-width: 1.5; stroke-linecap: round"/>
   </g>
   <g id="line2d_2">
    <path d="M 80.688863 111.598499 
L 81.905748 121.064637 
L 84.339518 71.397417 
L 86.773288 107.151272 
L 87.990172 66.115335 
L 89.207057 87.381028 
L 90.423942 140.63128 
L 91.640827 92.204784 
L 92.857712 90.881819 
L 94.074597 117.483384 
L 95.291481 104.348861 
L 96.508366 115.013493 
L 98.942136 86.546173 
L 100.159021 108.323092 
L 101.375906 58.270007 
L 102.59279 131.307396 
L 105.02656 64.101547 
L 106.243445 114.568503 
L 107.46033 64.499859 
L 108.677215 123.556756 
L 109.894099 76.094034 
L 111.110984 81.104944 
L 112.327869 126.091551 
L 113.544754 71.236047 
L 114.761639 144.595731 
L 115.978524 77.963345 
L 117.195408 67.56055 
L 118.412293 99.525549 
L 119.629178 46.155715 
L 120.846063 103.693158 
L 122.062948 103.852749 
L 123.279833 69.44142 
L 125.713602 109.012137 
L 129.364257 78.204733 
L 131.798026 104.20883 
L 133.014911 60.222893 
L 134.231796 163.680932 
L 135.448681 73.669931 
L 136.665566 119.621645 
L 137.882451 104.785404 
L 139.099335 121.138432 
L 140.31622 116.019053 
L 141.533105 124.071539 
L 142.74999 113.573612 
L 143.966875 87.841132 
L 145.18376 120.647654 
L 146.400644 117.066401 
L 147.617529 104.896985 
L 148.834414 108.310645 
L 150.051299 119.450051 
L 151.268184 119.902597 
L 152.485069 111.44113 
L 153.701953 80.559487 
L 154.918838 85.605071 
L 157.352608 49.461795 
L 159.786378 132.456989 
L 161.003262 90.619537 
L 162.220147 135.680384 
L 164.653917 117.81946 
L 165.870802 81.908236 
L 167.087687 110.732081 
L 168.304571 85.03961 
L 170.738341 129.873739 
L 171.955226 93.961626 
L 173.172111 103.403314 
L 174.388995 103.722497 
L 175.60588 149.904486 
L 179.256535 73.73928 
L 180.47342 110.113275 
L 181.690304 72.242497 
L 185.340959 141.341663 
L 186.557844 122.999297 
L 187.774729 119.834582 
L 188.991613 93.629995 
L 190.208498 92.924058 
L 191.425383 96.064323 
L 192.642268 118.73789 
L 193.859153 90.524405 
L 196.292922 117.979052 
L 197.509807 128.710809 
L 198.726692 83.543717 
L 199.943577 104.071465 
L 201.160462 84.616403 
L 202.377347 148.940268 
L 203.594231 73.613029 
L 204.811116 64.395835 
L 206.028001 119.937272 
L 208.461771 99.382406 
L 210.89554 118.70366 
L 212.112425 65.476969 
L 213.32931 143.18519 
L 214.546195 84.23854 
L 215.76308 136.954894 
L 218.196849 81.352555 
L 219.413734 106.504015 
L 220.630619 85.50327 
L 221.847504 148.562405 
L 223.064389 91.165438 
L 224.281274 149.457274 
L 226.715043 106.205281 
L 227.931928 156.072102 
L 229.148813 106.242178 
L 230.365698 126.628561 
L 231.582583 119.534959 
L 232.799467 104.792517 
L 234.016352 107.111263 
L 235.233237 96.381283 
L 236.450122 94.717797 
L 237.667007 95.315709 
L 238.883892 106.521797 
L 240.100776 77.81709 
L 242.534546 128.832615 
L 243.751431 71.956655 
L 247.402085 167.136379 
L 248.61897 81.637064 
L 249.835855 90.307467 
L 251.05274 114.760102 
L 253.48651 97.781155 
L 254.703394 98.736927 
L 255.920279 106.503126 
L 257.137164 102.136806 
L 258.354049 79.092489 
L 260.787819 99.443753 
L 262.004703 73.135143 
L 263.221588 104.840528 
L 265.655358 107.169054 
L 266.872243 63.320926 
L 269.306012 109.32154 
L 270.522897 80.876447 
L 272.956667 109.884778 
L 274.173552 74.464332 
L 275.390437 120.631651 
L 276.607321 123.280249 
L 277.824206 93.700678 
L 279.041091 133.80885 
L 280.257976 125.811488 
L 282.691746 56.641195 
L 285.125515 146.618855 
L 287.559285 71.485437 
L 288.77617 146.954486 
L 289.993055 105.956335 
L 291.209939 116.500051 
L 292.426824 59.871258 
L 296.077479 94.910284 
L 297.294363 125.24247 
L 298.511248 53.816557 
L 299.728133 101.612243 
L 300.945018 83.690416 
L 302.161903 98.883182 
L 303.378788 64.554093 
L 304.595672 85.663751 
L 305.812557 139.124717 
L 307.029442 84.252766 
L 308.246327 126.77615 
L 309.463212 43.580466 
L 311.896981 149.902708 
L 313.113866 117.725216 
L 314.330751 120.456056 
L 315.547636 76.987124 
L 316.764521 130.278274 
L 319.19829 95.704242 
L 320.415175 128.384958 
L 321.63206 122.178667 
L 322.848945 100.244823 
L 322.848945 100.244823 
" clip-path="url(#p3215fa1f68)" style="fill: none; stroke: #482878; stroke-width: 1.5; stroke-linecap: round"/>
   </g>
   <g id="line2d_3">
    <path d="M 80.688863 106.82631 
L 81.905748 116.384914 
L 84.339518 66.757258 
L 86.773288 103.038343 
L 87.990172 60.399822 
L 89.207057 84.643076 
L 90.423942 132.448543 
L 91.640827 88.16565 
L 92.857712 84.539053 
L 94.074597 113.769656 
L 95.291481 99.393075 
L 96.508366 107.926558 
L 97.725251 101.537115 
L 98.942136 82.223863 
L 100.159021 102.920094 
L 101.375906 51.504923 
L 102.59279 126.432072 
L 105.02656 58.078853 
L 106.243445 108.292863 
L 107.46033 58.62831 
L 108.677215 115.979044 
L 109.894099 68.614122 
L 111.110984 75.885987 
L 112.327869 120.312468 
L 113.544754 67.484533 
L 114.761639 140.839772 
L 115.978524 74.685271 
L 117.195408 62.968846 
L 118.412293 95.36372 
L 119.629178 41.020777 
L 120.846063 98.895185 
L 122.062948 99.520659 
L 123.279833 66.139785 
L 125.713602 105.093918 
L 129.364257 74.25673 
L 131.798026 98.822279 
L 133.014911 55.838347 
L 134.231796 160.157913 
L 135.448681 70.100235 
L 136.665566 114.284439 
L 137.882451 99.445087 
L 139.099335 114.517825 
L 140.31622 111.62695 
L 141.533105 119.600307 
L 142.74999 109.250413 
L 143.966875 82.630622 
L 145.18376 117.278893 
L 146.400644 113.562943 
L 147.617529 99.758491 
L 148.834414 104.482669 
L 150.051299 118.465384 
L 151.268184 114.754768 
L 152.485069 106.452003 
L 153.701953 75.837531 
L 154.918838 79.338322 
L 157.352608 45.366648 
L 159.786378 126.010644 
L 161.003262 86.033612 
L 162.220147 130.520996 
L 164.653917 113.706086 
L 165.870802 79.337878 
L 167.087687 105.124592 
L 168.304571 80.991585 
L 170.738341 124.555204 
L 171.955226 89.94294 
L 173.172111 99.888298 
L 174.388995 100.118128 
L 175.60588 146.227655 
L 179.256535 69.092897 
L 180.47342 102.605356 
L 181.690304 65.317377 
L 184.124074 120.879707 
L 185.340959 136.934 
L 188.991613 88.195879 
L 190.208498 85.02005 
L 191.425383 91.548192 
L 192.642268 114.047052 
L 193.859153 85.04939 
L 196.292922 112.043933 
L 197.509807 123.973739 
L 198.726692 79.544591 
L 199.943577 101.639805 
L 201.160462 78.280305 
L 202.377347 141.630617 
L 204.811116 55.73699 
L 206.028001 112.318662 
L 207.244886 106.094144 
L 208.461771 94.507527 
L 210.89554 113.807442 
L 212.112425 61.998849 
L 213.32931 138.769971 
L 214.546195 79.71663 
L 215.76308 132.13825 
L 218.196849 75.105366 
L 219.413734 104.343527 
L 220.630619 79.315206 
L 221.847504 144.472592 
L 223.064389 85.429921 
L 224.281274 145.717318 
L 226.715043 101.977659 
L 227.931928 151.788912 
L 229.148813 100.980989 
L 230.365698 123.128659 
L 232.799467 100.300391 
L 234.016352 103.009448 
L 235.233237 91.237899 
L 237.667007 89.39126 
L 238.883892 102.221714 
L 240.100776 72.401199 
L 242.534546 123.849267 
L 243.751431 68.146905 
L 247.402085 161.698706 
L 248.61897 76.282076 
L 249.835855 86.812455 
L 251.05274 111.328216 
L 253.48651 96.455078 
L 254.703394 95.189903 
L 255.920279 99.646466 
L 257.137164 98.667578 
L 258.354049 75.870428 
L 259.570934 80.729303 
L 260.787819 94.889391 
L 262.004703 70.06645 
L 263.221588 99.655801 
L 264.438473 103.159259 
L 265.655358 101.125022 
L 266.872243 59.930827 
L 269.306012 106.19639 
L 270.522897 75.950001 
L 272.956667 102.983219 
L 274.173552 70.294501 
L 275.390437 118.245334 
L 276.607321 118.402703 
L 277.824206 87.100076 
L 279.041091 129.847066 
L 280.257976 122.034634 
L 282.691746 51.646733 
L 285.125515 140.788204 
L 287.559285 68.423412 
L 288.77617 142.911795 
L 289.993055 100.031886 
L 291.209939 112.172851 
L 292.426824 57.095964 
L 296.077479 90.027404 
L 297.294363 118.900148 
L 298.511248 46.851428 
L 299.728133 94.752916 
L 300.945018 77.820201 
L 302.161903 95.319266 
L 303.378788 61.133765 
L 304.595672 80.594161 
L 305.812557 131.453651 
L 307.029442 78.618604 
L 308.246327 123.48474 
L 309.463212 37.736479 
L 311.896981 143.677746 
L 313.113866 111.725639 
L 314.330751 114.800111 
L 315.547636 72.083794 
L 316.764521 126.91307 
L 319.19829 92.663555 
L 320.415175 124.173784 
L 321.63206 117.704767 
L 322.848945 95.842495 
L 322.848945 95.842495 
" clip-path="url(#p3215fa1f68)" style="fill: none; stroke: #3e4989; stroke-width: 1.5; stroke-linecap: round"/>
   </g>
   <g id="line2d_4">
    <path d="M 80.688863 112.003035 
L 81.905748 124.466295 
L 84.339518 68.676358 
L 86.773288 110.800985 
L 87.990172 66.413625 
L 89.207057 89.081412 
L 90.423942 136.348979 
L 91.640827 90.547077 
L 92.857712 90.904935 
L 94.074597 121.387377 
L 95.291481 105.830085 
L 96.508366 115.69009 
L 98.942136 85.755327 
L 100.159021 108.560479 
L 101.375906 61.433833 
L 102.59279 133.439878 
L 105.02656 63.383162 
L 106.243445 113.236647 
L 107.46033 63.078649 
L 108.677215 126.51209 
L 109.894099 72.413202 
L 111.110984 78.871995 
L 112.327869 125.483858 
L 113.544754 72.160701 
L 114.761639 144.797999 
L 115.978524 79.41834 
L 117.195408 70.911085 
L 118.412293 99.772716 
L 119.629178 45.644933 
L 120.846063 103.443323 
L 122.062948 105.083249 
L 123.279833 69.773939 
L 124.496717 104.553796 
L 125.713602 106.397324 
L 126.930487 102.334184 
L 129.364257 79.759751 
L 131.798026 102.516447 
L 133.014911 62.570534 
L 134.231796 166.512238 
L 135.448681 74.792406 
L 136.665566 120.220002 
L 137.882451 103.014338 
L 139.099335 118.512505 
L 140.31622 116.267998 
L 141.533105 123.90439 
L 142.74999 116.765889 
L 143.966875 87.150309 
L 145.18376 120.233339 
L 146.400644 118.789457 
L 147.617529 109.310427 
L 148.834414 108.194174 
L 150.051299 122.622323 
L 151.268184 120.766348 
L 152.485069 109.343767 
L 153.701953 76.332754 
L 154.918838 84.154077 
L 157.352608 50.665623 
L 159.786378 129.727928 
L 161.003262 91.161438 
L 162.220147 133.509227 
L 165.870802 82.527932 
L 167.087687 110.061263 
L 168.304571 86.04606 
L 170.738341 131.45454 
L 171.955226 94.312816 
L 173.172111 103.87142 
L 174.388995 103.425986 
L 175.60588 147.490163 
L 179.256535 72.120247 
L 180.47342 108.971239 
L 181.690304 67.864175 
L 184.124074 125.142892 
L 185.340959 142.402791 
L 186.557844 120.400487 
L 187.774729 124.236021 
L 188.991613 94.427509 
L 190.208498 91.244123 
L 191.425383 94.825376 
L 192.642268 116.801452 
L 193.859153 88.294568 
L 196.292922 114.061278 
L 197.509807 126.735696 
L 198.726692 83.879793 
L 199.943577 102.818738 
L 201.160462 85.461483 
L 202.377347 151.762239 
L 204.811116 60.185995 
L 206.028001 117.431817 
L 207.244886 112.049712 
L 208.461771 97.72292 
L 209.678656 105.231727 
L 210.89554 121.262015 
L 212.112425 63.948179 
L 213.32931 144.721537 
L 214.546195 82.58839 
L 215.76308 132.276059 
L 218.196849 81.878896 
L 219.413734 105.995011 
L 220.630619 83.870457 
L 221.847504 148.917152 
L 223.064389 90.501288 
L 224.281274 153.175447 
L 226.715043 108.183505 
L 227.931928 158.31483 
L 229.148813 108.511135 
L 230.365698 127.174907 
L 232.799467 106.12304 
L 234.016352 107.669611 
L 236.450122 92.09187 
L 238.883892 103.544235 
L 240.100776 79.143167 
L 242.534546 126.343608 
L 243.751431 73.536567 
L 247.402085 164.486447 
L 248.61897 79.860662 
L 249.835855 91.029408 
L 251.05274 113.081501 
L 253.48651 99.323726 
L 254.703394 100.230153 
L 255.920279 103.14859 
L 257.137164 102.191929 
L 258.354049 83.842895 
L 259.570934 86.431036 
L 260.787819 94.99297 
L 262.004703 74.556798 
L 263.221588 104.431102 
L 265.655358 105.907436 
L 266.872243 61.893048 
L 269.306012 110.95791 
L 270.522897 79.231631 
L 272.956667 108.484907 
L 274.173552 78.447899 
L 275.390437 121.187332 
L 276.607321 125.20335 
L 277.824206 93.125881 
L 279.041091 134.992673 
L 280.257976 125.827491 
L 282.691746 59.552964 
L 285.125515 149.206106 
L 287.559285 71.839295 
L 288.77617 147.759112 
L 289.993055 107.71051 
L 291.209939 116.842795 
L 292.426824 58.947049 
L 294.860594 80.718189 
L 296.077479 93.493075 
L 297.294363 121.568751 
L 298.511248 54.239319 
L 299.728133 104.033234 
L 300.945018 86.280779 
L 302.161903 99.771827 
L 303.378788 67.605449 
L 304.595672 83.99004 
L 305.812557 140.13828 
L 307.029442 80.698629 
L 308.246327 128.475645 
L 309.463212 39.351066 
L 311.896981 147.194985 
L 313.113866 117.186873 
L 314.330751 123.562091 
L 315.547636 75.032905 
L 316.764521 130.241822 
L 319.19829 98.584003 
L 320.415175 126.471192 
L 321.63206 119.219776 
L 322.848945 98.703586 
L 322.848945 98.703586 
" clip-path="url(#p3215fa1f68)" style="fill: none; stroke: #31688e; stroke-width: 1.5; stroke-linecap: round"/>
   </g>
   <g id="line2d_5">
    <path d="M 80.688863 111.980808 
L 81.905748 124.306259 
L 84.339518 68.221589 
L 86.773288 110.716966 
L 87.990172 66.807047 
L 89.207057 90.010511 
L 90.423942 136.299635 
L 91.640827 90.480395 
L 92.857712 90.569304 
L 94.074597 121.691446 
L 95.291481 105.398876 
L 96.508366 116.080845 
L 98.942136 85.228097 
L 100.159021 107.74385 
L 101.375906 60.54741 
L 102.59279 134.319187 
L 105.02656 63.264913 
L 106.243445 113.273544 
L 107.46033 62.981294 
L 108.677215 126.099553 
L 109.894099 72.027782 
L 111.110984 78.525694 
L 112.327869 124.632555 
L 113.544754 72.326516 
L 114.761639 145.414138 
L 115.978524 78.635497 
L 117.195408 70.450537 
L 118.412293 99.724705 
L 119.629178 44.737172 
L 120.846063 102.849411 
L 122.062948 104.596917 
L 123.279833 68.804831 
L 124.496717 104.087469 
L 125.713602 106.166161 
L 126.930487 101.664699 
L 129.364257 79.240967 
L 131.798026 101.70293 
L 133.014911 62.445617 
L 134.231796 166.249956 
L 135.448681 75.084472 
L 136.665566 120.169324 
L 137.882451 101.900753 
L 139.099335 117.698988 
L 140.31622 116.454263 
L 141.533105 123.768359 
L 142.74999 115.774554 
L 143.966875 86.20254 
L 145.18376 119.899041 
L 146.400644 119.277567 
L 148.834414 107.522023 
L 150.051299 122.536526 
L 151.268184 120.021735 
L 152.485069 109.334876 
L 153.701953 75.484563 
L 154.918838 83.449473 
L 157.352608 50.577158 
L 159.786378 128.408519 
L 161.003262 91.014293 
L 162.220147 133.174929 
L 165.870802 81.789987 
L 167.087687 109.394446 
L 168.304571 85.842458 
L 170.738341 131.23938 
L 171.955226 94.492857 
L 173.172111 103.764285 
L 174.388995 102.644476 
L 175.60588 146.910476 
L 179.256535 71.721935 
L 180.47342 108.138162 
L 181.690304 66.760814 
L 184.124074 124.590767 
L 185.340959 142.142288 
L 186.557844 120.145319 
L 187.774729 124.30048 
L 188.991613 93.319703 
L 190.208498 91.033409 
L 191.425383 93.991855 
L 192.642268 116.231546 
L 193.859153 86.848019 
L 195.076038 108.870772 
L 196.292922 112.626287 
L 197.509807 125.827491 
L 198.726692 82.849782 
L 199.943577 102.062122 
L 201.160462 84.533718 
L 202.377347 151.119427 
L 204.811116 59.122644 
L 206.028001 116.033279 
L 207.244886 111.995922 
L 208.461771 97.349502 
L 210.89554 120.564969 
L 212.112425 63.22446 
L 213.32931 144.702422 
L 214.546195 82.953806 
L 215.76308 132.285839 
L 218.196849 81.425905 
L 219.413734 106.003457 
L 220.630619 83.154295 
L 221.847504 148.555292 
L 223.064389 90.785797 
L 224.281274 152.795806 
L 226.715043 107.814978 
L 227.931928 157.814273 
L 229.148813 108.636496 
L 230.365698 127.550992 
L 232.799467 106.31375 
L 234.016352 107.015241 
L 236.450122 91.92561 
L 238.883892 103.476664 
L 240.100776 79.097379 
L 242.534546 126.274259 
L 243.751431 73.546347 
L 247.402085 163.800959 
L 248.61897 80.299873 
L 249.835855 90.896933 
L 251.05274 113.014374 
L 253.48651 99.261934 
L 254.703394 99.550888 
L 255.920279 102.043007 
L 257.137164 101.69315 
L 258.354049 84.475927 
L 259.570934 85.770442 
L 260.787819 93.479739 
L 262.004703 74.947108 
L 263.221588 104.264842 
L 265.655358 105.229505 
L 266.872243 61.537412 
L 269.306012 110.492471 
L 270.522897 77.962011 
L 272.956667 108.030582 
L 274.173552 79.008025 
L 275.390437 121.394045 
L 276.607321 124.52942 
L 277.824206 92.986739 
L 279.041091 134.254284 
L 280.257976 125.04198 
L 282.691746 58.852361 
L 285.125515 149.660431 
L 287.559285 72.265169 
L 288.77617 147.281227 
L 289.993055 107.70073 
L 291.209939 116.392026 
L 292.426824 58.757673 
L 294.860594 80.971135 
L 296.077479 91.923388 
L 297.294363 120.013733 
L 298.511248 53.60273 
L 299.728133 103.217939 
L 300.945018 85.261438 
L 302.161903 99.992321 
L 303.378788 67.439634 
L 304.595672 83.105395 
L 305.812557 140.200516 
L 307.029442 79.621497 
L 308.246327 128.540549 
L 309.463212 38.694029 
L 311.896981 146.363686 
L 313.113866 116.90103 
L 314.330751 123.214456 
L 315.547636 74.025566 
L 316.764521 130.152913 
L 319.19829 98.531102 
L 320.415175 125.70613 
L 321.63206 119.31402 
L 322.848945 98.054995 
L 322.848945 98.054995 
" clip-path="url(#p3215fa1f68)" style="fill: none; stroke: #26828e; stroke-width: 1.5; stroke-linecap: round"/>
   </g>
   <g id="line2d_6">
    <path d="M 80.688863 112.761428 
L 81.905748 123.907946 
L 84.339518 69.181806 
L 86.773288 110.584937 
L 87.990172 66.531874 
L 89.207057 90.527072 
L 90.423942 136.55347 
L 91.640827 90.584863 
L 92.857712 90.826695 
L 94.074597 122.056417 
L 95.291481 105.644265 
L 96.508366 115.825232 
L 98.942136 86.30434 
L 100.159021 108.030582 
L 101.375906 60.058411 
L 102.59279 134.004005 
L 105.02656 63.599211 
L 106.243445 113.979037 
L 107.46033 63.039974 
L 108.677215 125.278034 
L 109.894099 72.72305 
L 111.110984 78.815537 
L 112.327869 125.328267 
L 113.544754 72.614581 
L 114.761639 146.186313 
L 115.978524 78.781752 
L 117.195408 70.514551 
L 118.412293 100.22793 
L 119.629178 44.305964 
L 120.846063 103.202825 
L 122.062948 105.249954 
L 123.279833 69.477872 
L 124.496717 103.757172 
L 125.713602 106.439556 
L 126.930487 100.908973 
L 129.364257 79.128497 
L 131.798026 101.630914 
L 133.014911 62.816812 
L 134.231796 167.013685 
L 135.448681 76.295413 
L 136.665566 120.47117 
L 137.882451 101.870524 
L 139.099335 117.232661 
L 140.31622 116.888583 
L 141.533105 124.472518 
L 142.74999 115.213093 
L 143.966875 86.551063 
L 145.18376 120.215557 
L 146.400644 119.633203 
L 147.617529 109.333543 
L 148.834414 108.341763 
L 150.051299 123.1131 
L 151.268184 120.626761 
L 152.485069 109.260193 
L 153.701953 76.381654 
L 154.918838 83.34056 
L 157.352608 50.633171 
L 159.786378 128.744595 
L 161.003262 91.261016 
L 162.220147 133.977777 
L 165.870802 82.118061 
L 167.087687 109.706961 
L 168.304571 85.929589 
L 170.738341 131.45454 
L 171.955226 95.358386 
L 173.172111 104.123922 
L 174.388995 103.038343 
L 175.60588 147.343018 
L 179.256535 72.40031 
L 180.47342 107.805198 
L 181.690304 67.887291 
L 184.124074 125.55054 
L 185.340959 143.085612 
L 186.557844 120.893043 
L 187.774729 124.68101 
L 188.991613 93.193008 
L 190.208498 90.829363 
L 191.425383 94.516418 
L 192.642268 116.758776 
L 193.859153 86.717323 
L 195.076038 108.929452 
L 196.292922 112.718308 
L 197.509807 126.257811 
L 198.726692 82.387455 
L 199.943577 102.664925 
L 201.160462 84.423471 
L 202.377347 151.060303 
L 204.811116 58.987058 
L 206.028001 115.688312 
L 207.244886 112.472919 
L 208.461771 97.829611 
L 210.89554 120.180882 
L 212.112425 63.594321 
L 213.32931 145.145633 
L 214.546195 83.70153 
L 215.76308 132.879751 
L 218.196849 80.831104 
L 219.413734 106.519129 
L 220.630619 83.162297 
L 221.847504 148.670874 
L 223.064389 91.329031 
L 224.281274 152.813143 
L 226.715043 108.342652 
L 227.931928 158.036101 
L 229.148813 108.435118 
L 230.365698 128.025321 
L 232.799467 106.925443 
L 234.016352 107.317532 
L 236.450122 92.318588 
L 238.883892 104.01812 
L 240.100776 79.1405 
L 242.534546 126.837497 
L 243.751431 73.501003 
L 247.402085 163.954327 
L 248.61897 81.032483 
L 249.835855 91.291689 
L 251.05274 113.774991 
L 253.48651 100.286166 
L 254.703394 99.855846 
L 255.920279 102.193708 
L 257.137164 102.173703 
L 258.354049 85.188088 
L 259.570934 85.902916 
L 260.787819 93.213901 
L 262.004703 76.157159 
L 263.221588 104.957888 
L 265.655358 105.414435 
L 266.872243 62.068198 
L 269.306012 110.809432 
L 270.522897 77.796196 
L 272.956667 107.811866 
L 274.173552 78.831986 
L 275.390437 121.968842 
L 276.607321 124.039976 
L 277.824206 93.289474 
L 279.041091 134.186713 
L 280.257976 124.863718 
L 282.691746 58.817686 
L 285.125515 149.786237 
L 287.559285 73.110693 
L 288.77617 147.682651 
L 289.993055 107.10904 
L 291.209939 116.908143 
L 292.426824 59.666767 
L 294.860594 81.026259 
L 296.077479 91.970065 
L 297.294363 120.21289 
L 298.511248 53.311998 
L 299.728133 102.901423 
L 300.945018 84.366569 
L 302.161903 100.694258 
L 303.378788 67.533433 
L 304.595672 83.07161 
L 305.812557 139.486132 
L 307.029442 80.500807 
L 308.246327 128.780603 
L 309.463212 38.832727 
L 311.896981 145.94937 
L 313.113866 117.063289 
L 314.330751 123.159333 
L 315.547636 74.74973 
L 316.764521 130.172473 
L 319.19829 98.922747 
L 320.415175 125.927958 
L 321.63206 120.277793 
L 322.848945 98.774713 
L 322.848945 98.774713 
" clip-path="url(#p3215fa1f68)" style="fill: none; stroke: #1f9e89; stroke-width: 1.5; stroke-linecap: round"/>
   </g>
   <g id="line2d_7">
    <path d="M 80.688863 108.368436 
L 81.905748 116.760999 
L 84.339518 64.836824 
L 86.773288 104.480446 
L 87.990172 58.374031 
L 89.207057 82.374119 
L 90.423942 130.135576 
L 91.640827 86.561732 
L 92.857712 83.749541 
L 94.074597 113.982593 
L 95.291481 99.020546 
L 96.508366 105.874984 
L 97.725251 97.547769 
L 98.942136 81.711303 
L 100.159021 103.730055 
L 101.375906 51.06838 
L 102.59279 124.736578 
L 105.02656 57.269781 
L 106.243445 106.983234 
L 107.46033 56.113075 
L 108.677215 117.771449 
L 109.894099 66.690576 
L 111.110984 74.743062 
L 112.327869 119.859032 
L 113.544754 67.308938 
L 114.761639 138.981574 
L 115.978524 75.130705 
L 117.195408 64.679455 
L 118.412293 95.356608 
L 119.629178 42.109023 
L 120.846063 98.031434 
L 122.062948 98.608898 
L 123.279833 66.807936 
L 125.713602 103.749615 
L 129.364257 73.422764 
L 131.798026 98.950308 
L 133.014911 56.742106 
L 134.231796 161.458652 
L 135.448681 69.673472 
L 136.665566 113.191748 
L 137.882451 98.891628 
L 139.099335 112.704971 
L 140.31622 110.424901 
L 141.533105 119.272233 
L 142.74999 111.397565 
L 143.966875 84.046497 
L 145.18376 117.085961 
L 147.617529 99.878518 
L 148.834414 104.227056 
L 150.051299 119.747896 
L 151.268184 114.462702 
L 152.485069 103.172595 
L 153.701953 75.103588 
L 154.918838 77.505908 
L 157.352608 44.565578 
L 159.786378 124.415617 
L 161.003262 86.170532 
L 162.220147 129.425637 
L 164.653917 111.208633 
L 165.870802 80.14606 
L 167.087687 103.958551 
L 168.304571 80.291426 
L 169.521456 95.676235 
L 170.738341 124.186676 
L 171.955226 89.841584 
L 173.172111 99.410857 
L 174.388995 99.748266 
L 175.60588 145.53461 
L 179.256535 68.682137 
L 180.47342 102.657813 
L 181.690304 61.703672 
L 184.124074 117.996389 
L 185.340959 136.682388 
L 188.991613 88.437267 
L 190.208498 83.296105 
L 191.425383 89.993618 
L 192.642268 113.740316 
L 193.859153 85.498825 
L 197.509807 124.201346 
L 198.726692 79.506805 
L 199.943577 100.798726 
L 201.160462 78.972906 
L 202.377347 141.063822 
L 204.811116 52.995927 
L 206.028001 111.811436 
L 207.244886 105.94211 
L 208.461771 92.96629 
L 210.89554 114.119068 
L 212.112425 60.088196 
L 213.32931 138.531695 
L 214.546195 76.059359 
L 215.76308 129.773272 
L 218.196849 75.288074 
L 219.413734 102.049231 
L 220.630619 79.01336 
L 221.847504 144.354343 
L 223.064389 83.774435 
L 224.281274 146.601073 
L 226.715043 100.577787 
L 227.931928 152.393493 
L 229.148813 100.102569 
L 230.365698 121.595424 
L 232.799467 99.160578 
L 234.016352 103.39309 
L 236.450122 88.83958 
L 237.667007 87.587741 
L 238.883892 99.578006 
L 240.100776 71.455208 
L 242.534546 122.536526 
L 243.751431 66.420293 
L 247.402085 161.673812 
L 248.61897 72.469659 
L 249.835855 85.505938 
L 251.05274 109.695847 
L 253.48651 95.878503 
L 255.920279 98.053217 
L 257.137164 97.865174 
L 258.354049 75.352977 
L 259.570934 79.761084 
L 260.787819 93.157889 
L 262.004703 70.693258 
L 264.438473 103.596691 
L 265.655358 100.302169 
L 266.872243 58.694103 
L 269.306012 107.823424 
L 270.522897 75.213835 
L 272.956667 100.281276 
L 274.173552 69.979319 
L 275.390437 117.501166 
L 276.607321 120.223559 
L 277.824206 85.412139 
L 279.041091 129.260267 
L 280.257976 121.08153 
L 282.691746 52.409127 
L 285.125515 138.240962 
L 287.559285 66.775484 
L 288.77617 142.821553 
L 289.993055 99.698477 
L 291.209939 110.955687 
L 292.426824 55.887247 
L 296.077479 90.651545 
L 297.294363 119.607864 
L 298.511248 45.282629 
L 299.728133 94.432843 
L 300.945018 77.583259 
L 302.161903 93.493075 
L 303.378788 61.948171 
L 304.595672 80.394116 
L 305.812557 128.980203 
L 307.029442 77.165831 
L 308.246327 121.818586 
L 309.463212 35.877393 
L 311.896981 143.147849 
L 313.113866 108.74052 
L 314.330751 115.063282 
L 315.547636 71.751275 
L 316.764521 126.130671 
L 319.19829 93.196119 
L 320.415175 124.245801 
L 322.848945 94.979633 
L 322.848945 94.979633 
" clip-path="url(#p3215fa1f68)" style="fill: none; stroke: #35b779; stroke-width: 1.5; stroke-linecap: round"/>
   </g>
   <g id="line2d_8">
    <path d="M 80.688863 115.448702 
L 81.905748 121.997737 
L 84.339518 69.926418 
L 86.773288 110.688071 
L 87.990172 62.773691 
L 89.207057 87.630418 
L 90.423942 134.962444 
L 91.640827 89.642428 
L 92.857712 89.663766 
L 94.074597 121.011292 
L 95.291481 103.285065 
L 96.508366 110.257752 
L 98.942136 88.035398 
L 100.159021 110.617833 
L 101.375906 57.051065 
L 102.59279 129.82395 
L 105.02656 63.191119 
L 106.243445 114.253321 
L 107.46033 60.880375 
L 108.677215 124.355159 
L 109.894099 71.49744 
L 111.110984 79.926455 
L 112.327869 126.111111 
L 113.544754 72.345187 
L 114.761639 143.722645 
L 115.978524 77.747296 
L 117.195408 69.215591 
L 118.412293 100.922754 
L 119.629178 45.303522 
L 120.846063 102.185706 
L 122.062948 104.487559 
L 123.279833 71.64414 
L 125.713602 106.761851 
L 129.364257 75.236507 
L 131.798026 103.204603 
L 133.014911 63.373382 
L 134.231796 168.249964 
L 135.448681 75.72684 
L 136.665566 117.755445 
L 137.882451 101.219265 
L 139.099335 116.127078 
L 140.31622 116.210207 
L 141.533105 124.327597 
L 142.74999 115.891024 
L 143.966875 87.575294 
L 145.18376 121.815029 
L 147.617529 106.955672 
L 148.834414 108.470237 
L 150.051299 123.135327 
L 151.268184 119.466054 
L 152.485069 105.722949 
L 153.701953 79.749082 
L 154.918838 82.833334 
L 157.352608 49.029697 
L 159.786378 127.478975 
L 161.003262 91.355704 
L 162.220147 133.137587 
L 164.653917 115.083731 
L 165.870802 83.676636 
L 167.087687 107.92478 
L 168.304571 83.945141 
L 170.738341 130.273829 
L 171.955226 96.251032 
L 174.388995 104.993896 
L 175.60588 148.44549 
L 179.256535 73.633922 
L 180.47342 107.817645 
L 181.690304 67.043545 
L 184.124074 123.593209 
L 185.340959 142.329886 
L 186.557844 122.95751 
L 187.774729 121.831477 
L 188.991613 92.810699 
L 190.208498 88.200324 
L 191.425383 93.748244 
L 192.642268 117.972383 
L 193.859153 89.529513 
L 197.509807 127.662572 
L 198.726692 81.596166 
L 199.943577 104.673824 
L 201.160462 83.259208 
L 202.377347 145.905805 
L 204.811116 56.498496 
L 206.028001 114.605845 
L 207.244886 112.411127 
L 208.461771 95.701574 
L 210.89554 118.760117 
L 212.112425 61.786802 
L 213.32931 145.102957 
L 214.546195 80.833327 
L 215.76308 133.272284 
L 218.196849 78.354544 
L 219.413734 104.144371 
L 220.630619 83.708643 
L 221.847504 150.235672 
L 223.064389 89.886483 
L 224.281274 151.276352 
L 226.715043 106.366206 
L 227.931928 157.989424 
L 229.148813 102.852079 
L 230.365698 126.296042 
L 232.799467 105.993233 
L 234.016352 108.477794 
L 236.450122 93.133883 
L 237.667007 92.921391 
L 238.883892 103.542901 
L 240.100776 76.930223 
L 242.534546 127.790601 
L 243.751431 68.026878 
L 247.402085 166.142377 
L 248.61897 78.200287 
L 249.835855 89.089414 
L 251.05274 113.43358 
L 253.48651 100.181698 
L 254.703394 102.067457 
L 255.920279 101.028111 
L 257.137164 102.003442 
L 258.354049 81.475694 
L 259.570934 85.506827 
L 260.787819 94.136332 
L 262.004703 77.392549 
L 263.221588 105.165046 
L 264.438473 107.590038 
L 265.655358 104.414654 
L 266.872243 62.348262 
L 269.306012 112.50626 
L 270.522897 77.432558 
L 272.956667 104.319966 
L 274.173552 75.128038 
L 275.390437 120.545409 
L 276.607321 125.941295 
L 277.824206 90.556412 
L 279.041091 129.996433 
L 280.257976 122.123988 
L 282.691746 57.457379 
L 285.125515 143.424355 
L 287.559285 71.381414 
L 288.77617 146.065841 
L 289.993055 104.634259 
L 291.209939 116.534725 
L 292.426824 59.650763 
L 296.077479 92.916056 
L 297.294363 121.643435 
L 298.511248 48.848768 
L 299.728133 100.678699 
L 300.945018 80.447462 
L 302.161903 98.550218 
L 303.378788 67.146235 
L 304.595672 83.074277 
L 305.812557 133.896425 
L 307.029442 81.419237 
L 308.246327 125.253139 
L 309.463212 38.132124 
L 311.896981 146.10585 
L 313.113866 112.514706 
L 314.330751 119.711887 
L 315.547636 75.931775 
L 316.764521 130.705927 
L 319.19829 99.249042 
L 320.415175 127.710583 
L 321.63206 117.862136 
L 322.848945 99.4033 
L 322.848945 99.4033 
" clip-path="url(#p3215fa1f68)" style="fill: none; stroke: #6ece58; stroke-width: 1.5; stroke-linecap: round"/>
   </g>
   <g id="line2d_9">
    <path d="M 80.688863 130.437422 
L 81.905748 141.334105 
L 84.339518 87.673539 
L 86.773288 128.083556 
L 87.990172 84.048275 
L 89.207057 107.715844 
L 90.423942 154.248134 
L 91.640827 109.224629 
L 92.857712 108.400888 
L 94.074597 138.609045 
L 95.291481 123.418947 
L 96.508366 132.583684 
L 98.942136 104.268843 
L 100.159021 126.176014 
L 101.375906 77.325868 
L 102.59279 150.911825 
L 105.02656 81.532596 
L 106.243445 131.08379 
L 107.46033 80.790206 
L 108.677215 142.330775 
L 109.894099 90.571082 
L 111.110984 97.569552 
L 112.327869 142.764651 
L 113.544754 90.842699 
L 114.761639 162.936763 
L 115.978524 97.645125 
L 117.195408 88.45327 
L 118.412293 118.07374 
L 119.629178 63.713459 
L 120.846063 121.529631 
L 122.062948 122.862377 
L 123.279833 88.557738 
L 124.496717 121.720341 
L 125.713602 125.156228 
L 128.147372 109.753193 
L 129.364257 97.156125 
L 131.798026 120.904601 
L 133.014911 80.089603 
L 134.231796 184.182007 
L 135.448681 93.447732 
L 136.665566 138.104931 
L 137.882451 121.20867 
L 139.099335 135.964003 
L 140.31622 134.490782 
L 141.533105 142.646402 
L 142.74999 133.828854 
L 143.966875 106.068361 
L 145.18376 138.960236 
L 146.400644 136.71973 
L 147.617529 125.914177 
L 148.834414 126.44363 
L 150.051299 141.764425 
L 151.268184 138.481461 
L 152.485069 127.158903 
L 153.701953 95.858499 
L 154.918838 101.401529 
L 157.352608 68.69903 
L 159.786378 147.23855 
L 161.003262 109.027251 
L 162.220147 152.405495 
L 165.870802 101.184591 
L 167.087687 127.728365 
L 168.304571 103.994114 
L 170.738341 148.266338 
L 171.955226 112.918353 
L 173.172111 122.464065 
L 174.388995 121.557193 
L 175.60588 166.386876 
L 179.256535 91.127208 
L 180.47342 126.333383 
L 181.690304 85.887802 
L 184.124074 142.548157 
L 185.340959 160.62024 
L 186.557844 140.174732 
L 187.774729 140.818433 
L 188.991613 111.074825 
L 190.208498 108.497354 
L 191.425383 113.356229 
L 192.642268 135.295408 
L 193.859153 106.251513 
L 196.292922 132.588574 
L 197.509807 145.297668 
L 198.726692 101.721601 
L 199.943577 121.772353 
L 201.160462 102.895199 
L 202.377347 167.901885 
L 204.811116 77.223622 
L 206.028001 134.605474 
L 207.244886 129.777717 
L 208.461771 116.09996 
L 210.89554 138.257855 
L 212.112425 82.847115 
L 213.32931 162.159255 
L 214.546195 101.360631 
L 215.76308 151.852926 
L 218.196849 98.879181 
L 219.413734 125.065097 
L 220.630619 101.631358 
L 221.847504 166.66116 
L 223.064389 108.725405 
L 224.281274 170.44646 
L 226.715043 125.593661 
L 227.931928 175.778331 
L 229.148813 126.010644 
L 230.365698 145.592845 
L 232.799467 123.410945 
L 234.016352 125.458964 
L 236.450122 111.019257 
L 237.667007 113.9657 
L 238.883892 122.299583 
L 240.100776 96.45819 
L 242.534546 145.073172 
L 243.751431 91.560194 
L 247.402085 182.615431 
L 248.61897 97.948749 
L 249.835855 109.549147 
L 251.05274 132.121802 
L 253.48651 118.54718 
L 254.703394 118.596524 
L 255.920279 121.253125 
L 257.137164 120.405822 
L 258.354049 101.601574 
L 259.570934 103.735834 
L 260.787819 113.819001 
L 262.004703 93.590875 
L 263.221588 122.392938 
L 264.438473 124.428953 
L 265.655358 123.391385 
L 266.872243 80.372778 
L 269.306012 129.200253 
L 270.522897 97.214361 
L 272.956667 125.564321 
L 274.173552 96.260367 
L 275.390437 139.896447 
L 276.607321 142.378786 
L 277.824206 110.319988 
L 279.041091 152.733125 
L 280.257976 143.936027 
L 282.691746 76.55636 
L 285.125515 166.23662 
L 287.559285 90.38704 
L 288.77617 166.063248 
L 289.993055 124.641446 
L 291.209939 135.01979 
L 292.426824 78.22207 
L 297.294363 140.032478 
L 298.511248 71.129801 
L 299.728133 119.747006 
L 300.945018 102.526672 
L 302.161903 117.992832 
L 303.378788 85.544613 
L 304.595672 102.491108 
L 305.812557 156.301931 
L 307.029442 99.301499 
L 308.246327 146.483713 
L 309.463212 58.168206 
L 311.896981 165.280849 
L 313.113866 134.221387 
L 314.330751 140.25475 
L 315.547636 93.827373 
L 316.764521 148.52373 
L 319.19829 116.487603 
L 320.415175 145.310559 
L 321.63206 138.027581 
L 322.848945 117.211323 
L 322.848945 117.211323 
" clip-path="url(#p3215fa1f68)" style="fill: none; stroke: #b5de2b; stroke-width: 1.5; stroke-linecap: round"/>
   </g>
   <g id="patch_3">
    <path d="M 68.580859 192.009865 
L 68.580859 28.442513 
" style="fill: none"/>
   </g>
   <g id="patch_4">
    <path d="M 334.956949 192.009865 
L 334.956949 28.442513 
" style="fill: none"/>
   </g>
   <g id="patch_5">
    <path d="M 68.580859 192.009865 
L 334.956949 192.009865 
" style="fill: none"/>
   </g>
   <g id="patch_6">
    <path d="M 68.580859 28.442513 
L 334.956949 28.442513 
" style="fill: none"/>
   </g>
  </g>
  <g id="text_12">
   <!-- eval: tensorflow -->
   <g style="fill: #262626" transform="translate(139.893891 18.14175) scale(0.144 -0.144)">
    <defs>
     <path id="DejaVuSans-76" d="M 191 3500 
L 800 3500 
L 1894 563 
L 2988 3500 
L 3597 3500 
L 2284 0 
L 1503 0 
L 191 3500 
z
" transform="scale(0.015625)"/>
     <path id="DejaVuSans-6c" d="M 603 4863 
L 1178 4863 
L 1178 0 
L 603 0 
L 603 4863 
z
" transform="scale(0.015625)"/>
     <path id="DejaVuSans-3a" d="M 750 794 
L 1409 794 
L 1409 0 
L 750 0 
L 750 794 
z
M 750 3309 
L 1409 3309 
L 1409 2516 
L 750 2516 
L 750 3309 
z
" transform="scale(0.015625)"/>
     <path id="DejaVuSans-20" transform="scale(0.015625)"/>
     <path id="DejaVuSans-74" d="M 1172 4494 
L 1172 3500 
L 2356 3500 
L 2356 3053 
L 1172 3053 
L 1172 1153 
Q 1172 725 1289 603 
Q 1406 481 1766 481 
L 2356 481 
L 2356 0 
L 1766 0 
Q 1100 0 847 248 
Q 594 497 594 1153 
L 594 3053 
L 172 3053 
L 172 3500 
L 594 3500 
L 594 4494 
L 1172 4494 
z
" transform="scale(0.015625)"/>
     <path id="DejaVuSans-73" d="M 2834 3397 
L 2834 2853 
Q 2591 2978 2328 3040 
Q 2066 3103 1784 3103 
Q 1356 3103 1142 2972 
Q 928 2841 928 2578 
Q 928 2378 1081 2264 
Q 1234 2150 1697 2047 
L 1894 2003 
Q 2506 1872 2764 1633 
Q 3022 1394 3022 966 
Q 3022 478 2636 193 
Q 2250 -91 1575 -91 
Q 1294 -91 989 -36 
Q 684 19 347 128 
L 347 722 
Q 666 556 975 473 
Q 1284 391 1588 391 
Q 1994 391 2212 530 
Q 2431 669 2431 922 
Q 2431 1156 2273 1281 
Q 2116 1406 1581 1522 
L 1381 1569 
Q 847 1681 609 1914 
Q 372 2147 372 2553 
Q 372 3047 722 3315 
Q 1072 3584 1716 3584 
Q 2034 3584 2315 3537 
Q 2597 3491 2834 3397 
z
" transform="scale(0.015625)"/>
     <path id="DejaVuSans-6f" d="M 1959 3097 
Q 1497 3097 1228 2736 
Q 959 2375 959 1747 
Q 959 1119 1226 758 
Q 1494 397 1959 397 
Q 2419 397 2687 759 
Q 2956 1122 2956 1747 
Q 2956 2369 2687 2733 
Q 2419 3097 1959 3097 
z
M 1959 3584 
Q 2709 3584 3137 3096 
Q 3566 2609 3566 1747 
Q 3566 888 3137 398 
Q 2709 -91 1959 -91 
Q 1206 -91 779 398 
Q 353 888 353 1747 
Q 353 2609 779 3096 
Q 1206 3584 1959 3584 
z
" transform="scale(0.015625)"/>
     <path id="DejaVuSans-66" d="M 2375 4863 
L 2375 4384 
L 1825 4384 
Q 1516 4384 1395 4259 
Q 1275 4134 1275 3809 
L 1275 3500 
L 2222 3500 
L 2222 3053 
L 1275 3053 
L 1275 0 
L 697 0 
L 697 3053 
L 147 3053 
L 147 3500 
L 697 3500 
L 697 3744 
Q 697 4328 969 4595 
Q 1241 4863 1831 4863 
L 2375 4863 
z
" transform="scale(0.015625)"/>
    </defs>
    <use xlink:href="#DejaVuSans-65"/>
    <use xlink:href="#DejaVuSans-76" x="61.523438"/>
    <use xlink:href="#DejaVuSans-61" x="120.703125"/>
    <use xlink:href="#DejaVuSans-6c" x="181.982422"/>
    <use xlink:href="#DejaVuSans-3a" x="209.765625"/>
    <use xlink:href="#DejaVuSans-20" x="243.457031"/>
    <use xlink:href="#DejaVuSans-74" x="275.244141"/>
    <use xlink:href="#DejaVuSans-65" x="314.453125"/>
    <use xlink:href="#DejaVuSans-6e" x="375.976562"/>
    <use xlink:href="#DejaVuSans-73" x="439.355469"/>
    <use xlink:href="#DejaVuSans-6f" x="491.455078"/>
    <use xlink:href="#DejaVuSans-72" x="552.636719"/>
    <use xlink:href="#DejaVuSans-66" x="593.75"/>
    <use xlink:href="#DejaVuSans-6c" x="628.955078"/>
    <use xlink:href="#DejaVuSans-6f" x="656.738281"/>
    <use xlink:href="#DejaVuSans-77" x="717.919922"/>
   </g>
  </g>
 </g>
 <defs>
  <clipPath id="p3215fa1f68">
   <rect x="68.580859" y="28.442513" width="266.37609" height="163.567352"/>
  </clipPath>
 </defs>
</svg>
