<?xml version="1.0" encoding="utf-8" standalone="no"?>
<!DOCTYPE svg PUBLIC "-//W3C//DTD SVG 1.1//EN"
  "http://www.w3.org/Graphics/SVG/1.1/DTD/svg11.dtd">
<svg xmlns:xlink="http://www.w3.org/1999/xlink" width="325.295322pt" height="234.534474pt" viewBox="0 0 325.295322 234.534474" xmlns="http://www.w3.org/2000/svg" version="1.1">
 <metadata>
  <rdf:RDF xmlns:dc="http://purl.org/dc/elements/1.1/" xmlns:cc="http://creativecommons.org/ns#" xmlns:rdf="http://www.w3.org/1999/02/22-rdf-syntax-ns#">
   <cc:Work>
    <dc:type rdf:resource="http://purl.org/dc/dcmitype/StillImage"/>
    <dc:date>2023-12-05T11:48:57.436682</dc:date>
    <dc:format>image/svg+xml</dc:format>
    <dc:creator>
     <cc:Agent>
      <dc:title>Matplotlib v3.8.2, https://matplotlib.org/</dc:title>
     </cc:Agent>
    </dc:creator>
   </cc:Work>
  </rdf:RDF>
 </metadata>
 <defs>
  <style type="text/css">*{stroke-linejoin: round; stroke-linecap: butt}</style>
 </defs>
 <g id="figure_1">
  <g id="patch_1">
   <path d="M 0 234.534474 
L 325.295322 234.534474 
L 325.295322 0 
L 0 0 
L 0 234.534474 
z
" style="fill: none"/>
  </g>
  <g id="axes_1">
   <g id="patch_2">
    <path d="M 49.487695 192.009865 
L 315.863785 192.009865 
L 315.863785 28.442513 
L 49.487695 28.442513 
L 49.487695 192.009865 
z
" style="fill: none"/>
   </g>
   <g id="matplotlib.axis_1">
    <g id="xtick_1">
     <g id="text_1">
      <!-- 0 -->
      <g style="fill: #838383" transform="translate(57.221481 205.957716) scale(0.1375 -0.1375)">
       <defs>
        <path id="DejaVuSans-30" d="M 2034 4250 
Q 1547 4250 1301 3770 
Q 1056 3291 1056 2328 
Q 1056 1369 1301 889 
Q 1547 409 2034 409 
Q 2525 409 2770 889 
Q 3016 1369 3016 2328 
Q 3016 3291 2770 3770 
Q 2525 4250 2034 4250 
z
M 2034 4750 
Q 2819 4750 3233 4129 
Q 3647 3509 3647 2328 
Q 3647 1150 3233 529 
Q 2819 -91 2034 -91 
Q 1250 -91 836 529 
Q 422 1150 422 2328 
Q 422 3509 836 4129 
Q 1250 4750 2034 4750 
z
" transform="scale(0.015625)"/>
       </defs>
       <use xlink:href="#DejaVuSans-30"/>
      </g>
     </g>
    </g>
    <g id="xtick_2">
     <g id="text_2">
      <!-- 50 -->
      <g style="fill: #838383" transform="translate(113.691503 205.957716) scale(0.1375 -0.1375)">
       <defs>
        <path id="DejaVuSans-35" d="M 691 4666 
L 3169 4666 
L 3169 4134 
L 1269 4134 
L 1269 2991 
Q 1406 3038 1543 3061 
Q 1681 3084 1819 3084 
Q 2600 3084 3056 2656 
Q 3513 2228 3513 1497 
Q 3513 744 3044 326 
Q 2575 -91 1722 -91 
Q 1428 -91 1123 -41 
Q 819 9 494 109 
L 494 744 
Q 775 591 1075 516 
Q 1375 441 1709 441 
Q 2250 441 2565 725 
Q 2881 1009 2881 1497 
Q 2881 1984 2565 2268 
Q 2250 2553 1709 2553 
Q 1456 2553 1204 2497 
Q 953 2441 691 2322 
L 691 4666 
z
" transform="scale(0.015625)"/>
       </defs>
       <use xlink:href="#DejaVuSans-35"/>
       <use xlink:href="#DejaVuSans-30" x="63.623047"/>
      </g>
     </g>
    </g>
    <g id="xtick_3">
     <g id="text_3">
      <!-- 100 -->
      <g style="fill: #838383" transform="translate(170.161526 205.957716) scale(0.1375 -0.1375)">
       <defs>
        <path id="DejaVuSans-31" d="M 794 531 
L 1825 531 
L 1825 4091 
L 703 3866 
L 703 4441 
L 1819 4666 
L 2450 4666 
L 2450 531 
L 3481 531 
L 3481 0 
L 794 0 
L 794 531 
z
" transform="scale(0.015625)"/>
       </defs>
       <use xlink:href="#DejaVuSans-31"/>
       <use xlink:href="#DejaVuSans-30" x="63.623047"/>
       <use xlink:href="#DejaVuSans-30" x="127.246094"/>
      </g>
     </g>
    </g>
    <g id="xtick_4">
     <g id="text_4">
      <!-- 150 -->
      <g style="fill: #838383" transform="translate(231.005768 205.957716) scale(0.1375 -0.1375)">
       <use xlink:href="#DejaVuSans-31"/>
       <use xlink:href="#DejaVuSans-35" x="63.623047"/>
       <use xlink:href="#DejaVuSans-30" x="127.246094"/>
      </g>
     </g>
    </g>
    <g id="xtick_5">
     <g id="text_5">
      <!-- 200 -->
      <g style="fill: #838383" transform="translate(291.850009 205.957716) scale(0.1375 -0.1375)">
       <defs>
        <path id="DejaVuSans-32" d="M 1228 531 
L 3431 531 
L 3431 0 
L 469 0 
L 469 531 
Q 828 903 1448 1529 
Q 2069 2156 2228 2338 
Q 2531 2678 2651 2914 
Q 2772 3150 2772 3378 
Q 2772 3750 2511 3984 
Q 2250 4219 1831 4219 
Q 1534 4219 1204 4116 
Q 875 4013 500 3803 
L 500 4441 
Q 881 4594 1212 4672 
Q 1544 4750 1819 4750 
Q 2544 4750 2975 4387 
Q 3406 4025 3406 3419 
Q 3406 3131 3298 2873 
Q 3191 2616 2906 2266 
Q 2828 2175 2409 1742 
Q 1991 1309 1228 531 
z
" transform="scale(0.015625)"/>
       </defs>
       <use xlink:href="#DejaVuSans-32"/>
       <use xlink:href="#DejaVuSans-30" x="63.623047"/>
       <use xlink:href="#DejaVuSans-30" x="127.246094"/>
      </g>
     </g>
    </g>
    <g id="text_6">
     <!-- draw -->
     <g style="fill: #838383" transform="translate(164.101521 224.214943) scale(0.15 -0.15)">
      <defs>
       <path id="DejaVuSans-64" d="M 2906 2969 
L 2906 4863 
L 3481 4863 
L 3481 0 
L 2906 0 
L 2906 525 
Q 2725 213 2448 61 
Q 2172 -91 1784 -91 
Q 1150 -91 751 415 
Q 353 922 353 1747 
Q 353 2572 751 3078 
Q 1150 3584 1784 3584 
Q 2172 3584 2448 3432 
Q 2725 3281 2906 2969 
z
M 947 1747 
Q 947 1113 1208 752 
Q 1469 391 1925 391 
Q 2381 391 2643 752 
Q 2906 1113 2906 1747 
Q 2906 2381 2643 2742 
Q 2381 3103 1925 3103 
Q 1469 3103 1208 2742 
Q 947 2381 947 1747 
z
" transform="scale(0.015625)"/>
       <path id="DejaVuSans-72" d="M 2631 2963 
Q 2534 3019 2420 3045 
Q 2306 3072 2169 3072 
Q 1681 3072 1420 2755 
Q 1159 2438 1159 1844 
L 1159 0 
L 581 0 
L 581 3500 
L 1159 3500 
L 1159 2956 
Q 1341 3275 1631 3429 
Q 1922 3584 2338 3584 
Q 2397 3584 2469 3576 
Q 2541 3569 2628 3553 
L 2631 2963 
z
" transform="scale(0.015625)"/>
       <path id="DejaVuSans-61" d="M 2194 1759 
Q 1497 1759 1228 1600 
Q 959 1441 959 1056 
Q 959 750 1161 570 
Q 1363 391 1709 391 
Q 2188 391 2477 730 
Q 2766 1069 2766 1631 
L 2766 1759 
L 2194 1759 
z
M 3341 1997 
L 3341 0 
L 2766 0 
L 2766 531 
Q 2569 213 2275 61 
Q 1981 -91 1556 -91 
Q 1019 -91 701 211 
Q 384 513 384 1019 
Q 384 1609 779 1909 
Q 1175 2209 1959 2209 
L 2766 2209 
L 2766 2266 
Q 2766 2663 2505 2880 
Q 2244 3097 1772 3097 
Q 1472 3097 1187 3025 
Q 903 2953 641 2809 
L 641 3341 
Q 956 3463 1253 3523 
Q 1550 3584 1831 3584 
Q 2591 3584 2966 3190 
Q 3341 2797 3341 1997 
z
" transform="scale(0.015625)"/>
       <path id="DejaVuSans-77" d="M 269 3500 
L 844 3500 
L 1563 769 
L 2278 3500 
L 2956 3500 
L 3675 769 
L 4391 3500 
L 4966 3500 
L 4050 0 
L 3372 0 
L 2619 2869 
L 1863 0 
L 1184 0 
L 269 3500 
z
" transform="scale(0.015625)"/>
      </defs>
      <use xlink:href="#DejaVuSans-64"/>
      <use xlink:href="#DejaVuSans-72" x="63.476562"/>
      <use xlink:href="#DejaVuSans-61" x="104.589844"/>
      <use xlink:href="#DejaVuSans-77" x="165.869141"/>
     </g>
    </g>
   </g>
   <g id="matplotlib.axis_2">
    <g id="ytick_1">
     <g id="text_7">
      <!-- −6 -->
      <g style="fill: #838383" transform="translate(25.717188 159.464066) scale(0.1375 -0.1375)">
       <defs>
        <path id="DejaVuSans-2212" d="M 678 2272 
L 4684 2272 
L 4684 1741 
L 678 1741 
L 678 2272 
z
" transform="scale(0.015625)"/>
        <path id="DejaVuSans-36" d="M 2113 2584 
Q 1688 2584 1439 2293 
Q 1191 2003 1191 1497 
Q 1191 994 1439 701 
Q 1688 409 2113 409 
Q 2538 409 2786 701 
Q 3034 994 3034 1497 
Q 3034 2003 2786 2293 
Q 2538 2584 2113 2584 
z
M 3366 4563 
L 3366 3988 
Q 3128 4100 2886 4159 
Q 2644 4219 2406 4219 
Q 1781 4219 1451 3797 
Q 1122 3375 1075 2522 
Q 1259 2794 1537 2939 
Q 1816 3084 2150 3084 
Q 2853 3084 3261 2657 
Q 3669 2231 3669 1497 
Q 3669 778 3244 343 
Q 2819 -91 2113 -91 
Q 1303 -91 875 529 
Q 447 1150 447 2328 
Q 447 3434 972 4092 
Q 1497 4750 2381 4750 
Q 2619 4750 2861 4703 
Q 3103 4656 3366 4563 
z
" transform="scale(0.015625)"/>
       </defs>
       <use xlink:href="#DejaVuSans-2212"/>
       <use xlink:href="#DejaVuSans-36" x="83.789062"/>
      </g>
     </g>
    </g>
    <g id="ytick_2">
     <g id="text_8">
      <!-- −4 -->
      <g style="fill: #838383" transform="translate(25.717188 120.009817) scale(0.1375 -0.1375)">
       <defs>
        <path id="DejaVuSans-34" d="M 2419 4116 
L 825 1625 
L 2419 1625 
L 2419 4116 
z
M 2253 4666 
L 3047 4666 
L 3047 1625 
L 3713 1625 
L 3713 1100 
L 3047 1100 
L 3047 0 
L 2419 0 
L 2419 1100 
L 313 1100 
L 313 1709 
L 2253 4666 
z
" transform="scale(0.015625)"/>
       </defs>
       <use xlink:href="#DejaVuSans-2212"/>
       <use xlink:href="#DejaVuSans-34" x="83.789062"/>
      </g>
     </g>
    </g>
    <g id="ytick_3">
     <g id="text_9">
      <!-- −2 -->
      <g style="fill: #838383" transform="translate(25.717188 80.555568) scale(0.1375 -0.1375)">
       <use xlink:href="#DejaVuSans-2212"/>
       <use xlink:href="#DejaVuSans-32" x="83.789062"/>
      </g>
     </g>
    </g>
    <g id="ytick_4">
     <g id="text_10">
      <!-- 0 -->
      <g style="fill: #838383" transform="translate(37.239258 41.101319) scale(0.1375 -0.1375)">
       <use xlink:href="#DejaVuSans-30"/>
      </g>
     </g>
    </g>
    <g id="text_11">
     <!-- sldb -->
     <g style="fill: #838383" transform="translate(18.597656 125.73947) rotate(-90) scale(0.15 -0.15)">
      <defs>
       <path id="DejaVuSans-73" d="M 2834 3397 
L 2834 2853 
Q 2591 2978 2328 3040 
Q 2066 3103 1784 3103 
Q 1356 3103 1142 2972 
Q 928 2841 928 2578 
Q 928 2378 1081 2264 
Q 1234 2150 1697 2047 
L 1894 2003 
Q 2506 1872 2764 1633 
Q 3022 1394 3022 966 
Q 3022 478 2636 193 
Q 2250 -91 1575 -91 
Q 1294 -91 989 -36 
Q 684 19 347 128 
L 347 722 
Q 666 556 975 473 
Q 1284 391 1588 391 
Q 1994 391 2212 530 
Q 2431 669 2431 922 
Q 2431 1156 2273 1281 
Q 2116 1406 1581 1522 
L 1381 1569 
Q 847 1681 609 1914 
Q 372 2147 372 2553 
Q 372 3047 722 3315 
Q 1072 3584 1716 3584 
Q 2034 3584 2315 3537 
Q 2597 3491 2834 3397 
z
" transform="scale(0.015625)"/>
       <path id="DejaVuSans-6c" d="M 603 4863 
L 1178 4863 
L 1178 0 
L 603 0 
L 603 4863 
z
" transform="scale(0.015625)"/>
       <path id="DejaVuSans-62" d="M 3116 1747 
Q 3116 2381 2855 2742 
Q 2594 3103 2138 3103 
Q 1681 3103 1420 2742 
Q 1159 2381 1159 1747 
Q 1159 1113 1420 752 
Q 1681 391 2138 391 
Q 2594 391 2855 752 
Q 3116 1113 3116 1747 
z
M 1159 2969 
Q 1341 3281 1617 3432 
Q 1894 3584 2278 3584 
Q 2916 3584 3314 3078 
Q 3713 2572 3713 1747 
Q 3713 922 3314 415 
Q 2916 -91 2278 -91 
Q 1894 -91 1617 61 
Q 1341 213 1159 525 
L 1159 0 
L 581 0 
L 581 4863 
L 1159 4863 
L 1159 2969 
z
" transform="scale(0.015625)"/>
      </defs>
      <use xlink:href="#DejaVuSans-73"/>
      <use xlink:href="#DejaVuSans-6c" x="52.099609"/>
      <use xlink:href="#DejaVuSans-64" x="79.882812"/>
      <use xlink:href="#DejaVuSans-62" x="143.359375"/>
     </g>
    </g>
   </g>
   <g id="line2d_1">
    <path d="M 61.595699 35.877393 
L 303.755781 35.877393 
L 303.755781 35.877393 
" clip-path="url(#p858784c7e5)" style="fill: none; stroke: #440154; stroke-width: 1.5; stroke-linecap: round"/>
   </g>
   <g id="line2d_2">
    <path d="M 61.595699 35.877393 
L 303.755781 35.877393 
L 303.755781 35.877393 
" clip-path="url(#p858784c7e5)" style="fill: none; stroke: #482878; stroke-width: 1.5; stroke-linecap: round"/>
   </g>
   <g id="line2d_3">
    <path d="M 61.595699 35.877393 
L 303.755781 35.877393 
L 303.755781 35.877393 
" clip-path="url(#p858784c7e5)" style="fill: none; stroke: #3e4989; stroke-width: 1.5; stroke-linecap: round"/>
   </g>
   <g id="line2d_4">
    <path d="M 61.595699 35.877393 
L 303.755781 35.877393 
L 303.755781 35.877393 
" clip-path="url(#p858784c7e5)" style="fill: none; stroke: #31688e; stroke-width: 1.5; stroke-linecap: round"/>
   </g>
   <g id="line2d_5">
    <path d="M 61.595699 35.877393 
L 303.755781 35.877393 
L 303.755781 35.877393 
" clip-path="url(#p858784c7e5)" style="fill: none; stroke: #26828e; stroke-width: 1.5; stroke-linecap: round"/>
   </g>
   <g id="line2d_6">
    <path d="M 61.595699 50.449764 
L 64.029469 51.730862 
L 65.246354 50.053482 
L 67.680124 51.37781 
L 68.897008 50.494455 
L 71.330778 51.641713 
L 74.981433 50.545089 
L 76.198317 51.917206 
L 78.632087 51.198931 
L 81.065857 51.327529 
L 84.716511 51.343163 
L 85.933396 51.368261 
L 87.150281 50.377406 
L 90.800935 51.049175 
L 94.45159 50.035534 
L 95.668475 52.806719 
L 102.969784 50.94816 
L 105.403553 52.07239 
L 106.620438 50.495304 
L 107.837323 51.279248 
L 110.271093 50.585831 
L 113.921747 51.860807 
L 116.355517 50.445198 
L 118.789286 50.561752 
L 135.825674 51.596416 
L 138.259444 50.125332 
L 139.476329 52.322553 
L 143.126983 50.310979 
L 144.343868 51.691582 
L 146.777638 51.003831 
L 149.211407 51.662949 
L 150.428292 50.581562 
L 151.645177 51.736115 
L 154.078947 50.706407 
L 156.512716 50.86413 
L 168.681565 51.676531 
L 172.332219 50.729632 
L 174.765989 51.057668 
L 178.416643 50.724286 
L 179.633528 51.848379 
L 180.850413 50.945085 
L 182.067298 51.367968 
L 183.284183 50.592618 
L 184.501067 52.106549 
L 191.802376 50.636916 
L 193.019261 51.166055 
L 194.236146 50.305099 
L 195.453031 52.047643 
L 196.669916 51.352504 
L 199.103685 52.242248 
L 200.32057 50.675419 
L 201.537455 51.8574 
L 203.971225 50.979914 
L 238.044 51.112809 
L 239.260885 52.351081 
L 242.911539 50.343081 
L 244.128424 52.0294 
L 247.779079 50.826362 
L 257.514157 51.324372 
L 258.731042 50.625081 
L 261.164812 51.170357 
L 262.381697 51.604284 
L 264.815466 50.923825 
L 272.116775 52.051367 
L 273.33366 50.663858 
L 275.76743 51.271229 
L 276.984315 50.734244 
L 279.418084 51.138729 
L 290.370048 51.478348 
L 292.803817 51.03552 
L 301.322011 51.757577 
L 302.538896 50.688229 
L 303.755781 51.602468 
L 303.755781 51.602468 
" clip-path="url(#p858784c7e5)" style="fill: none; stroke: #1f9e89; stroke-width: 1.5; stroke-linecap: round"/>
   </g>
   <g id="line2d_7">
    <path d="M 61.595699 94.931156 
L 64.029469 95.027875 
L 66.463239 94.874199 
L 71.330778 95.448417 
L 78.632087 94.99403 
L 82.282742 95.29428 
L 94.45159 94.544327 
L 95.668475 96.07678 
L 102.969784 95.047093 
L 117.572402 94.971877 
L 120.006171 94.69552 
L 122.439941 95.214169 
L 129.74125 95.628055 
L 135.825674 95.485014 
L 138.259444 94.851134 
L 139.476329 95.713256 
L 141.910098 94.983194 
L 143.126983 94.607399 
L 145.560753 95.353311 
L 150.428292 94.845589 
L 151.645177 95.503643 
L 154.078947 94.784893 
L 156.512716 94.926759 
L 161.380256 95.531642 
L 165.03091 95.364153 
L 183.284183 95.151633 
L 188.151722 95.402974 
L 194.236146 94.643003 
L 196.669916 95.348218 
L 210.055649 95.056297 
L 213.706303 95.125168 
L 219.790728 95.824621 
L 221.007612 94.708026 
L 224.658267 95.674049 
L 229.525806 95.300898 
L 266.032351 95.3416 
L 268.466121 95.586252 
L 273.33366 94.684237 
L 275.76743 95.364877 
L 278.201199 95.4276 
L 281.851854 95.201686 
L 302.538896 94.884443 
L 303.755781 95.575943 
L 303.755781 95.575943 
" clip-path="url(#p858784c7e5)" style="fill: none; stroke: #35b779; stroke-width: 1.5; stroke-linecap: round"/>
   </g>
   <g id="line2d_8">
    <path d="M 61.595699 151.599907 
L 64.029469 152.447049 
L 65.246354 151.30309 
L 67.680124 152.090115 
L 70.113893 152.204932 
L 83.499626 152.251956 
L 90.800935 151.77948 
L 107.837323 152.052178 
L 110.271093 151.698103 
L 113.921747 152.431942 
L 117.572402 151.869256 
L 122.439941 151.910627 
L 127.30748 151.664888 
L 128.524365 151.624647 
L 129.74125 152.85097 
L 138.259444 151.283233 
L 139.476329 152.73745 
L 143.126983 151.516376 
L 144.343868 152.422789 
L 146.777638 151.921896 
L 149.211407 152.197849 
L 150.428292 151.689439 
L 152.862062 151.868946 
L 162.59714 151.972504 
L 168.681565 152.220726 
L 178.416643 151.764231 
L 179.633528 152.431171 
L 183.284183 151.510808 
L 184.501067 152.709334 
L 191.802376 151.621674 
L 193.019261 152.125982 
L 194.236146 151.540166 
L 195.453031 152.534343 
L 197.886801 152.517448 
L 199.103685 152.712993 
L 200.32057 151.668726 
L 202.75434 151.987206 
L 238.044 152.103124 
L 240.47777 152.505699 
L 258.731042 151.588995 
L 262.381697 152.39076 
L 266.032351 151.81118 
L 268.466121 152.370441 
L 272.116775 152.777541 
L 274.550545 151.916835 
L 290.370048 152.258728 
L 292.803817 151.876048 
L 301.322011 152.422686 
L 302.538896 151.697745 
L 303.755781 152.240555 
L 303.755781 152.240555 
" clip-path="url(#p858784c7e5)" style="fill: none; stroke: #6ece58; stroke-width: 1.5; stroke-linecap: round"/>
   </g>
   <g id="line2d_9">
    <path d="M 61.595699 183.222848 
L 64.029469 183.731813 
L 65.246354 182.8395 
L 67.680124 183.698965 
L 68.897008 183.104457 
L 71.330778 183.865726 
L 74.981433 183.220788 
L 76.198317 183.99501 
L 78.632087 183.496666 
L 82.282742 183.78354 
L 94.45159 182.786419 
L 95.668475 184.574985 
L 102.969784 183.417274 
L 105.403553 184.098041 
L 106.620438 183.081918 
L 109.054208 183.029486 
L 124.873711 183.784537 
L 128.524365 183.085107 
L 130.958135 184.192587 
L 133.391904 183.654566 
L 149.211407 183.812747 
L 150.428292 183.163577 
L 151.645177 183.900652 
L 154.078947 183.210592 
L 157.729601 183.459265 
L 210.055649 183.472491 
L 212.489419 183.526673 
L 219.790728 184.038394 
L 221.007612 183.004003 
L 224.658267 184.152778 
L 228.308921 182.958551 
L 230.742691 183.703706 
L 231.959576 182.973291 
L 235.61023 183.430095 
L 238.044 183.408695 
L 240.47777 183.864757 
L 241.694654 183.981023 
L 242.911539 182.986799 
L 244.128424 184.03465 
L 248.995963 183.471757 
L 266.032351 183.555551 
L 268.466121 183.950893 
L 280.634969 183.555627 
L 297.671357 183.566463 
L 301.322011 183.863223 
L 302.538896 183.244531 
L 303.755781 183.8796 
L 303.755781 183.8796 
" clip-path="url(#p858784c7e5)" style="fill: none; stroke: #b5de2b; stroke-width: 1.5; stroke-linecap: round"/>
   </g>
   <g id="patch_3">
    <path d="M 49.487695 192.009865 
L 49.487695 28.442513 
" style="fill: none"/>
   </g>
   <g id="patch_4">
    <path d="M 315.863785 192.009865 
L 315.863785 28.442513 
" style="fill: none"/>
   </g>
   <g id="patch_5">
    <path d="M 49.487695 192.009865 
L 315.863785 192.009865 
" style="fill: none"/>
   </g>
   <g id="patch_6">
    <path d="M 49.487695 28.442513 
L 315.863785 28.442513 
" style="fill: none"/>
   </g>
  </g>
  <g id="text_12">
   <!-- eval: pytorch -->
   <g style="fill: #262626" transform="translate(131.181102 18.14175) scale(0.144 -0.144)">
    <defs>
     <path id="DejaVuSans-65" d="M 3597 1894 
L 3597 1613 
L 953 1613 
Q 991 1019 1311 708 
Q 1631 397 2203 397 
Q 2534 397 2845 478 
Q 3156 559 3463 722 
L 3463 178 
Q 3153 47 2828 -22 
Q 2503 -91 2169 -91 
Q 1331 -91 842 396 
Q 353 884 353 1716 
Q 353 2575 817 3079 
Q 1281 3584 2069 3584 
Q 2775 3584 3186 3129 
Q 3597 2675 3597 1894 
z
M 3022 2063 
Q 3016 2534 2758 2815 
Q 2500 3097 2075 3097 
Q 1594 3097 1305 2825 
Q 1016 2553 972 2059 
L 3022 2063 
z
" transform="scale(0.015625)"/>
     <path id="DejaVuSans-76" d="M 191 3500 
L 800 3500 
L 1894 563 
L 2988 3500 
L 3597 3500 
L 2284 0 
L 1503 0 
L 191 3500 
z
" transform="scale(0.015625)"/>
     <path id="DejaVuSans-3a" d="M 750 794 
L 1409 794 
L 1409 0 
L 750 0 
L 750 794 
z
M 750 3309 
L 1409 3309 
L 1409 2516 
L 750 2516 
L 750 3309 
z
" transform="scale(0.015625)"/>
     <path id="DejaVuSans-20" transform="scale(0.015625)"/>
     <path id="DejaVuSans-70" d="M 1159 525 
L 1159 -1331 
L 581 -1331 
L 581 3500 
L 1159 3500 
L 1159 2969 
Q 1341 3281 1617 3432 
Q 1894 3584 2278 3584 
Q 2916 3584 3314 3078 
Q 3713 2572 3713 1747 
Q 3713 922 3314 415 
Q 2916 -91 2278 -91 
Q 1894 -91 1617 61 
Q 1341 213 1159 525 
z
M 3116 1747 
Q 3116 2381 2855 2742 
Q 2594 3103 2138 3103 
Q 1681 3103 1420 2742 
Q 1159 2381 1159 1747 
Q 1159 1113 1420 752 
Q 1681 391 2138 391 
Q 2594 391 2855 752 
Q 3116 1113 3116 1747 
z
" transform="scale(0.015625)"/>
     <path id="DejaVuSans-79" d="M 2059 -325 
Q 1816 -950 1584 -1140 
Q 1353 -1331 966 -1331 
L 506 -1331 
L 506 -850 
L 844 -850 
Q 1081 -850 1212 -737 
Q 1344 -625 1503 -206 
L 1606 56 
L 191 3500 
L 800 3500 
L 1894 763 
L 2988 3500 
L 3597 3500 
L 2059 -325 
z
" transform="scale(0.015625)"/>
     <path id="DejaVuSans-74" d="M 1172 4494 
L 1172 3500 
L 2356 3500 
L 2356 3053 
L 1172 3053 
L 1172 1153 
Q 1172 725 1289 603 
Q 1406 481 1766 481 
L 2356 481 
L 2356 0 
L 1766 0 
Q 1100 0 847 248 
Q 594 497 594 1153 
L 594 3053 
L 172 3053 
L 172 3500 
L 594 3500 
L 594 4494 
L 1172 4494 
z
" transform="scale(0.015625)"/>
     <path id="DejaVuSans-6f" d="M 1959 3097 
Q 1497 3097 1228 2736 
Q 959 2375 959 1747 
Q 959 1119 1226 758 
Q 1494 397 1959 397 
Q 2419 397 2687 759 
Q 2956 1122 2956 1747 
Q 2956 2369 2687 2733 
Q 2419 3097 1959 3097 
z
M 1959 3584 
Q 2709 3584 3137 3096 
Q 3566 2609 3566 1747 
Q 3566 888 3137 398 
Q 2709 -91 1959 -91 
Q 1206 -91 779 398 
Q 353 888 353 1747 
Q 353 2609 779 3096 
Q 1206 3584 1959 3584 
z
" transform="scale(0.015625)"/>
     <path id="DejaVuSans-63" d="M 3122 3366 
L 3122 2828 
Q 2878 2963 2633 3030 
Q 2388 3097 2138 3097 
Q 1578 3097 1268 2742 
Q 959 2388 959 1747 
Q 959 1106 1268 751 
Q 1578 397 2138 397 
Q 2388 397 2633 464 
Q 2878 531 3122 666 
L 3122 134 
Q 2881 22 2623 -34 
Q 2366 -91 2075 -91 
Q 1284 -91 818 406 
Q 353 903 353 1747 
Q 353 2603 823 3093 
Q 1294 3584 2113 3584 
Q 2378 3584 2631 3529 
Q 2884 3475 3122 3366 
z
" transform="scale(0.015625)"/>
     <path id="DejaVuSans-68" d="M 3513 2113 
L 3513 0 
L 2938 0 
L 2938 2094 
Q 2938 2591 2744 2837 
Q 2550 3084 2163 3084 
Q 1697 3084 1428 2787 
Q 1159 2491 1159 1978 
L 1159 0 
L 581 0 
L 581 4863 
L 1159 4863 
L 1159 2956 
Q 1366 3272 1645 3428 
Q 1925 3584 2291 3584 
Q 2894 3584 3203 3211 
Q 3513 2838 3513 2113 
z
" transform="scale(0.015625)"/>
    </defs>
    <use xlink:href="#DejaVuSans-65"/>
    <use xlink:href="#DejaVuSans-76" x="61.523438"/>
    <use xlink:href="#DejaVuSans-61" x="120.703125"/>
    <use xlink:href="#DejaVuSans-6c" x="181.982422"/>
    <use xlink:href="#DejaVuSans-3a" x="209.765625"/>
    <use xlink:href="#DejaVuSans-20" x="243.457031"/>
    <use xlink:href="#DejaVuSans-70" x="275.244141"/>
    <use xlink:href="#DejaVuSans-79" x="338.720703"/>
    <use xlink:href="#DejaVuSans-74" x="397.900391"/>
    <use xlink:href="#DejaVuSans-6f" x="437.109375"/>
    <use xlink:href="#DejaVuSans-72" x="498.291016"/>
    <use xlink:href="#DejaVuSans-63" x="537.154297"/>
    <use xlink:href="#DejaVuSans-68" x="592.134766"/>
   </g>
  </g>
 </g>
 <defs>
  <clipPath id="p858784c7e5">
   <rect x="49.487695" y="28.442513" width="266.37609" height="163.567352"/>
  </clipPath>
 </defs>
</svg>
