<?xml version="1.0" encoding="utf-8" standalone="no"?>
<!DOCTYPE svg PUBLIC "-//W3C//DTD SVG 1.1//EN"
  "http://www.w3.org/Graphics/SVG/1.1/DTD/svg11.dtd">
<svg xmlns:xlink="http://www.w3.org/1999/xlink" width="223.65pt" height="174.899688pt" viewBox="0 0 223.65 174.899688" xmlns="http://www.w3.org/2000/svg" version="1.1">
 <metadata>
  <rdf:RDF xmlns:dc="http://purl.org/dc/elements/1.1/" xmlns:cc="http://creativecommons.org/ns#" xmlns:rdf="http://www.w3.org/1999/02/22-rdf-syntax-ns#">
   <cc:Work>
    <dc:type rdf:resource="http://purl.org/dc/dcmitype/StillImage"/>
    <dc:date>2023-12-05T11:48:51.413648</dc:date>
    <dc:format>image/svg+xml</dc:format>
    <dc:creator>
     <cc:Agent>
      <dc:title>Matplotlib v3.8.2, https://matplotlib.org/</dc:title>
     </cc:Agent>
    </dc:creator>
   </cc:Work>
  </rdf:RDF>
 </metadata>
 <defs>
  <style type="text/css">*{stroke-linejoin: round; stroke-linecap: butt}</style>
 </defs>
 <g id="figure_1">
  <g id="patch_1">
   <path d="M 0 174.899688 
L 223.65 174.899688 
L 223.65 0 
L 0 0 
L 0 174.899688 
z
" style="fill: none"/>
  </g>
  <g id="axes_1">
   <g id="patch_2">
    <path d="M 7.2 48.78 
L 216.45 48.78 
L 216.45 7.2 
L 7.2 7.2 
L 7.2 48.78 
z
" style="fill: none"/>
   </g>
   <g id="matplotlib.axis_1">
    <g id="xtick_1"/>
    <g id="xtick_2"/>
    <g id="xtick_3"/>
    <g id="xtick_4"/>
   </g>
   <g id="matplotlib.axis_2"/>
   <g id="line2d_1">
    <path d="M 7.2 48.78 
L 216.45 48.78 
" style="fill: none; stroke: #482475; stroke-opacity: 0.9; stroke-linecap: round"/>
   </g>
   <g id="text_1">
    <!-- 0 -->
    <g style="fill: #482475" transform="translate(7.2 47.93325) scale(0.12 -0.12)">
     <defs>
      <path id="DejaVuSans-Bold-30" d="M 2944 2338 
Q 2944 3213 2780 3570 
Q 2616 3928 2228 3928 
Q 1841 3928 1675 3570 
Q 1509 3213 1509 2338 
Q 1509 1453 1675 1090 
Q 1841 728 2228 728 
Q 2613 728 2778 1090 
Q 2944 1453 2944 2338 
z
M 4147 2328 
Q 4147 1169 3647 539 
Q 3147 -91 2228 -91 
Q 1306 -91 806 539 
Q 306 1169 306 2328 
Q 306 3491 806 4120 
Q 1306 4750 2228 4750 
Q 3147 4750 3647 4120 
Q 4147 3491 4147 2328 
z
" transform="scale(0.015625)"/>
     </defs>
     <use xlink:href="#DejaVuSans-Bold-30"/>
    </g>
   </g>
  </g>
  <g id="axes_2">
   <g id="patch_3">
    <path d="M 7.2 59.175 
L 216.45 59.175 
L 216.45 17.595 
L 7.2 17.595 
L 7.2 59.175 
z
" style="fill: none"/>
   </g>
   <g id="matplotlib.axis_3">
    <g id="xtick_5"/>
    <g id="xtick_6"/>
    <g id="xtick_7"/>
    <g id="xtick_8"/>
   </g>
   <g id="matplotlib.axis_4"/>
   <g id="PolyCollection_1">
    <defs>
     <path id="m097d8812eb" d="M 16.711364 -115.745551 
L 16.711364 -115.724688 
L 16.786819 -115.724688 
L 16.862274 -115.724688 
L 16.93773 -115.724688 
L 17.013185 -115.724688 
L 17.08864 -115.724688 
L 17.164096 -115.724688 
L 17.239551 -115.724688 
L 17.315007 -115.724688 
L 17.390462 -115.724688 
L 17.465917 -115.724688 
L 17.541373 -115.724688 
L 17.616828 -115.724688 
L 17.692283 -115.724688 
L 17.767739 -115.724688 
L 17.843194 -115.724688 
L 17.91865 -115.724688 
L 17.994105 -115.724688 
L 18.06956 -115.724688 
L 18.145016 -115.724688 
L 18.220471 -115.724688 
L 18.295926 -115.724688 
L 18.371382 -115.724688 
L 18.446837 -115.724688 
L 18.522293 -115.724688 
L 18.597748 -115.724688 
L 18.673203 -115.724688 
L 18.748659 -115.724688 
L 18.824114 -115.724688 
L 18.899569 -115.724688 
L 18.975025 -115.724688 
L 19.05048 -115.724688 
L 19.125935 -115.724688 
L 19.201391 -115.724688 
L 19.276846 -115.724688 
L 19.352302 -115.724688 
L 19.427757 -115.724688 
L 19.503212 -115.724688 
L 19.578668 -115.724688 
L 19.654123 -115.724688 
L 19.729578 -115.724688 
L 19.805034 -115.724688 
L 19.880489 -115.724688 
L 19.955945 -115.724688 
L 20.0314 -115.724688 
L 20.106855 -115.724688 
L 20.182311 -115.724688 
L 20.257766 -115.724688 
L 20.333221 -115.724688 
L 20.408677 -115.724688 
L 20.484132 -115.724688 
L 20.559587 -115.724688 
L 20.635043 -115.724688 
L 20.710498 -115.724688 
L 20.785954 -115.724688 
L 20.861409 -115.724688 
L 20.936864 -115.724688 
L 21.01232 -115.724688 
L 21.087775 -115.724688 
L 21.16323 -115.724688 
L 21.238686 -115.724688 
L 21.314141 -115.724688 
L 21.389597 -115.724688 
L 21.465052 -115.724688 
L 21.540507 -115.724688 
L 21.615963 -115.724688 
L 21.691418 -115.724688 
L 21.766873 -115.724688 
L 21.842329 -115.724688 
L 21.917784 -115.724688 
L 21.99324 -115.724688 
L 22.068695 -115.724688 
L 22.14415 -115.724688 
L 22.219606 -115.724688 
L 22.295061 -115.724688 
L 22.370516 -115.724688 
L 22.445972 -115.724688 
L 22.521427 -115.724688 
L 22.596882 -115.724688 
L 22.672338 -115.724688 
L 22.747793 -115.724688 
L 22.823249 -115.724688 
L 22.898704 -115.724688 
L 22.974159 -115.724688 
L 23.049615 -115.724688 
L 23.12507 -115.724688 
L 23.200525 -115.724688 
L 23.275981 -115.724688 
L 23.351436 -115.724688 
L 23.426892 -115.724688 
L 23.502347 -115.724688 
L 23.577802 -115.724688 
L 23.653258 -115.724688 
L 23.728713 -115.724688 
L 23.804168 -115.724688 
L 23.879624 -115.724688 
L 23.955079 -115.724688 
L 24.030534 -115.724688 
L 24.10599 -115.724688 
L 24.181445 -115.724688 
L 24.256901 -115.724688 
L 24.332356 -115.724688 
L 24.407811 -115.724688 
L 24.483267 -115.724688 
L 24.558722 -115.724688 
L 24.634177 -115.724688 
L 24.709633 -115.724688 
L 24.785088 -115.724688 
L 24.860544 -115.724688 
L 24.935999 -115.724688 
L 25.011454 -115.724688 
L 25.08691 -115.724688 
L 25.162365 -115.724688 
L 25.23782 -115.724688 
L 25.313276 -115.724688 
L 25.388731 -115.724688 
L 25.464187 -115.724688 
L 25.539642 -115.724688 
L 25.615097 -115.724688 
L 25.690553 -115.724688 
L 25.766008 -115.724688 
L 25.841463 -115.724688 
L 25.916919 -115.724688 
L 25.992374 -115.724688 
L 26.067829 -115.724688 
L 26.143285 -115.724688 
L 26.21874 -115.724688 
L 26.294196 -115.724688 
L 26.369651 -115.724688 
L 26.445106 -115.724688 
L 26.520562 -115.724688 
L 26.596017 -115.724688 
L 26.671472 -115.724688 
L 26.746928 -115.724688 
L 26.822383 -115.724688 
L 26.897839 -115.724688 
L 26.973294 -115.724688 
L 27.048749 -115.724688 
L 27.124205 -115.724688 
L 27.19966 -115.724688 
L 27.275115 -115.724688 
L 27.350571 -115.724688 
L 27.426026 -115.724688 
L 27.501481 -115.724688 
L 27.576937 -115.724688 
L 27.652392 -115.724688 
L 27.727848 -115.724688 
L 27.803303 -115.724688 
L 27.878758 -115.724688 
L 27.954214 -115.724688 
L 28.029669 -115.724688 
L 28.105124 -115.724688 
L 28.18058 -115.724688 
L 28.256035 -115.724688 
L 28.331491 -115.724688 
L 28.406946 -115.724688 
L 28.482401 -115.724688 
L 28.557857 -115.724688 
L 28.633312 -115.724688 
L 28.708767 -115.724688 
L 28.784223 -115.724688 
L 28.859678 -115.724688 
L 28.935133 -115.724688 
L 29.010589 -115.724688 
L 29.086044 -115.724688 
L 29.1615 -115.724688 
L 29.236955 -115.724688 
L 29.31241 -115.724688 
L 29.387866 -115.724688 
L 29.463321 -115.724688 
L 29.538776 -115.724688 
L 29.614232 -115.724688 
L 29.689687 -115.724688 
L 29.765143 -115.724688 
L 29.840598 -115.724688 
L 29.916053 -115.724688 
L 29.991509 -115.724688 
L 30.066964 -115.724688 
L 30.142419 -115.724688 
L 30.217875 -115.724688 
L 30.29333 -115.724688 
L 30.368786 -115.724688 
L 30.444241 -115.724688 
L 30.519696 -115.724688 
L 30.595152 -115.724688 
L 30.670607 -115.724688 
L 30.746062 -115.724688 
L 30.821518 -115.724688 
L 30.896973 -115.724688 
L 30.972428 -115.724688 
L 31.047884 -115.724688 
L 31.123339 -115.724688 
L 31.198795 -115.724688 
L 31.27425 -115.724688 
L 31.349705 -115.724688 
L 31.425161 -115.724688 
L 31.500616 -115.724688 
L 31.576071 -115.724688 
L 31.651527 -115.724688 
L 31.726982 -115.724688 
L 31.726982 -115.74931 
L 31.726982 -115.74931 
L 31.651527 -115.75645 
L 31.576071 -115.76383 
L 31.500616 -115.77085 
L 31.425161 -115.776885 
L 31.349705 -115.781395 
L 31.27425 -115.784024 
L 31.198795 -115.7847 
L 31.123339 -115.783694 
L 31.047884 -115.781653 
L 30.972428 -115.779582 
L 30.896973 -115.778758 
L 30.821518 -115.780566 
L 30.746062 -115.786272 
L 30.670607 -115.796771 
L 30.595152 -115.812377 
L 30.519696 -115.832741 
L 30.444241 -115.856961 
L 30.368786 -115.883877 
L 30.29333 -115.912499 
L 30.217875 -115.942429 
L 30.142419 -115.974115 
L 30.066964 -116.008841 
L 29.991509 -116.048441 
L 29.916053 -116.094826 
L 29.840598 -116.149518 
L 29.765143 -116.213362 
L 29.689687 -116.286497 
L 29.614232 -116.368538 
L 29.538776 -116.45885 
L 29.463321 -116.556722 
L 29.387866 -116.661365 
L 29.31241 -116.771762 
L 29.236955 -116.886515 
L 29.1615 -117.003884 
L 29.086044 -117.122126 
L 29.010589 -117.24014 
L 28.935133 -117.358232 
L 28.859678 -117.478779 
L 28.784223 -117.606534 
L 28.708767 -117.748449 
L 28.633312 -117.913036 
L 28.557857 -118.109404 
L 28.482401 -118.346207 
L 28.406946 -118.630682 
L 28.331491 -118.967932 
L 28.256035 -119.360447 
L 28.18058 -119.807829 
L 28.105124 -120.306629 
L 28.029669 -120.850296 
L 27.954214 -121.429268 
L 27.878758 -122.03136 
L 27.803303 -122.642583 
L 27.727848 -123.24843 
L 27.652392 -123.835565 
L 27.576937 -124.393651 
L 27.501481 -124.916993 
L 27.426026 -125.40562 
L 27.350571 -125.865517 
L 27.275115 -126.307882 
L 27.19966 -126.747481 
L 27.124205 -127.200443 
L 27.048749 -127.681943 
L 26.973294 -128.204325 
L 26.897839 -128.776019 
L 26.822383 -129.401424 
L 26.746928 -130.081616 
L 26.671472 -130.815584 
L 26.596017 -131.601601 
L 26.520562 -132.438373 
L 26.445106 -133.325674 
L 26.369651 -134.264266 
L 26.294196 -135.255026 
L 26.21874 -136.297416 
L 26.143285 -137.387643 
L 26.067829 -138.517133 
L 25.992374 -139.672011 
L 25.916919 -140.834138 
L 25.841463 -141.983762 
L 25.766008 -143.103214 
L 25.690553 -144.18051 
L 25.615097 -145.211551 
L 25.539642 -146.200016 
L 25.464187 -147.154877 
L 25.388731 -148.086352 
L 25.313276 -149.001683 
L 25.23782 -149.902038 
L 25.162365 -150.781291 
L 25.08691 -151.626644 
L 25.011454 -152.420465 
L 24.935999 -153.142598 
L 24.860544 -153.772574 
L 24.785088 -154.291537 
L 24.709633 -154.683917 
L 24.634177 -154.938936 
L 24.558722 -155.051907 
L 24.483267 -155.025153 
L 24.407811 -154.868341 
L 24.332356 -154.598039 
L 24.256901 -154.236401 
L 24.181445 -153.808917 
L 24.10599 -153.341318 
L 24.030534 -152.855916 
L 23.955079 -152.367981 
L 23.879624 -151.883009 
L 23.804168 -151.39581 
L 23.728713 -150.892004 
L 23.653258 -150.351916 
L 23.577802 -149.756095 
L 23.502347 -149.0911 
L 23.426892 -148.353974 
L 23.351436 -147.554109 
L 23.275981 -146.711864 
L 23.200525 -145.854221 
L 23.12507 -145.00862 
L 23.049615 -144.196662 
L 22.974159 -143.429396 
L 22.898704 -142.705388 
L 22.823249 -142.011892 
L 22.747793 -141.328582 
L 22.672338 -140.632627 
L 22.596882 -139.903752 
L 22.521427 -139.128117 
L 22.445972 -138.300315 
L 22.370516 -137.42332 
L 22.295061 -136.506731 
L 22.219606 -135.563986 
L 22.14415 -134.609436 
L 22.068695 -133.656037 
L 21.99324 -132.714099 
L 21.917784 -131.791066 
L 21.842329 -130.891934 
L 21.766873 -130.019854 
L 21.691418 -129.176614 
L 21.615963 -128.363048 
L 21.540507 -127.579528 
L 21.465052 -126.826671 
L 21.389597 -126.106102 
L 21.314141 -125.420907 
L 21.238686 -124.775392 
L 21.16323 -124.174052 
L 21.087775 -123.619989 
L 21.01232 -123.113393 
L 20.936864 -122.650719 
L 20.861409 -122.224983 
L 20.785954 -121.827192 
L 20.710498 -121.448472 
L 20.635043 -121.082166 
L 20.559587 -120.725149 
L 20.484132 -120.377922 
L 20.408677 -120.0435 
L 20.333221 -119.725618 
L 20.257766 -119.426995 
L 20.182311 -119.148343 
L 20.106855 -118.888381 
L 20.0314 -118.64467 
L 19.955945 -118.414736 
L 19.880489 -118.196938 
L 19.805034 -117.990744 
L 19.729578 -117.796459 
L 19.654123 -117.614644 
L 19.578668 -117.445571 
L 19.503212 -117.288922 
L 19.427757 -117.143808 
L 19.352302 -117.009016 
L 19.276846 -116.883388 
L 19.201391 -116.766196 
L 19.125935 -116.657412 
L 19.05048 -116.557776 
L 18.975025 -116.468603 
L 18.899569 -116.391347 
L 18.824114 -116.327022 
L 18.748659 -116.275684 
L 18.673203 -116.236152 
L 18.597748 -116.206084 
L 18.522293 -116.182385 
L 18.446837 -116.161796 
L 18.371382 -116.141461 
L 18.295926 -116.119315 
L 18.220471 -116.094215 
L 18.145016 -116.065861 
L 18.06956 -116.034579 
L 17.994105 -116.001106 
L 17.91865 -115.966419 
L 17.843194 -115.931641 
L 17.767739 -115.897984 
L 17.692283 -115.86669 
L 17.616828 -115.83892 
L 17.541373 -115.815602 
L 17.465917 -115.797273 
L 17.390462 -115.783946 
L 17.315007 -115.775091 
L 17.239551 -115.76972 
L 17.164096 -115.766578 
L 17.08864 -115.764402 
L 17.013185 -115.76215 
L 16.93773 -115.759174 
L 16.862274 -115.755264 
L 16.786819 -115.750588 
L 16.711364 -115.745551 
z
" style="stroke: #414487; stroke-width: 1.25"/>
    </defs>
    <g>
     <use xlink:href="#m097d8812eb" x="0" y="174.899688" style="fill: #414487; fill-opacity: 0.7; stroke: #414487; stroke-width: 1.25"/>
    </g>
   </g>
   <g id="line2d_2">
    <path d="M 7.2 59.175 
L 216.45 59.175 
" style="fill: none; stroke: #414487; stroke-opacity: 0.9; stroke-linecap: round"/>
   </g>
   <g id="text_2">
    <!-- 1 -->
    <g style="fill: #414487" transform="translate(7.2 58.32825) scale(0.12 -0.12)">
     <defs>
      <path id="DejaVuSans-Bold-31" d="M 750 831 
L 1813 831 
L 1813 3847 
L 722 3622 
L 722 4441 
L 1806 4666 
L 2950 4666 
L 2950 831 
L 4013 831 
L 4013 0 
L 750 0 
L 750 831 
z
" transform="scale(0.015625)"/>
     </defs>
     <use xlink:href="#DejaVuSans-Bold-31"/>
    </g>
   </g>
  </g>
  <g id="axes_3">
   <g id="patch_4">
    <path d="M 7.2 69.57 
L 216.45 69.57 
L 216.45 27.99 
L 7.2 27.99 
L 7.2 69.57 
z
" style="fill: none"/>
   </g>
   <g id="matplotlib.axis_5">
    <g id="xtick_9"/>
    <g id="xtick_10"/>
    <g id="xtick_11"/>
    <g id="xtick_12"/>
   </g>
   <g id="matplotlib.axis_6"/>
   <g id="PolyCollection_2">
    <defs>
     <path id="m198dd5457a" d="M 95.973512 -105.38433 
L 95.973512 -105.329688 
L 96.041784 -105.329688 
L 96.110055 -105.329688 
L 96.178327 -105.329688 
L 96.246598 -105.329688 
L 96.31487 -105.329688 
L 96.383141 -105.329688 
L 96.451413 -105.329688 
L 96.519684 -105.329688 
L 96.587956 -105.329688 
L 96.656227 -105.329688 
L 96.724499 -105.329688 
L 96.79277 -105.329688 
L 96.861042 -105.329688 
L 96.929313 -105.329688 
L 96.997585 -105.329688 
L 97.065856 -105.329688 
L 97.134128 -105.329688 
L 97.202399 -105.329688 
L 97.270671 -105.329688 
L 97.338942 -105.329688 
L 97.407214 -105.329688 
L 97.475485 -105.329688 
L 97.543757 -105.329688 
L 97.612028 -105.329688 
L 97.6803 -105.329688 
L 97.748571 -105.329688 
L 97.816843 -105.329688 
L 97.885114 -105.329688 
L 97.953386 -105.329688 
L 98.021657 -105.329688 
L 98.089929 -105.329688 
L 98.1582 -105.329688 
L 98.226472 -105.329688 
L 98.294743 -105.329688 
L 98.363015 -105.329688 
L 98.431286 -105.329688 
L 98.499558 -105.329688 
L 98.567829 -105.329688 
L 98.636101 -105.329688 
L 98.704372 -105.329688 
L 98.772644 -105.329688 
L 98.840915 -105.329688 
L 98.909187 -105.329688 
L 98.977458 -105.329688 
L 99.04573 -105.329688 
L 99.114001 -105.329688 
L 99.182273 -105.329688 
L 99.250544 -105.329688 
L 99.318816 -105.329688 
L 99.387087 -105.329688 
L 99.455359 -105.329688 
L 99.52363 -105.329688 
L 99.591902 -105.329688 
L 99.660173 -105.329688 
L 99.728445 -105.329688 
L 99.796716 -105.329688 
L 99.864988 -105.329688 
L 99.933259 -105.329688 
L 100.001531 -105.329688 
L 100.069802 -105.329688 
L 100.138074 -105.329688 
L 100.206345 -105.329688 
L 100.274617 -105.329688 
L 100.342888 -105.329688 
L 100.41116 -105.329688 
L 100.479431 -105.329688 
L 100.547703 -105.329688 
L 100.615974 -105.329688 
L 100.684245 -105.329688 
L 100.752517 -105.329688 
L 100.820788 -105.329688 
L 100.88906 -105.329688 
L 100.957331 -105.329688 
L 101.025603 -105.329688 
L 101.093874 -105.329688 
L 101.162146 -105.329688 
L 101.230417 -105.329688 
L 101.298689 -105.329688 
L 101.36696 -105.329688 
L 101.435232 -105.329688 
L 101.503503 -105.329688 
L 101.571775 -105.329688 
L 101.640046 -105.329688 
L 101.708318 -105.329688 
L 101.776589 -105.329688 
L 101.844861 -105.329688 
L 101.913132 -105.329688 
L 101.981404 -105.329688 
L 102.049675 -105.329688 
L 102.117947 -105.329688 
L 102.186218 -105.329688 
L 102.25449 -105.329688 
L 102.322761 -105.329688 
L 102.391033 -105.329688 
L 102.459304 -105.329688 
L 102.527576 -105.329688 
L 102.595847 -105.329688 
L 102.664119 -105.329688 
L 102.73239 -105.329688 
L 102.800662 -105.329688 
L 102.868933 -105.329688 
L 102.937205 -105.329688 
L 103.005476 -105.329688 
L 103.073748 -105.329688 
L 103.142019 -105.329688 
L 103.210291 -105.329688 
L 103.278562 -105.329688 
L 103.346834 -105.329688 
L 103.415105 -105.329688 
L 103.483377 -105.329688 
L 103.551648 -105.329688 
L 103.61992 -105.329688 
L 103.688191 -105.329688 
L 103.756463 -105.329688 
L 103.824734 -105.329688 
L 103.893006 -105.329688 
L 103.961277 -105.329688 
L 104.029549 -105.329688 
L 104.09782 -105.329688 
L 104.166092 -105.329688 
L 104.234363 -105.329688 
L 104.302635 -105.329688 
L 104.370906 -105.329688 
L 104.439178 -105.329688 
L 104.507449 -105.329688 
L 104.575721 -105.329688 
L 104.643992 -105.329688 
L 104.712264 -105.329688 
L 104.780535 -105.329688 
L 104.848807 -105.329688 
L 104.917078 -105.329688 
L 104.98535 -105.329688 
L 105.053621 -105.329688 
L 105.121893 -105.329688 
L 105.190164 -105.329688 
L 105.258436 -105.329688 
L 105.326707 -105.329688 
L 105.394979 -105.329688 
L 105.46325 -105.329688 
L 105.531522 -105.329688 
L 105.599793 -105.329688 
L 105.668065 -105.329688 
L 105.736336 -105.329688 
L 105.804608 -105.329688 
L 105.872879 -105.329688 
L 105.941151 -105.329688 
L 106.009422 -105.329688 
L 106.077694 -105.329688 
L 106.145965 -105.329688 
L 106.214237 -105.329688 
L 106.282508 -105.329688 
L 106.350779 -105.329688 
L 106.419051 -105.329688 
L 106.487322 -105.329688 
L 106.555594 -105.329688 
L 106.623865 -105.329688 
L 106.692137 -105.329688 
L 106.760408 -105.329688 
L 106.82868 -105.329688 
L 106.896951 -105.329688 
L 106.965223 -105.329688 
L 107.033494 -105.329688 
L 107.101766 -105.329688 
L 107.170037 -105.329688 
L 107.238309 -105.329688 
L 107.30658 -105.329688 
L 107.374852 -105.329688 
L 107.443123 -105.329688 
L 107.511395 -105.329688 
L 107.579666 -105.329688 
L 107.647938 -105.329688 
L 107.716209 -105.329688 
L 107.784481 -105.329688 
L 107.852752 -105.329688 
L 107.921024 -105.329688 
L 107.989295 -105.329688 
L 108.057567 -105.329688 
L 108.125838 -105.329688 
L 108.19411 -105.329688 
L 108.262381 -105.329688 
L 108.330653 -105.329688 
L 108.398924 -105.329688 
L 108.467196 -105.329688 
L 108.535467 -105.329688 
L 108.603739 -105.329688 
L 108.67201 -105.329688 
L 108.740282 -105.329688 
L 108.808553 -105.329688 
L 108.876825 -105.329688 
L 108.945096 -105.329688 
L 109.013368 -105.329688 
L 109.081639 -105.329688 
L 109.149911 -105.329688 
L 109.218182 -105.329688 
L 109.286454 -105.329688 
L 109.354725 -105.329688 
L 109.422997 -105.329688 
L 109.491268 -105.329688 
L 109.55954 -105.329688 
L 109.55954 -105.356811 
L 109.55954 -105.356811 
L 109.491268 -105.364741 
L 109.422997 -105.373525 
L 109.354725 -105.382957 
L 109.286454 -105.392915 
L 109.218182 -105.403437 
L 109.149911 -105.41479 
L 109.081639 -105.427482 
L 109.013368 -105.44222 
L 108.945096 -105.459813 
L 108.876825 -105.481022 
L 108.808553 -105.506401 
L 108.740282 -105.536152 
L 108.67201 -105.570021 
L 108.603739 -105.607255 
L 108.535467 -105.646644 
L 108.467196 -105.686634 
L 108.398924 -105.725516 
L 108.330653 -105.761663 
L 108.262381 -105.793791 
L 108.19411 -105.821214 
L 108.125838 -105.844045 
L 108.057567 -105.863323 
L 107.989295 -105.881023 
L 107.921024 -105.899937 
L 107.852752 -105.923428 
L 107.784481 -105.955067 
L 107.716209 -105.998203 
L 107.647938 -106.05552 
L 107.579666 -106.128686 
L 107.511395 -106.218163 
L 107.443123 -106.323259 
L 107.374852 -106.442443 
L 107.30658 -106.573855 
L 107.238309 -106.715918 
L 107.170037 -106.867865 
L 107.101766 -107.030058 
L 107.033494 -107.20398 
L 106.965223 -107.391903 
L 106.896951 -107.596321 
L 106.82868 -107.819328 
L 106.760408 -108.062159 
L 106.692137 -108.32506 
L 106.623865 -108.607564 
L 106.555594 -108.909102 
L 106.487322 -109.229714 
L 106.419051 -109.570558 
L 106.350779 -109.933958 
L 106.282508 -110.322885 
L 106.214237 -110.739991 
L 106.145965 -111.186538 
L 106.077694 -111.661642 
L 106.009422 -112.162163 
L 105.941151 -112.683352 
L 105.872879 -113.220048 
L 105.804608 -113.768008 
L 105.736336 -114.324869 
L 105.668065 -114.890365 
L 105.599793 -115.465711 
L 105.531522 -116.052394 
L 105.46325 -116.650869 
L 105.394979 -117.259724 
L 105.326707 -117.875718 
L 105.258436 -118.49479 
L 105.190164 -119.113706 
L 105.121893 -119.731798 
L 105.053621 -120.352123 
L 104.98535 -120.981625 
L 104.917078 -121.630176 
L 104.848807 -122.308782 
L 104.780535 -123.027449 
L 104.712264 -123.79329 
L 104.643992 -124.609317 
L 104.575721 -125.474121 
L 104.507449 -126.382397 
L 104.439178 -127.326031 
L 104.370906 -128.295379 
L 104.302635 -129.280351 
L 104.234363 -130.271095 
L 104.166092 -131.258243 
L 104.09782 -132.232899 
L 104.029549 -133.186617 
L 103.961277 -134.111551 
L 103.893006 -135.00082 
L 103.824734 -135.848943 
L 103.756463 -136.652184 
L 103.688191 -137.408661 
L 103.61992 -138.11828 
L 103.551648 -138.782631 
L 103.483377 -139.404984 
L 103.415105 -139.990387 
L 103.346834 -140.545658 
L 103.278562 -141.078935 
L 103.210291 -141.598509 
L 103.142019 -142.110925 
L 103.073748 -142.618642 
L 103.005476 -143.117891 
L 102.937205 -143.597406 
L 102.868933 -144.038599 
L 102.800662 -144.41738 
L 102.73239 -144.707426 
L 102.664119 -144.884309 
L 102.595847 -144.929688 
L 102.527576 -144.834717 
L 102.459304 -144.601947 
L 102.391033 -144.245291 
L 102.322761 -143.787985 
L 102.25449 -143.258894 
L 102.186218 -142.687843 
L 102.117947 -142.100904 
L 102.049675 -141.516576 
L 101.981404 -140.943624 
L 101.913132 -140.380987 
L 101.844861 -139.819661 
L 101.776589 -139.246059 
L 101.708318 -138.645994 
L 101.640046 -138.008366 
L 101.571775 -137.327791 
L 101.503503 -136.60571 
L 101.435232 -135.849957 
L 101.36696 -135.073051 
L 101.298689 -134.289713 
L 101.230417 -133.514143 
L 101.162146 -132.757538 
L 101.093874 -132.026181 
L 101.025603 -131.320345 
L 100.957331 -130.634102 
L 100.88906 -129.956076 
L 100.820788 -129.271058 
L 100.752517 -128.562333 
L 100.684245 -127.814433 
L 100.615974 -127.015927 
L 100.547703 -126.161775 
L 100.479431 -125.254785 
L 100.41116 -124.3058 
L 100.342888 -123.332503 
L 100.274617 -122.356987 
L 100.206345 -121.402545 
L 100.138074 -120.490286 
L 100.069802 -119.636231 
L 100.001531 -118.84939 
L 99.933259 -118.131102 
L 99.864988 -117.475612 
L 99.796716 -116.871677 
L 99.728445 -116.304808 
L 99.660173 -115.759777 
L 99.591902 -115.222986 
L 99.52363 -114.684396 
L 99.455359 -114.138764 
L 99.387087 -113.585995 
L 99.318816 -113.030569 
L 99.250544 -112.48013 
L 99.182273 -111.943562 
L 99.114001 -111.428987 
L 99.04573 -110.942222 
L 98.977458 -110.486066 
L 98.909187 -110.060578 
L 98.840915 -109.664158 
L 98.772644 -109.294999 
L 98.704372 -108.952336 
L 98.636101 -108.637039 
L 98.567829 -108.351315 
L 98.499558 -108.097629 
L 98.431286 -107.877243 
L 98.363015 -107.688928 
L 98.294743 -107.528326 
L 98.226472 -107.388268 
L 98.1582 -107.259971 
L 98.089929 -107.134792 
L 98.021657 -107.005976 
L 97.953386 -106.869885 
L 97.885114 -106.726389 
L 97.816843 -106.578369 
L 97.748571 -106.430594 
L 97.6803 -106.288372 
L 97.612028 -106.156368 
L 97.543757 -106.037849 
L 97.475485 -105.934423 
L 97.407214 -105.846174 
L 97.338942 -105.772038 
L 97.270671 -105.710254 
L 97.202399 -105.658792 
L 97.134128 -105.615695 
L 97.065856 -105.579339 
L 96.997585 -105.548571 
L 96.929313 -105.522733 
L 96.861042 -105.50156 
L 96.79277 -105.484978 
L 96.724499 -105.472855 
L 96.656227 -105.46477 
L 96.587956 -105.459883 
L 96.519684 -105.456948 
L 96.451413 -105.454478 
L 96.383141 -105.451009 
L 96.31487 -105.445395 
L 96.246598 -105.437036 
L 96.178327 -105.425969 
L 96.110055 -105.412808 
L 96.041784 -105.398552 
L 95.973512 -105.38433 
z
" style="stroke: #355f8d; stroke-width: 1.25"/>
    </defs>
    <g>
     <use xlink:href="#m198dd5457a" x="0" y="174.899688" style="fill: #355f8d; fill-opacity: 0.7; stroke: #355f8d; stroke-width: 1.25"/>
    </g>
   </g>
   <g id="line2d_3">
    <path d="M 7.2 69.57 
L 216.45 69.57 
" style="fill: none; stroke: #355f8d; stroke-opacity: 0.9; stroke-linecap: round"/>
   </g>
   <g id="text_3">
    <!-- 2 -->
    <g style="fill: #355f8d" transform="translate(7.2 68.72325) scale(0.12 -0.12)">
     <defs>
      <path id="DejaVuSans-Bold-32" d="M 1844 884 
L 3897 884 
L 3897 0 
L 506 0 
L 506 884 
L 2209 2388 
Q 2438 2594 2547 2791 
Q 2656 2988 2656 3200 
Q 2656 3528 2436 3728 
Q 2216 3928 1850 3928 
Q 1569 3928 1234 3808 
Q 900 3688 519 3450 
L 519 4475 
Q 925 4609 1322 4679 
Q 1719 4750 2100 4750 
Q 2938 4750 3402 4381 
Q 3866 4013 3866 3353 
Q 3866 2972 3669 2642 
Q 3472 2313 2841 1759 
L 1844 884 
z
" transform="scale(0.015625)"/>
     </defs>
     <use xlink:href="#DejaVuSans-Bold-32"/>
    </g>
   </g>
  </g>
  <g id="axes_4">
   <g id="patch_5">
    <path d="M 7.2 79.965 
L 216.45 79.965 
L 216.45 38.385 
L 7.2 38.385 
L 7.2 79.965 
z
" style="fill: none"/>
   </g>
   <g id="matplotlib.axis_7">
    <g id="xtick_13"/>
    <g id="xtick_14"/>
    <g id="xtick_15"/>
    <g id="xtick_16"/>
   </g>
   <g id="matplotlib.axis_8"/>
   <g id="PolyCollection_3">
    <defs>
     <path id="mae9983f44e" d="M 147.730374 -94.944818 
L 147.730374 -94.934688 
L 147.882174 -94.934688 
L 148.033973 -94.934688 
L 148.185773 -94.934688 
L 148.337573 -94.934688 
L 148.489372 -94.934688 
L 148.641172 -94.934688 
L 148.792972 -94.934688 
L 148.944772 -94.934688 
L 149.096571 -94.934688 
L 149.248371 -94.934688 
L 149.400171 -94.934688 
L 149.551971 -94.934688 
L 149.70377 -94.934688 
L 149.85557 -94.934688 
L 150.00737 -94.934688 
L 150.159169 -94.934688 
L 150.310969 -94.934688 
L 150.462769 -94.934688 
L 150.614569 -94.934688 
L 150.766368 -94.934688 
L 150.918168 -94.934688 
L 151.069968 -94.934688 
L 151.221767 -94.934688 
L 151.373567 -94.934688 
L 151.525367 -94.934688 
L 151.677167 -94.934688 
L 151.828966 -94.934688 
L 151.980766 -94.934688 
L 152.132566 -94.934688 
L 152.284365 -94.934688 
L 152.436165 -94.934688 
L 152.587965 -94.934688 
L 152.739765 -94.934688 
L 152.891564 -94.934688 
L 153.043364 -94.934688 
L 153.195164 -94.934688 
L 153.346964 -94.934688 
L 153.498763 -94.934688 
L 153.650563 -94.934688 
L 153.802363 -94.934688 
L 153.954162 -94.934688 
L 154.105962 -94.934688 
L 154.257762 -94.934688 
L 154.409562 -94.934688 
L 154.561361 -94.934688 
L 154.713161 -94.934688 
L 154.864961 -94.934688 
L 155.01676 -94.934688 
L 155.16856 -94.934688 
L 155.32036 -94.934688 
L 155.47216 -94.934688 
L 155.623959 -94.934688 
L 155.775759 -94.934688 
L 155.927559 -94.934688 
L 156.079358 -94.934688 
L 156.231158 -94.934688 
L 156.382958 -94.934688 
L 156.534758 -94.934688 
L 156.686557 -94.934688 
L 156.838357 -94.934688 
L 156.990157 -94.934688 
L 157.141956 -94.934688 
L 157.293756 -94.934688 
L 157.445556 -94.934688 
L 157.597356 -94.934688 
L 157.749155 -94.934688 
L 157.900955 -94.934688 
L 158.052755 -94.934688 
L 158.204555 -94.934688 
L 158.356354 -94.934688 
L 158.508154 -94.934688 
L 158.659954 -94.934688 
L 158.811753 -94.934688 
L 158.963553 -94.934688 
L 159.115353 -94.934688 
L 159.267153 -94.934688 
L 159.418952 -94.934688 
L 159.570752 -94.934688 
L 159.722552 -94.934688 
L 159.874351 -94.934688 
L 160.026151 -94.934688 
L 160.177951 -94.934688 
L 160.329751 -94.934688 
L 160.48155 -94.934688 
L 160.63335 -94.934688 
L 160.78515 -94.934688 
L 160.936949 -94.934688 
L 161.088749 -94.934688 
L 161.240549 -94.934688 
L 161.392349 -94.934688 
L 161.544148 -94.934688 
L 161.695948 -94.934688 
L 161.847748 -94.934688 
L 161.999547 -94.934688 
L 162.151347 -94.934688 
L 162.303147 -94.934688 
L 162.454947 -94.934688 
L 162.606746 -94.934688 
L 162.758546 -94.934688 
L 162.910346 -94.934688 
L 163.062146 -94.934688 
L 163.213945 -94.934688 
L 163.365745 -94.934688 
L 163.517545 -94.934688 
L 163.669344 -94.934688 
L 163.821144 -94.934688 
L 163.972944 -94.934688 
L 164.124744 -94.934688 
L 164.276543 -94.934688 
L 164.428343 -94.934688 
L 164.580143 -94.934688 
L 164.731942 -94.934688 
L 164.883742 -94.934688 
L 165.035542 -94.934688 
L 165.187342 -94.934688 
L 165.339141 -94.934688 
L 165.490941 -94.934688 
L 165.642741 -94.934688 
L 165.79454 -94.934688 
L 165.94634 -94.934688 
L 166.09814 -94.934688 
L 166.24994 -94.934688 
L 166.401739 -94.934688 
L 166.553539 -94.934688 
L 166.705339 -94.934688 
L 166.857139 -94.934688 
L 167.008938 -94.934688 
L 167.160738 -94.934688 
L 167.312538 -94.934688 
L 167.464337 -94.934688 
L 167.616137 -94.934688 
L 167.767937 -94.934688 
L 167.919737 -94.934688 
L 168.071536 -94.934688 
L 168.223336 -94.934688 
L 168.375136 -94.934688 
L 168.526935 -94.934688 
L 168.678735 -94.934688 
L 168.830535 -94.934688 
L 168.982335 -94.934688 
L 169.134134 -94.934688 
L 169.285934 -94.934688 
L 169.437734 -94.934688 
L 169.589533 -94.934688 
L 169.741333 -94.934688 
L 169.893133 -94.934688 
L 170.044933 -94.934688 
L 170.196732 -94.934688 
L 170.348532 -94.934688 
L 170.500332 -94.934688 
L 170.652131 -94.934688 
L 170.803931 -94.934688 
L 170.955731 -94.934688 
L 171.107531 -94.934688 
L 171.25933 -94.934688 
L 171.41113 -94.934688 
L 171.56293 -94.934688 
L 171.71473 -94.934688 
L 171.866529 -94.934688 
L 172.018329 -94.934688 
L 172.170129 -94.934688 
L 172.321928 -94.934688 
L 172.473728 -94.934688 
L 172.625528 -94.934688 
L 172.777328 -94.934688 
L 172.929127 -94.934688 
L 173.080927 -94.934688 
L 173.232727 -94.934688 
L 173.384526 -94.934688 
L 173.536326 -94.934688 
L 173.688126 -94.934688 
L 173.839926 -94.934688 
L 173.991725 -94.934688 
L 174.143525 -94.934688 
L 174.295325 -94.934688 
L 174.447124 -94.934688 
L 174.598924 -94.934688 
L 174.750724 -94.934688 
L 174.902524 -94.934688 
L 175.054323 -94.934688 
L 175.206123 -94.934688 
L 175.357923 -94.934688 
L 175.509722 -94.934688 
L 175.661522 -94.934688 
L 175.813322 -94.934688 
L 175.965122 -94.934688 
L 176.116921 -94.934688 
L 176.268721 -94.934688 
L 176.420521 -94.934688 
L 176.572321 -94.934688 
L 176.72412 -94.934688 
L 176.87592 -94.934688 
L 177.02772 -94.934688 
L 177.179519 -94.934688 
L 177.331319 -94.934688 
L 177.483119 -94.934688 
L 177.634919 -94.934688 
L 177.786718 -94.934688 
L 177.938518 -94.934688 
L 177.938518 -94.947794 
L 177.938518 -94.947794 
L 177.786718 -94.951728 
L 177.634919 -94.955915 
L 177.483119 -94.960087 
L 177.331319 -94.963967 
L 177.179519 -94.967322 
L 177.02772 -94.970006 
L 176.87592 -94.971989 
L 176.72412 -94.973347 
L 176.572321 -94.974243 
L 176.420521 -94.974886 
L 176.268721 -94.975507 
L 176.116921 -94.976354 
L 175.965122 -94.977713 
L 175.813322 -94.979955 
L 175.661522 -94.983593 
L 175.509722 -94.989306 
L 175.357923 -94.997925 
L 175.206123 -95.010346 
L 175.054323 -95.027376 
L 174.902524 -95.049543 
L 174.750724 -95.076923 
L 174.598924 -95.109051 
L 174.447124 -95.144967 
L 174.295325 -95.18343 
L 174.143525 -95.223238 
L 173.991725 -95.263588 
L 173.839926 -95.304357 
L 173.688126 -95.346195 
L 173.536326 -95.39042 
L 173.384526 -95.438716 
L 173.232727 -95.492765 
L 173.080927 -95.553888 
L 172.929127 -95.622793 
L 172.777328 -95.699441 
L 172.625528 -95.783012 
L 172.473728 -95.871958 
L 172.321928 -95.964136 
L 172.170129 -96.057099 
L 172.018329 -96.148563 
L 171.866529 -96.237045 
L 171.71473 -96.322548 
L 171.56293 -96.40708 
L 171.41113 -96.494795 
L 171.25933 -96.591616 
L 171.107531 -96.70437 
L 170.955731 -96.839597 
L 170.803931 -97.002336 
L 170.652131 -97.19517 
L 170.500332 -97.417773 
L 170.348532 -97.667073 
L 170.196732 -97.937962 
L 170.044933 -98.224403 
L 169.893133 -98.520637 
L 169.741333 -98.822208 
L 169.589533 -99.126544 
L 169.437734 -99.433 
L 169.285934 -99.742381 
L 169.134134 -100.05617 
L 168.982335 -100.375742 
L 168.830535 -100.701871 
L 168.678735 -101.034714 
L 168.526935 -101.374274 
L 168.375136 -101.721152 
L 168.223336 -102.077289 
L 168.071536 -102.446358 
L 167.919737 -102.833597 
L 167.767937 -103.245007 
L 167.616137 -103.686002 
L 167.464337 -104.159722 
L 167.312538 -104.665369 
L 167.160738 -105.196981 
L 167.008938 -105.743103 
L 166.857139 -106.287699 
L 166.705339 -106.812348 
L 166.553539 -107.299369 
L 166.401739 -107.735168 
L 166.24994 -108.112944 
L 166.09814 -108.43405 
L 165.94634 -108.707691 
L 165.79454 -108.949071 
L 165.642741 -109.176496 
L 165.490941 -109.408047 
L 165.339141 -109.658445 
L 165.187342 -109.936635 
L 165.035542 -110.244467 
L 164.883742 -110.576722 
L 164.731942 -110.922513 
L 164.580143 -111.267796 
L 164.428343 -111.59845 
L 164.276543 -111.903136 
L 164.124744 -112.175207 
L 163.972944 -112.413158 
L 163.821144 -112.619637 
L 163.669344 -112.799472 
L 163.517545 -112.957456 
L 163.365745 -113.096612 
L 163.213945 -113.217331 
L 163.062146 -113.317395 
L 162.910346 -113.392588 
L 162.758546 -113.437545 
L 162.606746 -113.4466 
L 162.454947 -113.414547 
L 162.303147 -113.337327 
L 162.151347 -113.212596 
L 161.999547 -113.040073 
L 161.847748 -112.821572 
L 161.695948 -112.560705 
L 161.544148 -112.262421 
L 161.392349 -111.932571 
L 161.240549 -111.577599 
L 161.088749 -111.20426 
L 160.936949 -110.81911 
L 160.78515 -110.427606 
L 160.63335 -110.032907 
L 160.48155 -109.63486 
L 160.329751 -109.229767 
L 160.177951 -108.811361 
L 160.026151 -108.372929 
L 159.874351 -107.909888 
L 159.722552 -107.421884 
L 159.570752 -106.913536 
L 159.418952 -106.393542 
L 159.267153 -105.872539 
L 159.115353 -105.360587 
L 158.963553 -104.865234 
L 158.811753 -104.39072 
L 158.659954 -103.938345 
L 158.508154 -103.507527 
L 158.356354 -103.096908 
L 158.204555 -102.705076 
L 158.052755 -102.330763 
L 157.900955 -101.972727 
L 157.749155 -101.629611 
L 157.597356 -101.299977 
L 157.445556 -100.982548 
L 157.293756 -100.676479 
L 157.141956 -100.381458 
L 156.990157 -100.097504 
L 156.838357 -99.824473 
L 156.686557 -99.561492 
L 156.534758 -99.306588 
L 156.382958 -99.056781 
L 156.231158 -98.808685 
L 156.079358 -98.559485 
L 155.927559 -98.307901 
L 155.775759 -98.054794 
L 155.623959 -97.803142 
L 155.47216 -97.557414 
L 155.32036 -97.32256 
L 155.16856 -97.102965 
L 155.01676 -96.901657 
L 154.864961 -96.71994 
L 154.713161 -96.557452 
L 154.561361 -96.412529 
L 154.409562 -96.282731 
L 154.257762 -96.165366 
L 154.105962 -96.057933 
L 153.954162 -95.958413 
L 153.802363 -95.86542 
L 153.650563 -95.778224 
L 153.498763 -95.696685 
L 153.346964 -95.621123 
L 153.195164 -95.55214 
L 153.043364 -95.49041 
L 152.891564 -95.436469 
L 152.739765 -95.390514 
L 152.587965 -95.352261 
L 152.436165 -95.320873 
L 152.284365 -95.294986 
L 152.132566 -95.272836 
L 151.980766 -95.252475 
L 151.828966 -95.232059 
L 151.677167 -95.210138 
L 151.525367 -95.185895 
L 151.373567 -95.159256 
L 151.221767 -95.130843 
L 151.069968 -95.101774 
L 150.918168 -95.073365 
L 150.766368 -95.046849 
L 150.614569 -95.023152 
L 150.462769 -95.002806 
L 150.310969 -94.985968 
L 150.159169 -94.972513 
L 150.00737 -94.962156 
L 149.85557 -94.954544 
L 149.70377 -94.949323 
L 149.551971 -94.946153 
L 149.400171 -94.944705 
L 149.248371 -94.94464 
L 149.096571 -94.945586 
L 148.944772 -94.947137 
L 148.792972 -94.948865 
L 148.641172 -94.95036 
L 148.489372 -94.951281 
L 148.337573 -94.95141 
L 148.185773 -94.950682 
L 148.033973 -94.949188 
L 147.882174 -94.947141 
L 147.730374 -94.944818 
z
" style="stroke: #2a788e; stroke-width: 1.25"/>
    </defs>
    <g>
     <use xlink:href="#mae9983f44e" x="0" y="174.899688" style="fill: #2a788e; fill-opacity: 0.7; stroke: #2a788e; stroke-width: 1.25"/>
    </g>
   </g>
   <g id="line2d_4">
    <path d="M 7.2 79.965 
L 216.45 79.965 
" style="fill: none; stroke: #2a788e; stroke-opacity: 0.9; stroke-linecap: round"/>
   </g>
   <g id="text_4">
    <!-- 3 -->
    <g style="fill: #2a788e" transform="translate(7.2 79.11825) scale(0.12 -0.12)">
     <defs>
      <path id="DejaVuSans-Bold-33" d="M 2981 2516 
Q 3453 2394 3698 2092 
Q 3944 1791 3944 1325 
Q 3944 631 3412 270 
Q 2881 -91 1863 -91 
Q 1503 -91 1142 -33 
Q 781 25 428 141 
L 428 1069 
Q 766 900 1098 814 
Q 1431 728 1753 728 
Q 2231 728 2486 893 
Q 2741 1059 2741 1369 
Q 2741 1688 2480 1852 
Q 2219 2016 1709 2016 
L 1228 2016 
L 1228 2791 
L 1734 2791 
Q 2188 2791 2409 2933 
Q 2631 3075 2631 3366 
Q 2631 3634 2415 3781 
Q 2200 3928 1806 3928 
Q 1516 3928 1219 3862 
Q 922 3797 628 3669 
L 628 4550 
Q 984 4650 1334 4700 
Q 1684 4750 2022 4750 
Q 2931 4750 3382 4451 
Q 3834 4153 3834 3553 
Q 3834 3144 3618 2883 
Q 3403 2622 2981 2516 
z
" transform="scale(0.015625)"/>
     </defs>
     <use xlink:href="#DejaVuSans-Bold-33"/>
    </g>
   </g>
  </g>
  <g id="axes_5">
   <g id="patch_6">
    <path d="M 7.2 90.36 
L 216.45 90.36 
L 216.45 48.78 
L 7.2 48.78 
L 7.2 90.36 
z
" style="fill: none"/>
   </g>
   <g id="matplotlib.axis_9">
    <g id="xtick_17"/>
    <g id="xtick_18"/>
    <g id="xtick_19"/>
    <g id="xtick_20"/>
   </g>
   <g id="matplotlib.axis_10"/>
   <g id="PolyCollection_4">
    <defs>
     <path id="mf4332c0e57" d="M 163.401772 -84.550751 
L 163.401772 -84.539688 
L 163.62055 -84.539688 
L 163.839328 -84.539688 
L 164.058107 -84.539688 
L 164.276885 -84.539688 
L 164.495663 -84.539688 
L 164.714441 -84.539688 
L 164.933219 -84.539688 
L 165.151998 -84.539688 
L 165.370776 -84.539688 
L 165.589554 -84.539688 
L 165.808332 -84.539688 
L 166.02711 -84.539688 
L 166.245889 -84.539688 
L 166.464667 -84.539688 
L 166.683445 -84.539688 
L 166.902223 -84.539688 
L 167.121002 -84.539688 
L 167.33978 -84.539688 
L 167.558558 -84.539688 
L 167.777336 -84.539688 
L 167.996114 -84.539688 
L 168.214893 -84.539688 
L 168.433671 -84.539688 
L 168.652449 -84.539688 
L 168.871227 -84.539688 
L 169.090005 -84.539688 
L 169.308784 -84.539688 
L 169.527562 -84.539688 
L 169.74634 -84.539688 
L 169.965118 -84.539688 
L 170.183897 -84.539688 
L 170.402675 -84.539688 
L 170.621453 -84.539688 
L 170.840231 -84.539688 
L 171.059009 -84.539688 
L 171.277788 -84.539688 
L 171.496566 -84.539688 
L 171.715344 -84.539688 
L 171.934122 -84.539688 
L 172.1529 -84.539688 
L 172.371679 -84.539688 
L 172.590457 -84.539688 
L 172.809235 -84.539688 
L 173.028013 -84.539688 
L 173.246791 -84.539688 
L 173.46557 -84.539688 
L 173.684348 -84.539688 
L 173.903126 -84.539688 
L 174.121904 -84.539688 
L 174.340683 -84.539688 
L 174.559461 -84.539688 
L 174.778239 -84.539688 
L 174.997017 -84.539688 
L 175.215795 -84.539688 
L 175.434574 -84.539688 
L 175.653352 -84.539688 
L 175.87213 -84.539688 
L 176.090908 -84.539688 
L 176.309686 -84.539688 
L 176.528465 -84.539688 
L 176.747243 -84.539688 
L 176.966021 -84.539688 
L 177.184799 -84.539688 
L 177.403578 -84.539688 
L 177.622356 -84.539688 
L 177.841134 -84.539688 
L 178.059912 -84.539688 
L 178.27869 -84.539688 
L 178.497469 -84.539688 
L 178.716247 -84.539688 
L 178.935025 -84.539688 
L 179.153803 -84.539688 
L 179.372581 -84.539688 
L 179.59136 -84.539688 
L 179.810138 -84.539688 
L 180.028916 -84.539688 
L 180.247694 -84.539688 
L 180.466473 -84.539688 
L 180.685251 -84.539688 
L 180.904029 -84.539688 
L 181.122807 -84.539688 
L 181.341585 -84.539688 
L 181.560364 -84.539688 
L 181.779142 -84.539688 
L 181.99792 -84.539688 
L 182.216698 -84.539688 
L 182.435476 -84.539688 
L 182.654255 -84.539688 
L 182.873033 -84.539688 
L 183.091811 -84.539688 
L 183.310589 -84.539688 
L 183.529368 -84.539688 
L 183.748146 -84.539688 
L 183.966924 -84.539688 
L 184.185702 -84.539688 
L 184.40448 -84.539688 
L 184.623259 -84.539688 
L 184.842037 -84.539688 
L 185.060815 -84.539688 
L 185.279593 -84.539688 
L 185.498371 -84.539688 
L 185.71715 -84.539688 
L 185.935928 -84.539688 
L 186.154706 -84.539688 
L 186.373484 -84.539688 
L 186.592263 -84.539688 
L 186.811041 -84.539688 
L 187.029819 -84.539688 
L 187.248597 -84.539688 
L 187.467375 -84.539688 
L 187.686154 -84.539688 
L 187.904932 -84.539688 
L 188.12371 -84.539688 
L 188.342488 -84.539688 
L 188.561266 -84.539688 
L 188.780045 -84.539688 
L 188.998823 -84.539688 
L 189.217601 -84.539688 
L 189.436379 -84.539688 
L 189.655158 -84.539688 
L 189.873936 -84.539688 
L 190.092714 -84.539688 
L 190.311492 -84.539688 
L 190.53027 -84.539688 
L 190.749049 -84.539688 
L 190.967827 -84.539688 
L 191.186605 -84.539688 
L 191.405383 -84.539688 
L 191.624161 -84.539688 
L 191.84294 -84.539688 
L 192.061718 -84.539688 
L 192.280496 -84.539688 
L 192.499274 -84.539688 
L 192.718052 -84.539688 
L 192.936831 -84.539688 
L 193.155609 -84.539688 
L 193.374387 -84.539688 
L 193.593165 -84.539688 
L 193.811944 -84.539688 
L 194.030722 -84.539688 
L 194.2495 -84.539688 
L 194.468278 -84.539688 
L 194.687056 -84.539688 
L 194.905835 -84.539688 
L 195.124613 -84.539688 
L 195.343391 -84.539688 
L 195.562169 -84.539688 
L 195.780947 -84.539688 
L 195.999726 -84.539688 
L 196.218504 -84.539688 
L 196.437282 -84.539688 
L 196.65606 -84.539688 
L 196.874839 -84.539688 
L 197.093617 -84.539688 
L 197.312395 -84.539688 
L 197.531173 -84.539688 
L 197.749951 -84.539688 
L 197.96873 -84.539688 
L 198.187508 -84.539688 
L 198.406286 -84.539688 
L 198.625064 -84.539688 
L 198.843842 -84.539688 
L 199.062621 -84.539688 
L 199.281399 -84.539688 
L 199.500177 -84.539688 
L 199.718955 -84.539688 
L 199.937734 -84.539688 
L 200.156512 -84.539688 
L 200.37529 -84.539688 
L 200.594068 -84.539688 
L 200.812846 -84.539688 
L 201.031625 -84.539688 
L 201.250403 -84.539688 
L 201.469181 -84.539688 
L 201.687959 -84.539688 
L 201.906737 -84.539688 
L 202.125516 -84.539688 
L 202.344294 -84.539688 
L 202.563072 -84.539688 
L 202.78185 -84.539688 
L 203.000629 -84.539688 
L 203.219407 -84.539688 
L 203.438185 -84.539688 
L 203.656963 -84.539688 
L 203.875741 -84.539688 
L 204.09452 -84.539688 
L 204.313298 -84.539688 
L 204.532076 -84.539688 
L 204.750854 -84.539688 
L 204.969632 -84.539688 
L 205.188411 -84.539688 
L 205.407189 -84.539688 
L 205.625967 -84.539688 
L 205.844745 -84.539688 
L 206.063524 -84.539688 
L 206.282302 -84.539688 
L 206.50108 -84.539688 
L 206.719858 -84.539688 
L 206.938636 -84.539688 
L 206.938636 -84.546499 
L 206.938636 -84.546499 
L 206.719858 -84.548025 
L 206.50108 -84.549399 
L 206.282302 -84.550469 
L 206.063524 -84.551127 
L 205.844745 -84.551353 
L 205.625967 -84.551239 
L 205.407189 -84.550996 
L 205.188411 -84.550939 
L 204.969632 -84.55145 
L 204.750854 -84.552936 
L 204.532076 -84.555775 
L 204.313298 -84.560276 
L 204.09452 -84.566644 
L 203.875741 -84.574961 
L 203.656963 -84.585182 
L 203.438185 -84.597142 
L 203.219407 -84.610572 
L 203.000629 -84.62512 
L 202.78185 -84.64037 
L 202.563072 -84.655857 
L 202.344294 -84.671094 
L 202.125516 -84.68559 
L 201.906737 -84.698902 
L 201.687959 -84.710682 
L 201.469181 -84.720746 
L 201.250403 -84.729145 
L 201.031625 -84.736217 
L 200.812846 -84.742618 
L 200.594068 -84.749309 
L 200.37529 -84.75748 
L 200.156512 -84.768443 
L 199.937734 -84.783472 
L 199.718955 -84.803661 
L 199.500177 -84.829798 
L 199.281399 -84.862318 
L 199.062621 -84.901315 
L 198.843842 -84.946632 
L 198.625064 -84.997961 
L 198.406286 -85.054946 
L 198.187508 -85.117238 
L 197.96873 -85.184503 
L 197.749951 -85.25641 
L 197.531173 -85.332633 
L 197.312395 -85.412901 
L 197.093617 -85.497103 
L 196.874839 -85.585404 
L 196.65606 -85.678338 
L 196.437282 -85.776819 
L 196.218504 -85.882042 
L 195.999726 -85.995301 
L 195.780947 -86.11776 
L 195.562169 -86.250226 
L 195.343391 -86.392974 
L 195.124613 -86.545641 
L 194.905835 -86.707227 
L 194.687056 -86.876184 
L 194.468278 -87.050626 
L 194.2495 -87.228615 
L 194.030722 -87.408498 
L 193.811944 -87.58924 
L 193.593165 -87.770686 
L 193.374387 -87.953687 
L 193.155609 -88.140083 
L 192.936831 -88.332505 
L 192.718052 -88.534063 
L 192.499274 -88.747973 
L 192.280496 -88.977207 
L 192.061718 -89.22423 
L 191.84294 -89.490831 
L 191.624161 -89.778015 
L 191.405383 -90.08587 
L 191.186605 -90.413352 
L 190.967827 -90.758006 
L 190.749049 -91.115717 
L 190.53027 -91.480651 
L 190.311492 -91.845539 
L 190.092714 -92.202354 
L 189.873936 -92.543295 
L 189.655158 -92.861879 
L 189.436379 -93.153889 
L 189.217601 -93.41795 
L 188.998823 -93.655666 
L 188.780045 -93.871298 
L 188.561266 -94.071099 
L 188.342488 -94.262409 
L 188.12371 -94.452596 
L 187.904932 -94.647929 
L 187.686154 -94.852493 
L 187.467375 -95.06731 
L 187.248597 -95.289904 
L 187.029819 -95.514487 
L 186.811041 -95.732863 
L 186.592263 -95.935895 
L 186.373484 -96.115223 
L 186.154706 -96.264754 
L 185.935928 -96.381562 
L 185.71715 -96.465975 
L 185.498371 -96.520927 
L 185.279593 -96.550866 
L 185.060815 -96.560571 
L 184.842037 -96.554218 
L 184.623259 -96.534821 
L 184.40448 -96.504051 
L 184.185702 -96.462329 
L 183.966924 -96.409091 
L 183.748146 -96.343184 
L 183.529368 -96.263379 
L 183.310589 -96.169001 
L 183.091811 -96.060569 
L 182.873033 -95.940257 
L 182.654255 -95.811972 
L 182.435476 -95.680897 
L 182.216698 -95.552501 
L 181.99792 -95.431222 
L 181.779142 -95.31916 
L 181.560364 -95.215153 
L 181.341585 -95.114532 
L 181.122807 -95.009698 
L 180.904029 -94.891406 
L 180.685251 -94.750507 
L 180.466473 -94.57969 
L 180.247694 -94.374819 
L 180.028916 -94.135516 
L 179.810138 -93.864896 
L 179.59136 -93.568593 
L 179.372581 -93.253417 
L 179.153803 -92.926045 
L 178.935025 -92.592106 
L 178.716247 -92.255802 
L 178.497469 -91.920016 
L 178.27869 -91.586725 
L 178.059912 -91.257458 
L 177.841134 -90.93364 
L 177.622356 -90.61675 
L 177.403578 -90.308361 
L 177.184799 -90.010115 
L 176.966021 -89.723707 
L 176.747243 -89.450816 
L 176.528465 -89.192923 
L 176.309686 -88.950986 
L 176.090908 -88.725023 
L 175.87213 -88.513767 
L 175.653352 -88.314597 
L 175.434574 -88.123853 
L 175.215795 -87.937491 
L 174.997017 -87.751918 
L 174.778239 -87.564712 
L 174.559461 -87.375041 
L 174.340683 -87.183649 
L 174.121904 -86.992485 
L 173.903126 -86.804121 
L 173.684348 -86.621159 
L 173.46557 -86.445784 
L 173.246791 -86.279548 
L 173.028013 -86.123375 
L 172.809235 -85.977724 
L 172.590457 -85.842819 
L 172.371679 -85.718844 
L 172.1529 -85.606048 
L 171.934122 -85.504722 
L 171.715344 -85.415084 
L 171.496566 -85.337096 
L 171.277788 -85.270294 
L 171.059009 -85.213685 
L 170.840231 -85.165752 
L 170.621453 -85.124578 
L 170.402675 -85.088086 
L 170.183897 -85.054334 
L 169.965118 -85.021798 
L 169.74634 -84.98957 
L 169.527562 -84.957402 
L 169.308784 -84.925597 
L 169.090005 -84.894769 
L 168.871227 -84.865555 
L 168.652449 -84.838381 
L 168.433671 -84.81333 
L 168.214893 -84.790167 
L 167.996114 -84.768462 
L 167.777336 -84.747762 
L 167.558558 -84.727744 
L 167.33978 -84.708292 
L 167.121002 -84.689491 
L 166.902223 -84.671566 
L 166.683445 -84.654795 
L 166.464667 -84.639436 
L 166.245889 -84.625685 
L 166.02711 -84.613657 
L 165.808332 -84.603377 
L 165.589554 -84.594782 
L 165.370776 -84.58771 
L 165.151998 -84.581912 
L 164.933219 -84.577071 
L 164.714441 -84.572852 
L 164.495663 -84.568953 
L 164.276885 -84.565164 
L 164.058107 -84.56139 
L 163.839328 -84.557654 
L 163.62055 -84.55406 
L 163.401772 -84.550751 
z
" style="stroke: #21918c; stroke-width: 1.25"/>
    </defs>
    <g>
     <use xlink:href="#mf4332c0e57" x="0" y="174.899688" style="fill: #21918c; fill-opacity: 0.7; stroke: #21918c; stroke-width: 1.25"/>
    </g>
   </g>
   <g id="line2d_5">
    <path d="M 7.2 90.36 
L 216.45 90.36 
" style="fill: none; stroke: #21918c; stroke-opacity: 0.9; stroke-linecap: round"/>
   </g>
   <g id="text_5">
    <!-- 4 -->
    <g style="fill: #21918c" transform="translate(7.2 89.51325) scale(0.12 -0.12)">
     <defs>
      <path id="DejaVuSans-Bold-34" d="M 2356 3675 
L 1038 1722 
L 2356 1722 
L 2356 3675 
z
M 2156 4666 
L 3494 4666 
L 3494 1722 
L 4159 1722 
L 4159 850 
L 3494 850 
L 3494 0 
L 2356 0 
L 2356 850 
L 288 850 
L 288 1881 
L 2156 4666 
z
" transform="scale(0.015625)"/>
     </defs>
     <use xlink:href="#DejaVuSans-Bold-34"/>
    </g>
   </g>
  </g>
  <g id="axes_6">
   <g id="patch_7">
    <path d="M 7.2 100.755 
L 216.45 100.755 
L 216.45 59.175 
L 7.2 59.175 
L 7.2 100.755 
z
" style="fill: none"/>
   </g>
   <g id="matplotlib.axis_11">
    <g id="xtick_21"/>
    <g id="xtick_22"/>
    <g id="xtick_23"/>
    <g id="xtick_24"/>
   </g>
   <g id="matplotlib.axis_12"/>
   <g id="line2d_6">
    <path d="M 7.2 100.755 
L 216.45 100.755 
" style="fill: none; stroke: #482475; stroke-opacity: 0.9; stroke-linecap: round"/>
   </g>
   <g id="text_6">
    <!-- 5 -->
    <g style="fill: #482475" transform="translate(7.2 99.90825) scale(0.12 -0.12)">
     <defs>
      <path id="DejaVuSans-Bold-35" d="M 678 4666 
L 3669 4666 
L 3669 3781 
L 1638 3781 
L 1638 3059 
Q 1775 3097 1914 3117 
Q 2053 3138 2203 3138 
Q 3056 3138 3531 2711 
Q 4006 2284 4006 1522 
Q 4006 766 3489 337 
Q 2972 -91 2053 -91 
Q 1656 -91 1267 -14 
Q 878 63 494 219 
L 494 1166 
Q 875 947 1217 837 
Q 1559 728 1863 728 
Q 2300 728 2551 942 
Q 2803 1156 2803 1522 
Q 2803 1891 2551 2103 
Q 2300 2316 1863 2316 
Q 1603 2316 1309 2248 
Q 1016 2181 678 2041 
L 678 4666 
z
" transform="scale(0.015625)"/>
     </defs>
     <use xlink:href="#DejaVuSans-Bold-35"/>
    </g>
   </g>
  </g>
  <g id="axes_7">
   <g id="patch_8">
    <path d="M 7.2 111.15 
L 216.45 111.15 
L 216.45 69.57 
L 7.2 69.57 
L 7.2 111.15 
z
" style="fill: none"/>
   </g>
   <g id="matplotlib.axis_13">
    <g id="xtick_25"/>
    <g id="xtick_26"/>
    <g id="xtick_27"/>
    <g id="xtick_28"/>
   </g>
   <g id="matplotlib.axis_14"/>
   <g id="line2d_7">
    <path d="M 7.2 111.15 
L 216.45 111.15 
" style="fill: none; stroke: #482475; stroke-opacity: 0.9; stroke-linecap: round"/>
   </g>
   <g id="text_7">
    <!-- 6 -->
    <g style="fill: #482475" transform="translate(7.2 110.30325) scale(0.12 -0.12)">
     <defs>
      <path id="DejaVuSans-Bold-36" d="M 2316 2303 
Q 2000 2303 1842 2098 
Q 1684 1894 1684 1484 
Q 1684 1075 1842 870 
Q 2000 666 2316 666 
Q 2634 666 2792 870 
Q 2950 1075 2950 1484 
Q 2950 1894 2792 2098 
Q 2634 2303 2316 2303 
z
M 3803 4544 
L 3803 3681 
Q 3506 3822 3243 3889 
Q 2981 3956 2731 3956 
Q 2194 3956 1894 3657 
Q 1594 3359 1544 2772 
Q 1750 2925 1990 3001 
Q 2231 3078 2516 3078 
Q 3231 3078 3670 2659 
Q 4109 2241 4109 1563 
Q 4109 813 3618 361 
Q 3128 -91 2303 -91 
Q 1394 -91 895 523 
Q 397 1138 397 2266 
Q 397 3422 980 4083 
Q 1563 4744 2578 4744 
Q 2900 4744 3203 4694 
Q 3506 4644 3803 4544 
z
" transform="scale(0.015625)"/>
     </defs>
     <use xlink:href="#DejaVuSans-Bold-36"/>
    </g>
   </g>
  </g>
  <g id="axes_8">
   <g id="patch_9">
    <path d="M 7.2 121.545 
L 216.45 121.545 
L 216.45 79.965 
L 7.2 79.965 
L 7.2 121.545 
z
" style="fill: none"/>
   </g>
   <g id="matplotlib.axis_15">
    <g id="xtick_29"/>
    <g id="xtick_30"/>
    <g id="xtick_31"/>
    <g id="xtick_32"/>
   </g>
   <g id="matplotlib.axis_16"/>
   <g id="line2d_8">
    <path d="M 7.2 121.545 
L 216.45 121.545 
" style="fill: none; stroke: #482475; stroke-opacity: 0.9; stroke-linecap: round"/>
   </g>
   <g id="text_8">
    <!-- 7 -->
    <g style="fill: #482475" transform="translate(7.2 120.69825) scale(0.12 -0.12)">
     <defs>
      <path id="DejaVuSans-Bold-37" d="M 428 4666 
L 3944 4666 
L 3944 3988 
L 2125 0 
L 953 0 
L 2675 3781 
L 428 3781 
L 428 4666 
z
" transform="scale(0.015625)"/>
     </defs>
     <use xlink:href="#DejaVuSans-Bold-37"/>
    </g>
   </g>
  </g>
  <g id="axes_9">
   <g id="patch_10">
    <path d="M 7.2 131.94 
L 216.45 131.94 
L 216.45 90.36 
L 7.2 90.36 
L 7.2 131.94 
z
" style="fill: none"/>
   </g>
   <g id="matplotlib.axis_17">
    <g id="xtick_33">
     <g id="text_9">
      <!-- 2 -->
      <g style="fill: #838383" transform="translate(31.721711 149.798281) scale(0.11 -0.11)">
       <defs>
        <path id="DejaVuSans-32" d="M 1228 531 
L 3431 531 
L 3431 0 
L 469 0 
L 469 531 
Q 828 903 1448 1529 
Q 2069 2156 2228 2338 
Q 2531 2678 2651 2914 
Q 2772 3150 2772 3378 
Q 2772 3750 2511 3984 
Q 2250 4219 1831 4219 
Q 1534 4219 1204 4116 
Q 875 4013 500 3803 
L 500 4441 
Q 881 4594 1212 4672 
Q 1544 4750 1819 4750 
Q 2544 4750 2975 4387 
Q 3406 4025 3406 3419 
Q 3406 3131 3298 2873 
Q 3191 2616 2906 2266 
Q 2828 2175 2409 1742 
Q 1991 1309 1228 531 
z
" transform="scale(0.015625)"/>
       </defs>
       <use xlink:href="#DejaVuSans-32"/>
      </g>
     </g>
    </g>
    <g id="xtick_34">
     <g id="text_10">
      <!-- 4 -->
      <g style="fill: #838383" transform="translate(86.010138 149.798281) scale(0.11 -0.11)">
       <defs>
        <path id="DejaVuSans-34" d="M 2419 4116 
L 825 1625 
L 2419 1625 
L 2419 4116 
z
M 2253 4666 
L 3047 4666 
L 3047 1625 
L 3713 1625 
L 3713 1100 
L 3047 1100 
L 3047 0 
L 2419 0 
L 2419 1100 
L 313 1100 
L 313 1709 
L 2253 4666 
z
" transform="scale(0.015625)"/>
       </defs>
       <use xlink:href="#DejaVuSans-34"/>
      </g>
     </g>
    </g>
    <g id="xtick_35">
     <g id="text_11">
      <!-- 6 -->
      <g style="fill: #838383" transform="translate(140.298565 149.798281) scale(0.11 -0.11)">
       <defs>
        <path id="DejaVuSans-36" d="M 2113 2584 
Q 1688 2584 1439 2293 
Q 1191 2003 1191 1497 
Q 1191 994 1439 701 
Q 1688 409 2113 409 
Q 2538 409 2786 701 
Q 3034 994 3034 1497 
Q 3034 2003 2786 2293 
Q 2538 2584 2113 2584 
z
M 3366 4563 
L 3366 3988 
Q 3128 4100 2886 4159 
Q 2644 4219 2406 4219 
Q 1781 4219 1451 3797 
Q 1122 3375 1075 2522 
Q 1259 2794 1537 2939 
Q 1816 3084 2150 3084 
Q 2853 3084 3261 2657 
Q 3669 2231 3669 1497 
Q 3669 778 3244 343 
Q 2819 -91 2113 -91 
Q 1303 -91 875 529 
Q 447 1150 447 2328 
Q 447 3434 972 4092 
Q 1497 4750 2381 4750 
Q 2619 4750 2861 4703 
Q 3103 4656 3366 4563 
z
" transform="scale(0.015625)"/>
       </defs>
       <use xlink:href="#DejaVuSans-36"/>
      </g>
     </g>
    </g>
    <g id="xtick_36">
     <g id="text_12">
      <!-- 8 -->
      <g style="fill: #838383" transform="translate(194.586992 149.798281) scale(0.11 -0.11)">
       <defs>
        <path id="DejaVuSans-38" d="M 2034 2216 
Q 1584 2216 1326 1975 
Q 1069 1734 1069 1313 
Q 1069 891 1326 650 
Q 1584 409 2034 409 
Q 2484 409 2743 651 
Q 3003 894 3003 1313 
Q 3003 1734 2745 1975 
Q 2488 2216 2034 2216 
z
M 1403 2484 
Q 997 2584 770 2862 
Q 544 3141 544 3541 
Q 544 4100 942 4425 
Q 1341 4750 2034 4750 
Q 2731 4750 3128 4425 
Q 3525 4100 3525 3541 
Q 3525 3141 3298 2862 
Q 3072 2584 2669 2484 
Q 3125 2378 3379 2068 
Q 3634 1759 3634 1313 
Q 3634 634 3220 271 
Q 2806 -91 2034 -91 
Q 1263 -91 848 271 
Q 434 634 434 1313 
Q 434 1759 690 2068 
Q 947 2378 1403 2484 
z
M 1172 3481 
Q 1172 3119 1398 2916 
Q 1625 2713 2034 2713 
Q 2441 2713 2670 2916 
Q 2900 3119 2900 3481 
Q 2900 3844 2670 4047 
Q 2441 4250 2034 4250 
Q 1625 4250 1398 4047 
Q 1172 3844 1172 3481 
z
" transform="scale(0.015625)"/>
       </defs>
       <use xlink:href="#DejaVuSans-38"/>
      </g>
     </g>
    </g>
    <g id="text_13">
     <!-- sldf -->
     <g style="fill: #262626" transform="translate(101.11125 165.204063) scale(0.12 -0.12)">
      <defs>
       <path id="DejaVuSans-73" d="M 2834 3397 
L 2834 2853 
Q 2591 2978 2328 3040 
Q 2066 3103 1784 3103 
Q 1356 3103 1142 2972 
Q 928 2841 928 2578 
Q 928 2378 1081 2264 
Q 1234 2150 1697 2047 
L 1894 2003 
Q 2506 1872 2764 1633 
Q 3022 1394 3022 966 
Q 3022 478 2636 193 
Q 2250 -91 1575 -91 
Q 1294 -91 989 -36 
Q 684 19 347 128 
L 347 722 
Q 666 556 975 473 
Q 1284 391 1588 391 
Q 1994 391 2212 530 
Q 2431 669 2431 922 
Q 2431 1156 2273 1281 
Q 2116 1406 1581 1522 
L 1381 1569 
Q 847 1681 609 1914 
Q 372 2147 372 2553 
Q 372 3047 722 3315 
Q 1072 3584 1716 3584 
Q 2034 3584 2315 3537 
Q 2597 3491 2834 3397 
z
" transform="scale(0.015625)"/>
       <path id="DejaVuSans-6c" d="M 603 4863 
L 1178 4863 
L 1178 0 
L 603 0 
L 603 4863 
z
" transform="scale(0.015625)"/>
       <path id="DejaVuSans-64" d="M 2906 2969 
L 2906 4863 
L 3481 4863 
L 3481 0 
L 2906 0 
L 2906 525 
Q 2725 213 2448 61 
Q 2172 -91 1784 -91 
Q 1150 -91 751 415 
Q 353 922 353 1747 
Q 353 2572 751 3078 
Q 1150 3584 1784 3584 
Q 2172 3584 2448 3432 
Q 2725 3281 2906 2969 
z
M 947 1747 
Q 947 1113 1208 752 
Q 1469 391 1925 391 
Q 2381 391 2643 752 
Q 2906 1113 2906 1747 
Q 2906 2381 2643 2742 
Q 2381 3103 1925 3103 
Q 1469 3103 1208 2742 
Q 947 2381 947 1747 
z
" transform="scale(0.015625)"/>
       <path id="DejaVuSans-66" d="M 2375 4863 
L 2375 4384 
L 1825 4384 
Q 1516 4384 1395 4259 
Q 1275 4134 1275 3809 
L 1275 3500 
L 2222 3500 
L 2222 3053 
L 1275 3053 
L 1275 0 
L 697 0 
L 697 3053 
L 147 3053 
L 147 3500 
L 697 3500 
L 697 3744 
Q 697 4328 969 4595 
Q 1241 4863 1831 4863 
L 2375 4863 
z
" transform="scale(0.015625)"/>
      </defs>
      <use xlink:href="#DejaVuSans-73"/>
      <use xlink:href="#DejaVuSans-6c" x="52.099609"/>
      <use xlink:href="#DejaVuSans-64" x="79.882812"/>
      <use xlink:href="#DejaVuSans-66" x="143.359375"/>
     </g>
    </g>
   </g>
   <g id="matplotlib.axis_18"/>
   <g id="line2d_9">
    <path d="M 7.2 131.94 
L 216.45 131.94 
" style="fill: none; stroke: #482475; stroke-opacity: 0.9; stroke-linecap: round"/>
   </g>
   <g id="text_14">
    <!-- 8 -->
    <g style="fill: #482475" transform="translate(7.2 131.09325) scale(0.12 -0.12)">
     <defs>
      <path id="DejaVuSans-Bold-38" d="M 2228 2088 
Q 1891 2088 1709 1903 
Q 1528 1719 1528 1375 
Q 1528 1031 1709 848 
Q 1891 666 2228 666 
Q 2563 666 2741 848 
Q 2919 1031 2919 1375 
Q 2919 1722 2741 1905 
Q 2563 2088 2228 2088 
z
M 1350 2484 
Q 925 2613 709 2878 
Q 494 3144 494 3541 
Q 494 4131 934 4440 
Q 1375 4750 2228 4750 
Q 3075 4750 3515 4442 
Q 3956 4134 3956 3541 
Q 3956 3144 3739 2878 
Q 3522 2613 3097 2484 
Q 3572 2353 3814 2058 
Q 4056 1763 4056 1313 
Q 4056 619 3595 264 
Q 3134 -91 2228 -91 
Q 1319 -91 855 264 
Q 391 619 391 1313 
Q 391 1763 633 2058 
Q 875 2353 1350 2484 
z
M 1631 3419 
Q 1631 3141 1786 2991 
Q 1941 2841 2228 2841 
Q 2509 2841 2662 2991 
Q 2816 3141 2816 3419 
Q 2816 3697 2662 3845 
Q 2509 3994 2228 3994 
Q 1941 3994 1786 3844 
Q 1631 3694 1631 3419 
z
" transform="scale(0.015625)"/>
     </defs>
     <use xlink:href="#DejaVuSans-Bold-38"/>
    </g>
   </g>
  </g>
 </g>
</svg>
