<?xml version="1.0" encoding="utf-8" standalone="no"?>
<!DOCTYPE svg PUBLIC "-//W3C//DTD SVG 1.1//EN"
  "http://www.w3.org/Graphics/SVG/1.1/DTD/svg11.dtd">
<svg xmlns:xlink="http://www.w3.org/1999/xlink" width="322.521689pt" height="234.534474pt" viewBox="0 0 322.521689 234.534474" xmlns="http://www.w3.org/2000/svg" version="1.1">
 <metadata>
  <rdf:RDF xmlns:dc="http://purl.org/dc/elements/1.1/" xmlns:cc="http://creativecommons.org/ns#" xmlns:rdf="http://www.w3.org/1999/02/22-rdf-syntax-ns#">
   <cc:Work>
    <dc:type rdf:resource="http://purl.org/dc/dcmitype/StillImage"/>
    <dc:date>2023-12-05T11:52:20.110894</dc:date>
    <dc:format>image/svg+xml</dc:format>
    <dc:creator>
     <cc:Agent>
      <dc:title>Matplotlib v3.8.2, https://matplotlib.org/</dc:title>
     </cc:Agent>
    </dc:creator>
   </cc:Work>
  </rdf:RDF>
 </metadata>
 <defs>
  <style type="text/css">*{stroke-linejoin: round; stroke-linecap: butt}</style>
 </defs>
 <g id="figure_1">
  <g id="patch_1">
   <path d="M 0 234.534474 
L 322.521689 234.534474 
L 322.521689 0 
L 0 0 
L 0 234.534474 
z
" style="fill: none"/>
  </g>
  <g id="axes_1">
   <g id="patch_2">
    <path d="M 46.714063 192.009865 
L 313.090152 192.009865 
L 313.090152 28.442513 
L 46.714063 28.442513 
L 46.714063 192.009865 
z
" style="fill: none"/>
   </g>
   <g id="matplotlib.axis_1">
    <g id="xtick_1">
     <g id="line2d_1">
      <path d="M 58.822067 192.009865 
L 58.822067 28.442513 
" clip-path="url(#p4be0fe4a78)" style="fill: none; stroke: #cccccc; stroke-opacity: 0.2; stroke-width: 0.4; stroke-linecap: round"/>
     </g>
     <g id="text_1">
      <!-- 0 -->
      <g style="fill: #838383" transform="translate(54.447848 205.957716) scale(0.1375 -0.1375)">
       <defs>
        <path id="DejaVuSans-30" d="M 2034 4250 
Q 1547 4250 1301 3770 
Q 1056 3291 1056 2328 
Q 1056 1369 1301 889 
Q 1547 409 2034 409 
Q 2525 409 2770 889 
Q 3016 1369 3016 2328 
Q 3016 3291 2770 3770 
Q 2525 4250 2034 4250 
z
M 2034 4750 
Q 2819 4750 3233 4129 
Q 3647 3509 3647 2328 
Q 3647 1150 3233 529 
Q 2819 -91 2034 -91 
Q 1250 -91 836 529 
Q 422 1150 422 2328 
Q 422 3509 836 4129 
Q 1250 4750 2034 4750 
z
" transform="scale(0.015625)"/>
       </defs>
       <use xlink:href="#DejaVuSans-30"/>
      </g>
     </g>
    </g>
    <g id="xtick_2">
     <g id="line2d_2">
      <path d="M 119.666308 192.009865 
L 119.666308 28.442513 
" clip-path="url(#p4be0fe4a78)" style="fill: none; stroke: #cccccc; stroke-opacity: 0.2; stroke-width: 0.4; stroke-linecap: round"/>
     </g>
     <g id="text_2">
      <!-- 50 -->
      <g style="fill: #838383" transform="translate(110.917871 205.957716) scale(0.1375 -0.1375)">
       <defs>
        <path id="DejaVuSans-35" d="M 691 4666 
L 3169 4666 
L 3169 4134 
L 1269 4134 
L 1269 2991 
Q 1406 3038 1543 3061 
Q 1681 3084 1819 3084 
Q 2600 3084 3056 2656 
Q 3513 2228 3513 1497 
Q 3513 744 3044 326 
Q 2575 -91 1722 -91 
Q 1428 -91 1123 -41 
Q 819 9 494 109 
L 494 744 
Q 775 591 1075 516 
Q 1375 441 1709 441 
Q 2250 441 2565 725 
Q 2881 1009 2881 1497 
Q 2881 1984 2565 2268 
Q 2250 2553 1709 2553 
Q 1456 2553 1204 2497 
Q 953 2441 691 2322 
L 691 4666 
z
" transform="scale(0.015625)"/>
       </defs>
       <use xlink:href="#DejaVuSans-35"/>
       <use xlink:href="#DejaVuSans-30" x="63.623047"/>
      </g>
     </g>
    </g>
    <g id="xtick_3">
     <g id="line2d_3">
      <path d="M 180.51055 192.009865 
L 180.51055 28.442513 
" clip-path="url(#p4be0fe4a78)" style="fill: none; stroke: #cccccc; stroke-opacity: 0.2; stroke-width: 0.4; stroke-linecap: round"/>
     </g>
     <g id="text_3">
      <!-- 100 -->
      <g style="fill: #838383" transform="translate(167.387893 205.957716) scale(0.1375 -0.1375)">
       <defs>
        <path id="DejaVuSans-31" d="M 794 531 
L 1825 531 
L 1825 4091 
L 703 3866 
L 703 4441 
L 1819 4666 
L 2450 4666 
L 2450 531 
L 3481 531 
L 3481 0 
L 794 0 
L 794 531 
z
" transform="scale(0.015625)"/>
       </defs>
       <use xlink:href="#DejaVuSans-31"/>
       <use xlink:href="#DejaVuSans-30" x="63.623047"/>
       <use xlink:href="#DejaVuSans-30" x="127.246094"/>
      </g>
     </g>
    </g>
    <g id="xtick_4">
     <g id="line2d_4">
      <path d="M 241.354791 192.009865 
L 241.354791 28.442513 
" clip-path="url(#p4be0fe4a78)" style="fill: none; stroke: #cccccc; stroke-opacity: 0.2; stroke-width: 0.4; stroke-linecap: round"/>
     </g>
     <g id="text_4">
      <!-- 150 -->
      <g style="fill: #838383" transform="translate(228.232135 205.957716) scale(0.1375 -0.1375)">
       <use xlink:href="#DejaVuSans-31"/>
       <use xlink:href="#DejaVuSans-35" x="63.623047"/>
       <use xlink:href="#DejaVuSans-30" x="127.246094"/>
      </g>
     </g>
    </g>
    <g id="xtick_5">
     <g id="line2d_5">
      <path d="M 302.199033 192.009865 
L 302.199033 28.442513 
" clip-path="url(#p4be0fe4a78)" style="fill: none; stroke: #cccccc; stroke-opacity: 0.2; stroke-width: 0.4; stroke-linecap: round"/>
     </g>
     <g id="text_5">
      <!-- 200 -->
      <g style="fill: #838383" transform="translate(289.076377 205.957716) scale(0.1375 -0.1375)">
       <defs>
        <path id="DejaVuSans-32" d="M 1228 531 
L 3431 531 
L 3431 0 
L 469 0 
L 469 531 
Q 828 903 1448 1529 
Q 2069 2156 2228 2338 
Q 2531 2678 2651 2914 
Q 2772 3150 2772 3378 
Q 2772 3750 2511 3984 
Q 2250 4219 1831 4219 
Q 1534 4219 1204 4116 
Q 875 4013 500 3803 
L 500 4441 
Q 881 4594 1212 4672 
Q 1544 4750 1819 4750 
Q 2544 4750 2975 4387 
Q 3406 4025 3406 3419 
Q 3406 3131 3298 2873 
Q 3191 2616 2906 2266 
Q 2828 2175 2409 1742 
Q 1991 1309 1228 531 
z
" transform="scale(0.015625)"/>
       </defs>
       <use xlink:href="#DejaVuSans-32"/>
       <use xlink:href="#DejaVuSans-30" x="63.623047"/>
       <use xlink:href="#DejaVuSans-30" x="127.246094"/>
      </g>
     </g>
    </g>
    <g id="text_6">
     <!-- draw -->
     <g style="fill: #838383" transform="translate(161.327889 224.214943) scale(0.15 -0.15)">
      <defs>
       <path id="DejaVuSans-64" d="M 2906 2969 
L 2906 4863 
L 3481 4863 
L 3481 0 
L 2906 0 
L 2906 525 
Q 2725 213 2448 61 
Q 2172 -91 1784 -91 
Q 1150 -91 751 415 
Q 353 922 353 1747 
Q 353 2572 751 3078 
Q 1150 3584 1784 3584 
Q 2172 3584 2448 3432 
Q 2725 3281 2906 2969 
z
M 947 1747 
Q 947 1113 1208 752 
Q 1469 391 1925 391 
Q 2381 391 2643 752 
Q 2906 1113 2906 1747 
Q 2906 2381 2643 2742 
Q 2381 3103 1925 3103 
Q 1469 3103 1208 2742 
Q 947 2381 947 1747 
z
" transform="scale(0.015625)"/>
       <path id="DejaVuSans-72" d="M 2631 2963 
Q 2534 3019 2420 3045 
Q 2306 3072 2169 3072 
Q 1681 3072 1420 2755 
Q 1159 2438 1159 1844 
L 1159 0 
L 581 0 
L 581 3500 
L 1159 3500 
L 1159 2956 
Q 1341 3275 1631 3429 
Q 1922 3584 2338 3584 
Q 2397 3584 2469 3576 
Q 2541 3569 2628 3553 
L 2631 2963 
z
" transform="scale(0.015625)"/>
       <path id="DejaVuSans-61" d="M 2194 1759 
Q 1497 1759 1228 1600 
Q 959 1441 959 1056 
Q 959 750 1161 570 
Q 1363 391 1709 391 
Q 2188 391 2477 730 
Q 2766 1069 2766 1631 
L 2766 1759 
L 2194 1759 
z
M 3341 1997 
L 3341 0 
L 2766 0 
L 2766 531 
Q 2569 213 2275 61 
Q 1981 -91 1556 -91 
Q 1019 -91 701 211 
Q 384 513 384 1019 
Q 384 1609 779 1909 
Q 1175 2209 1959 2209 
L 2766 2209 
L 2766 2266 
Q 2766 2663 2505 2880 
Q 2244 3097 1772 3097 
Q 1472 3097 1187 3025 
Q 903 2953 641 2809 
L 641 3341 
Q 956 3463 1253 3523 
Q 1550 3584 1831 3584 
Q 2591 3584 2966 3190 
Q 3341 2797 3341 1997 
z
" transform="scale(0.015625)"/>
       <path id="DejaVuSans-77" d="M 269 3500 
L 844 3500 
L 1563 769 
L 2278 3500 
L 2956 3500 
L 3675 769 
L 4391 3500 
L 4966 3500 
L 4050 0 
L 3372 0 
L 2619 2869 
L 1863 0 
L 1184 0 
L 269 3500 
z
" transform="scale(0.015625)"/>
      </defs>
      <use xlink:href="#DejaVuSans-64"/>
      <use xlink:href="#DejaVuSans-72" x="63.476562"/>
      <use xlink:href="#DejaVuSans-61" x="104.589844"/>
      <use xlink:href="#DejaVuSans-77" x="165.869141"/>
     </g>
    </g>
   </g>
   <g id="matplotlib.axis_2">
    <g id="ytick_1">
     <g id="line2d_6">
      <path d="M 46.714063 186.076128 
L 313.090152 186.076128 
" clip-path="url(#p4be0fe4a78)" style="fill: none; stroke: #cccccc; stroke-opacity: 0.2; stroke-width: 0.4; stroke-linecap: round"/>
     </g>
     <g id="text_7">
      <!-- 45 -->
      <g style="fill: #838383" transform="translate(25.717188 191.300054) scale(0.1375 -0.1375)">
       <defs>
        <path id="DejaVuSans-34" d="M 2419 4116 
L 825 1625 
L 2419 1625 
L 2419 4116 
z
M 2253 4666 
L 3047 4666 
L 3047 1625 
L 3713 1625 
L 3713 1100 
L 3047 1100 
L 3047 0 
L 2419 0 
L 2419 1100 
L 313 1100 
L 313 1709 
L 2253 4666 
z
" transform="scale(0.015625)"/>
       </defs>
       <use xlink:href="#DejaVuSans-34"/>
       <use xlink:href="#DejaVuSans-35" x="63.623047"/>
      </g>
     </g>
    </g>
    <g id="ytick_2">
     <g id="line2d_7">
      <path d="M 46.714063 149.194176 
L 313.090152 149.194176 
" clip-path="url(#p4be0fe4a78)" style="fill: none; stroke: #cccccc; stroke-opacity: 0.2; stroke-width: 0.4; stroke-linecap: round"/>
     </g>
     <g id="text_8">
      <!-- 50 -->
      <g style="fill: #838383" transform="translate(25.717188 154.418101) scale(0.1375 -0.1375)">
       <use xlink:href="#DejaVuSans-35"/>
       <use xlink:href="#DejaVuSans-30" x="63.623047"/>
      </g>
     </g>
    </g>
    <g id="ytick_3">
     <g id="line2d_8">
      <path d="M 46.714063 112.312223 
L 313.090152 112.312223 
" clip-path="url(#p4be0fe4a78)" style="fill: none; stroke: #cccccc; stroke-opacity: 0.2; stroke-width: 0.4; stroke-linecap: round"/>
     </g>
     <g id="text_9">
      <!-- 55 -->
      <g style="fill: #838383" transform="translate(25.717188 117.536149) scale(0.1375 -0.1375)">
       <use xlink:href="#DejaVuSans-35"/>
       <use xlink:href="#DejaVuSans-35" x="63.623047"/>
      </g>
     </g>
    </g>
    <g id="ytick_4">
     <g id="line2d_9">
      <path d="M 46.714063 75.430271 
L 313.090152 75.430271 
" clip-path="url(#p4be0fe4a78)" style="fill: none; stroke: #cccccc; stroke-opacity: 0.2; stroke-width: 0.4; stroke-linecap: round"/>
     </g>
     <g id="text_10">
      <!-- 60 -->
      <g style="fill: #838383" transform="translate(25.717188 80.654196) scale(0.1375 -0.1375)">
       <defs>
        <path id="DejaVuSans-36" d="M 2113 2584 
Q 1688 2584 1439 2293 
Q 1191 2003 1191 1497 
Q 1191 994 1439 701 
Q 1688 409 2113 409 
Q 2538 409 2786 701 
Q 3034 994 3034 1497 
Q 3034 2003 2786 2293 
Q 2538 2584 2113 2584 
z
M 3366 4563 
L 3366 3988 
Q 3128 4100 2886 4159 
Q 2644 4219 2406 4219 
Q 1781 4219 1451 3797 
Q 1122 3375 1075 2522 
Q 1259 2794 1537 2939 
Q 1816 3084 2150 3084 
Q 2853 3084 3261 2657 
Q 3669 2231 3669 1497 
Q 3669 778 3244 343 
Q 2819 -91 2113 -91 
Q 1303 -91 875 529 
Q 447 1150 447 2328 
Q 447 3434 972 4092 
Q 1497 4750 2381 4750 
Q 2619 4750 2861 4703 
Q 3103 4656 3366 4563 
z
" transform="scale(0.015625)"/>
       </defs>
       <use xlink:href="#DejaVuSans-36"/>
       <use xlink:href="#DejaVuSans-30" x="63.623047"/>
      </g>
     </g>
    </g>
    <g id="ytick_5">
     <g id="line2d_10">
      <path d="M 46.714063 38.548318 
L 313.090152 38.548318 
" clip-path="url(#p4be0fe4a78)" style="fill: none; stroke: #cccccc; stroke-opacity: 0.2; stroke-width: 0.4; stroke-linecap: round"/>
     </g>
     <g id="text_11">
      <!-- 65 -->
      <g style="fill: #838383" transform="translate(25.717188 43.772244) scale(0.1375 -0.1375)">
       <use xlink:href="#DejaVuSans-36"/>
       <use xlink:href="#DejaVuSans-35" x="63.623047"/>
      </g>
     </g>
    </g>
    <g id="text_12">
     <!-- loss -->
     <g style="fill: #838383" transform="translate(18.597656 124.712908) rotate(-90) scale(0.15 -0.15)">
      <defs>
       <path id="DejaVuSans-6c" d="M 603 4863 
L 1178 4863 
L 1178 0 
L 603 0 
L 603 4863 
z
" transform="scale(0.015625)"/>
       <path id="DejaVuSans-6f" d="M 1959 3097 
Q 1497 3097 1228 2736 
Q 959 2375 959 1747 
Q 959 1119 1226 758 
Q 1494 397 1959 397 
Q 2419 397 2687 759 
Q 2956 1122 2956 1747 
Q 2956 2369 2687 2733 
Q 2419 3097 1959 3097 
z
M 1959 3584 
Q 2709 3584 3137 3096 
Q 3566 2609 3566 1747 
Q 3566 888 3137 398 
Q 2709 -91 1959 -91 
Q 1206 -91 779 398 
Q 353 888 353 1747 
Q 353 2609 779 3096 
Q 1206 3584 1959 3584 
z
" transform="scale(0.015625)"/>
       <path id="DejaVuSans-73" d="M 2834 3397 
L 2834 2853 
Q 2591 2978 2328 3040 
Q 2066 3103 1784 3103 
Q 1356 3103 1142 2972 
Q 928 2841 928 2578 
Q 928 2378 1081 2264 
Q 1234 2150 1697 2047 
L 1894 2003 
Q 2506 1872 2764 1633 
Q 3022 1394 3022 966 
Q 3022 478 2636 193 
Q 2250 -91 1575 -91 
Q 1294 -91 989 -36 
Q 684 19 347 128 
L 347 722 
Q 666 556 975 473 
Q 1284 391 1588 391 
Q 1994 391 2212 530 
Q 2431 669 2431 922 
Q 2431 1156 2273 1281 
Q 2116 1406 1581 1522 
L 1381 1569 
Q 847 1681 609 1914 
Q 372 2147 372 2553 
Q 372 3047 722 3315 
Q 1072 3584 1716 3584 
Q 2034 3584 2315 3537 
Q 2597 3491 2834 3397 
z
" transform="scale(0.015625)"/>
      </defs>
      <use xlink:href="#DejaVuSans-6c"/>
      <use xlink:href="#DejaVuSans-6f" x="27.783203"/>
      <use xlink:href="#DejaVuSans-73" x="88.964844"/>
      <use xlink:href="#DejaVuSans-73" x="141.064453"/>
     </g>
    </g>
   </g>
   <g id="line2d_11">
    <path d="M 58.822067 173.945621 
L 61.255836 157.603285 
L 62.472721 184.574985 
L 63.689606 159.330184 
L 64.906491 170.117098 
L 66.123376 149.727545 
L 67.34026 146.176357 
L 68.557145 165.407243 
L 69.77403 121.724955 
L 70.990915 177.052724 
L 72.2078 124.775696 
L 73.424685 134.04613 
L 74.641569 110.606849 
L 75.858454 149.484061 
L 77.075339 151.611515 
L 78.292224 137.091666 
L 79.509109 89.483917 
L 80.725994 146.116027 
L 81.942878 149.761396 
L 84.376648 51.885047 
L 85.593533 90.731109 
L 86.810418 83.5677 
L 88.027303 104.824178 
L 89.244187 90.615712 
L 90.461072 88.625772 
L 91.677957 82.330751 
L 92.894842 82.689295 
L 94.111727 143.641454 
L 95.328612 114.845072 
L 96.545496 55.814335 
L 97.762381 66.611687 
L 98.979266 105.675824 
L 101.413036 61.887341 
L 103.846805 134.040868 
L 105.06369 121.138404 
L 106.280575 63.3317 
L 107.49746 117.639497 
L 108.714345 79.128314 
L 111.148114 91.58751 
L 112.364999 89.471424 
L 113.581884 74.653417 
L 114.798769 120.543439 
L 116.015654 123.513282 
L 117.232538 139.27067 
L 118.449423 83.906378 
L 119.666308 134.750864 
L 120.883193 113.33256 
L 122.100078 127.519557 
L 123.316963 109.660657 
L 124.533847 126.240259 
L 125.750732 76.307804 
L 126.967617 78.911956 
L 128.184502 71.558949 
L 130.618272 109.434225 
L 131.835156 43.560045 
L 133.052041 102.141885 
L 135.485811 112.840021 
L 136.702696 143.272668 
L 137.919581 127.382803 
L 139.136465 86.565963 
L 141.570235 123.677133 
L 142.78712 73.790516 
L 146.437774 136.333131 
L 147.654659 87.381704 
L 150.088429 113.116202 
L 151.305314 55.389609 
L 152.522199 104.747022 
L 153.739083 105.563157 
L 154.955968 119.194273 
L 156.172853 112.782871 
L 157.389738 125.007897 
L 158.606623 176.713371 
L 159.823508 123.339384 
L 161.040392 129.992667 
L 162.257277 113.915341 
L 163.474162 65.714851 
L 164.691047 125.493402 
L 165.907932 41.971672 
L 167.124817 74.908523 
L 168.341701 57.565912 
L 169.558586 130.643374 
L 170.775471 120.752116 
L 171.992356 61.630829 
L 173.209241 171.483006 
L 174.426126 93.770144 
L 175.64301 116.604106 
L 176.859895 171.369382 
L 178.07678 101.995733 
L 179.293665 118.039236 
L 180.51055 86.715239 
L 181.727435 161.720088 
L 182.944319 76.793872 
L 184.161204 112.266273 
L 185.378089 87.594657 
L 186.594974 113.238099 
L 187.811859 109.829855 
L 189.028744 88.770967 
L 190.245628 35.877393 
L 191.462513 128.347622 
L 192.679398 104.174962 
L 193.896283 104.135962 
L 195.113168 70.156966 
L 196.330053 84.619862 
L 197.546937 80.107316 
L 199.980707 105.584739 
L 201.197592 101.593856 
L 202.414477 126.934891 
L 203.631362 118.726833 
L 204.848246 138.407825 
L 207.282016 97.090933 
L 210.932671 132.178424 
L 212.149555 54.172583 
L 213.36644 104.291935 
L 214.583325 112.788921 
L 215.80021 63.975232 
L 217.017095 127.817855 
L 219.450864 88.082385 
L 220.667749 95.685911 
L 221.884634 92.28383 
L 223.101519 113.474464 
L 224.318404 109.585527 
L 225.535289 138.294652 
L 226.752173 125.147155 
L 227.969058 47.01604 
L 231.619713 131.606421 
L 232.836598 98.327994 
L 234.053482 107.074993 
L 235.270367 102.300362 
L 236.487252 107.257163 
L 237.704137 135.546148 
L 240.137907 58.84552 
L 241.354791 112.749498 
L 243.788561 72.449595 
L 245.005446 49.712683 
L 246.222331 72.499175 
L 247.439215 51.494482 
L 248.6561 105.086487 
L 249.872985 48.506997 
L 251.08987 115.726122 
L 252.306755 103.163939 
L 253.52364 53.948233 
L 254.740524 78.427042 
L 255.957409 137.730302 
L 257.174294 119.311246 
L 258.391179 83.581151 
L 259.608064 155.239662 
L 260.824949 141.266042 
L 262.041833 103.757947 
L 264.475603 143.812312 
L 265.692488 130.165495 
L 266.909373 141.711759 
L 268.126258 76.787934 
L 270.560027 162.506227 
L 271.776912 111.461224 
L 272.993797 118.119656 
L 274.210682 108.787739 
L 276.644451 135.506782 
L 277.861336 107.729133 
L 279.078221 39.172941 
L 281.511991 111.886063 
L 282.728876 102.560645 
L 283.94576 116.152986 
L 285.162645 109.51262 
L 286.37953 72.68309 
L 287.596415 109.507189 
L 288.8133 85.41661 
L 291.247069 117.225971 
L 292.463954 108.194575 
L 293.680839 66.892709 
L 294.897724 99.567813 
L 296.114609 60.913348 
L 297.331494 96.57183 
L 298.548378 86.236993 
L 299.765263 128.683148 
L 300.982148 88.688437 
L 300.982148 88.688437 
" clip-path="url(#p4be0fe4a78)" style="fill: none; stroke: #023eff; stroke-width: 1.5; stroke-linecap: round"/>
   </g>
   <g id="patch_3">
    <path d="M 46.714063 192.009865 
L 46.714063 28.442513 
" style="fill: none"/>
   </g>
   <g id="patch_4">
    <path d="M 313.090152 192.009865 
L 313.090152 28.442513 
" style="fill: none"/>
   </g>
   <g id="patch_5">
    <path d="M 46.714063 192.009865 
L 313.090152 192.009865 
" style="fill: none"/>
   </g>
   <g id="patch_6">
    <path d="M 46.714063 28.442513 
L 313.090152 28.442513 
" style="fill: none"/>
   </g>
  </g>
  <g id="text_13">
   <!-- hmc: pytorch -->
   <g style="fill: #262626" transform="translate(127.976594 18.14175) scale(0.144 -0.144)">
    <defs>
     <path id="DejaVuSans-68" d="M 3513 2113 
L 3513 0 
L 2938 0 
L 2938 2094 
Q 2938 2591 2744 2837 
Q 2550 3084 2163 3084 
Q 1697 3084 1428 2787 
Q 1159 2491 1159 1978 
L 1159 0 
L 581 0 
L 581 4863 
L 1159 4863 
L 1159 2956 
Q 1366 3272 1645 3428 
Q 1925 3584 2291 3584 
Q 2894 3584 3203 3211 
Q 3513 2838 3513 2113 
z
" transform="scale(0.015625)"/>
     <path id="DejaVuSans-6d" d="M 3328 2828 
Q 3544 3216 3844 3400 
Q 4144 3584 4550 3584 
Q 5097 3584 5394 3201 
Q 5691 2819 5691 2113 
L 5691 0 
L 5113 0 
L 5113 2094 
Q 5113 2597 4934 2840 
Q 4756 3084 4391 3084 
Q 3944 3084 3684 2787 
Q 3425 2491 3425 1978 
L 3425 0 
L 2847 0 
L 2847 2094 
Q 2847 2600 2669 2842 
Q 2491 3084 2119 3084 
Q 1678 3084 1418 2786 
Q 1159 2488 1159 1978 
L 1159 0 
L 581 0 
L 581 3500 
L 1159 3500 
L 1159 2956 
Q 1356 3278 1631 3431 
Q 1906 3584 2284 3584 
Q 2666 3584 2933 3390 
Q 3200 3197 3328 2828 
z
" transform="scale(0.015625)"/>
     <path id="DejaVuSans-63" d="M 3122 3366 
L 3122 2828 
Q 2878 2963 2633 3030 
Q 2388 3097 2138 3097 
Q 1578 3097 1268 2742 
Q 959 2388 959 1747 
Q 959 1106 1268 751 
Q 1578 397 2138 397 
Q 2388 397 2633 464 
Q 2878 531 3122 666 
L 3122 134 
Q 2881 22 2623 -34 
Q 2366 -91 2075 -91 
Q 1284 -91 818 406 
Q 353 903 353 1747 
Q 353 2603 823 3093 
Q 1294 3584 2113 3584 
Q 2378 3584 2631 3529 
Q 2884 3475 3122 3366 
z
" transform="scale(0.015625)"/>
     <path id="DejaVuSans-3a" d="M 750 794 
L 1409 794 
L 1409 0 
L 750 0 
L 750 794 
z
M 750 3309 
L 1409 3309 
L 1409 2516 
L 750 2516 
L 750 3309 
z
" transform="scale(0.015625)"/>
     <path id="DejaVuSans-20" transform="scale(0.015625)"/>
     <path id="DejaVuSans-70" d="M 1159 525 
L 1159 -1331 
L 581 -1331 
L 581 3500 
L 1159 3500 
L 1159 2969 
Q 1341 3281 1617 3432 
Q 1894 3584 2278 3584 
Q 2916 3584 3314 3078 
Q 3713 2572 3713 1747 
Q 3713 922 3314 415 
Q 2916 -91 2278 -91 
Q 1894 -91 1617 61 
Q 1341 213 1159 525 
z
M 3116 1747 
Q 3116 2381 2855 2742 
Q 2594 3103 2138 3103 
Q 1681 3103 1420 2742 
Q 1159 2381 1159 1747 
Q 1159 1113 1420 752 
Q 1681 391 2138 391 
Q 2594 391 2855 752 
Q 3116 1113 3116 1747 
z
" transform="scale(0.015625)"/>
     <path id="DejaVuSans-79" d="M 2059 -325 
Q 1816 -950 1584 -1140 
Q 1353 -1331 966 -1331 
L 506 -1331 
L 506 -850 
L 844 -850 
Q 1081 -850 1212 -737 
Q 1344 -625 1503 -206 
L 1606 56 
L 191 3500 
L 800 3500 
L 1894 763 
L 2988 3500 
L 3597 3500 
L 2059 -325 
z
" transform="scale(0.015625)"/>
     <path id="DejaVuSans-74" d="M 1172 4494 
L 1172 3500 
L 2356 3500 
L 2356 3053 
L 1172 3053 
L 1172 1153 
Q 1172 725 1289 603 
Q 1406 481 1766 481 
L 2356 481 
L 2356 0 
L 1766 0 
Q 1100 0 847 248 
Q 594 497 594 1153 
L 594 3053 
L 172 3053 
L 172 3500 
L 594 3500 
L 594 4494 
L 1172 4494 
z
" transform="scale(0.015625)"/>
    </defs>
    <use xlink:href="#DejaVuSans-68"/>
    <use xlink:href="#DejaVuSans-6d" x="63.378906"/>
    <use xlink:href="#DejaVuSans-63" x="160.791016"/>
    <use xlink:href="#DejaVuSans-3a" x="215.771484"/>
    <use xlink:href="#DejaVuSans-20" x="249.462891"/>
    <use xlink:href="#DejaVuSans-70" x="281.25"/>
    <use xlink:href="#DejaVuSans-79" x="344.726562"/>
    <use xlink:href="#DejaVuSans-74" x="403.90625"/>
    <use xlink:href="#DejaVuSans-6f" x="443.115234"/>
    <use xlink:href="#DejaVuSans-72" x="504.296875"/>
    <use xlink:href="#DejaVuSans-63" x="543.160156"/>
    <use xlink:href="#DejaVuSans-68" x="598.140625"/>
   </g>
  </g>
 </g>
 <defs>
  <clipPath id="p4be0fe4a78">
   <rect x="46.714063" y="28.442513" width="266.37609" height="163.567352"/>
  </clipPath>
 </defs>
</svg>
