<?xml version="1.0" encoding="utf-8" standalone="no"?>
<!DOCTYPE svg PUBLIC "-//W3C//DTD SVG 1.1//EN"
  "http://www.w3.org/Graphics/SVG/1.1/DTD/svg11.dtd">
<svg xmlns:xlink="http://www.w3.org/1999/xlink" width="656.39952pt" height="224.399056pt" viewBox="0 0 656.39952 224.399056" xmlns="http://www.w3.org/2000/svg" version="1.1">
 <metadata>
  <rdf:RDF xmlns:dc="http://purl.org/dc/elements/1.1/" xmlns:cc="http://creativecommons.org/ns#" xmlns:rdf="http://www.w3.org/1999/02/22-rdf-syntax-ns#">
   <cc:Work>
    <dc:type rdf:resource="http://purl.org/dc/dcmitype/StillImage"/>
    <dc:date>2023-12-05T12:10:00.617590</dc:date>
    <dc:format>image/svg+xml</dc:format>
    <dc:creator>
     <cc:Agent>
      <dc:title>Matplotlib v3.8.2, https://matplotlib.org/</dc:title>
     </cc:Agent>
    </dc:creator>
   </cc:Work>
  </rdf:RDF>
 </metadata>
 <defs>
  <style type="text/css">*{stroke-linejoin: round; stroke-linecap: butt}</style>
 </defs>
 <g id="figure_1">
  <g id="patch_1">
   <path d="M 0 224.399056 
L 656.39952 224.399056 
L 656.39952 0 
L 0 0 
L 0 224.399056 
z
" style="fill: none"/>
  </g>
  <g id="axes_1">
   <g id="patch_2">
    <path d="M 58.236133 181.874447 
L 596.567098 181.874447 
L 596.567098 9.057071 
L 58.236133 9.057071 
L 58.236133 181.874447 
z
" style="fill: none"/>
   </g>
   <g id="matplotlib.axis_1">
    <g id="xtick_1">
     <g id="text_1">
      <!-- 0 -->
      <g style="fill: #838383" transform="translate(78.331503 195.822298) scale(0.1375 -0.1375)">
       <defs>
        <path id="DejaVuSans-30" d="M 2034 4250 
Q 1547 4250 1301 3770 
Q 1056 3291 1056 2328 
Q 1056 1369 1301 889 
Q 1547 409 2034 409 
Q 2525 409 2770 889 
Q 3016 1369 3016 2328 
Q 3016 3291 2770 3770 
Q 2525 4250 2034 4250 
z
M 2034 4750 
Q 2819 4750 3233 4129 
Q 3647 3509 3647 2328 
Q 3647 1150 3233 529 
Q 2819 -91 2034 -91 
Q 1250 -91 836 529 
Q 422 1150 422 2328 
Q 422 3509 836 4129 
Q 1250 4750 2034 4750 
z
" transform="scale(0.015625)"/>
       </defs>
       <use xlink:href="#DejaVuSans-30"/>
      </g>
     </g>
    </g>
    <g id="xtick_2">
     <g id="text_2">
      <!-- 250 -->
      <g style="fill: #838383" transform="translate(131.064446 195.822298) scale(0.1375 -0.1375)">
       <defs>
        <path id="DejaVuSans-32" d="M 1228 531 
L 3431 531 
L 3431 0 
L 469 0 
L 469 531 
Q 828 903 1448 1529 
Q 2069 2156 2228 2338 
Q 2531 2678 2651 2914 
Q 2772 3150 2772 3378 
Q 2772 3750 2511 3984 
Q 2250 4219 1831 4219 
Q 1534 4219 1204 4116 
Q 875 4013 500 3803 
L 500 4441 
Q 881 4594 1212 4672 
Q 1544 4750 1819 4750 
Q 2544 4750 2975 4387 
Q 3406 4025 3406 3419 
Q 3406 3131 3298 2873 
Q 3191 2616 2906 2266 
Q 2828 2175 2409 1742 
Q 1991 1309 1228 531 
z
" transform="scale(0.015625)"/>
        <path id="DejaVuSans-35" d="M 691 4666 
L 3169 4666 
L 3169 4134 
L 1269 4134 
L 1269 2991 
Q 1406 3038 1543 3061 
Q 1681 3084 1819 3084 
Q 2600 3084 3056 2656 
Q 3513 2228 3513 1497 
Q 3513 744 3044 326 
Q 2575 -91 1722 -91 
Q 1428 -91 1123 -41 
Q 819 9 494 109 
L 494 744 
Q 775 591 1075 516 
Q 1375 441 1709 441 
Q 2250 441 2565 725 
Q 2881 1009 2881 1497 
Q 2881 1984 2565 2268 
Q 2250 2553 1709 2553 
Q 1456 2553 1204 2497 
Q 953 2441 691 2322 
L 691 4666 
z
" transform="scale(0.015625)"/>
       </defs>
       <use xlink:href="#DejaVuSans-32"/>
       <use xlink:href="#DejaVuSans-35" x="63.623047"/>
       <use xlink:href="#DejaVuSans-30" x="127.246094"/>
      </g>
     </g>
    </g>
    <g id="xtick_3">
     <g id="text_3">
      <!-- 500 -->
      <g style="fill: #838383" transform="translate(192.545826 195.822298) scale(0.1375 -0.1375)">
       <use xlink:href="#DejaVuSans-35"/>
       <use xlink:href="#DejaVuSans-30" x="63.623047"/>
       <use xlink:href="#DejaVuSans-30" x="127.246094"/>
      </g>
     </g>
    </g>
    <g id="xtick_4">
     <g id="text_4">
      <!-- 750 -->
      <g style="fill: #838383" transform="translate(254.027207 195.822298) scale(0.1375 -0.1375)">
       <defs>
        <path id="DejaVuSans-37" d="M 525 4666 
L 3525 4666 
L 3525 4397 
L 1831 0 
L 1172 0 
L 2766 4134 
L 525 4134 
L 525 4666 
z
" transform="scale(0.015625)"/>
       </defs>
       <use xlink:href="#DejaVuSans-37"/>
       <use xlink:href="#DejaVuSans-35" x="63.623047"/>
       <use xlink:href="#DejaVuSans-30" x="127.246094"/>
      </g>
     </g>
    </g>
    <g id="xtick_5">
     <g id="text_5">
      <!-- 1000 -->
      <g style="fill: #838383" transform="translate(311.134368 195.822298) scale(0.1375 -0.1375)">
       <defs>
        <path id="DejaVuSans-31" d="M 794 531 
L 1825 531 
L 1825 4091 
L 703 3866 
L 703 4441 
L 1819 4666 
L 2450 4666 
L 2450 531 
L 3481 531 
L 3481 0 
L 794 0 
L 794 531 
z
" transform="scale(0.015625)"/>
       </defs>
       <use xlink:href="#DejaVuSans-31"/>
       <use xlink:href="#DejaVuSans-30" x="63.623047"/>
       <use xlink:href="#DejaVuSans-30" x="127.246094"/>
       <use xlink:href="#DejaVuSans-30" x="190.869141"/>
      </g>
     </g>
    </g>
    <g id="xtick_6">
     <g id="text_6">
      <!-- 1250 -->
      <g style="fill: #838383" transform="translate(372.615748 195.822298) scale(0.1375 -0.1375)">
       <use xlink:href="#DejaVuSans-31"/>
       <use xlink:href="#DejaVuSans-32" x="63.623047"/>
       <use xlink:href="#DejaVuSans-35" x="127.246094"/>
       <use xlink:href="#DejaVuSans-30" x="190.869141"/>
      </g>
     </g>
    </g>
    <g id="xtick_7">
     <g id="text_7">
      <!-- 1500 -->
      <g style="fill: #838383" transform="translate(434.097129 195.822298) scale(0.1375 -0.1375)">
       <use xlink:href="#DejaVuSans-31"/>
       <use xlink:href="#DejaVuSans-35" x="63.623047"/>
       <use xlink:href="#DejaVuSans-30" x="127.246094"/>
       <use xlink:href="#DejaVuSans-30" x="190.869141"/>
      </g>
     </g>
    </g>
    <g id="xtick_8">
     <g id="text_8">
      <!-- 1750 -->
      <g style="fill: #838383" transform="translate(495.578509 195.822298) scale(0.1375 -0.1375)">
       <use xlink:href="#DejaVuSans-31"/>
       <use xlink:href="#DejaVuSans-37" x="63.623047"/>
       <use xlink:href="#DejaVuSans-35" x="127.246094"/>
       <use xlink:href="#DejaVuSans-30" x="190.869141"/>
      </g>
     </g>
    </g>
    <g id="xtick_9">
     <g id="text_9">
      <!-- 2000 -->
      <g style="fill: #838383" transform="translate(557.059889 195.822298) scale(0.1375 -0.1375)">
       <use xlink:href="#DejaVuSans-32"/>
       <use xlink:href="#DejaVuSans-30" x="63.623047"/>
       <use xlink:href="#DejaVuSans-30" x="127.246094"/>
       <use xlink:href="#DejaVuSans-30" x="190.869141"/>
      </g>
     </g>
    </g>
    <g id="text_10">
     <!-- Step -->
     <g style="fill: #838383" transform="translate(310.323881 214.079525) scale(0.15 -0.15)">
      <defs>
       <path id="DejaVuSans-53" d="M 3425 4513 
L 3425 3897 
Q 3066 4069 2747 4153 
Q 2428 4238 2131 4238 
Q 1616 4238 1336 4038 
Q 1056 3838 1056 3469 
Q 1056 3159 1242 3001 
Q 1428 2844 1947 2747 
L 2328 2669 
Q 3034 2534 3370 2195 
Q 3706 1856 3706 1288 
Q 3706 609 3251 259 
Q 2797 -91 1919 -91 
Q 1588 -91 1214 -16 
Q 841 59 441 206 
L 441 856 
Q 825 641 1194 531 
Q 1563 422 1919 422 
Q 2459 422 2753 634 
Q 3047 847 3047 1241 
Q 3047 1584 2836 1778 
Q 2625 1972 2144 2069 
L 1759 2144 
Q 1053 2284 737 2584 
Q 422 2884 422 3419 
Q 422 4038 858 4394 
Q 1294 4750 2059 4750 
Q 2388 4750 2728 4690 
Q 3069 4631 3425 4513 
z
" transform="scale(0.015625)"/>
       <path id="DejaVuSans-74" d="M 1172 4494 
L 1172 3500 
L 2356 3500 
L 2356 3053 
L 1172 3053 
L 1172 1153 
Q 1172 725 1289 603 
Q 1406 481 1766 481 
L 2356 481 
L 2356 0 
L 1766 0 
Q 1100 0 847 248 
Q 594 497 594 1153 
L 594 3053 
L 172 3053 
L 172 3500 
L 594 3500 
L 594 4494 
L 1172 4494 
z
" transform="scale(0.015625)"/>
       <path id="DejaVuSans-65" d="M 3597 1894 
L 3597 1613 
L 953 1613 
Q 991 1019 1311 708 
Q 1631 397 2203 397 
Q 2534 397 2845 478 
Q 3156 559 3463 722 
L 3463 178 
Q 3153 47 2828 -22 
Q 2503 -91 2169 -91 
Q 1331 -91 842 396 
Q 353 884 353 1716 
Q 353 2575 817 3079 
Q 1281 3584 2069 3584 
Q 2775 3584 3186 3129 
Q 3597 2675 3597 1894 
z
M 3022 2063 
Q 3016 2534 2758 2815 
Q 2500 3097 2075 3097 
Q 1594 3097 1305 2825 
Q 1016 2553 972 2059 
L 3022 2063 
z
" transform="scale(0.015625)"/>
       <path id="DejaVuSans-70" d="M 1159 525 
L 1159 -1331 
L 581 -1331 
L 581 3500 
L 1159 3500 
L 1159 2969 
Q 1341 3281 1617 3432 
Q 1894 3584 2278 3584 
Q 2916 3584 3314 3078 
Q 3713 2572 3713 1747 
Q 3713 922 3314 415 
Q 2916 -91 2278 -91 
Q 1894 -91 1617 61 
Q 1341 213 1159 525 
z
M 3116 1747 
Q 3116 2381 2855 2742 
Q 2594 3103 2138 3103 
Q 1681 3103 1420 2742 
Q 1159 2381 1159 1747 
Q 1159 1113 1420 752 
Q 1681 391 2138 391 
Q 2594 391 2855 752 
Q 3116 1113 3116 1747 
z
" transform="scale(0.015625)"/>
      </defs>
      <use xlink:href="#DejaVuSans-53"/>
      <use xlink:href="#DejaVuSans-74" x="63.476562"/>
      <use xlink:href="#DejaVuSans-65" x="102.685547"/>
      <use xlink:href="#DejaVuSans-70" x="164.208984"/>
     </g>
    </g>
   </g>
   <g id="matplotlib.axis_2">
    <g id="ytick_1">
     <g id="line2d_1"/>
     <g id="text_11">
      <!-- −15 -->
      <g style="fill: #023eff" transform="translate(25.717188 172.276872) scale(0.1375 -0.1375)">
       <defs>
        <path id="DejaVuSans-2212" d="M 678 2272 
L 4684 2272 
L 4684 1741 
L 678 1741 
L 678 2272 
z
" transform="scale(0.015625)"/>
       </defs>
       <use xlink:href="#DejaVuSans-2212"/>
       <use xlink:href="#DejaVuSans-31" x="83.789062"/>
       <use xlink:href="#DejaVuSans-35" x="147.412109"/>
      </g>
     </g>
    </g>
    <g id="ytick_2">
     <g id="line2d_2"/>
     <g id="text_12">
      <!-- −10 -->
      <g style="fill: #023eff" transform="translate(25.717188 117.197385) scale(0.1375 -0.1375)">
       <use xlink:href="#DejaVuSans-2212"/>
       <use xlink:href="#DejaVuSans-31" x="83.789062"/>
       <use xlink:href="#DejaVuSans-30" x="147.412109"/>
      </g>
     </g>
    </g>
    <g id="ytick_3">
     <g id="line2d_3"/>
     <g id="text_13">
      <!-- −5 -->
      <g style="fill: #023eff" transform="translate(34.465625 62.117898) scale(0.1375 -0.1375)">
       <use xlink:href="#DejaVuSans-2212"/>
       <use xlink:href="#DejaVuSans-35" x="83.789062"/>
      </g>
     </g>
    </g>
    <g id="text_14">
     <!-- loss -->
     <g style="fill: #023eff" transform="translate(18.597656 109.952478) rotate(-90) scale(0.15 -0.15)">
      <defs>
       <path id="DejaVuSans-6c" d="M 603 4863 
L 1178 4863 
L 1178 0 
L 603 0 
L 603 4863 
z
" transform="scale(0.015625)"/>
       <path id="DejaVuSans-6f" d="M 1959 3097 
Q 1497 3097 1228 2736 
Q 959 2375 959 1747 
Q 959 1119 1226 758 
Q 1494 397 1959 397 
Q 2419 397 2687 759 
Q 2956 1122 2956 1747 
Q 2956 2369 2687 2733 
Q 2419 3097 1959 3097 
z
M 1959 3584 
Q 2709 3584 3137 3096 
Q 3566 2609 3566 1747 
Q 3566 888 3137 398 
Q 2709 -91 1959 -91 
Q 1206 -91 779 398 
Q 353 888 353 1747 
Q 353 2609 779 3096 
Q 1206 3584 1959 3584 
z
" transform="scale(0.015625)"/>
       <path id="DejaVuSans-73" d="M 2834 3397 
L 2834 2853 
Q 2591 2978 2328 3040 
Q 2066 3103 1784 3103 
Q 1356 3103 1142 2972 
Q 928 2841 928 2578 
Q 928 2378 1081 2264 
Q 1234 2150 1697 2047 
L 1894 2003 
Q 2506 1872 2764 1633 
Q 3022 1394 3022 966 
Q 3022 478 2636 193 
Q 2250 -91 1575 -91 
Q 1294 -91 989 -36 
Q 684 19 347 128 
L 347 722 
Q 666 556 975 473 
Q 1284 391 1588 391 
Q 1994 391 2212 530 
Q 2431 669 2431 922 
Q 2431 1156 2273 1281 
Q 2116 1406 1581 1522 
L 1381 1569 
Q 847 1681 609 1914 
Q 372 2147 372 2553 
Q 372 3047 722 3315 
Q 1072 3584 1716 3584 
Q 2034 3584 2315 3537 
Q 2597 3491 2834 3397 
z
" transform="scale(0.015625)"/>
      </defs>
      <use xlink:href="#DejaVuSans-6c"/>
      <use xlink:href="#DejaVuSans-6f" x="27.783203"/>
      <use xlink:href="#DejaVuSans-73" x="88.964844"/>
      <use xlink:href="#DejaVuSans-73" x="141.064453"/>
     </g>
    </g>
   </g>
   <g id="line2d_4">
    <path d="M 82.705722 84.455956 
L 85.164977 162.90007 
L 87.624233 91.786024 
L 92.542743 89.043501 
L 95.001998 42.648723 
L 97.461253 82.448393 
L 99.920509 84.999746 
L 102.379764 26.006406 
L 104.839019 88.361373 
L 107.298274 87.784649 
L 109.757529 52.826396 
L 112.216785 107.038096 
L 114.67604 91.46802 
L 117.135295 64.521432 
L 119.59455 111.77005 
L 122.053805 103.050998 
L 126.972316 43.024311 
L 129.431571 51.806115 
L 131.890826 146.921674 
L 134.350082 74.276124 
L 136.809337 74.628423 
L 139.268592 103.663169 
L 141.727847 76.784862 
L 144.187102 130.550652 
L 146.646358 62.596537 
L 149.105613 73.162354 
L 151.564868 48.378712 
L 154.024123 132.839776 
L 156.483378 37.74043 
L 158.942634 77.90182 
L 161.401889 159.479685 
L 163.861144 159.470755 
L 166.320399 85.917828 
L 168.779654 93.637842 
L 171.23891 93.903266 
L 173.698165 64.353763 
L 176.15742 102.43015 
L 178.616675 99.478492 
L 181.075931 82.515156 
L 183.535186 56.900979 
L 185.994441 63.73116 
L 188.453696 117.452034 
L 190.912951 112.007813 
L 193.372207 76.802663 
L 195.831462 67.625962 
L 198.290717 113.748482 
L 205.668483 39.31955 
L 208.127738 90.810812 
L 210.586993 111.237491 
L 213.046248 109.823671 
L 215.505503 174.019111 
L 217.964759 16.912407 
L 222.883269 121.856519 
L 225.342524 51.136611 
L 227.801779 138.286603 
L 230.261035 146.997366 
L 232.72029 107.653986 
L 235.179545 113.092377 
L 240.098056 36.125408 
L 242.557311 170.101371 
L 245.016566 108.474534 
L 247.475821 110.127535 
L 249.935076 68.01044 
L 252.394332 135.42939 
L 254.853587 45.285208 
L 257.312842 35.130884 
L 259.772097 93.923909 
L 262.231352 67.034445 
L 264.690608 74.872715 
L 267.149863 78.765715 
L 269.609118 74.891809 
L 272.068373 74.447024 
L 274.527628 39.754694 
L 276.986884 101.617985 
L 279.446139 117.043409 
L 281.905394 73.457813 
L 284.364649 58.287322 
L 286.823905 75.084649 
L 289.28316 112.598468 
L 291.742415 116.134057 
L 294.20167 94.360889 
L 296.660925 101.324396 
L 299.120181 90.882586 
L 301.579436 52.721298 
L 304.038691 101.992824 
L 306.497946 94.421548 
L 308.957201 90.958163 
L 311.416457 127.363617 
L 313.875712 134.014331 
L 316.334967 100.120467 
L 318.794222 99.851608 
L 321.253477 62.569191 
L 323.712733 54.358651 
L 326.171988 98.203892 
L 328.631243 65.531753 
L 331.090498 117.202863 
L 333.549753 135.529162 
L 336.009009 117.108313 
L 338.468264 165.510391 
L 340.927519 123.903121 
L 345.84603 130.454011 
L 348.305285 83.690772 
L 350.76454 92.048527 
L 353.223795 67.160307 
L 355.68305 77.189799 
L 358.142306 120.247023 
L 360.601561 126.194357 
L 363.060816 92.883951 
L 365.520071 106.387759 
L 367.979326 143.678623 
L 370.438582 115.87105 
L 372.897837 118.485363 
L 375.357092 117.620985 
L 377.816347 102.744162 
L 380.275602 43.634125 
L 382.734858 83.561968 
L 385.194113 43.312224 
L 387.653368 132.019427 
L 392.571879 70.354239 
L 395.031134 162.784383 
L 397.490389 58.362158 
L 402.408899 81.895227 
L 404.868155 72.473619 
L 407.32741 112.375319 
L 409.786665 74.641114 
L 412.24592 81.876984 
L 414.705175 157.48642 
L 417.164431 87.737767 
L 422.082941 144.211329 
L 424.542196 75.141064 
L 427.001451 80.310056 
L 429.460707 126.580258 
L 431.919962 92.775975 
L 434.379217 162.78911 
L 436.838472 124.156768 
L 439.297727 111.134988 
L 441.756983 119.926182 
L 444.216238 123.777611 
L 446.675493 50.521745 
L 449.134748 18.782146 
L 451.594004 80.321801 
L 454.053259 73.060408 
L 456.512514 121.179403 
L 458.971769 57.867524 
L 461.431024 92.067426 
L 463.89028 62.883145 
L 466.349535 92.133296 
L 468.80879 140.726271 
L 471.268045 94.380797 
L 473.7273 103.321002 
L 476.186556 149.919798 
L 478.645811 70.084435 
L 481.105066 122.161916 
L 483.564321 87.068483 
L 486.023576 103.114788 
L 488.482832 78.484092 
L 490.942087 82.589425 
L 493.401342 96.247071 
L 495.860597 68.865667 
L 500.779108 118.218437 
L 503.238363 52.913619 
L 505.697618 74.29942 
L 508.156873 128.724299 
L 510.616129 133.986869 
L 513.075384 93.953976 
L 515.534639 79.899056 
L 517.993894 87.976785 
L 520.453149 123.931896 
L 522.912405 69.170208 
L 525.37166 122.962336 
L 527.830915 152.139805 
L 530.29017 20.164919 
L 535.208681 126.195964 
L 537.667936 65.609757 
L 540.127191 126.92419 
L 542.586446 63.492253 
L 545.045701 96.532434 
L 549.964212 60.655405 
L 552.423467 63.066409 
L 554.882722 89.233473 
L 557.341978 126.515848 
L 559.801233 104.416408 
L 562.260488 91.971962 
L 564.719743 108.197859 
L 567.178998 77.994117 
L 569.638254 83.773424 
L 572.097509 127.036736 
L 572.097509 127.036736 
" clip-path="url(#pb898d98805)" style="fill: none; stroke: #023eff; stroke-opacity: 0.9; stroke-width: 1.5; stroke-linecap: round"/>
   </g>
  </g>
  <g id="axes_2">
   <g id="matplotlib.axis_3">
    <g id="ytick_4">
     <g id="line2d_5"/>
     <g id="text_15">
      <!-- 0.05 -->
      <g style="fill: #ff7c00" transform="translate(600.067098 161.288368) scale(0.1375 -0.1375)">
       <defs>
        <path id="DejaVuSans-2e" d="M 684 794 
L 1344 794 
L 1344 0 
L 684 0 
L 684 794 
z
" transform="scale(0.015625)"/>
       </defs>
       <use xlink:href="#DejaVuSans-30"/>
       <use xlink:href="#DejaVuSans-2e" x="63.623047"/>
       <use xlink:href="#DejaVuSans-30" x="95.410156"/>
       <use xlink:href="#DejaVuSans-35" x="159.033203"/>
      </g>
     </g>
    </g>
    <g id="ytick_5">
     <g id="line2d_6"/>
     <g id="text_16">
      <!-- 0.10 -->
      <g style="fill: #ff7c00" transform="translate(600.067098 113.408196) scale(0.1375 -0.1375)">
       <use xlink:href="#DejaVuSans-30"/>
       <use xlink:href="#DejaVuSans-2e" x="63.623047"/>
       <use xlink:href="#DejaVuSans-31" x="95.410156"/>
       <use xlink:href="#DejaVuSans-30" x="159.033203"/>
      </g>
     </g>
    </g>
    <g id="ytick_6">
     <g id="line2d_7"/>
     <g id="text_17">
      <!-- 0.15 -->
      <g style="fill: #ff7c00" transform="translate(600.067098 65.528024) scale(0.1375 -0.1375)">
       <use xlink:href="#DejaVuSans-30"/>
       <use xlink:href="#DejaVuSans-2e" x="63.623047"/>
       <use xlink:href="#DejaVuSans-31" x="95.410156"/>
       <use xlink:href="#DejaVuSans-35" x="159.033203"/>
      </g>
     </g>
    </g>
    <g id="ytick_7">
     <g id="line2d_8"/>
     <g id="text_18">
      <!-- 0.20 -->
      <g style="fill: #ff7c00" transform="translate(600.067098 17.647852) scale(0.1375 -0.1375)">
       <use xlink:href="#DejaVuSans-30"/>
       <use xlink:href="#DejaVuSans-2e" x="63.623047"/>
       <use xlink:href="#DejaVuSans-32" x="95.410156"/>
       <use xlink:href="#DejaVuSans-30" x="159.033203"/>
      </g>
     </g>
    </g>
    <g id="text_19">
     <!-- dQint -->
     <g style="fill: #ff7c00" transform="translate(646.079989 115.907946) rotate(-90) scale(0.15 -0.15)">
      <defs>
       <path id="DejaVuSans-64" d="M 2906 2969 
L 2906 4863 
L 3481 4863 
L 3481 0 
L 2906 0 
L 2906 525 
Q 2725 213 2448 61 
Q 2172 -91 1784 -91 
Q 1150 -91 751 415 
Q 353 922 353 1747 
Q 353 2572 751 3078 
Q 1150 3584 1784 3584 
Q 2172 3584 2448 3432 
Q 2725 3281 2906 2969 
z
M 947 1747 
Q 947 1113 1208 752 
Q 1469 391 1925 391 
Q 2381 391 2643 752 
Q 2906 1113 2906 1747 
Q 2906 2381 2643 2742 
Q 2381 3103 1925 3103 
Q 1469 3103 1208 2742 
Q 947 2381 947 1747 
z
" transform="scale(0.015625)"/>
       <path id="DejaVuSans-51" d="M 2522 4238 
Q 1834 4238 1429 3725 
Q 1025 3213 1025 2328 
Q 1025 1447 1429 934 
Q 1834 422 2522 422 
Q 3209 422 3611 934 
Q 4013 1447 4013 2328 
Q 4013 3213 3611 3725 
Q 3209 4238 2522 4238 
z
M 3406 84 
L 4238 -825 
L 3475 -825 
L 2784 -78 
Q 2681 -84 2626 -87 
Q 2572 -91 2522 -91 
Q 1538 -91 948 567 
Q 359 1225 359 2328 
Q 359 3434 948 4092 
Q 1538 4750 2522 4750 
Q 3503 4750 4090 4092 
Q 4678 3434 4678 2328 
Q 4678 1516 4351 937 
Q 4025 359 3406 84 
z
" transform="scale(0.015625)"/>
       <path id="DejaVuSans-69" d="M 603 3500 
L 1178 3500 
L 1178 0 
L 603 0 
L 603 3500 
z
M 603 4863 
L 1178 4863 
L 1178 4134 
L 603 4134 
L 603 4863 
z
" transform="scale(0.015625)"/>
       <path id="DejaVuSans-6e" d="M 3513 2113 
L 3513 0 
L 2938 0 
L 2938 2094 
Q 2938 2591 2744 2837 
Q 2550 3084 2163 3084 
Q 1697 3084 1428 2787 
Q 1159 2491 1159 1978 
L 1159 0 
L 581 0 
L 581 3500 
L 1159 3500 
L 1159 2956 
Q 1366 3272 1645 3428 
Q 1925 3584 2291 3584 
Q 2894 3584 3203 3211 
Q 3513 2838 3513 2113 
z
" transform="scale(0.015625)"/>
      </defs>
      <use xlink:href="#DejaVuSans-64"/>
      <use xlink:href="#DejaVuSans-51" x="63.476562"/>
      <use xlink:href="#DejaVuSans-69" x="142.1875"/>
      <use xlink:href="#DejaVuSans-6e" x="169.970703"/>
      <use xlink:href="#DejaVuSans-74" x="233.349609"/>
     </g>
    </g>
   </g>
   <g id="line2d_9">
    <path d="M 82.705722 91.72509 
L 85.164977 69.281245 
L 87.624233 106.687573 
L 90.083488 91.725026 
L 92.542743 91.725033 
L 95.001998 144.093964 
L 97.461253 99.206374 
L 99.920509 84.243742 
L 102.379764 136.612659 
L 104.839019 84.24377 
L 107.298274 99.206346 
L 109.757529 129.131418 
L 112.216785 91.72504 
L 114.67604 121.650162 
L 119.59455 91.725076 
L 122.053805 129.131418 
L 124.513061 129.131425 
L 126.972316 91.72504 
L 129.431571 136.612737 
L 131.890826 69.281316 
L 134.350082 151.575295 
L 136.809337 114.168857 
L 139.268592 114.168907 
L 141.727847 129.131418 
L 144.187102 106.687601 
L 146.646358 114.168892 
L 149.105613 129.131446 
L 151.564868 174.019111 
L 154.024123 99.206339 
L 156.483378 129.131475 
L 158.942634 129.131425 
L 161.401889 114.168878 
L 163.861144 84.243842 
L 166.320399 129.131468 
L 168.779654 99.206339 
L 171.23891 114.16885 
L 173.698165 99.206381 
L 176.15742 144.093993 
L 178.616675 129.131418 
L 183.535186 61.799954 
L 185.994441 151.575213 
L 188.453696 114.168814 
L 190.912951 99.206353 
L 193.372207 106.687658 
L 195.831462 121.650141 
L 198.290717 106.687594 
L 200.749972 106.687587 
L 203.209227 144.093943 
L 205.668483 159.056561 
L 208.127738 121.650191 
L 213.046248 136.612687 
L 215.505503 16.912407 
L 217.964759 144.09405 
L 220.424014 106.68763 
L 222.883269 121.650155 
L 225.342524 129.131489 
L 227.801779 114.168928 
L 230.261035 84.243756 
L 232.72029 99.20631 
L 235.179545 151.575273 
L 237.6388 121.650191 
L 240.098056 159.056497 
L 242.557311 61.799982 
L 245.016566 129.131411 
L 247.475821 76.762593 
L 249.935076 121.650162 
L 252.394332 114.168878 
L 254.853587 114.1689 
L 257.312842 166.537767 
L 259.772097 84.243785 
L 262.231352 144.094 
L 264.690608 99.206339 
L 269.609118 129.131453 
L 272.068373 121.650126 
L 274.527628 136.612695 
L 276.986884 129.131446 
L 279.446139 84.243785 
L 281.905394 151.575252 
L 284.364649 151.575195 
L 286.823905 144.093957 
L 291.742415 144.094 
L 294.20167 99.206246 
L 296.660925 106.68758 
L 301.579436 144.093986 
L 304.038691 159.05654 
L 308.957201 69.281202 
L 313.875712 99.206289 
L 318.794222 144.093943 
L 321.253477 144.094014 
L 323.712733 159.056504 
L 326.171988 121.650169 
L 328.631243 106.687637 
L 331.090498 121.650119 
L 333.549753 129.131403 
L 336.009009 121.650184 
L 338.468264 61.799982 
L 340.927519 121.650226 
L 343.386774 84.243785 
L 345.84603 144.094057 
L 348.305285 106.687615 
L 350.76454 129.131446 
L 353.223795 136.612687 
L 355.68305 151.575327 
L 358.142306 114.168907 
L 360.601561 136.612666 
L 363.060816 76.762493 
L 365.520071 106.687615 
L 367.979326 91.725005 
L 370.438582 106.687608 
L 372.897837 136.612652 
L 375.357092 114.168928 
L 377.816347 106.687615 
L 380.275602 121.650155 
L 382.734858 151.575273 
L 385.194113 151.575223 
L 390.112623 136.61268 
L 392.571879 114.168864 
L 395.031134 76.762522 
L 397.490389 166.537809 
L 402.408899 99.20631 
L 404.868155 121.650184 
L 407.32741 99.206331 
L 409.786665 121.650205 
L 412.24592 114.168907 
L 414.705175 114.16885 
L 417.164431 151.575234 
L 419.623686 121.650126 
L 422.082941 61.799997 
L 424.542196 129.131411 
L 429.460707 114.16885 
L 431.919962 159.056533 
L 434.379217 84.243799 
L 436.838472 69.281259 
L 439.297727 114.1689 
L 441.756983 84.243785 
L 444.216238 99.20631 
L 446.675493 151.575256 
L 449.134748 136.612673 
L 451.594004 144.093957 
L 454.053259 129.131475 
L 456.512514 121.650112 
L 458.971769 91.725062 
L 463.89028 144.093993 
L 468.80879 76.762565 
L 471.268045 121.650219 
L 473.7273 114.1688 
L 476.186556 121.650141 
L 478.645811 136.612666 
L 481.105066 99.20636 
L 483.564321 114.16885 
L 486.023576 144.093957 
L 488.482832 106.687601 
L 490.942087 106.687544 
L 493.401342 136.612695 
L 495.860597 129.131418 
L 500.779108 129.131425 
L 503.238363 166.537795 
L 505.697618 144.094 
L 510.616129 84.243813 
L 513.075384 159.056547 
L 515.534639 84.243813 
L 517.993894 129.131389 
L 520.453149 114.168907 
L 522.912405 136.612716 
L 525.37166 121.650198 
L 527.830915 76.762508 
L 530.29017 136.612652 
L 532.749425 129.131425 
L 535.208681 129.131403 
L 537.667936 121.650126 
L 540.127191 106.687587 
L 542.586446 129.131396 
L 545.045701 114.168907 
L 547.504957 136.61273 
L 549.964212 121.650155 
L 552.423467 121.650155 
L 554.882722 144.093914 
L 557.341978 91.725033 
L 559.801233 69.281245 
L 562.260488 129.131418 
L 564.719743 91.725047 
L 567.178998 121.650184 
L 569.638254 121.650205 
L 572.097509 136.612737 
L 572.097509 136.612737 
" clip-path="url(#pb898d98805)" style="fill: none; stroke: #ff7c00; stroke-opacity: 0.9; stroke-width: 1.5; stroke-linecap: round"/>
   </g>
  </g>
 </g>
 <defs>
  <clipPath id="pb898d98805">
   <rect x="58.236133" y="9.057071" width="538.330965" height="172.817375"/>
  </clipPath>
 </defs>
</svg>
