<?xml version="1.0" encoding="utf-8" standalone="no"?>
<!DOCTYPE svg PUBLIC "-//W3C//DTD SVG 1.1//EN"
  "http://www.w3.org/Graphics/SVG/1.1/DTD/svg11.dtd">
<svg xmlns:xlink="http://www.w3.org/1999/xlink" width="331.270127pt" height="234.534474pt" viewBox="0 0 331.270127 234.534474" xmlns="http://www.w3.org/2000/svg" version="1.1">
 <metadata>
  <rdf:RDF xmlns:dc="http://purl.org/dc/elements/1.1/" xmlns:cc="http://creativecommons.org/ns#" xmlns:rdf="http://www.w3.org/1999/02/22-rdf-syntax-ns#">
   <cc:Work>
    <dc:type rdf:resource="http://purl.org/dc/dcmitype/StillImage"/>
    <dc:date>2023-12-05T12:16:25.541685</dc:date>
    <dc:format>image/svg+xml</dc:format>
    <dc:creator>
     <cc:Agent>
      <dc:title>Matplotlib v3.8.2, https://matplotlib.org/</dc:title>
     </cc:Agent>
    </dc:creator>
   </cc:Work>
  </rdf:RDF>
 </metadata>
 <defs>
  <style type="text/css">*{stroke-linejoin: round; stroke-linecap: butt}</style>
 </defs>
 <g id="figure_1">
  <g id="patch_1">
   <path d="M 0 234.534474 
L 331.270127 234.534474 
L 331.270127 0 
L 0 0 
L 0 234.534474 
z
" style="fill: none"/>
  </g>
  <g id="axes_1">
   <g id="patch_2">
    <path d="M 55.4625 192.009865 
L 321.83859 192.009865 
L 321.83859 28.442513 
L 55.4625 28.442513 
L 55.4625 192.009865 
z
" style="fill: none"/>
   </g>
   <g id="matplotlib.axis_1">
    <g id="xtick_1">
     <g id="text_1">
      <!-- 0 -->
      <g style="fill: #838383" transform="translate(63.196285 205.957716) scale(0.1375 -0.1375)">
       <defs>
        <path id="DejaVuSans-30" d="M 2034 4250 
Q 1547 4250 1301 3770 
Q 1056 3291 1056 2328 
Q 1056 1369 1301 889 
Q 1547 409 2034 409 
Q 2525 409 2770 889 
Q 3016 1369 3016 2328 
Q 3016 3291 2770 3770 
Q 2525 4250 2034 4250 
z
M 2034 4750 
Q 2819 4750 3233 4129 
Q 3647 3509 3647 2328 
Q 3647 1150 3233 529 
Q 2819 -91 2034 -91 
Q 1250 -91 836 529 
Q 422 1150 422 2328 
Q 422 3509 836 4129 
Q 1250 4750 2034 4750 
z
" transform="scale(0.015625)"/>
       </defs>
       <use xlink:href="#DejaVuSans-30"/>
      </g>
     </g>
    </g>
    <g id="xtick_2">
     <g id="text_2">
      <!-- 50 -->
      <g style="fill: #838383" transform="translate(119.666308 205.957716) scale(0.1375 -0.1375)">
       <defs>
        <path id="DejaVuSans-35" d="M 691 4666 
L 3169 4666 
L 3169 4134 
L 1269 4134 
L 1269 2991 
Q 1406 3038 1543 3061 
Q 1681 3084 1819 3084 
Q 2600 3084 3056 2656 
Q 3513 2228 3513 1497 
Q 3513 744 3044 326 
Q 2575 -91 1722 -91 
Q 1428 -91 1123 -41 
Q 819 9 494 109 
L 494 744 
Q 775 591 1075 516 
Q 1375 441 1709 441 
Q 2250 441 2565 725 
Q 2881 1009 2881 1497 
Q 2881 1984 2565 2268 
Q 2250 2553 1709 2553 
Q 1456 2553 1204 2497 
Q 953 2441 691 2322 
L 691 4666 
z
" transform="scale(0.015625)"/>
       </defs>
       <use xlink:href="#DejaVuSans-35"/>
       <use xlink:href="#DejaVuSans-30" x="63.623047"/>
      </g>
     </g>
    </g>
    <g id="xtick_3">
     <g id="text_3">
      <!-- 100 -->
      <g style="fill: #838383" transform="translate(176.136331 205.957716) scale(0.1375 -0.1375)">
       <defs>
        <path id="DejaVuSans-31" d="M 794 531 
L 1825 531 
L 1825 4091 
L 703 3866 
L 703 4441 
L 1819 4666 
L 2450 4666 
L 2450 531 
L 3481 531 
L 3481 0 
L 794 0 
L 794 531 
z
" transform="scale(0.015625)"/>
       </defs>
       <use xlink:href="#DejaVuSans-31"/>
       <use xlink:href="#DejaVuSans-30" x="63.623047"/>
       <use xlink:href="#DejaVuSans-30" x="127.246094"/>
      </g>
     </g>
    </g>
    <g id="xtick_4">
     <g id="text_4">
      <!-- 150 -->
      <g style="fill: #838383" transform="translate(236.980573 205.957716) scale(0.1375 -0.1375)">
       <use xlink:href="#DejaVuSans-31"/>
       <use xlink:href="#DejaVuSans-35" x="63.623047"/>
       <use xlink:href="#DejaVuSans-30" x="127.246094"/>
      </g>
     </g>
    </g>
    <g id="xtick_5">
     <g id="text_5">
      <!-- 200 -->
      <g style="fill: #838383" transform="translate(297.824814 205.957716) scale(0.1375 -0.1375)">
       <defs>
        <path id="DejaVuSans-32" d="M 1228 531 
L 3431 531 
L 3431 0 
L 469 0 
L 469 531 
Q 828 903 1448 1529 
Q 2069 2156 2228 2338 
Q 2531 2678 2651 2914 
Q 2772 3150 2772 3378 
Q 2772 3750 2511 3984 
Q 2250 4219 1831 4219 
Q 1534 4219 1204 4116 
Q 875 4013 500 3803 
L 500 4441 
Q 881 4594 1212 4672 
Q 1544 4750 1819 4750 
Q 2544 4750 2975 4387 
Q 3406 4025 3406 3419 
Q 3406 3131 3298 2873 
Q 3191 2616 2906 2266 
Q 2828 2175 2409 1742 
Q 1991 1309 1228 531 
z
" transform="scale(0.015625)"/>
       </defs>
       <use xlink:href="#DejaVuSans-32"/>
       <use xlink:href="#DejaVuSans-30" x="63.623047"/>
       <use xlink:href="#DejaVuSans-30" x="127.246094"/>
      </g>
     </g>
    </g>
    <g id="text_6">
     <!-- draw -->
     <g style="fill: #838383" transform="translate(170.076326 224.214943) scale(0.15 -0.15)">
      <defs>
       <path id="DejaVuSans-64" d="M 2906 2969 
L 2906 4863 
L 3481 4863 
L 3481 0 
L 2906 0 
L 2906 525 
Q 2725 213 2448 61 
Q 2172 -91 1784 -91 
Q 1150 -91 751 415 
Q 353 922 353 1747 
Q 353 2572 751 3078 
Q 1150 3584 1784 3584 
Q 2172 3584 2448 3432 
Q 2725 3281 2906 2969 
z
M 947 1747 
Q 947 1113 1208 752 
Q 1469 391 1925 391 
Q 2381 391 2643 752 
Q 2906 1113 2906 1747 
Q 2906 2381 2643 2742 
Q 2381 3103 1925 3103 
Q 1469 3103 1208 2742 
Q 947 2381 947 1747 
z
" transform="scale(0.015625)"/>
       <path id="DejaVuSans-72" d="M 2631 2963 
Q 2534 3019 2420 3045 
Q 2306 3072 2169 3072 
Q 1681 3072 1420 2755 
Q 1159 2438 1159 1844 
L 1159 0 
L 581 0 
L 581 3500 
L 1159 3500 
L 1159 2956 
Q 1341 3275 1631 3429 
Q 1922 3584 2338 3584 
Q 2397 3584 2469 3576 
Q 2541 3569 2628 3553 
L 2631 2963 
z
" transform="scale(0.015625)"/>
       <path id="DejaVuSans-61" d="M 2194 1759 
Q 1497 1759 1228 1600 
Q 959 1441 959 1056 
Q 959 750 1161 570 
Q 1363 391 1709 391 
Q 2188 391 2477 730 
Q 2766 1069 2766 1631 
L 2766 1759 
L 2194 1759 
z
M 3341 1997 
L 3341 0 
L 2766 0 
L 2766 531 
Q 2569 213 2275 61 
Q 1981 -91 1556 -91 
Q 1019 -91 701 211 
Q 384 513 384 1019 
Q 384 1609 779 1909 
Q 1175 2209 1959 2209 
L 2766 2209 
L 2766 2266 
Q 2766 2663 2505 2880 
Q 2244 3097 1772 3097 
Q 1472 3097 1187 3025 
Q 903 2953 641 2809 
L 641 3341 
Q 956 3463 1253 3523 
Q 1550 3584 1831 3584 
Q 2591 3584 2966 3190 
Q 3341 2797 3341 1997 
z
" transform="scale(0.015625)"/>
       <path id="DejaVuSans-77" d="M 269 3500 
L 844 3500 
L 1563 769 
L 2278 3500 
L 2956 3500 
L 3675 769 
L 4391 3500 
L 4966 3500 
L 4050 0 
L 3372 0 
L 2619 2869 
L 1863 0 
L 1184 0 
L 269 3500 
z
" transform="scale(0.015625)"/>
      </defs>
      <use xlink:href="#DejaVuSans-64"/>
      <use xlink:href="#DejaVuSans-72" x="63.476562"/>
      <use xlink:href="#DejaVuSans-61" x="104.589844"/>
      <use xlink:href="#DejaVuSans-77" x="165.869141"/>
     </g>
    </g>
   </g>
   <g id="matplotlib.axis_2">
    <g id="ytick_1">
     <g id="text_7">
      <!-- 390 -->
      <g style="fill: #838383" transform="translate(25.717188 193.56033) scale(0.1375 -0.1375)">
       <defs>
        <path id="DejaVuSans-33" d="M 2597 2516 
Q 3050 2419 3304 2112 
Q 3559 1806 3559 1356 
Q 3559 666 3084 287 
Q 2609 -91 1734 -91 
Q 1441 -91 1130 -33 
Q 819 25 488 141 
L 488 750 
Q 750 597 1062 519 
Q 1375 441 1716 441 
Q 2309 441 2620 675 
Q 2931 909 2931 1356 
Q 2931 1769 2642 2001 
Q 2353 2234 1838 2234 
L 1294 2234 
L 1294 2753 
L 1863 2753 
Q 2328 2753 2575 2939 
Q 2822 3125 2822 3475 
Q 2822 3834 2567 4026 
Q 2313 4219 1838 4219 
Q 1578 4219 1281 4162 
Q 984 4106 628 3988 
L 628 4550 
Q 988 4650 1302 4700 
Q 1616 4750 1894 4750 
Q 2613 4750 3031 4423 
Q 3450 4097 3450 3541 
Q 3450 3153 3228 2886 
Q 3006 2619 2597 2516 
z
" transform="scale(0.015625)"/>
        <path id="DejaVuSans-39" d="M 703 97 
L 703 672 
Q 941 559 1184 500 
Q 1428 441 1663 441 
Q 2288 441 2617 861 
Q 2947 1281 2994 2138 
Q 2813 1869 2534 1725 
Q 2256 1581 1919 1581 
Q 1219 1581 811 2004 
Q 403 2428 403 3163 
Q 403 3881 828 4315 
Q 1253 4750 1959 4750 
Q 2769 4750 3195 4129 
Q 3622 3509 3622 2328 
Q 3622 1225 3098 567 
Q 2575 -91 1691 -91 
Q 1453 -91 1209 -44 
Q 966 3 703 97 
z
M 1959 2075 
Q 2384 2075 2632 2365 
Q 2881 2656 2881 3163 
Q 2881 3666 2632 3958 
Q 2384 4250 1959 4250 
Q 1534 4250 1286 3958 
Q 1038 3666 1038 3163 
Q 1038 2656 1286 2365 
Q 1534 2075 1959 2075 
z
" transform="scale(0.015625)"/>
       </defs>
       <use xlink:href="#DejaVuSans-33"/>
       <use xlink:href="#DejaVuSans-39" x="63.623047"/>
       <use xlink:href="#DejaVuSans-30" x="127.246094"/>
      </g>
     </g>
    </g>
    <g id="ytick_2">
     <g id="text_8">
      <!-- 395 -->
      <g style="fill: #838383" transform="translate(25.717188 156.618061) scale(0.1375 -0.1375)">
       <use xlink:href="#DejaVuSans-33"/>
       <use xlink:href="#DejaVuSans-39" x="63.623047"/>
       <use xlink:href="#DejaVuSans-35" x="127.246094"/>
      </g>
     </g>
    </g>
    <g id="ytick_3">
     <g id="text_9">
      <!-- 400 -->
      <g style="fill: #838383" transform="translate(25.717188 119.675793) scale(0.1375 -0.1375)">
       <defs>
        <path id="DejaVuSans-34" d="M 2419 4116 
L 825 1625 
L 2419 1625 
L 2419 4116 
z
M 2253 4666 
L 3047 4666 
L 3047 1625 
L 3713 1625 
L 3713 1100 
L 3047 1100 
L 3047 0 
L 2419 0 
L 2419 1100 
L 313 1100 
L 313 1709 
L 2253 4666 
z
" transform="scale(0.015625)"/>
       </defs>
       <use xlink:href="#DejaVuSans-34"/>
       <use xlink:href="#DejaVuSans-30" x="63.623047"/>
       <use xlink:href="#DejaVuSans-30" x="127.246094"/>
      </g>
     </g>
    </g>
    <g id="ytick_4">
     <g id="text_10">
      <!-- 405 -->
      <g style="fill: #838383" transform="translate(25.717188 82.733524) scale(0.1375 -0.1375)">
       <use xlink:href="#DejaVuSans-34"/>
       <use xlink:href="#DejaVuSans-30" x="63.623047"/>
       <use xlink:href="#DejaVuSans-35" x="127.246094"/>
      </g>
     </g>
    </g>
    <g id="ytick_5">
     <g id="text_11">
      <!-- 410 -->
      <g style="fill: #838383" transform="translate(25.717188 45.791255) scale(0.1375 -0.1375)">
       <use xlink:href="#DejaVuSans-34"/>
       <use xlink:href="#DejaVuSans-31" x="63.623047"/>
       <use xlink:href="#DejaVuSans-30" x="127.246094"/>
      </g>
     </g>
    </g>
    <g id="text_12">
     <!-- energy -->
     <g style="fill: #838383" transform="translate(18.597656 136.361345) rotate(-90) scale(0.15 -0.15)">
      <defs>
       <path id="DejaVuSans-65" d="M 3597 1894 
L 3597 1613 
L 953 1613 
Q 991 1019 1311 708 
Q 1631 397 2203 397 
Q 2534 397 2845 478 
Q 3156 559 3463 722 
L 3463 178 
Q 3153 47 2828 -22 
Q 2503 -91 2169 -91 
Q 1331 -91 842 396 
Q 353 884 353 1716 
Q 353 2575 817 3079 
Q 1281 3584 2069 3584 
Q 2775 3584 3186 3129 
Q 3597 2675 3597 1894 
z
M 3022 2063 
Q 3016 2534 2758 2815 
Q 2500 3097 2075 3097 
Q 1594 3097 1305 2825 
Q 1016 2553 972 2059 
L 3022 2063 
z
" transform="scale(0.015625)"/>
       <path id="DejaVuSans-6e" d="M 3513 2113 
L 3513 0 
L 2938 0 
L 2938 2094 
Q 2938 2591 2744 2837 
Q 2550 3084 2163 3084 
Q 1697 3084 1428 2787 
Q 1159 2491 1159 1978 
L 1159 0 
L 581 0 
L 581 3500 
L 1159 3500 
L 1159 2956 
Q 1366 3272 1645 3428 
Q 1925 3584 2291 3584 
Q 2894 3584 3203 3211 
Q 3513 2838 3513 2113 
z
" transform="scale(0.015625)"/>
       <path id="DejaVuSans-67" d="M 2906 1791 
Q 2906 2416 2648 2759 
Q 2391 3103 1925 3103 
Q 1463 3103 1205 2759 
Q 947 2416 947 1791 
Q 947 1169 1205 825 
Q 1463 481 1925 481 
Q 2391 481 2648 825 
Q 2906 1169 2906 1791 
z
M 3481 434 
Q 3481 -459 3084 -895 
Q 2688 -1331 1869 -1331 
Q 1566 -1331 1297 -1286 
Q 1028 -1241 775 -1147 
L 775 -588 
Q 1028 -725 1275 -790 
Q 1522 -856 1778 -856 
Q 2344 -856 2625 -561 
Q 2906 -266 2906 331 
L 2906 616 
Q 2728 306 2450 153 
Q 2172 0 1784 0 
Q 1141 0 747 490 
Q 353 981 353 1791 
Q 353 2603 747 3093 
Q 1141 3584 1784 3584 
Q 2172 3584 2450 3431 
Q 2728 3278 2906 2969 
L 2906 3500 
L 3481 3500 
L 3481 434 
z
" transform="scale(0.015625)"/>
       <path id="DejaVuSans-79" d="M 2059 -325 
Q 1816 -950 1584 -1140 
Q 1353 -1331 966 -1331 
L 506 -1331 
L 506 -850 
L 844 -850 
Q 1081 -850 1212 -737 
Q 1344 -625 1503 -206 
L 1606 56 
L 191 3500 
L 800 3500 
L 1894 763 
L 2988 3500 
L 3597 3500 
L 2059 -325 
z
" transform="scale(0.015625)"/>
      </defs>
      <use xlink:href="#DejaVuSans-65"/>
      <use xlink:href="#DejaVuSans-6e" x="61.523438"/>
      <use xlink:href="#DejaVuSans-65" x="124.902344"/>
      <use xlink:href="#DejaVuSans-72" x="186.425781"/>
      <use xlink:href="#DejaVuSans-67" x="225.789062"/>
      <use xlink:href="#DejaVuSans-79" x="289.265625"/>
     </g>
    </g>
   </g>
   <g id="line2d_1">
    <path d="M 67.570504 136.627149 
L 68.787389 139.027585 
L 70.004274 115.305074 
L 71.221159 150.595494 
L 73.654928 122.860833 
L 74.871813 152.517466 
L 76.088698 140.698375 
L 77.305583 161.570396 
L 78.522468 151.250732 
L 79.739352 152.447793 
L 82.173122 164.550084 
L 84.606892 139.808189 
L 85.823777 169.277901 
L 88.257546 142.10761 
L 89.474431 148.304189 
L 90.691316 162.868246 
L 94.34197 141.037944 
L 95.558855 164.686272 
L 96.77574 145.840169 
L 99.20951 165.779163 
L 100.426395 171.292769 
L 101.643279 148.7459 
L 102.860164 171.77236 
L 104.077049 175.79804 
L 105.293934 154.944057 
L 106.510819 159.304345 
L 107.727704 152.585109 
L 108.944588 161.880653 
L 110.161473 150.514096 
L 111.378358 160.450673 
L 112.595243 153.719713 
L 113.812128 167.508577 
L 115.029013 140.827348 
L 116.245897 141.740984 
L 117.462782 154.993436 
L 118.679667 150.780385 
L 119.896552 139.405936 
L 121.113437 156.615748 
L 123.547206 129.452448 
L 124.764091 117.58285 
L 125.980976 143.142102 
L 127.197861 135.822194 
L 128.414746 154.986221 
L 129.63163 124.933198 
L 130.848515 163.875004 
L 133.282285 133.630325 
L 135.716055 168.594929 
L 139.366709 134.610927 
L 140.583594 148.971152 
L 141.800479 144.91819 
L 143.017364 153.069435 
L 144.234248 153.187811 
L 145.451133 134.618594 
L 147.884903 163.815252 
L 149.101788 146.986497 
L 150.318673 156.839648 
L 152.752442 136.033917 
L 153.969327 160.219108 
L 155.186212 139.419014 
L 156.403097 168.017706 
L 157.619982 153.669206 
L 160.053751 157.272791 
L 161.270636 150.258855 
L 162.487521 129.050421 
L 163.704406 140.969624 
L 164.921291 139.327921 
L 166.138175 159.60874 
L 167.35506 153.748123 
L 168.571945 134.377332 
L 169.78883 135.944403 
L 171.005715 129.419528 
L 172.2226 141.806372 
L 173.439484 142.680324 
L 175.873254 157.928705 
L 177.090139 149.85773 
L 178.307024 132.436871 
L 179.523909 156.164342 
L 180.740793 136.944171 
L 181.957678 145.627769 
L 183.174563 142.004342 
L 184.391448 152.660418 
L 188.042102 156.147206 
L 190.475872 147.811746 
L 191.692757 141.531064 
L 192.909642 153.649364 
L 196.560296 115.226834 
L 197.777181 144.764414 
L 198.994066 135.074961 
L 200.210951 145.305335 
L 201.427836 145.885715 
L 202.64472 154.15759 
L 205.07849 142.118433 
L 206.295375 163.770156 
L 208.729145 141.623961 
L 209.946029 144.011544 
L 211.162914 182.305552 
L 212.379799 148.855257 
L 213.596684 151.520629 
L 216.030454 140.742568 
L 219.681108 148.151766 
L 220.897993 140.823289 
L 222.114878 158.440314 
L 223.331763 149.813537 
L 225.765532 163.610293 
L 226.982417 184.574985 
L 229.416187 146.540953 
L 230.633072 150.555809 
L 231.849956 171.500434 
L 233.066841 140.496347 
L 234.283726 159.080671 
L 236.717496 146.469251 
L 237.934381 123.742902 
L 239.151265 133.036642 
L 241.585035 169.451067 
L 242.80192 139.834795 
L 244.018805 170.525018 
L 246.452574 153.909565 
L 247.669459 164.442982 
L 248.886344 165.325051 
L 250.103229 172.182053 
L 251.320114 158.240541 
L 252.536998 157.03198 
L 253.753883 163.233519 
L 254.970768 158.254521 
L 257.404538 166.028541 
L 258.621423 152.231334 
L 259.838307 154.249134 
L 262.272077 161.892378 
L 263.488962 156.940436 
L 264.705847 115.712062 
L 265.922732 158.739298 
L 267.139616 148.742518 
L 268.356501 170.425357 
L 269.573386 173.486442 
L 270.790271 163.456742 
L 272.007156 172.381376 
L 274.440925 144.289333 
L 275.65781 146.870827 
L 276.874695 133.519164 
L 278.09158 142.796219 
L 279.308465 141.351584 
L 280.52535 164.338811 
L 281.742234 146.894953 
L 282.959119 163.312211 
L 284.176004 154.768861 
L 285.392889 165.721891 
L 290.260428 135.639106 
L 291.477313 152.640576 
L 292.694198 143.606135 
L 293.911083 147.974541 
L 295.127968 141.001868 
L 296.344852 157.131642 
L 297.561737 154.967957 
L 298.778622 128.817503 
L 302.429277 168.69459 
L 304.863046 159.137491 
L 306.079931 168.820857 
L 307.296816 139.87944 
L 308.513701 168.572381 
L 309.730586 156.003577 
L 309.730586 156.003577 
" clip-path="url(#pa19391e7d1)" style="fill: none; stroke: #440154; stroke-width: 1.5; stroke-linecap: round"/>
   </g>
   <g id="line2d_2">
    <path d="M 67.570504 61.530894 
L 68.787389 63.74486 
L 70.004274 40.115923 
L 71.221159 77.753114 
L 73.654928 48.556456 
L 74.871813 84.402226 
L 76.088698 66.02692 
L 77.305583 89.091486 
L 78.522468 79.572719 
L 79.739352 79.337546 
L 82.173122 88.55981 
L 84.606892 65.779345 
L 85.823777 96.87633 
L 88.257546 62.580719 
L 89.474431 68.014957 
L 90.691316 83.206969 
L 94.34197 63.909684 
L 95.558855 90.600834 
L 96.77574 66.921165 
L 99.20951 91.316726 
L 100.426395 97.793122 
L 101.643279 73.264755 
L 102.860164 101.014297 
L 104.077049 105.063426 
L 105.293934 79.83292 
L 106.510819 83.64665 
L 107.727704 79.25209 
L 108.944588 89.638721 
L 110.161473 72.775017 
L 111.378358 87.165005 
L 112.595243 77.933496 
L 113.812128 93.693486 
L 115.029013 63.799651 
L 116.245897 64.080371 
L 117.462782 76.475557 
L 118.679667 77.143873 
L 119.896552 62.719162 
L 121.113437 78.650515 
L 122.330322 56.231943 
L 123.547206 52.652033 
L 124.764091 38.004099 
L 125.980976 69.688002 
L 127.197861 62.40665 
L 128.414746 82.409229 
L 129.63163 48.987118 
L 130.848515 95.553227 
L 133.282285 61.969899 
L 135.716055 96.08806 
L 139.366709 62.35479 
L 140.583594 77.006332 
L 141.800479 73.022592 
L 143.017364 82.51836 
L 144.234248 80.832238 
L 145.451133 54.860362 
L 147.884903 93.626294 
L 149.101788 71.831844 
L 150.318673 82.268531 
L 152.752442 52.21641 
L 153.969327 84.421166 
L 155.186212 63.732459 
L 156.403097 94.25222 
L 157.619982 78.734393 
L 158.836866 84.647772 
L 160.053751 84.422294 
L 161.270636 80.336863 
L 162.487521 54.46307 
L 163.704406 69.172785 
L 164.921291 64.090292 
L 166.138175 80.391429 
L 167.35506 79.637206 
L 169.78883 59.000583 
L 171.005715 52.263309 
L 172.2226 66.051272 
L 173.439484 66.236389 
L 174.656369 80.47463 
L 175.873254 82.31791 
L 177.090139 74.549978 
L 178.307024 59.913092 
L 179.523909 86.594772 
L 180.740793 61.980497 
L 181.957678 73.230707 
L 183.174563 66.008431 
L 184.391448 80.065613 
L 185.608333 82.117461 
L 186.825218 77.804523 
L 188.042102 83.086564 
L 189.258987 72.529923 
L 190.475872 71.442895 
L 191.692757 63.274739 
L 192.909642 78.601587 
L 194.126527 61.393804 
L 195.343411 61.215 
L 196.560296 35.877393 
L 197.777181 68.97211 
L 198.994066 58.286721 
L 202.64472 81.988938 
L 203.861605 71.857999 
L 205.07849 71.184948 
L 206.295375 89.201068 
L 208.729145 66.45668 
L 209.946029 69.509649 
L 211.162914 114.302601 
L 212.379799 70.160603 
L 213.596684 80.23382 
L 216.030454 64.87315 
L 217.247338 64.722757 
L 219.681108 76.812872 
L 220.897993 68.246072 
L 222.114878 87.284057 
L 223.331763 74.479403 
L 225.765532 86.665797 
L 226.982417 113.559426 
L 229.416187 68.017437 
L 230.633072 72.246046 
L 231.849956 96.249051 
L 233.066841 65.161086 
L 234.283726 83.382391 
L 236.717496 74.205448 
L 237.934381 44.226382 
L 239.151265 53.1677 
L 241.585035 97.582977 
L 242.80192 63.930203 
L 244.018805 100.877657 
L 245.23569 84.511583 
L 246.452574 82.66447 
L 250.103229 95.52166 
L 251.320114 81.840574 
L 252.536998 80.43224 
L 253.753883 90.809176 
L 254.970768 87.636253 
L 256.187653 93.366544 
L 257.404538 90.316507 
L 258.621423 78.055254 
L 261.055192 84.700082 
L 262.272077 88.982806 
L 263.488962 84.060402 
L 264.705847 38.339384 
L 265.922732 86.284289 
L 267.139616 74.956288 
L 268.356501 100.583634 
L 269.573386 100.364245 
L 270.790271 93.981647 
L 272.007156 94.91738 
L 274.440925 64.996036 
L 275.65781 75.533286 
L 276.874695 60.588848 
L 278.09158 67.943931 
L 279.308465 68.053063 
L 280.52535 89.933871 
L 281.742234 72.540069 
L 282.959119 87.176279 
L 284.176004 76.365524 
L 285.392889 94.482208 
L 286.609774 84.480918 
L 287.826659 83.656571 
L 289.043543 63.251289 
L 290.260428 61.019511 
L 291.477313 80.970005 
L 292.694198 70.913698 
L 293.911083 76.404306 
L 295.127968 60.66258 
L 296.344852 81.804949 
L 297.561737 77.704862 
L 298.778622 55.474112 
L 299.995507 64.661878 
L 301.212392 89.379421 
L 302.429277 92.965644 
L 303.646161 84.79591 
L 304.863046 84.03357 
L 306.079931 92.07839 
L 307.296816 61.507445 
L 308.513701 100.19942 
L 309.730586 86.364559 
L 309.730586 86.364559 
" clip-path="url(#pa19391e7d1)" style="fill: none; stroke: #482878; stroke-width: 1.5; stroke-linecap: round"/>
   </g>
   <g id="line2d_3">
    <path d="M 67.570504 83.096936 
L 68.787389 88.271649 
L 70.004274 62.45851 
L 71.221159 100.091191 
L 73.654928 72.563068 
L 74.871813 108.108277 
L 76.088698 88.018663 
L 77.305583 116.909574 
L 79.739352 100.032567 
L 82.173122 110.890672 
L 83.390007 105.066582 
L 84.606892 89.694188 
L 85.823777 116.208564 
L 88.257546 86.230625 
L 90.691316 109.697669 
L 94.34197 87.671879 
L 95.558855 114.231124 
L 96.77574 87.877063 
L 99.20951 118.655222 
L 100.426395 121.872338 
L 101.643279 96.553897 
L 102.860164 125.377164 
L 104.077049 125.457434 
L 105.293934 104.595785 
L 106.510819 109.366893 
L 107.727704 99.863459 
L 108.944588 113.153115 
L 110.161473 96.781178 
L 111.378358 111.539146 
L 112.595243 101.736953 
L 113.812128 119.523312 
L 115.029013 84.818684 
L 116.245897 90.077275 
L 117.462782 103.495003 
L 118.679667 97.994474 
L 119.896552 87.260156 
L 121.113437 105.574809 
L 122.330322 79.454569 
L 123.547206 76.915915 
L 124.764091 63.252191 
L 125.980976 92.176698 
L 127.197861 81.470791 
L 128.414746 105.786758 
L 129.63163 72.741421 
L 130.848515 116.338213 
L 133.282285 83.489718 
L 135.716055 117.414869 
L 136.932939 112.21152 
L 139.366709 86.269182 
L 140.583594 100.849698 
L 141.800479 96.680615 
L 143.017364 107.183818 
L 144.234248 104.203003 
L 145.451133 82.455677 
L 147.884903 115.461556 
L 149.101788 96.350967 
L 150.318673 109.362384 
L 152.752442 83.028842 
L 153.969327 105.298824 
L 155.186212 88.960258 
L 156.403097 114.419849 
L 157.619982 106.931734 
L 158.836866 109.346826 
L 160.053751 108.349087 
L 161.270636 100.322757 
L 162.487521 77.785583 
L 163.704406 92.290113 
L 164.921291 87.467596 
L 166.138175 110.487067 
L 167.35506 104.920924 
L 168.571945 83.624554 
L 169.78883 81.02457 
L 171.005715 75.860454 
L 172.2226 92.503415 
L 173.439484 89.37649 
L 175.873254 109.75945 
L 178.307024 81.866729 
L 179.523909 111.61671 
L 180.740793 81.652075 
L 181.957678 94.726174 
L 183.174563 90.549876 
L 184.391448 103.976623 
L 185.608333 104.746404 
L 186.825218 104.274479 
L 188.042102 101.44992 
L 189.258987 94.540832 
L 190.475872 96.718496 
L 191.692757 90.879976 
L 192.909642 100.803024 
L 194.126527 84.203129 
L 195.343411 85.574034 
L 196.560296 55.984819 
L 197.777181 93.418855 
L 198.994066 81.687249 
L 201.427836 96.176898 
L 202.64472 102.079454 
L 203.861605 98.021757 
L 205.07849 87.645723 
L 206.295375 112.236097 
L 207.51226 107.802529 
L 208.729145 88.994531 
L 209.946029 93.194053 
L 211.162914 135.070451 
L 212.379799 93.526858 
L 213.596684 101.021287 
L 216.030454 90.369945 
L 217.247338 91.128001 
L 218.464223 97.888725 
L 219.681108 98.565609 
L 220.897993 92.575117 
L 222.114878 108.424397 
L 223.331763 99.228288 
L 225.765532 114.65164 
L 226.982417 140.0968 
L 229.416187 93.225395 
L 230.633072 93.198788 
L 231.849956 119.591406 
L 233.066841 88.157558 
L 234.283726 107.01967 
L 236.717496 93.592923 
L 237.934381 73.078285 
L 239.151265 74.490451 
L 241.585035 121.335025 
L 242.80192 84.0002 
L 244.018805 119.560966 
L 246.452574 101.9834 
L 248.886344 115.100792 
L 250.103229 121.147653 
L 252.536998 104.017886 
L 253.753883 114.147021 
L 254.970768 107.301518 
L 256.187653 111.910733 
L 257.404538 111.621671 
L 258.621423 102.269531 
L 259.838307 101.349357 
L 261.055192 109.536678 
L 262.272077 109.688425 
L 263.488962 105.826668 
L 264.705847 60.869343 
L 265.922732 108.2846 
L 267.139616 90.255402 
L 269.573386 126.627663 
L 270.790271 116.947454 
L 272.007156 119.472128 
L 274.440925 93.361583 
L 275.65781 94.978709 
L 276.874695 80.981504 
L 278.09158 91.214134 
L 279.308465 89.686747 
L 280.52535 116.579925 
L 281.742234 94.248162 
L 282.959119 113.694262 
L 284.176004 101.520494 
L 285.392889 116.997736 
L 286.609774 105.409534 
L 287.826659 108.216506 
L 289.043543 87.721033 
L 290.260428 86.687894 
L 291.477313 104.812469 
L 292.694198 93.66192 
L 293.911083 97.149158 
L 295.127968 90.077275 
L 296.344852 108.425298 
L 297.561737 102.661863 
L 298.778622 76.544779 
L 302.429277 115.430891 
L 304.863046 107.474233 
L 306.079931 119.123991 
L 307.296816 86.716079 
L 308.513701 122.213261 
L 309.730586 107.396218 
L 309.730586 107.396218 
" clip-path="url(#pa19391e7d1)" style="fill: none; stroke: #3e4989; stroke-width: 1.5; stroke-linecap: round"/>
   </g>
   <g id="line2d_4">
    <path d="M 67.570504 99.740122 
L 68.787389 104.10244 
L 70.004274 77.429102 
L 71.221159 114.64217 
L 73.654928 83.10821 
L 74.871813 116.091315 
L 76.088698 105.270865 
L 77.305583 124.76161 
L 78.522468 112.770479 
L 82.173122 126.280202 
L 84.606892 105.018105 
L 85.823777 135.023326 
L 88.257546 102.605493 
L 89.474431 109.927882 
L 90.691316 124.578747 
L 93.125086 114.478924 
L 94.34197 100.677884 
L 95.558855 129.528434 
L 96.77574 108.299482 
L 97.992625 123.859699 
L 99.20951 126.065998 
L 100.426395 135.159064 
L 101.643279 111.489992 
L 104.077049 141.566915 
L 105.293934 116.565269 
L 106.510819 121.378993 
L 107.727704 115.058402 
L 108.944588 123.993182 
L 110.161473 109.108496 
L 111.378358 125.503432 
L 112.595243 115.859299 
L 113.812128 131.878588 
L 115.029013 103.889138 
L 116.245897 104.433441 
L 117.462782 117.198636 
L 118.679667 114.76483 
L 119.896552 101.71418 
L 121.113437 119.869194 
L 123.547206 89.203323 
L 124.764091 80.112062 
L 125.980976 106.232077 
L 127.197861 99.458726 
L 128.414746 120.130298 
L 129.63163 85.623188 
L 130.848515 129.822457 
L 133.282285 97.925703 
L 135.716055 134.5744 
L 139.366709 99.536291 
L 140.583594 113.014221 
L 141.800479 109.002972 
L 143.017364 119.077768 
L 144.234248 118.257029 
L 145.451133 93.349407 
L 147.884903 128.401497 
L 149.101788 107.733082 
L 150.318673 118.283861 
L 152.752442 96.627853 
L 153.969327 126.108163 
L 155.186212 101.729963 
L 156.403097 130.824706 
L 157.619982 115.839908 
L 158.836866 121.990038 
L 160.053751 121.814616 
L 161.270636 113.248267 
L 162.487521 91.289669 
L 163.704406 104.845163 
L 164.921291 102.33244 
L 166.138175 119.078219 
L 167.35506 117.991641 
L 168.571945 99.936964 
L 169.78883 99.68488 
L 171.005715 90.180544 
L 172.2226 104.161966 
L 173.439484 103.891393 
L 175.873254 120.675954 
L 177.090139 112.544776 
L 178.307024 95.69866 
L 179.523909 121.600412 
L 180.740793 100.736734 
L 181.957678 111.686157 
L 183.174563 103.688237 
L 184.391448 118.229295 
L 185.608333 119.822295 
L 186.825218 117.246663 
L 188.042102 120.462201 
L 189.258987 111.393713 
L 190.475872 110.006799 
L 191.692757 99.83798 
L 192.909642 115.241941 
L 196.560296 77.816699 
L 197.777181 109.382677 
L 198.994066 98.574177 
L 200.210951 108.01538 
L 201.427836 107.361495 
L 202.64472 117.360078 
L 205.07849 107.946384 
L 206.295375 127.314919 
L 208.729145 104.378875 
L 209.946029 106.258683 
L 211.162914 149.167318 
L 212.379799 111.686834 
L 213.596684 116.044641 
L 217.247338 102.631423 
L 218.464223 113.232934 
L 219.681108 113.599561 
L 220.897993 104.373238 
L 222.114878 122.739075 
L 223.331763 113.790766 
L 226.982417 147.825725 
L 229.416187 109.082791 
L 230.633072 114.505531 
L 231.849956 135.73764 
L 233.066841 102.276521 
L 234.283726 122.910889 
L 236.717496 111.426407 
L 237.934381 81.374286 
L 239.151265 94.087171 
L 241.585035 133.202594 
L 242.80192 104.70672 
L 244.018805 138.764678 
L 246.452574 116.717016 
L 247.669459 126.921686 
L 248.886344 128.344902 
L 250.103229 133.014545 
L 252.536998 118.756011 
L 253.753883 127.314018 
L 254.970768 122.124197 
L 256.187653 128.969249 
L 257.404538 128.878833 
L 258.621423 117.970221 
L 261.055192 126.24841 
L 262.272077 126.448634 
L 263.488962 121.232207 
L 264.705847 77.776338 
L 265.922732 123.758234 
L 267.139616 110.252344 
L 268.356501 135.469547 
L 269.573386 138.745287 
L 270.790271 128.907694 
L 272.007156 134.074741 
L 274.440925 106.334444 
L 275.65781 109.917961 
L 276.874695 93.219081 
L 278.09158 105.722723 
L 279.308465 103.67764 
L 280.52535 126.471182 
L 281.742234 108.688205 
L 282.959119 126.457653 
L 284.176004 119.264463 
L 285.392889 129.495289 
L 290.260428 97.274975 
L 291.477313 113.397758 
L 292.694198 108.725184 
L 293.911083 111.055721 
L 295.127968 100.089838 
L 296.344852 116.805854 
L 297.561737 114.389184 
L 298.778622 91.464414 
L 302.429277 131.455818 
L 304.863046 123.747862 
L 306.079931 133.071366 
L 307.296816 102.672235 
L 308.513701 136.040231 
L 309.730586 121.218228 
L 309.730586 121.218228 
" clip-path="url(#pa19391e7d1)" style="fill: none; stroke: #31688e; stroke-width: 1.5; stroke-linecap: round"/>
   </g>
   <g id="line2d_5">
    <path d="M 67.570504 79.575876 
L 68.787389 81.243058 
L 70.004274 57.376016 
L 71.221159 93.871388 
L 73.654928 68.816079 
L 74.871813 104.248098 
L 76.088698 82.290402 
L 77.305583 109.645584 
L 78.522468 96.992676 
L 79.739352 97.019734 
L 82.173122 105.168498 
L 84.606892 82.118137 
L 85.823777 115.021874 
L 88.257546 80.100337 
L 90.691316 104.16873 
L 94.34197 85.594327 
L 95.558855 110.304881 
L 96.77574 87.388679 
L 99.20951 111.548616 
L 100.426395 116.540692 
L 101.643279 93.315135 
L 102.860164 119.724889 
L 104.077049 121.253853 
L 105.293934 98.869102 
L 106.510819 102.604591 
L 107.727704 96.429884 
L 108.944588 108.795533 
L 110.161473 92.41593 
L 111.378358 104.638626 
L 112.595243 95.223127 
L 113.812128 115.107556 
L 115.029013 79.568661 
L 118.679667 94.599005 
L 119.896552 83.653866 
L 121.113437 96.822215 
L 122.330322 75.431595 
L 123.547206 72.271525 
L 124.764091 60.267317 
L 125.980976 87.010778 
L 127.197861 78.058185 
L 128.414746 102.710791 
L 129.63163 69.327914 
L 130.848515 113.408807 
L 133.282285 78.771371 
L 135.716055 111.848952 
L 136.932939 104.621489 
L 139.366709 82.270335 
L 140.583594 95.596744 
L 141.800479 91.126648 
L 143.017364 98.081959 
L 144.234248 98.187708 
L 145.451133 76.293371 
L 147.884903 110.758091 
L 149.101788 89.59836 
L 150.318673 101.808429 
L 152.752442 74.638816 
L 153.969327 100.210694 
L 155.186212 82.942033 
L 156.403097 111.554478 
L 157.619982 98.083989 
L 160.053751 102.90628 
L 161.270636 97.795828 
L 162.487521 74.216045 
L 163.704406 87.045953 
L 164.921291 84.296477 
L 166.138175 101.635714 
L 167.35506 99.728172 
L 169.78883 76.035425 
L 171.005715 73.577267 
L 174.656369 99.436855 
L 175.873254 102.138078 
L 178.307024 78.239695 
L 179.523909 103.263663 
L 180.740793 78.558746 
L 181.957678 93.178946 
L 183.174563 83.160521 
L 184.391448 99.511488 
L 186.825218 97.488953 
L 188.042102 98.837986 
L 189.258987 92.029461 
L 190.475872 91.174449 
L 191.692757 84.964793 
L 192.909642 97.027625 
L 196.560296 52.7075 
L 197.777181 86.831298 
L 198.994066 77.638571 
L 201.427836 92.756852 
L 202.64472 99.963571 
L 205.07849 88.190477 
L 206.295375 107.811548 
L 207.51226 100.244065 
L 208.729145 85.54878 
L 209.946029 87.631969 
L 211.162914 131.054242 
L 212.379799 87.255196 
L 213.596684 96.546681 
L 216.030454 83.427035 
L 217.247338 85.490156 
L 219.681108 95.024707 
L 220.897993 87.43648 
L 222.114878 103.871551 
L 223.331763 91.836678 
L 225.765532 106.486867 
L 226.982417 133.742387 
L 229.416187 84.83582 
L 230.633072 89.201519 
L 231.849956 114.567762 
L 233.066841 82.934817 
L 234.283726 101.307643 
L 236.717496 91.973993 
L 237.934381 66.723195 
L 239.151265 70.1004 
L 241.585035 115.772039 
L 242.80192 81.761431 
L 244.018805 116.583984 
L 246.452574 99.912162 
L 248.886344 110.322919 
L 250.103229 116.30845 
L 251.320114 101.178896 
L 252.536998 100.267064 
L 253.753883 107.215836 
L 254.970768 102.356791 
L 256.187653 110.339604 
L 257.404538 107.414707 
L 258.621423 97.776437 
L 259.838307 96.238904 
L 262.272077 107.161045 
L 263.488962 103.232547 
L 264.705847 54.598356 
L 265.922732 101.088028 
L 267.139616 92.289662 
L 268.356501 115.610371 
L 269.573386 116.709801 
L 270.790271 112.153347 
L 272.007156 113.75469 
L 274.440925 87.017993 
L 275.65781 91.000381 
L 276.874695 80.978347 
L 279.308465 86.210107 
L 280.52535 107.986293 
L 281.742234 91.395192 
L 282.959119 106.91347 
L 284.176004 95.920755 
L 285.392889 112.792576 
L 287.826659 101.981822 
L 289.043543 81.983076 
L 290.260428 81.588039 
L 291.477313 101.126134 
L 292.694198 86.074144 
L 293.911083 94.59675 
L 295.127968 82.536398 
L 296.344852 101.816772 
L 297.561737 98.262792 
L 298.778622 73.478057 
L 299.995507 82.55624 
L 302.429277 111.488188 
L 303.646161 102.827138 
L 304.863046 102.550702 
L 306.079931 110.955158 
L 307.296816 81.249822 
L 308.513701 116.473725 
L 309.730586 102.292305 
L 309.730586 102.292305 
" clip-path="url(#pa19391e7d1)" style="fill: none; stroke: #26828e; stroke-width: 1.5; stroke-linecap: round"/>
   </g>
   <g id="line2d_6">
    <path d="M 67.570504 87.976274 
L 68.787389 95.492799 
L 70.004274 70.5606 
L 71.221159 109.09632 
L 73.654928 80.025929 
L 74.871813 110.791011 
L 76.088698 97.692559 
L 77.305583 119.393662 
L 79.739352 107.782687 
L 82.173122 120.015755 
L 84.606892 96.097755 
L 85.823777 122.093758 
L 88.257546 94.566536 
L 89.474431 101.024894 
L 90.691316 113.232483 
L 94.34197 91.75032 
L 95.558855 118.960519 
L 96.77574 97.342167 
L 99.20951 123.038058 
L 100.426395 126.397451 
L 101.643279 103.828033 
L 104.077049 133.622884 
L 105.293934 110.688869 
L 106.510819 114.103729 
L 107.727704 107.82192 
L 108.944588 114.893127 
L 110.161473 102.12951 
L 111.378358 116.513861 
L 112.595243 109.108045 
L 113.812128 122.060161 
L 115.029013 94.009606 
L 116.245897 96.096402 
L 117.462782 108.422818 
L 118.679667 105.869283 
L 119.896552 91.550997 
L 121.113437 112.032942 
L 122.330322 85.820707 
L 123.547206 83.788701 
L 124.764091 68.267492 
L 125.980976 99.374623 
L 127.197861 90.56566 
L 128.414746 109.414018 
L 129.63163 78.834054 
L 130.848515 121.231305 
L 133.282285 90.22857 
L 135.716055 124.812568 
L 139.366709 90.379866 
L 140.583594 105.106943 
L 141.800479 101.003474 
L 143.017364 113.559426 
L 144.234248 109.726079 
L 145.451133 87.049109 
L 147.884903 123.631966 
L 149.101788 104.612921 
L 150.318673 112.977243 
L 152.752442 90.088549 
L 153.969327 113.794374 
L 155.186212 93.980971 
L 156.403097 120.869188 
L 157.619982 110.785374 
L 158.836866 115.636978 
L 160.053751 113.508468 
L 161.270636 106.3137 
L 162.487521 82.623207 
L 163.704406 96.948934 
L 164.921291 93.448843 
L 166.138175 115.6239 
L 167.35506 108.6147 
L 168.571945 90.271411 
L 169.78883 88.974012 
L 171.005715 80.58534 
L 172.2226 100.637749 
L 173.439484 95.458526 
L 174.656369 113.040376 
L 175.873254 113.626393 
L 177.090139 105.39826 
L 178.307024 86.238968 
L 179.523909 116.422993 
L 180.740793 91.762495 
L 181.957678 100.64271 
L 183.174563 100.366725 
L 185.608333 113.236542 
L 186.825218 107.189455 
L 188.042102 111.609946 
L 189.258987 100.33155 
L 190.475872 102.176409 
L 191.692757 93.201269 
L 192.909642 106.138053 
L 194.126527 92.148513 
L 195.343411 93.234414 
L 196.560296 65.529967 
L 197.777181 98.689622 
L 198.994066 88.126667 
L 200.210951 99.147792 
L 201.427836 98.352758 
L 202.64472 111.281199 
L 205.07849 96.107 
L 206.295375 119.157136 
L 207.51226 112.798664 
L 208.729145 95.275438 
L 209.946029 100.020842 
L 211.162914 139.992855 
L 212.379799 101.575736 
L 213.596684 110.022132 
L 216.030454 95.648378 
L 217.247338 95.111741 
L 218.464223 105.460943 
L 219.681108 104.107851 
L 220.897993 98.529533 
L 222.114878 115.788724 
L 223.331763 104.720474 
L 225.765532 120.42184 
L 226.982417 141.540759 
L 229.416187 100.698854 
L 230.633072 101.554091 
L 231.849956 124.45744 
L 233.066841 96.081746 
L 234.283726 115.006993 
L 236.717496 100.01047 
L 237.934381 76.258648 
L 239.151265 86.763654 
L 241.585035 123.715393 
L 242.80192 92.2484 
L 244.018805 125.270964 
L 246.452574 110.889544 
L 248.886344 122.032428 
L 250.103229 125.809179 
L 252.536998 108.096552 
L 253.753883 122.327352 
L 254.970768 113.867203 
L 256.187653 121.506614 
L 257.404538 120.091064 
L 258.621423 105.207506 
L 261.055192 117.640122 
L 263.488962 111.965073 
L 264.705847 67.826232 
L 265.922732 117.631103 
L 267.139616 98.348248 
L 268.356501 128.253583 
L 269.573386 133.421983 
L 270.790271 123.091722 
L 272.007156 126.944685 
L 274.440925 96.01275 
L 275.65781 102.58272 
L 276.874695 86.18801 
L 278.09158 98.900218 
L 279.308465 97.649944 
L 280.52535 121.604471 
L 281.742234 102.181821 
L 282.959119 117.527608 
L 284.176004 107.207268 
L 285.392889 122.19635 
L 286.609774 112.665632 
L 287.826659 114.428868 
L 289.043543 94.156618 
L 290.260428 91.55235 
L 291.477313 109.170953 
L 292.694198 103.235703 
L 293.911083 104.282371 
L 295.127968 94.481531 
L 296.344852 113.94364 
L 297.561737 106.217421 
L 298.778622 83.57585 
L 299.995507 96.576445 
L 301.212392 120.558705 
L 302.429277 122.624307 
L 304.863046 113.510948 
L 306.079931 121.302782 
L 307.296816 93.026974 
L 308.513701 128.835316 
L 309.730586 116.921299 
L 309.730586 116.921299 
" clip-path="url(#pa19391e7d1)" style="fill: none; stroke: #1f9e89; stroke-width: 1.5; stroke-linecap: round"/>
   </g>
   <g id="line2d_7">
    <path d="M 67.570504 82.237415 
L 68.787389 85.367496 
L 70.004274 61.447919 
L 71.221159 96.481067 
L 73.654928 66.063222 
L 74.871813 101.34124 
L 76.088698 85.378996 
L 77.305583 110.388758 
L 78.522468 96.896172 
L 79.739352 100.180931 
L 80.956237 108.905791 
L 82.173122 107.805911 
L 84.606892 88.359135 
L 85.823777 117.484542 
L 88.257546 85.263326 
L 90.691316 105.660491 
L 91.908201 101.995801 
L 94.34197 84.264459 
L 95.558855 112.744099 
L 96.77574 88.708625 
L 99.20951 110.725397 
L 100.426395 118.620499 
L 101.643279 93.963609 
L 102.860164 121.08745 
L 104.077049 123.313592 
L 105.293934 100.342824 
L 106.510819 106.20998 
L 107.727704 97.705186 
L 108.944588 110.361701 
L 110.161473 94.502501 
L 111.378358 108.817404 
L 112.595243 97.915782 
L 113.812128 114.358068 
L 115.029013 86.037616 
L 116.245897 88.534105 
L 117.462782 100.34305 
L 118.679667 98.009581 
L 119.896552 84.62838 
L 121.113437 103.46321 
L 122.330322 76.174544 
L 123.547206 71.5518 
L 124.764091 61.66573 
L 125.980976 88.651805 
L 127.197861 83.70798 
L 128.414746 105.53738 
L 129.63163 72.773664 
L 130.848515 115.846897 
L 133.282285 80.462003 
L 135.716055 115.010601 
L 139.366709 83.052742 
L 140.583594 96.79155 
L 141.800479 93.063502 
L 143.017364 102.070885 
L 144.234248 100.823543 
L 145.451133 78.78039 
L 147.884903 110.619648 
L 149.101788 91.469149 
L 150.318673 102.258934 
L 152.752442 77.952887 
L 153.969327 105.068837 
L 155.186212 85.140215 
L 156.403097 114.984896 
L 157.619982 99.249257 
L 160.053751 107.844242 
L 161.270636 97.437769 
L 162.487521 73.014023 
L 163.704406 87.346063 
L 164.921291 85.539761 
L 166.138175 101.270891 
L 167.35506 101.458939 
L 168.571945 82.985775 
L 169.78883 80.660875 
L 171.005715 73.775687 
L 174.656369 100.204381 
L 175.873254 103.543706 
L 178.307024 78.172277 
L 179.523909 107.403884 
L 180.740793 82.347899 
L 181.957678 94.078602 
L 183.174563 85.756896 
L 184.391448 102.018124 
L 185.608333 102.907633 
L 186.825218 102.033231 
L 188.042102 103.275162 
L 190.475872 92.835769 
L 191.692757 85.855881 
L 192.909642 98.883983 
L 194.126527 82.335949 
L 195.343411 79.924464 
L 196.560296 56.438706 
L 197.777181 92.528443 
L 198.994066 77.784455 
L 201.427836 94.720087 
L 202.64472 101.789264 
L 205.07849 89.909519 
L 206.295375 109.16216 
L 208.729145 86.374029 
L 209.946029 90.160251 
L 211.162914 133.809129 
L 212.379799 91.484707 
L 213.596684 99.056699 
L 216.030454 84.93954 
L 217.247338 87.870299 
L 219.681108 96.554573 
L 220.897993 86.817318 
L 222.114878 106.989456 
L 223.331763 97.644983 
L 225.765532 111.450758 
L 226.982417 135.443842 
L 229.416187 88.951239 
L 230.633072 94.787053 
L 231.849956 117.297396 
L 233.066841 85.369751 
L 234.283726 105.323176 
L 236.717496 94.056055 
L 237.934381 64.605057 
L 239.151265 73.831155 
L 241.585035 119.759612 
L 242.80192 86.410556 
L 244.018805 124.194759 
L 246.452574 102.42466 
L 250.103229 116.734829 
L 252.536998 100.702236 
L 253.753883 110.798 
L 254.970768 108.336911 
L 256.187653 110.656626 
L 257.404538 109.777488 
L 259.838307 101.565815 
L 262.272077 110.261138 
L 263.488962 104.876956 
L 264.705847 61.604175 
L 265.922732 105.044937 
L 267.139616 93.875222 
L 268.356501 119.127373 
L 269.573386 119.276188 
L 270.790271 110.88977 
L 272.007156 115.272606 
L 274.440925 89.573558 
L 275.65781 93.677703 
L 276.874695 80.185793 
L 278.09158 86.744263 
L 279.308465 84.858142 
L 280.52535 110.198906 
L 281.742234 90.491252 
L 282.959119 110.329007 
L 284.176004 101.100655 
L 285.392889 115.143858 
L 286.609774 102.620375 
L 287.826659 102.482157 
L 289.043543 83.079574 
L 290.260428 81.462899 
L 291.477313 100.000549 
L 292.694198 88.828354 
L 293.911083 93.293489 
L 295.127968 83.833797 
L 296.344852 101.115536 
L 297.561737 99.870448 
L 298.778622 73.336231 
L 301.212392 112.974537 
L 302.429277 112.352218 
L 303.646161 106.038166 
L 304.863046 106.922489 
L 306.079931 116.979247 
L 307.296816 83.66514 
L 308.513701 118.471684 
L 309.730586 102.408651 
L 309.730586 102.408651 
" clip-path="url(#pa19391e7d1)" style="fill: none; stroke: #35b779; stroke-width: 1.5; stroke-linecap: round"/>
   </g>
   <g id="line2d_8">
    <path d="M 67.570504 93.21863 
L 68.787389 96.061228 
L 70.004274 73.016504 
L 71.221159 109.388765 
L 73.654928 80.516569 
L 74.871813 112.356728 
L 76.088698 97.535627 
L 77.305583 122.781916 
L 78.522468 109.645584 
L 79.739352 109.6767 
L 82.173122 118.440568 
L 83.390007 110.252344 
L 84.606892 94.196302 
L 85.823777 125.558899 
L 88.257546 96.798315 
L 89.474431 101.485996 
L 90.691316 120.510453 
L 94.34197 96.162918 
L 95.558855 122.375154 
L 96.77574 99.374172 
L 99.20951 124.071648 
L 100.426395 128.818405 
L 101.643279 104.385865 
L 102.860164 131.278141 
L 104.077049 132.872043 
L 105.293934 109.660916 
L 106.510819 116.326038 
L 107.727704 108.37434 
L 108.944588 120.987113 
L 110.161473 103.808642 
L 111.378358 118.464694 
L 112.595243 108.875352 
L 113.812128 129.409156 
L 115.029013 91.150549 
L 117.462782 110.086167 
L 118.679667 108.404555 
L 119.896552 98.110144 
L 121.113437 111.905322 
L 123.547206 84.919698 
L 124.764091 73.585835 
L 125.980976 100.113739 
L 127.197861 89.910647 
L 128.414746 112.182434 
L 129.63163 77.290434 
L 130.848515 122.88338 
L 133.282285 93.344898 
L 135.716055 128.765643 
L 139.366709 95.471604 
L 140.583594 109.746372 
L 141.800479 101.307643 
L 143.017364 111.269023 
L 144.234248 112.10284 
L 145.451133 86.51608 
L 147.884903 123.606262 
L 149.101788 103.30966 
L 150.318673 118.032002 
L 152.752442 90.080883 
L 153.969327 116.680489 
L 155.186212 93.690781 
L 156.403097 124.567474 
L 157.619982 112.877581 
L 158.836866 116.48049 
L 161.270636 111.118855 
L 162.487521 88.078415 
L 163.704406 100.899754 
L 164.921291 97.479257 
L 166.138175 120.426124 
L 167.35506 110.856399 
L 168.571945 92.752793 
L 169.78883 89.946723 
L 171.005715 82.218926 
L 172.2226 100.188147 
L 173.439484 96.217484 
L 174.656369 113.48096 
L 175.873254 114.40384 
L 177.090139 107.63094 
L 178.307024 90.940404 
L 179.523909 117.47665 
L 180.740793 93.681311 
L 181.957678 103.36851 
L 183.174563 97.718715 
L 184.391448 112.250077 
L 185.608333 112.840603 
L 186.825218 109.821456 
L 188.042102 111.444896 
L 189.258987 102.606395 
L 190.475872 105.978189 
L 191.692757 97.292336 
L 192.909642 111.33351 
L 194.126527 94.861912 
L 195.343411 93.222914 
L 196.560296 65.154998 
L 197.777181 98.288497 
L 198.994066 93.303636 
L 201.427836 103.970535 
L 202.64472 108.698577 
L 205.07849 100.331325 
L 206.295375 119.60268 
L 208.729145 99.944405 
L 209.946029 100.393106 
L 211.162914 141.938051 
L 212.379799 104.262078 
L 213.596684 108.828453 
L 216.030454 96.718496 
L 217.247338 98.006424 
L 219.681108 107.357436 
L 220.897993 99.95613 
L 222.114878 115.913413 
L 223.331763 105.053956 
L 225.765532 119.876861 
L 226.982417 144.719093 
L 229.416187 100.712157 
L 230.633072 103.147316 
L 231.849956 129.158876 
L 233.066841 94.589084 
L 234.283726 115.585569 
L 236.717496 101.700426 
L 237.934381 79.818941 
L 239.151265 84.857466 
L 241.585035 127.163398 
L 242.80192 92.034421 
L 244.018805 125.709067 
L 246.452574 110.92517 
L 250.103229 128.37737 
L 251.320114 112.082096 
L 252.536998 113.431355 
L 253.753883 121.446186 
L 254.970768 114.095612 
L 256.187653 123.52509 
L 257.404538 123.33862 
L 258.621423 109.826191 
L 259.838307 111.075789 
L 262.272077 119.583289 
L 263.488962 114.147021 
L 264.705847 66.477424 
L 265.922732 115.849378 
L 267.139616 100.669091 
L 269.573386 134.92592 
L 270.790271 123.988672 
L 272.007156 129.076126 
L 274.440925 100.733352 
L 275.65781 104.457342 
L 276.874695 89.714256 
L 278.09158 100.718019 
L 279.308465 99.091423 
L 280.52535 121.965686 
L 281.742234 105.397133 
L 282.959119 120.185314 
L 284.176004 111.042644 
L 285.392889 123.41393 
L 287.826659 114.096063 
L 289.043543 95.756833 
L 290.260428 92.793605 
L 291.477313 110.992813 
L 292.694198 102.235935 
L 293.911083 107.407267 
L 295.127968 96.30993 
L 296.344852 114.379939 
L 297.561737 110.966883 
L 298.778622 87.306605 
L 299.995507 96.028985 
L 302.429277 125.896214 
L 303.646161 115.330103 
L 304.863046 115.917923 
L 306.079931 125.072318 
L 307.296816 97.911273 
L 308.513701 128.010293 
L 309.730586 115.590078 
L 309.730586 115.590078 
" clip-path="url(#pa19391e7d1)" style="fill: none; stroke: #6ece58; stroke-width: 1.5; stroke-linecap: round"/>
   </g>
   <g id="line2d_9">
    <path d="M 67.570504 80.37542 
L 68.787389 85.395907 
L 70.004274 60.309932 
L 71.221159 97.889176 
L 73.654928 66.314179 
L 74.871813 103.379333 
L 76.088698 85.20177 
L 77.305583 109.326758 
L 78.522468 101.290282 
L 79.739352 100.717343 
L 82.173122 109.364188 
L 84.606892 86.296465 
L 85.823777 116.024799 
L 88.257546 81.378345 
L 90.691316 105.024869 
L 91.908201 95.618615 
L 93.125086 94.281532 
L 94.34197 84.423196 
L 95.558855 112.744099 
L 96.77574 90.719435 
L 99.20951 112.962361 
L 100.426395 117.063801 
L 101.643279 95.346238 
L 102.860164 120.891961 
L 104.077049 123.157336 
L 105.293934 101.66232 
L 106.510819 104.137389 
L 107.727704 95.942176 
L 108.944588 106.837935 
L 110.161473 93.150987 
L 111.378358 107.02418 
L 112.595243 96.518722 
L 113.812128 111.92336 
L 115.029013 85.979894 
L 116.245897 84.052961 
L 117.462782 97.775986 
L 118.679667 94.37488 
L 119.896552 81.106419 
L 121.113437 101.510348 
L 122.330322 75.73351 
L 123.547206 74.420553 
L 124.764091 59.141507 
L 125.980976 89.812564 
L 127.197861 81.519719 
L 128.414746 102.272012 
L 129.63163 70.929256 
L 130.848515 112.160562 
L 132.0654 82.810805 
L 133.282285 81.902355 
L 135.716055 112.771156 
L 139.366709 82.279805 
L 141.800479 95.432371 
L 143.017364 101.441352 
L 144.234248 99.623099 
L 145.451133 81.837868 
L 147.884903 113.100353 
L 149.101788 91.992483 
L 150.318673 100.527265 
L 152.752442 79.303499 
L 153.969327 102.633001 
L 155.186212 86.587105 
L 156.403097 110.84039 
L 157.619982 99.953424 
L 160.053751 104.947079 
L 161.270636 96.884673 
L 162.487521 72.789899 
L 163.704406 88.704567 
L 164.921291 84.264459 
L 166.138175 98.422656 
L 167.35506 100.570331 
L 168.571945 82.840793 
L 169.78883 82.373603 
L 171.005715 73.293616 
L 172.2226 85.85543 
L 173.439484 87.900513 
L 174.656369 102.231426 
L 175.873254 102.877194 
L 178.307024 77.476227 
L 179.523909 103.262535 
L 180.740793 78.835407 
L 181.957678 94.45966 
L 183.174563 88.812119 
L 184.391448 99.0098 
L 185.608333 99.739897 
L 186.825218 98.412284 
L 188.042102 102.34935 
L 190.475872 90.939276 
L 191.692757 82.149704 
L 192.909642 96.305871 
L 196.560296 56.799695 
L 197.777181 89.385735 
L 198.994066 78.178816 
L 200.210951 89.272545 
L 201.427836 89.32914 
L 202.64472 103.940998 
L 205.07849 88.694871 
L 206.295375 110.876918 
L 207.51226 105.346175 
L 208.729145 85.224994 
L 209.946029 89.231959 
L 211.162914 134.417242 
L 212.379799 89.67863 
L 213.596684 100.185441 
L 217.247338 84.34022 
L 218.464223 98.219726 
L 219.681108 95.665966 
L 220.897993 89.332297 
L 222.114878 104.731973 
L 223.331763 95.065293 
L 225.765532 107.476939 
L 226.982417 135.12186 
L 229.416187 89.247517 
L 230.633072 92.735206 
L 231.849956 114.483885 
L 233.066841 86.594997 
L 234.283726 104.141898 
L 236.717496 93.835312 
L 237.934381 64.023099 
L 239.151265 74.448513 
L 241.585035 118.694906 
L 242.80192 84.263107 
L 244.018805 119.697155 
L 246.452574 99.810471 
L 248.886344 110.251217 
L 250.103229 115.596392 
L 252.536998 99.022878 
L 253.753883 110.740278 
L 254.970768 104.593981 
L 256.187653 109.991467 
L 257.404538 110.523143 
L 258.621423 97.978916 
L 262.272077 109.010188 
L 263.488962 102.681254 
L 264.705847 58.747146 
L 265.922732 105.132873 
L 267.139616 92.227881 
L 268.356501 117.178343 
L 269.573386 119.759387 
L 270.790271 112.928765 
L 272.007156 114.093808 
L 274.440925 87.704573 
L 275.65781 93.858085 
L 276.874695 79.364829 
L 279.308465 87.894651 
L 280.52535 110.912318 
L 281.742234 91.42721 
L 282.959119 109.409283 
L 284.176004 98.930432 
L 285.392889 112.35064 
L 286.609774 104.883945 
L 287.826659 104.895896 
L 290.260428 82.227268 
L 291.477313 100.193784 
L 292.694198 90.301625 
L 293.911083 94.169244 
L 295.127968 84.312261 
L 296.344852 103.102897 
L 297.561737 99.758837 
L 298.778622 72.4837 
L 302.429277 111.883676 
L 304.863046 104.750237 
L 306.079931 112.518621 
L 307.296816 80.894695 
L 308.513701 120.922175 
L 309.730586 107.951344 
L 309.730586 107.951344 
" clip-path="url(#pa19391e7d1)" style="fill: none; stroke: #b5de2b; stroke-width: 1.5; stroke-linecap: round"/>
   </g>
   <g id="patch_3">
    <path d="M 55.4625 192.009865 
L 55.4625 28.442513 
" style="fill: none"/>
   </g>
   <g id="patch_4">
    <path d="M 321.83859 192.009865 
L 321.83859 28.442513 
" style="fill: none"/>
   </g>
   <g id="patch_5">
    <path d="M 55.4625 192.009865 
L 321.83859 192.009865 
" style="fill: none"/>
   </g>
   <g id="patch_6">
    <path d="M 55.4625 28.442513 
L 321.83859 28.442513 
" style="fill: none"/>
   </g>
  </g>
  <g id="text_13">
   <!-- hmc: tensorflow -->
   <g style="fill: #262626" transform="translate(126.344656 18.14175) scale(0.144 -0.144)">
    <defs>
     <path id="DejaVuSans-68" d="M 3513 2113 
L 3513 0 
L 2938 0 
L 2938 2094 
Q 2938 2591 2744 2837 
Q 2550 3084 2163 3084 
Q 1697 3084 1428 2787 
Q 1159 2491 1159 1978 
L 1159 0 
L 581 0 
L 581 4863 
L 1159 4863 
L 1159 2956 
Q 1366 3272 1645 3428 
Q 1925 3584 2291 3584 
Q 2894 3584 3203 3211 
Q 3513 2838 3513 2113 
z
" transform="scale(0.015625)"/>
     <path id="DejaVuSans-6d" d="M 3328 2828 
Q 3544 3216 3844 3400 
Q 4144 3584 4550 3584 
Q 5097 3584 5394 3201 
Q 5691 2819 5691 2113 
L 5691 0 
L 5113 0 
L 5113 2094 
Q 5113 2597 4934 2840 
Q 4756 3084 4391 3084 
Q 3944 3084 3684 2787 
Q 3425 2491 3425 1978 
L 3425 0 
L 2847 0 
L 2847 2094 
Q 2847 2600 2669 2842 
Q 2491 3084 2119 3084 
Q 1678 3084 1418 2786 
Q 1159 2488 1159 1978 
L 1159 0 
L 581 0 
L 581 3500 
L 1159 3500 
L 1159 2956 
Q 1356 3278 1631 3431 
Q 1906 3584 2284 3584 
Q 2666 3584 2933 3390 
Q 3200 3197 3328 2828 
z
" transform="scale(0.015625)"/>
     <path id="DejaVuSans-63" d="M 3122 3366 
L 3122 2828 
Q 2878 2963 2633 3030 
Q 2388 3097 2138 3097 
Q 1578 3097 1268 2742 
Q 959 2388 959 1747 
Q 959 1106 1268 751 
Q 1578 397 2138 397 
Q 2388 397 2633 464 
Q 2878 531 3122 666 
L 3122 134 
Q 2881 22 2623 -34 
Q 2366 -91 2075 -91 
Q 1284 -91 818 406 
Q 353 903 353 1747 
Q 353 2603 823 3093 
Q 1294 3584 2113 3584 
Q 2378 3584 2631 3529 
Q 2884 3475 3122 3366 
z
" transform="scale(0.015625)"/>
     <path id="DejaVuSans-3a" d="M 750 794 
L 1409 794 
L 1409 0 
L 750 0 
L 750 794 
z
M 750 3309 
L 1409 3309 
L 1409 2516 
L 750 2516 
L 750 3309 
z
" transform="scale(0.015625)"/>
     <path id="DejaVuSans-20" transform="scale(0.015625)"/>
     <path id="DejaVuSans-74" d="M 1172 4494 
L 1172 3500 
L 2356 3500 
L 2356 3053 
L 1172 3053 
L 1172 1153 
Q 1172 725 1289 603 
Q 1406 481 1766 481 
L 2356 481 
L 2356 0 
L 1766 0 
Q 1100 0 847 248 
Q 594 497 594 1153 
L 594 3053 
L 172 3053 
L 172 3500 
L 594 3500 
L 594 4494 
L 1172 4494 
z
" transform="scale(0.015625)"/>
     <path id="DejaVuSans-73" d="M 2834 3397 
L 2834 2853 
Q 2591 2978 2328 3040 
Q 2066 3103 1784 3103 
Q 1356 3103 1142 2972 
Q 928 2841 928 2578 
Q 928 2378 1081 2264 
Q 1234 2150 1697 2047 
L 1894 2003 
Q 2506 1872 2764 1633 
Q 3022 1394 3022 966 
Q 3022 478 2636 193 
Q 2250 -91 1575 -91 
Q 1294 -91 989 -36 
Q 684 19 347 128 
L 347 722 
Q 666 556 975 473 
Q 1284 391 1588 391 
Q 1994 391 2212 530 
Q 2431 669 2431 922 
Q 2431 1156 2273 1281 
Q 2116 1406 1581 1522 
L 1381 1569 
Q 847 1681 609 1914 
Q 372 2147 372 2553 
Q 372 3047 722 3315 
Q 1072 3584 1716 3584 
Q 2034 3584 2315 3537 
Q 2597 3491 2834 3397 
z
" transform="scale(0.015625)"/>
     <path id="DejaVuSans-6f" d="M 1959 3097 
Q 1497 3097 1228 2736 
Q 959 2375 959 1747 
Q 959 1119 1226 758 
Q 1494 397 1959 397 
Q 2419 397 2687 759 
Q 2956 1122 2956 1747 
Q 2956 2369 2687 2733 
Q 2419 3097 1959 3097 
z
M 1959 3584 
Q 2709 3584 3137 3096 
Q 3566 2609 3566 1747 
Q 3566 888 3137 398 
Q 2709 -91 1959 -91 
Q 1206 -91 779 398 
Q 353 888 353 1747 
Q 353 2609 779 3096 
Q 1206 3584 1959 3584 
z
" transform="scale(0.015625)"/>
     <path id="DejaVuSans-66" d="M 2375 4863 
L 2375 4384 
L 1825 4384 
Q 1516 4384 1395 4259 
Q 1275 4134 1275 3809 
L 1275 3500 
L 2222 3500 
L 2222 3053 
L 1275 3053 
L 1275 0 
L 697 0 
L 697 3053 
L 147 3053 
L 147 3500 
L 697 3500 
L 697 3744 
Q 697 4328 969 4595 
Q 1241 4863 1831 4863 
L 2375 4863 
z
" transform="scale(0.015625)"/>
     <path id="DejaVuSans-6c" d="M 603 4863 
L 1178 4863 
L 1178 0 
L 603 0 
L 603 4863 
z
" transform="scale(0.015625)"/>
    </defs>
    <use xlink:href="#DejaVuSans-68"/>
    <use xlink:href="#DejaVuSans-6d" x="63.378906"/>
    <use xlink:href="#DejaVuSans-63" x="160.791016"/>
    <use xlink:href="#DejaVuSans-3a" x="215.771484"/>
    <use xlink:href="#DejaVuSans-20" x="249.462891"/>
    <use xlink:href="#DejaVuSans-74" x="281.25"/>
    <use xlink:href="#DejaVuSans-65" x="320.458984"/>
    <use xlink:href="#DejaVuSans-6e" x="381.982422"/>
    <use xlink:href="#DejaVuSans-73" x="445.361328"/>
    <use xlink:href="#DejaVuSans-6f" x="497.460938"/>
    <use xlink:href="#DejaVuSans-72" x="558.642578"/>
    <use xlink:href="#DejaVuSans-66" x="599.755859"/>
    <use xlink:href="#DejaVuSans-6c" x="634.960938"/>
    <use xlink:href="#DejaVuSans-6f" x="662.744141"/>
    <use xlink:href="#DejaVuSans-77" x="723.925781"/>
   </g>
  </g>
 </g>
 <defs>
  <clipPath id="pa19391e7d1">
   <rect x="55.4625" y="28.442513" width="266.37609" height="163.567352"/>
  </clipPath>
 </defs>
</svg>
