<?xml version="1.0" encoding="utf-8" standalone="no"?>
<!DOCTYPE svg PUBLIC "-//W3C//DTD SVG 1.1//EN"
  "http://www.w3.org/Graphics/SVG/1.1/DTD/svg11.dtd">
<svg xmlns:xlink="http://www.w3.org/1999/xlink" width="397.373906pt" height="300.496375pt" viewBox="0 0 397.373906 300.496375" xmlns="http://www.w3.org/2000/svg" version="1.1">
 <metadata>
  <rdf:RDF xmlns:dc="http://purl.org/dc/elements/1.1/" xmlns:cc="http://creativecommons.org/ns#" xmlns:rdf="http://www.w3.org/1999/02/22-rdf-syntax-ns#">
   <cc:Work>
    <dc:type rdf:resource="http://purl.org/dc/dcmitype/StillImage"/>
    <dc:date>2023-09-19T20:17:13.589052</dc:date>
    <dc:format>image/svg+xml</dc:format>
    <dc:creator>
     <cc:Agent>
      <dc:title>Matplotlib v3.8.0, https://matplotlib.org/</dc:title>
     </cc:Agent>
    </dc:creator>
   </cc:Work>
  </rdf:RDF>
 </metadata>
 <defs>
  <style type="text/css">*{stroke-linejoin: round; stroke-linecap: butt}</style>
 </defs>
 <g id="figure_1">
  <g id="patch_1">
   <path d="M 0 300.496375 
L 397.373906 300.496375 
L 397.373906 0 
L 0 0 
L 0 300.496375 
z
" style="fill: none"/>
  </g>
  <g id="axes_1">
   <g id="patch_2">
    <path d="M 33.053906 273.312 
L 390.173906 273.312 
L 390.173906 7.2 
L 33.053906 7.2 
L 33.053906 273.312 
z
" style="fill: none"/>
   </g>
   <g id="matplotlib.axis_1">
    <g id="xtick_1">
     <g id="line2d_1">
      <path d="M 49.286634 273.312 
L 49.286634 7.2 
" clip-path="url(#p87a55d5d31)" style="fill: none; stroke-dasharray: 3.7,1.6; stroke-dashoffset: 0; stroke: #838383; stroke-opacity: 0.33"/>
     </g>
     <g id="line2d_2">
      <defs>
       <path id="mc46dd4ba98" d="M 0 0 
L 0 6 
" style="stroke: #000000; stroke-opacity: 0; stroke-width: 1.25"/>
      </defs>
      <g>
       <use xlink:href="#mc46dd4ba98" x="49.286634" y="273.312" style="fill-opacity: 0; stroke: #000000; stroke-opacity: 0; stroke-width: 1.25"/>
      </g>
     </g>
     <g id="text_1">
      <!-- 0 -->
      <g style="fill: #838383" transform="translate(46.571868 291.062) scale(0.11 -0.11)">
       <defs>
        <path id="RobotoCondensed-Regular-30" d="M 2797 1941 
Q 2797 934 2503 435 
Q 2209 -63 1581 -63 
Q 972 -63 672 415 
Q 372 894 359 1853 
L 359 2634 
Q 359 3631 654 4122 
Q 950 4613 1575 4613 
Q 2191 4613 2486 4147 
Q 2781 3681 2797 2738 
L 2797 1941 
z
M 2244 2731 
Q 2244 3453 2084 3795 
Q 1925 4138 1575 4138 
Q 1234 4138 1075 3802 
Q 916 3466 909 2788 
L 909 1850 
Q 909 1131 1075 770 
Q 1241 409 1581 409 
Q 1919 409 2078 750 
Q 2238 1091 2244 1791 
L 2244 2731 
z
" transform="scale(0.015625)"/>
       </defs>
       <use xlink:href="#RobotoCondensed-Regular-30"/>
      </g>
     </g>
    </g>
    <g id="xtick_2">
     <g id="line2d_3">
      <path d="M 114.347665 273.312 
L 114.347665 7.2 
" clip-path="url(#p87a55d5d31)" style="fill: none; stroke-dasharray: 3.7,1.6; stroke-dashoffset: 0; stroke: #838383; stroke-opacity: 0.33"/>
     </g>
     <g id="line2d_4">
      <g>
       <use xlink:href="#mc46dd4ba98" x="114.347665" y="273.312" style="fill-opacity: 0; stroke: #000000; stroke-opacity: 0; stroke-width: 1.25"/>
      </g>
     </g>
     <g id="text_2">
      <!-- 200 -->
      <g style="fill: #838383" transform="translate(106.203368 291.062) scale(0.11 -0.11)">
       <defs>
        <path id="RobotoCondensed-Regular-32" d="M 2909 0 
L 366 0 
L 366 416 
L 1663 2134 
Q 1956 2531 2070 2786 
Q 2184 3041 2184 3325 
Q 2184 3688 2015 3913 
Q 1847 4138 1572 4138 
Q 1225 4138 1036 3898 
Q 847 3659 847 3209 
L 294 3209 
Q 294 3838 637 4225 
Q 981 4613 1572 4613 
Q 2116 4613 2428 4280 
Q 2741 3947 2741 3394 
Q 2741 2719 2038 1797 
L 1025 472 
L 2909 472 
L 2909 0 
z
" transform="scale(0.015625)"/>
       </defs>
       <use xlink:href="#RobotoCondensed-Regular-32"/>
       <use xlink:href="#RobotoCondensed-Regular-30" x="49.365234"/>
       <use xlink:href="#RobotoCondensed-Regular-30" x="98.730469"/>
      </g>
     </g>
    </g>
    <g id="xtick_3">
     <g id="line2d_5">
      <path d="M 179.408696 273.312 
L 179.408696 7.2 
" clip-path="url(#p87a55d5d31)" style="fill: none; stroke-dasharray: 3.7,1.6; stroke-dashoffset: 0; stroke: #838383; stroke-opacity: 0.33"/>
     </g>
     <g id="line2d_6">
      <g>
       <use xlink:href="#mc46dd4ba98" x="179.408696" y="273.312" style="fill-opacity: 0; stroke: #000000; stroke-opacity: 0; stroke-width: 1.25"/>
      </g>
     </g>
     <g id="text_3">
      <!-- 400 -->
      <g style="fill: #838383" transform="translate(171.264399 291.062) scale(0.11 -0.11)">
       <defs>
        <path id="RobotoCondensed-Regular-34" d="M 2459 1528 
L 2966 1528 
L 2966 1056 
L 2459 1056 
L 2459 0 
L 1906 0 
L 1906 1056 
L 188 1056 
L 188 1397 
L 1878 4550 
L 2459 4550 
L 2459 1528 
z
M 800 1528 
L 1906 1528 
L 1906 3691 
L 800 1528 
z
" transform="scale(0.015625)"/>
       </defs>
       <use xlink:href="#RobotoCondensed-Regular-34"/>
       <use xlink:href="#RobotoCondensed-Regular-30" x="49.365234"/>
       <use xlink:href="#RobotoCondensed-Regular-30" x="98.730469"/>
      </g>
     </g>
    </g>
    <g id="xtick_4">
     <g id="line2d_7">
      <path d="M 244.469727 273.312 
L 244.469727 7.2 
" clip-path="url(#p87a55d5d31)" style="fill: none; stroke-dasharray: 3.7,1.6; stroke-dashoffset: 0; stroke: #838383; stroke-opacity: 0.33"/>
     </g>
     <g id="line2d_8">
      <g>
       <use xlink:href="#mc46dd4ba98" x="244.469727" y="273.312" style="fill-opacity: 0; stroke: #000000; stroke-opacity: 0; stroke-width: 1.25"/>
      </g>
     </g>
     <g id="text_4">
      <!-- 600 -->
      <g style="fill: #838383" transform="translate(236.32543 291.062) scale(0.11 -0.11)">
       <defs>
        <path id="RobotoCondensed-Regular-36" d="M 2291 4553 
L 2291 4063 
L 2200 4063 
Q 1647 4050 1334 3689 
Q 1022 3328 975 2603 
Q 1278 2984 1750 2984 
Q 2253 2984 2548 2570 
Q 2844 2156 2844 1484 
Q 2844 769 2517 353 
Q 2191 -63 1641 -63 
Q 1088 -63 750 428 
Q 413 919 413 1731 
L 413 1953 
Q 413 2891 616 3447 
Q 819 4003 1214 4273 
Q 1609 4544 2197 4553 
L 2291 4553 
z
M 1656 2503 
Q 1431 2503 1240 2331 
Q 1050 2159 966 1894 
L 966 1666 
Q 966 1113 1161 764 
Q 1356 416 1641 416 
Q 1950 416 2125 702 
Q 2300 988 2300 1456 
Q 2300 1919 2125 2211 
Q 1950 2503 1656 2503 
z
" transform="scale(0.015625)"/>
       </defs>
       <use xlink:href="#RobotoCondensed-Regular-36"/>
       <use xlink:href="#RobotoCondensed-Regular-30" x="49.365234"/>
       <use xlink:href="#RobotoCondensed-Regular-30" x="98.730469"/>
      </g>
     </g>
    </g>
    <g id="xtick_5">
     <g id="line2d_9">
      <path d="M 309.530758 273.312 
L 309.530758 7.2 
" clip-path="url(#p87a55d5d31)" style="fill: none; stroke-dasharray: 3.7,1.6; stroke-dashoffset: 0; stroke: #838383; stroke-opacity: 0.33"/>
     </g>
     <g id="line2d_10">
      <g>
       <use xlink:href="#mc46dd4ba98" x="309.530758" y="273.312" style="fill-opacity: 0; stroke: #000000; stroke-opacity: 0; stroke-width: 1.25"/>
      </g>
     </g>
     <g id="text_5">
      <!-- 800 -->
      <g style="fill: #838383" transform="translate(301.386461 291.062) scale(0.11 -0.11)">
       <defs>
        <path id="RobotoCondensed-Regular-38" d="M 2706 3363 
Q 2706 3022 2554 2756 
Q 2403 2491 2147 2341 
Q 2450 2184 2622 1892 
Q 2794 1600 2794 1228 
Q 2794 641 2461 289 
Q 2128 -63 1578 -63 
Q 1028 -63 695 289 
Q 363 641 363 1228 
Q 363 1603 533 1898 
Q 703 2194 997 2344 
Q 741 2494 594 2758 
Q 447 3022 447 3363 
Q 447 3938 758 4275 
Q 1069 4613 1578 4613 
Q 2084 4613 2395 4278 
Q 2706 3944 2706 3363 
z
M 2241 1241 
Q 2241 1631 2056 1867 
Q 1872 2103 1572 2103 
Q 1266 2103 1089 1865 
Q 913 1628 913 1241 
Q 913 847 1086 628 
Q 1259 409 1578 409 
Q 1897 409 2069 628 
Q 2241 847 2241 1241 
z
M 2156 3353 
Q 2156 3700 1993 3919 
Q 1831 4138 1578 4138 
Q 1313 4138 1156 3922 
Q 1000 3706 1000 3353 
Q 1000 2997 1159 2787 
Q 1319 2578 1578 2578 
Q 1844 2578 2000 2790 
Q 2156 3003 2156 3353 
z
" transform="scale(0.015625)"/>
       </defs>
       <use xlink:href="#RobotoCondensed-Regular-38"/>
       <use xlink:href="#RobotoCondensed-Regular-30" x="49.365234"/>
       <use xlink:href="#RobotoCondensed-Regular-30" x="98.730469"/>
      </g>
     </g>
    </g>
    <g id="xtick_6">
     <g id="line2d_11">
      <path d="M 374.591789 273.312 
L 374.591789 7.2 
" clip-path="url(#p87a55d5d31)" style="fill: none; stroke-dasharray: 3.7,1.6; stroke-dashoffset: 0; stroke: #838383; stroke-opacity: 0.33"/>
     </g>
     <g id="line2d_12">
      <g>
       <use xlink:href="#mc46dd4ba98" x="374.591789" y="273.312" style="fill-opacity: 0; stroke: #000000; stroke-opacity: 0; stroke-width: 1.25"/>
      </g>
     </g>
     <g id="text_6">
      <!-- 1000 -->
      <g style="fill: #838383" transform="translate(363.732727 291.062) scale(0.11 -0.11)">
       <defs>
        <path id="RobotoCondensed-Regular-31" d="M 2013 0 
L 1456 0 
L 1456 3853 
L 500 3425 
L 500 3950 
L 1925 4572 
L 2013 4572 
L 2013 0 
z
" transform="scale(0.015625)"/>
       </defs>
       <use xlink:href="#RobotoCondensed-Regular-31"/>
       <use xlink:href="#RobotoCondensed-Regular-30" x="49.365234"/>
       <use xlink:href="#RobotoCondensed-Regular-30" x="98.730469"/>
       <use xlink:href="#RobotoCondensed-Regular-30" x="148.095703"/>
      </g>
     </g>
    </g>
   </g>
   <g id="matplotlib.axis_2">
    <g id="ytick_1">
     <g id="line2d_13">
      <path d="M 33.053906 261.215992 
L 390.173906 261.215992 
" clip-path="url(#p87a55d5d31)" style="fill: none; stroke-dasharray: 3.7,1.6; stroke-dashoffset: 0; stroke: #838383; stroke-opacity: 0.33"/>
     </g>
     <g id="line2d_14">
      <defs>
       <path id="m630c4ca6a2" d="M 0 0 
L -6 0 
" style="stroke: #000000; stroke-opacity: 0; stroke-width: 1.25"/>
      </defs>
      <g>
       <use xlink:href="#m630c4ca6a2" x="33.053906" y="261.215992" style="fill-opacity: 0; stroke: #000000; stroke-opacity: 0; stroke-width: 1.25"/>
      </g>
     </g>
     <g id="text_7">
      <!-- −20 -->
      <g style="fill: #838383" transform="translate(7.2 265.340992) scale(0.11 -0.11)">
       <defs>
        <path id="RobotoCondensed-Regular-2212" d="M 2697 2034 
L 506 2034 
L 506 2506 
L 2697 2506 
L 2697 2034 
z
" transform="scale(0.015625)"/>
       </defs>
       <use xlink:href="#RobotoCondensed-Regular-2212"/>
       <use xlink:href="#RobotoCondensed-Regular-32" x="49.951172"/>
       <use xlink:href="#RobotoCondensed-Regular-30" x="99.316406"/>
      </g>
     </g>
    </g>
    <g id="ytick_2">
     <g id="line2d_15">
      <path d="M 33.053906 218.773885 
L 390.173906 218.773885 
" clip-path="url(#p87a55d5d31)" style="fill: none; stroke-dasharray: 3.7,1.6; stroke-dashoffset: 0; stroke: #838383; stroke-opacity: 0.33"/>
     </g>
     <g id="line2d_16">
      <g>
       <use xlink:href="#m630c4ca6a2" x="33.053906" y="218.773885" style="fill-opacity: 0; stroke: #000000; stroke-opacity: 0; stroke-width: 1.25"/>
      </g>
     </g>
     <g id="text_8">
      <!-- −10 -->
      <g style="fill: #838383" transform="translate(7.2 222.898885) scale(0.11 -0.11)">
       <use xlink:href="#RobotoCondensed-Regular-2212"/>
       <use xlink:href="#RobotoCondensed-Regular-31" x="49.951172"/>
       <use xlink:href="#RobotoCondensed-Regular-30" x="99.316406"/>
      </g>
     </g>
    </g>
    <g id="ytick_3">
     <g id="line2d_17">
      <path d="M 33.053906 176.331779 
L 390.173906 176.331779 
" clip-path="url(#p87a55d5d31)" style="fill: none; stroke-dasharray: 3.7,1.6; stroke-dashoffset: 0; stroke: #838383; stroke-opacity: 0.33"/>
     </g>
     <g id="line2d_18">
      <g>
       <use xlink:href="#m630c4ca6a2" x="33.053906" y="176.331779" style="fill-opacity: 0; stroke: #000000; stroke-opacity: 0; stroke-width: 1.25"/>
      </g>
     </g>
     <g id="text_9">
      <!-- 0 -->
      <g style="fill: #838383" transform="translate(18.124375 180.456779) scale(0.11 -0.11)">
       <use xlink:href="#RobotoCondensed-Regular-30"/>
      </g>
     </g>
    </g>
    <g id="ytick_4">
     <g id="line2d_19">
      <path d="M 33.053906 133.889672 
L 390.173906 133.889672 
" clip-path="url(#p87a55d5d31)" style="fill: none; stroke-dasharray: 3.7,1.6; stroke-dashoffset: 0; stroke: #838383; stroke-opacity: 0.33"/>
     </g>
     <g id="line2d_20">
      <g>
       <use xlink:href="#m630c4ca6a2" x="33.053906" y="133.889672" style="fill-opacity: 0; stroke: #000000; stroke-opacity: 0; stroke-width: 1.25"/>
      </g>
     </g>
     <g id="text_10">
      <!-- 10 -->
      <g style="fill: #838383" transform="translate(12.694844 138.014672) scale(0.11 -0.11)">
       <use xlink:href="#RobotoCondensed-Regular-31"/>
       <use xlink:href="#RobotoCondensed-Regular-30" x="49.365234"/>
      </g>
     </g>
    </g>
    <g id="ytick_5">
     <g id="line2d_21">
      <path d="M 33.053906 91.447565 
L 390.173906 91.447565 
" clip-path="url(#p87a55d5d31)" style="fill: none; stroke-dasharray: 3.7,1.6; stroke-dashoffset: 0; stroke: #838383; stroke-opacity: 0.33"/>
     </g>
     <g id="line2d_22">
      <g>
       <use xlink:href="#m630c4ca6a2" x="33.053906" y="91.447565" style="fill-opacity: 0; stroke: #000000; stroke-opacity: 0; stroke-width: 1.25"/>
      </g>
     </g>
     <g id="text_11">
      <!-- 20 -->
      <g style="fill: #838383" transform="translate(12.694844 95.572565) scale(0.11 -0.11)">
       <use xlink:href="#RobotoCondensed-Regular-32"/>
       <use xlink:href="#RobotoCondensed-Regular-30" x="49.365234"/>
      </g>
     </g>
    </g>
    <g id="ytick_6">
     <g id="line2d_23">
      <path d="M 33.053906 49.005458 
L 390.173906 49.005458 
" clip-path="url(#p87a55d5d31)" style="fill: none; stroke-dasharray: 3.7,1.6; stroke-dashoffset: 0; stroke: #838383; stroke-opacity: 0.33"/>
     </g>
     <g id="line2d_24">
      <g>
       <use xlink:href="#m630c4ca6a2" x="33.053906" y="49.005458" style="fill-opacity: 0; stroke: #000000; stroke-opacity: 0; stroke-width: 1.25"/>
      </g>
     </g>
     <g id="text_12">
      <!-- 30 -->
      <g style="fill: #838383" transform="translate(12.694844 53.130458) scale(0.11 -0.11)">
       <defs>
        <path id="RobotoCondensed-Regular-33" d="M 1072 2556 
L 1425 2556 
Q 1766 2556 1950 2765 
Q 2134 2975 2134 3338 
Q 2134 4138 1516 4138 
Q 1219 4138 1050 3922 
Q 881 3706 881 3356 
L 331 3356 
Q 331 3903 664 4258 
Q 997 4613 1516 4613 
Q 2053 4613 2368 4277 
Q 2684 3941 2684 3325 
Q 2684 3009 2520 2736 
Q 2356 2463 2094 2334 
Q 2738 2097 2738 1269 
Q 2738 659 2398 298 
Q 2059 -63 1513 -63 
Q 972 -63 639 279 
Q 306 622 306 1200 
L 859 1200 
Q 859 838 1034 623 
Q 1209 409 1513 409 
Q 1822 409 2005 618 
Q 2188 828 2188 1256 
Q 2188 2084 1403 2084 
L 1072 2084 
L 1072 2556 
z
" transform="scale(0.015625)"/>
       </defs>
       <use xlink:href="#RobotoCondensed-Regular-33"/>
       <use xlink:href="#RobotoCondensed-Regular-30" x="49.365234"/>
      </g>
     </g>
    </g>
   </g>
   <g id="line2d_25">
    <path d="M 49.286634 82.959136 
L 49.611939 180.575988 
L 49.937244 142.378095 
L 50.587854 184.820195 
L 50.913159 172.087567 
L 51.238464 91.447565 
L 51.56377 172.087576 
L 51.889075 121.157044 
L 52.21438 99.935987 
L 52.539685 138.133883 
L 52.86499 87.203355 
L 53.190295 201.797047 
L 53.515601 53.249677 
L 53.840906 150.866515 
L 54.491516 180.575994 
L 54.816821 172.087569 
L 55.142126 167.843364 
L 55.467431 218.773889 
L 55.792737 180.57599 
L 56.118042 159.354934 
L 56.443347 87.203355 
L 56.768652 214.529675 
L 57.419262 125.401263 
L 57.744568 193.30862 
L 58.069873 150.866513 
L 58.395178 91.447565 
L 58.720483 167.84336 
L 59.045788 163.599145 
L 59.371093 104.180197 
L 59.696399 176.331781 
L 60.021704 180.575983 
L 60.347009 180.57599 
L 60.997619 121.157028 
L 61.322924 244.239149 
L 61.648229 172.087566 
L 61.973535 44.761248 
L 62.29884 206.041257 
L 62.624145 218.773881 
L 62.94945 206.041257 
L 63.274755 184.820193 
L 63.60006 116.912833 
L 64.250671 193.30861 
L 64.575976 163.599147 
L 64.901281 176.331774 
L 65.226586 125.401259 
L 65.551891 129.645465 
L 65.877196 197.552838 
L 66.202502 172.08756 
L 66.527807 167.843356 
L 66.853112 159.354937 
L 67.178417 197.552822 
L 67.503722 176.331778 
L 67.829027 197.552828 
L 68.154333 146.622296 
L 68.479638 189.064408 
L 68.804943 172.087574 
L 69.130248 129.645453 
L 69.455553 189.064413 
L 69.780858 197.55283 
L 70.431469 180.575996 
L 70.756774 108.424412 
L 71.082079 116.912821 
L 71.407384 146.622304 
L 72.057994 180.575993 
L 72.3833 214.529683 
L 72.708605 142.378089 
L 73.03391 206.041257 
L 73.359215 99.935978 
L 73.68452 116.912837 
L 74.009825 231.506521 
L 74.335131 163.599149 
L 74.660436 70.22652 
L 74.985741 36.272843 
L 75.311046 210.285472 
L 75.961656 95.691768 
L 76.286961 167.843354 
L 76.612267 155.110717 
L 76.937572 184.820193 
L 77.262877 201.797039 
L 77.588182 239.99493 
L 78.238792 65.982301 
L 78.564098 214.529666 
L 78.889403 138.133878 
L 79.214708 239.994943 
L 79.540013 155.110711 
L 79.865318 176.331774 
L 80.190623 159.354934 
L 80.515928 163.599155 
L 80.841234 214.529683 
L 81.166539 214.529679 
L 81.491844 206.041253 
L 81.817149 138.133883 
L 82.467759 189.064412 
L 82.793065 108.4244 
L 83.11837 180.575993 
L 83.443675 142.378089 
L 83.76898 214.529675 
L 84.094285 146.622304 
L 84.41959 146.622308 
L 84.744896 180.575987 
L 85.070201 87.203355 
L 85.395506 70.226496 
L 85.720811 210.285468 
L 86.371421 133.88968 
L 86.696726 167.843356 
L 87.022032 133.889668 
L 87.347337 197.552838 
L 87.672642 163.599151 
L 87.997947 206.041253 
L 88.323252 167.843368 
L 88.648557 223.018092 
L 88.973863 167.843354 
L 89.299168 167.843354 
L 89.624473 99.935978 
L 89.949778 189.064416 
L 90.275083 91.447565 
L 90.600388 218.773889 
L 90.925693 155.110723 
L 91.250999 201.797039 
L 91.901609 133.889672 
L 92.226914 167.843355 
L 92.552219 61.73809 
L 92.877524 138.133878 
L 93.20283 129.645453 
L 93.85344 206.041239 
L 94.178745 138.133887 
L 94.50405 176.33178 
L 95.15466 167.843357 
L 95.479966 95.691784 
L 95.805271 184.820206 
L 96.130576 176.331777 
L 96.455881 133.889676 
L 96.781186 155.110721 
L 97.106491 142.378093 
L 97.431797 189.064415 
L 97.757102 193.308629 
L 98.082407 159.354934 
L 98.407712 214.529675 
L 98.733017 138.133883 
L 99.058322 125.401251 
L 99.383628 155.110727 
L 99.708933 206.041249 
L 100.034238 53.249661 
L 100.359543 252.727571 
L 100.684848 121.157044 
L 101.010153 176.331777 
L 101.335458 142.378101 
L 101.660764 146.622314 
L 101.986069 176.331782 
L 102.311374 150.866519 
L 102.636679 176.331788 
L 102.961984 167.843362 
L 103.287289 167.843358 
L 103.612595 180.575992 
L 103.9379 74.470714 
L 104.263205 223.0181 
L 104.58851 150.866513 
L 105.23912 99.935987 
L 105.564425 197.55283 
L 105.889731 176.331779 
L 106.215036 210.285452 
L 106.865646 70.226512 
L 107.190951 167.843366 
L 107.516256 78.714941 
L 108.166867 193.308618 
L 108.492172 150.866515 
L 108.817477 150.86651 
L 109.142782 44.761248 
L 109.468087 87.203363 
L 109.793392 197.552832 
L 110.118698 146.622308 
L 110.444003 167.843359 
L 111.094613 108.4244 
L 111.419918 176.331785 
L 111.745223 70.226504 
L 112.070529 95.691776 
L 112.395834 159.354937 
L 112.721139 193.308627 
L 113.046444 108.424412 
L 113.371749 125.401242 
L 113.697054 239.994939 
L 114.02236 150.86651 
L 114.347665 104.180189 
L 114.67297 142.378089 
L 114.998275 78.714925 
L 115.32358 121.157044 
L 115.648885 189.064401 
L 115.97419 125.401246 
L 116.299496 184.820203 
L 116.624801 172.087566 
L 116.950106 214.529675 
L 117.275411 155.110729 
L 117.600716 155.110719 
L 117.926021 133.889664 
L 118.251327 125.401251 
L 118.576632 159.354947 
L 118.901937 167.843359 
L 119.227242 197.552834 
L 119.552547 163.599149 
L 119.877852 155.110727 
L 120.203157 95.691768 
L 120.528463 235.750724 
L 120.853768 129.645465 
L 121.179073 167.843355 
L 121.504378 121.157036 
L 121.829683 206.041243 
L 122.154988 176.331768 
L 122.480294 176.331782 
L 122.805599 95.691776 
L 123.130904 197.552828 
L 123.456209 176.331777 
L 123.781514 146.6223 
L 124.106819 193.308623 
L 124.432125 108.424412 
L 124.75743 146.6223 
L 125.082735 142.378095 
L 125.40804 91.447557 
L 125.733345 189.064413 
L 126.05865 112.668614 
L 126.709261 223.018088 
L 127.034566 223.0181 
L 127.359871 184.820196 
L 127.685176 218.773877 
L 128.010481 87.203363 
L 128.335786 146.622314 
L 128.661092 116.912821 
L 128.986397 218.773885 
L 129.311702 142.378095 
L 129.637007 116.912829 
L 129.962312 227.262307 
L 130.612922 167.843354 
L 130.938228 176.331787 
L 131.263533 167.843353 
L 131.588838 61.738099 
L 131.914143 223.018104 
L 132.239448 163.599155 
L 132.564753 82.959136 
L 132.890059 227.262307 
L 133.215364 99.935995 
L 133.865974 150.866519 
L 134.191279 142.378093 
L 134.516584 82.959152 
L 134.841889 104.180197 
L 135.167195 193.308627 
L 135.4925 82.959152 
L 135.817805 201.797045 
L 136.14311 87.203355 
L 136.468415 227.262307 
L 136.79372 159.35494 
L 137.444331 206.041253 
L 137.769636 218.773885 
L 138.094941 176.331775 
L 138.420246 108.424412 
L 138.745551 189.064409 
L 139.070857 150.866519 
L 139.396162 206.041259 
L 139.721467 167.843353 
L 140.046772 167.84335 
L 140.372077 163.599145 
L 140.697382 32.0286 
L 141.022687 163.59914 
L 141.673298 227.262323 
L 141.998603 180.57599 
L 142.323908 172.087573 
L 142.649213 172.087567 
L 142.974518 155.110737 
L 143.299824 78.714941 
L 143.625129 167.84336 
L 143.950434 112.668627 
L 144.275739 125.401246 
L 144.601044 218.773881 
L 144.926349 138.133883 
L 145.251654 138.133883 
L 145.57696 189.064411 
L 145.902265 172.087569 
L 146.22757 163.599155 
L 146.552875 184.820206 
L 146.87818 176.331779 
L 147.203485 163.599152 
L 147.528791 65.982301 
L 147.854096 235.750728 
L 148.179401 146.62231 
L 148.504706 133.88968 
L 148.830011 112.668606 
L 149.155316 193.308627 
L 149.480621 78.714941 
L 149.805927 193.308617 
L 150.131232 142.378095 
L 150.456537 133.889664 
L 150.781842 44.761248 
L 151.107147 189.064405 
L 151.432452 150.866521 
L 151.757758 146.622304 
L 152.083063 116.912833 
L 152.408368 176.331775 
L 152.733673 184.820196 
L 153.058978 167.843359 
L 153.384283 172.087573 
L 153.709589 112.668619 
L 154.034894 19.296 
L 154.360199 210.285472 
L 154.685504 142.378093 
L 155.010809 112.668614 
L 155.336114 206.041259 
L 155.661419 155.110715 
L 155.986725 49.00545 
L 156.31203 99.935987 
L 156.637335 201.797043 
L 156.96264 142.378089 
L 157.287945 214.529671 
L 157.61325 167.843354 
L 157.938556 150.866519 
L 158.263861 172.087566 
L 158.589166 138.133883 
L 158.914471 197.552832 
L 159.239776 150.866506 
L 159.565081 210.285468 
L 159.890386 159.354945 
L 160.215692 206.041243 
L 160.540997 176.331778 
L 160.866302 184.820192 
L 161.191607 95.691784 
L 161.516912 184.820201 
L 161.842217 163.599146 
L 162.167523 125.401246 
L 162.492828 167.843351 
L 162.818133 150.866513 
L 163.143438 155.110723 
L 163.468743 95.691776 
L 163.794048 87.203355 
L 164.119354 176.331781 
L 164.444659 193.308625 
L 164.769964 176.331786 
L 165.095269 184.820206 
L 165.420574 155.110729 
L 165.745879 155.110733 
L 166.071184 150.866519 
L 166.39649 210.285468 
L 166.721795 210.285456 
L 167.0471 193.308625 
L 167.372405 184.820211 
L 167.69771 248.48336 
L 168.023015 172.087559 
L 168.348321 155.110729 
L 168.673626 197.552824 
L 168.998931 167.84335 
L 169.324236 176.33178 
L 169.649541 223.018104 
L 169.974846 138.133887 
L 170.625457 138.133883 
L 170.950762 121.157036 
L 171.276067 87.203355 
L 171.601372 201.797047 
L 171.926677 146.622318 
L 172.251982 201.797045 
L 172.902593 125.401246 
L 173.227898 65.982301 
L 173.553203 104.180197 
L 173.878508 78.714949 
L 174.203813 214.529679 
L 174.529118 193.308613 
L 174.854424 65.982309 
L 175.179729 231.506509 
L 175.505034 159.354934 
L 175.830339 167.843363 
L 176.155644 210.285468 
L 176.480949 129.645457 
L 176.806255 197.55283 
L 177.13156 197.55283 
L 177.456865 91.447565 
L 177.78217 193.308627 
L 178.107475 142.378089 
L 178.43278 125.401259 
L 178.758086 235.75072 
L 179.083391 193.308617 
L 179.408696 189.064405 
L 179.734001 176.331784 
L 180.059306 172.087569 
L 180.384611 184.820202 
L 180.709916 180.57598 
L 181.035222 197.552828 
L 181.360527 65.982301 
L 181.685832 210.285468 
L 182.011137 163.599151 
L 182.336442 172.087571 
L 182.661747 82.959136 
L 182.987053 138.133883 
L 183.312358 129.645465 
L 183.637663 163.599152 
L 183.962968 87.203355 
L 184.288273 87.203355 
L 184.613578 78.714941 
L 184.938883 150.866513 
L 185.264189 184.820201 
L 185.589494 138.133883 
L 185.914799 206.041253 
L 186.240104 91.447565 
L 186.890714 189.064412 
L 187.541325 150.866515 
L 187.86663 61.73809 
L 188.191935 231.506513 
L 188.842545 61.738099 
L 189.167851 197.55283 
L 189.493156 189.064406 
L 189.818461 210.285462 
L 190.143766 184.820198 
L 190.469071 129.645469 
L 190.794376 116.912833 
L 191.119681 193.308621 
L 191.444987 155.110719 
L 191.770292 159.35493 
L 192.420902 159.354932 
L 192.746207 146.622304 
L 193.071512 197.552832 
L 193.396818 155.110715 
L 193.722123 184.820211 
L 194.047428 108.424408 
L 194.372733 108.4244 
L 194.698038 138.133883 
L 195.023343 155.110727 
L 195.348648 138.133878 
L 195.673954 176.331774 
L 195.999259 125.401259 
L 196.324564 142.378089 
L 196.649869 231.506517 
L 196.975174 146.622298 
L 197.300479 197.552828 
L 197.625785 108.4244 
L 197.95109 197.552842 
L 198.276395 125.401251 
L 198.6017 184.8202 
L 198.927005 146.622308 
L 199.25231 176.331775 
L 199.577615 176.331782 
L 199.902921 78.714925 
L 200.228226 210.285464 
L 200.553531 142.378089 
L 200.878836 184.820204 
L 201.204141 201.797039 
L 201.529446 206.041247 
L 201.854752 142.378095 
L 202.180057 53.249661 
L 202.505362 163.599137 
L 202.830667 167.843359 
L 203.155972 235.750736 
L 203.481277 53.249677 
L 203.806583 218.773889 
L 204.457193 95.691776 
L 204.782498 159.354937 
L 205.107803 150.866513 
L 205.433108 104.180197 
L 205.758413 218.773889 
L 206.083719 87.203355 
L 206.409024 82.959136 
L 206.734329 74.470714 
L 207.059634 210.285462 
L 207.384939 95.691776 
L 207.710244 231.506517 
L 208.03555 91.447565 
L 208.360855 91.447565 
L 208.68616 112.668627 
L 209.011465 121.157028 
L 209.33677 189.064409 
L 209.662075 197.552842 
L 209.98738 176.331779 
L 210.312686 70.226512 
L 210.637991 231.506517 
L 210.963296 82.959152 
L 211.288601 70.226504 
L 211.613906 227.262315 
L 211.939211 172.087573 
L 212.264517 201.797043 
L 212.589822 214.529671 
L 212.915127 155.110725 
L 213.240432 176.331772 
L 213.565737 176.331768 
L 213.891042 167.843354 
L 214.216347 189.064405 
L 214.541653 180.57599 
L 214.866958 146.622298 
L 215.192263 163.599137 
L 215.517568 206.041247 
L 215.842873 95.691776 
L 216.168178 116.912837 
L 216.493484 197.552832 
L 216.818789 116.912837 
L 217.144094 210.285464 
L 217.469399 155.110725 
L 217.794704 172.087571 
L 218.120009 248.483368 
L 218.445315 133.889668 
L 218.77062 167.843356 
L 219.095925 159.354934 
L 219.42123 180.575988 
L 219.746535 214.529675 
L 220.07184 206.041249 
L 220.397145 223.018092 
L 220.722451 125.401246 
L 221.373061 189.064412 
L 221.698366 167.843362 
L 222.023671 163.599137 
L 222.348976 133.889672 
L 222.674282 163.59915 
L 222.999587 159.35494 
L 223.324892 193.308617 
L 223.650197 116.912821 
L 223.975502 184.820205 
L 224.300807 206.041251 
L 224.626112 184.820203 
L 224.951418 87.203355 
L 225.276723 248.48336 
L 225.927333 167.843354 
L 226.252638 227.262315 
L 226.577943 146.622304 
L 226.903249 210.285458 
L 227.228554 167.84336 
L 227.553859 155.110731 
L 227.879164 214.529679 
L 228.204469 104.180197 
L 228.529774 159.354941 
L 228.85508 146.622304 
L 229.180385 104.180197 
L 229.50569 176.331785 
L 229.830995 133.889672 
L 230.1563 201.797036 
L 230.481605 172.087573 
L 230.80691 172.087567 
L 231.132216 223.018088 
L 231.457521 180.575992 
L 231.782826 112.66861 
L 232.108131 176.331772 
L 232.433436 184.820195 
L 232.758741 133.889676 
L 233.084047 193.308627 
L 233.409352 95.691776 
L 233.734657 176.331778 
L 234.059962 146.622314 
L 234.385267 193.308631 
L 234.710572 138.133874 
L 235.035877 167.84336 
L 235.361183 214.529666 
L 235.686488 206.041249 
L 236.011793 74.470722 
L 236.337098 180.575986 
L 236.662403 184.820197 
L 236.987708 180.575995 
L 237.313014 155.110721 
L 237.638319 210.285464 
L 237.963624 176.331779 
L 238.288929 197.552828 
L 238.614234 99.935995 
L 238.939539 159.354928 
L 239.264844 57.49388 
L 239.59015 155.110733 
L 239.915455 159.35494 
L 240.24076 129.645465 
L 240.566065 218.773885 
L 240.89137 125.401242 
L 241.216675 223.018084 
L 241.541981 163.599141 
L 241.867286 138.133887 
L 242.192591 244.239165 
L 242.517896 146.6223 
L 242.843201 167.843355 
L 243.168506 142.378089 
L 243.493812 184.820203 
L 243.819117 206.041259 
L 244.144422 99.935995 
L 244.469727 172.08757 
L 244.795032 159.354937 
L 245.120337 121.15704 
L 245.445642 210.285462 
L 245.770948 159.35494 
L 246.096253 167.843357 
L 246.421558 121.157036 
L 246.746863 193.308617 
L 247.072168 104.180189 
L 247.397473 74.470722 
L 248.048084 193.308627 
L 248.373389 108.4244 
L 248.698694 201.797036 
L 249.023999 146.622304 
L 249.349304 167.843357 
L 249.674609 108.4244 
L 249.999915 197.552824 
L 250.32522 142.378081 
L 250.650525 176.331773 
L 250.97583 104.180189 
L 251.301135 197.552832 
L 251.62644 189.064412 
L 251.951746 193.308621 
L 252.277051 155.110723 
L 252.602356 167.84335 
L 252.927661 235.750728 
L 253.252966 172.087571 
L 253.578271 210.285458 
L 253.903576 159.354932 
L 254.228882 176.331776 
L 254.554187 180.575988 
L 254.879492 176.331779 
L 255.204797 180.57599 
L 255.530102 112.668614 
L 255.855407 150.86651 
L 256.180713 223.0181 
L 256.506018 159.35494 
L 256.831323 201.797032 
L 257.156628 150.866519 
L 257.481933 163.599141 
L 257.807238 133.889672 
L 258.132544 180.575994 
L 258.783154 129.645469 
L 259.108459 172.087564 
L 259.433764 159.354928 
L 259.759069 239.99493 
L 260.084374 239.994926 
L 260.40968 193.308623 
L 260.734985 197.552836 
L 261.06029 176.331784 
L 261.385595 172.087567 
L 261.7109 172.087556 
L 262.036205 184.820205 
L 262.361511 244.239145 
L 262.686816 189.064399 
L 263.012121 189.064409 
L 263.337426 210.285468 
L 263.662731 150.86651 
L 263.988036 146.622304 
L 264.313341 150.866515 
L 264.638647 201.797043 
L 264.963952 155.110733 
L 265.289257 129.645453 
L 265.614562 167.843354 
L 265.939867 167.843358 
L 266.265172 129.645465 
L 266.590478 184.820197 
L 266.915783 176.331781 
L 267.241088 189.064413 
L 267.566393 125.401251 
L 267.891698 197.552832 
L 268.217003 142.378099 
L 268.542309 167.843354 
L 268.867614 163.599146 
L 269.192919 142.378085 
L 269.518224 108.424412 
L 269.843529 193.308627 
L 270.168834 129.645473 
L 270.494139 210.285472 
L 270.819445 138.133887 
L 271.14475 184.820197 
L 271.470055 95.69176 
L 271.79536 163.599152 
L 272.44597 193.308613 
L 272.771276 180.575994 
L 273.096581 155.110725 
L 273.421886 116.912837 
L 273.747191 184.820201 
L 274.072496 218.773881 
L 274.397801 129.645465 
L 274.723106 108.424408 
L 275.048412 167.843352 
L 275.373717 167.843368 
L 275.699022 193.308623 
L 276.024327 133.889688 
L 276.349632 125.401251 
L 276.674937 184.820197 
L 277.000243 129.645457 
L 277.325548 133.889672 
L 277.650853 193.30862 
L 277.976158 99.935987 
L 278.301463 176.331771 
L 278.626768 129.645457 
L 278.952073 176.331771 
L 279.602684 116.912833 
L 279.927989 155.110727 
L 280.253294 167.843351 
L 280.578599 150.866515 
L 280.903904 201.797043 
L 281.22921 150.866521 
L 281.554515 231.506509 
L 281.87982 176.331774 
L 282.205125 206.041249 
L 282.53043 180.575995 
L 282.855735 172.087571 
L 283.181041 159.35494 
L 283.506346 201.797036 
L 283.831651 133.889668 
L 284.156956 167.843349 
L 284.482261 172.087559 
L 284.807566 163.599155 
L 285.132871 214.529675 
L 285.458177 104.180197 
L 285.783482 172.087575 
L 286.108787 176.331777 
L 286.434092 214.529671 
L 286.759397 176.331768 
L 287.084702 167.843361 
L 287.410008 189.064409 
L 287.735313 176.331771 
L 288.060618 155.110723 
L 288.385923 112.668619 
L 288.711228 189.064416 
L 289.036533 206.041249 
L 289.687144 176.331775 
L 290.012449 150.866521 
L 290.337754 180.575993 
L 290.663059 104.180189 
L 290.988364 121.15704 
L 291.313669 235.750724 
L 291.638975 121.15704 
L 291.96428 116.912833 
L 292.289585 227.262307 
L 292.61489 163.599151 
L 293.2655 201.797047 
L 293.590806 155.110723 
L 293.916111 155.110725 
L 294.241416 227.262307 
L 294.566721 146.622304 
L 294.892026 167.843366 
L 295.217331 163.59914 
L 295.542636 210.285468 
L 295.867942 167.843361 
L 296.193247 235.75072 
L 296.518552 167.84335 
L 296.843857 138.133895 
L 297.169162 189.064411 
L 297.494467 180.575992 
L 297.819773 180.575995 
L 298.145078 189.064408 
L 298.470383 201.797051 
L 298.795688 197.552838 
L 299.446298 150.866521 
L 299.771603 201.797039 
L 300.096909 223.0181 
L 300.747519 146.622314 
L 301.072824 210.285464 
L 301.398129 142.378095 
L 301.723434 129.645465 
L 302.04874 125.401259 
L 302.374045 167.843359 
L 302.69935 180.575992 
L 303.024655 150.866506 
L 303.34996 201.797045 
L 303.675265 201.797036 
L 304.00057 189.064412 
L 304.325876 167.843357 
L 304.651181 108.424408 
L 304.976486 261.216 
L 305.301791 172.087561 
L 305.627096 210.285468 
L 306.277707 163.599149 
L 306.603012 108.42442 
L 306.928317 201.797043 
L 307.253622 133.889672 
L 307.578927 133.889668 
L 307.904232 201.797034 
L 308.229538 193.308617 
L 308.880148 138.133887 
L 309.205453 125.401251 
L 309.530758 176.331782 
L 309.856063 163.599149 
L 310.181368 201.797043 
L 310.506674 146.622298 
L 310.831979 210.285468 
L 311.157284 163.599152 
L 311.482589 155.110723 
L 311.807894 180.575988 
L 312.133199 176.331786 
L 312.458505 159.354939 
L 312.78381 235.75072 
L 313.109115 218.773873 
L 313.43442 138.133883 
L 314.08503 138.133883 
L 314.410335 108.424412 
L 314.735641 129.645453 
L 315.060946 180.575992 
L 315.386251 193.308617 
L 315.711556 150.866519 
L 316.036861 189.064418 
L 316.362166 142.378099 
L 316.687472 214.529675 
L 317.012777 121.15704 
L 317.338082 155.110725 
L 317.663387 223.018104 
L 317.988692 150.866519 
L 318.639302 180.575991 
L 318.964608 176.331774 
L 319.289913 146.622308 
L 319.615218 184.820201 
L 319.940523 172.087568 
L 320.265828 150.866513 
L 320.591133 108.424408 
L 320.916439 180.575978 
L 321.241744 138.133883 
L 321.567049 163.599141 
L 321.892354 159.354941 
L 322.217659 227.262307 
L 322.542964 150.866513 
L 322.86827 133.889676 
L 323.193575 167.843358 
L 323.51888 104.180189 
L 324.16949 223.018092 
L 324.8201 133.889672 
L 325.145406 172.087569 
L 325.470711 70.226504 
L 325.796016 197.55283 
L 326.121321 167.843358 
L 326.446626 180.575991 
L 326.771931 129.645465 
L 327.097237 163.599149 
L 327.422542 112.668627 
L 327.747847 121.15704 
L 328.073152 184.820197 
L 328.398457 142.378089 
L 328.723762 172.087567 
L 329.049067 180.576003 
L 329.374373 133.889672 
L 329.699678 193.308616 
L 330.024983 155.110725 
L 330.350288 163.599136 
L 330.675593 184.820206 
L 331.326204 155.110725 
L 331.651509 193.308617 
L 331.976814 108.424408 
L 332.302119 201.797039 
L 332.627424 104.180205 
L 332.952729 155.110723 
L 333.278035 121.157036 
L 333.60334 108.424408 
L 333.928645 78.714925 
L 334.25395 214.529675 
L 334.579255 201.797039 
L 334.90456 223.0181 
L 335.229865 133.889676 
L 335.555171 155.110723 
L 335.880476 210.285472 
L 336.531086 125.401251 
L 336.856391 121.157028 
L 337.181696 167.843367 
L 337.507002 180.575991 
L 337.832307 172.087567 
L 338.482917 150.866521 
L 338.808222 172.087564 
L 339.133527 125.401251 
L 339.784138 197.55282 
L 340.109443 163.599141 
L 340.434748 163.599141 
L 340.760053 206.041249 
L 341.085358 82.959136 
L 341.410663 214.529671 
L 341.735969 82.959136 
L 342.061274 223.018104 
L 342.386579 231.506521 
L 342.711884 133.889672 
L 343.037189 176.331782 
L 343.362494 172.087561 
L 343.687799 163.599156 
L 344.013105 176.331768 
L 344.33841 163.599145 
L 344.663715 176.331779 
L 344.98902 163.599149 
L 345.314325 172.087564 
L 345.63963 138.133883 
L 345.964936 201.797036 
L 346.290241 239.994939 
L 346.615546 172.08757 
L 346.940851 197.552828 
L 347.591461 197.552828 
L 347.916767 116.912837 
L 348.242072 223.018104 
L 348.567377 197.552832 
L 348.892682 104.180197 
L 349.217987 163.599147 
L 349.543292 176.331782 
L 349.868597 176.331781 
L 350.193903 201.797045 
L 350.519208 133.88968 
L 350.844513 210.285476 
L 351.169818 155.110723 
L 351.495123 146.622298 
L 352.145734 167.843356 
L 352.471039 197.552838 
L 352.796344 159.354936 
L 353.446954 223.018092 
L 353.772259 150.866513 
L 354.097564 206.041251 
L 354.42287 167.843355 
L 354.748175 167.843356 
L 355.07348 138.133883 
L 355.398785 146.622308 
L 355.72409 133.88968 
L 356.374701 210.285464 
L 356.700006 180.57599 
L 357.025311 163.599145 
L 357.350616 159.354934 
L 357.675921 184.820198 
L 358.001226 163.59915 
L 358.326532 155.110719 
L 358.651837 142.378089 
L 358.977142 163.599147 
L 359.302447 150.866515 
L 359.627752 231.506513 
L 359.953057 167.84336 
L 360.278362 197.552832 
L 360.603668 201.797051 
L 360.928973 218.773889 
L 361.254278 150.86651 
L 361.579583 146.622304 
L 361.904888 133.889668 
L 362.230193 193.30862 
L 362.555499 150.86651 
L 362.880804 214.529666 
L 363.206109 155.110729 
L 363.531414 197.552838 
L 363.856719 159.354937 
L 364.182024 184.820201 
L 364.507329 223.0181 
L 364.832635 142.378095 
L 365.483245 227.262307 
L 365.80855 133.889676 
L 366.133855 142.378089 
L 366.45916 138.133891 
L 366.784466 155.110733 
L 367.435076 163.599149 
L 367.760381 235.750728 
L 368.085686 176.331785 
L 368.410991 146.622304 
L 368.736296 218.773889 
L 369.061602 159.35494 
L 369.386907 206.041259 
L 369.712212 142.378085 
L 370.037517 129.645465 
L 370.362822 129.645465 
L 370.688127 146.62231 
L 371.013433 155.110727 
L 371.338738 235.750728 
L 371.664043 155.110725 
L 371.989348 167.843355 
L 372.639958 227.262307 
L 372.965264 133.88968 
L 373.290569 116.912829 
L 373.615874 184.820203 
L 373.941179 129.645457 
L 373.941179 129.645457 
" clip-path="url(#p87a55d5d31)" style="fill: none; stroke: #2196f3; stroke-width: 1.5; stroke-linecap: round"/>
   </g>
   <g id="patch_3">
    <path d="M 33.053906 273.312 
L 33.053906 7.2 
" style="fill: none"/>
   </g>
   <g id="patch_4">
    <path d="M 390.173906 273.312 
L 390.173906 7.2 
" style="fill: none"/>
   </g>
   <g id="patch_5">
    <path d="M 33.053906 273.312 
L 390.173906 273.312 
" style="fill: none"/>
   </g>
   <g id="patch_6">
    <path d="M 33.053906 7.2 
L 390.173906 7.2 
" style="fill: none"/>
   </g>
  </g>
 </g>
 <defs>
  <clipPath id="p87a55d5d31">
   <rect x="33.053906" y="7.2" width="357.12" height="266.112"/>
  </clipPath>
 </defs>
</svg>
