<?xml version="1.0" encoding="utf-8" standalone="no"?>
<!DOCTYPE svg PUBLIC "-//W3C//DTD SVG 1.1//EN"
  "http://www.w3.org/Graphics/SVG/1.1/DTD/svg11.dtd">
<svg xmlns:xlink="http://www.w3.org/1999/xlink" width="400.202969pt" height="334.933875pt" viewBox="0 0 400.202969 334.933875" xmlns="http://www.w3.org/2000/svg" version="1.1">
 <metadata>
  <rdf:RDF xmlns:dc="http://purl.org/dc/elements/1.1/" xmlns:cc="http://creativecommons.org/ns#" xmlns:rdf="http://www.w3.org/1999/02/22-rdf-syntax-ns#">
   <cc:Work>
    <dc:type rdf:resource="http://purl.org/dc/dcmitype/StillImage"/>
    <dc:date>2023-09-19T18:16:11.065069</dc:date>
    <dc:format>image/svg+xml</dc:format>
    <dc:creator>
     <cc:Agent>
      <dc:title>Matplotlib v3.8.0, https://matplotlib.org/</dc:title>
     </cc:Agent>
    </dc:creator>
   </cc:Work>
  </rdf:RDF>
 </metadata>
 <defs>
  <style type="text/css">*{stroke-linejoin: round; stroke-linecap: butt}</style>
 </defs>
 <g id="figure_1">
  <g id="patch_1">
   <path d="M 0 334.933875 
L 400.202969 334.933875 
L 400.202969 0 
L 0 0 
L 0 334.933875 
z
" style="fill: none"/>
  </g>
  <g id="axes_1">
   <g id="patch_2">
    <path d="M 35.882969 288.312 
L 393.002969 288.312 
L 393.002969 22.2 
L 35.882969 22.2 
L 35.882969 288.312 
z
" style="fill: none"/>
   </g>
   <g id="patch_3">
    <path d="M 52.115696 288.312 
L 84.581151 288.312 
L 84.581151 277.574901 
L 52.115696 277.574901 
z
" clip-path="url(#p072e07b115)" style="fill: #ef5350; opacity: 0.4"/>
   </g>
   <g id="patch_4">
    <path d="M 84.581151 288.312 
L 117.046605 288.312 
L 117.046605 245.363602 
L 84.581151 245.363602 
z
" clip-path="url(#p072e07b115)" style="fill: #ef5350; opacity: 0.4"/>
   </g>
   <g id="patch_5">
    <path d="M 117.046605 288.312 
L 149.51206 288.312 
L 149.51206 178.256731 
L 117.046605 178.256731 
z
" clip-path="url(#p072e07b115)" style="fill: #ef5350; opacity: 0.4"/>
   </g>
   <g id="patch_6">
    <path d="M 149.51206 288.312 
L 181.977514 288.312 
L 181.977514 116.518409 
L 149.51206 116.518409 
z
" clip-path="url(#p072e07b115)" style="fill: #ef5350; opacity: 0.4"/>
   </g>
   <g id="patch_7">
    <path d="M 181.977514 288.312 
L 214.442969 288.312 
L 214.442969 116.518409 
L 181.977514 116.518409 
z
" clip-path="url(#p072e07b115)" style="fill: #ef5350; opacity: 0.4"/>
   </g>
   <g id="patch_8">
    <path d="M 214.442969 288.312 
L 246.908423 288.312 
L 246.908423 135.308333 
L 214.442969 135.308333 
z
" clip-path="url(#p072e07b115)" style="fill: #ef5350; opacity: 0.4"/>
   </g>
   <g id="patch_9">
    <path d="M 246.908423 288.312 
L 279.373878 288.312 
L 279.373878 207.783754 
L 246.908423 207.783754 
z
" clip-path="url(#p072e07b115)" style="fill: #ef5350; opacity: 0.4"/>
   </g>
   <g id="patch_10">
    <path d="M 279.373878 288.312 
L 311.839332 288.312 
L 311.839332 245.363602 
L 279.373878 245.363602 
z
" clip-path="url(#p072e07b115)" style="fill: #ef5350; opacity: 0.4"/>
   </g>
   <g id="patch_11">
    <path d="M 311.839332 288.312 
L 344.304787 288.312 
L 344.304787 261.469251 
L 311.839332 261.469251 
z
" clip-path="url(#p072e07b115)" style="fill: #ef5350; opacity: 0.4"/>
   </g>
   <g id="patch_12">
    <path d="M 344.304787 288.312 
L 376.770241 288.312 
L 376.770241 282.94345 
L 344.304787 282.94345 
z
" clip-path="url(#p072e07b115)" style="fill: #ef5350; opacity: 0.4"/>
   </g>
   <g id="matplotlib.axis_1">
    <g id="xtick_1">
     <g id="line2d_1">
      <path d="M 68.623534 288.312 
L 68.623534 22.2 
" clip-path="url(#p072e07b115)" style="fill: none; stroke-dasharray: 3.7,1.6; stroke-dashoffset: 0; stroke: #838383; stroke-opacity: 0.33"/>
     </g>
     <g id="line2d_2">
      <defs>
       <path id="mfa7fe8f843" d="M 0 0 
L 0 6 
" style="stroke: #000000; stroke-opacity: 0; stroke-width: 1.25"/>
      </defs>
      <g>
       <use xlink:href="#mfa7fe8f843" x="68.623534" y="288.312" style="fill-opacity: 0; stroke: #000000; stroke-opacity: 0; stroke-width: 1.25"/>
      </g>
     </g>
     <g id="text_1">
      <!-- −20 -->
      <g style="fill: #838383" transform="translate(60.446581 306.062) scale(0.11 -0.11)">
       <defs>
        <path id="RobotoCondensed-Regular-2212" d="M 2697 2034 
L 506 2034 
L 506 2506 
L 2697 2506 
L 2697 2034 
z
" transform="scale(0.015625)"/>
        <path id="RobotoCondensed-Regular-32" d="M 2909 0 
L 366 0 
L 366 416 
L 1663 2134 
Q 1956 2531 2070 2786 
Q 2184 3041 2184 3325 
Q 2184 3688 2015 3913 
Q 1847 4138 1572 4138 
Q 1225 4138 1036 3898 
Q 847 3659 847 3209 
L 294 3209 
Q 294 3838 637 4225 
Q 981 4613 1572 4613 
Q 2116 4613 2428 4280 
Q 2741 3947 2741 3394 
Q 2741 2719 2038 1797 
L 1025 472 
L 2909 472 
L 2909 0 
z
" transform="scale(0.015625)"/>
        <path id="RobotoCondensed-Regular-30" d="M 2797 1941 
Q 2797 934 2503 435 
Q 2209 -63 1581 -63 
Q 972 -63 672 415 
Q 372 894 359 1853 
L 359 2634 
Q 359 3631 654 4122 
Q 950 4613 1575 4613 
Q 2191 4613 2486 4147 
Q 2781 3681 2797 2738 
L 2797 1941 
z
M 2244 2731 
Q 2244 3453 2084 3795 
Q 1925 4138 1575 4138 
Q 1234 4138 1075 3802 
Q 916 3466 909 2788 
L 909 1850 
Q 909 1131 1075 770 
Q 1241 409 1581 409 
Q 1919 409 2078 750 
Q 2238 1091 2244 1791 
L 2244 2731 
z
" transform="scale(0.015625)"/>
       </defs>
       <use xlink:href="#RobotoCondensed-Regular-2212"/>
       <use xlink:href="#RobotoCondensed-Regular-32" x="49.951172"/>
       <use xlink:href="#RobotoCondensed-Regular-30" x="99.316406"/>
      </g>
     </g>
    </g>
    <g id="xtick_2">
     <g id="line2d_3">
      <path d="M 123.649732 288.312 
L 123.649732 22.2 
" clip-path="url(#p072e07b115)" style="fill: none; stroke-dasharray: 3.7,1.6; stroke-dashoffset: 0; stroke: #838383; stroke-opacity: 0.33"/>
     </g>
     <g id="line2d_4">
      <g>
       <use xlink:href="#mfa7fe8f843" x="123.649732" y="288.312" style="fill-opacity: 0; stroke: #000000; stroke-opacity: 0; stroke-width: 1.25"/>
      </g>
     </g>
     <g id="text_2">
      <!-- −10 -->
      <g style="fill: #838383" transform="translate(115.472779 306.062) scale(0.11 -0.11)">
       <defs>
        <path id="RobotoCondensed-Regular-31" d="M 2013 0 
L 1456 0 
L 1456 3853 
L 500 3425 
L 500 3950 
L 1925 4572 
L 2013 4572 
L 2013 0 
z
" transform="scale(0.015625)"/>
       </defs>
       <use xlink:href="#RobotoCondensed-Regular-2212"/>
       <use xlink:href="#RobotoCondensed-Regular-31" x="49.951172"/>
       <use xlink:href="#RobotoCondensed-Regular-30" x="99.316406"/>
      </g>
     </g>
    </g>
    <g id="xtick_3">
     <g id="line2d_5">
      <path d="M 178.67593 288.312 
L 178.67593 22.2 
" clip-path="url(#p072e07b115)" style="fill: none; stroke-dasharray: 3.7,1.6; stroke-dashoffset: 0; stroke: #838383; stroke-opacity: 0.33"/>
     </g>
     <g id="line2d_6">
      <g>
       <use xlink:href="#mfa7fe8f843" x="178.67593" y="288.312" style="fill-opacity: 0; stroke: #000000; stroke-opacity: 0; stroke-width: 1.25"/>
      </g>
     </g>
     <g id="text_3">
      <!-- 0 -->
      <g style="fill: #838383" transform="translate(175.961164 306.062) scale(0.11 -0.11)">
       <use xlink:href="#RobotoCondensed-Regular-30"/>
      </g>
     </g>
    </g>
    <g id="xtick_4">
     <g id="line2d_7">
      <path d="M 233.702127 288.312 
L 233.702127 22.2 
" clip-path="url(#p072e07b115)" style="fill: none; stroke-dasharray: 3.7,1.6; stroke-dashoffset: 0; stroke: #838383; stroke-opacity: 0.33"/>
     </g>
     <g id="line2d_8">
      <g>
       <use xlink:href="#mfa7fe8f843" x="233.702127" y="288.312" style="fill-opacity: 0; stroke: #000000; stroke-opacity: 0; stroke-width: 1.25"/>
      </g>
     </g>
     <g id="text_4">
      <!-- 10 -->
      <g style="fill: #838383" transform="translate(228.272596 306.062) scale(0.11 -0.11)">
       <use xlink:href="#RobotoCondensed-Regular-31"/>
       <use xlink:href="#RobotoCondensed-Regular-30" x="49.365234"/>
      </g>
     </g>
    </g>
    <g id="xtick_5">
     <g id="line2d_9">
      <path d="M 288.728325 288.312 
L 288.728325 22.2 
" clip-path="url(#p072e07b115)" style="fill: none; stroke-dasharray: 3.7,1.6; stroke-dashoffset: 0; stroke: #838383; stroke-opacity: 0.33"/>
     </g>
     <g id="line2d_10">
      <g>
       <use xlink:href="#mfa7fe8f843" x="288.728325" y="288.312" style="fill-opacity: 0; stroke: #000000; stroke-opacity: 0; stroke-width: 1.25"/>
      </g>
     </g>
     <g id="text_5">
      <!-- 20 -->
      <g style="fill: #838383" transform="translate(283.298794 306.062) scale(0.11 -0.11)">
       <use xlink:href="#RobotoCondensed-Regular-32"/>
       <use xlink:href="#RobotoCondensed-Regular-30" x="49.365234"/>
      </g>
     </g>
    </g>
    <g id="xtick_6">
     <g id="line2d_11">
      <path d="M 343.754523 288.312 
L 343.754523 22.2 
" clip-path="url(#p072e07b115)" style="fill: none; stroke-dasharray: 3.7,1.6; stroke-dashoffset: 0; stroke: #838383; stroke-opacity: 0.33"/>
     </g>
     <g id="line2d_12">
      <g>
       <use xlink:href="#mfa7fe8f843" x="343.754523" y="288.312" style="fill-opacity: 0; stroke: #000000; stroke-opacity: 0; stroke-width: 1.25"/>
      </g>
     </g>
     <g id="text_6">
      <!-- 30 -->
      <g style="fill: #838383" transform="translate(338.324992 306.062) scale(0.11 -0.11)">
       <defs>
        <path id="RobotoCondensed-Regular-33" d="M 1072 2556 
L 1425 2556 
Q 1766 2556 1950 2765 
Q 2134 2975 2134 3338 
Q 2134 4138 1516 4138 
Q 1219 4138 1050 3922 
Q 881 3706 881 3356 
L 331 3356 
Q 331 3903 664 4258 
Q 997 4613 1516 4613 
Q 2053 4613 2368 4277 
Q 2684 3941 2684 3325 
Q 2684 3009 2520 2736 
Q 2356 2463 2094 2334 
Q 2738 2097 2738 1269 
Q 2738 659 2398 298 
Q 2059 -63 1513 -63 
Q 972 -63 639 279 
Q 306 622 306 1200 
L 859 1200 
Q 859 838 1034 623 
Q 1209 409 1513 409 
Q 1822 409 2005 618 
Q 2188 828 2188 1256 
Q 2188 2084 1403 2084 
L 1072 2084 
L 1072 2556 
z
" transform="scale(0.015625)"/>
       </defs>
       <use xlink:href="#RobotoCondensed-Regular-33"/>
       <use xlink:href="#RobotoCondensed-Regular-30" x="49.365234"/>
      </g>
     </g>
    </g>
    <g id="text_7">
     <!-- $Q_{\mathbb{Z}}$ -->
     <g style="fill: #bdbdbd" transform="translate(376.802969 325.296375) scale(0.12 -0.12)">
      <defs>
       <path id="DejaVuSans-Oblique-51" d="M 2309 -84 
Q 2275 -88 2237 -89 
Q 2200 -91 2125 -91 
Q 1250 -91 756 411 
Q 263 913 263 1797 
Q 263 2319 452 2844 
Q 641 3369 978 3788 
Q 1369 4269 1858 4509 
Q 2347 4750 2938 4750 
Q 3794 4750 4287 4245 
Q 4781 3741 4781 2869 
Q 4781 1928 4265 1147 
Q 3750 366 2919 44 
L 3553 -825 
L 2847 -825 
L 2309 -84 
z
M 2919 4238 
Q 2400 4238 2003 3986 
Q 1606 3734 1313 3219 
Q 1125 2891 1026 2522 
Q 928 2153 928 1778 
Q 928 1128 1239 775 
Q 1550 422 2119 422 
Q 2631 422 3032 676 
Q 3434 931 3719 1434 
Q 3909 1772 4009 2142 
Q 4109 2513 4109 2881 
Q 4109 3528 3796 3883 
Q 3484 4238 2919 4238 
z
" transform="scale(0.015625)"/>
       <path id="STIXGeneral-Italic-2124" d="M 4800 3942 
L 1382 256 
L 1382 237 
L 4128 237 
L 4070 0 
L 45 0 
L 45 237 
L 3494 3930 
L 3494 3942 
L 909 3942 
L 966 4179 
L 4800 4179 
L 4800 3942 
z
M 4467 3942 
L 3827 3942 
L 390 237 
L 1050 237 
L 4467 3942 
z
" transform="scale(0.015625)"/>
      </defs>
      <use xlink:href="#DejaVuSans-Oblique-51" transform="translate(0 0.78125)"/>
      <use xlink:href="#STIXGeneral-Italic-2124" transform="translate(78.710938 -15.625) scale(0.7)"/>
     </g>
    </g>
   </g>
   <g id="matplotlib.axis_2">
    <g id="ytick_1">
     <g id="line2d_13">
      <path d="M 35.882969 288.312 
L 393.002969 288.312 
" clip-path="url(#p072e07b115)" style="fill: none; stroke-dasharray: 3.7,1.6; stroke-dashoffset: 0; stroke: #838383; stroke-opacity: 0.33"/>
     </g>
     <g id="line2d_14">
      <defs>
       <path id="m8750bb651f" d="M 0 0 
L -6 0 
" style="stroke: #000000; stroke-opacity: 0; stroke-width: 1.25"/>
      </defs>
      <g>
       <use xlink:href="#m8750bb651f" x="35.882969" y="288.312" style="fill-opacity: 0; stroke: #000000; stroke-opacity: 0; stroke-width: 1.25"/>
      </g>
     </g>
     <g id="text_8">
      <!-- 0.00 -->
      <g style="fill: #838383" transform="translate(7.2 292.437) scale(0.11 -0.11)">
       <defs>
        <path id="RobotoCondensed-Regular-2e" d="M 450 303 
Q 450 453 539 553 
Q 628 653 806 653 
Q 984 653 1076 553 
Q 1169 453 1169 303 
Q 1169 159 1076 62 
Q 984 -34 806 -34 
Q 628 -34 539 62 
Q 450 159 450 303 
z
" transform="scale(0.015625)"/>
       </defs>
       <use xlink:href="#RobotoCondensed-Regular-30"/>
       <use xlink:href="#RobotoCondensed-Regular-2e" x="49.365234"/>
       <use xlink:href="#RobotoCondensed-Regular-30" x="75.683594"/>
       <use xlink:href="#RobotoCondensed-Regular-30" x="125.048828"/>
      </g>
     </g>
    </g>
    <g id="ytick_2">
     <g id="line2d_15">
      <path d="M 35.882969 240.166849 
L 393.002969 240.166849 
" clip-path="url(#p072e07b115)" style="fill: none; stroke-dasharray: 3.7,1.6; stroke-dashoffset: 0; stroke: #838383; stroke-opacity: 0.33"/>
     </g>
     <g id="line2d_16">
      <g>
       <use xlink:href="#m8750bb651f" x="35.882969" y="240.166849" style="fill-opacity: 0; stroke: #000000; stroke-opacity: 0; stroke-width: 1.25"/>
      </g>
     </g>
     <g id="text_9">
      <!-- 0.01 -->
      <g style="fill: #838383" transform="translate(7.2 244.291849) scale(0.11 -0.11)">
       <use xlink:href="#RobotoCondensed-Regular-30"/>
       <use xlink:href="#RobotoCondensed-Regular-2e" x="49.365234"/>
       <use xlink:href="#RobotoCondensed-Regular-30" x="75.683594"/>
       <use xlink:href="#RobotoCondensed-Regular-31" x="125.048828"/>
      </g>
     </g>
    </g>
    <g id="ytick_3">
     <g id="line2d_17">
      <path d="M 35.882969 192.021698 
L 393.002969 192.021698 
" clip-path="url(#p072e07b115)" style="fill: none; stroke-dasharray: 3.7,1.6; stroke-dashoffset: 0; stroke: #838383; stroke-opacity: 0.33"/>
     </g>
     <g id="line2d_18">
      <g>
       <use xlink:href="#m8750bb651f" x="35.882969" y="192.021698" style="fill-opacity: 0; stroke: #000000; stroke-opacity: 0; stroke-width: 1.25"/>
      </g>
     </g>
     <g id="text_10">
      <!-- 0.02 -->
      <g style="fill: #838383" transform="translate(7.2 196.146698) scale(0.11 -0.11)">
       <use xlink:href="#RobotoCondensed-Regular-30"/>
       <use xlink:href="#RobotoCondensed-Regular-2e" x="49.365234"/>
       <use xlink:href="#RobotoCondensed-Regular-30" x="75.683594"/>
       <use xlink:href="#RobotoCondensed-Regular-32" x="125.048828"/>
      </g>
     </g>
    </g>
    <g id="ytick_4">
     <g id="line2d_19">
      <path d="M 35.882969 143.876547 
L 393.002969 143.876547 
" clip-path="url(#p072e07b115)" style="fill: none; stroke-dasharray: 3.7,1.6; stroke-dashoffset: 0; stroke: #838383; stroke-opacity: 0.33"/>
     </g>
     <g id="line2d_20">
      <g>
       <use xlink:href="#m8750bb651f" x="35.882969" y="143.876547" style="fill-opacity: 0; stroke: #000000; stroke-opacity: 0; stroke-width: 1.25"/>
      </g>
     </g>
     <g id="text_11">
      <!-- 0.03 -->
      <g style="fill: #838383" transform="translate(7.2 148.001547) scale(0.11 -0.11)">
       <use xlink:href="#RobotoCondensed-Regular-30"/>
       <use xlink:href="#RobotoCondensed-Regular-2e" x="49.365234"/>
       <use xlink:href="#RobotoCondensed-Regular-30" x="75.683594"/>
       <use xlink:href="#RobotoCondensed-Regular-33" x="125.048828"/>
      </g>
     </g>
    </g>
    <g id="ytick_5">
     <g id="line2d_21">
      <path d="M 35.882969 95.731396 
L 393.002969 95.731396 
" clip-path="url(#p072e07b115)" style="fill: none; stroke-dasharray: 3.7,1.6; stroke-dashoffset: 0; stroke: #838383; stroke-opacity: 0.33"/>
     </g>
     <g id="line2d_22">
      <g>
       <use xlink:href="#m8750bb651f" x="35.882969" y="95.731396" style="fill-opacity: 0; stroke: #000000; stroke-opacity: 0; stroke-width: 1.25"/>
      </g>
     </g>
     <g id="text_12">
      <!-- 0.04 -->
      <g style="fill: #838383" transform="translate(7.2 99.856396) scale(0.11 -0.11)">
       <defs>
        <path id="RobotoCondensed-Regular-34" d="M 2459 1528 
L 2966 1528 
L 2966 1056 
L 2459 1056 
L 2459 0 
L 1906 0 
L 1906 1056 
L 188 1056 
L 188 1397 
L 1878 4550 
L 2459 4550 
L 2459 1528 
z
M 800 1528 
L 1906 1528 
L 1906 3691 
L 800 1528 
z
" transform="scale(0.015625)"/>
       </defs>
       <use xlink:href="#RobotoCondensed-Regular-30"/>
       <use xlink:href="#RobotoCondensed-Regular-2e" x="49.365234"/>
       <use xlink:href="#RobotoCondensed-Regular-30" x="75.683594"/>
       <use xlink:href="#RobotoCondensed-Regular-34" x="125.048828"/>
      </g>
     </g>
    </g>
    <g id="ytick_6">
     <g id="line2d_23">
      <path d="M 35.882969 47.586246 
L 393.002969 47.586246 
" clip-path="url(#p072e07b115)" style="fill: none; stroke-dasharray: 3.7,1.6; stroke-dashoffset: 0; stroke: #838383; stroke-opacity: 0.33"/>
     </g>
     <g id="line2d_24">
      <g>
       <use xlink:href="#m8750bb651f" x="35.882969" y="47.586246" style="fill-opacity: 0; stroke: #000000; stroke-opacity: 0; stroke-width: 1.25"/>
      </g>
     </g>
     <g id="text_13">
      <!-- 0.05 -->
      <g style="fill: #838383" transform="translate(7.2 51.711246) scale(0.11 -0.11)">
       <defs>
        <path id="RobotoCondensed-Regular-35" d="M 591 2281 
L 788 4550 
L 2766 4550 
L 2766 4016 
L 1253 4016 
L 1147 2775 
Q 1428 2972 1753 2972 
Q 2284 2972 2587 2559 
Q 2891 2147 2891 1450 
Q 2891 744 2561 340 
Q 2231 -63 1656 -63 
Q 1144 -63 822 271 
Q 500 606 453 1197 
L 972 1197 
Q 1019 806 1195 607 
Q 1372 409 1656 409 
Q 1978 409 2159 689 
Q 2341 969 2341 1444 
Q 2341 1891 2145 2172 
Q 1950 2453 1619 2453 
Q 1344 2453 1178 2309 
L 1031 2163 
L 591 2281 
z
" transform="scale(0.015625)"/>
       </defs>
       <use xlink:href="#RobotoCondensed-Regular-30"/>
       <use xlink:href="#RobotoCondensed-Regular-2e" x="49.365234"/>
       <use xlink:href="#RobotoCondensed-Regular-30" x="75.683594"/>
       <use xlink:href="#RobotoCondensed-Regular-35" x="125.048828"/>
      </g>
     </g>
    </g>
   </g>
   <g id="patch_13">
    <path d="M 57.618305 288.312 
L 57.618305 279.864001 
L 80.179048 279.864001 
L 80.179048 256.209596 
L 102.739786 256.209596 
L 102.739786 208.900791 
L 125.300524 208.900791 
L 125.300524 166.6608 
L 147.861265 166.6608 
L 147.861265 34.872 
L 170.422005 34.872 
L 170.422005 43.32 
L 192.982746 43.32 
L 192.982746 45.0096 
L 215.543486 45.0096 
L 215.543486 151.454384 
L 238.104224 151.454384 
L 238.104224 246.072005 
L 260.664967 246.072005 
L 260.664967 276.484799 
L 283.225705 276.484799 
L 283.225705 288.312 
" clip-path="url(#p072e07b115)" style="fill: none; opacity: 0.8; stroke: #2196f3; stroke-width: 1.5; stroke-linejoin: miter"/>
   </g>
   <g id="patch_14">
    <path d="M 35.882969 288.312 
L 35.882969 22.2 
" style="fill: none"/>
   </g>
   <g id="patch_15">
    <path d="M 393.002969 288.312 
L 393.002969 22.2 
" style="fill: none"/>
   </g>
   <g id="patch_16">
    <path d="M 35.882969 288.312 
L 393.002969 288.312 
" style="fill: none"/>
   </g>
   <g id="patch_17">
    <path d="M 35.882969 22.2 
L 393.002969 22.2 
" style="fill: none"/>
   </g>
   <g id="text_14">
    <!-- Charge Distribution -->
    <g style="fill: #838383" transform="translate(35.882969 16.2) scale(0.12 -0.12)">
     <defs>
      <path id="RobotoCondensed-Bold-43" d="M 3450 1516 
Q 3416 738 3012 337 
Q 2609 -63 1875 -63 
Q 1103 -63 692 445 
Q 281 953 281 1894 
L 281 2659 
Q 281 3597 706 4105 
Q 1131 4613 1888 4613 
Q 2631 4613 3017 4197 
Q 3403 3781 3456 3003 
L 2534 3003 
Q 2522 3484 2386 3667 
Q 2250 3850 1888 3850 
Q 1519 3850 1366 3592 
Q 1213 3334 1203 2744 
L 1203 1884 
Q 1203 1206 1354 953 
Q 1506 700 1875 700 
Q 2238 700 2375 876 
Q 2513 1053 2531 1516 
L 3450 1516 
z
" transform="scale(0.015625)"/>
      <path id="RobotoCondensed-Bold-68" d="M 1184 3084 
Q 1472 3444 1891 3444 
Q 2353 3444 2593 3119 
Q 2834 2794 2838 2150 
L 2838 0 
L 1950 0 
L 1950 2141 
Q 1950 2438 1858 2570 
Q 1766 2703 1559 2703 
Q 1319 2703 1184 2481 
L 1184 0 
L 300 0 
L 300 4800 
L 1184 4800 
L 1184 3084 
z
" transform="scale(0.015625)"/>
      <path id="RobotoCondensed-Bold-61" d="M 1928 0 
Q 1891 78 1853 263 
Q 1616 -63 1209 -63 
Q 784 -63 504 218 
Q 225 500 225 947 
Q 225 1478 564 1768 
Q 903 2059 1541 2066 
L 1809 2066 
L 1809 2338 
Q 1809 2566 1731 2659 
Q 1653 2753 1503 2753 
Q 1172 2753 1172 2366 
L 288 2366 
Q 288 2834 639 3139 
Q 991 3444 1528 3444 
Q 2084 3444 2389 3155 
Q 2694 2866 2694 2328 
L 2694 738 
Q 2700 300 2819 53 
L 2819 0 
L 1928 0 
z
M 1406 631 
Q 1553 631 1656 690 
Q 1759 750 1809 831 
L 1809 1534 
L 1597 1534 
Q 1372 1534 1242 1390 
Q 1113 1247 1113 1006 
Q 1113 631 1406 631 
z
" transform="scale(0.015625)"/>
      <path id="RobotoCondensed-Bold-72" d="M 1991 2528 
L 1697 2553 
Q 1334 2553 1206 2234 
L 1206 0 
L 319 0 
L 319 3381 
L 1153 3381 
L 1178 3016 
Q 1388 3444 1756 3444 
Q 1906 3444 2000 3403 
L 1991 2528 
z
" transform="scale(0.015625)"/>
      <path id="RobotoCondensed-Bold-67" d="M 216 1794 
Q 216 2625 516 3034 
Q 816 3444 1356 3444 
Q 1816 3444 2066 3081 
L 2100 3381 
L 2897 3381 
L 2897 0 
Q 2897 -647 2534 -989 
Q 2172 -1331 1494 -1331 
Q 1216 -1331 909 -1220 
Q 603 -1109 453 -938 
L 750 -325 
Q 875 -456 1075 -539 
Q 1275 -622 1453 -622 
Q 1750 -622 1879 -480 
Q 2009 -338 2013 -22 
L 2013 269 
Q 1759 -63 1353 -63 
Q 813 -63 517 357 
Q 222 778 216 1544 
L 216 1794 
z
M 1100 1572 
Q 1100 1103 1222 889 
Q 1344 675 1609 675 
Q 1881 675 2013 872 
L 2013 2488 
Q 1875 2703 1616 2703 
Q 1353 2703 1226 2487 
Q 1100 2272 1100 1794 
L 1100 1572 
z
" transform="scale(0.015625)"/>
      <path id="RobotoCondensed-Bold-65" d="M 1688 -63 
Q 1006 -63 625 343 
Q 244 750 244 1506 
L 244 1775 
Q 244 2575 594 3009 
Q 944 3444 1597 3444 
Q 2234 3444 2556 3036 
Q 2878 2628 2884 1828 
L 2884 1394 
L 1125 1394 
Q 1144 1019 1291 845 
Q 1438 672 1744 672 
Q 2188 672 2484 975 
L 2831 441 
Q 2669 216 2359 76 
Q 2050 -63 1688 -63 
z
M 1131 2013 
L 2016 2013 
L 2016 2094 
Q 2009 2397 1915 2553 
Q 1822 2709 1590 2709 
Q 1359 2709 1254 2543 
Q 1150 2378 1131 2013 
z
" transform="scale(0.015625)"/>
      <path id="RobotoCondensed-Bold-20" transform="scale(0.015625)"/>
      <path id="RobotoCondensed-Bold-44" d="M 366 0 
L 366 4550 
L 1569 4550 
Q 2366 4550 2839 4044 
Q 3313 3538 3322 2656 
L 3322 1919 
Q 3322 1022 2848 511 
Q 2375 0 1544 0 
L 366 0 
z
M 1284 3784 
L 1284 763 
L 1559 763 
Q 2019 763 2206 1005 
Q 2394 1247 2403 1841 
L 2403 2631 
Q 2403 3269 2225 3520 
Q 2047 3772 1619 3784 
L 1284 3784 
z
" transform="scale(0.015625)"/>
      <path id="RobotoCondensed-Bold-69" d="M 1250 0 
L 363 0 
L 363 3381 
L 1250 3381 
L 1250 0 
z
M 322 4256 
Q 322 4463 453 4594 
Q 584 4725 803 4725 
Q 1022 4725 1153 4594 
Q 1284 4463 1284 4256 
Q 1284 4053 1154 3918 
Q 1025 3784 803 3784 
Q 581 3784 451 3918 
Q 322 4053 322 4256 
z
" transform="scale(0.015625)"/>
      <path id="RobotoCondensed-Bold-73" d="M 1819 906 
Q 1819 1019 1711 1114 
Q 1603 1209 1231 1372 
Q 684 1594 479 1831 
Q 275 2069 275 2422 
Q 275 2866 595 3155 
Q 916 3444 1444 3444 
Q 2000 3444 2334 3156 
Q 2669 2869 2669 2384 
L 1784 2384 
Q 1784 2797 1441 2797 
Q 1300 2797 1209 2709 
Q 1119 2622 1119 2466 
Q 1119 2353 1219 2267 
Q 1319 2181 1691 2022 
Q 2231 1822 2454 1576 
Q 2678 1331 2678 941 
Q 2678 488 2337 212 
Q 1997 -63 1444 -63 
Q 1072 -63 787 82 
Q 503 228 342 487 
Q 181 747 181 1047 
L 1022 1047 
Q 1028 816 1129 700 
Q 1231 584 1463 584 
Q 1819 584 1819 906 
z
" transform="scale(0.015625)"/>
      <path id="RobotoCondensed-Bold-74" d="M 1350 4213 
L 1350 3381 
L 1803 3381 
L 1803 2716 
L 1350 2716 
L 1350 1038 
Q 1350 838 1404 763 
Q 1459 688 1616 688 
Q 1744 688 1825 709 
L 1819 22 
Q 1594 -63 1331 -63 
Q 475 -63 466 919 
L 466 2716 
L 75 2716 
L 75 3381 
L 466 3381 
L 466 4213 
L 1350 4213 
z
" transform="scale(0.015625)"/>
      <path id="RobotoCondensed-Bold-62" d="M 2959 1581 
Q 2959 759 2696 348 
Q 2434 -63 1872 -63 
Q 1431 -63 1166 334 
L 1138 0 
L 322 0 
L 322 4800 
L 1206 4800 
L 1206 3106 
Q 1456 3444 1866 3444 
Q 2428 3444 2690 3036 
Q 2953 2628 2959 1841 
L 2959 1581 
z
M 2075 1803 
Q 2075 2338 1972 2520 
Q 1869 2703 1613 2703 
Q 1334 2703 1206 2450 
L 1206 909 
Q 1325 672 1619 672 
Q 1872 672 1970 837 
Q 2069 1003 2075 1481 
L 2075 1803 
z
" transform="scale(0.015625)"/>
      <path id="RobotoCondensed-Bold-75" d="M 1984 309 
Q 1709 -63 1247 -63 
Q 781 -63 540 257 
Q 300 578 300 1191 
L 300 3381 
L 1184 3381 
L 1184 1169 
Q 1191 675 1513 675 
Q 1816 675 1950 938 
L 1950 3381 
L 2841 3381 
L 2841 0 
L 2009 0 
L 1984 309 
z
" transform="scale(0.015625)"/>
      <path id="RobotoCondensed-Bold-6f" d="M 219 1800 
Q 219 2569 581 3006 
Q 944 3444 1584 3444 
Q 2231 3444 2593 3006 
Q 2956 2569 2956 1794 
L 2956 1578 
Q 2956 806 2597 371 
Q 2238 -63 1591 -63 
Q 941 -63 580 373 
Q 219 809 219 1584 
L 219 1800 
z
M 1106 1578 
Q 1106 672 1591 672 
Q 2038 672 2072 1428 
L 2075 1800 
Q 2075 2263 1947 2486 
Q 1819 2709 1584 2709 
Q 1359 2709 1232 2486 
Q 1106 2263 1106 1800 
L 1106 1578 
z
" transform="scale(0.015625)"/>
      <path id="RobotoCondensed-Bold-6e" d="M 1131 3381 
L 1156 3047 
Q 1456 3444 1941 3444 
Q 2813 3444 2838 2222 
L 2838 0 
L 1950 0 
L 1950 2156 
Q 1950 2444 1864 2573 
Q 1778 2703 1563 2703 
Q 1322 2703 1188 2456 
L 1188 0 
L 300 0 
L 300 3381 
L 1131 3381 
z
" transform="scale(0.015625)"/>
     </defs>
     <use xlink:href="#RobotoCondensed-Bold-43"/>
     <use xlink:href="#RobotoCondensed-Bold-68" x="57.03125"/>
     <use xlink:href="#RobotoCondensed-Bold-61" x="106.25"/>
     <use xlink:href="#RobotoCondensed-Bold-72" x="153.320312"/>
     <use xlink:href="#RobotoCondensed-Bold-67" x="186.474609"/>
     <use xlink:href="#RobotoCondensed-Bold-65" x="236.767578"/>
     <use xlink:href="#RobotoCondensed-Bold-20" x="284.619141"/>
     <use xlink:href="#RobotoCondensed-Bold-44" x="307.666016"/>
     <use xlink:href="#RobotoCondensed-Bold-69" x="364.160156"/>
     <use xlink:href="#RobotoCondensed-Bold-73" x="389.355469"/>
     <use xlink:href="#RobotoCondensed-Bold-74" x="434.765625"/>
     <use xlink:href="#RobotoCondensed-Bold-72" x="465.478516"/>
     <use xlink:href="#RobotoCondensed-Bold-69" x="498.632812"/>
     <use xlink:href="#RobotoCondensed-Bold-62" x="523.828125"/>
     <use xlink:href="#RobotoCondensed-Bold-75" x="573.339844"/>
     <use xlink:href="#RobotoCondensed-Bold-74" x="622.558594"/>
     <use xlink:href="#RobotoCondensed-Bold-69" x="653.271484"/>
     <use xlink:href="#RobotoCondensed-Bold-6f" x="678.466797"/>
     <use xlink:href="#RobotoCondensed-Bold-6e" x="728.222656"/>
    </g>
   </g>
   <g id="legend_1">
    <g id="patch_18">
     <path d="M 239.998969 46.984375 
L 388.818656 46.984375 
Q 391.018656 46.984375 391.018656 44.784375 
L 391.018656 29.9 
Q 391.018656 27.7 388.818656 27.7 
L 239.998969 27.7 
Q 237.798969 27.7 237.798969 29.9 
L 237.798969 44.784375 
Q 237.798969 46.984375 239.998969 46.984375 
L 239.998969 46.984375 
z
" style="fill: none; opacity: 0.8; stroke: #838383; stroke-linejoin: miter"/>
    </g>
    <g id="patch_19">
     <path d="M 242.198969 40.35 
L 264.198969 40.35 
L 264.198969 32.65 
L 242.198969 32.65 
L 242.198969 40.35 
z
" style="fill: none; opacity: 0.8; stroke: #2196f3; stroke-width: 1.5; stroke-linejoin: miter"/>
    </g>
    <g id="text_15">
     <!-- HMC -->
     <g style="fill: #838383" transform="translate(272.998969 40.35) scale(0.11 -0.11)">
      <defs>
       <path id="RobotoCondensed-Regular-48" d="M 3469 0 
L 2894 0 
L 2894 2103 
L 1063 2103 
L 1063 0 
L 491 0 
L 491 4550 
L 1063 4550 
L 1063 2594 
L 2894 2594 
L 2894 4550 
L 3469 4550 
L 3469 0 
z
" transform="scale(0.015625)"/>
       <path id="RobotoCondensed-Regular-4d" d="M 1228 4550 
L 2416 838 
L 3603 4550 
L 4341 4550 
L 4341 0 
L 3769 0 
L 3769 1772 
L 3822 3547 
L 2631 0 
L 2194 0 
L 1009 3534 
L 1063 1772 
L 1063 0 
L 491 0 
L 491 4550 
L 1228 4550 
z
" transform="scale(0.015625)"/>
       <path id="RobotoCondensed-Regular-43" d="M 3344 1444 
Q 3306 713 2932 325 
Q 2559 -63 1878 -63 
Q 1194 -63 791 457 
Q 388 978 388 1869 
L 388 2694 
Q 388 3581 802 4097 
Q 1216 4613 1931 4613 
Q 2591 4613 2952 4217 
Q 3313 3822 3344 3088 
L 2766 3088 
Q 2728 3644 2531 3881 
Q 2334 4119 1931 4119 
Q 1466 4119 1216 3755 
Q 966 3391 966 2688 
L 966 1853 
Q 966 1163 1198 794 
Q 1431 425 1878 425 
Q 2325 425 2522 647 
Q 2719 869 2766 1444 
L 3344 1444 
z
" transform="scale(0.015625)"/>
      </defs>
      <use xlink:href="#RobotoCondensed-Regular-48"/>
      <use xlink:href="#RobotoCondensed-Regular-4d" x="62.011719"/>
      <use xlink:href="#RobotoCondensed-Regular-43" x="137.548828"/>
     </g>
    </g>
    <g id="patch_20">
     <path d="M 316.36475 40.35 
L 338.36475 40.35 
L 338.36475 32.65 
L 316.36475 32.65 
z
" style="fill: #ef5350; opacity: 0.4"/>
    </g>
    <g id="text_16">
     <!-- Diffusion -->
     <g style="fill: #838383" transform="translate(347.16475 40.35) scale(0.11 -0.11)">
      <defs>
       <path id="RobotoCondensed-Regular-44" d="M 491 0 
L 491 4550 
L 1575 4550 
Q 2372 4550 2812 4051 
Q 3253 3553 3253 2650 
L 3253 1888 
Q 3253 984 2806 492 
Q 2359 0 1509 0 
L 491 0 
z
M 1063 4056 
L 1063 491 
L 1522 491 
Q 2125 491 2403 836 
Q 2681 1181 2688 1859 
L 2688 2666 
Q 2688 3384 2411 3720 
Q 2134 4056 1575 4056 
L 1063 4056 
z
" transform="scale(0.015625)"/>
       <path id="RobotoCondensed-Regular-69" d="M 1009 0 
L 456 0 
L 456 3381 
L 1009 3381 
L 1009 0 
z
M 1053 4278 
Q 1053 4138 975 4044 
Q 897 3950 738 3950 
Q 581 3950 503 4044 
Q 425 4138 425 4278 
Q 425 4419 503 4516 
Q 581 4613 737 4613 
Q 894 4613 973 4514 
Q 1053 4416 1053 4278 
z
" transform="scale(0.015625)"/>
       <path id="RobotoCondensed-Regular-66" d="M 656 0 
L 656 2934 
L 216 2934 
L 216 3381 
L 656 3381 
L 656 3772 
Q 666 4288 917 4577 
Q 1169 4866 1628 4866 
Q 1794 4866 1963 4813 
L 1934 4344 
Q 1816 4372 1681 4372 
Q 1209 4372 1209 3700 
L 1209 3381 
L 1788 3381 
L 1788 2934 
L 1209 2934 
L 1209 0 
L 656 0 
z
" transform="scale(0.015625)"/>
       <path id="RobotoCondensed-Regular-75" d="M 2138 297 
Q 1863 -63 1334 -63 
Q 875 -63 640 254 
Q 406 572 403 1178 
L 403 3381 
L 953 3381 
L 953 1219 
Q 953 428 1428 428 
Q 1931 428 2122 878 
L 2122 3381 
L 2675 3381 
L 2675 0 
L 2150 0 
L 2138 297 
z
" transform="scale(0.015625)"/>
       <path id="RobotoCondensed-Regular-73" d="M 2056 866 
Q 2056 1044 1922 1172 
Q 1788 1300 1403 1472 
Q 956 1656 773 1787 
Q 591 1919 500 2086 
Q 409 2253 409 2484 
Q 409 2897 711 3170 
Q 1013 3444 1481 3444 
Q 1975 3444 2275 3156 
Q 2575 2869 2575 2419 
L 2025 2419 
Q 2025 2647 1872 2808 
Q 1719 2969 1481 2969 
Q 1238 2969 1098 2842 
Q 959 2716 959 2503 
Q 959 2334 1061 2231 
Q 1163 2128 1550 1959 
Q 2166 1719 2387 1489 
Q 2609 1259 2609 906 
Q 2609 466 2306 201 
Q 2003 -63 1494 -63 
Q 966 -63 637 240 
Q 309 544 309 1009 
L 866 1009 
Q 875 728 1037 568 
Q 1200 409 1494 409 
Q 1769 409 1912 532 
Q 2056 656 2056 866 
z
" transform="scale(0.015625)"/>
       <path id="RobotoCondensed-Regular-6f" d="M 297 1847 
Q 297 2584 655 3014 
Q 1013 3444 1600 3444 
Q 2188 3444 2545 3025 
Q 2903 2606 2913 1884 
L 2913 1528 
Q 2913 794 2556 365 
Q 2200 -63 1606 -63 
Q 1019 -63 664 353 
Q 309 769 297 1478 
L 297 1847 
z
M 850 1528 
Q 850 1006 1054 707 
Q 1259 409 1606 409 
Q 2338 409 2359 1466 
L 2359 1847 
Q 2359 2366 2153 2667 
Q 1947 2969 1600 2969 
Q 1259 2969 1054 2667 
Q 850 2366 850 1850 
L 850 1528 
z
" transform="scale(0.015625)"/>
       <path id="RobotoCondensed-Regular-6e" d="M 934 3381 
L 950 3016 
Q 1272 3444 1772 3444 
Q 2669 3444 2681 2247 
L 2681 0 
L 2131 0 
L 2131 2222 
Q 2131 2619 1998 2786 
Q 1866 2953 1600 2953 
Q 1394 2953 1230 2815 
Q 1066 2678 966 2456 
L 966 0 
L 413 0 
L 413 3381 
L 934 3381 
z
" transform="scale(0.015625)"/>
      </defs>
      <use xlink:href="#RobotoCondensed-Regular-44"/>
      <use xlink:href="#RobotoCondensed-Regular-69" x="57.080078"/>
      <use xlink:href="#RobotoCondensed-Regular-66" x="79.980469"/>
      <use xlink:href="#RobotoCondensed-Regular-66" x="111.621094"/>
      <use xlink:href="#RobotoCondensed-Regular-75" x="143.261719"/>
      <use xlink:href="#RobotoCondensed-Regular-73" x="191.601562"/>
      <use xlink:href="#RobotoCondensed-Regular-69" x="237.158203"/>
      <use xlink:href="#RobotoCondensed-Regular-6f" x="260.058594"/>
      <use xlink:href="#RobotoCondensed-Regular-6e" x="310.253906"/>
     </g>
    </g>
   </g>
  </g>
 </g>
 <defs>
  <clipPath id="p072e07b115">
   <rect x="35.882969" y="22.2" width="357.12" height="266.112"/>
  </clipPath>
 </defs>
</svg>
