<?xml version="1.0" encoding="utf-8" standalone="no"?>
<!DOCTYPE svg PUBLIC "-//W3C//DTD SVG 1.1//EN"
  "http://www.w3.org/Graphics/SVG/1.1/DTD/svg11.dtd">
<svg xmlns:xlink="http://www.w3.org/1999/xlink" width="400.202969pt" height="349.3965pt" viewBox="0 0 400.202969 349.3965" xmlns="http://www.w3.org/2000/svg" version="1.1">
 <metadata>
  <rdf:RDF xmlns:dc="http://purl.org/dc/elements/1.1/" xmlns:cc="http://creativecommons.org/ns#" xmlns:rdf="http://www.w3.org/1999/02/22-rdf-syntax-ns#">
   <cc:Work>
    <dc:type rdf:resource="http://purl.org/dc/dcmitype/StillImage"/>
    <dc:date>2023-09-19T18:18:07.847079</dc:date>
    <dc:format>image/svg+xml</dc:format>
    <dc:creator>
     <cc:Agent>
      <dc:title>Matplotlib v3.8.0, https://matplotlib.org/</dc:title>
     </cc:Agent>
    </dc:creator>
   </cc:Work>
  </rdf:RDF>
 </metadata>
 <defs>
  <style type="text/css">*{stroke-linejoin: round; stroke-linecap: butt}</style>
 </defs>
 <g id="figure_1">
  <g id="patch_1">
   <path d="M 0 349.3965 
L 400.202969 349.3965 
L 400.202969 0 
L 0 0 
L 0 349.3965 
z
" style="fill: none"/>
  </g>
  <g id="axes_1">
   <g id="patch_2">
    <path d="M 35.882969 288.312 
L 393.002969 288.312 
L 393.002969 22.2 
L 35.882969 22.2 
L 35.882969 288.312 
z
" style="fill: none"/>
   </g>
   <g id="patch_3">
    <path d="M 113.362491 288.312 
L 133.551633 288.312 
L 133.551633 288.247733 
L 113.362491 288.247733 
z
" clip-path="url(#pf8b918e6e3)" style="fill: #ef5350; opacity: 0.4"/>
   </g>
   <g id="patch_4">
    <path d="M 133.551633 288.312 
L 153.740774 288.312 
L 153.740774 286.297639 
L 133.551633 286.297639 
z
" clip-path="url(#pf8b918e6e3)" style="fill: #ef5350; opacity: 0.4"/>
   </g>
   <g id="patch_5">
    <path d="M 153.740774 288.312 
L 173.929916 288.312 
L 173.929916 266.133941 
L 153.740774 266.133941 
z
" clip-path="url(#pf8b918e6e3)" style="fill: #ef5350; opacity: 0.4"/>
   </g>
   <g id="patch_6">
    <path d="M 173.929916 288.312 
L 194.119057 288.312 
L 194.119057 196.593286 
L 173.929916 196.593286 
z
" clip-path="url(#pf8b918e6e3)" style="fill: #ef5350; opacity: 0.4"/>
   </g>
   <g id="patch_7">
    <path d="M 194.119057 288.312 
L 214.308199 288.312 
L 214.308199 34.872 
L 194.119057 34.872 
z
" clip-path="url(#pf8b918e6e3)" style="fill: #ef5350; opacity: 0.4"/>
   </g>
   <g id="patch_8">
    <path d="M 214.308199 288.312 
L 234.49734 288.312 
L 234.49734 106.722242 
L 214.308199 106.722242 
z
" clip-path="url(#pf8b918e6e3)" style="fill: #ef5350; opacity: 0.4"/>
   </g>
   <g id="patch_9">
    <path d="M 234.49734 288.312 
L 254.686482 288.312 
L 254.686482 227.46945 
L 234.49734 227.46945 
z
" clip-path="url(#pf8b918e6e3)" style="fill: #ef5350; opacity: 0.4"/>
   </g>
   <g id="patch_10">
    <path d="M 254.686482 288.312 
L 274.875623 288.312 
L 274.875623 276.103323 
L 254.686482 276.103323 
z
" clip-path="url(#pf8b918e6e3)" style="fill: #ef5350; opacity: 0.4"/>
   </g>
   <g id="patch_11">
    <path d="M 274.875623 288.312 
L 295.064765 288.312 
L 295.064765 287.223482 
L 274.875623 287.223482 
z
" clip-path="url(#pf8b918e6e3)" style="fill: #ef5350; opacity: 0.4"/>
   </g>
   <g id="patch_12">
    <path d="M 295.064765 288.312 
L 315.253906 288.312 
L 315.253906 288.269825 
L 295.064765 288.269825 
z
" clip-path="url(#pf8b918e6e3)" style="fill: #ef5350; opacity: 0.4"/>
   </g>
   <g id="matplotlib.axis_1">
    <g id="xtick_1">
     <g id="line2d_1">
      <path d="M 74.182445 288.312 
L 74.182445 22.2 
" clip-path="url(#pf8b918e6e3)" style="fill: none; stroke-dasharray: 3.7,1.6; stroke-dashoffset: 0; stroke: #838383; stroke-opacity: 0.33"/>
     </g>
     <g id="line2d_2">
      <defs>
       <path id="m4ff14e4df5" d="M 0 0 
L 0 6 
" style="stroke: #000000; stroke-opacity: 0; stroke-width: 1.25"/>
      </defs>
      <g>
       <use xlink:href="#m4ff14e4df5" x="74.182445" y="288.312" style="fill-opacity: 0; stroke: #000000; stroke-opacity: 0; stroke-width: 1.25"/>
      </g>
     </g>
     <g id="text_1">
      <!-- −20 -->
      <g style="fill: #838383" transform="translate(66.005492 306.062) scale(0.11 -0.11)">
       <defs>
        <path id="RobotoCondensed-Regular-2212" d="M 2697 2034 
L 506 2034 
L 506 2506 
L 2697 2506 
L 2697 2034 
z
" transform="scale(0.015625)"/>
        <path id="RobotoCondensed-Regular-32" d="M 2909 0 
L 366 0 
L 366 416 
L 1663 2134 
Q 1956 2531 2070 2786 
Q 2184 3041 2184 3325 
Q 2184 3688 2015 3913 
Q 1847 4138 1572 4138 
Q 1225 4138 1036 3898 
Q 847 3659 847 3209 
L 294 3209 
Q 294 3838 637 4225 
Q 981 4613 1572 4613 
Q 2116 4613 2428 4280 
Q 2741 3947 2741 3394 
Q 2741 2719 2038 1797 
L 1025 472 
L 2909 472 
L 2909 0 
z
" transform="scale(0.015625)"/>
        <path id="RobotoCondensed-Regular-30" d="M 2797 1941 
Q 2797 934 2503 435 
Q 2209 -63 1581 -63 
Q 972 -63 672 415 
Q 372 894 359 1853 
L 359 2634 
Q 359 3631 654 4122 
Q 950 4613 1575 4613 
Q 2191 4613 2486 4147 
Q 2781 3681 2797 2738 
L 2797 1941 
z
M 2244 2731 
Q 2244 3453 2084 3795 
Q 1925 4138 1575 4138 
Q 1234 4138 1075 3802 
Q 916 3466 909 2788 
L 909 1850 
Q 909 1131 1075 770 
Q 1241 409 1581 409 
Q 1919 409 2078 750 
Q 2238 1091 2244 1791 
L 2244 2731 
z
" transform="scale(0.015625)"/>
       </defs>
       <use xlink:href="#RobotoCondensed-Regular-2212"/>
       <use xlink:href="#RobotoCondensed-Regular-32" x="49.951172"/>
       <use xlink:href="#RobotoCondensed-Regular-30" x="99.316406"/>
      </g>
     </g>
    </g>
    <g id="xtick_2">
     <g id="line2d_3">
      <path d="M 142.600112 288.312 
L 142.600112 22.2 
" clip-path="url(#pf8b918e6e3)" style="fill: none; stroke-dasharray: 3.7,1.6; stroke-dashoffset: 0; stroke: #838383; stroke-opacity: 0.33"/>
     </g>
     <g id="line2d_4">
      <g>
       <use xlink:href="#m4ff14e4df5" x="142.600112" y="288.312" style="fill-opacity: 0; stroke: #000000; stroke-opacity: 0; stroke-width: 1.25"/>
      </g>
     </g>
     <g id="text_2">
      <!-- −10 -->
      <g style="fill: #838383" transform="translate(134.423159 306.062) scale(0.11 -0.11)">
       <defs>
        <path id="RobotoCondensed-Regular-31" d="M 2013 0 
L 1456 0 
L 1456 3853 
L 500 3425 
L 500 3950 
L 1925 4572 
L 2013 4572 
L 2013 0 
z
" transform="scale(0.015625)"/>
       </defs>
       <use xlink:href="#RobotoCondensed-Regular-2212"/>
       <use xlink:href="#RobotoCondensed-Regular-31" x="49.951172"/>
       <use xlink:href="#RobotoCondensed-Regular-30" x="99.316406"/>
      </g>
     </g>
    </g>
    <g id="xtick_3">
     <g id="line2d_5">
      <path d="M 211.017779 288.312 
L 211.017779 22.2 
" clip-path="url(#pf8b918e6e3)" style="fill: none; stroke-dasharray: 3.7,1.6; stroke-dashoffset: 0; stroke: #838383; stroke-opacity: 0.33"/>
     </g>
     <g id="line2d_6">
      <g>
       <use xlink:href="#m4ff14e4df5" x="211.017779" y="288.312" style="fill-opacity: 0; stroke: #000000; stroke-opacity: 0; stroke-width: 1.25"/>
      </g>
     </g>
     <g id="text_3">
      <!-- 0 -->
      <g style="fill: #838383" transform="translate(208.303013 306.062) scale(0.11 -0.11)">
       <use xlink:href="#RobotoCondensed-Regular-30"/>
      </g>
     </g>
    </g>
    <g id="xtick_4">
     <g id="line2d_7">
      <path d="M 279.435446 288.312 
L 279.435446 22.2 
" clip-path="url(#pf8b918e6e3)" style="fill: none; stroke-dasharray: 3.7,1.6; stroke-dashoffset: 0; stroke: #838383; stroke-opacity: 0.33"/>
     </g>
     <g id="line2d_8">
      <g>
       <use xlink:href="#m4ff14e4df5" x="279.435446" y="288.312" style="fill-opacity: 0; stroke: #000000; stroke-opacity: 0; stroke-width: 1.25"/>
      </g>
     </g>
     <g id="text_4">
      <!-- 10 -->
      <g style="fill: #838383" transform="translate(274.005915 306.062) scale(0.11 -0.11)">
       <use xlink:href="#RobotoCondensed-Regular-31"/>
       <use xlink:href="#RobotoCondensed-Regular-30" x="49.365234"/>
      </g>
     </g>
    </g>
    <g id="xtick_5">
     <g id="line2d_9">
      <path d="M 347.853113 288.312 
L 347.853113 22.2 
" clip-path="url(#pf8b918e6e3)" style="fill: none; stroke-dasharray: 3.7,1.6; stroke-dashoffset: 0; stroke: #838383; stroke-opacity: 0.33"/>
     </g>
     <g id="line2d_10">
      <g>
       <use xlink:href="#m4ff14e4df5" x="347.853113" y="288.312" style="fill-opacity: 0; stroke: #000000; stroke-opacity: 0; stroke-width: 1.25"/>
      </g>
     </g>
     <g id="text_5">
      <!-- 20 -->
      <g style="fill: #838383" transform="translate(342.423582 306.062) scale(0.11 -0.11)">
       <use xlink:href="#RobotoCondensed-Regular-32"/>
       <use xlink:href="#RobotoCondensed-Regular-30" x="49.365234"/>
      </g>
     </g>
    </g>
    <g id="text_6">
     <!-- $P_{\mu -->
     <g style="fill: #bdbdbd" transform="translate(352.349219 325.85325) scale(0.12 -0.12)">
      <defs>
       <path id="RobotoCondensed-Bold-24" d="M 2053 1200 
Q 2053 1459 1947 1609 
Q 1841 1759 1597 1891 
Q 1119 2103 889 2298 
Q 659 2494 546 2745 
Q 434 2997 434 3344 
Q 434 3863 721 4202 
Q 1009 4541 1481 4603 
L 1481 5272 
L 1953 5272 
L 1953 4591 
Q 2422 4500 2683 4115 
Q 2944 3731 2944 3141 
L 2059 3141 
Q 2059 3516 1951 3700 
Q 1844 3884 1672 3884 
Q 1506 3884 1412 3740 
Q 1319 3597 1319 3341 
Q 1319 3119 1416 2972 
Q 1513 2825 1784 2666 
Q 2284 2428 2504 2233 
Q 2725 2038 2831 1791 
Q 2938 1544 2938 1206 
Q 2938 678 2658 347 
Q 2378 16 1884 -50 
L 1884 -672 
L 1416 -672 
L 1416 -50 
Q 875 28 581 411 
Q 288 794 288 1431 
L 1172 1431 
Q 1172 1063 1290 864 
Q 1409 666 1647 666 
Q 1838 666 1945 808 
Q 2053 950 2053 1200 
z
" transform="scale(0.015625)"/>
       <path id="RobotoCondensed-Bold-50" d="M 1284 1600 
L 1284 0 
L 366 0 
L 366 4550 
L 1916 4550 
Q 2591 4550 2992 4131 
Q 3394 3713 3394 3044 
Q 3394 2375 2997 1987 
Q 2600 1600 1897 1600 
L 1284 1600 
z
M 1284 2366 
L 1916 2366 
Q 2178 2366 2322 2537 
Q 2466 2709 2466 3038 
Q 2466 3378 2319 3579 
Q 2172 3781 1925 3784 
L 1284 3784 
L 1284 2366 
z
" transform="scale(0.015625)"/>
       <path id="RobotoCondensed-Bold-5f" d="M 2488 -713 
L 66 -713 
L 66 0 
L 2488 0 
L 2488 -713 
z
" transform="scale(0.015625)"/>
       <path id="RobotoCondensed-Bold-7b" d="M 1569 -1125 
Q 625 -819 603 278 
L 603 953 
Q 603 1606 175 1606 
L 175 2256 
Q 603 2256 603 2919 
L 603 3600 
Q 628 4684 1569 4991 
L 1738 4484 
Q 1425 4334 1397 3706 
L 1394 2925 
Q 1394 2222 897 1934 
Q 1394 1644 1394 931 
Q 1394 219 1400 116 
Q 1434 -472 1734 -616 
L 1569 -1125 
z
" transform="scale(0.015625)"/>
       <path id="RobotoCondensed-Bold-5c" d="M 31 4550 
L 934 4550 
L 2528 -391 
L 1625 -391 
L 31 4550 
z
" transform="scale(0.015625)"/>
       <path id="RobotoCondensed-Bold-6d" d="M 1153 3381 
L 1178 3069 
Q 1475 3444 1963 3444 
Q 2469 3444 2678 2988 
Q 2969 3444 3506 3444 
Q 4394 3444 4416 2216 
L 4416 0 
L 3531 0 
L 3531 2159 
Q 3531 2453 3450 2578 
Q 3369 2703 3175 2703 
Q 2928 2703 2806 2400 
L 2813 2294 
L 2813 0 
L 1928 0 
L 1928 2153 
Q 1928 2444 1850 2573 
Q 1772 2703 1572 2703 
Q 1344 2703 1209 2456 
L 1209 0 
L 325 0 
L 325 3381 
L 1153 3381 
z
" transform="scale(0.015625)"/>
       <path id="RobotoCondensed-Bold-75" d="M 1984 309 
Q 1709 -63 1247 -63 
Q 781 -63 540 257 
Q 300 578 300 1191 
L 300 3381 
L 1184 3381 
L 1184 1169 
Q 1191 675 1513 675 
Q 1816 675 1950 938 
L 1950 3381 
L 2841 3381 
L 2841 0 
L 2009 0 
L 1984 309 
z
" transform="scale(0.015625)"/>
      </defs>
      <use xlink:href="#RobotoCondensed-Bold-24"/>
      <use xlink:href="#RobotoCondensed-Bold-50" x="50.585938"/>
      <use xlink:href="#RobotoCondensed-Bold-5f" x="107.470703"/>
      <use xlink:href="#RobotoCondensed-Bold-7b" x="147.460938"/>
      <use xlink:href="#RobotoCondensed-Bold-5c" x="177.246094"/>
      <use xlink:href="#RobotoCondensed-Bold-6d" x="215.380859"/>
      <use xlink:href="#RobotoCondensed-Bold-75" x="289.550781"/>
     </g>
     <!-- u}$ -->
     <g style="fill: #bdbdbd" transform="translate(377.451719 339.759) scale(0.12 -0.12)">
      <defs>
       <path id="RobotoCondensed-Bold-7d" d="M 169 -616 
Q 344 -534 428 -314 
Q 513 -94 513 328 
L 513 941 
Q 513 1656 1022 1931 
Q 513 2209 513 2925 
Q 513 3641 509 3706 
Q 481 4338 166 4484 
L 334 4991 
Q 816 4834 1055 4484 
Q 1294 4134 1300 3566 
L 1300 2916 
Q 1300 2256 1731 2256 
L 1731 1606 
Q 1300 1606 1300 947 
L 1300 269 
Q 1275 -819 334 -1125 
L 169 -616 
z
" transform="scale(0.015625)"/>
      </defs>
      <use xlink:href="#RobotoCondensed-Bold-75"/>
      <use xlink:href="#RobotoCondensed-Bold-7d" x="49.21875"/>
      <use xlink:href="#RobotoCondensed-Bold-24" x="79.003906"/>
     </g>
    </g>
   </g>
   <g id="matplotlib.axis_2">
    <g id="ytick_1">
     <g id="line2d_11">
      <path d="M 35.882969 288.312 
L 393.002969 288.312 
" clip-path="url(#pf8b918e6e3)" style="fill: none; stroke-dasharray: 3.7,1.6; stroke-dashoffset: 0; stroke: #838383; stroke-opacity: 0.33"/>
     </g>
     <g id="line2d_12">
      <defs>
       <path id="mcc0b611ad4" d="M 0 0 
L -6 0 
" style="stroke: #000000; stroke-opacity: 0; stroke-width: 1.25"/>
      </defs>
      <g>
       <use xlink:href="#mcc0b611ad4" x="35.882969" y="288.312" style="fill-opacity: 0; stroke: #000000; stroke-opacity: 0; stroke-width: 1.25"/>
      </g>
     </g>
     <g id="text_7">
      <!-- 0.00 -->
      <g style="fill: #838383" transform="translate(7.2 292.437) scale(0.11 -0.11)">
       <defs>
        <path id="RobotoCondensed-Regular-2e" d="M 450 303 
Q 450 453 539 553 
Q 628 653 806 653 
Q 984 653 1076 553 
Q 1169 453 1169 303 
Q 1169 159 1076 62 
Q 984 -34 806 -34 
Q 628 -34 539 62 
Q 450 159 450 303 
z
" transform="scale(0.015625)"/>
       </defs>
       <use xlink:href="#RobotoCondensed-Regular-30"/>
       <use xlink:href="#RobotoCondensed-Regular-2e" x="49.365234"/>
       <use xlink:href="#RobotoCondensed-Regular-30" x="75.683594"/>
       <use xlink:href="#RobotoCondensed-Regular-30" x="125.048828"/>
      </g>
     </g>
    </g>
    <g id="ytick_2">
     <g id="line2d_13">
      <path d="M 35.882969 251.415125 
L 393.002969 251.415125 
" clip-path="url(#pf8b918e6e3)" style="fill: none; stroke-dasharray: 3.7,1.6; stroke-dashoffset: 0; stroke: #838383; stroke-opacity: 0.33"/>
     </g>
     <g id="line2d_14">
      <g>
       <use xlink:href="#mcc0b611ad4" x="35.882969" y="251.415125" style="fill-opacity: 0; stroke: #000000; stroke-opacity: 0; stroke-width: 1.25"/>
      </g>
     </g>
     <g id="text_8">
      <!-- 0.02 -->
      <g style="fill: #838383" transform="translate(7.2 255.540125) scale(0.11 -0.11)">
       <use xlink:href="#RobotoCondensed-Regular-30"/>
       <use xlink:href="#RobotoCondensed-Regular-2e" x="49.365234"/>
       <use xlink:href="#RobotoCondensed-Regular-30" x="75.683594"/>
       <use xlink:href="#RobotoCondensed-Regular-32" x="125.048828"/>
      </g>
     </g>
    </g>
    <g id="ytick_3">
     <g id="line2d_15">
      <path d="M 35.882969 214.518251 
L 393.002969 214.518251 
" clip-path="url(#pf8b918e6e3)" style="fill: none; stroke-dasharray: 3.7,1.6; stroke-dashoffset: 0; stroke: #838383; stroke-opacity: 0.33"/>
     </g>
     <g id="line2d_16">
      <g>
       <use xlink:href="#mcc0b611ad4" x="35.882969" y="214.518251" style="fill-opacity: 0; stroke: #000000; stroke-opacity: 0; stroke-width: 1.25"/>
      </g>
     </g>
     <g id="text_9">
      <!-- 0.04 -->
      <g style="fill: #838383" transform="translate(7.2 218.643251) scale(0.11 -0.11)">
       <defs>
        <path id="RobotoCondensed-Regular-34" d="M 2459 1528 
L 2966 1528 
L 2966 1056 
L 2459 1056 
L 2459 0 
L 1906 0 
L 1906 1056 
L 188 1056 
L 188 1397 
L 1878 4550 
L 2459 4550 
L 2459 1528 
z
M 800 1528 
L 1906 1528 
L 1906 3691 
L 800 1528 
z
" transform="scale(0.015625)"/>
       </defs>
       <use xlink:href="#RobotoCondensed-Regular-30"/>
       <use xlink:href="#RobotoCondensed-Regular-2e" x="49.365234"/>
       <use xlink:href="#RobotoCondensed-Regular-30" x="75.683594"/>
       <use xlink:href="#RobotoCondensed-Regular-34" x="125.048828"/>
      </g>
     </g>
    </g>
    <g id="ytick_4">
     <g id="line2d_17">
      <path d="M 35.882969 177.621376 
L 393.002969 177.621376 
" clip-path="url(#pf8b918e6e3)" style="fill: none; stroke-dasharray: 3.7,1.6; stroke-dashoffset: 0; stroke: #838383; stroke-opacity: 0.33"/>
     </g>
     <g id="line2d_18">
      <g>
       <use xlink:href="#mcc0b611ad4" x="35.882969" y="177.621376" style="fill-opacity: 0; stroke: #000000; stroke-opacity: 0; stroke-width: 1.25"/>
      </g>
     </g>
     <g id="text_10">
      <!-- 0.06 -->
      <g style="fill: #838383" transform="translate(7.2 181.746376) scale(0.11 -0.11)">
       <defs>
        <path id="RobotoCondensed-Regular-36" d="M 2291 4553 
L 2291 4063 
L 2200 4063 
Q 1647 4050 1334 3689 
Q 1022 3328 975 2603 
Q 1278 2984 1750 2984 
Q 2253 2984 2548 2570 
Q 2844 2156 2844 1484 
Q 2844 769 2517 353 
Q 2191 -63 1641 -63 
Q 1088 -63 750 428 
Q 413 919 413 1731 
L 413 1953 
Q 413 2891 616 3447 
Q 819 4003 1214 4273 
Q 1609 4544 2197 4553 
L 2291 4553 
z
M 1656 2503 
Q 1431 2503 1240 2331 
Q 1050 2159 966 1894 
L 966 1666 
Q 966 1113 1161 764 
Q 1356 416 1641 416 
Q 1950 416 2125 702 
Q 2300 988 2300 1456 
Q 2300 1919 2125 2211 
Q 1950 2503 1656 2503 
z
" transform="scale(0.015625)"/>
       </defs>
       <use xlink:href="#RobotoCondensed-Regular-30"/>
       <use xlink:href="#RobotoCondensed-Regular-2e" x="49.365234"/>
       <use xlink:href="#RobotoCondensed-Regular-30" x="75.683594"/>
       <use xlink:href="#RobotoCondensed-Regular-36" x="125.048828"/>
      </g>
     </g>
    </g>
    <g id="ytick_5">
     <g id="line2d_19">
      <path d="M 35.882969 140.724501 
L 393.002969 140.724501 
" clip-path="url(#pf8b918e6e3)" style="fill: none; stroke-dasharray: 3.7,1.6; stroke-dashoffset: 0; stroke: #838383; stroke-opacity: 0.33"/>
     </g>
     <g id="line2d_20">
      <g>
       <use xlink:href="#mcc0b611ad4" x="35.882969" y="140.724501" style="fill-opacity: 0; stroke: #000000; stroke-opacity: 0; stroke-width: 1.25"/>
      </g>
     </g>
     <g id="text_11">
      <!-- 0.08 -->
      <g style="fill: #838383" transform="translate(7.2 144.849501) scale(0.11 -0.11)">
       <defs>
        <path id="RobotoCondensed-Regular-38" d="M 2706 3363 
Q 2706 3022 2554 2756 
Q 2403 2491 2147 2341 
Q 2450 2184 2622 1892 
Q 2794 1600 2794 1228 
Q 2794 641 2461 289 
Q 2128 -63 1578 -63 
Q 1028 -63 695 289 
Q 363 641 363 1228 
Q 363 1603 533 1898 
Q 703 2194 997 2344 
Q 741 2494 594 2758 
Q 447 3022 447 3363 
Q 447 3938 758 4275 
Q 1069 4613 1578 4613 
Q 2084 4613 2395 4278 
Q 2706 3944 2706 3363 
z
M 2241 1241 
Q 2241 1631 2056 1867 
Q 1872 2103 1572 2103 
Q 1266 2103 1089 1865 
Q 913 1628 913 1241 
Q 913 847 1086 628 
Q 1259 409 1578 409 
Q 1897 409 2069 628 
Q 2241 847 2241 1241 
z
M 2156 3353 
Q 2156 3700 1993 3919 
Q 1831 4138 1578 4138 
Q 1313 4138 1156 3922 
Q 1000 3706 1000 3353 
Q 1000 2997 1159 2787 
Q 1319 2578 1578 2578 
Q 1844 2578 2000 2790 
Q 2156 3003 2156 3353 
z
" transform="scale(0.015625)"/>
       </defs>
       <use xlink:href="#RobotoCondensed-Regular-30"/>
       <use xlink:href="#RobotoCondensed-Regular-2e" x="49.365234"/>
       <use xlink:href="#RobotoCondensed-Regular-30" x="75.683594"/>
       <use xlink:href="#RobotoCondensed-Regular-38" x="125.048828"/>
      </g>
     </g>
    </g>
    <g id="ytick_6">
     <g id="line2d_21">
      <path d="M 35.882969 103.827627 
L 393.002969 103.827627 
" clip-path="url(#pf8b918e6e3)" style="fill: none; stroke-dasharray: 3.7,1.6; stroke-dashoffset: 0; stroke: #838383; stroke-opacity: 0.33"/>
     </g>
     <g id="line2d_22">
      <g>
       <use xlink:href="#mcc0b611ad4" x="35.882969" y="103.827627" style="fill-opacity: 0; stroke: #000000; stroke-opacity: 0; stroke-width: 1.25"/>
      </g>
     </g>
     <g id="text_12">
      <!-- 0.10 -->
      <g style="fill: #838383" transform="translate(7.2 107.952627) scale(0.11 -0.11)">
       <use xlink:href="#RobotoCondensed-Regular-30"/>
       <use xlink:href="#RobotoCondensed-Regular-2e" x="49.365234"/>
       <use xlink:href="#RobotoCondensed-Regular-31" x="75.683594"/>
       <use xlink:href="#RobotoCondensed-Regular-30" x="125.048828"/>
      </g>
     </g>
    </g>
    <g id="ytick_7">
     <g id="line2d_23">
      <path d="M 35.882969 66.930752 
L 393.002969 66.930752 
" clip-path="url(#pf8b918e6e3)" style="fill: none; stroke-dasharray: 3.7,1.6; stroke-dashoffset: 0; stroke: #838383; stroke-opacity: 0.33"/>
     </g>
     <g id="line2d_24">
      <g>
       <use xlink:href="#mcc0b611ad4" x="35.882969" y="66.930752" style="fill-opacity: 0; stroke: #000000; stroke-opacity: 0; stroke-width: 1.25"/>
      </g>
     </g>
     <g id="text_13">
      <!-- 0.12 -->
      <g style="fill: #838383" transform="translate(7.2 71.055752) scale(0.11 -0.11)">
       <use xlink:href="#RobotoCondensed-Regular-30"/>
       <use xlink:href="#RobotoCondensed-Regular-2e" x="49.365234"/>
       <use xlink:href="#RobotoCondensed-Regular-31" x="75.683594"/>
       <use xlink:href="#RobotoCondensed-Regular-32" x="125.048828"/>
      </g>
     </g>
    </g>
    <g id="ytick_8">
     <g id="line2d_25">
      <path d="M 35.882969 30.033878 
L 393.002969 30.033878 
" clip-path="url(#pf8b918e6e3)" style="fill: none; stroke-dasharray: 3.7,1.6; stroke-dashoffset: 0; stroke: #838383; stroke-opacity: 0.33"/>
     </g>
     <g id="line2d_26">
      <g>
       <use xlink:href="#mcc0b611ad4" x="35.882969" y="30.033878" style="fill-opacity: 0; stroke: #000000; stroke-opacity: 0; stroke-width: 1.25"/>
      </g>
     </g>
     <g id="text_14">
      <!-- 0.14 -->
      <g style="fill: #838383" transform="translate(7.2 34.158878) scale(0.11 -0.11)">
       <use xlink:href="#RobotoCondensed-Regular-30"/>
       <use xlink:href="#RobotoCondensed-Regular-2e" x="49.365234"/>
       <use xlink:href="#RobotoCondensed-Regular-31" x="75.683594"/>
       <use xlink:href="#RobotoCondensed-Regular-34" x="125.048828"/>
      </g>
     </g>
    </g>
   </g>
   <g id="patch_13">
    <path d="M 52.115696 288.312 
L 52.115696 288.268297 
L 84.581151 288.268297 
L 84.581151 287.030409 
L 117.046605 287.030409 
L 117.046605 279.556644 
L 149.51206 279.556644 
L 149.51206 225.927012 
L 181.977514 225.927012 
L 181.977514 129.331836 
L 214.442969 129.331836 
L 214.442969 196.507769 
L 246.908423 196.507769 
L 246.908423 228.774811 
L 279.373878 228.774811 
L 279.373878 282.970397 
L 311.839332 282.970397 
L 311.839332 287.678852 
L 344.304787 287.678852 
L 344.304787 288.291787 
L 376.770241 288.291787 
L 376.770241 288.312 
" clip-path="url(#pf8b918e6e3)" style="fill: none; opacity: 0.8; stroke: #2196f3; stroke-width: 1.5; stroke-linejoin: miter"/>
   </g>
   <g id="patch_14">
    <path d="M 35.882969 288.312 
L 35.882969 22.2 
" style="fill: none"/>
   </g>
   <g id="patch_15">
    <path d="M 393.002969 288.312 
L 393.002969 22.2 
" style="fill: none"/>
   </g>
   <g id="patch_16">
    <path d="M 35.882969 288.312 
L 393.002969 288.312 
" style="fill: none"/>
   </g>
   <g id="patch_17">
    <path d="M 35.882969 22.2 
L 393.002969 22.2 
" style="fill: none"/>
   </g>
   <g id="text_15">
    <!-- Plaquette Distribution -->
    <g style="fill: #838383" transform="translate(35.882969 16.2) scale(0.12 -0.12)">
     <defs>
      <path id="RobotoCondensed-Bold-6c" d="M 1250 0 
L 363 0 
L 363 4800 
L 1250 4800 
L 1250 0 
z
" transform="scale(0.015625)"/>
      <path id="RobotoCondensed-Bold-61" d="M 1928 0 
Q 1891 78 1853 263 
Q 1616 -63 1209 -63 
Q 784 -63 504 218 
Q 225 500 225 947 
Q 225 1478 564 1768 
Q 903 2059 1541 2066 
L 1809 2066 
L 1809 2338 
Q 1809 2566 1731 2659 
Q 1653 2753 1503 2753 
Q 1172 2753 1172 2366 
L 288 2366 
Q 288 2834 639 3139 
Q 991 3444 1528 3444 
Q 2084 3444 2389 3155 
Q 2694 2866 2694 2328 
L 2694 738 
Q 2700 300 2819 53 
L 2819 0 
L 1928 0 
z
M 1406 631 
Q 1553 631 1656 690 
Q 1759 750 1809 831 
L 1809 1534 
L 1597 1534 
Q 1372 1534 1242 1390 
Q 1113 1247 1113 1006 
Q 1113 631 1406 631 
z
" transform="scale(0.015625)"/>
      <path id="RobotoCondensed-Bold-71" d="M 203 1800 
Q 203 2631 481 3037 
Q 759 3444 1306 3444 
Q 1750 3444 2013 3044 
L 2069 3381 
L 2841 3381 
L 2841 -1300 
L 1953 -1300 
L 1953 263 
Q 1706 -63 1303 -63 
Q 769 -63 489 351 
Q 209 766 203 1544 
L 203 1800 
z
M 1091 1578 
Q 1091 1088 1197 880 
Q 1303 672 1559 672 
Q 1828 672 1953 881 
L 1953 2491 
Q 1828 2709 1563 2709 
Q 1309 2709 1201 2506 
Q 1094 2303 1091 1828 
L 1091 1578 
z
" transform="scale(0.015625)"/>
      <path id="RobotoCondensed-Bold-65" d="M 1688 -63 
Q 1006 -63 625 343 
Q 244 750 244 1506 
L 244 1775 
Q 244 2575 594 3009 
Q 944 3444 1597 3444 
Q 2234 3444 2556 3036 
Q 2878 2628 2884 1828 
L 2884 1394 
L 1125 1394 
Q 1144 1019 1291 845 
Q 1438 672 1744 672 
Q 2188 672 2484 975 
L 2831 441 
Q 2669 216 2359 76 
Q 2050 -63 1688 -63 
z
M 1131 2013 
L 2016 2013 
L 2016 2094 
Q 2009 2397 1915 2553 
Q 1822 2709 1590 2709 
Q 1359 2709 1254 2543 
Q 1150 2378 1131 2013 
z
" transform="scale(0.015625)"/>
      <path id="RobotoCondensed-Bold-74" d="M 1350 4213 
L 1350 3381 
L 1803 3381 
L 1803 2716 
L 1350 2716 
L 1350 1038 
Q 1350 838 1404 763 
Q 1459 688 1616 688 
Q 1744 688 1825 709 
L 1819 22 
Q 1594 -63 1331 -63 
Q 475 -63 466 919 
L 466 2716 
L 75 2716 
L 75 3381 
L 466 3381 
L 466 4213 
L 1350 4213 
z
" transform="scale(0.015625)"/>
      <path id="RobotoCondensed-Bold-20" transform="scale(0.015625)"/>
      <path id="RobotoCondensed-Bold-44" d="M 366 0 
L 366 4550 
L 1569 4550 
Q 2366 4550 2839 4044 
Q 3313 3538 3322 2656 
L 3322 1919 
Q 3322 1022 2848 511 
Q 2375 0 1544 0 
L 366 0 
z
M 1284 3784 
L 1284 763 
L 1559 763 
Q 2019 763 2206 1005 
Q 2394 1247 2403 1841 
L 2403 2631 
Q 2403 3269 2225 3520 
Q 2047 3772 1619 3784 
L 1284 3784 
z
" transform="scale(0.015625)"/>
      <path id="RobotoCondensed-Bold-69" d="M 1250 0 
L 363 0 
L 363 3381 
L 1250 3381 
L 1250 0 
z
M 322 4256 
Q 322 4463 453 4594 
Q 584 4725 803 4725 
Q 1022 4725 1153 4594 
Q 1284 4463 1284 4256 
Q 1284 4053 1154 3918 
Q 1025 3784 803 3784 
Q 581 3784 451 3918 
Q 322 4053 322 4256 
z
" transform="scale(0.015625)"/>
      <path id="RobotoCondensed-Bold-73" d="M 1819 906 
Q 1819 1019 1711 1114 
Q 1603 1209 1231 1372 
Q 684 1594 479 1831 
Q 275 2069 275 2422 
Q 275 2866 595 3155 
Q 916 3444 1444 3444 
Q 2000 3444 2334 3156 
Q 2669 2869 2669 2384 
L 1784 2384 
Q 1784 2797 1441 2797 
Q 1300 2797 1209 2709 
Q 1119 2622 1119 2466 
Q 1119 2353 1219 2267 
Q 1319 2181 1691 2022 
Q 2231 1822 2454 1576 
Q 2678 1331 2678 941 
Q 2678 488 2337 212 
Q 1997 -63 1444 -63 
Q 1072 -63 787 82 
Q 503 228 342 487 
Q 181 747 181 1047 
L 1022 1047 
Q 1028 816 1129 700 
Q 1231 584 1463 584 
Q 1819 584 1819 906 
z
" transform="scale(0.015625)"/>
      <path id="RobotoCondensed-Bold-72" d="M 1991 2528 
L 1697 2553 
Q 1334 2553 1206 2234 
L 1206 0 
L 319 0 
L 319 3381 
L 1153 3381 
L 1178 3016 
Q 1388 3444 1756 3444 
Q 1906 3444 2000 3403 
L 1991 2528 
z
" transform="scale(0.015625)"/>
      <path id="RobotoCondensed-Bold-62" d="M 2959 1581 
Q 2959 759 2696 348 
Q 2434 -63 1872 -63 
Q 1431 -63 1166 334 
L 1138 0 
L 322 0 
L 322 4800 
L 1206 4800 
L 1206 3106 
Q 1456 3444 1866 3444 
Q 2428 3444 2690 3036 
Q 2953 2628 2959 1841 
L 2959 1581 
z
M 2075 1803 
Q 2075 2338 1972 2520 
Q 1869 2703 1613 2703 
Q 1334 2703 1206 2450 
L 1206 909 
Q 1325 672 1619 672 
Q 1872 672 1970 837 
Q 2069 1003 2075 1481 
L 2075 1803 
z
" transform="scale(0.015625)"/>
      <path id="RobotoCondensed-Bold-6f" d="M 219 1800 
Q 219 2569 581 3006 
Q 944 3444 1584 3444 
Q 2231 3444 2593 3006 
Q 2956 2569 2956 1794 
L 2956 1578 
Q 2956 806 2597 371 
Q 2238 -63 1591 -63 
Q 941 -63 580 373 
Q 219 809 219 1584 
L 219 1800 
z
M 1106 1578 
Q 1106 672 1591 672 
Q 2038 672 2072 1428 
L 2075 1800 
Q 2075 2263 1947 2486 
Q 1819 2709 1584 2709 
Q 1359 2709 1232 2486 
Q 1106 2263 1106 1800 
L 1106 1578 
z
" transform="scale(0.015625)"/>
      <path id="RobotoCondensed-Bold-6e" d="M 1131 3381 
L 1156 3047 
Q 1456 3444 1941 3444 
Q 2813 3444 2838 2222 
L 2838 0 
L 1950 0 
L 1950 2156 
Q 1950 2444 1864 2573 
Q 1778 2703 1563 2703 
Q 1322 2703 1188 2456 
L 1188 0 
L 300 0 
L 300 3381 
L 1131 3381 
z
" transform="scale(0.015625)"/>
     </defs>
     <use xlink:href="#RobotoCondensed-Bold-50"/>
     <use xlink:href="#RobotoCondensed-Bold-6c" x="56.884766"/>
     <use xlink:href="#RobotoCondensed-Bold-61" x="82.080078"/>
     <use xlink:href="#RobotoCondensed-Bold-71" x="129.150391"/>
     <use xlink:href="#RobotoCondensed-Bold-75" x="178.857422"/>
     <use xlink:href="#RobotoCondensed-Bold-65" x="228.076172"/>
     <use xlink:href="#RobotoCondensed-Bold-74" x="275.927734"/>
     <use xlink:href="#RobotoCondensed-Bold-74" x="306.640625"/>
     <use xlink:href="#RobotoCondensed-Bold-65" x="337.353516"/>
     <use xlink:href="#RobotoCondensed-Bold-20" x="385.205078"/>
     <use xlink:href="#RobotoCondensed-Bold-44" x="408.251953"/>
     <use xlink:href="#RobotoCondensed-Bold-69" x="464.746094"/>
     <use xlink:href="#RobotoCondensed-Bold-73" x="489.941406"/>
     <use xlink:href="#RobotoCondensed-Bold-74" x="535.351562"/>
     <use xlink:href="#RobotoCondensed-Bold-72" x="566.064453"/>
     <use xlink:href="#RobotoCondensed-Bold-69" x="599.21875"/>
     <use xlink:href="#RobotoCondensed-Bold-62" x="624.414062"/>
     <use xlink:href="#RobotoCondensed-Bold-75" x="673.925781"/>
     <use xlink:href="#RobotoCondensed-Bold-74" x="723.144531"/>
     <use xlink:href="#RobotoCondensed-Bold-69" x="753.857422"/>
     <use xlink:href="#RobotoCondensed-Bold-6f" x="779.052734"/>
     <use xlink:href="#RobotoCondensed-Bold-6e" x="828.808594"/>
    </g>
   </g>
   <g id="legend_1">
    <g id="patch_18">
     <path d="M 239.998969 46.984375 
L 388.818656 46.984375 
Q 391.018656 46.984375 391.018656 44.784375 
L 391.018656 29.9 
Q 391.018656 27.7 388.818656 27.7 
L 239.998969 27.7 
Q 237.798969 27.7 237.798969 29.9 
L 237.798969 44.784375 
Q 237.798969 46.984375 239.998969 46.984375 
L 239.998969 46.984375 
z
" style="fill: none; opacity: 0.8; stroke: #838383; stroke-linejoin: miter"/>
    </g>
    <g id="patch_19">
     <path d="M 242.198969 40.35 
L 264.198969 40.35 
L 264.198969 32.65 
L 242.198969 32.65 
L 242.198969 40.35 
z
" style="fill: none; opacity: 0.8; stroke: #2196f3; stroke-width: 1.5; stroke-linejoin: miter"/>
    </g>
    <g id="text_16">
     <!-- HMC -->
     <g style="fill: #838383" transform="translate(272.998969 40.35) scale(0.11 -0.11)">
      <defs>
       <path id="RobotoCondensed-Regular-48" d="M 3469 0 
L 2894 0 
L 2894 2103 
L 1063 2103 
L 1063 0 
L 491 0 
L 491 4550 
L 1063 4550 
L 1063 2594 
L 2894 2594 
L 2894 4550 
L 3469 4550 
L 3469 0 
z
" transform="scale(0.015625)"/>
       <path id="RobotoCondensed-Regular-4d" d="M 1228 4550 
L 2416 838 
L 3603 4550 
L 4341 4550 
L 4341 0 
L 3769 0 
L 3769 1772 
L 3822 3547 
L 2631 0 
L 2194 0 
L 1009 3534 
L 1063 1772 
L 1063 0 
L 491 0 
L 491 4550 
L 1228 4550 
z
" transform="scale(0.015625)"/>
       <path id="RobotoCondensed-Regular-43" d="M 3344 1444 
Q 3306 713 2932 325 
Q 2559 -63 1878 -63 
Q 1194 -63 791 457 
Q 388 978 388 1869 
L 388 2694 
Q 388 3581 802 4097 
Q 1216 4613 1931 4613 
Q 2591 4613 2952 4217 
Q 3313 3822 3344 3088 
L 2766 3088 
Q 2728 3644 2531 3881 
Q 2334 4119 1931 4119 
Q 1466 4119 1216 3755 
Q 966 3391 966 2688 
L 966 1853 
Q 966 1163 1198 794 
Q 1431 425 1878 425 
Q 2325 425 2522 647 
Q 2719 869 2766 1444 
L 3344 1444 
z
" transform="scale(0.015625)"/>
      </defs>
      <use xlink:href="#RobotoCondensed-Regular-48"/>
      <use xlink:href="#RobotoCondensed-Regular-4d" x="62.011719"/>
      <use xlink:href="#RobotoCondensed-Regular-43" x="137.548828"/>
     </g>
    </g>
    <g id="patch_20">
     <path d="M 316.36475 40.35 
L 338.36475 40.35 
L 338.36475 32.65 
L 316.36475 32.65 
z
" style="fill: #ef5350; opacity: 0.4"/>
    </g>
    <g id="text_17">
     <!-- Diffusion -->
     <g style="fill: #838383" transform="translate(347.16475 40.35) scale(0.11 -0.11)">
      <defs>
       <path id="RobotoCondensed-Regular-44" d="M 491 0 
L 491 4550 
L 1575 4550 
Q 2372 4550 2812 4051 
Q 3253 3553 3253 2650 
L 3253 1888 
Q 3253 984 2806 492 
Q 2359 0 1509 0 
L 491 0 
z
M 1063 4056 
L 1063 491 
L 1522 491 
Q 2125 491 2403 836 
Q 2681 1181 2688 1859 
L 2688 2666 
Q 2688 3384 2411 3720 
Q 2134 4056 1575 4056 
L 1063 4056 
z
" transform="scale(0.015625)"/>
       <path id="RobotoCondensed-Regular-69" d="M 1009 0 
L 456 0 
L 456 3381 
L 1009 3381 
L 1009 0 
z
M 1053 4278 
Q 1053 4138 975 4044 
Q 897 3950 738 3950 
Q 581 3950 503 4044 
Q 425 4138 425 4278 
Q 425 4419 503 4516 
Q 581 4613 737 4613 
Q 894 4613 973 4514 
Q 1053 4416 1053 4278 
z
" transform="scale(0.015625)"/>
       <path id="RobotoCondensed-Regular-66" d="M 656 0 
L 656 2934 
L 216 2934 
L 216 3381 
L 656 3381 
L 656 3772 
Q 666 4288 917 4577 
Q 1169 4866 1628 4866 
Q 1794 4866 1963 4813 
L 1934 4344 
Q 1816 4372 1681 4372 
Q 1209 4372 1209 3700 
L 1209 3381 
L 1788 3381 
L 1788 2934 
L 1209 2934 
L 1209 0 
L 656 0 
z
" transform="scale(0.015625)"/>
       <path id="RobotoCondensed-Regular-75" d="M 2138 297 
Q 1863 -63 1334 -63 
Q 875 -63 640 254 
Q 406 572 403 1178 
L 403 3381 
L 953 3381 
L 953 1219 
Q 953 428 1428 428 
Q 1931 428 2122 878 
L 2122 3381 
L 2675 3381 
L 2675 0 
L 2150 0 
L 2138 297 
z
" transform="scale(0.015625)"/>
       <path id="RobotoCondensed-Regular-73" d="M 2056 866 
Q 2056 1044 1922 1172 
Q 1788 1300 1403 1472 
Q 956 1656 773 1787 
Q 591 1919 500 2086 
Q 409 2253 409 2484 
Q 409 2897 711 3170 
Q 1013 3444 1481 3444 
Q 1975 3444 2275 3156 
Q 2575 2869 2575 2419 
L 2025 2419 
Q 2025 2647 1872 2808 
Q 1719 2969 1481 2969 
Q 1238 2969 1098 2842 
Q 959 2716 959 2503 
Q 959 2334 1061 2231 
Q 1163 2128 1550 1959 
Q 2166 1719 2387 1489 
Q 2609 1259 2609 906 
Q 2609 466 2306 201 
Q 2003 -63 1494 -63 
Q 966 -63 637 240 
Q 309 544 309 1009 
L 866 1009 
Q 875 728 1037 568 
Q 1200 409 1494 409 
Q 1769 409 1912 532 
Q 2056 656 2056 866 
z
" transform="scale(0.015625)"/>
       <path id="RobotoCondensed-Regular-6f" d="M 297 1847 
Q 297 2584 655 3014 
Q 1013 3444 1600 3444 
Q 2188 3444 2545 3025 
Q 2903 2606 2913 1884 
L 2913 1528 
Q 2913 794 2556 365 
Q 2200 -63 1606 -63 
Q 1019 -63 664 353 
Q 309 769 297 1478 
L 297 1847 
z
M 850 1528 
Q 850 1006 1054 707 
Q 1259 409 1606 409 
Q 2338 409 2359 1466 
L 2359 1847 
Q 2359 2366 2153 2667 
Q 1947 2969 1600 2969 
Q 1259 2969 1054 2667 
Q 850 2366 850 1850 
L 850 1528 
z
" transform="scale(0.015625)"/>
       <path id="RobotoCondensed-Regular-6e" d="M 934 3381 
L 950 3016 
Q 1272 3444 1772 3444 
Q 2669 3444 2681 2247 
L 2681 0 
L 2131 0 
L 2131 2222 
Q 2131 2619 1998 2786 
Q 1866 2953 1600 2953 
Q 1394 2953 1230 2815 
Q 1066 2678 966 2456 
L 966 0 
L 413 0 
L 413 3381 
L 934 3381 
z
" transform="scale(0.015625)"/>
      </defs>
      <use xlink:href="#RobotoCondensed-Regular-44"/>
      <use xlink:href="#RobotoCondensed-Regular-69" x="57.080078"/>
      <use xlink:href="#RobotoCondensed-Regular-66" x="79.980469"/>
      <use xlink:href="#RobotoCondensed-Regular-66" x="111.621094"/>
      <use xlink:href="#RobotoCondensed-Regular-75" x="143.261719"/>
      <use xlink:href="#RobotoCondensed-Regular-73" x="191.601562"/>
      <use xlink:href="#RobotoCondensed-Regular-69" x="237.158203"/>
      <use xlink:href="#RobotoCondensed-Regular-6f" x="260.058594"/>
      <use xlink:href="#RobotoCondensed-Regular-6e" x="310.253906"/>
     </g>
    </g>
   </g>
  </g>
 </g>
 <defs>
  <clipPath id="pf8b918e6e3">
   <rect x="35.882969" y="22.2" width="357.12" height="266.112"/>
  </clipPath>
 </defs>
</svg>
