<?xml version="1.0" encoding="utf-8" standalone="no"?>
<!DOCTYPE svg PUBLIC "-//W3C//DTD SVG 1.1//EN"
  "http://www.w3.org/Graphics/SVG/1.1/DTD/svg11.dtd">
<svg xmlns:xlink="http://www.w3.org/1999/xlink" width="400.202969pt" height="300.496375pt" viewBox="0 0 400.202969 300.496375" xmlns="http://www.w3.org/2000/svg" version="1.1">
 <metadata>
  <rdf:RDF xmlns:dc="http://purl.org/dc/elements/1.1/" xmlns:cc="http://creativecommons.org/ns#" xmlns:rdf="http://www.w3.org/1999/02/22-rdf-syntax-ns#">
   <cc:Work>
    <dc:type rdf:resource="http://purl.org/dc/dcmitype/StillImage"/>
    <dc:date>2023-09-19T20:24:38.513327</dc:date>
    <dc:format>image/svg+xml</dc:format>
    <dc:creator>
     <cc:Agent>
      <dc:title>Matplotlib v3.8.0, https://matplotlib.org/</dc:title>
     </cc:Agent>
    </dc:creator>
   </cc:Work>
  </rdf:RDF>
 </metadata>
 <defs>
  <style type="text/css">*{stroke-linejoin: round; stroke-linecap: butt}</style>
 </defs>
 <g id="figure_1">
  <g id="patch_1">
   <path d="M 0 300.496375 
L 400.202969 300.496375 
L 400.202969 0 
L 0 0 
L 0 300.496375 
z
" style="fill: none"/>
  </g>
  <g id="axes_1">
   <g id="patch_2">
    <path d="M 35.882969 273.312 
L 393.002969 273.312 
L 393.002969 7.2 
L 35.882969 7.2 
L 35.882969 273.312 
z
" style="fill: none"/>
   </g>
   <g id="matplotlib.axis_1">
    <g id="xtick_1">
     <g id="line2d_1">
      <path d="M 52.115696 273.312 
L 52.115696 7.2 
" clip-path="url(#p5cad2dcff3)" style="fill: none; stroke-dasharray: 3.7,1.6; stroke-dashoffset: 0; stroke: #838383; stroke-opacity: 0.33"/>
     </g>
     <g id="line2d_2">
      <defs>
       <path id="m8d8426960a" d="M 0 0 
L 0 6 
" style="stroke: #000000; stroke-opacity: 0; stroke-width: 1.25"/>
      </defs>
      <g>
       <use xlink:href="#m8d8426960a" x="52.115696" y="273.312" style="fill-opacity: 0; stroke: #000000; stroke-opacity: 0; stroke-width: 1.25"/>
      </g>
     </g>
     <g id="text_1">
      <!-- 0 -->
      <g style="fill: #838383" transform="translate(49.40093 291.062) scale(0.11 -0.11)">
       <defs>
        <path id="RobotoCondensed-Regular-30" d="M 2797 1941 
Q 2797 934 2503 435 
Q 2209 -63 1581 -63 
Q 972 -63 672 415 
Q 372 894 359 1853 
L 359 2634 
Q 359 3631 654 4122 
Q 950 4613 1575 4613 
Q 2191 4613 2486 4147 
Q 2781 3681 2797 2738 
L 2797 1941 
z
M 2244 2731 
Q 2244 3453 2084 3795 
Q 1925 4138 1575 4138 
Q 1234 4138 1075 3802 
Q 916 3466 909 2788 
L 909 1850 
Q 909 1131 1075 770 
Q 1241 409 1581 409 
Q 1919 409 2078 750 
Q 2238 1091 2244 1791 
L 2244 2731 
z
" transform="scale(0.015625)"/>
       </defs>
       <use xlink:href="#RobotoCondensed-Regular-30"/>
      </g>
     </g>
    </g>
    <g id="xtick_2">
     <g id="line2d_3">
      <path d="M 117.702473 273.312 
L 117.702473 7.2 
" clip-path="url(#p5cad2dcff3)" style="fill: none; stroke-dasharray: 3.7,1.6; stroke-dashoffset: 0; stroke: #838383; stroke-opacity: 0.33"/>
     </g>
     <g id="line2d_4">
      <g>
       <use xlink:href="#m8d8426960a" x="117.702473" y="273.312" style="fill-opacity: 0; stroke: #000000; stroke-opacity: 0; stroke-width: 1.25"/>
      </g>
     </g>
     <g id="text_2">
      <!-- 20 -->
      <g style="fill: #838383" transform="translate(112.272942 291.062) scale(0.11 -0.11)">
       <defs>
        <path id="RobotoCondensed-Regular-32" d="M 2909 0 
L 366 0 
L 366 416 
L 1663 2134 
Q 1956 2531 2070 2786 
Q 2184 3041 2184 3325 
Q 2184 3688 2015 3913 
Q 1847 4138 1572 4138 
Q 1225 4138 1036 3898 
Q 847 3659 847 3209 
L 294 3209 
Q 294 3838 637 4225 
Q 981 4613 1572 4613 
Q 2116 4613 2428 4280 
Q 2741 3947 2741 3394 
Q 2741 2719 2038 1797 
L 1025 472 
L 2909 472 
L 2909 0 
z
" transform="scale(0.015625)"/>
       </defs>
       <use xlink:href="#RobotoCondensed-Regular-32"/>
       <use xlink:href="#RobotoCondensed-Regular-30" x="49.365234"/>
      </g>
     </g>
    </g>
    <g id="xtick_3">
     <g id="line2d_5">
      <path d="M 183.28925 273.312 
L 183.28925 7.2 
" clip-path="url(#p5cad2dcff3)" style="fill: none; stroke-dasharray: 3.7,1.6; stroke-dashoffset: 0; stroke: #838383; stroke-opacity: 0.33"/>
     </g>
     <g id="line2d_6">
      <g>
       <use xlink:href="#m8d8426960a" x="183.28925" y="273.312" style="fill-opacity: 0; stroke: #000000; stroke-opacity: 0; stroke-width: 1.25"/>
      </g>
     </g>
     <g id="text_3">
      <!-- 40 -->
      <g style="fill: #838383" transform="translate(177.859718 291.062) scale(0.11 -0.11)">
       <defs>
        <path id="RobotoCondensed-Regular-34" d="M 2459 1528 
L 2966 1528 
L 2966 1056 
L 2459 1056 
L 2459 0 
L 1906 0 
L 1906 1056 
L 188 1056 
L 188 1397 
L 1878 4550 
L 2459 4550 
L 2459 1528 
z
M 800 1528 
L 1906 1528 
L 1906 3691 
L 800 1528 
z
" transform="scale(0.015625)"/>
       </defs>
       <use xlink:href="#RobotoCondensed-Regular-34"/>
       <use xlink:href="#RobotoCondensed-Regular-30" x="49.365234"/>
      </g>
     </g>
    </g>
    <g id="xtick_4">
     <g id="line2d_7">
      <path d="M 248.876027 273.312 
L 248.876027 7.2 
" clip-path="url(#p5cad2dcff3)" style="fill: none; stroke-dasharray: 3.7,1.6; stroke-dashoffset: 0; stroke: #838383; stroke-opacity: 0.33"/>
     </g>
     <g id="line2d_8">
      <g>
       <use xlink:href="#m8d8426960a" x="248.876027" y="273.312" style="fill-opacity: 0; stroke: #000000; stroke-opacity: 0; stroke-width: 1.25"/>
      </g>
     </g>
     <g id="text_4">
      <!-- 60 -->
      <g style="fill: #838383" transform="translate(243.446495 291.062) scale(0.11 -0.11)">
       <defs>
        <path id="RobotoCondensed-Regular-36" d="M 2291 4553 
L 2291 4063 
L 2200 4063 
Q 1647 4050 1334 3689 
Q 1022 3328 975 2603 
Q 1278 2984 1750 2984 
Q 2253 2984 2548 2570 
Q 2844 2156 2844 1484 
Q 2844 769 2517 353 
Q 2191 -63 1641 -63 
Q 1088 -63 750 428 
Q 413 919 413 1731 
L 413 1953 
Q 413 2891 616 3447 
Q 819 4003 1214 4273 
Q 1609 4544 2197 4553 
L 2291 4553 
z
M 1656 2503 
Q 1431 2503 1240 2331 
Q 1050 2159 966 1894 
L 966 1666 
Q 966 1113 1161 764 
Q 1356 416 1641 416 
Q 1950 416 2125 702 
Q 2300 988 2300 1456 
Q 2300 1919 2125 2211 
Q 1950 2503 1656 2503 
z
" transform="scale(0.015625)"/>
       </defs>
       <use xlink:href="#RobotoCondensed-Regular-36"/>
       <use xlink:href="#RobotoCondensed-Regular-30" x="49.365234"/>
      </g>
     </g>
    </g>
    <g id="xtick_5">
     <g id="line2d_9">
      <path d="M 314.462803 273.312 
L 314.462803 7.2 
" clip-path="url(#p5cad2dcff3)" style="fill: none; stroke-dasharray: 3.7,1.6; stroke-dashoffset: 0; stroke: #838383; stroke-opacity: 0.33"/>
     </g>
     <g id="line2d_10">
      <g>
       <use xlink:href="#m8d8426960a" x="314.462803" y="273.312" style="fill-opacity: 0; stroke: #000000; stroke-opacity: 0; stroke-width: 1.25"/>
      </g>
     </g>
     <g id="text_5">
      <!-- 80 -->
      <g style="fill: #838383" transform="translate(309.033272 291.062) scale(0.11 -0.11)">
       <defs>
        <path id="RobotoCondensed-Regular-38" d="M 2706 3363 
Q 2706 3022 2554 2756 
Q 2403 2491 2147 2341 
Q 2450 2184 2622 1892 
Q 2794 1600 2794 1228 
Q 2794 641 2461 289 
Q 2128 -63 1578 -63 
Q 1028 -63 695 289 
Q 363 641 363 1228 
Q 363 1603 533 1898 
Q 703 2194 997 2344 
Q 741 2494 594 2758 
Q 447 3022 447 3363 
Q 447 3938 758 4275 
Q 1069 4613 1578 4613 
Q 2084 4613 2395 4278 
Q 2706 3944 2706 3363 
z
M 2241 1241 
Q 2241 1631 2056 1867 
Q 1872 2103 1572 2103 
Q 1266 2103 1089 1865 
Q 913 1628 913 1241 
Q 913 847 1086 628 
Q 1259 409 1578 409 
Q 1897 409 2069 628 
Q 2241 847 2241 1241 
z
M 2156 3353 
Q 2156 3700 1993 3919 
Q 1831 4138 1578 4138 
Q 1313 4138 1156 3922 
Q 1000 3706 1000 3353 
Q 1000 2997 1159 2787 
Q 1319 2578 1578 2578 
Q 1844 2578 2000 2790 
Q 2156 3003 2156 3353 
z
" transform="scale(0.015625)"/>
       </defs>
       <use xlink:href="#RobotoCondensed-Regular-38"/>
       <use xlink:href="#RobotoCondensed-Regular-30" x="49.365234"/>
      </g>
     </g>
    </g>
    <g id="xtick_6">
     <g id="line2d_11">
      <path d="M 380.04958 273.312 
L 380.04958 7.2 
" clip-path="url(#p5cad2dcff3)" style="fill: none; stroke-dasharray: 3.7,1.6; stroke-dashoffset: 0; stroke: #838383; stroke-opacity: 0.33"/>
     </g>
     <g id="line2d_12">
      <g>
       <use xlink:href="#m8d8426960a" x="380.04958" y="273.312" style="fill-opacity: 0; stroke: #000000; stroke-opacity: 0; stroke-width: 1.25"/>
      </g>
     </g>
     <g id="text_6">
      <!-- 100 -->
      <g style="fill: #838383" transform="translate(371.905283 291.062) scale(0.11 -0.11)">
       <defs>
        <path id="RobotoCondensed-Regular-31" d="M 2013 0 
L 1456 0 
L 1456 3853 
L 500 3425 
L 500 3950 
L 1925 4572 
L 2013 4572 
L 2013 0 
z
" transform="scale(0.015625)"/>
       </defs>
       <use xlink:href="#RobotoCondensed-Regular-31"/>
       <use xlink:href="#RobotoCondensed-Regular-30" x="49.365234"/>
       <use xlink:href="#RobotoCondensed-Regular-30" x="98.730469"/>
      </g>
     </g>
    </g>
   </g>
   <g id="matplotlib.axis_2">
    <g id="ytick_1">
     <g id="line2d_13">
      <path d="M 35.882969 252.661727 
L 393.002969 252.661727 
" clip-path="url(#p5cad2dcff3)" style="fill: none; stroke-dasharray: 3.7,1.6; stroke-dashoffset: 0; stroke: #838383; stroke-opacity: 0.33"/>
     </g>
     <g id="line2d_14">
      <defs>
       <path id="mfb4e5ff294" d="M 0 0 
L -6 0 
" style="stroke: #000000; stroke-opacity: 0; stroke-width: 1.25"/>
      </defs>
      <g>
       <use xlink:href="#mfb4e5ff294" x="35.882969" y="252.661727" style="fill-opacity: 0; stroke: #000000; stroke-opacity: 0; stroke-width: 1.25"/>
      </g>
     </g>
     <g id="text_7">
      <!-- 0.20 -->
      <g style="fill: #838383" transform="translate(7.2 256.786727) scale(0.11 -0.11)">
       <defs>
        <path id="RobotoCondensed-Regular-2e" d="M 450 303 
Q 450 453 539 553 
Q 628 653 806 653 
Q 984 653 1076 553 
Q 1169 453 1169 303 
Q 1169 159 1076 62 
Q 984 -34 806 -34 
Q 628 -34 539 62 
Q 450 159 450 303 
z
" transform="scale(0.015625)"/>
       </defs>
       <use xlink:href="#RobotoCondensed-Regular-30"/>
       <use xlink:href="#RobotoCondensed-Regular-2e" x="49.365234"/>
       <use xlink:href="#RobotoCondensed-Regular-32" x="75.683594"/>
       <use xlink:href="#RobotoCondensed-Regular-30" x="125.048828"/>
      </g>
     </g>
    </g>
    <g id="ytick_2">
     <g id="line2d_15">
      <path d="M 35.882969 209.483807 
L 393.002969 209.483807 
" clip-path="url(#p5cad2dcff3)" style="fill: none; stroke-dasharray: 3.7,1.6; stroke-dashoffset: 0; stroke: #838383; stroke-opacity: 0.33"/>
     </g>
     <g id="line2d_16">
      <g>
       <use xlink:href="#mfb4e5ff294" x="35.882969" y="209.483807" style="fill-opacity: 0; stroke: #000000; stroke-opacity: 0; stroke-width: 1.25"/>
      </g>
     </g>
     <g id="text_8">
      <!-- 0.25 -->
      <g style="fill: #838383" transform="translate(7.2 213.608807) scale(0.11 -0.11)">
       <defs>
        <path id="RobotoCondensed-Regular-35" d="M 591 2281 
L 788 4550 
L 2766 4550 
L 2766 4016 
L 1253 4016 
L 1147 2775 
Q 1428 2972 1753 2972 
Q 2284 2972 2587 2559 
Q 2891 2147 2891 1450 
Q 2891 744 2561 340 
Q 2231 -63 1656 -63 
Q 1144 -63 822 271 
Q 500 606 453 1197 
L 972 1197 
Q 1019 806 1195 607 
Q 1372 409 1656 409 
Q 1978 409 2159 689 
Q 2341 969 2341 1444 
Q 2341 1891 2145 2172 
Q 1950 2453 1619 2453 
Q 1344 2453 1178 2309 
L 1031 2163 
L 591 2281 
z
" transform="scale(0.015625)"/>
       </defs>
       <use xlink:href="#RobotoCondensed-Regular-30"/>
       <use xlink:href="#RobotoCondensed-Regular-2e" x="49.365234"/>
       <use xlink:href="#RobotoCondensed-Regular-32" x="75.683594"/>
       <use xlink:href="#RobotoCondensed-Regular-35" x="125.048828"/>
      </g>
     </g>
    </g>
    <g id="ytick_3">
     <g id="line2d_17">
      <path d="M 35.882969 166.305888 
L 393.002969 166.305888 
" clip-path="url(#p5cad2dcff3)" style="fill: none; stroke-dasharray: 3.7,1.6; stroke-dashoffset: 0; stroke: #838383; stroke-opacity: 0.33"/>
     </g>
     <g id="line2d_18">
      <g>
       <use xlink:href="#mfb4e5ff294" x="35.882969" y="166.305888" style="fill-opacity: 0; stroke: #000000; stroke-opacity: 0; stroke-width: 1.25"/>
      </g>
     </g>
     <g id="text_9">
      <!-- 0.30 -->
      <g style="fill: #838383" transform="translate(7.2 170.430888) scale(0.11 -0.11)">
       <defs>
        <path id="RobotoCondensed-Regular-33" d="M 1072 2556 
L 1425 2556 
Q 1766 2556 1950 2765 
Q 2134 2975 2134 3338 
Q 2134 4138 1516 4138 
Q 1219 4138 1050 3922 
Q 881 3706 881 3356 
L 331 3356 
Q 331 3903 664 4258 
Q 997 4613 1516 4613 
Q 2053 4613 2368 4277 
Q 2684 3941 2684 3325 
Q 2684 3009 2520 2736 
Q 2356 2463 2094 2334 
Q 2738 2097 2738 1269 
Q 2738 659 2398 298 
Q 2059 -63 1513 -63 
Q 972 -63 639 279 
Q 306 622 306 1200 
L 859 1200 
Q 859 838 1034 623 
Q 1209 409 1513 409 
Q 1822 409 2005 618 
Q 2188 828 2188 1256 
Q 2188 2084 1403 2084 
L 1072 2084 
L 1072 2556 
z
" transform="scale(0.015625)"/>
       </defs>
       <use xlink:href="#RobotoCondensed-Regular-30"/>
       <use xlink:href="#RobotoCondensed-Regular-2e" x="49.365234"/>
       <use xlink:href="#RobotoCondensed-Regular-33" x="75.683594"/>
       <use xlink:href="#RobotoCondensed-Regular-30" x="125.048828"/>
      </g>
     </g>
    </g>
    <g id="ytick_4">
     <g id="line2d_19">
      <path d="M 35.882969 123.127968 
L 393.002969 123.127968 
" clip-path="url(#p5cad2dcff3)" style="fill: none; stroke-dasharray: 3.7,1.6; stroke-dashoffset: 0; stroke: #838383; stroke-opacity: 0.33"/>
     </g>
     <g id="line2d_20">
      <g>
       <use xlink:href="#mfb4e5ff294" x="35.882969" y="123.127968" style="fill-opacity: 0; stroke: #000000; stroke-opacity: 0; stroke-width: 1.25"/>
      </g>
     </g>
     <g id="text_10">
      <!-- 0.35 -->
      <g style="fill: #838383" transform="translate(7.2 127.252968) scale(0.11 -0.11)">
       <use xlink:href="#RobotoCondensed-Regular-30"/>
       <use xlink:href="#RobotoCondensed-Regular-2e" x="49.365234"/>
       <use xlink:href="#RobotoCondensed-Regular-33" x="75.683594"/>
       <use xlink:href="#RobotoCondensed-Regular-35" x="125.048828"/>
      </g>
     </g>
    </g>
    <g id="ytick_5">
     <g id="line2d_21">
      <path d="M 35.882969 79.950048 
L 393.002969 79.950048 
" clip-path="url(#p5cad2dcff3)" style="fill: none; stroke-dasharray: 3.7,1.6; stroke-dashoffset: 0; stroke: #838383; stroke-opacity: 0.33"/>
     </g>
     <g id="line2d_22">
      <g>
       <use xlink:href="#mfb4e5ff294" x="35.882969" y="79.950048" style="fill-opacity: 0; stroke: #000000; stroke-opacity: 0; stroke-width: 1.25"/>
      </g>
     </g>
     <g id="text_11">
      <!-- 0.40 -->
      <g style="fill: #838383" transform="translate(7.2 84.075048) scale(0.11 -0.11)">
       <use xlink:href="#RobotoCondensed-Regular-30"/>
       <use xlink:href="#RobotoCondensed-Regular-2e" x="49.365234"/>
       <use xlink:href="#RobotoCondensed-Regular-34" x="75.683594"/>
       <use xlink:href="#RobotoCondensed-Regular-30" x="125.048828"/>
      </g>
     </g>
    </g>
    <g id="ytick_6">
     <g id="line2d_23">
      <path d="M 35.882969 36.772129 
L 393.002969 36.772129 
" clip-path="url(#p5cad2dcff3)" style="fill: none; stroke-dasharray: 3.7,1.6; stroke-dashoffset: 0; stroke: #838383; stroke-opacity: 0.33"/>
     </g>
     <g id="line2d_24">
      <g>
       <use xlink:href="#mfb4e5ff294" x="35.882969" y="36.772129" style="fill-opacity: 0; stroke: #000000; stroke-opacity: 0; stroke-width: 1.25"/>
      </g>
     </g>
     <g id="text_12">
      <!-- 0.45 -->
      <g style="fill: #838383" transform="translate(7.2 40.897129) scale(0.11 -0.11)">
       <use xlink:href="#RobotoCondensed-Regular-30"/>
       <use xlink:href="#RobotoCondensed-Regular-2e" x="49.365234"/>
       <use xlink:href="#RobotoCondensed-Regular-34" x="75.683594"/>
       <use xlink:href="#RobotoCondensed-Regular-35" x="125.048828"/>
      </g>
     </g>
    </g>
   </g>
   <g id="line2d_25">
    <path d="M 52.115696 238.240814 
L 55.395035 105.381194 
L 58.674374 239.430708 
L 61.953713 124.306555 
L 65.233051 72.521179 
L 68.51239 33.872356 
L 71.791729 223.486828 
L 75.071068 99.839374 
L 78.350407 73.62873 
L 81.629746 235.97141 
L 84.909084 200.608526 
L 88.188423 218.645042 
L 91.467762 143.63919 
L 94.747101 226.314152 
L 98.02644 210.31974 
L 101.305779 116.572307 
L 104.585118 75.883053 
L 107.864456 47.922744 
L 111.143795 214.033734 
L 114.423134 110.268083 
L 117.702473 53.802015 
L 120.981812 48.231319 
L 124.261151 196.757359 
L 127.540489 119.35337 
L 130.819828 81.797351 
L 134.099167 83.384313 
L 137.378506 57.78647 
L 140.657845 73.780264 
L 143.937184 184.289814 
L 147.216522 253.341504 
L 150.495861 142.245351 
L 153.7752 108.353244 
L 157.054539 84.236047 
L 160.333878 70.944563 
L 163.613217 70.944512 
L 166.892556 87.136448 
L 170.171894 70.293493 
L 173.451233 72.583692 
L 176.730572 58.744134 
L 180.009911 209.88888 
L 183.28925 137.323487 
L 186.568589 119.070531 
L 189.847927 76.426058 
L 193.127266 51.939369 
L 196.406605 261.216 
L 199.685944 148.985416 
L 202.965283 128.178724 
L 206.244622 88.798559 
L 209.52396 78.298124 
L 212.803299 212.398067 
L 216.082638 214.251706 
L 219.361977 129.331518 
L 222.641316 91.519708 
L 225.920655 72.626054 
L 229.199994 42.864736 
L 232.479332 42.070882 
L 235.758671 27.459551 
L 239.03801 40.911319 
L 242.317349 42.396803 
L 245.596688 61.119442 
L 248.876027 36.984204 
L 252.155365 42.391836 
L 255.434704 47.879044 
L 258.714043 50.136919 
L 261.993382 33.340237 
L 265.272721 48.357683 
L 268.55206 214.924304 
L 271.831399 130.559488 
L 275.110737 75.919676 
L 278.390076 37.005925 
L 281.669415 28.323356 
L 284.948754 37.826339 
L 288.228093 19.95999 
L 291.507432 19.296 
L 294.78677 45.335422 
L 298.066109 221.627129 
L 301.345448 142.739664 
L 304.624787 121.301486 
L 307.904126 220.687609 
L 311.183465 251.386568 
L 314.462803 156.401206 
L 317.742142 117.327506 
L 321.021481 228.023926 
L 324.30082 143.2864 
L 327.580159 80.018501 
L 330.859498 69.634316 
L 334.138837 78.18787 
L 337.418175 50.796328 
L 340.697514 225.285443 
L 343.976853 234.331998 
L 347.256192 148.580845 
L 350.535531 100.02892 
L 353.81487 100.991705 
L 357.094208 77.298793 
L 360.373547 57.665716 
L 363.652886 218.856849 
L 366.932225 144.644543 
L 370.211564 79.534921 
L 373.490903 79.534895 
L 376.770241 65.888897 
" clip-path="url(#p5cad2dcff3)" style="fill: none; stroke: #2196f3; stroke-width: 1.5; stroke-linecap: round"/>
   </g>
   <g id="patch_3">
    <path d="M 35.882969 273.312 
L 35.882969 7.2 
" style="fill: none"/>
   </g>
   <g id="patch_4">
    <path d="M 393.002969 273.312 
L 393.002969 7.2 
" style="fill: none"/>
   </g>
   <g id="patch_5">
    <path d="M 35.882969 273.312 
L 393.002969 273.312 
" style="fill: none"/>
   </g>
   <g id="patch_6">
    <path d="M 35.882969 7.2 
L 393.002969 7.2 
" style="fill: none"/>
   </g>
  </g>
 </g>
 <defs>
  <clipPath id="p5cad2dcff3">
   <rect x="35.882969" y="7.2" width="357.12" height="266.112"/>
  </clipPath>
 </defs>
</svg>
