<?xml version="1.0" encoding="utf-8" standalone="no"?>
<!DOCTYPE svg PUBLIC "-//W3C//DTD SVG 1.1//EN"
  "http://www.w3.org/Graphics/SVG/1.1/DTD/svg11.dtd">
<svg xmlns:xlink="http://www.w3.org/1999/xlink" width="400.268281pt" height="300.496375pt" viewBox="0 0 400.268281 300.496375" xmlns="http://www.w3.org/2000/svg" version="1.1">
 <metadata>
  <rdf:RDF xmlns:dc="http://purl.org/dc/elements/1.1/" xmlns:cc="http://creativecommons.org/ns#" xmlns:rdf="http://www.w3.org/1999/02/22-rdf-syntax-ns#">
   <cc:Work>
    <dc:type rdf:resource="http://purl.org/dc/dcmitype/StillImage"/>
    <dc:date>2023-09-19T20:28:57.771135</dc:date>
    <dc:format>image/svg+xml</dc:format>
    <dc:creator>
     <cc:Agent>
      <dc:title>Matplotlib v3.8.0, https://matplotlib.org/</dc:title>
     </cc:Agent>
    </dc:creator>
   </cc:Work>
  </rdf:RDF>
 </metadata>
 <defs>
  <style type="text/css">*{stroke-linejoin: round; stroke-linecap: butt}</style>
 </defs>
 <g id="figure_1">
  <g id="patch_1">
   <path d="M 0 300.496375 
L 400.268281 300.496375 
L 400.268281 0 
L 0 0 
L 0 300.496375 
z
" style="fill: none"/>
  </g>
  <g id="axes_1">
   <g id="patch_2">
    <path d="M 35.948281 273.312 
L 393.068281 273.312 
L 393.068281 7.2 
L 35.948281 7.2 
L 35.948281 273.312 
z
" style="fill: none"/>
   </g>
   <g id="matplotlib.axis_1">
    <g id="xtick_1">
     <g id="line2d_1">
      <path d="M 52.181009 273.312 
L 52.181009 7.2 
" clip-path="url(#pe4010b2bca)" style="fill: none; stroke-dasharray: 3.7,1.6; stroke-dashoffset: 0; stroke: #838383; stroke-opacity: 0.33"/>
     </g>
     <g id="line2d_2">
      <defs>
       <path id="m4361aa4d1c" d="M 0 0 
L 0 6 
" style="stroke: #000000; stroke-opacity: 0; stroke-width: 1.25"/>
      </defs>
      <g>
       <use xlink:href="#m4361aa4d1c" x="52.181009" y="273.312" style="fill-opacity: 0; stroke: #000000; stroke-opacity: 0; stroke-width: 1.25"/>
      </g>
     </g>
     <g id="text_1">
      <!-- 0 -->
      <g style="fill: #838383" transform="translate(49.466243 291.062) scale(0.11 -0.11)">
       <defs>
        <path id="RobotoCondensed-Regular-30" d="M 2797 1941 
Q 2797 934 2503 435 
Q 2209 -63 1581 -63 
Q 972 -63 672 415 
Q 372 894 359 1853 
L 359 2634 
Q 359 3631 654 4122 
Q 950 4613 1575 4613 
Q 2191 4613 2486 4147 
Q 2781 3681 2797 2738 
L 2797 1941 
z
M 2244 2731 
Q 2244 3453 2084 3795 
Q 1925 4138 1575 4138 
Q 1234 4138 1075 3802 
Q 916 3466 909 2788 
L 909 1850 
Q 909 1131 1075 770 
Q 1241 409 1581 409 
Q 1919 409 2078 750 
Q 2238 1091 2244 1791 
L 2244 2731 
z
" transform="scale(0.015625)"/>
       </defs>
       <use xlink:href="#RobotoCondensed-Regular-30"/>
      </g>
     </g>
    </g>
    <g id="xtick_2">
     <g id="line2d_3">
      <path d="M 117.176914 273.312 
L 117.176914 7.2 
" clip-path="url(#pe4010b2bca)" style="fill: none; stroke-dasharray: 3.7,1.6; stroke-dashoffset: 0; stroke: #838383; stroke-opacity: 0.33"/>
     </g>
     <g id="line2d_4">
      <g>
       <use xlink:href="#m4361aa4d1c" x="117.176914" y="273.312" style="fill-opacity: 0; stroke: #000000; stroke-opacity: 0; stroke-width: 1.25"/>
      </g>
     </g>
     <g id="text_2">
      <!-- 200 -->
      <g style="fill: #838383" transform="translate(109.032617 291.062) scale(0.11 -0.11)">
       <defs>
        <path id="RobotoCondensed-Regular-32" d="M 2909 0 
L 366 0 
L 366 416 
L 1663 2134 
Q 1956 2531 2070 2786 
Q 2184 3041 2184 3325 
Q 2184 3688 2015 3913 
Q 1847 4138 1572 4138 
Q 1225 4138 1036 3898 
Q 847 3659 847 3209 
L 294 3209 
Q 294 3838 637 4225 
Q 981 4613 1572 4613 
Q 2116 4613 2428 4280 
Q 2741 3947 2741 3394 
Q 2741 2719 2038 1797 
L 1025 472 
L 2909 472 
L 2909 0 
z
" transform="scale(0.015625)"/>
       </defs>
       <use xlink:href="#RobotoCondensed-Regular-32"/>
       <use xlink:href="#RobotoCondensed-Regular-30" x="49.365234"/>
       <use xlink:href="#RobotoCondensed-Regular-30" x="98.730469"/>
      </g>
     </g>
    </g>
    <g id="xtick_3">
     <g id="line2d_5">
      <path d="M 182.172819 273.312 
L 182.172819 7.2 
" clip-path="url(#pe4010b2bca)" style="fill: none; stroke-dasharray: 3.7,1.6; stroke-dashoffset: 0; stroke: #838383; stroke-opacity: 0.33"/>
     </g>
     <g id="line2d_6">
      <g>
       <use xlink:href="#m4361aa4d1c" x="182.172819" y="273.312" style="fill-opacity: 0; stroke: #000000; stroke-opacity: 0; stroke-width: 1.25"/>
      </g>
     </g>
     <g id="text_3">
      <!-- 400 -->
      <g style="fill: #838383" transform="translate(174.028522 291.062) scale(0.11 -0.11)">
       <defs>
        <path id="RobotoCondensed-Regular-34" d="M 2459 1528 
L 2966 1528 
L 2966 1056 
L 2459 1056 
L 2459 0 
L 1906 0 
L 1906 1056 
L 188 1056 
L 188 1397 
L 1878 4550 
L 2459 4550 
L 2459 1528 
z
M 800 1528 
L 1906 1528 
L 1906 3691 
L 800 1528 
z
" transform="scale(0.015625)"/>
       </defs>
       <use xlink:href="#RobotoCondensed-Regular-34"/>
       <use xlink:href="#RobotoCondensed-Regular-30" x="49.365234"/>
       <use xlink:href="#RobotoCondensed-Regular-30" x="98.730469"/>
      </g>
     </g>
    </g>
    <g id="xtick_4">
     <g id="line2d_7">
      <path d="M 247.168724 273.312 
L 247.168724 7.2 
" clip-path="url(#pe4010b2bca)" style="fill: none; stroke-dasharray: 3.7,1.6; stroke-dashoffset: 0; stroke: #838383; stroke-opacity: 0.33"/>
     </g>
     <g id="line2d_8">
      <g>
       <use xlink:href="#m4361aa4d1c" x="247.168724" y="273.312" style="fill-opacity: 0; stroke: #000000; stroke-opacity: 0; stroke-width: 1.25"/>
      </g>
     </g>
     <g id="text_4">
      <!-- 600 -->
      <g style="fill: #838383" transform="translate(239.024427 291.062) scale(0.11 -0.11)">
       <defs>
        <path id="RobotoCondensed-Regular-36" d="M 2291 4553 
L 2291 4063 
L 2200 4063 
Q 1647 4050 1334 3689 
Q 1022 3328 975 2603 
Q 1278 2984 1750 2984 
Q 2253 2984 2548 2570 
Q 2844 2156 2844 1484 
Q 2844 769 2517 353 
Q 2191 -63 1641 -63 
Q 1088 -63 750 428 
Q 413 919 413 1731 
L 413 1953 
Q 413 2891 616 3447 
Q 819 4003 1214 4273 
Q 1609 4544 2197 4553 
L 2291 4553 
z
M 1656 2503 
Q 1431 2503 1240 2331 
Q 1050 2159 966 1894 
L 966 1666 
Q 966 1113 1161 764 
Q 1356 416 1641 416 
Q 1950 416 2125 702 
Q 2300 988 2300 1456 
Q 2300 1919 2125 2211 
Q 1950 2503 1656 2503 
z
" transform="scale(0.015625)"/>
       </defs>
       <use xlink:href="#RobotoCondensed-Regular-36"/>
       <use xlink:href="#RobotoCondensed-Regular-30" x="49.365234"/>
       <use xlink:href="#RobotoCondensed-Regular-30" x="98.730469"/>
      </g>
     </g>
    </g>
    <g id="xtick_5">
     <g id="line2d_9">
      <path d="M 312.164629 273.312 
L 312.164629 7.2 
" clip-path="url(#pe4010b2bca)" style="fill: none; stroke-dasharray: 3.7,1.6; stroke-dashoffset: 0; stroke: #838383; stroke-opacity: 0.33"/>
     </g>
     <g id="line2d_10">
      <g>
       <use xlink:href="#m4361aa4d1c" x="312.164629" y="273.312" style="fill-opacity: 0; stroke: #000000; stroke-opacity: 0; stroke-width: 1.25"/>
      </g>
     </g>
     <g id="text_5">
      <!-- 800 -->
      <g style="fill: #838383" transform="translate(304.020332 291.062) scale(0.11 -0.11)">
       <defs>
        <path id="RobotoCondensed-Regular-38" d="M 2706 3363 
Q 2706 3022 2554 2756 
Q 2403 2491 2147 2341 
Q 2450 2184 2622 1892 
Q 2794 1600 2794 1228 
Q 2794 641 2461 289 
Q 2128 -63 1578 -63 
Q 1028 -63 695 289 
Q 363 641 363 1228 
Q 363 1603 533 1898 
Q 703 2194 997 2344 
Q 741 2494 594 2758 
Q 447 3022 447 3363 
Q 447 3938 758 4275 
Q 1069 4613 1578 4613 
Q 2084 4613 2395 4278 
Q 2706 3944 2706 3363 
z
M 2241 1241 
Q 2241 1631 2056 1867 
Q 1872 2103 1572 2103 
Q 1266 2103 1089 1865 
Q 913 1628 913 1241 
Q 913 847 1086 628 
Q 1259 409 1578 409 
Q 1897 409 2069 628 
Q 2241 847 2241 1241 
z
M 2156 3353 
Q 2156 3700 1993 3919 
Q 1831 4138 1578 4138 
Q 1313 4138 1156 3922 
Q 1000 3706 1000 3353 
Q 1000 2997 1159 2787 
Q 1319 2578 1578 2578 
Q 1844 2578 2000 2790 
Q 2156 3003 2156 3353 
z
" transform="scale(0.015625)"/>
       </defs>
       <use xlink:href="#RobotoCondensed-Regular-38"/>
       <use xlink:href="#RobotoCondensed-Regular-30" x="49.365234"/>
       <use xlink:href="#RobotoCondensed-Regular-30" x="98.730469"/>
      </g>
     </g>
    </g>
    <g id="xtick_6">
     <g id="line2d_11">
      <path d="M 377.160534 273.312 
L 377.160534 7.2 
" clip-path="url(#pe4010b2bca)" style="fill: none; stroke-dasharray: 3.7,1.6; stroke-dashoffset: 0; stroke: #838383; stroke-opacity: 0.33"/>
     </g>
     <g id="line2d_12">
      <g>
       <use xlink:href="#m4361aa4d1c" x="377.160534" y="273.312" style="fill-opacity: 0; stroke: #000000; stroke-opacity: 0; stroke-width: 1.25"/>
      </g>
     </g>
     <g id="text_6">
      <!-- 1000 -->
      <g style="fill: #838383" transform="translate(366.301471 291.062) scale(0.11 -0.11)">
       <defs>
        <path id="RobotoCondensed-Regular-31" d="M 2013 0 
L 1456 0 
L 1456 3853 
L 500 3425 
L 500 3950 
L 1925 4572 
L 2013 4572 
L 2013 0 
z
" transform="scale(0.015625)"/>
       </defs>
       <use xlink:href="#RobotoCondensed-Regular-31"/>
       <use xlink:href="#RobotoCondensed-Regular-30" x="49.365234"/>
       <use xlink:href="#RobotoCondensed-Regular-30" x="98.730469"/>
       <use xlink:href="#RobotoCondensed-Regular-30" x="148.095703"/>
      </g>
     </g>
    </g>
   </g>
   <g id="matplotlib.axis_2">
    <g id="ytick_1">
     <g id="line2d_13">
      <path d="M 35.948281 270.294008 
L 393.068281 270.294008 
" clip-path="url(#pe4010b2bca)" style="fill: none; stroke-dasharray: 3.7,1.6; stroke-dashoffset: 0; stroke: #838383; stroke-opacity: 0.33"/>
     </g>
     <g id="line2d_14">
      <defs>
       <path id="mde92b75912" d="M 0 0 
L -6 0 
" style="stroke: #000000; stroke-opacity: 0; stroke-width: 1.25"/>
      </defs>
      <g>
       <use xlink:href="#mde92b75912" x="35.948281" y="270.294008" style="fill-opacity: 0; stroke: #000000; stroke-opacity: 0; stroke-width: 1.25"/>
      </g>
     </g>
     <g id="text_7">
      <!-- −0.1 -->
      <g style="fill: #838383" transform="translate(7.2 274.419008) scale(0.11 -0.11)">
       <defs>
        <path id="RobotoCondensed-Regular-2212" d="M 2697 2034 
L 506 2034 
L 506 2506 
L 2697 2506 
L 2697 2034 
z
" transform="scale(0.015625)"/>
        <path id="RobotoCondensed-Regular-2e" d="M 450 303 
Q 450 453 539 553 
Q 628 653 806 653 
Q 984 653 1076 553 
Q 1169 453 1169 303 
Q 1169 159 1076 62 
Q 984 -34 806 -34 
Q 628 -34 539 62 
Q 450 159 450 303 
z
" transform="scale(0.015625)"/>
       </defs>
       <use xlink:href="#RobotoCondensed-Regular-2212"/>
       <use xlink:href="#RobotoCondensed-Regular-30" x="49.951172"/>
       <use xlink:href="#RobotoCondensed-Regular-2e" x="99.316406"/>
       <use xlink:href="#RobotoCondensed-Regular-31" x="125.634766"/>
      </g>
     </g>
    </g>
    <g id="ytick_2">
     <g id="line2d_15">
      <path d="M 35.948281 234.548011 
L 393.068281 234.548011 
" clip-path="url(#pe4010b2bca)" style="fill: none; stroke-dasharray: 3.7,1.6; stroke-dashoffset: 0; stroke: #838383; stroke-opacity: 0.33"/>
     </g>
     <g id="line2d_16">
      <g>
       <use xlink:href="#mde92b75912" x="35.948281" y="234.548011" style="fill-opacity: 0; stroke: #000000; stroke-opacity: 0; stroke-width: 1.25"/>
      </g>
     </g>
     <g id="text_8">
      <!-- 0.0 -->
      <g style="fill: #838383" transform="translate(12.694844 238.673011) scale(0.11 -0.11)">
       <use xlink:href="#RobotoCondensed-Regular-30"/>
       <use xlink:href="#RobotoCondensed-Regular-2e" x="49.365234"/>
       <use xlink:href="#RobotoCondensed-Regular-30" x="75.683594"/>
      </g>
     </g>
    </g>
    <g id="ytick_3">
     <g id="line2d_17">
      <path d="M 35.948281 198.802014 
L 393.068281 198.802014 
" clip-path="url(#pe4010b2bca)" style="fill: none; stroke-dasharray: 3.7,1.6; stroke-dashoffset: 0; stroke: #838383; stroke-opacity: 0.33"/>
     </g>
     <g id="line2d_18">
      <g>
       <use xlink:href="#mde92b75912" x="35.948281" y="198.802014" style="fill-opacity: 0; stroke: #000000; stroke-opacity: 0; stroke-width: 1.25"/>
      </g>
     </g>
     <g id="text_9">
      <!-- 0.1 -->
      <g style="fill: #838383" transform="translate(12.694844 202.927014) scale(0.11 -0.11)">
       <use xlink:href="#RobotoCondensed-Regular-30"/>
       <use xlink:href="#RobotoCondensed-Regular-2e" x="49.365234"/>
       <use xlink:href="#RobotoCondensed-Regular-31" x="75.683594"/>
      </g>
     </g>
    </g>
    <g id="ytick_4">
     <g id="line2d_19">
      <path d="M 35.948281 163.056017 
L 393.068281 163.056017 
" clip-path="url(#pe4010b2bca)" style="fill: none; stroke-dasharray: 3.7,1.6; stroke-dashoffset: 0; stroke: #838383; stroke-opacity: 0.33"/>
     </g>
     <g id="line2d_20">
      <g>
       <use xlink:href="#mde92b75912" x="35.948281" y="163.056017" style="fill-opacity: 0; stroke: #000000; stroke-opacity: 0; stroke-width: 1.25"/>
      </g>
     </g>
     <g id="text_10">
      <!-- 0.2 -->
      <g style="fill: #838383" transform="translate(12.694844 167.181017) scale(0.11 -0.11)">
       <use xlink:href="#RobotoCondensed-Regular-30"/>
       <use xlink:href="#RobotoCondensed-Regular-2e" x="49.365234"/>
       <use xlink:href="#RobotoCondensed-Regular-32" x="75.683594"/>
      </g>
     </g>
    </g>
    <g id="ytick_5">
     <g id="line2d_21">
      <path d="M 35.948281 127.310021 
L 393.068281 127.310021 
" clip-path="url(#pe4010b2bca)" style="fill: none; stroke-dasharray: 3.7,1.6; stroke-dashoffset: 0; stroke: #838383; stroke-opacity: 0.33"/>
     </g>
     <g id="line2d_22">
      <g>
       <use xlink:href="#mde92b75912" x="35.948281" y="127.310021" style="fill-opacity: 0; stroke: #000000; stroke-opacity: 0; stroke-width: 1.25"/>
      </g>
     </g>
     <g id="text_11">
      <!-- 0.3 -->
      <g style="fill: #838383" transform="translate(12.694844 131.435021) scale(0.11 -0.11)">
       <defs>
        <path id="RobotoCondensed-Regular-33" d="M 1072 2556 
L 1425 2556 
Q 1766 2556 1950 2765 
Q 2134 2975 2134 3338 
Q 2134 4138 1516 4138 
Q 1219 4138 1050 3922 
Q 881 3706 881 3356 
L 331 3356 
Q 331 3903 664 4258 
Q 997 4613 1516 4613 
Q 2053 4613 2368 4277 
Q 2684 3941 2684 3325 
Q 2684 3009 2520 2736 
Q 2356 2463 2094 2334 
Q 2738 2097 2738 1269 
Q 2738 659 2398 298 
Q 2059 -63 1513 -63 
Q 972 -63 639 279 
Q 306 622 306 1200 
L 859 1200 
Q 859 838 1034 623 
Q 1209 409 1513 409 
Q 1822 409 2005 618 
Q 2188 828 2188 1256 
Q 2188 2084 1403 2084 
L 1072 2084 
L 1072 2556 
z
" transform="scale(0.015625)"/>
       </defs>
       <use xlink:href="#RobotoCondensed-Regular-30"/>
       <use xlink:href="#RobotoCondensed-Regular-2e" x="49.365234"/>
       <use xlink:href="#RobotoCondensed-Regular-33" x="75.683594"/>
      </g>
     </g>
    </g>
    <g id="ytick_6">
     <g id="line2d_23">
      <path d="M 35.948281 91.564024 
L 393.068281 91.564024 
" clip-path="url(#pe4010b2bca)" style="fill: none; stroke-dasharray: 3.7,1.6; stroke-dashoffset: 0; stroke: #838383; stroke-opacity: 0.33"/>
     </g>
     <g id="line2d_24">
      <g>
       <use xlink:href="#mde92b75912" x="35.948281" y="91.564024" style="fill-opacity: 0; stroke: #000000; stroke-opacity: 0; stroke-width: 1.25"/>
      </g>
     </g>
     <g id="text_12">
      <!-- 0.4 -->
      <g style="fill: #838383" transform="translate(12.694844 95.689024) scale(0.11 -0.11)">
       <use xlink:href="#RobotoCondensed-Regular-30"/>
       <use xlink:href="#RobotoCondensed-Regular-2e" x="49.365234"/>
       <use xlink:href="#RobotoCondensed-Regular-34" x="75.683594"/>
      </g>
     </g>
    </g>
    <g id="ytick_7">
     <g id="line2d_25">
      <path d="M 35.948281 55.818027 
L 393.068281 55.818027 
" clip-path="url(#pe4010b2bca)" style="fill: none; stroke-dasharray: 3.7,1.6; stroke-dashoffset: 0; stroke: #838383; stroke-opacity: 0.33"/>
     </g>
     <g id="line2d_26">
      <g>
       <use xlink:href="#mde92b75912" x="35.948281" y="55.818027" style="fill-opacity: 0; stroke: #000000; stroke-opacity: 0; stroke-width: 1.25"/>
      </g>
     </g>
     <g id="text_13">
      <!-- 0.5 -->
      <g style="fill: #838383" transform="translate(12.694844 59.943027) scale(0.11 -0.11)">
       <defs>
        <path id="RobotoCondensed-Regular-35" d="M 591 2281 
L 788 4550 
L 2766 4550 
L 2766 4016 
L 1253 4016 
L 1147 2775 
Q 1428 2972 1753 2972 
Q 2284 2972 2587 2559 
Q 2891 2147 2891 1450 
Q 2891 744 2561 340 
Q 2231 -63 1656 -63 
Q 1144 -63 822 271 
Q 500 606 453 1197 
L 972 1197 
Q 1019 806 1195 607 
Q 1372 409 1656 409 
Q 1978 409 2159 689 
Q 2341 969 2341 1444 
Q 2341 1891 2145 2172 
Q 1950 2453 1619 2453 
Q 1344 2453 1178 2309 
L 1031 2163 
L 591 2281 
z
" transform="scale(0.015625)"/>
       </defs>
       <use xlink:href="#RobotoCondensed-Regular-30"/>
       <use xlink:href="#RobotoCondensed-Regular-2e" x="49.365234"/>
       <use xlink:href="#RobotoCondensed-Regular-35" x="75.683594"/>
      </g>
     </g>
    </g>
    <g id="ytick_8">
     <g id="line2d_27">
      <path d="M 35.948281 20.07203 
L 393.068281 20.07203 
" clip-path="url(#pe4010b2bca)" style="fill: none; stroke-dasharray: 3.7,1.6; stroke-dashoffset: 0; stroke: #838383; stroke-opacity: 0.33"/>
     </g>
     <g id="line2d_28">
      <g>
       <use xlink:href="#mde92b75912" x="35.948281" y="20.07203" style="fill-opacity: 0; stroke: #000000; stroke-opacity: 0; stroke-width: 1.25"/>
      </g>
     </g>
     <g id="text_14">
      <!-- 0.6 -->
      <g style="fill: #838383" transform="translate(12.694844 24.19703) scale(0.11 -0.11)">
       <use xlink:href="#RobotoCondensed-Regular-30"/>
       <use xlink:href="#RobotoCondensed-Regular-2e" x="49.365234"/>
       <use xlink:href="#RobotoCondensed-Regular-36" x="75.683594"/>
      </g>
     </g>
    </g>
   </g>
   <g id="line2d_29">
    <path d="M 52.181009 19.296 
L 52.505988 105.475909 
L 53.155947 199.20734 
L 53.480927 205.285895 
L 53.805906 216.409578 
L 54.130886 215.861245 
L 54.780845 234.06386 
L 55.105824 229.300967 
L 55.430804 234.822152 
L 55.755783 232.9077 
L 56.080763 230.185061 
L 56.405742 220.71348 
L 56.730722 233.97373 
L 57.055701 230.790008 
L 57.380681 242.973679 
L 57.70566 241.811128 
L 58.03064 230.512155 
L 58.355619 226.199373 
L 58.680599 229.389182 
L 59.005579 239.52998 
L 59.330558 233.435891 
L 59.655538 234.596521 
L 59.980517 234.066295 
L 60.305497 244.588153 
L 60.630476 238.405479 
L 60.955456 237.581729 
L 61.280435 242.220606 
L 61.605415 251.599898 
L 61.930394 242.119698 
L 62.255374 242.832177 
L 62.580353 235.384311 
L 62.905333 236.1237 
L 63.230312 243.550745 
L 63.555292 241.453812 
L 63.880271 228.10616 
L 64.205251 237.394356 
L 64.53023 237.464646 
L 64.85521 242.819269 
L 65.18019 243.547208 
L 65.505169 242.174438 
L 65.830149 237.689319 
L 66.155128 243.63698 
L 66.480108 234.970647 
L 66.805087 240.180298 
L 67.130067 234.425971 
L 67.455046 240.901013 
L 67.780026 253.409755 
L 68.105005 234.021286 
L 68.429985 231.14635 
L 68.754964 230.968006 
L 69.079944 226.966372 
L 69.404923 224.836936 
L 69.729903 224.7513 
L 70.054882 240.364901 
L 70.379862 232.489273 
L 70.704841 233.371815 
L 71.029821 233.225096 
L 71.3548 236.511703 
L 71.67978 228.276019 
L 72.00476 233.409085 
L 72.329739 231.626569 
L 72.654719 232.365532 
L 73.304678 231.874744 
L 73.629657 229.615027 
L 73.954637 237.869179 
L 74.279616 234.109042 
L 74.604596 250.693756 
L 74.929575 243.579642 
L 75.254555 247.443302 
L 75.904514 242.735143 
L 76.229493 246.601353 
L 76.554473 241.833161 
L 76.879452 239.692479 
L 77.204432 242.198612 
L 77.529411 232.546289 
L 77.854391 243.660295 
L 78.179371 230.114533 
L 78.50435 227.651914 
L 78.82933 231.363001 
L 79.154309 236.389112 
L 79.479289 234.894835 
L 80.129248 246.20726 
L 80.779207 230.99606 
L 81.104186 249.006201 
L 81.429166 235.242986 
L 81.754145 237.564867 
L 82.079125 225.153919 
L 82.404104 226.822834 
L 83.054063 238.99777 
L 83.379043 239.160171 
L 83.704022 242.961113 
L 84.029002 230.171189 
L 84.353981 223.278939 
L 84.678961 229.227683 
L 85.32892 217.965229 
L 85.6539 229.806835 
L 85.978879 237.341582 
L 86.303859 228.981994 
L 86.628838 227.297723 
L 86.953818 228.068025 
L 87.278797 225.055647 
L 87.603777 235.60691 
L 87.928756 235.60691 
L 88.253736 235.371509 
L 88.578715 237.256401 
L 88.903695 237.365592 
L 89.228674 239.874176 
L 89.553654 239.674774 
L 89.878633 230.234827 
L 90.203613 224.744518 
L 90.528592 223.987485 
L 90.853572 230.272872 
L 91.178552 246.518928 
L 91.503531 243.922299 
L 91.828511 233.992862 
L 92.47847 239.860913 
L 92.803449 239.030789 
L 93.128429 244.366959 
L 93.453408 253.869172 
L 93.778388 246.1097 
L 94.103367 245.241474 
L 94.753326 236.14036 
L 95.078306 236.92646 
L 95.403285 229.608008 
L 96.053244 234.99699 
L 96.378224 223.460914 
L 96.703203 223.635542 
L 97.353162 224.712632 
L 97.678142 219.157052 
L 98.328101 229.665179 
L 98.653081 238.798708 
L 98.97806 228.529658 
L 99.628019 237.211218 
L 99.952999 242.253489 
L 100.277978 240.706035 
L 100.602958 230.807163 
L 100.927937 231.712205 
L 101.577896 237.95687 
L 101.902876 246.446179 
L 102.227855 233.773299 
L 102.552835 242.577577 
L 102.877814 238.055332 
L 103.202794 247.051993 
L 103.527773 235.482116 
L 103.852753 228.705445 
L 104.177733 229.614356 
L 104.827692 241.077403 
L 105.152671 234.470688 
L 105.477651 239.430634 
L 105.80263 239.406546 
L 106.12761 235.358813 
L 106.452589 237.091219 
L 106.777569 230.65646 
L 107.102548 232.368361 
L 107.427528 228.412925 
L 108.402466 245.827689 
L 109.052425 236.29565 
L 109.377405 234.162141 
L 110.027364 248.558048 
L 110.352343 239.163907 
L 110.677323 235.112793 
L 111.002303 228.624033 
L 111.652262 241.504424 
L 111.977241 230.843372 
L 112.302221 230.843372 
L 112.6272 223.808258 
L 113.277159 216.467255 
L 113.602139 216.719001 
L 113.927118 224.118374 
L 114.252098 227.698242 
L 114.577077 229.660209 
L 114.902057 239.349038 
L 115.227036 230.898854 
L 115.552016 243.032794 
L 115.876995 237.682214 
L 116.201975 234.30921 
L 116.526954 233.526034 
L 116.851934 227.651405 
L 117.176914 225.827578 
L 117.501893 226.57156 
L 117.826873 229.419157 
L 118.151852 239.530688 
L 118.476832 239.530688 
L 118.801811 236.59111 
L 119.126791 230.125046 
L 119.45177 240.49841 
L 120.101729 233.09922 
L 120.426709 221.665712 
L 120.751688 223.665088 
L 121.401647 234.951723 
L 121.726627 239.728236 
L 122.051606 237.880473 
L 122.701565 240.818676 
L 123.026545 243.298796 
L 124.001484 226.071331 
L 124.326463 225.14649 
L 124.651443 224.868901 
L 125.301402 236.455412 
L 125.626381 246.322977 
L 125.951361 240.876406 
L 126.27634 223.891409 
L 126.60132 241.52135 
L 126.926299 244.486128 
L 127.251279 251.779586 
L 127.576258 250.20472 
L 127.901238 250.6412 
L 128.226217 247.46 
L 128.551197 235.472502 
L 128.876176 234.071784 
L 129.201156 220.683609 
L 129.526135 221.032056 
L 130.176095 233.051886 
L 130.501074 229.909172 
L 131.151033 241.18714 
L 131.476013 246.443353 
L 132.125972 239.096243 
L 132.450951 229.914896 
L 132.775931 229.598394 
L 133.10091 222.348364 
L 133.42589 225.938598 
L 133.750869 235.384805 
L 134.075849 223.917945 
L 134.400828 222.940103 
L 134.725808 220.245557 
L 135.050787 225.878051 
L 135.375767 234.469965 
L 135.700746 230.40116 
L 136.025726 231.2076 
L 136.350705 233.011026 
L 136.675685 232.203828 
L 137.000665 235.629286 
L 137.325644 245.770215 
L 137.650624 245.743226 
L 137.975603 246.538732 
L 138.300583 244.977483 
L 138.625562 236.86807 
L 138.950542 237.290573 
L 139.275521 230.755973 
L 139.600501 241.163501 
L 139.92548 244.372328 
L 140.25046 232.164784 
L 140.575439 231.942451 
L 140.900419 229.473846 
L 141.225398 224.273722 
L 141.550378 242.304835 
L 141.875357 234.725257 
L 142.200337 232.648802 
L 142.525316 236.776919 
L 142.850296 233.624508 
L 143.175276 233.448132 
L 143.500255 233.800479 
L 144.150214 224.372982 
L 144.475194 241.082686 
L 144.800173 232.323852 
L 145.125153 230.612928 
L 145.450132 238.333057 
L 145.775112 233.382113 
L 146.100091 240.915134 
L 146.425071 237.763045 
L 146.75005 238.624724 
L 147.07503 243.311326 
L 147.400009 235.948552 
L 147.724989 242.408898 
L 148.049968 234.534017 
L 148.374948 238.980328 
L 148.699927 234.228275 
L 149.024907 237.244624 
L 149.674866 222.037455 
L 149.999846 246.235644 
L 150.324825 261.216 
L 150.974784 235.247325 
L 151.299764 237.449899 
L 151.624743 232.74426 
L 151.949723 250.65443 
L 152.274702 239.990841 
L 152.599682 248.638776 
L 152.924661 237.835858 
L 153.249641 236.568246 
L 153.57462 232.830666 
L 153.8996 237.907817 
L 154.224579 245.567192 
L 154.549559 238.573315 
L 154.874538 243.359722 
L 156.174457 222.306912 
L 156.499436 220.157904 
L 156.824416 228.931363 
L 157.149395 232.733997 
L 157.474375 234.684985 
L 157.799354 222.949008 
L 158.124334 225.691548 
L 158.449313 224.204881 
L 158.774293 221.361947 
L 159.424252 234.579472 
L 159.749231 237.75975 
L 160.074211 235.766696 
L 160.39919 242.110241 
L 160.72417 240.60699 
L 161.049149 240.136114 
L 161.374129 229.677157 
L 161.699108 229.874769 
L 162.024088 228.673248 
L 162.349067 233.124399 
L 162.674047 231.249605 
L 162.999027 223.15146 
L 163.324006 223.694722 
L 163.648986 229.34278 
L 163.973965 237.684357 
L 164.298945 236.37375 
L 164.623924 240.308049 
L 164.948904 238.402827 
L 165.273883 245.251719 
L 165.598863 243.036605 
L 165.923842 235.925818 
L 166.248822 234.518193 
L 166.573801 242.235118 
L 166.898781 238.684929 
L 167.22376 245.706665 
L 167.54874 239.143651 
L 167.873719 226.42873 
L 168.198699 220.288595 
L 169.498617 244.61826 
L 169.823597 245.957299 
L 170.473556 231.899013 
L 170.798535 234.780999 
L 171.123515 246.719119 
L 171.448494 241.49357 
L 171.773474 245.747404 
L 172.098453 234.569868 
L 172.748412 243.694454 
L 173.073392 239.857863 
L 173.398371 249.457218 
L 173.723351 247.101874 
L 174.04833 248.101498 
L 174.37331 226.1279 
L 174.698289 241.650967 
L 175.023269 229.571473 
L 175.348248 227.878888 
L 175.673228 247.756899 
L 175.998208 234.870108 
L 176.323187 246.877818 
L 176.648167 242.217052 
L 176.973146 245.73861 
L 177.298126 243.157097 
L 177.623105 253.008349 
L 178.273064 234.816291 
L 178.598044 235.626411 
L 178.923023 230.390025 
L 179.248003 229.996085 
L 179.572982 229.921134 
L 179.897962 228.438848 
L 180.222941 230.115814 
L 180.547921 242.257346 
L 180.8729 246.023323 
L 181.19788 238.770227 
L 181.522859 240.736808 
L 181.847839 241.810959 
L 182.172819 247.890438 
L 182.497798 246.982035 
L 182.822778 253.899254 
L 183.147757 252.420031 
L 183.472737 248.701976 
L 183.797716 247.980619 
L 184.122696 243.995747 
L 184.447675 235.209146 
L 184.772655 233.202293 
L 185.097634 232.17643 
L 185.422614 233.317828 
L 185.747593 237.494569 
L 186.072573 236.151171 
L 186.397552 243.40802 
L 186.722532 237.793251 
L 187.047511 235.955769 
L 187.372491 241.836924 
L 187.69747 242.187648 
L 188.02245 228.201191 
L 188.347429 228.567233 
L 188.672409 221.760847 
L 188.997389 221.462321 
L 189.322368 224.586116 
L 189.647348 222.28328 
L 189.972327 233.534752 
L 190.297307 230.484469 
L 190.622286 242.563645 
L 190.947266 243.853473 
L 191.272245 230.531237 
L 191.597225 222.375959 
L 191.922204 224.99745 
L 192.247184 224.255475 
L 192.572163 234.485244 
L 192.897143 234.946771 
L 193.222122 244.050814 
L 193.547102 238.685852 
L 193.872081 248.57813 
L 194.197061 242.440026 
L 194.84702 225.556674 
L 195.496979 237.787287 
L 195.821959 230.419151 
L 196.146938 234.052946 
L 196.471918 232.031735 
L 196.796897 238.470483 
L 197.121877 228.018412 
L 197.446856 224.717149 
L 197.771836 226.217075 
L 198.096815 220.369269 
L 198.421795 221.8472 
L 198.746774 225.588131 
L 199.071754 227.291567 
L 199.721713 245.352784 
L 200.046692 235.141769 
L 200.371672 242.377014 
L 200.696651 243.278636 
L 201.021631 245.770903 
L 201.34661 245.313248 
L 201.67159 252.339681 
L 201.99657 251.471747 
L 202.321549 234.638614 
L 202.971508 243.862249 
L 203.296488 247.915606 
L 203.946447 232.783192 
L 204.271426 229.52024 
L 204.596406 232.74505 
L 204.921385 237.192314 
L 205.246365 234.281685 
L 205.571344 240.663371 
L 205.896324 231.708923 
L 206.221303 232.961183 
L 206.546283 221.769678 
L 206.871262 233.015909 
L 207.196242 225.163881 
L 207.521221 229.693232 
L 207.846201 229.96907 
L 208.171181 234.932899 
L 208.49616 233.251521 
L 208.82114 230.319679 
L 209.146119 237.81479 
L 209.471099 231.476168 
L 209.796078 236.615936 
L 210.121058 236.280374 
L 210.446037 237.346741 
L 210.771017 225.452048 
L 211.095996 228.991163 
L 211.420976 221.717263 
L 211.745955 220.585027 
L 212.070935 234.170212 
L 212.395914 236.816221 
L 212.720894 242.912445 
L 213.045873 240.643091 
L 213.370853 233.319364 
L 213.695832 234.277133 
L 214.020812 233.507203 
L 214.345791 226.525028 
L 214.670771 233.731998 
L 214.995751 244.054202 
L 215.32073 242.321261 
L 215.64571 222.836766 
L 215.970689 221.147438 
L 216.295669 224.821988 
L 216.620648 223.875015 
L 216.945628 226.689325 
L 217.270607 224.234971 
L 217.595587 229.738052 
L 217.920566 242.061958 
L 218.245546 243.415809 
L 218.570525 242.504991 
L 218.895505 248.511394 
L 219.220484 245.614051 
L 219.545464 239.514208 
L 219.870443 239.700928 
L 220.195423 231.936119 
L 220.520402 241.292521 
L 220.845382 234.805015 
L 221.170362 243.507211 
L 221.495341 245.114677 
L 221.820321 232.447628 
L 222.1453 231.798004 
L 222.47028 229.731462 
L 223.120239 242.008827 
L 223.445218 232.934514 
L 223.770198 234.655277 
L 224.095177 243.410473 
L 224.420157 239.762809 
L 225.070116 208.94755 
L 225.395095 219.6277 
L 225.720075 222.823232 
L 226.370034 233.115988 
L 226.695013 245.492525 
L 227.019993 243.984359 
L 227.344972 247.180458 
L 227.669952 244.291617 
L 228.319911 229.596375 
L 228.644891 220.348115 
L 228.96987 221.579383 
L 229.29485 222.040682 
L 229.619829 237.691633 
L 230.269788 230.70783 
L 230.919747 228.04108 
L 231.244727 225.133598 
L 231.569706 227.180839 
L 231.894686 234.909445 
L 232.219665 236.151856 
L 232.544645 228.340049 
L 233.194604 241.76834 
L 233.519583 239.481266 
L 233.844563 230.551095 
L 234.169543 233.470393 
L 234.494522 232.675975 
L 234.819502 229.149097 
L 235.144481 217.293961 
L 235.469461 218.42719 
L 235.79444 230.940176 
L 236.11942 232.065837 
L 236.444399 225.590215 
L 236.769379 240.22786 
L 237.094358 241.952549 
L 237.419338 249.371042 
L 237.744317 250.457547 
L 238.069297 246.979834 
L 238.394276 232.45026 
L 238.719256 240.6492 
L 239.044235 254.138542 
L 239.369215 250.041858 
L 239.694194 242.715027 
L 240.019174 232.226178 
L 240.344153 231.651981 
L 240.669133 230.310314 
L 240.994113 234.697387 
L 241.319092 235.294431 
L 241.644072 226.256729 
L 241.969051 240.25403 
L 242.294031 232.696615 
L 242.61901 221.628504 
L 242.94399 214.975665 
L 243.268969 222.472294 
L 243.593949 223.916571 
L 244.243908 233.720369 
L 244.568887 226.220787 
L 244.893867 227.893128 
L 245.218846 240.092153 
L 245.543826 247.036033 
L 245.868805 245.698186 
L 246.193785 243.274058 
L 246.518764 246.466476 
L 246.843744 232.470894 
L 247.493703 240.790368 
L 247.818683 240.63711 
L 248.143662 245.671889 
L 248.468642 243.048949 
L 248.793621 248.523342 
L 249.118601 237.74154 
L 249.44358 242.112663 
L 249.76856 236.575752 
L 250.093539 224.892306 
L 250.418519 237.490146 
L 251.068478 231.774801 
L 251.393457 227.480576 
L 252.043416 239.518472 
L 252.368396 243.281824 
L 252.693375 238.973217 
L 253.018355 243.821869 
L 253.343334 243.673438 
L 253.668314 229.076646 
L 253.993294 229.538193 
L 254.318273 241.835815 
L 254.643253 241.534317 
L 254.968232 229.911533 
L 255.293212 224.650071 
L 255.618191 230.7405 
L 255.943171 231.410129 
L 256.26815 233.008853 
L 256.59313 235.937987 
L 256.918109 234.314122 
L 257.243089 236.122774 
L 257.568068 232.07249 
L 257.893048 231.802396 
L 258.218027 238.327119 
L 258.543007 235.239699 
L 258.867986 241.517886 
L 259.192966 243.361841 
L 259.517945 247.09675 
L 260.167905 230.708712 
L 260.817864 230.628226 
L 261.142843 238.651443 
L 261.467823 237.783387 
L 261.792802 231.738324 
L 262.117782 238.907053 
L 262.442761 235.423019 
L 262.767741 234.581439 
L 263.09272 224.474129 
L 263.4177 235.580766 
L 263.742679 234.954552 
L 264.067659 233.637588 
L 264.392638 230.603709 
L 264.717618 232.942109 
L 265.042597 233.621897 
L 265.367577 235.149214 
L 265.692556 224.927161 
L 266.017536 228.632243 
L 266.342515 222.467363 
L 266.667495 220.590775 
L 266.992475 234.158886 
L 267.317454 239.546867 
L 267.642434 228.525509 
L 267.967413 235.1142 
L 268.292393 232.066637 
L 268.617372 236.538481 
L 268.942352 245.8894 
L 269.267331 242.085643 
L 269.592311 235.97784 
L 270.24227 234.838634 
L 270.567249 235.158963 
L 270.892229 225.174188 
L 271.217208 220.577949 
L 271.867167 238.588171 
L 272.192147 230.179269 
L 272.517126 225.318259 
L 272.842106 233.808152 
L 273.167086 236.758982 
L 273.492065 234.033422 
L 273.817045 234.389378 
L 274.142024 240.180708 
L 274.467004 236.447918 
L 274.791983 229.983153 
L 275.116963 228.342379 
L 275.441942 222.37435 
L 275.766922 233.228262 
L 276.091901 230.875477 
L 276.416881 227.496818 
L 277.06684 234.997171 
L 277.391819 247.838863 
L 277.716799 231.232715 
L 278.366758 219.736762 
L 278.691737 220.106522 
L 279.016717 217.217505 
L 279.341696 217.380819 
L 280.316635 241.315472 
L 280.966594 224.068515 
L 281.291574 231.49405 
L 281.616553 233.768064 
L 281.941533 234.714717 
L 282.266512 233.68504 
L 282.591492 246.083483 
L 282.916471 240.094298 
L 283.241451 242.224738 
L 283.56643 225.830993 
L 283.89141 230.822572 
L 284.216389 222.195971 
L 284.541369 225.279723 
L 284.866348 216.687395 
L 285.191328 220.207384 
L 285.516307 227.821845 
L 285.841287 224.56716 
L 286.166267 241.874583 
L 286.491246 239.930108 
L 287.141205 223.884616 
L 287.791164 240.855766 
L 288.116144 243.127334 
L 288.441123 246.768583 
L 288.766103 227.405714 
L 289.091082 237.987988 
L 289.416062 228.906566 
L 290.066021 242.040309 
L 290.391 234.822381 
L 290.71598 231.668182 
L 291.040959 233.446597 
L 291.365939 240.756085 
L 291.690918 238.405921 
L 292.015898 241.741914 
L 292.340877 231.630361 
L 292.665857 233.548387 
L 292.990837 223.466352 
L 293.315816 220.718329 
L 293.965775 233.157809 
L 294.290755 234.52343 
L 294.615734 248.584297 
L 294.940714 244.745912 
L 295.265693 247.465787 
L 295.590673 242.5782 
L 295.915652 242.332024 
L 296.240632 246.943958 
L 296.565611 245.397592 
L 296.890591 229.143748 
L 297.21557 229.705186 
L 297.54055 230.652502 
L 297.865529 246.15453 
L 298.190509 240.525077 
L 298.515488 232.13491 
L 298.840468 236.857071 
L 299.165448 249.32294 
L 299.490427 234.84143 
L 299.815407 231.968875 
L 300.140386 231.160836 
L 300.790345 226.323942 
L 301.115325 221.985941 
L 301.440304 229.899957 
L 301.765284 230.175074 
L 302.415243 245.231471 
L 302.740222 231.536764 
L 303.065202 239.017746 
L 303.390181 237.480649 
L 304.04014 236.892583 
L 304.36512 236.943789 
L 304.690099 245.557536 
L 305.015079 235.726567 
L 305.340058 236.100355 
L 305.665038 231.196883 
L 305.990018 233.274518 
L 306.314997 227.119244 
L 306.639977 236.298925 
L 306.964956 218.72171 
L 307.289936 228.405804 
L 307.614915 220.773565 
L 307.939895 217.686266 
L 308.589854 229.235719 
L 308.914833 233.14432 
L 309.239813 241.237355 
L 309.564792 243.436007 
L 309.889772 246.447475 
L 310.214751 245.518344 
L 310.539731 239.331186 
L 310.86471 237.771964 
L 311.18969 239.437188 
L 311.514669 230.641192 
L 312.164629 241.46617 
L 312.489608 226.312255 
L 312.814588 226.98131 
L 313.139567 237.688127 
L 313.464547 232.417249 
L 313.789526 232.417249 
L 314.114506 229.523557 
L 314.439485 231.343093 
L 314.764465 227.850573 
L 315.089444 248.452012 
L 315.414424 241.238287 
L 315.739403 244.294007 
L 316.064383 235.443063 
L 316.389362 235.040014 
L 316.714342 236.448047 
L 317.039321 233.383783 
L 317.364301 233.695528 
L 317.68928 235.395676 
L 318.01426 231.365066 
L 318.339239 229.875872 
L 318.664219 230.041792 
L 318.989199 232.853218 
L 319.314178 222.147824 
L 319.639158 206.741503 
L 319.964137 212.741496 
L 320.289117 220.933866 
L 320.614096 222.625088 
L 320.939076 221.837364 
L 321.264055 242.140221 
L 321.589035 239.161692 
L 321.914014 239.076738 
L 322.238994 234.383299 
L 322.563973 238.389092 
L 322.888953 234.151521 
L 323.213932 233.442463 
L 323.538912 246.095235 
L 323.863891 247.217117 
L 324.188871 247.921072 
L 324.51385 240.503686 
L 324.83883 242.31524 
L 325.488789 231.014631 
L 325.813769 228.376647 
L 326.463728 215.020753 
L 326.788707 222.017138 
L 327.113687 217.528771 
L 327.438666 216.333023 
L 327.763646 225.390681 
L 328.088625 227.214718 
L 328.413605 227.730653 
L 328.738584 227.357902 
L 329.063564 222.165431 
L 329.388543 228.057476 
L 329.713523 229.901217 
L 330.038502 229.736102 
L 330.363482 230.293189 
L 330.688461 229.586923 
L 331.013441 237.23925 
L 331.33842 232.703838 
L 331.6634 235.493145 
L 331.98838 232.908605 
L 332.638339 239.409167 
L 332.963318 238.566268 
L 333.288298 239.564297 
L 333.613277 237.067633 
L 333.938257 222.589044 
L 334.263236 220.027759 
L 334.588216 222.367004 
L 334.913195 222.494442 
L 335.238175 220.090307 
L 335.563154 225.044023 
L 335.888134 233.334023 
L 336.213113 245.686621 
L 336.538093 241.284821 
L 336.863072 231.525478 
L 337.188052 234.214869 
L 337.513031 234.230742 
L 337.838011 233.891313 
L 338.162991 227.505104 
L 338.48797 229.495823 
L 338.81295 243.48086 
L 339.137929 248.726517 
L 339.462909 247.118391 
L 339.787888 244.544803 
L 340.112868 246.498641 
L 340.437847 234.210776 
L 340.762827 238.841459 
L 341.087806 224.857666 
L 341.737765 245.972663 
L 342.062745 248.851911 
L 342.387724 235.408433 
L 342.712704 245.081653 
L 343.037683 240.686326 
L 343.362663 231.132476 
L 343.687642 233.809278 
L 344.012622 233.594001 
L 344.337601 234.043457 
L 344.662581 228.346244 
L 344.987561 234.576046 
L 345.31254 233.630321 
L 345.63752 242.121063 
L 346.287479 228.821912 
L 346.612458 237.344008 
L 346.937438 237.659229 
L 347.262417 235.004535 
L 347.587397 229.725443 
L 347.912376 227.388959 
L 348.237356 227.11117 
L 348.562335 235.051627 
L 348.887315 231.538228 
L 349.212294 233.938105 
L 349.537274 230.932401 
L 349.862253 231.811938 
L 350.187233 226.282979 
L 350.512212 226.073099 
L 350.837192 226.540189 
L 351.162172 226.250169 
L 351.487151 233.366535 
L 351.812131 236.875402 
L 352.13711 239.065608 
L 352.46209 239.117008 
L 352.787069 233.365951 
L 353.112049 232.651366 
L 353.437028 235.736689 
L 353.762008 225.099186 
L 354.086987 229.781987 
L 354.411967 225.444271 
L 354.736946 233.598372 
L 355.061926 221.260363 
L 355.386905 230.756528 
L 355.711885 228.945059 
L 356.361844 223.837038 
L 357.011803 237.402985 
L 357.336782 238.863275 
L 357.661762 245.934568 
L 357.986742 243.131164 
L 358.311721 242.906427 
L 358.636701 248.076775 
L 358.96168 245.914018 
L 359.28666 249.58511 
L 359.611639 244.217699 
L 359.936619 235.084584 
L 360.261598 236.539305 
L 360.586578 236.209618 
L 360.911557 240.290625 
L 361.236537 241.161323 
L 361.886496 240.292978 
L 362.536455 235.883072 
L 362.861434 233.925988 
L 363.186414 227.982602 
L 363.511393 235.374836 
L 363.836373 239.403503 
L 364.161353 232.149749 
L 364.486332 235.380255 
L 364.811312 234.087403 
L 365.136291 235.909281 
L 365.461271 232.703682 
L 365.78625 227.064185 
L 366.11123 240.40351 
L 366.436209 238.796377 
L 366.761189 241.309454 
L 367.086168 245.083785 
L 367.411148 239.246567 
L 367.736127 235.786913 
L 368.061107 241.657594 
L 368.386086 235.844699 
L 368.711066 238.116072 
L 369.036045 235.036551 
L 369.361025 235.117013 
L 369.686004 237.591416 
L 370.335963 248.454216 
L 370.660943 246.28381 
L 370.985923 249.354217 
L 371.310902 243.65857 
L 371.635882 246.074541 
L 371.960861 234.062728 
L 372.285841 237.454475 
L 372.61082 244.899518 
L 372.9358 235.631623 
L 373.260779 239.86554 
L 373.585759 250.503859 
L 374.235718 233.504584 
L 374.560697 240.273185 
L 374.885677 234.664512 
L 375.210656 233.423253 
L 375.535636 233.782911 
L 375.860615 242.229026 
L 376.185595 225.442941 
L 376.510574 237.135496 
L 376.835554 236.84367 
L 376.835554 236.84367 
" clip-path="url(#pe4010b2bca)" style="fill: none; stroke: #2196f3; stroke-width: 1.5; stroke-linecap: round"/>
   </g>
   <g id="patch_3">
    <path d="M 35.948281 273.312 
L 35.948281 7.2 
" style="fill: none"/>
   </g>
   <g id="patch_4">
    <path d="M 393.068281 273.312 
L 393.068281 7.2 
" style="fill: none"/>
   </g>
   <g id="patch_5">
    <path d="M 35.948281 273.312 
L 393.068281 273.312 
" style="fill: none"/>
   </g>
   <g id="patch_6">
    <path d="M 35.948281 7.2 
L 393.068281 7.2 
" style="fill: none"/>
   </g>
  </g>
 </g>
 <defs>
  <clipPath id="pe4010b2bca">
   <rect x="35.948281" y="7.2" width="357.12" height="266.112"/>
  </clipPath>
 </defs>
</svg>
