<?xml version="1.0" encoding="utf-8" standalone="no"?>
<!DOCTYPE svg PUBLIC "-//W3C//DTD SVG 1.1//EN"
  "http://www.w3.org/Graphics/SVG/1.1/DTD/svg11.dtd">
<svg xmlns:xlink="http://www.w3.org/1999/xlink" width="337.222808pt" height="216.484695pt" viewBox="0 0 337.222808 216.484695" xmlns="http://www.w3.org/2000/svg" version="1.1">
 <metadata>
  <rdf:RDF xmlns:dc="http://purl.org/dc/elements/1.1/" xmlns:cc="http://creativecommons.org/ns#" xmlns:rdf="http://www.w3.org/1999/02/22-rdf-syntax-ns#">
   <cc:Work>
    <dc:type rdf:resource="http://purl.org/dc/dcmitype/StillImage"/>
    <dc:date>2023-09-21T12:25:32.133081</dc:date>
    <dc:format>image/svg+xml</dc:format>
    <dc:creator>
     <cc:Agent>
      <dc:title>Matplotlib v3.8.0, https://matplotlib.org/</dc:title>
     </cc:Agent>
    </dc:creator>
   </cc:Work>
  </rdf:RDF>
 </metadata>
 <defs>
  <style type="text/css">*{stroke-linejoin: round; stroke-linecap: butt}</style>
 </defs>
 <g id="figure_1">
  <g id="patch_1">
   <path d="M 0 216.484695 
L 337.222808 216.484695 
L 337.222808 -0 
L 0 -0 
L 0 216.484695 
z
" style="fill: none"/>
  </g>
  <g id="axes_1">
   <g id="patch_2">
    <path d="M 63.646719 170.767352 
L 330.022808 170.767352 
L 330.022808 7.2 
L 63.646719 7.2 
L 63.646719 170.767352 
z
" style="fill: none"/>
   </g>
   <g id="matplotlib.axis_1">
    <g id="xtick_1">
     <g id="line2d_1">
      <path d="M 75.754723 170.767352 
L 75.754723 7.2 
" clip-path="url(#pb4c351b7fe)" style="fill: none; stroke-dasharray: 1.85,0.8; stroke-dashoffset: 0; stroke: #838383; stroke-opacity: 0.33; stroke-width: 0.5"/>
     </g>
     <g id="text_1">
      <!-- 0 -->
      <g style="fill: #838383" transform="translate(72.696207 188.140945) scale(0.11 -0.11)">
       <defs>
        <path id="ArialMT-30" d="M 266 2259 
Q 266 3072 433 3567 
Q 600 4063 929 4331 
Q 1259 4600 1759 4600 
Q 2128 4600 2406 4451 
Q 2684 4303 2865 4023 
Q 3047 3744 3150 3342 
Q 3253 2941 3253 2259 
Q 3253 1453 3087 958 
Q 2922 463 2592 192 
Q 2263 -78 1759 -78 
Q 1097 -78 719 397 
Q 266 969 266 2259 
z
M 844 2259 
Q 844 1131 1108 757 
Q 1372 384 1759 384 
Q 2147 384 2411 759 
Q 2675 1134 2675 2259 
Q 2675 3391 2411 3762 
Q 2147 4134 1753 4134 
Q 1366 4134 1134 3806 
Q 844 3388 844 2259 
z
" transform="scale(0.015625)"/>
       </defs>
       <use xlink:href="#ArialMT-30"/>
      </g>
     </g>
    </g>
    <g id="xtick_2">
     <g id="line2d_2">
      <path d="M 124.675951 170.767352 
L 124.675951 7.2 
" clip-path="url(#pb4c351b7fe)" style="fill: none; stroke-dasharray: 1.85,0.8; stroke-dashoffset: 0; stroke: #838383; stroke-opacity: 0.33; stroke-width: 0.5"/>
     </g>
     <g id="text_2">
      <!-- 20 -->
      <g style="fill: #838383" transform="translate(118.55892 188.140945) scale(0.11 -0.11)">
       <defs>
        <path id="ArialMT-32" d="M 3222 541 
L 3222 0 
L 194 0 
Q 188 203 259 391 
Q 375 700 629 1000 
Q 884 1300 1366 1694 
Q 2113 2306 2375 2664 
Q 2638 3022 2638 3341 
Q 2638 3675 2398 3904 
Q 2159 4134 1775 4134 
Q 1369 4134 1125 3890 
Q 881 3647 878 3216 
L 300 3275 
Q 359 3922 746 4261 
Q 1134 4600 1788 4600 
Q 2447 4600 2831 4234 
Q 3216 3869 3216 3328 
Q 3216 3053 3103 2787 
Q 2991 2522 2730 2228 
Q 2469 1934 1863 1422 
Q 1356 997 1212 845 
Q 1069 694 975 541 
L 3222 541 
z
" transform="scale(0.015625)"/>
       </defs>
       <use xlink:href="#ArialMT-32"/>
       <use xlink:href="#ArialMT-30" x="55.615234"/>
      </g>
     </g>
    </g>
    <g id="xtick_3">
     <g id="line2d_3">
      <path d="M 173.59718 170.767352 
L 173.59718 7.2 
" clip-path="url(#pb4c351b7fe)" style="fill: none; stroke-dasharray: 1.85,0.8; stroke-dashoffset: 0; stroke: #838383; stroke-opacity: 0.33; stroke-width: 0.5"/>
     </g>
     <g id="text_3">
      <!-- 40 -->
      <g style="fill: #838383" transform="translate(167.480149 188.140945) scale(0.11 -0.11)">
       <defs>
        <path id="ArialMT-34" d="M 2069 0 
L 2069 1097 
L 81 1097 
L 81 1613 
L 2172 4581 
L 2631 4581 
L 2631 1613 
L 3250 1613 
L 3250 1097 
L 2631 1097 
L 2631 0 
L 2069 0 
z
M 2069 1613 
L 2069 3678 
L 634 1613 
L 2069 1613 
z
" transform="scale(0.015625)"/>
       </defs>
       <use xlink:href="#ArialMT-34"/>
       <use xlink:href="#ArialMT-30" x="55.615234"/>
      </g>
     </g>
    </g>
    <g id="xtick_4">
     <g id="line2d_4">
      <path d="M 222.518409 170.767352 
L 222.518409 7.2 
" clip-path="url(#pb4c351b7fe)" style="fill: none; stroke-dasharray: 1.85,0.8; stroke-dashoffset: 0; stroke: #838383; stroke-opacity: 0.33; stroke-width: 0.5"/>
     </g>
     <g id="text_4">
      <!-- 60 -->
      <g style="fill: #838383" transform="translate(216.401377 188.140945) scale(0.11 -0.11)">
       <defs>
        <path id="ArialMT-36" d="M 3184 3459 
L 2625 3416 
Q 2550 3747 2413 3897 
Q 2184 4138 1850 4138 
Q 1581 4138 1378 3988 
Q 1113 3794 959 3422 
Q 806 3050 800 2363 
Q 1003 2672 1297 2822 
Q 1591 2972 1913 2972 
Q 2475 2972 2870 2558 
Q 3266 2144 3266 1488 
Q 3266 1056 3080 686 
Q 2894 316 2569 119 
Q 2244 -78 1831 -78 
Q 1128 -78 684 439 
Q 241 956 241 2144 
Q 241 3472 731 4075 
Q 1159 4600 1884 4600 
Q 2425 4600 2770 4297 
Q 3116 3994 3184 3459 
z
M 888 1484 
Q 888 1194 1011 928 
Q 1134 663 1356 523 
Q 1578 384 1822 384 
Q 2178 384 2434 671 
Q 2691 959 2691 1453 
Q 2691 1928 2437 2201 
Q 2184 2475 1800 2475 
Q 1419 2475 1153 2201 
Q 888 1928 888 1484 
z
" transform="scale(0.015625)"/>
       </defs>
       <use xlink:href="#ArialMT-36"/>
       <use xlink:href="#ArialMT-30" x="55.615234"/>
      </g>
     </g>
    </g>
    <g id="xtick_5">
     <g id="line2d_5">
      <path d="M 271.439637 170.767352 
L 271.439637 7.2 
" clip-path="url(#pb4c351b7fe)" style="fill: none; stroke-dasharray: 1.85,0.8; stroke-dashoffset: 0; stroke: #838383; stroke-opacity: 0.33; stroke-width: 0.5"/>
     </g>
     <g id="text_5">
      <!-- 80 -->
      <g style="fill: #838383" transform="translate(265.322606 188.140945) scale(0.11 -0.11)">
       <defs>
        <path id="ArialMT-38" d="M 1131 2484 
Q 781 2613 612 2850 
Q 444 3088 444 3419 
Q 444 3919 803 4259 
Q 1163 4600 1759 4600 
Q 2359 4600 2725 4251 
Q 3091 3903 3091 3403 
Q 3091 3084 2923 2848 
Q 2756 2613 2416 2484 
Q 2838 2347 3058 2040 
Q 3278 1734 3278 1309 
Q 3278 722 2862 322 
Q 2447 -78 1769 -78 
Q 1091 -78 675 323 
Q 259 725 259 1325 
Q 259 1772 486 2073 
Q 713 2375 1131 2484 
z
M 1019 3438 
Q 1019 3113 1228 2906 
Q 1438 2700 1772 2700 
Q 2097 2700 2305 2904 
Q 2513 3109 2513 3406 
Q 2513 3716 2298 3927 
Q 2084 4138 1766 4138 
Q 1444 4138 1231 3931 
Q 1019 3725 1019 3438 
z
M 838 1322 
Q 838 1081 952 856 
Q 1066 631 1291 507 
Q 1516 384 1775 384 
Q 2178 384 2440 643 
Q 2703 903 2703 1303 
Q 2703 1709 2433 1975 
Q 2163 2241 1756 2241 
Q 1359 2241 1098 1978 
Q 838 1716 838 1322 
z
" transform="scale(0.015625)"/>
       </defs>
       <use xlink:href="#ArialMT-38"/>
       <use xlink:href="#ArialMT-30" x="55.615234"/>
      </g>
     </g>
    </g>
    <g id="xtick_6">
     <g id="line2d_6">
      <path d="M 320.360866 170.767352 
L 320.360866 7.2 
" clip-path="url(#pb4c351b7fe)" style="fill: none; stroke-dasharray: 1.85,0.8; stroke-dashoffset: 0; stroke: #838383; stroke-opacity: 0.33; stroke-width: 0.5"/>
     </g>
     <g id="text_6">
      <!-- 100 -->
      <g style="fill: #838383" transform="translate(311.185319 188.140945) scale(0.11 -0.11)">
       <defs>
        <path id="ArialMT-31" d="M 2384 0 
L 1822 0 
L 1822 3584 
Q 1619 3391 1289 3197 
Q 959 3003 697 2906 
L 697 3450 
Q 1169 3672 1522 3987 
Q 1875 4303 2022 4600 
L 2384 4600 
L 2384 0 
z
" transform="scale(0.015625)"/>
       </defs>
       <use xlink:href="#ArialMT-31"/>
       <use xlink:href="#ArialMT-30" x="55.615234"/>
       <use xlink:href="#ArialMT-30" x="111.230469"/>
      </g>
     </g>
    </g>
    <g id="text_7">
     <!-- draw -->
     <g style="fill: #bdbdbd" transform="translate(302.015933 206.91657) scale(0.12 -0.12)">
      <defs>
       <path id="Arial-BoldMT-64" d="M 3503 0 
L 2688 0 
L 2688 488 
Q 2484 203 2207 64 
Q 1931 -75 1650 -75 
Q 1078 -75 670 386 
Q 263 847 263 1672 
Q 263 2516 659 2955 
Q 1056 3394 1663 3394 
Q 2219 3394 2625 2931 
L 2625 4581 
L 3503 4581 
L 3503 0 
z
M 1159 1731 
Q 1159 1200 1306 963 
Q 1519 619 1900 619 
Q 2203 619 2415 876 
Q 2628 1134 2628 1647 
Q 2628 2219 2422 2470 
Q 2216 2722 1894 2722 
Q 1581 2722 1370 2473 
Q 1159 2225 1159 1731 
z
" transform="scale(0.015625)"/>
       <path id="Arial-BoldMT-72" d="M 1300 0 
L 422 0 
L 422 3319 
L 1238 3319 
L 1238 2847 
Q 1447 3181 1614 3287 
Q 1781 3394 1994 3394 
Q 2294 3394 2572 3228 
L 2300 2463 
Q 2078 2606 1888 2606 
Q 1703 2606 1575 2504 
Q 1447 2403 1373 2137 
Q 1300 1872 1300 1025 
L 1300 0 
z
" transform="scale(0.015625)"/>
       <path id="Arial-BoldMT-61" d="M 1116 2306 
L 319 2450 
Q 453 2931 781 3162 
Q 1109 3394 1756 3394 
Q 2344 3394 2631 3255 
Q 2919 3116 3036 2902 
Q 3153 2688 3153 2116 
L 3144 1091 
Q 3144 653 3186 445 
Q 3228 238 3344 0 
L 2475 0 
Q 2441 88 2391 259 
Q 2369 338 2359 363 
Q 2134 144 1878 34 
Q 1622 -75 1331 -75 
Q 819 -75 523 203 
Q 228 481 228 906 
Q 228 1188 362 1408 
Q 497 1628 739 1745 
Q 981 1863 1438 1950 
Q 2053 2066 2291 2166 
L 2291 2253 
Q 2291 2506 2166 2614 
Q 2041 2722 1694 2722 
Q 1459 2722 1328 2630 
Q 1197 2538 1116 2306 
z
M 2291 1594 
Q 2122 1538 1756 1459 
Q 1391 1381 1278 1306 
Q 1106 1184 1106 997 
Q 1106 813 1243 678 
Q 1381 544 1594 544 
Q 1831 544 2047 700 
Q 2206 819 2256 991 
Q 2291 1103 2291 1419 
L 2291 1594 
z
" transform="scale(0.015625)"/>
       <path id="Arial-BoldMT-77" d="M 1078 0 
L 28 3319 
L 881 3319 
L 1503 1144 
L 2075 3319 
L 2922 3319 
L 3475 1144 
L 4109 3319 
L 4975 3319 
L 3909 0 
L 3066 0 
L 2494 2134 
L 1931 0 
L 1078 0 
z
" transform="scale(0.015625)"/>
      </defs>
      <use xlink:href="#Arial-BoldMT-64"/>
      <use xlink:href="#Arial-BoldMT-72" x="61.083984"/>
      <use xlink:href="#Arial-BoldMT-61" x="100"/>
      <use xlink:href="#Arial-BoldMT-77" x="155.615234"/>
     </g>
    </g>
   </g>
   <g id="matplotlib.axis_2">
    <g id="ytick_1">
     <g id="line2d_7">
      <path d="M 63.646719 148.462713 
L 330.022808 148.462713 
" clip-path="url(#pb4c351b7fe)" style="fill: none; stroke-dasharray: 1.85,0.8; stroke-dashoffset: 0; stroke: #838383; stroke-opacity: 0.33; stroke-width: 0.5"/>
     </g>
     <g id="text_8">
      <!-- −0.04 -->
      <g style="fill: #838383" transform="translate(26.315 152.39951) scale(0.11 -0.11)">
       <defs>
        <path id="ArialMT-2212" d="M 3381 1997 
L 356 1997 
L 356 2522 
L 3381 2522 
L 3381 1997 
z
" transform="scale(0.015625)"/>
        <path id="ArialMT-2e" d="M 581 0 
L 581 641 
L 1222 641 
L 1222 0 
L 581 0 
z
" transform="scale(0.015625)"/>
       </defs>
       <use xlink:href="#ArialMT-2212"/>
       <use xlink:href="#ArialMT-30" x="58.398438"/>
       <use xlink:href="#ArialMT-2e" x="114.013672"/>
       <use xlink:href="#ArialMT-30" x="141.796875"/>
       <use xlink:href="#ArialMT-34" x="197.412109"/>
      </g>
     </g>
    </g>
    <g id="ytick_2">
     <g id="line2d_8">
      <path d="M 63.646719 118.723194 
L 330.022808 118.723194 
" clip-path="url(#pb4c351b7fe)" style="fill: none; stroke-dasharray: 1.85,0.8; stroke-dashoffset: 0; stroke: #838383; stroke-opacity: 0.33; stroke-width: 0.5"/>
     </g>
     <g id="text_9">
      <!-- −0.02 -->
      <g style="fill: #838383" transform="translate(26.315 122.659991) scale(0.11 -0.11)">
       <use xlink:href="#ArialMT-2212"/>
       <use xlink:href="#ArialMT-30" x="58.398438"/>
       <use xlink:href="#ArialMT-2e" x="114.013672"/>
       <use xlink:href="#ArialMT-30" x="141.796875"/>
       <use xlink:href="#ArialMT-32" x="197.412109"/>
      </g>
     </g>
    </g>
    <g id="ytick_3">
     <g id="line2d_9">
      <path d="M 63.646719 88.983676 
L 330.022808 88.983676 
" clip-path="url(#pb4c351b7fe)" style="fill: none; stroke-dasharray: 1.85,0.8; stroke-dashoffset: 0; stroke: #838383; stroke-opacity: 0.33; stroke-width: 0.5"/>
     </g>
     <g id="text_10">
      <!-- 0.00 -->
      <g style="fill: #838383" transform="translate(32.739688 92.920473) scale(0.11 -0.11)">
       <use xlink:href="#ArialMT-30"/>
       <use xlink:href="#ArialMT-2e" x="55.615234"/>
       <use xlink:href="#ArialMT-30" x="83.398438"/>
       <use xlink:href="#ArialMT-30" x="139.013672"/>
      </g>
     </g>
    </g>
    <g id="ytick_4">
     <g id="line2d_10">
      <path d="M 63.646719 59.244157 
L 330.022808 59.244157 
" clip-path="url(#pb4c351b7fe)" style="fill: none; stroke-dasharray: 1.85,0.8; stroke-dashoffset: 0; stroke: #838383; stroke-opacity: 0.33; stroke-width: 0.5"/>
     </g>
     <g id="text_11">
      <!-- 0.02 -->
      <g style="fill: #838383" transform="translate(32.739688 63.180954) scale(0.11 -0.11)">
       <use xlink:href="#ArialMT-30"/>
       <use xlink:href="#ArialMT-2e" x="55.615234"/>
       <use xlink:href="#ArialMT-30" x="83.398438"/>
       <use xlink:href="#ArialMT-32" x="139.013672"/>
      </g>
     </g>
    </g>
    <g id="ytick_5">
     <g id="line2d_11">
      <path d="M 63.646719 29.504639 
L 330.022808 29.504639 
" clip-path="url(#pb4c351b7fe)" style="fill: none; stroke-dasharray: 1.85,0.8; stroke-dashoffset: 0; stroke: #838383; stroke-opacity: 0.33; stroke-width: 0.5"/>
     </g>
     <g id="text_12">
      <!-- 0.04 -->
      <g style="fill: #838383" transform="translate(32.739688 33.441436) scale(0.11 -0.11)">
       <use xlink:href="#ArialMT-30"/>
       <use xlink:href="#ArialMT-2e" x="55.615234"/>
       <use xlink:href="#ArialMT-30" x="83.398438"/>
       <use xlink:href="#ArialMT-34" x="139.013672"/>
      </g>
     </g>
    </g>
    <g id="text_13">
     <!-- logdet -->
     <g style="fill: #bdbdbd" transform="translate(15.789375 43.190625) rotate(-90) scale(0.12 -0.12)">
      <defs>
       <path id="Arial-BoldMT-6c" d="M 459 0 
L 459 4581 
L 1338 4581 
L 1338 0 
L 459 0 
z
" transform="scale(0.015625)"/>
       <path id="Arial-BoldMT-6f" d="M 256 1706 
Q 256 2144 472 2553 
Q 688 2963 1083 3178 
Q 1478 3394 1966 3394 
Q 2719 3394 3200 2905 
Q 3681 2416 3681 1669 
Q 3681 916 3195 420 
Q 2709 -75 1972 -75 
Q 1516 -75 1102 131 
Q 688 338 472 736 
Q 256 1134 256 1706 
z
M 1156 1659 
Q 1156 1166 1390 903 
Q 1625 641 1969 641 
Q 2313 641 2545 903 
Q 2778 1166 2778 1666 
Q 2778 2153 2545 2415 
Q 2313 2678 1969 2678 
Q 1625 2678 1390 2415 
Q 1156 2153 1156 1659 
z
" transform="scale(0.015625)"/>
       <path id="Arial-BoldMT-67" d="M 378 -219 
L 1381 -341 
Q 1406 -516 1497 -581 
Q 1622 -675 1891 -675 
Q 2234 -675 2406 -572 
Q 2522 -503 2581 -350 
Q 2622 -241 2622 53 
L 2622 538 
Q 2228 0 1628 0 
Q 959 0 569 566 
Q 263 1013 263 1678 
Q 263 2513 664 2953 
Q 1066 3394 1663 3394 
Q 2278 3394 2678 2853 
L 2678 3319 
L 3500 3319 
L 3500 341 
Q 3500 -247 3403 -537 
Q 3306 -828 3131 -993 
Q 2956 -1159 2664 -1253 
Q 2372 -1347 1925 -1347 
Q 1081 -1347 728 -1058 
Q 375 -769 375 -325 
Q 375 -281 378 -219 
z
M 1163 1728 
Q 1163 1200 1367 954 
Q 1572 709 1872 709 
Q 2194 709 2416 961 
Q 2638 1213 2638 1706 
Q 2638 2222 2425 2472 
Q 2213 2722 1888 2722 
Q 1572 2722 1367 2476 
Q 1163 2231 1163 1728 
z
" transform="scale(0.015625)"/>
       <path id="Arial-BoldMT-65" d="M 2381 1056 
L 3256 909 
Q 3088 428 2723 176 
Q 2359 -75 1813 -75 
Q 947 -75 531 491 
Q 203 944 203 1634 
Q 203 2459 634 2926 
Q 1066 3394 1725 3394 
Q 2466 3394 2894 2905 
Q 3322 2416 3303 1406 
L 1103 1406 
Q 1113 1016 1316 798 
Q 1519 581 1822 581 
Q 2028 581 2168 693 
Q 2309 806 2381 1056 
z
M 2431 1944 
Q 2422 2325 2234 2523 
Q 2047 2722 1778 2722 
Q 1491 2722 1303 2513 
Q 1116 2303 1119 1944 
L 2431 1944 
z
" transform="scale(0.015625)"/>
       <path id="Arial-BoldMT-74" d="M 1981 3319 
L 1981 2619 
L 1381 2619 
L 1381 1281 
Q 1381 875 1398 808 
Q 1416 741 1477 697 
Q 1538 653 1625 653 
Q 1747 653 1978 738 
L 2053 56 
Q 1747 -75 1359 -75 
Q 1122 -75 931 4 
Q 741 84 652 211 
Q 563 338 528 553 
Q 500 706 500 1172 
L 500 2619 
L 97 2619 
L 97 3319 
L 500 3319 
L 500 3978 
L 1381 4491 
L 1381 3319 
L 1981 3319 
z
" transform="scale(0.015625)"/>
      </defs>
      <use xlink:href="#Arial-BoldMT-6c"/>
      <use xlink:href="#Arial-BoldMT-6f" x="27.783203"/>
      <use xlink:href="#Arial-BoldMT-67" x="88.867188"/>
      <use xlink:href="#Arial-BoldMT-64" x="149.951172"/>
      <use xlink:href="#Arial-BoldMT-65" x="211.035156"/>
      <use xlink:href="#Arial-BoldMT-74" x="266.650391"/>
     </g>
    </g>
   </g>
   <g id="line2d_12">
    <path d="M 75.754723 88.983676 
L 78.200784 88.983676 
L 80.646846 88.983676 
L 83.092907 88.983676 
L 85.538969 88.983676 
L 87.98503 88.983676 
L 90.431091 88.983676 
L 92.877153 88.983676 
L 95.323214 88.983676 
L 97.769276 88.983676 
L 100.215337 88.983676 
L 102.661399 88.983676 
L 105.10746 88.983676 
L 107.553521 88.983676 
L 109.999583 88.983676 
L 112.445644 88.983676 
L 114.891706 88.983676 
L 117.337767 88.983676 
L 119.783829 88.983676 
L 122.22989 88.983676 
L 124.675951 88.983676 
L 127.122013 88.983676 
L 129.568074 88.983676 
L 132.014136 88.983676 
L 134.460197 88.983676 
L 136.906259 88.983676 
L 139.35232 88.983676 
L 141.798381 88.983676 
L 144.244443 88.983676 
L 146.690504 88.983676 
L 149.136566 88.983676 
L 151.582627 88.983676 
L 154.028689 88.983676 
L 156.47475 88.983676 
L 158.920811 88.983676 
L 161.366873 88.983676 
L 163.812934 88.983676 
L 166.258996 88.983676 
L 168.705057 88.983676 
L 171.151119 88.983676 
L 173.59718 88.983676 
L 176.043241 88.983676 
L 178.489303 88.983676 
L 180.935364 88.983676 
L 183.381426 88.983676 
L 185.827487 88.983676 
L 188.273549 88.983676 
L 190.71961 88.983676 
L 193.165671 88.983676 
L 195.611733 88.983676 
L 198.057794 88.983676 
L 200.503856 88.983676 
L 202.949917 88.983676 
L 205.395979 88.983676 
L 207.84204 88.983676 
L 210.288101 88.983676 
L 212.734163 88.983676 
L 215.180224 88.983676 
L 217.626286 88.983676 
L 220.072347 88.983676 
L 222.518409 88.983676 
L 224.96447 88.983676 
L 227.410531 88.983676 
L 229.856593 88.983676 
L 232.302654 88.983676 
L 234.748716 88.983676 
L 237.194777 88.983676 
L 239.640839 88.983676 
L 242.0869 88.983676 
L 244.532961 88.983676 
L 246.979023 88.983676 
L 249.425084 88.983676 
L 251.871146 88.983676 
L 254.317207 88.983676 
L 256.763269 88.983676 
L 259.20933 88.983676 
L 261.655391 88.983676 
L 264.101453 88.983676 
L 266.547514 88.983676 
L 268.993576 88.983676 
L 271.439637 88.983676 
L 273.885699 88.983676 
L 276.33176 88.983676 
L 278.777821 88.983676 
L 281.223883 88.983676 
L 283.669944 88.983676 
L 286.116006 88.983676 
L 288.562067 88.983676 
L 291.008129 88.983676 
L 293.45419 88.983676 
L 295.900251 88.983676 
L 298.346313 88.983676 
L 300.792374 88.983676 
L 303.238436 88.983676 
L 305.684497 88.983676 
L 308.130559 88.983676 
L 310.57662 88.983676 
L 313.022681 88.983676 
L 315.468743 88.983676 
L 317.914804 88.983676 
" clip-path="url(#pb4c351b7fe)" style="fill: none; stroke: #440154; stroke-width: 1.5; stroke-linecap: round"/>
   </g>
   <g id="line2d_13">
    <path d="M 75.754723 88.983676 
L 78.200784 88.983676 
L 80.646846 88.983676 
L 83.092907 88.983676 
L 85.538969 88.983676 
L 87.98503 88.983676 
L 90.431091 88.983676 
L 92.877153 88.983676 
L 95.323214 88.983676 
L 97.769276 88.983676 
L 100.215337 88.983676 
L 102.661399 88.983676 
L 105.10746 88.983676 
L 107.553521 88.983676 
L 109.999583 88.983676 
L 112.445644 88.983676 
L 114.891706 88.983676 
L 117.337767 88.983676 
L 119.783829 88.983676 
L 122.22989 88.983676 
L 124.675951 88.983676 
L 127.122013 88.983676 
L 129.568074 88.983676 
L 132.014136 88.983676 
L 134.460197 88.983676 
L 136.906259 88.983676 
L 139.35232 88.983676 
L 141.798381 88.983676 
L 144.244443 88.983676 
L 146.690504 88.983676 
L 149.136566 88.983676 
L 151.582627 88.983676 
L 154.028689 88.983676 
L 156.47475 88.983676 
L 158.920811 88.983676 
L 161.366873 88.983676 
L 163.812934 88.983676 
L 166.258996 88.983676 
L 168.705057 88.983676 
L 171.151119 88.983676 
L 173.59718 88.983676 
L 176.043241 88.983676 
L 178.489303 88.983676 
L 180.935364 88.983676 
L 183.381426 88.983676 
L 185.827487 88.983676 
L 188.273549 88.983676 
L 190.71961 88.983676 
L 193.165671 88.983676 
L 195.611733 88.983676 
L 198.057794 88.983676 
L 200.503856 88.983676 
L 202.949917 88.983676 
L 205.395979 88.983676 
L 207.84204 88.983676 
L 210.288101 88.983676 
L 212.734163 88.983676 
L 215.180224 88.983676 
L 217.626286 88.983676 
L 220.072347 88.983676 
L 222.518409 88.983676 
L 224.96447 88.983676 
L 227.410531 88.983676 
L 229.856593 88.983676 
L 232.302654 88.983676 
L 234.748716 88.983676 
L 237.194777 88.983676 
L 239.640839 88.983676 
L 242.0869 88.983676 
L 244.532961 88.983676 
L 246.979023 88.983676 
L 249.425084 88.983676 
L 251.871146 88.983676 
L 254.317207 88.983676 
L 256.763269 88.983676 
L 259.20933 88.983676 
L 261.655391 88.983676 
L 264.101453 88.983676 
L 266.547514 88.983676 
L 268.993576 88.983676 
L 271.439637 88.983676 
L 273.885699 88.983676 
L 276.33176 88.983676 
L 278.777821 88.983676 
L 281.223883 88.983676 
L 283.669944 88.983676 
L 286.116006 88.983676 
L 288.562067 88.983676 
L 291.008129 88.983676 
L 293.45419 88.983676 
L 295.900251 88.983676 
L 298.346313 88.983676 
L 300.792374 88.983676 
L 303.238436 88.983676 
L 305.684497 88.983676 
L 308.130559 88.983676 
L 310.57662 88.983676 
L 313.022681 88.983676 
L 315.468743 88.983676 
L 317.914804 88.983676 
" clip-path="url(#pb4c351b7fe)" style="fill: none; stroke: #471365; stroke-width: 1.5; stroke-linecap: round"/>
   </g>
   <g id="line2d_14">
    <path d="M 75.754723 88.983676 
L 78.200784 88.983676 
L 80.646846 88.983676 
L 83.092907 88.983676 
L 85.538969 88.983676 
L 87.98503 88.983676 
L 90.431091 88.983676 
L 92.877153 88.983676 
L 95.323214 88.983676 
L 97.769276 88.983676 
L 100.215337 88.983676 
L 102.661399 88.983676 
L 105.10746 88.983676 
L 107.553521 88.983676 
L 109.999583 88.983676 
L 112.445644 88.983676 
L 114.891706 88.983676 
L 117.337767 88.983676 
L 119.783829 88.983676 
L 122.22989 88.983676 
L 124.675951 88.983676 
L 127.122013 88.983676 
L 129.568074 88.983676 
L 132.014136 88.983676 
L 134.460197 88.983676 
L 136.906259 88.983676 
L 139.35232 88.983676 
L 141.798381 88.983676 
L 144.244443 88.983676 
L 146.690504 88.983676 
L 149.136566 88.983676 
L 151.582627 88.983676 
L 154.028689 88.983676 
L 156.47475 88.983676 
L 158.920811 88.983676 
L 161.366873 88.983676 
L 163.812934 88.983676 
L 166.258996 88.983676 
L 168.705057 88.983676 
L 171.151119 88.983676 
L 173.59718 88.983676 
L 176.043241 88.983676 
L 178.489303 88.983676 
L 180.935364 88.983676 
L 183.381426 88.983676 
L 185.827487 88.983676 
L 188.273549 88.983676 
L 190.71961 88.983676 
L 193.165671 88.983676 
L 195.611733 88.983676 
L 198.057794 88.983676 
L 200.503856 88.983676 
L 202.949917 88.983676 
L 205.395979 88.983676 
L 207.84204 88.983676 
L 210.288101 88.983676 
L 212.734163 88.983676 
L 215.180224 88.983676 
L 217.626286 88.983676 
L 220.072347 88.983676 
L 222.518409 88.983676 
L 224.96447 88.983676 
L 227.410531 88.983676 
L 229.856593 88.983676 
L 232.302654 88.983676 
L 234.748716 88.983676 
L 237.194777 88.983676 
L 239.640839 88.983676 
L 242.0869 88.983676 
L 244.532961 88.983676 
L 246.979023 88.983676 
L 249.425084 88.983676 
L 251.871146 88.983676 
L 254.317207 88.983676 
L 256.763269 88.983676 
L 259.20933 88.983676 
L 261.655391 88.983676 
L 264.101453 88.983676 
L 266.547514 88.983676 
L 268.993576 88.983676 
L 271.439637 88.983676 
L 273.885699 88.983676 
L 276.33176 88.983676 
L 278.777821 88.983676 
L 281.223883 88.983676 
L 283.669944 88.983676 
L 286.116006 88.983676 
L 288.562067 88.983676 
L 291.008129 88.983676 
L 293.45419 88.983676 
L 295.900251 88.983676 
L 298.346313 88.983676 
L 300.792374 88.983676 
L 303.238436 88.983676 
L 305.684497 88.983676 
L 308.130559 88.983676 
L 310.57662 88.983676 
L 313.022681 88.983676 
L 315.468743 88.983676 
L 317.914804 88.983676 
" clip-path="url(#pb4c351b7fe)" style="fill: none; stroke: #482374; stroke-width: 1.5; stroke-linecap: round"/>
   </g>
   <g id="line2d_15">
    <path d="M 75.754723 88.983676 
L 78.200784 88.983676 
L 80.646846 88.983676 
L 83.092907 88.983676 
L 85.538969 88.983676 
L 87.98503 88.983676 
L 90.431091 88.983676 
L 92.877153 88.983676 
L 95.323214 88.983676 
L 97.769276 88.983676 
L 100.215337 88.983676 
L 102.661399 88.983676 
L 105.10746 88.983676 
L 107.553521 88.983676 
L 109.999583 88.983676 
L 112.445644 88.983676 
L 114.891706 88.983676 
L 117.337767 88.983676 
L 119.783829 88.983676 
L 122.22989 88.983676 
L 124.675951 88.983676 
L 127.122013 88.983676 
L 129.568074 88.983676 
L 132.014136 88.983676 
L 134.460197 88.983676 
L 136.906259 88.983676 
L 139.35232 88.983676 
L 141.798381 88.983676 
L 144.244443 88.983676 
L 146.690504 88.983676 
L 149.136566 88.983676 
L 151.582627 88.983676 
L 154.028689 88.983676 
L 156.47475 88.983676 
L 158.920811 88.983676 
L 161.366873 88.983676 
L 163.812934 88.983676 
L 166.258996 88.983676 
L 168.705057 88.983676 
L 171.151119 88.983676 
L 173.59718 88.983676 
L 176.043241 88.983676 
L 178.489303 88.983676 
L 180.935364 88.983676 
L 183.381426 88.983676 
L 185.827487 88.983676 
L 188.273549 88.983676 
L 190.71961 88.983676 
L 193.165671 88.983676 
L 195.611733 88.983676 
L 198.057794 88.983676 
L 200.503856 88.983676 
L 202.949917 88.983676 
L 205.395979 88.983676 
L 207.84204 88.983676 
L 210.288101 88.983676 
L 212.734163 88.983676 
L 215.180224 88.983676 
L 217.626286 88.983676 
L 220.072347 88.983676 
L 222.518409 88.983676 
L 224.96447 88.983676 
L 227.410531 88.983676 
L 229.856593 88.983676 
L 232.302654 88.983676 
L 234.748716 88.983676 
L 237.194777 88.983676 
L 239.640839 88.983676 
L 242.0869 88.983676 
L 244.532961 88.983676 
L 246.979023 88.983676 
L 249.425084 88.983676 
L 251.871146 88.983676 
L 254.317207 88.983676 
L 256.763269 88.983676 
L 259.20933 88.983676 
L 261.655391 88.983676 
L 264.101453 88.983676 
L 266.547514 88.983676 
L 268.993576 88.983676 
L 271.439637 88.983676 
L 273.885699 88.983676 
L 276.33176 88.983676 
L 278.777821 88.983676 
L 281.223883 88.983676 
L 283.669944 88.983676 
L 286.116006 88.983676 
L 288.562067 88.983676 
L 291.008129 88.983676 
L 293.45419 88.983676 
L 295.900251 88.983676 
L 298.346313 88.983676 
L 300.792374 88.983676 
L 303.238436 88.983676 
L 305.684497 88.983676 
L 308.130559 88.983676 
L 310.57662 88.983676 
L 313.022681 88.983676 
L 315.468743 88.983676 
L 317.914804 88.983676 
" clip-path="url(#pb4c351b7fe)" style="fill: none; stroke: #46327e; stroke-width: 1.5; stroke-linecap: round"/>
   </g>
   <g id="line2d_16">
    <path d="M 75.754723 88.983676 
L 78.200784 88.983676 
L 80.646846 88.983676 
L 83.092907 88.983676 
L 85.538969 88.983676 
L 87.98503 88.983676 
L 90.431091 88.983676 
L 92.877153 88.983676 
L 95.323214 88.983676 
L 97.769276 88.983676 
L 100.215337 88.983676 
L 102.661399 88.983676 
L 105.10746 88.983676 
L 107.553521 88.983676 
L 109.999583 88.983676 
L 112.445644 88.983676 
L 114.891706 88.983676 
L 117.337767 88.983676 
L 119.783829 88.983676 
L 122.22989 88.983676 
L 124.675951 88.983676 
L 127.122013 88.983676 
L 129.568074 88.983676 
L 132.014136 88.983676 
L 134.460197 88.983676 
L 136.906259 88.983676 
L 139.35232 88.983676 
L 141.798381 88.983676 
L 144.244443 88.983676 
L 146.690504 88.983676 
L 149.136566 88.983676 
L 151.582627 88.983676 
L 154.028689 88.983676 
L 156.47475 88.983676 
L 158.920811 88.983676 
L 161.366873 88.983676 
L 163.812934 88.983676 
L 166.258996 88.983676 
L 168.705057 88.983676 
L 171.151119 88.983676 
L 173.59718 88.983676 
L 176.043241 88.983676 
L 178.489303 88.983676 
L 180.935364 88.983676 
L 183.381426 88.983676 
L 185.827487 88.983676 
L 188.273549 88.983676 
L 190.71961 88.983676 
L 193.165671 88.983676 
L 195.611733 88.983676 
L 198.057794 88.983676 
L 200.503856 88.983676 
L 202.949917 88.983676 
L 205.395979 88.983676 
L 207.84204 88.983676 
L 210.288101 88.983676 
L 212.734163 88.983676 
L 215.180224 88.983676 
L 217.626286 88.983676 
L 220.072347 88.983676 
L 222.518409 88.983676 
L 224.96447 88.983676 
L 227.410531 88.983676 
L 229.856593 88.983676 
L 232.302654 88.983676 
L 234.748716 88.983676 
L 237.194777 88.983676 
L 239.640839 88.983676 
L 242.0869 88.983676 
L 244.532961 88.983676 
L 246.979023 88.983676 
L 249.425084 88.983676 
L 251.871146 88.983676 
L 254.317207 88.983676 
L 256.763269 88.983676 
L 259.20933 88.983676 
L 261.655391 88.983676 
L 264.101453 88.983676 
L 266.547514 88.983676 
L 268.993576 88.983676 
L 271.439637 88.983676 
L 273.885699 88.983676 
L 276.33176 88.983676 
L 278.777821 88.983676 
L 281.223883 88.983676 
L 283.669944 88.983676 
L 286.116006 88.983676 
L 288.562067 88.983676 
L 291.008129 88.983676 
L 293.45419 88.983676 
L 295.900251 88.983676 
L 298.346313 88.983676 
L 300.792374 88.983676 
L 303.238436 88.983676 
L 305.684497 88.983676 
L 308.130559 88.983676 
L 310.57662 88.983676 
L 313.022681 88.983676 
L 315.468743 88.983676 
L 317.914804 88.983676 
" clip-path="url(#pb4c351b7fe)" style="fill: none; stroke: #424086; stroke-width: 1.5; stroke-linecap: round"/>
   </g>
   <g id="line2d_17">
    <path d="M 75.754723 88.983676 
L 78.200784 88.983676 
L 80.646846 88.983676 
L 83.092907 88.983676 
L 85.538969 88.983676 
L 87.98503 88.983676 
L 90.431091 88.983676 
L 92.877153 88.983676 
L 95.323214 88.983676 
L 97.769276 88.983676 
L 100.215337 88.983676 
L 102.661399 88.983676 
L 105.10746 88.983676 
L 107.553521 88.983676 
L 109.999583 88.983676 
L 112.445644 88.983676 
L 114.891706 88.983676 
L 117.337767 88.983676 
L 119.783829 88.983676 
L 122.22989 88.983676 
L 124.675951 88.983676 
L 127.122013 88.983676 
L 129.568074 88.983676 
L 132.014136 88.983676 
L 134.460197 88.983676 
L 136.906259 88.983676 
L 139.35232 88.983676 
L 141.798381 88.983676 
L 144.244443 88.983676 
L 146.690504 88.983676 
L 149.136566 88.983676 
L 151.582627 88.983676 
L 154.028689 88.983676 
L 156.47475 88.983676 
L 158.920811 88.983676 
L 161.366873 88.983676 
L 163.812934 88.983676 
L 166.258996 88.983676 
L 168.705057 88.983676 
L 171.151119 88.983676 
L 173.59718 88.983676 
L 176.043241 88.983676 
L 178.489303 88.983676 
L 180.935364 88.983676 
L 183.381426 88.983676 
L 185.827487 88.983676 
L 188.273549 88.983676 
L 190.71961 88.983676 
L 193.165671 88.983676 
L 195.611733 88.983676 
L 198.057794 88.983676 
L 200.503856 88.983676 
L 202.949917 88.983676 
L 205.395979 88.983676 
L 207.84204 88.983676 
L 210.288101 88.983676 
L 212.734163 88.983676 
L 215.180224 88.983676 
L 217.626286 88.983676 
L 220.072347 88.983676 
L 222.518409 88.983676 
L 224.96447 88.983676 
L 227.410531 88.983676 
L 229.856593 88.983676 
L 232.302654 88.983676 
L 234.748716 88.983676 
L 237.194777 88.983676 
L 239.640839 88.983676 
L 242.0869 88.983676 
L 244.532961 88.983676 
L 246.979023 88.983676 
L 249.425084 88.983676 
L 251.871146 88.983676 
L 254.317207 88.983676 
L 256.763269 88.983676 
L 259.20933 88.983676 
L 261.655391 88.983676 
L 264.101453 88.983676 
L 266.547514 88.983676 
L 268.993576 88.983676 
L 271.439637 88.983676 
L 273.885699 88.983676 
L 276.33176 88.983676 
L 278.777821 88.983676 
L 281.223883 88.983676 
L 283.669944 88.983676 
L 286.116006 88.983676 
L 288.562067 88.983676 
L 291.008129 88.983676 
L 293.45419 88.983676 
L 295.900251 88.983676 
L 298.346313 88.983676 
L 300.792374 88.983676 
L 303.238436 88.983676 
L 305.684497 88.983676 
L 308.130559 88.983676 
L 310.57662 88.983676 
L 313.022681 88.983676 
L 315.468743 88.983676 
L 317.914804 88.983676 
" clip-path="url(#pb4c351b7fe)" style="fill: none; stroke: #3d4e8a; stroke-width: 1.5; stroke-linecap: round"/>
   </g>
   <g id="line2d_18">
    <path d="M 75.754723 88.983676 
L 78.200784 88.983676 
L 80.646846 88.983676 
L 83.092907 88.983676 
L 85.538969 88.983676 
L 87.98503 88.983676 
L 90.431091 88.983676 
L 92.877153 88.983676 
L 95.323214 88.983676 
L 97.769276 88.983676 
L 100.215337 88.983676 
L 102.661399 88.983676 
L 105.10746 88.983676 
L 107.553521 88.983676 
L 109.999583 88.983676 
L 112.445644 88.983676 
L 114.891706 88.983676 
L 117.337767 88.983676 
L 119.783829 88.983676 
L 122.22989 88.983676 
L 124.675951 88.983676 
L 127.122013 88.983676 
L 129.568074 88.983676 
L 132.014136 88.983676 
L 134.460197 88.983676 
L 136.906259 88.983676 
L 139.35232 88.983676 
L 141.798381 88.983676 
L 144.244443 88.983676 
L 146.690504 88.983676 
L 149.136566 88.983676 
L 151.582627 88.983676 
L 154.028689 88.983676 
L 156.47475 88.983676 
L 158.920811 88.983676 
L 161.366873 88.983676 
L 163.812934 88.983676 
L 166.258996 88.983676 
L 168.705057 88.983676 
L 171.151119 88.983676 
L 173.59718 88.983676 
L 176.043241 88.983676 
L 178.489303 88.983676 
L 180.935364 88.983676 
L 183.381426 88.983676 
L 185.827487 88.983676 
L 188.273549 88.983676 
L 190.71961 88.983676 
L 193.165671 88.983676 
L 195.611733 88.983676 
L 198.057794 88.983676 
L 200.503856 88.983676 
L 202.949917 88.983676 
L 205.395979 88.983676 
L 207.84204 88.983676 
L 210.288101 88.983676 
L 212.734163 88.983676 
L 215.180224 88.983676 
L 217.626286 88.983676 
L 220.072347 88.983676 
L 222.518409 88.983676 
L 224.96447 88.983676 
L 227.410531 88.983676 
L 229.856593 88.983676 
L 232.302654 88.983676 
L 234.748716 88.983676 
L 237.194777 88.983676 
L 239.640839 88.983676 
L 242.0869 88.983676 
L 244.532961 88.983676 
L 246.979023 88.983676 
L 249.425084 88.983676 
L 251.871146 88.983676 
L 254.317207 88.983676 
L 256.763269 88.983676 
L 259.20933 88.983676 
L 261.655391 88.983676 
L 264.101453 88.983676 
L 266.547514 88.983676 
L 268.993576 88.983676 
L 271.439637 88.983676 
L 273.885699 88.983676 
L 276.33176 88.983676 
L 278.777821 88.983676 
L 281.223883 88.983676 
L 283.669944 88.983676 
L 286.116006 88.983676 
L 288.562067 88.983676 
L 291.008129 88.983676 
L 293.45419 88.983676 
L 295.900251 88.983676 
L 298.346313 88.983676 
L 300.792374 88.983676 
L 303.238436 88.983676 
L 305.684497 88.983676 
L 308.130559 88.983676 
L 310.57662 88.983676 
L 313.022681 88.983676 
L 315.468743 88.983676 
L 317.914804 88.983676 
" clip-path="url(#pb4c351b7fe)" style="fill: none; stroke: #365c8d; stroke-width: 1.5; stroke-linecap: round"/>
   </g>
   <g id="line2d_19">
    <path d="M 75.754723 88.983676 
L 78.200784 88.983676 
L 80.646846 88.983676 
L 83.092907 88.983676 
L 85.538969 88.983676 
L 87.98503 88.983676 
L 90.431091 88.983676 
L 92.877153 88.983676 
L 95.323214 88.983676 
L 97.769276 88.983676 
L 100.215337 88.983676 
L 102.661399 88.983676 
L 105.10746 88.983676 
L 107.553521 88.983676 
L 109.999583 88.983676 
L 112.445644 88.983676 
L 114.891706 88.983676 
L 117.337767 88.983676 
L 119.783829 88.983676 
L 122.22989 88.983676 
L 124.675951 88.983676 
L 127.122013 88.983676 
L 129.568074 88.983676 
L 132.014136 88.983676 
L 134.460197 88.983676 
L 136.906259 88.983676 
L 139.35232 88.983676 
L 141.798381 88.983676 
L 144.244443 88.983676 
L 146.690504 88.983676 
L 149.136566 88.983676 
L 151.582627 88.983676 
L 154.028689 88.983676 
L 156.47475 88.983676 
L 158.920811 88.983676 
L 161.366873 88.983676 
L 163.812934 88.983676 
L 166.258996 88.983676 
L 168.705057 88.983676 
L 171.151119 88.983676 
L 173.59718 88.983676 
L 176.043241 88.983676 
L 178.489303 88.983676 
L 180.935364 88.983676 
L 183.381426 88.983676 
L 185.827487 88.983676 
L 188.273549 88.983676 
L 190.71961 88.983676 
L 193.165671 88.983676 
L 195.611733 88.983676 
L 198.057794 88.983676 
L 200.503856 88.983676 
L 202.949917 88.983676 
L 205.395979 88.983676 
L 207.84204 88.983676 
L 210.288101 88.983676 
L 212.734163 88.983676 
L 215.180224 88.983676 
L 217.626286 88.983676 
L 220.072347 88.983676 
L 222.518409 88.983676 
L 224.96447 88.983676 
L 227.410531 88.983676 
L 229.856593 88.983676 
L 232.302654 88.983676 
L 234.748716 88.983676 
L 237.194777 88.983676 
L 239.640839 88.983676 
L 242.0869 88.983676 
L 244.532961 88.983676 
L 246.979023 88.983676 
L 249.425084 88.983676 
L 251.871146 88.983676 
L 254.317207 88.983676 
L 256.763269 88.983676 
L 259.20933 88.983676 
L 261.655391 88.983676 
L 264.101453 88.983676 
L 266.547514 88.983676 
L 268.993576 88.983676 
L 271.439637 88.983676 
L 273.885699 88.983676 
L 276.33176 88.983676 
L 278.777821 88.983676 
L 281.223883 88.983676 
L 283.669944 88.983676 
L 286.116006 88.983676 
L 288.562067 88.983676 
L 291.008129 88.983676 
L 293.45419 88.983676 
L 295.900251 88.983676 
L 298.346313 88.983676 
L 300.792374 88.983676 
L 303.238436 88.983676 
L 305.684497 88.983676 
L 308.130559 88.983676 
L 310.57662 88.983676 
L 313.022681 88.983676 
L 315.468743 88.983676 
L 317.914804 88.983676 
" clip-path="url(#pb4c351b7fe)" style="fill: none; stroke: #31688e; stroke-width: 1.5; stroke-linecap: round"/>
   </g>
   <g id="line2d_20">
    <path d="M 75.754723 88.983676 
L 78.200784 88.983676 
L 80.646846 88.983676 
L 83.092907 88.983676 
L 85.538969 88.983676 
L 87.98503 88.983676 
L 90.431091 88.983676 
L 92.877153 88.983676 
L 95.323214 88.983676 
L 97.769276 88.983676 
L 100.215337 88.983676 
L 102.661399 88.983676 
L 105.10746 88.983676 
L 107.553521 88.983676 
L 109.999583 88.983676 
L 112.445644 88.983676 
L 114.891706 88.983676 
L 117.337767 88.983676 
L 119.783829 88.983676 
L 122.22989 88.983676 
L 124.675951 88.983676 
L 127.122013 88.983676 
L 129.568074 88.983676 
L 132.014136 88.983676 
L 134.460197 88.983676 
L 136.906259 88.983676 
L 139.35232 88.983676 
L 141.798381 88.983676 
L 144.244443 88.983676 
L 146.690504 88.983676 
L 149.136566 88.983676 
L 151.582627 88.983676 
L 154.028689 88.983676 
L 156.47475 88.983676 
L 158.920811 88.983676 
L 161.366873 88.983676 
L 163.812934 88.983676 
L 166.258996 88.983676 
L 168.705057 88.983676 
L 171.151119 88.983676 
L 173.59718 88.983676 
L 176.043241 88.983676 
L 178.489303 88.983676 
L 180.935364 88.983676 
L 183.381426 88.983676 
L 185.827487 88.983676 
L 188.273549 88.983676 
L 190.71961 88.983676 
L 193.165671 88.983676 
L 195.611733 88.983676 
L 198.057794 88.983676 
L 200.503856 88.983676 
L 202.949917 88.983676 
L 205.395979 88.983676 
L 207.84204 88.983676 
L 210.288101 88.983676 
L 212.734163 88.983676 
L 215.180224 88.983676 
L 217.626286 88.983676 
L 220.072347 88.983676 
L 222.518409 88.983676 
L 224.96447 88.983676 
L 227.410531 88.983676 
L 229.856593 88.983676 
L 232.302654 88.983676 
L 234.748716 88.983676 
L 237.194777 88.983676 
L 239.640839 88.983676 
L 242.0869 88.983676 
L 244.532961 88.983676 
L 246.979023 88.983676 
L 249.425084 88.983676 
L 251.871146 88.983676 
L 254.317207 88.983676 
L 256.763269 88.983676 
L 259.20933 88.983676 
L 261.655391 88.983676 
L 264.101453 88.983676 
L 266.547514 88.983676 
L 268.993576 88.983676 
L 271.439637 88.983676 
L 273.885699 88.983676 
L 276.33176 88.983676 
L 278.777821 88.983676 
L 281.223883 88.983676 
L 283.669944 88.983676 
L 286.116006 88.983676 
L 288.562067 88.983676 
L 291.008129 88.983676 
L 293.45419 88.983676 
L 295.900251 88.983676 
L 298.346313 88.983676 
L 300.792374 88.983676 
L 303.238436 88.983676 
L 305.684497 88.983676 
L 308.130559 88.983676 
L 310.57662 88.983676 
L 313.022681 88.983676 
L 315.468743 88.983676 
L 317.914804 88.983676 
" clip-path="url(#pb4c351b7fe)" style="fill: none; stroke: #2c738e; stroke-width: 1.5; stroke-linecap: round"/>
   </g>
   <g id="line2d_21">
    <path d="M 75.754723 88.983676 
L 78.200784 88.983676 
L 80.646846 88.983676 
L 83.092907 88.983676 
L 85.538969 88.983676 
L 87.98503 88.983676 
L 90.431091 88.983676 
L 92.877153 88.983676 
L 95.323214 88.983676 
L 97.769276 88.983676 
L 100.215337 88.983676 
L 102.661399 88.983676 
L 105.10746 88.983676 
L 107.553521 88.983676 
L 109.999583 88.983676 
L 112.445644 88.983676 
L 114.891706 88.983676 
L 117.337767 88.983676 
L 119.783829 88.983676 
L 122.22989 88.983676 
L 124.675951 88.983676 
L 127.122013 88.983676 
L 129.568074 88.983676 
L 132.014136 88.983676 
L 134.460197 88.983676 
L 136.906259 88.983676 
L 139.35232 88.983676 
L 141.798381 88.983676 
L 144.244443 88.983676 
L 146.690504 88.983676 
L 149.136566 88.983676 
L 151.582627 88.983676 
L 154.028689 88.983676 
L 156.47475 88.983676 
L 158.920811 88.983676 
L 161.366873 88.983676 
L 163.812934 88.983676 
L 166.258996 88.983676 
L 168.705057 88.983676 
L 171.151119 88.983676 
L 173.59718 88.983676 
L 176.043241 88.983676 
L 178.489303 88.983676 
L 180.935364 88.983676 
L 183.381426 88.983676 
L 185.827487 88.983676 
L 188.273549 88.983676 
L 190.71961 88.983676 
L 193.165671 88.983676 
L 195.611733 88.983676 
L 198.057794 88.983676 
L 200.503856 88.983676 
L 202.949917 88.983676 
L 205.395979 88.983676 
L 207.84204 88.983676 
L 210.288101 88.983676 
L 212.734163 88.983676 
L 215.180224 88.983676 
L 217.626286 88.983676 
L 220.072347 88.983676 
L 222.518409 88.983676 
L 224.96447 88.983676 
L 227.410531 88.983676 
L 229.856593 88.983676 
L 232.302654 88.983676 
L 234.748716 88.983676 
L 237.194777 88.983676 
L 239.640839 88.983676 
L 242.0869 88.983676 
L 244.532961 88.983676 
L 246.979023 88.983676 
L 249.425084 88.983676 
L 251.871146 88.983676 
L 254.317207 88.983676 
L 256.763269 88.983676 
L 259.20933 88.983676 
L 261.655391 88.983676 
L 264.101453 88.983676 
L 266.547514 88.983676 
L 268.993576 88.983676 
L 271.439637 88.983676 
L 273.885699 88.983676 
L 276.33176 88.983676 
L 278.777821 88.983676 
L 281.223883 88.983676 
L 283.669944 88.983676 
L 286.116006 88.983676 
L 288.562067 88.983676 
L 291.008129 88.983676 
L 293.45419 88.983676 
L 295.900251 88.983676 
L 298.346313 88.983676 
L 300.792374 88.983676 
L 303.238436 88.983676 
L 305.684497 88.983676 
L 308.130559 88.983676 
L 310.57662 88.983676 
L 313.022681 88.983676 
L 315.468743 88.983676 
L 317.914804 88.983676 
" clip-path="url(#pb4c351b7fe)" style="fill: none; stroke: #277f8e; stroke-width: 1.5; stroke-linecap: round"/>
   </g>
   <g id="line2d_22">
    <path d="M 75.754723 88.983676 
L 78.200784 88.983676 
L 80.646846 88.983676 
L 83.092907 88.983676 
L 85.538969 88.983676 
L 87.98503 88.983676 
L 90.431091 88.983676 
L 92.877153 88.983676 
L 95.323214 88.983676 
L 97.769276 88.983676 
L 100.215337 88.983676 
L 102.661399 88.983676 
L 105.10746 88.983676 
L 107.553521 88.983676 
L 109.999583 88.983676 
L 112.445644 88.983676 
L 114.891706 88.983676 
L 117.337767 88.983676 
L 119.783829 88.983676 
L 122.22989 88.983676 
L 124.675951 88.983676 
L 127.122013 88.983676 
L 129.568074 88.983676 
L 132.014136 88.983676 
L 134.460197 88.983676 
L 136.906259 88.983676 
L 139.35232 88.983676 
L 141.798381 88.983676 
L 144.244443 88.983676 
L 146.690504 88.983676 
L 149.136566 88.983676 
L 151.582627 88.983676 
L 154.028689 88.983676 
L 156.47475 88.983676 
L 158.920811 88.983676 
L 161.366873 88.983676 
L 163.812934 88.983676 
L 166.258996 88.983676 
L 168.705057 88.983676 
L 171.151119 88.983676 
L 173.59718 88.983676 
L 176.043241 88.983676 
L 178.489303 88.983676 
L 180.935364 88.983676 
L 183.381426 88.983676 
L 185.827487 88.983676 
L 188.273549 88.983676 
L 190.71961 88.983676 
L 193.165671 88.983676 
L 195.611733 88.983676 
L 198.057794 88.983676 
L 200.503856 88.983676 
L 202.949917 88.983676 
L 205.395979 88.983676 
L 207.84204 88.983676 
L 210.288101 88.983676 
L 212.734163 88.983676 
L 215.180224 88.983676 
L 217.626286 88.983676 
L 220.072347 88.983676 
L 222.518409 88.983676 
L 224.96447 88.983676 
L 227.410531 88.983676 
L 229.856593 88.983676 
L 232.302654 88.983676 
L 234.748716 88.983676 
L 237.194777 88.983676 
L 239.640839 88.983676 
L 242.0869 88.983676 
L 244.532961 88.983676 
L 246.979023 88.983676 
L 249.425084 88.983676 
L 251.871146 88.983676 
L 254.317207 88.983676 
L 256.763269 88.983676 
L 259.20933 88.983676 
L 261.655391 88.983676 
L 264.101453 88.983676 
L 266.547514 88.983676 
L 268.993576 88.983676 
L 271.439637 88.983676 
L 273.885699 88.983676 
L 276.33176 88.983676 
L 278.777821 88.983676 
L 281.223883 88.983676 
L 283.669944 88.983676 
L 286.116006 88.983676 
L 288.562067 88.983676 
L 291.008129 88.983676 
L 293.45419 88.983676 
L 295.900251 88.983676 
L 298.346313 88.983676 
L 300.792374 88.983676 
L 303.238436 88.983676 
L 305.684497 88.983676 
L 308.130559 88.983676 
L 310.57662 88.983676 
L 313.022681 88.983676 
L 315.468743 88.983676 
L 317.914804 88.983676 
" clip-path="url(#pb4c351b7fe)" style="fill: none; stroke: #238a8d; stroke-width: 1.5; stroke-linecap: round"/>
   </g>
   <g id="line2d_23">
    <path d="M 75.754723 88.983676 
L 78.200784 88.983676 
L 80.646846 88.983676 
L 83.092907 88.983676 
L 85.538969 88.983676 
L 87.98503 88.983676 
L 90.431091 88.983676 
L 92.877153 88.983676 
L 95.323214 88.983676 
L 97.769276 88.983676 
L 100.215337 88.983676 
L 102.661399 88.983676 
L 105.10746 88.983676 
L 107.553521 88.983676 
L 109.999583 88.983676 
L 112.445644 88.983676 
L 114.891706 88.983676 
L 117.337767 88.983676 
L 119.783829 88.983676 
L 122.22989 88.983676 
L 124.675951 88.983676 
L 127.122013 88.983676 
L 129.568074 88.983676 
L 132.014136 88.983676 
L 134.460197 88.983676 
L 136.906259 88.983676 
L 139.35232 88.983676 
L 141.798381 88.983676 
L 144.244443 88.983676 
L 146.690504 88.983676 
L 149.136566 88.983676 
L 151.582627 88.983676 
L 154.028689 88.983676 
L 156.47475 88.983676 
L 158.920811 88.983676 
L 161.366873 88.983676 
L 163.812934 88.983676 
L 166.258996 88.983676 
L 168.705057 88.983676 
L 171.151119 88.983676 
L 173.59718 88.983676 
L 176.043241 88.983676 
L 178.489303 88.983676 
L 180.935364 88.983676 
L 183.381426 88.983676 
L 185.827487 88.983676 
L 188.273549 88.983676 
L 190.71961 88.983676 
L 193.165671 88.983676 
L 195.611733 88.983676 
L 198.057794 88.983676 
L 200.503856 88.983676 
L 202.949917 88.983676 
L 205.395979 88.983676 
L 207.84204 88.983676 
L 210.288101 88.983676 
L 212.734163 88.983676 
L 215.180224 88.983676 
L 217.626286 88.983676 
L 220.072347 88.983676 
L 222.518409 88.983676 
L 224.96447 88.983676 
L 227.410531 88.983676 
L 229.856593 88.983676 
L 232.302654 88.983676 
L 234.748716 88.983676 
L 237.194777 88.983676 
L 239.640839 88.983676 
L 242.0869 88.983676 
L 244.532961 88.983676 
L 246.979023 88.983676 
L 249.425084 88.983676 
L 251.871146 88.983676 
L 254.317207 88.983676 
L 256.763269 88.983676 
L 259.20933 88.983676 
L 261.655391 88.983676 
L 264.101453 88.983676 
L 266.547514 88.983676 
L 268.993576 88.983676 
L 271.439637 88.983676 
L 273.885699 88.983676 
L 276.33176 88.983676 
L 278.777821 88.983676 
L 281.223883 88.983676 
L 283.669944 88.983676 
L 286.116006 88.983676 
L 288.562067 88.983676 
L 291.008129 88.983676 
L 293.45419 88.983676 
L 295.900251 88.983676 
L 298.346313 88.983676 
L 300.792374 88.983676 
L 303.238436 88.983676 
L 305.684497 88.983676 
L 308.130559 88.983676 
L 310.57662 88.983676 
L 313.022681 88.983676 
L 315.468743 88.983676 
L 317.914804 88.983676 
" clip-path="url(#pb4c351b7fe)" style="fill: none; stroke: #1f968b; stroke-width: 1.5; stroke-linecap: round"/>
   </g>
   <g id="line2d_24">
    <path d="M 75.754723 88.983676 
L 78.200784 88.983676 
L 80.646846 88.983676 
L 83.092907 88.983676 
L 85.538969 88.983676 
L 87.98503 88.983676 
L 90.431091 88.983676 
L 92.877153 88.983676 
L 95.323214 88.983676 
L 97.769276 88.983676 
L 100.215337 88.983676 
L 102.661399 88.983676 
L 105.10746 88.983676 
L 107.553521 88.983676 
L 109.999583 88.983676 
L 112.445644 88.983676 
L 114.891706 88.983676 
L 117.337767 88.983676 
L 119.783829 88.983676 
L 122.22989 88.983676 
L 124.675951 88.983676 
L 127.122013 88.983676 
L 129.568074 88.983676 
L 132.014136 88.983676 
L 134.460197 88.983676 
L 136.906259 88.983676 
L 139.35232 88.983676 
L 141.798381 88.983676 
L 144.244443 88.983676 
L 146.690504 88.983676 
L 149.136566 88.983676 
L 151.582627 88.983676 
L 154.028689 88.983676 
L 156.47475 88.983676 
L 158.920811 88.983676 
L 161.366873 88.983676 
L 163.812934 88.983676 
L 166.258996 88.983676 
L 168.705057 88.983676 
L 171.151119 88.983676 
L 173.59718 88.983676 
L 176.043241 88.983676 
L 178.489303 88.983676 
L 180.935364 88.983676 
L 183.381426 88.983676 
L 185.827487 88.983676 
L 188.273549 88.983676 
L 190.71961 88.983676 
L 193.165671 88.983676 
L 195.611733 88.983676 
L 198.057794 88.983676 
L 200.503856 88.983676 
L 202.949917 88.983676 
L 205.395979 88.983676 
L 207.84204 88.983676 
L 210.288101 88.983676 
L 212.734163 88.983676 
L 215.180224 88.983676 
L 217.626286 88.983676 
L 220.072347 88.983676 
L 222.518409 88.983676 
L 224.96447 88.983676 
L 227.410531 88.983676 
L 229.856593 88.983676 
L 232.302654 88.983676 
L 234.748716 88.983676 
L 237.194777 88.983676 
L 239.640839 88.983676 
L 242.0869 88.983676 
L 244.532961 88.983676 
L 246.979023 88.983676 
L 249.425084 88.983676 
L 251.871146 88.983676 
L 254.317207 88.983676 
L 256.763269 88.983676 
L 259.20933 88.983676 
L 261.655391 88.983676 
L 264.101453 88.983676 
L 266.547514 88.983676 
L 268.993576 88.983676 
L 271.439637 88.983676 
L 273.885699 88.983676 
L 276.33176 88.983676 
L 278.777821 88.983676 
L 281.223883 88.983676 
L 283.669944 88.983676 
L 286.116006 88.983676 
L 288.562067 88.983676 
L 291.008129 88.983676 
L 293.45419 88.983676 
L 295.900251 88.983676 
L 298.346313 88.983676 
L 300.792374 88.983676 
L 303.238436 88.983676 
L 305.684497 88.983676 
L 308.130559 88.983676 
L 310.57662 88.983676 
L 313.022681 88.983676 
L 315.468743 88.983676 
L 317.914804 88.983676 
" clip-path="url(#pb4c351b7fe)" style="fill: none; stroke: #1fa187; stroke-width: 1.5; stroke-linecap: round"/>
   </g>
   <g id="line2d_25">
    <path d="M 75.754723 88.983676 
L 78.200784 88.983676 
L 80.646846 88.983676 
L 83.092907 88.983676 
L 85.538969 88.983676 
L 87.98503 88.983676 
L 90.431091 88.983676 
L 92.877153 88.983676 
L 95.323214 88.983676 
L 97.769276 88.983676 
L 100.215337 88.983676 
L 102.661399 88.983676 
L 105.10746 88.983676 
L 107.553521 88.983676 
L 109.999583 88.983676 
L 112.445644 88.983676 
L 114.891706 88.983676 
L 117.337767 88.983676 
L 119.783829 88.983676 
L 122.22989 88.983676 
L 124.675951 88.983676 
L 127.122013 88.983676 
L 129.568074 88.983676 
L 132.014136 88.983676 
L 134.460197 88.983676 
L 136.906259 88.983676 
L 139.35232 88.983676 
L 141.798381 88.983676 
L 144.244443 88.983676 
L 146.690504 88.983676 
L 149.136566 88.983676 
L 151.582627 88.983676 
L 154.028689 88.983676 
L 156.47475 88.983676 
L 158.920811 88.983676 
L 161.366873 88.983676 
L 163.812934 88.983676 
L 166.258996 88.983676 
L 168.705057 88.983676 
L 171.151119 88.983676 
L 173.59718 88.983676 
L 176.043241 88.983676 
L 178.489303 88.983676 
L 180.935364 88.983676 
L 183.381426 88.983676 
L 185.827487 88.983676 
L 188.273549 88.983676 
L 190.71961 88.983676 
L 193.165671 88.983676 
L 195.611733 88.983676 
L 198.057794 88.983676 
L 200.503856 88.983676 
L 202.949917 88.983676 
L 205.395979 88.983676 
L 207.84204 88.983676 
L 210.288101 88.983676 
L 212.734163 88.983676 
L 215.180224 88.983676 
L 217.626286 88.983676 
L 220.072347 88.983676 
L 222.518409 88.983676 
L 224.96447 88.983676 
L 227.410531 88.983676 
L 229.856593 88.983676 
L 232.302654 88.983676 
L 234.748716 88.983676 
L 237.194777 88.983676 
L 239.640839 88.983676 
L 242.0869 88.983676 
L 244.532961 88.983676 
L 246.979023 88.983676 
L 249.425084 88.983676 
L 251.871146 88.983676 
L 254.317207 88.983676 
L 256.763269 88.983676 
L 259.20933 88.983676 
L 261.655391 88.983676 
L 264.101453 88.983676 
L 266.547514 88.983676 
L 268.993576 88.983676 
L 271.439637 88.983676 
L 273.885699 88.983676 
L 276.33176 88.983676 
L 278.777821 88.983676 
L 281.223883 88.983676 
L 283.669944 88.983676 
L 286.116006 88.983676 
L 288.562067 88.983676 
L 291.008129 88.983676 
L 293.45419 88.983676 
L 295.900251 88.983676 
L 298.346313 88.983676 
L 300.792374 88.983676 
L 303.238436 88.983676 
L 305.684497 88.983676 
L 308.130559 88.983676 
L 310.57662 88.983676 
L 313.022681 88.983676 
L 315.468743 88.983676 
L 317.914804 88.983676 
" clip-path="url(#pb4c351b7fe)" style="fill: none; stroke: #26ad81; stroke-width: 1.5; stroke-linecap: round"/>
   </g>
   <g id="line2d_26">
    <path d="M 75.754723 88.983676 
L 78.200784 88.983676 
L 80.646846 88.983676 
L 83.092907 88.983676 
L 85.538969 88.983676 
L 87.98503 88.983676 
L 90.431091 88.983676 
L 92.877153 88.983676 
L 95.323214 88.983676 
L 97.769276 88.983676 
L 100.215337 88.983676 
L 102.661399 88.983676 
L 105.10746 88.983676 
L 107.553521 88.983676 
L 109.999583 88.983676 
L 112.445644 88.983676 
L 114.891706 88.983676 
L 117.337767 88.983676 
L 119.783829 88.983676 
L 122.22989 88.983676 
L 124.675951 88.983676 
L 127.122013 88.983676 
L 129.568074 88.983676 
L 132.014136 88.983676 
L 134.460197 88.983676 
L 136.906259 88.983676 
L 139.35232 88.983676 
L 141.798381 88.983676 
L 144.244443 88.983676 
L 146.690504 88.983676 
L 149.136566 88.983676 
L 151.582627 88.983676 
L 154.028689 88.983676 
L 156.47475 88.983676 
L 158.920811 88.983676 
L 161.366873 88.983676 
L 163.812934 88.983676 
L 166.258996 88.983676 
L 168.705057 88.983676 
L 171.151119 88.983676 
L 173.59718 88.983676 
L 176.043241 88.983676 
L 178.489303 88.983676 
L 180.935364 88.983676 
L 183.381426 88.983676 
L 185.827487 88.983676 
L 188.273549 88.983676 
L 190.71961 88.983676 
L 193.165671 88.983676 
L 195.611733 88.983676 
L 198.057794 88.983676 
L 200.503856 88.983676 
L 202.949917 88.983676 
L 205.395979 88.983676 
L 207.84204 88.983676 
L 210.288101 88.983676 
L 212.734163 88.983676 
L 215.180224 88.983676 
L 217.626286 88.983676 
L 220.072347 88.983676 
L 222.518409 88.983676 
L 224.96447 88.983676 
L 227.410531 88.983676 
L 229.856593 88.983676 
L 232.302654 88.983676 
L 234.748716 88.983676 
L 237.194777 88.983676 
L 239.640839 88.983676 
L 242.0869 88.983676 
L 244.532961 88.983676 
L 246.979023 88.983676 
L 249.425084 88.983676 
L 251.871146 88.983676 
L 254.317207 88.983676 
L 256.763269 88.983676 
L 259.20933 88.983676 
L 261.655391 88.983676 
L 264.101453 88.983676 
L 266.547514 88.983676 
L 268.993576 88.983676 
L 271.439637 88.983676 
L 273.885699 88.983676 
L 276.33176 88.983676 
L 278.777821 88.983676 
L 281.223883 88.983676 
L 283.669944 88.983676 
L 286.116006 88.983676 
L 288.562067 88.983676 
L 291.008129 88.983676 
L 293.45419 88.983676 
L 295.900251 88.983676 
L 298.346313 88.983676 
L 300.792374 88.983676 
L 303.238436 88.983676 
L 305.684497 88.983676 
L 308.130559 88.983676 
L 310.57662 88.983676 
L 313.022681 88.983676 
L 315.468743 88.983676 
L 317.914804 88.983676 
" clip-path="url(#pb4c351b7fe)" style="fill: none; stroke: #35b779; stroke-width: 1.5; stroke-linecap: round"/>
   </g>
   <g id="line2d_27">
    <path d="M 75.754723 88.983676 
L 78.200784 88.983676 
L 80.646846 88.983676 
L 83.092907 88.983676 
L 85.538969 88.983676 
L 87.98503 88.983676 
L 90.431091 88.983676 
L 92.877153 88.983676 
L 95.323214 88.983676 
L 97.769276 88.983676 
L 100.215337 88.983676 
L 102.661399 88.983676 
L 105.10746 88.983676 
L 107.553521 88.983676 
L 109.999583 88.983676 
L 112.445644 88.983676 
L 114.891706 88.983676 
L 117.337767 88.983676 
L 119.783829 88.983676 
L 122.22989 88.983676 
L 124.675951 88.983676 
L 127.122013 88.983676 
L 129.568074 88.983676 
L 132.014136 88.983676 
L 134.460197 88.983676 
L 136.906259 88.983676 
L 139.35232 88.983676 
L 141.798381 88.983676 
L 144.244443 88.983676 
L 146.690504 88.983676 
L 149.136566 88.983676 
L 151.582627 88.983676 
L 154.028689 88.983676 
L 156.47475 88.983676 
L 158.920811 88.983676 
L 161.366873 88.983676 
L 163.812934 88.983676 
L 166.258996 88.983676 
L 168.705057 88.983676 
L 171.151119 88.983676 
L 173.59718 88.983676 
L 176.043241 88.983676 
L 178.489303 88.983676 
L 180.935364 88.983676 
L 183.381426 88.983676 
L 185.827487 88.983676 
L 188.273549 88.983676 
L 190.71961 88.983676 
L 193.165671 88.983676 
L 195.611733 88.983676 
L 198.057794 88.983676 
L 200.503856 88.983676 
L 202.949917 88.983676 
L 205.395979 88.983676 
L 207.84204 88.983676 
L 210.288101 88.983676 
L 212.734163 88.983676 
L 215.180224 88.983676 
L 217.626286 88.983676 
L 220.072347 88.983676 
L 222.518409 88.983676 
L 224.96447 88.983676 
L 227.410531 88.983676 
L 229.856593 88.983676 
L 232.302654 88.983676 
L 234.748716 88.983676 
L 237.194777 88.983676 
L 239.640839 88.983676 
L 242.0869 88.983676 
L 244.532961 88.983676 
L 246.979023 88.983676 
L 249.425084 88.983676 
L 251.871146 88.983676 
L 254.317207 88.983676 
L 256.763269 88.983676 
L 259.20933 88.983676 
L 261.655391 88.983676 
L 264.101453 88.983676 
L 266.547514 88.983676 
L 268.993576 88.983676 
L 271.439637 88.983676 
L 273.885699 88.983676 
L 276.33176 88.983676 
L 278.777821 88.983676 
L 281.223883 88.983676 
L 283.669944 88.983676 
L 286.116006 88.983676 
L 288.562067 88.983676 
L 291.008129 88.983676 
L 293.45419 88.983676 
L 295.900251 88.983676 
L 298.346313 88.983676 
L 300.792374 88.983676 
L 303.238436 88.983676 
L 305.684497 88.983676 
L 308.130559 88.983676 
L 310.57662 88.983676 
L 313.022681 88.983676 
L 315.468743 88.983676 
L 317.914804 88.983676 
" clip-path="url(#pb4c351b7fe)" style="fill: none; stroke: #4ac16d; stroke-width: 1.5; stroke-linecap: round"/>
   </g>
   <g id="line2d_28">
    <path d="M 75.754723 88.983676 
L 78.200784 88.983676 
L 80.646846 88.983676 
L 83.092907 88.983676 
L 85.538969 88.983676 
L 87.98503 88.983676 
L 90.431091 88.983676 
L 92.877153 88.983676 
L 95.323214 88.983676 
L 97.769276 88.983676 
L 100.215337 88.983676 
L 102.661399 88.983676 
L 105.10746 88.983676 
L 107.553521 88.983676 
L 109.999583 88.983676 
L 112.445644 88.983676 
L 114.891706 88.983676 
L 117.337767 88.983676 
L 119.783829 88.983676 
L 122.22989 88.983676 
L 124.675951 88.983676 
L 127.122013 88.983676 
L 129.568074 88.983676 
L 132.014136 88.983676 
L 134.460197 88.983676 
L 136.906259 88.983676 
L 139.35232 88.983676 
L 141.798381 88.983676 
L 144.244443 88.983676 
L 146.690504 88.983676 
L 149.136566 88.983676 
L 151.582627 88.983676 
L 154.028689 88.983676 
L 156.47475 88.983676 
L 158.920811 88.983676 
L 161.366873 88.983676 
L 163.812934 88.983676 
L 166.258996 88.983676 
L 168.705057 88.983676 
L 171.151119 88.983676 
L 173.59718 88.983676 
L 176.043241 88.983676 
L 178.489303 88.983676 
L 180.935364 88.983676 
L 183.381426 88.983676 
L 185.827487 88.983676 
L 188.273549 88.983676 
L 190.71961 88.983676 
L 193.165671 88.983676 
L 195.611733 88.983676 
L 198.057794 88.983676 
L 200.503856 88.983676 
L 202.949917 88.983676 
L 205.395979 88.983676 
L 207.84204 88.983676 
L 210.288101 88.983676 
L 212.734163 88.983676 
L 215.180224 88.983676 
L 217.626286 88.983676 
L 220.072347 88.983676 
L 222.518409 88.983676 
L 224.96447 88.983676 
L 227.410531 88.983676 
L 229.856593 88.983676 
L 232.302654 88.983676 
L 234.748716 88.983676 
L 237.194777 88.983676 
L 239.640839 88.983676 
L 242.0869 88.983676 
L 244.532961 88.983676 
L 246.979023 88.983676 
L 249.425084 88.983676 
L 251.871146 88.983676 
L 254.317207 88.983676 
L 256.763269 88.983676 
L 259.20933 88.983676 
L 261.655391 88.983676 
L 264.101453 88.983676 
L 266.547514 88.983676 
L 268.993576 88.983676 
L 271.439637 88.983676 
L 273.885699 88.983676 
L 276.33176 88.983676 
L 278.777821 88.983676 
L 281.223883 88.983676 
L 283.669944 88.983676 
L 286.116006 88.983676 
L 288.562067 88.983676 
L 291.008129 88.983676 
L 293.45419 88.983676 
L 295.900251 88.983676 
L 298.346313 88.983676 
L 300.792374 88.983676 
L 303.238436 88.983676 
L 305.684497 88.983676 
L 308.130559 88.983676 
L 310.57662 88.983676 
L 313.022681 88.983676 
L 315.468743 88.983676 
L 317.914804 88.983676 
" clip-path="url(#pb4c351b7fe)" style="fill: none; stroke: #65cb5e; stroke-width: 1.5; stroke-linecap: round"/>
   </g>
   <g id="line2d_29">
    <path d="M 75.754723 88.983676 
L 78.200784 88.983676 
L 80.646846 88.983676 
L 83.092907 88.983676 
L 85.538969 88.983676 
L 87.98503 88.983676 
L 90.431091 88.983676 
L 92.877153 88.983676 
L 95.323214 88.983676 
L 97.769276 88.983676 
L 100.215337 88.983676 
L 102.661399 88.983676 
L 105.10746 88.983676 
L 107.553521 88.983676 
L 109.999583 88.983676 
L 112.445644 88.983676 
L 114.891706 88.983676 
L 117.337767 88.983676 
L 119.783829 88.983676 
L 122.22989 88.983676 
L 124.675951 88.983676 
L 127.122013 88.983676 
L 129.568074 88.983676 
L 132.014136 88.983676 
L 134.460197 88.983676 
L 136.906259 88.983676 
L 139.35232 88.983676 
L 141.798381 88.983676 
L 144.244443 88.983676 
L 146.690504 88.983676 
L 149.136566 88.983676 
L 151.582627 88.983676 
L 154.028689 88.983676 
L 156.47475 88.983676 
L 158.920811 88.983676 
L 161.366873 88.983676 
L 163.812934 88.983676 
L 166.258996 88.983676 
L 168.705057 88.983676 
L 171.151119 88.983676 
L 173.59718 88.983676 
L 176.043241 88.983676 
L 178.489303 88.983676 
L 180.935364 88.983676 
L 183.381426 88.983676 
L 185.827487 88.983676 
L 188.273549 88.983676 
L 190.71961 88.983676 
L 193.165671 88.983676 
L 195.611733 88.983676 
L 198.057794 88.983676 
L 200.503856 88.983676 
L 202.949917 88.983676 
L 205.395979 88.983676 
L 207.84204 88.983676 
L 210.288101 88.983676 
L 212.734163 88.983676 
L 215.180224 88.983676 
L 217.626286 88.983676 
L 220.072347 88.983676 
L 222.518409 88.983676 
L 224.96447 88.983676 
L 227.410531 88.983676 
L 229.856593 88.983676 
L 232.302654 88.983676 
L 234.748716 88.983676 
L 237.194777 88.983676 
L 239.640839 88.983676 
L 242.0869 88.983676 
L 244.532961 88.983676 
L 246.979023 88.983676 
L 249.425084 88.983676 
L 251.871146 88.983676 
L 254.317207 88.983676 
L 256.763269 88.983676 
L 259.20933 88.983676 
L 261.655391 88.983676 
L 264.101453 88.983676 
L 266.547514 88.983676 
L 268.993576 88.983676 
L 271.439637 88.983676 
L 273.885699 88.983676 
L 276.33176 88.983676 
L 278.777821 88.983676 
L 281.223883 88.983676 
L 283.669944 88.983676 
L 286.116006 88.983676 
L 288.562067 88.983676 
L 291.008129 88.983676 
L 293.45419 88.983676 
L 295.900251 88.983676 
L 298.346313 88.983676 
L 300.792374 88.983676 
L 303.238436 88.983676 
L 305.684497 88.983676 
L 308.130559 88.983676 
L 310.57662 88.983676 
L 313.022681 88.983676 
L 315.468743 88.983676 
L 317.914804 88.983676 
" clip-path="url(#pb4c351b7fe)" style="fill: none; stroke: #81d34d; stroke-width: 1.5; stroke-linecap: round"/>
   </g>
   <g id="line2d_30">
    <path d="M 75.754723 88.983676 
L 78.200784 88.983676 
L 80.646846 88.983676 
L 83.092907 88.983676 
L 85.538969 88.983676 
L 87.98503 88.983676 
L 90.431091 88.983676 
L 92.877153 88.983676 
L 95.323214 88.983676 
L 97.769276 88.983676 
L 100.215337 88.983676 
L 102.661399 88.983676 
L 105.10746 88.983676 
L 107.553521 88.983676 
L 109.999583 88.983676 
L 112.445644 88.983676 
L 114.891706 88.983676 
L 117.337767 88.983676 
L 119.783829 88.983676 
L 122.22989 88.983676 
L 124.675951 88.983676 
L 127.122013 88.983676 
L 129.568074 88.983676 
L 132.014136 88.983676 
L 134.460197 88.983676 
L 136.906259 88.983676 
L 139.35232 88.983676 
L 141.798381 88.983676 
L 144.244443 88.983676 
L 146.690504 88.983676 
L 149.136566 88.983676 
L 151.582627 88.983676 
L 154.028689 88.983676 
L 156.47475 88.983676 
L 158.920811 88.983676 
L 161.366873 88.983676 
L 163.812934 88.983676 
L 166.258996 88.983676 
L 168.705057 88.983676 
L 171.151119 88.983676 
L 173.59718 88.983676 
L 176.043241 88.983676 
L 178.489303 88.983676 
L 180.935364 88.983676 
L 183.381426 88.983676 
L 185.827487 88.983676 
L 188.273549 88.983676 
L 190.71961 88.983676 
L 193.165671 88.983676 
L 195.611733 88.983676 
L 198.057794 88.983676 
L 200.503856 88.983676 
L 202.949917 88.983676 
L 205.395979 88.983676 
L 207.84204 88.983676 
L 210.288101 88.983676 
L 212.734163 88.983676 
L 215.180224 88.983676 
L 217.626286 88.983676 
L 220.072347 88.983676 
L 222.518409 88.983676 
L 224.96447 88.983676 
L 227.410531 88.983676 
L 229.856593 88.983676 
L 232.302654 88.983676 
L 234.748716 88.983676 
L 237.194777 88.983676 
L 239.640839 88.983676 
L 242.0869 88.983676 
L 244.532961 88.983676 
L 246.979023 88.983676 
L 249.425084 88.983676 
L 251.871146 88.983676 
L 254.317207 88.983676 
L 256.763269 88.983676 
L 259.20933 88.983676 
L 261.655391 88.983676 
L 264.101453 88.983676 
L 266.547514 88.983676 
L 268.993576 88.983676 
L 271.439637 88.983676 
L 273.885699 88.983676 
L 276.33176 88.983676 
L 278.777821 88.983676 
L 281.223883 88.983676 
L 283.669944 88.983676 
L 286.116006 88.983676 
L 288.562067 88.983676 
L 291.008129 88.983676 
L 293.45419 88.983676 
L 295.900251 88.983676 
L 298.346313 88.983676 
L 300.792374 88.983676 
L 303.238436 88.983676 
L 305.684497 88.983676 
L 308.130559 88.983676 
L 310.57662 88.983676 
L 313.022681 88.983676 
L 315.468743 88.983676 
L 317.914804 88.983676 
" clip-path="url(#pb4c351b7fe)" style="fill: none; stroke: #a0da39; stroke-width: 1.5; stroke-linecap: round"/>
   </g>
   <g id="line2d_31">
    <path d="M 75.754723 88.983676 
L 78.200784 88.983676 
L 80.646846 88.983676 
L 83.092907 88.983676 
L 85.538969 88.983676 
L 87.98503 88.983676 
L 90.431091 88.983676 
L 92.877153 88.983676 
L 95.323214 88.983676 
L 97.769276 88.983676 
L 100.215337 88.983676 
L 102.661399 88.983676 
L 105.10746 88.983676 
L 107.553521 88.983676 
L 109.999583 88.983676 
L 112.445644 88.983676 
L 114.891706 88.983676 
L 117.337767 88.983676 
L 119.783829 88.983676 
L 122.22989 88.983676 
L 124.675951 88.983676 
L 127.122013 88.983676 
L 129.568074 88.983676 
L 132.014136 88.983676 
L 134.460197 88.983676 
L 136.906259 88.983676 
L 139.35232 88.983676 
L 141.798381 88.983676 
L 144.244443 88.983676 
L 146.690504 88.983676 
L 149.136566 88.983676 
L 151.582627 88.983676 
L 154.028689 88.983676 
L 156.47475 88.983676 
L 158.920811 88.983676 
L 161.366873 88.983676 
L 163.812934 88.983676 
L 166.258996 88.983676 
L 168.705057 88.983676 
L 171.151119 88.983676 
L 173.59718 88.983676 
L 176.043241 88.983676 
L 178.489303 88.983676 
L 180.935364 88.983676 
L 183.381426 88.983676 
L 185.827487 88.983676 
L 188.273549 88.983676 
L 190.71961 88.983676 
L 193.165671 88.983676 
L 195.611733 88.983676 
L 198.057794 88.983676 
L 200.503856 88.983676 
L 202.949917 88.983676 
L 205.395979 88.983676 
L 207.84204 88.983676 
L 210.288101 88.983676 
L 212.734163 88.983676 
L 215.180224 88.983676 
L 217.626286 88.983676 
L 220.072347 88.983676 
L 222.518409 88.983676 
L 224.96447 88.983676 
L 227.410531 88.983676 
L 229.856593 88.983676 
L 232.302654 88.983676 
L 234.748716 88.983676 
L 237.194777 88.983676 
L 239.640839 88.983676 
L 242.0869 88.983676 
L 244.532961 88.983676 
L 246.979023 88.983676 
L 249.425084 88.983676 
L 251.871146 88.983676 
L 254.317207 88.983676 
L 256.763269 88.983676 
L 259.20933 88.983676 
L 261.655391 88.983676 
L 264.101453 88.983676 
L 266.547514 88.983676 
L 268.993576 88.983676 
L 271.439637 88.983676 
L 273.885699 88.983676 
L 276.33176 88.983676 
L 278.777821 88.983676 
L 281.223883 88.983676 
L 283.669944 88.983676 
L 286.116006 88.983676 
L 288.562067 88.983676 
L 291.008129 88.983676 
L 293.45419 88.983676 
L 295.900251 88.983676 
L 298.346313 88.983676 
L 300.792374 88.983676 
L 303.238436 88.983676 
L 305.684497 88.983676 
L 308.130559 88.983676 
L 310.57662 88.983676 
L 313.022681 88.983676 
L 315.468743 88.983676 
L 317.914804 88.983676 
" clip-path="url(#pb4c351b7fe)" style="fill: none; stroke: #c0df25; stroke-width: 1.5; stroke-linecap: round"/>
   </g>
   <g id="line2d_32">
    <path d="M 75.754723 88.983676 
L 78.200784 88.983676 
L 80.646846 88.983676 
L 83.092907 88.983676 
L 85.538969 88.983676 
L 87.98503 88.983676 
L 90.431091 88.983676 
L 92.877153 88.983676 
L 95.323214 88.983676 
L 97.769276 88.983676 
L 100.215337 88.983676 
L 102.661399 88.983676 
L 105.10746 88.983676 
L 107.553521 88.983676 
L 109.999583 88.983676 
L 112.445644 88.983676 
L 114.891706 88.983676 
L 117.337767 88.983676 
L 119.783829 88.983676 
L 122.22989 88.983676 
L 124.675951 88.983676 
L 127.122013 88.983676 
L 129.568074 88.983676 
L 132.014136 88.983676 
L 134.460197 88.983676 
L 136.906259 88.983676 
L 139.35232 88.983676 
L 141.798381 88.983676 
L 144.244443 88.983676 
L 146.690504 88.983676 
L 149.136566 88.983676 
L 151.582627 88.983676 
L 154.028689 88.983676 
L 156.47475 88.983676 
L 158.920811 88.983676 
L 161.366873 88.983676 
L 163.812934 88.983676 
L 166.258996 88.983676 
L 168.705057 88.983676 
L 171.151119 88.983676 
L 173.59718 88.983676 
L 176.043241 88.983676 
L 178.489303 88.983676 
L 180.935364 88.983676 
L 183.381426 88.983676 
L 185.827487 88.983676 
L 188.273549 88.983676 
L 190.71961 88.983676 
L 193.165671 88.983676 
L 195.611733 88.983676 
L 198.057794 88.983676 
L 200.503856 88.983676 
L 202.949917 88.983676 
L 205.395979 88.983676 
L 207.84204 88.983676 
L 210.288101 88.983676 
L 212.734163 88.983676 
L 215.180224 88.983676 
L 217.626286 88.983676 
L 220.072347 88.983676 
L 222.518409 88.983676 
L 224.96447 88.983676 
L 227.410531 88.983676 
L 229.856593 88.983676 
L 232.302654 88.983676 
L 234.748716 88.983676 
L 237.194777 88.983676 
L 239.640839 88.983676 
L 242.0869 88.983676 
L 244.532961 88.983676 
L 246.979023 88.983676 
L 249.425084 88.983676 
L 251.871146 88.983676 
L 254.317207 88.983676 
L 256.763269 88.983676 
L 259.20933 88.983676 
L 261.655391 88.983676 
L 264.101453 88.983676 
L 266.547514 88.983676 
L 268.993576 88.983676 
L 271.439637 88.983676 
L 273.885699 88.983676 
L 276.33176 88.983676 
L 278.777821 88.983676 
L 281.223883 88.983676 
L 283.669944 88.983676 
L 286.116006 88.983676 
L 288.562067 88.983676 
L 291.008129 88.983676 
L 293.45419 88.983676 
L 295.900251 88.983676 
L 298.346313 88.983676 
L 300.792374 88.983676 
L 303.238436 88.983676 
L 305.684497 88.983676 
L 308.130559 88.983676 
L 310.57662 88.983676 
L 313.022681 88.983676 
L 315.468743 88.983676 
L 317.914804 88.983676 
" clip-path="url(#pb4c351b7fe)" style="fill: none; stroke: #dfe318; stroke-width: 1.5; stroke-linecap: round"/>
   </g>
   <g id="patch_3">
    <path d="M 63.646719 170.767352 
L 63.646719 7.2 
" style="fill: none"/>
   </g>
   <g id="patch_4">
    <path d="M 330.022808 170.767352 
L 330.022808 7.2 
" style="fill: none"/>
   </g>
   <g id="patch_5">
    <path d="M 63.646719 170.767352 
L 330.022808 170.767352 
" style="fill: none"/>
   </g>
   <g id="patch_6">
    <path d="M 63.646719 7.2 
L 330.022808 7.2 
" style="fill: none"/>
   </g>
  </g>
 </g>
 <defs>
  <clipPath id="pb4c351b7fe">
   <rect x="63.646719" y="7.2" width="266.37609" height="163.567352"/>
  </clipPath>
 </defs>
</svg>
