<svg data-v-fde0c5aa="" xmlns="http://www.w3.org/2000/svg" viewBox="0 0 300 300" class="font"><!----><defs data-v-fde0c5aa=""><!----></defs><rect data-v-fde0c5aa="" fill="#1c1c1c00" x="0" y="0" width="300px" height="300px" class="logo-background-square"></rect><defs data-v-fde0c5aa=""><!----></defs><g data-v-fde0c5aa="" id="edf04de8-f5d7-46eb-83c5-fc0774cfc581" fill="#9e9e9e" transform="matrix(15.52181625366211,0,0,15.52181625366211,31.307782983638376,-7.546434231080198)"><path d="M3.84 15.22C6.29 15.22 7.36 13.96 7.36 12.53C7.36 10.88 6.02 10.04 4.65 9.30C3.05 8.41 2.45 7.90 2.45 6.94C2.45 5.98 3.26 5.70 3.93 5.70C4.93 5.70 5.50 6.16 5.63 6.79C5.70 7.01 5.74 7.28 5.71 7.53C5.87 7.56 6.06 7.57 6.20 7.56C6.85 7.53 7.06 7.17 7.06 6.75C7.06 5.66 5.84 5.08 4.13 5.08C2.39 5.08 0.91 5.77 0.91 7.52C0.91 9.10 2.00 9.84 3.72 10.82C5.05 11.56 5.75 12.07 5.75 13.08C5.75 14.11 5.01 14.59 4.05 14.59C2.73 14.59 2.06 13.82 1.95 12.96C1.92 12.73 1.92 12.47 1.96 12.26C0.90 12.11 0.56 12.61 0.56 13.22C0.56 14.34 1.58 15.22 3.84 15.22ZM14.46 5.28L10.35 5.28C9.62 5.28 9.27 5.35 8.86 5.70C9.07 6.24 9.11 6.83 9.11 7.38L9.11 14.35C9.11 14.88 9.52 15.22 10.07 15.22C10.53 15.22 10.88 14.98 11.02 14.84C10.81 14.29 10.78 13.68 10.78 13.13L10.77 10.44L13.89 10.44C13.94 10.19 13.97 9.86 13.89 9.53L10.77 9.53L10.75 6.09C12.01 6.13 13.23 6.37 14.28 6.72C14.73 6.52 14.94 5.28 14.46 5.28Z"></path></g><!----><!----></svg>